<?xml version="1.0" encoding="UTF-8" standalone="no"?>
<!-- Created with Inkscape (http://www.inkscape.org/) -->

<svg
   xmlns:dc="http://purl.org/dc/elements/1.1/"
   xmlns:cc="http://creativecommons.org/ns#"
   xmlns:rdf="http://www.w3.org/1999/02/22-rdf-syntax-ns#"
   xmlns:svg="http://www.w3.org/2000/svg"
   xmlns="http://www.w3.org/2000/svg"
   xmlns:sodipodi="http://sodipodi.sourceforge.net/DTD/sodipodi-0.dtd"
   xmlns:inkscape="http://www.inkscape.org/namespaces/inkscape"
   width="100mm"
   height="100mm"
   viewBox="0 0 100 100"
   version="1.1"
   id="svg19124"
   inkscape:version="0.92.3 (2405546, 2018-03-11)"
   sodipodi:docname="inkscape_template_TMP.svg"
   shape-rendering="crispEdges">
  <sodipodi:namedview
     pagecolor="#ffffff"
     bordercolor="#666666"
     borderopacity="1"
     objecttolerance="10"
     gridtolerance="10"
     guidetolerance="10"
     inkscape:pageopacity="0"
     inkscape:pageshadow="2"
     inkscape:window-width="1568"
     inkscape:window-height="1550"
     id="namedview24021"
     showgrid="false"
     inkscape:zoom="0.62441667"
     inkscape:cx="712.66515"
     inkscape:cy="409.98265"
     inkscape:window-x="0"
     inkscape:window-y="0"
     inkscape:window-maximized="0"
     inkscape:current-layer="layer1" />
  <defs
     id="defs19118" />
  <metadata
     id="metadata19121">
    <rdf:RDF>
      <cc:Work
         rdf:about="">
        <dc:format>image/svg+xml</dc:format>
        <dc:type
           rdf:resource="http://purl.org/dc/dcmitype/StillImage" />
        <dc:title />
      </cc:Work>
    </rdf:RDF>
  </metadata>
  <g
     transform="translate(0,-197)"
     id="layer1"
     inkscape:groupmode="layer"
     inkscape:label="Layer 1">
    <g
       id="g24447"
       transform="matrix(0.26458333,0,0,0.26458333,0.10666333,197.9735)">

<polyline fill="none" points="192.1004,47.7394 189.7225,51.1455 187.3447,54.5516 184.9669,57.9577 184.9669,54.5516 184.9669,51.1455 184.9669,47.7394 184.9669,45.7676 186.5623,44.1729 188.5334,44.1729 190.5231,44.1729 192.1004,45.7676 192.1004,47.7394 192.1004,51.1455 192.1004,54.5516 192.1004,57.9577 192.1004,59.9295 190.5231,61.5235 188.5509,61.5235 186.5623,61.5235 184.9669,59.9295 184.9669,57.9577" stroke="black" stroke-width="1" /><polyline fill="none" points="197.8298,61.5877 200.7471,57.7851 198.696,53.7706 202.935,62.0679 200.7471,57.7851 203.4811,54.2207" stroke="black" stroke-width="1" /><polyline fill="none" points="218.2834,50.8793 215.3122,53.7823 212.341,56.6853 209.3698,59.5882 210.0049,56.2419 210.64,52.8956 211.2751,49.5492 211.6427,47.612 213.5075,46.3427 215.4441,46.7102 217.3989,47.0812 218.6511,48.9421 218.2834,50.8793 217.6483,54.2257 217.0132,57.572 216.3781,60.9183 216.0105,62.8556 214.1637,64.1276 212.2261,63.7598 210.2723,63.389 209.0021,61.5255 209.3698,59.5882" stroke="black" stroke-width="1" /><polyline fill="none" points="225.4743,52.5043 228.9663,49.9973 224.2065,66.4671" stroke="black" stroke-width="1" /><polyline fill="none" points="241.2387,63.3757 241.2407,63.3706 241.2427,63.3655 241.2447,63.3604 240.3905,65.5298 239.5363,67.6992 238.6821,69.8686 238.2873,70.8712 238.8393,71.5331 239.3643,71.7398 238.6941,71.4759 238.3611,70.6838 238.632,69.9959 238.6487,69.9535 238.6654,69.911 238.6821,69.8686 237.3025,70.3756 235.839,70.5363 234.4515,69.99 233.3027,69.5376 231.6623,68.228 232.5856,65.8832 233.0694,64.6546 234.0626,64.1432 235.215,64.1187 235.7749,64.0993 237.4111,64.3931 238.5133,64.5876 239.638,64.7729 240.7549,64.6043 241.2387,63.3757 241.7286,62.1315 241.0583,60.1364 239.1441,59.3827 237.341,58.6727 236.1662,59.2231 235.3191,59.8292" stroke="black" stroke-width="1" /><polyline fill="none" points="254.0422,67.332 253.1511,69.091 251.0232,69.7999 249.2641,68.9088 247.4898,68.01 246.7882,65.8677 247.6793,64.1087 248.139,63.2012 248.5987,62.2937 249.0584,61.3862 249.9495,59.6272 252.0921,58.9249 253.8514,59.8162 255.6254,60.7148 256.3124,62.8505 255.4213,64.6095 253.8821,67.648 252.3429,70.6864 250.8037,73.7249 249.9128,75.4836 247.7847,76.1928 246.0257,75.3017 244.5116,74.5347 243.7839,72.8589 244.1601,71.281" stroke="black" stroke-width="1" /><polyline fill="none" points="261.7784,68.1165 265.8292,66.6776 256.6838,81.1784" stroke="black" stroke-width="1" /><polyline fill="none" points="272.2083,73.8287 273.6524,71.9543 279.2899,76.2977 264.8739,86.8328" stroke="black" stroke-width="1" /><polyline fill="none" points="289.0119,84.9327 287.5107,83.5336 286.0096,82.1345 284.5084,80.7353 282.6653,82.7129 280.8221,84.6904 278.979,86.668 280.2854,86.2217 281.4554,86.3504 282.5465,87.3673 284.0517,88.7702 284.0606,91.099 282.7634,92.4908 281.836,93.4858 280.9086,94.4808 279.9813,95.4758 278.6254,96.9306 276.4653,96.9098 275.0978,95.6353 273.7434,94.3729 273.5834,92.2313 274.9393,90.7765" stroke="black" stroke-width="1" /><polyline fill="none" points="292.3208,93.1944 296.6118,92.9367 283.8,104.3283" stroke="black" stroke-width="1" /><polyline fill="none" points="292.5807,115.4177 296.0503,112.872 292.4388,107.9499 306.1392,104.9165" stroke="black" stroke-width="1" /><polyline fill="none" points="302.6975,116.1122 304.4043,115.0909 306.564,115.696 307.5415,117.3295 308.5186,118.9624 308.0226,121.1376 306.3158,122.1589 305.0212,122.9336 303.7267,123.7082 302.4321,124.4829 300.7256,125.504 298.5737,124.9133 297.5966,123.2804 296.6191,121.6468 297.116,119.4716 298.8224,118.4505 298.8196,118.4457 298.8167,118.4409 298.8138,118.4361 302.7565,116.0768 306.6993,113.7176 310.642,111.3583" stroke="black" stroke-width="1" /><polyline fill="none" points="304.3823,136.1063 308.2657,134.2521 305.6354,128.743 319.6611,128.3174" stroke="black" stroke-width="1" /><polyline fill="none" points="320.4745,136.1614 322.6959,135.3464 325.1473,142.0275 307.3338,143.2482" stroke="black" stroke-width="1" /><polyline fill="none" points="315.6996,158.5293 313.7767,159.0365 311.8734,157.8715 311.388,156.0312 310.9026,154.1909 311.9794,152.2225 313.9023,151.7153 315.361,151.3305 316.8198,150.9458 318.2785,150.561 320.2017,150.0537 322.1086,151.2351 322.5941,153.0754 323.0795,154.9158 321.999,156.8677 320.0758,157.375" stroke="black" stroke-width="1" /><polyline fill="none" points="317.9472,170.5722 315.9853,170.897 314.1994,169.559 313.8884,167.6813 313.5775,165.8036 314.834,163.9447 316.7958,163.6198 318.2842,163.3733 319.7726,163.1269 321.2609,162.8804 323.2232,162.5554 325.0111,163.9102 325.3221,165.7879 325.633,167.6656 324.3745,169.5078 322.4123,169.8327" stroke="black" stroke-width="1" /><polyline fill="none" points="332.7996,181.6959 328.2163,182.0188 323.633,182.3417 319.0497,182.6646 317.0656,182.8043 315.412,181.2885 315.2783,179.3896 315.1457,177.5081 316.5704,175.7751 318.5544,175.6353 320.0593,175.5293 321.5642,175.4233 323.0691,175.3172 325.0532,175.1775 326.7061,176.6937 326.8386,178.5752 326.9724,180.4741 325.5484,182.2067 323.5643,182.3465" stroke="black" stroke-width="1" /><polyline fill="none" points="315.5517,194.1284 319.8539,194.2293 319.9969,188.1262 332.7012,194.0847" stroke="black" stroke-width="1" /><polyline fill="none" points="323.142,200.853 325.1174,201.0856 326.4589,202.8831 326.2362,204.7737 326.0137,206.6635 324.2932,208.0839 322.3179,207.8513 320.8196,207.6749 319.3213,207.4984 317.8231,207.322 315.8481,207.0894 314.5039,205.3081 314.7264,203.4182 314.9491,201.5277 316.6702,200.1077 318.6452,200.3403 318.6459,200.3348 318.6465,200.3292 318.6472,200.3237 323.2103,200.861 327.7735,201.3984 332.3367,201.9358" stroke="black" stroke-width="1" /><polyline fill="none" points="321.3936,213.4068 323.3385,213.8233 324.5059,215.7386 324.1071,217.6 323.7086,219.4607 321.8627,220.7137 319.9178,220.2972 318.4426,219.9812 316.9675,219.6652 315.4923,219.3493 313.5478,218.9328 312.3763,217.0334 312.7748,215.1727 313.1735,213.3113 315.0201,212.0588 316.9646,212.4753 316.9658,212.4698 316.967,212.4643 316.9681,212.4589 321.4609,213.4212 325.9537,214.3835 330.4465,215.3458" stroke="black" stroke-width="1" /><polyline fill="none" points="323.9817,227.5838 325.6828,228.1189 326.7401,230.015 326.1585,231.8637 325.5773,233.7113 323.7005,234.7035 321.7708,234.0964 321.4656,234.0004 321.1605,233.9044 320.8553,233.8084 317.9114,232.8823 318.2289,230.1603 318.332,229.8325 318.4315,229.5165 318.5309,229.2004 318.6303,228.8844 318.5309,229.2004 318.4315,229.5165 318.332,229.8325 318.0283,230.7981 316.2349,232.4987 313.9458,231.7786 313.2751,231.5676 312.6044,231.3566 311.9337,231.1456 310.037,230.549 309.016,228.5376 309.6128,226.6403 310.2148,224.7266 312.1981,223.6792 314.0948,224.2758" stroke="black" stroke-width="1" /><polyline fill="none" points="320.6257,246.2033 321.0113,245.2876 320.7775,244.2959 319.6083,243.8036 318.476,243.3267 317.3437,242.8499 316.2113,242.3731 315.9763,242.9313 315.7413,243.4894 315.5062,244.0476 315.9587,242.9731 316.4112,241.8986 316.8636,240.8241 316.6462,241.3404 316.4288,241.8568 316.2113,242.3731 312.73,240.9071 309.2487,239.4412 305.7674,237.9752" stroke="black" stroke-width="1" /><polyline fill="none" points="308.0982,256.8646 306.3606,255.9326 305.7018,253.7886 306.6339,252.0509 307.574,250.2982 309.7321,249.647 311.4698,250.5791 312.3663,251.0599 313.2628,251.5408 314.1592,252.0216 315.8969,252.9537 316.5487,255.1122 315.6165,256.8502 314.6765,258.6026 312.5253,259.2393 310.7877,258.3072 307.7861,256.6972 304.7846,255.0872 301.7831,253.4772 300.0457,252.5453 299.3866,250.4012 300.3187,248.6635 301.1209,247.1679 302.8134,246.4797 304.382,246.8927" stroke="black" stroke-width="1" /><polyline fill="none" points="303.7753,269.3585 302.253,265.4935 300.7307,261.6286 299.2083,257.7636 302.0459,259.6476 304.8835,261.5316 307.7211,263.4156 309.3638,264.5063 309.8099,266.7175 308.7196,268.3597 307.619,270.0173 305.4181,270.4492 303.7753,269.3585 300.9377,267.4745 298.1002,265.5905 295.2626,263.7065 293.6199,262.6158 293.1643,260.4201 294.2552,258.7771 295.3552,257.1204 297.5656,256.6729 299.2083,257.7636" stroke="black" stroke-width="1" /><polyline fill="none" points="294.428,274.1689 293.3309,275.3645 293.3901,277.6755 294.9168,278.9099 295.2721,279.1971 295.6274,279.4844 295.9828,279.7716 297.4231,280.9362 299.5457,280.7104 300.7209,279.2567 301.8853,277.8166 301.6341,275.6726 300.2207,274.5299 299.8654,274.2426 299.51,273.9554 299.1547,273.6681 297.7141,272.5034 295.5923,272.7288 294.428,274.1689 293.1451,275.7556 290.8485,275.9513 289.3156,274.712 288.7912,274.288 288.2667,273.864 287.7423,273.4399 286.2092,272.2004 285.9456,269.9348 287.2285,268.3481 288.5005,266.7747 290.7704,266.5588 292.3035,267.7983 292.8367,268.2293 293.3698,268.6604 293.903,269.0915 295.2173,270.154 295.7361,272.3895" stroke="black" stroke-width="1" /><polyline fill="none" points="291.6394,284.3546 293.0499,285.7325 293.0761,287.9873 291.6982,289.3979 290.3081,290.821 288.0051,290.848 286.5945,289.4701 286.0419,288.9303 285.7823,288.4615 285.6675,288.0378 284.5024,283.7515 283.3373,279.4651 282.1723,275.1788 282.0703,275.0792 281.9682,274.9795 281.8662,274.8798 280.2127,276.5725 278.5592,278.2652 276.9058,279.9579" stroke="black" stroke-width="1" /><polyline fill="none" points="278.5725,289.3365 279.8589,290.8535 279.6147,293.0831 278.1629,294.3144 276.7115,295.5451 274.4845,295.4111 273.1981,293.8941 272.2224,292.7435 271.2466,291.5929 270.2709,290.4423 268.9847,288.9256 269.2159,286.7061 270.6672,285.4753 272.1191,284.2441 274.3463,284.3789 275.6325,285.8956 275.6367,285.892 275.641,285.8884 275.6453,285.8847 278.617,289.389 281.5887,292.8933 284.5604,296.3976" stroke="black" stroke-width="1" /><polyline fill="none" points="268.4328,308.8305 265.8023,305.0633 263.1718,301.2961 260.5413,297.529 259.4026,295.8982 259.8543,293.701 261.415,292.6111 262.9615,291.5313 265.1801,291.8639 266.3188,293.4947 267.1826,294.7316 268.0463,295.9685 268.91,297.2054 270.0487,298.8362 269.5963,301.0331 268.0499,302.1129 266.4891,303.2028 264.2711,302.8705 263.1324,301.2397" stroke="black" stroke-width="1" /><polyline fill="none" points="249.0635,302.3647 249.1373,301.2784 249.3601,300.1072 251.21,299.0584 252.866,298.1195 255.0437,298.6584 256.0503,300.4337 256.7858,301.731 257.5214,303.0284 258.257,304.3257 259.2379,306.056 258.5818,308.2008 256.9258,309.1397 255.2401,310.0955 253.0331,309.574 252.0521,307.8437 251.6858,307.1976 251.3194,306.5515 250.9531,305.9053 253.0164,304.7355 255.0797,303.5656 257.143,302.3958" stroke="black" stroke-width="1" /><polyline fill="none" points="249.3484,315.4776 250.156,317.2765 249.3542,319.3841 247.5554,320.1918 245.7406,321.0066 243.5878,320.1879 242.7801,318.389 242.4637,317.6843 242.3939,317.153 242.4423,316.7167 242.9286,312.3016 243.415,307.8864 243.9014,303.4713 243.843,303.3412 243.7846,303.2111 243.7262,303.0809 241.5675,304.0502 239.4088,305.0193 237.2501,305.9886" stroke="black" stroke-width="1" /><polyline fill="none" points="231.8817,326.2922 230.4005,321.9428 228.9194,317.5934 227.4382,313.244 226.797,311.3612 227.841,309.3758 229.643,308.7621 231.4284,308.1541 233.4675,309.0896 234.1087,310.9725 234.595,312.4005 235.0813,313.8286 235.5677,315.2567 236.2088,317.1395 235.1643,319.1244 233.3789,319.7324 231.5769,320.3461 229.5384,319.4111 228.8972,317.5283" stroke="black" stroke-width="1" /><polyline fill="none" points="218.788,329.7491 217.7206,325.2801 216.6533,320.8112 215.5859,316.3422 215.1238,314.4076 216.3491,312.5286 218.2007,312.0864 220.0352,311.6482 221.9777,312.7706 222.4398,314.7052 222.7903,316.1725 223.1407,317.6399 223.4912,319.1072 223.9532,321.0418 222.7274,322.9202 220.8929,323.3583 219.0413,323.8005 217.0993,322.6788 216.6373,320.7442" stroke="black" stroke-width="1" /><polyline fill="none" points="207.5799,323.392 205.9621,323.5186 204.4298,325.2495 204.7051,327.1934 204.7692,327.6458 204.8332,328.0983 204.8973,328.5507 205.157,330.3846 206.8636,331.6666 208.7145,331.4045 210.5481,331.1448 211.8261,329.4052 211.5713,327.6056 211.5072,327.1532 211.4432,326.7008 211.3791,326.2484 211.1194,324.4141 209.4135,323.1324 207.5799,323.392 205.5597,323.6781 203.7461,322.2554 203.4698,320.3037 203.3752,319.6359 203.2807,318.9681 203.1861,318.3004 202.9097,316.3484 204.2616,314.5113 206.2819,314.2253 208.2852,313.9416 210.0929,315.3312 210.3693,317.2832 210.4655,317.962 210.5616,318.6409 210.6577,319.3198 210.8947,320.9931 209.7501,322.9822" stroke="black" stroke-width="1" /><polyline fill="none" points="191.8142,315.6331 192.0159,319.9317 198.114,319.6456 193.063,332.7372" stroke="black" stroke-width="1" /><polyline fill="none" points="179.8411,332.4163 180.8336,332.4629 181.6841,331.9017 181.7436,330.6345 181.8012,329.4073 181.8588,328.18 181.9164,326.9527 181.3114,326.9243 180.7065,326.8959 180.1015,326.8676 181.2661,326.9222 182.4307,326.9769 183.5953,327.0315 183.0356,327.0052 182.476,326.979 181.9164,326.9527 182.0934,323.1795 182.2705,319.4062 182.4475,315.633" stroke="black" stroke-width="1" /><polyline fill="none" points="170.9582,328.3363 167.8522,331.3082 170.2559,314.3337" stroke="black" stroke-width="1" /><polyline fill="none" points="160.4847,320.7733 160.0226,322.7078 158.0806,323.8299 156.229,323.3877 154.3781,322.9456 153.1687,321.0709 153.6308,319.1363 153.9812,317.6689 154.3317,316.2016 154.6822,314.7342 155.1441,312.8 157.0704,311.6733 158.9213,312.1154 160.7728,312.5576 161.9817,314.433 161.5197,316.3673 161.5252,316.3686 161.5306,316.3699 161.5361,316.3712 160.4687,320.8401 159.4013,325.3091 158.334,329.7781" stroke="black" stroke-width="1" /><polyline fill="none" points="140.5936,317.6605 141.2292,315.7939 143.2367,314.7937 145.1033,315.4293 146.9861,316.0705 147.9812,318.0933 147.3455,319.9598 147.0176,320.9229 146.6897,321.8858 146.3617,322.8488 145.7261,324.7154 143.7031,325.7111 141.8362,325.0753 139.9537,324.4343 138.9741,322.416 139.6097,320.5494 140.7077,317.3252 141.8057,314.101 142.9037,310.8767 143.5393,309.0105 145.5469,308.0099 147.4135,308.6456 149.0201,309.1927 149.9756,310.7499 149.8244,312.365" stroke="black" stroke-width="1" /><polyline fill="none" points="129.9544,311.0148 129.9521,311.0198 129.9499,311.0247 129.9476,311.0297 130.9026,308.9028 131.8576,306.7758 132.8125,304.6488 133.2539,303.6658 132.7335,302.9789 132.2187,302.7477 132.8759,303.0428 133.1714,303.8496 132.8686,304.524 132.8499,304.5656 132.8312,304.6072 132.8125,304.6488 134.2144,304.2071 135.6838,304.1152 137.0441,304.7259 138.1705,305.2316 139.7477,306.6167 138.7155,308.9157 138.1747,310.1202 137.1586,310.5844 136.0063,310.5549 135.4461,310.5481 133.8255,310.1779 132.7336,309.9319 131.6189,309.6942 130.4952,309.8102 129.9544,311.0148 129.4067,312.2346 129.9828,314.259 131.8595,315.1016 133.6274,315.8953 134.8267,315.4006 135.7013,314.8349" stroke="black" stroke-width="1" /><polyline fill="none" points="124.8618,307.7948 123.8808,309.525 121.7035,310.0638 120.0475,309.1249 118.3922,308.1863 117.7508,306.0495 118.7318,304.3192 119.4759,303.0069 120.22,301.6945 120.9641,300.3821 121.9449,298.6522 124.1082,298.1047 125.7636,299.0433 127.4196,299.9822 128.0602,302.1195 127.0794,303.8494 127.0843,303.8522 127.0892,303.8549 127.094,303.8577 124.8278,307.8546 122.5617,311.8516 120.2955,315.8485" stroke="black" stroke-width="1" /><polyline fill="none" points="114.9342,300.0707 113.8053,301.6874 111.5846,302.0822 109.9685,300.9537 108.3371,299.8146 107.9572,297.6038 109.0861,295.9871 109.6683,295.1532 110.2506,294.3193 110.8329,293.4855 111.9618,291.8687 114.1677,291.4645 115.7991,292.6036 117.4152,293.7321 117.8099,295.9523 116.681,297.569 114.731,300.3616 112.781,303.1543 110.831,305.9469 109.7023,307.5634 107.4818,307.9579 105.8657,306.8293 104.4733,305.8571 103.9884,304.0967 104.5818,302.5874" stroke="black" stroke-width="1" /><polyline fill="none" points="100.1306,298.1207 98.8553,299.6246 96.6079,299.8091 95.104,298.5338 93.5867,297.2472 93.3979,294.9517 94.6733,293.4478 95.1729,292.8586 95.6223,292.5667 96.0369,292.4224 100.2307,290.959 104.4246,289.4955 108.6184,288.0322 108.7107,287.9234 108.8029,287.8146 108.8952,287.7058 107.0905,286.1754 105.2857,284.645 103.481,283.1145" stroke="black" stroke-width="1" /><polyline fill="none" points="89.541,290.3024 87.8484,291.9557 82.8755,286.8649 98.6263,278.455" stroke="black" stroke-width="1" /><polyline fill="none" points="74.4602,276.952 75.7504,278.5478 77.0406,280.1436 78.3308,281.7394 80.433,280.0398 82.5352,278.3401 84.6374,276.6406 83.2813,276.8992 82.1409,276.6078 81.2031,275.448 79.9095,273.8479 80.2272,271.5408 81.7067,270.3447 82.7645,269.4895 83.8222,268.6343 84.8799,267.7792 86.4263,266.5289 88.5622,266.8524 89.7374,268.306 90.9015,269.7458 90.7597,271.8887 89.2132,273.139" stroke="black" stroke-width="1" /><polyline fill="none" points="72.2945,270.0651 70.3232,271.3739 66.3868,265.4451 83.4294,260.1196" stroke="black" stroke-width="1" /><polyline fill="none" points="75.2009,246.2678 71.4086,248.302 74.2943,253.6817 60.304,254.7643" stroke="black" stroke-width="1" /><polyline fill="none" points="62.1405,238.2065 62.1355,238.2086 62.1304,238.2108 62.1254,238.2129 64.2741,237.308 66.4229,236.4032 68.5717,235.4984 69.5648,235.0802 69.6525,234.2228 69.4335,233.7028 69.7131,234.3667 69.3791,235.1584 68.6977,235.4453 68.6557,235.463 68.6137,235.4807 68.5717,235.4984 69.8983,236.131 71.036,237.0656 71.6147,238.4399 72.0938,239.5778 72.3033,241.6664 69.9807,242.6444 68.7638,243.1568 67.704,242.8036 66.8812,241.9964 66.476,241.6094 65.5429,240.2336 64.9118,239.3093 64.2585,238.3753 63.3574,237.6941 62.1405,238.2065 60.9081,238.7255 59.9494,240.5991 60.7477,242.4951 61.4998,244.2811 62.7145,244.7369 63.7399,244.9193" stroke="black" stroke-width="1" /><polyline fill="none" points="60.6105,232.3788 58.7132,232.9757 56.7531,231.8854 56.1819,230.0695 55.6108,228.2542 56.5986,226.2538 58.496,225.6569 59.935,225.2042 61.3741,224.7515 62.8132,224.2988 64.7102,223.702 66.6661,224.7765 67.2371,226.5917 67.8083,228.4076 66.8198,230.4079 64.9228,231.0047 64.9245,231.01 64.9261,231.0154 64.9278,231.0207 60.5449,232.3995 56.162,233.7783 51.7791,235.1571" stroke="black" stroke-width="1" /><polyline fill="none" points="60.0354,212.4756 61.9799,212.0591 63.8266,213.312 64.2252,215.173 64.6238,217.0341 63.4559,218.9499 61.5113,219.3663 60.0362,219.6823 58.561,219.9983 57.0858,220.3143 55.141,220.7308 53.2915,219.4614 52.8929,217.6003 52.4943,215.7393 53.665,213.8401 55.6099,213.4235" stroke="black" stroke-width="1" /><polyline fill="none" points="44.8569,202.4812 45.0969,204.5192 45.3369,206.5572 45.5769,208.5952 48.2616,208.279 50.9464,207.9629 53.6311,207.6467 52.3461,207.1421 51.537,206.2872 51.3625,204.806 51.1219,202.7625 52.6214,200.9806 54.5109,200.7581 55.8617,200.599 57.2125,200.4399 58.5634,200.2808 60.5384,200.0483 62.1724,201.4612 62.391,203.3177 62.6075,205.1565 61.3445,206.8933 59.3695,207.1259" stroke="black" stroke-width="1" /><polyline fill="none" points="47.6517,195.1771 45.8689,195.2189 44.2568,193.7649 44.2114,191.8275 44.166,189.8911 45.6227,188.3469 47.6451,188.2995 47.9649,188.2919 48.2847,188.2845 48.6045,188.2769 51.6898,188.2046 52.2668,190.8837 52.2748,191.2272 52.2826,191.5584 52.2903,191.8896 52.2981,192.2209 52.2903,191.8896 52.2826,191.5584 52.2748,191.2272 52.2511,190.2153 53.4005,188.0273 55.7996,187.9711 56.5025,187.9546 57.2054,187.9381 57.9084,187.9216 59.8961,187.875 61.511,189.4498 61.5576,191.4382 61.6047,193.4438 60.0649,195.0747 58.0772,195.1213" stroke="black" stroke-width="1" /><polyline fill="none" points="47.8412,182.1006 45.8743,181.962 44.3959,180.2592 44.5345,178.2922 44.6743,176.3078 46.4134,174.7976 48.3803,174.9362 49.151,174.9905 49.6521,175.1801 50.0137,175.429 53.6746,177.9446 57.3354,180.4602 60.9963,182.9758 61.1386,182.9858 61.2808,182.9958 61.4231,183.0059 61.5894,180.6454 61.7557,178.285 61.922,175.9246" stroke="black" stroke-width="1" /><polyline fill="none" points="49.1133,167.6849 46.2151,164.5101 63.1286,167.311" stroke="black" stroke-width="1" /><polyline fill="none" points="58.0663,150.7571 58.0611,150.7557 58.0558,150.7543 58.0505,150.7529 60.3049,151.3476 62.5593,151.9422 64.8137,152.5368 65.8556,152.8117 66.4483,152.1861 66.5923,151.6404 66.4085,152.337 65.6608,152.7603 64.946,152.5717 64.9019,152.5601 64.8578,152.5485 64.8137,152.5368 65.4785,153.8477 65.8093,155.2824 65.429,156.7242 65.1141,157.918 64.0053,159.7003 61.5686,159.0576 60.2919,158.7209 59.6679,157.7943 59.5088,156.6527 59.424,156.0988 59.5244,154.4395 59.5887,153.3221 59.6412,152.1835 59.3431,151.0939 58.0663,150.7571 56.7734,150.4161 54.8704,151.3152 54.3457,153.3044 53.8514,155.1782 54.5354,156.2805 55.2365,157.0509" stroke="black" stroke-width="1" /><polyline fill="none" points="67.0508,140.25 68.9177,140.9351 69.8113,142.9799 69.1557,144.7666 68.5,146.5535 66.4902,147.5508 64.6233,146.8658 63.207,146.3461 61.7907,145.8264 60.3744,145.3068 58.5071,144.6216 57.62,142.5613 58.2756,140.7745 58.9312,138.9877 60.9346,138.0059 62.8019,138.691" stroke="black" stroke-width="1" /><polyline fill="none" points="72.1026,129.0893 73.8972,129.9462 74.5954,132.0656 73.7753,133.7832 72.9553,135.5008 70.8609,136.3055 69.0663,135.4487 67.7049,134.7987 66.3435,134.1487 64.9821,133.4987 63.1872,132.6417 62.4968,130.5073 63.3169,128.7898 64.137,127.0722 66.2235,126.2823 68.0184,127.1393" stroke="black" stroke-width="1" /><polyline fill="none" points="79.6554,119.3193 80.127,120.3007 80.5108,121.4294 79.4189,123.2542 78.4415,124.8877 76.2812,125.493 74.53,124.4451 73.2503,123.6793 71.9705,122.9136 70.6908,122.1478 68.984,121.1265 68.4969,118.9371 69.4744,117.3036 70.4695,115.6406 72.6465,115.0058 74.3533,116.0271 74.9906,116.4085 75.628,116.7899 76.2654,117.1713 75.0475,119.2066 73.8296,121.2419 72.6117,123.2772" stroke="black" stroke-width="1" /><polyline fill="none" points="80.9642,105.5933 80.9598,105.5901 80.9554,105.5868 80.951,105.5836 82.8308,106.9629 84.7106,108.3421 86.5904,109.7214 87.4591,110.3588 88.2399,109.9939 88.5737,109.5389 88.1475,110.1197 87.2967,110.2396 86.7006,109.8023 86.6639,109.7753 86.6271,109.7483 86.5904,109.7214 86.7287,111.1846 86.5108,112.6407 85.6287,113.843 84.8983,114.8384 83.2137,116.0906 81.1818,114.5998 80.1173,113.8187 79.8762,112.7279 80.1463,111.6074 80.2704,111.0609 80.9718,109.5538 81.441,108.5376 81.907,107.4975 82.0288,106.3744 80.9642,105.5933 79.8861,104.8023 77.786,104.9416 76.5691,106.6002 75.4226,108.1627 75.6552,109.439 76.0252,110.4126" stroke="black" stroke-width="1" /><polyline fill="none" points="82.8005,90.0302 86.2342,93.0832 89.6679,96.1363 93.1016,99.1893 94.588,100.5109 94.6591,102.753 93.3941,104.1756 92.1409,105.5851 89.9056,105.777 88.4192,104.4554 87.2918,103.4529 86.1644,102.4505 85.037,101.4481 83.5506,100.1264 83.4803,97.8846 84.7335,96.4751 85.9985,95.0524 88.2329,94.8604 89.7193,96.182" stroke="black" stroke-width="1" /><polyline fill="none" points="95.6295,88.8257 96.8834,87.7957 97.1488,85.4993 95.8102,84.063 95.4987,83.7288 95.1871,83.3945 94.8756,83.0603 93.6128,81.7054 91.4795,81.6313 90.112,82.9059 88.7573,84.1684 88.7054,86.3265 89.9447,87.6561 90.2562,87.9903 90.5677,88.3246 90.8792,88.6588 92.1423,90.0141 94.2748,90.0883 95.6295,88.8257 97.1221,87.4345 99.4235,87.5628 100.7675,89.0047 101.2273,89.4981 101.6871,89.9914 102.147,90.4848 103.4912,91.927 103.4344,94.2072 101.9418,95.5984 100.4617,96.9779 98.184,96.8735 96.8398,95.4312 96.3723,94.9297 95.9049,94.4281 95.4374,93.9266 94.2851,92.6903 94.0848,90.4041" stroke="black" stroke-width="1" /><polyline fill="none" points="111.5133,82.9016 112.727,84.4769 112.392,86.6832 110.8843,87.8448 109.3766,89.0063 107.1446,88.7778 105.9309,87.2025 105.0101,86.0074 104.0894,84.8123 103.1687,83.6172 101.9548,82.0416 102.3035,79.8257 103.8112,78.6641 105.3189,77.5025 107.5372,77.7408 108.7511,79.3164" stroke="black" stroke-width="1" /><polyline fill="none" points="113.455,76.0309 112.3939,74.3485 112.9483,72.1751 114.5585,71.1597 116.168,70.1445 118.3542,70.5895 119.4153,72.2718 120.22,73.5479 121.0248,74.8239 121.8296,76.0999 122.8904,77.782 122.3503,79.9472 120.7408,80.9623 119.1306,81.9778 116.9443,81.5321 115.8835,79.85 115.8787,79.853 115.874,79.856 115.8693,79.859 113.4183,75.9727 110.9672,72.0863 108.5162,68.2" stroke="black" stroke-width="1" /><polyline fill="none" points="125.8942,58.4641 124.0636,59.3914 122.233,60.3188 120.4024,61.2461 121.624,63.6576 122.8457,66.0692 124.0673,68.4807 124.0984,67.1005 124.6222,66.0464 125.9527,65.3724 127.7882,64.4426 129.9776,65.2365 130.8373,66.9337 131.452,68.147 132.0667,69.3604 132.6813,70.5738 133.58,72.3478 132.8164,74.3685 131.1488,75.2132 129.4971,76.0499 127.4315,75.4624 126.5328,73.6884" stroke="black" stroke-width="1" /><polyline fill="none" points="138.3461,53.173 136.4367,53.9248 134.5273,54.6767 132.6178,55.4285 133.6083,57.9438 134.5987,60.4592 135.5892,62.9745 135.7494,61.6033 136.3696,60.6029 137.7573,60.0564 139.6718,59.3026 141.7773,60.298 142.4743,62.0682 142.9727,63.3338 143.471,64.5994 143.9693,65.865 144.6979,67.7154 143.7485,69.6557 142.0091,70.3406 140.2864,71.0189 138.2848,70.2406 137.5562,68.3902" stroke="black" stroke-width="1" /><polyline fill="none" points="147.6313,59.6171 147.0791,57.7063 148.2151,55.7723 150.0439,55.2437 151.872,54.7154 153.8487,55.7498 154.4009,57.6606 154.8198,59.1099 155.2386,60.5592 155.6575,62.0086 156.2096,63.919 155.0896,65.8491 153.2615,66.3774 151.4327,66.906 149.4561,65.8708 148.904,63.9603 148.8986,63.9619 148.8932,63.9634 148.8879,63.965 147.6122,59.5509 146.3365,55.1369 145.0609,50.7229" stroke="black" stroke-width="1" /><polyline fill="none" points="165.791,49.5367 164.09,53.3264 162.389,57.1161 160.6879,60.9058 160.0528,57.5595 159.4178,54.2131 158.7827,50.8668 158.415,48.9295 159.6851,47.0653 161.6216,46.6978 163.5765,46.3268 165.4233,47.5994 165.791,49.5367 166.4261,52.883 167.0612,56.2294 167.6963,59.5757 168.064,61.513 166.8116,63.3731 164.874,63.7408 162.9203,64.1116 161.0556,62.8431 160.6879,60.9058" stroke="black" stroke-width="1" /><polyline fill="none" points="200.6517,150.5819 268.4255,140.8637 236.1363,268.4255 188.8365,96.1804 188.1635,280.8196 268.4255,140.8637 140.8637,108.5745 156.5688,130.1462 156.5688,130.1462 268.4255,140.8637" stroke="black" stroke-width="1" /><polyline fill="none" points="270.1083,123.3006 266.7427,158.4269" stroke="black" stroke-width="1" /><polyline fill="none" points="200.7708,152.2515 200.626,150.4114 200.1952,148.6167 199.4888,146.9115 198.5244,145.3377 197.3257,143.9342 195.9222,142.7355 194.3485,141.7711 192.6432,141.0648 190.8485,140.6339 189.0084,140.4891 187.1684,140.6339 185.3737,141.0648 183.6684,141.7711 182.0947,142.7355 180.6912,143.9342 179.4925,145.3377 178.5281,146.9115 177.8217,148.6167 177.3909,150.4114 177.246,152.2515 177.3909,154.0915 177.8217,155.8863 178.5281,157.5915 179.4925,159.1652 180.6912,160.5687 182.0947,161.7675 183.6684,162.7318 185.3737,163.4382 187.1684,163.869 189.0084,164.0139 190.8485,163.869 192.6432,163.4382 194.3485,162.7318 195.9222,161.7675 197.3257,160.5687 198.5244,159.1652 199.4888,157.5915 200.1951,155.8863 200.626,154.0915 200.7708,152.2515" stroke="black" stroke-width="1" /><polyline fill="none" points="188.5,69.0664 199.6839,69.5912 210.7696,71.161 221.6595,73.7619 232.2581,77.3712 242.4721,81.9571 252.2118,87.4792 261.3915,93.8892 269.9308,101.1306 277.7544,109.1398 284.7936,117.8464 290.9866,127.1739 296.2789,137.0404 300.6241,147.3591 303.9839,158.0393 306.3289,168.9873 307.6383,180.1067 307.9008,191.2998 307.114,202.4684 305.2847,213.5142 302.4292,224.3402 298.5725,234.8512 293.7484,244.9549 287.9994,254.5625 281.376,263.5894 273.9365,271.9565 265.7461,279.5902 256.8768,286.4234 247.4067,292.3961 237.4188,297.4556 227.0011,301.5577 216.2451,304.6663 205.2452,306.7539 194.0981,307.8023 182.9019,307.8023 171.7548,306.7539 160.7549,304.6663 149.9989,301.5577 139.5811,297.4556 129.5933,292.3961 120.1232,286.4234 111.2539,279.5902 103.0635,271.9565 95.6239,263.5894 89.0006,254.5625 83.2516,244.9549 78.4275,234.8512 74.5708,224.3402 71.7153,213.5142 69.8861,202.4684 69.0992,191.2998 69.3617,180.1067 70.6712,168.9872 73.0161,158.0393 76.3759,147.3591 80.7211,137.0404 86.0134,127.174 92.2064,117.8464 99.2457,109.1398 107.0692,101.1306 115.6085,93.8892 124.7882,87.4792 134.5279,81.957 144.7419,77.3712 155.3405,73.7619 166.2304,71.161 177.3161,69.5912 188.5,69.0664" stroke="black" stroke-width="1" />

    </g>
  </g>
  <WCB
     pausedposy="0"
     pausedposx="0"
     lastknownposy="0"
     lastknownposx="0"
     lastpathnc="0"
     lastpath="0"
     node="0"
     layer="0" />
</svg>
