<?xml version="1.0" encoding="UTF-8" standalone="no"?>
<!-- Created with Inkscape (http://www.inkscape.org/) -->

<svg
   xmlns:dc="http://purl.org/dc/elements/1.1/"
   xmlns:cc="http://creativecommons.org/ns#"
   xmlns:rdf="http://www.w3.org/1999/02/22-rdf-syntax-ns#"
   xmlns:svg="http://www.w3.org/2000/svg"
   xmlns="http://www.w3.org/2000/svg"
   xmlns:sodipodi="http://sodipodi.sourceforge.net/DTD/sodipodi-0.dtd"
   xmlns:inkscape="http://www.inkscape.org/namespaces/inkscape"
   width="100mm"
   height="100mm"
   viewBox="0 0 100 100"
   version="1.1"
   id="svg19124"
   inkscape:version="0.92.3 (2405546, 2018-03-11)"
   sodipodi:docname="inkscape_template_TMP.svg"
   shape-rendering="crispEdges">
  <sodipodi:namedview
     pagecolor="#ffffff"
     bordercolor="#666666"
     borderopacity="1"
     objecttolerance="10"
     gridtolerance="10"
     guidetolerance="10"
     inkscape:pageopacity="0"
     inkscape:pageshadow="2"
     inkscape:window-width="1568"
     inkscape:window-height="1550"
     id="namedview24021"
     showgrid="false"
     inkscape:zoom="0.62441667"
     inkscape:cx="712.66515"
     inkscape:cy="409.98265"
     inkscape:window-x="0"
     inkscape:window-y="0"
     inkscape:window-maximized="0"
     inkscape:current-layer="layer1" />
  <defs
     id="defs19118" />
  <metadata
     id="metadata19121">
    <rdf:RDF>
      <cc:Work
         rdf:about="">
        <dc:format>image/svg+xml</dc:format>
        <dc:type
           rdf:resource="http://purl.org/dc/dcmitype/StillImage" />
        <dc:title />
      </cc:Work>
    </rdf:RDF>
  </metadata>
  <g
     transform="translate(0,-197)"
     id="layer1"
     inkscape:groupmode="layer"
     inkscape:label="Layer 1">
    <g
       id="g24447"
       transform="matrix(0.26458333,0,0,0.26458333,0.10666333,197.9735)">

<polyline fill="none" points="192.1004,47.7394 189.7225,51.1455 187.3447,54.5516 184.9669,57.9577 184.9669,54.5516 184.9669,51.1455 184.9669,47.7394 184.9669,45.7676 186.5623,44.1729 188.5334,44.1729 190.5231,44.1729 192.1004,45.7676 192.1004,47.7394 192.1004,51.1455 192.1004,54.5516 192.1004,57.9577 192.1004,59.9295 190.5231,61.5235 188.5509,61.5235 186.5623,61.5235 184.9669,59.9295 184.9669,57.9577" stroke="black" stroke-width="1" /><polyline fill="none" points="197.8298,61.5877 200.7471,57.7851 198.696,53.7706 202.935,62.0679 200.7471,57.7851 203.4811,54.2207" stroke="black" stroke-width="1" /><polyline fill="none" points="218.2834,50.8793 215.3122,53.7823 212.341,56.6853 209.3698,59.5882 210.0049,56.2419 210.64,52.8956 211.2751,49.5492 211.6427,47.612 213.5075,46.3427 215.4441,46.7102 217.3989,47.0812 218.6511,48.9421 218.2834,50.8793 217.6483,54.2257 217.0132,57.572 216.3781,60.9183 216.0105,62.8556 214.1637,64.1276 212.2261,63.7598 210.2723,63.389 209.0021,61.5255 209.3698,59.5882" stroke="black" stroke-width="1" /><polyline fill="none" points="225.4743,52.5043 228.9663,49.9973 224.2065,66.4671" stroke="black" stroke-width="1" /><polyline fill="none" points="238.4333,61.7461 239.903,62.4338 242.0897,61.6838 242.809,59.8571 242.9764,59.4319 243.1438,59.0068 243.3112,58.5816 243.9898,56.8582 243.1375,54.9012 241.3982,54.2163 239.6751,53.5378 237.7053,54.4208 237.0393,56.112 236.8719,56.5371 236.7045,56.9623 236.5371,57.3875 235.8584,59.1112 236.7102,61.0676 238.4333,61.7461 240.3318,62.4936 241.2077,64.6257 240.4855,66.4598 240.2384,67.0873 239.9913,67.7149 239.7442,68.3424 239.0219,70.1768 236.9398,71.108 235.0412,70.3605 233.1586,69.6192 232.2715,67.5187 232.9938,65.6843 233.245,65.0464 233.4962,64.4084 233.7474,63.7705 234.3666,62.198 236.3433,61.0322" stroke="black" stroke-width="1" /><polyline fill="none" points="256.7555,61.182 254.6791,65.2808 252.6028,69.3796 250.5265,73.4783 249.6276,75.2527 247.4778,75.8932 245.7797,75.033 244.0971,74.1806 243.3415,72.0683 244.2403,70.294 244.9221,68.9482 245.6038,67.6024 246.2856,66.2566 247.1844,64.4822 249.3342,63.8425 251.0167,64.6948 252.7149,65.5551 253.4705,67.6666 252.5717,69.441" stroke="black" stroke-width="1" /><polyline fill="none" points="267.938,68.0076 266.2023,66.9129 264.4666,65.8182 262.7308,64.7235 261.2888,67.0101 259.8467,69.2966 258.4046,71.5832 259.6049,70.9011 260.7784,70.8094 262.0399,71.605 263.7803,72.7026 264.2233,74.989 263.2084,76.5982 262.4828,77.7487 261.7572,78.8992 261.0316,80.0496 259.9708,81.7317 257.8447,82.114 256.2635,81.1168 254.6975,80.1292 254.141,78.055 255.2018,76.3729" stroke="black" stroke-width="1" /><polyline fill="none" points="271.6341,74.8577 272.8375,73.2957 275.0738,73.006 276.6359,74.2094 278.2117,75.4236 278.5079,77.7077 277.3045,79.2697 276.833,79.8817 276.3978,80.1943 275.9904,80.3579 271.8698,82.0163 267.7491,83.6746 263.6285,85.333 263.5414,85.446 263.4544,85.559 263.3673,85.672 265.2418,87.1161 267.1163,88.5603 268.9908,90.0045" stroke="black" stroke-width="1" /><polyline fill="none" points="287.1054,87.984 283.0437,88.8544 278.9819,89.7248 274.9202,90.5953 277.2425,88.1036 279.5648,85.612 281.8871,83.1203 283.2315,81.6778 285.4859,81.599 286.9278,82.943 288.3834,84.2996 288.4499,86.5415 287.1054,87.984 284.7831,90.4756 282.4608,92.9673 280.1385,95.4589 278.7941,96.9014 276.5536,96.9921 275.1108,95.6474 273.6561,94.2916 273.5758,92.0377 274.9202,90.5953" stroke="black" stroke-width="1" /><polyline fill="none" points="288.427,104.2825 286.9408,105.6039 284.7165,105.4248 283.4518,104.0025 282.1872,102.5801 282.2583,100.3376 283.7444,99.0162 284.8718,98.0138 285.9993,97.0113 287.1267,96.0089 288.6131,94.6872 290.848,94.8794 292.1127,96.3017 293.3774,97.7241 293.2956,99.9536 291.8092,101.2752" stroke="black" stroke-width="1" /><polyline fill="none" points="300.7892,103.3351 305.0854,103.4803 291.2632,113.6222" stroke="black" stroke-width="1" /><polyline fill="none" points="311.136,119.3125 306.9923,119.021 302.8486,118.7296 298.7049,118.4381 301.6277,116.6891 304.5504,114.9402 307.4732,113.1913 309.1653,112.1788 311.3529,112.729 312.365,114.4204 313.3867,116.1278 312.8281,118.3 311.136,119.3125 308.2133,121.0615 305.2905,122.8104 302.3677,124.5593 300.6757,125.5718 298.498,125.0369 297.4854,123.3445 296.4642,121.6381 297.0128,119.4506 298.7049,118.4381" stroke="black" stroke-width="1" /><polyline fill="none" points="304.3823,136.1063 308.2657,134.2521 305.6354,128.743 319.6611,128.3174" stroke="black" stroke-width="1" /><polyline fill="none" points="324.9656,141.5323 324.2587,139.6058 323.5518,137.6793 322.845,135.7528 320.3071,136.684 317.7692,137.6152 315.2314,138.5464 316.5984,138.7387 317.584,139.3822 318.0978,140.7823 318.8066,142.714 317.7621,144.7955 315.976,145.4509 314.699,145.9194 313.4221,146.388 312.1452,146.8565 310.2783,147.5415 308.3607,146.5468 307.7168,144.7919 307.079,143.0537 307.9041,141.071 309.771,140.3859" stroke="black" stroke-width="1" /><polyline fill="none" points="323.7127,149.2144 325.6194,148.7115 327.5677,149.8469 328.0706,151.7535 328.578,153.6771 327.4186,155.6672 325.5119,156.1701 324.765,156.3672 324.2294,156.3492 323.8069,156.2302 319.5305,155.029 315.2542,153.8279 310.9778,152.6267 310.8399,152.6631 310.702,152.6994 310.5641,152.7358 311.1676,155.0238 311.7711,157.3118 312.3746,159.5999" stroke="black" stroke-width="1" /><polyline fill="none" points="319.7173,163.1629 321.6627,162.8408 323.4968,164.1534 323.8188,166.0981 324.1439,168.0611 322.828,169.8777 320.8826,170.1998 319.8792,170.366 318.8758,170.5322 317.8724,170.6983 315.9271,171.0205 314.0965,169.7249 313.7714,167.762 313.4493,165.8173 314.7617,163.9836 316.7071,163.6614 320.0674,163.1049 323.4277,162.5484 326.788,161.992 328.733,161.6699 330.5668,162.9826 330.8889,164.9273 331.1664,166.6027 330.2458,168.1797 328.7515,168.8098" stroke="black" stroke-width="1" /><polyline fill="none" points="329.1656,182.1993 325.6008,180.0668 322.0361,177.9342 318.4713,175.8016 321.869,175.5622 325.2666,175.3229 328.6643,175.0835 330.6312,174.9449 332.3341,176.4243 332.4727,178.3906 332.6125,180.3754 331.1326,182.0608 329.1656,182.1993 325.7679,182.4387 322.3703,182.6781 318.9726,182.9174 317.0056,183.056 315.3047,181.5947 315.1662,179.6274 315.0264,177.6437 316.5043,175.9402 318.4713,175.8016" stroke="black" stroke-width="1" /><polyline fill="none" points="323.7071,188.1906 325.6956,188.2372 327.1995,189.9012 327.1549,191.8043 327.1103,193.7067 325.5304,195.282 323.5419,195.2354 322.0337,195.2 320.5255,195.1646 319.0173,195.1293 317.0292,195.0826 315.5242,193.4351 315.5688,191.5327 315.6134,189.6295 317.194,188.0547 319.1821,188.1013 319.1823,188.0957 319.1824,188.0901 319.1825,188.0845 323.7759,188.1922 328.3694,188.2999 332.9628,188.4077" stroke="black" stroke-width="1" /><polyline fill="none" points="328.7091,202.7589 331.753,205.7943 314.7268,203.7893" stroke="black" stroke-width="1" /><polyline fill="none" points="315.5145,219.2456 313.57,218.8291 312.3985,216.9298 312.7971,215.0687 313.1958,213.2077 315.0459,211.9384 316.9904,212.3549 318.4656,212.6708 319.9408,212.9868 321.416,213.3028 323.3608,213.7194 324.5281,215.6349 324.1295,217.496 323.7308,219.3571 321.8849,220.6101 319.94,220.1935" stroke="black" stroke-width="1" /><polyline fill="none" points="323.8241,227.4002 325.7051,227.9919 326.7474,229.9915 326.1557,231.8725 325.5587,233.7702 323.5164,234.835 321.6354,234.2433 320.8985,234.0115 320.4551,233.7106 320.1612,233.3845 317.1849,230.0873 314.2086,226.7901 311.2322,223.4929 311.0962,223.4501 310.9601,223.4073 310.8241,223.3645 310.114,225.6217 309.4039,227.8789 308.6938,230.1362" stroke="black" stroke-width="1" /><polyline fill="none" points="307.5542,242.3896 305.7214,241.6178 304.9246,239.5334 305.6633,237.7793 306.4019,236.0251 308.4563,235.1231 310.2891,235.8949 311.6794,236.4804 313.0698,237.0658 314.4602,237.6513 316.2933,238.4232 317.0829,240.5229 316.3443,242.277 315.6056,244.0311 313.5584,244.9179 311.7253,244.146" stroke="black" stroke-width="1" /><polyline fill="none" points="308.5441,252.9151 307.6891,254.2944 308.1783,256.5537 309.9084,257.4818 310.311,257.6978 310.7137,257.9137 311.1163,258.1297 312.7485,259.0052 314.7918,258.3876 315.6754,256.7403 316.5507,255.1084 315.9042,253.0488 314.3025,252.1897 313.8999,251.9737 313.4972,251.7577 313.0946,251.5417 311.462,250.6661 309.4194,251.2832 308.5441,252.9151 307.5796,254.7132 305.3597,255.3337 303.6227,254.402 303.0284,254.0832 302.4341,253.7644 301.8397,253.4456 300.1024,252.5137 299.421,250.337 300.3855,248.5389 301.3419,246.7559 303.5317,246.1205 305.269,247.0524 305.8732,247.3764 306.4774,247.7005 307.0816,248.0246 308.5709,248.8235 309.4975,250.923" stroke="black" stroke-width="1" /><polyline fill="none" points="292.9619,261.0363 296.547,263.4167 299.9238,258.3307 307.4908,270.1478" stroke="black" stroke-width="1" /><polyline fill="none" points="287.9117,273.3251 286.3652,272.0748 286.1785,269.8511 287.3752,268.3711 288.5718,266.891 290.7958,266.5948 292.3423,267.8451 293.5154,268.7936 294.6886,269.7421 295.8618,270.6906 297.4084,271.941 297.584,274.1774 296.3875,275.6574 295.1908,277.1375 292.9779,277.4211 291.4312,276.1706" stroke="black" stroke-width="1" /><polyline fill="none" points="287.6192,280.459 289.042,281.8488 289.0077,284.0915 287.6775,285.4532 286.3478,286.8145 284.118,286.8896 282.6952,285.4998 281.616,284.4456 280.5368,283.3914 279.4576,282.3372 278.0351,280.9476 278.0574,278.7162 279.3871,277.355 280.7173,275.9932 282.9473,275.9188 284.3699,277.3084 284.3738,277.3044 284.3777,277.3004 284.3816,277.2964 287.6684,280.507 290.9552,283.7177 294.242,286.9283" stroke="black" stroke-width="1" /><polyline fill="none" points="279.6011,300.4349 281.1662,299.1076 282.7313,297.7804 284.2964,296.4532 282.548,294.3914 280.7996,292.3296 279.0511,290.2679 279.3416,291.6175 279.0769,292.7644 277.9394,293.7291 276.3701,295.0598 274.0562,294.7963 272.8257,293.3453 271.946,292.3079 271.0663,291.2705 270.1866,290.2331 268.9004,288.7164 269.1736,286.5736 270.5994,285.3646 272.0115,284.1671 274.1571,284.2586 275.4433,285.7753" stroke="black" stroke-width="1" /><polyline fill="none" points="266.1348,305.9706 266.1343,301.8167 266.1339,297.6627 266.1335,293.5087 268.0835,296.3014 270.0335,299.094 271.9835,301.8866 273.1124,303.5034 272.7173,305.7242 271.1012,306.8527 269.4698,307.9919 267.2637,307.5873 266.1348,305.9706 264.1848,303.178 262.2348,300.3853 260.2848,297.5927 259.1559,295.976 259.5364,293.7661 261.1534,292.637 262.7839,291.4985 265.0046,291.892 266.1335,293.5087" stroke="black" stroke-width="1" /><polyline fill="none" points="252.6438,308.1789 252.6465,308.1836 252.6492,308.1884 252.6519,308.1931 251.502,306.1649 250.3521,304.1367 249.2021,302.1086 248.6707,301.1712 247.8089,301.1843 247.318,301.4627 247.9447,301.1074 248.77,301.3464 249.1346,301.9896 249.1571,302.0292 249.1796,302.0689 249.2021,302.1086 249.6752,300.717 250.4704,299.4779 251.7675,298.7424 252.8416,298.1335 254.8913,297.6812 256.1343,299.8734 256.7855,301.022 256.5587,302.1159 255.8533,303.0274 255.5163,303.4751 254.2591,304.5627 253.4149,305.2976 252.5638,306.0557 251.9926,307.0302 252.6438,308.1789 253.3034,309.3421 255.2763,310.0752 257.0659,309.0605 258.7517,308.1047 259.0623,306.8451 259.1235,305.8053" stroke="black" stroke-width="1" /><polyline fill="none" points="238.8495,309.094 238.035,307.2798 238.8733,305.2117 240.6096,304.4322 242.3459,303.6526 244.4638,304.3934 245.2783,306.2076 245.8962,307.5839 246.5142,308.9601 247.1321,310.3364 247.9467,312.1509 247.0928,314.2252 245.3565,315.0048 243.6202,315.7843 241.518,315.0373 240.7033,313.2228" stroke="black" stroke-width="1" /><polyline fill="none" points="233.1713,325.5815 234.1118,325.2612 234.6976,324.4276 234.2886,323.2267 233.8926,322.0636 233.4965,320.9006 233.1004,319.7376 232.5271,319.9328 231.9539,320.128 231.3806,320.3232 232.4842,319.9474 233.5878,319.5716 234.6915,319.1957 234.1611,319.3763 233.6308,319.5569 233.1004,319.7376 231.8827,316.1618 230.665,312.5861 229.4473,309.0103" stroke="black" stroke-width="1" /><polyline fill="none" points="223.2827,319.1569 223.7448,321.0915 222.5194,322.9701 220.6679,323.4123 218.817,323.8544 216.8909,322.7285 216.4288,320.7939 216.0784,319.3265 215.7279,317.8592 215.3775,316.3918 214.9155,314.4576 216.1247,312.5821 217.9756,312.14 219.8272,311.6978 221.7531,312.8245 222.215,314.7587 222.2205,314.7574 222.2259,314.7561 222.2314,314.7549 223.2987,319.2238 224.3661,323.6928 225.4335,328.1618" stroke="black" stroke-width="1" /><polyline fill="none" points="205.4281,331.9647 204.7839,327.4154 204.1397,322.8661 203.4955,318.3168 203.2167,316.3474 204.6125,314.5915 206.4974,314.3246 208.3649,314.0601 210.1938,315.3594 210.4726,317.3288 210.6841,318.8225 210.8956,320.3162 211.1072,321.81 211.386,323.7793 209.9897,325.5346 208.1222,325.7991 206.2374,326.066 204.409,324.7673 204.1301,322.7979" stroke="black" stroke-width="1" /><polyline fill="none" points="191.5014,329.2746 193.7169,325.7608 195.9325,322.2471 198.1481,318.7333 198.3077,322.1356 198.4673,325.5379 198.627,328.9402 198.7194,330.9099 197.2005,332.5777 195.2315,332.6701 193.244,332.7633 191.5938,331.2443 191.5014,329.2746 191.3417,325.8723 191.1821,322.47 191.0224,319.0676 190.93,317.098 192.4308,315.4318 194.4008,315.3394 196.3873,315.2461 198.0556,316.7636 198.1481,318.7333" stroke="black" stroke-width="1" /><polyline fill="none" points="178.3371,325.8833 178.4296,323.9136 180.0804,322.3954 182.0501,322.4878 184.0369,322.581 185.5545,324.248 185.462,326.2177 185.4144,327.2338 185.3667,328.25 185.319,329.2662 185.2266,331.2359 183.5596,332.7541 181.5895,332.6617 179.6031,332.5685 178.1017,330.9016 178.1941,328.9319 178.3537,325.5295 178.5134,322.1272 178.673,318.7249 178.7654,316.7556 180.4164,315.2369 182.386,315.3293 184.0814,315.4089 185.4316,316.6396 185.7348,318.2332" stroke="black" stroke-width="1" /><polyline fill="none" points="166.4026,330.9731 167.3864,331.1124 168.2857,330.6334 168.4636,329.3773 168.6358,328.1608 168.8081,326.9443 168.9804,325.7278 168.3807,325.6429 167.7811,325.558 167.1815,325.4731 168.3358,325.6366 169.4902,325.8 170.6445,325.9635 170.0898,325.8849 169.5351,325.8064 168.9804,325.7278 169.51,321.9878 170.0396,318.2477 170.5692,314.5076" stroke="black" stroke-width="1" /><polyline fill="none" points="153.8252,319.7826 153.8239,319.7879 153.8227,319.7932 153.8214,319.7986 154.363,317.5309 154.9046,315.2631 155.4463,312.9954 155.6966,311.9473 155.0573,311.3694 154.5084,311.2383 155.2091,311.4057 155.6498,312.1432 155.4781,312.8623 155.4675,312.9067 155.4569,312.951 155.4463,312.9954 156.7411,312.3 158.1677,311.9357 159.618,312.2821 160.8189,312.5689 162.6267,313.6356 162.0413,316.0867 161.7346,317.371 160.8229,318.0165 159.6853,318.2024 159.1336,318.3001 157.4724,318.2386 156.3538,318.2006 155.2143,318.1748 154.132,318.4983 153.8252,319.7826 153.5146,321.0832 154.458,322.9646 156.459,323.4425 158.3439,323.8927 159.4299,323.183 160.1836,322.4641" stroke="black" stroke-width="1" /><polyline fill="none" points="146.4382,322.875 145.8025,324.7416 143.779,325.7368 141.9124,325.1011 140.0293,324.4598 139.0126,322.3931 139.6482,320.5265 139.8973,319.7952 140.2084,319.359 140.5413,319.0728 143.9074,316.1746 147.2735,313.2764 150.6396,310.3782 150.6855,310.2432 150.7315,310.1082 150.7775,309.9732 148.5375,309.2104 146.2976,308.4476 144.0576,307.6848" stroke="black" stroke-width="1" /><polyline fill="none" points="136.3123,313.2297 135.4977,315.0443 133.3804,315.7845 131.6438,315.0049 129.9078,314.2254 129.0692,312.158 129.8839,310.3435 130.5018,308.9672 131.1197,307.5909 131.7376,306.2147 132.5522,304.4005 134.6547,303.6528 136.3907,304.4323 138.1273,305.212 138.9653,307.2799 138.1508,309.0941 138.1559,309.0963 138.161,309.0986 138.1661,309.101 136.2841,313.2925 134.4022,317.4841 132.5203,321.6757" stroke="black" stroke-width="1" /><polyline fill="none" points="114.3519,312.4788 116.618,308.4818 118.8842,304.4849 121.1504,300.4879 122.1314,298.7577 124.3088,298.2186 125.9648,299.1575 127.6056,300.0878 128.2614,302.2332 127.2803,303.9634 126.5363,305.2758 125.7922,306.5882 125.0481,307.9005 124.0671,309.6308 121.8897,310.1691 120.2489,309.2388 118.593,308.2999 117.9372,306.1552 118.9182,304.425" stroke="black" stroke-width="1" /><polyline fill="none" points="113.9705,301.3114 112.8318,302.9422 110.6136,303.2747 109.0528,302.1849 107.4926,301.0954 107.0542,298.9079 108.1929,297.2771 109.0566,296.0402 109.9203,294.8033 110.784,293.5664 111.9225,291.9359 114.1276,291.5934 115.6878,292.6828 117.2486,293.7726 117.6863,295.9606 116.5478,297.591 116.5524,297.5942 116.557,297.5974 116.5616,297.6006 113.9311,301.3678 111.3006,305.135 108.6701,308.9022" stroke="black" stroke-width="1" /><polyline fill="none" points="100.3715,292.3906 99.2018,291.2657 96.8901,291.2708 95.6203,292.7681 95.3248,293.1166 95.0293,293.4651 94.7338,293.8136 93.5358,295.2263 93.7118,297.3535 95.1375,298.5626 96.5499,299.7603 98.6992,299.5594 99.8747,298.1732 100.1702,297.8247 100.4658,297.4763 100.7613,297.1277 101.9595,295.7148 101.7838,293.5883 100.3715,292.3906 98.8152,291.0709 98.6734,288.7703 99.9483,287.2669 100.3845,286.7526 100.8207,286.2382 101.2569,285.7238 102.532,284.2202 104.8032,284.0098 106.3594,285.3295 107.9025,286.6381 108.0652,288.9124 106.7901,290.416 106.3467,290.939 105.9032,291.4619 105.4598,291.9848 104.3667,293.2738 102.1197,293.7401" stroke="black" stroke-width="1" /><polyline fill="none" points="87.3965,282.0711 88.8071,280.6932 91.0499,280.7081 92.4278,282.1187 93.8176,283.5415 93.7912,285.7956 92.3806,287.1735 91.6529,287.8843 90.9252,288.5952 90.1975,289.306 88.7869,290.6839 86.5323,290.658 85.1542,289.2472 83.7646,287.8246 83.8028,285.5815 85.2133,284.2036 87.6499,281.8236 90.0864,279.4435 92.5229,277.0635 93.9332,275.6859 96.1763,275.7005 97.5542,277.1111 98.7401,278.3252 98.8888,280.1461 98.0241,281.5185" stroke="black" stroke-width="1" /><polyline fill="none" points="86.8499,275.2595 85.3165,276.4992 83.0736,276.2619 81.8343,274.7291 80.5833,273.1818 80.8321,270.9525 82.3655,269.7128 83.1564,269.0733 83.9473,268.4339 84.7382,267.7945 86.2716,266.5547 88.503,266.7788 89.754,268.3261 90.9932,269.8589 90.756,272.1014 89.2226,273.3412 86.574,275.4826 83.9253,277.624 81.2766,279.7655 79.7435,281.005 77.5008,280.7675 76.2615,279.2347 75.1937,277.914 75.2167,276.0882 76.2058,274.803" stroke="black" stroke-width="1" /><polyline fill="none" points="74.992,263.8381 74.1807,262.4328 71.9585,261.7958 70.3229,262.8818 69.9422,263.1345 69.5616,263.3872 69.1809,263.64 67.6378,264.6645 67.2163,266.757 68.2503,268.3143 69.2746,269.8571 71.3951,270.2609 72.9093,269.2555 73.29,269.0028 73.6707,268.7501 74.0513,268.4973 75.5947,267.4726 76.0163,265.3809 74.992,263.8381 73.8634,262.1383 74.3659,259.8887 76.0081,258.7984 76.5699,258.4254 77.1318,258.0523 77.6936,257.6793 79.3361,256.5888 81.5763,257.0173 82.705,258.7172 83.8241,260.4027 83.349,262.6328 81.7066,263.7233 81.1354,264.1025 80.5642,264.4818 79.993,264.861 78.585,265.7958 76.2968,265.62" stroke="black" stroke-width="1" /><polyline fill="none" points="66.1125,258.1215 64.3749,259.0535 62.2161,258.4019 61.284,256.6642 60.3437,254.9111 61.009,252.7061 62.7467,251.774 63.4275,251.4088 63.9525,251.3019 64.3912,251.3195 68.8296,251.4944 73.268,251.6693 77.7064,251.8442 77.8321,251.7768 77.9578,251.7094 78.0834,251.6419 76.9649,249.5567 75.8464,247.4715 74.7279,245.3862" stroke="black" stroke-width="1" /><polyline fill="none" points="57.3749,239.8098 61.4368,240.6794 65.4987,241.549 69.5606,242.4186 66.4215,243.7405 63.2824,245.0623 60.1433,246.3842 58.326,247.1495 56.2371,246.298 55.4721,244.4813 54.7,242.6476 55.5576,240.5751 57.3749,239.8098 60.514,238.488 63.6531,237.1661 66.7922,235.8442 68.6095,235.079 70.6906,235.914 71.456,237.7316 72.2278,239.5644 71.3779,241.6533 69.5606,242.4186" stroke="black" stroke-width="1" /><polyline fill="none" points="56.024,226.2831 57.905,225.6914 59.899,226.7182 60.4907,228.5992 61.0876,230.4966 60.0454,232.4954 58.1644,233.0871 57.194,233.3924 56.2236,233.6977 55.2532,234.003 53.3722,234.5947 51.3727,233.5527 50.7808,231.6714 50.1841,229.7744 51.2318,227.7906 53.1127,227.1989 56.3618,226.1768 59.6109,225.1547 62.86,224.1326 64.7407,223.541 66.735,224.5677 67.3268,226.4487 67.8361,228.0677 67.1458,229.7593 65.7542,230.5928" stroke="black" stroke-width="1" /><polyline fill="none" points="50.1072,214.4604 53.9358,216.0721 57.7643,217.6839 61.5929,219.2956 58.2623,220.0089 54.9318,220.7223 51.6013,221.4357 49.6732,221.8486 47.7797,220.6226 47.3668,218.6952 46.9501,216.7496 48.1791,214.8734 50.1072,214.4604 53.4378,213.747 56.7683,213.0337 60.0988,212.3203 62.027,211.9073 63.9159,213.1157 64.329,215.0442 64.7455,216.9887 63.521,218.8826 61.5929,219.2956" stroke="black" stroke-width="1" /><polyline fill="none" points="48.2844,201.3871 51.9452,203.3502 55.606,205.3134 59.2668,207.2765 55.884,207.6749 52.5014,208.0732 49.1187,208.4716 47.1604,208.7022 45.39,207.3042 45.1595,205.3466 44.9268,203.3706 46.326,201.6177 48.2844,201.3871 51.6671,200.9887 55.0498,200.5904 58.4324,200.192 60.3908,199.9614 62.1583,201.3413 62.389,203.3 62.6215,205.275 61.2251,207.0459 59.2668,207.2765" stroke="black" stroke-width="1" /><polyline fill="none" points="52.3023,191.6726 52.3657,190.0511 50.8259,188.3269 48.8631,188.373 48.4063,188.3837 47.9495,188.3944 47.4928,188.4051 45.641,188.4485 44.1682,189.9935 44.2121,191.8624 44.2555,193.7137 45.8337,195.1864 47.6508,195.1438 48.1076,195.1331 48.5643,195.1224 49.0211,195.1117 50.8732,195.0683 52.3457,193.524 52.3023,191.6726 52.2544,189.6328 53.8795,187.9981 55.8501,187.9519 56.5243,187.9361 57.1985,187.9203 57.8728,187.9045 59.8438,187.8582 61.5101,189.4157 61.5579,191.4556 61.6053,193.4783 60.0138,195.1111 58.0429,195.1574 57.3574,195.1734 56.672,195.1895 55.9866,195.2056 54.297,195.2452 52.4554,193.8758" stroke="black" stroke-width="1" /><polyline fill="none" points="47.6453,181.9586 45.8664,181.8333 44.3976,180.2346 44.5338,178.3015 44.6699,176.3694 46.2648,174.9683 48.2828,175.1105 48.6019,175.133 48.921,175.1555 49.2401,175.1779 52.3186,175.3948 52.6421,178.1162 52.618,178.4589 52.5947,178.7894 52.5714,179.1199 52.5481,179.4504 52.5714,179.1199 52.5947,178.7894 52.618,178.4589 52.6891,177.4492 54.0384,175.3785 56.4322,175.5471 57.1336,175.5966 57.8349,175.646 58.5363,175.6954 60.5197,175.8351 61.98,177.5542 61.8403,179.5383 61.6993,181.5395 60.0136,183.019 58.0302,182.8793" stroke="black" stroke-width="1" /><polyline fill="none" points="60.184,163.7416 62.1459,164.0665 63.4051,165.9088 63.0941,167.7866 62.7832,169.6643 60.9946,171.0189 59.0327,170.694 57.5443,170.4475 56.0559,170.201 54.5676,169.9546 52.6053,169.6296 51.3496,167.7708 51.6605,165.8931 51.9715,164.0154 53.7566,162.6772 55.7189,163.0022" stroke="black" stroke-width="1" /><polyline fill="none" points="49.7103,148.4238 54.153,149.5957 58.5958,150.7675 63.0385,151.9393 64.9617,152.4466 66.0384,154.4146 65.5528,156.2552 65.0718,158.079 63.1645,159.2603 61.2413,158.753 59.7826,158.3682 58.3239,157.9835 56.8651,157.5987 54.9419,157.0914 53.8661,155.1233 54.3471,153.2996 54.8326,151.4589 56.7391,150.2778 58.6623,150.785" stroke="black" stroke-width="1" /><polyline fill="none" points="60.6103,141.5519 61.2634,140.0664 60.4624,137.8979 58.6193,137.2216 58.1903,137.0643 57.7614,136.9069 57.3324,136.7495 55.5936,136.1114 53.6571,137.0094 53.0132,138.7643 52.3753,140.5029 53.3042,142.4514 55.0105,143.0775 55.4394,143.2349 55.8684,143.3923 56.2974,143.5497 58.0365,144.1879 59.9724,143.2904 60.6103,141.5519 61.3132,139.6364 63.4241,138.7108 65.2747,139.3897 65.9078,139.6221 66.541,139.8544 67.1741,140.0867 69.0249,140.7658 70.0048,142.8255 69.3019,144.7411 68.6049,146.6405 66.5259,147.5767 64.675,146.8976 64.0314,146.6614 63.3877,146.4252 62.744,146.1891 61.1574,145.6069 59.9456,143.658" stroke="black" stroke-width="1" /><polyline fill="none" points="59.2242,124.667 58.7961,125.5637 58.9832,126.5653 60.128,127.1119 61.2367,127.6412 62.3455,128.1706 63.4542,128.7 63.7151,128.1535 63.9761,127.6069 64.237,127.0604 63.7347,128.1125 63.2323,129.1646 62.73,130.2167 62.9714,129.7112 63.2128,129.2056 63.4542,128.7 66.863,130.3275 70.2718,131.9551 73.6805,133.5826" stroke="black" stroke-width="1" /><polyline fill="none" points="79.6554,119.3193 80.127,120.3007 80.5108,121.4294 79.4189,123.2542 78.4415,124.8877 76.2812,125.493 74.53,124.4451 73.2503,123.6793 71.9705,122.9136 70.6908,122.1478 68.984,121.1265 68.4969,118.9371 69.4744,117.3036 70.4695,115.6406 72.6465,115.0058 74.3533,116.0271 74.9906,116.4085 75.628,116.7899 76.2654,117.1713 75.0475,119.2066 73.8296,121.2419 72.6117,123.2772" stroke="black" stroke-width="1" /><polyline fill="none" points="77.1414,102.3272 78.4809,106.2592 79.8204,110.1913 81.1599,114.1233 78.4137,112.1084 75.6676,110.0935 72.9214,108.0785 71.3316,106.912 70.9897,104.6824 72.1557,103.0931 73.3328,101.4889 75.5516,101.1607 77.1414,102.3272 79.8875,104.3421 82.6337,106.357 85.3798,108.372 86.9697,109.5385 87.3218,111.753 86.1551,113.3431 84.9786,114.9465 82.7497,115.2898 81.1599,114.1233" stroke="black" stroke-width="1" /><polyline fill="none" points="82.8005,90.0302 86.2342,93.0832 89.6679,96.1363 93.1016,99.1893 94.588,100.5109 94.6591,102.753 93.3941,104.1756 92.1409,105.5851 89.9056,105.777 88.4192,104.4554 87.2918,103.4529 86.1644,102.4505 85.037,101.4481 83.5506,100.1264 83.4803,97.8846 84.7335,96.4751 85.9985,95.0524 88.2329,94.8604 89.7193,96.182" stroke="black" stroke-width="1" /><polyline fill="none" points="89.9204,87.6789 88.7045,86.3744 88.72,84.2035 90.1376,82.8822 91.5545,81.5616 93.6765,81.6241 95.0558,83.104 95.2739,83.338 95.492,83.572 95.7101,83.806 97.8143,86.0636 96.1955,88.2749 95.9442,88.5092 95.7018,88.7351 95.4594,88.961 95.217,89.1869 95.4594,88.961 95.7018,88.7351 95.9442,88.5092 96.6846,87.8191 99.0835,87.2242 100.7196,88.9797 101.199,89.4941 101.6784,90.0084 102.1578,90.5228 103.5134,91.9773 103.4096,94.2305 101.9546,95.5866 100.4871,96.9544 98.2452,96.8874 96.8895,95.4329" stroke="black" stroke-width="1" /><polyline fill="none" points="112.5703,84.2512 112.6496,85.3372 112.5932,86.5281 110.9086,87.8259 109.4007,88.9877 107.1689,88.7594 105.9233,87.1428 105.0132,85.9614 104.103,84.78 103.1928,83.5986 101.9789,82.023 102.3278,79.8073 103.8358,78.6455 105.3709,77.4628 107.6292,77.6698 108.8431,79.2454 109.2964,79.8338 109.7497,80.4222 110.203,81.0106 108.3241,82.4581 106.4452,83.9057 104.5663,85.3533" stroke="black" stroke-width="1" /><polyline fill="none" points="122.9128,79.5407 120.6172,75.9008 115.4535,79.1574 113.3904,65.2777" stroke="black" stroke-width="1" /><polyline fill="none" points="130.0363,65.9461 130.0338,65.9412 130.0314,65.9363 130.0289,65.9314 131.0825,68.0113 132.1361,70.0912 133.1897,72.1711 133.6767,73.1323 134.5381,73.1595 135.0414,72.9045 134.3988,73.2301 133.5856,72.9526 133.2515,72.2931 133.2309,72.2524 133.2103,72.2117 133.1897,72.1711 132.6519,73.5389 131.7995,74.7394 130.4693,75.4132 129.3679,75.9712 127.2992,76.3269 126.1604,74.0788 125.5637,72.9009 125.8415,71.8189 126.5889,70.9414 126.9465,70.5101 128.2533,69.4825 129.131,68.7881 130.0168,68.0707 130.633,67.124 130.0363,65.9461 129.432,64.7532 127.4957,63.9285 125.6605,64.8582 123.9317,65.7339 123.5624,66.9776 123.4525,68.0133" stroke="black" stroke-width="1" /><polyline fill="none" points="135.7421,64.0104 135.0133,62.1597 135.9632,60.1278 137.7345,59.4304 139.5051,58.7332 141.57,59.5779 142.2987,61.4286 142.8515,62.8323 143.4042,64.2361 143.9569,65.6398 144.6855,67.4901 143.7512,69.5166 141.9806,70.2138 140.2093,70.9113 138.1445,70.0658 137.4159,68.2154 137.4107,68.2174 137.4055,68.2195 137.4002,68.2215 135.7168,63.9463 134.0334,59.6712 132.35,55.396" stroke="black" stroke-width="1" /><polyline fill="none" points="146.0555,54.2454 145.5081,52.351 146.5974,50.3766 148.4917,49.8292 150.4029,49.2768 152.4196,50.3893 152.9671,52.2836 153.1816,53.0258 153.1762,53.5615 153.0671,53.9868 151.9665,58.2901 150.8659,62.5935 149.7654,66.8968 149.8049,67.0338 149.8445,67.1708 149.8841,67.3079 152.1574,66.6509 154.4306,65.9939 156.7039,65.3369" stroke="black" stroke-width="1" /><polyline fill="none" points="164.4588,46.1945 162.4427,46.5772 160.4266,46.9598 158.4104,47.3425 158.9145,49.9984 159.4186,52.6543 159.9226,55.3102 160.3357,53.9928 161.1316,53.1256 162.5969,52.8475 164.6184,52.4639 166.5013,53.8344 166.856,55.7036 167.1096,57.0399 167.3633,58.3762 167.6169,59.7125 167.9877,61.6663 166.6931,63.3956 164.8565,63.7441 163.0375,64.0894 161.2162,62.9514 160.8454,60.9977" stroke="black" stroke-width="1" /><polyline fill="none" points="178.0384,156.4954 96.1804,188.1635 268.4255,140.8637 156.5688,130.1462 188.2428,253.3668 96.1804,188.1635 268.4255,140.8637 96.1804,188.1635 188.8365,96.1804 188.2428,253.3668" stroke="black" stroke-width="1" /><polyline fill="none" points="205.8863,253.4334 170.5993,253.3001" stroke="black" stroke-width="1" /><polyline fill="none" points="200.7708,152.2515 200.626,150.4114 200.1952,148.6167 199.4888,146.9115 198.5244,145.3377 197.3257,143.9342 195.9222,142.7355 194.3485,141.7711 192.6432,141.0648 190.8485,140.6339 189.0084,140.4891 187.1684,140.6339 185.3737,141.0648 183.6684,141.7711 182.0947,142.7355 180.6912,143.9342 179.4925,145.3377 178.5281,146.9115 177.8217,148.6167 177.3909,150.4114 177.246,152.2515 177.3909,154.0915 177.8217,155.8863 178.5281,157.5915 179.4925,159.1652 180.6912,160.5687 182.0947,161.7675 183.6684,162.7318 185.3737,163.4382 187.1684,163.869 189.0084,164.0139 190.8485,163.869 192.6432,163.4382 194.3485,162.7318 195.9222,161.7675 197.3257,160.5687 198.5244,159.1652 199.4888,157.5915 200.1951,155.8863 200.626,154.0915 200.7708,152.2515" stroke="black" stroke-width="1" /><polyline fill="none" points="188.5,69.0664 199.6839,69.5912 210.7696,71.161 221.6595,73.7619 232.2581,77.3712 242.4721,81.9571 252.2118,87.4792 261.3915,93.8892 269.9308,101.1306 277.7544,109.1398 284.7936,117.8464 290.9866,127.1739 296.2789,137.0404 300.6241,147.3591 303.9839,158.0393 306.3289,168.9873 307.6383,180.1067 307.9008,191.2998 307.114,202.4684 305.2847,213.5142 302.4292,224.3402 298.5725,234.8512 293.7484,244.9549 287.9994,254.5625 281.376,263.5894 273.9365,271.9565 265.7461,279.5902 256.8768,286.4234 247.4067,292.3961 237.4188,297.4556 227.0011,301.5577 216.2451,304.6663 205.2452,306.7539 194.0981,307.8023 182.9019,307.8023 171.7548,306.7539 160.7549,304.6663 149.9989,301.5577 139.5811,297.4556 129.5933,292.3961 120.1232,286.4234 111.2539,279.5902 103.0635,271.9565 95.6239,263.5894 89.0006,254.5625 83.2516,244.9549 78.4275,234.8512 74.5708,224.3402 71.7153,213.5142 69.8861,202.4684 69.0992,191.2998 69.3617,180.1067 70.6712,168.9872 73.0161,158.0393 76.3759,147.3591 80.7211,137.0404 86.0134,127.174 92.2064,117.8464 99.2457,109.1398 107.0692,101.1306 115.6085,93.8892 124.7882,87.4792 134.5279,81.957 144.7419,77.3712 155.3405,73.7619 166.2304,71.161 177.3161,69.5912 188.5,69.0664" stroke="black" stroke-width="1" />

    </g>
  </g>
  <WCB
     pausedposy="0"
     pausedposx="0"
     lastknownposy="0"
     lastknownposx="0"
     lastpathnc="0"
     lastpath="0"
     node="0"
     layer="0" />
</svg>
