<?xml version="1.0" encoding="UTF-8" standalone="no"?>
<!-- Created with Inkscape (http://www.inkscape.org/) -->

<svg
   xmlns:dc="http://purl.org/dc/elements/1.1/"
   xmlns:cc="http://creativecommons.org/ns#"
   xmlns:rdf="http://www.w3.org/1999/02/22-rdf-syntax-ns#"
   xmlns:svg="http://www.w3.org/2000/svg"
   xmlns="http://www.w3.org/2000/svg"
   xmlns:sodipodi="http://sodipodi.sourceforge.net/DTD/sodipodi-0.dtd"
   xmlns:inkscape="http://www.inkscape.org/namespaces/inkscape"
   width="100mm"
   height="100mm"
   viewBox="0 0 100 100"
   version="1.1"
   id="svg19124"
   inkscape:version="0.92.3 (2405546, 2018-03-11)"
   sodipodi:docname="inkscape_template_TMP.svg"
   shape-rendering="crispEdges">
  <sodipodi:namedview
     pagecolor="#ffffff"
     bordercolor="#666666"
     borderopacity="1"
     objecttolerance="10"
     gridtolerance="10"
     guidetolerance="10"
     inkscape:pageopacity="0"
     inkscape:pageshadow="2"
     inkscape:window-width="1568"
     inkscape:window-height="1550"
     id="namedview24021"
     showgrid="false"
     inkscape:zoom="0.62441667"
     inkscape:cx="712.66515"
     inkscape:cy="409.98265"
     inkscape:window-x="0"
     inkscape:window-y="0"
     inkscape:window-maximized="0"
     inkscape:current-layer="layer1" />
  <defs
     id="defs19118" />
  <metadata
     id="metadata19121">
    <rdf:RDF>
      <cc:Work
         rdf:about="">
        <dc:format>image/svg+xml</dc:format>
        <dc:type
           rdf:resource="http://purl.org/dc/dcmitype/StillImage" />
        <dc:title />
      </cc:Work>
    </rdf:RDF>
  </metadata>
  <g
     transform="translate(0,-197)"
     id="layer1"
     inkscape:groupmode="layer"
     inkscape:label="Layer 1">
    <g
       id="g24447"
       transform="matrix(0.26458333,0,0,0.26458333,0.10666333,197.9735)">

<polyline fill="none" points="192.1004,47.7394 189.7225,51.1455 187.3447,54.5516 184.9669,57.9577 184.9669,54.5516 184.9669,51.1455 184.9669,47.7394 184.9669,45.7676 186.5623,44.1729 188.5334,44.1729 190.5231,44.1729 192.1004,45.7676 192.1004,47.7394 192.1004,51.1455 192.1004,54.5516 192.1004,57.9577 192.1004,59.9295 190.5231,61.5235 188.5509,61.5235 186.5623,61.5235 184.9669,59.9295 184.9669,57.9577" stroke="black" stroke-width="1" /><polyline fill="none" points="197.8298,61.5877 200.7471,57.7851 198.696,53.7706 202.935,62.0679 200.7471,57.7851 203.4811,54.2207" stroke="black" stroke-width="1" /><polyline fill="none" points="212.577,49.6396 215.8188,46.8166 212.6222,63.6598" stroke="black" stroke-width="1" /><polyline fill="none" points="226.3459,67.0854 227.5407,62.9513 221.6759,61.2563 230.6775,50.4919" stroke="black" stroke-width="1" /><polyline fill="none" points="234.1348,62.8919 234.8572,61.0571 236.9254,60.1572 238.7595,60.8794 240.6109,61.6084 241.494,63.6704 240.7716,65.5051 240.3989,66.4515 240.0263,67.3978 239.6537,68.3442 238.9312,70.1789 236.8796,71.0845 235.0282,70.3555 233.1941,69.6334 232.2945,67.5656 233.0169,65.7309 234.2648,62.5616 235.5127,59.3924 236.7607,56.2232 237.483,54.3887 239.5511,53.4892 241.3851,54.2114 242.9653,54.8336 243.8459,56.4332 243.6193,58.039" stroke="black" stroke-width="1" /><polyline fill="none" points="249.8605,75.0628 248.9147,75.6021 247.8157,76.0644 245.9187,75.1034 244.2205,74.2432 243.4649,72.1308 244.3872,70.3103 245.0611,68.9799 245.7351,67.6495 246.409,66.3191 247.3078,64.5448 249.4576,63.905 251.1558,64.7653 252.8845,65.641 253.6707,67.7681 252.7719,69.5424 252.4362,70.205 252.1006,70.8676 251.7649,71.5302 249.6491,70.4583 247.5332,69.3865 245.4173,68.3146" stroke="black" stroke-width="1" /><polyline fill="none" points="260.2133,81.3071 259.2211,81.7555 258.0837,82.1128 256.285,80.9785 254.6749,79.963 254.1204,77.7891 255.209,76.063 256.0046,74.8015 256.8002,73.5401 257.5958,72.2786 258.6568,70.5963 260.857,70.1606 262.4672,71.1761 264.1063,72.2099 264.6899,74.4012 263.6288,76.0836 263.2326,76.7119 262.8364,77.3401 262.4402,77.9684 260.434,76.7031 258.4278,75.4378 256.4216,74.1725" stroke="black" stroke-width="1" /><polyline fill="none" points="277.2597,79.1921 273.2973,80.439 269.3349,81.686 265.3725,82.9329 267.4513,80.2348 269.53,77.5366 271.6088,74.8385 272.8123,73.2764 275.0493,72.9869 276.6108,74.1899 278.187,75.4042 278.4631,77.6301 277.2597,79.1921 275.1809,81.8902 273.1021,84.5884 271.0234,87.2866 269.8199,88.8486 267.5977,89.1487 266.0354,87.9451 264.4601,86.7314 264.1691,84.495 265.3725,82.9329" stroke="black" stroke-width="1" /><polyline fill="none" points="289.0119,84.9327 287.5107,83.5336 286.0096,82.1345 284.5084,80.7353 282.6653,82.7129 280.8221,84.6904 278.979,86.668 280.2854,86.2217 281.4554,86.3504 282.5465,87.3673 284.0517,88.7702 284.0606,91.099 282.7634,92.4908 281.836,93.4858 280.9086,94.4808 279.9813,95.4758 278.6254,96.9306 276.4653,96.9098 275.0978,95.6353 273.7434,94.3729 273.5834,92.2313 274.9393,90.7765" stroke="black" stroke-width="1" /><polyline fill="none" points="291.6044,92.311 292.937,91.126 295.107,91.1924 296.3947,92.6406 297.6817,94.0881 297.5694,96.2081 296.0576,97.5522 295.8186,97.7648 295.5795,97.9773 295.3405,98.1899 293.0341,100.2406 290.8614,98.5704 290.6331,98.3136 290.4129,98.066 290.1927,97.8184 289.9726,97.5708 290.1927,97.8184 290.4129,98.066 290.6331,98.3136 291.3056,99.0701 291.8441,101.4822 290.0508,103.0768 289.5253,103.544 288.9998,104.0112 288.4744,104.4784 286.9885,105.7995 284.7383,105.643 283.4167,104.1565 282.0837,102.6573 282.2032,100.4176 283.6891,99.0965" stroke="black" stroke-width="1" /><polyline fill="none" points="300.7892,103.3351 305.0854,103.4803 291.2632,113.6222" stroke="black" stroke-width="1" /><polyline fill="none" points="305.4145,118.565 306.1591,120.0069 308.349,120.7473 310.0337,119.7392 310.4258,119.5046 310.8178,119.27 311.2099,119.0354 312.7993,118.0843 313.3185,116.0139 312.3586,114.4098 311.4078,112.8207 309.3085,112.318 307.7488,113.2512 307.3567,113.4859 306.9646,113.7205 306.5725,113.9551 304.9828,114.9063 304.4636,116.976 305.4145,118.565 306.4622,120.3159 305.8548,122.5395 304.1634,123.5516 303.5846,123.8979 303.0059,124.2442 302.4272,124.5905 300.7354,125.6028 298.5177,125.0698 297.47,123.3189 296.4311,121.5827 297.0102,119.3773 298.702,118.365 299.2903,118.013 299.8786,117.6609 300.467,117.3089 301.9172,116.4411 304.1946,116.724" stroke="black" stroke-width="1" /><polyline fill="none" points="314.6997,125.7661 318.8936,126.7099 303.4227,134.0966" stroke="black" stroke-width="1" /><polyline fill="none" points="310.7295,147.3532 309.6699,147.1029 308.5508,146.6917 307.8183,144.6954 307.1625,142.9082 308.05,140.8478 309.9659,140.1448 311.366,139.6311 312.7661,139.1174 314.1662,138.6036 316.0334,137.9185 318.0422,138.9162 318.698,140.7034 319.3655,142.5227 318.4904,144.6147 316.6232,145.2999 315.9258,145.5557 315.2285,145.8116 314.5312,146.0674 313.7142,143.8407 312.8972,141.614 312.0801,139.3873" stroke="black" stroke-width="1" /><polyline fill="none" points="314.0455,158.9797 313.0139,158.6313 311.9383,158.1172 311.3959,156.061 310.9104,154.2203 311.9869,152.252 313.9602,151.7315 315.4023,151.3512 316.8443,150.9708 318.2863,150.5905 320.2095,150.0832 322.1161,151.2646 322.6016,153.1053 323.0959,154.9791 322.0287,156.98 320.1055,157.4873 319.3873,157.6768 318.6691,157.8662 317.9509,158.0556 317.346,155.7622 316.741,153.4688 316.1361,151.1753" stroke="black" stroke-width="1" /><polyline fill="none" points="319.7173,163.1629 321.6627,162.8408 323.4968,164.1534 323.8188,166.0981 324.1439,168.0611 322.828,169.8777 320.8826,170.1998 319.8792,170.366 318.8758,170.5322 317.8724,170.6983 315.9271,171.0205 314.0965,169.7249 313.7714,167.762 313.4493,165.8173 314.7617,163.9836 316.7071,163.6614 320.0674,163.1049 323.4277,162.5484 326.788,161.992 328.733,161.6699 330.5668,162.9826 330.8889,164.9273 331.1664,166.6027 330.2458,168.1797 328.7515,168.8098" stroke="black" stroke-width="1" /><polyline fill="none" points="328.6666,175.1152 330.6336,174.9766 332.3361,176.4553 332.4747,178.4223 332.6145,180.4068 331.1043,182.1458 329.1373,182.2844 328.3667,182.3387 327.8439,182.2212 327.451,182.0255 323.4736,180.048 319.4962,178.0705 315.5188,176.093 315.3765,176.103 315.2343,176.1131 315.092,176.1231 315.2583,178.4835 315.4246,180.8439 315.5909,183.2044" stroke="black" stroke-width="1" /><polyline fill="none" points="332.8027,195.2382 328.2093,195.1305 323.6158,195.0228 319.0225,194.9151 317.034,194.8684 315.5297,193.2044 315.5743,191.3013 315.6185,189.4157 317.1992,187.8237 319.1876,187.8703 320.6959,187.9057 322.204,187.9411 323.7123,187.9764 325.7007,188.023 327.2043,189.6874 327.1601,191.573 327.1155,193.4761 325.5355,195.0678 323.5471,195.0211" stroke="black" stroke-width="1" /><polyline fill="none" points="323.142,200.853 325.1174,201.0856 326.4589,202.8831 326.2362,204.7737 326.0137,206.6635 324.2932,208.0839 322.3179,207.8513 320.8196,207.6749 319.3213,207.4984 317.8231,207.322 315.8481,207.0894 314.5039,205.3081 314.7264,203.4182 314.9491,201.5277 316.6702,200.1077 318.6452,200.3403 318.6459,200.3348 318.6465,200.3292 318.6472,200.3237 323.2103,200.861 327.7735,201.3984 332.3367,201.9358" stroke="black" stroke-width="1" /><polyline fill="none" points="325.3846,221.5014 322.5521,218.463 319.7196,215.4245 316.8871,212.3861 320.2176,213.0994 323.5482,213.8128 326.8787,214.5262 328.8068,214.9392 330.032,216.8332 329.6191,218.7606 329.2024,220.7062 327.3127,221.9144 325.3846,221.5014 322.0541,220.7881 318.7236,220.0747 315.3931,219.3613 313.4649,218.9483 312.2366,217.0723 312.6497,215.1438 313.0662,213.1993 314.959,211.9731 316.8871,212.3861" stroke="black" stroke-width="1" /><polyline fill="none" points="321.6929,234.1745 319.1573,230.8842 316.6218,227.5938 314.0862,224.3035 317.3353,225.3256 320.5844,226.3477 323.8335,227.3698 325.7145,227.9615 326.7569,229.9619 326.1654,231.8422 325.5684,233.7403 323.5739,234.7662 321.6929,234.1745 318.4438,233.1524 315.1947,232.1303 311.9456,231.1082 310.0646,230.5164 309.0174,228.5336 309.6092,226.6523 310.206,224.7553 312.2052,223.7117 314.0862,224.3035" stroke="black" stroke-width="1" /><polyline fill="none" points="319.5868,239.9012 321.4041,240.6665 322.2546,242.7549 321.4894,244.5722 320.7173,246.4057 318.5843,247.2746 316.767,246.5093 316.055,246.2095 315.6417,245.8684 315.3796,245.5163 312.7252,241.9548 310.0706,238.3934 307.4162,234.832 307.2847,234.7766 307.1533,234.7213 307.0219,234.6659 306.1035,236.8467 305.1852,239.0275 304.2668,241.2083" stroke="black" stroke-width="1" /><polyline fill="none" points="314.3181,252.1603 315.8896,253.0032 316.5748,255.0632 315.6588,256.771 314.7432,258.4778 312.7143,259.1027 310.9317,258.1465 310.6498,257.9952 310.3679,257.8441 310.086,257.6928 307.3663,256.234 308.1859,253.6189 308.3483,253.3162 308.5049,253.0242 308.6615,252.7322 308.8181,252.4402 308.6615,252.7322 308.5049,253.0242 308.3483,253.3162 307.8698,254.2081 305.7908,255.5445 303.6761,254.4102 303.0565,254.0779 302.4369,253.7455 301.8173,253.4131 300.0651,252.4733 299.437,250.3069 300.3772,248.5541 301.3254,246.7863 303.4693,246.127 305.2214,247.0668" stroke="black" stroke-width="1" /><polyline fill="none" points="306.9614,271.1776 303.1335,268.6361 299.3058,266.0946 295.478,263.5532 293.8209,262.453 293.4362,260.243 294.4891,258.6572 295.5324,257.0858 297.7187,256.5825 299.3757,257.6826 300.6325,258.5171 301.8893,259.3516 303.1462,260.186 304.8032,261.2862 305.1871,263.496 304.1439,265.0674 303.0909,266.6533 300.9055,267.1567 299.2484,266.0566" stroke="black" stroke-width="1" /><polyline fill="none" points="299.487,275.355 300.4423,279.5463 287.1106,268.7678" stroke="black" stroke-width="1" /><polyline fill="none" points="279.5317,282.2614 278.1092,280.8718 278.1315,278.6404 279.4614,277.2789 280.7914,275.9174 283.0334,275.8307 284.456,277.2204 285.5352,278.2745 286.6143,279.3287 287.6935,280.3829 289.1164,281.7728 289.0818,284.0157 287.7518,285.3772 286.4219,286.7387 284.1921,286.8138 282.7693,285.424" stroke="black" stroke-width="1" /><polyline fill="none" points="279.3495,300.8167 276.3778,297.3124 273.4061,293.8081 270.4344,290.3038 269.1479,288.7869 269.3919,286.557 270.8438,285.3257 272.2823,284.1059 274.5223,284.2293 275.8088,285.7462 276.7845,286.8969 277.7603,288.0475 278.736,289.1981 280.0224,290.7151 279.7777,292.9446 278.3392,294.1645 276.8873,295.3957 274.648,295.2726 273.3616,293.7556" stroke="black" stroke-width="1" /><polyline fill="none" points="259.4598,296.1932 259.4316,295.1047 259.5438,293.9178 261.2873,292.7003 262.8481,291.6105 265.0667,291.9431 266.235,293.6164 267.0889,294.8391 267.9427,296.0619 268.7965,297.2847 269.9352,298.9154 269.4828,301.1123 267.9221,302.2021 266.3332,303.3116 264.0871,302.999 262.9484,301.3682 262.5232,300.7592 262.0979,300.1502 261.6727,299.5412 263.6174,298.1833 265.5621,296.8254 267.5067,295.4675" stroke="black" stroke-width="1" /><polyline fill="none" points="252.6438,308.1789 252.6465,308.1836 252.6492,308.1884 252.6519,308.1931 251.502,306.1649 250.3521,304.1367 249.2021,302.1086 248.6707,301.1712 247.8089,301.1843 247.318,301.4627 247.9447,301.1074 248.77,301.3464 249.1346,301.9896 249.1571,302.0292 249.1796,302.0689 249.2021,302.1086 249.6752,300.717 250.4704,299.4779 251.7675,298.7424 252.8416,298.1335 254.8913,297.6812 256.1343,299.8734 256.7855,301.022 256.5587,302.1159 255.8533,303.0274 255.5163,303.4751 254.2591,304.5627 253.4149,305.2976 252.5638,306.0557 251.9926,307.0302 252.6438,308.1789 253.3034,309.3421 255.2763,310.0752 257.0659,309.0605 258.7517,308.1047 259.0623,306.8451 259.1235,305.8053" stroke="black" stroke-width="1" /><polyline fill="none" points="249.3484,315.4776 250.156,317.2765 249.3542,319.3841 247.5554,320.1918 245.7406,321.0066 243.5878,320.1879 242.7801,318.389 242.4637,317.6843 242.3939,317.153 242.4423,316.7167 242.9286,312.3016 243.415,307.8864 243.9014,303.4713 243.843,303.3412 243.7846,303.2111 243.7262,303.0809 241.5675,304.0502 239.4088,305.0193 237.2501,305.9886" stroke="black" stroke-width="1" /><polyline fill="none" points="229.2036,318.0403 229.2053,318.0454 229.2071,318.0506 229.2089,318.0558 228.4573,315.8488 227.7057,313.6417 226.9541,311.4347 226.6067,310.4146 225.7577,310.2669 225.2235,310.4488 225.9054,310.2166 226.6716,310.6053 226.91,311.3052 226.9247,311.3483 226.9394,311.3915 226.9541,311.4347 227.6783,310.1557 228.6906,309.0866 230.1022,308.6059 231.2709,308.2079 233.369,308.1458 234.1814,310.5313 234.6071,311.7812 234.1803,312.8136 233.3173,313.5776 232.9027,313.9546 231.4648,314.7887 230.4984,315.3533 229.5208,315.9393 228.7779,316.7903 229.2036,318.0403 229.6346,319.306 231.4362,320.3941 233.3837,319.731 235.2181,319.1063 235.7581,317.9266 236.0122,316.9165" stroke="black" stroke-width="1" /><polyline fill="none" points="219.185,329.5222 221.181,329.0455 223.1769,328.5688 225.1729,328.092 224.5449,325.4627 223.9169,322.8333 223.2889,320.204 222.938,321.5392 222.1837,322.4427 220.733,322.7892 218.7317,323.2672 216.7867,321.9865 216.3447,320.136 216.0287,318.813 215.7127,317.4901 215.3968,316.1671 214.9348,314.2328 216.1469,312.4448 217.9651,312.0105 219.766,311.5804 221.6386,312.6317 222.1006,314.5659" stroke="black" stroke-width="1" /><polyline fill="none" points="211.7021,327.3795 211.9785,329.3318 210.6231,331.134 208.6707,331.4105 206.701,331.6894 204.8602,330.3052 204.5837,328.3528 204.4754,327.5879 204.5558,327.0582 204.7235,326.6524 206.4165,322.5459 208.1096,318.4394 209.8027,314.3328 209.7827,314.1916 209.7627,314.0504 209.7427,313.9092 207.3998,314.241 205.0569,314.5727 202.714,314.9045" stroke="black" stroke-width="1" /><polyline fill="none" points="194.8646,324.5859 193.2421,324.5605 191.5544,326.1404 191.6465,328.1015 191.6679,328.5579 191.6893,329.0143 191.7107,329.4708 191.7975,331.3209 193.3766,332.7571 195.2439,332.6695 197.0937,332.5827 198.5291,330.9704 198.4439,329.1548 198.4225,328.6984 198.401,328.2419 198.3796,327.7855 198.2928,325.935 196.7144,324.4991 194.8646,324.5859 192.8264,324.6816 191.1541,323.0953 191.0617,321.1263 191.0301,320.4527 190.9985,319.779 190.9669,319.1053 190.8745,317.1359 192.3925,315.4336 194.4307,315.338 196.4517,315.2431 198.1214,316.7959 198.2138,318.7652 198.2459,319.4501 198.2781,320.1349 198.3102,320.8198 198.3894,322.508 197.0636,324.3812" stroke="black" stroke-width="1" /><polyline fill="none" points="185.6397,323.6772 185.5465,325.6641 183.8477,327.1286 181.9461,327.0394 180.0453,326.9502 178.5075,325.3338 178.6008,323.347 178.6715,321.84 178.7422,320.333 178.8129,318.826 178.9061,316.8396 180.5885,315.3736 182.4894,315.4628 184.3909,315.552 185.9283,317.1691 185.8351,319.1556 185.8407,319.1558 185.8463,319.1561 185.8518,319.1563 185.6365,323.746 185.4211,328.3356 185.2057,332.9252" stroke="black" stroke-width="1" /><polyline fill="none" points="172.076,328.5468 171.826,330.3124 170.1281,331.6653 168.2093,331.3936 166.2915,331.122 165.006,329.4325 165.2897,327.4296 165.3345,327.1129 165.3794,326.7961 165.4242,326.4794 165.8569,323.4237 168.5943,323.2922 168.9344,323.3404 169.2625,323.3868 169.5905,323.4333 169.9186,323.4797 169.5905,323.4333 169.2625,323.3868 168.9344,323.3404 167.9323,323.1985 165.9615,321.707 166.2979,319.331 166.3965,318.6348 166.4951,317.9387 166.5937,317.2425 166.8724,315.2738 168.6899,313.9379 170.6593,314.2168 172.6456,314.498 174.003,316.2835 173.7242,318.2522" stroke="black" stroke-width="1" /><polyline fill="none" points="153.8252,319.7826 153.8239,319.7879 153.8227,319.7932 153.8214,319.7986 154.363,317.5309 154.9046,315.2631 155.4463,312.9954 155.6966,311.9473 155.0573,311.3694 154.5084,311.2383 155.2091,311.4057 155.6498,312.1432 155.4781,312.8623 155.4675,312.9067 155.4569,312.951 155.4463,312.9954 156.7411,312.3 158.1677,311.9357 159.618,312.2821 160.8189,312.5689 162.6267,313.6356 162.0413,316.0867 161.7346,317.371 160.8229,318.0165 159.6853,318.2024 159.1336,318.3001 157.4724,318.2386 156.3538,318.2006 155.2143,318.1748 154.132,318.4983 153.8252,319.7826 153.5146,321.0832 154.458,322.9646 156.459,323.4425 158.3439,323.8927 159.4299,323.183 160.1836,322.4641" stroke="black" stroke-width="1" /><polyline fill="none" points="145.192,322.6131 141.5863,324.9537 147.1128,308.7251" stroke="black" stroke-width="1" /><polyline fill="none" points="133.7205,319.4801 132.7513,321.6387 126.259,318.7238 137.8333,305.1279" stroke="black" stroke-width="1" /><polyline fill="none" points="122.1203,312.6755 121.1477,314.3909 118.9741,314.9913 117.2588,314.0187 115.5282,313.0375 114.9148,310.8175 115.8873,309.1022 116.2683,308.4302 116.6554,308.0596 117.0358,307.8405 120.8832,305.6208 124.7307,303.4011 128.5781,301.1813 128.6485,301.0573 128.7188,300.9332 128.7892,300.8091 126.7307,299.642 124.6723,298.4749 122.6138,297.3079" stroke="black" stroke-width="1" /><polyline fill="none" points="104.9614,301.8481 108.861,300.4168 112.7606,298.9855 116.6601,297.5542 114.7101,300.3469 112.7601,303.1395 110.8101,305.9321 109.6812,307.5488 107.4602,307.9429 105.844,306.8145 104.2127,305.6753 103.8325,303.4648 104.9614,301.8481 106.9114,299.0555 108.8614,296.2629 110.8114,293.4702 111.9403,291.8535 114.146,291.4496 115.763,292.5787 117.3935,293.7172 117.789,295.9375 116.6601,297.5542" stroke="black" stroke-width="1" /><polyline fill="none" points="103.7341,293.8367 102.4477,295.3536 100.2082,295.477 98.7563,294.2458 97.305,293.015 97.0733,290.7961 98.3597,289.2791 99.3355,288.1285 100.3112,286.9779 101.2869,285.8273 102.5731,284.3106 104.8006,284.176 106.2519,285.4068 107.7038,286.638 107.9347,288.8573 106.6485,290.374 106.6528,290.3776 106.6571,290.3812 106.6613,290.3849 103.6896,293.8892 100.7179,297.3934 97.7462,300.8978" stroke="black" stroke-width="1" /><polyline fill="none" points="93.847,276.101 94.9163,275.8954 96.1056,275.812 97.5915,277.3333 98.9217,278.695 98.956,280.9382 97.4962,282.3642 96.4293,283.4063 95.3625,284.4485 94.2956,285.4906 92.8728,286.8804 90.6316,286.793 89.3014,285.4313 87.9472,284.045 87.8887,281.778 89.3115,280.3882 89.8428,279.8691 90.3742,279.3501 90.9055,278.8311 92.5629,280.5278 94.2203,282.2245 95.8777,283.9212" stroke="black" stroke-width="1" /><polyline fill="none" points="84.7354,267.9411 86.2818,266.6908 88.4953,266.9739 89.6919,268.454 90.8886,269.9341 90.7124,272.1708 89.1659,273.4211 87.9928,274.3696 86.8196,275.3181 85.6465,276.2666 84.0997,277.5171 81.8763,277.2205 80.6796,275.7404 79.483,274.2603 79.6692,272.037 81.2159,270.7866" stroke="black" stroke-width="1" /><polyline fill="none" points="67.3448,266.6557 67.8944,267.4834 68.85,267.8372 69.9069,267.1355 70.9304,266.4559 71.954,265.7763 72.9775,265.0967 72.6425,264.5922 72.3075,264.0876 71.9725,263.5831 72.6174,264.5544 73.2623,265.5257 73.9072,266.4969 73.5973,266.0302 73.2874,265.5635 72.9775,265.0967 76.1244,263.0073 79.2714,260.9179 82.4183,258.8285" stroke="black" stroke-width="1" /><polyline fill="none" points="75.2009,246.2678 71.4086,248.302 74.2943,253.6817 60.304,254.7643" stroke="black" stroke-width="1" /><polyline fill="none" points="70.2893,235.4044 66.3232,237.0745 68.6924,242.7009 54.6622,242.4686" stroke="black" stroke-width="1" /><polyline fill="none" points="64.4762,223.8724 65.523,224.1721 66.6215,224.6353 67.2597,226.6638 67.8309,228.4797 66.8478,230.4962 64.9011,231.1087 63.4785,231.5562 62.0559,232.0037 60.6332,232.4513 58.7359,233.0481 56.776,231.9574 56.2048,230.1414 55.6232,228.2928 56.5955,226.2441 58.4928,225.6472 59.2013,225.4243 59.9099,225.2015 60.6184,224.9786 61.3302,227.2411 62.0419,229.5037 62.7537,231.7662" stroke="black" stroke-width="1" /><polyline fill="none" points="46.7972,215.8706 47.227,217.8772 47.6568,219.8838 48.0866,221.8904 50.73,221.3242 53.3733,220.758 56.0167,220.1918 54.69,219.8098 53.8044,219.0345 53.4921,217.576 53.0611,215.5641 54.3871,213.6496 56.2475,213.2511 57.5775,212.9662 58.9075,212.6814 60.2375,212.3965 62.182,211.98 63.9412,213.2337 64.3327,215.0616 64.7205,216.872 63.6255,218.7195 61.681,219.136" stroke="black" stroke-width="1" /><polyline fill="none" points="47.9774,208.7484 45.6275,209.0251 44.7952,201.9573 62.405,204.9081" stroke="black" stroke-width="1" /><polyline fill="none" points="57.8179,188.1016 59.806,188.055 61.3866,189.6302 61.4312,191.533 61.4758,193.4358 59.9712,195.1001 57.9831,195.1467 56.4749,195.1821 54.9666,195.2175 53.4584,195.2528 51.47,195.2995 49.8897,193.7074 49.8451,191.8047 49.8004,189.9019 51.3048,188.2544 53.2932,188.2077" stroke="black" stroke-width="1" /><polyline fill="none" points="51.3927,175.1193 53.3596,175.2579 54.8388,176.9439 54.7002,178.9109 54.5605,180.895 52.8584,182.373 50.8914,182.2344 49.8766,182.1629 48.8618,182.0914 47.8471,182.02 45.8801,181.8814 44.4013,180.1793 44.5399,178.2119 44.6797,176.2282 46.3813,174.7663 48.3483,174.9048 51.746,175.1442 55.1436,175.3836 58.5413,175.6229 60.5079,175.7615 61.9874,177.4476 61.8488,179.4145 61.7296,181.1075 60.4675,182.4286 58.8673,182.6943" stroke="black" stroke-width="1" /><polyline fill="none" points="48.8768,168.7975 47.1175,168.5061 45.8048,166.7769 46.1214,164.8651 46.4378,162.9542 48.157,161.7087 50.1527,162.0392 50.4683,162.0914 50.7839,162.1437 51.0995,162.196 54.1442,162.7002 54.2115,165.4398 54.1553,165.7788 54.1012,166.1057 54.0471,166.4325 53.993,166.7594 54.0471,166.4325 54.1012,166.1057 54.1553,165.7788 54.3207,164.7802 55.8579,162.8449 58.2254,163.237 58.9191,163.3519 59.6128,163.4668 60.3064,163.5816 62.268,163.9065 63.561,165.7547 63.236,167.717 62.9082,169.6962 61.0914,171.0114 59.1299,170.6865" stroke="black" stroke-width="1" /><polyline fill="none" points="64.7273,152.2587 65.4528,153.0706 66.1349,154.0484 65.5926,156.1045 65.1071,157.9452 63.1998,159.1265 61.2265,158.606 59.7845,158.2256 58.3424,157.8453 56.9004,157.4649 54.9772,156.9576 53.9014,154.9895 54.3869,153.1488 54.8811,151.275 56.7963,150.0608 58.7196,150.568 59.4378,150.7575 60.156,150.9469 60.8742,151.1364 60.2692,153.4298 59.6643,155.7232 59.0594,158.0166" stroke="black" stroke-width="1" /><polyline fill="none" points="55.148,143.2997 53.2968,142.6204 52.3493,140.5741 53.0286,138.7229 53.7139,136.8553 55.8038,135.8874 57.655,136.5666 58.3802,136.8327 58.809,137.1541 59.0873,137.4936 61.9058,140.9267 64.7243,144.3597 67.5428,147.7928 67.6767,147.842 67.8106,147.8911 67.9445,147.9402 68.7596,145.7188 69.5747,143.4973 70.3898,141.2759" stroke="black" stroke-width="1" /><polyline fill="none" points="60.3724,129.8039 58.4696,125.9492 73.9405,133.3359" stroke="black" stroke-width="1" /><polyline fill="none" points="66.2935,111.4659 70.2363,113.8251 74.179,116.1844 78.1217,118.5436 79.8285,119.5649 80.3164,121.7544 79.3389,123.3879 78.3704,125.0064 76.2102,125.6117 74.5034,124.5904 73.2089,123.8158 71.9143,123.0412 70.6197,122.2665 68.913,121.2452 68.4259,119.0558 69.3943,117.4373 70.3718,115.8038 72.5313,115.1984 74.238,116.2197" stroke="black" stroke-width="1" /><polyline fill="none" points="71.8979,107.5029 69.9901,106.1031 74.2002,100.3653 85.0704,114.5304" stroke="black" stroke-width="1" /><polyline fill="none" points="88.0551,94.2223 89.5287,95.5325 89.6715,97.7709 88.3612,99.2445 87.0396,100.7309 84.7892,100.8629 83.3156,99.5527 82.5554,98.8767 81.7951,98.2007 81.0349,97.5248 79.5613,96.2145 79.4287,93.9637 80.7392,92.4898 82.0606,91.0037 84.3008,90.8841 85.7744,92.1944 88.3198,94.4576 90.8652,96.7209 93.4106,98.9841 94.8839,100.2941 95.0269,102.5327 93.7167,104.0063 92.589,105.2746 90.7829,105.5509 89.3532,104.7847" stroke="black" stroke-width="1" /><polyline fill="none" points="93.8001,91.9962 92.4439,90.5412 92.5834,88.3026 93.9759,87.0047 95.368,85.7072 97.5988,85.7367 98.9549,87.1917 99.9835,88.2953 101.0121,89.3989 102.0407,90.5025 103.3966,91.9573 103.2697,94.1852 101.8776,95.4826 100.4851,96.7805 98.254,96.7503 96.8981,95.2955 96.894,95.2994 96.8899,95.3032 96.8858,95.307 93.7531,91.9458 90.6205,88.5847 87.4878,85.2235" stroke="black" stroke-width="1" /><polyline fill="none" points="104.1473,84.844 102.9439,83.282 103.2337,81.0452 104.7951,79.8421 106.3713,78.6278 108.5942,78.9288 109.7976,80.4908 110.4183,81.2965 111.0391,82.1021 111.6598,82.9078 112.8632,84.4699 112.5869,86.6954 111.0107,87.9098 109.4492,89.1128 107.2129,88.8231 106.0095,87.261 103.9307,84.5629 101.852,81.8647 99.7732,79.1665 98.57,77.6048 98.86,75.3683 100.4214,74.1653 101.7667,73.1288 103.5915,73.1945 104.8532,74.2135" stroke="black" stroke-width="1" /><polyline fill="none" points="115.8435,73.2571 117.2675,72.479 117.9564,70.2723 116.9091,68.6117 116.6653,68.2252 116.4216,67.8387 116.1778,67.4522 115.1898,65.8856 113.1077,65.4151 111.5266,66.4123 109.9602,67.4001 109.5068,69.5106 110.4764,71.048 110.7202,71.4345 110.9639,71.8209 111.2076,72.2074 112.1959,73.7744 114.2771,74.245 115.8435,73.2571 117.5693,72.1686 119.8065,72.7237 120.858,74.391 121.2178,74.9614 121.5775,75.5319 121.9373,76.1024 122.989,77.7699 122.5081,79.9995 120.7823,81.088 119.0709,82.1673 116.8526,81.64 115.8009,79.9725 115.4351,79.3926 115.0694,78.8126 114.7037,78.2327 113.8021,76.8032 114.0316,74.5198" stroke="black" stroke-width="1" /><polyline fill="none" points="121.0855,63.5525 120.0163,61.4417 126.3648,58.2257 129.6605,75.7742" stroke="black" stroke-width="1" /><polyline fill="none" points="137.4525,53.663 136.528,54.027 135.9819,54.8873 136.4467,56.0676 136.8969,57.2108 137.347,58.354 137.7971,59.4972 138.3607,59.2753 138.9242,59.0534 139.4877,58.8315 138.4029,59.2587 137.3181,59.6859 136.2332,60.113 136.7545,59.9077 137.2758,59.7025 137.7971,59.4972 139.1811,63.0119 140.5651,66.5267 141.949,70.0414" stroke="black" stroke-width="1" /><polyline fill="none" points="152.8781,52.2738 151.5394,56.2061 150.2007,60.1385 148.862,64.0708 147.9164,60.7987 146.9707,57.5265 146.025,54.2543 145.4776,52.36 146.5675,50.3851 148.4612,49.8378 150.3726,49.2854 152.3306,50.3795 152.8781,52.2738 153.8237,55.546 154.7694,58.8181 155.715,62.0903 156.2625,63.9846 155.1898,65.9538 153.2952,66.5014 151.3847,67.0535 149.4095,65.9652 148.862,64.0708" stroke="black" stroke-width="1" /><polyline fill="none" points="167.3939,63.0873 166.5915,58.8594 160.5937,59.9977 163.7594,46.3273" stroke="black" stroke-width="1" /><polyline fill="none" points="151.3485,264.0944 239.8942,231.6324 96.1804,188.1635 188.8697,188.4998 136.578,231.1149 189.0084,152.2515 189.0084,152.2515 268.4255,140.8637 220.8597,130.6987 108.8569,140.3048" stroke="black" stroke-width="1" /><polyline fill="none" points="110.3646,157.8839 107.3492,122.7258" stroke="black" stroke-width="1" /><polyline fill="none" points="152.0672,268.1431 151.9224,266.303 151.4915,264.5083 150.7852,262.803 149.8208,261.2293 148.6221,259.8258 147.2186,258.6271 145.6449,257.6627 143.9396,256.9564 142.1449,256.5255 140.3048,256.3807 138.4648,256.5255 136.6701,256.9564 134.9648,257.6627 133.3911,258.6271 131.9876,259.8258 130.7889,261.2293 129.8245,262.803 129.1181,264.5083 128.6873,266.303 128.5424,268.1431 128.6873,269.9831 129.1181,271.7779 129.8245,273.4831 130.7889,275.0568 131.9876,276.4604 133.3911,277.6591 134.9648,278.6234 136.6701,279.3298 138.4648,279.7607 140.3048,279.9055 142.1449,279.7607 143.9396,279.3298 145.6449,278.6234 147.2186,277.6591 148.6221,276.4604 149.8208,275.0568 150.7852,273.4831 151.4915,271.7779 151.9224,269.9831 152.0672,268.1431" stroke="black" stroke-width="1" /><polyline fill="none" points="188.5,69.0664 199.6839,69.5912 210.7696,71.161 221.6595,73.7619 232.2581,77.3712 242.4721,81.9571 252.2118,87.4792 261.3915,93.8892 269.9308,101.1306 277.7544,109.1398 284.7936,117.8464 290.9866,127.1739 296.2789,137.0404 300.6241,147.3591 303.9839,158.0393 306.3289,168.9873 307.6383,180.1067 307.9008,191.2998 307.114,202.4684 305.2847,213.5142 302.4292,224.3402 298.5725,234.8512 293.7484,244.9549 287.9994,254.5625 281.376,263.5894 273.9365,271.9565 265.7461,279.5902 256.8768,286.4234 247.4067,292.3961 237.4188,297.4556 227.0011,301.5577 216.2451,304.6663 205.2452,306.7539 194.0981,307.8023 182.9019,307.8023 171.7548,306.7539 160.7549,304.6663 149.9989,301.5577 139.5811,297.4556 129.5933,292.3961 120.1232,286.4234 111.2539,279.5902 103.0635,271.9565 95.6239,263.5894 89.0006,254.5625 83.2516,244.9549 78.4275,234.8512 74.5708,224.3402 71.7153,213.5142 69.8861,202.4684 69.0992,191.2998 69.3617,180.1067 70.6712,168.9872 73.0161,158.0393 76.3759,147.3591 80.7211,137.0404 86.0134,127.174 92.2064,117.8464 99.2457,109.1398 107.0692,101.1306 115.6085,93.8892 124.7882,87.4792 134.5279,81.957 144.7419,77.3712 155.3405,73.7619 166.2304,71.161 177.3161,69.5912 188.5,69.0664" stroke="black" stroke-width="1" />

    </g>
  </g>
  <WCB
     pausedposy="0"
     pausedposx="0"
     lastknownposy="0"
     lastknownposx="0"
     lastpathnc="0"
     lastpath="0"
     node="0"
     layer="0" />
</svg>
