<?xml version="1.0" encoding="UTF-8" standalone="no"?>
<!-- Created with Inkscape (http://www.inkscape.org/) -->

<svg
   xmlns:dc="http://purl.org/dc/elements/1.1/"
   xmlns:cc="http://creativecommons.org/ns#"
   xmlns:rdf="http://www.w3.org/1999/02/22-rdf-syntax-ns#"
   xmlns:svg="http://www.w3.org/2000/svg"
   xmlns="http://www.w3.org/2000/svg"
   xmlns:sodipodi="http://sodipodi.sourceforge.net/DTD/sodipodi-0.dtd"
   xmlns:inkscape="http://www.inkscape.org/namespaces/inkscape"
   width="100mm"
   height="100mm"
   viewBox="0 0 100 100"
   version="1.1"
   id="svg19124"
   inkscape:version="0.92.3 (2405546, 2018-03-11)"
   sodipodi:docname="inkscape_template_TMP.svg"
   shape-rendering="crispEdges">
  <sodipodi:namedview
     pagecolor="#ffffff"
     bordercolor="#666666"
     borderopacity="1"
     objecttolerance="10"
     gridtolerance="10"
     guidetolerance="10"
     inkscape:pageopacity="0"
     inkscape:pageshadow="2"
     inkscape:window-width="1568"
     inkscape:window-height="1550"
     id="namedview24021"
     showgrid="false"
     inkscape:zoom="0.62441667"
     inkscape:cx="712.66515"
     inkscape:cy="409.98265"
     inkscape:window-x="0"
     inkscape:window-y="0"
     inkscape:window-maximized="0"
     inkscape:current-layer="layer1" />
  <defs
     id="defs19118" />
  <metadata
     id="metadata19121">
    <rdf:RDF>
      <cc:Work
         rdf:about="">
        <dc:format>image/svg+xml</dc:format>
        <dc:type
           rdf:resource="http://purl.org/dc/dcmitype/StillImage" />
        <dc:title />
      </cc:Work>
    </rdf:RDF>
  </metadata>
  <g
     transform="translate(0,-197)"
     id="layer1"
     inkscape:groupmode="layer"
     inkscape:label="Layer 1">
    <g
       id="g24447"
       transform="matrix(0.26458333,0,0,0.26458333,0.10666333,197.9735)">

<polyline fill="none" points="192.1004,47.7394 189.7225,51.1455 187.3447,54.5516 184.9669,57.9577 184.9669,54.5516 184.9669,51.1455 184.9669,47.7394 184.9669,45.7676 186.5623,44.1729 188.5334,44.1729 190.5231,44.1729 192.1004,45.7676 192.1004,47.7394 192.1004,51.1455 192.1004,54.5516 192.1004,57.9577 192.1004,59.9295 190.5231,61.5235 188.5509,61.5235 186.5623,61.5235 184.9669,59.9295 184.9669,57.9577" stroke="black" stroke-width="1" /><polyline fill="none" points="197.8298,61.5877 200.7471,57.7851 198.696,53.7706 202.935,62.0679 200.7471,57.7851 203.4811,54.2207" stroke="black" stroke-width="1" /><polyline fill="none" points="211.4702,49.377 211.8028,47.625 213.5622,46.3532 215.4662,46.7146 217.3691,47.0757 218.574,48.8236 218.1968,50.811 218.1371,51.1253 218.0775,51.4396 218.0178,51.7539 217.4424,54.7859 214.7019,54.789 214.3643,54.7249 214.0388,54.6631 213.7133,54.6013 213.3878,54.5396 213.7133,54.6013 214.0388,54.6631 214.3643,54.7249 215.3588,54.9136 217.2575,56.4958 216.81,58.8534 216.6789,59.5442 216.5478,60.235 216.4167,60.9258 216.046,62.8792 214.1679,64.1285 212.2138,63.7576 210.2428,63.3836 208.9706,61.5364 209.3413,59.583" stroke="black" stroke-width="1" /><polyline fill="none" points="226.3444,57.6272 227.8721,58.1743 229.979,57.2228 230.5241,55.3367 230.6509,54.8978 230.7778,54.4588 230.9046,54.0199 231.4189,52.2405 230.3871,50.3719 228.5912,49.8529 226.8122,49.3388 224.9337,50.4023 224.429,52.1484 224.3022,52.5874 224.1753,53.0263 224.0485,53.4653 223.5341,55.245 224.5654,57.113 226.3444,57.6272 228.3046,58.1937 229.3763,60.2344 228.829,62.128 228.6418,62.7759 228.4545,63.4239 228.2673,64.0718 227.7199,65.9658 225.7342,67.0879 223.774,66.5214 221.8302,65.9596 220.7503,63.9515 221.2976,62.0575 221.488,61.3988 221.6783,60.7402 221.8687,60.0815 222.3379,58.4579 224.1968,57.1121" stroke="black" stroke-width="1" /><polyline fill="none" points="237.08,55.0962 237.9469,52.8945 244.5687,55.502 233.6444,69.6254" stroke="black" stroke-width="1" /><polyline fill="none" points="249.1933,61.2241 249.9991,59.6333 252.0425,58.9 253.7713,59.7757 255.4991,60.651 256.1714,62.6647 255.2572,64.4693 255.1127,64.7546 254.9681,65.04 254.8235,65.3254 253.4289,68.0785 250.7953,67.3205 250.4888,67.1652 250.1932,67.0155 249.8977,66.8658 249.6021,66.716 249.8977,66.8658 250.1932,67.0155 250.4888,67.1652 251.3917,67.6226 252.7765,69.6698 251.6921,71.8105 251.3744,72.4377 251.0566,73.0649 250.7389,73.6922 249.8404,75.4659 247.6893,76.1446 245.9149,75.2458 244.1253,74.3392 243.416,72.2114 244.3145,70.4377" stroke="black" stroke-width="1" /><polyline fill="none" points="261.7784,68.1165 265.8292,66.6776 256.6838,81.1784" stroke="black" stroke-width="1" /><polyline fill="none" points="268.2354,79.3059 269.4492,77.7303 271.6805,77.5021 273.1885,78.6639 274.696,79.8253 275.0314,82.031 273.8174,83.6066 272.8967,84.8017 271.976,85.9968 271.0553,87.1918 269.8416,88.7672 267.6229,89.006 266.1154,87.8446 264.6075,86.6828 264.2728,84.4767 265.4865,82.9014 265.482,82.898 265.4776,82.8946 265.4731,82.8912 268.2773,79.2514 271.0815,75.6117 273.8857,71.972" stroke="black" stroke-width="1" /><polyline fill="none" points="282.94,83.8913 287.188,83.2328 275.4993,95.7741" stroke="black" stroke-width="1" /><polyline fill="none" points="292.0902,100.7132 292.0944,100.7096 292.0984,100.7059 292.1025,100.7023 290.3602,102.2515 288.6178,103.8008 286.8754,105.35 286.0702,106.066 286.2635,106.9058 286.6385,107.3275 286.1598,106.7892 286.2207,105.9321 286.7732,105.4409 286.8073,105.4106 286.8413,105.3803 286.8754,105.35 285.4156,105.1788 284.0374,104.6608 283.0466,103.5464 282.2262,102.6237 281.3547,100.7142 283.238,99.0397 284.2247,98.1623 285.3418,98.155 286.3809,98.6539 286.8892,98.8896 288.216,99.8911 289.1114,100.5627 290.0309,101.2362 291.1035,101.5906 292.0902,100.7132 293.0895,99.8247 293.3932,97.742 292.0262,96.2046 290.7385,94.7564 289.4418,94.7165 288.4122,94.8744" stroke="black" stroke-width="1" /><polyline fill="none" points="306.5604,105.4905 305.3464,103.836 304.1324,102.1815 302.9185,100.527 300.7389,102.1262 298.5594,103.7254 296.3798,105.3246 297.7466,105.1298 298.872,105.4743 299.7544,106.6768 300.9716,108.3357 300.5461,110.6254 299.0121,111.7509 297.9155,112.5556 296.8188,113.3602 295.7222,114.1648 294.1189,115.3413 292.0005,114.9181 290.8947,113.4109 289.7994,111.9181 290.0415,109.7843 291.6449,108.6078" stroke="black" stroke-width="1" /><polyline fill="none" points="308.401,112.4713 310.4314,111.2564 314.0856,117.3632 296.8121,121.8841" stroke="black" stroke-width="1" /><polyline fill="none" points="314.6997,125.7661 318.8936,126.7099 303.4227,134.0966" stroke="black" stroke-width="1" /><polyline fill="none" points="320.0197,137.8593 324.1068,139.1917 308.0122,145.0971" stroke="black" stroke-width="1" /><polyline fill="none" points="329.0002,154.9091 324.5575,156.0809 320.1148,157.2528 315.6721,158.4246 313.7488,158.9319 311.8417,157.751 311.3562,155.9103 310.8751,154.0865 311.9516,152.1182 313.8748,151.611 315.3336,151.2262 316.7923,150.8414 318.251,150.4567 320.1743,149.9494 322.0808,151.1308 322.5619,152.9546 323.0474,154.7953 321.9715,156.763 320.0482,157.2703" stroke="black" stroke-width="1" /><polyline fill="none" points="331.5284,168.2133 326.9955,168.964 322.4625,169.7147 317.9296,170.4653 315.9673,170.7903 314.1791,169.436 313.8681,167.5579 313.5599,165.6971 314.816,163.8383 316.7783,163.5134 318.2667,163.2669 319.755,163.0204 321.2433,162.7739 323.2056,162.449 324.9932,163.8038 325.3013,165.6646 325.6124,167.5426 324.3569,169.401 322.3947,169.7259" stroke="black" stroke-width="1" /><polyline fill="none" points="324.3994,178.9469 324.412,180.5696 326.0309,182.2198 327.9894,182.0818 328.4452,182.0497 328.9009,182.0176 329.3568,181.9855 331.2044,181.8553 332.6031,180.243 332.4718,178.3782 332.3416,176.531 330.6961,175.1338 328.8831,175.2615 328.4272,175.2937 327.9715,175.3258 327.5157,175.3579 325.6677,175.4881 324.2692,177.0997 324.3994,178.9469 324.5427,180.9823 322.9961,182.6914 321.0298,182.8299 320.3571,182.8773 319.6843,182.9247 319.0116,182.9721 317.0449,183.1106 315.3074,181.6329 315.1641,179.5976 315.0219,177.5793 316.5351,175.8737 318.5017,175.7351 319.1856,175.6869 319.8696,175.6387 320.5535,175.5906 322.2394,175.4718 324.1431,176.7534" stroke="black" stroke-width="1" /><polyline fill="none" points="332.6845,194.7964 332.7326,192.7449 332.7807,190.6934 332.8289,188.6418 330.1263,188.5785 327.4237,188.5151 324.7211,188.4517 325.9227,189.1315 326.604,190.0914 326.569,191.5824 326.5208,193.6394 324.7863,195.1935 322.8843,195.1489 321.5245,195.1171 320.1647,195.0852 318.8049,195.0533 316.8168,195.0067 315.397,193.3786 315.4409,191.5098 315.4843,189.6588 316.9784,188.1162 318.9665,188.1628" stroke="black" stroke-width="1" /><polyline fill="none" points="328.7091,202.7589 331.753,205.7943 314.7268,203.7893" stroke="black" stroke-width="1" /><polyline fill="none" points="325.3846,221.5014 322.5521,218.463 319.7196,215.4245 316.8871,212.3861 320.2176,213.0994 323.5482,213.8128 326.8787,214.5262 328.8068,214.9392 330.032,216.8332 329.6191,218.7606 329.2024,220.7062 327.3127,221.9144 325.3846,221.5014 322.0541,220.7881 318.7236,220.0747 315.3931,219.3613 313.4649,218.9483 312.2366,217.0723 312.6497,215.1438 313.0662,213.1993 314.959,211.9731 316.8871,212.3861" stroke="black" stroke-width="1" /><polyline fill="none" points="321.6929,234.1745 319.1573,230.8842 316.6218,227.5938 314.0862,224.3035 317.3353,225.3256 320.5844,226.3477 323.8335,227.3698 325.7145,227.9615 326.7569,229.9619 326.1654,231.8422 325.5684,233.7403 323.5739,234.7662 321.6929,234.1745 318.4438,233.1524 315.1947,232.1303 311.9456,231.1082 310.0646,230.5164 309.0174,228.5336 309.6092,226.6523 310.206,224.7553 312.2052,223.7117 314.0862,224.3035" stroke="black" stroke-width="1" /><polyline fill="none" points="314.4189,237.7493 316.252,238.5213 317.0417,240.6205 316.3029,242.375 315.5644,244.1288 313.5172,245.0156 311.6841,244.2437 310.2938,243.6582 308.9034,243.0727 307.513,242.4872 305.6802,241.7155 304.8835,239.631 305.622,237.8773 306.3607,236.1228 308.4085,235.2366 310.2412,236.0083 310.2434,236.0032 310.2456,235.998 310.2478,235.9929 314.4823,237.776 318.7169,239.5592 322.9514,241.3424" stroke="black" stroke-width="1" /><polyline fill="none" points="310.8405,258.2086 308.963,254.5032 307.0854,250.7978 305.2079,247.0924 308.2094,248.7024 311.2109,250.3124 314.2124,251.9224 315.9501,252.8545 316.6013,255.0142 315.6695,256.7512 314.729,258.5046 312.5782,259.1407 310.8405,258.2086 307.839,256.5986 304.8375,254.9886 301.8359,253.3786 300.0983,252.4465 299.4391,250.3032 300.3714,248.5652 301.3114,246.8128 303.4702,246.1603 305.2079,247.0924" stroke="black" stroke-width="1" /><polyline fill="none" points="293.9823,262.7065 293.5573,261.704 293.2267,260.5586 294.4029,258.787 295.4559,257.2011 297.6421,256.6977 299.3423,257.8265 300.5847,258.6515 301.8272,259.4764 303.0696,260.3013 304.7267,261.4015 305.1106,263.6113 304.0576,265.1972 302.9857,266.8117 300.7813,267.3437 299.1243,266.2436 298.5055,265.8327 297.8867,265.4218 297.2679,265.011 298.5799,263.035 299.8918,261.059 301.2038,259.083" stroke="black" stroke-width="1" /><polyline fill="none" points="299.487,275.355 300.4423,279.5463 287.1106,268.7678" stroke="black" stroke-width="1" /><polyline fill="none" points="291.697,284.5896 292.9727,285.8357 293.0589,288.005 291.7048,289.3913 290.3514,290.7768 288.2287,290.8138 286.7816,289.4003 286.5528,289.1767 286.324,288.9532 286.0952,288.7297 283.8875,286.5732 285.4008,284.2884 285.6409,284.0426 285.8724,283.8056 286.1039,283.5686 286.3354,283.3316 286.1039,283.5686 285.8724,283.8056 285.6409,284.0426 284.9336,284.7667 282.5653,285.4733 280.8486,283.7964 280.3456,283.3051 279.8427,282.8138 279.3397,282.3225 277.9174,280.9332 277.9155,278.6775 279.3053,277.2547 280.7072,275.8196 282.9497,275.7815 284.372,277.1708" stroke="black" stroke-width="1" /><polyline fill="none" points="279.6011,300.4349 281.1662,299.1076 282.7313,297.7804 284.2964,296.4532 282.548,294.3914 280.7996,292.3296 279.0511,290.2679 279.3416,291.6175 279.0769,292.7644 277.9394,293.7291 276.3701,295.0598 274.0562,294.7963 272.8257,293.3453 271.946,292.3079 271.0663,291.2705 270.1866,290.2331 268.9004,288.7164 269.1736,286.5736 270.5994,285.3646 272.0115,284.1671 274.1571,284.2586 275.4433,285.7753" stroke="black" stroke-width="1" /><polyline fill="none" points="260.4525,297.5909 259.314,295.9604 259.752,293.7723 261.3125,292.6826 262.873,291.593 265.0919,291.9259 266.2303,293.5564 267.0941,294.7933 267.9578,296.0302 268.8215,297.2672 269.9602,298.8979 269.508,301.0951 267.9475,302.1847 266.387,303.2744 264.1823,302.9324 263.0436,301.3016" stroke="black" stroke-width="1" /><polyline fill="none" points="256.8137,315.7868 254.5475,311.7899 252.2813,307.7929 250.0151,303.7959 249.0341,302.0657 249.6896,299.9204 251.3456,298.9815 252.9863,298.0512 255.1641,298.5901 256.1451,300.3204 256.8892,301.6328 257.6332,302.9451 258.3773,304.2575 259.3583,305.9877 258.7022,308.1326 257.0614,309.0628 255.4055,310.0017 253.2284,309.4633 252.2474,307.733" stroke="black" stroke-width="1" /><polyline fill="none" points="241.5176,315.6479 240.7099,313.8491 241.4965,311.7486 243.2954,310.941 245.1099,310.1263 247.2169,310.9276 248.0246,312.7264 248.4412,313.6545 248.8579,314.5825 249.2746,315.5106 250.0822,317.3094 249.2813,319.4171 247.4821,320.2249 245.6679,321.0394 243.5752,320.231 242.7676,318.4321 241.3725,315.3248 239.9774,312.2176 238.5823,309.1103 237.7748,307.3118 238.5612,305.211 240.3601,304.4034 241.9084,303.7082 243.6691,304.1959 244.6597,305.4805" stroke="black" stroke-width="1" /><polyline fill="none" points="233.1713,325.5815 234.1118,325.2612 234.6976,324.4276 234.2886,323.2267 233.8926,322.0636 233.4965,320.9006 233.1004,319.7376 232.5271,319.9328 231.9539,320.128 231.3806,320.3232 232.4842,319.9474 233.5878,319.5716 234.6915,319.1957 234.1611,319.3763 233.6308,319.5569 233.1004,319.7376 231.8827,316.1618 230.665,312.5861 229.4473,309.0103" stroke="black" stroke-width="1" /><polyline fill="none" points="222.9959,317.6122 223.454,319.5302 222.2734,321.4521 220.3562,321.91 218.4209,322.3722 216.5164,321.1871 216.0583,319.2692 215.822,318.28 215.5857,317.2908 215.3495,316.3015 214.8914,314.3836 216.0551,312.4665 217.9904,312.0043 219.9076,311.5464 221.829,312.7266 222.2871,314.6446 223.0783,317.9575 223.8696,321.2703 224.6608,324.5833 225.1188,326.5008 223.9382,328.4223 222.021,328.8802 220.3692,329.2747 218.7314,328.4673 217.9978,327.021" stroke="black" stroke-width="1" /><polyline fill="none" points="207.5799,323.392 205.9621,323.5186 204.4298,325.2495 204.7051,327.1934 204.7692,327.6458 204.8332,328.0983 204.8973,328.5507 205.157,330.3846 206.8636,331.6666 208.7145,331.4045 210.5481,331.1448 211.8261,329.4052 211.5713,327.6056 211.5072,327.1532 211.4432,326.7008 211.3791,326.2484 211.1194,324.4141 209.4135,323.1324 207.5799,323.392 205.5597,323.6781 203.7461,322.2554 203.4698,320.3037 203.3752,319.6359 203.2807,318.9681 203.1861,318.3004 202.9097,316.3484 204.2616,314.5113 206.2819,314.2253 208.2852,313.9416 210.0929,315.3312 210.3693,317.2832 210.4655,317.962 210.5616,318.6409 210.6577,319.3198 210.8947,320.9931 209.7501,322.9822" stroke="black" stroke-width="1" /><polyline fill="none" points="198.5953,328.9419 198.6877,330.9116 197.1695,332.5789 195.1998,332.6714 193.2126,332.7646 191.5094,331.2141 191.417,329.2444 191.3808,328.4727 191.5105,327.9528 191.7154,327.5646 193.7856,323.6346 195.8557,319.7047 197.9259,315.7748 197.9192,315.6323 197.9126,315.4898 197.9059,315.3474 195.5422,315.4583 193.1785,315.5692 190.8148,315.6801" stroke="black" stroke-width="1" /><polyline fill="none" points="178.3058,328.9371 180.8407,325.6462 183.3756,322.3553 185.9104,319.0645 185.7508,322.4668 185.5911,325.8691 185.4315,329.2715 185.3391,331.2411 183.6706,332.7593 181.7017,332.6669 179.7141,332.5737 178.2134,330.9068 178.3058,328.9371 178.4655,325.5348 178.6252,322.1324 178.7848,318.7301 178.8772,316.7604 180.5274,315.2421 182.4975,315.3346 184.4839,315.4278 186.0029,317.0948 185.9104,319.0645" stroke="black" stroke-width="1" /><polyline fill="none" points="165.1999,327.3654 168.0318,324.3264 170.8637,321.2873 173.6956,318.2483 173.218,321.6207 172.7405,324.9932 172.2629,328.3656 171.9865,330.3179 170.1832,331.6732 168.2315,331.3969 166.2615,331.1179 164.9234,329.3178 165.1999,327.3654 165.6775,323.993 166.155,320.6205 166.6326,317.2481 166.909,315.2958 168.6941,313.9387 170.6469,314.2151 172.6158,314.494 173.972,316.2959 173.6956,318.2483" stroke="black" stroke-width="1" /><polyline fill="none" points="153.8252,319.7826 153.8239,319.7879 153.8227,319.7932 153.8214,319.7986 154.363,317.5309 154.9046,315.2631 155.4463,312.9954 155.6966,311.9473 155.0573,311.3694 154.5084,311.2383 155.2091,311.4057 155.6498,312.1432 155.4781,312.8623 155.4675,312.9067 155.4569,312.951 155.4463,312.9954 156.7411,312.3 158.1677,311.9357 159.618,312.2821 160.8189,312.5689 162.6267,313.6356 162.0413,316.0867 161.7346,317.371 160.8229,318.0165 159.6853,318.2024 159.1336,318.3001 157.4724,318.2386 156.3538,318.2006 155.2143,318.1748 154.132,318.4983 153.8252,319.7826 153.5146,321.0832 154.458,322.9646 156.459,323.4425 158.3439,323.8927 159.4299,323.183 160.1836,322.4641" stroke="black" stroke-width="1" /><polyline fill="none" points="143.65,309.4198 144.5109,308.7531 145.5342,308.1414 147.5472,308.8269 149.3492,309.4406 150.3935,311.4261 149.7356,313.3579 149.2549,314.7697 148.7741,316.1815 148.2933,317.5932 147.6522,319.476 145.6133,320.4109 143.8113,319.7972 141.9768,319.1725 140.9002,317.1767 141.5414,315.2938 141.7808,314.5907 142.0202,313.8876 142.2597,313.1845 144.5049,313.9491 146.7502,314.7137 148.9954,315.4783" stroke="black" stroke-width="1" /><polyline fill="none" points="132.524,304.6887 133.4435,304.1055 134.5196,303.5923 136.4595,304.4633 138.1962,305.243 139.05,307.3176 138.2141,309.1794 137.6032,310.5399 136.9924,311.9004 136.3815,313.2609 135.5669,315.0754 133.4494,315.8153 131.7128,315.0356 129.9449,314.2418 129.0599,312.1539 129.8745,310.3394 130.1788,309.6618 130.483,308.9842 130.7872,308.3066 132.951,309.2781 135.1148,310.2496 137.2786,311.2211" stroke="black" stroke-width="1" /><polyline fill="none" points="121.9077,312.7912 121.0282,314.3425 118.9527,314.9792 117.2668,314.0234 115.582,313.0681 115.0048,311.0251 116.0026,309.2653 116.1603,308.9871 116.3181,308.7088 116.4759,308.4305 117.998,305.7458 120.5932,306.6264 120.8921,306.7959 121.1803,306.9593 121.4685,307.1227 121.7568,307.2861 121.4685,307.1227 121.1803,306.9593 120.8921,306.7959 120.0116,306.2967 118.7243,304.1868 119.9079,302.0993 120.2547,301.4877 120.6014,300.876 120.9482,300.2644 121.9289,298.5347 124.1094,297.9576 125.8397,298.9386 127.5848,299.9281 128.1937,302.0867 127.213,303.8163" stroke="black" stroke-width="1" /><polyline fill="none" points="114.9342,300.0707 113.8053,301.6874 111.5846,302.0822 109.9685,300.9537 108.3371,299.8146 107.9572,297.6038 109.0861,295.9871 109.6683,295.1532 110.2506,294.3193 110.8329,293.4855 111.9618,291.8687 114.1677,291.4645 115.7991,292.6036 117.4152,293.7321 117.8099,295.9523 116.681,297.569 114.731,300.3616 112.781,303.1543 110.831,305.9469 109.7023,307.5634 107.4818,307.9579 105.8657,306.8293 104.4733,305.8571 103.9884,304.0967 104.5818,302.5874" stroke="black" stroke-width="1" /><polyline fill="none" points="104.8098,292.6916 103.5345,294.1955 101.2866,294.3807 99.7832,293.1058 98.2657,291.8189 98.0944,289.5823 99.3698,288.0784 100.0276,287.3027 100.6854,286.527 101.3432,285.7513 102.6185,284.2474 104.8526,284.0515 106.3701,285.3384 107.8735,286.6133 108.0585,288.8607 106.7832,290.3646 104.5803,292.9623 102.3773,295.5601 100.1744,298.1578 98.8993,299.6614 96.6516,299.8463 95.1483,298.5714 93.853,297.473 93.5351,295.675 94.2673,294.2279" stroke="black" stroke-width="1" /><polyline fill="none" points="90.0176,289.416 88.7419,290.6621 86.5712,290.6975 85.217,289.3112 83.8636,287.9257 83.8764,285.8028 85.3235,284.3893 85.5523,284.1657 85.7812,283.9422 86.01,283.7187 88.2177,281.5621 90.4663,283.1287 90.7064,283.3745 90.9379,283.6115 91.1694,283.8484 91.401,284.0854 91.1694,283.8484 90.9379,283.6115 90.7064,283.3745 89.9991,282.6504 89.3482,280.2661 91.0648,278.5893 91.5678,278.0979 92.0708,277.6066 92.5738,277.1153 93.9961,275.726 96.2511,275.7769 97.641,277.1997 99.0428,278.6348 99.0284,280.8777 97.6061,282.267" stroke="black" stroke-width="1" /><polyline fill="none" points="79.0786,272.1924 80.612,270.9527 82.8436,271.1776 84.0833,272.711 85.3338,274.2577 85.0965,276.4994 83.5631,277.7391 82.772,278.3787 81.9809,279.0183 81.1898,279.6579 79.6564,280.8976 77.4142,280.6607 76.1742,279.127 74.9239,277.5806 75.172,275.3509 76.7054,274.1112 79.354,271.9697 82.0027,269.8283 84.6514,267.6869 86.1845,266.4474 88.4164,266.672 89.6561,268.2054 90.7232,269.5252 90.7007,271.3521 89.7112,272.6375" stroke="black" stroke-width="1" /><polyline fill="none" points="72.3424,268.308 68.0576,267.9616 82.34,258.4788" stroke="black" stroke-width="1" /><polyline fill="none" points="62.7558,251.8632 66.8813,252.3486 71.0068,252.834 75.1323,253.3194 72.1307,254.9294 69.1292,256.5394 66.1277,258.1494 64.39,259.0815 62.2306,258.4293 61.2989,256.6923 60.3584,254.9389 61.0181,252.7953 62.7558,251.8632 65.7573,250.2532 68.7588,248.6432 71.7604,247.0331 73.498,246.1011 75.6482,246.7375 76.5805,248.4754 77.5205,250.2279 76.8699,252.3873 75.1323,253.3194" stroke="black" stroke-width="1" /><polyline fill="none" points="54.3859,241.8125 55.1823,243.7038 55.9787,245.595 56.7751,247.4863 59.2665,246.4371 61.7579,245.388 64.2493,244.3389 62.8747,244.2109 61.8601,243.6143 61.2813,242.2397 60.4827,240.3434 61.4285,238.2152 63.1819,237.4769 64.4355,236.949 65.689,236.4211 66.9426,235.8932 68.7754,235.1215 70.7374,236.0252 71.4629,237.748 72.1815,239.4544 71.4503,241.4736 69.6175,242.2454" stroke="black" stroke-width="1" /><polyline fill="none" points="54.7512,232.9204 50.7311,231.3979 67.0848,226.2534" stroke="black" stroke-width="1" /><polyline fill="none" points="50.491,221.8181 48.1773,222.3137 46.6868,215.3548 64.4955,216.6437" stroke="black" stroke-width="1" /><polyline fill="none" points="61.9142,200.7404 57.6403,201.2437 58.3543,207.3067 44.9401,203.1881" stroke="black" stroke-width="1" /><polyline fill="none" points="47.6766,194.04 44.2373,191.4612 61.3764,191.0594" stroke="black" stroke-width="1" /><polyline fill="none" points="47.7766,180.8288 44.5938,177.9393 61.6953,179.1441" stroke="black" stroke-width="1" /><polyline fill="none" points="46.5841,163.0688 46.4218,164.049 46.8796,164.9593 48.1311,165.1665 49.3432,165.3673 50.5554,165.568 51.7675,165.7687 51.8664,165.1713 51.9653,164.5738 52.0643,163.9763 51.8738,165.1265 51.6833,166.2767 51.4929,167.4269 51.5844,166.8742 51.6759,166.3215 51.7675,165.7687 55.4941,166.3859 59.2207,167.003 62.9474,167.6202" stroke="black" stroke-width="1" /><polyline fill="none" points="56.9199,157.3916 54.9966,156.8843 53.9204,154.9164 54.4059,153.0757 54.8912,151.2357 56.7939,150.0706 58.7171,150.5779 60.1758,150.9627 61.6345,151.3474 63.0933,151.7322 65.0162,152.2394 66.0973,154.1915 65.612,156.0315 65.1265,157.8722 63.2232,159.0368 61.3004,158.5296 61.2989,158.535 61.2975,158.5404 61.2961,158.5458 56.8533,157.374 52.4106,156.2021 47.9678,155.0303" stroke="black" stroke-width="1" /><polyline fill="none" points="54.073,135.6035 58.3864,137.1862 62.6999,138.7689 67.0134,140.3516 68.8807,141.0368 69.7683,143.0969 69.1125,144.884 68.4628,146.6547 66.4533,147.6522 64.586,146.967 63.1697,146.4474 61.7535,145.9277 60.3372,145.408 58.4699,144.7229 57.5831,142.6627 58.2328,140.892 58.8885,139.1049 60.8972,138.1075 62.7645,138.7926" stroke="black" stroke-width="1" /><polyline fill="none" points="59.5438,123.6993 58.6596,125.5512 57.7755,127.403 56.8913,129.2549 59.3308,130.4196 61.7703,131.5844 64.2098,132.7492 63.3921,131.6368 63.1637,130.4822 63.8064,129.1362 64.6929,127.2794 66.9117,126.5721 68.6286,127.3918 69.8561,127.9779 71.0835,128.5639 72.311,129.15 74.1055,130.0068 74.7339,132.0736 73.9285,133.7605 73.1307,135.4313 71.1359,136.2266 69.3413,135.3698" stroke="black" stroke-width="1" /><polyline fill="none" points="66.2935,111.4659 70.2363,113.8251 74.179,116.1844 78.1217,118.5436 79.8285,119.5649 80.3164,121.7544 79.3389,123.3879 78.3704,125.0064 76.2102,125.6117 74.5034,124.5904 73.2089,123.8158 71.9143,123.0412 70.6197,122.2665 68.913,121.2452 68.4259,119.0558 69.3943,117.4373 70.3718,115.8038 72.5313,115.1984 74.238,116.2197" stroke="black" stroke-width="1" /><polyline fill="none" points="85.2216,108.4278 86.825,109.6042 87.1157,111.8167 85.9898,113.3512 84.8639,114.8858 82.6562,115.2859 81.0528,114.1095 79.8365,113.217 78.6201,112.3245 77.4038,111.4321 75.8002,110.2554 75.5199,108.0298 76.6459,106.4953 77.7718,104.9608 79.969,104.5738 81.5726,105.7504" stroke="black" stroke-width="1" /><polyline fill="none" points="94.4637,100.2373 94.744,101.2895 94.9107,102.47 93.4977,104.0591 92.2328,105.4818 89.9976,105.6736 88.4725,104.3176 87.358,103.3266 86.2434,102.3356 85.1289,101.3447 83.6425,100.023 83.5722,97.7812 84.8371,96.3586 86.1248,94.9103 88.382,94.6926 89.8684,96.0143 90.4235,96.5078 90.9786,97.0014 91.5337,97.4949 89.9576,99.2674 88.3816,101.04 86.8055,102.8125" stroke="black" stroke-width="1" /><polyline fill="none" points="91.6005,81.7416 90.8736,82.419 90.6807,83.4195 91.5457,84.3476 92.3834,85.2463 93.221,86.1451 94.0587,87.0439 94.5017,86.631 94.9448,86.218 95.3878,85.8051 94.5349,86.6 93.6821,87.3949 92.8292,88.1898 93.239,87.8079 93.6489,87.4259 94.0587,87.0439 96.6342,89.8072 99.2096,92.5704 101.7851,95.3337" stroke="black" stroke-width="1" /><polyline fill="none" points="108.2102,78.9965 108.2069,78.9922 108.2035,78.9879 108.2002,78.9835 109.6231,80.8305 111.0461,82.6774 112.469,84.5243 113.1266,85.3779 113.978,85.2441 114.425,84.8997 113.8544,85.3393 113.0037,85.2183 112.5525,84.6327 112.5247,84.5966 112.4968,84.5604 112.469,84.5243 112.1957,85.9685 111.5821,87.3069 110.4009,88.2169 109.4228,88.9705 107.4567,89.7056 105.9187,87.7093 105.1128,86.6633 105.1841,85.5485 105.7547,84.5471 106.0256,84.0566 107.1179,82.8034 107.8507,81.9575 108.5872,81.0875 109.0161,80.0425 108.2102,78.9965 107.3941,77.9373 105.3379,77.4881 103.7083,78.7436 102.1731,79.9263 102.0422,81.217 102.1273,82.2551" stroke="black" stroke-width="1" /><polyline fill="none" points="110.4483,71.0659 109.497,69.5575 109.917,67.4276 111.5562,66.3938 113.1944,65.3606 115.2676,65.8177 116.3467,67.5287 116.5174,67.7993 116.688,68.0699 116.8587,68.3405 118.505,70.9508 116.5023,72.8215 116.2116,73.0048 115.9314,73.1816 115.6512,73.3583 115.3709,73.535 115.6512,73.3583 115.9314,73.1816 116.2116,73.0048 117.0678,72.4649 119.5355,72.3277 120.8156,74.3575 121.1907,74.9522 121.5658,75.5469 121.9409,76.1417 123.0015,77.8234 122.4794,80.0178 120.797,81.0788 119.1002,82.149 116.9101,81.6651 115.8494,79.9834" stroke="black" stroke-width="1" /><polyline fill="none" points="132.5533,70.3986 133.452,72.1726 132.7115,74.2777 131.0136,75.1377 129.3158,75.9978 127.1655,75.3571 126.2669,73.5831 125.5851,72.2373 124.9034,70.8915 124.2216,69.5457 123.3228,67.7714 124.0786,65.6594 125.7764,64.7993 127.4743,63.9392 129.6092,64.5868 130.5081,66.3612" stroke="black" stroke-width="1" /><polyline fill="none" points="133.082,57.7887 132.2151,55.5871 138.8369,52.9797 140.4749,70.7597" stroke="black" stroke-width="1" /><polyline fill="none" points="147.2272,53.7466 148.8435,49.7633 153.6033,66.2331" stroke="black" stroke-width="1" /><polyline fill="none" points="158.8139,50.8607 158.4462,48.9234 159.7156,47.0597 161.6529,46.692 163.6074,46.3211 165.5111,47.6175 165.8788,49.5548 166.0228,50.3138 165.9673,50.8467 165.8189,51.2598 164.3201,55.4412 162.8214,59.6226 161.3227,63.804 161.3493,63.9441 161.3759,64.0842 161.4025,64.2243 163.7272,63.7831 166.052,63.3419 168.3768,62.9007" stroke="black" stroke-width="1" /><polyline fill="none" points="144.5218,119.7536 188.2428,253.3668 108.8569,140.3048 126.744,171.7336 189.0084,152.2515 140.3048,268.1431 188.8365,96.1804 140.8637,108.5745 250.763,172.1919 156.5688,130.1462" stroke="black" stroke-width="1" /><polyline fill="none" points="149.3772,146.2576 163.7605,114.0349" stroke="black" stroke-width="1" /><polyline fill="none" points="152.6261,108.5745 152.4813,106.7344 152.0504,104.9397 151.3441,103.2345 150.3797,101.6607 149.181,100.2572 147.7775,99.0585 146.2038,98.0941 144.4985,97.3878 142.7038,96.9569 140.8637,96.8121 139.0237,96.9569 137.2289,97.3878 135.5237,98.0941 133.95,99.0585 132.5465,100.2572 131.3477,101.6607 130.3834,103.2344 129.677,104.9397 129.2462,106.7344 129.1013,108.5745 129.2462,110.4145 129.677,112.2093 130.3834,113.9145 131.3477,115.4882 132.5465,116.8917 133.95,118.0904 135.5237,119.0548 137.2289,119.7612 139.0237,120.192 140.8637,120.3369 142.7038,120.192 144.4985,119.7612 146.2038,119.0548 147.7775,118.0904 149.181,116.8917 150.3797,115.4882 151.3441,113.9145 152.0504,112.2093 152.4813,110.4145 152.6261,108.5745" stroke="black" stroke-width="1" /><polyline fill="none" points="188.5,69.0664 199.6839,69.5912 210.7696,71.161 221.6595,73.7619 232.2581,77.3712 242.4721,81.9571 252.2118,87.4792 261.3915,93.8892 269.9308,101.1306 277.7544,109.1398 284.7936,117.8464 290.9866,127.1739 296.2789,137.0404 300.6241,147.3591 303.9839,158.0393 306.3289,168.9873 307.6383,180.1067 307.9008,191.2998 307.114,202.4684 305.2847,213.5142 302.4292,224.3402 298.5725,234.8512 293.7484,244.9549 287.9994,254.5625 281.376,263.5894 273.9365,271.9565 265.7461,279.5902 256.8768,286.4234 247.4067,292.3961 237.4188,297.4556 227.0011,301.5577 216.2451,304.6663 205.2452,306.7539 194.0981,307.8023 182.9019,307.8023 171.7548,306.7539 160.7549,304.6663 149.9989,301.5577 139.5811,297.4556 129.5933,292.3961 120.1232,286.4234 111.2539,279.5902 103.0635,271.9565 95.6239,263.5894 89.0006,254.5625 83.2516,244.9549 78.4275,234.8512 74.5708,224.3402 71.7153,213.5142 69.8861,202.4684 69.0992,191.2998 69.3617,180.1067 70.6712,168.9872 73.0161,158.0393 76.3759,147.3591 80.7211,137.0404 86.0134,127.174 92.2064,117.8464 99.2457,109.1398 107.0692,101.1306 115.6085,93.8892 124.7882,87.4792 134.5279,81.957 144.7419,77.3712 155.3405,73.7619 166.2304,71.161 177.3161,69.5912 188.5,69.0664" stroke="black" stroke-width="1" />

    </g>
  </g>
  <WCB
     pausedposy="0"
     pausedposx="0"
     lastknownposy="0"
     lastknownposx="0"
     lastpathnc="0"
     lastpath="0"
     node="0"
     layer="0" />
</svg>
