<?xml version="1.0" encoding="UTF-8" standalone="no"?>
<!-- Created with Inkscape (http://www.inkscape.org/) -->

<svg
   xmlns:dc="http://purl.org/dc/elements/1.1/"
   xmlns:cc="http://creativecommons.org/ns#"
   xmlns:rdf="http://www.w3.org/1999/02/22-rdf-syntax-ns#"
   xmlns:svg="http://www.w3.org/2000/svg"
   xmlns="http://www.w3.org/2000/svg"
   xmlns:sodipodi="http://sodipodi.sourceforge.net/DTD/sodipodi-0.dtd"
   xmlns:inkscape="http://www.inkscape.org/namespaces/inkscape"
   width="100mm"
   height="100mm"
   viewBox="0 0 100 100"
   version="1.1"
   id="svg19124"
   inkscape:version="0.92.3 (2405546, 2018-03-11)"
   sodipodi:docname="inkscape_template_TMP.svg"
   shape-rendering="crispEdges">
  <sodipodi:namedview
     pagecolor="#ffffff"
     bordercolor="#666666"
     borderopacity="1"
     objecttolerance="10"
     gridtolerance="10"
     guidetolerance="10"
     inkscape:pageopacity="0"
     inkscape:pageshadow="2"
     inkscape:window-width="1568"
     inkscape:window-height="1550"
     id="namedview24021"
     showgrid="false"
     inkscape:zoom="0.62441667"
     inkscape:cx="712.66515"
     inkscape:cy="409.98265"
     inkscape:window-x="0"
     inkscape:window-y="0"
     inkscape:window-maximized="0"
     inkscape:current-layer="layer1" />
  <defs
     id="defs19118" />
  <metadata
     id="metadata19121">
    <rdf:RDF>
      <cc:Work
         rdf:about="">
        <dc:format>image/svg+xml</dc:format>
        <dc:type
           rdf:resource="http://purl.org/dc/dcmitype/StillImage" />
        <dc:title />
      </cc:Work>
    </rdf:RDF>
  </metadata>
  <g
     transform="translate(0,-197)"
     id="layer1"
     inkscape:groupmode="layer"
     inkscape:label="Layer 1">
    <g
       id="g24447"
       transform="matrix(0.26458333,0,0,0.26458333,0.10666333,197.9735)">

<polyline fill="none" points="192.1004,47.7394 189.7225,51.1455 187.3447,54.5516 184.9669,57.9577 184.9669,54.5516 184.9669,51.1455 184.9669,47.7394 184.9669,45.7676 186.5623,44.1729 188.5334,44.1729 190.5231,44.1729 192.1004,45.7676 192.1004,47.7394 192.1004,51.1455 192.1004,54.5516 192.1004,57.9577 192.1004,59.9295 190.5231,61.5235 188.5509,61.5235 186.5623,61.5235 184.9669,59.9295 184.9669,57.9577" stroke="black" stroke-width="1" /><polyline fill="none" points="197.8298,61.5877 200.7471,57.7851 198.696,53.7706 202.935,62.0679 200.7471,57.7851 203.4811,54.2207" stroke="black" stroke-width="1" /><polyline fill="none" points="209.9136,56.5856 210.2812,54.6483 212.1454,53.3786 214.082,53.7461 216.0368,54.1172 217.2889,55.9783 216.9212,57.9156 216.7316,58.9148 216.542,59.914 216.3523,60.9133 215.9846,62.8505 214.1378,64.1228 212.183,63.7518 210.2464,63.3843 208.977,61.5206 209.3447,59.5833 209.9798,56.237 210.6149,52.8906 211.2499,49.5443 211.6176,47.6073 213.4816,46.338 215.4182,46.7055 217.0867,47.0222 218.2501,48.4295 218.3269,50.0495" stroke="black" stroke-width="1" /><polyline fill="none" points="226.3459,67.0854 227.5407,62.9513 221.6759,61.2563 230.6775,50.4919" stroke="black" stroke-width="1" /><polyline fill="none" points="234.1348,62.8919 234.8572,61.0571 236.9254,60.1572 238.7595,60.8794 240.6109,61.6084 241.494,63.6704 240.7716,65.5051 240.3989,66.4515 240.0263,67.3978 239.6537,68.3442 238.9312,70.1789 236.8796,71.0845 235.0282,70.3555 233.1941,69.6334 232.2945,67.5656 233.0169,65.7309 234.2648,62.5616 235.5127,59.3924 236.7607,56.2232 237.483,54.3887 239.5511,53.4892 241.3851,54.2114 242.9653,54.8336 243.8459,56.4332 243.6193,58.039" stroke="black" stroke-width="1" /><polyline fill="none" points="248.3212,76.2715 250.2659,72.4326 244.8199,69.6738 255.6708,60.7766" stroke="black" stroke-width="1" /><polyline fill="none" points="261.1921,73.2796 262.5079,74.2293 264.796,73.9002 265.8433,72.2396 266.0871,71.8531 266.3308,71.4666 266.5746,71.0802 267.5626,69.5135 267.0901,67.4319 265.509,66.4347 263.9426,65.4469 261.8427,65.9471 260.8732,67.4844 260.6294,67.8709 260.3857,68.2574 260.1419,68.6438 259.1537,70.2108 259.6257,72.2917 261.1921,73.2796 262.918,74.368 263.3809,76.626 262.3294,78.2933 261.9697,78.8637 261.6099,79.4342 261.2501,80.0046 260.1984,81.6722 257.9792,82.1989 256.2533,81.1104 254.542,80.0311 254.062,77.8021 255.1137,76.1345 255.4794,75.5546 255.8452,74.9747 256.2109,74.3948 257.1125,72.9653 259.272,72.1885" stroke="black" stroke-width="1" /><polyline fill="none" points="271.6621,80.5928 272.8831,81.6616 275.1921,81.5482 276.3903,79.993 276.6691,79.631 276.948,79.2691 277.2269,78.9071 278.3573,77.4399 278.0818,75.3232 276.601,74.1823 275.134,73.0521 272.9965,73.3535 271.8872,74.7933 271.6084,75.1552 271.3295,75.5172 271.0506,75.8791 269.92,77.3467 270.1951,79.4626 271.6621,80.5928 273.2784,81.8381 273.528,84.1296 272.325,85.691 271.9133,86.2253 271.5017,86.7595 271.0901,87.2938 269.8869,88.8555 267.6281,89.1721 266.0117,87.9268 264.409,86.692 264.1398,84.4278 265.343,82.8661 265.7615,82.3229 266.1799,81.7798 266.5984,81.2367 267.6298,79.8979 269.8526,79.3267" stroke="black" stroke-width="1" /><polyline fill="none" points="278.1101,87.2523 279.4662,85.7973 281.709,85.779 283.1016,87.0769 284.4937,88.3744 284.6211,90.6017 283.265,92.0568 282.2364,93.1604 281.2078,94.264 280.1792,95.3676 278.8233,96.8223 276.592,96.8523 275.1999,95.5549 273.8073,94.257 273.6807,92.0293 275.0366,90.5746 275.0325,90.5707 275.0284,90.5669 275.0243,90.5631 278.157,87.2019 281.2897,83.8408 284.4224,80.4796" stroke="black" stroke-width="1" /><polyline fill="none" points="298.6561,95.0425 295.2224,98.0955 291.7888,101.1486 288.3551,104.2016 286.8687,105.5232 284.6337,105.3316 283.3688,103.909 282.1155,102.4995 282.1864,100.2571 283.6728,98.9355 284.8002,97.9331 285.9276,96.9306 287.055,95.9282 288.5414,94.6066 290.7761,94.7989 292.0294,96.2085 293.2943,97.6311 293.2238,99.8726 291.7373,101.1943" stroke="black" stroke-width="1" /><polyline fill="none" points="299.8556,110.7993 299.86,110.7961 299.8644,110.7928 299.8688,110.7896 297.989,112.1688 296.1093,113.5481 294.2294,114.9274 293.3607,115.5648 293.4745,116.4191 293.8083,116.874 293.3822,116.2932 293.5231,115.4456 294.1192,115.0083 294.1559,114.9813 294.1927,114.9543 294.2294,114.9274 292.7921,114.6202 291.4685,113.9754 290.5864,112.7732 289.856,111.7777 289.1671,109.795 291.1989,108.3042 292.2635,107.5231 293.3763,107.6204 294.3641,108.2144 294.8481,108.4967 296.0753,109.618 296.9039,110.3705 297.7563,111.1272 298.791,111.5804 299.8556,110.7993 300.9337,110.0083 301.431,107.9632 300.214,106.3045 299.0676,104.7421 297.7803,104.5809 296.7405,104.6417" stroke="black" stroke-width="1" /><polyline fill="none" points="308.2707,114.2242 312.5345,114.7711 297.8233,123.5741" stroke="black" stroke-width="1" /><polyline fill="none" points="314.9935,124.0331 317.1288,123.0136 320.1951,129.4359 302.5742,132.3193" stroke="black" stroke-width="1" /><polyline fill="none" points="317.0504,144.7708 317.0556,144.769 317.0607,144.7671 317.0659,144.7652 314.8771,145.5683 312.6882,146.3714 310.4994,147.1746 309.4878,147.5457 309.36,148.398 309.5544,148.9278 309.3062,148.2515 309.6769,147.4764 310.371,147.2217 310.4138,147.206 310.4566,147.1903 310.4994,147.1746 309.2039,146.4805 308.1113,145.4935 307.5977,144.0937 307.1723,142.9345 307.061,140.8385 309.4269,139.9704 310.6665,139.5155 311.7086,139.918 312.4926,140.7629 312.8792,141.1685 313.7468,142.5865 314.3339,143.5394 314.9427,144.503 315.8109,145.2257 317.0504,144.7708 318.3058,144.3102 319.3513,142.4836 318.6427,140.5523 317.9752,138.733 316.7832,138.2207 315.7674,137.9905" stroke="black" stroke-width="1" /><polyline fill="none" points="324.7957,148.7497 327.0836,148.1462 328.8986,155.0276 311.049,154.5748" stroke="black" stroke-width="1" /><polyline fill="none" points="324.9649,169.6639 323.0195,169.9861 321.1891,168.6898 320.867,166.7444 320.5421,164.7821 321.8542,162.9491 323.7996,162.627 324.8032,162.4608 325.8068,162.2946 326.8104,162.1284 328.7558,161.8062 330.5895,163.1182 330.9117,165.064 331.2366,167.0259 329.9211,168.8431 327.9758,169.1653 324.6155,169.7218 321.2551,170.2782 317.8948,170.8347 315.9498,171.1568 314.1191,169.8606 313.797,167.9152 313.5197,166.2408 314.4403,164.6627 315.935,164.0325" stroke="black" stroke-width="1" /><polyline fill="none" points="332.7996,181.6959 328.2163,182.0188 323.633,182.3417 319.0497,182.6646 317.0656,182.8043 315.412,181.2885 315.2783,179.3896 315.1457,177.5081 316.5704,175.7751 318.5544,175.6353 320.0593,175.5293 321.5642,175.4233 323.0691,175.3172 325.0532,175.1775 326.7061,176.6937 326.8386,178.5752 326.9724,180.4741 325.5484,182.2067 323.5643,182.3465" stroke="black" stroke-width="1" /><polyline fill="none" points="330.4735,188.1536 332.839,188.2091 332.6721,195.3238 315.65,189.9331" stroke="black" stroke-width="1" /><polyline fill="none" points="328.8932,201.6364 330.6643,201.845 332.0566,203.5107 331.83,205.4354 331.6034,207.3589 329.9445,208.6837 327.9355,208.4471 327.6178,208.4097 327.3001,208.3723 326.9824,208.3349 323.9174,207.9739 323.7218,205.2404 323.762,204.8992 323.8008,204.5701 323.8395,204.2411 323.8782,203.912 323.8395,204.2411 323.8008,204.5701 323.762,204.8992 323.6436,205.9044 322.1988,207.9096 319.8156,207.629 319.1172,207.5467 318.4189,207.4645 317.7206,207.3823 315.746,207.1497 314.3678,205.3641 314.6005,203.3887 314.8351,201.3964 316.5883,199.9975 318.5629,200.23" stroke="black" stroke-width="1" /><polyline fill="none" points="325.3846,221.5014 322.5521,218.463 319.7196,215.4245 316.8871,212.3861 320.2176,213.0994 323.5482,213.8128 326.8787,214.5262 328.8068,214.9392 330.032,216.8332 329.6191,218.7606 329.2024,220.7062 327.3127,221.9144 325.3846,221.5014 322.0541,220.7881 318.7236,220.0747 315.3931,219.3613 313.4649,218.9483 312.2366,217.0723 312.6497,215.1438 313.0662,213.1993 314.959,211.9731 316.8871,212.3861" stroke="black" stroke-width="1" /><polyline fill="none" points="318.4774,225.7417 320.3747,226.3386 321.3576,228.3547 320.7863,230.1706 320.2153,231.9858 318.2601,233.0605 316.3628,232.4636 314.9237,232.0109 313.4846,231.5582 312.0455,231.1055 310.1485,230.5087 309.1601,228.508 309.7311,226.6928 310.3023,224.8769 312.2581,223.8028 314.1551,224.3996 314.1567,224.3942 314.1584,224.3889 314.1601,224.3835 318.543,225.7623 322.926,227.1411 327.3089,228.5199" stroke="black" stroke-width="1" /><polyline fill="none" points="320.6257,246.2033 321.0113,245.2876 320.7775,244.2959 319.6083,243.8036 318.476,243.3267 317.3437,242.8499 316.2113,242.3731 315.9763,242.9313 315.7413,243.4894 315.5062,244.0476 315.9587,242.9731 316.4112,241.8986 316.8636,240.8241 316.6462,241.3404 316.4288,241.8568 316.2113,242.3731 312.73,240.9071 309.2487,239.4412 305.7674,237.9752" stroke="black" stroke-width="1" /><polyline fill="none" points="314.1829,259.7214 310.1339,257.5495 306.085,255.3777 302.036,253.2058 300.2832,252.2656 299.6932,250.1014 300.593,248.4239 301.4846,246.7618 303.6141,246.0559 305.3669,246.9961 306.6963,247.7092 308.0258,248.4223 309.3552,249.1354 311.108,250.0756 311.6972,252.2397 310.8056,253.9019 309.9058,255.5794 307.7771,256.2853 306.0243,255.3451" stroke="black" stroke-width="1" /><polyline fill="none" points="307.5492,269.8275 308.0988,268.9998 308.054,267.9818 306.9971,267.2801 305.9735,266.6005 304.95,265.921 303.9264,265.2414 303.5914,265.7459 303.2564,266.2505 302.9215,266.755 303.5663,265.7837 304.2112,264.8124 304.8561,263.8411 304.5462,264.3079 304.2363,264.7746 303.9264,265.2414 300.7795,263.152 297.6326,261.0626 294.4857,258.9732" stroke="black" stroke-width="1" /><polyline fill="none" points="294.6249,269.7247 296.1583,270.9644 296.3961,273.2073 295.1568,274.7402 293.9058,276.2875 291.6738,276.5111 290.1404,275.2714 289.3495,274.632 288.5586,273.9925 287.7677,273.3531 286.2343,272.1133 285.9861,269.8845 287.2371,268.3372 288.4764,266.8044 290.7188,266.5667 292.2522,267.8064 294.9009,269.9478 297.5496,272.0893 300.1982,274.2307 301.7314,275.4702 301.9689,277.7129 300.7296,279.2458 299.6618,280.5664 297.8717,280.9264 296.4079,280.2283" stroke="black" stroke-width="1" /><polyline fill="none" points="289.4678,291.8159 286.181,288.6053 282.8942,285.3947 279.6074,282.1841 278.1846,280.7942 278.2187,278.5513 279.5489,277.1895 280.8668,275.8403 283.1086,275.7534 284.5314,277.1432 285.6106,278.1974 286.6898,279.2516 287.769,280.3058 289.1918,281.6956 289.157,283.9383 287.839,285.2875 286.5088,286.6493 284.2678,286.7365 282.845,285.3466" stroke="black" stroke-width="1" /><polyline fill="none" points="279.6011,300.4349 281.1662,299.1076 282.7313,297.7804 284.2964,296.4532 282.548,294.3914 280.7996,292.3296 279.0511,290.2679 279.3416,291.6175 279.0769,292.7644 277.9394,293.7291 276.3701,295.0598 274.0562,294.7963 272.8257,293.3453 271.946,292.3079 271.0663,291.2705 270.1866,290.2331 268.9004,288.7164 269.1736,286.5736 270.5994,285.3646 272.0115,284.1671 274.1571,284.2586 275.4433,285.7753" stroke="black" stroke-width="1" /><polyline fill="none" points="268.4328,308.8305 265.8023,305.0633 263.1718,301.2961 260.5413,297.529 259.4026,295.8982 259.8543,293.701 261.415,292.6111 262.9615,291.5313 265.1801,291.8639 266.3188,293.4947 267.1826,294.7316 268.0463,295.9685 268.91,297.2054 270.0487,298.8362 269.5963,301.0331 268.0499,302.1129 266.4891,303.2028 264.2711,302.8705 263.1324,301.2397" stroke="black" stroke-width="1" /><polyline fill="none" points="257.4865,302.9588 258.459,304.6741 257.8585,306.8482 256.1438,307.8204 254.4129,308.8018 252.2542,308.1921 251.2816,306.4768 250.78,305.592 250.2784,304.7073 249.7767,303.8226 248.8042,302.1072 249.3898,299.9424 251.1207,298.961 252.8354,297.9888 255.009,298.5892 255.9816,300.3046 257.6615,303.2675 259.3414,306.2305 261.0214,309.1935 261.9937,310.9085 261.393,313.0822 259.6783,314.0544 258.201,314.8921 256.4034,314.5711 255.2971,313.3853" stroke="black" stroke-width="1" /><polyline fill="none" points="249.3484,315.4776 250.156,317.2765 249.3542,319.3841 247.5554,320.1918 245.7406,321.0066 243.5878,320.1879 242.7801,318.389 242.4637,317.6843 242.3939,317.153 242.4423,316.7167 242.9286,312.3016 243.415,307.8864 243.9014,303.4713 243.843,303.3412 243.7846,303.2111 243.7262,303.0809 241.5675,304.0502 239.4088,305.0193 237.2501,305.9886" stroke="black" stroke-width="1" /><polyline fill="none" points="226.9811,309.7147 228.3683,313.7884 234.1473,311.8204 232.9296,325.7996" stroke="black" stroke-width="1" /><polyline fill="none" points="223.4112,325.0398 221.61,328.943 217.6274,312.2682" stroke="black" stroke-width="1" /><polyline fill="none" points="205.8447,331.7759 207.8765,331.4882 209.9083,331.2005 211.9401,330.9128 211.5611,328.2361 211.1821,325.5596 210.8031,322.8829 210.3287,324.1794 209.4931,325.0084 208.0163,325.2175 205.9791,325.506 204.1625,324.0487 203.8957,322.1649 203.705,320.8182 203.5143,319.4715 203.3236,318.1248 203.0448,316.1558 204.4191,314.4891 206.2699,314.227 208.1031,313.9674 209.8691,315.1894 210.1479,317.1584" stroke="black" stroke-width="1" /><polyline fill="none" points="197.3397,329.1548 194.8423,332.6537 194.0388,315.5287" stroke="black" stroke-width="1" /><polyline fill="none" points="185.6397,323.6772 185.5465,325.6641 183.8477,327.1286 181.9461,327.0394 180.0453,326.9502 178.5075,325.3338 178.6008,323.347 178.6715,321.84 178.7422,320.333 178.8129,318.826 178.9061,316.8396 180.5885,315.3736 182.4894,315.4628 184.3909,315.552 185.9283,317.1691 185.8351,319.1556 185.8407,319.1558 185.8463,319.1561 185.8518,319.1563 185.6365,323.746 185.4211,328.3356 185.2057,332.9252" stroke="black" stroke-width="1" /><polyline fill="none" points="172.9941,322.8154 172.7152,324.7848 170.8867,326.0838 169.0019,325.8169 167.1178,325.5501 165.7381,323.7968 166.017,321.8275 166.2285,320.3337 166.44,318.84 166.6516,317.3463 166.9304,315.3773 168.7427,314.0753 170.6268,314.342 172.5116,314.6089 173.8908,316.3629 173.612,318.3319 173.6176,318.3327 173.6231,318.3335 173.6286,318.3342 172.9844,322.8835 172.3402,327.4329 171.696,331.9821" stroke="black" stroke-width="1" /><polyline fill="none" points="154.7853,314.7589 155.2472,312.8246 157.1735,311.698 159.0247,312.1401 160.8759,312.5823 162.1015,314.4617 161.6395,316.3959 161.2891,317.8633 160.9386,319.3306 160.5881,320.798 160.1261,322.7326 158.1837,323.8546 156.3324,323.4124 154.4812,322.9703 153.2718,321.0955 153.7339,319.1609" stroke="black" stroke-width="1" /><polyline fill="none" points="148.8029,316.1091 148.1672,317.9757 146.1435,318.9715 144.2776,318.3361 142.3941,317.6947 141.4153,315.6763 142.0509,313.8098 142.3788,312.847 142.7066,311.8842 143.0345,310.9214 143.6702,309.0549 145.6771,308.0541 147.5606,308.6955 149.4265,309.3309 150.4221,311.3542 149.7865,313.2208 148.6885,316.4451 147.5905,319.6693 146.4925,322.8935 145.8569,324.7598 143.8333,325.7553 141.9674,325.1199 140.3598,324.5724 139.4052,323.0158 139.5563,321.4011" stroke="black" stroke-width="1" /><polyline fill="none" points="133.8391,318.4808 133.1087,320.1077 131.1019,320.9359 129.334,320.1422 127.5671,319.3489 126.8012,317.3689 127.6297,315.5234 127.7608,315.2316 127.8918,314.9398 128.0228,314.6479 129.2869,311.8325 131.9531,312.4662 132.2666,312.607 132.5688,312.7427 132.8711,312.8784 133.1733,313.0141 132.8711,312.8784 132.5688,312.7427 132.2666,312.607 131.3432,312.1924 129.864,310.2124 130.8469,308.0232 131.1349,307.3818 131.4229,306.7404 131.7108,306.0989 132.5252,304.2851 134.6421,303.5063 136.4566,304.3209 138.2868,305.1426 139.0951,307.2348 138.2807,309.0486" stroke="black" stroke-width="1" /><polyline fill="none" points="114.3519,312.4788 116.618,308.4818 118.8842,304.4849 121.1504,300.4879 122.1314,298.7577 124.3088,298.2186 125.9648,299.1575 127.6056,300.0878 128.2614,302.2332 127.2803,303.9634 126.5363,305.2758 125.7922,306.5882 125.0481,307.9005 124.0671,309.6308 121.8897,310.1691 120.2489,309.2388 118.593,308.2999 117.9372,306.1552 118.9182,304.425" stroke="black" stroke-width="1" /><polyline fill="none" points="103.0681,304.9907 105.6986,301.2235 108.3291,297.4563 110.9596,293.6891 112.0984,292.0583 114.3167,291.7255 115.8775,292.8154 117.4239,293.8952 117.8759,296.0926 116.7372,297.7234 115.8735,298.9603 115.0098,300.1972 114.1461,301.4342 113.0074,303.0649 110.7891,303.397 109.2427,302.3171 107.6819,301.2273 107.2298,299.0306 108.3685,297.3999" stroke="black" stroke-width="1" /><polyline fill="none" points="96.6029,291.1274 97.8782,289.6235 100.1126,289.4283 101.6165,290.7037 103.1335,291.9901 103.3183,294.2368 102.0429,295.7407 101.385,296.5165 100.727,297.2924 100.0691,298.0683 98.7937,299.5722 96.5466,299.7575 95.0424,298.4819 93.5257,297.1957 93.3537,294.959 94.629,293.455 96.832,290.8573 99.0349,288.2595 101.2379,285.6617 102.513,284.1581 104.7476,283.9627 106.2515,285.238 107.5459,286.3357 107.8644,288.1348 107.132,289.5821" stroke="black" stroke-width="1" /><polyline fill="none" points="87.3965,282.0711 88.8071,280.6932 91.0499,280.7081 92.4278,282.1187 93.8176,283.5415 93.7912,285.7956 92.3806,287.1735 91.6529,287.8843 90.9252,288.5952 90.1975,289.306 88.7869,290.6839 86.5323,290.658 85.1542,289.2472 83.7646,287.8246 83.8028,285.5815 85.2133,284.2036 87.6499,281.8236 90.0864,279.4435 92.5229,277.0635 93.9332,275.6859 96.1763,275.7005 97.5542,277.1111 98.7401,278.3252 98.8888,280.1461 98.0241,281.5185" stroke="black" stroke-width="1" /><polyline fill="none" points="75.1958,277.6573 75.8205,278.43 76.805,278.6927 77.7915,277.8951 78.7469,277.1227 79.7023,276.3503 80.6577,275.5778 80.277,275.1069 79.8962,274.6359 79.5155,274.165 80.2485,275.0716 80.9815,275.9782 81.7145,276.8849 81.3622,276.4492 81.01,276.0135 80.6577,275.5778 83.5952,273.2029 86.5326,270.828 89.4701,268.4531" stroke="black" stroke-width="1" /><polyline fill="none" points="73.6248,260.8958 73.6203,260.8989 73.6157,260.9019 73.6111,260.9049 75.5535,259.6153 77.4959,258.3257 79.4382,257.036 80.3359,256.44 80.2623,255.5813 79.9501,255.1112 80.3486,255.7114 80.1681,256.5514 79.5522,256.9604 79.5142,256.9856 79.4762,257.0108 79.4382,257.036 80.8596,257.4102 82.1516,258.1163 82.9764,259.3586 83.6593,260.3871 84.2545,262.4 82.155,263.794 81.055,264.5243 79.9479,264.3749 78.9891,263.7353 78.5188,263.4306 77.3455,262.253 76.5532,261.4625 75.7372,260.6667 74.7249,260.1655 73.6248,260.8958 72.5108,261.6355 71.9182,263.655 73.0561,265.3689 74.1281,266.9833 75.4064,267.2047 76.4479,267.1927" stroke="black" stroke-width="1" /><polyline fill="none" points="71.7426,247.2 73.495,246.2599 75.6169,246.9509 76.5165,248.6281 77.4162,250.3053 76.8261,252.47 75.0736,253.41 73.7442,254.1231 72.4147,254.8362 71.0853,255.5493 69.3325,256.4895 67.2033,255.7835 66.3037,254.1062 65.404,252.429 66.0015,250.2794 67.7542,249.3393" stroke="black" stroke-width="1" /><polyline fill="none" points="65.2813,244.1618 63.4482,244.9337 61.3947,244.0317 60.6559,242.2772 59.9174,240.5235 60.7135,238.4393 62.5466,237.6674 63.937,237.0819 65.3274,236.4964 66.7177,235.9109 68.5505,235.1392 70.5984,236.0257 71.3369,237.7795 72.0756,239.534 71.2787,241.6181 69.446,242.3898 69.4481,242.395 69.4503,242.4001 69.4525,242.4053 65.2179,244.1885 60.9834,245.9716 56.7488,247.7548" stroke="black" stroke-width="1" /><polyline fill="none" points="62.845,224.3999 64.742,223.8031 66.6978,224.8776 67.269,226.6931 67.8401,228.5087 66.8567,230.5254 64.9597,231.1222 63.5206,231.5749 62.0815,232.0276 60.6424,232.4803 58.7451,233.0772 56.7849,231.9865 56.2138,230.1709 55.6426,228.3554 56.6304,226.3549 58.5277,225.7581" stroke="black" stroke-width="1" /><polyline fill="none" points="55.2824,217.0124 55.0424,215.4075 53.2081,214.0007 51.2883,214.4119 50.8415,214.5076 50.3947,214.6033 49.9479,214.699 48.1368,215.0869 46.9779,216.8794 47.3694,218.7073 47.7573,220.5181 49.5824,221.6707 51.3597,221.2901 51.8065,221.1944 52.2533,221.0987 52.7001,221.003 54.5115,220.615 55.6702,218.8232 55.2824,217.0124 54.855,215.0173 56.1468,213.1082 58.0742,212.6954 58.7337,212.5542 59.3931,212.4129 60.0526,212.2717 61.9804,211.8587 63.9079,213.0782 64.3352,215.0734 64.759,217.0518 63.4999,218.9527 61.5721,219.3656 60.9017,219.5092 60.2312,219.6528 59.5608,219.7964 57.9083,220.1504 55.8436,219.1484" stroke="black" stroke-width="1" /><polyline fill="none" points="56.2393,207.6588 54.281,207.8894 52.5104,206.4922 52.2799,204.5346 52.0471,202.5586 53.4468,200.8056 55.4051,200.575 56.4152,200.4561 57.4253,200.3371 58.4354,200.2182 60.3937,199.9875 62.1615,201.3674 62.3943,203.3435 62.6248,205.3011 61.2279,207.0714 59.2696,207.302 55.8869,207.7003 52.5042,208.0987 49.1215,208.497 47.1635,208.7276 45.3932,207.3304 45.1627,205.3728 44.9641,203.6861 45.9575,202.154 47.4797,201.5947" stroke="black" stroke-width="1" /><polyline fill="none" points="55.0264,195.1895 53.0551,195.2357 51.4231,193.6789 51.3769,191.7083 51.3303,189.7191 52.8879,188.1049 54.8592,188.0587 55.876,188.0349 56.8928,188.011 57.9096,187.9872 59.8809,187.941 61.5118,189.4804 61.5584,191.4695 61.6046,193.4401 60.0481,195.0718 58.0768,195.118 54.6716,195.1978 51.2665,195.2777 47.8614,195.3575 45.8904,195.4037 44.2588,193.8469 44.2126,191.8763 44.1727,190.1785 45.3052,188.7461 46.8732,188.3317" stroke="black" stroke-width="1" /><polyline fill="none" points="53.4269,182.4716 51.4429,182.3318 50.0186,180.5992 50.1523,178.7002 50.2861,176.802 51.9381,175.3026 53.9222,175.4424 55.4271,175.5484 56.932,175.6544 58.4369,175.7604 60.4206,175.9002 61.8468,177.6165 61.713,179.5147 61.5792,181.4136 59.9265,182.9127 57.9428,182.7729 57.9424,182.7785 57.942,182.7841 57.9416,182.7897 53.3583,182.4668 48.775,182.1439 44.1917,181.821" stroke="black" stroke-width="1" /><polyline fill="none" points="54.0992,166.2216 54.4639,164.6403 53.2726,162.6592 51.3357,162.3385 50.8849,162.2638 50.4341,162.1892 49.9834,162.1145 48.156,161.8119 46.421,163.0552 46.1156,164.8994 45.813,166.7264 47.0889,168.4676 48.8821,168.7646 49.3329,168.8392 49.7836,168.9139 50.2344,168.9885 52.0621,169.2912 53.7967,168.0485 54.0992,166.2216 54.4326,164.2086 56.334,162.9056 58.2786,163.2276 58.944,163.3378 59.6093,163.448 60.2747,163.5582 62.2197,163.8802 63.5664,165.7211 63.233,167.7341 62.9025,169.7303 61.0344,171.0377 59.0894,170.7156 58.413,170.6036 57.7366,170.4915 57.0602,170.3795 55.3928,170.1034 53.8389,168.4146" stroke="black" stroke-width="1" /><polyline fill="none" points="49.7103,148.4238 54.153,149.5957 58.5958,150.7675 63.0385,151.9393 64.9617,152.4466 66.0384,154.4146 65.5528,156.2552 65.0718,158.079 63.1645,159.2603 61.2413,158.753 59.7826,158.3682 58.3239,157.9835 56.8651,157.5987 54.9419,157.0914 53.8661,155.1233 54.3471,153.2996 54.8326,151.4589 56.7391,150.2778 58.6623,150.785" stroke="black" stroke-width="1" /><polyline fill="none" points="54.9991,143.1089 53.325,142.4946 52.3578,140.551 53.0253,138.7316 53.6925,136.9133 55.6137,136.0102 57.5129,136.707 57.8132,136.8172 58.1135,136.9274 58.4138,137.0376 61.3111,138.1006 60.8663,140.8048 60.748,141.1274 60.6339,141.4384 60.5197,141.7495 60.4056,142.0605 60.5197,141.7495 60.6339,141.4384 60.748,141.1274 61.0967,140.1772 62.9678,138.5624 65.2206,139.3891 65.8807,139.6313 66.5408,139.8735 67.2009,140.1157 69.0675,140.8006 69.9932,142.8575 69.308,144.7248 68.617,146.6082 66.5868,147.5615 64.7202,146.8766" stroke="black" stroke-width="1" /><polyline fill="none" points="72.1026,129.0893 73.8972,129.9462 74.5954,132.0656 73.7753,133.7832 72.9553,135.5008 70.8609,136.3055 69.0663,135.4487 67.7049,134.7987 66.3435,134.1487 64.9821,133.4987 63.1872,132.6417 62.4968,130.5073 63.3169,128.7898 64.137,127.0722 66.2235,126.2823 68.0184,127.1393" stroke="black" stroke-width="1" /><polyline fill="none" points="80.753,120.9398 77.0602,118.7301 73.9256,123.9687 65.8129,112.5193" stroke="black" stroke-width="1" /><polyline fill="none" points="71.8979,107.5029 69.9901,106.1031 74.2002,100.3653 85.0704,114.5304" stroke="black" stroke-width="1" /><polyline fill="none" points="93.1735,99.1085 94.6597,100.4299 94.742,102.6599 93.4773,104.0822 92.2126,105.5046 89.9771,105.6962 88.491,104.3748 87.3636,103.3724 86.2362,102.3699 85.1087,101.3675 83.6223,100.0459 83.5517,97.8038 84.8164,96.3814 86.0811,94.9591 88.3049,94.7795 89.7913,96.1011" stroke="black" stroke-width="1" /><polyline fill="none" points="92.2524,80.9583 90.7512,82.3574 89.25,83.7566 87.7489,85.1557 89.592,87.1332 91.4351,89.1108 93.2783,91.0884 92.9249,89.7538 93.1355,88.5957 94.2266,87.5788 95.7318,86.176 98.0555,86.3307 99.3527,87.7225 100.28,88.7175 101.2074,89.7125 102.1348,90.7075 103.4906,92.1623 103.3181,94.3156 101.9506,95.5901 100.5962,96.8525 98.4486,96.8616 97.0928,95.4068" stroke="black" stroke-width="1" /><polyline fill="none" points="100.7262,78.2382 100.7707,73.9397 111.2337,87.5203" stroke="black" stroke-width="1" /><polyline fill="none" points="122.9128,79.5407 120.6172,75.9008 115.4535,79.1574 113.3904,65.2777" stroke="black" stroke-width="1" /><polyline fill="none" points="126.2277,58.1511 128.304,62.2499 130.3804,66.3486 132.4567,70.4474 133.3555,72.2217 132.6002,74.3339 130.9021,75.1942 129.2195,76.0465 127.0694,75.4061 126.1706,73.6318 125.4888,72.286 124.8071,70.9402 124.1253,69.5944 123.2265,67.8201 123.9824,65.7084 125.665,64.856 127.3632,63.9958 129.5126,64.6357 130.4115,66.41" stroke="black" stroke-width="1" /><polyline fill="none" points="143.8583,65.6786 144.5869,67.5289 143.6525,69.5554 141.8816,70.2528 140.1107,70.9501 138.0299,70.1108 137.3013,68.2605 136.7485,66.8567 136.1958,65.453 135.6431,64.0493 134.9144,62.1986 135.8646,60.1666 137.6355,59.4693 139.4064,58.772 141.4714,59.6167 142.2001,61.4674" stroke="black" stroke-width="1" /><polyline fill="none" points="155.5556,62.0379 156.1078,63.9484 154.9878,65.8785 153.1593,66.4069 151.3309,66.9354 149.3378,65.9049 148.7857,63.9945 148.3668,62.5452 147.948,61.0959 147.5291,59.6465 146.9769,57.7357 148.1132,55.8017 149.9417,55.2732 151.7701,54.7448 153.7469,55.7792 154.2991,57.69" stroke="black" stroke-width="1" /><polyline fill="none" points="158.8139,50.8607 158.4462,48.9234 159.7156,47.0597 161.6529,46.692 163.6074,46.3211 165.5111,47.6175 165.8788,49.5548 166.0228,50.3138 165.9673,50.8467 165.8189,51.2598 164.3201,55.4412 162.8214,59.6226 161.3227,63.804 161.3493,63.9441 161.3759,64.0842 161.4025,64.2243 163.7272,63.7831 166.052,63.3419 168.3768,62.9007" stroke="black" stroke-width="1" /><polyline fill="none" points="147.7868,118.0837 156.5688,130.1462 188.2428,253.3668 158.7145,203.9175 239.8942,231.6324 239.8942,231.6324 140.3048,268.1431 96.1804,188.1635 239.8942,231.6324 156.5688,130.1462" stroke="black" stroke-width="1" /><polyline fill="none" points="142.9326,141.3423 170.205,118.9502" stroke="black" stroke-width="1" /><polyline fill="none" points="152.6261,108.5745 152.4813,106.7344 152.0504,104.9397 151.3441,103.2345 150.3797,101.6607 149.181,100.2572 147.7775,99.0585 146.2038,98.0941 144.4985,97.3878 142.7038,96.9569 140.8637,96.8121 139.0237,96.9569 137.2289,97.3878 135.5237,98.0941 133.95,99.0585 132.5465,100.2572 131.3477,101.6607 130.3834,103.2344 129.677,104.9397 129.2462,106.7344 129.1013,108.5745 129.2462,110.4145 129.677,112.2093 130.3834,113.9145 131.3477,115.4882 132.5465,116.8917 133.95,118.0904 135.5237,119.0548 137.2289,119.7612 139.0237,120.192 140.8637,120.3369 142.7038,120.192 144.4985,119.7612 146.2038,119.0548 147.7775,118.0904 149.181,116.8917 150.3797,115.4882 151.3441,113.9145 152.0504,112.2093 152.4813,110.4145 152.6261,108.5745" stroke="black" stroke-width="1" /><polyline fill="none" points="188.5,69.0664 199.6839,69.5912 210.7696,71.161 221.6595,73.7619 232.2581,77.3712 242.4721,81.9571 252.2118,87.4792 261.3915,93.8892 269.9308,101.1306 277.7544,109.1398 284.7936,117.8464 290.9866,127.1739 296.2789,137.0404 300.6241,147.3591 303.9839,158.0393 306.3289,168.9873 307.6383,180.1067 307.9008,191.2998 307.114,202.4684 305.2847,213.5142 302.4292,224.3402 298.5725,234.8512 293.7484,244.9549 287.9994,254.5625 281.376,263.5894 273.9365,271.9565 265.7461,279.5902 256.8768,286.4234 247.4067,292.3961 237.4188,297.4556 227.0011,301.5577 216.2451,304.6663 205.2452,306.7539 194.0981,307.8023 182.9019,307.8023 171.7548,306.7539 160.7549,304.6663 149.9989,301.5577 139.5811,297.4556 129.5933,292.3961 120.1232,286.4234 111.2539,279.5902 103.0635,271.9565 95.6239,263.5894 89.0006,254.5625 83.2516,244.9549 78.4275,234.8512 74.5708,224.3402 71.7153,213.5142 69.8861,202.4684 69.0992,191.2998 69.3617,180.1067 70.6712,168.9872 73.0161,158.0393 76.3759,147.3591 80.7211,137.0404 86.0134,127.174 92.2064,117.8464 99.2457,109.1398 107.0692,101.1306 115.6085,93.8892 124.7882,87.4792 134.5279,81.957 144.7419,77.3712 155.3405,73.7619 166.2304,71.161 177.3161,69.5912 188.5,69.0664" stroke="black" stroke-width="1" />

    </g>
  </g>
  <WCB
     pausedposy="0"
     pausedposx="0"
     lastknownposy="0"
     lastknownposx="0"
     lastpathnc="0"
     lastpath="0"
     node="0"
     layer="0" />
</svg>
