<?xml version="1.0" encoding="UTF-8" standalone="no"?>
<!-- Created with Inkscape (http://www.inkscape.org/) -->

<svg
   xmlns:dc="http://purl.org/dc/elements/1.1/"
   xmlns:cc="http://creativecommons.org/ns#"
   xmlns:rdf="http://www.w3.org/1999/02/22-rdf-syntax-ns#"
   xmlns:svg="http://www.w3.org/2000/svg"
   xmlns="http://www.w3.org/2000/svg"
   xmlns:sodipodi="http://sodipodi.sourceforge.net/DTD/sodipodi-0.dtd"
   xmlns:inkscape="http://www.inkscape.org/namespaces/inkscape"
   width="100mm"
   height="100mm"
   viewBox="0 0 100 100"
   version="1.1"
   id="svg19124"
   inkscape:version="0.92.3 (2405546, 2018-03-11)"
   sodipodi:docname="inkscape_template_TMP.svg"
   shape-rendering="crispEdges">
  <sodipodi:namedview
     pagecolor="#ffffff"
     bordercolor="#666666"
     borderopacity="1"
     objecttolerance="10"
     gridtolerance="10"
     guidetolerance="10"
     inkscape:pageopacity="0"
     inkscape:pageshadow="2"
     inkscape:window-width="1568"
     inkscape:window-height="1550"
     id="namedview24021"
     showgrid="false"
     inkscape:zoom="0.62441667"
     inkscape:cx="712.66515"
     inkscape:cy="409.98265"
     inkscape:window-x="0"
     inkscape:window-y="0"
     inkscape:window-maximized="0"
     inkscape:current-layer="layer1" />
  <defs
     id="defs19118" />
  <metadata
     id="metadata19121">
    <rdf:RDF>
      <cc:Work
         rdf:about="">
        <dc:format>image/svg+xml</dc:format>
        <dc:type
           rdf:resource="http://purl.org/dc/dcmitype/StillImage" />
        <dc:title />
      </cc:Work>
    </rdf:RDF>
  </metadata>
  <g
     transform="translate(0,-197)"
     id="layer1"
     inkscape:groupmode="layer"
     inkscape:label="Layer 1">
    <g
       id="g24447"
       transform="matrix(0.26458333,0,0,0.26458333,0.10666333,197.9735)">

<polyline fill="none" points="192.1004,47.7394 189.7225,51.1455 187.3447,54.5516 184.9669,57.9577 184.9669,54.5516 184.9669,51.1455 184.9669,47.7394 184.9669,45.7676 186.5623,44.1729 188.5334,44.1729 190.5231,44.1729 192.1004,45.7676 192.1004,47.7394 192.1004,51.1455 192.1004,54.5516 192.1004,57.9577 192.1004,59.9295 190.5231,61.5235 188.5509,61.5235 186.5623,61.5235 184.9669,59.9295 184.9669,57.9577" stroke="black" stroke-width="1" /><polyline fill="none" points="197.8298,61.5877 200.7471,57.7851 198.696,53.7706 202.935,62.0679 200.7471,57.7851 203.4811,54.2207" stroke="black" stroke-width="1" /><polyline fill="none" points="211.3535,48.3775 211.7947,46.0529 218.7866,47.3798 210.6873,63.2925" stroke="black" stroke-width="1" /><polyline fill="none" points="229.2902,58.987 229.2917,58.9817 229.2932,58.9765 229.2947,58.9712 228.6474,61.211 228.0001,63.4509 227.3528,65.6907 227.0536,66.7259 227.6651,67.3332 228.2073,67.4898 227.5152,67.2898 227.1095,66.5324 227.3148,65.8222 227.3275,65.7784 227.3401,65.7345 227.3528,65.6907 226.0267,66.3247 224.5847,66.6217 223.1522,66.2077 221.966,65.8649 220.2102,64.7147 220.9099,62.2937 221.2765,61.0252 222.2174,60.4231 223.3624,60.2908 223.9182,60.219 225.5747,60.3583 226.6902,60.4488 227.8273,60.5279 228.9236,60.2555 229.2902,58.987 229.6614,57.7024 228.8072,55.7788 226.8309,55.2076 224.9691,54.6696 223.851,55.3276 223.0645,56.0103" stroke="black" stroke-width="1" /><polyline fill="none" points="238.4333,61.7461 239.903,62.4338 242.0897,61.6838 242.809,59.8571 242.9764,59.4319 243.1438,59.0068 243.3112,58.5816 243.9898,56.8582 243.1375,54.9012 241.3982,54.2163 239.6751,53.5378 237.7053,54.4208 237.0393,56.112 236.8719,56.5371 236.7045,56.9623 236.5371,57.3875 235.8584,59.1112 236.7102,61.0676 238.4333,61.7461 240.3318,62.4936 241.2077,64.6257 240.4855,66.4598 240.2384,67.0873 239.9913,67.7149 239.7442,68.3424 239.0219,70.1768 236.9398,71.108 235.0412,70.3605 233.1586,69.6192 232.2715,67.5187 232.9938,65.6843 233.245,65.0464 233.4962,64.4084 233.7474,63.7705 234.3666,62.198 236.3433,61.0322" stroke="black" stroke-width="1" /><polyline fill="none" points="248.9864,61.3496 249.8775,59.5905 252.0205,58.8889 253.7796,59.78 255.5542,60.679 256.2711,62.8678 255.38,64.6268 255.0309,65.316 254.6616,65.7043 254.2919,65.941 250.5527,68.3386 246.8136,70.7362 243.0744,73.1339 243.0099,73.2611 242.9455,73.3883 242.881,73.5156 244.9919,74.5849 247.1028,75.6542 249.2137,76.7235" stroke="black" stroke-width="1" /><polyline fill="none" points="261.1921,73.2796 262.5079,74.2293 264.796,73.9002 265.8433,72.2396 266.0871,71.8531 266.3308,71.4666 266.5746,71.0802 267.5626,69.5135 267.0901,67.4319 265.509,66.4347 263.9426,65.4469 261.8427,65.9471 260.8732,67.4844 260.6294,67.8709 260.3857,68.2574 260.1419,68.6438 259.1537,70.2108 259.6257,72.2917 261.1921,73.2796 262.918,74.368 263.3809,76.626 262.3294,78.2933 261.9697,78.8637 261.6099,79.4342 261.2501,80.0046 260.1984,81.6722 257.9792,82.1989 256.2533,81.1104 254.542,80.0311 254.062,77.8021 255.1137,76.1345 255.4794,75.5546 255.8452,74.9747 256.2109,74.3948 257.1125,72.9653 259.272,72.1885" stroke="black" stroke-width="1" /><polyline fill="none" points="268.1982,89.394 270.8246,85.985 265.9885,82.2591 278.3081,75.5412" stroke="black" stroke-width="1" /><polyline fill="none" points="278.1101,87.2523 279.4662,85.7973 281.709,85.779 283.1016,87.0769 284.4937,88.3744 284.6211,90.6017 283.265,92.0568 282.2364,93.1604 281.2078,94.264 280.1792,95.3676 278.8233,96.8223 276.592,96.8523 275.1999,95.5549 273.8073,94.257 273.6807,92.0293 275.0366,90.5746 275.0325,90.5707 275.0284,90.5669 275.0243,90.5631 278.157,87.2019 281.2897,83.8408 284.4224,80.4796" stroke="black" stroke-width="1" /><polyline fill="none" points="290.324,97.9917 291.3244,99.2694 293.614,99.5885 295.0811,98.284 295.4226,97.9803 295.7641,97.6767 296.1055,97.3731 297.4897,96.1424 297.6137,94.0115 296.3716,92.6145 295.1411,91.2306 292.9849,91.1281 291.6266,92.3358 291.2851,92.6394 290.9437,92.943 290.6022,93.2466 289.2178,94.4776 289.0935,96.6077 290.324,97.9917 291.6798,99.5165 291.4977,101.8143 290.0246,103.124 289.5206,103.5722 289.0166,104.0203 288.5126,104.4684 287.0393,105.7785 284.7611,105.6683 283.4053,104.1435 282.0609,102.6314 282.2186,100.3568 283.6919,99.0468 284.2043,98.5912 284.7167,98.1356 285.2291,97.68 286.4921,96.557 288.7823,96.4104" stroke="black" stroke-width="1" /><polyline fill="none" points="295.8741,114.0099 294.2708,115.1863 292.073,114.7997 290.9471,113.2652 289.8212,111.7307 290.102,109.5046 291.7053,108.3282 292.9216,107.4358 294.138,106.5433 295.3543,105.6508 296.9579,104.4742 299.1651,104.8747 300.291,106.4093 301.4169,107.9438 301.1268,110.1559 299.5231,111.3325" stroke="black" stroke-width="1" /><polyline fill="none" points="313.8147,116.9106 312.761,115.1497 311.7073,113.3887 310.6536,111.6278 308.3339,113.0159 306.0142,114.404 303.6945,115.7921 305.0734,115.7261 306.1617,116.1745 306.9276,117.4544 307.9841,119.22 307.346,121.4598 305.7134,122.4367 304.5463,123.1351 303.3791,123.8335 302.2119,124.5319 300.5055,125.553 298.4361,124.9333 297.4762,123.3292 296.5255,121.7404 296.9664,119.6386 298.6729,118.6175" stroke="black" stroke-width="1" /><polyline fill="none" points="317.076,131.1004 312.9778,130.4222 308.8796,129.7439 304.7813,129.0657 307.855,127.5981 310.9287,126.1306 314.0024,124.663 315.7819,123.8134 317.9084,124.5661 318.7577,126.3449 319.6149,128.1404 318.8554,130.2508 317.076,131.1004 314.0023,132.5679 310.9286,134.0355 307.8549,135.5031 306.0755,136.3527 303.9575,135.6161 303.1077,133.8364 302.2509,132.0418 303.0019,129.9153 304.7813,129.0657" stroke="black" stroke-width="1" /><polyline fill="none" points="320.0197,137.8593 324.1068,139.1917 308.0122,145.0971" stroke="black" stroke-width="1" /><polyline fill="none" points="322.6014,156.9679 320.6948,157.4708 318.751,156.3516 318.2481,154.4449 317.7408,152.5217 318.8756,150.5739 320.7822,150.071 321.7659,149.8116 322.7495,149.5521 323.7332,149.2926 325.6398,148.7897 327.5883,149.9243 328.0913,151.8313 328.5985,153.7542 327.459,155.6866 325.5524,156.1895 322.2589,157.0582 318.9655,157.9269 315.6721,158.7956 313.7657,159.2984 311.8217,158.1793 311.3188,156.2727 310.886,154.6316 311.6548,152.9742 313.0839,152.2068" stroke="black" stroke-width="1" /><polyline fill="none" points="314.373,170.3397 318.6185,169.6366 317.6212,163.6138 331.2136,167.099" stroke="black" stroke-width="1" /><polyline fill="none" points="317.3481,182.9067 316.3996,182.372 315.4387,181.6663 315.2892,179.5451 315.1555,177.6461 316.5801,175.9131 318.6158,175.7697 320.1035,175.6649 321.5912,175.5601 323.0789,175.4553 325.0629,175.3155 326.7158,176.8317 326.8495,178.7306 326.9857,180.6638 325.5642,182.4306 323.5801,182.5704 322.8392,182.6226 322.0983,182.6748 321.3573,182.727 321.1906,180.361 321.024,177.995 320.8573,175.629" stroke="black" stroke-width="1" /><polyline fill="none" points="329.3041,188.2994 331.2754,188.3456 332.8319,189.9773 332.7857,191.9486 332.7391,193.9374 331.0727,195.5274 329.1014,195.4812 328.3291,195.4631 327.8196,195.2971 327.4467,195.0655 323.672,192.7242 319.8972,190.383 316.1225,188.0418 315.9799,188.0384 315.8373,188.0351 315.6947,188.0317 315.6393,190.3974 315.5838,192.763 315.5283,195.1286" stroke="black" stroke-width="1" /><polyline fill="none" points="323.142,200.853 325.1174,201.0856 326.4589,202.8831 326.2362,204.7737 326.0137,206.6635 324.2932,208.0839 322.3179,207.8513 320.8196,207.6749 319.3213,207.4984 317.8231,207.322 315.8481,207.0894 314.5039,205.3081 314.7264,203.4182 314.9491,201.5277 316.6702,200.1077 318.6452,200.3403 318.6459,200.3348 318.6465,200.3292 318.6472,200.3237 323.2103,200.861 327.7735,201.3984 332.3367,201.9358" stroke="black" stroke-width="1" /><polyline fill="none" points="322.377,220.9716 320.4489,220.5587 319.2207,218.6819 319.6337,216.7538 320.0503,214.8089 321.9428,213.5841 323.8709,213.9971 324.8656,214.2102 325.8604,214.4232 326.8551,214.6363 328.7832,215.0493 330.0087,216.9419 329.5956,218.8704 329.1791,220.8149 327.2893,222.0238 325.3612,221.6108 322.0307,220.8975 318.7001,220.1841 315.3696,219.4707 313.4419,219.0578 312.2133,217.181 312.6263,215.2529 312.9818,213.5933 314.4166,212.4622 316.0383,212.4235" stroke="black" stroke-width="1" /><polyline fill="none" points="325.4485,233.5773 325.7467,232.6295 325.4211,231.6641 324.2109,231.2834 323.0389,230.9147 321.8669,230.546 320.6949,230.1773 320.5132,230.755 320.3315,231.3327 320.1497,231.9104 320.4996,230.7983 320.8494,229.6861 321.1993,228.574 321.0312,229.1084 320.8631,229.6429 320.6949,230.1773 317.0916,229.0438 313.4883,227.9102 309.885,226.7767" stroke="black" stroke-width="1" /><polyline fill="none" points="319.7266,240.0988 321.3701,240.7908 322.2451,242.7776 321.493,244.5637 320.7413,246.3487 318.7799,247.1609 316.9155,246.3758 316.6207,246.2516 316.3259,246.1275 316.031,246.0033 313.1867,244.8056 313.7578,242.1252 313.8911,241.8086 314.0197,241.5033 314.1483,241.1979 314.2769,240.8925 314.1483,241.1979 314.0197,241.5033 313.8911,241.8086 313.4983,242.7415 311.5536,244.2667 309.3419,243.3354 308.6939,243.0625 308.0459,242.7896 307.3979,242.5167 305.5654,241.7451 304.7372,239.647 305.5091,237.8139 306.2877,235.965 308.3604,235.1079 310.1928,235.8795" stroke="black" stroke-width="1" /><polyline fill="none" points="314.2771,259.2739 315.2471,257.4655 316.2171,255.6571 317.1871,253.8488 314.8049,252.571 312.4226,251.2931 310.0404,250.0153 310.8051,251.1647 310.9791,252.3288 310.2741,253.6432 309.3015,255.4564 307.0519,256.0589 305.3753,255.1596 304.1767,254.5167 302.9781,253.8737 301.7795,253.2308 300.027,252.2908 299.4962,250.1969 300.3798,248.5495 301.255,246.9179 303.285,246.217 305.0374,247.157" stroke="black" stroke-width="1" /><polyline fill="none" points="307.1325,264.5804 308.4761,268.6638 294.1937,259.181" stroke="black" stroke-width="1" /><polyline fill="none" points="287.9117,273.3251 286.3652,272.0748 286.1785,269.8511 287.3752,268.3711 288.5718,266.891 290.7958,266.5948 292.3423,267.8451 293.5154,268.7936 294.6886,269.7421 295.8618,270.6906 297.4084,271.941 297.584,274.1774 296.3875,275.6574 295.1908,277.1375 292.9779,277.4211 291.4312,276.1706" stroke="black" stroke-width="1" /><polyline fill="none" points="290.8661,285.3664 291.4247,289.6287 279.1609,277.6491" stroke="black" stroke-width="1" /><polyline fill="none" points="277.6186,288.0883 278.8939,289.5922 278.7093,291.8401 277.2059,293.115 275.6884,294.4019 273.4539,294.2054 272.1785,292.7015 271.5208,291.9258 270.8629,291.1501 270.2051,290.3744 268.9298,288.8705 269.1015,286.6345 270.619,285.3476 272.1224,284.0727 274.3698,284.2573 275.6452,285.7612 277.8481,288.3589 280.0511,290.9567 282.254,293.5544 283.5291,295.0581 283.3443,297.3058 281.8409,298.5806 280.5457,299.679 278.7198,299.6989 277.4118,298.7401" stroke="black" stroke-width="1" /><polyline fill="none" points="268.4328,308.8305 265.8023,305.0633 263.1718,301.2961 260.5413,297.529 259.4026,295.8982 259.8543,293.701 261.415,292.6111 262.9615,291.5313 265.1801,291.8639 266.3188,293.4947 267.1826,294.7316 268.0463,295.9685 268.91,297.2054 270.0487,298.8362 269.5963,301.0331 268.0499,302.1129 266.4891,303.2028 264.2711,302.8705 263.1324,301.2397" stroke="black" stroke-width="1" /><polyline fill="none" points="256.8137,315.7868 254.5475,311.7899 252.2813,307.7929 250.0151,303.7959 249.0341,302.0657 249.6896,299.9204 251.3456,298.9815 252.9863,298.0512 255.1641,298.5901 256.1451,300.3204 256.8892,301.6328 257.6332,302.9451 258.3773,304.2575 259.3583,305.9877 258.7022,308.1326 257.0614,309.0628 255.4055,310.0017 253.2284,309.4633 252.2474,307.733" stroke="black" stroke-width="1" /><polyline fill="none" points="247.035,310.3799 247.8497,312.1944 246.9961,314.2686 245.2595,315.0483 243.5235,315.8277 241.4212,315.0807 240.6066,313.2662 239.9886,311.8899 239.3707,310.5136 238.7528,309.1374 237.9383,307.3232 238.7766,305.2551 240.5126,304.4757 242.2492,303.696 244.3514,304.4438 245.166,306.258 245.1711,306.2557 245.1762,306.2534 245.1813,306.2511 247.0632,310.4427 248.9452,314.6343 250.8271,318.8259" stroke="black" stroke-width="1" /><polyline fill="none" points="237.1906,320.6176 237.8263,322.4842 236.8307,324.5075 234.9641,325.1431 233.0809,325.7844 231.0143,324.7678 230.3786,322.9012 230.1295,322.1699 230.1098,321.6344 230.1989,321.2045 231.0965,316.8543 231.9942,312.5042 232.8919,308.154 232.8459,308.019 232.7999,307.8839 232.754,307.7489 230.514,308.5117 228.274,309.2745 226.0341,310.0373" stroke="black" stroke-width="1" /><polyline fill="none" points="223.4112,325.0398 221.61,328.943 217.6274,312.2682" stroke="black" stroke-width="1" /><polyline fill="none" points="205.4281,331.9647 204.7839,327.4154 204.1397,322.8661 203.4955,318.3168 203.2167,316.3474 204.6125,314.5915 206.4974,314.3246 208.3649,314.0601 210.1938,315.3594 210.4726,317.3288 210.6841,318.8225 210.8956,320.3162 211.1072,321.81 211.386,323.7793 209.9897,325.5346 208.1222,325.7991 206.2374,326.066 204.409,324.7673 204.1301,322.7979" stroke="black" stroke-width="1" /><polyline fill="none" points="191.2466,326.2313 191.1541,324.2616 192.6556,322.5955 194.6253,322.503 196.6121,322.4098 198.279,323.9273 198.3715,325.897 198.4191,326.9132 198.4668,327.9294 198.5145,328.9456 198.6069,330.9152 197.0895,332.5829 195.1194,332.6754 193.1329,332.7686 191.482,331.2496 191.3896,329.2798 191.2299,325.8776 191.0703,322.4752 190.9107,319.0729 190.8183,317.1035 192.3197,315.437 194.2894,315.3446 195.9847,315.265 197.4443,316.3639 197.8954,317.9221" stroke="black" stroke-width="1" /><polyline fill="none" points="178.3058,328.9371 180.8407,325.6462 183.3756,322.3553 185.9104,319.0645 185.7508,322.4668 185.5911,325.8691 185.4315,329.2715 185.3391,331.2411 183.6706,332.7593 181.7017,332.6669 179.7141,332.5737 178.2134,330.9068 178.3058,328.9371 178.4655,325.5348 178.6252,322.1324 178.7848,318.7301 178.8772,316.7604 180.5274,315.2421 182.4975,315.3346 184.4839,315.4278 186.0029,317.0948 185.9104,319.0645" stroke="black" stroke-width="1" /><polyline fill="none" points="172.2314,328.3613 171.955,330.3136 170.1525,331.6686 168.2001,331.3922 166.2304,331.1133 164.8462,329.2724 165.1227,327.32 165.231,326.5551 165.4553,326.0685 165.729,325.7253 168.4957,322.2502 171.2623,318.7752 174.029,315.3002 174.049,315.159 174.069,315.0178 174.089,314.8766 171.746,314.5448 169.4032,314.2131 167.0603,313.8813" stroke="black" stroke-width="1" /><polyline fill="none" points="159.2061,326.2233 158.748,328.1412 156.8265,329.3215 154.9086,328.8634 152.9737,328.4012 151.768,326.4388 152.226,324.5209 152.4055,323.7695 152.6744,323.3061 152.9791,322.99 156.059,319.7893 159.1389,316.5887 162.2188,313.388 162.2519,313.2493 162.285,313.1105 162.3182,312.9718 160.0166,312.4221 157.7151,311.8724 155.4135,311.3227" stroke="black" stroke-width="1" /><polyline fill="none" points="146.2509,323.0283 145.6761,324.7163 143.7556,325.7289 141.9212,325.1042 140.0877,324.4798 139.1398,322.5802 139.7919,320.6653 139.895,320.3625 139.9981,320.0597 140.1012,319.7568 141.0961,316.8354 143.81,317.2167 144.1352,317.3275 144.4489,317.4343 144.7625,317.541 145.0761,317.6479 144.7625,317.541 144.4489,317.4343 144.1352,317.3275 143.1771,317.0012 141.5189,315.1684 142.2925,312.8968 142.5192,312.2312 142.7458,311.5656 142.9725,310.9 143.6135,309.0179 145.6481,308.0443 147.5309,308.6854 149.43,309.3322 150.4307,311.3394 149.7897,313.2216" stroke="black" stroke-width="1" /><polyline fill="none" points="131.8343,306.2581 132.6488,304.444 134.7514,303.6963 136.4877,304.4758 138.224,305.2554 139.0776,307.3304 138.2631,309.1445 137.6452,310.5208 137.0273,311.8971 136.4094,313.2733 135.5947,315.0879 133.4771,315.828 131.7408,315.0484 130.0045,314.2689 129.1659,312.2014 129.9806,310.387" stroke="black" stroke-width="1" /><polyline fill="none" points="123.4842,297.8012 121.3617,301.5447 126.6723,304.5557 115.4163,312.9345" stroke="black" stroke-width="1" /><polyline fill="none" points="110.4872,300.1866 109.2174,299.1762 106.9163,299.3977 105.7923,301.0074 105.5307,301.382 105.2691,301.7566 105.0075,302.1313 103.9471,303.6499 104.3215,305.7513 105.8542,306.8215 107.3725,307.8817 109.4935,307.4805 110.5341,305.9903 110.7957,305.6157 111.0573,305.2411 111.3189,304.8664 112.3795,303.3475 112.0055,301.2468 110.4872,300.1866 108.8142,299.0184 108.4576,296.7412 109.5861,295.1251 109.9722,294.5721 110.3583,294.0191 110.7444,293.4662 111.8731,291.8497 114.1146,291.4276 115.7876,292.5958 117.4464,293.7542 117.8214,296.0032 116.6927,297.6197 116.3002,298.1818 115.9077,298.7439 115.5152,299.3061 114.5476,300.6917 112.3541,301.3665" stroke="black" stroke-width="1" /><polyline fill="none" points="104.8098,292.6916 103.5345,294.1955 101.2866,294.3807 99.7832,293.1058 98.2657,291.8189 98.0944,289.5823 99.3698,288.0784 100.0276,287.3027 100.6854,286.527 101.3432,285.7513 102.6185,284.2474 104.8526,284.0515 106.3701,285.3384 107.8735,286.6133 108.0585,288.8607 106.7832,290.3646 104.5803,292.9623 102.3773,295.5601 100.1744,298.1578 98.8993,299.6614 96.6516,299.8463 95.1483,298.5714 93.853,297.473 93.5351,295.675 94.2673,294.2279" stroke="black" stroke-width="1" /><polyline fill="none" points="85.2915,284.2837 89.3896,283.6046 93.4877,282.9255 97.5857,282.2464 95.1492,284.6265 92.7127,287.0065 90.2762,289.3866 88.8656,290.7645 86.61,290.7375 85.2327,289.3275 83.8423,287.9041 83.881,285.6616 85.2915,284.2837 87.7281,281.9036 90.1646,279.5236 92.6011,277.1435 94.0117,275.7656 96.254,275.7801 97.6321,277.1909 99.0217,278.6134 98.9963,280.8685 97.5857,282.2464" stroke="black" stroke-width="1" /><polyline fill="none" points="85.5796,276.1839 84.0329,277.4344 81.8096,277.138 80.6128,275.6577 79.4164,274.1779 79.6026,271.9546 81.1493,270.7041 82.3224,269.7556 83.4956,268.8071 84.6688,267.8586 86.2152,266.6083 88.4287,266.8915 89.6251,268.3713 90.8219,269.8516 90.635,272.075 89.0885,273.3253 89.0921,273.3297 89.0956,273.334 89.0991,273.3384 85.5261,276.2271 81.9531,279.1158 78.3801,282.0046" stroke="black" stroke-width="1" /><polyline fill="none" points="73.1698,269.2761 71.527,270.3668 69.3167,269.9201 68.226,268.2774 67.1256,266.6201 67.5816,264.3624 69.2243,263.2717 69.8679,262.8444 70.3806,262.6888 70.819,262.6652 75.2543,262.4237 79.6896,262.1823 84.1249,261.9407 84.2437,261.8619 84.3625,261.783 84.4813,261.7041 83.1725,259.7328 81.8636,257.7614 80.5547,255.7901" stroke="black" stroke-width="1" /><polyline fill="none" points="73.2468,246.3776 74.3311,246.4768 75.4967,246.727 76.5019,248.601 77.4017,250.2785 76.8119,252.443 75.0135,253.4077 73.6993,254.1126 72.3851,254.8176 71.0708,255.5225 69.3181,256.4627 67.1892,255.7565 66.2894,254.0789 65.3733,252.3712 65.9465,250.1771 67.6992,249.2369 68.3538,248.8858 69.0083,248.5347 69.6629,248.1836 70.784,250.2738 71.9052,252.364 73.0264,254.4541" stroke="black" stroke-width="1" /><polyline fill="none" points="54.0971,241.4579 58.3317,239.6748 62.5662,237.8916 66.8008,236.1084 68.6339,235.3365 70.6878,236.2384 71.4266,237.9928 72.1586,239.7311 71.3686,241.8309 69.5355,242.6028 68.1452,243.1883 66.7548,243.7738 65.3644,244.3593 63.5313,245.1312 61.4779,244.2287 60.7459,242.4904 60.0071,240.736 60.7965,238.6368 62.6296,237.8649" stroke="black" stroke-width="1" /><polyline fill="none" points="50.4089,229.9455 50.7071,230.8933 51.5268,231.4984 52.737,231.1177 53.909,230.749 55.081,230.3803 56.253,230.0117 56.0712,229.4339 55.8895,228.8562 55.7077,228.2785 56.0576,229.3907 56.4075,230.5028 56.7573,231.615 56.5892,231.0805 56.4211,230.5461 56.253,230.0117 59.8563,228.8781 63.4596,227.7446 67.0629,226.611" stroke="black" stroke-width="1" /><polyline fill="none" points="58.6145,219.9597 56.6864,220.3727 54.7928,219.1474 54.3799,217.22 53.9632,215.2744 55.1925,213.3981 57.1207,212.9851 58.1152,212.7721 59.1097,212.5591 60.1042,212.3461 62.0323,211.9331 63.9216,213.1414 64.3383,215.087 64.7512,217.0144 63.5262,218.9077 61.598,219.3206 58.2675,220.034 54.937,220.7474 51.6065,221.4608 49.6787,221.8737 47.7854,220.6483 47.3725,218.7209 47.0168,217.0603 47.8624,215.4419 49.3255,214.7424" stroke="black" stroke-width="1" /><polyline fill="none" points="45.1028,203.4701 45.219,204.4569 45.9115,205.2043 47.1714,205.0559 48.3916,204.9122 49.6118,204.7686 50.832,204.6249 50.7611,204.0234 50.6903,203.4219 50.6195,202.8205 50.7558,203.9783 50.8922,205.1362 51.0285,206.2941 50.963,205.7377 50.8975,205.1813 50.832,204.6249 54.5834,204.1831 58.3349,203.7413 62.0864,203.2995" stroke="black" stroke-width="1" /><polyline fill="none" points="47.6766,194.04 44.2373,191.4612 61.3764,191.0594" stroke="black" stroke-width="1" /><polyline fill="none" points="53.4269,182.4716 51.4429,182.3318 50.0186,180.5992 50.1523,178.7002 50.2861,176.802 51.9381,175.3026 53.9222,175.4424 55.4271,175.5484 56.932,175.6544 58.4369,175.7604 60.4206,175.9002 61.8468,177.6165 61.713,179.5147 61.5792,181.4136 59.9265,182.9127 57.9428,182.7729 57.9424,182.7785 57.942,182.7841 57.9416,182.7897 53.3583,182.4668 48.775,182.1439 44.1917,181.821" stroke="black" stroke-width="1" /><polyline fill="none" points="49.0586,168.9572 47.1132,168.635 45.8008,166.8013 46.123,164.8559 46.448,162.8933 48.3208,161.5526 50.2662,161.8748 51.0283,162.001 51.5095,162.2367 51.8463,162.5184 55.2555,165.3657 58.6647,168.2131 62.0739,171.0604 62.2146,171.0837 62.3553,171.107 62.496,171.1303 62.8826,168.7958 63.2692,166.4613 63.6558,164.1269" stroke="black" stroke-width="1" /><polyline fill="none" points="58.0663,150.7571 58.0611,150.7557 58.0558,150.7543 58.0505,150.7529 60.3049,151.3476 62.5593,151.9422 64.8137,152.5368 65.8556,152.8117 66.4483,152.1861 66.5923,151.6404 66.4085,152.337 65.6608,152.7603 64.946,152.5717 64.9019,152.5601 64.8578,152.5485 64.8137,152.5368 65.4785,153.8477 65.8093,155.2824 65.429,156.7242 65.1141,157.918 64.0053,159.7003 61.5686,159.0576 60.2919,158.7209 59.6679,157.7943 59.5088,156.6527 59.424,156.0988 59.5244,154.4395 59.5887,153.3221 59.6412,152.1835 59.3431,151.0939 58.0663,150.7571 56.7734,150.4161 54.8704,151.3152 54.3457,153.3044 53.8514,155.1782 54.5354,156.2805 55.2365,157.0509" stroke="black" stroke-width="1" /><polyline fill="none" points="53.8148,137.0531 53.4726,137.9859 53.7526,138.9656 54.9436,139.4026 56.097,139.8258 57.2504,140.249 58.4039,140.6722 58.6125,140.1037 58.8211,139.5351 59.0297,138.9666 58.6281,140.0611 58.2265,141.1556 57.8249,142.2502 58.0179,141.7242 58.2109,141.1982 58.4039,140.6722 61.9501,141.9734 65.4963,143.2746 69.0425,144.5758" stroke="black" stroke-width="1" /><polyline fill="none" points="65.0279,133.4027 63.233,132.5457 62.5426,130.4117 63.3628,128.6938 64.1827,126.9766 66.2692,126.1867 68.0641,127.0436 69.4255,127.6936 70.7869,128.3437 72.1483,128.9937 73.9429,129.8505 74.6411,131.97 73.8212,133.6872 73.001,135.4051 70.914,136.1944 69.1194,135.3376 69.117,135.3426 69.1146,135.3477 69.1122,135.3527 64.9658,133.373 60.8195,131.3933 56.6732,129.4137" stroke="black" stroke-width="1" /><polyline fill="none" points="65.804,119.0123 64.2738,118.0967 63.6859,116.0068 64.681,114.3438 65.6755,112.6818 67.7315,112.1527 69.4674,113.1915 69.7419,113.3557 70.0164,113.52 70.2909,113.6842 72.9391,115.2689 71.9979,117.8427 71.8215,118.1375 71.6514,118.4218 71.4813,118.7062 71.3111,118.9905 71.4813,118.7062 71.6514,118.4218 71.8215,118.1375 72.3413,117.269 74.4806,116.0315 76.5399,117.2637 77.1432,117.6247 77.7466,117.9857 78.3499,118.3468 80.0561,119.3677 80.582,121.5612 79.5607,123.268 78.5306,124.9894 76.3582,125.5475 74.652,124.5266" stroke="black" stroke-width="1" /><polyline fill="none" points="72.9401,108.0528 71.3503,106.8863 71.0082,104.6574 72.1747,103.0676 73.3516,101.4637 75.6281,101.1141 77.2179,102.2806 77.8408,102.7376 78.1635,103.1653 78.3366,103.5687 80.0911,107.6494 81.8457,111.73 83.6002,115.8107 83.7152,115.895 83.8302,115.9794 83.9452,116.0638 85.345,114.156 86.7448,112.2482 88.1446,110.3403" stroke="black" stroke-width="1" /><polyline fill="none" points="86.2989,102.3903 84.8254,101.08 84.693,98.8284 86.0027,97.3553 87.3249,95.8684 89.5649,95.7496 91.0385,97.0598 91.7985,97.7357 92.5586,98.4115 93.3186,99.0873 94.7922,100.3975 94.9357,102.6356 93.6136,104.1225 92.3038,105.5956 90.0527,105.7279 88.5791,104.4177 86.0337,102.1544 83.4883,99.8912 80.9429,97.628 79.4696,96.318 79.3375,94.0666 80.6473,92.5935 81.7757,91.3244 83.5807,91.0487 85.0103,91.8146" stroke="black" stroke-width="1" /><polyline fill="none" points="98.3089,86.9962 98.3052,86.9922 98.3015,86.9882 98.2977,86.9842 99.8874,88.6897 101.477,90.3953 103.0666,92.1009 103.8013,92.8891 104.6364,92.6762 105.0492,92.2914 104.5222,92.7826 103.664,92.7418 103.1599,92.2009 103.1288,92.1676 103.0977,92.1342 103.0666,92.1009 102.9297,93.5643 102.4442,94.9542 101.3534,95.9709 100.4502,96.8127 98.5616,97.7288 96.8434,95.8853 95.9431,94.9193 95.9096,93.8027 96.384,92.7523 96.6078,92.2385 97.5779,90.8886 98.2283,89.9778 98.8801,89.0427 99.2092,87.9621 98.3089,86.9962 97.3972,86.018 95.308,85.7633 93.8031,87.1659 92.3854,88.4872 92.3759,89.7845 92.5579,90.8101" stroke="black" stroke-width="1" /><polyline fill="none" points="103.253,83.5524 102.039,81.9767 102.3875,79.761 103.8955,78.5992 105.4029,77.4379 107.6212,77.6761 108.8351,79.2517 109.7558,80.4468 110.6765,81.6418 111.5973,82.8369 112.8109,84.4123 112.476,86.6185 110.9686,87.7799 109.4606,88.9417 107.2421,88.7027 106.0284,87.1273 106.024,87.1308 106.0196,87.1342 106.0151,87.1376 103.211,83.4978 100.4068,79.8581 97.6026,76.2184" stroke="black" stroke-width="1" /><polyline fill="none" points="115.8435,73.2571 117.2675,72.479 117.9564,70.2723 116.9091,68.6117 116.6653,68.2252 116.4216,67.8387 116.1778,67.4522 115.1898,65.8856 113.1077,65.4151 111.5266,66.4123 109.9602,67.4001 109.5068,69.5106 110.4764,71.048 110.7202,71.4345 110.9639,71.8209 111.2076,72.2074 112.1959,73.7744 114.2771,74.245 115.8435,73.2571 117.5693,72.1686 119.8065,72.7237 120.858,74.391 121.2178,74.9614 121.5775,75.5319 121.9373,76.1024 122.989,77.7699 122.5081,79.9995 120.7823,81.088 119.0709,82.1673 116.8526,81.64 115.8009,79.9725 115.4351,79.3926 115.0694,78.8126 114.7037,78.2327 113.8021,76.8032 114.0316,74.5198" stroke="black" stroke-width="1" /><polyline fill="none" points="124.3165,69.4977 123.4177,67.7234 124.1731,65.6115 125.8713,64.7512 127.5688,63.8913 129.7038,64.539 130.6026,66.3133 131.2844,67.6591 131.9661,69.0049 132.6479,70.3507 133.5465,72.1247 132.8061,74.2298 131.1085,75.0897 129.4104,75.95 127.2754,75.3015 126.3767,73.5275 126.3717,73.53 126.3667,73.5326 126.3618,73.5351 124.2854,69.4363 122.2091,65.3375 120.1327,61.2388" stroke="black" stroke-width="1" /><polyline fill="none" points="144.3796,69.2222 142.8029,65.2181 137.1225,67.4548 137.6837,53.4338" stroke="black" stroke-width="1" /><polyline fill="none" points="153.913,57.1943 153.9115,57.189 153.91,57.1837 153.9084,57.1785 154.5558,59.4183 155.2031,61.6582 155.8504,63.898 156.1496,64.9332 156.9908,65.1206 157.5329,64.9639 156.8408,65.1639 156.0937,64.7397 155.8884,64.0294 155.8757,63.9856 155.8631,63.9418 155.8504,63.898 155.067,65.1416 154.0057,66.1621 152.5732,66.5761 151.3871,66.9189 149.2883,66.8827 148.5887,64.4616 148.222,63.1931 148.6968,62.1819 149.5947,61.4592 150.0264,61.1021 151.5019,60.3362 152.4937,59.8176 153.4977,59.278 154.2796,58.4628 153.913,57.1943 153.5417,55.9096 151.7931,54.7383 149.8168,55.3095 147.955,55.8475 147.3603,57.0005 147.0592,57.9976" stroke="black" stroke-width="1" /><polyline fill="none" points="167.3939,63.0873 166.5915,58.8594 160.5937,59.9977 163.7594,46.3273" stroke="black" stroke-width="1" /><polyline fill="none" points="256.6287,239.0977 188.2428,253.3668 189.0084,152.2515 140.3048,268.1431 239.8942,231.6324 280.8196,188.8365 96.1804,188.1635 188.2428,253.3668 268.4255,140.8637 96.1804,188.1635" stroke="black" stroke-width="1" /><polyline fill="none" points="100.8525,205.1773 91.5083,171.1497" stroke="black" stroke-width="1" /><polyline fill="none" points="279.9055,236.6952 279.7607,234.8551 279.3298,233.0604 278.6234,231.3551 277.6591,229.7814 276.4604,228.3779 275.0569,227.1792 273.4831,226.2148 271.7779,225.5085 269.9831,225.0776 268.1431,224.9328 266.303,225.0776 264.5083,225.5085 262.803,226.2148 261.2293,227.1792 259.8258,228.3779 258.6271,229.7814 257.6627,231.3551 256.9564,233.0604 256.5255,234.8551 256.3807,236.6952 256.5255,238.5352 256.9564,240.3299 257.6627,242.0352 258.6271,243.6089 259.8258,245.0124 261.2293,246.2111 262.803,247.1755 264.5083,247.8819 266.303,248.3127 268.1431,248.4576 269.9831,248.3127 271.7779,247.8819 273.4831,247.1755 275.0568,246.2111 276.4604,245.0124 277.6591,243.6089 278.6234,242.0352 279.3298,240.3299 279.7607,238.5352 279.9055,236.6952" stroke="black" stroke-width="1" /><polyline fill="none" points="188.5,69.0664 199.6839,69.5912 210.7696,71.161 221.6595,73.7619 232.2581,77.3712 242.4721,81.9571 252.2118,87.4792 261.3915,93.8892 269.9308,101.1306 277.7544,109.1398 284.7936,117.8464 290.9866,127.1739 296.2789,137.0404 300.6241,147.3591 303.9839,158.0393 306.3289,168.9873 307.6383,180.1067 307.9008,191.2998 307.114,202.4684 305.2847,213.5142 302.4292,224.3402 298.5725,234.8512 293.7484,244.9549 287.9994,254.5625 281.376,263.5894 273.9365,271.9565 265.7461,279.5902 256.8768,286.4234 247.4067,292.3961 237.4188,297.4556 227.0011,301.5577 216.2451,304.6663 205.2452,306.7539 194.0981,307.8023 182.9019,307.8023 171.7548,306.7539 160.7549,304.6663 149.9989,301.5577 139.5811,297.4556 129.5933,292.3961 120.1232,286.4234 111.2539,279.5902 103.0635,271.9565 95.6239,263.5894 89.0006,254.5625 83.2516,244.9549 78.4275,234.8512 74.5708,224.3402 71.7153,213.5142 69.8861,202.4684 69.0992,191.2998 69.3617,180.1067 70.6712,168.9872 73.0161,158.0393 76.3759,147.3591 80.7211,137.0404 86.0134,127.174 92.2064,117.8464 99.2457,109.1398 107.0692,101.1306 115.6085,93.8892 124.7882,87.4792 134.5279,81.957 144.7419,77.3712 155.3405,73.7619 166.2304,71.161 177.3161,69.5912 188.5,69.0664" stroke="black" stroke-width="1" />

    </g>
  </g>
  <WCB
     pausedposy="0"
     pausedposx="0"
     lastknownposy="0"
     lastknownposx="0"
     lastpathnc="0"
     lastpath="0"
     node="0"
     layer="0" />
</svg>
