<?xml version="1.0" encoding="UTF-8" standalone="no"?>
<!-- Created with Inkscape (http://www.inkscape.org/) -->

<svg
   xmlns:dc="http://purl.org/dc/elements/1.1/"
   xmlns:cc="http://creativecommons.org/ns#"
   xmlns:rdf="http://www.w3.org/1999/02/22-rdf-syntax-ns#"
   xmlns:svg="http://www.w3.org/2000/svg"
   xmlns="http://www.w3.org/2000/svg"
   xmlns:sodipodi="http://sodipodi.sourceforge.net/DTD/sodipodi-0.dtd"
   xmlns:inkscape="http://www.inkscape.org/namespaces/inkscape"
   width="100mm"
   height="100mm"
   viewBox="0 0 100 100"
   version="1.1"
   id="svg19124"
   inkscape:version="0.92.3 (2405546, 2018-03-11)"
   sodipodi:docname="inkscape_template_TMP.svg"
   shape-rendering="crispEdges">
  <sodipodi:namedview
     pagecolor="#ffffff"
     bordercolor="#666666"
     borderopacity="1"
     objecttolerance="10"
     gridtolerance="10"
     guidetolerance="10"
     inkscape:pageopacity="0"
     inkscape:pageshadow="2"
     inkscape:window-width="1568"
     inkscape:window-height="1550"
     id="namedview24021"
     showgrid="false"
     inkscape:zoom="0.62441667"
     inkscape:cx="712.66515"
     inkscape:cy="409.98265"
     inkscape:window-x="0"
     inkscape:window-y="0"
     inkscape:window-maximized="0"
     inkscape:current-layer="layer1" />
  <defs
     id="defs19118" />
  <metadata
     id="metadata19121">
    <rdf:RDF>
      <cc:Work
         rdf:about="">
        <dc:format>image/svg+xml</dc:format>
        <dc:type
           rdf:resource="http://purl.org/dc/dcmitype/StillImage" />
        <dc:title />
      </cc:Work>
    </rdf:RDF>
  </metadata>
  <g
     transform="translate(0,-197)"
     id="layer1"
     inkscape:groupmode="layer"
     inkscape:label="Layer 1">
    <g
       id="g24447"
       transform="matrix(0.26458333,0,0,0.26458333,0.10666333,197.9735)">

<polyline fill="none" points="192.1004,47.7394 189.7225,51.1455 187.3447,54.5516 184.9669,57.9577 184.9669,54.5516 184.9669,51.1455 184.9669,47.7394 184.9669,45.7676 186.5623,44.1729 188.5334,44.1729 190.5231,44.1729 192.1004,45.7676 192.1004,47.7394 192.1004,51.1455 192.1004,54.5516 192.1004,57.9577 192.1004,59.9295 190.5231,61.5235 188.5509,61.5235 186.5623,61.5235 184.9669,59.9295 184.9669,57.9577" stroke="black" stroke-width="1" /><polyline fill="none" points="197.8298,61.5877 200.7471,57.7851 198.696,53.7706 202.935,62.0679 200.7471,57.7851 203.4811,54.2207" stroke="black" stroke-width="1" /><polyline fill="none" points="217.8243,53.8986 217.4566,55.8358 215.6092,57.1077 213.6719,56.74 211.7178,56.3691 210.449,54.5059 210.8167,52.5686 211.0063,51.5691 211.196,50.5697 211.3857,49.5702 211.7534,47.6329 213.6168,46.3634 215.5544,46.7312 217.5081,47.102 218.761,48.9629 218.3934,50.9002 217.7583,54.2465 217.1232,57.5929 216.4881,60.9392 216.1205,62.8761 214.2729,64.1483 212.3357,63.7806 210.6682,63.4642 209.5039,62.0563 209.4271,60.436" stroke="black" stroke-width="1" /><polyline fill="none" points="224.2171,52.3012 224.7646,50.4068 226.7393,49.3179 228.6336,49.8654 230.5447,50.4177 231.6572,52.4345 231.1097,54.3288 230.8952,55.071 230.6048,55.5213 230.2857,55.8228 227.0592,58.8756 223.8327,61.9283 220.6061,64.9811 220.5665,65.1182 220.5269,65.2552 220.4873,65.3922 222.7606,66.0492 225.0338,66.7061 227.3071,67.3631" stroke="black" stroke-width="1" /><polyline fill="none" points="234.1348,62.8919 234.8572,61.0571 236.9254,60.1572 238.7595,60.8794 240.6109,61.6084 241.494,63.6704 240.7716,65.5051 240.3989,66.4515 240.0263,67.3978 239.6537,68.3442 238.9312,70.1789 236.8796,71.0845 235.0282,70.3555 233.1941,69.6334 232.2945,67.5656 233.0169,65.7309 234.2648,62.5616 235.5127,59.3924 236.7607,56.2232 237.483,54.3887 239.5511,53.4892 241.3851,54.2114 242.9653,54.8336 243.8459,56.4332 243.6193,58.039" stroke="black" stroke-width="1" /><polyline fill="none" points="250.0833,66.9788 251.4822,67.8012 253.7295,67.2593 254.6167,65.5079 254.8232,65.1003 255.0297,64.6927 255.2361,64.2851 256.0732,62.6328 255.4078,60.6046 253.7402,59.7598 252.0883,58.923 250.0444,59.6176 249.2231,61.239 249.0166,61.6466 248.8101,62.0542 248.6036,62.4618 247.7664,64.1144 248.4313,66.142 250.0833,66.9788 251.9035,67.9009 252.5759,70.1056 251.6851,71.864 251.3803,72.4657 251.0755,73.0673 250.7708,73.6689 249.8799,75.4277 247.7197,76.1598 245.8995,75.2378 244.0946,74.3234 243.408,72.1492 244.2989,70.3904 244.6087,69.7788 244.9186,69.1672 245.2284,68.5556 245.9921,67.048 248.0694,66.0724" stroke="black" stroke-width="1" /><polyline fill="none" points="266.6339,71.3608 262.8057,72.9733 258.9775,74.5858 255.1493,76.1984 256.9662,73.3174 258.7832,70.4364 260.6002,67.5555 261.6521,65.8876 263.8522,65.3898 265.5195,66.4413 267.2025,67.5027 267.6858,69.6929 266.6339,71.3608 264.817,74.2418 263.0,77.1227 261.183,80.0037 260.1311,81.6716 257.9468,82.1785 256.2786,81.1264 254.5966,80.0655 254.0974,77.8662 255.1493,76.1984" stroke="black" stroke-width="1" /><polyline fill="none" points="272.2083,73.8287 273.6524,71.9543 279.2899,76.2977 264.8739,86.8328" stroke="black" stroke-width="1" /><polyline fill="none" points="282.94,83.8913 287.188,83.2328 275.4993,95.7741" stroke="black" stroke-width="1" /><polyline fill="none" points="298.6561,95.0425 295.2224,98.0955 291.7888,101.1486 288.3551,104.2016 286.8687,105.5232 284.6337,105.3316 283.3688,103.909 282.1155,102.4995 282.1864,100.2571 283.6728,98.9355 284.8002,97.9331 285.9276,96.9306 287.055,95.9282 288.5414,94.6066 290.7761,94.7989 292.0294,96.2085 293.2943,97.6311 293.2238,99.8726 291.7373,101.1943" stroke="black" stroke-width="1" /><polyline fill="none" points="298.352,107.9243 299.2283,109.2901 301.4779,109.8222 303.0608,108.6608 303.4292,108.3905 303.7976,108.1202 304.166,107.8499 305.6593,106.7542 305.9823,104.6442 304.8765,103.137 303.781,101.644 301.6438,101.34 300.1784,102.4153 299.81,102.6856 299.4416,102.9558 299.0732,103.2262 297.5796,104.3221 297.2564,106.4312 298.352,107.9243 299.559,109.5694 299.1625,111.84 297.5733,113.0061 297.0295,113.4051 296.4857,113.804 295.942,114.203 294.3525,115.3693 292.0946,115.0463 290.8875,113.4012 289.6906,111.7699 290.0607,109.52 291.6502,108.3537 292.203,107.9481 292.7558,107.5425 293.3085,107.1369 294.6711,106.1372 296.9651,106.2056" stroke="black" stroke-width="1" /><polyline fill="none" points="314.1503,117.2212 310.2076,119.5804 306.2649,121.9397 302.3222,124.299 300.6154,125.3203 298.4554,124.7153 297.4779,123.0817 296.5094,121.4632 296.9971,119.2735 298.7039,118.2522 299.9985,117.4775 301.293,116.7029 302.5876,115.9282 304.2943,114.9069 306.454,115.5126 307.4225,117.1311 308.3999,118.7646 307.9126,120.9537 306.2059,121.975" stroke="black" stroke-width="1" /><polyline fill="none" points="307.8805,135.3373 306.0859,136.1941 303.9988,135.4045 303.1787,133.6869 302.3586,131.9694 303.0496,129.8347 304.8442,128.9779 306.2056,128.3279 307.567,127.6779 308.9284,127.0279 310.7233,126.1709 312.8171,126.976 313.6371,128.6935 314.4572,130.4111 313.7596,132.5302 311.9647,133.3872" stroke="black" stroke-width="1" /><polyline fill="none" points="314.1922,138.6749 316.0595,137.9898 318.0685,138.987 318.7242,140.7742 319.3797,142.5606 318.4868,144.6052 316.6195,145.2903 315.2032,145.81 313.787,146.3297 312.3707,146.8493 310.5037,147.5344 308.4997,146.5528 307.8442,144.7663 307.1884,142.9792 308.0822,140.9347 309.9491,140.2497 309.9472,140.2444 309.9453,140.2392 309.9433,140.2339 314.2568,138.6512 318.5703,137.0685 322.8838,135.4858" stroke="black" stroke-width="1" /><polyline fill="none" points="328.382,153.5727 328.1285,152.612 327.3381,151.9691 326.1114,152.2926 324.9234,152.606 323.7354,152.9193 322.5474,153.2327 322.7019,153.8183 322.8564,154.4039 323.0108,154.9895 322.7135,153.8622 322.4161,152.7348 322.1188,151.6075 322.2617,152.1492 322.4045,152.691 322.5474,153.2327 318.895,154.1961 315.2425,155.1595 311.59,156.1229" stroke="black" stroke-width="1" /><polyline fill="none" points="331.038,166.825 330.8756,165.8447 330.1488,165.1306 328.8972,165.3379 327.6851,165.5386 326.473,165.7393 325.2609,165.9401 325.3599,166.5376 325.4588,167.135 325.5577,167.7325 325.3673,166.5823 325.1768,165.4321 324.9863,164.2819 325.0779,164.8346 325.1694,165.3873 325.2609,165.9401 321.5343,166.5572 317.8076,167.1744 314.081,167.7915" stroke="black" stroke-width="1" /><polyline fill="none" points="328.6666,175.1152 330.6336,174.9766 332.3361,176.4553 332.4747,178.4223 332.6145,180.4068 331.1043,182.1458 329.1373,182.2844 328.3667,182.3387 327.8439,182.2212 327.451,182.0255 323.4736,180.048 319.4962,178.0705 315.5188,176.093 315.3765,176.103 315.2343,176.1131 315.092,176.1231 315.2583,178.4835 315.4246,180.8439 315.5909,183.2044" stroke="black" stroke-width="1" /><polyline fill="none" points="326.0838,195.4395 324.1125,195.3932 322.5559,193.7784 322.6022,191.8071 322.6488,189.8186 324.2797,188.2625 326.251,188.3087 327.268,188.3325 328.285,188.3564 329.3021,188.3802 331.2734,188.4265 332.8303,190.0574 332.7841,192.0291 332.7374,194.0171 331.1061,195.5572 329.1349,195.511 325.7297,195.4312 322.3246,195.3513 318.9194,195.2715 316.9485,195.2253 315.3916,193.6104 315.4378,191.6391 315.4776,189.9424 316.6763,188.5636 318.2623,188.2232" stroke="black" stroke-width="1" /><polyline fill="none" points="323.7973,204.4543 323.5071,206.0509 324.79,207.9739 326.7398,208.2036 327.1936,208.257 327.6474,208.3104 328.1012,208.3639 329.9406,208.5805 331.6155,207.2573 331.8342,205.4007 332.0508,203.5616 330.6946,201.8821 328.8895,201.6695 328.4357,201.6161 327.9819,201.5627 327.5281,201.5092 325.6883,201.2926 324.0139,202.6151 323.7973,204.4543 323.5587,206.4807 321.7205,207.8714 319.7628,207.6409 319.093,207.562 318.4232,207.4831 317.7534,207.4042 315.7955,207.1736 314.364,205.3979 314.6026,203.3715 314.8393,201.3621 316.644,199.9685 318.6019,200.1991 319.2829,200.2793 319.9638,200.3595 320.6447,200.4397 322.3232,200.6373 323.9546,202.2514" stroke="black" stroke-width="1" /><polyline fill="none" points="312.274,217.7198 316.482,218.6211 317.7606,212.6516 329.131,220.8746" stroke="black" stroke-width="1" /><polyline fill="none" points="312.0773,231.0043 310.1804,230.4076 309.1919,228.4069 309.7631,226.5914 310.3342,224.7758 312.2951,223.6853 314.192,224.2821 315.6312,224.7348 317.0703,225.1875 318.5093,225.6402 320.4067,226.2371 321.3894,228.2536 320.8183,230.0691 320.2471,231.8847 318.292,232.9594 316.3946,232.3625" stroke="black" stroke-width="1" /><polyline fill="none" points="314.4189,237.7493 316.252,238.5213 317.0417,240.6205 316.3029,242.375 315.5644,244.1288 313.5172,245.0156 311.6841,244.2437 310.2938,243.6582 308.9034,243.0727 307.513,242.4872 305.6802,241.7155 304.8835,239.631 305.622,237.8773 306.3607,236.1228 308.4085,235.2366 310.2412,236.0083 310.2434,236.0032 310.2456,235.998 310.2478,235.9929 314.4823,237.776 318.7169,239.5592 322.9514,241.3424" stroke="black" stroke-width="1" /><polyline fill="none" points="314.1975,251.9505 315.9352,252.8826 316.5864,255.0415 315.6543,256.7791 314.714,258.5322 312.5089,259.1976 310.7713,258.2655 310.0905,257.9003 309.711,257.5221 309.483,257.1469 307.1737,253.3526 304.8644,249.5582 302.5551,245.7639 302.4294,245.6965 302.3037,245.629 302.178,245.5616 301.0595,247.6469 299.941,249.7321 298.8225,251.8173" stroke="black" stroke-width="1" /><polyline fill="none" points="301.9847,263.8732 301.0043,265.1663 301.2797,267.4616 302.9153,268.5475 303.296,268.8003 303.6766,269.053 304.0573,269.3057 305.6003,270.3303 307.6924,269.9067 308.7264,268.3494 309.7508,266.8066 309.2999,264.6956 307.7857,263.6902 307.4051,263.4374 307.0244,263.1847 306.6437,262.932 305.1004,261.9073 303.009,262.3304 301.9847,263.8732 300.856,265.5731 298.5878,265.983 296.9457,264.8927 296.3838,264.5196 295.822,264.1466 295.2601,263.7735 293.6176,262.683 293.1431,260.4521 294.2717,258.7522 295.3909,257.0666 297.6306,256.639 299.273,257.7295 299.8442,258.1088 300.4154,258.488 300.9865,258.8672 302.3945,259.8021 303.1205,261.9792" stroke="black" stroke-width="1" /><polyline fill="none" points="299.4105,280.6181 300.0351,279.8455 300.0858,278.8278 299.0993,278.0302 298.1439,277.2578 297.1885,276.4853 296.2331,275.7129 295.8523,276.1838 295.4716,276.6548 295.0908,277.1257 295.8238,276.2191 296.5568,275.3125 297.2898,274.4059 296.9376,274.8415 296.5853,275.2772 296.2331,275.7129 293.2956,273.338 290.3582,270.9631 287.4207,268.5882" stroke="black" stroke-width="1" /><polyline fill="none" points="289.6826,291.4122 291.1165,289.9442 292.5504,288.4763 293.9844,287.0083 292.0506,285.1193 290.1168,283.2303 288.183,281.3413 288.5984,282.6579 288.4424,283.8245 287.4002,284.8914 285.9624,286.3633 283.634,286.3176 282.273,284.9882 281.3,284.0378 280.327,283.0873 279.354,282.1368 277.9315,280.7473 278.0029,278.5883 279.3091,277.251 280.6029,275.9266 282.7477,275.8168 284.1702,277.2064" stroke="black" stroke-width="1" /><polyline fill="none" points="279.6011,300.4349 281.1662,299.1076 282.7313,297.7804 284.2964,296.4532 282.548,294.3914 280.7996,292.3296 279.0511,290.2679 279.3416,291.6175 279.0769,292.7644 277.9394,293.7291 276.3701,295.0598 274.0562,294.7963 272.8257,293.3453 271.946,292.3079 271.0663,291.2705 270.1866,290.2331 268.9004,288.7164 269.1736,286.5736 270.5994,285.3646 272.0115,284.1671 274.1571,284.2586 275.4433,285.7753" stroke="black" stroke-width="1" /><polyline fill="none" points="259.1223,294.2653 261.586,297.7936 266.5914,294.2986 269.3027,308.0663" stroke="black" stroke-width="1" /><polyline fill="none" points="249.0635,302.3647 249.1373,301.2784 249.3601,300.1072 251.21,299.0584 252.866,298.1195 255.0437,298.6584 256.0503,300.4337 256.7858,301.731 257.5214,303.0284 258.257,304.3257 259.2379,306.056 258.5818,308.2008 256.9258,309.1397 255.2401,310.0955 253.0331,309.574 252.0521,307.8437 251.6858,307.1976 251.3194,306.5515 250.9531,305.9053 253.0164,304.7355 255.0797,303.5656 257.143,302.3958" stroke="black" stroke-width="1" /><polyline fill="none" points="244.5941,321.6245 242.7122,317.4329 240.8303,313.2413 238.9483,309.0497 238.1336,307.2352 238.9871,305.1607 240.7237,304.381 242.4444,303.6085 244.5621,304.3489 245.3768,306.1635 245.9947,307.5397 246.6126,308.916 247.2305,310.2923 248.0452,312.1068 247.1911,314.1808 245.4705,314.9533 243.7338,315.733 241.6167,314.993 240.8021,313.1785" stroke="black" stroke-width="1" /><polyline fill="none" points="229.3783,320.0539 228.7426,318.1873 229.7225,316.1697 231.5891,315.5341 233.4719,314.8929 235.4946,315.8879 236.1303,317.7545 236.4582,318.7175 236.7861,319.6805 237.1141,320.6435 237.7497,322.5101 236.7549,324.5335 234.888,325.1693 233.0055,325.8103 230.9978,324.8094 230.3621,322.9428 229.2641,319.7186 228.1661,316.4944 227.0681,313.2701 226.4326,311.4039 227.4123,309.386 229.2789,308.7503 230.8855,308.2032 232.5928,308.8537 233.4587,310.2253" stroke="black" stroke-width="1" /><polyline fill="none" points="216.8944,321.2826 216.8957,321.2879 216.8969,321.2932 216.8982,321.2986 216.3566,319.0308 215.815,316.7631 215.2733,314.4954 215.023,313.4473 214.1915,313.2207 213.6427,313.3518 214.3433,313.1844 215.0698,313.6432 215.2415,314.3623 215.2521,314.4067 215.2627,314.451 215.2733,314.4954 216.1142,313.2899 217.2221,312.3203 218.6725,311.9738 219.8734,311.687 221.9681,311.8216 222.5535,314.2728 222.8603,315.557 222.3387,316.5449 221.4079,317.2247 220.9599,317.5613 219.4501,318.2571 218.4351,318.7286 217.4069,319.2206 216.5876,319.9983 216.8944,321.2826 217.205,322.5832 218.8968,323.8352 220.8978,323.3573 222.7827,322.9071 223.4308,321.7833 223.7783,320.8014" stroke="black" stroke-width="1" /><polyline fill="none" points="204.6705,328.375 206.5473,324.6692 208.4241,320.9634 210.3009,317.2576 210.7784,320.63 211.256,324.0024 211.7335,327.3748 212.01,329.3272 210.6539,331.1299 208.7023,331.4062 206.7322,331.6852 204.947,330.3274 204.6705,328.375 204.193,325.0026 203.7154,321.6301 203.2379,318.2577 202.9614,316.3053 204.2996,314.506 206.2523,314.2294 208.2213,313.9506 210.0244,315.3052 210.3009,317.2576" stroke="black" stroke-width="1" /><polyline fill="none" points="198.5953,328.9419 198.6877,330.9116 197.1695,332.5789 195.1998,332.6714 193.2126,332.7646 191.5094,331.2141 191.417,329.2444 191.3808,328.4727 191.5105,327.9528 191.7154,327.5646 193.7856,323.6346 195.8557,319.7047 197.9259,315.7748 197.9192,315.6323 197.9126,315.4898 197.9059,315.3474 195.5422,315.4583 193.1785,315.5692 190.8148,315.6801" stroke="black" stroke-width="1" /><polyline fill="none" points="178.9123,323.9457 178.912,323.9512 178.9118,323.9566 178.9115,323.9621 179.0208,321.6332 179.1301,319.3042 179.2394,316.9753 179.2899,315.8989 178.554,315.4503 177.9903,315.4239 178.7099,315.4576 179.2805,316.1001 179.2458,316.8386 179.2437,316.8842 179.2415,316.9297 179.2394,316.9753 180.3819,316.0506 181.7155,315.4267 183.205,315.4966 184.4383,315.5545 186.4133,316.2654 186.2952,318.7827 186.2333,320.1016 185.4579,320.9058 184.375,321.3005 183.8512,321.4994 182.2076,321.7487 181.1015,321.9199 179.9772,322.1071 178.9742,322.6267 178.9123,323.9457 178.8496,325.2814 180.1273,326.9539 182.1823,327.0504 184.1181,327.1412 185.0527,326.2415 185.6592,325.3947" stroke="black" stroke-width="1" /><polyline fill="none" points="172.2314,328.3613 171.955,330.3136 170.1525,331.6686 168.2001,331.3922 166.2304,331.1133 164.8462,329.2724 165.1227,327.32 165.231,326.5551 165.4553,326.0685 165.729,325.7253 168.4957,322.2502 171.2623,318.7752 174.029,315.3002 174.049,315.159 174.069,315.0178 174.089,314.8766 171.746,314.5448 169.4032,314.2131 167.0603,313.8813" stroke="black" stroke-width="1" /><polyline fill="none" points="153.1583,328.2778 154.1247,328.5087 155.0649,328.1159 155.3596,326.882 155.6451,325.687 155.9305,324.492 156.2159,323.297 155.6268,323.1563 155.0378,323.0156 154.4487,322.875 155.5827,323.1458 156.7167,323.4166 157.8507,323.6875 157.3057,323.5573 156.7608,323.4272 156.2159,323.297 157.0934,319.623 157.9709,315.9489 158.8484,312.2748" stroke="black" stroke-width="1" /><polyline fill="none" points="139.2262,324.15 141.1687,324.8115 143.1113,325.473 145.0538,326.1345 145.9253,323.5756 146.7967,321.0165 147.6682,318.4576 146.6591,319.3998 145.5391,319.7616 144.1272,319.2808 142.1795,318.6175 141.2175,316.4966 141.8308,314.6956 142.2693,313.4081 142.7077,312.1205 143.1462,310.8329 143.7873,308.9505 145.7664,308.0847 147.5359,308.6873 149.2886,309.2842 150.3117,311.1723 149.6707,313.0548" stroke="black" stroke-width="1" /><polyline fill="none" points="134.0399,318.3458 133.2323,320.1447 131.1245,320.946 129.3256,320.1383 127.5108,319.3235 126.6921,317.1707 127.4997,315.3718 127.8161,314.6671 128.1668,314.2619 128.525,314.0081 132.1477,311.4379 135.7704,308.8676 139.3931,306.2974 139.4515,306.1672 139.5099,306.0371 139.5683,305.907 137.4096,304.9378 135.2509,303.9686 133.0923,302.9994" stroke="black" stroke-width="1" /><polyline fill="none" points="121.0563,300.4344 122.0371,298.7045 124.2004,298.157 125.8561,299.0957 127.5118,300.0345 128.1674,302.1802 127.1865,303.9102 126.4424,305.2225 125.6984,306.5349 124.9543,307.8473 123.9733,309.5775 121.7957,310.1161 120.14,309.1774 118.4844,308.2386 117.843,306.1018 118.824,304.3716" stroke="black" stroke-width="1" /><polyline fill="none" points="110.4872,300.1866 109.2174,299.1762 106.9163,299.3977 105.7923,301.0074 105.5307,301.382 105.2691,301.7566 105.0075,302.1313 103.9471,303.6499 104.3215,305.7513 105.8542,306.8215 107.3725,307.8817 109.4935,307.4805 110.5341,305.9903 110.7957,305.6157 111.0573,305.2411 111.3189,304.8664 112.3795,303.3475 112.0055,301.2468 110.4872,300.1866 108.8142,299.0184 108.4576,296.7412 109.5861,295.1251 109.9722,294.5721 110.3583,294.0191 110.7444,293.4662 111.8731,291.8497 114.1146,291.4276 115.7876,292.5958 117.4464,293.7542 117.8214,296.0032 116.6927,297.6197 116.3002,298.1818 115.9077,298.7439 115.5152,299.3061 114.5476,300.6917 112.3541,301.3665" stroke="black" stroke-width="1" /><polyline fill="none" points="103.7341,293.8367 102.4477,295.3536 100.2082,295.477 98.7563,294.2458 97.305,293.015 97.0733,290.7961 98.3597,289.2791 99.3355,288.1285 100.3112,286.9779 101.2869,285.8273 102.5731,284.3106 104.8006,284.176 106.2519,285.4068 107.7038,286.638 107.9347,288.8573 106.6485,290.374 106.6528,290.3776 106.6571,290.3812 106.6613,290.3849 103.6896,293.8892 100.7179,297.3934 97.7462,300.8978" stroke="black" stroke-width="1" /><polyline fill="none" points="91.0302,283.6816 89.9711,282.4521 87.6691,282.2407 86.2646,283.6126 85.9378,283.9319 85.6109,284.2512 85.2841,284.5704 83.9591,285.8647 83.9351,287.9991 85.2413,289.3363 86.5353,290.661 88.694,290.6624 89.9942,289.3923 90.321,289.073 90.6479,288.7537 90.9747,288.4344 92.3,287.1399 92.3242,285.0063 91.0302,283.6816 89.6044,282.222 89.6786,279.9182 91.0887,278.5408 91.5712,278.0695 92.0536,277.5983 92.5361,277.127 93.9464,275.7494 96.2272,275.7526 97.653,277.2122 99.0668,278.6596 99.0159,280.9391 97.6056,282.3168 97.1151,282.7959 96.6246,283.275 96.1342,283.754 94.9252,284.935 92.6444,285.1889" stroke="black" stroke-width="1" /><polyline fill="none" points="86.8499,275.2595 85.3165,276.4992 83.0736,276.2619 81.8343,274.7291 80.5833,273.1818 80.8321,270.9525 82.3655,269.7128 83.1564,269.0733 83.9473,268.4339 84.7382,267.7945 86.2716,266.5547 88.503,266.7788 89.754,268.3261 90.9932,269.8589 90.756,272.1014 89.2226,273.3412 86.574,275.4826 83.9253,277.624 81.2766,279.7655 79.7435,281.005 77.5008,280.7675 76.2615,279.2347 75.1937,277.914 75.2167,276.0882 76.2058,274.803" stroke="black" stroke-width="1" /><polyline fill="none" points="74.992,263.8381 74.1807,262.4328 71.9585,261.7958 70.3229,262.8818 69.9422,263.1345 69.5616,263.3872 69.1809,263.64 67.6378,264.6645 67.2163,266.757 68.2503,268.3143 69.2746,269.8571 71.3951,270.2609 72.9093,269.2555 73.29,269.0028 73.6707,268.7501 74.0513,268.4973 75.5947,267.4726 76.0163,265.3809 74.992,263.8381 73.8634,262.1383 74.3659,259.8887 76.0081,258.7984 76.5699,258.4254 77.1318,258.0523 77.6936,257.6793 79.3361,256.5888 81.5763,257.0173 82.705,258.7172 83.8241,260.4027 83.349,262.6328 81.7066,263.7233 81.1354,264.1025 80.5642,264.4818 79.993,264.861 78.585,265.7958 76.2968,265.62" stroke="black" stroke-width="1" /><polyline fill="none" points="60.5586,254.9671 61.0283,255.8427 61.9465,256.2844 63.0644,255.6847 64.1471,255.1039 65.2298,254.5232 66.3125,253.9424 66.0262,253.4088 65.7399,252.8751 65.4537,252.3414 66.0048,253.3688 66.5559,254.3962 67.107,255.4236 66.8421,254.9299 66.5773,254.4362 66.3125,253.9424 69.6412,252.1569 72.97,250.3714 76.2987,248.5858" stroke="black" stroke-width="1" /><polyline fill="none" points="59.1238,246.9669 56.9431,247.8852 54.1812,241.3264 71.9179,239.272" stroke="black" stroke-width="1" /><polyline fill="none" points="56.024,226.2831 57.905,225.6914 59.899,226.7182 60.4907,228.5992 61.0876,230.4966 60.0454,232.4954 58.1644,233.0871 57.194,233.3924 56.2236,233.6977 55.2532,234.003 53.3722,234.5947 51.3727,233.5527 50.7808,231.6714 50.1841,229.7744 51.2318,227.7906 53.1127,227.1989 56.3618,226.1768 59.6109,225.1547 62.86,224.1326 64.7407,223.541 66.735,224.5677 67.3268,226.4487 67.8361,228.0677 67.1458,229.7593 65.7542,230.5928" stroke="black" stroke-width="1" /><polyline fill="none" points="46.7972,215.8706 47.227,217.8772 47.6568,219.8838 48.0866,221.8904 50.73,221.3242 53.3733,220.758 56.0167,220.1918 54.69,219.8098 53.8044,219.0345 53.4921,217.576 53.0611,215.5641 54.3871,213.6496 56.2475,213.2511 57.5775,212.9662 58.9075,212.6814 60.2375,212.3965 62.182,211.98 63.9412,213.2337 64.3327,215.0616 64.7205,216.872 63.6255,218.7195 61.681,219.136" stroke="black" stroke-width="1" /><polyline fill="none" points="53.1978,204.4125 53.1091,202.7922 51.4146,201.2197 49.4648,201.4493 49.011,201.5028 48.5572,201.5562 48.1034,201.6097 46.2639,201.8263 44.9423,203.5024 45.1609,205.3589 45.3775,207.1981 47.0867,208.5166 48.8918,208.304 49.3456,208.2506 49.7993,208.1971 50.2531,208.1437 52.093,207.927 53.4144,206.2516 53.1978,204.4125 52.9592,202.3861 54.424,200.6064 56.3816,200.3759 57.0514,200.297 57.7212,200.2181 58.391,200.1392 60.349,199.9087 62.1538,201.3033 62.3924,203.3297 62.6291,205.3391 61.1975,207.1138 59.2395,207.3443 58.5586,207.4245 57.8777,207.5047 57.1968,207.5849 55.5183,207.7826 53.5565,206.5916" stroke="black" stroke-width="1" /><polyline fill="none" points="57.8179,188.1016 59.806,188.055 61.3866,189.6302 61.4312,191.533 61.4758,193.4358 59.9712,195.1001 57.9831,195.1467 56.4749,195.1821 54.9666,195.2175 53.4584,195.2528 51.47,195.2995 49.8897,193.7074 49.8451,191.8047 49.8004,189.9019 51.3048,188.2544 53.2932,188.2077" stroke="black" stroke-width="1" /><polyline fill="none" points="47.6453,181.9586 45.8664,181.8333 44.3976,180.2346 44.5338,178.3015 44.6699,176.3694 46.2648,174.9683 48.2828,175.1105 48.6019,175.133 48.921,175.1555 49.2401,175.1779 52.3186,175.3948 52.6421,178.1162 52.618,178.4589 52.5947,178.7894 52.5714,179.1199 52.5481,179.4504 52.5714,179.1199 52.5947,178.7894 52.618,178.4589 52.6891,177.4492 54.0384,175.3785 56.4322,175.5471 57.1336,175.5966 57.8349,175.646 58.5363,175.6954 60.5197,175.8351 61.98,177.5542 61.8403,179.5383 61.6993,181.5395 60.0136,183.019 58.0302,182.8793" stroke="black" stroke-width="1" /><polyline fill="none" points="55.1052,163.137 55.0998,163.1361 55.0944,163.1352 55.089,163.1343 57.3892,163.5152 59.6893,163.8961 61.9895,164.2771 63.0526,164.4531 63.5842,163.7747 63.6763,163.218 63.5586,163.9287 62.8539,164.4202 62.1245,164.2994 62.0795,164.292 62.0345,164.2845 61.9895,164.2771 62.7742,165.5199 63.2379,166.9173 62.9943,168.3884 62.7925,169.6065 61.8555,171.4848 59.3693,171.0731 58.0667,170.8573 57.3587,169.9932 57.0933,168.8716 56.9571,168.328 56.9017,166.6666 56.861,165.5481 56.8066,164.4096 56.4079,163.3527 55.1052,163.137 53.786,162.9185 51.9755,163.9919 51.6394,166.0214 51.3228,167.9333 52.107,168.9668 52.8771,169.6681" stroke="black" stroke-width="1" /><polyline fill="none" points="56.776,153.7339 57.2871,152.1938 56.2865,150.1099 54.3882,149.6091 53.9464,149.4926 53.5046,149.3761 53.0628,149.2596 51.2718,148.7872 49.4279,149.8625 48.9512,151.67 48.4789,153.4606 49.5862,155.3137 51.3436,155.7772 51.7854,155.8938 52.2272,156.0103 52.6691,156.1268 54.4604,156.5993 56.3037,155.5246 56.776,153.7339 57.2964,151.761 59.3114,150.6418 61.2173,151.1445 61.8695,151.3165 62.5216,151.4885 63.1737,151.6605 65.08,152.1633 66.2484,154.1222 65.728,156.0952 65.212,158.0516 63.2297,159.1783 61.3234,158.6755 60.6605,158.5006 59.9975,158.3258 59.3346,158.1509 57.7004,157.7199 56.3114,155.893" stroke="black" stroke-width="1" /><polyline fill="none" points="60.4111,145.2069 58.5438,144.5218 57.6565,142.4618 58.3123,140.6747 58.9678,138.8882 60.9712,137.9064 62.8384,138.5915 64.2547,139.1112 65.671,139.6309 67.0873,140.1505 68.9542,140.8355 69.8478,142.8803 69.1923,144.6668 68.5366,146.4539 66.5327,147.4352 64.6657,146.7502 64.6638,146.7554 64.6619,146.7607 64.66,146.7659 60.3465,145.1832 56.033,143.6005 51.7195,142.0178" stroke="black" stroke-width="1" /><polyline fill="none" points="65.0279,133.4027 63.233,132.5457 62.5426,130.4117 63.3628,128.6938 64.1827,126.9766 66.2692,126.1867 68.0641,127.0436 69.4255,127.6936 70.7869,128.3437 72.1483,128.9937 73.9429,129.8505 74.6411,131.97 73.8212,133.6872 73.001,135.4051 70.914,136.1944 69.1194,135.3376 69.117,135.3426 69.1146,135.3477 69.1122,135.3527 64.9658,133.373 60.8195,131.3933 56.6732,129.4137" stroke="black" stroke-width="1" /><polyline fill="none" points="80.753,120.9398 77.0602,118.7301 73.9256,123.9687 65.8129,112.5193" stroke="black" stroke-width="1" /><polyline fill="none" points="71.8979,107.5029 69.9901,106.1031 74.2002,100.3653 85.0704,114.5304" stroke="black" stroke-width="1" /><polyline fill="none" points="80.9125,97.353 79.5799,96.1681 79.392,94.0052 80.6797,92.557 81.9667,91.1096 84.0852,90.9731 85.597,92.3173 85.836,92.5299 86.0751,92.7424 86.3142,92.955 88.6205,95.0057 87.2159,97.3588 86.9876,97.6156 86.7674,97.8632 86.5473,98.1108 86.3271,98.3584 86.5473,98.1108 86.7674,97.8632 86.9876,97.6156 87.6602,96.8592 89.9928,96.0423 91.7861,97.6368 92.3116,98.104 92.837,98.5713 93.3625,99.0385 94.8484,100.3596 94.956,102.6127 93.6344,104.0991 92.3014,105.5983 90.063,105.7415 88.5772,104.4204" stroke="black" stroke-width="1" /><polyline fill="none" points="92.2524,80.9583 90.7512,82.3574 89.25,83.7566 87.7489,85.1557 89.592,87.1332 91.4351,89.1108 93.2783,91.0884 92.9249,89.7538 93.1355,88.5957 94.2266,87.5788 95.7318,86.176 98.0555,86.3307 99.3527,87.7225 100.28,88.7175 101.2074,89.7125 102.1348,90.7075 103.4906,92.1623 103.3181,94.3156 101.9506,95.5901 100.5962,96.8525 98.4486,96.8616 97.0928,95.4068" stroke="black" stroke-width="1" /><polyline fill="none" points="112.5703,84.2512 112.6496,85.3372 112.5932,86.5281 110.9086,87.8259 109.4007,88.9877 107.1689,88.7594 105.9233,87.1428 105.0132,85.9614 104.103,84.78 103.1928,83.5986 101.9789,82.023 102.3278,79.8073 103.8358,78.6455 105.3709,77.4628 107.6292,77.6698 108.8431,79.2454 109.2964,79.8338 109.7497,80.4222 110.203,81.0106 108.3241,82.4581 106.4452,83.9057 104.5663,85.3533" stroke="black" stroke-width="1" /><polyline fill="none" points="118.817,71.9593 118.8141,71.9546 118.8112,71.95 118.8083,71.9454 120.052,73.9174 121.2958,75.8895 122.5395,77.8616 123.1143,78.773 123.9745,78.7195 124.4518,78.4184 123.8425,78.8027 123.0069,78.6026 122.6125,77.9773 122.5882,77.9387 122.5638,77.9001 122.5395,77.8616 122.1321,79.2738 121.3959,80.5488 120.1347,81.3443 119.0903,82.0029 117.0641,82.5508 115.7197,80.4192 115.0154,79.3023 115.1907,78.1991 115.8526,77.2555 116.1682,76.7925 117.373,75.6471 118.1819,74.8735 118.9966,74.0764 119.5214,73.0761 118.817,71.9593 118.1037,70.8282 116.0986,70.1884 114.3586,71.2859 112.7194,72.3196 112.4682,73.5924 112.4558,74.6339" stroke="black" stroke-width="1" /><polyline fill="none" points="124.9543,70.9334 124.0633,69.1744 124.765,67.0309 126.5234,66.1401 128.2984,65.241 130.4262,65.9511 131.3172,67.7101 131.7769,68.6174 132.2365,69.5247 132.6961,70.432 133.5872,72.191 132.9007,74.326 131.1257,75.2252 129.3673,76.1159 127.2243,75.4143 126.3332,73.6553 124.794,70.6169 123.2548,67.5784 121.7156,64.5399 120.8246,62.7812 121.5266,60.638 123.285,59.7473 124.7999,58.9798 126.5805,59.3846 127.63,60.621" stroke="black" stroke-width="1" /><polyline fill="none" points="140.2781,56.2081 139.3136,60.2485 138.349,64.2889 137.3844,68.3293 136.1365,65.1601 134.8886,61.9909 133.6407,58.8216 132.9182,56.9869 133.8184,54.9186 135.6525,54.1964 137.5039,53.4674 139.5557,54.3734 140.2781,56.2081 141.526,59.3773 142.774,62.5465 144.0219,65.7158 144.7443,67.5505 143.8608,69.6115 142.0257,70.3341 140.1754,71.0627 138.1069,70.1641 137.3844,68.3293" stroke="black" stroke-width="1" /><polyline fill="none" points="146.1213,54.0125 145.6262,52.2993 146.6211,50.3697 148.4828,49.8317 150.3435,49.2939 152.2083,50.3087 152.7699,52.252 152.8587,52.5594 152.9475,52.8667 153.0363,53.174 153.8932,56.1388 151.4498,57.38 151.1198,57.4753 150.8015,57.5673 150.4832,57.6593 150.1649,57.7513 150.4832,57.6593 150.8015,57.5673 151.1198,57.4753 152.0921,57.1943 154.5009,57.7477 155.1672,60.0531 155.3624,60.7286 155.5576,61.404 155.7528,62.0795 156.3048,63.9896 155.194,65.9528 153.2832,66.505 151.3559,67.062 149.3863,65.9891 148.8343,64.079" stroke="black" stroke-width="1" /><polyline fill="none" points="160.0271,50.4739 162.0093,46.6594 165.2059,63.5026" stroke="black" stroke-width="1" /><polyline fill="none" points="230.6055,118.9202 140.3048,268.1431 280.8196,188.8365 268.1431,236.6952 140.8637,108.5745 239.8942,231.6324 189.0084,152.2515 96.1804,188.1635 188.2428,253.3668 239.8942,231.6324" stroke="black" stroke-width="1" /><polyline fill="none" points="233.0511,215.3699 246.7373,247.8949" stroke="black" stroke-width="1" /><polyline fill="none" points="248.4576,108.8569 248.3127,107.0169 247.8819,105.2221 247.1755,103.5169 246.2111,101.9432 245.0124,100.5397 243.6089,99.341 242.0352,98.3766 240.3299,97.6702 238.5352,97.2393 236.6952,97.0945 234.8551,97.2393 233.0604,97.6702 231.3551,98.3765 229.7814,99.3409 228.3779,100.5396 227.1792,101.9432 226.2148,103.5169 225.5085,105.2221 225.0776,107.0169 224.9328,108.8569 225.0776,110.697 225.5085,112.4917 226.2148,114.1969 227.1792,115.7707 228.3779,117.1742 229.7814,118.3729 231.3551,119.3373 233.0604,120.0436 234.8551,120.4745 236.6952,120.6193 238.5352,120.4745 240.3299,120.0436 242.0352,119.3373 243.6089,118.3729 245.0124,117.1742 246.2111,115.7707 247.1755,114.197 247.8819,112.4917 248.3127,110.697 248.4576,108.8569" stroke="black" stroke-width="1" /><polyline fill="none" points="188.5,69.0664 199.6839,69.5912 210.7696,71.161 221.6595,73.7619 232.2581,77.3712 242.4721,81.9571 252.2118,87.4792 261.3915,93.8892 269.9308,101.1306 277.7544,109.1398 284.7936,117.8464 290.9866,127.1739 296.2789,137.0404 300.6241,147.3591 303.9839,158.0393 306.3289,168.9873 307.6383,180.1067 307.9008,191.2998 307.114,202.4684 305.2847,213.5142 302.4292,224.3402 298.5725,234.8512 293.7484,244.9549 287.9994,254.5625 281.376,263.5894 273.9365,271.9565 265.7461,279.5902 256.8768,286.4234 247.4067,292.3961 237.4188,297.4556 227.0011,301.5577 216.2451,304.6663 205.2452,306.7539 194.0981,307.8023 182.9019,307.8023 171.7548,306.7539 160.7549,304.6663 149.9989,301.5577 139.5811,297.4556 129.5933,292.3961 120.1232,286.4234 111.2539,279.5902 103.0635,271.9565 95.6239,263.5894 89.0006,254.5625 83.2516,244.9549 78.4275,234.8512 74.5708,224.3402 71.7153,213.5142 69.8861,202.4684 69.0992,191.2998 69.3617,180.1067 70.6712,168.9872 73.0161,158.0393 76.3759,147.3591 80.7211,137.0404 86.0134,127.174 92.2064,117.8464 99.2457,109.1398 107.0692,101.1306 115.6085,93.8892 124.7882,87.4792 134.5279,81.957 144.7419,77.3712 155.3405,73.7619 166.2304,71.161 177.3161,69.5912 188.5,69.0664" stroke="black" stroke-width="1" />

    </g>
  </g>
  <WCB
     pausedposy="0"
     pausedposx="0"
     lastknownposy="0"
     lastknownposx="0"
     lastpathnc="0"
     lastpath="0"
     node="0"
     layer="0" />
</svg>
