<?xml version="1.0" encoding="UTF-8" standalone="no"?>
<!-- Created with Inkscape (http://www.inkscape.org/) -->

<svg
   xmlns:dc="http://purl.org/dc/elements/1.1/"
   xmlns:cc="http://creativecommons.org/ns#"
   xmlns:rdf="http://www.w3.org/1999/02/22-rdf-syntax-ns#"
   xmlns:svg="http://www.w3.org/2000/svg"
   xmlns="http://www.w3.org/2000/svg"
   xmlns:sodipodi="http://sodipodi.sourceforge.net/DTD/sodipodi-0.dtd"
   xmlns:inkscape="http://www.inkscape.org/namespaces/inkscape"
   width="100mm"
   height="100mm"
   viewBox="0 0 100 100"
   version="1.1"
   id="svg19124"
   inkscape:version="0.92.3 (2405546, 2018-03-11)"
   sodipodi:docname="inkscape_template_TMP.svg"
   shape-rendering="crispEdges">
  <sodipodi:namedview
     pagecolor="#ffffff"
     bordercolor="#666666"
     borderopacity="1"
     objecttolerance="10"
     gridtolerance="10"
     guidetolerance="10"
     inkscape:pageopacity="0"
     inkscape:pageshadow="2"
     inkscape:window-width="1568"
     inkscape:window-height="1550"
     id="namedview24021"
     showgrid="false"
     inkscape:zoom="0.62441667"
     inkscape:cx="712.66515"
     inkscape:cy="409.98265"
     inkscape:window-x="0"
     inkscape:window-y="0"
     inkscape:window-maximized="0"
     inkscape:current-layer="layer1" />
  <defs
     id="defs19118" />
  <metadata
     id="metadata19121">
    <rdf:RDF>
      <cc:Work
         rdf:about="">
        <dc:format>image/svg+xml</dc:format>
        <dc:type
           rdf:resource="http://purl.org/dc/dcmitype/StillImage" />
        <dc:title />
      </cc:Work>
    </rdf:RDF>
  </metadata>
  <g
     transform="translate(0,-197)"
     id="layer1"
     inkscape:groupmode="layer"
     inkscape:label="Layer 1">
    <g
       id="g24447"
       transform="matrix(0.26458333,0,0,0.26458333,0.10666333,197.9735)">

<polyline fill="none" points="192.1004,47.7394 189.7225,51.1455 187.3447,54.5516 184.9669,57.9577 184.9669,54.5516 184.9669,51.1455 184.9669,47.7394 184.9669,45.7676 186.5623,44.1729 188.5334,44.1729 190.5231,44.1729 192.1004,45.7676 192.1004,47.7394 192.1004,51.1455 192.1004,54.5516 192.1004,57.9577 192.1004,59.9295 190.5231,61.5235 188.5509,61.5235 186.5623,61.5235 184.9669,59.9295 184.9669,57.9577" stroke="black" stroke-width="1" /><polyline fill="none" points="197.8298,61.5877 200.7471,57.7851 198.696,53.7706 202.935,62.0679 200.7471,57.7851 203.4811,54.2207" stroke="black" stroke-width="1" /><polyline fill="none" points="217.8243,53.8986 217.4566,55.8358 215.6092,57.1077 213.6719,56.74 211.7178,56.3691 210.449,54.5059 210.8167,52.5686 211.0063,51.5691 211.196,50.5697 211.3857,49.5702 211.7534,47.6329 213.6168,46.3634 215.5544,46.7312 217.5081,47.102 218.761,48.9629 218.3934,50.9002 217.7583,54.2465 217.1232,57.5929 216.4881,60.9392 216.1205,62.8761 214.2729,64.1483 212.3357,63.7806 210.6682,63.4642 209.5039,62.0563 209.4271,60.436" stroke="black" stroke-width="1" /><polyline fill="none" points="228.0957,63.9602 227.5436,65.8707 225.5666,66.9057 223.7382,66.3773 221.9097,65.8489 220.7736,63.9141 221.3257,62.0037 221.7446,60.5543 222.1634,59.105 222.5823,57.6557 223.1345,55.7449 225.1274,54.7152 226.9558,55.2436 228.7843,55.772 229.9045,57.7014 229.3523,59.6123" stroke="black" stroke-width="1" /><polyline fill="none" points="244.0779,55.3087 242.1685,54.5568 240.2591,53.805 238.3497,53.0531 237.3592,55.5685 236.3688,58.0838 235.3783,60.5992 236.4305,59.7053 237.5662,59.3963 238.954,59.9428 240.8685,60.6966 241.73,62.8603 241.033,64.6306 240.5346,65.8962 240.0363,67.1618 239.5379,68.4273 238.8093,70.2777 236.7919,71.0498 235.0525,70.3649 233.3297,69.6865 232.3962,67.7525 233.1248,65.9021" stroke="black" stroke-width="1" /><polyline fill="none" points="256.3059,61.0983 254.4753,60.171 252.6447,59.2436 250.8141,58.3163 249.5924,60.7278 248.3708,63.1394 247.1492,65.5509 248.2804,64.7595 249.4401,64.5583 250.7706,65.2323 252.6061,66.1621 253.2612,68.3969 252.4015,70.0941 251.7868,71.3075 251.1721,72.5208 250.5575,73.7342 249.6588,75.5082 247.5779,76.088 245.9103,75.2432 244.2586,74.4065 243.5103,72.3935 244.409,70.6195" stroke="black" stroke-width="1" /><polyline fill="none" points="261.1921,73.2796 262.5079,74.2293 264.796,73.9002 265.8433,72.2396 266.0871,71.8531 266.3308,71.4666 266.5746,71.0802 267.5626,69.5135 267.0901,67.4319 265.509,66.4347 263.9426,65.4469 261.8427,65.9471 260.8732,67.4844 260.6294,67.8709 260.3857,68.2574 260.1419,68.6438 259.1537,70.2108 259.6257,72.2917 261.1921,73.2796 262.918,74.368 263.3809,76.626 262.3294,78.2933 261.9697,78.8637 261.6099,79.4342 261.2501,80.0046 260.1984,81.6722 257.9792,82.1989 256.2533,81.1104 254.542,80.0311 254.062,77.8021 255.1137,76.1345 255.4794,75.5546 255.8452,74.9747 256.2109,74.3948 257.1125,72.9653 259.272,72.1885" stroke="black" stroke-width="1" /><polyline fill="none" points="267.2145,80.5001 268.418,78.9381 270.6547,78.6478 272.2162,79.8508 273.7923,81.0652 274.0682,83.2913 272.8648,84.8533 272.2441,85.659 271.6234,86.4647 271.0027,87.2704 269.7992,88.8324 267.5768,89.1328 266.0006,87.9184 264.4391,86.7154 264.1489,84.4792 265.3524,82.9172 267.4311,80.219 269.5099,77.5209 271.5886,74.8227 272.7919,73.2609 275.0284,72.9709 276.5898,74.174 277.9352,75.2104 278.337,76.9916 277.6735,78.4714" stroke="black" stroke-width="1" /><polyline fill="none" points="288.1847,84.3375 287.4579,83.66 286.4463,83.5379 285.5814,84.466 284.7437,85.3647 283.906,86.2635 283.0683,87.1623 283.5114,87.5752 283.9543,87.9881 284.3974,88.401 283.5445,87.6061 282.6917,86.8112 281.8388,86.0163 282.2486,86.3983 282.6584,86.7803 283.0683,87.1623 280.4929,89.9256 277.9174,92.6888 275.3419,95.4521" stroke="black" stroke-width="1" /><polyline fill="none" points="288.427,104.2825 286.9408,105.6039 284.7165,105.4248 283.4518,104.0025 282.1872,102.5801 282.2583,100.3376 283.7444,99.0162 284.8718,98.0138 285.9993,97.0113 287.1267,96.0089 288.6131,94.6872 290.848,94.8794 292.1127,96.3017 293.3774,97.7241 293.2956,99.9536 291.8092,101.2752" stroke="black" stroke-width="1" /><polyline fill="none" points="298.352,107.9243 299.2283,109.2901 301.4779,109.8222 303.0608,108.6608 303.4292,108.3905 303.7976,108.1202 304.166,107.8499 305.6593,106.7542 305.9823,104.6442 304.8765,103.137 303.781,101.644 301.6438,101.34 300.1784,102.4153 299.81,102.6856 299.4416,102.9558 299.0732,103.2262 297.5796,104.3221 297.2564,106.4312 298.352,107.9243 299.559,109.5694 299.1625,111.84 297.5733,113.0061 297.0295,113.4051 296.4857,113.804 295.942,114.203 294.3525,115.3693 292.0946,115.0463 290.8875,113.4012 289.6906,111.7699 290.0607,109.52 291.6502,108.3537 292.203,107.9481 292.7558,107.5425 293.3085,107.1369 294.6711,106.1372 296.9651,106.2056" stroke="black" stroke-width="1" /><polyline fill="none" points="311.136,119.3125 306.9923,119.021 302.8486,118.7296 298.7049,118.4381 301.6277,116.6891 304.5504,114.9402 307.4732,113.1913 309.1653,112.1788 311.3529,112.729 312.365,114.4204 313.3867,116.1278 312.8281,118.3 311.136,119.3125 308.2133,121.0615 305.2905,122.8104 302.3677,124.5593 300.6757,125.5718 298.498,125.0369 297.4854,123.3445 296.4642,121.6381 297.0128,119.4506 298.7049,118.4381" stroke="black" stroke-width="1" /><polyline fill="none" points="312.3907,132.9254 312.3957,132.923 312.4006,132.9206 312.4056,132.9183 310.3016,133.9228 308.1976,134.9274 306.0936,135.932 305.1212,136.3962 305.0737,137.2567 305.3169,137.766 305.0065,137.1159 305.303,136.3094 305.9702,135.9909 306.0113,135.9713 306.0524,135.9516 306.0936,135.932 304.7387,135.3622 303.5585,134.4819 302.916,133.1363 302.3841,132.0221 302.077,129.9457 304.3511,128.8598 305.5427,128.2909 306.6179,128.5941 307.4776,129.3618 307.9005,129.7294 308.8971,131.0599 309.5708,131.9537 310.2672,132.856 311.1992,133.4943 312.3907,132.9254 313.5974,132.3492 314.4673,130.4327 313.581,128.5762 312.746,126.8274 311.5113,126.429 310.4784,126.2949" stroke="black" stroke-width="1" /><polyline fill="none" points="320.0197,137.8593 324.1068,139.1917 308.0122,145.0971" stroke="black" stroke-width="1" /><polyline fill="none" points="328.382,153.5727 328.1285,152.612 327.3381,151.9691 326.1114,152.2926 324.9234,152.606 323.7354,152.9193 322.5474,153.2327 322.7019,153.8183 322.8564,154.4039 323.0108,154.9895 322.7135,153.8622 322.4161,152.7348 322.1188,151.6075 322.2617,152.1492 322.4045,152.691 322.5474,153.2327 318.895,154.1961 315.2425,155.1595 311.59,156.1229" stroke="black" stroke-width="1" /><polyline fill="none" points="327.9191,161.6873 330.2534,161.3007 331.4161,168.3218 313.6874,166.1996" stroke="black" stroke-width="1" /><polyline fill="none" points="324.3994,178.9469 324.412,180.5696 326.0309,182.2198 327.9894,182.0818 328.4452,182.0497 328.9009,182.0176 329.3568,181.9855 331.2044,181.8553 332.6031,180.243 332.4718,178.3782 332.3416,176.531 330.6961,175.1338 328.8831,175.2615 328.4272,175.2937 327.9715,175.3258 327.5157,175.3579 325.6677,175.4881 324.2692,177.0997 324.3994,178.9469 324.5427,180.9823 322.9961,182.6914 321.0298,182.8299 320.3571,182.8773 319.6843,182.9247 319.0116,182.9721 317.0449,183.1106 315.3074,181.6329 315.1641,179.5976 315.0219,177.5793 316.5351,175.8737 318.5017,175.7351 319.1856,175.6869 319.8696,175.6387 320.5535,175.5906 322.2394,175.4718 324.1431,176.7534" stroke="black" stroke-width="1" /><polyline fill="none" points="323.7071,188.1906 325.6956,188.2372 327.1995,189.9012 327.1549,191.8043 327.1103,193.7067 325.5304,195.282 323.5419,195.2354 322.0337,195.2 320.5255,195.1646 319.0173,195.1293 317.0292,195.0826 315.5242,193.4351 315.5688,191.5327 315.6134,189.6295 317.194,188.0547 319.1821,188.1013 319.1823,188.0957 319.1824,188.0901 319.1825,188.0845 323.7759,188.1922 328.3694,188.2999 332.9628,188.4077" stroke="black" stroke-width="1" /><polyline fill="none" points="323.7973,204.4543 323.5071,206.0509 324.79,207.9739 326.7398,208.2036 327.1936,208.257 327.6474,208.3104 328.1012,208.3639 329.9406,208.5805 331.6155,207.2573 331.8342,205.4007 332.0508,203.5616 330.6946,201.8821 328.8895,201.6695 328.4357,201.6161 327.9819,201.5627 327.5281,201.5092 325.6883,201.2926 324.0139,202.6151 323.7973,204.4543 323.5587,206.4807 321.7205,207.8714 319.7628,207.6409 319.093,207.562 318.4232,207.4831 317.7534,207.4042 315.7955,207.1736 314.364,205.3979 314.6026,203.3715 314.8393,201.3621 316.644,199.9685 318.6019,200.1991 319.2829,200.2793 319.9638,200.3595 320.6447,200.4397 322.3232,200.6373 323.9546,202.2514" stroke="black" stroke-width="1" /><polyline fill="none" points="321.3936,213.4068 323.3385,213.8233 324.5059,215.7386 324.1071,217.6 323.7086,219.4607 321.8627,220.7137 319.9178,220.2972 318.4426,219.9812 316.9675,219.6652 315.4923,219.3493 313.5478,218.9328 312.3763,217.0334 312.7748,215.1727 313.1735,213.3113 315.0201,212.0588 316.9646,212.4753 316.9658,212.4698 316.967,212.4643 316.9681,212.4589 321.4609,213.4212 325.9537,214.3835 330.4465,215.3458" stroke="black" stroke-width="1" /><polyline fill="none" points="317.0046,225.1947 318.8856,225.7864 319.9286,227.7863 319.3371,229.6666 318.74,231.5646 316.7452,232.5905 314.8642,231.9987 313.894,231.6935 312.9238,231.3883 311.9536,231.0831 310.0727,230.4914 309.0251,228.5084 309.6222,226.6104 310.2137,224.7301 312.2131,223.6874 314.0941,224.2791 317.3432,225.3012 320.5923,226.3233 323.8414,227.3454 325.722,227.937 326.7646,229.9368 326.1732,231.8171 325.6635,233.4371 324.1298,234.4279 322.512,234.3147" stroke="black" stroke-width="1" /><polyline fill="none" points="320.3518,247.185 321.1482,245.2937 321.9446,243.4025 322.741,241.5112 320.2496,240.4621 317.7582,239.4129 315.2668,238.3638 316.1357,239.4366 316.4179,240.5793 315.8391,241.9539 315.0406,243.8502 312.8573,244.6607 311.1039,243.9223 309.8503,243.3945 308.5968,242.8666 307.3432,242.3387 305.5104,241.567 304.7859,239.5319 305.5114,237.8091 306.2299,236.1027 308.1853,235.2148 310.0181,235.9866" stroke="black" stroke-width="1" /><polyline fill="none" points="313.7356,253.1372 315.4556,257.0768 300.348,248.9731" stroke="black" stroke-width="1" /><polyline fill="none" points="307.1325,264.5804 308.4761,268.6638 294.1937,259.181" stroke="black" stroke-width="1" /><polyline fill="none" points="301.1775,274.8735 303.0175,276.3611 298.5432,281.8953 288.3488,267.2362" stroke="black" stroke-width="1" /><polyline fill="none" points="289.6826,291.4122 291.1165,289.9442 292.5504,288.4763 293.9844,287.0083 292.0506,285.1193 290.1168,283.2303 288.183,281.3413 288.5984,282.6579 288.4424,283.8245 287.4002,284.8914 285.9624,286.3633 283.634,286.3176 282.273,284.9882 281.3,284.0378 280.327,283.0873 279.354,282.1368 277.9315,280.7473 278.0029,278.5883 279.3091,277.251 280.6029,275.9266 282.7477,275.8168 284.1702,277.2064" stroke="black" stroke-width="1" /><polyline fill="none" points="269.2326,289.0752 269.1026,287.9941 269.1031,286.8019 270.7249,285.4266 272.1768,284.1953 274.4168,284.3188 275.7368,285.8752 276.7013,287.0127 277.6659,288.1501 278.6305,289.2876 279.9169,290.8045 279.6722,293.0341 278.2203,294.2653 276.7423,295.5187 274.4768,295.4178 273.1904,293.9008 272.71,293.3343 272.2296,292.7678 271.7492,292.2013 273.5582,290.6673 275.3672,289.1332 277.1762,287.5992" stroke="black" stroke-width="1" /><polyline fill="none" points="264.2958,303.5324 263.1669,301.9157 263.5481,299.7054 265.1648,298.5765 266.7956,297.4378 269.015,297.8322 270.1439,299.4489 270.7263,300.283 271.3087,301.117 271.8912,301.9511 273.0201,303.5678 272.6262,305.7879 271.0091,306.917 269.3787,308.0555 267.1719,307.6514 266.043,306.0347 264.093,303.242 262.143,300.4494 260.193,297.6568 259.0643,296.0403 259.4453,293.8298 261.062,292.7009 262.4535,291.7292 264.2743,291.8801 265.487,292.9574" stroke="black" stroke-width="1" /><polyline fill="none" points="255.675,307.0218 254.2161,307.7324 253.4245,309.9043 254.3928,311.6122 254.6182,312.0097 254.8435,312.4072 255.0689,312.8046 255.9824,314.4159 258.0401,314.9835 259.6663,314.0615 261.2772,313.1481 261.829,311.0612 260.9326,309.48 260.7072,309.0826 260.4819,308.6851 260.2565,308.2876 259.3428,306.6761 257.2859,306.1085 255.675,307.0218 253.9,308.0282 251.6913,307.3688 250.7191,305.6541 250.3865,305.0674 250.0538,304.4807 249.7212,303.8941 248.7488,302.179 249.3337,299.9744 251.1087,298.968 252.8687,297.9702 255.0599,298.6008 256.0323,300.3158 256.3704,300.9123 256.7086,301.5087 257.0468,302.1051 257.8803,303.5753 257.5441,305.8455" stroke="black" stroke-width="1" /><polyline fill="none" points="241.5176,315.6479 240.7099,313.8491 241.4965,311.7486 243.2954,310.941 245.1099,310.1263 247.2169,310.9276 248.0246,312.7264 248.4412,313.6545 248.8579,314.5825 249.2746,315.5106 250.0822,317.3094 249.2813,319.4171 247.4821,320.2249 245.6679,321.0394 243.5752,320.231 242.7676,318.4321 241.3725,315.3248 239.9774,312.2176 238.5823,309.1103 237.7748,307.3118 238.5612,305.211 240.3601,304.4034 241.9084,303.7082 243.6691,304.1959 244.6597,305.4805" stroke="black" stroke-width="1" /><polyline fill="none" points="233.1713,325.5815 234.1118,325.2612 234.6976,324.4276 234.2886,323.2267 233.8926,322.0636 233.4965,320.9006 233.1004,319.7376 232.5271,319.9328 231.9539,320.128 231.3806,320.3232 232.4842,319.9474 233.5878,319.5716 234.6915,319.1957 234.1611,319.3763 233.6308,319.5569 233.1004,319.7376 231.8827,316.1618 230.665,312.5861 229.4473,309.0103" stroke="black" stroke-width="1" /><polyline fill="none" points="219.185,329.5222 221.181,329.0455 223.1769,328.5688 225.1729,328.092 224.5449,325.4627 223.9169,322.8333 223.2889,320.204 222.938,321.5392 222.1837,322.4427 220.733,322.7892 218.7317,323.2672 216.7867,321.9865 216.3447,320.136 216.0287,318.813 215.7127,317.4901 215.3968,316.1671 214.9348,314.2328 216.1469,312.4448 217.9651,312.0105 219.766,311.5804 221.6386,312.6317 222.1006,314.5659" stroke="black" stroke-width="1" /><polyline fill="none" points="210.472,327.709 208.3132,331.4263 205.9096,314.4519" stroke="black" stroke-width="1" /><polyline fill="none" points="191.2466,326.2313 191.1541,324.2616 192.6556,322.5955 194.6253,322.503 196.6121,322.4098 198.279,323.9273 198.3715,325.897 198.4191,326.9132 198.4668,327.9294 198.5145,328.9456 198.6069,330.9152 197.0895,332.5829 195.1194,332.6754 193.1329,332.7686 191.482,331.2496 191.3896,329.2798 191.2299,325.8776 191.0703,322.4752 190.9107,319.0729 190.8183,317.1035 192.3197,315.437 194.2894,315.3446 195.9847,315.265 197.4443,316.3639 197.8954,317.9221" stroke="black" stroke-width="1" /><polyline fill="none" points="185.2624,329.4694 185.1788,331.2507 183.615,332.7566 181.6792,332.6657 179.7445,332.575 178.3064,331.0133 178.4012,328.9926 178.4162,328.673 178.4312,328.3535 178.4462,328.0339 178.5909,324.9512 181.3039,324.564 181.6471,324.58 181.978,324.5956 182.309,324.6111 182.6399,324.6266 182.309,324.6111 181.978,324.5956 181.6471,324.58 180.636,324.5326 178.5342,323.2323 178.6467,320.8352 178.6797,320.1328 178.7126,319.4305 178.7456,318.7281 178.8388,316.742 180.5231,315.2418 182.5099,315.335 184.5139,315.429 186.0325,317.0796 185.9393,319.0657" stroke="black" stroke-width="1" /><polyline fill="none" points="172.2314,328.3613 171.955,330.3136 170.1525,331.6686 168.2001,331.3922 166.2304,331.1133 164.8462,329.2724 165.1227,327.32 165.231,326.5551 165.4553,326.0685 165.729,325.7253 168.4957,322.2502 171.2623,318.7752 174.029,315.3002 174.049,315.159 174.069,315.0178 174.089,314.8766 171.746,314.5448 169.4032,314.2131 167.0603,313.8813" stroke="black" stroke-width="1" /><polyline fill="none" points="159.034,326.3934 158.6197,328.1279 156.8026,329.3158 154.9176,328.8656 153.0338,328.4157 151.9121,326.6133 152.382,324.6457 152.4564,324.3345 152.5307,324.0234 152.605,323.7122 153.3219,320.7105 156.0596,320.8359 156.3937,320.9158 156.716,320.9927 157.0383,321.0697 157.3605,321.1467 157.0383,321.0697 156.716,320.9927 156.3937,320.9158 155.4093,320.6806 153.5868,319.0112 154.1443,316.6771 154.3076,315.9932 154.4709,315.3093 154.6343,314.6254 155.0962,312.6916 157.0307,311.5317 158.9653,311.9937 160.9166,312.4598 162.1008,314.3646 161.6389,316.2984" stroke="black" stroke-width="1" /><polyline fill="none" points="140.2246,324.3542 141.1652,324.6745 142.138,324.3716 142.547,323.1707 142.943,322.0076 143.3391,320.8446 143.7352,319.6816 143.1619,319.4864 142.5886,319.2911 142.0153,319.0959 143.1189,319.4717 144.2226,319.8476 145.3262,320.2234 144.7959,320.0428 144.2655,319.8622 143.7352,319.6816 144.9529,316.1058 146.1705,312.5301 147.3882,308.9543" stroke="black" stroke-width="1" /><polyline fill="none" points="131.8343,306.2581 132.6488,304.444 134.7514,303.6963 136.4877,304.4758 138.224,305.2554 139.0776,307.3304 138.2631,309.1445 137.6452,310.5208 137.0273,311.8971 136.4094,313.2733 135.5947,315.0879 133.4771,315.828 131.7408,315.0484 130.0045,314.2689 129.1659,312.2014 129.9806,310.387" stroke="black" stroke-width="1" /><polyline fill="none" points="120.9447,312.1859 116.9659,313.8131 125.4215,298.8996" stroke="black" stroke-width="1" /><polyline fill="none" points="104.404,305.6099 105.2187,306.1788 106.2374,306.1578 106.9637,305.1177 107.667,304.1104 108.3704,303.103 109.0738,302.0957 108.5773,301.749 108.0807,301.4023 107.5842,301.0555 108.5401,301.723 109.496,302.3905 110.4519,303.058 109.9925,302.7372 109.5332,302.4164 109.0738,302.0957 111.2364,298.9986 113.399,295.9016 115.5616,292.8044" stroke="black" stroke-width="1" /><polyline fill="none" points="101.3678,285.8959 102.6539,284.3792 104.8814,284.2446 106.333,285.4756 107.7846,286.7066 108.0286,288.937 106.7424,290.4537 105.7667,291.6043 104.791,292.7549 103.8152,293.9055 102.5288,295.4225 100.289,295.5456 98.8374,294.3146 97.3858,293.0836 97.1541,290.8647 98.4406,289.3477" stroke="black" stroke-width="1" /><polyline fill="none" points="82.8455,287.0181 86.1323,283.8074 89.4191,280.5968 92.7059,277.3862 94.1287,275.9963 96.3702,276.083 97.7004,277.4447 99.0184,278.794 99.0527,281.0372 97.6299,282.427 96.5507,283.4812 95.4715,284.5354 94.3923,285.5895 92.9695,286.9794 90.7283,286.892 89.4103,285.5428 88.0801,284.181 88.0455,281.9386 89.4683,280.5487" stroke="black" stroke-width="1" /><polyline fill="none" points="81.2405,279.7208 79.7071,280.9606 77.4647,280.7228 76.225,279.1895 74.9742,277.6425 75.2168,275.3521 76.7502,274.1123 77.3509,273.6266 77.8468,273.4236 78.281,273.3591 82.6742,272.7034 87.0674,272.0476 91.4606,271.3918 91.5715,271.3022 91.6824,271.2125 91.7933,271.1229 90.3056,269.2827 88.8179,267.4426 87.3302,265.6025" stroke="black" stroke-width="1" /><polyline fill="none" points="79.1729,256.9158 80.2618,256.9131 81.4457,257.053 82.622,258.8246 83.6749,260.4105 83.2904,262.6207 81.5902,263.7495 80.3478,264.5744 79.1053,265.3994 77.8629,266.2243 76.2059,267.3245 74.0202,266.8207 72.9673,265.2348 71.8953,263.6203 72.2605,261.3822 73.9175,260.282 74.5363,259.8712 75.1551,259.4603 75.7739,259.0495 77.0859,261.0255 78.3978,263.0015 79.7098,264.9774" stroke="black" stroke-width="1" /><polyline fill="none" points="59.9675,254.1369 60.9374,255.9453 61.9075,257.7537 62.8775,259.5621 65.2597,258.2842 67.6419,257.0064 70.0242,255.7286 68.6436,255.7299 67.5775,255.2309 66.8725,253.9166 65.8999,252.1034 66.6423,249.896 68.3189,248.9966 69.5175,248.3537 70.7161,247.7108 71.9147,247.0678 73.6672,246.1278 75.7052,246.8438 76.5889,248.4912 77.464,250.1228 76.9251,252.2016 75.1727,253.1416" stroke="black" stroke-width="1" /><polyline fill="none" points="66.7584,243.6264 64.9411,244.3917 62.8521,243.541 62.0872,241.7243 61.315,239.8906 62.1729,237.818 63.9902,237.0527 64.9276,236.658 65.8649,236.2633 66.8022,235.8686 68.6195,235.1033 70.701,235.9381 71.4732,237.7719 72.2382,239.5885 71.3877,241.677 69.5704,242.4423 66.4313,243.7641 63.2922,245.086 60.1531,246.4079 58.3361,247.173 56.2475,246.3222 55.4825,244.5055 54.8234,242.9404 55.3524,241.1927 56.6595,240.2327" stroke="black" stroke-width="1" /><polyline fill="none" points="49.7286,228.6396 54.1116,227.2608 58.4945,225.882 62.8774,224.5032 64.7748,223.9063 66.7352,224.9966 67.3064,226.8125 67.8724,228.6117 66.8894,230.6282 64.992,231.2251 63.5529,231.6778 62.1138,232.1305 60.6747,232.5833 58.7774,233.1801 56.8176,232.0893 56.2516,230.2901 55.6803,228.4742 56.6628,226.4582 58.5601,225.8613" stroke="black" stroke-width="1" /><polyline fill="none" points="55.2824,217.0124 55.0424,215.4075 53.2081,214.0007 51.2883,214.4119 50.8415,214.5076 50.3947,214.6033 49.9479,214.699 48.1368,215.0869 46.9779,216.8794 47.3694,218.7073 47.7573,220.5181 49.5824,221.6707 51.3597,221.2901 51.8065,221.1944 52.2533,221.0987 52.7001,221.003 54.5115,220.615 55.6702,218.8232 55.2824,217.0124 54.855,215.0173 56.1468,213.1082 58.0742,212.6954 58.7337,212.5542 59.3931,212.4129 60.0526,212.2717 61.9804,211.8587 63.9079,213.0782 64.3352,215.0734 64.759,217.0518 63.4999,218.9527 61.5721,219.3656 60.9017,219.5092 60.2312,219.6528 59.5608,219.7964 57.9083,220.1504 55.8436,219.1484" stroke="black" stroke-width="1" /><polyline fill="none" points="49.1148,208.44 47.1565,208.6707 45.3866,207.2734 45.156,205.315 44.9233,203.3393 46.3503,201.5314 48.3086,201.3008 49.0758,201.2104 49.6035,201.3033 50.0052,201.4804 54.0709,203.2693 58.1366,205.0581 62.2024,206.847 62.344,206.8303 62.4856,206.8136 62.6273,206.797 62.3505,204.4469 62.0738,202.0969 61.797,199.7469" stroke="black" stroke-width="1" /><polyline fill="none" points="52.7154,188.4546 52.7099,188.4547 52.7045,188.4549 52.699,188.455 55.0299,188.4003 57.3607,188.3457 59.6916,188.291 60.7688,188.2658 61.1646,187.5002 61.1514,186.936 61.1682,187.6562 60.5675,188.2705 59.8284,188.2878 59.7828,188.2889 59.7372,188.2899 59.6916,188.291 60.6942,189.3657 61.4103,190.6522 61.4453,192.1429 61.4742,193.3772 60.9039,195.3973 58.3845,195.4564 57.0645,195.4873 56.2078,194.7704 55.7379,193.7179 55.5027,193.2093 55.1385,191.5873 54.89,190.496 54.6243,189.3876 54.0355,188.4236 52.7154,188.4546 51.3786,188.4859 49.8,189.878 49.8483,191.9347 49.8937,193.8721 50.8568,194.7412 51.7442,195.2866" stroke="black" stroke-width="1" /><polyline fill="none" points="46.6663,182.1914 44.306,182.0251 44.8061,174.926 61.5569,181.1087" stroke="black" stroke-width="1" /><polyline fill="none" points="54.0992,166.2216 54.4639,164.6403 53.2726,162.6592 51.3357,162.3385 50.8849,162.2638 50.4341,162.1892 49.9834,162.1145 48.156,161.8119 46.421,163.0552 46.1156,164.8994 45.813,166.7264 47.0889,168.4676 48.8821,168.7646 49.3329,168.8392 49.7836,168.9139 50.2344,168.9885 52.0621,169.2912 53.7967,168.0485 54.0992,166.2216 54.4326,164.2086 56.334,162.9056 58.2786,163.2276 58.944,163.3378 59.6093,163.448 60.2747,163.5582 62.2197,163.8802 63.5664,165.7211 63.233,167.7341 62.9025,169.7303 61.0344,171.0377 59.0894,170.7156 58.413,170.6036 57.7366,170.4915 57.0602,170.3795 55.3928,170.1034 53.8389,168.4146" stroke="black" stroke-width="1" /><polyline fill="none" points="51.6749,154.724 49.0868,151.2917 65.6636,155.6641" stroke="black" stroke-width="1" /><polyline fill="none" points="57.5944,136.6327 59.9729,140.0382 62.3515,143.4438 64.73,146.8494 61.5324,145.6761 58.3348,144.5028 55.1371,143.3295 53.286,142.6503 52.3384,140.6032 53.0174,138.7527 53.7028,136.8848 55.7432,135.9534 57.5944,136.6327 60.792,137.8059 63.9896,138.9792 67.1872,140.1525 69.0384,140.8317 69.9916,142.8615 69.3122,144.713 68.6272,146.5799 66.5812,147.5286 64.73,146.8494" stroke="black" stroke-width="1" /><polyline fill="none" points="63.0265,124.6023 65.0757,128.2157 67.1249,131.829 69.1741,135.4424 66.1004,133.9748 63.0267,132.5073 59.953,131.0397 58.1736,130.1901 57.4219,128.0633 58.2711,126.2845 59.1285,124.4889 61.2471,123.7527 63.0265,124.6023 66.1002,126.0699 69.1739,127.5374 72.2476,129.005 74.0271,129.8546 74.7859,131.9647 73.9362,133.7444 73.0794,135.539 70.9535,136.292 69.1741,135.4424" stroke="black" stroke-width="1" /><polyline fill="none" points="66.4318,118.0638 64.8983,114.0479 79.6095,122.8508" stroke="black" stroke-width="1" /><polyline fill="none" points="86.6119,109.4309 86.9895,110.4521 87.266,111.6118 86.008,113.3263 84.8818,114.8612 82.6744,115.2615 81.029,114.0542 79.8266,113.172 78.6242,112.2897 77.4218,111.4075 75.8181,110.2308 75.5382,108.0054 76.6643,106.4706 77.8108,104.9082 80.0377,104.48 81.6413,105.6567 82.2402,106.0961 82.839,106.5355 83.4379,106.9749 82.0348,108.8872 80.6316,110.7995 79.2285,112.7119" stroke="black" stroke-width="1" /><polyline fill="none" points="89.2003,95.8878 89.1962,95.8841 89.1921,95.8805 89.188,95.8769 90.9304,97.4261 92.6727,98.9753 94.4151,100.5245 95.2204,101.2405 96.0319,100.9503 96.4068,100.5286 95.9281,101.0669 95.0698,101.1067 94.5173,100.6154 94.4833,100.5851 94.4492,100.5548 94.4151,100.5245 94.4158,101.9943 94.0626,103.4236 93.0718,104.538 92.2513,105.4607 90.4568,106.5496 88.5735,104.875 87.5868,103.9977 87.4489,102.8891 87.8228,101.7988 87.9975,101.2664 88.8369,99.8316 89.3992,98.8638 89.9605,97.8718 90.187,96.7652 89.2003,95.8878 88.201,94.9993 86.0971,94.9413 84.7301,96.4787 83.4424,97.9269 83.5544,99.2194 83.8317,100.2234" stroke="black" stroke-width="1" /><polyline fill="none" points="103.7465,93.681 100.8124,90.5329 96.3465,94.6953 91.7316,81.4436" stroke="black" stroke-width="1" /><polyline fill="none" points="107.3957,77.1467 108.5991,78.7088 108.322,80.9345 106.76,82.1379 105.1844,83.3518 102.9488,83.0619 101.7454,81.4999 101.1245,80.694 100.5037,79.8882 99.8828,79.0823 98.6794,77.5203 98.9688,75.2842 100.5311,74.0805 102.1064,72.8669 104.3297,73.1671 105.5331,74.7291 107.6119,77.4273 109.6906,80.1255 111.7694,82.8236 112.9726,84.3854 112.6957,86.6114 111.1337,87.8148 109.7892,88.8506 107.9633,88.7853 106.7015,87.766" stroke="black" stroke-width="1" /><polyline fill="none" points="114.2952,64.5551 116.7462,68.4415 119.1973,72.3278 121.6483,76.2141 122.7093,77.8965 122.1552,80.0701 120.545,81.0856 118.9496,82.0918 116.749,81.6555 115.688,79.9732 114.8832,78.6971 114.0784,77.4211 113.2737,76.1451 112.2126,74.4627 112.7675,72.2895 114.3629,71.2833 115.973,70.2678 118.173,70.7037 119.234,72.386" stroke="black" stroke-width="1" /><polyline fill="none" points="130.0363,65.9461 130.0338,65.9412 130.0314,65.9363 130.0289,65.9314 131.0825,68.0113 132.1361,70.0912 133.1897,72.1711 133.6767,73.1323 134.5381,73.1595 135.0414,72.9045 134.3988,73.2301 133.5856,72.9526 133.2515,72.2931 133.2309,72.2524 133.2103,72.2117 133.1897,72.1711 132.6519,73.5389 131.7995,74.7394 130.4693,75.4132 129.3679,75.9712 127.2992,76.3269 126.1604,74.0788 125.5637,72.9009 125.8415,71.8189 126.5889,70.9414 126.9465,70.5101 128.2533,69.4825 129.131,68.7881 130.0168,68.0707 130.633,67.124 130.0363,65.9461 129.432,64.7532 127.4957,63.9285 125.6605,64.8582 123.9317,65.7339 123.5624,66.9776 123.4525,68.0133" stroke="black" stroke-width="1" /><polyline fill="none" points="140.2781,56.2081 139.3136,60.2485 138.349,64.2889 137.3844,68.3293 136.1365,65.1601 134.8886,61.9909 133.6407,58.8216 132.9182,56.9869 133.8184,54.9186 135.6525,54.1964 137.5039,53.4674 139.5557,54.3734 140.2781,56.2081 141.526,59.3773 142.774,62.5465 144.0219,65.7158 144.7443,67.5505 143.8608,69.6115 142.0257,70.3341 140.1754,71.0627 138.1069,70.1641 137.3844,68.3293" stroke="black" stroke-width="1" /><polyline fill="none" points="156.0447,63.681 155.7206,64.7205 155.2318,65.8079 153.1889,66.3983 151.3601,66.9268 149.3671,65.8968 148.8005,63.9362 148.3865,62.5035 147.9724,61.0708 147.5583,59.638 147.0061,57.7272 148.1425,55.7935 149.9713,55.265 151.8331,54.7269 153.8585,55.7469 154.4107,57.6577 154.6169,58.3712 154.8231,59.0848 155.0293,59.7984 152.7507,60.4569 150.4721,61.1154 148.1935,61.7739" stroke="black" stroke-width="1" /><polyline fill="none" points="166.47,52.5142 166.8377,54.4515 165.5847,56.3117 163.6474,56.6794 161.6933,57.0503 159.83,55.7814 159.4623,53.8442 159.2727,52.8447 159.083,51.8452 158.8933,50.8458 158.5256,48.9085 159.7943,47.0446 161.7319,46.6768 163.6857,46.306 165.5333,47.5786 165.901,49.5158 166.536,52.8622 167.1711,56.2085 167.8062,59.5548 168.1738,61.4918 166.9209,63.3524 164.9836,63.72 163.3162,64.0365 161.7169,63.1531 161.0519,61.6736" stroke="black" stroke-width="1" /><polyline fill="none" points="177.3746,150.5174 108.8569,140.3048 96.1804,188.1635 280.8196,188.8365 188.8697,188.4998 268.1431,236.6952 136.578,231.1149 239.8942,231.6324 188.1635,280.8196 268.4255,140.8637" stroke="black" stroke-width="1" /><polyline fill="none" points="253.1201,132.0864 283.7309,149.6411" stroke="black" stroke-width="1" /><polyline fill="none" points="200.7708,152.2515 200.626,150.4114 200.1952,148.6167 199.4888,146.9115 198.5244,145.3377 197.3257,143.9342 195.9222,142.7355 194.3485,141.7711 192.6432,141.0648 190.8485,140.6339 189.0084,140.4891 187.1684,140.6339 185.3737,141.0648 183.6684,141.7711 182.0947,142.7355 180.6912,143.9342 179.4925,145.3377 178.5281,146.9115 177.8217,148.6167 177.3909,150.4114 177.246,152.2515 177.3909,154.0915 177.8217,155.8863 178.5281,157.5915 179.4925,159.1652 180.6912,160.5687 182.0947,161.7675 183.6684,162.7318 185.3737,163.4382 187.1684,163.869 189.0084,164.0139 190.8485,163.869 192.6432,163.4382 194.3485,162.7318 195.9222,161.7675 197.3257,160.5687 198.5244,159.1652 199.4888,157.5915 200.1951,155.8863 200.626,154.0915 200.7708,152.2515" stroke="black" stroke-width="1" /><polyline fill="none" points="188.5,69.0664 199.6839,69.5912 210.7696,71.161 221.6595,73.7619 232.2581,77.3712 242.4721,81.9571 252.2118,87.4792 261.3915,93.8892 269.9308,101.1306 277.7544,109.1398 284.7936,117.8464 290.9866,127.1739 296.2789,137.0404 300.6241,147.3591 303.9839,158.0393 306.3289,168.9873 307.6383,180.1067 307.9008,191.2998 307.114,202.4684 305.2847,213.5142 302.4292,224.3402 298.5725,234.8512 293.7484,244.9549 287.9994,254.5625 281.376,263.5894 273.9365,271.9565 265.7461,279.5902 256.8768,286.4234 247.4067,292.3961 237.4188,297.4556 227.0011,301.5577 216.2451,304.6663 205.2452,306.7539 194.0981,307.8023 182.9019,307.8023 171.7548,306.7539 160.7549,304.6663 149.9989,301.5577 139.5811,297.4556 129.5933,292.3961 120.1232,286.4234 111.2539,279.5902 103.0635,271.9565 95.6239,263.5894 89.0006,254.5625 83.2516,244.9549 78.4275,234.8512 74.5708,224.3402 71.7153,213.5142 69.8861,202.4684 69.0992,191.2998 69.3617,180.1067 70.6712,168.9872 73.0161,158.0393 76.3759,147.3591 80.7211,137.0404 86.0134,127.174 92.2064,117.8464 99.2457,109.1398 107.0692,101.1306 115.6085,93.8892 124.7882,87.4792 134.5279,81.957 144.7419,77.3712 155.3405,73.7619 166.2304,71.161 177.3161,69.5912 188.5,69.0664" stroke="black" stroke-width="1" />

    </g>
  </g>
  <WCB
     pausedposy="0"
     pausedposx="0"
     lastknownposy="0"
     lastknownposx="0"
     lastpathnc="0"
     lastpath="0"
     node="0"
     layer="0" />
</svg>
