<?xml version="1.0" encoding="UTF-8" standalone="no"?>
<!-- Created with Inkscape (http://www.inkscape.org/) -->

<svg
   xmlns:dc="http://purl.org/dc/elements/1.1/"
   xmlns:cc="http://creativecommons.org/ns#"
   xmlns:rdf="http://www.w3.org/1999/02/22-rdf-syntax-ns#"
   xmlns:svg="http://www.w3.org/2000/svg"
   xmlns="http://www.w3.org/2000/svg"
   xmlns:sodipodi="http://sodipodi.sourceforge.net/DTD/sodipodi-0.dtd"
   xmlns:inkscape="http://www.inkscape.org/namespaces/inkscape"
   width="100mm"
   height="100mm"
   viewBox="0 0 100 100"
   version="1.1"
   id="svg19124"
   inkscape:version="0.92.3 (2405546, 2018-03-11)"
   sodipodi:docname="inkscape_template_TMP.svg"
   shape-rendering="crispEdges">
  <sodipodi:namedview
     pagecolor="#ffffff"
     bordercolor="#666666"
     borderopacity="1"
     objecttolerance="10"
     gridtolerance="10"
     guidetolerance="10"
     inkscape:pageopacity="0"
     inkscape:pageshadow="2"
     inkscape:window-width="1568"
     inkscape:window-height="1550"
     id="namedview24021"
     showgrid="false"
     inkscape:zoom="0.62441667"
     inkscape:cx="712.66515"
     inkscape:cy="409.98265"
     inkscape:window-x="0"
     inkscape:window-y="0"
     inkscape:window-maximized="0"
     inkscape:current-layer="layer1" />
  <defs
     id="defs19118" />
  <metadata
     id="metadata19121">
    <rdf:RDF>
      <cc:Work
         rdf:about="">
        <dc:format>image/svg+xml</dc:format>
        <dc:type
           rdf:resource="http://purl.org/dc/dcmitype/StillImage" />
        <dc:title />
      </cc:Work>
    </rdf:RDF>
  </metadata>
  <g
     transform="translate(0,-197)"
     id="layer1"
     inkscape:groupmode="layer"
     inkscape:label="Layer 1">
    <g
       id="g24447"
       transform="matrix(0.26458333,0,0,0.26458333,0.10666333,197.9735)">

<polyline fill="none" points="192.1004,47.7394 189.7225,51.1455 187.3447,54.5516 184.9669,57.9577 184.9669,54.5516 184.9669,51.1455 184.9669,47.7394 184.9669,45.7676 186.5623,44.1729 188.5334,44.1729 190.5231,44.1729 192.1004,45.7676 192.1004,47.7394 192.1004,51.1455 192.1004,54.5516 192.1004,57.9577 192.1004,59.9295 190.5231,61.5235 188.5509,61.5235 186.5623,61.5235 184.9669,59.9295 184.9669,57.9577" stroke="black" stroke-width="1" /><polyline fill="none" points="197.8298,61.5877 200.7471,57.7851 198.696,53.7706 202.935,62.0679 200.7471,57.7851 203.4811,54.2207" stroke="black" stroke-width="1" /><polyline fill="none" points="216.2596,60.7996 215.8888,62.7534 214.0175,63.9691 212.1476,63.6142 210.2777,63.2593 208.9654,61.4394 209.3362,59.4856 209.6175,58.0035 209.8988,56.5213 210.1801,55.0391 210.5509,53.085 212.4386,51.8732 214.3085,52.2281 216.1784,52.583 217.4744,54.399 217.1035,56.3531" stroke="black" stroke-width="1" /><polyline fill="none" points="226.3444,57.6272 227.8721,58.1743 229.979,57.2228 230.5241,55.3367 230.6509,54.8978 230.7778,54.4588 230.9046,54.0199 231.4189,52.2405 230.3871,50.3719 228.5912,49.8529 226.8122,49.3388 224.9337,50.4023 224.429,52.1484 224.3022,52.5874 224.1753,53.0263 224.0485,53.4653 223.5341,55.245 224.5654,57.113 226.3444,57.6272 228.3046,58.1937 229.3763,60.2344 228.829,62.128 228.6418,62.7759 228.4545,63.4239 228.2673,64.0718 227.7199,65.9658 225.7342,67.0879 223.774,66.5214 221.8302,65.9596 220.7503,63.9515 221.2976,62.0575 221.488,61.3988 221.6783,60.7402 221.8687,60.0815 222.3379,58.4579 224.1968,57.1121" stroke="black" stroke-width="1" /><polyline fill="none" points="244.0779,55.3087 242.1685,54.5568 240.2591,53.805 238.3497,53.0531 237.3592,55.5685 236.3688,58.0838 235.3783,60.5992 236.4305,59.7053 237.5662,59.3963 238.954,59.9428 240.8685,60.6966 241.73,62.8603 241.033,64.6306 240.5346,65.8962 240.0363,67.1618 239.5379,68.4273 238.8093,70.2777 236.7919,71.0498 235.0525,70.3649 233.3297,69.6865 232.3962,67.7525 233.1248,65.9021" stroke="black" stroke-width="1" /><polyline fill="none" points="246.4767,66.3535 247.3755,64.5792 249.5251,63.9389 251.2233,64.7992 252.9208,65.6591 253.6616,67.7635 252.7628,69.5379 252.081,70.8837 251.3993,72.2295 250.7175,73.5753 249.8189,75.3493 247.6836,75.9976 245.9861,75.1376 244.2879,74.2774 243.5477,72.1725 244.4464,70.3985 244.4414,70.3959 244.4364,70.3934 244.4314,70.3909 246.5078,66.2921 248.5841,62.1933 250.6604,58.0945" stroke="black" stroke-width="1" /><polyline fill="none" points="263.6445,75.4038 263.6474,75.3991 263.6503,75.3945 263.6533,75.3899 262.4095,77.3619 261.1658,79.334 259.922,81.3061 259.3472,82.2175 259.7661,82.9706 260.2434,83.2717 259.6341,82.8874 259.4547,82.0471 259.8491,81.4218 259.8734,81.3832 259.8977,81.3446 259.922,81.3061 258.4721,81.5469 257.0043,81.4319 255.743,80.6365 254.6987,79.9778 253.3313,78.3853 254.6756,76.2538 255.38,75.1369 256.4511,74.8197 257.5878,75.0105 258.1416,75.0959 259.6943,75.6896 260.7409,76.0862 261.8113,76.478 262.9401,76.5206 263.6445,75.4038 264.3578,74.2727 264.0712,72.1876 262.3312,71.0902 260.692,70.0564 259.4352,70.3781 258.49,70.8156" stroke="black" stroke-width="1" /><polyline fill="none" points="269.9359,88.4934 268.9061,88.847 267.7402,89.0962 266.0557,87.7984 264.5477,86.6366 264.1992,84.4204 265.4447,82.8037 266.3549,81.6223 267.2651,80.4409 268.1753,79.2595 269.3892,77.6839 271.6205,77.4562 273.1285,78.618 274.6637,79.8008 275.0395,82.0371 273.8256,83.6127 273.3723,84.2011 272.9189,84.7895 272.4656,85.3779 270.5867,83.9303 268.7078,82.4827 266.8289,81.0352" stroke="black" stroke-width="1" /><polyline fill="none" points="277.1284,97.2925 280.0625,94.1445 275.5966,89.9821 288.4911,84.4474" stroke="black" stroke-width="1" /><polyline fill="none" points="285.9717,97.0713 287.4453,95.7611 289.697,95.8929 291.0067,97.366 292.3288,98.8529 292.1848,101.0915 290.7112,102.4017 289.9512,103.0775 289.1911,103.7533 288.4311,104.4291 286.9575,105.7394 284.718,105.6201 283.3959,104.1332 282.0861,102.6601 282.218,100.409 283.6915,99.0987 286.2369,96.8355 288.7823,94.5722 291.3278,92.309 292.8011,90.999 295.0525,91.1311 296.3622,92.6042 297.4907,93.8733 297.5533,95.6982 296.6255,97.0283" stroke="black" stroke-width="1" /><polyline fill="none" points="299.9173,102.4069 301.5071,101.2404 303.736,101.583 304.9024,103.1728 306.0793,104.7767 305.7297,107.0533 304.1398,108.2197 303.517,108.6768 303.0121,108.8563 302.5753,108.9003 298.1562,109.3494 293.7372,109.7986 289.3181,110.2477 289.2031,110.3321 289.0881,110.4164 288.9731,110.5008 290.3729,112.4086 291.7728,114.3164 293.1726,116.2242" stroke="black" stroke-width="1" /><polyline fill="none" points="308.2707,114.2242 312.5345,114.7711 297.8233,123.5741" stroke="black" stroke-width="1" /><polyline fill="none" points="320.2729,129.3005 316.1266,131.2802 311.9803,133.2599 307.8339,135.2395 306.039,136.0965 303.9451,135.2919 303.1249,133.5741 302.3122,131.872 303.0029,129.7375 304.7978,128.8805 306.1592,128.2305 307.5206,127.5805 308.882,126.9305 310.6769,126.0735 312.7703,126.8787 313.583,128.5808 314.4032,130.2987 313.7131,132.4325 311.9182,133.2895" stroke="black" stroke-width="1" /><polyline fill="none" points="312.6917,139.1405 314.5429,138.4612 316.5897,139.4089 317.2686,141.2594 317.954,143.1273 316.9999,145.1574 315.1487,145.8367 314.1939,146.187 313.2391,146.5374 312.2843,146.8877 310.4331,147.567 308.393,146.6355 307.7076,144.7675 307.0287,142.917 307.9761,140.8707 309.8273,140.1915 313.0249,139.0182 316.2225,137.8449 319.4201,136.6717 321.2709,135.9926 323.3174,136.9403 323.9964,138.7908 324.5814,140.3852 323.9711,142.1061 322.6204,143.0038" stroke="black" stroke-width="1" /><polyline fill="none" points="328.382,153.5727 328.1285,152.612 327.3381,151.9691 326.1114,152.2926 324.9234,152.606 323.7354,152.9193 322.5474,153.2327 322.7019,153.8183 322.8564,154.4039 323.0108,154.9895 322.7135,153.8622 322.4161,152.7348 322.1188,151.6075 322.2617,152.1492 322.4045,152.691 322.5474,153.2327 318.895,154.1961 315.2425,155.1595 311.59,156.1229" stroke="black" stroke-width="1" /><polyline fill="none" points="327.9575,169.0549 324.2087,167.2655 320.4599,165.4761 316.7111,163.6867 320.0714,163.1302 323.4317,162.5737 326.792,162.0173 328.7374,161.6951 330.5713,163.0086 330.8934,164.9532 331.2184,166.9162 329.9028,168.7327 327.9575,169.0549 324.5972,169.6114 321.2369,170.1678 317.8766,170.7243 315.9312,171.0465 314.101,169.7509 313.7787,167.8052 313.4538,165.8432 314.7657,164.0089 316.7111,163.6867" stroke="black" stroke-width="1" /><polyline fill="none" points="323.0841,175.531 325.0682,175.3912 326.7213,176.907 326.8551,178.806 326.9888,180.7042 325.5634,182.4205 323.5793,182.5602 322.0744,182.6663 320.5695,182.7723 319.0646,182.8783 317.0809,183.0181 315.4282,181.5186 315.2944,179.6204 315.1606,177.7215 316.5869,176.0055 318.5706,175.8658 318.5702,175.8602 318.5698,175.8546 318.5694,175.849 323.1527,175.5261 327.736,175.2032 332.3194,174.8804" stroke="black" stroke-width="1" /><polyline fill="none" points="332.6845,194.7964 332.7326,192.7449 332.7807,190.6934 332.8289,188.6418 330.1263,188.5785 327.4237,188.5151 324.7211,188.4517 325.9227,189.1315 326.604,190.0914 326.569,191.5824 326.5208,193.6394 324.7863,195.1935 322.8843,195.1489 321.5245,195.1171 320.1647,195.0852 318.8049,195.0533 316.8168,195.0067 315.397,193.3786 315.4409,191.5098 315.4843,189.6588 316.9784,188.1162 318.9665,188.1628" stroke="black" stroke-width="1" /><polyline fill="none" points="314.4663,206.001 318.7402,206.5043 319.4542,200.4414 331.5446,207.5634" stroke="black" stroke-width="1" /><polyline fill="none" points="322.377,220.9716 320.4489,220.5587 319.2207,218.6819 319.6337,216.7538 320.0503,214.8089 321.9428,213.5841 323.8709,213.9971 324.8656,214.2102 325.8604,214.4232 326.8551,214.6363 328.7832,215.0493 330.0087,216.9419 329.5956,218.8704 329.1791,220.8149 327.2893,222.0238 325.3612,221.6108 322.0307,220.8975 318.7001,220.1841 315.3696,219.4707 313.4419,219.0578 312.2133,217.181 312.6263,215.2529 312.9818,213.5933 314.4166,212.4622 316.0383,212.4235" stroke="black" stroke-width="1" /><polyline fill="none" points="323.8241,227.4002 325.7051,227.9919 326.7474,229.9915 326.1557,231.8725 325.5587,233.7702 323.5164,234.835 321.6354,234.2433 320.8985,234.0115 320.4551,233.7106 320.1612,233.3845 317.1849,230.0873 314.2086,226.7901 311.2322,223.4929 311.0962,223.4501 310.9601,223.4073 310.8241,223.3645 310.114,225.6217 309.4039,227.8789 308.6938,230.1362" stroke="black" stroke-width="1" /><polyline fill="none" points="307.5542,242.3896 305.7214,241.6178 304.9246,239.5334 305.6633,237.7793 306.4019,236.0251 308.4563,235.1231 310.2891,235.8949 311.6794,236.4804 313.0698,237.0658 314.4602,237.6513 316.2933,238.4232 317.0829,240.5229 316.3443,242.277 315.6056,244.0311 313.5584,244.9179 311.7253,244.146" stroke="black" stroke-width="1" /><polyline fill="none" points="300.4676,252.5029 299.9506,251.5447 299.5142,250.4352 300.5194,248.5612 301.4192,246.8837 303.5487,246.1778 305.3471,247.1425 306.6613,247.8474 307.9756,248.5524 309.2898,249.2573 311.0426,250.1975 311.6318,252.3617 310.7319,254.0392 309.8159,255.747 307.671,256.4831 305.9182,255.5429 305.2637,255.1918 304.6091,254.8407 303.9546,254.4896 305.0757,252.3995 306.1969,250.3093 307.3181,248.2191" stroke="black" stroke-width="1" /><polyline fill="none" points="303.0276,260.3645 304.6846,261.4647 305.069,263.6744 304.0161,265.2603 302.9635,266.8456 300.7868,267.3352 299.1298,266.235 297.873,265.4005 296.6162,264.5661 295.3593,263.7316 293.7026,262.6316 293.3085,260.4352 294.3611,258.8499 295.414,257.2639 297.5911,256.7751 299.2478,257.8751 299.2509,257.8704 299.254,257.8657 299.2571,257.8611 303.0849,260.4025 306.9127,262.944 310.7405,265.4855" stroke="black" stroke-width="1" /><polyline fill="none" points="298.6988,281.9072 295.1258,279.0184 291.5528,276.1297 287.9798,273.241 286.4331,271.9905 286.257,269.7542 287.4538,268.2739 288.6396,266.8071 290.8634,266.5107 292.4102,267.7612 293.5833,268.7097 294.7565,269.6582 295.9296,270.6067 297.4763,271.8572 297.6517,274.0933 296.4659,275.56 295.269,277.0403 293.046,277.3369 291.4993,276.0865" stroke="black" stroke-width="1" /><polyline fill="none" points="285.9404,283.7117 284.7361,284.7994 284.5787,287.1057 285.9831,288.4776 286.31,288.7969 286.6368,289.1161 286.9637,289.4354 288.2886,290.7297 290.423,290.7037 291.7292,289.3664 293.0233,288.0417 292.974,285.8836 291.6738,284.6136 291.3469,284.2943 291.0201,283.975 290.6932,283.6557 289.368,282.3612 287.2344,282.387 285.9404,283.7117 284.5146,285.1713 282.2097,285.1511 280.7997,283.7737 280.3172,283.3025 279.8347,282.8312 279.3523,282.3599 277.942,280.9823 277.8918,278.702 279.3176,277.2424 280.7314,275.795 283.0115,275.7925 284.4218,277.1702 284.9123,277.6492 285.4027,278.1283 285.8932,278.6074 287.1021,279.7884 287.4094,282.0627" stroke="black" stroke-width="1" /><polyline fill="none" points="282.2102,293.5916 283.4855,295.0955 283.3005,297.3428 281.7966,298.6182 280.2793,299.9048 277.9838,299.7161 276.7085,298.2122 276.2089,297.623 275.9943,297.132 275.9196,296.6993 275.1611,292.3228 274.4025,287.9461 273.644,283.5695 273.5517,283.4608 273.4595,283.352 273.3672,283.2432 271.5625,284.7737 269.7578,286.3041 267.9531,287.8345" stroke="black" stroke-width="1" /><polyline fill="none" points="268.7191,308.4739 270.4016,307.299 272.0841,306.1242 273.7666,304.9493 272.2189,302.7329 270.6713,300.5165 269.1236,298.3 269.2863,299.671 268.9155,300.7881 267.6926,301.6419 266.0056,302.8199 263.7265,302.3409 262.6373,300.7809 261.8586,299.6658 261.0799,298.5506 260.3012,297.4354 259.1627,295.8049 259.6354,293.6971 261.1681,292.6268 262.6861,291.5668 264.8137,291.8589 265.9522,293.4894" stroke="black" stroke-width="1" /><polyline fill="none" points="249.9209,303.8493 248.9401,302.1193 249.5811,299.9819 251.2367,299.0431 252.8924,298.1044 255.0703,298.6436 256.0512,300.3736 256.7953,301.6859 257.5393,302.9983 258.2834,304.3106 259.2644,306.0409 258.6085,308.186 256.9528,309.1248 255.2971,310.0635 253.1342,309.5166 252.1532,307.7863" stroke="black" stroke-width="1" /><polyline fill="none" points="238.1627,305.5787 239.9254,309.5045 245.4946,307.004 245.5913,321.0359" stroke="black" stroke-width="1" /><polyline fill="none" points="237.1906,320.6176 237.8263,322.4842 236.8307,324.5075 234.9641,325.1431 233.0809,325.7844 231.0143,324.7678 230.3786,322.9012 230.1295,322.1699 230.1098,321.6344 230.1989,321.2045 231.0965,316.8543 231.9942,312.5042 232.8919,308.154 232.8459,308.019 232.7999,307.8839 232.754,307.7489 230.514,308.5117 228.274,309.2745 226.0341,310.0373" stroke="black" stroke-width="1" /><polyline fill="none" points="224.5284,324.826 224.9426,326.5605 223.8584,328.4414 221.9735,328.8916 220.0896,329.3416 218.2745,328.2405 217.8046,326.2729 217.7303,325.9618 217.656,325.6507 217.5816,325.3395 216.8647,322.3378 219.3636,321.2125 219.6978,321.1328 220.02,321.0558 220.3423,320.9788 220.6645,320.9019 220.3423,320.9788 220.02,321.0558 219.6978,321.1328 218.7133,321.3679 216.3331,320.7022 215.7756,318.3681 215.6123,317.6842 215.4489,317.0004 215.2856,316.3165 214.8237,314.3826 216.0253,312.4737 217.9599,312.0116 219.9112,311.5455 221.8284,312.7096 222.2903,314.6435" stroke="black" stroke-width="1" /><polyline fill="none" points="204.6705,328.375 206.5473,324.6692 208.4241,320.9634 210.3009,317.2576 210.7784,320.63 211.256,324.0024 211.7335,327.3748 212.01,329.3272 210.6539,331.1299 208.7023,331.4062 206.7322,331.6852 204.947,330.3274 204.6705,328.375 204.193,325.0026 203.7154,321.6301 203.2379,318.2577 202.9614,316.3053 204.2996,314.506 206.2523,314.2294 208.2213,313.9506 210.0244,315.3052 210.3009,317.2576" stroke="black" stroke-width="1" /><polyline fill="none" points="194.8646,324.5859 193.2421,324.5605 191.5544,326.1404 191.6465,328.1015 191.6679,328.5579 191.6893,329.0143 191.7107,329.4708 191.7975,331.3209 193.3766,332.7571 195.2439,332.6695 197.0937,332.5827 198.5291,330.9704 198.4439,329.1548 198.4225,328.6984 198.401,328.2419 198.3796,327.7855 198.2928,325.935 196.7144,324.4991 194.8646,324.5859 192.8264,324.6816 191.1541,323.0953 191.0617,321.1263 191.0301,320.4527 190.9985,319.779 190.9669,319.1053 190.8745,317.1359 192.3925,315.4336 194.4307,315.338 196.4517,315.2431 198.1214,316.7959 198.2138,318.7652 198.2459,319.4501 198.2781,320.1349 198.3102,320.8198 198.3894,322.508 197.0636,324.3812" stroke="black" stroke-width="1" /><polyline fill="none" points="179.8411,332.4163 180.8336,332.4629 181.6841,331.9017 181.7436,330.6345 181.8012,329.4073 181.8588,328.18 181.9164,326.9527 181.3114,326.9243 180.7065,326.8959 180.1015,326.8676 181.2661,326.9222 182.4307,326.9769 183.5953,327.0315 183.0356,327.0052 182.476,326.979 181.9164,326.9527 182.0934,323.1795 182.2705,319.4062 182.4475,315.633" stroke="black" stroke-width="1" /><polyline fill="none" points="172.076,328.5468 171.826,330.3124 170.1281,331.6653 168.2093,331.3936 166.2915,331.122 165.006,329.4325 165.2897,327.4296 165.3345,327.1129 165.3794,326.7961 165.4242,326.4794 165.8569,323.4237 168.5943,323.2922 168.9344,323.3404 169.2625,323.3868 169.5905,323.4333 169.9186,323.4797 169.5905,323.4333 169.2625,323.3868 168.9344,323.3404 167.9323,323.1985 165.9615,321.707 166.2979,319.331 166.3965,318.6348 166.4951,317.9387 166.5937,317.2425 166.8724,315.2738 168.6899,313.9379 170.6593,314.2168 172.6456,314.498 174.003,316.2835 173.7242,318.2522" stroke="black" stroke-width="1" /><polyline fill="none" points="160.4847,320.7733 160.0226,322.7078 158.0806,323.8299 156.229,323.3877 154.3781,322.9456 153.1687,321.0709 153.6308,319.1363 153.9812,317.6689 154.3317,316.2016 154.6822,314.7342 155.1441,312.8 157.0704,311.6733 158.9213,312.1154 160.7728,312.5576 161.9817,314.433 161.5197,316.3673 161.5252,316.3686 161.5306,316.3699 161.5361,316.3712 160.4687,320.8401 159.4013,325.3091 158.334,329.7781" stroke="black" stroke-width="1" /><polyline fill="none" points="146.2509,323.0283 145.6761,324.7163 143.7556,325.7289 141.9212,325.1042 140.0877,324.4798 139.1398,322.5802 139.7919,320.6653 139.895,320.3625 139.9981,320.0597 140.1012,319.7568 141.0961,316.8354 143.81,317.2167 144.1352,317.3275 144.4489,317.4343 144.7625,317.541 145.0761,317.6479 144.7625,317.541 144.4489,317.4343 144.1352,317.3275 143.1771,317.0012 141.5189,315.1684 142.2925,312.8968 142.5192,312.2312 142.7458,311.5656 142.9725,310.9 143.6135,309.0179 145.6481,308.0443 147.5309,308.6854 149.43,309.3322 150.4307,311.3394 149.7897,313.2216" stroke="black" stroke-width="1" /><polyline fill="none" points="134.0399,318.3458 133.2323,320.1447 131.1245,320.946 129.3256,320.1383 127.5108,319.3235 126.6921,317.1707 127.4997,315.3718 127.8161,314.6671 128.1668,314.2619 128.525,314.0081 132.1477,311.4379 135.7704,308.8676 139.3931,306.2974 139.4515,306.1672 139.5099,306.0371 139.5683,305.907 137.4096,304.9378 135.2509,303.9686 133.0923,302.9994" stroke="black" stroke-width="1" /><polyline fill="none" points="123.4842,297.8012 121.3617,301.5447 126.6723,304.5557 115.4163,312.9345" stroke="black" stroke-width="1" /><polyline fill="none" points="113.5347,291.2327 111.071,294.761 116.0764,298.2561 104.0852,305.5441" stroke="black" stroke-width="1" /><polyline fill="none" points="101.3678,285.8959 102.6539,284.3792 104.8814,284.2446 106.333,285.4756 107.7846,286.7066 108.0286,288.937 106.7424,290.4537 105.7667,291.6043 104.791,292.7549 103.8152,293.9055 102.5288,295.4225 100.289,295.5456 98.8374,294.3146 97.3858,293.0836 97.1541,290.8647 98.4406,289.3477" stroke="black" stroke-width="1" /><polyline fill="none" points="82.8455,287.0181 86.1323,283.8074 89.4191,280.5968 92.7059,277.3862 94.1287,275.9963 96.3702,276.083 97.7004,277.4447 99.0184,278.794 99.0527,281.0372 97.6299,282.427 96.5507,283.4812 95.4715,284.5354 94.3923,285.5895 92.9695,286.9794 90.7283,286.892 89.4103,285.5428 88.0801,284.181 88.0455,281.9386 89.4683,280.5487" stroke="black" stroke-width="1" /><polyline fill="none" points="86.8499,275.2595 85.3165,276.4992 83.0736,276.2619 81.8343,274.7291 80.5833,273.1818 80.8321,270.9525 82.3655,269.7128 83.1564,269.0733 83.9473,268.4339 84.7382,267.7945 86.2716,266.5547 88.503,266.7788 89.754,268.3261 90.9932,269.8589 90.756,272.1014 89.2226,273.3412 86.574,275.4826 83.9253,277.624 81.2766,279.7655 79.7435,281.005 77.5008,280.7675 76.2615,279.2347 75.1937,277.914 75.2167,276.0882 76.2058,274.803" stroke="black" stroke-width="1" /><polyline fill="none" points="72.9279,269.2832 71.4423,270.2696 69.303,269.8997 68.2311,268.2852 67.1598,266.6716 67.5681,264.5883 69.2534,263.4694 69.5199,263.2924 69.7864,263.1155 70.0529,262.9385 72.624,261.2314 74.5411,263.1898 74.7312,263.476 74.9145,263.752 75.0977,264.028 75.281,264.3041 75.0977,264.028 74.9145,263.752 74.7312,263.476 74.1713,262.6328 73.9764,260.1689 75.9756,258.8416 76.5613,258.4527 77.1471,258.0638 77.7328,257.6748 79.3893,256.575 81.5953,257.0456 82.6955,258.7026 83.8051,260.3739 83.3728,262.5747 81.7163,263.6745" stroke="black" stroke-width="1" /><polyline fill="none" points="65.1672,258.8251 63.0821,259.9435 59.7181,253.6721 77.1845,249.9659" stroke="black" stroke-width="1" /><polyline fill="none" points="62.1405,238.2065 62.1355,238.2086 62.1304,238.2108 62.1254,238.2129 64.2741,237.308 66.4229,236.4032 68.5717,235.4984 69.5648,235.0802 69.6525,234.2228 69.4335,233.7028 69.7131,234.3667 69.3791,235.1584 68.6977,235.4453 68.6557,235.463 68.6137,235.4807 68.5717,235.4984 69.8983,236.131 71.036,237.0656 71.6147,238.4399 72.0938,239.5778 72.3033,241.6664 69.9807,242.6444 68.7638,243.1568 67.704,242.8036 66.8812,241.9964 66.476,241.6094 65.5429,240.2336 64.9118,239.3093 64.2585,238.3753 63.3574,237.6941 62.1405,238.2065 60.9081,238.7255 59.9494,240.5991 60.7477,242.4951 61.4998,244.2811 62.7145,244.7369 63.7399,244.9193" stroke="black" stroke-width="1" /><polyline fill="none" points="66.4165,224.129 62.3115,225.4203 64.1434,231.2438 50.1965,229.6987" stroke="black" stroke-width="1" /><polyline fill="none" points="53.068,213.7118 54.9961,213.2988 56.8852,214.5079 57.2982,216.436 57.7148,218.3809 56.49,220.2734 54.5619,220.6864 53.5672,220.8994 52.5724,221.1125 51.5777,221.3256 49.6496,221.7385 47.7564,220.5139 47.3433,218.5854 46.9268,216.6409 48.1557,214.764 50.0838,214.351 53.4143,213.6376 56.7449,212.9243 60.0754,212.2109 62.0032,211.798 63.8926,213.007 64.3056,214.9351 64.6611,216.5947 63.8154,218.2142 62.3519,218.9137" stroke="black" stroke-width="1" /><polyline fill="none" points="48.2844,201.3871 51.9452,203.3502 55.606,205.3134 59.2668,207.2765 55.884,207.6749 52.5014,208.0732 49.1187,208.4716 47.1604,208.7022 45.39,207.3042 45.1595,205.3466 44.9268,203.3706 46.326,201.6177 48.2844,201.3871 51.6671,200.9887 55.0498,200.5904 58.4324,200.192 60.3908,199.9614 62.1583,201.3413 62.389,203.3 62.6215,205.275 61.2251,207.0459 59.2668,207.2765" stroke="black" stroke-width="1" /><polyline fill="none" points="52.3023,191.6726 52.3657,190.0511 50.8259,188.3269 48.8631,188.373 48.4063,188.3837 47.9495,188.3944 47.4928,188.4051 45.641,188.4485 44.1682,189.9935 44.2121,191.8624 44.2555,193.7137 45.8337,195.1864 47.6508,195.1438 48.1076,195.1331 48.5643,195.1224 49.0211,195.1117 50.8732,195.0683 52.3457,193.524 52.3023,191.6726 52.2544,189.6328 53.8795,187.9981 55.8501,187.9519 56.5243,187.9361 57.1985,187.9203 57.8728,187.9045 59.8438,187.8582 61.5101,189.4157 61.5579,191.4556 61.6053,193.4783 60.0138,195.1111 58.0429,195.1574 57.3574,195.1734 56.672,195.1895 55.9866,195.2056 54.297,195.2452 52.4554,193.8758" stroke="black" stroke-width="1" /><polyline fill="none" points="47.6453,181.9586 45.8664,181.8333 44.3976,180.2346 44.5338,178.3015 44.6699,176.3694 46.2648,174.9683 48.2828,175.1105 48.6019,175.133 48.921,175.1555 49.2401,175.1779 52.3186,175.3948 52.6421,178.1162 52.618,178.4589 52.5947,178.7894 52.5714,179.1199 52.5481,179.4504 52.5714,179.1199 52.5947,178.7894 52.618,178.4589 52.6891,177.4492 54.0384,175.3785 56.4322,175.5471 57.1336,175.5966 57.8349,175.646 58.5363,175.6954 60.5197,175.8351 61.98,177.5542 61.8403,179.5383 61.6993,181.5395 60.0136,183.019 58.0302,182.8793" stroke="black" stroke-width="1" /><polyline fill="none" points="63.4924,165.1139 59.2469,164.4108 58.2495,170.4336 46.5061,162.7527" stroke="black" stroke-width="1" /><polyline fill="none" points="56.2922,149.7889 58.1988,150.2918 59.3376,152.2241 58.8347,154.1307 58.3275,156.0539 56.3797,157.1887 54.473,156.6858 53.4893,156.4263 52.5057,156.1669 51.522,155.9074 49.6154,155.4045 48.48,153.4565 48.983,151.5495 49.4902,149.6266 51.4346,148.5076 53.3412,149.0105 56.6346,149.8792 59.9281,150.7479 63.2215,151.6166 65.1278,152.1194 66.267,154.0518 65.7641,155.9584 65.3312,157.5995 63.8449,158.6621 62.2233,158.6248" stroke="black" stroke-width="1" /><polyline fill="none" points="55.148,143.2997 53.2968,142.6204 52.3493,140.5741 53.0286,138.7229 53.7139,136.8553 55.8038,135.8874 57.655,136.5666 58.3802,136.8327 58.809,137.1541 59.0873,137.4936 61.9058,140.9267 64.7243,144.3597 67.5428,147.7928 67.6767,147.842 67.8106,147.8911 67.9445,147.9402 68.7596,145.7188 69.5747,143.4973 70.3898,141.2759" stroke="black" stroke-width="1" /><polyline fill="none" points="59.2242,124.667 58.7961,125.5637 58.9832,126.5653 60.128,127.1119 61.2367,127.6412 62.3455,128.1706 63.4542,128.7 63.7151,128.1535 63.9761,127.6069 64.237,127.0604 63.7347,128.1125 63.2323,129.1646 62.73,130.2167 62.9714,129.7112 63.2128,129.2056 63.4542,128.7 66.863,130.3275 70.2718,131.9551 73.6805,133.5826" stroke="black" stroke-width="1" /><polyline fill="none" points="72.2376,114.6047 73.9297,115.6172 74.4873,117.7897 73.4748,119.4817 72.4535,121.1885 70.2672,121.7378 68.5751,120.7253 67.7022,120.203 66.8292,119.6806 65.9563,119.1583 64.2642,118.1458 63.7143,115.9591 64.727,114.2668 65.7481,112.5603 67.9267,112.0251 69.6188,113.0376 72.5415,114.7865 75.4643,116.5355 78.3871,118.2844 80.0788,119.2967 80.6367,121.4694 79.6242,123.1614 78.7528,124.6178 77.0299,125.226 75.4824,124.7399" stroke="black" stroke-width="1" /><polyline fill="none" points="85.2216,108.4278 86.825,109.6042 87.1157,111.8167 85.9898,113.3512 84.8639,114.8858 82.6562,115.2859 81.0528,114.1095 79.8365,113.217 78.6201,112.3245 77.4038,111.4321 75.8002,110.2554 75.5199,108.0298 76.6459,106.4953 77.7718,104.9608 79.969,104.5738 81.5726,105.7504" stroke="black" stroke-width="1" /><polyline fill="none" points="86.2989,102.3903 84.8254,101.08 84.693,98.8284 86.0027,97.3553 87.3249,95.8684 89.5649,95.7496 91.0385,97.0598 91.7985,97.7357 92.5586,98.4115 93.3186,99.0873 94.7922,100.3975 94.9357,102.6356 93.6136,104.1225 92.3038,105.5956 90.0527,105.7279 88.5791,104.4177 86.0337,102.1544 83.4883,99.8912 80.9429,97.628 79.4696,96.318 79.3375,94.0666 80.6473,92.5935 81.7757,91.3244 83.5807,91.0487 85.0103,91.8146" stroke="black" stroke-width="1" /><polyline fill="none" points="95.6295,88.8257 96.8834,87.7957 97.1488,85.4993 95.8102,84.063 95.4987,83.7288 95.1871,83.3945 94.8756,83.0603 93.6128,81.7054 91.4795,81.6313 90.112,82.9059 88.7573,84.1684 88.7054,86.3265 89.9447,87.6561 90.2562,87.9903 90.5677,88.3246 90.8792,88.6588 92.1423,90.0141 94.2748,90.0883 95.6295,88.8257 97.1221,87.4345 99.4235,87.5628 100.7675,89.0047 101.2273,89.4981 101.6871,89.9914 102.147,90.4848 103.4912,91.927 103.4344,94.2072 101.9418,95.5984 100.4617,96.9779 98.184,96.8735 96.8398,95.4312 96.3723,94.9297 95.9049,94.4281 95.4374,93.9266 94.2851,92.6903 94.0848,90.4041" stroke="black" stroke-width="1" /><polyline fill="none" points="112.9979,86.1612 110.3715,82.7522 105.5355,86.4781 102.1818,72.8525" stroke="black" stroke-width="1" /><polyline fill="none" points="115.8435,73.2571 117.2675,72.479 117.9564,70.2723 116.9091,68.6117 116.6653,68.2252 116.4216,67.8387 116.1778,67.4522 115.1898,65.8856 113.1077,65.4151 111.5266,66.4123 109.9602,67.4001 109.5068,69.5106 110.4764,71.048 110.7202,71.4345 110.9639,71.8209 111.2076,72.2074 112.1959,73.7744 114.2771,74.245 115.8435,73.2571 117.5693,72.1686 119.8065,72.7237 120.858,74.391 121.2178,74.9614 121.5775,75.5319 121.9373,76.1024 122.989,77.7699 122.5081,79.9995 120.7823,81.088 119.0709,82.1673 116.8526,81.64 115.8009,79.9725 115.4351,79.3926 115.0694,78.8126 114.7037,78.2327 113.8021,76.8032 114.0316,74.5198" stroke="black" stroke-width="1" /><polyline fill="none" points="132.5533,70.3986 133.452,72.1726 132.7115,74.2777 131.0136,75.1377 129.3158,75.9978 127.1655,75.3571 126.2669,73.5831 125.5851,72.2373 124.9034,70.8915 124.2216,69.5457 123.3228,67.7714 124.0786,65.6594 125.7764,64.7993 127.4743,63.9392 129.6092,64.5868 130.5081,66.3612" stroke="black" stroke-width="1" /><polyline fill="none" points="138.6059,61.7306 140.15,61.2316 141.2383,59.1921 140.519,57.3654 140.3516,56.9402 140.1841,56.5151 140.0167,56.0899 139.3381,54.3665 137.3803,53.516 135.641,54.2009 133.9179,54.8794 133.0789,56.8683 133.7449,58.5595 133.9123,58.9847 134.0797,59.4098 134.2471,59.835 134.9258,61.5587 136.8828,62.4091 138.6059,61.7306 140.5044,60.9831 142.5988,61.9455 143.321,63.7796 143.5681,64.4072 143.8152,65.0347 144.0623,65.6622 144.7846,67.4966 143.8964,69.5975 141.9979,70.345 140.1153,71.0863 138.0342,70.1547 137.3119,68.3203 137.0607,67.6823 136.8095,67.0444 136.5583,66.4064 135.9391,64.8339 136.5903,62.6333" stroke="black" stroke-width="1" /><polyline fill="none" points="151.2387,49.0711 149.2673,49.6408 147.2959,50.2106 145.3244,50.7803 146.075,53.3774 146.8255,55.9744 147.5761,58.5714 147.864,57.2212 148.5751,56.2833 150.008,55.8692 151.9846,55.2979 153.9876,56.4861 154.5159,58.3139 154.8935,59.6206 155.2711,60.9273 155.6488,62.2339 156.2009,64.1444 155.0739,65.9873 153.278,66.5063 151.4993,67.0204 149.5795,66.058 149.0274,64.1476" stroke="black" stroke-width="1" /><polyline fill="none" points="160.0938,57.9127 159.7262,55.9755 160.9955,54.111 162.932,53.7435 164.8869,53.3725 166.7338,54.6455 167.1015,56.5828 167.2911,57.582 167.4808,58.5812 167.6704,59.5804 168.0381,61.5177 166.7858,63.3782 164.831,63.7492 162.8944,64.1167 161.0304,62.8477 160.6628,60.9104 160.0276,57.5641 159.3926,54.2177 158.7575,50.8714 158.3899,48.9345 159.6592,47.0704 161.5958,46.7029 163.2643,46.3862 164.8624,47.2695 165.5274,48.7486" stroke="black" stroke-width="1" /><polyline fill="none" points="256.3912,236.1967 136.578,231.1149 239.8942,231.6324 268.1431,236.6952 188.2428,253.3668 140.3048,268.1431 268.4255,140.8637 140.8637,108.5745 140.8637,108.5745 189.0084,152.2515" stroke="black" stroke-width="1" /><polyline fill="none" points="200.8633,139.184 177.1536,165.319" stroke="black" stroke-width="1" /><polyline fill="none" points="279.9055,236.6952 279.7607,234.8551 279.3298,233.0604 278.6234,231.3551 277.6591,229.7814 276.4604,228.3779 275.0569,227.1792 273.4831,226.2148 271.7779,225.5085 269.9831,225.0776 268.1431,224.9328 266.303,225.0776 264.5083,225.5085 262.803,226.2148 261.2293,227.1792 259.8258,228.3779 258.6271,229.7814 257.6627,231.3551 256.9564,233.0604 256.5255,234.8551 256.3807,236.6952 256.5255,238.5352 256.9564,240.3299 257.6627,242.0352 258.6271,243.6089 259.8258,245.0124 261.2293,246.2111 262.803,247.1755 264.5083,247.8819 266.303,248.3127 268.1431,248.4576 269.9831,248.3127 271.7779,247.8819 273.4831,247.1755 275.0568,246.2111 276.4604,245.0124 277.6591,243.6089 278.6234,242.0352 279.3298,240.3299 279.7607,238.5352 279.9055,236.6952" stroke="black" stroke-width="1" /><polyline fill="none" points="188.5,69.0664 199.6839,69.5912 210.7696,71.161 221.6595,73.7619 232.2581,77.3712 242.4721,81.9571 252.2118,87.4792 261.3915,93.8892 269.9308,101.1306 277.7544,109.1398 284.7936,117.8464 290.9866,127.1739 296.2789,137.0404 300.6241,147.3591 303.9839,158.0393 306.3289,168.9873 307.6383,180.1067 307.9008,191.2998 307.114,202.4684 305.2847,213.5142 302.4292,224.3402 298.5725,234.8512 293.7484,244.9549 287.9994,254.5625 281.376,263.5894 273.9365,271.9565 265.7461,279.5902 256.8768,286.4234 247.4067,292.3961 237.4188,297.4556 227.0011,301.5577 216.2451,304.6663 205.2452,306.7539 194.0981,307.8023 182.9019,307.8023 171.7548,306.7539 160.7549,304.6663 149.9989,301.5577 139.5811,297.4556 129.5933,292.3961 120.1232,286.4234 111.2539,279.5902 103.0635,271.9565 95.6239,263.5894 89.0006,254.5625 83.2516,244.9549 78.4275,234.8512 74.5708,224.3402 71.7153,213.5142 69.8861,202.4684 69.0992,191.2998 69.3617,180.1067 70.6712,168.9872 73.0161,158.0393 76.3759,147.3591 80.7211,137.0404 86.0134,127.174 92.2064,117.8464 99.2457,109.1398 107.0692,101.1306 115.6085,93.8892 124.7882,87.4792 134.5279,81.957 144.7419,77.3712 155.3405,73.7619 166.2304,71.161 177.3161,69.5912 188.5,69.0664" stroke="black" stroke-width="1" />

    </g>
  </g>
  <WCB
     pausedposy="0"
     pausedposx="0"
     lastknownposy="0"
     lastknownposx="0"
     lastpathnc="0"
     lastpath="0"
     node="0"
     layer="0" />
</svg>
