<?xml version="1.0" encoding="UTF-8" standalone="no"?>
<!-- Created with Inkscape (http://www.inkscape.org/) -->

<svg
   xmlns:dc="http://purl.org/dc/elements/1.1/"
   xmlns:cc="http://creativecommons.org/ns#"
   xmlns:rdf="http://www.w3.org/1999/02/22-rdf-syntax-ns#"
   xmlns:svg="http://www.w3.org/2000/svg"
   xmlns="http://www.w3.org/2000/svg"
   xmlns:sodipodi="http://sodipodi.sourceforge.net/DTD/sodipodi-0.dtd"
   xmlns:inkscape="http://www.inkscape.org/namespaces/inkscape"
   width="100mm"
   height="100mm"
   viewBox="0 0 100 100"
   version="1.1"
   id="svg19124"
   inkscape:version="0.92.3 (2405546, 2018-03-11)"
   sodipodi:docname="inkscape_template_TMP.svg"
   shape-rendering="crispEdges">
  <sodipodi:namedview
     pagecolor="#ffffff"
     bordercolor="#666666"
     borderopacity="1"
     objecttolerance="10"
     gridtolerance="10"
     guidetolerance="10"
     inkscape:pageopacity="0"
     inkscape:pageshadow="2"
     inkscape:window-width="1568"
     inkscape:window-height="1550"
     id="namedview24021"
     showgrid="false"
     inkscape:zoom="0.62441667"
     inkscape:cx="712.66515"
     inkscape:cy="409.98265"
     inkscape:window-x="0"
     inkscape:window-y="0"
     inkscape:window-maximized="0"
     inkscape:current-layer="layer1" />
  <defs
     id="defs19118" />
  <metadata
     id="metadata19121">
    <rdf:RDF>
      <cc:Work
         rdf:about="">
        <dc:format>image/svg+xml</dc:format>
        <dc:type
           rdf:resource="http://purl.org/dc/dcmitype/StillImage" />
        <dc:title />
      </cc:Work>
    </rdf:RDF>
  </metadata>
  <g
     transform="translate(0,-197)"
     id="layer1"
     inkscape:groupmode="layer"
     inkscape:label="Layer 1">
    <g
       id="g24447"
       transform="matrix(0.26458333,0,0,0.26458333,0.10666333,197.9735)">

<polyline fill="none" points="192.1004,47.7394 189.7225,51.1455 187.3447,54.5516 184.9669,57.9577 184.9669,54.5516 184.9669,51.1455 184.9669,47.7394 184.9669,45.7676 186.5623,44.1729 188.5334,44.1729 190.5231,44.1729 192.1004,45.7676 192.1004,47.7394 192.1004,51.1455 192.1004,54.5516 192.1004,57.9577 192.1004,59.9295 190.5231,61.5235 188.5509,61.5235 186.5623,61.5235 184.9669,59.9295 184.9669,57.9577" stroke="black" stroke-width="1" /><polyline fill="none" points="197.8298,61.5877 200.7471,57.7851 198.696,53.7706 202.935,62.0679 200.7471,57.7851 203.4811,54.2207" stroke="black" stroke-width="1" /><polyline fill="none" points="217.2511,47.2193 216.2749,47.034 215.3542,47.4703 215.1176,48.7167 214.8885,49.9238 214.6595,51.1308 214.4304,52.3379 215.0254,52.4508 215.6204,52.5638 216.2154,52.6767 215.0699,52.4593 213.9245,52.2419 212.7791,52.0245 213.3295,52.129 213.8799,52.2334 214.4304,52.3379 213.726,56.0491 213.0217,59.7602 212.3174,63.4713" stroke="black" stroke-width="1" /><polyline fill="none" points="229.2902,58.987 229.2917,58.9817 229.2932,58.9765 229.2947,58.9712 228.6474,61.211 228.0001,63.4509 227.3528,65.6907 227.0536,66.7259 227.6651,67.3332 228.2073,67.4898 227.5152,67.2898 227.1095,66.5324 227.3148,65.8222 227.3275,65.7784 227.3401,65.7345 227.3528,65.6907 226.0267,66.3247 224.5847,66.6217 223.1522,66.2077 221.966,65.8649 220.2102,64.7147 220.9099,62.2937 221.2765,61.0252 222.2174,60.4231 223.3624,60.2908 223.9182,60.219 225.5747,60.3583 226.6902,60.4488 227.8273,60.5279 228.9236,60.2555 229.2902,58.987 229.6614,57.7024 228.8072,55.7788 226.8309,55.2076 224.9691,54.6696 223.851,55.3276 223.0645,56.0103" stroke="black" stroke-width="1" /><polyline fill="none" points="236.814,56.2442 237.5365,54.4095 239.6044,53.5103 241.4392,54.2327 243.2902,54.9616 244.2089,57.0737 243.4865,58.9084 243.2034,59.6272 242.8721,60.0484 242.5262,60.3186 239.028,63.0559 235.5298,65.7931 232.0315,68.5304 231.9793,68.6631 231.927,68.7958 231.8748,68.9285 234.0765,69.7954 236.2782,70.6624 238.48,71.5294" stroke="black" stroke-width="1" /><polyline fill="none" points="246.4767,66.3535 247.3755,64.5792 249.5251,63.9389 251.2233,64.7992 252.9208,65.6591 253.6616,67.7635 252.7628,69.5379 252.081,70.8837 251.3993,72.2295 250.7175,73.5753 249.8189,75.3493 247.6836,75.9976 245.9861,75.1376 244.2879,74.2774 243.5477,72.1725 244.4464,70.3985 244.4414,70.3959 244.4364,70.3934 244.4314,70.3909 246.5078,66.2921 248.5841,62.1933 250.6604,58.0945" stroke="black" stroke-width="1" /><polyline fill="none" points="261.1921,73.2796 262.5079,74.2293 264.796,73.9002 265.8433,72.2396 266.0871,71.8531 266.3308,71.4666 266.5746,71.0802 267.5626,69.5135 267.0901,67.4319 265.509,66.4347 263.9426,65.4469 261.8427,65.9471 260.8732,67.4844 260.6294,67.8709 260.3857,68.2574 260.1419,68.6438 259.1537,70.2108 259.6257,72.2917 261.1921,73.2796 262.918,74.368 263.3809,76.626 262.3294,78.2933 261.9697,78.8637 261.6099,79.4342 261.2501,80.0046 260.1984,81.6722 257.9792,82.1989 256.2533,81.1104 254.542,80.0311 254.062,77.8021 255.1137,76.1345 255.4794,75.5546 255.8452,74.9747 256.2109,74.3948 257.1125,72.9653 259.272,72.1885" stroke="black" stroke-width="1" /><polyline fill="none" points="271.6621,80.5928 272.8831,81.6616 275.1921,81.5482 276.3903,79.993 276.6691,79.631 276.948,79.2691 277.2269,78.9071 278.3573,77.4399 278.0818,75.3232 276.601,74.1823 275.134,73.0521 272.9965,73.3535 271.8872,74.7933 271.6084,75.1552 271.3295,75.5172 271.0506,75.8791 269.92,77.3467 270.1951,79.4626 271.6621,80.5928 273.2784,81.8381 273.528,84.1296 272.325,85.691 271.9133,86.2253 271.5017,86.7595 271.0901,87.2938 269.8869,88.8555 267.6281,89.1721 266.0117,87.9268 264.409,86.692 264.1398,84.4278 265.343,82.8661 265.7615,82.3229 266.1799,81.7798 266.5984,81.2367 267.6298,79.8979 269.8526,79.3267" stroke="black" stroke-width="1" /><polyline fill="none" points="280.1017,95.2953 278.7458,96.75 276.5145,96.78 275.1221,95.4824 273.7298,94.1847 273.5906,91.9453 274.9465,90.4906 275.9751,89.387 277.0037,88.2833 278.0323,87.1797 279.3884,85.7247 281.6315,85.7067 283.0238,87.0044 284.4161,88.3021 284.5435,90.5294 283.1874,91.9845" stroke="black" stroke-width="1" /><polyline fill="none" points="291.6044,92.311 292.937,91.126 295.107,91.1924 296.3947,92.6406 297.6817,94.0881 297.5694,96.2081 296.0576,97.5522 295.8186,97.7648 295.5795,97.9773 295.3405,98.1899 293.0341,100.2406 290.8614,98.5704 290.6331,98.3136 290.4129,98.066 290.1927,97.8184 289.9726,97.5708 290.1927,97.8184 290.4129,98.066 290.6331,98.3136 291.3056,99.0701 291.8441,101.4822 290.0508,103.0768 289.5253,103.544 288.9998,104.0112 288.4744,104.4784 286.9885,105.7995 284.7383,105.643 283.4167,104.1565 282.0837,102.6573 282.2032,100.4176 283.6891,99.0965" stroke="black" stroke-width="1" /><polyline fill="none" points="306.9236,105.7683 303.2191,108.4864 299.5146,111.2045 295.8102,113.9226 294.2065,115.0992 291.9993,114.6992 290.8732,113.1643 289.7574,111.6436 290.0379,109.4178 291.6415,108.2412 292.8579,107.3487 294.0742,106.4563 295.2905,105.5638 296.8942,104.3872 299.101,104.7879 300.2168,106.3086 301.343,107.8434 301.0628,110.0686 299.4592,111.2452" stroke="black" stroke-width="1" /><polyline fill="none" points="308.5746,120.9756 306.8826,121.9881 304.7046,121.4526 303.6921,119.7605 302.6708,118.0538 303.2201,115.8675 304.9122,114.855 305.7851,114.3326 306.6581,113.8103 307.531,113.2879 309.2231,112.2754 311.41,112.8244 312.4226,114.5167 313.4438,116.2232 312.8856,118.3961 311.1935,119.4086 308.2707,121.1575 305.348,122.9064 302.4252,124.6554 300.7335,125.6677 298.5551,125.1323 297.5426,123.4402 296.6711,121.9839 296.9496,120.1782 298.1095,119.0442" stroke="black" stroke-width="1" /><polyline fill="none" points="308.9742,127.1239 310.7691,126.2669 312.8627,127.0716 313.6829,128.7895 314.5028,130.5067 313.8053,132.6259 312.0104,133.4829 310.649,134.1329 309.2876,134.7829 307.9261,135.433 306.1316,136.2898 304.0444,135.5002 303.2245,133.7829 302.4043,132.0651 303.1026,129.9459 304.8972,129.0891 304.8948,129.084 304.8924,129.0789 304.89,129.0739 309.0363,127.0942 313.1826,125.1145 317.3289,123.1348" stroke="black" stroke-width="1" /><polyline fill="none" points="321.886,143.3926 317.8693,142.3336 313.8526,141.2746 309.8359,140.2156 313.0335,139.0423 316.2312,137.869 319.4288,136.6958 321.2799,136.0165 323.3266,136.965 324.0056,138.8155 324.691,140.6834 323.7372,142.7134 321.886,143.3926 318.6884,144.5659 315.4908,145.7392 312.2932,146.9125 310.442,147.5917 308.4023,146.6601 307.7229,144.8086 307.0379,142.9417 307.9847,140.8948 309.8359,140.2156" stroke="black" stroke-width="1" /><polyline fill="none" points="312.1193,158.6325 316.2804,157.535 314.7234,151.632 328.5825,153.8291" stroke="black" stroke-width="1" /><polyline fill="none" points="316.2582,170.8657 315.2638,170.4222 314.241,169.8096 313.8936,167.7117 313.5825,165.8336 314.8386,163.9748 316.852,163.6414 318.3233,163.3977 319.7946,163.1541 321.266,162.9104 323.2282,162.5855 325.0158,163.9402 325.3268,165.8183 325.6434,167.7302 324.3936,169.6224 322.4313,169.9473 321.6985,170.0687 320.9657,170.19 320.233,170.3114 319.8454,167.9714 319.4579,165.6314 319.0704,163.2914" stroke="black" stroke-width="1" /><polyline fill="none" points="323.0841,175.531 325.0682,175.3912 326.7213,176.907 326.8551,178.806 326.9888,180.7042 325.5634,182.4205 323.5793,182.5602 322.0744,182.6663 320.5695,182.7723 319.0646,182.8783 317.0809,183.0181 315.4282,181.5186 315.2944,179.6204 315.1606,177.7215 316.5869,176.0055 318.5706,175.8658 318.5702,175.8602 318.5698,175.8546 318.5694,175.849 323.1527,175.5261 327.736,175.2032 332.3194,174.8804" stroke="black" stroke-width="1" /><polyline fill="none" points="329.1375,195.3991 325.7881,192.9421 322.4387,190.4851 319.0893,188.0281 322.4944,188.1079 325.8996,188.1878 329.3047,188.2676 331.276,188.3139 332.8329,189.9462 332.7867,191.9168 332.74,193.906 331.1088,195.4454 329.1375,195.3991 325.7324,195.3193 322.3272,195.2395 318.9221,195.1596 316.9507,195.1134 315.3942,193.4992 315.4404,191.5276 315.487,189.5395 317.118,187.9819 319.0893,188.0281" stroke="black" stroke-width="1" /><polyline fill="none" points="323.7973,204.4543 323.5071,206.0509 324.79,207.9739 326.7398,208.2036 327.1936,208.257 327.6474,208.3104 328.1012,208.3639 329.9406,208.5805 331.6155,207.2573 331.8342,205.4007 332.0508,203.5616 330.6946,201.8821 328.8895,201.6695 328.4357,201.6161 327.9819,201.5627 327.5281,201.5092 325.6883,201.2926 324.0139,202.6151 323.7973,204.4543 323.5587,206.4807 321.7205,207.8714 319.7628,207.6409 319.093,207.562 318.4232,207.4831 317.7534,207.4042 315.7955,207.1736 314.364,205.3979 314.6026,203.3715 314.8393,201.3621 316.644,199.9685 318.6019,200.1991 319.2829,200.2793 319.9638,200.3595 320.6447,200.4397 322.3232,200.6373 323.9546,202.2514" stroke="black" stroke-width="1" /><polyline fill="none" points="328.9819,221.5707 329.4117,219.5641 329.8415,217.5575 330.2712,215.5509 327.6279,214.9847 324.9846,214.4185 322.3412,213.8524 323.395,214.7443 323.8853,215.8143 323.5729,217.2727 323.142,219.2847 321.1482,220.4881 319.2878,220.0896 317.9578,219.8048 316.6278,219.5199 315.2978,219.235 313.3532,218.8185 312.262,216.9543 312.6535,215.1264 313.0413,213.3159 314.7968,212.079 316.7413,212.4955" stroke="black" stroke-width="1" /><polyline fill="none" points="324.988,227.5847 327.2451,228.2948 325.1095,235.0835 310.2533,225.1787" stroke="black" stroke-width="1" /><polyline fill="none" points="313.9745,245.3649 312.1572,244.5996 311.3005,242.5268 312.0657,240.7095 312.8377,238.8764 314.9253,238.026 316.7426,238.7912 317.6802,239.186 318.6178,239.5808 319.5553,239.9756 321.3726,240.7409 322.2237,242.8288 321.4583,244.6465 320.6865,246.4792 318.6045,247.3146 316.7872,246.5493 313.648,245.2274 310.5089,243.9056 307.3698,242.5837 305.5529,241.8186 304.6959,239.7456 305.4611,237.9283 306.1198,236.3641 307.7404,235.5204 309.3408,235.7848" stroke="black" stroke-width="1" /><polyline fill="none" points="314.1975,251.9505 315.9352,252.8826 316.5864,255.0415 315.6543,256.7791 314.714,258.5322 312.5089,259.1976 310.7713,258.2655 310.0905,257.9003 309.711,257.5221 309.483,257.1469 307.1737,253.3526 304.8644,249.5582 302.5551,245.7639 302.4294,245.6965 302.3037,245.629 302.178,245.5616 301.0595,247.6469 299.941,249.7321 298.8225,251.8173" stroke="black" stroke-width="1" /><polyline fill="none" points="306.9614,271.1776 303.1335,268.6361 299.3058,266.0946 295.478,263.5532 293.8209,262.453 293.4362,260.243 294.4891,258.6572 295.5324,257.0858 297.7187,256.5825 299.3757,257.6826 300.6325,258.5171 301.8893,259.3516 303.1462,260.186 304.8032,261.2862 305.1871,263.496 304.1439,265.0674 303.0909,266.6533 300.9055,267.1567 299.2484,266.0566" stroke="black" stroke-width="1" /><polyline fill="none" points="298.8748,281.4851 300.165,279.8893 301.4551,278.2935 302.7453,276.6978 300.6431,274.9981 298.541,273.2985 296.4388,271.5989 296.9757,272.8708 296.9296,274.0469 295.9919,275.2068 294.6982,276.8068 292.3758,276.9793 290.8963,275.7832 289.8386,274.928 288.7809,274.0729 287.7231,273.2177 286.1767,271.9674 286.0456,269.8112 287.2209,268.3575 288.3849,266.9178 290.51,266.6077 292.0565,267.8579" stroke="black" stroke-width="1" /><polyline fill="none" points="278.2959,281.0733 278.0652,280.0092 277.954,278.8222 279.4399,277.301 280.7702,275.9392 283.0119,275.8524 284.4718,277.2784 285.5386,278.3205 286.6055,279.3626 287.6723,280.4048 289.0951,281.7946 289.0603,284.0373 287.7301,285.399 286.3759,286.7853 284.111,286.897 282.6882,285.5071 282.1568,284.9881 281.6255,284.4691 281.0942,283.9501 282.7516,282.2534 284.4089,280.5566 286.0663,278.86" stroke="black" stroke-width="1" /><polyline fill="none" points="281.3456,294.5265 281.5026,298.8223 270.4145,285.747" stroke="black" stroke-width="1" /><polyline fill="none" points="272.7668,302.7615 274.1215,304.7015 268.2866,308.7759 262.563,291.8628" stroke="black" stroke-width="1" /><polyline fill="none" points="260.9714,309.2217 261.944,310.9371 261.3431,313.1105 259.6277,314.0831 257.8972,315.0643 255.6772,314.4508 254.7046,312.7354 254.3236,312.0634 254.2044,311.541 254.2117,311.1021 254.2825,306.6608 254.3533,302.2195 254.4241,297.7782 254.3537,297.6541 254.2834,297.5301 254.213,297.406 252.1546,298.5731 250.0962,299.7402 248.0377,300.9073" stroke="black" stroke-width="1" /><polyline fill="none" points="241.1551,313.6595 241.1573,313.6645 241.1595,313.6695 241.1618,313.6745 240.2068,311.5475 239.2519,309.4206 238.2969,307.2936 237.8555,306.3106 236.9964,306.243 236.4816,306.4741 237.1388,306.1791 237.938,306.4944 238.2409,307.1688 238.2595,307.2104 238.2782,307.252 238.2969,307.2936 238.8982,305.9525 239.806,304.7932 241.1663,304.1825 242.2926,303.6768 244.3757,303.4184 245.4079,305.7174 245.9487,306.922 245.6205,307.9898 244.8328,308.8312 244.4554,309.2454 243.1019,310.2105 242.1925,310.8631 241.2741,311.5381 240.6142,312.455 241.1551,313.6595 241.7028,314.8794 243.5984,315.794 245.4751,314.9514 247.243,314.1576 247.6702,312.9326 247.8285,311.9031" stroke="black" stroke-width="1" /><polyline fill="none" points="226.9811,309.7147 228.3683,313.7884 234.1473,311.8204 232.9296,325.7996" stroke="black" stroke-width="1" /><polyline fill="none" points="215.4806,316.3672 215.0186,314.433 216.2278,312.5575 218.0791,312.1154 219.9303,311.6732 221.8729,312.7959 222.3348,314.7302 222.6853,316.1975 223.0358,317.6649 223.3862,319.1322 223.8483,321.0668 222.6225,322.9455 220.7713,323.3876 218.9201,323.8298 216.994,322.7039 216.532,320.7693" stroke="black" stroke-width="1" /><polyline fill="none" points="203.1345,316.6365 203.6012,315.6527 204.2375,314.6446 206.343,314.3464 208.2279,314.0795 210.0568,315.3788 210.3429,317.3995 210.552,318.8761 210.7611,320.3527 210.9702,321.8293 211.249,323.7987 209.8527,325.554 207.9679,325.8209 206.0491,326.0927 204.1867,324.7988 203.9079,322.8294 203.8037,322.094 203.6996,321.3586 203.5955,320.6231 205.9439,320.2906 208.2923,319.958 210.6408,319.6255" stroke="black" stroke-width="1" /><polyline fill="none" points="193.3557,332.5948 194.3482,332.5482 195.1424,331.9099 195.0829,330.6427 195.0254,329.4154 194.9678,328.1881 194.9102,326.9609 194.3052,326.9893 193.7003,327.0176 193.0953,327.046 194.2599,326.9914 195.4245,326.9367 196.5891,326.8821 196.0295,326.9083 195.4698,326.9346 194.9102,326.9609 194.7331,323.1876 194.5561,319.4144 194.379,315.6411" stroke="black" stroke-width="1" /><polyline fill="none" points="178.9188,318.8311 179.012,316.8446 180.6944,315.3786 182.5956,315.4678 184.4968,315.557 186.0513,317.1749 185.9581,319.1614 185.8874,320.6683 185.8167,322.1753 185.7459,323.6823 185.6527,325.6691 183.9536,327.1336 182.0524,327.0444 180.1512,326.9552 178.6134,325.3387 178.7067,323.352" stroke="black" stroke-width="1" /><polyline fill="none" points="166.9833,315.6619 167.7048,314.8464 168.5961,314.0546 170.7016,314.3527 172.5864,314.6196 173.9826,316.3756 173.6965,318.3963 173.4874,319.8729 173.2783,321.3495 173.0692,322.8262 172.7903,324.7955 170.9616,326.0941 169.0767,325.8272 167.158,325.5555 165.728,323.7955 166.0069,321.8261 166.1111,321.0907 166.2152,320.3553 166.3193,319.6198 168.6678,319.9524 171.0162,320.2849 173.3647,320.6175" stroke="black" stroke-width="1" /><polyline fill="none" points="156.3866,311.555 155.3869,315.7407 161.3248,317.1588 152.8376,328.3334" stroke="black" stroke-width="1" /><polyline fill="none" points="148.8029,316.1091 148.1672,317.9757 146.1435,318.9715 144.2776,318.3361 142.3941,317.6947 141.4153,315.6763 142.0509,313.8098 142.3788,312.847 142.7066,311.8842 143.0345,310.9214 143.6702,309.0549 145.6771,308.0541 147.5606,308.6955 149.4265,309.3309 150.4221,311.3542 149.7865,313.2208 148.6885,316.4451 147.5905,319.6693 146.4925,322.8935 145.8569,324.7598 143.8333,325.7553 141.9674,325.1199 140.3598,324.5724 139.4052,323.0158 139.5563,321.4011" stroke="black" stroke-width="1" /><polyline fill="none" points="133.7205,319.4801 132.7513,321.6387 126.259,318.7238 137.8333,305.1279" stroke="black" stroke-width="1" /><polyline fill="none" points="123.4842,297.8012 121.3617,301.5447 126.6723,304.5557 115.4163,312.9345" stroke="black" stroke-width="1" /><polyline fill="none" points="110.8709,293.6271 112.0094,291.9966 114.2145,291.6541 115.775,292.7437 117.3355,293.8334 117.7873,296.0311 116.6488,297.6616 115.7851,298.8985 114.9214,300.1354 114.0577,301.3723 112.9189,303.0031 110.7005,303.3354 109.14,302.2458 107.5795,301.1562 107.1411,298.9686 108.2798,297.3378" stroke="black" stroke-width="1" /><polyline fill="none" points="100.3715,292.3906 99.2018,291.2657 96.8901,291.2708 95.6203,292.7681 95.3248,293.1166 95.0293,293.4651 94.7338,293.8136 93.5358,295.2263 93.7118,297.3535 95.1375,298.5626 96.5499,299.7603 98.6992,299.5594 99.8747,298.1732 100.1702,297.8247 100.4658,297.4763 100.7613,297.1277 101.9595,295.7148 101.7838,293.5883 100.3715,292.3906 98.8152,291.0709 98.6734,288.7703 99.9483,287.2669 100.3845,286.7526 100.8207,286.2382 101.2569,285.7238 102.532,284.2202 104.8032,284.0098 106.3594,285.3295 107.9025,286.6381 108.0652,288.9124 106.7901,290.416 106.3467,290.939 105.9032,291.4619 105.4598,291.9848 104.3667,293.2738 102.1197,293.7401" stroke="black" stroke-width="1" /><polyline fill="none" points="87.3965,282.0711 88.8071,280.6932 91.0499,280.7081 92.4278,282.1187 93.8176,283.5415 93.7912,285.7956 92.3806,287.1735 91.6529,287.8843 90.9252,288.5952 90.1975,289.306 88.7869,290.6839 86.5323,290.658 85.1542,289.2472 83.7646,287.8246 83.8028,285.5815 85.2133,284.2036 87.6499,281.8236 90.0864,279.4435 92.5229,277.0635 93.9332,275.6859 96.1763,275.7005 97.5542,277.1111 98.7401,278.3252 98.8888,280.1461 98.0241,281.5185" stroke="black" stroke-width="1" /><polyline fill="none" points="80.4429,280.5883 78.6029,282.076 74.1286,276.5418 90.5977,269.6438" stroke="black" stroke-width="1" /><polyline fill="none" points="73.1698,269.2761 71.527,270.3668 69.3167,269.9201 68.226,268.2774 67.1256,266.6201 67.5816,264.3624 69.2243,263.2717 69.8679,262.8444 70.3806,262.6888 70.819,262.6652 75.2543,262.4237 79.6896,262.1823 84.1249,261.9407 84.2437,261.8619 84.3625,261.783 84.4813,261.7041 83.1725,259.7328 81.8636,257.7614 80.5547,255.7901" stroke="black" stroke-width="1" /><polyline fill="none" points="66.1125,258.1215 64.3749,259.0535 62.2161,258.4019 61.284,256.6642 60.3437,254.9111 61.009,252.7061 62.7467,251.774 63.4275,251.4088 63.9525,251.3019 64.3912,251.3195 68.8296,251.4944 73.268,251.6693 77.7064,251.8442 77.8321,251.7768 77.9578,251.7094 78.0834,251.6419 76.9649,249.5567 75.8464,247.4715 74.7279,245.3862" stroke="black" stroke-width="1" /><polyline fill="none" points="70.2893,235.4044 66.3232,237.0745 68.6924,242.7009 54.6622,242.4686" stroke="black" stroke-width="1" /><polyline fill="none" points="49.9829,229.0197 50.5987,230.9772 51.2145,232.9347 51.8303,234.8922 54.4091,234.081 56.9878,233.2698 59.5665,232.4586 58.2099,232.2024 57.2556,231.5134 56.808,230.0907 56.1906,228.1279 57.3315,226.0976 59.1463,225.5267 60.4438,225.1185 61.7413,224.7104 63.0388,224.3022 64.9358,223.7055 66.8046,224.7889 67.3655,226.5721 67.9212,228.3383 67.0041,230.2802 65.1071,230.877" stroke="black" stroke-width="1" /><polyline fill="none" points="47.1347,216.8323 47.3428,217.8038 48.1022,218.4831 49.3427,218.2174 50.5441,217.9601 51.7455,217.7027 52.9468,217.4454 52.82,216.8532 52.6931,216.261 52.5663,215.6689 52.8105,216.8089 53.0547,217.9489 53.2989,219.0889 53.1815,218.5411 53.0642,217.9932 52.9468,217.4454 56.6404,216.6543 60.3341,215.8631 64.0277,215.072" stroke="black" stroke-width="1" /><polyline fill="none" points="48.8958,208.3371 47.1248,208.5456 45.3836,207.2489 45.157,205.3243 44.9304,203.4007 46.2362,201.7268 48.2452,201.4902 48.5629,201.4528 48.8806,201.4154 49.1983,201.378 52.2633,201.017 53.0886,203.6303 53.1288,203.9716 53.1675,204.3006 53.2063,204.6297 53.245,204.9587 53.2063,204.6297 53.1675,204.3006 53.1288,203.9716 53.0104,202.9663 53.9499,200.6803 56.3331,200.3997 57.0314,200.3174 57.7297,200.2352 58.428,200.153 60.4026,199.9204 62.1579,201.3371 62.3905,203.3124 62.6252,205.3048 61.2449,207.0727 59.2703,207.3052" stroke="black" stroke-width="1" /><polyline fill="none" points="44.0401,188.533 48.6335,188.4253 53.2269,188.3176 57.8203,188.2099 59.8088,188.1632 61.3894,189.7549 61.4341,191.658 61.4783,193.5436 59.974,195.208 57.9855,195.2546 56.4773,195.29 54.9691,195.3253 53.4609,195.3607 51.4724,195.4073 49.8925,193.8153 49.8483,191.9297 49.8036,190.0266 51.3073,188.3626 53.2957,188.316" stroke="black" stroke-width="1" /><polyline fill="none" points="46.6663,182.1914 44.306,182.0251 44.8061,174.926 61.5569,181.1087" stroke="black" stroke-width="1" /><polyline fill="none" points="54.585,169.8496 52.6227,169.5247 51.3669,167.6663 51.6779,165.7882 51.9888,163.9108 53.774,162.5727 55.7363,162.8976 57.2246,163.1441 58.713,163.3906 60.2013,163.6371 62.1633,163.962 63.4224,165.8043 63.1115,167.6816 62.8005,169.5597 61.0147,170.8974 59.0528,170.5725 59.0519,170.578 59.051,170.5835 59.0501,170.5891 54.5171,169.8384 49.9842,169.0877 45.4512,168.3371" stroke="black" stroke-width="1" /><polyline fill="none" points="50.33,155.8557 48.0421,155.2522 49.8572,148.3709 65.1613,157.5684" stroke="black" stroke-width="1" /><polyline fill="none" points="55.148,143.2997 53.2968,142.6204 52.3493,140.5741 53.0286,138.7229 53.7139,136.8553 55.8038,135.8874 57.655,136.5666 58.3802,136.8327 58.809,137.1541 59.0873,137.4936 61.9058,140.9267 64.7243,144.3597 67.5428,147.7928 67.6767,147.842 67.8106,147.8911 67.9445,147.9402 68.7596,145.7188 69.5747,143.4973 70.3898,141.2759" stroke="black" stroke-width="1" /><polyline fill="none" points="65.0279,133.4027 63.233,132.5457 62.5426,130.4117 63.3628,128.6938 64.1827,126.9766 66.2692,126.1867 68.0641,127.0436 69.4255,127.6936 70.7869,128.3437 72.1483,128.9937 73.9429,129.8505 74.6411,131.97 73.8212,133.6872 73.001,135.4051 70.914,136.1944 69.1194,135.3376 69.117,135.3426 69.1146,135.3477 69.1122,135.3527 64.9658,133.373 60.8195,131.3933 56.6732,129.4137" stroke="black" stroke-width="1" /><polyline fill="none" points="78.1773,118.4508 79.8838,119.4719 80.3805,121.6475 79.4032,123.2807 78.4259,124.9139 76.2653,125.519 74.5589,124.4979 73.2643,123.7232 71.9698,122.9486 70.6752,122.174 68.9684,121.1527 68.481,118.9631 69.4583,117.3298 70.4356,115.6966 72.5869,115.1056 74.2937,116.1269" stroke="black" stroke-width="1" /><polyline fill="none" points="72.9401,108.0528 71.3503,106.8863 71.0082,104.6574 72.1747,103.0676 73.3516,101.4637 75.6281,101.1141 77.2179,102.2806 77.8408,102.7376 78.1635,103.1653 78.3366,103.5687 80.0911,107.6494 81.8457,111.73 83.6002,115.8107 83.7152,115.895 83.8302,115.9794 83.9452,116.0638 85.345,114.156 86.7448,112.2482 88.1446,110.3403" stroke="black" stroke-width="1" /><polyline fill="none" points="94.4637,100.2373 94.744,101.2895 94.9107,102.47 93.4977,104.0591 92.2328,105.4818 89.9976,105.6736 88.4725,104.3176 87.358,103.3266 86.2434,102.3356 85.1289,101.3447 83.6425,100.023 83.5722,97.7812 84.8371,96.3586 86.1248,94.9103 88.382,94.6926 89.8684,96.0143 90.4235,96.5078 90.9786,97.0014 91.5337,97.4949 89.9576,99.2674 88.3816,101.04 86.8055,102.8125" stroke="black" stroke-width="1" /><polyline fill="none" points="92.4858,80.5651 95.6185,83.9262 98.7512,87.2874 101.8839,90.6485 103.24,92.1035 103.1008,94.3424 101.7083,95.6403 100.3285,96.9263 98.0851,96.908 96.729,95.453 95.7004,94.3494 94.6718,93.2458 93.6433,92.1422 92.2871,90.6872 92.427,88.4486 93.8068,87.1626 95.1994,85.8647 97.442,85.8827 98.7981,87.3377" stroke="black" stroke-width="1" /><polyline fill="none" points="100.7262,78.2382 100.7707,73.9397 111.2337,87.5203" stroke="black" stroke-width="1" /><polyline fill="none" points="113.455,76.0309 112.3939,74.3485 112.9483,72.1751 114.5585,71.1597 116.168,70.1445 118.3542,70.5895 119.4153,72.2718 120.22,73.5479 121.0248,74.8239 121.8296,76.0999 122.8904,77.782 122.3503,79.9472 120.7408,80.9623 119.1306,81.9778 116.9443,81.5321 115.8835,79.85 115.8787,79.853 115.874,79.856 115.8693,79.859 113.4183,75.9727 110.9672,72.0863 108.5162,68.2" stroke="black" stroke-width="1" /><polyline fill="none" points="121.7668,64.514 120.8757,62.755 121.5778,60.6121 123.3368,59.721 125.1115,58.8221 127.3003,59.5389 128.1914,61.2979 128.5405,61.9871 128.6351,62.5145 128.6072,62.9526 128.3283,67.3857 128.0494,71.8188 127.7705,76.2519 127.835,76.3791 127.8994,76.5063 127.9639,76.6336 130.0748,75.5642 132.1856,74.4949 134.2965,73.4256" stroke="black" stroke-width="1" /><polyline fill="none" points="141.7693,61.01 141.7673,61.0049 141.7653,60.9998 141.7633,60.9947 142.6175,63.1641 143.4717,65.3335 144.3259,67.5029 144.7207,68.5055 145.5758,68.6133 146.1008,68.4066 145.4305,68.6705 144.6469,68.3181 144.376,67.6301 144.3593,67.5877 144.3426,67.5453 144.3259,67.5029 143.6624,68.8144 142.7013,69.9298 141.3139,70.4761 140.1651,70.9284 138.0722,71.0889 137.1488,68.744 136.6651,67.5154 137.043,66.4642 137.8693,65.6606 138.2657,65.2646 139.663,64.3639 140.6019,63.7547 141.5509,63.1235 142.2531,62.2386 141.7693,61.01 141.2794,59.7658 139.4287,58.7634 137.5146,59.5171 135.7114,60.2271 135.2272,61.4307 135.0208,62.4516" stroke="black" stroke-width="1" /><polyline fill="none" points="147.6313,59.6171 147.0791,57.7063 148.2151,55.7723 150.0439,55.2437 151.872,54.7154 153.8487,55.7498 154.4009,57.6606 154.8198,59.1099 155.2386,60.5592 155.6575,62.0086 156.2096,63.919 155.0896,65.8491 153.2615,66.3774 151.4327,66.906 149.4561,65.8708 148.904,63.9603 148.8986,63.9619 148.8932,63.9634 148.8879,63.965 147.6122,59.5509 146.3365,55.1369 145.0609,50.7229" stroke="black" stroke-width="1" /><polyline fill="none" points="160.0938,57.9127 159.7262,55.9755 160.9955,54.111 162.932,53.7435 164.8869,53.3725 166.7338,54.6455 167.1015,56.5828 167.2911,57.582 167.4808,58.5812 167.6704,59.5804 168.0381,61.5177 166.7858,63.3782 164.831,63.7492 162.8944,64.1167 161.0304,62.8477 160.6628,60.9104 160.0276,57.5641 159.3926,54.2177 158.7575,50.8714 158.3899,48.9345 159.6592,47.0704 161.5958,46.7029 163.2643,46.3862 164.8624,47.2695 165.5274,48.7486" stroke="black" stroke-width="1" /><polyline fill="none" points="225.3249,105.8452 188.8365,96.1804 140.8637,108.5745 136.578,231.1149 126.744,171.7336 268.1431,236.6952 108.8569,140.3048 188.2428,253.3668 158.7145,203.9175 188.2428,253.3668" stroke="black" stroke-width="1" /><polyline fill="none" points="203.3911,244.321 173.0945,262.4125" stroke="black" stroke-width="1" /><polyline fill="none" points="248.4576,108.8569 248.3127,107.0169 247.8819,105.2221 247.1755,103.5169 246.2111,101.9432 245.0124,100.5397 243.6089,99.341 242.0352,98.3766 240.3299,97.6702 238.5352,97.2393 236.6952,97.0945 234.8551,97.2393 233.0604,97.6702 231.3551,98.3765 229.7814,99.3409 228.3779,100.5396 227.1792,101.9432 226.2148,103.5169 225.5085,105.2221 225.0776,107.0169 224.9328,108.8569 225.0776,110.697 225.5085,112.4917 226.2148,114.1969 227.1792,115.7707 228.3779,117.1742 229.7814,118.3729 231.3551,119.3373 233.0604,120.0436 234.8551,120.4745 236.6952,120.6193 238.5352,120.4745 240.3299,120.0436 242.0352,119.3373 243.6089,118.3729 245.0124,117.1742 246.2111,115.7707 247.1755,114.197 247.8819,112.4917 248.3127,110.697 248.4576,108.8569" stroke="black" stroke-width="1" /><polyline fill="none" points="188.5,69.0664 199.6839,69.5912 210.7696,71.161 221.6595,73.7619 232.2581,77.3712 242.4721,81.9571 252.2118,87.4792 261.3915,93.8892 269.9308,101.1306 277.7544,109.1398 284.7936,117.8464 290.9866,127.1739 296.2789,137.0404 300.6241,147.3591 303.9839,158.0393 306.3289,168.9873 307.6383,180.1067 307.9008,191.2998 307.114,202.4684 305.2847,213.5142 302.4292,224.3402 298.5725,234.8512 293.7484,244.9549 287.9994,254.5625 281.376,263.5894 273.9365,271.9565 265.7461,279.5902 256.8768,286.4234 247.4067,292.3961 237.4188,297.4556 227.0011,301.5577 216.2451,304.6663 205.2452,306.7539 194.0981,307.8023 182.9019,307.8023 171.7548,306.7539 160.7549,304.6663 149.9989,301.5577 139.5811,297.4556 129.5933,292.3961 120.1232,286.4234 111.2539,279.5902 103.0635,271.9565 95.6239,263.5894 89.0006,254.5625 83.2516,244.9549 78.4275,234.8512 74.5708,224.3402 71.7153,213.5142 69.8861,202.4684 69.0992,191.2998 69.3617,180.1067 70.6712,168.9872 73.0161,158.0393 76.3759,147.3591 80.7211,137.0404 86.0134,127.174 92.2064,117.8464 99.2457,109.1398 107.0692,101.1306 115.6085,93.8892 124.7882,87.4792 134.5279,81.957 144.7419,77.3712 155.3405,73.7619 166.2304,71.161 177.3161,69.5912 188.5,69.0664" stroke="black" stroke-width="1" />

    </g>
  </g>
  <WCB
     pausedposy="0"
     pausedposx="0"
     lastknownposy="0"
     lastknownposx="0"
     lastpathnc="0"
     lastpath="0"
     node="0"
     layer="0" />
</svg>
