<?xml version="1.0" encoding="UTF-8" standalone="no"?>
<!-- Created with Inkscape (http://www.inkscape.org/) -->

<svg
   xmlns:dc="http://purl.org/dc/elements/1.1/"
   xmlns:cc="http://creativecommons.org/ns#"
   xmlns:rdf="http://www.w3.org/1999/02/22-rdf-syntax-ns#"
   xmlns:svg="http://www.w3.org/2000/svg"
   xmlns="http://www.w3.org/2000/svg"
   xmlns:sodipodi="http://sodipodi.sourceforge.net/DTD/sodipodi-0.dtd"
   xmlns:inkscape="http://www.inkscape.org/namespaces/inkscape"
   width="100mm"
   height="100mm"
   viewBox="0 0 100 100"
   version="1.1"
   id="svg19124"
   inkscape:version="0.92.3 (2405546, 2018-03-11)"
   sodipodi:docname="inkscape_template_TMP.svg"
   shape-rendering="crispEdges">
  <sodipodi:namedview
     pagecolor="#ffffff"
     bordercolor="#666666"
     borderopacity="1"
     objecttolerance="10"
     gridtolerance="10"
     guidetolerance="10"
     inkscape:pageopacity="0"
     inkscape:pageshadow="2"
     inkscape:window-width="1568"
     inkscape:window-height="1550"
     id="namedview24021"
     showgrid="false"
     inkscape:zoom="0.62441667"
     inkscape:cx="712.66515"
     inkscape:cy="409.98265"
     inkscape:window-x="0"
     inkscape:window-y="0"
     inkscape:window-maximized="0"
     inkscape:current-layer="layer1" />
  <defs
     id="defs19118" />
  <metadata
     id="metadata19121">
    <rdf:RDF>
      <cc:Work
         rdf:about="">
        <dc:format>image/svg+xml</dc:format>
        <dc:type
           rdf:resource="http://purl.org/dc/dcmitype/StillImage" />
        <dc:title />
      </cc:Work>
    </rdf:RDF>
  </metadata>
  <g
     transform="translate(0,-197)"
     id="layer1"
     inkscape:groupmode="layer"
     inkscape:label="Layer 1">
    <g
       id="g24447"
       transform="matrix(0.26458333,0,0,0.26458333,0.10666333,197.9735)">

<polyline fill="none" points="192.1004,47.7394 189.7225,51.1455 187.3447,54.5516 184.9669,57.9577 184.9669,54.5516 184.9669,51.1455 184.9669,47.7394 184.9669,45.7676 186.5623,44.1729 188.5334,44.1729 190.5231,44.1729 192.1004,45.7676 192.1004,47.7394 192.1004,51.1455 192.1004,54.5516 192.1004,57.9577 192.1004,59.9295 190.5231,61.5235 188.5509,61.5235 186.5623,61.5235 184.9669,59.9295 184.9669,57.9577" stroke="black" stroke-width="1" /><polyline fill="none" points="197.8298,61.5877 200.7471,57.7851 198.696,53.7706 202.935,62.0679 200.7471,57.7851 203.4811,54.2207" stroke="black" stroke-width="1" /><polyline fill="none" points="211.4702,49.377 211.8028,47.625 213.5622,46.3532 215.4662,46.7146 217.3691,47.0757 218.574,48.8236 218.1968,50.811 218.1371,51.1253 218.0775,51.4396 218.0178,51.7539 217.4424,54.7859 214.7019,54.789 214.3643,54.7249 214.0388,54.6631 213.7133,54.6013 213.3878,54.5396 213.7133,54.6013 214.0388,54.6631 214.3643,54.7249 215.3588,54.9136 217.2575,56.4958 216.81,58.8534 216.6789,59.5442 216.5478,60.235 216.4167,60.9258 216.046,62.8792 214.1679,64.1285 212.2138,63.7576 210.2428,63.3836 208.9706,61.5364 209.3413,59.583" stroke="black" stroke-width="1" /><polyline fill="none" points="225.4743,52.5043 228.9663,49.9973 224.2065,66.4671" stroke="black" stroke-width="1" /><polyline fill="none" points="243.4219,58.8463 239.9615,61.1443 236.5011,63.4424 233.0407,65.7404 234.2886,62.5712 235.5365,59.4019 236.7844,56.2327 237.5069,54.398 239.5756,53.4987 241.4097,54.2209 243.261,54.9499 244.1443,57.0115 243.4219,58.8463 242.174,62.0155 240.926,65.1848 239.6781,68.354 238.9557,70.1887 236.9041,71.094 235.069,70.3714 233.2187,69.6428 232.3182,67.5752 233.0407,65.7404" stroke="black" stroke-width="1" /><polyline fill="none" points="256.7555,61.182 254.6791,65.2808 252.6028,69.3796 250.5265,73.4783 249.6276,75.2527 247.4778,75.8932 245.7797,75.033 244.0971,74.1806 243.3415,72.0683 244.2403,70.294 244.9221,68.9482 245.6038,67.6024 246.2856,66.2566 247.1844,64.4822 249.3342,63.8425 251.0167,64.6948 252.7149,65.5551 253.4705,67.6666 252.5717,69.441" stroke="black" stroke-width="1" /><polyline fill="none" points="261.1921,73.2796 262.5079,74.2293 264.796,73.9002 265.8433,72.2396 266.0871,71.8531 266.3308,71.4666 266.5746,71.0802 267.5626,69.5135 267.0901,67.4319 265.509,66.4347 263.9426,65.4469 261.8427,65.9471 260.8732,67.4844 260.6294,67.8709 260.3857,68.2574 260.1419,68.6438 259.1537,70.2108 259.6257,72.2917 261.1921,73.2796 262.918,74.368 263.3809,76.626 262.3294,78.2933 261.9697,78.8637 261.6099,79.4342 261.2501,80.0046 260.1984,81.6722 257.9792,82.1989 256.2533,81.1104 254.542,80.0311 254.062,77.8021 255.1137,76.1345 255.4794,75.5546 255.8452,74.9747 256.2109,74.3948 257.1125,72.9653 259.272,72.1885" stroke="black" stroke-width="1" /><polyline fill="none" points="269.9359,88.4934 268.9061,88.847 267.7402,89.0962 266.0557,87.7984 264.5477,86.6366 264.1992,84.4204 265.4447,82.8037 266.3549,81.6223 267.2651,80.4409 268.1753,79.2595 269.3892,77.6839 271.6205,77.4562 273.1285,78.618 274.6637,79.8008 275.0395,82.0371 273.8256,83.6127 273.3723,84.2011 272.9189,84.7895 272.4656,85.3779 270.5867,83.9303 268.7078,82.4827 266.8289,81.0352" stroke="black" stroke-width="1" /><polyline fill="none" points="283.4146,91.3986 283.4183,91.3946 283.4221,91.3906 283.4258,91.3866 281.8362,93.0922 280.2465,94.7977 278.6569,96.5033 277.9222,97.2916 278.1933,98.1096 278.6061,98.4944 278.0791,98.0032 278.0595,97.1442 278.5636,96.6034 278.5947,96.57 278.6258,96.5367 278.6569,96.5033 277.1875,96.4696 275.7668,96.0829 274.676,95.0662 273.7728,94.2244 272.7263,92.4049 274.4445,90.5614 275.3448,89.5955 276.4562,89.4836 277.5375,89.883 278.0656,90.0701 279.4804,90.9429 280.4347,91.5277 281.4133,92.1122 282.5143,92.3645 283.4146,91.3986 284.3263,90.4204 284.4335,88.3185 282.9286,86.9158 281.511,85.5945 280.2162,85.6762 279.206,85.9298" stroke="black" stroke-width="1" /><polyline fill="none" points="292.0902,100.7132 292.0944,100.7096 292.0984,100.7059 292.1025,100.7023 290.3602,102.2515 288.6178,103.8008 286.8754,105.35 286.0702,106.066 286.2635,106.9058 286.6385,107.3275 286.1598,106.7892 286.2207,105.9321 286.7732,105.4409 286.8073,105.4106 286.8413,105.3803 286.8754,105.35 285.4156,105.1788 284.0374,104.6608 283.0466,103.5464 282.2262,102.6237 281.3547,100.7142 283.238,99.0397 284.2247,98.1623 285.3418,98.155 286.3809,98.6539 286.8892,98.8896 288.216,99.8911 289.1114,100.5627 290.0309,101.2362 291.1035,101.5906 292.0902,100.7132 293.0895,99.8247 293.3932,97.742 292.0262,96.2046 290.7385,94.7564 289.4418,94.7165 288.4122,94.8744" stroke="black" stroke-width="1" /><polyline fill="none" points="300.7547,101.5777 302.6624,100.178 306.8724,105.9158 290.0981,112.0343" stroke="black" stroke-width="1" /><polyline fill="none" points="302.6975,116.1122 304.4043,115.0909 306.564,115.696 307.5415,117.3295 308.5186,118.9624 308.0226,121.1376 306.3158,122.1589 305.0212,122.9336 303.7267,123.7082 302.4321,124.4829 300.7256,125.504 298.5737,124.9133 297.5966,123.2804 296.6191,121.6468 297.116,119.4716 298.8224,118.4505 298.8196,118.4457 298.8167,118.4409 298.8138,118.4361 302.7565,116.0768 306.6993,113.7176 310.642,111.3583" stroke="black" stroke-width="1" /><polyline fill="none" points="304.3823,136.1063 308.2657,134.2521 305.6354,128.743 319.6611,128.3174" stroke="black" stroke-width="1" /><polyline fill="none" points="312.6917,139.1405 314.5429,138.4612 316.5897,139.4089 317.2686,141.2594 317.954,143.1273 316.9999,145.1574 315.1487,145.8367 314.1939,146.187 313.2391,146.5374 312.2843,146.8877 310.4331,147.567 308.393,146.6355 307.7076,144.7675 307.0287,142.917 307.9761,140.8707 309.8273,140.1915 313.0249,139.0182 316.2225,137.8449 319.4201,136.6717 321.2709,135.9926 323.3174,136.9403 323.9964,138.7908 324.5814,140.3852 323.9711,142.1061 322.6204,143.0038" stroke="black" stroke-width="1" /><polyline fill="none" points="314.0455,158.9797 313.0139,158.6313 311.9383,158.1172 311.3959,156.061 310.9104,154.2203 311.9869,152.252 313.9602,151.7315 315.4023,151.3512 316.8443,150.9708 318.2863,150.5905 320.2095,150.0832 322.1161,151.2646 322.6016,153.1053 323.0959,154.9791 322.0287,156.98 320.1055,157.4873 319.3873,157.6768 318.6691,157.8662 317.9509,158.0556 317.346,155.7622 316.741,153.4688 316.1361,151.1753" stroke="black" stroke-width="1" /><polyline fill="none" points="316.2582,170.8657 315.2638,170.4222 314.241,169.8096 313.8936,167.7117 313.5825,165.8336 314.8386,163.9748 316.852,163.6414 318.3233,163.3977 319.7946,163.1541 321.266,162.9104 323.2282,162.5855 325.0158,163.9402 325.3268,165.8183 325.6434,167.7302 324.3936,169.6224 322.4313,169.9473 321.6985,170.0687 320.9657,170.19 320.233,170.3114 319.8454,167.9714 319.4579,165.6314 319.0704,163.2914" stroke="black" stroke-width="1" /><polyline fill="none" points="321.5133,175.5616 323.4803,175.423 325.1835,176.9017 325.322,178.868 325.4619,180.8528 323.9816,182.5382 322.0146,182.6767 321.0001,182.7482 319.9855,182.8197 318.9709,182.8912 317.004,183.0297 315.3027,181.5685 315.1629,179.5837 315.0244,177.6174 316.5027,175.9146 318.4697,175.776 321.8673,175.5367 325.265,175.2973 328.6627,175.058 330.6293,174.9194 332.3321,176.3981 332.4706,178.3643 332.59,180.0584 331.5258,181.5423 329.9791,182.0297" stroke="black" stroke-width="1" /><polyline fill="none" points="323.7071,188.1906 325.6956,188.2372 327.1995,189.9012 327.1549,191.8043 327.1103,193.7067 325.5304,195.282 323.5419,195.2354 322.0337,195.2 320.5255,195.1646 319.0173,195.1293 317.0292,195.0826 315.5242,193.4351 315.5688,191.5327 315.6134,189.6295 317.194,188.0547 319.1821,188.1013 319.1823,188.0957 319.1824,188.0901 319.1825,188.0845 323.7759,188.1922 328.3694,188.2999 332.9628,188.4077" stroke="black" stroke-width="1" /><polyline fill="none" points="331.4614,208.2704 331.7014,206.2324 331.9414,204.1944 332.1814,202.1564 329.4966,201.8402 326.8119,201.5241 324.1271,201.2079 325.2598,201.9972 325.8481,203.0166 325.6737,204.4979 325.4331,206.5413 323.5607,207.9262 321.6712,207.7037 320.3204,207.5446 318.9695,207.3855 317.6187,207.2265 315.6437,206.9939 314.3826,205.24 314.6013,203.3835 314.8178,201.5447 316.4498,200.1488 318.4248,200.3814" stroke="black" stroke-width="1" /><polyline fill="none" points="321.3936,213.4068 323.3385,213.8233 324.5059,215.7386 324.1071,217.6 323.7086,219.4607 321.8627,220.7137 319.9178,220.2972 318.4426,219.9812 316.9675,219.6652 315.4923,219.3493 313.5478,218.9328 312.3763,217.0334 312.7748,215.1727 313.1735,213.3113 315.0201,212.0588 316.9646,212.4753 316.9658,212.4698 316.967,212.4643 316.9681,212.4589 321.4609,213.4212 325.9537,214.3835 330.4465,215.3458" stroke="black" stroke-width="1" /><polyline fill="none" points="318.4497,229.402 317.8669,230.9165 318.7687,233.045 320.6415,233.6342 321.0774,233.7713 321.5132,233.9084 321.9491,234.0455 323.7159,234.6014 325.6082,233.6136 326.1691,231.8304 326.7249,230.0639 325.7056,228.161 323.9718,227.6156 323.536,227.4785 323.1001,227.3414 322.6642,227.2043 320.8971,226.6483 319.0054,227.6355 318.4497,229.402 317.8374,231.3484 315.7721,232.3719 313.8918,231.7804 313.2485,231.578 312.6051,231.3757 311.9618,231.1733 310.0811,230.5817 309.0059,228.5702 309.6182,226.6238 310.2253,224.6937 312.2582,223.6611 314.1389,224.2527 314.7929,224.4585 315.4469,224.6642 316.1009,224.87 317.7131,225.3771 319.015,227.2671" stroke="black" stroke-width="1" /><polyline fill="none" points="320.7283,240.194 322.909,241.1122 320.1471,247.6711 306.2836,236.4187" stroke="black" stroke-width="1" /><polyline fill="none" points="313.7356,253.1372 315.4556,257.0768 300.348,248.9731" stroke="black" stroke-width="1" /><polyline fill="none" points="308.7705,263.9427 310.7417,265.2515 306.8053,271.1803 295.2831,257.5403" stroke="black" stroke-width="1" /><polyline fill="none" points="293.2535,277.966 291.7201,276.7263 291.4726,274.4971 292.7123,272.9637 293.9629,271.417 296.2046,271.1796 297.7379,272.4193 298.5291,273.0589 299.3201,273.6985 300.1112,274.3381 301.6446,275.5778 301.8825,277.8199 300.6426,279.3536 299.3923,280.9001 297.1602,281.1245 295.6268,279.8848 292.9781,277.7433 290.3294,275.6019 287.6807,273.4604 286.1476,272.2209 285.8998,269.9915 287.1396,268.4581 288.2066,267.1383 289.9977,266.7777 291.4618,267.476" stroke="black" stroke-width="1" /><polyline fill="none" points="292.5942,285.0453 294.2869,286.6986 289.3139,291.7896 280.5371,276.2403" stroke="black" stroke-width="1" /><polyline fill="none" points="278.5725,289.3365 279.8589,290.8535 279.6147,293.0831 278.1629,294.3144 276.7115,295.5451 274.4845,295.4111 273.1981,293.8941 272.2224,292.7435 271.2466,291.5929 270.2709,290.4423 268.9847,288.9256 269.2159,286.7061 270.6672,285.4753 272.1191,284.2441 274.3463,284.3789 275.6325,285.8956 275.6367,285.892 275.641,285.8884 275.6453,285.8847 278.617,289.389 281.5887,292.8933 284.5604,296.3976" stroke="black" stroke-width="1" /><polyline fill="none" points="266.1348,305.9706 266.1343,301.8167 266.1339,297.6627 266.1335,293.5087 268.0835,296.3014 270.0335,299.094 271.9835,301.8866 273.1124,303.5034 272.7173,305.7242 271.1012,306.8527 269.4698,307.9919 267.2637,307.5873 266.1348,305.9706 264.1848,303.178 262.2348,300.3853 260.2848,297.5927 259.1559,295.976 259.5364,293.7661 261.1534,292.637 262.7839,291.4985 265.0046,291.892 266.1335,293.5087" stroke="black" stroke-width="1" /><polyline fill="none" points="249.9209,303.8493 248.9401,302.1193 249.5811,299.9819 251.2367,299.0431 252.8924,298.1044 255.0703,298.6436 256.0512,300.3736 256.7953,301.6859 257.5393,302.9983 258.2834,304.3106 259.2644,306.0409 258.6085,308.186 256.9528,309.1248 255.2971,310.0635 253.1342,309.5166 252.1532,307.7863" stroke="black" stroke-width="1" /><polyline fill="none" points="249.3484,315.4776 250.156,317.2765 249.3542,319.3841 247.5554,320.1918 245.7406,321.0066 243.5878,320.1879 242.7801,318.389 242.4637,317.6843 242.3939,317.153 242.4423,316.7167 242.9286,312.3016 243.415,307.8864 243.9014,303.4713 243.843,303.3412 243.7846,303.2111 243.7262,303.0809 241.5675,304.0502 239.4088,305.0193 237.2501,305.9886" stroke="black" stroke-width="1" /><polyline fill="none" points="226.7701,311.6605 227.0452,310.607 227.4825,309.4979 229.4955,308.8124 231.2975,308.1987 233.3365,309.1342 233.9944,311.0661 234.4752,312.4778 234.9559,313.8896 235.4367,315.3013 236.0779,317.1841 235.0333,319.169 233.2313,319.7827 231.3969,320.4074 229.3259,319.4835 228.6847,317.6006 228.4453,316.8976 228.2058,316.1945 227.9664,315.4913 230.2116,314.7267 232.4569,313.9621 234.7021,313.1975" stroke="black" stroke-width="1" /><polyline fill="none" points="223.2827,319.1569 223.7448,321.0915 222.5194,322.9701 220.6679,323.4123 218.817,323.8544 216.8909,322.7285 216.4288,320.7939 216.0784,319.3265 215.7279,317.8592 215.3775,316.3918 214.9155,314.4576 216.1247,312.5821 217.9756,312.14 219.8272,311.6978 221.7531,312.8245 222.215,314.7587 222.2205,314.7574 222.2259,314.7561 222.2314,314.7549 223.2987,319.2238 224.3661,323.6928 225.4335,328.1618" stroke="black" stroke-width="1" /><polyline fill="none" points="203.3884,318.3319 203.1095,316.3629 204.4891,314.6089 206.3736,314.342 208.258,314.0752 210.087,315.3748 210.3658,317.3438 210.5773,318.8376 210.7888,320.3313 211.0003,321.825 211.2792,323.7944 209.8829,325.55 207.9984,325.8169 206.114,326.0837 204.3018,324.7824 204.0229,322.813" stroke="black" stroke-width="1" /><polyline fill="none" points="192.3519,332.7706 194.4017,332.6744 196.4516,332.5782 198.5014,332.482 198.3747,329.7816 198.248,327.0813 198.1213,324.381 197.5276,325.6273 196.618,326.3744 195.1282,326.4443 193.0728,326.5408 191.4007,324.9198 191.3115,323.0193 191.2478,321.6606 191.184,320.302 191.1203,318.9433 191.027,316.9568 192.5513,315.4262 194.4186,315.3386 196.2681,315.2518 197.9118,316.6338 198.0051,318.6202" stroke="black" stroke-width="1" /><polyline fill="none" points="178.9188,318.8311 179.012,316.8446 180.6944,315.3786 182.5956,315.4678 184.4968,315.557 186.0513,317.1749 185.9581,319.1614 185.8874,320.6683 185.8167,322.1753 185.7459,323.6823 185.6527,325.6691 183.9536,327.1336 182.0524,327.0444 180.1512,326.9552 178.6134,325.3387 178.7067,323.352" stroke="black" stroke-width="1" /><polyline fill="none" points="164.9311,331.0243 165.5753,326.475 166.2195,321.9257 166.8637,317.3764 167.1425,315.407 168.9711,314.1077 170.8559,314.3746 172.7234,314.639 174.1196,316.3951 173.8408,318.3644 173.6292,319.8581 173.4177,321.3518 173.2062,322.8456 172.9273,324.8149 171.0986,326.1135 169.2311,325.8491 167.3462,325.5822 165.9503,323.8269 166.2291,321.8576" stroke="black" stroke-width="1" /><polyline fill="none" points="155.1702,313.0883 155.9649,312.3439 156.9264,311.6391 158.9947,312.1331 160.8463,312.5753 162.0719,314.4543 161.5978,316.4393 161.2514,317.8898 160.9049,319.3404 160.5585,320.791 160.0964,322.7256 158.1541,323.8472 156.3025,323.405 154.4176,322.9548 153.1588,321.0686 153.6209,319.134 153.7934,318.4116 153.966,317.6891 154.1385,316.9667 156.4455,317.5176 158.7525,318.0687 161.0594,318.6197" stroke="black" stroke-width="1" /><polyline fill="none" points="140.5936,317.6605 141.2292,315.7939 143.2367,314.7937 145.1033,315.4293 146.9861,316.0705 147.9812,318.0933 147.3455,319.9598 147.0176,320.9229 146.6897,321.8858 146.3617,322.8488 145.7261,324.7154 143.7031,325.7111 141.8362,325.0753 139.9537,324.4343 138.9741,322.416 139.6097,320.5494 140.7077,317.3252 141.8057,314.101 142.9037,310.8767 143.5393,309.0105 145.5469,308.0099 147.4135,308.6456 149.0201,309.1927 149.9756,310.7499 149.8244,312.365" stroke="black" stroke-width="1" /><polyline fill="none" points="126.7402,318.9398 128.6123,319.7804 130.4844,320.6209 132.3564,321.4614 133.4637,318.9953 134.5709,316.5291 135.6782,314.063 134.5853,314.9065 133.4363,315.1619 132.0757,314.551 130.1986,313.7083 129.4395,311.5066 130.2187,309.7709 130.7758,308.5301 131.333,307.2892 131.8901,306.0484 132.7046,304.2343 134.7561,303.5576 136.4614,304.3233 138.1505,305.0816 138.9923,307.0573 138.1778,308.8715" stroke="black" stroke-width="1" /><polyline fill="none" points="115.7399,312.9702 116.6042,313.4603 117.6165,313.3441 118.2422,312.2405 118.8482,311.1717 119.4541,310.1029 120.0601,309.0341 119.5333,308.7354 119.0064,308.4367 118.4796,308.138 119.4938,308.7131 120.508,309.2881 121.5222,309.8631 121.0349,309.5868 120.5475,309.3105 120.0601,309.0341 121.9232,305.7482 123.7863,302.4622 125.6493,299.1762" stroke="black" stroke-width="1" /><polyline fill="none" points="113.5347,291.2327 111.071,294.761 116.0764,298.2561 104.0852,305.5441" stroke="black" stroke-width="1" /><polyline fill="none" points="100.3715,292.3906 99.2018,291.2657 96.8901,291.2708 95.6203,292.7681 95.3248,293.1166 95.0293,293.4651 94.7338,293.8136 93.5358,295.2263 93.7118,297.3535 95.1375,298.5626 96.5499,299.7603 98.6992,299.5594 99.8747,298.1732 100.1702,297.8247 100.4658,297.4763 100.7613,297.1277 101.9595,295.7148 101.7838,293.5883 100.3715,292.3906 98.8152,291.0709 98.6734,288.7703 99.9483,287.2669 100.3845,286.7526 100.8207,286.2382 101.2569,285.7238 102.532,284.2202 104.8032,284.0098 106.3594,285.3295 107.9025,286.6381 108.0652,288.9124 106.7901,290.416 106.3467,290.939 105.9032,291.4619 105.4598,291.9848 104.3667,293.2738 102.1197,293.7401" stroke="black" stroke-width="1" /><polyline fill="none" points="95.4209,284.3969 94.0103,285.7748 91.755,285.7486 90.3776,284.3386 88.9872,282.9152 89.0262,280.6724 90.4367,279.2945 91.1643,278.5838 91.8918,277.8731 92.6194,277.1624 94.0299,275.7846 96.2725,275.7988 97.6629,277.2221 99.0403,278.6321 99.0141,280.887 97.6035,282.2648 95.167,284.6449 92.7305,287.025 90.2939,289.405 88.8836,290.7827 86.6285,290.7562 85.2512,289.3462 84.0645,288.1313 83.9163,286.3114 84.7808,284.9392" stroke="black" stroke-width="1" /><polyline fill="none" points="81.2405,279.7208 79.7071,280.9606 77.4647,280.7228 76.225,279.1895 74.9742,277.6425 75.2168,275.3521 76.7502,274.1123 77.3509,273.6266 77.8468,273.4236 78.281,273.3591 82.6742,272.7034 87.0674,272.0476 91.4606,271.3918 91.5715,271.3022 91.6824,271.2125 91.7933,271.1229 90.3056,269.2827 88.8179,267.4426 87.3302,265.6025" stroke="black" stroke-width="1" /><polyline fill="none" points="72.2945,270.0651 70.3232,271.3739 66.3868,265.4451 83.4294,260.1196" stroke="black" stroke-width="1" /><polyline fill="none" points="72.4554,254.7843 70.7178,255.7163 68.5584,255.065 67.6266,253.328 66.6861,251.5746 67.3462,249.4308 69.0839,248.4987 69.9801,248.0179 70.8764,247.5372 71.7727,247.0564 73.5103,246.1243 75.6608,246.7606 76.6013,248.514 77.5331,250.251 76.8819,252.4099 75.1442,253.342 72.1427,254.952 69.1412,256.562 66.1396,258.1721 64.4023,259.1039 62.2432,258.4525 61.3115,256.7154 60.5087,255.2189 60.8717,253.4293 62.0831,252.3511" stroke="black" stroke-width="1" /><polyline fill="none" points="66.7588,236.0087 68.5916,235.2369 70.6395,236.1234 71.3781,237.8775 72.1168,239.6317 71.3265,241.7316 69.4937,242.5033 68.1033,243.0888 66.713,243.6743 65.3226,244.2598 63.4895,245.0317 61.4358,244.1294 60.6971,242.3753 59.9585,240.6212 60.7546,238.537 62.5877,237.7651" stroke="black" stroke-width="1" /><polyline fill="none" points="55.2773,234.0801 53.3963,234.6718 51.3969,233.6291 50.8052,231.7481 50.2082,229.8504 51.273,227.8081 53.154,227.2164 53.8909,226.9846 54.4267,226.9774 54.8544,227.0765 59.1824,228.0759 63.5103,229.0753 67.8383,230.0747 67.9743,230.0319 68.1104,229.9891 68.2464,229.9463 67.5363,227.6891 66.8263,225.4319 66.1162,223.1747" stroke="black" stroke-width="1" /><polyline fill="none" points="55.0883,213.7738 55.0829,213.7749 55.0775,213.7761 55.0722,213.7772 57.352,213.2889 59.6318,212.8006 61.9116,212.3123 62.9652,212.0866 63.2113,211.2607 63.0931,210.7089 63.244,211.4133 62.7683,212.1288 62.0453,212.2836 62.0008,212.2932 61.9562,212.3027 61.9116,212.3123 63.0971,213.1812 64.0405,214.3116 64.3528,215.7696 64.6114,216.9769 64.4277,219.0679 61.9635,219.5957 60.6724,219.8723 59.697,219.3277 59.0392,218.3812 58.7133,217.9254 58.053,216.3998 57.6054,215.374 57.1376,214.3345 56.3794,213.4973 55.0883,213.7738 53.7807,214.0539 52.4894,215.7159 52.9203,217.7274 53.3262,219.6224 54.4345,220.2967 55.408,220.6671" stroke="black" stroke-width="1" /><polyline fill="none" points="54.6718,207.763 52.6964,207.9957 50.974,206.559 50.7514,204.6684 50.5288,202.7785 51.8723,200.9973 53.8476,200.7647 55.3459,200.5883 56.8441,200.4118 58.3424,200.2354 60.3174,200.0028 62.0386,201.4231 62.2612,203.313 62.4838,205.2036 61.1396,206.9845 59.1646,207.217 59.1653,207.2226 59.1659,207.2282 59.1666,207.2337 54.6034,207.7711 50.0403,208.3085 45.4771,208.8458" stroke="black" stroke-width="1" /><polyline fill="none" points="55.0264,195.1895 53.0551,195.2357 51.4231,193.6789 51.3769,191.7083 51.3303,189.7191 52.8879,188.1049 54.8592,188.0587 55.876,188.0349 56.8928,188.011 57.9096,187.9872 59.8809,187.941 61.5118,189.4804 61.5584,191.4695 61.6046,193.4401 60.0481,195.0718 58.0768,195.118 54.6716,195.1978 51.2665,195.2777 47.8614,195.3575 45.8904,195.4037 44.2588,193.8469 44.2126,191.8763 44.1727,190.1785 45.3052,188.7461 46.8732,188.3317" stroke="black" stroke-width="1" /><polyline fill="none" points="60.1404,175.973 61.0046,176.6354 61.8571,177.4688 61.7076,179.59 61.5738,181.489 59.9203,183.0051 57.8845,182.8617 56.3969,182.7569 54.9092,182.6521 53.4215,182.5473 51.4374,182.4075 50.0135,180.6745 50.1473,178.7756 50.2835,176.8425 51.9387,175.2924 53.9228,175.4322 54.6637,175.4844 55.4046,175.5366 56.1456,175.5888 55.9789,177.9548 55.8122,180.3208 55.6455,182.6868" stroke="black" stroke-width="1" /><polyline fill="none" points="60.184,163.7416 62.1459,164.0665 63.4051,165.9088 63.0941,167.7866 62.7832,169.6643 60.9946,171.0189 59.0327,170.694 57.5443,170.4475 56.0559,170.201 54.5676,169.9546 52.6053,169.6296 51.3496,167.7708 51.6605,165.8931 51.9715,164.0154 53.7566,162.6772 55.7189,163.0022" stroke="black" stroke-width="1" /><polyline fill="none" points="49.7226,148.881 49.1993,150.8652 48.6759,152.8494 48.1525,154.8336 50.7664,155.5231 53.3803,156.2126 55.9942,156.902 54.9835,155.9617 54.5438,154.8698 54.9242,153.4277 55.4489,151.4382 57.497,150.3295 59.3366,150.8147 60.6518,151.1616 61.967,151.5085 63.2822,151.8554 65.2051,152.3626 66.2078,154.276 65.731,156.0835 65.2588,157.8738 63.4472,159.0271 61.5244,158.5199" stroke="black" stroke-width="1" /><polyline fill="none" points="60.4111,145.2069 58.5438,144.5218 57.6565,142.4618 58.3123,140.6747 58.9678,138.8882 60.9712,137.9064 62.8384,138.5915 64.2547,139.1112 65.671,139.6309 67.0873,140.1505 68.9542,140.8355 69.8478,142.8803 69.1923,144.6668 68.5366,146.4539 66.5327,147.4352 64.6657,146.7502 64.6638,146.7554 64.6619,146.7607 64.66,146.7659 60.3465,145.1832 56.033,143.6005 51.7195,142.0178" stroke="black" stroke-width="1" /><polyline fill="none" points="63.0265,124.6023 65.0757,128.2157 67.1249,131.829 69.1741,135.4424 66.1004,133.9748 63.0267,132.5073 59.953,131.0397 58.1736,130.1901 57.4219,128.0633 58.2711,126.2845 59.1285,124.4889 61.2471,123.7527 63.0265,124.6023 66.1002,126.0699 69.1739,127.5374 72.2476,129.005 74.0271,129.8546 74.7859,131.9647 73.9362,133.7444 73.0794,135.539 70.9535,136.292 69.1741,135.4424" stroke="black" stroke-width="1" /><polyline fill="none" points="73.6732,116.0274 73.6685,116.0246 73.6638,116.0218 73.6591,116.019 75.6598,117.2162 77.6605,118.4133 79.6612,119.6105 80.5858,120.1638 81.329,119.7274 81.6187,119.2431 81.2488,119.8613 80.413,120.0604 79.7786,119.6808 79.7394,119.6573 79.7003,119.6339 79.6612,119.6105 79.936,121.0544 79.8554,122.5245 79.0897,123.8041 78.4558,124.8635 76.8958,126.268 74.7333,124.974 73.6002,124.296 73.258,123.2325 73.4221,122.0917 73.4945,121.536 74.0516,119.9698 74.4236,118.9142 74.7901,117.8349 74.8063,116.7054 73.6732,116.0274 72.5258,115.3408 70.448,115.6762 69.3917,117.4415 68.3966,119.1045 68.7476,120.3534 69.2072,121.2881" stroke="black" stroke-width="1" /><polyline fill="none" points="73.8881,100.7906 72.6741,102.4451 71.4602,104.0996 70.2462,105.7541 72.4258,107.3533 74.6053,108.9525 76.7849,110.5517 76.1889,109.3065 76.1798,108.1294 77.0621,106.9269 78.2793,105.268 80.5912,104.9868 82.1251,106.1123 83.2217,106.9169 84.3184,107.7216 85.415,108.5262 87.0184,109.7026 87.2504,111.8503 86.1445,113.3575 85.0492,114.8503 82.941,115.2596 81.3377,114.0832" stroke="black" stroke-width="1" /><polyline fill="none" points="86.2989,102.3903 84.8254,101.08 84.693,98.8284 86.0027,97.3553 87.3249,95.8684 89.5649,95.7496 91.0385,97.0598 91.7985,97.7357 92.5586,98.4115 93.3186,99.0873 94.7922,100.3975 94.9357,102.6356 93.6136,104.1225 92.3038,105.5956 90.0527,105.7279 88.5791,104.4177 86.0337,102.1544 83.4883,99.8912 80.9429,97.628 79.4696,96.318 79.3375,94.0666 80.6473,92.5935 81.7757,91.3244 83.5807,91.0487 85.0103,91.8146" stroke="black" stroke-width="1" /><polyline fill="none" points="103.1419,91.8195 103.3225,92.8933 103.3779,94.0842 101.8223,95.534 100.4297,96.832 98.1864,96.8137 96.7949,95.3208 95.7781,94.2298 94.7613,93.1388 93.7445,92.0478 92.3884,90.5928 92.5283,88.3543 93.9208,87.0563 95.3385,85.735 97.6062,85.7297 98.9623,87.1847 99.4687,87.728 99.9751,88.2714 100.4816,88.8148 98.7465,90.4319 97.0114,92.0491 95.2763,93.6662" stroke="black" stroke-width="1" /><polyline fill="none" points="98.9701,78.3138 97.526,76.4395 103.1636,72.0961 109.6736,88.7223" stroke="black" stroke-width="1" /><polyline fill="none" points="122.666,77.5991 122.6431,78.6878 122.4755,79.8681 120.6768,81.0025 119.0667,82.018 116.8661,81.5817 115.7774,79.8556 114.9818,78.5941 114.1863,77.3327 113.3907,76.0713 112.3297,74.3889 112.8845,72.2157 114.4947,71.2002 116.1339,70.1664 118.3628,70.5839 119.4238,72.2663 119.82,72.8945 120.2163,73.5228 120.6125,74.1511 118.6063,75.4163 116.6001,76.6816 114.5939,77.9469" stroke="black" stroke-width="1" /><polyline fill="none" points="121.0855,63.5525 120.0163,61.4417 126.3648,58.2257 129.6605,75.7742" stroke="black" stroke-width="1" /><polyline fill="none" points="144.3796,69.2222 142.8029,65.2181 137.1225,67.4548 137.6837,53.4338" stroke="black" stroke-width="1" /><polyline fill="none" points="145.5655,53.1736 144.9086,50.9005 151.7455,48.9246 151.7113,66.7799" stroke="black" stroke-width="1" /><polyline fill="none" points="164.4588,46.1945 162.4427,46.5772 160.4266,46.9598 158.4104,47.3425 158.9145,49.9984 159.4186,52.6543 159.9226,55.3102 160.3357,53.9928 161.1316,53.1256 162.5969,52.8475 164.6184,52.4639 166.5013,53.8344 166.856,55.7036 167.1096,57.0399 167.3633,58.3762 167.6169,59.7125 167.9877,61.6663 166.6931,63.3956 164.8565,63.7441 163.0375,64.0894 161.2162,62.9514 160.8454,60.9977" stroke="black" stroke-width="1" /><polyline fill="none" points="120.33,235.7331 239.8942,231.6324 268.4255,140.8637 158.7145,203.9175 156.5688,130.1462 268.4255,140.8637 140.8637,108.5745 236.1363,268.4255 126.744,171.7336 239.8942,231.6324" stroke="black" stroke-width="1" /><polyline fill="none" points="248.149,216.039 231.6395,247.2259" stroke="black" stroke-width="1" /><polyline fill="none" points="120.3369,236.1363 120.1921,234.2962 119.7612,232.5015 119.0549,230.7962 118.0905,229.2225 116.8918,227.819 115.4883,226.6203 113.9145,225.6559 112.2093,224.9496 110.4145,224.5187 108.5745,224.3739 106.7344,224.5187 104.9397,224.9496 103.2345,225.6559 101.6607,226.6203 100.2572,227.819 99.0585,229.2225 98.0941,230.7962 97.3878,232.5015 96.9569,234.2962 96.8121,236.1363 96.9569,237.9763 97.3878,239.7711 98.0941,241.4763 99.0585,243.05 100.2572,244.4535 101.6607,245.6523 103.2345,246.6166 104.9397,247.323 106.7344,247.7538 108.5745,247.8987 110.4145,247.7538 112.2093,247.323 113.9145,246.6166 115.4883,245.6522 116.8918,244.4535 118.0905,243.05 119.0549,241.4763 119.7612,239.7711 120.1921,237.9763 120.3369,236.1363" stroke="black" stroke-width="1" /><polyline fill="none" points="188.5,69.0664 199.6839,69.5912 210.7696,71.161 221.6595,73.7619 232.2581,77.3712 242.4721,81.9571 252.2118,87.4792 261.3915,93.8892 269.9308,101.1306 277.7544,109.1398 284.7936,117.8464 290.9866,127.1739 296.2789,137.0404 300.6241,147.3591 303.9839,158.0393 306.3289,168.9873 307.6383,180.1067 307.9008,191.2998 307.114,202.4684 305.2847,213.5142 302.4292,224.3402 298.5725,234.8512 293.7484,244.9549 287.9994,254.5625 281.376,263.5894 273.9365,271.9565 265.7461,279.5902 256.8768,286.4234 247.4067,292.3961 237.4188,297.4556 227.0011,301.5577 216.2451,304.6663 205.2452,306.7539 194.0981,307.8023 182.9019,307.8023 171.7548,306.7539 160.7549,304.6663 149.9989,301.5577 139.5811,297.4556 129.5933,292.3961 120.1232,286.4234 111.2539,279.5902 103.0635,271.9565 95.6239,263.5894 89.0006,254.5625 83.2516,244.9549 78.4275,234.8512 74.5708,224.3402 71.7153,213.5142 69.8861,202.4684 69.0992,191.2998 69.3617,180.1067 70.6712,168.9872 73.0161,158.0393 76.3759,147.3591 80.7211,137.0404 86.0134,127.174 92.2064,117.8464 99.2457,109.1398 107.0692,101.1306 115.6085,93.8892 124.7882,87.4792 134.5279,81.957 144.7419,77.3712 155.3405,73.7619 166.2304,71.161 177.3161,69.5912 188.5,69.0664" stroke="black" stroke-width="1" />

    </g>
  </g>
  <WCB
     pausedposy="0"
     pausedposx="0"
     lastknownposy="0"
     lastknownposx="0"
     lastpathnc="0"
     lastpath="0"
     node="0"
     layer="0" />
</svg>
