<?xml version="1.0" encoding="UTF-8" standalone="no"?>
<!-- Created with Inkscape (http://www.inkscape.org/) -->

<svg
   xmlns:dc="http://purl.org/dc/elements/1.1/"
   xmlns:cc="http://creativecommons.org/ns#"
   xmlns:rdf="http://www.w3.org/1999/02/22-rdf-syntax-ns#"
   xmlns:svg="http://www.w3.org/2000/svg"
   xmlns="http://www.w3.org/2000/svg"
   xmlns:sodipodi="http://sodipodi.sourceforge.net/DTD/sodipodi-0.dtd"
   xmlns:inkscape="http://www.inkscape.org/namespaces/inkscape"
   width="100mm"
   height="100mm"
   viewBox="0 0 100 100"
   version="1.1"
   id="svg19124"
   inkscape:version="0.92.3 (2405546, 2018-03-11)"
   sodipodi:docname="inkscape_template_TMP.svg"
   shape-rendering="crispEdges">
  <sodipodi:namedview
     pagecolor="#ffffff"
     bordercolor="#666666"
     borderopacity="1"
     objecttolerance="10"
     gridtolerance="10"
     guidetolerance="10"
     inkscape:pageopacity="0"
     inkscape:pageshadow="2"
     inkscape:window-width="1568"
     inkscape:window-height="1550"
     id="namedview24021"
     showgrid="false"
     inkscape:zoom="0.62441667"
     inkscape:cx="712.66515"
     inkscape:cy="409.98265"
     inkscape:window-x="0"
     inkscape:window-y="0"
     inkscape:window-maximized="0"
     inkscape:current-layer="layer1" />
  <defs
     id="defs19118" />
  <metadata
     id="metadata19121">
    <rdf:RDF>
      <cc:Work
         rdf:about="">
        <dc:format>image/svg+xml</dc:format>
        <dc:type
           rdf:resource="http://purl.org/dc/dcmitype/StillImage" />
        <dc:title />
      </cc:Work>
    </rdf:RDF>
  </metadata>
  <g
     transform="translate(0,-197)"
     id="layer1"
     inkscape:groupmode="layer"
     inkscape:label="Layer 1">
    <g
       id="g24447"
       transform="matrix(0.26458333,0,0,0.26458333,0.10666333,197.9735)">

<polyline fill="none" points="192.1004,47.7394 189.7225,51.1455 187.3447,54.5516 184.9669,57.9577 184.9669,54.5516 184.9669,51.1455 184.9669,47.7394 184.9669,45.7676 186.5623,44.1729 188.5334,44.1729 190.5231,44.1729 192.1004,45.7676 192.1004,47.7394 192.1004,51.1455 192.1004,54.5516 192.1004,57.9577 192.1004,59.9295 190.5231,61.5235 188.5509,61.5235 186.5623,61.5235 184.9669,59.9295 184.9669,57.9577" stroke="black" stroke-width="1" /><polyline fill="none" points="197.8298,61.5877 200.7471,57.7851 198.696,53.7706 202.935,62.0679 200.7471,57.7851 203.4811,54.2207" stroke="black" stroke-width="1" /><polyline fill="none" points="218.2683,47.2815 216.2522,46.8988 214.2361,46.5162 212.22,46.1336 211.7159,48.7895 211.2119,51.4454 210.7078,54.1013 211.5748,53.0269 212.6331,52.5116 214.0984,52.7897 216.1199,53.1733 217.3697,55.1384 217.015,57.0076 216.7614,58.3439 216.5077,59.6802 216.2541,61.0165 215.8833,62.9703 214.0452,64.105 212.2086,63.7565 210.3896,63.4112 209.1118,61.6852 209.4826,59.7314" stroke="black" stroke-width="1" /><polyline fill="none" points="222.6844,57.6853 223.2367,55.7745 225.2292,54.7446 227.058,55.2732 228.8861,55.8015 230.0063,57.7309 229.4541,59.6417 229.0352,61.091 228.6164,62.5403 228.1975,63.9897 227.6454,65.9001 225.6685,66.9352 223.8403,66.4069 222.0115,65.8783 220.8919,63.9483 221.444,62.0379 221.4386,62.0363 221.4333,62.0348 221.4279,62.0332 222.7036,57.6192 223.9792,53.2051 225.2549,48.7911" stroke="black" stroke-width="1" /><polyline fill="none" points="238.0466,56.5642 241.758,54.3952 235.4769,70.347" stroke="black" stroke-width="1" /><polyline fill="none" points="249.1933,61.2241 249.9991,59.6333 252.0425,58.9 253.7713,59.7757 255.4991,60.651 256.1714,62.6647 255.2572,64.4693 255.1127,64.7546 254.9681,65.04 254.8235,65.3254 253.4289,68.0785 250.7953,67.3205 250.4888,67.1652 250.1932,67.0155 249.8977,66.8658 249.6021,66.716 249.8977,66.8658 250.1932,67.0155 250.4888,67.1652 251.3917,67.6226 252.7765,69.6698 251.6921,71.8105 251.3744,72.4377 251.0566,73.0649 250.7389,73.6922 249.8404,75.4659 247.6893,76.1446 245.9149,75.2458 244.1253,74.3392 243.416,72.2114 244.3145,70.4377" stroke="black" stroke-width="1" /><polyline fill="none" points="261.1162,79.8498 260.0554,81.5319 257.8688,81.9774 256.2589,80.9621 254.6491,79.9468 254.0948,77.7726 255.1556,76.0906 255.9604,74.8145 256.7652,73.5385 257.5699,72.2625 258.631,70.5801 260.8314,70.1441 262.4413,71.1594 264.0511,72.1747 264.5916,74.3393 263.5305,76.0217" stroke="black" stroke-width="1" /><polyline fill="none" points="272.7293,75.5074 276.8971,74.4541 266.434,88.0348" stroke="black" stroke-width="1" /><polyline fill="none" points="289.4206,85.138 286.2879,88.4991 283.1552,91.8603 280.0225,95.2214 278.6664,96.6764 276.4233,96.695 275.0307,95.397 273.6509,94.1111 273.5115,91.872 274.8676,90.4169 275.8962,89.3133 276.9248,88.2097 277.9534,87.1061 279.3095,85.6511 281.5524,85.6334 282.9322,86.9193 284.3247,88.2173 284.4644,90.4556 283.1083,91.9106" stroke="black" stroke-width="1" /><polyline fill="none" points="297.5006,94.1298 296.8404,93.3873 295.8447,93.171 294.8967,94.0139 293.9785,94.8303 293.0604,95.6467 292.1422,96.4631 292.5446,96.9156 292.947,97.3682 293.3494,97.8208 292.5747,96.9495 291.8,96.0783 291.0254,95.207 291.3976,95.6257 291.7699,96.0444 292.1422,96.4631 289.3193,98.973 286.4964,101.483 283.6735,103.993" stroke="black" stroke-width="1" /><polyline fill="none" points="300.7892,103.3351 305.0854,103.4803 291.2632,113.6222" stroke="black" stroke-width="1" /><polyline fill="none" points="302.6975,116.1122 304.4043,115.0909 306.564,115.696 307.5415,117.3295 308.5186,118.9624 308.0226,121.1376 306.3158,122.1589 305.0212,122.9336 303.7267,123.7082 302.4321,124.4829 300.7256,125.504 298.5737,124.9133 297.5966,123.2804 296.6191,121.6468 297.116,119.4716 298.8224,118.4505 298.8196,118.4457 298.8167,118.4409 298.8138,118.4361 302.7565,116.0768 306.6993,113.7176 310.642,111.3583" stroke="black" stroke-width="1" /><polyline fill="none" points="317.076,131.1004 312.9778,130.4222 308.8796,129.7439 304.7813,129.0657 307.855,127.5981 310.9287,126.1306 314.0024,124.663 315.7819,123.8134 317.9084,124.5661 318.7577,126.3449 319.6149,128.1404 318.8554,130.2508 317.076,131.1004 314.0023,132.5679 310.9286,134.0355 307.8549,135.5031 306.0755,136.3527 303.9575,135.6161 303.1077,133.8364 302.2509,132.0418 303.0019,129.9153 304.7813,129.0657" stroke="black" stroke-width="1" /><polyline fill="none" points="316.4042,141.5914 316.8668,143.1468 318.8803,144.2826 320.7234,143.6063 321.1524,143.4489 321.5813,143.2915 322.0103,143.1341 323.7491,142.4961 324.6453,140.5588 324.0013,138.8038 323.3634,137.0653 321.3947,136.18 319.6884,136.8061 319.2594,136.9635 318.8304,137.1208 318.4015,137.2782 316.6623,137.9164 315.7663,139.8529 316.4042,141.5914 317.107,143.507 316.0957,145.5782 314.2452,146.2572 313.6121,146.4895 312.9789,146.7219 312.3457,146.9542 310.4949,147.6333 308.4155,146.6961 307.7126,144.7805 307.0157,142.8811 307.9958,140.8224 309.8467,140.1433 310.4903,139.9071 311.134,139.6709 311.7776,139.4348 313.3643,138.8526 315.549,139.5552" stroke="black" stroke-width="1" /><polyline fill="none" points="325.5238,156.0813 321.6239,154.6508 317.7241,153.2203 313.8242,151.7898 317.1176,150.9211 320.4111,150.0524 323.7045,149.1837 325.6111,148.6808 327.56,149.8168 328.0627,151.7227 328.5702,153.6467 327.4305,155.5784 325.5238,156.0813 322.2304,156.95 318.937,157.8187 315.6435,158.6874 313.7369,159.1903 311.7934,158.0718 311.2903,156.1648 310.7832,154.2419 311.9175,152.2927 313.8242,151.7898" stroke="black" stroke-width="1" /><polyline fill="none" points="319.7173,163.1629 321.6627,162.8408 323.4968,164.1534 323.8188,166.0981 324.1439,168.0611 322.828,169.8777 320.8826,170.1998 319.8792,170.366 318.8758,170.5322 317.8724,170.6983 315.9271,171.0205 314.0965,169.7249 313.7714,167.762 313.4493,165.8173 314.7617,163.9836 316.7071,163.6614 320.0674,163.1049 323.4277,162.5484 326.788,161.992 328.733,161.6699 330.5668,162.9826 330.8889,164.9273 331.1664,166.6027 330.2458,168.1797 328.7515,168.8098" stroke="black" stroke-width="1" /><polyline fill="none" points="329.8173,174.8605 332.1776,174.6942 332.6777,181.7933 315.2256,178.0203" stroke="black" stroke-width="1" /><polyline fill="none" points="315.5517,194.1284 319.8539,194.2293 319.9969,188.1262 332.7012,194.0847" stroke="black" stroke-width="1" /><polyline fill="none" points="323.7973,204.4543 323.5071,206.0509 324.79,207.9739 326.7398,208.2036 327.1936,208.257 327.6474,208.3104 328.1012,208.3639 329.9406,208.5805 331.6155,207.2573 331.8342,205.4007 332.0508,203.5616 330.6946,201.8821 328.8895,201.6695 328.4357,201.6161 327.9819,201.5627 327.5281,201.5092 325.6883,201.2926 324.0139,202.6151 323.7973,204.4543 323.5587,206.4807 321.7205,207.8714 319.7628,207.6409 319.093,207.562 318.4232,207.4831 317.7534,207.4042 315.7955,207.1736 314.364,205.3979 314.6026,203.3715 314.8393,201.3621 316.644,199.9685 318.6019,200.1991 319.2829,200.2793 319.9638,200.3595 320.6447,200.4397 322.3232,200.6373 323.9546,202.2514" stroke="black" stroke-width="1" /><polyline fill="none" points="312.274,217.7198 316.482,218.6211 317.7606,212.6516 329.131,220.8746" stroke="black" stroke-width="1" /><polyline fill="none" points="323.9817,227.5838 325.6828,228.1189 326.7401,230.015 326.1585,231.8637 325.5773,233.7113 323.7005,234.7035 321.7708,234.0964 321.4656,234.0004 321.1605,233.9044 320.8553,233.8084 317.9114,232.8823 318.2289,230.1603 318.332,229.8325 318.4315,229.5165 318.5309,229.2004 318.6303,228.8844 318.5309,229.2004 318.4315,229.5165 318.332,229.8325 318.0283,230.7981 316.2349,232.4987 313.9458,231.7786 313.2751,231.5676 312.6044,231.3566 311.9337,231.1456 310.037,230.549 309.016,228.5376 309.6128,226.6403 310.2148,224.7266 312.1981,223.6792 314.0948,224.2758" stroke="black" stroke-width="1" /><polyline fill="none" points="316.8306,246.4462 314.6143,242.9329 312.398,239.4196 310.1817,235.9062 313.3208,237.2281 316.4599,238.55 319.599,239.8718 321.4163,240.6371 322.2669,242.7264 321.5019,244.543 320.7297,246.3768 318.6479,247.2115 316.8306,246.4462 313.6915,245.1243 310.5524,243.8025 307.4133,242.4806 305.5959,241.7153 304.739,239.6431 305.5044,237.8255 306.2762,235.9927 308.3644,235.141 310.1817,235.9062" stroke="black" stroke-width="1" /><polyline fill="none" points="300.4676,252.5029 299.9506,251.5447 299.5142,250.4352 300.5194,248.5612 301.4192,246.8837 303.5487,246.1778 305.3471,247.1425 306.6613,247.8474 307.9756,248.5524 309.2898,249.2573 311.0426,250.1975 311.6318,252.3617 310.7319,254.0392 309.8159,255.747 307.671,256.4831 305.9182,255.5429 305.2637,255.1918 304.6091,254.8407 303.9546,254.4896 305.0757,252.3995 306.1969,250.3093 307.3181,248.2191" stroke="black" stroke-width="1" /><polyline fill="none" points="301.9847,263.8732 301.0043,265.1663 301.2797,267.4616 302.9153,268.5475 303.296,268.8003 303.6766,269.053 304.0573,269.3057 305.6003,270.3303 307.6924,269.9067 308.7264,268.3494 309.7508,266.8066 309.2999,264.6956 307.7857,263.6902 307.4051,263.4374 307.0244,263.1847 306.6437,262.932 305.1004,261.9073 303.009,262.3304 301.9847,263.8732 300.856,265.5731 298.5878,265.983 296.9457,264.8927 296.3838,264.5196 295.822,264.1466 295.2601,263.7735 293.6176,262.683 293.1431,260.4521 294.2717,258.7522 295.3909,257.0666 297.6306,256.639 299.273,257.7295 299.8442,258.1088 300.4154,258.488 300.9865,258.8672 302.3945,259.8021 303.1205,261.9792" stroke="black" stroke-width="1" /><polyline fill="none" points="295.7948,270.7732 297.3416,272.0237 297.5174,274.2598 296.3206,275.7401 295.1241,277.2199 292.9112,277.5035 291.3645,276.253 290.1913,275.3045 289.0182,274.356 287.845,273.4075 286.2986,272.1572 286.1118,269.9335 287.3082,268.4537 288.5051,266.9734 290.7184,266.6905 292.2648,267.9408 292.2683,267.9365 292.2718,267.9321 292.2754,267.9278 295.8484,270.8165 299.4214,273.7052 302.9944,276.594" stroke="black" stroke-width="1" /><polyline fill="none" points="290.297,290.5992 290.9913,289.8884 291.1371,288.88 290.2296,287.9935 289.3507,287.135 288.4718,286.2765 287.593,285.4179 287.1698,285.8512 286.7466,286.2844 286.3234,286.7176 287.1381,285.8836 287.9528,285.0496 288.7674,284.2156 288.3759,284.6164 287.9844,285.0172 287.593,285.4179 284.8908,282.7784 282.1887,280.1389 279.4865,277.4994" stroke="black" stroke-width="1" /><polyline fill="none" points="279.6011,300.4349 281.1662,299.1076 282.7313,297.7804 284.2964,296.4532 282.548,294.3914 280.7996,292.3296 279.0511,290.2679 279.3416,291.6175 279.0769,292.7644 277.9394,293.7291 276.3701,295.0598 274.0562,294.7963 272.8257,293.3453 271.946,292.3079 271.0663,291.2705 270.1866,290.2331 268.9004,288.7164 269.1736,286.5736 270.5994,285.3646 272.0115,284.1671 274.1571,284.2586 275.4433,285.7753" stroke="black" stroke-width="1" /><polyline fill="none" points="268.7342,297.328 269.873,298.9588 269.4211,301.1557 267.8603,302.2456 266.3001,303.335 264.0954,302.9931 262.9567,301.3623 262.093,300.1254 261.2293,298.8885 260.3656,297.6516 259.2271,296.0211 259.6651,293.8329 261.2253,292.7435 262.7861,291.6537 264.9908,291.9964 266.1294,293.6269 266.134,293.6237 266.1385,293.6205 266.1431,293.6172 268.7736,297.3844 271.4041,301.1516 274.0346,304.9188" stroke="black" stroke-width="1" /><polyline fill="none" points="261.697,310.1503 262.864,312.2086 256.6732,315.7187 252.5585,298.344" stroke="black" stroke-width="1" /><polyline fill="none" points="244.2812,312.7914 242.7622,313.3622 241.7707,315.4505 242.5748,317.2415 242.762,317.6584 242.9491,318.0752 243.1363,318.492 243.8949,320.1818 245.8904,320.9395 247.5958,320.1739 249.2852,319.4153 250.03,317.3893 249.2855,315.7312 249.0984,315.3143 248.9112,314.8975 248.7241,314.4807 247.9653,312.7906 245.9706,312.0329 244.2812,312.7914 242.4198,313.6271 240.2826,312.7639 239.4752,310.9656 239.199,310.3504 238.9227,309.7351 238.6465,309.1199 237.839,307.3214 238.6277,305.1812 240.4892,304.3454 242.3349,303.5167 244.4574,304.3498 245.2649,306.1483 245.5457,306.7738 245.8266,307.3993 246.1074,308.0247 246.7996,309.5665 246.2523,311.7953" stroke="black" stroke-width="1" /><polyline fill="none" points="229.3783,320.0539 228.7426,318.1873 229.7225,316.1697 231.5891,315.5341 233.4719,314.8929 235.4946,315.8879 236.1303,317.7545 236.4582,318.7175 236.7861,319.6805 237.1141,320.6435 237.7497,322.5101 236.7549,324.5335 234.888,325.1693 233.0055,325.8103 230.9978,324.8094 230.3621,322.9428 229.2641,319.7186 228.1661,316.4944 227.0681,313.2701 226.4326,311.4039 227.4123,309.386 229.2789,308.7503 230.8855,308.2032 232.5928,308.8537 233.4587,310.2253" stroke="black" stroke-width="1" /><polyline fill="none" points="219.185,329.5222 221.181,329.0455 223.1769,328.5688 225.1729,328.092 224.5449,325.4627 223.9169,322.8333 223.2889,320.204 222.938,321.5392 222.1837,322.4427 220.733,322.7892 218.7317,323.2672 216.7867,321.9865 216.3447,320.136 216.0287,318.813 215.7127,317.4901 215.3968,316.1671 214.9348,314.2328 216.1469,312.4448 217.9651,312.0105 219.766,311.5804 221.6386,312.6317 222.1006,314.5659" stroke="black" stroke-width="1" /><polyline fill="none" points="211.7021,327.3795 211.9785,329.3318 210.6231,331.134 208.6707,331.4105 206.701,331.6894 204.8602,330.3052 204.5837,328.3528 204.4754,327.5879 204.5558,327.0582 204.7235,326.6524 206.4165,322.5459 208.1096,318.4394 209.8027,314.3328 209.7827,314.1916 209.7627,314.0504 209.7427,313.9092 207.3998,314.241 205.0569,314.5727 202.714,314.9045" stroke="black" stroke-width="1" /><polyline fill="none" points="192.3519,332.7706 194.4017,332.6744 196.4516,332.5782 198.5014,332.482 198.3747,329.7816 198.248,327.0813 198.1213,324.381 197.5276,325.6273 196.618,326.3744 195.1282,326.4443 193.0728,326.5408 191.4007,324.9198 191.3115,323.0193 191.2478,321.6606 191.184,320.302 191.1203,318.9433 191.027,316.9568 192.5513,315.4262 194.4186,315.3386 196.2681,315.2518 197.9118,316.6338 198.0051,318.6202" stroke="black" stroke-width="1" /><polyline fill="none" points="182.0934,324.584 180.4803,324.4067 178.6522,325.8216 178.5601,327.7827 178.5387,328.2391 178.5173,328.6956 178.4959,329.152 178.4091,331.0021 179.8468,332.5799 181.7141,332.6675 183.5639,332.7543 185.1439,331.2835 185.2291,329.4679 185.2505,329.0115 185.2719,328.5551 185.2933,328.0987 185.3802,326.2481 183.9432,324.6708 182.0934,324.584 180.0552,324.4883 178.5387,322.7524 178.6311,320.7834 178.6628,320.1098 178.6944,319.4361 178.726,318.7624 178.8184,316.7931 180.4891,315.2403 182.5273,315.336 184.5484,315.4308 186.0653,317.1331 185.9729,319.1025 185.9408,319.7873 185.9086,320.4722 185.8765,321.157 185.7973,322.8452 184.3018,324.5861" stroke="black" stroke-width="1" /><polyline fill="none" points="169.3784,323.3861 167.7891,323.0586 165.8364,324.296 165.5612,326.2399 165.4971,326.6923 165.4331,327.1447 165.369,327.5971 165.1093,329.431 166.3929,331.1365 168.2438,331.3986 170.0774,331.6582 171.7882,330.3418 172.043,328.5422 172.1071,328.0898 172.1711,327.6374 172.2352,327.185 172.4949,325.3507 171.212,323.6457 169.3784,323.3861 167.3581,323.1 166.0109,321.2297 166.2873,319.2781 166.3818,318.6103 166.4764,317.9425 166.571,317.2747 166.8474,315.3228 168.6562,313.9333 170.6765,314.2194 172.6797,314.503 174.0306,316.3399 173.7542,318.2919 173.6581,318.9708 173.562,319.6496 173.4658,320.3285 173.2289,322.0018 171.577,323.595" stroke="black" stroke-width="1" /><polyline fill="none" points="160.4847,320.7733 160.0226,322.7078 158.0806,323.8299 156.229,323.3877 154.3781,322.9456 153.1687,321.0709 153.6308,319.1363 153.9812,317.6689 154.3317,316.2016 154.6822,314.7342 155.1441,312.8 157.0704,311.6733 158.9213,312.1154 160.7728,312.5576 161.9817,314.433 161.5197,316.3673 161.5252,316.3686 161.5306,316.3699 161.5361,316.3712 160.4687,320.8401 159.4013,325.3091 158.334,329.7781" stroke="black" stroke-width="1" /><polyline fill="none" points="148.2215,317.5686 147.5804,319.4514 145.5417,320.3867 143.7397,319.7731 141.9384,319.1597 140.9099,317.1799 141.551,315.297 142.0374,313.869 142.5237,312.4409 143.01,311.0128 143.6511,309.1303 145.6744,308.189 147.4757,308.8024 149.2777,309.4161 150.3057,311.3965 149.6646,313.279 149.6699,313.2808 149.6752,313.2826 149.6805,313.2844 148.1993,317.6338 146.7182,321.9832 145.237,326.3326" stroke="black" stroke-width="1" /><polyline fill="none" points="127.7151,319.2367 128.6216,319.6436 129.6185,319.4331 130.1381,318.2758 130.6414,317.155 131.1446,316.0341 131.6478,314.9133 131.0953,314.6653 130.5428,314.4172 129.9904,314.1692 131.054,314.6467 132.1175,315.1242 133.1811,315.6017 132.67,315.3723 132.1589,315.1428 131.6478,314.9133 133.195,311.4673 134.7422,308.0213 136.2894,304.5753" stroke="black" stroke-width="1" /><polyline fill="none" points="117.3505,306.4627 118.323,304.7474 120.4818,304.139 122.1972,305.1116 123.9274,306.0926 124.5278,308.2654 123.5553,309.9807 123.0535,310.8657 122.5518,311.7506 122.05,312.6356 121.0775,314.3509 118.9043,314.952 117.1887,313.9792 115.4588,312.9984 114.8727,310.8329 115.8452,309.1176 117.5251,306.1546 119.2051,303.1917 120.885,300.2287 121.8574,298.5137 124.0164,297.905 125.7317,298.8775 127.2081,299.7146 127.8565,301.4227 127.4068,302.9813" stroke="black" stroke-width="1" /><polyline fill="none" points="110.2586,306.9689 108.904,308.9089 103.069,304.8345 116.9754,293.6353" stroke="black" stroke-width="1" /><polyline fill="none" points="94.7144,293.5274 98.7309,292.4676 102.7473,291.4077 106.7638,290.3478 104.5609,292.9456 102.3579,295.5434 100.155,298.1411 98.8796,299.645 96.6314,299.8294 95.1281,298.5545 93.6105,297.2676 93.439,295.0313 94.7144,293.5274 96.9173,290.9297 99.1203,288.3319 101.3232,285.7341 102.5985,284.2302 104.8324,284.0346 106.3366,285.3102 107.8533,286.5964 108.0391,288.8439 106.7638,290.3478" stroke="black" stroke-width="1" /><polyline fill="none" points="91.0302,283.6816 89.9711,282.4521 87.6691,282.2407 86.2646,283.6126 85.9378,283.9319 85.6109,284.2512 85.2841,284.5704 83.9591,285.8647 83.9351,287.9991 85.2413,289.3363 86.5353,290.661 88.694,290.6624 89.9942,289.3923 90.321,289.073 90.6479,288.7537 90.9747,288.4344 92.3,287.1399 92.3242,285.0063 91.0302,283.6816 89.6044,282.222 89.6786,279.9182 91.0887,278.5408 91.5712,278.0695 92.0536,277.5983 92.5361,277.127 93.9464,275.7494 96.2272,275.7526 97.653,277.2122 99.0668,278.6596 99.0159,280.9391 97.6056,282.3168 97.1151,282.7959 96.6246,283.275 96.1342,283.754 94.9252,284.935 92.6444,285.1889" stroke="black" stroke-width="1" /><polyline fill="none" points="74.0844,276.6915 77.6574,273.8028 81.2304,270.9141 84.8034,268.0253 86.3501,266.7748 88.5737,267.071 89.7705,268.5513 90.9563,270.018 90.7804,272.2546 89.2337,273.5051 88.0606,274.4536 86.8874,275.402 85.7142,276.3506 84.1675,277.601 81.9443,277.3042 80.7585,275.8374 79.5616,274.3571 79.7372,272.1213 81.2839,270.8708" stroke="black" stroke-width="1" /><polyline fill="none" points="69.2417,263.3596 73.3946,263.4566 77.5474,263.5535 81.7002,263.6505 78.8626,265.5345 76.0251,267.4185 73.1875,269.3025 71.5447,270.3932 69.3337,269.9461 68.2434,268.304 67.1429,266.6464 67.599,264.4503 69.2417,263.3596 72.0793,261.4756 74.9169,259.5916 77.7545,257.7076 79.3972,256.6169 81.5975,257.0492 82.6884,258.6923 83.7884,260.349 83.3429,262.5598 81.7002,263.6505" stroke="black" stroke-width="1" /><polyline fill="none" points="59.6468,253.8109 63.6957,251.6391 67.7447,249.4672 71.7937,247.2954 73.5464,246.3552 75.6758,247.0608 76.5756,248.7383 77.4671,250.4004 76.8773,252.5649 75.1245,253.5051 73.7951,254.2182 72.4657,254.9313 71.1362,255.6444 69.3835,256.5846 67.2546,255.8784 66.363,254.2163 65.4632,252.5387 66.0526,250.3749 67.8053,249.4347" stroke="black" stroke-width="1" /><polyline fill="none" points="68.3334,235.3307 69.4037,235.5311 70.5408,235.8893 71.3661,237.8492 72.1049,239.6036 71.3149,241.7034 69.4341,242.4954 68.0596,243.0742 66.6852,243.653 65.3107,244.2318 63.4776,245.0037 61.4242,244.1012 60.6854,242.3468 59.9333,240.5607 60.7094,238.43 62.5425,237.6581 63.2271,237.3698 63.9116,237.0815 64.5962,236.7933 65.5167,238.9792 66.4372,241.1652 67.3577,243.3512" stroke="black" stroke-width="1" /><polyline fill="none" points="62.1312,231.9841 60.2502,232.5759 58.2501,231.5333 57.6586,229.653 57.0616,227.755 58.1098,225.7719 59.9908,225.1801 60.961,224.8749 61.9312,224.5697 62.9013,224.2645 64.7823,223.6728 66.7765,224.6989 67.3736,226.5969 67.9651,228.4772 66.9227,230.4768 65.0418,231.0685 61.7927,232.0906 58.5436,233.1127 55.2945,234.1349 53.4138,234.7265 51.4141,233.6838 50.8226,231.8035 50.313,230.1835 51.0033,228.4931 52.3945,227.6597" stroke="black" stroke-width="1" /><polyline fill="none" points="46.5797,215.4684 51.0724,214.5061 55.5652,213.5438 60.058,212.5815 62.0029,212.1649 63.8526,213.4339 64.2513,215.2953 64.6463,217.1396 63.4788,219.0553 61.5339,219.4719 60.0587,219.7878 58.5835,220.1038 57.1084,220.4198 55.1635,220.8363 53.3144,219.5668 52.9194,217.7225 52.5207,215.8611 53.6876,213.946 55.6325,213.5294" stroke="black" stroke-width="1" /><polyline fill="none" points="61.9142,200.7404 57.6403,201.2437 58.3543,207.3067 44.9401,203.1881" stroke="black" stroke-width="1" /><polyline fill="none" points="57.8179,188.1016 59.806,188.055 61.3866,189.6302 61.4312,191.533 61.4758,193.4358 59.9712,195.1001 57.9831,195.1467 56.4749,195.1821 54.9666,195.2175 53.4584,195.2528 51.47,195.2995 49.8897,193.7074 49.8451,191.8047 49.8004,189.9019 51.3048,188.2544 53.2932,188.2077" stroke="black" stroke-width="1" /><polyline fill="none" points="47.8412,182.1006 45.8743,181.962 44.3959,180.2592 44.5345,178.2922 44.6743,176.3078 46.4134,174.7976 48.3803,174.9362 49.151,174.9905 49.6521,175.1801 50.0137,175.429 53.6746,177.9446 57.3354,180.4602 60.9963,182.9758 61.1386,182.9858 61.2808,182.9958 61.4231,183.0059 61.5894,180.6454 61.7557,178.285 61.922,175.9246" stroke="black" stroke-width="1" /><polyline fill="none" points="55.1052,163.137 55.0998,163.1361 55.0944,163.1352 55.089,163.1343 57.3892,163.5152 59.6893,163.8961 61.9895,164.2771 63.0526,164.4531 63.5842,163.7747 63.6763,163.218 63.5586,163.9287 62.8539,164.4202 62.1245,164.2994 62.0795,164.292 62.0345,164.2845 61.9895,164.2771 62.7742,165.5199 63.2379,166.9173 62.9943,168.3884 62.7925,169.6065 61.8555,171.4848 59.3693,171.0731 58.0667,170.8573 57.3587,169.9932 57.0933,168.8716 56.9571,168.328 56.9017,166.6666 56.861,165.5481 56.8066,164.4096 56.4079,163.3527 55.1052,163.137 53.786,162.9185 51.9755,163.9919 51.6394,166.0214 51.3228,167.9333 52.107,168.9668 52.8771,169.6681" stroke="black" stroke-width="1" /><polyline fill="none" points="58.4166,157.8689 56.51,157.366 55.3744,155.4172 55.8771,153.5113 56.3846,151.5874 58.3291,150.4691 60.2358,150.972 61.2192,151.2314 62.2026,151.4908 63.1861,151.7502 65.0927,152.2531 66.2321,154.1848 65.7246,156.1087 65.2219,158.0146 63.2736,159.15 61.3669,158.6471 58.0735,157.7784 54.78,156.9097 51.4866,156.041 49.5803,155.5382 48.4451,153.5895 48.9478,151.6835 49.3809,150.0414 50.8666,148.9798 52.4879,149.0171" stroke="black" stroke-width="1" /><polyline fill="none" points="54.073,135.6035 58.3864,137.1862 62.6999,138.7689 67.0134,140.3516 68.8807,141.0368 69.7683,143.0969 69.1125,144.884 68.4628,146.6547 66.4533,147.6522 64.586,146.967 63.1697,146.4474 61.7535,145.9277 60.3372,145.408 58.4699,144.7229 57.5831,142.6627 58.2328,140.892 58.8885,139.1049 60.8972,138.1075 62.7645,138.7926" stroke="black" stroke-width="1" /><polyline fill="none" points="60.3724,129.8039 58.4696,125.9492 73.9405,133.3359" stroke="black" stroke-width="1" /><polyline fill="none" points="72.0352,122.9569 70.3432,121.9444 69.7933,119.7569 70.8054,118.0655 71.8271,116.3581 74.0057,115.8237 75.6977,116.8362 76.5705,117.3585 77.4432,117.8807 78.316,118.4029 80.008,119.4154 80.5663,121.5875 79.5446,123.2949 78.5325,124.9863 76.3455,125.5361 74.6535,124.5236 71.7307,122.7746 68.8079,121.0257 65.8852,119.2768 64.1934,118.2645 63.6438,116.0772 64.656,114.3858 65.528,112.9285 67.25,112.3211 68.7972,112.807" stroke="black" stroke-width="1" /><polyline fill="none" points="77.4668,111.3464 75.8631,110.1697 75.5827,107.9444 76.7088,106.4096 77.8345,104.8753 80.0317,104.4883 81.6354,105.665 82.8517,106.5574 84.068,107.4499 85.2844,108.3423 86.8877,109.5188 87.1785,111.7313 86.0527,113.2655 84.9266,114.8003 82.729,115.1866 81.1257,114.0102 81.1224,114.0147 81.1191,114.0192 81.1158,114.0237 77.4113,111.3056 73.7068,108.5876 70.0023,105.8695" stroke="black" stroke-width="1" /><polyline fill="none" points="93.1735,99.1085 94.6597,100.4299 94.742,102.6599 93.4773,104.0822 92.2126,105.5046 89.9771,105.6962 88.491,104.3748 87.3636,103.3724 86.2362,102.3699 85.1087,101.3675 83.6223,100.0459 83.5517,97.8038 84.8164,96.3814 86.0811,94.9591 88.3049,94.7795 89.7913,96.1011" stroke="black" stroke-width="1" /><polyline fill="none" points="95.6295,88.8257 96.8834,87.7957 97.1488,85.4993 95.8102,84.063 95.4987,83.7288 95.1871,83.3945 94.8756,83.0603 93.6128,81.7054 91.4795,81.6313 90.112,82.9059 88.7573,84.1684 88.7054,86.3265 89.9447,87.6561 90.2562,87.9903 90.5677,88.3246 90.8792,88.6588 92.1423,90.0141 94.2748,90.0883 95.6295,88.8257 97.1221,87.4345 99.4235,87.5628 100.7675,89.0047 101.2273,89.4981 101.6871,89.9914 102.147,90.4848 103.4912,91.927 103.4344,94.2072 101.9418,95.5984 100.4617,96.9779 98.184,96.8735 96.8398,95.4312 96.3723,94.9297 95.9049,94.4281 95.4374,93.9266 94.2851,92.6903 94.0848,90.4041" stroke="black" stroke-width="1" /><polyline fill="none" points="98.9701,78.3138 97.526,76.4395 103.1636,72.0961 109.6736,88.7223" stroke="black" stroke-width="1" /><polyline fill="none" points="118.817,71.9593 118.8141,71.9546 118.8112,71.95 118.8083,71.9454 120.052,73.9174 121.2958,75.8895 122.5395,77.8616 123.1143,78.773 123.9745,78.7195 124.4518,78.4184 123.8425,78.8027 123.0069,78.6026 122.6125,77.9773 122.5882,77.9387 122.5638,77.9001 122.5395,77.8616 122.1321,79.2738 121.3959,80.5488 120.1347,81.3443 119.0903,82.0029 117.0641,82.5508 115.7197,80.4192 115.0154,79.3023 115.1907,78.1991 115.8526,77.2555 116.1682,76.7925 117.373,75.6471 118.1819,74.8735 118.9966,74.0764 119.5214,73.0761 118.817,71.9593 118.1037,70.8282 116.0986,70.1884 114.3586,71.2859 112.7194,72.3196 112.4682,73.5924 112.4558,74.6339" stroke="black" stroke-width="1" /><polyline fill="none" points="121.788,64.273 120.9821,62.6822 121.5997,60.6009 123.3285,59.7252 125.0563,58.8499 127.0775,59.4991 127.9917,61.3037 128.1363,61.5891 128.2808,61.8744 128.4254,62.1598 129.82,64.9129 127.6509,66.5878 127.3444,66.7431 127.0489,66.8928 126.7533,67.0425 126.4578,67.1923 126.7533,67.0425 127.0489,66.8928 127.3444,66.7431 128.2474,66.2857 130.7171,66.3802 131.8015,68.521 132.1193,69.1482 132.437,69.7754 132.7547,70.4026 133.6533,72.1763 132.928,74.3122 131.1536,75.211 129.364,76.1176 127.2289,75.4308 126.3304,73.6571" stroke="black" stroke-width="1" /><polyline fill="none" points="137.4525,53.663 136.528,54.027 135.9819,54.8873 136.4467,56.0676 136.8969,57.2108 137.347,58.354 137.7971,59.4972 138.3607,59.2753 138.9242,59.0534 139.4877,58.8315 138.4029,59.2587 137.3181,59.6859 136.2332,60.113 136.7545,59.9077 137.2758,59.7025 137.7971,59.4972 139.1811,63.0119 140.5651,66.5267 141.949,70.0414" stroke="black" stroke-width="1" /><polyline fill="none" points="151.2387,49.0711 149.2673,49.6408 147.2959,50.2106 145.3244,50.7803 146.075,53.3774 146.8255,55.9744 147.5761,58.5714 147.864,57.2212 148.5751,56.2833 150.008,55.8692 151.9846,55.2979 153.9876,56.4861 154.5159,58.3139 154.8935,59.6206 155.2711,60.9273 155.6488,62.2339 156.2009,64.1444 155.0739,65.9873 153.278,66.5063 151.4993,67.0204 149.5795,66.058 149.0274,64.1476" stroke="black" stroke-width="1" /><polyline fill="none" points="167.5425,59.5087 167.9133,61.4624 166.6175,63.2792 164.7476,63.6341 162.8777,63.9889 160.9899,62.7764 160.6191,60.8227 160.3378,59.3405 160.0565,57.8583 159.7752,56.3762 159.4043,54.422 160.7168,52.6029 162.5867,52.248 164.4566,51.8931 166.3278,53.108 166.6986,55.0622" stroke="black" stroke-width="1" /><polyline fill="none" points="224.3739,268.3908 140.3048,268.1431 188.1635,280.8196 188.1635,280.8196 96.1804,188.1635 268.4255,140.8637 268.1431,236.6952 96.1804,188.1635 156.5688,130.1462 268.1431,236.6952" stroke="black" stroke-width="1" /><polyline fill="none" points="280.3283,223.9352 255.9578,249.4551" stroke="black" stroke-width="1" /><polyline fill="none" points="247.8987,268.4255 247.7538,266.5855 247.323,264.7907 246.6166,263.0855 245.6523,261.5117 244.4535,260.1082 243.05,258.9095 241.4763,257.9451 239.7711,257.2388 237.9763,256.8079 236.1363,256.6631 234.2962,256.8079 232.5015,257.2388 230.7962,257.9451 229.2225,258.9095 227.819,260.1082 226.6203,261.5117 225.6559,263.0855 224.9496,264.7907 224.5187,266.5855 224.3739,268.4255 224.5187,270.2656 224.9496,272.0603 225.6559,273.7655 226.6203,275.3393 227.819,276.7428 229.2225,277.9415 230.7962,278.9059 232.5015,279.6122 234.2962,280.0431 236.1363,280.1879 237.9763,280.0431 239.7711,279.6122 241.4763,278.9059 243.05,277.9415 244.4535,276.7428 245.6523,275.3393 246.6166,273.7655 247.323,272.0603 247.7538,270.2656 247.8987,268.4255" stroke="black" stroke-width="1" /><polyline fill="none" points="188.5,69.0664 199.6839,69.5912 210.7696,71.161 221.6595,73.7619 232.2581,77.3712 242.4721,81.9571 252.2118,87.4792 261.3915,93.8892 269.9308,101.1306 277.7544,109.1398 284.7936,117.8464 290.9866,127.1739 296.2789,137.0404 300.6241,147.3591 303.9839,158.0393 306.3289,168.9873 307.6383,180.1067 307.9008,191.2998 307.114,202.4684 305.2847,213.5142 302.4292,224.3402 298.5725,234.8512 293.7484,244.9549 287.9994,254.5625 281.376,263.5894 273.9365,271.9565 265.7461,279.5902 256.8768,286.4234 247.4067,292.3961 237.4188,297.4556 227.0011,301.5577 216.2451,304.6663 205.2452,306.7539 194.0981,307.8023 182.9019,307.8023 171.7548,306.7539 160.7549,304.6663 149.9989,301.5577 139.5811,297.4556 129.5933,292.3961 120.1232,286.4234 111.2539,279.5902 103.0635,271.9565 95.6239,263.5894 89.0006,254.5625 83.2516,244.9549 78.4275,234.8512 74.5708,224.3402 71.7153,213.5142 69.8861,202.4684 69.0992,191.2998 69.3617,180.1067 70.6712,168.9872 73.0161,158.0393 76.3759,147.3591 80.7211,137.0404 86.0134,127.174 92.2064,117.8464 99.2457,109.1398 107.0692,101.1306 115.6085,93.8892 124.7882,87.4792 134.5279,81.957 144.7419,77.3712 155.3405,73.7619 166.2304,71.161 177.3161,69.5912 188.5,69.0664" stroke="black" stroke-width="1" />

    </g>
  </g>
  <WCB
     pausedposy="0"
     pausedposx="0"
     lastknownposy="0"
     lastknownposx="0"
     lastpathnc="0"
     lastpath="0"
     node="0"
     layer="0" />
</svg>
