<?xml version="1.0" encoding="UTF-8" standalone="no"?>
<!-- Created with Inkscape (http://www.inkscape.org/) -->

<svg
   xmlns:dc="http://purl.org/dc/elements/1.1/"
   xmlns:cc="http://creativecommons.org/ns#"
   xmlns:rdf="http://www.w3.org/1999/02/22-rdf-syntax-ns#"
   xmlns:svg="http://www.w3.org/2000/svg"
   xmlns="http://www.w3.org/2000/svg"
   xmlns:sodipodi="http://sodipodi.sourceforge.net/DTD/sodipodi-0.dtd"
   xmlns:inkscape="http://www.inkscape.org/namespaces/inkscape"
   width="100mm"
   height="100mm"
   viewBox="0 0 100 100"
   version="1.1"
   id="svg19124"
   inkscape:version="0.92.3 (2405546, 2018-03-11)"
   sodipodi:docname="inkscape_template_TMP.svg"
   shape-rendering="crispEdges">
  <sodipodi:namedview
     pagecolor="#ffffff"
     bordercolor="#666666"
     borderopacity="1"
     objecttolerance="10"
     gridtolerance="10"
     guidetolerance="10"
     inkscape:pageopacity="0"
     inkscape:pageshadow="2"
     inkscape:window-width="1568"
     inkscape:window-height="1550"
     id="namedview24021"
     showgrid="false"
     inkscape:zoom="0.62441667"
     inkscape:cx="712.66515"
     inkscape:cy="409.98265"
     inkscape:window-x="0"
     inkscape:window-y="0"
     inkscape:window-maximized="0"
     inkscape:current-layer="layer1" />
  <defs
     id="defs19118" />
  <metadata
     id="metadata19121">
    <rdf:RDF>
      <cc:Work
         rdf:about="">
        <dc:format>image/svg+xml</dc:format>
        <dc:type
           rdf:resource="http://purl.org/dc/dcmitype/StillImage" />
        <dc:title />
      </cc:Work>
    </rdf:RDF>
  </metadata>
  <g
     transform="translate(0,-197)"
     id="layer1"
     inkscape:groupmode="layer"
     inkscape:label="Layer 1">
    <g
       id="g24447"
       transform="matrix(0.26458333,0,0,0.26458333,0.10666333,197.9735)">

<polyline fill="none" points="192.1004,47.7394 189.7225,51.1455 187.3447,54.5516 184.9669,57.9577 184.9669,54.5516 184.9669,51.1455 184.9669,47.7394 184.9669,45.7676 186.5623,44.1729 188.5334,44.1729 190.5231,44.1729 192.1004,45.7676 192.1004,47.7394 192.1004,51.1455 192.1004,54.5516 192.1004,57.9577 192.1004,59.9295 190.5231,61.5235 188.5509,61.5235 186.5623,61.5235 184.9669,59.9295 184.9669,57.9577" stroke="black" stroke-width="1" /><polyline fill="none" points="197.8298,61.5877 200.7471,57.7851 198.696,53.7706 202.935,62.0679 200.7471,57.7851 203.4811,54.2207" stroke="black" stroke-width="1" /><polyline fill="none" points="218.2683,47.2815 216.2522,46.8988 214.2361,46.5162 212.22,46.1336 211.7159,48.7895 211.2119,51.4454 210.7078,54.1013 211.5748,53.0269 212.6331,52.5116 214.0984,52.7897 216.1199,53.1733 217.3697,55.1384 217.015,57.0076 216.7614,58.3439 216.5077,59.6802 216.2541,61.0165 215.8833,62.9703 214.0452,64.105 212.2086,63.7565 210.3896,63.4112 209.1118,61.6852 209.4826,59.7314" stroke="black" stroke-width="1" /><polyline fill="none" points="230.3545,50.5323 229.4,50.2565 228.4424,50.6047 228.0902,51.8234 227.7491,53.0037 227.408,54.184 227.0669,55.3643 227.6487,55.5325 228.2305,55.7007 228.8123,55.8688 227.6922,55.5451 226.5722,55.2214 225.4522,54.8977 225.9904,55.0533 226.5286,55.2088 227.0669,55.3643 226.0181,58.9932 224.9693,62.6221 223.9206,66.251" stroke="black" stroke-width="1" /><polyline fill="none" points="243.4219,58.8463 239.9615,61.1443 236.5011,63.4424 233.0407,65.7404 234.2886,62.5712 235.5365,59.4019 236.7844,56.2327 237.5069,54.398 239.5756,53.4987 241.4097,54.2209 243.261,54.9499 244.1443,57.0115 243.4219,58.8463 242.174,62.0155 240.926,65.1848 239.6781,68.354 238.9557,70.1887 236.9041,71.094 235.069,70.3714 233.2187,69.6428 232.3182,67.5752 233.0407,65.7404" stroke="black" stroke-width="1" /><polyline fill="none" points="249.8605,75.0628 248.9147,75.6021 247.8157,76.0644 245.9187,75.1034 244.2205,74.2432 243.4649,72.1308 244.3872,70.3103 245.0611,68.9799 245.7351,67.6495 246.409,66.3191 247.3078,64.5448 249.4576,63.905 251.1558,64.7653 252.8845,65.641 253.6707,67.7681 252.7719,69.5424 252.4362,70.205 252.1006,70.8676 251.7649,71.5302 249.6491,70.4583 247.5332,69.3865 245.4173,68.3146" stroke="black" stroke-width="1" /><polyline fill="none" points="263.6445,75.4038 263.6474,75.3991 263.6503,75.3945 263.6533,75.3899 262.4095,77.3619 261.1658,79.334 259.922,81.3061 259.3472,82.2175 259.7661,82.9706 260.2434,83.2717 259.6341,82.8874 259.4547,82.0471 259.8491,81.4218 259.8734,81.3832 259.8977,81.3446 259.922,81.3061 258.4721,81.5469 257.0043,81.4319 255.743,80.6365 254.6987,79.9778 253.3313,78.3853 254.6756,76.2538 255.38,75.1369 256.4511,74.8197 257.5878,75.0105 258.1416,75.0959 259.6943,75.6896 260.7409,76.0862 261.8113,76.478 262.9401,76.5206 263.6445,75.4038 264.3578,74.2727 264.0712,72.1876 262.3312,71.0902 260.692,70.0564 259.4352,70.3781 258.49,70.8156" stroke="black" stroke-width="1" /><polyline fill="none" points="269.9359,88.4934 268.9061,88.847 267.7402,89.0962 266.0557,87.7984 264.5477,86.6366 264.1992,84.4204 265.4447,82.8037 266.3549,81.6223 267.2651,80.4409 268.1753,79.2595 269.3892,77.6839 271.6205,77.4562 273.1285,78.618 274.6637,79.8008 275.0395,82.0371 273.8256,83.6127 273.3723,84.2011 272.9189,84.7895 272.4656,85.3779 270.5867,83.9303 268.7078,82.4827 266.8289,81.0352" stroke="black" stroke-width="1" /><polyline fill="none" points="288.1847,84.3375 287.4579,83.66 286.4463,83.5379 285.5814,84.466 284.7437,85.3647 283.906,86.2635 283.0683,87.1623 283.5114,87.5752 283.9543,87.9881 284.3974,88.401 283.5445,87.6061 282.6917,86.8112 281.8388,86.0163 282.2486,86.3983 282.6584,86.7803 283.0683,87.1623 280.4929,89.9256 277.9174,92.6888 275.3419,95.4521" stroke="black" stroke-width="1" /><polyline fill="none" points="298.6561,95.0425 295.2224,98.0955 291.7888,101.1486 288.3551,104.2016 286.8687,105.5232 284.6337,105.3316 283.3688,103.909 282.1155,102.4995 282.1864,100.2571 283.6728,98.9355 284.8002,97.9331 285.9276,96.9306 287.055,95.9282 288.5414,94.6066 290.7761,94.7989 292.0294,96.2085 293.2943,97.6311 293.2238,99.8726 291.7373,101.1943" stroke="black" stroke-width="1" /><polyline fill="none" points="292.5807,115.4177 296.0503,112.872 292.4388,107.9499 306.1392,104.9165" stroke="black" stroke-width="1" /><polyline fill="none" points="302.3777,124.3919 300.6712,125.413 298.5193,124.8223 297.542,123.1891 296.5648,121.5559 297.0528,119.3659 298.7592,118.3448 300.0538,117.5701 301.3484,116.7955 302.6429,116.0209 304.3497,114.9996 306.5096,115.605 307.4869,117.2383 308.4642,118.8715 307.9681,121.0467 306.2614,122.068" stroke="black" stroke-width="1" /><polyline fill="none" points="314.0163,124.6917 315.7957,123.8421 317.9215,124.5942 318.7712,126.3736 319.6283,128.1689 318.8603,130.3403 317.0809,131.1899 316.3837,131.5227 315.8543,131.6049 315.4169,131.5668 310.9916,131.1841 306.5663,130.8013 302.1409,130.4186 302.0122,130.48 301.8835,130.5415 301.7548,130.603 302.7744,132.7383 303.7939,134.8737 304.8134,137.009" stroke="black" stroke-width="1" /><polyline fill="none" points="324.9656,141.5323 324.2587,139.6058 323.5518,137.6793 322.845,135.7528 320.3071,136.684 317.7692,137.6152 315.2314,138.5464 316.5984,138.7387 317.584,139.3822 318.0978,140.7823 318.8066,142.714 317.7621,144.7955 315.976,145.4509 314.699,145.9194 313.4221,146.388 312.1452,146.8565 310.2783,147.5415 308.3607,146.5468 307.7168,144.7919 307.079,143.0537 307.9041,141.071 309.771,140.3859" stroke="black" stroke-width="1" /><polyline fill="none" points="316.7681,150.9868 318.6747,150.4839 320.6238,151.6191 321.1265,153.5251 321.634,155.449 320.4939,157.3808 318.5873,157.8837 317.6038,158.1431 316.6204,158.4025 315.637,158.6619 313.7303,159.1648 311.7865,158.0464 311.279,156.1225 310.7763,154.2165 311.9112,152.2679 313.8178,151.765 317.1113,150.8963 320.4047,150.0276 323.6981,149.159 325.6044,148.6561 327.5531,149.7914 328.0558,151.6973 328.489,153.3394 327.7202,154.9957 326.2914,155.763" stroke="black" stroke-width="1" /><polyline fill="none" points="319.7173,163.1629 321.6627,162.8408 323.4968,164.1534 323.8188,166.0981 324.1439,168.0611 322.828,169.8777 320.8826,170.1998 319.8792,170.366 318.8758,170.5322 317.8724,170.6983 315.9271,171.0205 314.0965,169.7249 313.7714,167.762 313.4493,165.8173 314.7617,163.9836 316.7071,163.6614 320.0674,163.1049 323.4277,162.5484 326.788,161.992 328.733,161.6699 330.5668,162.9826 330.8889,164.9273 331.1664,166.6027 330.2458,168.1797 328.7515,168.8098" stroke="black" stroke-width="1" /><polyline fill="none" points="332.6406,181.2671 332.4964,179.2201 332.3522,177.1731 332.2079,175.126 329.5114,175.316 326.8147,175.506 324.1181,175.696 325.3781,176.2603 326.1462,177.1521 326.251,178.6399 326.3956,180.6924 324.8143,182.4021 322.9164,182.5358 321.5596,182.6314 320.2028,182.727 318.846,182.8226 316.8623,182.9623 315.2963,181.4743 315.1649,179.6096 315.0348,177.7627 316.3779,176.087 318.3617,175.9472" stroke="black" stroke-width="1" /><polyline fill="none" points="329.5065,188.4321 331.2892,188.4739 332.8314,190.0019 332.786,191.9393 332.7406,193.8756 331.2131,195.3499 329.1907,195.3025 328.8709,195.295 328.5511,195.2875 328.2313,195.28 325.1459,195.2077 324.6953,192.5045 324.7033,192.161 324.7111,191.8298 324.7188,191.4985 324.7266,191.1673 324.7188,191.4985 324.7111,191.8298 324.7033,192.161 324.6796,193.1729 323.4288,195.3046 321.0298,195.2483 320.3268,195.2318 319.6239,195.2154 318.921,195.1989 316.9333,195.1523 315.394,193.5035 315.4406,191.5151 315.4876,189.5095 317.1021,187.9526 319.0898,187.9992" stroke="black" stroke-width="1" /><polyline fill="none" points="331.5377,208.7213 326.9745,208.1839 322.4114,207.6466 317.8482,207.1092 315.8729,206.8766 314.531,205.079 314.7536,203.1884 314.9742,201.3153 316.697,199.8783 318.6724,200.1109 320.1706,200.2873 321.6689,200.4638 323.1672,200.6402 325.1425,200.8728 326.4836,202.6707 326.2631,204.5438 326.0404,206.4344 324.3184,207.8712 322.343,207.6385" stroke="black" stroke-width="1" /><polyline fill="none" points="322.377,220.9716 320.4489,220.5587 319.2207,218.6819 319.6337,216.7538 320.0503,214.8089 321.9428,213.5841 323.8709,213.9971 324.8656,214.2102 325.8604,214.4232 326.8551,214.6363 328.7832,215.0493 330.0087,216.9419 329.5956,218.8704 329.1791,220.8149 327.2893,222.0238 325.3612,221.6108 322.0307,220.8975 318.7001,220.1841 315.3696,219.4707 313.4419,219.0578 312.2133,217.181 312.6263,215.2529 312.9818,213.5933 314.4166,212.4622 316.0383,212.4235" stroke="black" stroke-width="1" /><polyline fill="none" points="317.0046,225.1947 318.8856,225.7864 319.9286,227.7863 319.3371,229.6666 318.74,231.5646 316.7452,232.5905 314.8642,231.9987 313.894,231.6935 312.9238,231.3883 311.9536,231.0831 310.0727,230.4914 309.0251,228.5084 309.6222,226.6104 310.2137,224.7301 312.2131,223.6874 314.0941,224.2791 317.3432,225.3012 320.5923,226.3233 323.8414,227.3454 325.722,227.937 326.7646,229.9368 326.1732,231.8171 325.6635,233.4371 324.1298,234.4279 322.512,234.3147" stroke="black" stroke-width="1" /><polyline fill="none" points="320.6257,246.2033 321.0113,245.2876 320.7775,244.2959 319.6083,243.8036 318.476,243.3267 317.3437,242.8499 316.2113,242.3731 315.9763,242.9313 315.7413,243.4894 315.5062,244.0476 315.9587,242.9731 316.4112,241.8986 316.8636,240.8241 316.6462,241.3404 316.4288,241.8568 316.2113,242.3731 312.73,240.9071 309.2487,239.4412 305.7674,237.9752" stroke="black" stroke-width="1" /><polyline fill="none" points="309.2538,249.3242 311.0066,250.2643 311.5963,252.4284 310.6964,254.1059 309.797,255.7828 307.6757,256.4741 305.9229,255.5339 304.5935,254.8208 303.2641,254.1077 301.9346,253.3946 300.1822,252.4546 299.5841,250.3047 300.4836,248.6277 301.3834,246.9502 303.5051,246.2596 305.2576,247.1996 305.2602,247.1947 305.2628,247.1898 305.2655,247.1848 309.3145,249.3567 313.3634,251.5285 317.4124,253.7004" stroke="black" stroke-width="1" /><polyline fill="none" points="306.9614,271.1776 303.1335,268.6361 299.3058,266.0946 295.478,263.5532 293.8209,262.453 293.4362,260.243 294.4891,258.6572 295.5324,257.0858 297.7187,256.5825 299.3757,257.6826 300.6325,258.5171 301.8893,259.3516 303.1462,260.186 304.8032,261.2862 305.1871,263.496 304.1439,265.0674 303.0909,266.6533 300.9055,267.1567 299.2484,266.0566" stroke="black" stroke-width="1" /><polyline fill="none" points="298.6988,281.9072 295.1258,279.0184 291.5528,276.1297 287.9798,273.241 286.4331,271.9905 286.257,269.7542 287.4538,268.2739 288.6396,266.8071 290.8634,266.5107 292.4102,267.7612 293.5833,268.7097 294.7565,269.6582 295.9296,270.6067 297.4763,271.8572 297.6517,274.0933 296.4659,275.56 295.269,277.0403 293.046,277.3369 291.4993,276.0865" stroke="black" stroke-width="1" /><polyline fill="none" points="290.297,290.5992 290.9913,289.8884 291.1371,288.88 290.2296,287.9935 289.3507,287.135 288.4718,286.2765 287.593,285.4179 287.1698,285.8512 286.7466,286.2844 286.3234,286.7176 287.1381,285.8836 287.9528,285.0496 288.7674,284.2156 288.3759,284.6164 287.9844,285.0172 287.593,285.4179 284.8908,282.7784 282.1887,280.1389 279.4865,277.4994" stroke="black" stroke-width="1" /><polyline fill="none" points="281.3456,294.5265 281.5026,298.8223 270.4145,285.747" stroke="black" stroke-width="1" /><polyline fill="none" points="272.7668,302.7615 274.1215,304.7015 268.2866,308.7759 262.563,291.8628" stroke="black" stroke-width="1" /><polyline fill="none" points="257.132,315.4585 258.9172,314.4464 260.7023,313.4343 262.4874,312.4221 261.1541,310.0705 259.8208,307.7189 258.4875,305.3673 258.5211,306.7474 258.0473,307.8249 256.7498,308.5605 254.96,309.5753 252.7358,308.885 251.7974,307.2299 251.1265,306.0467 250.4557,304.8635 249.7848,303.6803 248.804,301.9503 249.472,299.8961 251.0982,298.9741 252.7088,298.0609 254.7997,298.5509 255.7805,300.2808" stroke="black" stroke-width="1" /><polyline fill="none" points="244.9419,321.3275 246.8139,320.4869 248.686,319.6464 250.5581,318.8059 249.4508,316.3398 248.3436,313.8736 247.2363,311.4075 247.1406,312.7847 246.5679,313.8131 245.2073,314.424 243.3302,315.2668 241.1805,314.3711 240.4012,312.6355 239.8441,311.3947 239.287,310.1538 238.7299,308.913 237.9153,307.0988 238.7728,305.1161 240.4781,304.3504 242.1672,303.5921 244.203,304.2757 245.0176,306.0899" stroke="black" stroke-width="1" /><polyline fill="none" points="232.2557,326.0291 234.1982,325.3676 236.1408,324.7061 238.0833,324.0446 237.2119,321.4856 236.3404,318.9266 235.469,316.3676 235.2447,317.7298 234.5783,318.7 233.1664,319.1808 231.2187,319.8441 229.1622,318.7511 228.5489,316.9501 228.1104,315.6626 227.672,314.375 227.2335,313.0875 226.5924,311.205 227.6318,309.3113 229.4014,308.7086 231.154,308.1118 233.1169,308.9831 233.7579,310.8656" stroke="black" stroke-width="1" /><polyline fill="none" points="224.605,324.5965 225.0631,326.5144 223.8824,328.4356 221.9645,328.8937 220.0295,329.3558 218.0671,328.1501 217.6091,326.2322 217.4296,325.4808 217.4601,324.9459 217.589,324.5262 218.8901,320.2792 220.1912,316.0321 221.4923,311.7851 221.4591,311.6464 221.426,311.5077 221.3929,311.369 219.0913,311.9186 216.7898,312.4684 214.4883,313.018" stroke="black" stroke-width="1" /><polyline fill="none" points="204.3357,323.358 204.3364,323.3635 204.3372,323.3689 204.338,323.3743 204.0111,321.0658 203.6842,318.7573 203.3573,316.4489 203.2062,315.382 202.3996,315.0785 201.8409,315.1576 202.5541,315.0566 203.2345,315.5814 203.3381,316.3134 203.3445,316.3586 203.3509,316.4037 203.3573,316.4489 204.3073,315.3274 205.5012,314.4658 206.9776,314.2567 208.2001,314.0836 210.273,314.4137 210.6263,316.9089 210.8115,318.2163 210.1997,319.151 209.2093,319.7407 208.7317,320.0338 207.1635,320.5851 206.1087,320.9596 205.039,321.3531 204.1505,322.0507 204.3357,323.358 204.5231,324.682 206.0903,326.0869 208.1272,325.7985 210.046,325.5268 210.7965,324.4686 211.2344,323.5235" stroke="black" stroke-width="1" /><polyline fill="none" points="191.8142,315.6331 192.0159,319.9317 198.114,319.6456 193.063,332.7372" stroke="black" stroke-width="1" /><polyline fill="none" points="182.0934,324.584 180.4803,324.4067 178.6522,325.8216 178.5601,327.7827 178.5387,328.2391 178.5173,328.6956 178.4959,329.152 178.4091,331.0021 179.8468,332.5799 181.7141,332.6675 183.5639,332.7543 185.1439,331.2835 185.2291,329.4679 185.2505,329.0115 185.2719,328.5551 185.2933,328.0987 185.3802,326.2481 183.9432,324.6708 182.0934,324.584 180.0552,324.4883 178.5387,322.7524 178.6311,320.7834 178.6628,320.1098 178.6944,319.4361 178.726,318.7624 178.8184,316.7931 180.4891,315.2403 182.5273,315.336 184.5484,315.4308 186.0653,317.1331 185.9729,319.1025 185.9408,319.7873 185.9086,320.4722 185.8765,321.157 185.7973,322.8452 184.3018,324.5861" stroke="black" stroke-width="1" /><polyline fill="none" points="165.3836,330.9586 167.4155,331.2463 169.4473,331.5341 171.4791,331.8217 171.8581,329.1451 172.2372,326.4686 172.6162,323.7919 171.8005,324.9058 170.7676,325.4701 169.2908,325.261 167.2536,324.9725 165.913,323.0682 166.1797,321.1844 166.3704,319.8377 166.5611,318.491 166.7518,317.1442 167.0307,315.1752 168.8136,313.9556 170.6645,314.2177 172.4977,314.4773 173.855,316.1416 173.5761,318.1106" stroke="black" stroke-width="1" /><polyline fill="none" points="157.9408,326.0792 154.5701,328.7472 158.5527,312.0724" stroke="black" stroke-width="1" /><polyline fill="none" points="140.5936,317.6605 141.2292,315.7939 143.2367,314.7937 145.1033,315.4293 146.9861,316.0705 147.9812,318.0933 147.3455,319.9598 147.0176,320.9229 146.6897,321.8858 146.3617,322.8488 145.7261,324.7154 143.7031,325.7111 141.8362,325.0753 139.9537,324.4343 138.9741,322.416 139.6097,320.5494 140.7077,317.3252 141.8057,314.101 142.9037,310.8767 143.5393,309.0105 145.5469,308.0099 147.4135,308.6456 149.0201,309.1927 149.9756,310.7499 149.8244,312.365" stroke="black" stroke-width="1" /><polyline fill="none" points="134.0399,318.3458 133.2323,320.1447 131.1245,320.946 129.3256,320.1383 127.5108,319.3235 126.6921,317.1707 127.4997,315.3718 127.8161,314.6671 128.1668,314.2619 128.525,314.0081 132.1477,311.4379 135.7704,308.8676 139.3931,306.2974 139.4515,306.1672 139.5099,306.0371 139.5683,305.907 137.4096,304.9378 135.2509,303.9686 133.0923,302.9994" stroke="black" stroke-width="1" /><polyline fill="none" points="118.7392,304.9941 118.7365,304.9989 118.7338,305.0037 118.7311,305.0084 119.881,302.9802 121.031,300.952 122.1809,298.9238 122.7124,297.9865 122.2586,297.2538 121.7677,296.9755 122.3944,297.3307 122.613,298.1617 122.2484,298.8048 122.2259,298.8445 122.2034,298.8842 122.1809,298.9238 123.6179,298.6153 125.0895,298.6614 126.3867,299.3968 127.4607,300.0058 128.9013,301.5324 127.6584,303.7247 127.0071,304.8733 125.952,305.2403 124.8076,305.103 124.2504,305.0437 122.6716,304.5234 121.6076,304.1763 120.52,303.8352 119.3904,303.8455 118.7392,304.9941 118.0797,306.1573 118.4636,308.2267 120.2532,309.2414 121.939,310.1972 123.1794,309.817 124.1031,309.3356" stroke="black" stroke-width="1" /><polyline fill="none" points="110.5615,306.0093 109.5406,307.4714 107.4146,307.9109 105.8256,306.8015 104.2376,305.6926 103.8543,303.6045 105.0125,301.9459 105.1956,301.6837 105.3788,301.4214 105.5619,301.1591 107.3288,298.6287 109.8301,299.7485 110.1118,299.9452 110.3834,300.1349 110.6551,300.3246 110.9267,300.5142 110.6551,300.3246 110.3834,300.1349 110.1118,299.9452 109.2819,299.3657 108.1978,297.1446 109.5717,295.1771 109.9742,294.6006 110.3767,294.0241 110.7793,293.4476 111.9176,291.8174 114.1426,291.447 115.7734,292.5857 117.4182,293.7343 117.8223,295.9405 116.6839,297.5706" stroke="black" stroke-width="1" /><polyline fill="none" points="100.3715,292.3906 99.2018,291.2657 96.8901,291.2708 95.6203,292.7681 95.3248,293.1166 95.0293,293.4651 94.7338,293.8136 93.5358,295.2263 93.7118,297.3535 95.1375,298.5626 96.5499,299.7603 98.6992,299.5594 99.8747,298.1732 100.1702,297.8247 100.4658,297.4763 100.7613,297.1277 101.9595,295.7148 101.7838,293.5883 100.3715,292.3906 98.8152,291.0709 98.6734,288.7703 99.9483,287.2669 100.3845,286.7526 100.8207,286.2382 101.2569,285.7238 102.532,284.2202 104.8032,284.0098 106.3594,285.3295 107.9025,286.6381 108.0652,288.9124 106.7901,290.416 106.3467,290.939 105.9032,291.4619 105.4598,291.9848 104.3667,293.2738 102.1197,293.7401" stroke="black" stroke-width="1" /><polyline fill="none" points="85.2915,284.2837 89.3896,283.6046 93.4877,282.9255 97.5857,282.2464 95.1492,284.6265 92.7127,287.0065 90.2762,289.3866 88.8656,290.7645 86.61,290.7375 85.2327,289.3275 83.8423,287.9041 83.881,285.6616 85.2915,284.2837 87.7281,281.9036 90.1646,279.5236 92.6011,277.1435 94.0117,275.7656 96.254,275.7801 97.6321,277.1909 99.0217,278.6134 98.9963,280.8685 97.5857,282.2464" stroke="black" stroke-width="1" /><polyline fill="none" points="81.0004,279.7505 79.6136,280.8717 77.4492,280.7037 76.2308,279.1967 75.013,277.6906 75.2245,275.5782 76.7976,274.3063 77.0464,274.1052 77.2952,273.9041 77.5439,273.703 79.9438,271.7626 82.0359,273.5328 82.2519,273.8 82.4602,274.0577 82.6685,274.3153 82.8769,274.5729 82.6685,274.3153 82.4602,274.0577 82.2519,273.8 81.6156,273.0129 81.1908,270.5782 83.0569,269.0694 83.6036,268.6274 84.1504,268.1853 84.6972,267.7432 86.2434,266.4932 88.4837,266.7551 89.7342,268.3018 90.9955,269.8618 90.7711,272.0935 89.225,273.3435" stroke="black" stroke-width="1" /><polyline fill="none" points="71.7224,261.5783 73.3651,260.4876 75.5658,260.9205 76.6565,262.5632 77.7567,264.2203 77.3104,266.4299 75.6677,267.5206 74.8202,268.0833 73.9727,268.646 73.1252,269.2087 71.4824,270.2994 69.2722,269.8535 68.1813,268.2105 67.0814,266.5537 67.5371,264.3571 69.1798,263.2664 72.0174,261.3824 74.855,259.4984 77.6926,257.6144 79.335,256.5239 81.536,256.9566 82.6267,258.5993 83.5655,260.0132 83.372,261.83 82.2666,263.0171" stroke="black" stroke-width="1" /><polyline fill="none" points="73.2468,246.3776 74.3311,246.4768 75.4967,246.727 76.5019,248.601 77.4017,250.2785 76.8119,252.443 75.0135,253.4077 73.6993,254.1126 72.3851,254.8176 71.0708,255.5225 69.3181,256.4627 67.1892,255.7565 66.2894,254.0789 65.3733,252.3712 65.9465,250.1771 67.6992,249.2369 68.3538,248.8858 69.0083,248.5347 69.6629,248.1836 70.784,250.2738 71.9052,252.364 73.0264,254.4541" stroke="black" stroke-width="1" /><polyline fill="none" points="60.1441,238.5223 61.9614,237.757 64.0429,238.5927 64.8081,240.41 65.58,242.2431 64.7296,244.3307 62.9123,245.096 61.9747,245.4908 61.0372,245.8856 60.0996,246.2804 58.2823,247.0457 56.194,246.1955 55.4286,244.3779 54.6568,242.5451 55.5141,240.472 57.3314,239.7067 60.4706,238.3849 63.6097,237.063 66.7488,235.7411 68.5657,234.976 70.6475,235.8115 71.4128,237.6288 72.0714,239.193 71.5425,240.9418 70.2351,241.9019" stroke="black" stroke-width="1" /><polyline fill="none" points="58.0412,226.1556 58.0359,226.1573 58.0307,226.1589 58.0255,226.1606 60.2495,225.4609 62.4736,224.7613 64.6977,224.0616 65.7255,223.7383 65.8932,222.8929 65.7238,222.3546 65.94,223.0418 65.5334,223.7987 64.8281,224.0206 64.7847,224.0343 64.7412,224.0479 64.6977,224.0616 65.9593,224.8157 67.0044,225.8528 67.4518,227.2752 67.8223,228.4529 67.8353,230.5519 65.4314,231.3082 64.1718,231.7044 63.1497,231.2535 62.4062,230.3728 62.039,229.9496 61.2388,228.4925 60.6971,227.5131 60.134,226.522 59.3007,225.7594 58.0412,226.1556 56.7656,226.5569 55.6356,228.3325 56.2529,230.2949 56.8345,232.1436 58.0011,232.7111 59.005,232.9887" stroke="black" stroke-width="1" /><polyline fill="none" points="55.0883,213.7738 55.0829,213.7749 55.0775,213.7761 55.0722,213.7772 57.352,213.2889 59.6318,212.8006 61.9116,212.3123 62.9652,212.0866 63.2113,211.2607 63.0931,210.7089 63.244,211.4133 62.7683,212.1288 62.0453,212.2836 62.0008,212.2932 61.9562,212.3027 61.9116,212.3123 63.0971,213.1812 64.0405,214.3116 64.3528,215.7696 64.6114,216.9769 64.4277,219.0679 61.9635,219.5957 60.6724,219.8723 59.697,219.3277 59.0392,218.3812 58.7133,217.9254 58.053,216.3998 57.6054,215.374 57.1376,214.3345 56.3794,213.4973 55.0883,213.7738 53.7807,214.0539 52.4894,215.7159 52.9203,217.7274 53.3262,219.6224 54.4345,220.2967 55.408,220.6671" stroke="black" stroke-width="1" /><polyline fill="none" points="48.2844,201.3871 51.9452,203.3502 55.606,205.3134 59.2668,207.2765 55.884,207.6749 52.5014,208.0732 49.1187,208.4716 47.1604,208.7022 45.39,207.3042 45.1595,205.3466 44.9268,203.3706 46.326,201.6177 48.2844,201.3871 51.6671,200.9887 55.0498,200.5904 58.4324,200.192 60.3908,199.9614 62.1583,201.3413 62.389,203.3 62.6215,205.275 61.2251,207.0459 59.2668,207.2765" stroke="black" stroke-width="1" /><polyline fill="none" points="44.1788,188.9687 44.2269,191.0203 44.275,193.0718 44.3231,195.1233 47.0257,195.06 49.7283,194.9966 52.4308,194.9332 51.1987,194.3105 50.4732,193.3836 50.4382,191.8925 50.39,189.8355 52.0497,188.2018 53.9518,188.1572 55.3115,188.1254 56.6713,188.0935 58.0311,188.0616 60.0192,188.015 61.5138,189.5747 61.5576,191.4435 61.601,193.2945 60.1808,194.9055 58.1927,194.9521" stroke="black" stroke-width="1" /><polyline fill="none" points="52.6036,178.905 52.8186,177.2966 51.447,175.4357 49.4886,175.2977 49.0328,175.2656 48.577,175.2335 48.1212,175.2014 46.2736,175.0712 44.6626,176.4715 44.5312,178.3363 44.401,180.1835 45.8344,181.7976 47.6475,181.9253 48.1033,181.9575 48.5591,181.9896 49.0149,182.0217 50.8629,182.1519 52.4735,180.7523 52.6036,178.905 52.747,176.8696 54.518,175.3943 56.4842,175.5328 57.157,175.5802 57.8298,175.6276 58.5025,175.675 60.4691,175.8135 61.9823,177.5202 61.8389,179.5556 61.6967,181.5739 59.9593,183.0505 57.9927,182.912 57.3087,182.8638 56.6248,182.8156 55.9409,182.7674 54.255,182.6486 52.5497,181.1128" stroke="black" stroke-width="1" /><polyline fill="none" points="46.6224,162.0504 46.2872,164.0749 45.9519,166.0994 45.6167,168.1239 48.2836,168.5656 50.9506,169.0073 53.6176,169.4489 52.5232,168.6074 51.9832,167.5615 52.2269,166.0901 52.5631,164.0601 54.4983,162.7646 56.3753,163.0754 57.7172,163.2976 59.0591,163.5198 60.401,163.7421 62.3629,164.067 63.5404,165.878 63.235,167.7222 62.9325,169.5489 61.2368,170.8667 59.2749,170.5418" stroke="black" stroke-width="1" /><polyline fill="none" points="58.0663,150.7571 58.0611,150.7557 58.0558,150.7543 58.0505,150.7529 60.3049,151.3476 62.5593,151.9422 64.8137,152.5368 65.8556,152.8117 66.4483,152.1861 66.5923,151.6404 66.4085,152.337 65.6608,152.7603 64.946,152.5717 64.9019,152.5601 64.8578,152.5485 64.8137,152.5368 65.4785,153.8477 65.8093,155.2824 65.429,156.7242 65.1141,157.918 64.0053,159.7003 61.5686,159.0576 60.2919,158.7209 59.6679,157.7943 59.5088,156.6527 59.424,156.0988 59.5244,154.4395 59.5887,153.3221 59.6412,152.1835 59.3431,151.0939 58.0663,150.7571 56.7734,150.4161 54.8704,151.3152 54.3457,153.3044 53.8514,155.1782 54.5354,156.2805 55.2365,157.0509" stroke="black" stroke-width="1" /><polyline fill="none" points="54.9991,143.1089 53.325,142.4946 52.3578,140.551 53.0253,138.7316 53.6925,136.9133 55.6137,136.0102 57.5129,136.707 57.8132,136.8172 58.1135,136.9274 58.4138,137.0376 61.3111,138.1006 60.8663,140.8048 60.748,141.1274 60.6339,141.4384 60.5197,141.7495 60.4056,142.0605 60.5197,141.7495 60.6339,141.4384 60.748,141.1274 61.0967,140.1772 62.9678,138.5624 65.2206,139.3891 65.8807,139.6313 66.5408,139.8735 67.2009,140.1157 69.0675,140.8006 69.9932,142.8575 69.308,144.7248 68.617,146.6082 66.5868,147.5615 64.7202,146.8766" stroke="black" stroke-width="1" /><polyline fill="none" points="59.5438,123.6993 58.6596,125.5512 57.7755,127.403 56.8913,129.2549 59.3308,130.4196 61.7703,131.5844 64.2098,132.7492 63.3921,131.6368 63.1637,130.4822 63.8064,129.1362 64.6929,127.2794 66.9117,126.5721 68.6286,127.3918 69.8561,127.9779 71.0835,128.5639 72.311,129.15 74.1055,130.0068 74.7339,132.0736 73.9285,133.7605 73.1307,135.4313 71.1359,136.2266 69.3413,135.3698" stroke="black" stroke-width="1" /><polyline fill="none" points="65.7696,112.842 65.2595,113.6946 65.3519,114.7093 66.4405,115.3607 67.4948,115.9916 68.5491,116.6224 69.6034,117.2533 69.9144,116.7336 70.2253,116.2139 70.5363,115.6943 69.9376,116.6947 69.339,117.6951 68.7403,118.6956 69.028,118.2148 69.3157,117.7341 69.6034,117.2533 72.8448,119.1929 76.0862,121.1325 79.3276,123.0721" stroke="black" stroke-width="1" /><polyline fill="none" points="79.6682,104.0424 81.258,105.2089 81.6097,107.424 80.4432,109.0138 79.2666,110.6175 77.0384,110.9596 75.4486,109.7932 74.6284,109.1914 73.8082,108.5896 72.988,107.9877 71.3982,106.8213 71.0555,104.5927 72.2222,103.0026 73.3986,101.3993 75.6178,101.0705 77.2076,102.237 79.9537,104.2519 82.6999,106.2668 85.446,108.2818 87.0356,109.448 87.3875,111.6634 86.2211,113.2532 85.217,114.6216 83.4448,115.0657 81.9496,114.4369" stroke="black" stroke-width="1" /><polyline fill="none" points="81.7061,96.5382 80.9483,92.3068 93.7601,103.6983" stroke="black" stroke-width="1" /><polyline fill="none" points="89.9669,87.9164 88.6225,86.4739 88.702,84.2203 90.1445,82.8759 91.5998,81.5195 93.9016,81.6005 95.246,83.043 95.7727,83.6081 96.01,84.0885 96.1049,84.5171 97.0677,88.8534 98.0306,93.1896 98.9935,97.5258 99.0907,97.6302 99.188,97.7345 99.2852,97.8388 101.0162,96.2255 102.7472,94.6122 104.4782,92.9988" stroke="black" stroke-width="1" /><polyline fill="none" points="105.4445,74.7974 105.6396,78.9468 105.8347,83.0962 106.0299,87.2455 103.9511,84.5474 101.8724,81.8492 99.7936,79.151 98.5901,77.589 98.8807,75.3521 100.4422,74.149 102.0184,72.9347 104.241,73.2354 105.4445,74.7974 107.5232,77.4956 109.602,80.1937 111.6807,82.8919 112.8842,84.4539 112.6076,86.6792 111.0453,87.8829 109.47,89.0966 107.2333,88.8076 106.0299,87.2455" stroke="black" stroke-width="1" /><polyline fill="none" points="122.666,77.5991 122.6431,78.6878 122.4755,79.8681 120.6768,81.0025 119.0667,82.018 116.8661,81.5817 115.7774,79.8556 114.9818,78.5941 114.1863,77.3327 113.3907,76.0713 112.3297,74.3889 112.8845,72.2157 114.4947,71.2002 116.1339,70.1664 118.3628,70.5839 119.4238,72.2663 119.82,72.8945 120.2163,73.5228 120.6125,74.1511 118.6063,75.4163 116.6001,76.6816 114.5939,77.9469" stroke="black" stroke-width="1" /><polyline fill="none" points="133.3402,71.9216 133.2155,73.0033 132.9381,74.1628 131.0411,75.1238 129.3429,75.984 127.1928,75.3436 126.2706,73.5231 125.5966,72.1927 124.9227,70.8623 124.2488,69.5319 123.3499,67.7576 124.1059,65.6458 125.804,64.7856 127.5328,63.9098 129.7128,64.5343 130.6117,66.3086 130.9473,66.9712 131.283,67.6338 131.6186,68.2964 129.5028,69.3682 127.3869,70.4401 125.271,71.5119" stroke="black" stroke-width="1" /><polyline fill="none" points="144.4991,67.2686 144.2737,68.3339 143.8889,69.4623 141.9103,70.2414 140.139,70.9389 138.0583,70.0999 137.3106,68.2011 136.7642,66.8134 136.2178,65.4257 135.6714,64.0381 134.9427,62.1874 135.893,60.1557 137.6643,59.4583 139.4675,58.7483 141.5795,59.5741 142.3082,61.4248 142.5803,62.1159 142.8524,62.807 143.1246,63.4981 140.9176,64.3671 138.7107,65.2361 136.5038,66.1051" stroke="black" stroke-width="1" /><polyline fill="none" points="146.0555,54.2454 145.5081,52.351 146.5974,50.3766 148.4917,49.8292 150.4029,49.2768 152.4196,50.3893 152.9671,52.2836 153.1816,53.0258 153.1762,53.5615 153.0671,53.9868 151.9665,58.2901 150.8659,62.5935 149.7654,66.8968 149.8049,67.0338 149.8445,67.1708 149.8841,67.3079 152.1574,66.6509 154.4306,65.9939 156.7039,65.3369" stroke="black" stroke-width="1" /><polyline fill="none" points="166.47,52.5142 166.8377,54.4515 165.5847,56.3117 163.6474,56.6794 161.6933,57.0503 159.83,55.7814 159.4623,53.8442 159.2727,52.8447 159.083,51.8452 158.8933,50.8458 158.5256,48.9085 159.7943,47.0446 161.7319,46.6768 163.6857,46.306 165.5333,47.5786 165.901,49.5158 166.536,52.8622 167.1711,56.2085 167.8062,59.5548 168.1738,61.4918 166.9209,63.3524 164.9836,63.72 163.3162,64.0365 161.7169,63.1531 161.0519,61.6736" stroke="black" stroke-width="1" /><polyline fill="none" points="134.2123,162.6463 188.8365,96.1804 239.8942,231.6324 280.8196,188.8365 188.8365,96.1804 140.8637,108.5745 188.2428,253.3668 239.8942,231.6324 136.578,231.1149 96.1804,188.1635" stroke="black" stroke-width="1" /><polyline fill="none" points="83.3283,200.2515 109.0326,176.0755" stroke="black" stroke-width="1" /><polyline fill="none" points="138.5065,171.7336 138.3616,169.8936 137.9308,168.0989 137.2244,166.3936 136.26,164.8199 135.0613,163.4164 133.6578,162.2177 132.0841,161.2533 130.3788,160.5469 128.5841,160.1161 126.7441,159.9712 124.904,160.1161 123.1093,160.5469 121.404,161.2533 119.8303,162.2177 118.4268,163.4164 117.2281,164.8199 116.2637,166.3936 115.5573,168.0989 115.1265,169.8936 114.9817,171.7336 115.1265,173.5737 115.5573,175.3684 116.2637,177.0737 117.2281,178.6474 118.4268,180.0509 119.8303,181.2496 121.404,182.214 123.1093,182.9203 124.904,183.3512 126.744,183.496 128.5841,183.3512 130.3788,182.9203 132.0841,182.214 133.6578,181.2496 135.0613,180.0509 136.26,178.6474 137.2244,177.0737 137.9308,175.3684 138.3616,173.5737 138.5065,171.7336" stroke="black" stroke-width="1" /><polyline fill="none" points="188.5,69.0664 199.6839,69.5912 210.7696,71.161 221.6595,73.7619 232.2581,77.3712 242.4721,81.9571 252.2118,87.4792 261.3915,93.8892 269.9308,101.1306 277.7544,109.1398 284.7936,117.8464 290.9866,127.1739 296.2789,137.0404 300.6241,147.3591 303.9839,158.0393 306.3289,168.9873 307.6383,180.1067 307.9008,191.2998 307.114,202.4684 305.2847,213.5142 302.4292,224.3402 298.5725,234.8512 293.7484,244.9549 287.9994,254.5625 281.376,263.5894 273.9365,271.9565 265.7461,279.5902 256.8768,286.4234 247.4067,292.3961 237.4188,297.4556 227.0011,301.5577 216.2451,304.6663 205.2452,306.7539 194.0981,307.8023 182.9019,307.8023 171.7548,306.7539 160.7549,304.6663 149.9989,301.5577 139.5811,297.4556 129.5933,292.3961 120.1232,286.4234 111.2539,279.5902 103.0635,271.9565 95.6239,263.5894 89.0006,254.5625 83.2516,244.9549 78.4275,234.8512 74.5708,224.3402 71.7153,213.5142 69.8861,202.4684 69.0992,191.2998 69.3617,180.1067 70.6712,168.9872 73.0161,158.0393 76.3759,147.3591 80.7211,137.0404 86.0134,127.174 92.2064,117.8464 99.2457,109.1398 107.0692,101.1306 115.6085,93.8892 124.7882,87.4792 134.5279,81.957 144.7419,77.3712 155.3405,73.7619 166.2304,71.161 177.3161,69.5912 188.5,69.0664" stroke="black" stroke-width="1" />

    </g>
  </g>
  <WCB
     pausedposy="0"
     pausedposx="0"
     lastknownposy="0"
     lastknownposx="0"
     lastpathnc="0"
     lastpath="0"
     node="0"
     layer="0" />
</svg>
