<?xml version="1.0" encoding="UTF-8" standalone="no"?>
<!-- Created with Inkscape (http://www.inkscape.org/) -->

<svg
   xmlns:dc="http://purl.org/dc/elements/1.1/"
   xmlns:cc="http://creativecommons.org/ns#"
   xmlns:rdf="http://www.w3.org/1999/02/22-rdf-syntax-ns#"
   xmlns:svg="http://www.w3.org/2000/svg"
   xmlns="http://www.w3.org/2000/svg"
   xmlns:sodipodi="http://sodipodi.sourceforge.net/DTD/sodipodi-0.dtd"
   xmlns:inkscape="http://www.inkscape.org/namespaces/inkscape"
   width="100mm"
   height="100mm"
   viewBox="0 0 100 100"
   version="1.1"
   id="svg19124"
   inkscape:version="0.92.3 (2405546, 2018-03-11)"
   sodipodi:docname="inkscape_template_TMP.svg"
   shape-rendering="crispEdges">
  <sodipodi:namedview
     pagecolor="#ffffff"
     bordercolor="#666666"
     borderopacity="1"
     objecttolerance="10"
     gridtolerance="10"
     guidetolerance="10"
     inkscape:pageopacity="0"
     inkscape:pageshadow="2"
     inkscape:window-width="1568"
     inkscape:window-height="1550"
     id="namedview24021"
     showgrid="false"
     inkscape:zoom="0.62441667"
     inkscape:cx="712.66515"
     inkscape:cy="409.98265"
     inkscape:window-x="0"
     inkscape:window-y="0"
     inkscape:window-maximized="0"
     inkscape:current-layer="layer1" />
  <defs
     id="defs19118" />
  <metadata
     id="metadata19121">
    <rdf:RDF>
      <cc:Work
         rdf:about="">
        <dc:format>image/svg+xml</dc:format>
        <dc:type
           rdf:resource="http://purl.org/dc/dcmitype/StillImage" />
        <dc:title />
      </cc:Work>
    </rdf:RDF>
  </metadata>
  <g
     transform="translate(0,-197)"
     id="layer1"
     inkscape:groupmode="layer"
     inkscape:label="Layer 1">
    <g
       id="g24447"
       transform="matrix(0.26458333,0,0,0.26458333,0.10666333,197.9735)">

<polyline fill="none" points="192.1004,47.7394 189.7225,51.1455 187.3447,54.5516 184.9669,57.9577 184.9669,54.5516 184.9669,51.1455 184.9669,47.7394 184.9669,45.7676 186.5623,44.1729 188.5334,44.1729 190.5231,44.1729 192.1004,45.7676 192.1004,47.7394 192.1004,51.1455 192.1004,54.5516 192.1004,57.9577 192.1004,59.9295 190.5231,61.5235 188.5509,61.5235 186.5623,61.5235 184.9669,59.9295 184.9669,57.9577" stroke="black" stroke-width="1" /><polyline fill="none" points="197.8298,61.5877 200.7471,57.7851 198.696,53.7706 202.935,62.0679 200.7471,57.7851 203.4811,54.2207" stroke="black" stroke-width="1" /><polyline fill="none" points="217.8243,53.8986 217.4566,55.8358 215.6092,57.1077 213.6719,56.74 211.7178,56.3691 210.449,54.5059 210.8167,52.5686 211.0063,51.5691 211.196,50.5697 211.3857,49.5702 211.7534,47.6329 213.6168,46.3634 215.5544,46.7312 217.5081,47.102 218.761,48.9629 218.3934,50.9002 217.7583,54.2465 217.1232,57.5929 216.4881,60.9392 216.1205,62.8761 214.2729,64.1483 212.3357,63.7806 210.6682,63.4642 209.5039,62.0563 209.4271,60.436" stroke="black" stroke-width="1" /><polyline fill="none" points="224.397,52.1393 224.8921,50.4261 226.7629,49.3247 228.6247,49.8627 230.4854,50.4005 231.5213,52.2535 230.9597,54.1969 230.8709,54.5042 230.7821,54.8115 230.6933,55.1189 229.8364,58.0837 227.1077,57.8301 226.7776,57.7347 226.4593,57.6427 226.141,57.5507 225.8227,57.4587 226.141,57.5507 226.4593,57.6427 226.7776,57.7347 227.75,58.0157 229.4922,59.7687 228.8259,62.0741 228.6307,62.7496 228.4355,63.4251 228.2403,64.1005 227.6883,66.0107 225.7014,67.0786 223.7906,66.5264 221.8634,65.9694 220.7697,64.0112 221.3217,62.1011" stroke="black" stroke-width="1" /><polyline fill="none" points="237.0083,56.0999 237.6616,54.4406 239.6274,53.5192 241.4306,54.2292 243.2327,54.9389 244.0906,56.8808 243.3495,58.763 243.2323,59.0607 243.1151,59.3583 242.9979,59.656 241.8671,62.5276 239.1741,62.0195 238.8544,61.8936 238.5462,61.7723 238.2379,61.6509 237.9296,61.5295 238.2379,61.6509 238.5462,61.7723 238.8544,61.8936 239.7962,62.2645 241.3667,64.1729 240.4874,66.4058 240.2298,67.06 239.9722,67.7143 239.7146,68.3685 238.9861,70.2185 236.9081,71.0957 235.0574,70.367 233.1907,69.632 232.2852,67.58 233.0137,65.7299" stroke="black" stroke-width="1" /><polyline fill="none" points="248.9864,61.3496 249.8775,59.5905 252.0205,58.8889 253.7796,59.78 255.5542,60.679 256.2711,62.8678 255.38,64.6268 255.0309,65.316 254.6616,65.7043 254.2919,65.941 250.5527,68.3386 246.8136,70.7362 243.0744,73.1339 243.0099,73.2611 242.9455,73.3883 242.881,73.5156 244.9919,74.5849 247.1028,75.6542 249.2137,76.7235" stroke="black" stroke-width="1" /><polyline fill="none" points="261.1025,66.494 262.3647,64.4926 268.3842,68.289 255.018,80.1278" stroke="black" stroke-width="1" /><polyline fill="none" points="275.4857,81.678 274.2823,83.24 272.0595,83.5397 270.4974,82.3362 268.9218,81.1223 268.632,78.8868 269.8354,77.3248 270.4563,76.5189 271.0771,75.7131 271.698,74.9072 272.9015,73.3452 275.1374,73.0547 276.6997,74.2584 278.2751,75.4721 278.5518,77.6983 277.3483,79.2604 275.2696,81.9585 273.1908,84.6567 271.112,87.3549 269.9088,88.9166 267.6858,89.2166 266.1238,88.0131 264.7793,86.9773 264.3768,85.1952 265.0406,83.7151" stroke="black" stroke-width="1" /><polyline fill="none" points="277.1284,97.2925 280.0625,94.1445 275.5966,89.9821 288.4911,84.4474" stroke="black" stroke-width="1" /><polyline fill="none" points="298.2685,94.7999 296.9049,93.2663 295.5414,91.7328 294.1778,90.1992 292.1576,91.9955 290.1373,93.7918 288.1171,95.588 289.4596,95.2661 290.6124,95.5037 291.6035,96.6183 292.9707,98.156 292.7614,100.4754 291.3396,101.7396 290.3232,102.6434 289.3067,103.5472 288.2902,104.451 286.8041,105.7724 284.6555,105.5494 283.4133,104.1525 282.183,102.7688 282.2243,100.6216 283.7104,99.3002" stroke="black" stroke-width="1" /><polyline fill="none" points="304.1183,108.1327 299.9655,108.2306 295.8127,108.3284 291.6599,108.4262 294.4061,106.4112 297.1523,104.3963 299.8984,102.3814 301.4882,101.2149 303.7177,101.5578 304.8838,103.147 306.0609,104.7513 305.7082,106.9662 304.1183,108.1327 301.3722,110.1477 298.626,112.1626 295.8799,114.1776 294.2901,115.344 292.0719,115.0154 290.9052,113.4253 289.7288,111.8219 290.0701,109.5927 291.6599,108.4262" stroke="black" stroke-width="1" /><polyline fill="none" points="307.4896,113.2185 309.1817,112.206 311.3687,112.7558 312.3811,114.4478 313.4026,116.1549 312.8413,118.3887 311.1493,119.4012 310.4864,119.7978 309.9669,119.9293 309.5279,119.9323 305.0862,119.9656 300.6445,119.9989 296.2028,120.0323 296.0804,120.1055 295.958,120.1787 295.8356,120.252 297.0506,122.2825 298.2656,124.313 299.4807,126.3435" stroke="black" stroke-width="1" /><polyline fill="none" points="306.3394,136.0882 305.2609,135.9382 304.1083,135.6337 303.192,133.7147 302.3718,131.9968 303.0625,129.8624 304.9041,128.9831 306.2499,128.3405 307.5958,127.6979 308.9416,127.0553 310.7365,126.1983 312.8299,127.0036 313.6501,128.7215 314.4851,130.4703 313.8098,132.6351 312.0148,133.4921 311.3446,133.8121 310.6743,134.1321 310.004,134.4521 308.9821,132.3117 307.9601,130.1713 306.9381,128.0309" stroke="black" stroke-width="1" /><polyline fill="none" points="319.6768,136.7748 321.3509,136.1606 323.3457,137.0173 324.0132,138.8367 324.6804,140.655 323.7992,142.5864 321.9001,143.2832 321.5998,143.3934 321.2995,143.5036 320.9991,143.6138 318.1019,144.6769 316.6921,142.3268 316.5738,142.0042 316.4597,141.6932 316.3455,141.3822 316.2314,141.0711 316.3455,141.3822 316.4597,141.6932 316.5738,142.0042 316.9224,142.9545 316.5397,145.3962 314.2868,146.2228 313.6267,146.465 312.9666,146.7072 312.3065,146.9494 310.44,147.6343 308.4036,146.6642 307.7185,144.7969 307.0274,142.9136 307.9592,140.8734 309.8258,140.1885" stroke="black" stroke-width="1" /><polyline fill="none" points="315.6996,158.5293 313.7767,159.0365 311.8734,157.8715 311.388,156.0312 310.9026,154.1909 311.9794,152.2225 313.9023,151.7153 315.361,151.3305 316.8198,150.9458 318.2785,150.561 320.2017,150.0537 322.1086,151.2351 322.5941,153.0754 323.0795,154.9158 321.999,156.8677 320.0758,157.375" stroke="black" stroke-width="1" /><polyline fill="none" points="327.1556,163.2706 330.9226,165.3417 314.0092,168.1426" stroke="black" stroke-width="1" /><polyline fill="none" points="326.1291,182.5254 324.1621,182.664 322.4612,181.202 322.3226,179.235 322.1828,177.2509 323.6608,175.5489 325.6278,175.4103 326.6426,175.3388 327.6574,175.2673 328.6722,175.1958 330.6392,175.0573 332.3419,176.5352 332.4805,178.5026 332.6203,180.4863 331.1404,182.1724 329.1735,182.3109 325.7758,182.5503 322.3781,182.7897 318.9805,183.0291 317.0139,183.1676 315.3126,181.7056 315.174,179.7386 315.0547,178.0456 316.1191,176.5607 317.6663,176.0732" stroke="black" stroke-width="1" /><polyline fill="none" points="332.6845,194.7964 332.7326,192.7449 332.7807,190.6934 332.8289,188.6418 330.1263,188.5785 327.4237,188.5151 324.7211,188.4517 325.9227,189.1315 326.604,190.0914 326.569,191.5824 326.5208,193.6394 324.7863,195.1935 322.8843,195.1489 321.5245,195.1171 320.1647,195.0852 318.8049,195.0533 316.8168,195.0067 315.397,193.3786 315.4409,191.5098 315.4843,189.6588 316.9784,188.1162 318.9665,188.1628" stroke="black" stroke-width="1" /><polyline fill="none" points="328.7091,202.7589 331.753,205.7943 314.7268,203.7893" stroke="black" stroke-width="1" /><polyline fill="none" points="328.0482,214.6321 330.3619,215.1276 328.8714,222.0865 313.153,213.6164" stroke="black" stroke-width="1" /><polyline fill="none" points="317.0046,225.1947 318.8856,225.7864 319.9286,227.7863 319.3371,229.6666 318.74,231.5646 316.7452,232.5905 314.8642,231.9987 313.894,231.6935 312.9238,231.3883 311.9536,231.0831 310.0727,230.4914 309.0251,228.5084 309.6222,226.6104 310.2137,224.7301 312.2131,223.6874 314.0941,224.2791 317.3432,225.3012 320.5923,226.3233 323.8414,227.3454 325.722,227.937 326.7646,229.9368 326.1732,231.8171 325.6635,233.4371 324.1298,234.4279 322.512,234.3147" stroke="black" stroke-width="1" /><polyline fill="none" points="320.2999,247.6393 316.0654,245.8561 311.8308,244.073 307.5963,242.2898 305.7632,241.5179 304.9731,239.4185 305.7119,237.664 306.4438,235.9257 308.4979,235.0235 310.331,235.7955 311.7214,236.381 313.1118,236.9664 314.5021,237.5519 316.3353,238.3238 317.1245,240.4233 316.3925,242.1616 315.6537,243.916 313.6005,244.8182 311.7674,244.0463" stroke="black" stroke-width="1" /><polyline fill="none" points="314.6417,258.3222 315.1114,257.4466 314.9714,256.4374 313.8535,255.8377 312.7708,255.257 311.6881,254.6762 310.6054,254.0955 310.3192,254.6292 310.0329,255.1628 309.7466,255.6965 310.2977,254.6691 310.8488,253.6417 311.3999,252.6143 311.1351,253.108 310.8702,253.6017 310.6054,254.0955 307.2767,252.3099 303.9479,250.5244 300.6192,248.7389" stroke="black" stroke-width="1" /><polyline fill="none" points="301.1709,267.7636 299.5282,266.6729 299.0731,264.4767 300.1637,262.8339 301.2639,261.1769 303.4735,260.7307 305.1163,261.8214 305.9638,262.3841 306.8113,262.9467 307.6588,263.5095 309.3015,264.6002 309.7484,266.8102 308.6575,268.4532 307.5575,270.1099 305.3562,270.5424 303.7134,269.4517 300.8759,267.5677 298.0383,265.6837 295.2007,263.7997 293.5583,262.7092 293.1028,260.5128 294.1935,258.87 295.1323,257.4561 296.8817,256.9294 298.4048,257.4875" stroke="black" stroke-width="1" /><polyline fill="none" points="301.1775,274.8735 303.0175,276.3611 298.5432,281.8953 288.3488,267.2362" stroke="black" stroke-width="1" /><polyline fill="none" points="277.6047,279.2422 280.6831,282.2493 284.949,277.8822 290.18,290.903" stroke="black" stroke-width="1" /><polyline fill="none" points="282.2455,293.8309 283.3989,295.191 283.2817,297.3588 281.8037,298.6122 280.3265,299.8649 278.2097,299.703 276.9013,298.1602 276.6945,297.9162 276.4875,297.6722 276.2807,297.4282 274.2846,295.0744 276.0052,292.9414 276.2673,292.7192 276.52,292.5049 276.7727,292.2906 277.0254,292.0764 276.7727,292.2906 276.52,292.5049 276.2673,292.7192 275.4953,293.3738 273.0712,293.8556 271.5192,292.0254 271.0644,291.4891 270.6096,290.9529 270.1549,290.4166 268.8689,288.9002 269.0782,286.6543 270.5952,285.3679 272.1252,284.0703 274.3615,284.2423 275.6475,285.7588" stroke="black" stroke-width="1" /><polyline fill="none" points="259.4598,296.1932 259.4316,295.1047 259.5438,293.9178 261.2873,292.7003 262.8481,291.6105 265.0667,291.9431 266.235,293.6164 267.0889,294.8391 267.9427,296.0619 268.7965,297.2847 269.9352,298.9154 269.4828,301.1123 267.9221,302.2021 266.3332,303.3116 264.0871,302.999 262.9484,301.3682 262.5232,300.7592 262.0979,300.1502 261.6727,299.5412 263.6174,298.1833 265.5621,296.8254 267.5067,295.4675" stroke="black" stroke-width="1" /><polyline fill="none" points="260.9714,309.2217 261.944,310.9371 261.3431,313.1105 259.6277,314.0831 257.8972,315.0643 255.6772,314.4508 254.7046,312.7354 254.3236,312.0634 254.2044,311.541 254.2117,311.1021 254.2825,306.6608 254.3533,302.2195 254.4241,297.7782 254.3537,297.6541 254.2834,297.5301 254.213,297.406 252.1546,298.5731 250.0962,299.7402 248.0377,300.9073" stroke="black" stroke-width="1" /><polyline fill="none" points="244.5941,321.6245 242.7122,317.4329 240.8303,313.2413 238.9483,309.0497 238.1336,307.2352 238.9871,305.1607 240.7237,304.381 242.4444,303.6085 244.5621,304.3489 245.3768,306.1635 245.9947,307.5397 246.6126,308.916 247.2305,310.2923 248.0452,312.1068 247.1911,314.1808 245.4705,314.9533 243.7338,315.733 241.6167,314.993 240.8021,313.1785" stroke="black" stroke-width="1" /><polyline fill="none" points="237.7303,321.6652 238.4931,323.905 231.7563,326.1992 230.9536,308.3619" stroke="black" stroke-width="1" /><polyline fill="none" points="217.6976,326.2462 219.2191,322.3809 220.7406,318.5156 222.2621,314.6503 223.0534,317.9632 223.8446,321.2761 224.6359,324.589 225.094,326.5069 223.9127,328.4286 221.9954,328.8865 220.0602,329.3488 218.1557,328.1641 217.6976,326.2462 216.9063,322.9333 216.1151,319.6204 215.3238,316.3075 214.8658,314.3896 216.0295,312.4728 217.9478,312.0146 219.882,311.5527 221.8041,312.7324 222.2621,314.6503" stroke="black" stroke-width="1" /><polyline fill="none" points="204.3357,323.358 204.3364,323.3635 204.3372,323.3689 204.338,323.3743 204.0111,321.0658 203.6842,318.7573 203.3573,316.4489 203.2062,315.382 202.3996,315.0785 201.8409,315.1576 202.5541,315.0566 203.2345,315.5814 203.3381,316.3134 203.3445,316.3586 203.3509,316.4037 203.3573,316.4489 204.3073,315.3274 205.5012,314.4658 206.9776,314.2567 208.2001,314.0836 210.273,314.4137 210.6263,316.9089 210.8115,318.2163 210.1997,319.151 209.2093,319.7407 208.7317,320.0338 207.1635,320.5851 206.1087,320.9596 205.039,321.3531 204.1505,322.0507 204.3357,323.358 204.5231,324.682 206.0903,326.0869 208.1272,325.7985 210.046,325.5268 210.7965,324.4686 211.2344,323.5235" stroke="black" stroke-width="1" /><polyline fill="none" points="198.3167,321.7801 198.4091,323.7498 196.8909,325.4178 194.9219,325.5102 192.9344,325.6035 191.2842,324.0841 191.1917,322.1144 191.1441,321.0984 191.0964,320.0825 191.0487,319.0666 190.9563,317.0969 192.457,315.4304 194.4446,315.3371 196.4135,315.2447 198.0812,316.7626 198.1736,318.7322 198.3333,322.1346 198.4929,325.5369 198.6526,328.9392 198.745,330.9086 197.2268,332.5763 195.2578,332.6686 193.5614,332.7483 192.1029,331.6497 191.6519,330.0919" stroke="black" stroke-width="1" /><polyline fill="none" points="178.3058,328.9371 180.8407,325.6462 183.3756,322.3553 185.9104,319.0645 185.7508,322.4668 185.5911,325.8691 185.4315,329.2715 185.3391,331.2411 183.6706,332.7593 181.7017,332.6669 179.7141,332.5737 178.2134,330.9068 178.3058,328.9371 178.4655,325.5348 178.6252,322.1324 178.7848,318.7301 178.8772,316.7604 180.5274,315.2421 182.4975,315.3346 184.4839,315.4278 186.0029,317.0948 185.9104,319.0645" stroke="black" stroke-width="1" /><polyline fill="none" points="166.9833,315.6619 167.7048,314.8464 168.5961,314.0546 170.7016,314.3527 172.5864,314.6196 173.9826,316.3756 173.6965,318.3963 173.4874,319.8729 173.2783,321.3495 173.0692,322.8262 172.7903,324.7955 170.9616,326.0941 169.0767,325.8272 167.158,325.5555 165.728,323.7955 166.0069,321.8261 166.1111,321.0907 166.2152,320.3553 166.3193,319.6198 168.6678,319.9524 171.0162,320.2849 173.3647,320.6175" stroke="black" stroke-width="1" /><polyline fill="none" points="151.6884,328.191 152.7558,323.722 153.8232,319.2531 154.8905,314.7841 155.3526,312.8495 157.2948,311.7271 159.1463,312.1693 160.9809,312.6074 162.2065,314.4865 161.7444,316.4211 161.394,317.8884 161.0435,319.3558 160.6931,320.8231 160.231,322.7577 158.2887,323.8794 156.4541,323.4412 154.6026,322.999 153.3771,321.1207 153.8392,319.1861" stroke="black" stroke-width="1" /><polyline fill="none" points="146.2509,323.0283 145.6761,324.7163 143.7556,325.7289 141.9212,325.1042 140.0877,324.4798 139.1398,322.5802 139.7919,320.6653 139.895,320.3625 139.9981,320.0597 140.1012,319.7568 141.0961,316.8354 143.81,317.2167 144.1352,317.3275 144.4489,317.4343 144.7625,317.541 145.0761,317.6479 144.7625,317.541 144.4489,317.4343 144.1352,317.3275 143.1771,317.0012 141.5189,315.1684 142.2925,312.8968 142.5192,312.2312 142.7458,311.5656 142.9725,310.9 143.6135,309.0179 145.6481,308.0443 147.5309,308.6854 149.43,309.3322 150.4307,311.3394 149.7897,313.2216" stroke="black" stroke-width="1" /><polyline fill="none" points="137.0278,311.8311 136.2202,313.6299 134.112,314.4319 132.3138,313.6245 130.4987,312.8096 129.7132,310.7084 130.5208,308.9096 130.9374,307.9818 131.354,307.0539 131.7706,306.1261 132.5782,304.3272 134.6701,303.5187 136.4852,304.3337 138.2834,305.1411 139.0852,307.2487 138.2776,309.0476 136.8825,312.1548 135.4874,315.2621 134.0923,318.3694 133.2848,320.1679 131.1768,320.9695 129.3786,320.1622 127.8293,319.4666 127.0247,317.8275 127.3263,316.2339" stroke="black" stroke-width="1" /><polyline fill="none" points="114.3519,312.4788 116.618,308.4818 118.8842,304.4849 121.1504,300.4879 122.1314,298.7577 124.3088,298.2186 125.9648,299.1575 127.6056,300.0878 128.2614,302.2332 127.2803,303.9634 126.5363,305.2758 125.7922,306.5882 125.0481,307.9005 124.0671,309.6308 121.8897,310.1691 120.2489,309.2388 118.593,308.2999 117.9372,306.1552 118.9182,304.425" stroke="black" stroke-width="1" /><polyline fill="none" points="104.404,305.6099 105.2187,306.1788 106.2374,306.1578 106.9637,305.1177 107.667,304.1104 108.3704,303.103 109.0738,302.0957 108.5773,301.749 108.0807,301.4023 107.5842,301.0555 108.5401,301.723 109.496,302.3905 110.4519,303.058 109.9925,302.7372 109.5332,302.4164 109.0738,302.0957 111.2364,298.9986 113.399,295.9016 115.5616,292.8044" stroke="black" stroke-width="1" /><polyline fill="none" points="93.8072,297.2205 94.565,297.8631 95.5812,297.9377 96.4017,296.9701 97.1963,296.0331 97.9909,295.096 98.7856,294.159 98.3237,293.7673 97.8618,293.3756 97.3999,292.9839 98.2891,293.7379 99.1783,294.492 100.0675,295.2461 99.6402,294.8837 99.2129,294.5214 98.7856,294.159 101.2287,291.278 103.6718,288.3971 106.1149,285.5161" stroke="black" stroke-width="1" /><polyline fill="none" points="95.6939,275.453 92.6155,278.4601 96.8814,282.8272 83.7416,287.7515" stroke="black" stroke-width="1" /><polyline fill="none" points="86.0599,266.8527 87.1437,266.748 88.3355,266.7764 89.6725,268.4301 90.8693,269.9104 90.6935,272.147 89.1065,273.43 87.9467,274.3677 86.787,275.3053 85.6272,276.243 84.0805,277.4935 81.8573,277.1966 80.6605,275.7162 79.4421,274.2092 79.5961,271.9468 81.1428,270.6963 81.7204,270.2292 82.298,269.7623 82.8756,269.2953 84.3668,271.1397 85.8581,272.9842 87.3493,274.8287" stroke="black" stroke-width="1" /><polyline fill="none" points="81.1082,256.6235 77.5231,259.0038 80.8999,264.0897 67.0723,266.4776" stroke="black" stroke-width="1" /><polyline fill="none" points="59.9675,254.1369 60.9374,255.9453 61.9075,257.7537 62.8775,259.5621 65.2597,258.2842 67.6419,257.0064 70.0242,255.7286 68.6436,255.7299 67.5775,255.2309 66.8725,253.9166 65.8999,252.1034 66.6423,249.896 68.3189,248.9966 69.5175,248.3537 70.7161,247.7108 71.9147,247.0678 73.6672,246.1278 75.7052,246.8438 76.5889,248.4912 77.464,250.1228 76.9251,252.2016 75.1727,253.1416" stroke="black" stroke-width="1" /><polyline fill="none" points="60.1308,246.3549 58.3135,247.1202 56.2253,246.2693 55.46,244.452 54.688,242.6185 55.5569,240.4855 57.3742,239.7202 58.0862,239.4204 58.6189,239.3631 59.054,239.4217 63.4565,240.0115 67.859,240.6012 72.2616,241.1909 72.393,241.1356 72.5244,241.0802 72.6559,241.0249 71.7376,238.8441 70.8192,236.6633 69.9009,234.4825" stroke="black" stroke-width="1" /><polyline fill="none" points="55.2773,234.0801 53.3963,234.6718 51.3969,233.6291 50.8052,231.7481 50.2082,229.8504 51.273,227.8081 53.154,227.2164 53.8909,226.9846 54.4267,226.9774 54.8544,227.0765 59.1824,228.0759 63.5103,229.0753 67.8383,230.0747 67.9743,230.0319 68.1104,229.9891 68.2464,229.9463 67.5363,227.6891 66.8263,225.4319 66.1162,223.1747" stroke="black" stroke-width="1" /><polyline fill="none" points="50.1072,214.4604 53.9358,216.0721 57.7643,217.6839 61.5929,219.2956 58.2623,220.0089 54.9318,220.7223 51.6013,221.4357 49.6732,221.8486 47.7797,220.6226 47.3668,218.6952 46.9501,216.7496 48.1791,214.8734 50.1072,214.4604 53.4378,213.747 56.7683,213.0337 60.0988,212.3203 62.027,211.9073 63.9159,213.1157 64.329,215.0442 64.7455,216.9887 63.521,218.8826 61.5929,219.2956" stroke="black" stroke-width="1" /><polyline fill="none" points="51.3022,200.919 53.2606,200.6884 55.0282,202.069 55.2588,204.0274 55.4914,206.0027 54.0948,207.7722 52.1364,208.0028 51.1261,208.1218 50.1158,208.2408 49.1055,208.3597 47.1472,208.5904 45.377,207.1938 45.1463,205.2352 44.9137,203.2602 46.313,201.5066 48.2713,201.2759 51.654,200.8776 55.0367,200.4792 58.4194,200.0809 60.3773,199.8503 62.1453,201.2309 62.3759,203.1892 62.5744,204.8748 61.5808,206.408 60.0582,206.9674" stroke="black" stroke-width="1" /><polyline fill="none" points="50.7422,188.017 52.7135,187.9708 54.344,189.5109 54.3902,191.4822 54.4369,193.4707 52.8807,195.1016 50.9094,195.1478 49.8923,195.1716 48.8753,195.1955 47.8583,195.2193 45.887,195.2656 44.2554,193.7094 44.2091,191.7377 44.1625,189.7496 45.7198,188.1348 47.6911,188.0886 51.0962,188.0087 54.5014,187.9289 57.9065,187.849 59.8775,187.8028 61.5084,189.3429 61.5546,191.3142 61.5944,193.011 60.4615,194.4444 58.8933,194.8588" stroke="black" stroke-width="1" /><polyline fill="none" points="47.6453,181.9586 45.8664,181.8333 44.3976,180.2346 44.5338,178.3015 44.6699,176.3694 46.2648,174.9683 48.2828,175.1105 48.6019,175.133 48.921,175.1555 49.2401,175.1779 52.3186,175.3948 52.6421,178.1162 52.618,178.4589 52.5947,178.7894 52.5714,179.1199 52.5481,179.4504 52.5714,179.1199 52.5947,178.7894 52.618,178.4589 52.6891,177.4492 54.0384,175.3785 56.4322,175.5471 57.1336,175.5966 57.8349,175.646 58.5363,175.6954 60.5197,175.8351 61.98,177.5542 61.8403,179.5383 61.6993,181.5395 60.0136,183.019 58.0302,182.8793" stroke="black" stroke-width="1" /><polyline fill="none" points="49.1133,167.6849 46.2151,164.5101 63.1286,167.311" stroke="black" stroke-width="1" /><polyline fill="none" points="58.0663,150.7571 58.0611,150.7557 58.0558,150.7543 58.0505,150.7529 60.3049,151.3476 62.5593,151.9422 64.8137,152.5368 65.8556,152.8117 66.4483,152.1861 66.5923,151.6404 66.4085,152.337 65.6608,152.7603 64.946,152.5717 64.9019,152.5601 64.8578,152.5485 64.8137,152.5368 65.4785,153.8477 65.8093,155.2824 65.429,156.7242 65.1141,157.918 64.0053,159.7003 61.5686,159.0576 60.2919,158.7209 59.6679,157.7943 59.5088,156.6527 59.424,156.0988 59.5244,154.4395 59.5887,153.3221 59.6412,152.1835 59.3431,151.0939 58.0663,150.7571 56.7734,150.4161 54.8704,151.3152 54.3457,153.3044 53.8514,155.1782 54.5354,156.2805 55.2365,157.0509" stroke="black" stroke-width="1" /><polyline fill="none" points="54.9991,143.1089 53.325,142.4946 52.3578,140.551 53.0253,138.7316 53.6925,136.9133 55.6137,136.0102 57.5129,136.707 57.8132,136.8172 58.1135,136.9274 58.4138,137.0376 61.3111,138.1006 60.8663,140.8048 60.748,141.1274 60.6339,141.4384 60.5197,141.7495 60.4056,142.0605 60.5197,141.7495 60.6339,141.4384 60.748,141.1274 61.0967,140.1772 62.9678,138.5624 65.2206,139.3891 65.8807,139.6313 66.5408,139.8735 67.2009,140.1157 69.0675,140.8006 69.9932,142.8575 69.308,144.7248 68.617,146.6082 66.5868,147.5615 64.7202,146.8766" stroke="black" stroke-width="1" /><polyline fill="none" points="58.84,130.665 56.7048,129.6455 59.7711,123.2233 73.0919,135.1132" stroke="black" stroke-width="1" /><polyline fill="none" points="69.5613,113.1336 71.2631,116.923 72.965,120.7123 74.6668,124.5017 71.744,122.7528 68.8212,121.0038 65.8985,119.2549 64.2064,118.2424 63.6572,116.0545 64.6693,114.3631 65.691,112.6557 67.8693,112.1211 69.5613,113.1336 72.4841,114.8826 75.4069,116.6315 78.3296,118.3804 80.0217,119.3929 80.5796,121.5648 79.567,123.2571 78.5458,124.9636 76.3588,125.5142 74.6668,124.5017" stroke="black" stroke-width="1" /><polyline fill="none" points="72.9401,108.0528 71.3503,106.8863 71.0082,104.6574 72.1747,103.0676 73.3516,101.4637 75.6281,101.1141 77.2179,102.2806 77.8408,102.7376 78.1635,103.1653 78.3366,103.5687 80.0911,107.6494 81.8457,111.73 83.6002,115.8107 83.7152,115.895 83.8302,115.9794 83.9452,116.0638 85.345,114.156 86.7448,112.2482 88.1446,110.3403" stroke="black" stroke-width="1" /><polyline fill="none" points="93.1735,99.1085 94.6597,100.4299 94.742,102.6599 93.4773,104.0822 92.2126,105.5046 89.9771,105.6962 88.491,104.3748 87.3636,103.3724 86.2362,102.3699 85.1087,101.3675 83.6223,100.0459 83.5517,97.8038 84.8164,96.3814 86.0811,94.9591 88.3049,94.7795 89.7913,96.1011" stroke="black" stroke-width="1" /><polyline fill="none" points="90.7868,86.942 90.4285,82.6582 102.1173,95.1994" stroke="black" stroke-width="1" /><polyline fill="none" points="108.2102,78.9965 108.2069,78.9922 108.2035,78.9879 108.2002,78.9835 109.6231,80.8305 111.0461,82.6774 112.469,84.5243 113.1266,85.3779 113.978,85.2441 114.425,84.8997 113.8544,85.3393 113.0037,85.2183 112.5525,84.6327 112.5247,84.5966 112.4968,84.5604 112.469,84.5243 112.1957,85.9685 111.5821,87.3069 110.4009,88.2169 109.4228,88.9705 107.4567,89.7056 105.9187,87.7093 105.1128,86.6633 105.1841,85.5485 105.7547,84.5471 106.0256,84.0566 107.1179,82.8034 107.8507,81.9575 108.5872,81.0875 109.0161,80.0425 108.2102,78.9965 107.3941,77.9373 105.3379,77.4881 103.7083,78.7436 102.1731,79.9263 102.0422,81.217 102.1273,82.2551" stroke="black" stroke-width="1" /><polyline fill="none" points="113.206,65.546 112.3656,66.076 111.9895,67.023 112.6663,68.096 113.3217,69.1352 113.9771,70.1744 114.6325,71.2136 115.1447,70.8906 115.657,70.5675 116.1692,70.2444 115.1831,70.8664 114.197,71.4883 113.2108,72.1102 113.6847,71.8114 114.1586,71.5125 114.6325,71.2136 116.6475,74.4087 118.6626,77.6037 120.6776,80.7988" stroke="black" stroke-width="1" /><polyline fill="none" points="128.102,61.3049 127.5201,65.4179 126.9381,69.5309 126.3561,73.6439 124.8169,70.6054 123.2777,67.567 121.7385,64.5285 120.8474,62.7695 121.55,60.626 123.3084,59.7352 125.0833,58.8361 127.2109,59.5459 128.102,61.3049 129.6412,64.3434 131.1804,67.3818 132.7196,70.4203 133.6107,72.1793 132.9241,74.314 131.1647,75.2052 129.3907,76.1039 127.2472,75.4029 126.3561,73.6439" stroke="black" stroke-width="1" /><polyline fill="none" points="138.7073,52.8926 140.3907,57.1678 142.0741,61.443 143.7575,65.7182 144.4863,67.5689 143.5365,69.6011 141.7652,70.2985 140.0103,70.9896 137.9296,70.1506 137.2008,68.2999 136.6481,66.8962 136.0954,65.4925 135.5427,64.0888 134.8139,62.2381 135.7643,60.2064 137.5193,59.5154 139.2905,58.8179 141.3706,59.6563 142.0993,61.507" stroke="black" stroke-width="1" /><polyline fill="none" points="146.1213,54.0125 145.6262,52.2993 146.6211,50.3697 148.4828,49.8317 150.3435,49.2939 152.2083,50.3087 152.7699,52.252 152.8587,52.5594 152.9475,52.8667 153.0363,53.174 153.8932,56.1388 151.4498,57.38 151.1198,57.4753 150.8015,57.5673 150.4832,57.6593 150.1649,57.7513 150.4832,57.6593 150.8015,57.5673 151.1198,57.4753 152.0921,57.1943 154.5009,57.7477 155.1672,60.0531 155.3624,60.7286 155.5576,61.404 155.7528,62.0795 156.3048,63.9896 155.194,65.9528 153.2832,66.505 151.3559,67.062 149.3863,65.9891 148.8343,64.079" stroke="black" stroke-width="1" /><polyline fill="none" points="160.0938,57.9127 159.7262,55.9755 160.9955,54.111 162.932,53.7435 164.8869,53.3725 166.7338,54.6455 167.1015,56.5828 167.2911,57.582 167.4808,58.5812 167.6704,59.5804 168.0381,61.5177 166.7858,63.3782 164.831,63.7492 162.8944,64.1167 161.0304,62.8477 160.6628,60.9104 160.0276,57.5641 159.3926,54.2177 158.7575,50.8714 158.3899,48.9345 159.6592,47.0704 161.5958,46.7029 163.2643,46.3862 164.8624,47.2695 165.5274,48.7486" stroke="black" stroke-width="1" /><polyline fill="none" points="133.599,162.1752 156.5688,130.1462 189.0084,152.2515 239.8942,231.6324 156.5688,130.1462 140.8637,108.5745 250.763,172.1919 239.8942,231.6324 156.5688,130.1462 188.1635,280.8196" stroke="black" stroke-width="1" /><polyline fill="none" points="205.4315,277.1986 170.8955,284.4405" stroke="black" stroke-width="1" /><polyline fill="none" points="138.5065,171.7336 138.3616,169.8936 137.9308,168.0989 137.2244,166.3936 136.26,164.8199 135.0613,163.4164 133.6578,162.2177 132.0841,161.2533 130.3788,160.5469 128.5841,160.1161 126.7441,159.9712 124.904,160.1161 123.1093,160.5469 121.404,161.2533 119.8303,162.2177 118.4268,163.4164 117.2281,164.8199 116.2637,166.3936 115.5573,168.0989 115.1265,169.8936 114.9817,171.7336 115.1265,173.5737 115.5573,175.3684 116.2637,177.0737 117.2281,178.6474 118.4268,180.0509 119.8303,181.2496 121.404,182.214 123.1093,182.9203 124.904,183.3512 126.744,183.496 128.5841,183.3512 130.3788,182.9203 132.0841,182.214 133.6578,181.2496 135.0613,180.0509 136.26,178.6474 137.2244,177.0737 137.9308,175.3684 138.3616,173.5737 138.5065,171.7336" stroke="black" stroke-width="1" /><polyline fill="none" points="188.5,69.0664 199.6839,69.5912 210.7696,71.161 221.6595,73.7619 232.2581,77.3712 242.4721,81.9571 252.2118,87.4792 261.3915,93.8892 269.9308,101.1306 277.7544,109.1398 284.7936,117.8464 290.9866,127.1739 296.2789,137.0404 300.6241,147.3591 303.9839,158.0393 306.3289,168.9873 307.6383,180.1067 307.9008,191.2998 307.114,202.4684 305.2847,213.5142 302.4292,224.3402 298.5725,234.8512 293.7484,244.9549 287.9994,254.5625 281.376,263.5894 273.9365,271.9565 265.7461,279.5902 256.8768,286.4234 247.4067,292.3961 237.4188,297.4556 227.0011,301.5577 216.2451,304.6663 205.2452,306.7539 194.0981,307.8023 182.9019,307.8023 171.7548,306.7539 160.7549,304.6663 149.9989,301.5577 139.5811,297.4556 129.5933,292.3961 120.1232,286.4234 111.2539,279.5902 103.0635,271.9565 95.6239,263.5894 89.0006,254.5625 83.2516,244.9549 78.4275,234.8512 74.5708,224.3402 71.7153,213.5142 69.8861,202.4684 69.0992,191.2998 69.3617,180.1067 70.6712,168.9872 73.0161,158.0393 76.3759,147.3591 80.7211,137.0404 86.0134,127.174 92.2064,117.8464 99.2457,109.1398 107.0692,101.1306 115.6085,93.8892 124.7882,87.4792 134.5279,81.957 144.7419,77.3712 155.3405,73.7619 166.2304,71.161 177.3161,69.5912 188.5,69.0664" stroke="black" stroke-width="1" />

    </g>
  </g>
  <WCB
     pausedposy="0"
     pausedposx="0"
     lastknownposy="0"
     lastknownposx="0"
     lastpathnc="0"
     lastpath="0"
     node="0"
     layer="0" />
</svg>
