<?xml version="1.0" encoding="UTF-8" standalone="no"?>
<!-- Created with Inkscape (http://www.inkscape.org/) -->

<svg
   xmlns:dc="http://purl.org/dc/elements/1.1/"
   xmlns:cc="http://creativecommons.org/ns#"
   xmlns:rdf="http://www.w3.org/1999/02/22-rdf-syntax-ns#"
   xmlns:svg="http://www.w3.org/2000/svg"
   xmlns="http://www.w3.org/2000/svg"
   xmlns:sodipodi="http://sodipodi.sourceforge.net/DTD/sodipodi-0.dtd"
   xmlns:inkscape="http://www.inkscape.org/namespaces/inkscape"
   width="100mm"
   height="100mm"
   viewBox="0 0 100 100"
   version="1.1"
   id="svg19124"
   inkscape:version="0.92.3 (2405546, 2018-03-11)"
   sodipodi:docname="inkscape_template_TMP.svg"
   shape-rendering="crispEdges">
  <sodipodi:namedview
     pagecolor="#ffffff"
     bordercolor="#666666"
     borderopacity="1"
     objecttolerance="10"
     gridtolerance="10"
     guidetolerance="10"
     inkscape:pageopacity="0"
     inkscape:pageshadow="2"
     inkscape:window-width="1568"
     inkscape:window-height="1550"
     id="namedview24021"
     showgrid="false"
     inkscape:zoom="0.62441667"
     inkscape:cx="712.66515"
     inkscape:cy="409.98265"
     inkscape:window-x="0"
     inkscape:window-y="0"
     inkscape:window-maximized="0"
     inkscape:current-layer="layer1" />
  <defs
     id="defs19118" />
  <metadata
     id="metadata19121">
    <rdf:RDF>
      <cc:Work
         rdf:about="">
        <dc:format>image/svg+xml</dc:format>
        <dc:type
           rdf:resource="http://purl.org/dc/dcmitype/StillImage" />
        <dc:title />
      </cc:Work>
    </rdf:RDF>
  </metadata>
  <g
     transform="translate(0,-197)"
     id="layer1"
     inkscape:groupmode="layer"
     inkscape:label="Layer 1">
    <g
       id="g24447"
       transform="matrix(0.26458333,0,0,0.26458333,0.10666333,197.9735)">

<polyline fill="none" points="192.1004,47.7394 189.7225,51.1455 187.3447,54.5516 184.9669,57.9577 184.9669,54.5516 184.9669,51.1455 184.9669,47.7394 184.9669,45.7676 186.5623,44.1729 188.5334,44.1729 190.5231,44.1729 192.1004,45.7676 192.1004,47.7394 192.1004,51.1455 192.1004,54.5516 192.1004,57.9577 192.1004,59.9295 190.5231,61.5235 188.5509,61.5235 186.5623,61.5235 184.9669,59.9295 184.9669,57.9577" stroke="black" stroke-width="1" /><polyline fill="none" points="197.8298,61.5877 200.7471,57.7851 198.696,53.7706 202.935,62.0679 200.7471,57.7851 203.4811,54.2207" stroke="black" stroke-width="1" /><polyline fill="none" points="217.8243,53.8986 217.4566,55.8358 215.6092,57.1077 213.6719,56.74 211.7178,56.3691 210.449,54.5059 210.8167,52.5686 211.0063,51.5691 211.196,50.5697 211.3857,49.5702 211.7534,47.6329 213.6168,46.3634 215.5544,46.7312 217.5081,47.102 218.761,48.9629 218.3934,50.9002 217.7583,54.2465 217.1232,57.5929 216.4881,60.9392 216.1205,62.8761 214.2729,64.1483 212.3357,63.7806 210.6682,63.4642 209.5039,62.0563 209.4271,60.436" stroke="black" stroke-width="1" /><polyline fill="none" points="228.0957,63.9602 227.5436,65.8707 225.5666,66.9057 223.7382,66.3773 221.9097,65.8489 220.7736,63.9141 221.3257,62.0037 221.7446,60.5543 222.1634,59.105 222.5823,57.6557 223.1345,55.7449 225.1274,54.7152 226.9558,55.2436 228.7843,55.772 229.9045,57.7014 229.3523,59.6123" stroke="black" stroke-width="1" /><polyline fill="none" points="242.4078,61.727 241.6854,63.5617 239.6332,64.4667 237.7984,63.7443 235.9477,63.0156 235.0486,60.9484 235.771,59.1136 236.1438,58.1671 236.5165,57.2205 236.8892,56.274 237.6116,54.4392 239.6791,53.5394 241.5141,54.262 243.3645,54.9906 244.2484,57.0525 243.526,58.8873 242.2781,62.0565 241.0301,65.2257 239.7822,68.395 239.0599,70.2294 237.0076,71.1348 235.1728,70.4123 233.5936,69.7905 232.7122,68.1901 232.9389,66.584" stroke="black" stroke-width="1" /><polyline fill="none" points="254.0422,67.332 253.1511,69.091 251.0232,69.7999 249.2641,68.9088 247.4898,68.01 246.7882,65.8677 247.6793,64.1087 248.139,63.2012 248.5987,62.2937 249.0584,61.3862 249.9495,59.6272 252.0921,58.9249 253.8514,59.8162 255.6254,60.7148 256.3124,62.8505 255.4213,64.6095 253.8821,67.648 252.3429,70.6864 250.8037,73.7249 249.9128,75.4836 247.7847,76.1928 246.0257,75.3017 244.5116,74.5347 243.7839,72.8589 244.1601,71.281" stroke="black" stroke-width="1" /><polyline fill="none" points="265.1005,74.0019 264.0486,75.6697 261.8637,76.1763 260.1958,75.1244 258.5135,74.0633 258.0155,71.8648 259.0674,70.1969 259.6101,69.3365 260.1528,68.476 260.6954,67.6155 261.7473,65.9477 263.9463,65.4491 265.6144,66.5012 267.2965,67.5621 267.7805,69.7526 266.7285,71.4205 264.9116,74.3015 263.0946,77.1824 261.2776,80.0634 260.226,81.7309 258.0408,82.2378 256.373,81.1859 254.9374,80.2805 254.3698,78.5439 254.8921,77.0081" stroke="black" stroke-width="1" /><polyline fill="none" points="271.6341,74.8577 272.8375,73.2957 275.0738,73.006 276.6359,74.2094 278.2117,75.4236 278.5079,77.7077 277.3045,79.2697 276.833,79.8817 276.3978,80.1943 275.9904,80.3579 271.8698,82.0163 267.7491,83.6746 263.6285,85.333 263.5414,85.446 263.4544,85.559 263.3673,85.672 265.2418,87.1161 267.1163,88.5603 268.9908,90.0045" stroke="black" stroke-width="1" /><polyline fill="none" points="276.9819,88.3456 278.3264,86.9032 280.5804,86.8236 282.0224,88.1676 283.4779,89.5242 283.5442,91.7663 282.1997,93.2088 281.5063,93.9528 280.8129,94.6968 280.1194,95.4408 278.775,96.8833 276.5342,96.9743 275.0787,95.6177 273.6367,94.2737 273.5572,92.0202 274.9016,90.5777 277.2239,88.086 279.5462,85.5944 281.8685,83.1027 283.2126,81.6605 285.4665,81.5812 286.9084,82.9252 288.1508,84.0831 288.3841,85.8941 287.5849,87.3052" stroke="black" stroke-width="1" /><polyline fill="none" points="292.3208,93.1944 296.6118,92.9367 283.8,104.3283" stroke="black" stroke-width="1" /><polyline fill="none" points="292.5807,115.4177 296.0503,112.872 292.4388,107.9499 306.1392,104.9165" stroke="black" stroke-width="1" /><polyline fill="none" points="308.401,112.4713 310.4314,111.2564 314.0856,117.3632 296.8121,121.8841" stroke="black" stroke-width="1" /><polyline fill="none" points="319.4162,128.1029 318.9881,127.2062 318.0916,126.722 316.9468,127.2686 315.8381,127.798 314.7294,128.3273 313.6207,128.8567 313.8816,129.4032 314.1425,129.9498 314.4035,130.4963 313.9011,129.4442 313.3988,128.3921 312.8965,127.34 313.1379,127.8455 313.3793,128.3511 313.6207,128.8567 310.2119,130.4843 306.8031,132.1118 303.3943,133.7393" stroke="black" stroke-width="1" /><polyline fill="none" points="324.9656,141.5323 324.2587,139.6058 323.5518,137.6793 322.845,135.7528 320.3071,136.684 317.7692,137.6152 315.2314,138.5464 316.5984,138.7387 317.584,139.3822 318.0978,140.7823 318.8066,142.714 317.7621,144.7955 315.976,145.4509 314.699,145.9194 313.4221,146.388 312.1452,146.8565 310.2783,147.5415 308.3607,146.5468 307.7168,144.7919 307.079,143.0537 307.9041,141.071 309.771,140.3859" stroke="black" stroke-width="1" /><polyline fill="none" points="316.7681,150.9868 318.6747,150.4839 320.6238,151.6191 321.1265,153.5251 321.634,155.449 320.4939,157.3808 318.5873,157.8837 317.6038,158.1431 316.6204,158.4025 315.637,158.6619 313.7303,159.1648 311.7865,158.0464 311.279,156.1225 310.7763,154.2165 311.9112,152.2679 313.8178,151.765 317.1113,150.8963 320.4047,150.0276 323.6981,149.159 325.6044,148.6561 327.5531,149.7914 328.0558,151.6973 328.489,153.3394 327.7202,154.9957 326.2914,155.763" stroke="black" stroke-width="1" /><polyline fill="none" points="314.373,170.3397 318.6185,169.6366 317.6212,163.6138 331.2136,167.099" stroke="black" stroke-width="1" /><polyline fill="none" points="329.8173,174.8605 332.1776,174.6942 332.6777,181.7933 315.2256,178.0203" stroke="black" stroke-width="1" /><polyline fill="none" points="326.0838,195.4395 324.1125,195.3932 322.5559,193.7784 322.6022,191.8071 322.6488,189.8186 324.2797,188.2625 326.251,188.3087 327.268,188.3325 328.285,188.3564 329.3021,188.3802 331.2734,188.4265 332.8303,190.0574 332.7841,192.0291 332.7374,194.0171 331.1061,195.5572 329.1349,195.511 325.7297,195.4312 322.3246,195.3513 318.9194,195.2715 316.9485,195.2253 315.3916,193.6104 315.4378,191.6391 315.4776,189.9424 316.6763,188.5636 318.2623,188.2232" stroke="black" stroke-width="1" /><polyline fill="none" points="324.8294,208.2925 322.8711,208.0619 321.4726,206.3084 321.7032,204.3501 321.9359,202.3747 323.7053,200.9781 325.6636,201.2087 326.674,201.3277 327.6843,201.4467 328.6946,201.5657 330.6529,201.7963 332.0502,203.5658 331.8196,205.5245 331.587,207.4995 329.8187,208.8801 327.8604,208.6495 324.4777,208.2511 321.095,207.8528 317.7123,207.4544 315.7543,207.2238 314.3555,205.4703 314.5861,203.5119 314.7846,201.8264 316.1072,200.5659 317.7181,200.3755" stroke="black" stroke-width="1" /><polyline fill="none" points="329.0679,220.5552 329.276,219.5836 328.8614,218.6529 327.6209,218.3872 326.4196,218.1299 325.2182,217.8726 324.0168,217.6152 323.89,218.2074 323.7631,218.7996 323.6363,219.3918 323.8805,218.2518 324.1246,217.1118 324.3688,215.9717 324.2515,216.5196 324.1342,217.0674 324.0168,217.6152 320.3232,216.8241 316.6296,216.033 312.9359,215.2418" stroke="black" stroke-width="1" /><polyline fill="none" points="325.2587,235.0375 320.8758,233.6587 316.4928,232.2799 312.1099,230.9011 310.2126,230.3042 309.2294,228.288 309.8006,226.4721 310.3666,224.6729 312.3271,223.5823 314.2245,224.1792 315.6636,224.6319 317.1027,225.0846 318.5418,225.5373 320.4391,226.1342 321.4215,228.1506 320.8555,229.9498 320.2842,231.7657 318.3245,232.8561 316.4272,232.2592" stroke="black" stroke-width="1" /><polyline fill="none" points="313.0038,237.0668 314.8211,237.8321 315.6723,239.9208 314.9073,241.7375 314.1351,243.5712 312.053,244.4058 310.2357,243.6405 309.2983,243.2458 308.361,242.8511 307.4236,242.4564 305.6064,241.6911 304.7491,239.6188 305.5212,237.785 306.2862,235.9684 308.3745,235.1174 310.1918,235.8827 313.3309,237.2046 316.47,238.5264 319.6091,239.8483 321.4261,240.6134 322.2769,242.702 321.5119,244.5187 320.8528,246.0838 319.233,246.9267 317.6329,246.6625" stroke="black" stroke-width="1" /><polyline fill="none" points="315.3066,252.3489 317.3917,253.4673 314.0278,259.7387 301.2789,247.2376" stroke="black" stroke-width="1" /><polyline fill="none" points="299.8036,266.2751 299.8081,266.2781 299.8127,266.2812 299.8173,266.2842 297.8749,264.9946 295.9325,263.705 293.9902,262.4153 293.0925,261.8193 292.3297,262.2204 292.0175,262.6906 292.416,262.0904 293.2603,261.9307 293.8762,262.3397 293.9142,262.3649 293.9522,262.3901 293.9902,262.4153 293.7834,260.9601 293.9327,259.4954 294.7575,258.2532 295.4405,257.2245 297.0646,255.8948 299.1641,257.2888 300.2641,258.0191 300.5561,259.0974 300.3387,260.2293 300.2404,260.781 299.6104,262.3193 299.1894,263.3564 298.7726,264.4173 298.7036,265.5448 299.8036,266.2751 300.9176,267.0148 303.0088,266.7772 304.1467,265.0633 305.2187,263.4488 304.9265,262.1848 304.5113,261.2296" stroke="black" stroke-width="1" /><polyline fill="none" points="298.8748,281.4851 300.165,279.8893 301.4551,278.2935 302.7453,276.6978 300.6431,274.9981 298.541,273.2985 296.4388,271.5989 296.9757,272.8708 296.9296,274.0469 295.9919,275.2068 294.6982,276.8068 292.3758,276.9793 290.8963,275.7832 289.8386,274.928 288.7809,274.0729 287.7231,273.2177 286.1767,271.9674 286.0456,269.8112 287.2209,268.3575 288.3849,266.9178 290.51,266.6077 292.0565,267.8579" stroke="black" stroke-width="1" /><polyline fill="none" points="290.297,290.5992 290.9913,289.8884 291.1371,288.88 290.2296,287.9935 289.3507,287.135 288.4718,286.2765 287.593,285.4179 287.1698,285.8512 286.7466,286.2844 286.3234,286.7176 287.1381,285.8836 287.9528,285.0496 288.7674,284.2156 288.3759,284.6164 287.9844,285.0172 287.593,285.4179 284.8908,282.7784 282.1887,280.1389 279.4865,277.4994" stroke="black" stroke-width="1" /><polyline fill="none" points="281.3456,294.5265 281.5026,298.8223 270.4145,285.747" stroke="black" stroke-width="1" /><polyline fill="none" points="269.4744,307.7897 270.289,307.2209 270.6203,306.2573 269.894,305.2172 269.1906,304.2098 268.4872,303.2025 267.7838,302.1951 267.2873,302.5419 266.7907,302.8886 266.2942,303.2353 267.2501,302.5678 268.206,301.9003 269.1619,301.2329 268.7025,301.5536 268.2432,301.8744 267.7838,302.1951 265.6212,299.0981 263.4586,296.001 261.296,292.9039" stroke="black" stroke-width="1" /><polyline fill="none" points="248.908,300.4138 251.0304,304.1573 256.3411,301.1462 257.7513,315.1074" stroke="black" stroke-width="1" /><polyline fill="none" points="245.8115,320.7961 246.7179,320.3892 247.223,319.5043 246.7034,318.347 246.2002,317.2261 245.697,316.1053 245.1937,314.9845 244.6413,315.2325 244.0888,315.4806 243.5363,315.7286 244.5999,315.2511 245.6635,314.7736 246.7271,314.2961 246.2159,314.5255 245.7048,314.755 245.1937,314.9845 243.6465,311.5385 242.0994,308.0925 240.5522,304.6465" stroke="black" stroke-width="1" /><polyline fill="none" points="231.8817,326.2922 230.4005,321.9428 228.9194,317.5934 227.4382,313.244 226.797,311.3612 227.841,309.3758 229.643,308.7621 231.4284,308.1541 233.4675,309.0896 234.1087,310.9725 234.595,312.4005 235.0813,313.8286 235.5677,315.2567 236.2088,317.1395 235.1643,319.1244 233.3789,319.7324 231.5769,320.3461 229.5384,319.4111 228.8972,317.5283" stroke="black" stroke-width="1" /><polyline fill="none" points="220.1385,329.1623 221.1049,328.9315 221.7661,328.1563 221.4714,326.9224 221.186,325.7274 220.9006,324.5323 220.6152,323.3374 220.0261,323.478 219.4371,323.6187 218.848,323.7594 219.982,323.4886 221.116,323.2177 222.25,322.9469 221.705,323.0771 221.1601,323.2072 220.6152,323.3374 219.7377,319.6633 218.8602,315.9893 217.9827,312.3152" stroke="black" stroke-width="1" /><polyline fill="none" points="204.6705,328.375 206.5473,324.6692 208.4241,320.9634 210.3009,317.2576 210.7784,320.63 211.256,324.0024 211.7335,327.3748 212.01,329.3272 210.6539,331.1299 208.7023,331.4062 206.7322,331.6852 204.947,330.3274 204.6705,328.375 204.193,325.0026 203.7154,321.6301 203.2379,318.2577 202.9614,316.3053 204.2996,314.506 206.2523,314.2294 208.2213,313.9506 210.0244,315.3052 210.3009,317.2576" stroke="black" stroke-width="1" /><polyline fill="none" points="193.3557,332.5948 194.3482,332.5482 195.1424,331.9099 195.0829,330.6427 195.0254,329.4154 194.9678,328.1881 194.9102,326.9609 194.3052,326.9893 193.7003,327.0176 193.0953,327.046 194.2599,326.9914 195.4245,326.9367 196.5891,326.8821 196.0295,326.9083 195.4698,326.9346 194.9102,326.9609 194.7331,323.1876 194.5561,319.4144 194.379,315.6411" stroke="black" stroke-width="1" /><polyline fill="none" points="178.9855,317.118 179.6274,316.2386 180.4406,315.3668 182.5648,315.4664 184.4664,315.5557 186.0209,317.1732 185.9252,319.2117 185.8553,320.7015 185.7854,322.1912 185.7155,323.6809 185.6223,325.6677 183.9232,327.1319 182.0216,327.0427 180.0858,326.9518 178.4974,325.3334 178.5906,323.3466 178.6254,322.6046 178.6602,321.8627 178.695,321.1207 181.0643,321.2319 183.4336,321.3431 185.8028,321.4543" stroke="black" stroke-width="1" /><polyline fill="none" points="166.7565,317.3611 167.0353,315.3922 168.8476,314.0901 170.7321,314.357 172.6166,314.6238 174.0128,316.3802 173.7339,318.3492 173.5224,319.8429 173.3109,321.3366 173.0994,322.8304 172.8205,324.7997 170.9917,326.0987 169.1072,325.8318 167.2227,325.565 165.8431,323.8117 166.1219,321.8423" stroke="black" stroke-width="1" /><polyline fill="none" points="157.9408,326.0792 154.5701,328.7472 158.5527,312.0724" stroke="black" stroke-width="1" /><polyline fill="none" points="148.8029,316.1091 148.1672,317.9757 146.1435,318.9715 144.2776,318.3361 142.3941,317.6947 141.4153,315.6763 142.0509,313.8098 142.3788,312.847 142.7066,311.8842 143.0345,310.9214 143.6702,309.0549 145.6771,308.0541 147.5606,308.6955 149.4265,309.3309 150.4221,311.3542 149.7865,313.2208 148.6885,316.4451 147.5905,319.6693 146.4925,322.8935 145.8569,324.7598 143.8333,325.7553 141.9674,325.1199 140.3598,324.5724 139.4052,323.0158 139.5563,321.4011" stroke="black" stroke-width="1" /><polyline fill="none" points="136.3123,313.2297 135.4977,315.0443 133.3804,315.7845 131.6438,315.0049 129.9078,314.2254 129.0692,312.158 129.8839,310.3435 130.5018,308.9672 131.1197,307.5909 131.7376,306.2147 132.5522,304.4005 134.6547,303.6528 136.3907,304.4323 138.1273,305.212 138.9653,307.2799 138.1508,309.0941 138.1559,309.0963 138.161,309.0986 138.1661,309.101 136.2841,313.2925 134.4022,317.4841 132.5203,321.6757" stroke="black" stroke-width="1" /><polyline fill="none" points="114.3519,312.4788 116.618,308.4818 118.8842,304.4849 121.1504,300.4879 122.1314,298.7577 124.3088,298.2186 125.9648,299.1575 127.6056,300.0878 128.2614,302.2332 127.2803,303.9634 126.5363,305.2758 125.7922,306.5882 125.0481,307.9005 124.0671,309.6308 121.8897,310.1691 120.2489,309.2388 118.593,308.2999 117.9372,306.1552 118.9182,304.425" stroke="black" stroke-width="1" /><polyline fill="none" points="114.9342,300.0707 113.8053,301.6874 111.5846,302.0822 109.9685,300.9537 108.3371,299.8146 107.9572,297.6038 109.0861,295.9871 109.6683,295.1532 110.2506,294.3193 110.8329,293.4855 111.9618,291.8687 114.1677,291.4645 115.7991,292.6036 117.4152,293.7321 117.8099,295.9523 116.681,297.569 114.731,300.3616 112.781,303.1543 110.831,305.9469 109.7023,307.5634 107.4818,307.9579 105.8657,306.8293 104.4733,305.8571 103.9884,304.0967 104.5818,302.5874" stroke="black" stroke-width="1" /><polyline fill="none" points="92.5352,296.4788 95.5069,292.9745 98.4786,289.4702 101.4503,285.9659 102.7367,284.4489 104.9765,284.3253 106.4283,285.5565 107.8669,286.7764 108.1111,289.0065 106.8247,290.5235 105.8489,291.6741 104.8732,292.8247 103.8975,293.9753 102.611,295.4923 100.3715,295.6152 98.9329,294.3953 97.4811,293.1641 97.2366,290.9347 98.5231,289.4178" stroke="black" stroke-width="1" /><polyline fill="none" points="89.1384,281.0458 89.1344,281.0496 89.1305,281.0534 89.1266,281.0573 90.7944,279.4281 92.4623,277.7989 94.1301,276.1697 94.9009,275.4167 94.6685,274.5869 94.2741,274.1832 94.7775,274.6985 94.7568,275.5575 94.228,276.0741 94.1954,276.106 94.1627,276.1378 94.1301,276.1697 95.5963,276.2723 96.9973,276.7251 98.0392,277.7918 98.902,278.675 99.8621,280.5416 98.0594,282.3026 97.1148,283.2252 95.9993,283.2849 94.938,282.8353 94.4192,282.6236 93.0469,281.6854 92.121,281.0565 91.1709,280.4268 90.0829,280.1231 89.1384,281.0458 88.1818,281.9802 87.9762,284.0748 89.4137,285.5464 90.7678,286.9327 92.065,286.9118 93.086,286.7058" stroke="black" stroke-width="1" /><polyline fill="none" points="76.7757,274.1982 80.9194,273.9059 85.063,273.6135 89.2067,273.3211 86.558,275.4626 83.9093,277.604 81.2606,279.7455 79.7272,280.9852 77.4841,280.7471 76.2448,279.2143 74.9938,277.667 75.2423,275.4379 76.7757,274.1982 79.4244,272.0568 82.0731,269.9153 84.7218,267.7739 86.2552,266.5341 88.4863,266.7585 89.7263,268.2921 90.9766,269.8386 90.7401,272.0814 89.2067,273.3211" stroke="black" stroke-width="1" /><polyline fill="none" points="73.1698,269.2761 71.527,270.3668 69.3167,269.9201 68.226,268.2774 67.1256,266.6201 67.5816,264.3624 69.2243,263.2717 69.8679,262.8444 70.3806,262.6888 70.819,262.6652 75.2543,262.4237 79.6896,262.1823 84.1249,261.9407 84.2437,261.8619 84.3625,261.783 84.4813,261.7041 83.1725,259.7328 81.8636,257.7614 80.5547,255.7901" stroke="black" stroke-width="1" /><polyline fill="none" points="75.2009,246.2678 71.4086,248.302 74.2943,253.6817 60.304,254.7643" stroke="black" stroke-width="1" /><polyline fill="none" points="68.3334,235.3307 69.4037,235.5311 70.5408,235.8893 71.3661,237.8492 72.1049,239.6036 71.3149,241.7034 69.4341,242.4954 68.0596,243.0742 66.6852,243.653 65.3107,244.2318 63.4776,245.0037 61.4242,244.1012 60.6854,242.3468 59.9333,240.5607 60.7094,238.43 62.5425,237.6581 63.2271,237.3698 63.9116,237.0815 64.5962,236.7933 65.5167,238.9792 66.4372,241.1652 67.3577,243.3512" stroke="black" stroke-width="1" /><polyline fill="none" points="62.845,224.3999 64.742,223.8031 66.6978,224.8776 67.269,226.6931 67.8401,228.5087 66.8567,230.5254 64.9597,231.1222 63.5206,231.5749 62.0815,232.0276 60.6424,232.4803 58.7451,233.0772 56.7849,231.9865 56.2138,230.1709 55.6426,228.3554 56.6304,226.3549 58.5277,225.7581" stroke="black" stroke-width="1" /><polyline fill="none" points="50.491,221.8181 48.1773,222.3137 46.6868,215.3548 64.4955,216.6437" stroke="black" stroke-width="1" /><polyline fill="none" points="44.6779,202.0603 49.2411,201.5229 53.8042,200.9856 58.3674,200.4482 60.3427,200.2156 62.0655,201.6522 62.2881,203.5428 62.5087,205.416 61.1669,207.2139 59.1915,207.4465 57.6933,207.623 56.195,207.7994 54.6967,207.9758 52.7214,208.2085 50.9993,206.7714 50.7787,204.8982 50.556,203.0076 51.8972,201.2101 53.8726,200.9775" stroke="black" stroke-width="1" /><polyline fill="none" points="52.7154,188.4546 52.7099,188.4547 52.7045,188.4549 52.699,188.455 55.0299,188.4003 57.3607,188.3457 59.6916,188.291 60.7688,188.2658 61.1646,187.5002 61.1514,186.936 61.1682,187.6562 60.5675,188.2705 59.8284,188.2878 59.7828,188.2889 59.7372,188.2899 59.6916,188.291 60.6942,189.3657 61.4103,190.6522 61.4453,192.1429 61.4742,193.3772 60.9039,195.3973 58.3845,195.4564 57.0645,195.4873 56.2078,194.7704 55.7379,193.7179 55.5027,193.2093 55.1385,191.5873 54.89,190.496 54.6243,189.3876 54.0355,188.4236 52.7154,188.4546 51.3786,188.4859 49.8,189.878 49.8483,191.9347 49.8937,193.8721 50.8568,194.7412 51.7442,195.2866" stroke="black" stroke-width="1" /><polyline fill="none" points="60.1404,175.973 61.0046,176.6354 61.8571,177.4688 61.7076,179.59 61.5738,181.489 59.9203,183.0051 57.8845,182.8617 56.3969,182.7569 54.9092,182.6521 53.4215,182.5473 51.4374,182.4075 50.0135,180.6745 50.1473,178.7756 50.2835,176.8425 51.9387,175.2924 53.9228,175.4322 54.6637,175.4844 55.4046,175.5366 56.1456,175.5888 55.9789,177.9548 55.8122,180.3208 55.6455,182.6868" stroke="black" stroke-width="1" /><polyline fill="none" points="56.1199,170.1847 54.1745,169.8626 52.8615,168.0287 53.1835,166.084 53.5086,164.1211 55.3399,162.8257 57.2852,163.1478 58.2886,163.314 59.292,163.4801 60.2954,163.6463 62.2408,163.9685 63.556,165.7849 63.2309,167.7479 62.9089,169.6926 61.0754,171.0054 59.1301,170.6832 55.7698,170.1267 52.4095,169.5703 49.0492,169.0138 47.1041,168.6917 45.7914,166.8579 46.1134,164.9132 46.3909,163.2378 47.7706,162.0417 49.3883,161.9269" stroke="black" stroke-width="1" /><polyline fill="none" points="63.0662,151.8347 64.9891,152.3419 66.0702,154.294 65.5848,156.1344 65.0994,157.9747 63.1918,159.1559 61.2689,158.6487 59.8102,158.2639 58.3514,157.8792 56.8927,157.4944 54.9695,156.9871 53.8933,155.0189 54.3787,153.1786 54.8641,151.3382 56.7668,150.1731 58.69,150.6804" stroke="black" stroke-width="1" /><polyline fill="none" points="70.0453,142.2151 66.0053,140.7327 63.9024,146.464 53.7972,136.7281" stroke="black" stroke-width="1" /><polyline fill="none" points="59.9666,131.011 58.1871,130.1613 57.4355,128.0353 58.285,126.2559 59.1422,124.4607 61.3136,123.6927 63.093,124.5423 63.7902,124.8751 64.187,125.2352 64.4323,125.5993 66.9169,129.2812 69.4016,132.9631 71.8862,136.6451 72.0149,136.7065 72.1436,136.768 72.2723,136.8294 73.2919,134.6941 74.3114,132.5587 75.331,130.4233" stroke="black" stroke-width="1" /><polyline fill="none" points="70.7299,122.0827 69.0231,121.0614 68.5355,118.8721 69.5129,117.2386 70.4901,115.6057 72.6414,115.0146 74.3481,116.0359 75.6427,116.8106 76.9372,117.5852 78.2318,118.3598 79.9383,119.381 80.4349,121.5565 79.4578,123.1894 78.4803,124.8229 76.3286,125.4133 74.6221,124.3922 74.6193,124.397 74.6164,124.4018 74.6135,124.4066 70.6708,122.0474 66.7281,119.6881 62.7854,117.3289" stroke="black" stroke-width="1" /><polyline fill="none" points="80.9642,105.5933 80.9598,105.5901 80.9554,105.5868 80.951,105.5836 82.8308,106.9629 84.7106,108.3421 86.5904,109.7214 87.4591,110.3588 88.2399,109.9939 88.5737,109.5389 88.1475,110.1197 87.2967,110.2396 86.7006,109.8023 86.6639,109.7753 86.6271,109.7483 86.5904,109.7214 86.7287,111.1846 86.5108,112.6407 85.6287,113.843 84.8983,114.8384 83.2137,116.0906 81.1818,114.5998 80.1173,113.8187 79.8762,112.7279 80.1463,111.6074 80.2704,111.0609 80.9718,109.5538 81.441,108.5376 81.907,107.4975 82.0288,106.3744 80.9642,105.5933 79.8861,104.8023 77.786,104.9416 76.5691,106.6002 75.4226,108.1627 75.6552,109.439 76.0252,110.4126" stroke="black" stroke-width="1" /><polyline fill="none" points="80.9125,97.353 79.5799,96.1681 79.392,94.0052 80.6797,92.557 81.9667,91.1096 84.0852,90.9731 85.597,92.3173 85.836,92.5299 86.0751,92.7424 86.3142,92.955 88.6205,95.0057 87.2159,97.3588 86.9876,97.6156 86.7674,97.8632 86.5473,98.1108 86.3271,98.3584 86.5473,98.1108 86.7674,97.8632 86.9876,97.6156 87.6602,96.8592 89.9928,96.0423 91.7861,97.6368 92.3116,98.104 92.837,98.5713 93.3625,99.0385 94.8484,100.3596 94.956,102.6127 93.6344,104.0991 92.3014,105.5983 90.063,105.7415 88.5772,104.4204" stroke="black" stroke-width="1" /><polyline fill="none" points="89.9204,87.6789 88.7045,86.3744 88.72,84.2035 90.1376,82.8822 91.5545,81.5616 93.6765,81.6241 95.0558,83.104 95.2739,83.338 95.492,83.572 95.7101,83.806 97.8143,86.0636 96.1955,88.2749 95.9442,88.5092 95.7018,88.7351 95.4594,88.961 95.217,89.1869 95.4594,88.961 95.7018,88.7351 95.9442,88.5092 96.6846,87.8191 99.0835,87.2242 100.7196,88.9797 101.199,89.4941 101.6784,90.0084 102.1578,90.5228 103.5134,91.9773 103.4096,94.2305 101.9546,95.5866 100.4871,96.9544 98.2452,96.8874 96.8895,95.4329" stroke="black" stroke-width="1" /><polyline fill="none" points="104.1473,84.844 102.9439,83.282 103.2337,81.0452 104.7951,79.8421 106.3713,78.6278 108.5942,78.9288 109.7976,80.4908 110.4183,81.2965 111.0391,82.1021 111.6598,82.9078 112.8632,84.4699 112.5869,86.6954 111.0107,87.9098 109.4492,89.1128 107.2129,88.8231 106.0095,87.261 103.9307,84.5629 101.852,81.8647 99.7732,79.1665 98.57,77.6048 98.86,75.3683 100.4214,74.1653 101.7667,73.1288 103.5915,73.1945 104.8532,74.2135" stroke="black" stroke-width="1" /><polyline fill="none" points="122.9128,79.5407 120.6172,75.9008 115.4535,79.1574 113.3904,65.2777" stroke="black" stroke-width="1" /><polyline fill="none" points="121.788,64.273 120.9821,62.6822 121.5997,60.6009 123.3285,59.7252 125.0563,58.8499 127.0775,59.4991 127.9917,61.3037 128.1363,61.5891 128.2808,61.8744 128.4254,62.1598 129.82,64.9129 127.6509,66.5878 127.3444,66.7431 127.0489,66.8928 126.7533,67.0425 126.4578,67.1923 126.7533,67.0425 127.0489,66.8928 127.3444,66.7431 128.2474,66.2857 130.7171,66.3802 131.8015,68.521 132.1193,69.1482 132.437,69.7754 132.7547,70.4026 133.6533,72.1763 132.928,74.3122 131.1536,75.211 129.364,76.1176 127.2289,75.4308 126.3304,73.6571" stroke="black" stroke-width="1" /><polyline fill="none" points="137.4525,53.663 136.528,54.027 135.9819,54.8873 136.4467,56.0676 136.8969,57.2108 137.347,58.354 137.7971,59.4972 138.3607,59.2753 138.9242,59.0534 139.4877,58.8315 138.4029,59.2587 137.3181,59.6859 136.2332,60.113 136.7545,59.9077 137.2758,59.7025 137.7971,59.4972 139.1811,63.0119 140.5651,66.5267 141.949,70.0414" stroke="black" stroke-width="1" /><polyline fill="none" points="155.5556,62.0379 156.1078,63.9484 154.9878,65.8785 153.1593,66.4069 151.3309,66.9354 149.3378,65.9049 148.7857,63.9945 148.3668,62.5452 147.948,61.0959 147.5291,59.6465 146.9769,57.7357 148.1132,55.8017 149.9417,55.2732 151.7701,54.7448 153.7469,55.7792 154.2991,57.69" stroke="black" stroke-width="1" /><polyline fill="none" points="160.0271,50.4739 162.0093,46.6594 165.2059,63.5026" stroke="black" stroke-width="1" /><polyline fill="none" points="197.0515,160.8342 268.1431,236.6952 280.8196,188.8365 188.1635,280.8196 239.8942,231.6324 156.5688,130.1462 140.8637,108.5745 188.2428,253.3668 188.8365,96.1804 189.0084,152.2515" stroke="black" stroke-width="1" /><polyline fill="none" points="206.652,152.1974 171.3649,152.3056" stroke="black" stroke-width="1" /><polyline fill="none" points="200.7708,152.2515 200.626,150.4114 200.1952,148.6167 199.4888,146.9115 198.5244,145.3377 197.3257,143.9342 195.9222,142.7355 194.3485,141.7711 192.6432,141.0648 190.8485,140.6339 189.0084,140.4891 187.1684,140.6339 185.3737,141.0648 183.6684,141.7711 182.0947,142.7355 180.6912,143.9342 179.4925,145.3377 178.5281,146.9115 177.8217,148.6167 177.3909,150.4114 177.246,152.2515 177.3909,154.0915 177.8217,155.8863 178.5281,157.5915 179.4925,159.1652 180.6912,160.5687 182.0947,161.7675 183.6684,162.7318 185.3737,163.4382 187.1684,163.869 189.0084,164.0139 190.8485,163.869 192.6432,163.4382 194.3485,162.7318 195.9222,161.7675 197.3257,160.5687 198.5244,159.1652 199.4888,157.5915 200.1951,155.8863 200.626,154.0915 200.7708,152.2515" stroke="black" stroke-width="1" /><polyline fill="none" points="188.5,69.0664 199.6839,69.5912 210.7696,71.161 221.6595,73.7619 232.2581,77.3712 242.4721,81.9571 252.2118,87.4792 261.3915,93.8892 269.9308,101.1306 277.7544,109.1398 284.7936,117.8464 290.9866,127.1739 296.2789,137.0404 300.6241,147.3591 303.9839,158.0393 306.3289,168.9873 307.6383,180.1067 307.9008,191.2998 307.114,202.4684 305.2847,213.5142 302.4292,224.3402 298.5725,234.8512 293.7484,244.9549 287.9994,254.5625 281.376,263.5894 273.9365,271.9565 265.7461,279.5902 256.8768,286.4234 247.4067,292.3961 237.4188,297.4556 227.0011,301.5577 216.2451,304.6663 205.2452,306.7539 194.0981,307.8023 182.9019,307.8023 171.7548,306.7539 160.7549,304.6663 149.9989,301.5577 139.5811,297.4556 129.5933,292.3961 120.1232,286.4234 111.2539,279.5902 103.0635,271.9565 95.6239,263.5894 89.0006,254.5625 83.2516,244.9549 78.4275,234.8512 74.5708,224.3402 71.7153,213.5142 69.8861,202.4684 69.0992,191.2998 69.3617,180.1067 70.6712,168.9872 73.0161,158.0393 76.3759,147.3591 80.7211,137.0404 86.0134,127.174 92.2064,117.8464 99.2457,109.1398 107.0692,101.1306 115.6085,93.8892 124.7882,87.4792 134.5279,81.957 144.7419,77.3712 155.3405,73.7619 166.2304,71.161 177.3161,69.5912 188.5,69.0664" stroke="black" stroke-width="1" />

    </g>
  </g>
  <WCB
     pausedposy="0"
     pausedposx="0"
     lastknownposy="0"
     lastknownposx="0"
     lastpathnc="0"
     lastpath="0"
     node="0"
     layer="0" />
</svg>
