<?xml version="1.0" encoding="UTF-8" standalone="no"?>
<!-- Created with Inkscape (http://www.inkscape.org/) -->

<svg
   xmlns:dc="http://purl.org/dc/elements/1.1/"
   xmlns:cc="http://creativecommons.org/ns#"
   xmlns:rdf="http://www.w3.org/1999/02/22-rdf-syntax-ns#"
   xmlns:svg="http://www.w3.org/2000/svg"
   xmlns="http://www.w3.org/2000/svg"
   xmlns:sodipodi="http://sodipodi.sourceforge.net/DTD/sodipodi-0.dtd"
   xmlns:inkscape="http://www.inkscape.org/namespaces/inkscape"
   width="100mm"
   height="100mm"
   viewBox="0 0 100 100"
   version="1.1"
   id="svg19124"
   inkscape:version="0.92.3 (2405546, 2018-03-11)"
   sodipodi:docname="inkscape_template_TMP.svg"
   shape-rendering="crispEdges">
  <sodipodi:namedview
     pagecolor="#ffffff"
     bordercolor="#666666"
     borderopacity="1"
     objecttolerance="10"
     gridtolerance="10"
     guidetolerance="10"
     inkscape:pageopacity="0"
     inkscape:pageshadow="2"
     inkscape:window-width="1568"
     inkscape:window-height="1550"
     id="namedview24021"
     showgrid="false"
     inkscape:zoom="0.62441667"
     inkscape:cx="712.66515"
     inkscape:cy="409.98265"
     inkscape:window-x="0"
     inkscape:window-y="0"
     inkscape:window-maximized="0"
     inkscape:current-layer="layer1" />
  <defs
     id="defs19118" />
  <metadata
     id="metadata19121">
    <rdf:RDF>
      <cc:Work
         rdf:about="">
        <dc:format>image/svg+xml</dc:format>
        <dc:type
           rdf:resource="http://purl.org/dc/dcmitype/StillImage" />
        <dc:title />
      </cc:Work>
    </rdf:RDF>
  </metadata>
  <g
     transform="translate(0,-197)"
     id="layer1"
     inkscape:groupmode="layer"
     inkscape:label="Layer 1">
    <g
       id="g24447"
       transform="matrix(0.26458333,0,0,0.26458333,0.10666333,197.9735)">

<polyline fill="none" points="192.1004,47.7394 189.7225,51.1455 187.3447,54.5516 184.9669,57.9577 184.9669,54.5516 184.9669,51.1455 184.9669,47.7394 184.9669,45.7676 186.5623,44.1729 188.5334,44.1729 190.5231,44.1729 192.1004,45.7676 192.1004,47.7394 192.1004,51.1455 192.1004,54.5516 192.1004,57.9577 192.1004,59.9295 190.5231,61.5235 188.5509,61.5235 186.5623,61.5235 184.9669,59.9295 184.9669,57.9577" stroke="black" stroke-width="1" /><polyline fill="none" points="197.8298,61.5877 200.7471,57.7851 198.696,53.7706 202.935,62.0679 200.7471,57.7851 203.4811,54.2207" stroke="black" stroke-width="1" /><polyline fill="none" points="216.9831,55.7364 216.9842,55.731 216.9852,55.7257 216.9862,55.7203 216.5515,58.0109 216.1167,60.3015 215.682,62.5921 215.4811,63.6508 216.1468,64.1981 216.7012,64.3033 215.9935,64.169 215.5186,63.4529 215.6565,62.7265 215.665,62.6817 215.6735,62.6369 215.682,62.5921 214.4212,63.3475 213.0132,63.7782 211.5483,63.5002 210.3352,63.27 208.4794,62.2892 208.9493,59.8133 209.1955,58.5161 210.076,57.8285 211.2036,57.5896 211.7501,57.4661 213.4124,57.4497 214.5315,57.4352 215.671,57.4075 216.7369,57.0337 216.9831,55.7364 217.2325,54.4227 216.2019,52.5876 214.1808,52.204 212.2768,51.8426 211.2252,52.6024 210.506,53.3558" stroke="black" stroke-width="1" /><polyline fill="none" points="231.0396,54.273 227.8096,56.885 224.5796,59.497 221.3496,62.109 222.2952,58.8368 223.2409,55.5646 224.1866,52.2925 224.734,50.3981 226.7095,49.3091 228.6031,49.8564 230.5146,50.4088 231.587,52.3787 231.0396,54.273 230.0939,57.5452 229.1482,60.8173 228.2026,64.0895 227.6551,65.9838 225.6974,67.0772 223.8027,66.5297 221.8922,65.9776 220.8021,64.0033 221.3496,62.109" stroke="black" stroke-width="1" /><polyline fill="none" points="244.0779,55.3087 242.1685,54.5568 240.2591,53.805 238.3497,53.0531 237.3592,55.5685 236.3688,58.0838 235.3783,60.5992 236.4305,59.7053 237.5662,59.3963 238.954,59.9428 240.8685,60.6966 241.73,62.8603 241.033,64.6306 240.5346,65.8962 240.0363,67.1618 239.5379,68.4273 238.8093,70.2777 236.7919,71.0498 235.0525,70.3649 233.3297,69.6865 232.3962,67.7525 233.1248,65.9021" stroke="black" stroke-width="1" /><polyline fill="none" points="249.3586,60.2315 250.4279,58.1207 256.7765,61.3367 244.5776,74.3751" stroke="black" stroke-width="1" /><polyline fill="none" points="265.1005,74.0019 264.0486,75.6697 261.8637,76.1763 260.1958,75.1244 258.5135,74.0633 258.0155,71.8648 259.0674,70.1969 259.6101,69.3365 260.1528,68.476 260.6954,67.6155 261.7473,65.9477 263.9463,65.4491 265.6144,66.5012 267.2965,67.5621 267.7805,69.7526 266.7285,71.4205 264.9116,74.3015 263.0946,77.1824 261.2776,80.0634 260.226,81.7309 258.0408,82.2378 256.373,81.1859 254.9374,80.2805 254.3698,78.5439 254.8921,77.0081" stroke="black" stroke-width="1" /><polyline fill="none" points="275.4857,81.678 274.2823,83.24 272.0595,83.5397 270.4974,82.3362 268.9218,81.1223 268.632,78.8868 269.8354,77.3248 270.4563,76.5189 271.0771,75.7131 271.698,74.9072 272.9015,73.3452 275.1374,73.0547 276.6997,74.2584 278.2751,75.4721 278.5518,77.6983 277.3483,79.2604 275.2696,81.9585 273.1908,84.6567 271.112,87.3549 269.9088,88.9166 267.6858,89.2166 266.1238,88.0131 264.7793,86.9773 264.3768,85.1952 265.0406,83.7151" stroke="black" stroke-width="1" /><polyline fill="none" points="280.1017,95.2953 278.7458,96.75 276.5145,96.78 275.1221,95.4824 273.7298,94.1847 273.5906,91.9453 274.9465,90.4906 275.9751,89.387 277.0037,88.2833 278.0323,87.1797 279.3884,85.7247 281.6315,85.7067 283.0238,87.0044 284.4161,88.3021 284.5435,90.5294 283.1874,91.9845" stroke="black" stroke-width="1" /><polyline fill="none" points="291.3659,92.3519 292.8394,91.0417 295.0906,91.174 296.4008,92.6476 297.7227,94.1343 297.5878,96.4336 296.1142,97.7438 295.5368,98.2571 295.051,98.4831 294.6203,98.5679 290.2627,99.4289 285.905,100.2898 281.5474,101.1508 281.4409,101.2455 281.3343,101.3403 281.2277,101.4351 282.8,103.2034 284.3723,104.9718 285.9446,106.7401" stroke="black" stroke-width="1" /><polyline fill="none" points="300.7547,101.5777 302.6624,100.178 306.8724,105.9158 290.0981,112.0343" stroke="black" stroke-width="1" /><polyline fill="none" points="311.136,119.3125 306.9923,119.021 302.8486,118.7296 298.7049,118.4381 301.6277,116.6891 304.5504,114.9402 307.4732,113.1913 309.1653,112.1788 311.3529,112.729 312.365,114.4204 313.3867,116.1278 312.8281,118.3 311.136,119.3125 308.2133,121.0615 305.2905,122.8104 302.3677,124.5593 300.6757,125.5718 298.498,125.0369 297.4854,123.3445 296.4642,121.6381 297.0128,119.4506 298.7049,118.4381" stroke="black" stroke-width="1" /><polyline fill="none" points="320.2729,129.3005 316.1266,131.2802 311.9803,133.2599 307.8339,135.2395 306.039,136.0965 303.9451,135.2919 303.1249,133.5741 302.3122,131.872 303.0029,129.7375 304.7978,128.8805 306.1592,128.2305 307.5206,127.5805 308.882,126.9305 310.6769,126.0735 312.7703,126.8787 313.583,128.5808 314.4032,130.2987 313.7131,132.4325 311.9182,133.2895" stroke="black" stroke-width="1" /><polyline fill="none" points="319.6768,136.7748 321.3509,136.1606 323.3457,137.0173 324.0132,138.8367 324.6804,140.655 323.7992,142.5864 321.9001,143.2832 321.5998,143.3934 321.2995,143.5036 320.9991,143.6138 318.1019,144.6769 316.6921,142.3268 316.5738,142.0042 316.4597,141.6932 316.3455,141.3822 316.2314,141.0711 316.3455,141.3822 316.4597,141.6932 316.5738,142.0042 316.9224,142.9545 316.5397,145.3962 314.2868,146.2228 313.6267,146.465 312.9666,146.7072 312.3065,146.9494 310.44,147.6343 308.4036,146.6642 307.7185,144.7969 307.0274,142.9136 307.9592,140.8734 309.8258,140.1885" stroke="black" stroke-width="1" /><polyline fill="none" points="328.382,153.5727 328.1285,152.612 327.3381,151.9691 326.1114,152.2926 324.9234,152.606 323.7354,152.9193 322.5474,153.2327 322.7019,153.8183 322.8564,154.4039 323.0108,154.9895 322.7135,153.8622 322.4161,152.7348 322.1188,151.6075 322.2617,152.1492 322.4045,152.691 322.5474,153.2327 318.895,154.1961 315.2425,155.1595 311.59,156.1229" stroke="black" stroke-width="1" /><polyline fill="none" points="327.9575,169.0549 324.2087,167.2655 320.4599,165.4761 316.7111,163.6867 320.0714,163.1302 323.4317,162.5737 326.792,162.0173 328.7374,161.6951 330.5713,163.0086 330.8934,164.9532 331.2184,166.9162 329.9028,168.7327 327.9575,169.0549 324.5972,169.6114 321.2369,170.1678 317.8766,170.7243 315.9312,171.0465 314.101,169.7509 313.7787,167.8052 313.4538,165.8432 314.7657,164.0089 316.7111,163.6867" stroke="black" stroke-width="1" /><polyline fill="none" points="328.6666,175.1152 330.6336,174.9766 332.3361,176.4553 332.4747,178.4223 332.6145,180.4068 331.1043,182.1458 329.1373,182.2844 328.3667,182.3387 327.8439,182.2212 327.451,182.0255 323.4736,180.048 319.4962,178.0705 315.5188,176.093 315.3765,176.103 315.2343,176.1131 315.092,176.1231 315.2583,178.4835 315.4246,180.8439 315.5909,183.2044" stroke="black" stroke-width="1" /><polyline fill="none" points="329.3041,188.2994 331.2754,188.3456 332.8319,189.9773 332.7857,191.9486 332.7391,193.9374 331.0727,195.5274 329.1014,195.4812 328.3291,195.4631 327.8196,195.2971 327.4467,195.0655 323.672,192.7242 319.8972,190.383 316.1225,188.0418 315.9799,188.0384 315.8373,188.0351 315.6947,188.0317 315.6393,190.3974 315.5838,192.763 315.5283,195.1286" stroke="black" stroke-width="1" /><polyline fill="none" points="329.8821,201.4498 332.232,201.7265 331.3997,208.7943 314.9572,201.8333" stroke="black" stroke-width="1" /><polyline fill="none" points="325.3846,221.5014 322.5521,218.463 319.7196,215.4245 316.8871,212.3861 320.2176,213.0994 323.5482,213.8128 326.8787,214.5262 328.8068,214.9392 330.032,216.8332 329.6191,218.7606 329.2024,220.7062 327.3127,221.9144 325.3846,221.5014 322.0541,220.7881 318.7236,220.0747 315.3931,219.3613 313.4649,218.9483 312.2366,217.0723 312.6497,215.1438 313.0662,213.1993 314.959,211.9731 316.8871,212.3861" stroke="black" stroke-width="1" /><polyline fill="none" points="325.2678,234.5803 325.8836,232.6228 326.4994,230.6652 327.1152,228.7077 324.5365,227.8965 321.9578,227.0853 319.379,226.274 320.3446,227.2607 320.7327,228.372 320.2851,229.7947 319.6676,231.7575 317.5699,232.7689 315.755,232.198 314.4575,231.7898 313.16,231.3817 311.8625,230.9735 309.9656,230.3767 309.0536,228.4185 309.6146,226.6353 310.1702,224.8691 312.0338,223.802 313.9308,224.3988" stroke="black" stroke-width="1" /><polyline fill="none" points="313.9745,245.3649 312.1572,244.5996 311.3005,242.5268 312.0657,240.7095 312.8377,238.8764 314.9253,238.026 316.7426,238.7912 317.6802,239.186 318.6178,239.5808 319.5553,239.9756 321.3726,240.7409 322.2237,242.8288 321.4583,244.6465 320.6865,246.4792 318.6045,247.3146 316.7872,246.5493 313.648,245.2274 310.5089,243.9056 307.3698,242.5837 305.5529,241.8186 304.6959,239.7456 305.4611,237.9283 306.1198,236.3641 307.7404,235.5204 309.3408,235.7848" stroke="black" stroke-width="1" /><polyline fill="none" points="306.5975,255.5107 306.6023,255.5133 306.6071,255.5159 306.612,255.5185 304.5574,254.4164 302.5028,253.3143 300.4482,252.2123 299.4986,251.7029 298.7768,252.1737 298.51,252.671 298.8505,252.0362 299.6761,251.7981 300.3276,252.1476 300.3678,252.1692 300.408,252.1907 300.4482,252.2123 300.106,250.7829 300.1176,249.3106 300.8224,247.9966 301.4061,246.9085 302.8985,245.4325 305.1193,246.6237 306.2829,247.2479 306.6746,248.2941 306.5641,249.4414 306.5179,249.9998 306.0347,251.5904 305.7127,252.6623 305.3971,253.7576 305.4339,254.8866 306.5975,255.5107 307.7759,256.1428 309.8357,255.7104 310.8081,253.8975 311.7241,252.1898 311.3149,250.9587 310.812,250.0465" stroke="black" stroke-width="1" /><polyline fill="none" points="303.0276,260.3645 304.6846,261.4647 305.069,263.6744 304.0161,265.2603 302.9635,266.8456 300.7868,267.3352 299.1298,266.235 297.873,265.4005 296.6162,264.5661 295.3593,263.7316 293.7026,262.6316 293.3085,260.4352 294.3611,258.8499 295.414,257.2639 297.5911,256.7751 299.2478,257.8751 299.2509,257.8704 299.254,257.8657 299.2571,257.8611 303.0849,260.4025 306.9127,262.944 310.7405,265.4855" stroke="black" stroke-width="1" /><polyline fill="none" points="298.6988,281.9072 295.1258,279.0184 291.5528,276.1297 287.9798,273.241 286.4331,271.9905 286.257,269.7542 287.4538,268.2739 288.6396,266.8071 290.8634,266.5107 292.4102,267.7612 293.5833,268.7097 294.7565,269.6582 295.9296,270.6067 297.4763,271.8572 297.6517,274.0933 296.4659,275.56 295.269,277.0403 293.046,277.3369 291.4993,276.0865" stroke="black" stroke-width="1" /><polyline fill="none" points="286.5526,279.3055 287.9631,280.6833 287.9898,282.9387 286.6125,284.3488 285.2221,285.7721 282.979,285.7857 281.5684,284.4079 280.8409,283.6972 280.1133,282.9865 279.3858,282.2758 277.9752,280.8979 277.9368,278.6556 279.3271,277.2323 280.7045,275.8222 282.9594,275.7955 284.3699,277.1734 286.8065,279.5535 289.243,281.9335 291.6795,284.3136 293.0898,285.6912 293.1162,287.9463 291.7389,289.3564 290.5522,290.5712 288.7362,290.762 287.3441,289.9299" stroke="black" stroke-width="1" /><polyline fill="none" points="278.5725,289.3365 279.8589,290.8535 279.6147,293.0831 278.1629,294.3144 276.7115,295.5451 274.4845,295.4111 273.1981,293.8941 272.2224,292.7435 271.2466,291.5929 270.2709,290.4423 268.9847,288.9256 269.2159,286.7061 270.6672,285.4753 272.1191,284.2441 274.3463,284.3789 275.6325,285.8956 275.6367,285.892 275.641,285.8884 275.6453,285.8847 278.617,289.389 281.5887,292.8933 284.5604,296.3976" stroke="black" stroke-width="1" /><polyline fill="none" points="271.9575,301.905 273.0864,303.5217 272.6917,305.7419 271.075,306.8708 269.4439,308.0097 267.1762,307.6068 266.0473,305.9901 265.605,305.3567 265.4374,304.8477 265.4036,304.41 265.0582,299.9816 264.7128,295.5532 264.3674,291.1248 264.2857,291.0079 264.2041,290.8909 264.1224,290.774 262.1823,292.1287 260.2422,293.4834 258.3021,294.8381" stroke="black" stroke-width="1" /><polyline fill="none" points="257.4865,302.9588 258.459,304.6741 257.8585,306.8482 256.1438,307.8204 254.4129,308.8018 252.2542,308.1921 251.2816,306.4768 250.78,305.592 250.2784,304.7073 249.7767,303.8226 248.8042,302.1072 249.3898,299.9424 251.1207,298.961 252.8354,297.9888 255.009,298.5892 255.9816,300.3046 257.6615,303.2675 259.3414,306.2305 261.0214,309.1935 261.9937,310.9085 261.393,313.0822 259.6783,314.0544 258.201,314.8921 256.4034,314.5711 255.2971,313.3853" stroke="black" stroke-width="1" /><polyline fill="none" points="245.8115,320.7961 246.7179,320.3892 247.223,319.5043 246.7034,318.347 246.2002,317.2261 245.697,316.1053 245.1937,314.9845 244.6413,315.2325 244.0888,315.4806 243.5363,315.7286 244.5999,315.2511 245.6635,314.7736 246.7271,314.2961 246.2159,314.5255 245.7048,314.755 245.1937,314.9845 243.6465,311.5385 242.0994,308.0925 240.5522,304.6465" stroke="black" stroke-width="1" /><polyline fill="none" points="236.0436,321.1707 234.6158,325.2254 229.0892,308.9968" stroke="black" stroke-width="1" /><polyline fill="none" points="215.069,314.703 215.4416,313.6799 215.9808,312.6166 218.0491,312.1226 219.9007,311.6804 221.8432,312.8027 222.3172,314.7877 222.6637,316.2383 223.0101,317.6888 223.3566,319.1394 223.8186,321.074 222.5928,322.9523 220.7413,323.3945 218.8564,323.8447 216.881,322.7309 216.419,320.7963 216.2464,320.0739 216.0739,319.3514 215.9013,318.629 218.2083,318.078 220.5153,317.527 222.8223,316.976" stroke="black" stroke-width="1" /><polyline fill="none" points="204.6705,328.375 206.5473,324.6692 208.4241,320.9634 210.3009,317.2576 210.7784,320.63 211.256,324.0024 211.7335,327.3748 212.01,329.3272 210.6539,331.1299 208.7023,331.4062 206.7322,331.6852 204.947,330.3274 204.6705,328.375 204.193,325.0026 203.7154,321.6301 203.2379,318.2577 202.9614,316.3053 204.2996,314.506 206.2523,314.2294 208.2213,313.9506 210.0244,315.3052 210.3009,317.2576" stroke="black" stroke-width="1" /><polyline fill="none" points="191.1653,319.1556 191.0721,317.1691 192.6098,315.552 194.511,315.4628 196.4122,315.3736 198.1114,316.8388 198.2046,318.8253 198.2753,320.3322 198.346,321.8392 198.4167,323.3462 198.5099,325.333 196.9554,326.9502 195.0542,327.0394 193.153,327.1286 191.4706,325.6633 191.3774,323.6765" stroke="black" stroke-width="1" /><polyline fill="none" points="182.0934,324.584 180.4803,324.4067 178.6522,325.8216 178.5601,327.7827 178.5387,328.2391 178.5173,328.6956 178.4959,329.152 178.4091,331.0021 179.8468,332.5799 181.7141,332.6675 183.5639,332.7543 185.1439,331.2835 185.2291,329.4679 185.2505,329.0115 185.2719,328.5551 185.2933,328.0987 185.3802,326.2481 183.9432,324.6708 182.0934,324.584 180.0552,324.4883 178.5387,322.7524 178.6311,320.7834 178.6628,320.1098 178.6944,319.4361 178.726,318.7624 178.8184,316.7931 180.4891,315.2403 182.5273,315.336 184.5484,315.4308 186.0653,317.1331 185.9729,319.1025 185.9408,319.7873 185.9086,320.4722 185.8765,321.157 185.7973,322.8452 184.3018,324.5861" stroke="black" stroke-width="1" /><polyline fill="none" points="169.3784,323.3861 167.7891,323.0586 165.8364,324.296 165.5612,326.2399 165.4971,326.6923 165.4331,327.1447 165.369,327.5971 165.1093,329.431 166.3929,331.1365 168.2438,331.3986 170.0774,331.6582 171.7882,330.3418 172.043,328.5422 172.1071,328.0898 172.1711,327.6374 172.2352,327.185 172.4949,325.3507 171.212,323.6457 169.3784,323.3861 167.3581,323.1 166.0109,321.2297 166.2873,319.2781 166.3818,318.6103 166.4764,317.9425 166.571,317.2747 166.8474,315.3228 168.6562,313.9333 170.6765,314.2194 172.6797,314.503 174.0306,316.3399 173.7542,318.2919 173.6581,318.9708 173.562,319.6496 173.4658,320.3285 173.2289,322.0018 171.577,323.595" stroke="black" stroke-width="1" /><polyline fill="none" points="152.1452,328.168 154.1411,328.6447 156.1371,329.1214 158.133,329.5981 158.761,326.9688 159.389,324.3394 160.017,321.7101 159.1006,322.7426 158.0194,323.2078 156.5687,322.8613 154.5674,322.3833 153.411,320.3618 153.853,318.5113 154.169,317.1884 154.485,315.8654 154.8009,314.5424 155.2629,312.6082 157.1522,311.5609 158.9704,311.9951 160.7713,312.4253 161.9667,314.2093 161.5048,316.1436" stroke="black" stroke-width="1" /><polyline fill="none" points="139.2262,324.15 141.1687,324.8115 143.1113,325.473 145.0538,326.1345 145.9253,323.5756 146.7967,321.0165 147.6682,318.4576 146.6591,319.3998 145.5391,319.7616 144.1272,319.2808 142.1795,318.6175 141.2175,316.4966 141.8308,314.6956 142.2693,313.4081 142.7077,312.1205 143.1462,310.8329 143.7873,308.9505 145.7664,308.0847 147.5359,308.6873 149.2886,309.2842 150.3117,311.1723 149.6707,313.0548" stroke="black" stroke-width="1" /><polyline fill="none" points="133.8391,318.4808 133.1087,320.1077 131.1019,320.9359 129.334,320.1422 127.5671,319.3489 126.8012,317.3689 127.6297,315.5234 127.7608,315.2316 127.8918,314.9398 128.0228,314.6479 129.2869,311.8325 131.9531,312.4662 132.2666,312.607 132.5688,312.7427 132.8711,312.8784 133.1733,313.0141 132.8711,312.8784 132.5688,312.7427 132.2666,312.607 131.3432,312.1924 129.864,310.2124 130.8469,308.0232 131.1349,307.3818 131.4229,306.7404 131.7108,306.0989 132.5252,304.2851 134.6421,303.5063 136.4566,304.3209 138.2868,305.1426 139.0951,307.2348 138.2807,309.0486" stroke="black" stroke-width="1" /><polyline fill="none" points="121.9077,312.7912 121.0282,314.3425 118.9527,314.9792 117.2668,314.0234 115.582,313.0681 115.0048,311.0251 116.0026,309.2653 116.1603,308.9871 116.3181,308.7088 116.4759,308.4305 117.998,305.7458 120.5932,306.6264 120.8921,306.7959 121.1803,306.9593 121.4685,307.1227 121.7568,307.2861 121.4685,307.1227 121.1803,306.9593 120.8921,306.7959 120.0116,306.2967 118.7243,304.1868 119.9079,302.0993 120.2547,301.4877 120.6014,300.876 120.9482,300.2644 121.9289,298.5347 124.1094,297.9576 125.8397,298.9386 127.5848,299.9281 128.1937,302.0867 127.213,303.8163" stroke="black" stroke-width="1" /><polyline fill="none" points="104.9614,301.8481 108.861,300.4168 112.7606,298.9855 116.6601,297.5542 114.7101,300.3469 112.7601,303.1395 110.8101,305.9321 109.6812,307.5488 107.4602,307.9429 105.844,306.8145 104.2127,305.6753 103.8325,303.4648 104.9614,301.8481 106.9114,299.0555 108.8614,296.2629 110.8114,293.4702 111.9403,291.8535 114.146,291.4496 115.763,292.5787 117.3935,293.7172 117.789,295.9375 116.6601,297.5542" stroke="black" stroke-width="1" /><polyline fill="none" points="100.3715,292.3906 99.2018,291.2657 96.8901,291.2708 95.6203,292.7681 95.3248,293.1166 95.0293,293.4651 94.7338,293.8136 93.5358,295.2263 93.7118,297.3535 95.1375,298.5626 96.5499,299.7603 98.6992,299.5594 99.8747,298.1732 100.1702,297.8247 100.4658,297.4763 100.7613,297.1277 101.9595,295.7148 101.7838,293.5883 100.3715,292.3906 98.8152,291.0709 98.6734,288.7703 99.9483,287.2669 100.3845,286.7526 100.8207,286.2382 101.2569,285.7238 102.532,284.2202 104.8032,284.0098 106.3594,285.3295 107.9025,286.6381 108.0652,288.9124 106.7901,290.416 106.3467,290.939 105.9032,291.4619 105.4598,291.9848 104.3667,293.2738 102.1197,293.7401" stroke="black" stroke-width="1" /><polyline fill="none" points="95.4209,284.3969 94.0103,285.7748 91.755,285.7486 90.3776,284.3386 88.9872,282.9152 89.0262,280.6724 90.4367,279.2945 91.1643,278.5838 91.8918,277.8731 92.6194,277.1624 94.0299,275.7846 96.2725,275.7988 97.6629,277.2221 99.0403,278.6321 99.0141,280.887 97.6035,282.2648 95.167,284.6449 92.7305,287.025 90.2939,289.405 88.8836,290.7827 86.6285,290.7562 85.2512,289.3462 84.0645,288.1313 83.9163,286.3114 84.7808,284.9392" stroke="black" stroke-width="1" /><polyline fill="none" points="80.4429,280.5883 78.6029,282.076 74.1286,276.5418 90.5977,269.6438" stroke="black" stroke-width="1" /><polyline fill="none" points="74.992,263.8381 74.1807,262.4328 71.9585,261.7958 70.3229,262.8818 69.9422,263.1345 69.5616,263.3872 69.1809,263.64 67.6378,264.6645 67.2163,266.757 68.2503,268.3143 69.2746,269.8571 71.3951,270.2609 72.9093,269.2555 73.29,269.0028 73.6707,268.7501 74.0513,268.4973 75.5947,267.4726 76.0163,265.3809 74.992,263.8381 73.8634,262.1383 74.3659,259.8887 76.0081,258.7984 76.5699,258.4254 77.1318,258.0523 77.6936,257.6793 79.3361,256.5888 81.5763,257.0173 82.705,258.7172 83.8241,260.4027 83.349,262.6328 81.7066,263.7233 81.1354,264.1025 80.5642,264.4818 79.993,264.861 78.585,265.7958 76.2968,265.62" stroke="black" stroke-width="1" /><polyline fill="none" points="72.4554,254.7843 70.7178,255.7163 68.5584,255.065 67.6266,253.328 66.6861,251.5746 67.3462,249.4308 69.0839,248.4987 69.9801,248.0179 70.8764,247.5372 71.7727,247.0564 73.5103,246.1243 75.6608,246.7606 76.6013,248.514 77.5331,250.251 76.8819,252.4099 75.1442,253.342 72.1427,254.952 69.1412,256.562 66.1396,258.1721 64.4023,259.1039 62.2432,258.4525 61.3115,256.7154 60.5087,255.2189 60.8717,253.4293 62.0831,252.3511" stroke="black" stroke-width="1" /><polyline fill="none" points="60.1308,246.3549 58.3135,247.1202 56.2253,246.2693 55.46,244.452 54.688,242.6185 55.5569,240.4855 57.3742,239.7202 58.0862,239.4204 58.6189,239.3631 59.054,239.4217 63.4565,240.0115 67.859,240.6012 72.2616,241.1909 72.393,241.1356 72.5244,241.0802 72.6559,241.0249 71.7376,238.8441 70.8192,236.6633 69.9009,234.4825" stroke="black" stroke-width="1" /><polyline fill="none" points="58.5377,229.3619 58.1485,227.7865 56.1904,226.5576 54.3177,227.1468 53.8818,227.2839 53.4459,227.421 53.0101,227.5581 51.2432,228.1139 50.2573,230.0071 50.8182,231.7903 51.3739,233.5568 53.299,234.5335 55.0328,233.988 55.4687,233.8509 55.9046,233.7138 56.3404,233.5767 58.1076,233.0208 59.0934,231.1284 58.5377,229.3619 57.9254,227.4155 59.0327,225.3939 60.913,224.8024 61.5563,224.6 62.1997,224.3976 62.843,224.1952 64.7237,223.6036 66.7569,224.6372 67.3692,226.5836 67.9764,228.5137 66.9008,230.5242 65.0201,231.1158 64.3661,231.3215 63.7121,231.5273 63.0581,231.733 61.4459,232.2402 59.2965,231.4359" stroke="black" stroke-width="1" /><polyline fill="none" points="46.5797,215.4684 51.0724,214.5061 55.5652,213.5438 60.058,212.5815 62.0029,212.1649 63.8526,213.4339 64.2513,215.2953 64.6463,217.1396 63.4788,219.0553 61.5339,219.4719 60.0587,219.7878 58.5835,220.1038 57.1084,220.4198 55.1635,220.8363 53.3144,219.5668 52.9194,217.7225 52.5207,215.8611 53.6876,213.946 55.6325,213.5294" stroke="black" stroke-width="1" /><polyline fill="none" points="48.8142,207.2026 45.1485,204.9572 62.1746,202.9522" stroke="black" stroke-width="1" /><polyline fill="none" points="46.6988,195.5006 44.3333,195.5561 44.1665,188.4414 61.4225,193.0283" stroke="black" stroke-width="1" /><polyline fill="none" points="54.9865,182.6615 53.0195,182.5229 51.5405,180.8201 51.679,178.8538 51.8188,176.869 53.5208,175.4078 55.4877,175.5464 56.5023,175.6179 57.5168,175.6893 58.5314,175.7608 60.4984,175.8994 61.9779,177.5847 61.8381,179.5695 61.6996,181.5358 59.9971,183.0145 58.0301,182.8759 54.6325,182.6366 51.2348,182.3972 47.8372,182.1578 45.8705,182.0193 44.3919,180.3165 44.5304,178.3502 44.6497,176.6561 45.9114,175.3361 47.5112,175.0704" stroke="black" stroke-width="1" /><polyline fill="none" points="54.0992,166.2216 54.4639,164.6403 53.2726,162.6592 51.3357,162.3385 50.8849,162.2638 50.4341,162.1892 49.9834,162.1145 48.156,161.8119 46.421,163.0552 46.1156,164.8994 45.813,166.7264 47.0889,168.4676 48.8821,168.7646 49.3329,168.8392 49.7836,168.9139 50.2344,168.9885 52.0621,169.2912 53.7967,168.0485 54.0992,166.2216 54.4326,164.2086 56.334,162.9056 58.2786,163.2276 58.944,163.3378 59.6093,163.448 60.2747,163.5582 62.2197,163.8802 63.5664,165.7211 63.233,167.7341 62.9025,169.7303 61.0344,171.0377 59.0894,170.7156 58.413,170.6036 57.7366,170.4915 57.0602,170.3795 55.3928,170.1034 53.8389,168.4146" stroke="black" stroke-width="1" /><polyline fill="none" points="50.33,155.8557 48.0421,155.2522 49.8572,148.3709 65.1613,157.5684" stroke="black" stroke-width="1" /><polyline fill="none" points="60.498,137.5789 62.3492,138.2581 63.3021,140.2885 62.6229,142.1397 61.9377,144.007 59.8922,144.9543 58.041,144.2751 57.086,143.9247 56.131,143.5742 55.1759,143.2238 53.3248,142.5446 52.3767,140.4988 53.0561,138.6473 53.7411,136.7804 55.7818,135.8484 57.6329,136.5276 60.8306,137.7009 64.0282,138.8742 67.2258,140.0475 69.0766,140.7266 70.0299,142.7571 69.3506,144.6083 68.766,146.2016 67.1868,147.1203 65.5757,146.9313" stroke="black" stroke-width="1" /><polyline fill="none" points="59.6169,123.2479 63.7633,125.2276 67.9096,127.2073 72.0559,129.187 73.8508,130.044 74.5416,132.1781 73.7214,133.896 72.9087,135.5981 70.8146,136.403 69.0197,135.546 67.6583,134.896 66.2969,134.246 64.9355,133.596 63.1406,132.739 62.4506,130.6048 63.2633,128.9027 64.0835,127.1849 66.1768,126.38 67.9717,127.2369" stroke="black" stroke-width="1" /><polyline fill="none" points="79.6554,119.3193 80.127,120.3007 80.5108,121.4294 79.4189,123.2542 78.4415,124.8877 76.2812,125.493 74.53,124.4451 73.2503,123.6793 71.9705,122.9136 70.6908,122.1478 68.984,121.1265 68.4969,118.9371 69.4744,117.3036 70.4695,115.6406 72.6465,115.0058 74.3533,116.0271 74.9906,116.4085 75.628,116.7899 76.2654,117.1713 75.0475,119.2066 73.8296,121.2419 72.6117,123.2772" stroke="black" stroke-width="1" /><polyline fill="none" points="72.9401,108.0528 71.3503,106.8863 71.0082,104.6574 72.1747,103.0676 73.3516,101.4637 75.6281,101.1141 77.2179,102.2806 77.8408,102.7376 78.1635,103.1653 78.3366,103.5687 80.0911,107.6494 81.8457,111.73 83.6002,115.8107 83.7152,115.895 83.8302,115.9794 83.9452,116.0638 85.345,114.156 86.7448,112.2482 88.1446,110.3403" stroke="black" stroke-width="1" /><polyline fill="none" points="89.2003,95.8878 89.1962,95.8841 89.1921,95.8805 89.188,95.8769 90.9304,97.4261 92.6727,98.9753 94.4151,100.5245 95.2204,101.2405 96.0319,100.9503 96.4068,100.5286 95.9281,101.0669 95.0698,101.1067 94.5173,100.6154 94.4833,100.5851 94.4492,100.5548 94.4151,100.5245 94.4158,101.9943 94.0626,103.4236 93.0718,104.538 92.2513,105.4607 90.4568,106.5496 88.5735,104.875 87.5868,103.9977 87.4489,102.8891 87.8228,101.7988 87.9975,101.2664 88.8369,99.8316 89.3992,98.8638 89.9605,97.8718 90.187,96.7652 89.2003,95.8878 88.201,94.9993 86.0971,94.9413 84.7301,96.4787 83.4424,97.9269 83.5544,99.2194 83.8317,100.2234" stroke="black" stroke-width="1" /><polyline fill="none" points="92.4858,80.5651 95.6185,83.9262 98.7512,87.2874 101.8839,90.6485 103.24,92.1035 103.1008,94.3424 101.7083,95.6403 100.3285,96.9263 98.0851,96.908 96.729,95.453 95.7004,94.3494 94.6718,93.2458 93.6433,92.1422 92.2871,90.6872 92.427,88.4486 93.8068,87.1626 95.1994,85.8647 97.442,85.8827 98.7981,87.3377" stroke="black" stroke-width="1" /><polyline fill="none" points="104.1473,84.844 102.9439,83.282 103.2337,81.0452 104.7951,79.8421 106.3713,78.6278 108.5942,78.9288 109.7976,80.4908 110.4183,81.2965 111.0391,82.1021 111.6598,82.9078 112.8632,84.4699 112.5869,86.6954 111.0107,87.9098 109.4492,89.1128 107.2129,88.8231 106.0095,87.261 103.9307,84.5629 101.852,81.8647 99.7732,79.1665 98.57,77.6048 98.86,75.3683 100.4214,74.1653 101.7667,73.1288 103.5915,73.1945 104.8532,74.2135" stroke="black" stroke-width="1" /><polyline fill="none" points="115.8435,73.2571 117.2675,72.479 117.9564,70.2723 116.9091,68.6117 116.6653,68.2252 116.4216,67.8387 116.1778,67.4522 115.1898,65.8856 113.1077,65.4151 111.5266,66.4123 109.9602,67.4001 109.5068,69.5106 110.4764,71.048 110.7202,71.4345 110.9639,71.8209 111.2076,72.2074 112.1959,73.7744 114.2771,74.245 115.8435,73.2571 117.5693,72.1686 119.8065,72.7237 120.858,74.391 121.2178,74.9614 121.5775,75.5319 121.9373,76.1024 122.989,77.7699 122.5081,79.9995 120.7823,81.088 119.0709,82.1673 116.8526,81.64 115.8009,79.9725 115.4351,79.3926 115.0694,78.8126 114.7037,78.2327 113.8021,76.8032 114.0316,74.5198" stroke="black" stroke-width="1" /><polyline fill="none" points="121.0855,63.5525 120.0163,61.4417 126.3648,58.2257 129.6605,75.7742" stroke="black" stroke-width="1" /><polyline fill="none" points="138.7073,52.8926 140.3907,57.1678 142.0741,61.443 143.7575,65.7182 144.4863,67.5689 143.5365,69.6011 141.7652,70.2985 140.0103,70.9896 137.9296,70.1506 137.2008,68.2999 136.6481,66.8962 136.0954,65.4925 135.5427,64.0888 134.8139,62.2381 135.7643,60.2064 137.5193,59.5154 139.2905,58.8179 141.3706,59.6563 142.0993,61.507" stroke="black" stroke-width="1" /><polyline fill="none" points="146.1213,54.0125 145.6262,52.2993 146.6211,50.3697 148.4828,49.8317 150.3435,49.2939 152.2083,50.3087 152.7699,52.252 152.8587,52.5594 152.9475,52.8667 153.0363,53.174 153.8932,56.1388 151.4498,57.38 151.1198,57.4753 150.8015,57.5673 150.4832,57.6593 150.1649,57.7513 150.4832,57.6593 150.8015,57.5673 151.1198,57.4753 152.0921,57.1943 154.5009,57.7477 155.1672,60.0531 155.3624,60.7286 155.5576,61.404 155.7528,62.0795 156.3048,63.9896 155.194,65.9528 153.2832,66.505 151.3559,67.062 149.3863,65.9891 148.8343,64.079" stroke="black" stroke-width="1" /><polyline fill="none" points="167.8756,61.1903 167.4555,62.1949 166.8671,63.2317 164.7779,63.6282 162.9076,63.9832 161.0199,62.771 160.6393,60.766 160.3613,59.3008 160.0832,57.8356 159.8051,56.3704 159.4342,54.4163 160.7467,52.5975 162.617,52.2425 164.5209,51.8812 166.4419,53.0863 166.8128,55.0404 166.9513,55.7702 167.0898,56.4999 167.2283,57.2296 164.898,57.6719 162.5677,58.1142 160.2374,58.5564" stroke="black" stroke-width="1" /><polyline fill="none" points="270.184,183.8127 156.5688,130.1462 108.8569,140.3048 140.8637,108.5745 188.1635,280.8196 96.1804,188.1635 189.0084,152.2515 268.4255,140.8637 189.0084,152.2515 126.744,171.7336" stroke="black" stroke-width="1" /><polyline fill="none" points="132.0127,188.5722 121.4754,154.8951" stroke="black" stroke-width="1" /><polyline fill="none" points="292.582,188.8365 292.4372,186.9964 292.0063,185.2017 291.3,183.4965 290.3356,181.9227 289.1368,180.5192 287.7333,179.3205 286.1596,178.3561 284.4543,177.6498 282.6596,177.2189 280.8196,177.0741 278.9795,177.2189 277.1848,177.6498 275.4796,178.3561 273.9058,179.3205 272.5023,180.5192 271.3036,181.9227 270.3392,183.4965 269.6329,185.2017 269.202,186.9964 269.0572,188.8365 269.202,190.6765 269.6329,192.4713 270.3392,194.1765 271.3036,195.7503 272.5023,197.1538 273.9058,198.3525 275.4796,199.3169 277.1848,200.0232 278.9795,200.4541 280.8196,200.5989 282.6596,200.4541 284.4543,200.0232 286.1596,199.3169 287.7333,198.3525 289.1368,197.1538 290.3356,195.7503 291.3,194.1765 292.0063,192.4713 292.4372,190.6765 292.582,188.8365" stroke="black" stroke-width="1" /><polyline fill="none" points="188.5,69.0664 199.6839,69.5912 210.7696,71.161 221.6595,73.7619 232.2581,77.3712 242.4721,81.9571 252.2118,87.4792 261.3915,93.8892 269.9308,101.1306 277.7544,109.1398 284.7936,117.8464 290.9866,127.1739 296.2789,137.0404 300.6241,147.3591 303.9839,158.0393 306.3289,168.9873 307.6383,180.1067 307.9008,191.2998 307.114,202.4684 305.2847,213.5142 302.4292,224.3402 298.5725,234.8512 293.7484,244.9549 287.9994,254.5625 281.376,263.5894 273.9365,271.9565 265.7461,279.5902 256.8768,286.4234 247.4067,292.3961 237.4188,297.4556 227.0011,301.5577 216.2451,304.6663 205.2452,306.7539 194.0981,307.8023 182.9019,307.8023 171.7548,306.7539 160.7549,304.6663 149.9989,301.5577 139.5811,297.4556 129.5933,292.3961 120.1232,286.4234 111.2539,279.5902 103.0635,271.9565 95.6239,263.5894 89.0006,254.5625 83.2516,244.9549 78.4275,234.8512 74.5708,224.3402 71.7153,213.5142 69.8861,202.4684 69.0992,191.2998 69.3617,180.1067 70.6712,168.9872 73.0161,158.0393 76.3759,147.3591 80.7211,137.0404 86.0134,127.174 92.2064,117.8464 99.2457,109.1398 107.0692,101.1306 115.6085,93.8892 124.7882,87.4792 134.5279,81.957 144.7419,77.3712 155.3405,73.7619 166.2304,71.161 177.3161,69.5912 188.5,69.0664" stroke="black" stroke-width="1" />

    </g>
  </g>
  <WCB
     pausedposy="0"
     pausedposx="0"
     lastknownposy="0"
     lastknownposx="0"
     lastpathnc="0"
     lastpath="0"
     node="0"
     layer="0" />
</svg>
