<?xml version="1.0" encoding="UTF-8" standalone="no"?>
<!-- Created with Inkscape (http://www.inkscape.org/) -->

<svg
   xmlns:dc="http://purl.org/dc/elements/1.1/"
   xmlns:cc="http://creativecommons.org/ns#"
   xmlns:rdf="http://www.w3.org/1999/02/22-rdf-syntax-ns#"
   xmlns:svg="http://www.w3.org/2000/svg"
   xmlns="http://www.w3.org/2000/svg"
   xmlns:sodipodi="http://sodipodi.sourceforge.net/DTD/sodipodi-0.dtd"
   xmlns:inkscape="http://www.inkscape.org/namespaces/inkscape"
   width="100mm"
   height="100mm"
   viewBox="0 0 100 100"
   version="1.1"
   id="svg19124"
   inkscape:version="0.92.3 (2405546, 2018-03-11)"
   sodipodi:docname="inkscape_template_TMP.svg"
   shape-rendering="crispEdges">
  <sodipodi:namedview
     pagecolor="#ffffff"
     bordercolor="#666666"
     borderopacity="1"
     objecttolerance="10"
     gridtolerance="10"
     guidetolerance="10"
     inkscape:pageopacity="0"
     inkscape:pageshadow="2"
     inkscape:window-width="1568"
     inkscape:window-height="1550"
     id="namedview24021"
     showgrid="false"
     inkscape:zoom="0.62441667"
     inkscape:cx="712.66515"
     inkscape:cy="409.98265"
     inkscape:window-x="0"
     inkscape:window-y="0"
     inkscape:window-maximized="0"
     inkscape:current-layer="layer1" />
  <defs
     id="defs19118" />
  <metadata
     id="metadata19121">
    <rdf:RDF>
      <cc:Work
         rdf:about="">
        <dc:format>image/svg+xml</dc:format>
        <dc:type
           rdf:resource="http://purl.org/dc/dcmitype/StillImage" />
        <dc:title />
      </cc:Work>
    </rdf:RDF>
  </metadata>
  <g
     transform="translate(0,-197)"
     id="layer1"
     inkscape:groupmode="layer"
     inkscape:label="Layer 1">
    <g
       id="g24447"
       transform="matrix(0.26458333,0,0,0.26458333,0.10666333,197.9735)">

<polyline fill="none" points="192.1004,47.7394 189.7225,51.1455 187.3447,54.5516 184.9669,57.9577 184.9669,54.5516 184.9669,51.1455 184.9669,47.7394 184.9669,45.7676 186.5623,44.1729 188.5334,44.1729 190.5231,44.1729 192.1004,45.7676 192.1004,47.7394 192.1004,51.1455 192.1004,54.5516 192.1004,57.9577 192.1004,59.9295 190.5231,61.5235 188.5509,61.5235 186.5623,61.5235 184.9669,59.9295 184.9669,57.9577" stroke="black" stroke-width="1" /><polyline fill="none" points="197.8298,61.5877 200.7471,57.7851 198.696,53.7706 202.935,62.0679 200.7471,57.7851 203.4811,54.2207" stroke="black" stroke-width="1" /><polyline fill="none" points="216.9831,55.7364 216.9842,55.731 216.9852,55.7257 216.9862,55.7203 216.5515,58.0109 216.1167,60.3015 215.682,62.5921 215.4811,63.6508 216.1468,64.1981 216.7012,64.3033 215.9935,64.169 215.5186,63.4529 215.6565,62.7265 215.665,62.6817 215.6735,62.6369 215.682,62.5921 214.4212,63.3475 213.0132,63.7782 211.5483,63.5002 210.3352,63.27 208.4794,62.2892 208.9493,59.8133 209.1955,58.5161 210.076,57.8285 211.2036,57.5896 211.7501,57.4661 213.4124,57.4497 214.5315,57.4352 215.671,57.4075 216.7369,57.0337 216.9831,55.7364 217.2325,54.4227 216.2019,52.5876 214.1808,52.204 212.2768,51.8426 211.2252,52.6024 210.506,53.3558" stroke="black" stroke-width="1" /><polyline fill="none" points="225.4743,52.5043 228.9663,49.9973 224.2065,66.4671" stroke="black" stroke-width="1" /><polyline fill="none" points="238.9685,69.8153 238.0773,70.4409 237.0264,71.004 235.0478,70.2249 233.2765,69.5275 232.3264,67.4951 233.0741,65.5963 233.6205,64.2086 234.1669,62.8209 234.7133,61.4333 235.4421,59.5826 237.5225,58.7443 239.2938,59.4418 241.0969,60.1518 242.0789,62.1959 241.3501,64.0466 241.078,64.7377 240.8058,65.4288 240.5337,66.1199 238.3268,65.2509 236.1198,64.3819 233.9129,63.5129" stroke="black" stroke-width="1" /><polyline fill="none" points="250.0833,66.9788 251.4822,67.8012 253.7295,67.2593 254.6167,65.5079 254.8232,65.1003 255.0297,64.6927 255.2361,64.2851 256.0732,62.6328 255.4078,60.6046 253.7402,59.7598 252.0883,58.923 250.0444,59.6176 249.2231,61.239 249.0166,61.6466 248.8101,62.0542 248.6036,62.4618 247.7664,64.1144 248.4313,66.142 250.0833,66.9788 251.9035,67.9009 252.5759,70.1056 251.6851,71.864 251.3803,72.4657 251.0755,73.0673 250.7708,73.6689 249.8799,75.4277 247.7197,76.1598 245.8995,75.2378 244.0946,74.3234 243.408,72.1492 244.2989,70.3904 244.6087,69.7788 244.9186,69.1672 245.2284,68.5556 245.9921,67.048 248.0694,66.0724" stroke="black" stroke-width="1" /><polyline fill="none" points="260.2133,81.3071 259.2211,81.7555 258.0837,82.1128 256.285,80.9785 254.6749,79.963 254.1204,77.7891 255.209,76.063 256.0046,74.8015 256.8002,73.5401 257.5958,72.2786 258.6568,70.5963 260.857,70.1606 262.4672,71.1761 264.1063,72.2099 264.6899,74.4012 263.6288,76.0836 263.2326,76.7119 262.8364,77.3401 262.4402,77.9684 260.434,76.7031 258.4278,75.4378 256.4216,74.1725" stroke="black" stroke-width="1" /><polyline fill="none" points="268.1982,89.394 270.8246,85.985 265.9885,82.2591 278.3081,75.5412" stroke="black" stroke-width="1" /><polyline fill="none" points="278.1101,87.2523 279.4662,85.7973 281.709,85.779 283.1016,87.0769 284.4937,88.3744 284.6211,90.6017 283.265,92.0568 282.2364,93.1604 281.2078,94.264 280.1792,95.3676 278.8233,96.8223 276.592,96.8523 275.1999,95.5549 273.8073,94.257 273.6807,92.0293 275.0366,90.5746 275.0325,90.5707 275.0284,90.5669 275.0243,90.5631 278.157,87.2019 281.2897,83.8408 284.4224,80.4796" stroke="black" stroke-width="1" /><polyline fill="none" points="292.3208,93.1944 296.6118,92.9367 283.8,104.3283" stroke="black" stroke-width="1" /><polyline fill="none" points="301.724,110.0284 300.1342,111.1949 297.9156,110.8656 296.7491,109.2758 295.5724,107.6722 295.9146,105.4441 297.5044,104.2776 298.3246,103.6758 299.1448,103.074 299.965,102.4722 301.5548,101.3057 303.7835,101.6474 304.9502,103.2375 306.1266,104.8409 305.7744,107.0565 304.1846,108.223 301.4384,110.2379 298.6923,112.2528 295.9461,114.2678 294.3566,115.4341 292.1377,115.105 290.9712,113.5152 289.9672,112.1468 290.0753,110.323 291.1239,109.0854" stroke="black" stroke-width="1" /><polyline fill="none" points="313.8147,116.9106 312.761,115.1497 311.7073,113.3887 310.6536,111.6278 308.3339,113.0159 306.0142,114.404 303.6945,115.7921 305.0734,115.7261 306.1617,116.1745 306.9276,117.4544 307.9841,119.22 307.346,121.4598 305.7134,122.4367 304.5463,123.1351 303.3791,123.8335 302.2119,124.5319 300.5055,125.553 298.4361,124.9333 297.4762,123.3292 296.5255,121.7404 296.9664,119.6386 298.6729,118.6175" stroke="black" stroke-width="1" /><polyline fill="none" points="307.5239,127.7279 309.3033,126.8783 311.4298,127.6301 312.2791,129.4089 313.1364,131.2044 312.3766,133.315 310.5972,134.1646 309.6793,134.6028 308.7615,135.041 307.8437,135.4792 306.0643,136.3288 303.946,135.5925 303.0887,133.7969 302.2394,132.0181 302.991,129.8921 304.7705,129.0425 307.8442,127.575 310.9178,126.1074 313.9916,124.6398 315.7707,123.7904 317.8969,124.5424 318.7462,126.3212 319.4779,127.8537 319.0314,129.6243 317.7708,130.6445" stroke="black" stroke-width="1" /><polyline fill="none" points="320.0197,137.8593 324.1068,139.1917 308.0122,145.0971" stroke="black" stroke-width="1" /><polyline fill="none" points="323.7127,149.2144 325.6194,148.7115 327.5677,149.8469 328.0706,151.7535 328.578,153.6771 327.4186,155.6672 325.5119,156.1701 324.765,156.3672 324.2294,156.3492 323.8069,156.2302 319.5305,155.029 315.2542,153.8279 310.9778,152.6267 310.8399,152.6631 310.702,152.6994 310.5641,152.7358 311.1676,155.0238 311.7711,157.3118 312.3746,159.5999" stroke="black" stroke-width="1" /><polyline fill="none" points="322.9077,166.2631 323.0722,167.8775 324.8385,169.3688 326.7755,169.048 327.2262,168.9734 327.677,168.8987 328.1278,168.8241 329.9551,168.5215 331.1967,166.7852 330.8913,164.941 330.5888,163.114 328.8196,161.8771 327.0265,162.174 326.5757,162.2487 326.1249,162.3233 325.6742,162.398 323.8465,162.7007 322.6051,164.4361 322.9077,166.2631 323.241,168.2761 321.8612,170.1225 319.9166,170.4445 319.2512,170.5547 318.5858,170.6649 317.9204,170.7751 315.9754,171.0972 314.1072,169.7887 313.7739,167.7757 313.4433,165.7796 314.7902,163.9398 316.7352,163.6177 317.4116,163.5056 318.088,163.3936 318.7644,163.2816 320.4317,163.0055 322.4471,164.1032" stroke="black" stroke-width="1" /><polyline fill="none" points="332.4413,180.2677 332.3715,179.2765 331.7148,178.4975 330.4493,178.5867 329.2237,178.673 327.9981,178.7594 326.7726,178.8457 326.8151,179.4498 326.8577,180.0539 326.9002,180.6581 326.8183,179.4951 326.7364,178.3321 326.6544,177.1691 326.6938,177.728 326.7332,178.2868 326.7726,178.8457 323.0045,179.1112 319.2365,179.3766 315.4684,179.6421" stroke="black" stroke-width="1" /><polyline fill="none" points="317.3057,194.9968 316.4114,194.3756 315.5208,193.5831 315.5706,191.4571 315.6153,189.554 317.1959,187.962 319.2361,188.0099 320.7271,188.0448 322.2181,188.0798 323.709,188.1147 325.6975,188.1614 327.201,189.8257 327.1564,191.7288 327.111,193.6662 325.5303,195.2922 323.5418,195.2455 322.7993,195.2281 322.0567,195.2107 321.3141,195.1933 321.3698,192.8221 321.4254,190.4509 321.4809,188.0796" stroke="black" stroke-width="1" /><polyline fill="none" points="317.8355,207.2167 315.8605,206.9841 314.5163,205.2029 314.7389,203.3126 314.9615,201.4224 316.6847,199.9854 318.6597,200.218 320.158,200.3945 321.6562,200.5709 323.1545,200.7474 325.1298,200.98 326.4713,202.7778 326.2487,204.6681 326.0261,206.5583 324.3056,207.9787 322.3303,207.746" stroke="black" stroke-width="1" /><polyline fill="none" points="326.8722,214.5573 328.8003,214.9703 330.0253,216.8635 329.6123,218.7916 329.1956,220.7369 327.262,221.9883 325.3339,221.5753 324.5785,221.4135 324.1089,221.1555 323.7857,220.8584 320.5137,217.8543 317.2418,214.8503 313.9698,211.8463 313.8303,211.8164 313.6909,211.7866 313.5514,211.7567 313.0558,214.0705 312.5602,216.3843 312.0646,218.6981" stroke="black" stroke-width="1" /><polyline fill="none" points="318.4774,225.7417 320.3747,226.3386 321.3576,228.3547 320.7863,230.1706 320.2153,231.9858 318.2601,233.0605 316.3628,232.4636 314.9237,232.0109 313.4846,231.5582 312.0455,231.1055 310.1485,230.5087 309.1601,228.508 309.7311,226.6928 310.3023,224.8769 312.2581,223.8028 314.1551,224.3996 314.1567,224.3942 314.1584,224.3889 314.1601,224.3835 318.543,225.7623 322.926,227.1411 327.3089,228.5199" stroke="black" stroke-width="1" /><polyline fill="none" points="316.8306,246.4462 314.6143,242.9329 312.398,239.4196 310.1817,235.9062 313.3208,237.2281 316.4599,238.55 319.599,239.8718 321.4163,240.6371 322.2669,242.7264 321.5019,244.543 320.7297,246.3768 318.6479,247.2115 316.8306,246.4462 313.6915,245.1243 310.5524,243.8025 307.4133,242.4806 305.5959,241.7153 304.739,239.6431 305.5044,237.8255 306.2762,235.9927 308.3644,235.141 310.1817,235.9062" stroke="black" stroke-width="1" /><polyline fill="none" points="314.6417,258.3222 315.1114,257.4466 314.9714,256.4374 313.8535,255.8377 312.7708,255.257 311.6881,254.6762 310.6054,254.0955 310.3192,254.6292 310.0329,255.1628 309.7466,255.6965 310.2977,254.6691 310.8488,253.6417 311.3999,252.6143 311.1351,253.108 310.8702,253.6017 310.6054,254.0955 307.2767,252.3099 303.9479,250.5244 300.6192,248.7389" stroke="black" stroke-width="1" /><polyline fill="none" points="303.0276,260.3645 304.6846,261.4647 305.069,263.6744 304.0161,265.2603 302.9635,266.8456 300.7868,267.3352 299.1298,266.235 297.873,265.4005 296.6162,264.5661 295.3593,263.7316 293.7026,262.6316 293.3085,260.4352 294.3611,258.8499 295.414,257.2639 297.5911,256.7751 299.2478,257.8751 299.2509,257.8704 299.254,257.8657 299.2571,257.8611 303.0849,260.4025 306.9127,262.944 310.7405,265.4855" stroke="black" stroke-width="1" /><polyline fill="none" points="293.2535,277.966 291.7201,276.7263 291.4726,274.4971 292.7123,272.9637 293.9629,271.417 296.2046,271.1796 297.7379,272.4193 298.5291,273.0589 299.3201,273.6985 300.1112,274.3381 301.6446,275.5778 301.8825,277.8199 300.6426,279.3536 299.3923,280.9001 297.1602,281.1245 295.6268,279.8848 292.9781,277.7433 290.3294,275.6019 287.6807,273.4604 286.1476,272.2209 285.8998,269.9915 287.1396,268.4581 288.2066,267.1383 289.9977,266.7777 291.4618,267.476" stroke="black" stroke-width="1" /><polyline fill="none" points="289.6826,291.4122 291.1165,289.9442 292.5504,288.4763 293.9844,287.0083 292.0506,285.1193 290.1168,283.2303 288.183,281.3413 288.5984,282.6579 288.4424,283.8245 287.4002,284.8914 285.9624,286.3633 283.634,286.3176 282.273,284.9882 281.3,284.0378 280.327,283.0873 279.354,282.1368 277.9315,280.7473 278.0029,278.5883 279.3091,277.251 280.6029,275.9266 282.7477,275.8168 284.1702,277.2064" stroke="black" stroke-width="1" /><polyline fill="none" points="280.289,299.683 281.0468,299.0403 281.2864,298.05 280.4659,297.0824 279.6713,296.1454 278.8766,295.2083 278.082,294.2713 277.6201,294.663 277.1582,295.0547 276.6963,295.4464 277.5855,294.6923 278.4747,293.9383 279.3639,293.1842 278.9366,293.5466 278.5093,293.9089 278.082,294.2713 275.6389,291.3903 273.1958,288.5094 270.7527,285.6284" stroke="black" stroke-width="1" /><polyline fill="none" points="267.9014,295.9959 269.0303,297.6126 268.636,299.8334 267.0199,300.9619 265.3885,302.101 263.1822,301.6962 262.0533,300.0794 261.471,299.2455 260.8887,298.4117 260.3065,297.5778 259.1776,295.9611 259.5579,293.7509 261.1893,292.6118 262.8054,291.4833 265.0257,291.8775 266.1546,293.4942 268.1046,296.2869 270.0546,299.0795 272.0046,301.8721 273.1333,303.4886 272.7388,305.709 271.1227,306.8375 269.7302,307.8098 267.9106,307.6586 266.6981,306.5816" stroke="black" stroke-width="1" /><polyline fill="none" points="258.1909,304.3631 259.1719,306.0933 258.5162,308.2383 256.8603,309.1772 255.2049,310.1158 253.0419,309.5688 252.0609,307.8386 251.3168,306.5262 250.5728,305.2139 249.8287,303.9015 248.8479,302.1716 249.4888,300.0341 251.1442,299.0956 252.8002,298.1566 254.9632,298.7043 255.944,300.4343 255.9489,300.4315 255.9538,300.4287 255.9586,300.426 258.2248,304.4229 260.491,308.4199 262.7572,312.4168" stroke="black" stroke-width="1" /><polyline fill="none" points="238.1627,305.5787 239.9254,309.5045 245.4946,307.004 245.5913,321.0359" stroke="black" stroke-width="1" /><polyline fill="none" points="236.0436,321.1707 234.6158,325.2254 229.0892,308.9968" stroke="black" stroke-width="1" /><polyline fill="none" points="215.4806,316.3672 215.0186,314.433 216.2278,312.5575 218.0791,312.1154 219.9303,311.6732 221.8729,312.7959 222.3348,314.7302 222.6853,316.1975 223.0358,317.6649 223.3862,319.1322 223.8483,321.0668 222.6225,322.9455 220.7713,323.3876 218.9201,323.8298 216.994,322.7039 216.532,320.7693" stroke="black" stroke-width="1" /><polyline fill="none" points="203.3884,318.3319 203.1095,316.3629 204.4891,314.6089 206.3736,314.342 208.258,314.0752 210.087,315.3748 210.3658,317.3438 210.5773,318.8376 210.7888,320.3313 211.0003,321.825 211.2792,323.7944 209.8829,325.55 207.9984,325.8169 206.114,326.0837 204.3018,324.7824 204.0229,322.813" stroke="black" stroke-width="1" /><polyline fill="none" points="198.4772,329.1531 198.5607,330.9344 197.1449,332.5801 195.2091,332.671 193.2743,332.7618 191.6963,331.3416 191.6015,329.3209 191.5865,329.0014 191.5715,328.6818 191.5565,328.3623 191.4119,325.2795 194.0767,324.64 194.4199,324.6238 194.7509,324.6083 195.0818,324.5928 195.4128,324.5773 195.0818,324.5928 194.7509,324.6083 194.4199,324.6238 193.4089,324.6713 191.1945,323.5735 191.082,321.1764 191.0491,320.474 191.0161,319.7717 190.9832,319.0693 190.89,317.0833 192.4265,315.4319 194.4133,315.3386 196.4172,315.2446 198.0838,316.7457 198.1769,318.7318" stroke="black" stroke-width="1" /><polyline fill="none" points="178.8252,332.4973 180.8751,332.5935 182.9249,332.6897 184.9748,332.7859 185.1015,330.0855 185.2282,327.3852 185.3549,324.6849 184.6471,325.8702 183.6716,326.5287 182.1817,326.4589 180.1264,326.3624 178.6134,324.592 178.7026,322.6915 178.7663,321.3328 178.8301,319.9742 178.8938,318.6155 178.987,316.629 180.6479,315.2478 182.5153,315.3354 184.3647,315.4222 185.8719,316.9521 185.7786,318.9385" stroke="black" stroke-width="1" /><polyline fill="none" points="166.2711,322.4527 166.2703,322.4581 166.2696,322.4636 166.2688,322.469 166.5957,320.1605 166.9226,317.852 167.2495,315.5435 167.4005,314.4767 166.7099,313.9612 166.1512,313.882 166.8644,313.983 167.3723,314.6761 167.2686,315.4081 167.2623,315.4532 167.2559,315.4984 167.2495,315.5435 168.4735,314.7299 169.8597,314.2337 171.3361,314.4427 172.5586,314.6158 174.4583,315.5085 174.105,318.0037 173.9199,319.3111 173.0726,320.0392 171.9575,320.3307 171.4173,320.4797 169.7576,320.574 168.6404,320.6409 167.5035,320.7219 166.4562,321.1454 166.2711,322.4527 166.0836,323.7767 167.1991,325.5615 169.236,325.8499 171.1548,326.1216 172.1696,325.3134 172.8527,324.5271" stroke="black" stroke-width="1" /><polyline fill="none" points="157.9408,326.0792 154.5701,328.7472 158.5527,312.0724" stroke="black" stroke-width="1" /><polyline fill="none" points="140.5936,317.6605 141.2292,315.7939 143.2367,314.7937 145.1033,315.4293 146.9861,316.0705 147.9812,318.0933 147.3455,319.9598 147.0176,320.9229 146.6897,321.8858 146.3617,322.8488 145.7261,324.7154 143.7031,325.7111 141.8362,325.0753 139.9537,324.4343 138.9741,322.416 139.6097,320.5494 140.7077,317.3252 141.8057,314.101 142.9037,310.8767 143.5393,309.0105 145.5469,308.0099 147.4135,308.6456 149.0201,309.1927 149.9756,310.7499 149.8244,312.365" stroke="black" stroke-width="1" /><polyline fill="none" points="128.7093,312.6069 129.5169,310.808 131.6093,310.0002 133.4082,310.8079 135.2227,311.6225 136.0239,313.7296 135.2163,315.5284 134.7996,316.4565 134.3829,317.3845 133.9662,318.3126 133.1586,320.1115 131.0513,320.9134 129.2521,320.1056 127.4379,319.291 126.6516,317.1899 127.4593,315.3911 128.8544,312.2838 130.2495,309.1765 131.6445,306.0693 132.4521,304.2708 134.5446,303.4626 136.3434,304.2703 137.8917,304.9654 138.6972,306.6053 138.3954,308.1991" stroke="black" stroke-width="1" /><polyline fill="none" points="122.1203,312.6755 121.1477,314.3909 118.9741,314.9913 117.2588,314.0187 115.5282,313.0375 114.9148,310.8175 115.8873,309.1022 116.2683,308.4302 116.6554,308.0596 117.0358,307.8405 120.8832,305.6208 124.7307,303.4011 128.5781,301.1813 128.6485,301.0573 128.7188,300.9332 128.7892,300.8091 126.7307,299.642 124.6723,298.4749 122.6138,297.3079" stroke="black" stroke-width="1" /><polyline fill="none" points="104.9614,301.8481 108.861,300.4168 112.7606,298.9855 116.6601,297.5542 114.7101,300.3469 112.7601,303.1395 110.8101,305.9321 109.6812,307.5488 107.4602,307.9429 105.844,306.8145 104.2127,305.6753 103.8325,303.4648 104.9614,301.8481 106.9114,299.0555 108.8614,296.2629 110.8114,293.4702 111.9403,291.8535 114.146,291.4496 115.763,292.5787 117.3935,293.7172 117.789,295.9375 116.6601,297.5542" stroke="black" stroke-width="1" /><polyline fill="none" points="104.2441,283.7615 101.4608,287.0436 106.1169,290.992 93.4959,297.1251" stroke="black" stroke-width="1" /><polyline fill="none" points="95.4209,284.3969 94.0103,285.7748 91.755,285.7486 90.3776,284.3386 88.9872,282.9152 89.0262,280.6724 90.4367,279.2945 91.1643,278.5838 91.8918,277.8731 92.6194,277.1624 94.0299,275.7846 96.2725,275.7988 97.6629,277.2221 99.0403,278.6321 99.0141,280.887 97.6035,282.2648 95.167,284.6449 92.7305,287.025 90.2939,289.405 88.8836,290.7827 86.6285,290.7562 85.2512,289.3462 84.0645,288.1313 83.9163,286.3114 84.7808,284.9392" stroke="black" stroke-width="1" /><polyline fill="none" points="87.9593,266.3804 84.6128,269.086 88.451,273.8334 74.9078,277.5056" stroke="black" stroke-width="1" /><polyline fill="none" points="77.821,266.161 76.164,267.2612 73.9782,266.7579 72.9253,265.172 71.8727,263.5867 72.2663,261.3906 73.9233,260.2904 75.1801,259.456 76.4369,258.6215 77.6937,257.787 79.3505,256.6871 81.5277,257.1763 82.5803,258.7616 83.6333,260.3475 83.2389,262.5436 81.5822,263.6436 81.5853,263.6483 81.5884,263.6529 81.5915,263.6576 77.7637,266.199 73.9359,268.7405 70.1081,271.282" stroke="black" stroke-width="1" /><polyline fill="none" points="65.8711,258.1059 64.2996,258.9488 62.2044,258.3802 61.2884,256.6724 60.3728,254.9656 60.9745,252.9297 62.7572,251.9735 63.0391,251.8223 63.3209,251.6711 63.6029,251.5199 66.3225,250.0611 68.0478,252.1903 68.2102,252.4931 68.3668,252.785 68.5234,253.077 68.68,253.369 68.5234,253.077 68.3668,252.785 68.2102,252.4931 67.7318,251.6011 67.7684,249.1299 69.8831,247.9955 70.5027,247.6632 71.1223,247.3308 71.7419,246.9985 73.4941,246.0586 75.6463,246.7336 76.5865,248.4864 77.5348,250.2543 76.8982,252.405 75.1461,253.3448" stroke="black" stroke-width="1" /><polyline fill="none" points="62.1405,238.2065 62.1355,238.2086 62.1304,238.2108 62.1254,238.2129 64.2741,237.308 66.4229,236.4032 68.5717,235.4984 69.5648,235.0802 69.6525,234.2228 69.4335,233.7028 69.7131,234.3667 69.3791,235.1584 68.6977,235.4453 68.6557,235.463 68.6137,235.4807 68.5717,235.4984 69.8983,236.131 71.036,237.0656 71.6147,238.4399 72.0938,239.5778 72.3033,241.6664 69.9807,242.6444 68.7638,243.1568 67.704,242.8036 66.8812,241.9964 66.476,241.6094 65.5429,240.2336 64.9118,239.3093 64.2585,238.3753 63.3574,237.6941 62.1405,238.2065 60.9081,238.7255 59.9494,240.5991 60.7477,242.4951 61.4998,244.2811 62.7145,244.7369 63.7399,244.9193" stroke="black" stroke-width="1" /><polyline fill="none" points="53.1463,227.3057 57.109,228.5518 61.0716,229.7979 65.0343,231.044 61.7851,232.0662 58.5361,233.0883 55.287,234.1104 53.406,234.7021 51.406,233.6588 50.8145,231.7785 50.2174,229.8805 51.2654,227.8974 53.1463,227.3057 56.3954,226.2836 59.6445,225.2615 62.8936,224.2393 64.7746,223.6476 66.7684,224.6738 67.3602,226.5551 67.957,228.4521 66.9152,230.4523 65.0343,231.044" stroke="black" stroke-width="1" /><polyline fill="none" points="46.7972,215.8706 47.227,217.8772 47.6568,219.8838 48.0866,221.8904 50.73,221.3242 53.3733,220.758 56.0167,220.1918 54.69,219.8098 53.8044,219.0345 53.4921,217.576 53.0611,215.5641 54.3871,213.6496 56.2475,213.2511 57.5775,212.9662 58.9075,212.6814 60.2375,212.3965 62.182,211.98 63.9412,213.2337 64.3327,215.0616 64.7205,216.872 63.6255,218.7195 61.681,219.136" stroke="black" stroke-width="1" /><polyline fill="none" points="44.8569,202.4812 45.0969,204.5192 45.3369,206.5572 45.5769,208.5952 48.2616,208.279 50.9464,207.9629 53.6311,207.6467 52.3461,207.1421 51.537,206.2872 51.3625,204.806 51.1219,202.7625 52.6214,200.9806 54.5109,200.7581 55.8617,200.599 57.2125,200.4399 58.5634,200.2808 60.5384,200.0483 62.1724,201.4612 62.391,203.3177 62.6075,205.1565 61.3445,206.8933 59.3695,207.1259" stroke="black" stroke-width="1" /><polyline fill="none" points="47.6766,194.04 44.2373,191.4612 61.3764,191.0594" stroke="black" stroke-width="1" /><polyline fill="none" points="53.3163,175.7398 53.3108,175.7394 53.3054,175.739 53.2999,175.7386 55.6257,175.9025 57.9514,176.0663 60.2771,176.2302 61.352,176.3059 61.8177,175.5807 61.8574,175.0178 61.8067,175.7364 61.1511,176.2917 60.4136,176.2398 60.3681,176.2366 60.3226,176.2334 60.2771,176.2302 61.1747,177.394 61.7672,178.7419 61.6624,180.2293 61.5757,181.461 60.8187,183.4187 58.3048,183.2417 56.9877,183.1488 56.2019,182.3549 55.8327,181.263 55.6461,180.7346 55.4354,179.0856 55.2902,177.9759 55.1294,176.8475 54.6334,175.8326 53.3163,175.7398 51.9824,175.6458 50.2804,176.8839 50.1358,178.9361 49.9996,180.8692 50.8772,181.8247 51.7096,182.4508" stroke="black" stroke-width="1" /><polyline fill="none" points="61.8774,164.0082 62.6758,164.7486 63.4465,165.6582 63.0991,167.7561 62.7881,169.6342 60.9998,170.9889 58.9865,170.6555 57.5151,170.4118 56.0438,170.1681 54.5725,169.9245 52.6102,169.5995 51.3548,167.7408 51.6658,165.8628 51.9825,163.9509 53.7756,162.5626 55.7378,162.8876 56.4706,163.0089 57.2034,163.1303 57.9362,163.2516 57.5487,165.5916 57.1611,167.9316 56.7737,170.2716" stroke="black" stroke-width="1" /><polyline fill="none" points="58.4166,157.8689 56.51,157.366 55.3744,155.4172 55.8771,153.5113 56.3846,151.5874 58.3291,150.4691 60.2358,150.972 61.2192,151.2314 62.2026,151.4908 63.1861,151.7502 65.0927,152.2531 66.2321,154.1848 65.7246,156.1087 65.2219,158.0146 63.2736,159.15 61.3669,158.6471 58.0735,157.7784 54.78,156.9097 51.4866,156.041 49.5803,155.5382 48.4451,153.5895 48.9478,151.6835 49.3809,150.0414 50.8666,148.9798 52.4879,149.0171" stroke="black" stroke-width="1" /><polyline fill="none" points="67.0508,140.25 68.9177,140.9351 69.8113,142.9799 69.1557,144.7666 68.5,146.5535 66.4902,147.5508 64.6233,146.8658 63.207,146.3461 61.7907,145.8264 60.3744,145.3068 58.5071,144.6216 57.62,142.5613 58.2756,140.7745 58.9312,138.9877 60.9346,138.0059 62.8019,138.691" stroke="black" stroke-width="1" /><polyline fill="none" points="65.5686,129.7824 66.3579,128.3646 65.7635,126.1306 63.9918,125.2847 63.5794,125.0878 63.1671,124.891 62.7548,124.6941 61.0833,123.896 59.0712,124.6087 58.2658,126.2957 57.4679,127.9668 58.2103,129.9938 59.8505,130.7769 60.2628,130.9738 60.6751,131.1707 61.0875,131.3675 62.7593,132.1657 64.7707,131.4535 65.5686,129.7824 66.4477,127.9411 68.6361,127.2172 70.4149,128.0665 71.0235,128.3571 71.6321,128.6477 72.2407,128.9383 74.0198,129.7877 74.8025,131.9301 73.9233,133.7714 73.0516,135.5973 70.894,136.3347 69.1148,135.4852 68.4961,135.1898 67.8774,134.8944 67.2587,134.599 65.7336,133.8708 64.7096,131.817" stroke="black" stroke-width="1" /><polyline fill="none" points="65.9147,119.2275 64.2226,118.215 63.6733,116.028 64.6858,114.3359 65.7073,112.6288 67.9411,112.0676 69.6332,113.0801 70.2961,113.4767 70.6574,113.8724 70.8676,114.2578 72.9965,118.1562 75.1254,122.0546 77.2544,125.9531 77.3768,126.0263 77.4991,126.0995 77.6215,126.1728 78.8365,124.1423 80.0516,122.1117 81.2666,120.0812" stroke="black" stroke-width="1" /><polyline fill="none" points="73.3937,101.6817 72.8059,102.4828 72.8029,103.5018 73.8258,104.2522 74.8163,104.979 75.8069,105.7059 76.7975,106.4327 77.1557,105.9444 77.514,105.4561 77.8723,104.9678 77.1826,105.9078 76.4929,106.8478 75.8032,107.7878 76.1346,107.3361 76.466,106.8844 76.7975,106.4327 79.843,108.6673 82.8885,110.9019 85.9341,113.1365" stroke="black" stroke-width="1" /><polyline fill="none" points="93.1735,99.1085 94.6597,100.4299 94.742,102.6599 93.4773,104.0822 92.2126,105.5046 89.9771,105.6962 88.491,104.3748 87.3636,103.3724 86.2362,102.3699 85.1087,101.3675 83.6223,100.0459 83.5517,97.8038 84.8164,96.3814 86.0811,94.9591 88.3049,94.7795 89.7913,96.1011" stroke="black" stroke-width="1" /><polyline fill="none" points="91.6005,81.7416 90.8736,82.419 90.6807,83.4195 91.5457,84.3476 92.3834,85.2463 93.221,86.1451 94.0587,87.0439 94.5017,86.631 94.9448,86.218 95.3878,85.8051 94.5349,86.6 93.6821,87.3949 92.8292,88.1898 93.239,87.8079 93.6489,87.4259 94.0587,87.0439 96.6342,89.8072 99.2096,92.5704 101.7851,95.3337" stroke="black" stroke-width="1" /><polyline fill="none" points="105.4445,74.7974 105.6396,78.9468 105.8347,83.0962 106.0299,87.2455 103.9511,84.5474 101.8724,81.8492 99.7936,79.151 98.5901,77.589 98.8807,75.3521 100.4422,74.149 102.0184,72.9347 104.241,73.2354 105.4445,74.7974 107.5232,77.4956 109.602,80.1937 111.6807,82.8919 112.8842,84.4539 112.6076,86.6792 111.0453,87.8829 109.47,89.0966 107.2333,88.8076 106.0299,87.2455" stroke="black" stroke-width="1" /><polyline fill="none" points="113.455,76.0309 112.3939,74.3485 112.9483,72.1751 114.5585,71.1597 116.168,70.1445 118.3542,70.5895 119.4153,72.2718 120.22,73.5479 121.0248,74.8239 121.8296,76.0999 122.8904,77.782 122.3503,79.9472 120.7408,80.9623 119.1306,81.9778 116.9443,81.5321 115.8835,79.85 115.8787,79.853 115.874,79.856 115.8693,79.859 113.4183,75.9727 110.9672,72.0863 108.5162,68.2" stroke="black" stroke-width="1" /><polyline fill="none" points="121.7668,64.514 120.8757,62.755 121.5778,60.6121 123.3368,59.721 125.1115,58.8221 127.3003,59.5389 128.1914,61.2979 128.5405,61.9871 128.6351,62.5145 128.6072,62.9526 128.3283,67.3857 128.0494,71.8188 127.7705,76.2519 127.835,76.3791 127.8994,76.5063 127.9639,76.6336 130.0748,75.5642 132.1856,74.4949 134.2965,73.4256" stroke="black" stroke-width="1" /><polyline fill="none" points="144.4991,67.2686 144.2737,68.3339 143.8889,69.4623 141.9103,70.2414 140.139,70.9389 138.0583,70.0999 137.3106,68.2011 136.7642,66.8134 136.2178,65.4257 135.6714,64.0381 134.9427,62.1874 135.893,60.1557 137.6643,59.4583 139.4675,58.7483 141.5795,59.5741 142.3082,61.4248 142.5803,62.1159 142.8524,62.807 143.1246,63.4981 140.9176,64.3671 138.7107,65.2361 136.5038,66.1051" stroke="black" stroke-width="1" /><polyline fill="none" points="152.8781,52.2738 151.5394,56.2061 150.2007,60.1385 148.862,64.0708 147.9164,60.7987 146.9707,57.5265 146.025,54.2543 145.4776,52.36 146.5675,50.3851 148.4612,49.8378 150.3726,49.2854 152.3306,50.3795 152.8781,52.2738 153.8237,55.546 154.7694,58.8181 155.715,62.0903 156.2625,63.9846 155.1898,65.9538 153.2952,66.5014 151.3847,67.0535 149.4095,65.9652 148.862,64.0708" stroke="black" stroke-width="1" /><polyline fill="none" points="160.0938,57.9127 159.7262,55.9755 160.9955,54.111 162.932,53.7435 164.8869,53.3725 166.7338,54.6455 167.1015,56.5828 167.2911,57.582 167.4808,58.5812 167.6704,59.5804 168.0381,61.5177 166.7858,63.3782 164.831,63.7492 162.8944,64.1167 161.0304,62.8477 160.6628,60.9104 160.0276,57.5641 159.3926,54.2177 158.7575,50.8714 158.3899,48.9345 159.6592,47.0704 161.5958,46.7029 163.2643,46.3862 164.8624,47.2695 165.5274,48.7486" stroke="black" stroke-width="1" /><polyline fill="none" points="149.7139,139.7047 126.744,171.7336 140.8637,108.5745 140.8637,108.5745 268.4255,140.8637 188.2428,253.3668 189.0084,152.2515 158.7145,203.9175 236.6952,108.8569 108.8569,140.3048" stroke="black" stroke-width="1" /><polyline fill="none" points="113.0716,157.4377 104.6423,123.172" stroke="black" stroke-width="1" /><polyline fill="none" points="168.3312,130.1462 168.1864,128.3062 167.7555,126.5115 167.0492,124.8062 166.0848,123.2325 164.8861,121.829 163.4826,120.6303 161.9088,119.6659 160.2036,118.9595 158.4089,118.5287 156.5688,118.3839 154.7288,118.5287 152.9341,118.9595 151.2288,119.6659 149.6551,120.6303 148.2516,121.829 147.0528,123.2325 146.0885,124.8062 145.3821,126.5115 144.9512,128.3062 144.8064,130.1462 144.9512,131.9863 145.3821,133.781 146.0885,135.4863 147.0528,137.06 148.2516,138.4635 149.6551,139.6622 151.2288,140.6266 152.9341,141.3329 154.7288,141.7638 156.5688,141.9086 158.4089,141.7638 160.2036,141.3329 161.9088,140.6266 163.4826,139.6622 164.8861,138.4635 166.0848,137.06 167.0492,135.4863 167.7555,133.781 168.1864,131.9863 168.3312,130.1462" stroke="black" stroke-width="1" /><polyline fill="none" points="188.5,69.0664 199.6839,69.5912 210.7696,71.161 221.6595,73.7619 232.2581,77.3712 242.4721,81.9571 252.2118,87.4792 261.3915,93.8892 269.9308,101.1306 277.7544,109.1398 284.7936,117.8464 290.9866,127.1739 296.2789,137.0404 300.6241,147.3591 303.9839,158.0393 306.3289,168.9873 307.6383,180.1067 307.9008,191.2998 307.114,202.4684 305.2847,213.5142 302.4292,224.3402 298.5725,234.8512 293.7484,244.9549 287.9994,254.5625 281.376,263.5894 273.9365,271.9565 265.7461,279.5902 256.8768,286.4234 247.4067,292.3961 237.4188,297.4556 227.0011,301.5577 216.2451,304.6663 205.2452,306.7539 194.0981,307.8023 182.9019,307.8023 171.7548,306.7539 160.7549,304.6663 149.9989,301.5577 139.5811,297.4556 129.5933,292.3961 120.1232,286.4234 111.2539,279.5902 103.0635,271.9565 95.6239,263.5894 89.0006,254.5625 83.2516,244.9549 78.4275,234.8512 74.5708,224.3402 71.7153,213.5142 69.8861,202.4684 69.0992,191.2998 69.3617,180.1067 70.6712,168.9872 73.0161,158.0393 76.3759,147.3591 80.7211,137.0404 86.0134,127.174 92.2064,117.8464 99.2457,109.1398 107.0692,101.1306 115.6085,93.8892 124.7882,87.4792 134.5279,81.957 144.7419,77.3712 155.3405,73.7619 166.2304,71.161 177.3161,69.5912 188.5,69.0664" stroke="black" stroke-width="1" />

    </g>
  </g>
  <WCB
     pausedposy="0"
     pausedposx="0"
     lastknownposy="0"
     lastknownposx="0"
     lastpathnc="0"
     lastpath="0"
     node="0"
     layer="0" />
</svg>
