<?xml version="1.0" encoding="UTF-8" standalone="no"?>
<!-- Created with Inkscape (http://www.inkscape.org/) -->

<svg
   xmlns:dc="http://purl.org/dc/elements/1.1/"
   xmlns:cc="http://creativecommons.org/ns#"
   xmlns:rdf="http://www.w3.org/1999/02/22-rdf-syntax-ns#"
   xmlns:svg="http://www.w3.org/2000/svg"
   xmlns="http://www.w3.org/2000/svg"
   xmlns:sodipodi="http://sodipodi.sourceforge.net/DTD/sodipodi-0.dtd"
   xmlns:inkscape="http://www.inkscape.org/namespaces/inkscape"
   width="100mm"
   height="100mm"
   viewBox="0 0 100 100"
   version="1.1"
   id="svg19124"
   inkscape:version="0.92.3 (2405546, 2018-03-11)"
   sodipodi:docname="inkscape_template_TMP.svg"
   shape-rendering="crispEdges">
  <sodipodi:namedview
     pagecolor="#ffffff"
     bordercolor="#666666"
     borderopacity="1"
     objecttolerance="10"
     gridtolerance="10"
     guidetolerance="10"
     inkscape:pageopacity="0"
     inkscape:pageshadow="2"
     inkscape:window-width="1568"
     inkscape:window-height="1550"
     id="namedview24021"
     showgrid="false"
     inkscape:zoom="0.62441667"
     inkscape:cx="712.66515"
     inkscape:cy="409.98265"
     inkscape:window-x="0"
     inkscape:window-y="0"
     inkscape:window-maximized="0"
     inkscape:current-layer="layer1" />
  <defs
     id="defs19118" />
  <metadata
     id="metadata19121">
    <rdf:RDF>
      <cc:Work
         rdf:about="">
        <dc:format>image/svg+xml</dc:format>
        <dc:type
           rdf:resource="http://purl.org/dc/dcmitype/StillImage" />
        <dc:title />
      </cc:Work>
    </rdf:RDF>
  </metadata>
  <g
     transform="translate(0,-197)"
     id="layer1"
     inkscape:groupmode="layer"
     inkscape:label="Layer 1">
    <g
       id="g24447"
       transform="matrix(0.26458333,0,0,0.26458333,0.10666333,197.9735)">

<polyline fill="none" points="192.1004,47.7394 189.7225,51.1455 187.3447,54.5516 184.9669,57.9577 184.9669,54.5516 184.9669,51.1455 184.9669,47.7394 184.9669,45.7676 186.5623,44.1729 188.5334,44.1729 190.5231,44.1729 192.1004,45.7676 192.1004,47.7394 192.1004,51.1455 192.1004,54.5516 192.1004,57.9577 192.1004,59.9295 190.5231,61.5235 188.5509,61.5235 186.5623,61.5235 184.9669,59.9295 184.9669,57.9577" stroke="black" stroke-width="1" /><polyline fill="none" points="197.8298,61.5877 200.7471,57.7851 198.696,53.7706 202.935,62.0679 200.7471,57.7851 203.4811,54.2207" stroke="black" stroke-width="1" /><polyline fill="none" points="216.9831,55.7364 216.9842,55.731 216.9852,55.7257 216.9862,55.7203 216.5515,58.0109 216.1167,60.3015 215.682,62.5921 215.4811,63.6508 216.1468,64.1981 216.7012,64.3033 215.9935,64.169 215.5186,63.4529 215.6565,62.7265 215.665,62.6817 215.6735,62.6369 215.682,62.5921 214.4212,63.3475 213.0132,63.7782 211.5483,63.5002 210.3352,63.27 208.4794,62.2892 208.9493,59.8133 209.1955,58.5161 210.076,57.8285 211.2036,57.5896 211.7501,57.4661 213.4124,57.4497 214.5315,57.4352 215.671,57.4075 216.7369,57.0337 216.9831,55.7364 217.2325,54.4227 216.2019,52.5876 214.1808,52.204 212.2768,51.8426 211.2252,52.6024 210.506,53.3558" stroke="black" stroke-width="1" /><polyline fill="none" points="230.3545,50.5323 229.4,50.2565 228.4424,50.6047 228.0902,51.8234 227.7491,53.0037 227.408,54.184 227.0669,55.3643 227.6487,55.5325 228.2305,55.7007 228.8123,55.8688 227.6922,55.5451 226.5722,55.2214 225.4522,54.8977 225.9904,55.0533 226.5286,55.2088 227.0669,55.3643 226.0181,58.9932 224.9693,62.6221 223.9206,66.251" stroke="black" stroke-width="1" /><polyline fill="none" points="241.2387,63.3757 241.2407,63.3706 241.2427,63.3655 241.2447,63.3604 240.3905,65.5298 239.5363,67.6992 238.6821,69.8686 238.2873,70.8712 238.8393,71.5331 239.3643,71.7398 238.6941,71.4759 238.3611,70.6838 238.632,69.9959 238.6487,69.9535 238.6654,69.911 238.6821,69.8686 237.3025,70.3756 235.839,70.5363 234.4515,69.99 233.3027,69.5376 231.6623,68.228 232.5856,65.8832 233.0694,64.6546 234.0626,64.1432 235.215,64.1187 235.7749,64.0993 237.4111,64.3931 238.5133,64.5876 239.638,64.7729 240.7549,64.6043 241.2387,63.3757 241.7286,62.1315 241.0583,60.1364 239.1441,59.3827 237.341,58.6727 236.1662,59.2231 235.3191,59.8292" stroke="black" stroke-width="1" /><polyline fill="none" points="256.3059,61.0983 254.4753,60.171 252.6447,59.2436 250.8141,58.3163 249.5924,60.7278 248.3708,63.1394 247.1492,65.5509 248.2804,64.7595 249.4401,64.5583 250.7706,65.2323 252.6061,66.1621 253.2612,68.3969 252.4015,70.0941 251.7868,71.3075 251.1721,72.5208 250.5575,73.7342 249.6588,75.5082 247.5779,76.088 245.9103,75.2432 244.2586,74.4065 243.5103,72.3935 244.409,70.6195" stroke="black" stroke-width="1" /><polyline fill="none" points="265.1005,74.0019 264.0486,75.6697 261.8637,76.1763 260.1958,75.1244 258.5135,74.0633 258.0155,71.8648 259.0674,70.1969 259.6101,69.3365 260.1528,68.476 260.6954,67.6155 261.7473,65.9477 263.9463,65.4491 265.6144,66.5012 267.2965,67.5621 267.7805,69.7526 266.7285,71.4205 264.9116,74.3015 263.0946,77.1824 261.2776,80.0634 260.226,81.7309 258.0408,82.2378 256.373,81.1859 254.9374,80.2805 254.3698,78.5439 254.8921,77.0081" stroke="black" stroke-width="1" /><polyline fill="none" points="273.9048,82.9373 273.9081,82.933 273.9115,82.9287 273.9148,82.9243 272.4919,84.7713 271.0689,86.6182 269.646,88.4651 268.9884,89.3187 269.3349,90.1078 269.7819,90.4522 269.2113,90.0125 269.1113,89.1591 269.5625,88.5735 269.5903,88.5374 269.6182,88.5013 269.646,88.4651 268.1799,88.5692 266.7293,88.3172 265.5481,87.4072 264.57,86.6536 263.3577,84.9401 264.8957,82.9437 265.7016,81.8978 266.7977,81.6823 267.9116,81.9787 268.455,82.1155 269.9452,82.852 270.9501,83.3449 271.9791,83.8351 273.0989,83.9833 273.9048,82.9373 274.7209,81.8781 274.6308,79.7753 273.0012,78.5198 271.466,77.337 270.1846,77.5396 269.2026,77.8867" stroke="black" stroke-width="1" /><polyline fill="none" points="283.4146,91.3986 283.4183,91.3946 283.4221,91.3906 283.4258,91.3866 281.8362,93.0922 280.2465,94.7977 278.6569,96.5033 277.9222,97.2916 278.1933,98.1096 278.6061,98.4944 278.0791,98.0032 278.0595,97.1442 278.5636,96.6034 278.5947,96.57 278.6258,96.5367 278.6569,96.5033 277.1875,96.4696 275.7668,96.0829 274.676,95.0662 273.7728,94.2244 272.7263,92.4049 274.4445,90.5614 275.3448,89.5955 276.4562,89.4836 277.5375,89.883 278.0656,90.0701 279.4804,90.9429 280.4347,91.5277 281.4133,92.1122 282.5143,92.3645 283.4146,91.3986 284.3263,90.4204 284.4335,88.3185 282.9286,86.9158 281.511,85.5945 280.2162,85.6762 279.206,85.9298" stroke="black" stroke-width="1" /><polyline fill="none" points="291.6044,92.311 292.937,91.126 295.107,91.1924 296.3947,92.6406 297.6817,94.0881 297.5694,96.2081 296.0576,97.5522 295.8186,97.7648 295.5795,97.9773 295.3405,98.1899 293.0341,100.2406 290.8614,98.5704 290.6331,98.3136 290.4129,98.066 290.1927,97.8184 289.9726,97.5708 290.1927,97.8184 290.4129,98.066 290.6331,98.3136 291.3056,99.0701 291.8441,101.4822 290.0508,103.0768 289.5253,103.544 288.9998,104.0112 288.4744,104.4784 286.9885,105.7995 284.7383,105.643 283.4167,104.1565 282.0837,102.6573 282.2032,100.4176 283.6891,99.0965" stroke="black" stroke-width="1" /><polyline fill="none" points="306.9236,105.7683 303.2191,108.4864 299.5146,111.2045 295.8102,113.9226 294.2065,115.0992 291.9993,114.6992 290.8732,113.1643 289.7574,111.6436 290.0379,109.4178 291.6415,108.2412 292.8579,107.3487 294.0742,106.4563 295.2905,105.5638 296.8942,104.3872 299.101,104.7879 300.2168,106.3086 301.343,107.8434 301.0628,110.0686 299.4592,111.2452" stroke="black" stroke-width="1" /><polyline fill="none" points="306.6423,121.5682 306.647,121.5654 306.6517,121.5626 306.6564,121.5598 304.6557,122.7569 302.655,123.9541 300.6543,125.1513 299.7297,125.7046 299.763,126.5658 300.0528,127.05 299.6829,126.4318 299.9025,125.6011 300.537,125.2215 300.5761,125.1981 300.6152,125.1747 300.6543,125.1513 299.2521,124.7109 297.9946,123.945 297.229,122.6655 296.595,121.606 296.0948,119.5674 298.2573,118.2734 299.3903,117.5954 300.4892,117.7965 301.417,118.4804 301.8725,118.8068 302.9893,120.0381 303.7437,120.8649 304.5215,121.6981 305.5092,122.2462 306.6423,121.5682 307.7897,120.8816 308.4763,118.892 307.42,117.1267 306.4249,115.4638 305.1584,115.1828 304.1175,115.146" stroke="black" stroke-width="1" /><polyline fill="none" points="319.4162,128.1029 318.9881,127.2062 318.0916,126.722 316.9468,127.2686 315.8381,127.798 314.7294,128.3273 313.6207,128.8567 313.8816,129.4032 314.1425,129.9498 314.4035,130.4963 313.9011,129.4442 313.3988,128.3921 312.8965,127.34 313.1379,127.8455 313.3793,128.3511 313.6207,128.8567 310.2119,130.4843 306.8031,132.1118 303.3943,133.7393" stroke="black" stroke-width="1" /><polyline fill="none" points="320.4745,136.1614 322.6959,135.3464 325.1473,142.0275 307.3338,143.2482" stroke="black" stroke-width="1" /><polyline fill="none" points="320.2347,153.7747 320.5497,155.3665 322.448,156.6859 324.3463,156.1852 324.7881,156.0686 325.2299,155.9521 325.6718,155.8356 327.4627,155.3632 328.5363,153.5183 328.0596,151.7108 327.5873,149.9201 325.7101,148.8543 323.9526,149.3179 323.5108,149.4344 323.069,149.5509 322.6272,149.6675 320.8359,150.14 319.7625,151.9841 320.2347,153.7747 320.7551,155.7476 319.5543,157.7151 317.6483,158.2178 316.9962,158.3898 316.3441,158.5618 315.692,158.7338 313.7857,159.2366 311.8031,158.1089 311.2827,156.1359 310.7667,154.1795 311.9354,152.2217 313.8417,151.7188 314.5046,151.544 315.1675,151.3691 315.8305,151.1943 317.4647,150.7632 319.574,151.6673" stroke="black" stroke-width="1" /><polyline fill="none" points="331.5284,168.2133 326.9955,168.964 322.4625,169.7147 317.9296,170.4653 315.9673,170.7903 314.1791,169.436 313.8681,167.5579 313.5599,165.6971 314.816,163.8383 316.7783,163.5134 318.2667,163.2669 319.755,163.0204 321.2433,162.7739 323.2056,162.449 324.9932,163.8038 325.3013,165.6646 325.6124,167.5426 324.3569,169.401 322.3947,169.7259" stroke="black" stroke-width="1" /><polyline fill="none" points="328.6666,175.1152 330.6336,174.9766 332.3361,176.4553 332.4747,178.4223 332.6145,180.4068 331.1043,182.1458 329.1373,182.2844 328.3667,182.3387 327.8439,182.2212 327.451,182.0255 323.4736,180.048 319.4962,178.0705 315.5188,176.093 315.3765,176.103 315.2343,176.1131 315.092,176.1231 315.2583,178.4835 315.4246,180.8439 315.5909,183.2044" stroke="black" stroke-width="1" /><polyline fill="none" points="319.0198,195.0233 317.0317,194.9767 315.5267,193.3291 315.5713,191.4263 315.6159,189.5236 317.197,187.9316 319.185,187.9782 320.6932,188.0135 322.2014,188.0489 323.7097,188.0843 325.6981,188.1309 327.2021,189.7953 327.1574,191.698 327.1129,193.6008 325.5329,195.176 323.5445,195.1294" stroke="black" stroke-width="1" /><polyline fill="none" points="328.7042,201.4854 330.6625,201.716 332.0594,203.4863 331.8288,205.4446 331.5961,207.4203 329.7882,208.8473 327.8299,208.6166 327.0626,208.5263 326.5709,208.3134 326.2214,208.0478 322.6824,205.3634 319.1436,202.679 315.6046,199.9946 315.463,199.9779 315.3213,199.9612 315.1797,199.9445 314.9029,202.2945 314.6262,204.6446 314.3494,206.9946" stroke="black" stroke-width="1" /><polyline fill="none" points="312.274,217.7198 316.482,218.6211 317.7606,212.6516 329.131,220.8746" stroke="black" stroke-width="1" /><polyline fill="none" points="324.988,227.5847 327.2451,228.2948 325.1095,235.0835 310.2533,225.1787" stroke="black" stroke-width="1" /><polyline fill="none" points="320.7283,240.194 322.909,241.1122 320.1471,247.6711 306.2836,236.4187" stroke="black" stroke-width="1" /><polyline fill="none" points="314.1975,251.9505 315.9352,252.8826 316.5864,255.0415 315.6543,256.7791 314.714,258.5322 312.5089,259.1976 310.7713,258.2655 310.0905,257.9003 309.711,257.5221 309.483,257.1469 307.1737,253.3526 304.8644,249.5582 302.5551,245.7639 302.4294,245.6965 302.3037,245.629 302.178,245.5616 301.0595,247.6469 299.941,249.7321 298.8225,251.8173" stroke="black" stroke-width="1" /><polyline fill="none" points="308.7705,263.9427 310.7417,265.2515 306.8053,271.1803 295.2831,257.5403" stroke="black" stroke-width="1" /><polyline fill="none" points="295.6971,279.7978 294.5434,275.8072 293.3896,271.8167 292.236,267.8262 294.8846,269.9676 297.5333,272.1091 300.182,274.2505 301.7154,275.4902 301.9525,277.7335 300.7132,279.2663 299.4622,280.8136 297.2305,281.0375 295.6971,279.7978 293.0484,277.6563 290.3997,275.5149 287.751,273.3734 286.2177,272.1337 285.9697,269.9051 287.2097,268.3714 288.46,266.825 290.7026,266.5865 292.236,267.8262" stroke="black" stroke-width="1" /><polyline fill="none" points="279.5317,282.2614 278.1092,280.8718 278.1315,278.6404 279.4614,277.2789 280.7914,275.9174 283.0334,275.8307 284.456,277.2204 285.5352,278.2745 286.6143,279.3287 287.6935,280.3829 289.1164,281.7728 289.0818,284.0157 287.7518,285.3772 286.4219,286.7387 284.1921,286.8138 282.7693,285.424" stroke="black" stroke-width="1" /><polyline fill="none" points="281.3456,294.5265 281.5026,298.8223 270.4145,285.747" stroke="black" stroke-width="1" /><polyline fill="none" points="268.4328,308.8305 265.8023,305.0633 263.1718,301.2961 260.5413,297.529 259.4026,295.8982 259.8543,293.701 261.415,292.6111 262.9615,291.5313 265.1801,291.8639 266.3188,293.4947 267.1826,294.7316 268.0463,295.9685 268.91,297.2054 270.0487,298.8362 269.5963,301.0331 268.0499,302.1129 266.4891,303.2028 264.2711,302.8705 263.1324,301.2397" stroke="black" stroke-width="1" /><polyline fill="none" points="256.8137,315.7868 254.5475,311.7899 252.2813,307.7929 250.0151,303.7959 249.0341,302.0657 249.6896,299.9204 251.3456,298.9815 252.9863,298.0512 255.1641,298.5901 256.1451,300.3204 256.8892,301.6328 257.6332,302.9451 258.3773,304.2575 259.3583,305.9877 258.7022,308.1326 257.0614,309.0628 255.4055,310.0017 253.2284,309.4633 252.2474,307.733" stroke="black" stroke-width="1" /><polyline fill="none" points="241.5176,315.6479 240.7099,313.8491 241.4965,311.7486 243.2954,310.941 245.1099,310.1263 247.2169,310.9276 248.0246,312.7264 248.4412,313.6545 248.8579,314.5825 249.2746,315.5106 250.0822,317.3094 249.2813,319.4171 247.4821,320.2249 245.6679,321.0394 243.5752,320.231 242.7676,318.4321 241.3725,315.3248 239.9774,312.2176 238.5823,309.1103 237.7748,307.3118 238.5612,305.211 240.3601,304.4034 241.9084,303.7082 243.6691,304.1959 244.6597,305.4805" stroke="black" stroke-width="1" /><polyline fill="none" points="226.7701,311.6605 227.0452,310.607 227.4825,309.4979 229.4955,308.8124 231.2975,308.1987 233.3365,309.1342 233.9944,311.0661 234.4752,312.4778 234.9559,313.8896 235.4367,315.3013 236.0779,317.1841 235.0333,319.169 233.2313,319.7827 231.3969,320.4074 229.3259,319.4835 228.6847,317.6006 228.4453,316.8976 228.2058,316.1945 227.9664,315.4913 230.2116,314.7267 232.4569,313.9621 234.7021,313.1975" stroke="black" stroke-width="1" /><polyline fill="none" points="220.1276,321.0126 218.5288,321.2902 217.1653,323.157 217.6214,325.0665 217.7275,325.511 217.8336,325.9554 217.9398,326.3998 218.3701,328.2014 220.1893,329.3179 222.0075,328.8837 223.8087,328.4534 224.9182,326.6017 224.496,324.8339 224.3898,324.3895 224.2837,323.9451 224.1776,323.5007 223.7472,321.6988 221.9288,320.5824 220.1276,321.0126 218.143,321.4866 216.2042,320.24 215.7463,318.3228 215.5896,317.6667 215.433,317.0108 215.2763,316.3548 214.8183,314.4373 215.9922,312.4817 217.9769,312.0077 219.9448,311.5377 221.8747,312.7519 222.3327,314.6695 222.492,315.3363 222.6512,316.0032 222.8105,316.67 223.2031,318.3139 222.2498,320.4014" stroke="black" stroke-width="1" /><polyline fill="none" points="211.7021,327.3795 211.9785,329.3318 210.6231,331.134 208.6707,331.4105 206.701,331.6894 204.8602,330.3052 204.5837,328.3528 204.4754,327.5879 204.5558,327.0582 204.7235,326.6524 206.4165,322.5459 208.1096,318.4394 209.8027,314.3328 209.7827,314.1916 209.7627,314.0504 209.7427,313.9092 207.3998,314.241 205.0569,314.5727 202.714,314.9045" stroke="black" stroke-width="1" /><polyline fill="none" points="191.2466,326.2313 191.1541,324.2616 192.6556,322.5955 194.6253,322.503 196.6121,322.4098 198.279,323.9273 198.3715,325.897 198.4191,326.9132 198.4668,327.9294 198.5145,328.9456 198.6069,330.9152 197.0895,332.5829 195.1194,332.6754 193.1329,332.7686 191.482,331.2496 191.3896,329.2798 191.2299,325.8776 191.0703,322.4752 190.9107,319.0729 190.8183,317.1035 192.3197,315.437 194.2894,315.3446 195.9847,315.265 197.4443,316.3639 197.8954,317.9221" stroke="black" stroke-width="1" /><polyline fill="none" points="178.3058,328.9371 180.8407,325.6462 183.3756,322.3553 185.9104,319.0645 185.7508,322.4668 185.5911,325.8691 185.4315,329.2715 185.3391,331.2411 183.6706,332.7593 181.7017,332.6669 179.7141,332.5737 178.2134,330.9068 178.3058,328.9371 178.4655,325.5348 178.6252,322.1324 178.7848,318.7301 178.8772,316.7604 180.5274,315.2421 182.4975,315.3346 184.4839,315.4278 186.0029,317.0948 185.9104,319.0645" stroke="black" stroke-width="1" /><polyline fill="none" points="170.9582,328.3363 167.8522,331.3082 170.2559,314.3337" stroke="black" stroke-width="1" /><polyline fill="none" points="156.8315,321.0028 155.2798,320.528 153.2199,321.5771 152.7638,323.4867 152.6576,323.9311 152.5515,324.3755 152.4453,324.8199 152.0151,326.6215 153.1333,328.4396 154.9516,328.8739 156.7527,329.3041 158.5793,328.1536 159.0015,326.3858 159.1077,325.9414 159.2138,325.4969 159.32,325.0526 159.7503,323.2507 158.6327,321.433 156.8315,321.0028 154.8469,320.5288 153.6807,318.5406 154.1386,316.6234 154.2953,315.9674 154.452,315.3114 154.6086,314.6555 155.0666,312.7379 156.9976,311.5239 158.9822,311.9979 160.9501,312.468 162.123,314.4232 161.6651,316.3408 161.5058,317.0077 161.3465,317.6745 161.1872,318.3414 160.7946,319.9852 159.0008,321.4167" stroke="black" stroke-width="1" /><polyline fill="none" points="141.6841,315.9587 141.6823,315.9639 141.6806,315.9691 141.6788,315.9743 142.4304,313.7672 143.182,311.5602 143.9336,309.3531 144.2809,308.3331 143.6985,307.6979 143.1644,307.516 143.8463,307.7482 144.216,308.5238 143.9777,309.2237 143.963,309.2668 143.9483,309.31 143.9336,309.3531 145.2879,308.7821 146.7423,308.5529 148.1538,309.0336 149.3226,309.4316 151.0226,310.6629 150.2102,313.0485 149.7845,314.2984 148.8164,314.8557 147.6664,314.9342 147.1079,314.9799 145.4598,314.7631 144.3497,314.6204 143.2176,314.4881 142.1097,314.7088 141.6841,315.9587 141.253,317.2245 142.0161,319.186 143.9635,319.8492 145.798,320.4739 146.9457,319.8691 147.7634,319.2239" stroke="black" stroke-width="1" /><polyline fill="none" points="126.7402,318.9398 128.6123,319.7804 130.4844,320.6209 132.3564,321.4614 133.4637,318.9953 134.5709,316.5291 135.6782,314.063 134.5853,314.9065 133.4363,315.1619 132.0757,314.551 130.1986,313.7083 129.4395,311.5066 130.2187,309.7709 130.7758,308.5301 131.333,307.2892 131.8901,306.0484 132.7046,304.2343 134.7561,303.5576 136.4614,304.3233 138.1505,305.0816 138.9923,307.0573 138.1778,308.8715" stroke="black" stroke-width="1" /><polyline fill="none" points="121.8899,298.9365 122.86,298.442 123.9794,298.0318 125.8292,299.0806 127.4852,300.0195 128.141,302.165 127.1344,303.9402 126.3989,305.2376 125.6633,306.5349 124.9277,307.8323 123.9467,309.5625 121.7693,310.1008 120.1134,309.1619 118.4276,308.2061 117.7419,306.0446 118.7229,304.3143 119.0893,303.6682 119.4556,303.022 119.822,302.3759 121.8853,303.5457 123.9486,304.7156 126.0119,305.8854" stroke="black" stroke-width="1" /><polyline fill="none" points="114.9342,300.0707 113.8053,301.6874 111.5846,302.0822 109.9685,300.9537 108.3371,299.8146 107.9572,297.6038 109.0861,295.9871 109.6683,295.1532 110.2506,294.3193 110.8329,293.4855 111.9618,291.8687 114.1677,291.4645 115.7991,292.6036 117.4152,293.7321 117.8099,295.9523 116.681,297.569 114.731,300.3616 112.781,303.1543 110.831,305.9469 109.7023,307.5634 107.4818,307.9579 105.8657,306.8293 104.4733,305.8571 103.9884,304.0967 104.5818,302.5874" stroke="black" stroke-width="1" /><polyline fill="none" points="93.8072,297.2205 94.565,297.8631 95.5812,297.9377 96.4017,296.9701 97.1963,296.0331 97.9909,295.096 98.7856,294.159 98.3237,293.7673 97.8618,293.3756 97.3999,292.9839 98.2891,293.7379 99.1783,294.492 100.0675,295.2461 99.6402,294.8837 99.2129,294.5214 98.7856,294.159 101.2287,291.278 103.6718,288.3971 106.1149,285.5161" stroke="black" stroke-width="1" /><polyline fill="none" points="89.1384,281.0458 89.1344,281.0496 89.1305,281.0534 89.1266,281.0573 90.7944,279.4281 92.4623,277.7989 94.1301,276.1697 94.9009,275.4167 94.6685,274.5869 94.2741,274.1832 94.7775,274.6985 94.7568,275.5575 94.228,276.0741 94.1954,276.106 94.1627,276.1378 94.1301,276.1697 95.5963,276.2723 96.9973,276.7251 98.0392,277.7918 98.902,278.675 99.8621,280.5416 98.0594,282.3026 97.1148,283.2252 95.9993,283.2849 94.938,282.8353 94.4192,282.6236 93.0469,281.6854 92.121,281.0565 91.1709,280.4268 90.0829,280.1231 89.1384,281.0458 88.1818,281.9802 87.9762,284.0748 89.4137,285.5464 90.7678,286.9327 92.065,286.9118 93.086,286.7058" stroke="black" stroke-width="1" /><polyline fill="none" points="74.4602,276.952 75.7504,278.5478 77.0406,280.1436 78.3308,281.7394 80.433,280.0398 82.5352,278.3401 84.6374,276.6406 83.2813,276.8992 82.1409,276.6078 81.2031,275.448 79.9095,273.8479 80.2272,271.5408 81.7067,270.3447 82.7645,269.4895 83.8222,268.6343 84.8799,267.7792 86.4263,266.5289 88.5622,266.8524 89.7374,268.306 90.9015,269.7458 90.7597,271.8887 89.2132,273.139" stroke="black" stroke-width="1" /><polyline fill="none" points="72.9279,269.2832 71.4423,270.2696 69.303,269.8997 68.2311,268.2852 67.1598,266.6716 67.5681,264.5883 69.2534,263.4694 69.5199,263.2924 69.7864,263.1155 70.0529,262.9385 72.624,261.2314 74.5411,263.1898 74.7312,263.476 74.9145,263.752 75.0977,264.028 75.281,264.3041 75.0977,264.028 74.9145,263.752 74.7312,263.476 74.1713,262.6328 73.9764,260.1689 75.9756,258.8416 76.5613,258.4527 77.1471,258.0638 77.7328,257.6748 79.3893,256.575 81.5953,257.0456 82.6955,258.7026 83.8051,260.3739 83.3728,262.5747 81.7163,263.6745" stroke="black" stroke-width="1" /><polyline fill="none" points="65.3923,250.322 67.13,249.3899 69.2805,250.0269 70.2126,251.7646 71.1527,253.5174 70.5015,255.6755 68.7639,256.6076 67.8674,257.0884 66.9709,257.5693 66.0745,258.0502 64.3368,258.9822 62.178,258.3314 61.2458,256.5934 60.3058,254.8409 60.9652,252.6967 62.7029,251.7646 65.7044,250.1546 68.7059,248.5445 71.7075,246.9345 73.4448,246.0026 75.5957,246.6395 76.5277,248.3772 77.33,249.8728 76.9672,251.6634 75.7555,252.7418" stroke="black" stroke-width="1" /><polyline fill="none" points="68.3334,235.3307 69.4037,235.5311 70.5408,235.8893 71.3661,237.8492 72.1049,239.6036 71.3149,241.7034 69.4341,242.4954 68.0596,243.0742 66.6852,243.653 65.3107,244.2318 63.4776,245.0037 61.4242,244.1012 60.6854,242.3468 59.9333,240.5607 60.7094,238.43 62.5425,237.6581 63.2271,237.3698 63.9116,237.0815 64.5962,236.7933 65.5167,238.9792 66.4372,241.1652 67.3577,243.3512" stroke="black" stroke-width="1" /><polyline fill="none" points="49.7286,228.6396 54.1116,227.2608 58.4945,225.882 62.8774,224.5032 64.7748,223.9063 66.7352,224.9966 67.3064,226.8125 67.8724,228.6117 66.8894,230.6282 64.992,231.2251 63.5529,231.6778 62.1138,232.1305 60.6747,232.5833 58.7774,233.1801 56.8176,232.0893 56.2516,230.2901 55.6803,228.4742 56.6628,226.4582 58.5601,225.8613" stroke="black" stroke-width="1" /><polyline fill="none" points="50.491,221.8181 48.1773,222.3137 46.6868,215.3548 64.4955,216.6437" stroke="black" stroke-width="1" /><polyline fill="none" points="53.1978,204.4125 53.1091,202.7922 51.4146,201.2197 49.4648,201.4493 49.011,201.5028 48.5572,201.5562 48.1034,201.6097 46.2639,201.8263 44.9423,203.5024 45.1609,205.3589 45.3775,207.1981 47.0867,208.5166 48.8918,208.304 49.3456,208.2506 49.7993,208.1971 50.2531,208.1437 52.093,207.927 53.4144,206.2516 53.1978,204.4125 52.9592,202.3861 54.424,200.6064 56.3816,200.3759 57.0514,200.297 57.7212,200.2181 58.391,200.1392 60.349,199.9087 62.1538,201.3033 62.3924,203.3297 62.6291,205.3391 61.1975,207.1138 59.2395,207.3443 58.5586,207.4245 57.8777,207.5047 57.1968,207.5849 55.5183,207.7826 53.5565,206.5916" stroke="black" stroke-width="1" /><polyline fill="none" points="59.5314,188.0478 60.4538,188.6263 61.3806,189.3763 61.4304,191.5022 61.475,193.4053 59.9707,195.0697 57.9305,195.1175 56.4395,195.1525 54.9486,195.1874 53.4577,195.2224 51.4692,195.269 49.8893,193.677 49.8446,191.7739 49.7992,189.8365 51.302,188.1382 53.2904,188.0916 54.033,188.0742 54.7756,188.0568 55.5181,188.0394 55.5737,190.4106 55.6293,192.7818 55.6849,195.153" stroke="black" stroke-width="1" /><polyline fill="none" points="52.6036,178.905 52.8186,177.2966 51.447,175.4357 49.4886,175.2977 49.0328,175.2656 48.577,175.2335 48.1212,175.2014 46.2736,175.0712 44.6626,176.4715 44.5312,178.3363 44.401,180.1835 45.8344,181.7976 47.6475,181.9253 48.1033,181.9575 48.5591,181.9896 49.0149,182.0217 50.8629,182.1519 52.4735,180.7523 52.6036,178.905 52.747,176.8696 54.518,175.3943 56.4842,175.5328 57.157,175.5802 57.8298,175.6276 58.5025,175.675 60.4691,175.8135 61.9823,177.5202 61.8389,179.5556 61.6967,181.5739 59.9593,183.0505 57.9927,182.912 57.3087,182.8638 56.6248,182.8156 55.9409,182.7674 54.255,182.6486 52.5497,181.1128" stroke="black" stroke-width="1" /><polyline fill="none" points="54.0992,166.2216 54.4639,164.6403 53.2726,162.6592 51.3357,162.3385 50.8849,162.2638 50.4341,162.1892 49.9834,162.1145 48.156,161.8119 46.421,163.0552 46.1156,164.8994 45.813,166.7264 47.0889,168.4676 48.8821,168.7646 49.3329,168.8392 49.7836,168.9139 50.2344,168.9885 52.0621,169.2912 53.7967,168.0485 54.0992,166.2216 54.4326,164.2086 56.334,162.9056 58.2786,163.2276 58.944,163.3378 59.6093,163.448 60.2747,163.5582 62.2197,163.8802 63.5664,165.7211 63.233,167.7341 62.9025,169.7303 61.0344,171.0377 59.0894,170.7156 58.413,170.6036 57.7366,170.4915 57.0602,170.3795 55.3928,170.1034 53.8389,168.4146" stroke="black" stroke-width="1" /><polyline fill="none" points="50.33,155.8557 48.0421,155.2522 49.8572,148.3709 65.1613,157.5684" stroke="black" stroke-width="1" /><polyline fill="none" points="60.4111,145.2069 58.5438,144.5218 57.6565,142.4618 58.3123,140.6747 58.9678,138.8882 60.9712,137.9064 62.8384,138.5915 64.2547,139.1112 65.671,139.6309 67.0873,140.1505 68.9542,140.8355 69.8478,142.8803 69.1923,144.6668 68.5366,146.4539 66.5327,147.4352 64.6657,146.7502 64.6638,146.7554 64.6619,146.7607 64.66,146.7659 60.3465,145.1832 56.033,143.6005 51.7195,142.0178" stroke="black" stroke-width="1" /><polyline fill="none" points="59.8363,130.8071 58.227,130.0387 57.446,128.0131 58.281,126.2642 59.1155,124.5164 61.1129,123.7971 62.9384,124.6687 63.2271,124.8065 63.5158,124.9444 63.8044,125.0822 66.5895,126.4119 65.8934,129.0626 65.7454,129.3726 65.6026,129.6716 65.4599,129.9706 65.3171,130.2696 65.4599,129.9706 65.6026,129.6716 65.7454,129.3726 66.1815,128.4592 68.1956,127.0268 70.3612,128.0608 70.9957,128.3637 71.6302,128.6667 72.2647,128.9696 74.059,129.8263 74.7879,131.9609 73.9309,133.7558 73.0666,135.5662 70.956,136.3252 69.1617,135.4685" stroke="black" stroke-width="1" /><polyline fill="none" points="65.9147,119.2275 64.2226,118.215 63.6733,116.028 64.6858,114.3359 65.7073,112.6288 67.9411,112.0676 69.6332,113.0801 70.2961,113.4767 70.6574,113.8724 70.8676,114.2578 72.9965,118.1562 75.1254,122.0546 77.2544,125.9531 77.3768,126.0263 77.4991,126.0995 77.6215,126.1728 78.8365,124.1423 80.0516,122.1117 81.2666,120.0812" stroke="black" stroke-width="1" /><polyline fill="none" points="78.6846,112.3389 77.0948,111.1724 76.7521,108.9431 77.9182,107.3539 79.0952,105.7496 81.3143,105.4216 82.9041,106.5881 83.7241,107.1898 84.5441,107.7914 85.3641,108.3931 86.9539,109.5596 87.3064,111.7744 86.1293,113.3786 84.9632,114.9678 82.7344,115.3104 81.1446,114.1439 78.3984,112.129 75.6523,110.114 72.9061,108.0991 71.3166,106.9328 70.9743,104.7037 72.1403,103.1144 73.145,101.7452 74.9163,101.3017 76.4112,101.9304" stroke="black" stroke-width="1" /><polyline fill="none" points="86.704,97.9602 87.8559,96.8173 87.9051,94.5061 86.4379,93.2015 86.0964,92.8979 85.755,92.5943 85.4135,92.2907 84.0293,91.06 81.8985,91.186 80.6564,92.583 79.4259,93.9669 79.5763,96.1203 80.9346,97.328 81.276,97.6316 81.6175,97.9353 81.959,98.2389 83.3434,99.4698 85.4735,99.3441 86.704,97.9602 88.0598,96.4353 90.3631,96.3475 91.8361,97.6573 92.3401,98.1054 92.8441,98.5535 93.3482,99.0017 94.8215,100.3117 94.9785,102.5871 93.6227,104.112 92.2783,105.624 90.0008,105.7334 88.5275,104.4234 88.0151,103.9678 87.5027,103.5122 86.9904,103.0566 85.7274,101.9336 85.3138,99.6763" stroke="black" stroke-width="1" /><polyline fill="none" points="95.6295,88.8257 96.8834,87.7957 97.1488,85.4993 95.8102,84.063 95.4987,83.7288 95.1871,83.3945 94.8756,83.0603 93.6128,81.7054 91.4795,81.6313 90.112,82.9059 88.7573,84.1684 88.7054,86.3265 89.9447,87.6561 90.2562,87.9903 90.5677,88.3246 90.8792,88.6588 92.1423,90.0141 94.2748,90.0883 95.6295,88.8257 97.1221,87.4345 99.4235,87.5628 100.7675,89.0047 101.2273,89.4981 101.6871,89.9914 102.147,90.4848 103.4912,91.927 103.4344,94.2072 101.9418,95.5984 100.4617,96.9779 98.184,96.8735 96.8398,95.4312 96.3723,94.9297 95.9049,94.4281 95.4374,93.9266 94.2851,92.6903 94.0848,90.4041" stroke="black" stroke-width="1" /><polyline fill="none" points="100.7262,78.2382 100.7707,73.9397 111.2337,87.5203" stroke="black" stroke-width="1" /><polyline fill="none" points="109.6814,70.4143 108.4192,68.4129 114.4387,64.6166 119.3633,81.7794" stroke="black" stroke-width="1" /><polyline fill="none" points="125.8942,58.4641 124.0636,59.3914 122.233,60.3188 120.4024,61.2461 121.624,63.6576 122.8457,66.0692 124.0673,68.4807 124.0984,67.1005 124.6222,66.0464 125.9527,65.3724 127.7882,64.4426 129.9776,65.2365 130.8373,66.9337 131.452,68.147 132.0667,69.3604 132.6813,70.5738 133.58,72.3478 132.8164,74.3685 131.1488,75.2132 129.4971,76.0499 127.4315,75.4624 126.5328,73.6884" stroke="black" stroke-width="1" /><polyline fill="none" points="137.4525,53.663 136.528,54.027 135.9819,54.8873 136.4467,56.0676 136.8969,57.2108 137.347,58.354 137.7971,59.4972 138.3607,59.2753 138.9242,59.0534 139.4877,58.8315 138.4029,59.2587 137.3181,59.6859 136.2332,60.113 136.7545,59.9077 137.2758,59.7025 137.7971,59.4972 139.1811,63.0119 140.5651,66.5267 141.949,70.0414" stroke="black" stroke-width="1" /><polyline fill="none" points="147.9902,61.1465 147.4428,59.2522 148.5319,57.2771 150.4256,56.7299 152.3371,56.1774 154.2951,57.2719 154.8426,59.1662 155.1249,60.1433 155.4073,61.1204 155.6897,62.0974 156.2372,63.9918 155.1646,65.9613 153.2531,66.5137 151.3595,67.061 149.3848,65.9721 148.8374,64.0778 147.8917,60.8056 146.946,57.5334 146.0004,54.2613 145.453,52.3673 146.5423,50.3925 148.4359,49.8453 150.0674,49.3738 151.7412,50.1035 152.5418,51.5139" stroke="black" stroke-width="1" /><polyline fill="none" points="160.0938,57.9127 159.7262,55.9755 160.9955,54.111 162.932,53.7435 164.8869,53.3725 166.7338,54.6455 167.1015,56.5828 167.2911,57.582 167.4808,58.5812 167.6704,59.5804 168.0381,61.5177 166.7858,63.3782 164.831,63.7492 162.8944,64.1167 161.0304,62.8477 160.6628,60.9104 160.0276,57.5641 159.3926,54.2177 158.7575,50.8714 158.3899,48.9345 159.6592,47.0704 161.5958,46.7029 163.2643,46.3862 164.8624,47.2695 165.5274,48.7486" stroke="black" stroke-width="1" /><polyline fill="none" points="240.0355,177.0162 108.5745,236.1363 239.8942,231.6324 126.744,171.7336 156.5688,130.1462 188.8365,96.1804 239.8942,231.6324 140.8637,108.5745 236.6952,108.8569 239.8942,231.6324" stroke="black" stroke-width="1" /><polyline fill="none" points="257.5319,231.1729 222.2566,232.092" stroke="black" stroke-width="1" /><polyline fill="none" points="262.5255,172.1919 262.3806,170.3519 261.9497,168.5571 261.2434,166.8519 260.279,165.2781 259.0803,163.8746 257.6768,162.6759 256.1031,161.7115 254.3978,161.0052 252.6031,160.5743 250.763,160.4295 248.923,160.5743 247.1283,161.0052 245.423,161.7115 243.8493,162.6759 242.4458,163.8746 241.2471,165.2781 240.2827,166.8519 239.5763,168.5571 239.1454,170.3519 239.0006,172.1919 239.1455,174.032 239.5763,175.8267 240.2827,177.5319 241.2471,179.1057 242.4458,180.5092 243.8493,181.7079 245.423,182.6723 247.1283,183.3786 248.923,183.8095 250.763,183.9543 252.6031,183.8095 254.3978,183.3786 256.1031,182.6723 257.6768,181.7079 259.0803,180.5092 260.279,179.1057 261.2434,177.5319 261.9497,175.8267 262.3806,174.0319 262.5255,172.1919" stroke="black" stroke-width="1" /><polyline fill="none" points="188.5,69.0664 199.6839,69.5912 210.7696,71.161 221.6595,73.7619 232.2581,77.3712 242.4721,81.9571 252.2118,87.4792 261.3915,93.8892 269.9308,101.1306 277.7544,109.1398 284.7936,117.8464 290.9866,127.1739 296.2789,137.0404 300.6241,147.3591 303.9839,158.0393 306.3289,168.9873 307.6383,180.1067 307.9008,191.2998 307.114,202.4684 305.2847,213.5142 302.4292,224.3402 298.5725,234.8512 293.7484,244.9549 287.9994,254.5625 281.376,263.5894 273.9365,271.9565 265.7461,279.5902 256.8768,286.4234 247.4067,292.3961 237.4188,297.4556 227.0011,301.5577 216.2451,304.6663 205.2452,306.7539 194.0981,307.8023 182.9019,307.8023 171.7548,306.7539 160.7549,304.6663 149.9989,301.5577 139.5811,297.4556 129.5933,292.3961 120.1232,286.4234 111.2539,279.5902 103.0635,271.9565 95.6239,263.5894 89.0006,254.5625 83.2516,244.9549 78.4275,234.8512 74.5708,224.3402 71.7153,213.5142 69.8861,202.4684 69.0992,191.2998 69.3617,180.1067 70.6712,168.9872 73.0161,158.0393 76.3759,147.3591 80.7211,137.0404 86.0134,127.174 92.2064,117.8464 99.2457,109.1398 107.0692,101.1306 115.6085,93.8892 124.7882,87.4792 134.5279,81.957 144.7419,77.3712 155.3405,73.7619 166.2304,71.161 177.3161,69.5912 188.5,69.0664" stroke="black" stroke-width="1" />

    </g>
  </g>
  <WCB
     pausedposy="0"
     pausedposx="0"
     lastknownposy="0"
     lastknownposx="0"
     lastpathnc="0"
     lastpath="0"
     node="0"
     layer="0" />
</svg>
