<?xml version="1.0" encoding="UTF-8" standalone="no"?>
<!-- Created with Inkscape (http://www.inkscape.org/) -->

<svg
   xmlns:dc="http://purl.org/dc/elements/1.1/"
   xmlns:cc="http://creativecommons.org/ns#"
   xmlns:rdf="http://www.w3.org/1999/02/22-rdf-syntax-ns#"
   xmlns:svg="http://www.w3.org/2000/svg"
   xmlns="http://www.w3.org/2000/svg"
   xmlns:sodipodi="http://sodipodi.sourceforge.net/DTD/sodipodi-0.dtd"
   xmlns:inkscape="http://www.inkscape.org/namespaces/inkscape"
   width="100mm"
   height="100mm"
   viewBox="0 0 100 100"
   version="1.1"
   id="svg19124"
   inkscape:version="0.92.3 (2405546, 2018-03-11)"
   sodipodi:docname="inkscape_template_TMP.svg"
   shape-rendering="crispEdges">
  <sodipodi:namedview
     pagecolor="#ffffff"
     bordercolor="#666666"
     borderopacity="1"
     objecttolerance="10"
     gridtolerance="10"
     guidetolerance="10"
     inkscape:pageopacity="0"
     inkscape:pageshadow="2"
     inkscape:window-width="1568"
     inkscape:window-height="1550"
     id="namedview24021"
     showgrid="false"
     inkscape:zoom="0.62441667"
     inkscape:cx="712.66515"
     inkscape:cy="409.98265"
     inkscape:window-x="0"
     inkscape:window-y="0"
     inkscape:window-maximized="0"
     inkscape:current-layer="layer1" />
  <defs
     id="defs19118" />
  <metadata
     id="metadata19121">
    <rdf:RDF>
      <cc:Work
         rdf:about="">
        <dc:format>image/svg+xml</dc:format>
        <dc:type
           rdf:resource="http://purl.org/dc/dcmitype/StillImage" />
        <dc:title />
      </cc:Work>
    </rdf:RDF>
  </metadata>
  <g
     transform="translate(0,-197)"
     id="layer1"
     inkscape:groupmode="layer"
     inkscape:label="Layer 1">
    <g
       id="g24447"
       transform="matrix(0.26458333,0,0,0.26458333,0.10666333,197.9735)">

<polyline fill="none" points="192.1004,47.7394 189.7225,51.1455 187.3447,54.5516 184.9669,57.9577 184.9669,54.5516 184.9669,51.1455 184.9669,47.7394 184.9669,45.7676 186.5623,44.1729 188.5334,44.1729 190.5231,44.1729 192.1004,45.7676 192.1004,47.7394 192.1004,51.1455 192.1004,54.5516 192.1004,57.9577 192.1004,59.9295 190.5231,61.5235 188.5509,61.5235 186.5623,61.5235 184.9669,59.9295 184.9669,57.9577" stroke="black" stroke-width="1" /><polyline fill="none" points="197.8298,61.5877 200.7471,57.7851 198.696,53.7706 202.935,62.0679 200.7471,57.7851 203.4811,54.2207" stroke="black" stroke-width="1" /><polyline fill="none" points="210.2846,55.059 210.6554,53.1049 212.5428,51.893 214.413,52.2479 216.2826,52.6028 217.5785,54.4188 217.2077,56.3729 216.9264,57.8551 216.6451,59.3373 216.3638,60.8194 215.993,62.7732 214.1216,63.9889 212.2521,63.634 210.3818,63.2791 209.0863,61.4624 209.4572,59.5086 209.4517,59.5076 209.4462,59.5065 209.4407,59.5055 210.2974,54.9914 211.1541,50.4773 212.0108,45.9632" stroke="black" stroke-width="1" /><polyline fill="none" points="225.4743,52.5043 228.9663,49.9973 224.2065,66.4671" stroke="black" stroke-width="1" /><polyline fill="none" points="237.5491,71.1629 239.1257,67.1588 233.4454,64.9221 243.4155,55.0479" stroke="black" stroke-width="1" /><polyline fill="none" points="250.0833,66.9788 251.4822,67.8012 253.7295,67.2593 254.6167,65.5079 254.8232,65.1003 255.0297,64.6927 255.2361,64.2851 256.0732,62.6328 255.4078,60.6046 253.7402,59.7598 252.0883,58.923 250.0444,59.6176 249.2231,61.239 249.0166,61.6466 248.8101,62.0542 248.6036,62.4618 247.7664,64.1144 248.4313,66.142 250.0833,66.9788 251.9035,67.9009 252.5759,70.1056 251.6851,71.864 251.3803,72.4657 251.0755,73.0673 250.7708,73.6689 249.8799,75.4277 247.7197,76.1598 245.8995,75.2378 244.0946,74.3234 243.408,72.1492 244.2989,70.3904 244.6087,69.7788 244.9186,69.1672 245.2284,68.5556 245.9921,67.048 248.0694,66.0724" stroke="black" stroke-width="1" /><polyline fill="none" points="260.6272,67.5723 261.679,65.9044 263.8784,65.4066 265.5463,66.4585 267.2289,67.5197 267.7377,69.766 266.6858,71.4339 266.2737,72.0873 265.8697,72.4393 265.4794,72.6403 261.5322,74.6773 257.5849,76.7143 253.6376,78.7512 253.5616,78.8718 253.4855,78.9925 253.4094,79.1131 255.4109,80.3754 257.4124,81.6377 259.4138,82.9" stroke="black" stroke-width="1" /><polyline fill="none" points="272.2083,73.8287 273.6524,71.9543 279.2899,76.2977 264.8739,86.8328" stroke="black" stroke-width="1" /><polyline fill="none" points="281.4013,88.8544 282.5169,90.0328 284.8263,90.1361 286.1649,88.7 286.4764,88.3657 286.7879,88.0314 287.0995,87.6972 288.3623,86.3422 288.2863,84.2091 286.9188,82.9345 285.5641,81.6719 283.4077,81.7718 282.1685,83.1014 281.857,83.4357 281.5454,83.7699 281.2339,84.1042 279.9708,85.4594 280.0466,87.5918 281.4013,88.8544 282.8939,90.2456 282.9277,92.5503 281.5838,93.9923 281.124,94.4856 280.6641,94.979 280.2043,95.4724 278.8601,96.9146 276.5816,97.0182 275.089,95.6271 273.6089,94.2476 273.5529,91.9681 274.8971,90.5259 275.3646,90.0244 275.832,89.5228 276.2995,89.0212 277.4518,87.7849 279.7183,87.4244" stroke="black" stroke-width="1" /><polyline fill="none" points="291.3659,92.3519 292.8394,91.0417 295.0906,91.174 296.4008,92.6476 297.7227,94.1343 297.5878,96.4336 296.1142,97.7438 295.5368,98.2571 295.051,98.4831 294.6203,98.5679 290.2627,99.4289 285.905,100.2898 281.5474,101.1508 281.4409,101.2455 281.3343,101.3403 281.2277,101.4351 282.8,103.2034 284.3723,104.9718 285.9446,106.7401" stroke="black" stroke-width="1" /><polyline fill="none" points="294.5001,115.035 293.4126,115.0888 292.2234,115.0045 290.9654,113.29 289.8392,111.7552 290.1198,109.5294 291.7651,108.3221 292.9676,107.4398 294.17,106.5576 295.3724,105.6754 296.976,104.4987 299.1829,104.8995 300.309,106.4343 301.4554,107.9967 301.1956,110.2495 299.5919,111.4261 298.9931,111.8655 298.3942,112.3049 297.7953,112.7443 296.3922,110.832 294.9891,108.9197 293.586,107.0074" stroke="black" stroke-width="1" /><polyline fill="none" points="298.9669,125.4851 302.6596,123.2754 299.5249,118.0368 313.4492,116.2997" stroke="black" stroke-width="1" /><polyline fill="none" points="308.9742,127.1239 310.7691,126.2669 312.8627,127.0716 313.6829,128.7895 314.5028,130.5067 313.8053,132.6259 312.0104,133.4829 310.649,134.1329 309.2876,134.7829 307.9261,135.433 306.1316,136.2898 304.0444,135.5002 303.2245,133.7829 302.4043,132.0651 303.1026,129.9459 304.8972,129.0891 304.8948,129.084 304.8924,129.0789 304.89,129.0739 309.0363,127.0942 313.1826,125.1145 317.3289,123.1348" stroke="black" stroke-width="1" /><polyline fill="none" points="319.0594,144.549 317.2083,145.2282 315.1683,144.2959 314.4891,142.4448 313.8039,140.5775 314.7513,138.532 316.6024,137.8528 317.5575,137.5023 318.5125,137.1519 319.4676,136.8015 321.3187,136.1223 323.3649,137.0694 324.0443,138.9209 324.7293,140.7878 323.7757,142.8185 321.9246,143.4977 318.7269,144.671 315.5293,145.8443 312.3317,147.0175 310.4809,147.6967 308.4406,146.7645 307.7613,144.9133 307.1767,143.32 307.787,141.5979 309.1379,140.7001" stroke="black" stroke-width="1" /><polyline fill="none" points="320.2347,153.7747 320.5497,155.3665 322.448,156.6859 324.3463,156.1852 324.7881,156.0686 325.2299,155.9521 325.6718,155.8356 327.4627,155.3632 328.5363,153.5183 328.0596,151.7108 327.5873,149.9201 325.7101,148.8543 323.9526,149.3179 323.5108,149.4344 323.069,149.5509 322.6272,149.6675 320.8359,150.14 319.7625,151.9841 320.2347,153.7747 320.7551,155.7476 319.5543,157.7151 317.6483,158.2178 316.9962,158.3898 316.3441,158.5618 315.692,158.7338 313.7857,159.2366 311.8031,158.1089 311.2827,156.1359 310.7667,154.1795 311.9354,152.2217 313.8417,151.7188 314.5046,151.544 315.1675,151.3691 315.8305,151.1943 317.4647,150.7632 319.574,151.6673" stroke="black" stroke-width="1" /><polyline fill="none" points="324.9649,169.6639 323.0195,169.9861 321.1891,168.6898 320.867,166.7444 320.5421,164.7821 321.8542,162.9491 323.7996,162.627 324.8032,162.4608 325.8068,162.2946 326.8104,162.1284 328.7558,161.8062 330.5895,163.1182 330.9117,165.064 331.2366,167.0259 329.9211,168.8431 327.9758,169.1653 324.6155,169.7218 321.2551,170.2782 317.8948,170.8347 315.9498,171.1568 314.1191,169.8606 313.797,167.9152 313.5197,166.2408 314.4403,164.6627 315.935,164.0325" stroke="black" stroke-width="1" /><polyline fill="none" points="317.3481,182.9067 316.3996,182.372 315.4387,181.6663 315.2892,179.5451 315.1555,177.6461 316.5801,175.9131 318.6158,175.7697 320.1035,175.6649 321.5912,175.5601 323.0789,175.4553 325.0629,175.3155 326.7158,176.8317 326.8495,178.7306 326.9857,180.6638 325.5642,182.4306 323.5801,182.5704 322.8392,182.6226 322.0983,182.6748 321.3573,182.727 321.1906,180.361 321.024,177.995 320.8573,175.629" stroke="black" stroke-width="1" /><polyline fill="none" points="330.4735,188.1536 332.839,188.2091 332.6721,195.3238 315.65,189.9331" stroke="black" stroke-width="1" /><polyline fill="none" points="316.1313,207.0298 315.2992,206.3276 314.4867,205.4552 314.7354,203.3432 314.958,201.4527 316.6808,200.0157 318.7076,200.2543 320.1887,200.4288 321.6699,200.6032 323.151,200.7776 325.1263,201.0102 326.4675,202.8081 326.2448,204.6986 326.0182,206.6233 324.2921,208.094 322.3168,207.8614 321.5791,207.7746 320.8414,207.6877 320.1038,207.6008 320.3812,205.2452 320.6586,202.8896 320.936,200.534" stroke="black" stroke-width="1" /><polyline fill="none" points="326.7578,215.8256 329.504,219.1328 312.7404,215.5422" stroke="black" stroke-width="1" /><polyline fill="none" points="325.4485,233.5773 325.7467,232.6295 325.4211,231.6641 324.2109,231.2834 323.0389,230.9147 321.8669,230.546 320.6949,230.1773 320.5132,230.755 320.3315,231.3327 320.1497,231.9104 320.4996,230.7983 320.8494,229.6861 321.1993,228.574 321.0312,229.1084 320.8631,229.6429 320.6949,230.1773 317.0916,229.0438 313.4883,227.9102 309.885,226.7767" stroke="black" stroke-width="1" /><polyline fill="none" points="319.238,241.1259 321.3194,244.8872 305.5193,238.2338" stroke="black" stroke-width="1" /><polyline fill="none" points="307.9089,248.5121 309.6465,249.4442 310.2984,251.6035 309.3666,253.3405 308.4261,255.0939 306.275,255.7298 304.5373,254.7977 303.6411,254.317 302.7448,253.8362 301.8485,253.3555 300.1109,252.4234 299.4514,250.2799 300.3919,248.5265 301.3237,246.7895 303.4825,246.1378 305.2201,247.0699 308.2216,248.6799 311.2232,250.2899 314.2247,251.8999 315.962,252.8318 316.6136,254.9909 315.6818,256.728 314.8791,258.2245 313.1874,258.912 311.6191,258.4991" stroke="black" stroke-width="1" /><polyline fill="none" points="301.1709,267.7636 299.5282,266.6729 299.0731,264.4767 300.1637,262.8339 301.2639,261.1769 303.4735,260.7307 305.1163,261.8214 305.9638,262.3841 306.8113,262.9467 307.6588,263.5095 309.3015,264.6002 309.7484,266.8102 308.6575,268.4532 307.5575,270.1099 305.3562,270.5424 303.7134,269.4517 300.8759,267.5677 298.0383,265.6837 295.2007,263.7997 293.5583,262.7092 293.1028,260.5128 294.1935,258.87 295.1323,257.4561 296.8817,256.9294 298.4048,257.4875" stroke="black" stroke-width="1" /><polyline fill="none" points="298.6988,281.9072 295.1258,279.0184 291.5528,276.1297 287.9798,273.241 286.4331,271.9905 286.257,269.7542 287.4538,268.2739 288.6396,266.8071 290.8634,266.5107 292.4102,267.7612 293.5833,268.7097 294.7565,269.6582 295.9296,270.6067 297.4763,271.8572 297.6517,274.0933 296.4659,275.56 295.269,277.0403 293.046,277.3369 291.4993,276.0865" stroke="black" stroke-width="1" /><polyline fill="none" points="278.2959,281.0733 278.0652,280.0092 277.954,278.8222 279.4399,277.301 280.7702,275.9392 283.0119,275.8524 284.4718,277.2784 285.5386,278.3205 286.6055,279.3626 287.6723,280.4048 289.0951,281.7946 289.0603,284.0373 287.7301,285.399 286.3759,286.7853 284.111,286.897 282.6882,285.5071 282.1568,284.9881 281.6255,284.4691 281.0942,283.9501 282.7516,282.2534 284.4089,280.5566 286.0663,278.86" stroke="black" stroke-width="1" /><polyline fill="none" points="279.6011,300.4349 281.1662,299.1076 282.7313,297.7804 284.2964,296.4532 282.548,294.3914 280.7996,292.3296 279.0511,290.2679 279.3416,291.6175 279.0769,292.7644 277.9394,293.7291 276.3701,295.0598 274.0562,294.7963 272.8257,293.3453 271.946,292.3079 271.0663,291.2705 270.1866,290.2331 268.9004,288.7164 269.1736,286.5736 270.5994,285.3646 272.0115,284.1671 274.1571,284.2586 275.4433,285.7753" stroke="black" stroke-width="1" /><polyline fill="none" points="266.1348,305.9706 266.1343,301.8167 266.1339,297.6627 266.1335,293.5087 268.0835,296.3014 270.0335,299.094 271.9835,301.8866 273.1124,303.5034 272.7173,305.7242 271.1012,306.8527 269.4698,307.9919 267.2637,307.5873 266.1348,305.9706 264.1848,303.178 262.2348,300.3853 260.2848,297.5927 259.1559,295.976 259.5364,293.7661 261.1534,292.637 262.7839,291.4985 265.0046,291.892 266.1335,293.5087" stroke="black" stroke-width="1" /><polyline fill="none" points="261.697,310.1503 262.864,312.2086 256.6732,315.7187 252.5585,298.344" stroke="black" stroke-width="1" /><polyline fill="none" points="249.3484,315.4776 250.156,317.2765 249.3542,319.3841 247.5554,320.1918 245.7406,321.0066 243.5878,320.1879 242.7801,318.389 242.4637,317.6843 242.3939,317.153 242.4423,316.7167 242.9286,312.3016 243.415,307.8864 243.9014,303.4713 243.843,303.3412 243.7846,303.2111 243.7262,303.0809 241.5675,304.0502 239.4088,305.0193 237.2501,305.9886" stroke="black" stroke-width="1" /><polyline fill="none" points="227.3357,313.2789 226.6946,311.3964 227.7229,309.4159 229.5246,308.8024 231.3263,308.1888 233.3655,309.1247 234.0065,311.0072 234.4929,312.4353 234.9792,313.8633 235.4655,315.2914 236.1067,317.1743 235.0623,319.1595 233.2606,319.773 231.4589,320.3866 229.4359,319.446 228.7947,317.5631" stroke="black" stroke-width="1" /><polyline fill="none" points="215.4806,316.3672 215.0186,314.433 216.2278,312.5575 218.0791,312.1154 219.9303,311.6732 221.8729,312.7959 222.3348,314.7302 222.6853,316.1975 223.0358,317.6649 223.3862,319.1322 223.8483,321.0668 222.6225,322.9455 220.7713,323.3876 218.9201,323.8298 216.994,322.7039 216.532,320.7693" stroke="black" stroke-width="1" /><polyline fill="none" points="203.3884,318.3319 203.1095,316.3629 204.4891,314.6089 206.3736,314.342 208.258,314.0752 210.087,315.3748 210.3658,317.3438 210.5773,318.8376 210.7888,320.3313 211.0003,321.825 211.2792,323.7944 209.8829,325.55 207.9984,325.8169 206.114,326.0837 204.3018,324.7824 204.0229,322.813" stroke="black" stroke-width="1" /><polyline fill="none" points="198.3167,321.7801 198.4091,323.7498 196.8909,325.4178 194.9219,325.5102 192.9344,325.6035 191.2842,324.0841 191.1917,322.1144 191.1441,321.0984 191.0964,320.0825 191.0487,319.0666 190.9563,317.0969 192.457,315.4304 194.4446,315.3371 196.4135,315.2447 198.0812,316.7626 198.1736,318.7322 198.3333,322.1346 198.4929,325.5369 198.6526,328.9392 198.745,330.9086 197.2268,332.5763 195.2578,332.6686 193.5614,332.7483 192.1029,331.6497 191.6519,330.0919" stroke="black" stroke-width="1" /><polyline fill="none" points="178.9188,318.8311 179.012,316.8446 180.6944,315.3786 182.5956,315.4678 184.4968,315.557 186.0513,317.1749 185.9581,319.1614 185.8874,320.6683 185.8167,322.1753 185.7459,323.6823 185.6527,325.6691 183.9536,327.1336 182.0524,327.0444 180.1512,326.9552 178.6134,325.3387 178.7067,323.352" stroke="black" stroke-width="1" /><polyline fill="none" points="165.1999,327.3654 168.0318,324.3264 170.8637,321.2873 173.6956,318.2483 173.218,321.6207 172.7405,324.9932 172.2629,328.3656 171.9865,330.3179 170.1832,331.6732 168.2315,331.3969 166.2615,331.1179 164.9234,329.3178 165.1999,327.3654 165.6775,323.993 166.155,320.6205 166.6326,317.2481 166.909,315.2958 168.6941,313.9387 170.6469,314.2151 172.6158,314.494 173.972,316.2959 173.6956,318.2483" stroke="black" stroke-width="1" /><polyline fill="none" points="152.2987,324.5734 155.4027,321.8129 158.5067,319.0524 161.6108,316.2919 160.8195,319.6047 160.0283,322.9177 159.237,326.2305 158.7789,328.1484 156.8567,329.3289 154.9395,328.871 153.0042,328.4088 151.8406,326.4913 152.2987,324.5734 153.09,321.2605 153.8812,317.9476 154.6725,314.6347 155.1305,312.7168 157.0349,311.5328 158.9531,311.991 160.8874,312.4529 162.0688,314.3739 161.6108,316.2919" stroke="black" stroke-width="1" /><polyline fill="none" points="140.2246,324.3542 141.1652,324.6745 142.138,324.3716 142.547,323.1707 142.943,322.0076 143.3391,320.8446 143.7352,319.6816 143.1619,319.4864 142.5886,319.2911 142.0153,319.0959 143.1189,319.4717 144.2226,319.8476 145.3262,320.2234 144.7959,320.0428 144.2655,319.8622 143.7352,319.6816 144.9529,316.1058 146.1705,312.5301 147.3882,308.9543" stroke="black" stroke-width="1" /><polyline fill="none" points="129.9544,311.0148 129.9521,311.0198 129.9499,311.0247 129.9476,311.0297 130.9026,308.9028 131.8576,306.7758 132.8125,304.6488 133.2539,303.6658 132.7335,302.9789 132.2187,302.7477 132.8759,303.0428 133.1714,303.8496 132.8686,304.524 132.8499,304.5656 132.8312,304.6072 132.8125,304.6488 134.2144,304.2071 135.6838,304.1152 137.0441,304.7259 138.1705,305.2316 139.7477,306.6167 138.7155,308.9157 138.1747,310.1202 137.1586,310.5844 136.0063,310.5549 135.4461,310.5481 133.8255,310.1779 132.7336,309.9319 131.6189,309.6942 130.4952,309.8102 129.9544,311.0148 129.4067,312.2346 129.9828,314.259 131.8595,315.1016 133.6274,315.8953 134.8267,315.4006 135.7013,314.8349" stroke="black" stroke-width="1" /><polyline fill="none" points="115.7399,312.9702 116.6042,313.4603 117.6165,313.3441 118.2422,312.2405 118.8482,311.1717 119.4541,310.1029 120.0601,309.0341 119.5333,308.7354 119.0064,308.4367 118.4796,308.138 119.4938,308.7131 120.508,309.2881 121.5222,309.8631 121.0349,309.5868 120.5475,309.3105 120.0601,309.0341 121.9232,305.7482 123.7863,302.4622 125.6493,299.1762" stroke="black" stroke-width="1" /><polyline fill="none" points="110.4872,300.1866 109.2174,299.1762 106.9163,299.3977 105.7923,301.0074 105.5307,301.382 105.2691,301.7566 105.0075,302.1313 103.9471,303.6499 104.3215,305.7513 105.8542,306.8215 107.3725,307.8817 109.4935,307.4805 110.5341,305.9903 110.7957,305.6157 111.0573,305.2411 111.3189,304.8664 112.3795,303.3475 112.0055,301.2468 110.4872,300.1866 108.8142,299.0184 108.4576,296.7412 109.5861,295.1251 109.9722,294.5721 110.3583,294.0191 110.7444,293.4662 111.8731,291.8497 114.1146,291.4276 115.7876,292.5958 117.4464,293.7542 117.8214,296.0032 116.6927,297.6197 116.3002,298.1818 115.9077,298.7439 115.5152,299.3061 114.5476,300.6917 112.3541,301.3665" stroke="black" stroke-width="1" /><polyline fill="none" points="104.2441,283.7615 101.4608,287.0436 106.1169,290.992 93.4959,297.1251" stroke="black" stroke-width="1" /><polyline fill="none" points="91.0302,283.6816 89.9711,282.4521 87.6691,282.2407 86.2646,283.6126 85.9378,283.9319 85.6109,284.2512 85.2841,284.5704 83.9591,285.8647 83.9351,287.9991 85.2413,289.3363 86.5353,290.661 88.694,290.6624 89.9942,289.3923 90.321,289.073 90.6479,288.7537 90.9747,288.4344 92.3,287.1399 92.3242,285.0063 91.0302,283.6816 89.6044,282.222 89.6786,279.9182 91.0887,278.5408 91.5712,278.0695 92.0536,277.5983 92.5361,277.127 93.9464,275.7494 96.2272,275.7526 97.653,277.2122 99.0668,278.6596 99.0159,280.9391 97.6056,282.3168 97.1151,282.7959 96.6246,283.275 96.1342,283.754 94.9252,284.935 92.6444,285.1889" stroke="black" stroke-width="1" /><polyline fill="none" points="74.0844,276.6915 77.6574,273.8028 81.2304,270.9141 84.8034,268.0253 86.3501,266.7748 88.5737,267.071 89.7705,268.5513 90.9563,270.018 90.7804,272.2546 89.2337,273.5051 88.0606,274.4536 86.8874,275.402 85.7142,276.3506 84.1675,277.601 81.9443,277.3042 80.7585,275.8374 79.5616,274.3571 79.7372,272.1213 81.2839,270.8708" stroke="black" stroke-width="1" /><polyline fill="none" points="77.7523,257.8754 79.4091,256.7754 81.5863,257.2646 82.6391,258.8502 83.6919,260.4358 83.307,262.6462 81.6503,263.7462 80.3935,264.5807 79.1366,265.4152 77.8798,266.2496 76.2228,267.3498 74.0368,266.8462 72.9841,265.2606 71.9313,263.675 72.3249,261.4789 73.9819,260.3788" stroke="black" stroke-width="1" /><polyline fill="none" points="67.3503,249.8206 67.3455,249.8232 67.3407,249.8258 67.3359,249.8284 69.3905,248.7263 71.4451,247.6242 73.4996,246.5222 74.4492,246.0128 74.4563,245.151 74.1895,244.6537 74.53,245.2886 74.2717,246.108 73.6202,246.4575 73.58,246.479 73.5398,246.5006 73.4996,246.5222 74.8797,247.0277 76.0999,247.8518 76.8047,249.1658 77.3883,250.2538 77.7924,252.3136 75.5717,253.5048 74.4081,254.129 73.3199,253.8766 72.4251,253.1499 71.9855,252.8026 70.9276,251.5202 70.2128,250.659 69.4748,249.7903 68.5139,249.1965 67.3503,249.8206 66.172,250.4527 65.3928,252.4079 66.3653,254.2208 67.2813,255.9285 68.5333,256.2686 69.5713,256.3542" stroke="black" stroke-width="1" /><polyline fill="none" points="70.2893,235.4044 66.3232,237.0745 68.6924,242.7009 54.6622,242.4686" stroke="black" stroke-width="1" /><polyline fill="none" points="66.4165,224.129 62.3115,225.4203 64.1434,231.2438 50.1965,229.6987" stroke="black" stroke-width="1" /><polyline fill="none" points="47.1347,216.8323 47.3428,217.8038 48.1022,218.4831 49.3427,218.2174 50.5441,217.9601 51.7455,217.7027 52.9468,217.4454 52.82,216.8532 52.6931,216.261 52.5663,215.6689 52.8105,216.8089 53.0547,217.9489 53.2989,219.0889 53.1815,218.5411 53.0642,217.9932 52.9468,217.4454 56.6404,216.6543 60.3341,215.8631 64.0277,215.072" stroke="black" stroke-width="1" /><polyline fill="none" points="48.2844,201.3871 51.9452,203.3502 55.606,205.3134 59.2668,207.2765 55.884,207.6749 52.5014,208.0732 49.1187,208.4716 47.1604,208.7022 45.39,207.3042 45.1595,205.3466 44.9268,203.3706 46.326,201.6177 48.2844,201.3871 51.6671,200.9887 55.0498,200.5904 58.4324,200.192 60.3908,199.9614 62.1583,201.3413 62.389,203.3 62.6215,205.275 61.2251,207.0459 59.2668,207.2765" stroke="black" stroke-width="1" /><polyline fill="none" points="52.3023,191.6726 52.3657,190.0511 50.8259,188.3269 48.8631,188.373 48.4063,188.3837 47.9495,188.3944 47.4928,188.4051 45.641,188.4485 44.1682,189.9935 44.2121,191.8624 44.2555,193.7137 45.8337,195.1864 47.6508,195.1438 48.1076,195.1331 48.5643,195.1224 49.0211,195.1117 50.8732,195.0683 52.3457,193.524 52.3023,191.6726 52.2544,189.6328 53.8795,187.9981 55.8501,187.9519 56.5243,187.9361 57.1985,187.9203 57.8728,187.9045 59.8438,187.8582 61.5101,189.4157 61.5579,191.4556 61.6053,193.4783 60.0138,195.1111 58.0429,195.1574 57.3574,195.1734 56.672,195.1895 55.9866,195.2056 54.297,195.2452 52.4554,193.8758" stroke="black" stroke-width="1" /><polyline fill="none" points="44.6717,175.0054 49.2551,175.3283 53.8384,175.6512 58.4217,175.9741 60.4058,176.1139 61.8304,177.8466 61.6967,179.7455 61.5641,181.627 59.9106,183.1432 57.9265,183.0034 56.4216,182.8974 54.9167,182.7914 53.4118,182.6853 51.4277,182.5455 50.0038,180.8126 50.1363,178.9311 50.2701,177.0322 51.9229,175.5163 53.907,175.6561" stroke="black" stroke-width="1" /><polyline fill="none" points="61.8774,164.0082 62.6758,164.7486 63.4465,165.6582 63.0991,167.7561 62.7881,169.6342 60.9998,170.9889 58.9865,170.6555 57.5151,170.4118 56.0438,170.1681 54.5725,169.9245 52.6102,169.5995 51.3548,167.7408 51.6658,165.8628 51.9825,163.9509 53.7756,162.5626 55.7378,162.8876 56.4706,163.0089 57.2034,163.1303 57.9362,163.2516 57.5487,165.5916 57.1611,167.9316 56.7737,170.2716" stroke="black" stroke-width="1" /><polyline fill="none" points="51.5013,155.9855 49.5947,155.4826 48.4597,153.534 48.9627,151.6274 49.47,149.7038 51.4602,148.5444 53.3668,149.0473 54.1138,149.2443 54.5708,149.5241 54.8797,149.836 58.0072,152.9901 61.1348,156.1442 64.2624,159.2983 64.4004,159.3347 64.5383,159.371 64.6762,159.4074 65.2797,157.1194 65.8832,154.8314 66.4867,152.5433" stroke="black" stroke-width="1" /><polyline fill="none" points="61.8566,145.8223 60.0054,145.1431 59.0573,143.0966 59.7363,141.246 60.4217,139.3781 62.4624,138.4469 64.3136,139.1261 65.2684,139.4765 66.2232,139.8268 67.178,140.1772 69.0292,140.8564 69.9827,142.8863 69.2973,144.7542 68.6183,146.6047 66.5722,147.5526 64.721,146.8734 61.5234,145.7001 58.3258,144.5268 55.1282,143.3535 53.2773,142.6744 52.3295,140.628 53.0085,138.7775 53.5935,137.1832 55.1721,136.2653 56.7828,136.4542" stroke="black" stroke-width="1" /><polyline fill="none" points="59.5438,123.6993 58.6596,125.5512 57.7755,127.403 56.8913,129.2549 59.3308,130.4196 61.7703,131.5844 64.2098,132.7492 63.3921,131.6368 63.1637,130.4822 63.8064,129.1362 64.6929,127.2794 66.9117,126.5721 68.6286,127.3918 69.8561,127.9779 71.0835,128.5639 72.311,129.15 74.1055,130.0068 74.7339,132.0736 73.9285,133.7605 73.1307,135.4313 71.1359,136.2266 69.3413,135.3698" stroke="black" stroke-width="1" /><polyline fill="none" points="65.804,119.0123 64.2738,118.0967 63.6859,116.0068 64.681,114.3438 65.6755,112.6818 67.7315,112.1527 69.4674,113.1915 69.7419,113.3557 70.0164,113.52 70.2909,113.6842 72.9391,115.2689 71.9979,117.8427 71.8215,118.1375 71.6514,118.4218 71.4813,118.7062 71.3111,118.9905 71.4813,118.7062 71.6514,118.4218 71.8215,118.1375 72.3413,117.269 74.4806,116.0315 76.5399,117.2637 77.1432,117.6247 77.7466,117.9857 78.3499,118.3468 80.0561,119.3677 80.582,121.5612 79.5607,123.268 78.5306,124.9894 76.3582,125.5475 74.652,124.5266" stroke="black" stroke-width="1" /><polyline fill="none" points="73.8881,100.7906 72.6741,102.4451 71.4602,104.0996 70.2462,105.7541 72.4258,107.3533 74.6053,108.9525 76.7849,110.5517 76.1889,109.3065 76.1798,108.1294 77.0621,106.9269 78.2793,105.268 80.5912,104.9868 82.1251,106.1123 83.2217,106.9169 84.3184,107.7216 85.415,108.5262 87.0184,109.7026 87.2504,111.8503 86.1445,113.3575 85.0492,114.8503 82.941,115.2596 81.3377,114.0832" stroke="black" stroke-width="1" /><polyline fill="none" points="86.2989,102.3903 84.8254,101.08 84.693,98.8284 86.0027,97.3553 87.3249,95.8684 89.5649,95.7496 91.0385,97.0598 91.7985,97.7357 92.5586,98.4115 93.3186,99.0873 94.7922,100.3975 94.9357,102.6356 93.6136,104.1225 92.3038,105.5956 90.0527,105.7279 88.5791,104.4177 86.0337,102.1544 83.4883,99.8912 80.9429,97.628 79.4696,96.318 79.3375,94.0666 80.6473,92.5935 81.7757,91.3244 83.5807,91.0487 85.0103,91.8146" stroke="black" stroke-width="1" /><polyline fill="none" points="103.7465,93.681 100.8124,90.5329 96.3465,94.6953 91.7316,81.4436" stroke="black" stroke-width="1" /><polyline fill="none" points="105.4445,74.7974 105.6396,78.9468 105.8347,83.0962 106.0299,87.2455 103.9511,84.5474 101.8724,81.8492 99.7936,79.151 98.5901,77.589 98.8807,75.3521 100.4422,74.149 102.0184,72.9347 104.241,73.2354 105.4445,74.7974 107.5232,77.4956 109.602,80.1937 111.6807,82.8919 112.8842,84.4539 112.6076,86.6792 111.0453,87.8829 109.47,89.0966 107.2333,88.8076 106.0299,87.2455" stroke="black" stroke-width="1" /><polyline fill="none" points="110.4498,71.3079 109.3979,69.64 109.8962,67.4408 111.5641,66.3889 113.2467,65.3277 115.4931,65.8364 116.545,67.5043 116.9571,68.1577 117.1006,68.6739 117.1139,69.1127 117.2514,73.5525 117.3888,77.9922 117.5263,82.4319 117.6023,82.5525 117.6784,82.6732 117.7545,82.7938 119.756,81.5315 121.7575,80.2692 123.7589,79.007" stroke="black" stroke-width="1" /><polyline fill="none" points="128.102,61.3049 127.5201,65.4179 126.9381,69.5309 126.3561,73.6439 124.8169,70.6054 123.2777,67.567 121.7385,64.5285 120.8474,62.7695 121.55,60.626 123.3084,59.7352 125.0833,58.8361 127.2109,59.5459 128.102,61.3049 129.6412,64.3434 131.1804,67.3818 132.7196,70.4203 133.6107,72.1793 132.9241,74.314 131.1647,75.2052 129.3907,76.1039 127.2472,75.4029 126.3561,73.6439" stroke="black" stroke-width="1" /><polyline fill="none" points="143.8583,65.6786 144.5869,67.5289 143.6525,69.5554 141.8816,70.2528 140.1107,70.9501 138.0299,70.1108 137.3013,68.2605 136.7485,66.8567 136.1958,65.453 135.6431,64.0493 134.9144,62.1986 135.8646,60.1666 137.6355,59.4693 139.4064,58.772 141.4714,59.6167 142.2001,61.4674" stroke="black" stroke-width="1" /><polyline fill="none" points="145.5655,53.1736 144.9086,50.9005 151.7455,48.9246 151.7113,66.7799" stroke="black" stroke-width="1" /><polyline fill="none" points="160.0271,50.4739 162.0093,46.6594 165.2059,63.5026" stroke="black" stroke-width="1" /><polyline fill="none" points="140.4526,120.3297 136.578,231.1149 188.1635,280.8196 136.578,231.1149 188.8365,96.1804 96.1804,188.1635 136.578,231.1149 126.744,171.7336 250.763,172.1919 140.8637,108.5745" stroke="black" stroke-width="1" /><polyline fill="none" points="132.0245,123.8442 149.7029,93.3047" stroke="black" stroke-width="1" /><polyline fill="none" points="152.6261,108.5745 152.4813,106.7344 152.0504,104.9397 151.3441,103.2345 150.3797,101.6607 149.181,100.2572 147.7775,99.0585 146.2038,98.0941 144.4985,97.3878 142.7038,96.9569 140.8637,96.8121 139.0237,96.9569 137.2289,97.3878 135.5237,98.0941 133.95,99.0585 132.5465,100.2572 131.3477,101.6607 130.3834,103.2344 129.677,104.9397 129.2462,106.7344 129.1013,108.5745 129.2462,110.4145 129.677,112.2093 130.3834,113.9145 131.3477,115.4882 132.5465,116.8917 133.95,118.0904 135.5237,119.0548 137.2289,119.7612 139.0237,120.192 140.8637,120.3369 142.7038,120.192 144.4985,119.7612 146.2038,119.0548 147.7775,118.0904 149.181,116.8917 150.3797,115.4882 151.3441,113.9145 152.0504,112.2093 152.4813,110.4145 152.6261,108.5745" stroke="black" stroke-width="1" /><polyline fill="none" points="188.5,69.0664 199.6839,69.5912 210.7696,71.161 221.6595,73.7619 232.2581,77.3712 242.4721,81.9571 252.2118,87.4792 261.3915,93.8892 269.9308,101.1306 277.7544,109.1398 284.7936,117.8464 290.9866,127.1739 296.2789,137.0404 300.6241,147.3591 303.9839,158.0393 306.3289,168.9873 307.6383,180.1067 307.9008,191.2998 307.114,202.4684 305.2847,213.5142 302.4292,224.3402 298.5725,234.8512 293.7484,244.9549 287.9994,254.5625 281.376,263.5894 273.9365,271.9565 265.7461,279.5902 256.8768,286.4234 247.4067,292.3961 237.4188,297.4556 227.0011,301.5577 216.2451,304.6663 205.2452,306.7539 194.0981,307.8023 182.9019,307.8023 171.7548,306.7539 160.7549,304.6663 149.9989,301.5577 139.5811,297.4556 129.5933,292.3961 120.1232,286.4234 111.2539,279.5902 103.0635,271.9565 95.6239,263.5894 89.0006,254.5625 83.2516,244.9549 78.4275,234.8512 74.5708,224.3402 71.7153,213.5142 69.8861,202.4684 69.0992,191.2998 69.3617,180.1067 70.6712,168.9872 73.0161,158.0393 76.3759,147.3591 80.7211,137.0404 86.0134,127.174 92.2064,117.8464 99.2457,109.1398 107.0692,101.1306 115.6085,93.8892 124.7882,87.4792 134.5279,81.957 144.7419,77.3712 155.3405,73.7619 166.2304,71.161 177.3161,69.5912 188.5,69.0664" stroke="black" stroke-width="1" />

    </g>
  </g>
  <WCB
     pausedposy="0"
     pausedposx="0"
     lastknownposy="0"
     lastknownposx="0"
     lastpathnc="0"
     lastpath="0"
     node="0"
     layer="0" />
</svg>
