<?xml version="1.0" encoding="UTF-8" standalone="no"?>
<!-- Created with Inkscape (http://www.inkscape.org/) -->

<svg
   xmlns:dc="http://purl.org/dc/elements/1.1/"
   xmlns:cc="http://creativecommons.org/ns#"
   xmlns:rdf="http://www.w3.org/1999/02/22-rdf-syntax-ns#"
   xmlns:svg="http://www.w3.org/2000/svg"
   xmlns="http://www.w3.org/2000/svg"
   xmlns:sodipodi="http://sodipodi.sourceforge.net/DTD/sodipodi-0.dtd"
   xmlns:inkscape="http://www.inkscape.org/namespaces/inkscape"
   width="100mm"
   height="100mm"
   viewBox="0 0 100 100"
   version="1.1"
   id="svg19124"
   inkscape:version="0.92.3 (2405546, 2018-03-11)"
   sodipodi:docname="inkscape_template_TMP.svg"
   shape-rendering="crispEdges">
  <sodipodi:namedview
     pagecolor="#ffffff"
     bordercolor="#666666"
     borderopacity="1"
     objecttolerance="10"
     gridtolerance="10"
     guidetolerance="10"
     inkscape:pageopacity="0"
     inkscape:pageshadow="2"
     inkscape:window-width="1568"
     inkscape:window-height="1550"
     id="namedview24021"
     showgrid="false"
     inkscape:zoom="0.62441667"
     inkscape:cx="712.66515"
     inkscape:cy="409.98265"
     inkscape:window-x="0"
     inkscape:window-y="0"
     inkscape:window-maximized="0"
     inkscape:current-layer="layer1" />
  <defs
     id="defs19118" />
  <metadata
     id="metadata19121">
    <rdf:RDF>
      <cc:Work
         rdf:about="">
        <dc:format>image/svg+xml</dc:format>
        <dc:type
           rdf:resource="http://purl.org/dc/dcmitype/StillImage" />
        <dc:title />
      </cc:Work>
    </rdf:RDF>
  </metadata>
  <g
     transform="translate(0,-197)"
     id="layer1"
     inkscape:groupmode="layer"
     inkscape:label="Layer 1">
    <g
       id="g24447"
       transform="matrix(0.26458333,0,0,0.26458333,0.10666333,197.9735)">

<polyline fill="none" points="192.1004,47.7394 189.7225,51.1455 187.3447,54.5516 184.9669,57.9577 184.9669,54.5516 184.9669,51.1455 184.9669,47.7394 184.9669,45.7676 186.5623,44.1729 188.5334,44.1729 190.5231,44.1729 192.1004,45.7676 192.1004,47.7394 192.1004,51.1455 192.1004,54.5516 192.1004,57.9577 192.1004,59.9295 190.5231,61.5235 188.5509,61.5235 186.5623,61.5235 184.9669,59.9295 184.9669,57.9577" stroke="black" stroke-width="1" /><polyline fill="none" points="197.8298,61.5877 200.7471,57.7851 198.696,53.7706 202.935,62.0679 200.7471,57.7851 203.4811,54.2207" stroke="black" stroke-width="1" /><polyline fill="none" points="210.2846,55.059 210.6554,53.1049 212.5428,51.893 214.413,52.2479 216.2826,52.6028 217.5785,54.4188 217.2077,56.3729 216.9264,57.8551 216.6451,59.3373 216.3638,60.8194 215.993,62.7732 214.1216,63.9889 212.2521,63.634 210.3818,63.2791 209.0863,61.4624 209.4572,59.5086 209.4517,59.5076 209.4462,59.5065 209.4407,59.5055 210.2974,54.9914 211.1541,50.4773 212.0108,45.9632" stroke="black" stroke-width="1" /><polyline fill="none" points="224.2171,52.3012 224.7646,50.4068 226.7393,49.3179 228.6336,49.8654 230.5447,50.4177 231.6572,52.4345 231.1097,54.3288 230.8952,55.071 230.6048,55.5213 230.2857,55.8228 227.0592,58.8756 223.8327,61.9283 220.6061,64.9811 220.5665,65.1182 220.5269,65.2552 220.4873,65.3922 222.7606,66.0492 225.0338,66.7061 227.3071,67.3631" stroke="black" stroke-width="1" /><polyline fill="none" points="243.4219,58.8463 239.9615,61.1443 236.5011,63.4424 233.0407,65.7404 234.2886,62.5712 235.5365,59.4019 236.7844,56.2327 237.5069,54.398 239.5756,53.4987 241.4097,54.2209 243.261,54.9499 244.1443,57.0115 243.4219,58.8463 242.174,62.0155 240.926,65.1848 239.6781,68.354 238.9557,70.1887 236.9041,71.094 235.069,70.3714 233.2187,69.6428 232.3182,67.5752 233.0407,65.7404" stroke="black" stroke-width="1" /><polyline fill="none" points="248.3212,76.2715 250.2659,72.4326 244.8199,69.6738 255.6708,60.7766" stroke="black" stroke-width="1" /><polyline fill="none" points="256.7554,73.6038 257.8073,71.9359 260.007,71.4374 261.6743,72.489 263.3572,73.5504 263.8404,75.7409 262.7885,77.4087 262.2459,78.269 261.7034,79.1292 261.1608,79.9895 260.1089,81.6574 257.9244,82.1646 256.2415,81.1031 254.5742,80.0516 254.0758,77.8524 255.1277,76.1845 256.9447,73.3036 258.7617,70.4226 260.5786,67.5417 261.6303,65.8741 263.8299,65.3759 265.4971,66.4274 266.9336,67.3334 267.5004,69.0691 266.9784,70.6046" stroke="black" stroke-width="1" /><polyline fill="none" points="269.9359,88.4934 268.9061,88.847 267.7402,89.0962 266.0557,87.7984 264.5477,86.6366 264.1992,84.4204 265.4447,82.8037 266.3549,81.6223 267.2651,80.4409 268.1753,79.2595 269.3892,77.6839 271.6205,77.4562 273.1285,78.618 274.6637,79.8008 275.0395,82.0371 273.8256,83.6127 273.3723,84.2011 272.9189,84.7895 272.4656,85.3779 270.5867,83.9303 268.7078,82.4827 266.8289,81.0352" stroke="black" stroke-width="1" /><polyline fill="none" points="282.94,83.8913 287.188,83.2328 275.4993,95.7741" stroke="black" stroke-width="1" /><polyline fill="none" points="298.2685,94.7999 296.9049,93.2663 295.5414,91.7328 294.1778,90.1992 292.1576,91.9955 290.1373,93.7918 288.1171,95.588 289.4596,95.2661 290.6124,95.5037 291.6035,96.6183 292.9707,98.156 292.7614,100.4754 291.3396,101.7396 290.3232,102.6434 289.3067,103.5472 288.2902,104.451 286.8041,105.7724 284.6555,105.5494 283.4133,104.1525 282.183,102.7688 282.2243,100.6216 283.7104,99.3002" stroke="black" stroke-width="1" /><polyline fill="none" points="301.724,110.0284 300.1342,111.1949 297.9156,110.8656 296.7491,109.2758 295.5724,107.6722 295.9146,105.4441 297.5044,104.2776 298.3246,103.6758 299.1448,103.074 299.965,102.4722 301.5548,101.3057 303.7835,101.6474 304.9502,103.2375 306.1266,104.8409 305.7744,107.0565 304.1846,108.223 301.4384,110.2379 298.6923,112.2528 295.9461,114.2678 294.3566,115.4341 292.1377,115.105 290.9712,113.5152 289.9672,112.1468 290.0753,110.323 291.1239,109.0854" stroke="black" stroke-width="1" /><polyline fill="none" points="308.5746,120.9756 306.8826,121.9881 304.7046,121.4526 303.6921,119.7605 302.6708,118.0538 303.2201,115.8675 304.9122,114.855 305.7851,114.3326 306.6581,113.8103 307.531,113.2879 309.2231,112.2754 311.41,112.8244 312.4226,114.5167 313.4438,116.2232 312.8856,118.3961 311.1935,119.4086 308.2707,121.1575 305.348,122.9064 302.4252,124.6554 300.7335,125.6677 298.5551,125.1323 297.5426,123.4402 296.6711,121.9839 296.9496,120.1782 298.1095,119.0442" stroke="black" stroke-width="1" /><polyline fill="none" points="314.6997,125.7661 318.8936,126.7099 303.4227,134.0966" stroke="black" stroke-width="1" /><polyline fill="none" points="310.7295,147.3532 309.6699,147.1029 308.5508,146.6917 307.8183,144.6954 307.1625,142.9082 308.05,140.8478 309.9659,140.1448 311.366,139.6311 312.7661,139.1174 314.1662,138.6036 316.0334,137.9185 318.0422,138.9162 318.698,140.7034 319.3655,142.5227 318.4904,144.6147 316.6232,145.2999 315.9258,145.5557 315.2285,145.8116 314.5312,146.0674 313.7142,143.8407 312.8972,141.614 312.0801,139.3873" stroke="black" stroke-width="1" /><polyline fill="none" points="329.0002,154.9091 324.5575,156.0809 320.1148,157.2528 315.6721,158.4246 313.7488,158.9319 311.8417,157.751 311.3562,155.9103 310.8751,154.0865 311.9516,152.1182 313.8748,151.611 315.3336,151.2262 316.7923,150.8414 318.251,150.4567 320.1743,149.9494 322.0808,151.1308 322.5619,152.9546 323.0474,154.7953 321.9715,156.763 320.0482,157.2703" stroke="black" stroke-width="1" /><polyline fill="none" points="331.33,167.8014 330.9947,165.7768 330.6594,163.7523 330.3242,161.7278 327.6572,162.1694 324.9902,162.6111 322.3232,163.0528 323.6304,163.4966 324.4788,164.3126 324.7224,165.784 325.0586,167.8139 323.6443,169.6642 321.7673,169.9751 320.4254,170.1973 319.0836,170.4195 317.7416,170.6417 315.7797,170.9666 314.0813,169.6318 313.7759,167.7876 313.4734,165.961 314.6537,164.1668 316.6156,163.8419" stroke="black" stroke-width="1" /><polyline fill="none" points="315.5205,182.2064 319.8132,181.904 319.3842,175.8142 332.5906,180.557" stroke="black" stroke-width="1" /><polyline fill="none" points="332.6845,194.7964 332.7326,192.7449 332.7807,190.6934 332.8289,188.6418 330.1263,188.5785 327.4237,188.5151 324.7211,188.4517 325.9227,189.1315 326.604,190.0914 326.569,191.5824 326.5208,193.6394 324.7863,195.1935 322.8843,195.1489 321.5245,195.1171 320.1647,195.0852 318.8049,195.0533 316.8168,195.0067 315.397,193.3786 315.4409,191.5098 315.4843,189.6588 316.9784,188.1162 318.9665,188.1628" stroke="black" stroke-width="1" /><polyline fill="none" points="328.8932,201.6364 330.6643,201.845 332.0566,203.5107 331.83,205.4354 331.6034,207.3589 329.9445,208.6837 327.9355,208.4471 327.6178,208.4097 327.3001,208.3723 326.9824,208.3349 323.9174,207.9739 323.7218,205.2404 323.762,204.8992 323.8008,204.5701 323.8395,204.2411 323.8782,203.912 323.8395,204.2411 323.8008,204.5701 323.762,204.8992 323.6436,205.9044 322.1988,207.9096 319.8156,207.629 319.1172,207.5467 318.4189,207.4645 317.7206,207.3823 315.746,207.1497 314.3678,205.3641 314.6005,203.3887 314.8351,201.3964 316.5883,199.9975 318.5629,200.23" stroke="black" stroke-width="1" /><polyline fill="none" points="319.8762,213.0001 321.8043,213.4131 323.03,215.3065 322.6171,217.2339 322.2004,219.1795 320.3104,220.3876 318.3823,219.9747 317.3878,219.7616 316.3932,219.5486 315.3987,219.3356 313.4706,218.9226 312.242,217.0465 312.6587,215.1009 313.0715,213.1735 314.9645,211.9481 316.8926,212.3611 320.2231,213.0744 323.5537,213.7878 326.8842,214.5012 328.812,214.9141 330.0374,216.8074 329.6245,218.7348 329.2688,220.3954 327.8346,221.5255 326.2133,221.5643" stroke="black" stroke-width="1" /><polyline fill="none" points="318.4497,229.402 317.8669,230.9165 318.7687,233.045 320.6415,233.6342 321.0774,233.7713 321.5132,233.9084 321.9491,234.0455 323.7159,234.6014 325.6082,233.6136 326.1691,231.8304 326.7249,230.0639 325.7056,228.161 323.9718,227.6156 323.536,227.4785 323.1001,227.3414 322.6642,227.2043 320.8971,226.6483 319.0054,227.6355 318.4497,229.402 317.8374,231.3484 315.7721,232.3719 313.8918,231.7804 313.2485,231.578 312.6051,231.3757 311.9618,231.1733 310.0811,230.5817 309.0059,228.5702 309.6182,226.6238 310.2253,224.6937 312.2582,223.6611 314.1389,224.2527 314.7929,224.4585 315.4469,224.6642 316.1009,224.87 317.7131,225.3771 319.015,227.2671" stroke="black" stroke-width="1" /><polyline fill="none" points="320.2999,247.6393 316.0654,245.8561 311.8308,244.073 307.5963,242.2898 305.7632,241.5179 304.9731,239.4185 305.7119,237.664 306.4438,235.9257 308.4979,235.0235 310.331,235.7955 311.7214,236.381 313.1118,236.9664 314.5021,237.5519 316.3353,238.3238 317.1245,240.4233 316.3925,242.1616 315.6537,243.916 313.6005,244.8182 311.7674,244.0463" stroke="black" stroke-width="1" /><polyline fill="none" points="300.4676,252.5029 299.9506,251.5447 299.5142,250.4352 300.5194,248.5612 301.4192,246.8837 303.5487,246.1778 305.3471,247.1425 306.6613,247.8474 307.9756,248.5524 309.2898,249.2573 311.0426,250.1975 311.6318,252.3617 310.7319,254.0392 309.8159,255.747 307.671,256.4831 305.9182,255.5429 305.2637,255.1918 304.6091,254.8407 303.9546,254.4896 305.0757,252.3995 306.1969,250.3093 307.3181,248.2191" stroke="black" stroke-width="1" /><polyline fill="none" points="307.1325,264.5804 308.4761,268.6638 294.1937,259.181" stroke="black" stroke-width="1" /><polyline fill="none" points="298.8748,281.4851 300.165,279.8893 301.4551,278.2935 302.7453,276.6978 300.6431,274.9981 298.541,273.2985 296.4388,271.5989 296.9757,272.8708 296.9296,274.0469 295.9919,275.2068 294.6982,276.8068 292.3758,276.9793 290.8963,275.7832 289.8386,274.928 288.7809,274.0729 287.7231,273.2177 286.1767,271.9674 286.0456,269.8112 287.2209,268.3575 288.3849,266.9178 290.51,266.6077 292.0565,267.8579" stroke="black" stroke-width="1" /><polyline fill="none" points="286.5526,279.3055 287.9631,280.6833 287.9898,282.9387 286.6125,284.3488 285.2221,285.7721 282.979,285.7857 281.5684,284.4079 280.8409,283.6972 280.1133,282.9865 279.3858,282.2758 277.9752,280.8979 277.9368,278.6556 279.3271,277.2323 280.7045,275.8222 282.9594,275.7955 284.3699,277.1734 286.8065,279.5535 289.243,281.9335 291.6795,284.3136 293.0898,285.6912 293.1162,287.9463 291.7389,289.3564 290.5522,290.5712 288.7362,290.762 287.3441,289.9299" stroke="black" stroke-width="1" /><polyline fill="none" points="270.3518,290.3738 269.0656,288.8571 269.2968,286.6376 270.7484,285.4066 272.2,284.1756 274.4402,284.2993 275.7264,285.816 276.7022,286.9666 277.6779,288.1172 278.6536,289.2678 279.9401,290.7848 279.6956,293.0146 278.244,294.2456 276.7924,295.4766 274.5654,295.3426 273.279,293.8256" stroke="black" stroke-width="1" /><polyline fill="none" points="263.5689,301.6465 263.572,301.6509 263.5751,301.6555 263.5783,301.6599 262.2435,299.7484 260.9087,297.8367 259.5739,295.9251 258.957,295.0417 258.1003,295.1354 257.6376,295.4585 258.2282,295.0461 259.0723,295.2068 259.4955,295.813 259.5217,295.8504 259.5478,295.8878 259.5739,295.9251 259.9146,294.4954 260.5902,293.1872 261.8128,292.3336 262.8251,291.6267 264.8235,290.9844 266.2663,293.0507 267.0222,294.1333 266.8988,295.2435 266.2818,296.2171 265.9883,296.6944 264.8384,297.895 264.0668,298.7056 263.2903,299.5401 262.8129,300.5639 263.5689,301.6465 264.3344,302.7428 266.3673,303.2879 268.054,302.1102 269.6429,301.0007 269.8342,299.7175 269.7978,298.6766" stroke="black" stroke-width="1" /><polyline fill="none" points="261.697,310.1503 262.864,312.2086 256.6732,315.7187 252.5585,298.344" stroke="black" stroke-width="1" /><polyline fill="none" points="242.8697,318.3862 243.6438,314.3051 244.4179,310.2239 245.192,306.1427 246.5871,309.2499 247.9822,312.3572 249.3773,315.4645 250.185,317.2633 249.3827,319.3716 247.5845,320.179 245.7693,320.9939 243.6773,320.1851 242.8697,318.3862 241.4746,315.279 240.0795,312.1718 238.6844,309.0645 237.8767,307.2656 238.6627,305.1655 240.4619,304.3577 242.276,303.5432 244.3844,304.3438 245.192,306.1427" stroke="black" stroke-width="1" /><polyline fill="none" points="232.3973,317.4687 230.8315,317.8948 229.6488,319.881 230.2817,321.7395 230.429,322.172 230.5763,322.6046 230.7236,323.037 231.3207,324.7904 233.2364,325.7317 235.006,325.1291 236.759,324.5321 237.6902,322.5847 237.1043,320.8641 236.957,320.4316 236.8097,319.9991 236.6624,319.5666 236.0652,317.8129 234.1503,316.8717 232.3973,317.4687 230.4658,318.1264 228.4188,317.0668 227.7834,315.2009 227.5659,314.5625 227.3485,313.9241 227.1311,313.2856 226.4956,311.4194 227.4813,309.3625 229.4128,308.7047 231.328,308.0525 233.3632,309.0807 233.9987,310.9469 234.2198,311.5959 234.4408,312.245 234.6618,312.894 235.2066,314.4938 234.453,316.6615" stroke="black" stroke-width="1" /><polyline fill="none" points="223.2827,319.1569 223.7448,321.0915 222.5194,322.9701 220.6679,323.4123 218.817,323.8544 216.8909,322.7285 216.4288,320.7939 216.0784,319.3265 215.7279,317.8592 215.3775,316.3918 214.9155,314.4576 216.1247,312.5821 217.9756,312.14 219.8272,311.6978 221.7531,312.8245 222.215,314.7587 222.2205,314.7574 222.2259,314.7561 222.2314,314.7549 223.2987,319.2238 224.3661,323.6928 225.4335,328.1618" stroke="black" stroke-width="1" /><polyline fill="none" points="203.1345,316.6365 203.6012,315.6527 204.2375,314.6446 206.343,314.3464 208.2279,314.0795 210.0568,315.3788 210.3429,317.3995 210.552,318.8761 210.7611,320.3527 210.9702,321.8293 211.249,323.7987 209.8527,325.554 207.9679,325.8209 206.0491,326.0927 204.1867,324.7988 203.9079,322.8294 203.8037,322.094 203.6996,321.3586 203.5955,320.6231 205.9439,320.2906 208.2923,319.958 210.6408,319.6255" stroke="black" stroke-width="1" /><polyline fill="none" points="191.9195,332.9195 191.7041,328.3298 191.4888,323.7402 191.2734,319.1506 191.1802,317.1638 192.7344,315.5462 194.6359,315.457 196.52,315.3686 198.2191,316.8335 198.3123,318.8203 198.3831,320.3272 198.4538,321.8342 198.5245,323.3412 198.6177,325.328 197.0632,326.9448 195.1791,327.0332 193.2776,327.1225 191.5788,325.6583 191.4856,323.6715" stroke="black" stroke-width="1" /><polyline fill="none" points="178.3371,325.8833 178.4296,323.9136 180.0804,322.3954 182.0501,322.4878 184.0369,322.581 185.5545,324.248 185.462,326.2177 185.4144,327.2338 185.3667,328.25 185.319,329.2662 185.2266,331.2359 183.5596,332.7541 181.5895,332.6617 179.6031,332.5685 178.1017,330.9016 178.1941,328.9319 178.3537,325.5295 178.5134,322.1272 178.673,318.7249 178.7654,316.7556 180.4164,315.2369 182.386,315.3293 184.0814,315.4089 185.4316,316.6396 185.7348,318.2332" stroke="black" stroke-width="1" /><polyline fill="none" points="172.076,328.5468 171.826,330.3124 170.1281,331.6653 168.2093,331.3936 166.2915,331.122 165.006,329.4325 165.2897,327.4296 165.3345,327.1129 165.3794,326.7961 165.4242,326.4794 165.8569,323.4237 168.5943,323.2922 168.9344,323.3404 169.2625,323.3868 169.5905,323.4333 169.9186,323.4797 169.5905,323.4333 169.2625,323.3868 168.9344,323.3404 167.9323,323.1985 165.9615,321.707 166.2979,319.331 166.3965,318.6348 166.4951,317.9387 166.5937,317.2425 166.8724,315.2738 168.6899,313.9379 170.6593,314.2168 172.6456,314.498 174.003,316.2835 173.7242,318.2522" stroke="black" stroke-width="1" /><polyline fill="none" points="160.9268,319.2657 160.4688,321.1836 158.5471,322.3646 156.6299,321.9066 154.6946,321.4444 153.5311,319.5266 153.9892,317.6087 154.2255,316.6194 154.4617,315.6302 154.698,314.641 155.1561,312.7231 157.0605,311.5388 158.9958,312.001 160.913,312.4589 162.0937,314.3801 161.6356,316.298 160.8444,319.6109 160.0531,322.9238 159.2619,326.2367 158.8039,328.1542 156.8824,329.3348 154.9651,328.8769 153.3133,328.4824 152.2172,327.0221 152.2164,325.4003" stroke="black" stroke-width="1" /><polyline fill="none" points="140.5936,317.6605 141.2292,315.7939 143.2367,314.7937 145.1033,315.4293 146.9861,316.0705 147.9812,318.0933 147.3455,319.9598 147.0176,320.9229 146.6897,321.8858 146.3617,322.8488 145.7261,324.7154 143.7031,325.7111 141.8362,325.0753 139.9537,324.4343 138.9741,322.416 139.6097,320.5494 140.7077,317.3252 141.8057,314.101 142.9037,310.8767 143.5393,309.0105 145.5469,308.0099 147.4135,308.6456 149.0201,309.1927 149.9756,310.7499 149.8244,312.365" stroke="black" stroke-width="1" /><polyline fill="none" points="132.524,304.6887 133.4435,304.1055 134.5196,303.5923 136.4595,304.4633 138.1962,305.243 139.05,307.3176 138.2141,309.1794 137.6032,310.5399 136.9924,311.9004 136.3815,313.2609 135.5669,315.0754 133.4494,315.8153 131.7128,315.0356 129.9449,314.2418 129.0599,312.1539 129.8745,310.3394 130.1788,309.6618 130.483,308.9842 130.7872,308.3066 132.951,309.2781 135.1148,310.2496 137.2786,311.2211" stroke="black" stroke-width="1" /><polyline fill="none" points="121.0563,300.4344 122.0371,298.7045 124.2004,298.157 125.8561,299.0957 127.5118,300.0345 128.1674,302.1802 127.1865,303.9102 126.4424,305.2225 125.6984,306.5349 124.9543,307.8473 123.9733,309.5775 121.7957,310.1161 120.14,309.1774 118.4844,308.2386 117.843,306.1018 118.824,304.3716" stroke="black" stroke-width="1" /><polyline fill="none" points="106.6169,299.2818 107.7458,297.6651 109.9521,297.2616 111.5688,298.3905 113.1996,299.5292 113.5939,301.7487 112.465,303.3654 111.8826,304.1995 111.3002,305.0336 110.7178,305.8676 109.5889,307.4844 107.369,307.8793 105.752,306.7502 104.1215,305.6117 103.7407,303.4008 104.8697,301.7841 106.8197,298.9915 108.7697,296.1988 110.7197,293.4062 111.8484,291.7897 114.0549,291.3859 115.6716,292.5148 117.0631,293.4865 117.5487,295.2478 116.9551,296.7574" stroke="black" stroke-width="1" /><polyline fill="none" points="93.8072,297.2205 94.565,297.8631 95.5812,297.9377 96.4017,296.9701 97.1963,296.0331 97.9909,295.096 98.7856,294.159 98.3237,293.7673 97.8618,293.3756 97.3999,292.9839 98.2891,293.7379 99.1783,294.492 100.0675,295.2461 99.6402,294.8837 99.2129,294.5214 98.7856,294.159 101.2287,291.278 103.6718,288.3971 106.1149,285.5161" stroke="black" stroke-width="1" /><polyline fill="none" points="95.6939,275.453 92.6155,278.4601 96.8814,282.8272 83.7416,287.7515" stroke="black" stroke-width="1" /><polyline fill="none" points="84.7354,267.9411 86.2818,266.6908 88.4953,266.9739 89.6919,268.454 90.8886,269.9341 90.7124,272.1708 89.1659,273.4211 87.9928,274.3696 86.8196,275.3181 85.6465,276.2666 84.0997,277.5171 81.8763,277.2205 80.6796,275.7404 79.483,274.2603 79.6692,272.037 81.2159,270.7866" stroke="black" stroke-width="1" /><polyline fill="none" points="79.1729,256.9158 80.2618,256.9131 81.4457,257.053 82.622,258.8246 83.6749,260.4105 83.2904,262.6207 81.5902,263.7495 80.3478,264.5744 79.1053,265.3994 77.8629,266.2243 76.2059,267.3245 74.0202,266.8207 72.9673,265.2348 71.8953,263.6203 72.2605,261.3822 73.9175,260.282 74.5363,259.8712 75.1551,259.4603 75.7739,259.0495 77.0859,261.0255 78.3978,263.0015 79.7098,264.9774" stroke="black" stroke-width="1" /><polyline fill="none" points="68.436,252.878 67.7598,251.4029 65.607,250.5606 63.8769,251.4886 63.4743,251.7046 63.0716,251.9206 62.669,252.1366 61.0368,253.0121 60.4211,255.0559 61.3047,256.7032 62.1801,258.3351 64.2535,258.9357 65.8552,258.0766 66.2578,257.8606 66.6605,257.6446 67.0631,257.4286 68.6957,256.553 69.3114,254.5099 68.436,252.878 67.4715,251.08 68.1825,248.8874 69.9195,247.9556 70.5138,247.6368 71.1081,247.318 71.7025,246.9992 73.4398,246.0673 75.6301,246.7037 76.5946,248.5018 77.551,250.2848 76.8691,252.4606 75.1318,253.3925 74.5276,253.7166 73.9234,254.0406 73.3192,254.3647 71.8299,255.1636 69.5682,254.7742" stroke="black" stroke-width="1" /><polyline fill="none" points="54.8967,242.6944 55.2823,243.6101 56.1551,244.1358 57.3243,243.6435 58.4566,243.1667 59.5889,242.6898 60.7212,242.213 60.4862,241.6549 60.2512,241.0967 60.0161,240.5386 60.4686,241.6131 60.9211,242.6876 61.3735,243.7621 61.1561,243.2457 60.9387,242.7294 60.7212,242.213 64.2026,240.747 67.6839,239.2811 71.1652,237.8151" stroke="black" stroke-width="1" /><polyline fill="none" points="56.024,226.2831 57.905,225.6914 59.899,226.7182 60.4907,228.5992 61.0876,230.4966 60.0454,232.4954 58.1644,233.0871 57.194,233.3924 56.2236,233.6977 55.2532,234.003 53.3722,234.5947 51.3727,233.5527 50.7808,231.6714 50.1841,229.7744 51.2318,227.7906 53.1127,227.1989 56.3618,226.1768 59.6109,225.1547 62.86,224.1326 64.7407,223.541 66.735,224.5677 67.3268,226.4487 67.8361,228.0677 67.1458,229.7593 65.7542,230.5928" stroke="black" stroke-width="1" /><polyline fill="none" points="60.0354,212.4756 61.9799,212.0591 63.8266,213.312 64.2252,215.173 64.6238,217.0341 63.4559,218.9499 61.5113,219.3663 60.0362,219.6823 58.561,219.9983 57.0858,220.3143 55.141,220.7308 53.2915,219.4614 52.8929,217.6003 52.4943,215.7393 53.665,213.8401 55.6099,213.4235" stroke="black" stroke-width="1" /><polyline fill="none" points="44.8569,202.4812 45.0969,204.5192 45.3369,206.5572 45.5769,208.5952 48.2616,208.279 50.9464,207.9629 53.6311,207.6467 52.3461,207.1421 51.537,206.2872 51.3625,204.806 51.1219,202.7625 52.6214,200.9806 54.5109,200.7581 55.8617,200.599 57.2125,200.4399 58.5634,200.2808 60.5384,200.0483 62.1724,201.4612 62.391,203.3177 62.6075,205.1565 61.3445,206.8933 59.3695,207.1259" stroke="black" stroke-width="1" /><polyline fill="none" points="46.6988,195.5006 44.3333,195.5561 44.1665,188.4414 61.4225,193.0283" stroke="black" stroke-width="1" /><polyline fill="none" points="46.6663,182.1914 44.306,182.0251 44.8061,174.926 61.5569,181.1087" stroke="black" stroke-width="1" /><polyline fill="none" points="54.585,169.8496 52.6227,169.5247 51.3669,167.6663 51.6779,165.7882 51.9888,163.9108 53.774,162.5727 55.7363,162.8976 57.2246,163.1441 58.713,163.3906 60.2013,163.6371 62.1633,163.962 63.4224,165.8043 63.1115,167.6816 62.8005,169.5597 61.0147,170.8974 59.0528,170.5725 59.0519,170.578 59.051,170.5835 59.0501,170.5891 54.5171,169.8384 49.9842,169.0877 45.4512,168.3371" stroke="black" stroke-width="1" /><polyline fill="none" points="56.9199,157.3916 54.9966,156.8843 53.9204,154.9164 54.4059,153.0757 54.8912,151.2357 56.7939,150.0706 58.7171,150.5779 60.1758,150.9627 61.6345,151.3474 63.0933,151.7322 65.0162,152.2394 66.0973,154.1915 65.612,156.0315 65.1265,157.8722 63.2232,159.0368 61.3004,158.5296 61.2989,158.535 61.2975,158.5404 61.2961,158.5458 56.8533,157.374 52.4106,156.2021 47.9678,155.0303" stroke="black" stroke-width="1" /><polyline fill="none" points="55.148,143.2997 53.2968,142.6204 52.3493,140.5741 53.0286,138.7229 53.7139,136.8553 55.8038,135.8874 57.655,136.5666 58.3802,136.8327 58.809,137.1541 59.0873,137.4936 61.9058,140.9267 64.7243,144.3597 67.5428,147.7928 67.6767,147.842 67.8106,147.8911 67.9445,147.9402 68.7596,145.7188 69.5747,143.4973 70.3898,141.2759" stroke="black" stroke-width="1" /><polyline fill="none" points="59.6169,123.2479 63.7633,125.2276 67.9096,127.2073 72.0559,129.187 73.8508,130.044 74.5416,132.1781 73.7214,133.896 72.9087,135.5981 70.8146,136.403 69.0197,135.546 67.6583,134.896 66.2969,134.246 64.9355,133.596 63.1406,132.739 62.4506,130.6048 63.2633,128.9027 64.0835,127.1849 66.1768,126.38 67.9717,127.2369" stroke="black" stroke-width="1" /><polyline fill="none" points="70.7299,122.0827 69.0231,121.0614 68.5355,118.8721 69.5129,117.2386 70.4901,115.6057 72.6414,115.0146 74.3481,116.0359 75.6427,116.8106 76.9372,117.5852 78.2318,118.3598 79.9383,119.381 80.4349,121.5565 79.4578,123.1894 78.4803,124.8229 76.3286,125.4133 74.6221,124.3922 74.6193,124.397 74.6164,124.4018 74.6135,124.4066 70.6708,122.0474 66.7281,119.6881 62.7854,117.3289" stroke="black" stroke-width="1" /><polyline fill="none" points="73.8881,100.7906 72.6741,102.4451 71.4602,104.0996 70.2462,105.7541 72.4258,107.3533 74.6053,108.9525 76.7849,110.5517 76.1889,109.3065 76.1798,108.1294 77.0621,106.9269 78.2793,105.268 80.5912,104.9868 82.1251,106.1123 83.2217,106.9169 84.3184,107.7216 85.415,108.5262 87.0184,109.7026 87.2504,111.8503 86.1445,113.3575 85.0492,114.8503 82.941,115.2596 81.3377,114.0832" stroke="black" stroke-width="1" /><polyline fill="none" points="86.704,97.9602 87.8559,96.8173 87.9051,94.5061 86.4379,93.2015 86.0964,92.8979 85.755,92.5943 85.4135,92.2907 84.0293,91.06 81.8985,91.186 80.6564,92.583 79.4259,93.9669 79.5763,96.1203 80.9346,97.328 81.276,97.6316 81.6175,97.9353 81.959,98.2389 83.3434,99.4698 85.4735,99.3441 86.704,97.9602 88.0598,96.4353 90.3631,96.3475 91.8361,97.6573 92.3401,98.1054 92.8441,98.5535 93.3482,99.0017 94.8215,100.3117 94.9785,102.5871 93.6227,104.112 92.2783,105.624 90.0008,105.7334 88.5275,104.4234 88.0151,103.9678 87.5027,103.5122 86.9904,103.0566 85.7274,101.9336 85.3138,99.6763" stroke="black" stroke-width="1" /><polyline fill="none" points="103.1419,91.8195 103.3225,92.8933 103.3779,94.0842 101.8223,95.534 100.4297,96.832 98.1864,96.8137 96.7949,95.3208 95.7781,94.2298 94.7613,93.1388 93.7445,92.0478 92.3884,90.5928 92.5283,88.3543 93.9208,87.0563 95.3385,85.735 97.6062,85.7297 98.9623,87.1847 99.4687,87.728 99.9751,88.2714 100.4816,88.8148 98.7465,90.4319 97.0114,92.0491 95.2763,93.6662" stroke="black" stroke-width="1" /><polyline fill="none" points="102.0233,73.1369 101.2362,73.7433 100.9505,74.7213 101.7247,75.7262 102.4745,76.6995 103.2244,77.6728 103.9742,78.646 104.454,78.2764 104.9337,77.9068 105.4135,77.5372 104.4899,78.2487 103.5663,78.9603 102.6428,79.6718 103.0866,79.3299 103.5304,78.988 103.9742,78.646 106.2796,81.6383 108.585,84.6307 110.8904,87.623" stroke="black" stroke-width="1" /><polyline fill="none" points="114.2952,64.5551 116.7462,68.4415 119.1973,72.3278 121.6483,76.2141 122.7093,77.8965 122.1552,80.0701 120.545,81.0856 118.9496,82.0918 116.749,81.6555 115.688,79.9732 114.8832,78.6971 114.0784,77.4211 113.2737,76.1451 112.2126,74.4627 112.7675,72.2895 114.3629,71.2833 115.973,70.2678 118.173,70.7037 119.234,72.386" stroke="black" stroke-width="1" /><polyline fill="none" points="124.3165,69.4977 123.4177,67.7234 124.1731,65.6115 125.8713,64.7512 127.5688,63.8913 129.7038,64.539 130.6026,66.3133 131.2844,67.6591 131.9661,69.0049 132.6479,70.3507 133.5465,72.1247 132.8061,74.2298 131.1085,75.0897 129.4104,75.95 127.2754,75.3015 126.3767,73.5275 126.3717,73.53 126.3667,73.5326 126.3618,73.5351 124.2854,69.4363 122.2091,65.3375 120.1327,61.2388" stroke="black" stroke-width="1" /><polyline fill="none" points="138.6059,61.7306 140.15,61.2316 141.2383,59.1921 140.519,57.3654 140.3516,56.9402 140.1841,56.5151 140.0167,56.0899 139.3381,54.3665 137.3803,53.516 135.641,54.2009 133.9179,54.8794 133.0789,56.8683 133.7449,58.5595 133.9123,58.9847 134.0797,59.4098 134.2471,59.835 134.9258,61.5587 136.8828,62.4091 138.6059,61.7306 140.5044,60.9831 142.5988,61.9455 143.321,63.7796 143.5681,64.4072 143.8152,65.0347 144.0623,65.6622 144.7846,67.4966 143.8964,69.5975 141.9979,70.345 140.1153,71.0863 138.0342,70.1547 137.3119,68.3203 137.0607,67.6823 136.8095,67.0444 136.5583,66.4064 135.9391,64.8339 136.5903,62.6333" stroke="black" stroke-width="1" /><polyline fill="none" points="153.913,57.1943 153.9115,57.189 153.91,57.1837 153.9084,57.1785 154.5558,59.4183 155.2031,61.6582 155.8504,63.898 156.1496,64.9332 156.9908,65.1206 157.5329,64.9639 156.8408,65.1639 156.0937,64.7397 155.8884,64.0294 155.8757,63.9856 155.8631,63.9418 155.8504,63.898 155.067,65.1416 154.0057,66.1621 152.5732,66.5761 151.3871,66.9189 149.2883,66.8827 148.5887,64.4616 148.222,63.1931 148.6968,62.1819 149.5947,61.4592 150.0264,61.1021 151.5019,60.3362 152.4937,59.8176 153.4977,59.278 154.2796,58.4628 153.913,57.1943 153.5417,55.9096 151.7931,54.7383 149.8168,55.3095 147.955,55.8475 147.3603,57.0005 147.0592,57.9976" stroke="black" stroke-width="1" /><polyline fill="none" points="167.8756,61.1903 167.4555,62.1949 166.8671,63.2317 164.7779,63.6282 162.9076,63.9832 161.0199,62.771 160.6393,60.766 160.3613,59.3008 160.0832,57.8356 159.8051,56.3704 159.4342,54.4163 160.7467,52.5975 162.617,52.2425 164.5209,51.8812 166.4419,53.0863 166.8128,55.0404 166.9513,55.7702 167.0898,56.4999 167.2283,57.2296 164.898,57.6719 162.5677,58.1142 160.2374,58.5564" stroke="black" stroke-width="1" /><polyline fill="none" points="138.2975,120.0535 126.744,171.7336 140.3048,268.1431 96.1804,188.1635 188.1635,280.8196 188.2428,253.3668 250.763,172.1919 188.2428,253.3668 96.1804,188.1635 158.7145,203.9175" stroke="black" stroke-width="1" /><polyline fill="none" points="163.0247,186.8085 154.4043,221.0265" stroke="black" stroke-width="1" /><polyline fill="none" points="152.6261,108.5745 152.4813,106.7344 152.0504,104.9397 151.3441,103.2345 150.3797,101.6607 149.181,100.2572 147.7775,99.0585 146.2038,98.0941 144.4985,97.3878 142.7038,96.9569 140.8637,96.8121 139.0237,96.9569 137.2289,97.3878 135.5237,98.0941 133.95,99.0585 132.5465,100.2572 131.3477,101.6607 130.3834,103.2344 129.677,104.9397 129.2462,106.7344 129.1013,108.5745 129.2462,110.4145 129.677,112.2093 130.3834,113.9145 131.3477,115.4882 132.5465,116.8917 133.95,118.0904 135.5237,119.0548 137.2289,119.7612 139.0237,120.192 140.8637,120.3369 142.7038,120.192 144.4985,119.7612 146.2038,119.0548 147.7775,118.0904 149.181,116.8917 150.3797,115.4882 151.3441,113.9145 152.0504,112.2093 152.4813,110.4145 152.6261,108.5745" stroke="black" stroke-width="1" /><polyline fill="none" points="188.5,69.0664 199.6839,69.5912 210.7696,71.161 221.6595,73.7619 232.2581,77.3712 242.4721,81.9571 252.2118,87.4792 261.3915,93.8892 269.9308,101.1306 277.7544,109.1398 284.7936,117.8464 290.9866,127.1739 296.2789,137.0404 300.6241,147.3591 303.9839,158.0393 306.3289,168.9873 307.6383,180.1067 307.9008,191.2998 307.114,202.4684 305.2847,213.5142 302.4292,224.3402 298.5725,234.8512 293.7484,244.9549 287.9994,254.5625 281.376,263.5894 273.9365,271.9565 265.7461,279.5902 256.8768,286.4234 247.4067,292.3961 237.4188,297.4556 227.0011,301.5577 216.2451,304.6663 205.2452,306.7539 194.0981,307.8023 182.9019,307.8023 171.7548,306.7539 160.7549,304.6663 149.9989,301.5577 139.5811,297.4556 129.5933,292.3961 120.1232,286.4234 111.2539,279.5902 103.0635,271.9565 95.6239,263.5894 89.0006,254.5625 83.2516,244.9549 78.4275,234.8512 74.5708,224.3402 71.7153,213.5142 69.8861,202.4684 69.0992,191.2998 69.3617,180.1067 70.6712,168.9872 73.0161,158.0393 76.3759,147.3591 80.7211,137.0404 86.0134,127.174 92.2064,117.8464 99.2457,109.1398 107.0692,101.1306 115.6085,93.8892 124.7882,87.4792 134.5279,81.957 144.7419,77.3712 155.3405,73.7619 166.2304,71.161 177.3161,69.5912 188.5,69.0664" stroke="black" stroke-width="1" />

    </g>
  </g>
  <WCB
     pausedposy="0"
     pausedposx="0"
     lastknownposy="0"
     lastknownposx="0"
     lastpathnc="0"
     lastpath="0"
     node="0"
     layer="0" />
</svg>
