<?xml version="1.0" encoding="UTF-8" standalone="no"?>
<!-- Created with Inkscape (http://www.inkscape.org/) -->

<svg
   xmlns:dc="http://purl.org/dc/elements/1.1/"
   xmlns:cc="http://creativecommons.org/ns#"
   xmlns:rdf="http://www.w3.org/1999/02/22-rdf-syntax-ns#"
   xmlns:svg="http://www.w3.org/2000/svg"
   xmlns="http://www.w3.org/2000/svg"
   xmlns:sodipodi="http://sodipodi.sourceforge.net/DTD/sodipodi-0.dtd"
   xmlns:inkscape="http://www.inkscape.org/namespaces/inkscape"
   width="100mm"
   height="100mm"
   viewBox="0 0 100 100"
   version="1.1"
   id="svg19124"
   inkscape:version="0.92.3 (2405546, 2018-03-11)"
   sodipodi:docname="inkscape_template_TMP.svg"
   shape-rendering="crispEdges">
  <sodipodi:namedview
     pagecolor="#ffffff"
     bordercolor="#666666"
     borderopacity="1"
     objecttolerance="10"
     gridtolerance="10"
     guidetolerance="10"
     inkscape:pageopacity="0"
     inkscape:pageshadow="2"
     inkscape:window-width="1568"
     inkscape:window-height="1550"
     id="namedview24021"
     showgrid="false"
     inkscape:zoom="0.62441667"
     inkscape:cx="712.66515"
     inkscape:cy="409.98265"
     inkscape:window-x="0"
     inkscape:window-y="0"
     inkscape:window-maximized="0"
     inkscape:current-layer="layer1" />
  <defs
     id="defs19118" />
  <metadata
     id="metadata19121">
    <rdf:RDF>
      <cc:Work
         rdf:about="">
        <dc:format>image/svg+xml</dc:format>
        <dc:type
           rdf:resource="http://purl.org/dc/dcmitype/StillImage" />
        <dc:title />
      </cc:Work>
    </rdf:RDF>
  </metadata>
  <g
     transform="translate(0,-197)"
     id="layer1"
     inkscape:groupmode="layer"
     inkscape:label="Layer 1">
    <g
       id="g24447"
       transform="matrix(0.26458333,0,0,0.26458333,0.10666333,197.9735)">

<polyline fill="none" points="192.1004,47.7394 189.7225,51.1455 187.3447,54.5516 184.9669,57.9577 184.9669,54.5516 184.9669,51.1455 184.9669,47.7394 184.9669,45.7676 186.5623,44.1729 188.5334,44.1729 190.5231,44.1729 192.1004,45.7676 192.1004,47.7394 192.1004,51.1455 192.1004,54.5516 192.1004,57.9577 192.1004,59.9295 190.5231,61.5235 188.5509,61.5235 186.5623,61.5235 184.9669,59.9295 184.9669,57.9577" stroke="black" stroke-width="1" /><polyline fill="none" points="197.8298,61.5877 200.7471,57.7851 198.696,53.7706 202.935,62.0679 200.7471,57.7851 203.4811,54.2207" stroke="black" stroke-width="1" /><polyline fill="none" points="216.2596,60.7996 215.8888,62.7534 214.0175,63.9691 212.1476,63.6142 210.2777,63.2593 208.9654,61.4394 209.3362,59.4856 209.6175,58.0035 209.8988,56.5213 210.1801,55.0391 210.5509,53.085 212.4386,51.8732 214.3085,52.2281 216.1784,52.583 217.4744,54.399 217.1035,56.3531" stroke="black" stroke-width="1" /><polyline fill="none" points="222.6844,57.6853 223.2367,55.7745 225.2292,54.7446 227.058,55.2732 228.8861,55.8015 230.0063,57.7309 229.4541,59.6417 229.0352,61.091 228.6164,62.5403 228.1975,63.9897 227.6454,65.9001 225.6685,66.9352 223.8403,66.4069 222.0115,65.8783 220.8919,63.9483 221.444,62.0379 221.4386,62.0363 221.4333,62.0348 221.4279,62.0332 222.7036,57.6192 223.9792,53.2051 225.2549,48.7911" stroke="black" stroke-width="1" /><polyline fill="none" points="234.7839,61.4612 235.5127,59.6105 237.5929,58.7718 239.3641,59.4692 241.1347,60.1664 242.0693,62.1923 241.3406,64.0429 240.7879,65.4467 240.2352,66.8504 239.6824,68.2541 238.9538,70.1045 236.8886,70.9499 235.118,70.2527 233.3468,69.5552 232.4128,67.5289 233.1414,65.6785 233.1362,65.6765 233.131,65.6744 233.1257,65.6723 234.8091,61.3971 236.4925,57.1219 238.1759,52.8468" stroke="black" stroke-width="1" /><polyline fill="none" points="255.3215,64.5589 251.6611,66.5229 248.0007,68.4868 244.3403,70.4507 245.8795,67.4122 247.4188,64.3738 248.958,61.3353 249.849,59.5763 251.9929,58.8747 253.7513,59.7654 255.5263,60.6646 256.2126,62.7999 255.3215,64.5589 253.7823,67.5974 252.2431,70.6358 250.7039,73.6743 249.8128,75.4333 247.6855,76.1425 245.9262,75.2513 244.1522,74.3526 243.4493,72.2097 244.3403,70.4507" stroke="black" stroke-width="1" /><polyline fill="none" points="260.6272,67.5723 261.679,65.9044 263.8784,65.4066 265.5463,66.4585 267.2289,67.5197 267.7377,69.766 266.6858,71.4339 266.2737,72.0873 265.8697,72.4393 265.4794,72.6403 261.5322,74.6773 257.5849,76.7143 253.6376,78.7512 253.5616,78.8718 253.4855,78.9925 253.4094,79.1131 255.4109,80.3754 257.4124,81.6377 259.4138,82.9" stroke="black" stroke-width="1" /><polyline fill="none" points="273.9048,82.9373 273.9081,82.933 273.9115,82.9287 273.9148,82.9243 272.4919,84.7713 271.0689,86.6182 269.646,88.4651 268.9884,89.3187 269.3349,90.1078 269.7819,90.4522 269.2113,90.0125 269.1113,89.1591 269.5625,88.5735 269.5903,88.5374 269.6182,88.5013 269.646,88.4651 268.1799,88.5692 266.7293,88.3172 265.5481,87.4072 264.57,86.6536 263.3577,84.9401 264.8957,82.9437 265.7016,81.8978 266.7977,81.6823 267.9116,81.9787 268.455,82.1155 269.9452,82.852 270.9501,83.3449 271.9791,83.8351 273.0989,83.9833 273.9048,82.9373 274.7209,81.8781 274.6308,79.7753 273.0012,78.5198 271.466,77.337 270.1846,77.5396 269.2026,77.8867" stroke="black" stroke-width="1" /><polyline fill="none" points="281.9104,83.1419 283.2549,81.6994 285.5085,81.6204 286.9509,82.9648 288.4062,84.3212 288.4872,86.623 287.1428,88.0654 286.616,88.6306 286.1535,88.9011 285.7326,89.0258 281.4747,90.291 277.2169,91.5563 272.9591,92.8215 272.8618,92.9258 272.7646,93.0302 272.6673,93.1345 274.3983,94.7478 276.1293,96.3612 277.8604,97.9745" stroke="black" stroke-width="1" /><polyline fill="none" points="285.2798,105.9926 288.4958,103.1331 284.4393,98.5709 297.7954,94.2679" stroke="black" stroke-width="1" /><polyline fill="none" points="299.8556,110.7993 299.86,110.7961 299.8644,110.7928 299.8688,110.7896 297.989,112.1688 296.1093,113.5481 294.2294,114.9274 293.3607,115.5648 293.4745,116.4191 293.8083,116.874 293.3822,116.2932 293.5231,115.4456 294.1192,115.0083 294.1559,114.9813 294.1927,114.9543 294.2294,114.9274 292.7921,114.6202 291.4685,113.9754 290.5864,112.7732 289.856,111.7777 289.1671,109.795 291.1989,108.3042 292.2635,107.5231 293.3763,107.6204 294.3641,108.2144 294.8481,108.4967 296.0753,109.618 296.9039,110.3705 297.7563,111.1272 298.791,111.5804 299.8556,110.7993 300.9337,110.0083 301.431,107.9632 300.214,106.3045 299.0676,104.7421 297.7803,104.5809 296.7405,104.6417" stroke="black" stroke-width="1" /><polyline fill="none" points="308.401,112.4713 310.4314,111.2564 314.0856,117.3632 296.8121,121.8841" stroke="black" stroke-width="1" /><polyline fill="none" points="314.3701,132.5163 312.5907,133.3659 310.4724,132.6288 309.6228,130.8493 308.7658,129.0544 309.5175,126.9292 311.2969,126.0796 312.2149,125.6413 313.1329,125.203 314.051,124.7647 315.8304,123.9151 317.9563,124.6664 318.806,126.4462 319.6628,128.2407 318.9036,130.3518 317.1242,131.2014 314.0505,132.6689 310.9768,134.1365 307.9031,135.604 306.124,136.4535 304.0054,135.7165 303.1558,133.9371 302.4245,132.4055 302.8708,130.6338 304.1318,129.6134" stroke="black" stroke-width="1" /><polyline fill="none" points="312.6917,139.1405 314.5429,138.4612 316.5897,139.4089 317.2686,141.2594 317.954,143.1273 316.9999,145.1574 315.1487,145.8367 314.1939,146.187 313.2391,146.5374 312.2843,146.8877 310.4331,147.567 308.393,146.6355 307.7076,144.7675 307.0287,142.917 307.9761,140.8707 309.8273,140.1915 313.0249,139.0182 316.2225,137.8449 319.4201,136.6717 321.2709,135.9926 323.3174,136.9403 323.9964,138.7908 324.5814,140.3852 323.9711,142.1061 322.6204,143.0038" stroke="black" stroke-width="1" /><polyline fill="none" points="328.382,153.5727 328.1285,152.612 327.3381,151.9691 326.1114,152.2926 324.9234,152.606 323.7354,152.9193 322.5474,153.2327 322.7019,153.8183 322.8564,154.4039 323.0108,154.9895 322.7135,153.8622 322.4161,152.7348 322.1188,151.6075 322.2617,152.1492 322.4045,152.691 322.5474,153.2327 318.895,154.1961 315.2425,155.1595 311.59,156.1229" stroke="black" stroke-width="1" /><polyline fill="none" points="327.9191,161.6873 330.2534,161.3007 331.4161,168.3218 313.6874,166.1996" stroke="black" stroke-width="1" /><polyline fill="none" points="328.8806,175.2283 330.6594,175.103 332.3379,176.4799 332.4741,178.4131 332.6102,180.3451 331.2274,181.956 329.2095,182.0981 328.8904,182.1206 328.5713,182.1431 328.2522,182.1656 325.1736,182.3825 324.4718,179.7334 324.4477,179.3906 324.4244,179.0601 324.4011,178.7296 324.3778,178.3991 324.4011,178.7296 324.4244,179.0601 324.4477,179.3906 324.5188,180.4003 323.4732,182.6397 321.0794,182.8084 320.378,182.8578 319.6766,182.9072 318.9753,182.9566 316.9919,183.0964 315.3049,181.599 315.1652,179.6149 315.0242,177.6137 316.4858,175.9125 318.4691,175.7728" stroke="black" stroke-width="1" /><polyline fill="none" points="317.3057,194.9968 316.4114,194.3756 315.5208,193.5831 315.5706,191.4571 315.6153,189.554 317.1959,187.962 319.2361,188.0099 320.7271,188.0448 322.2181,188.0798 323.709,188.1147 325.6975,188.1614 327.201,189.8257 327.1564,191.7288 327.111,193.6662 325.5303,195.2922 323.5418,195.2455 322.7993,195.2281 322.0567,195.2107 321.3141,195.1933 321.3698,192.8221 321.4254,190.4509 321.4809,188.0796" stroke="black" stroke-width="1" /><polyline fill="none" points="317.8355,207.2167 315.8605,206.9841 314.5163,205.2029 314.7389,203.3126 314.9615,201.4224 316.6847,199.9854 318.6597,200.218 320.158,200.3945 321.6562,200.5709 323.1545,200.7474 325.1298,200.98 326.4713,202.7778 326.2487,204.6681 326.0261,206.5583 324.3056,207.9787 322.3303,207.746" stroke="black" stroke-width="1" /><polyline fill="none" points="315.5145,219.2456 313.57,218.8291 312.3985,216.9298 312.7971,215.0687 313.1958,213.2077 315.0459,211.9384 316.9904,212.3549 318.4656,212.6708 319.9408,212.9868 321.416,213.3028 323.3608,213.7194 324.5281,215.6349 324.1295,217.496 323.7308,219.3571 321.8849,220.6101 319.94,220.1935" stroke="black" stroke-width="1" /><polyline fill="none" points="323.9817,227.5838 325.6828,228.1189 326.7401,230.015 326.1585,231.8637 325.5773,233.7113 323.7005,234.7035 321.7708,234.0964 321.4656,234.0004 321.1605,233.9044 320.8553,233.8084 317.9114,232.8823 318.2289,230.1603 318.332,229.8325 318.4315,229.5165 318.5309,229.2004 318.6303,228.8844 318.5309,229.2004 318.4315,229.5165 318.332,229.8325 318.0283,230.7981 316.2349,232.4987 313.9458,231.7786 313.2751,231.5676 312.6044,231.3566 311.9337,231.1456 310.037,230.549 309.016,228.5376 309.6128,226.6403 310.2148,224.7266 312.1981,223.6792 314.0948,224.2758" stroke="black" stroke-width="1" /><polyline fill="none" points="313.9745,245.3649 312.1572,244.5996 311.3005,242.5268 312.0657,240.7095 312.8377,238.8764 314.9253,238.026 316.7426,238.7912 317.6802,239.186 318.6178,239.5808 319.5553,239.9756 321.3726,240.7409 322.2237,242.8288 321.4583,244.6465 320.6865,246.4792 318.6045,247.3146 316.7872,246.5493 313.648,245.2274 310.5089,243.9056 307.3698,242.5837 305.5529,241.8186 304.6959,239.7456 305.4611,237.9283 306.1198,236.3641 307.7404,235.5204 309.3408,235.7848" stroke="black" stroke-width="1" /><polyline fill="none" points="299.2953,250.9357 303.0875,252.9698 305.9732,247.59 314.6136,258.6465" stroke="black" stroke-width="1" /><polyline fill="none" points="292.9619,261.0363 296.547,263.4167 299.9238,258.3307 307.4908,270.1478" stroke="black" stroke-width="1" /><polyline fill="none" points="286.57,272.258 286.2407,271.2201 286.0189,270.0487 287.3558,268.3951 288.5527,266.9147 290.7764,266.6183 292.3634,267.9014 293.5232,268.839 294.6829,269.7766 295.8427,270.7143 297.3893,271.9648 297.5647,274.2009 296.3679,275.6812 295.1494,277.1882 292.9049,277.5115 291.3582,276.261 290.7806,275.794 290.203,275.327 289.6254,274.86 291.1166,273.0156 292.6078,271.1711 294.0991,269.3267" stroke="black" stroke-width="1" /><polyline fill="none" points="290.8661,285.3664 291.4247,289.6287 279.1609,277.6491" stroke="black" stroke-width="1" /><polyline fill="none" points="278.5725,289.3365 279.8589,290.8535 279.6147,293.0831 278.1629,294.3144 276.7115,295.5451 274.4845,295.4111 273.1981,293.8941 272.2224,292.7435 271.2466,291.5929 270.2709,290.4423 268.9847,288.9256 269.2159,286.7061 270.6672,285.4753 272.1191,284.2441 274.3463,284.3789 275.6325,285.8956 275.6367,285.892 275.641,285.8884 275.6453,285.8847 278.617,289.389 281.5887,292.8933 284.5604,296.3976" stroke="black" stroke-width="1" /><polyline fill="none" points="266.1348,305.9706 266.1343,301.8167 266.1339,297.6627 266.1335,293.5087 268.0835,296.3014 270.0335,299.094 271.9835,301.8866 273.1124,303.5034 272.7173,305.7242 271.1012,306.8527 269.4698,307.9919 267.2637,307.5873 266.1348,305.9706 264.1848,303.178 262.2348,300.3853 260.2848,297.5927 259.1559,295.976 259.5364,293.7661 261.1534,292.637 262.7839,291.4985 265.0046,291.892 266.1335,293.5087" stroke="black" stroke-width="1" /><polyline fill="none" points="257.9481,314.8481 258.8124,314.358 259.2325,313.4297 258.6068,312.3261 258.0008,311.2574 257.3948,310.1886 256.7888,309.1198 256.262,309.4185 255.7352,309.7172 255.2084,310.0159 256.2226,309.4409 257.2368,308.8658 258.251,308.2908 257.7636,308.5671 257.2762,308.8435 256.7888,309.1198 254.9258,305.8338 253.0627,302.5479 251.1996,299.2619" stroke="black" stroke-width="1" /><polyline fill="none" points="245.8115,320.7961 246.7179,320.3892 247.223,319.5043 246.7034,318.347 246.2002,317.2261 245.697,316.1053 245.1937,314.9845 244.6413,315.2325 244.0888,315.4806 243.5363,315.7286 244.5999,315.2511 245.6635,314.7736 246.7271,314.2961 246.2159,314.5255 245.7048,314.755 245.1937,314.9845 243.6465,311.5385 242.0994,308.0925 240.5522,304.6465" stroke="black" stroke-width="1" /><polyline fill="none" points="232.2557,326.0291 234.1982,325.3676 236.1408,324.7061 238.0833,324.0446 237.2119,321.4856 236.3404,318.9266 235.469,316.3676 235.2447,317.7298 234.5783,318.7 233.1664,319.1808 231.2187,319.8441 229.1622,318.7511 228.5489,316.9501 228.1104,315.6626 227.672,314.375 227.2335,313.0875 226.5924,311.205 227.6318,309.3113 229.4014,308.7086 231.154,308.1118 233.1169,308.9831 233.7579,310.8656" stroke="black" stroke-width="1" /><polyline fill="none" points="223.2827,319.1569 223.7448,321.0915 222.5194,322.9701 220.6679,323.4123 218.817,323.8544 216.8909,322.7285 216.4288,320.7939 216.0784,319.3265 215.7279,317.8592 215.3775,316.3918 214.9155,314.4576 216.1247,312.5821 217.9756,312.14 219.8272,311.6978 221.7531,312.8245 222.215,314.7587 222.2205,314.7574 222.2259,314.7561 222.2314,314.7549 223.2987,319.2238 224.3661,323.6928 225.4335,328.1618" stroke="black" stroke-width="1" /><polyline fill="none" points="204.1319,325.3689 203.8554,323.4166 205.1942,321.6171 207.1466,321.3406 209.116,321.0618 210.9177,322.4165 211.1942,324.3689 211.3368,325.3761 211.4794,326.3834 211.622,327.3906 211.8985,329.343 210.5438,331.1454 208.5911,331.4219 206.6221,331.7008 204.8362,330.3431 204.5597,328.3907 204.0822,325.0182 203.6046,321.6458 203.1271,318.2734 202.8507,316.3214 204.1895,314.5215 206.1418,314.2451 207.8223,314.0071 209.3784,314.9645 209.9733,316.4736" stroke="black" stroke-width="1" /><polyline fill="none" points="192.3519,332.7706 194.4017,332.6744 196.4516,332.5782 198.5014,332.482 198.3747,329.7816 198.248,327.0813 198.1213,324.381 197.5276,325.6273 196.618,326.3744 195.1282,326.4443 193.0728,326.5408 191.4007,324.9198 191.3115,323.0193 191.2478,321.6606 191.184,320.302 191.1203,318.9433 191.027,316.9568 192.5513,315.4262 194.4186,315.3386 196.2681,315.2518 197.9118,316.6338 198.0051,318.6202" stroke="black" stroke-width="1" /><polyline fill="none" points="185.3997,329.2701 185.3073,331.2398 183.6396,332.7576 181.6699,332.6652 179.6828,332.572 178.1322,330.8688 178.2247,328.8991 178.2609,328.1274 178.4387,327.622 178.6791,327.2546 181.1081,323.5358 183.5372,319.817 185.9663,316.0982 185.973,315.9557 185.9797,315.8132 185.9864,315.6708 183.6227,315.5599 181.259,315.4489 178.8953,315.338" stroke="black" stroke-width="1" /><polyline fill="none" points="165.1999,327.3654 168.0318,324.3264 170.8637,321.2873 173.6956,318.2483 173.218,321.6207 172.7405,324.9932 172.2629,328.3656 171.9865,330.3179 170.1832,331.6732 168.2315,331.3969 166.2615,331.1179 164.9234,329.3178 165.1999,327.3654 165.6775,323.993 166.155,320.6205 166.6326,317.2481 166.909,315.2958 168.6941,313.9387 170.6469,314.2151 172.6158,314.494 173.972,316.2959 173.6956,318.2483" stroke="black" stroke-width="1" /><polyline fill="none" points="159.034,326.3934 158.6197,328.1279 156.8026,329.3158 154.9176,328.8656 153.0338,328.4157 151.9121,326.6133 152.382,324.6457 152.4564,324.3345 152.5307,324.0234 152.605,323.7122 153.3219,320.7105 156.0596,320.8359 156.3937,320.9158 156.716,320.9927 157.0383,321.0697 157.3605,321.1467 157.0383,321.0697 156.716,320.9927 156.3937,320.9158 155.4093,320.6806 153.5868,319.0112 154.1443,316.6771 154.3076,315.9932 154.4709,315.3093 154.6343,314.6254 155.0962,312.6916 157.0307,311.5317 158.9653,311.9937 160.9166,312.4598 162.1008,314.3646 161.6389,316.2984" stroke="black" stroke-width="1" /><polyline fill="none" points="146.2263,324.0342 145.4636,326.2741 138.7268,323.9799 148.9772,309.36" stroke="black" stroke-width="1" /><polyline fill="none" points="132.524,304.6887 133.4435,304.1055 134.5196,303.5923 136.4595,304.4633 138.1962,305.243 139.05,307.3176 138.2141,309.1794 137.6032,310.5399 136.9924,311.9004 136.3815,313.2609 135.5669,315.0754 133.4494,315.8153 131.7128,315.0356 129.9449,314.2418 129.0599,312.1539 129.8745,310.3394 130.1788,309.6618 130.483,308.9842 130.7872,308.3066 132.951,309.2781 135.1148,310.2496 137.2786,311.2211" stroke="black" stroke-width="1" /><polyline fill="none" points="120.9447,312.1859 116.9659,313.8131 125.4215,298.8996" stroke="black" stroke-width="1" /><polyline fill="none" points="110.784,305.914 109.6551,307.5308 107.4348,307.925 105.8181,306.7961 104.187,305.6571 103.7841,303.3894 104.913,301.7727 105.3553,301.1393 105.7753,300.8066 106.1746,300.6241 110.213,298.7744 114.2514,296.9247 118.2898,295.075 118.3714,294.9581 118.4531,294.8411 118.5347,294.7242 116.5946,293.3695 114.6545,292.0148 112.7144,290.6601" stroke="black" stroke-width="1" /><polyline fill="none" points="92.953,296.6647 94.5181,297.9919 96.0832,299.3192 97.6483,300.6464 99.3967,298.5846 101.1451,296.5228 102.8936,294.4611 101.6095,294.968 100.4347,294.8943 99.2972,293.9297 97.7279,292.5989 97.6099,290.2731 98.8404,288.822 99.7201,287.7846 100.5998,286.7473 101.4795,285.7099 102.7657,284.1932 104.9244,284.1127 106.3501,285.3217 107.7622,286.5192 108.0224,288.6509 106.7363,290.1677" stroke="black" stroke-width="1" /><polyline fill="none" points="82.8455,287.0181 86.1323,283.8074 89.4191,280.5968 92.7059,277.3862 94.1287,275.9963 96.3702,276.083 97.7004,277.4447 99.0184,278.794 99.0527,281.0372 97.6299,282.427 96.5507,283.4812 95.4715,284.5354 94.3923,285.5895 92.9695,286.9794 90.7283,286.892 89.4103,285.5428 88.0801,284.181 88.0455,281.9386 89.4683,280.5487" stroke="black" stroke-width="1" /><polyline fill="none" points="85.5796,276.1839 84.0329,277.4344 81.8096,277.138 80.6128,275.6577 79.4164,274.1779 79.6026,271.9546 81.1493,270.7041 82.3224,269.7556 83.4956,268.8071 84.6688,267.8586 86.2152,266.6083 88.4287,266.8915 89.6251,268.3713 90.8219,269.8516 90.635,272.075 89.0885,273.3253 89.0921,273.3297 89.0956,273.334 89.0991,273.3384 85.5261,276.2271 81.9531,279.1158 78.3801,282.0046" stroke="black" stroke-width="1" /><polyline fill="none" points="77.7523,257.8754 79.4091,256.7754 81.5863,257.2646 82.6391,258.8502 83.6919,260.4358 83.307,262.6462 81.6503,263.7462 80.3935,264.5807 79.1366,265.4152 77.8798,266.2496 76.2228,267.3498 74.0368,266.8462 72.9841,265.2606 71.9313,263.675 72.3249,261.4789 73.9819,260.3788" stroke="black" stroke-width="1" /><polyline fill="none" points="65.3794,257.0802 61.1459,256.334 76.2536,248.2303" stroke="black" stroke-width="1" /><polyline fill="none" points="66.7588,236.0087 68.5916,235.2369 70.6395,236.1234 71.3781,237.8775 72.1168,239.6317 71.3265,241.7316 69.4937,242.5033 68.1033,243.0888 66.713,243.6743 65.3226,244.2598 63.4895,245.0317 61.4358,244.1294 60.6971,242.3753 59.9585,240.6212 60.7546,238.537 62.5877,237.7651" stroke="black" stroke-width="1" /><polyline fill="none" points="50.4089,229.9455 50.7071,230.8933 51.5268,231.4984 52.737,231.1177 53.909,230.749 55.081,230.3803 56.253,230.0117 56.0712,229.4339 55.8895,228.8562 55.7077,228.2785 56.0576,229.3907 56.4075,230.5028 56.7573,231.615 56.5892,231.0805 56.4211,230.5461 56.253,230.0117 59.8563,228.8781 63.4596,227.7446 67.0629,226.611" stroke="black" stroke-width="1" /><polyline fill="none" points="50.491,221.8181 48.1773,222.3137 46.6868,215.3548 64.4955,216.6437" stroke="black" stroke-width="1" /><polyline fill="none" points="45.1028,203.4701 45.219,204.4569 45.9115,205.2043 47.1714,205.0559 48.3916,204.9122 49.6118,204.7686 50.832,204.6249 50.7611,204.0234 50.6903,203.4219 50.6195,202.8205 50.7558,203.9783 50.8922,205.1362 51.0285,206.2941 50.963,205.7377 50.8975,205.1813 50.832,204.6249 54.5834,204.1831 58.3349,203.7413 62.0864,203.2995" stroke="black" stroke-width="1" /><polyline fill="none" points="59.5314,188.0478 60.4538,188.6263 61.3806,189.3763 61.4304,191.5022 61.475,193.4053 59.9707,195.0697 57.9305,195.1175 56.4395,195.1525 54.9486,195.1874 53.4577,195.2224 51.4692,195.269 49.8893,193.677 49.8446,191.7739 49.7992,189.8365 51.302,188.1382 53.2904,188.0916 54.033,188.0742 54.7756,188.0568 55.5181,188.0394 55.5737,190.4106 55.6293,192.7818 55.6849,195.153" stroke="black" stroke-width="1" /><polyline fill="none" points="52.6036,178.905 52.8186,177.2966 51.447,175.4357 49.4886,175.2977 49.0328,175.2656 48.577,175.2335 48.1212,175.2014 46.2736,175.0712 44.6626,176.4715 44.5312,178.3363 44.401,180.1835 45.8344,181.7976 47.6475,181.9253 48.1033,181.9575 48.5591,181.9896 49.0149,182.0217 50.8629,182.1519 52.4735,180.7523 52.6036,178.905 52.747,176.8696 54.518,175.3943 56.4842,175.5328 57.157,175.5802 57.8298,175.6276 58.5025,175.675 60.4691,175.8135 61.9823,177.5202 61.8389,179.5556 61.6967,181.5739 59.9593,183.0505 57.9927,182.912 57.3087,182.8638 56.6248,182.8156 55.9409,182.7674 54.255,182.6486 52.5497,181.1128" stroke="black" stroke-width="1" /><polyline fill="none" points="46.6224,162.0504 46.2872,164.0749 45.9519,166.0994 45.6167,168.1239 48.2836,168.5656 50.9506,169.0073 53.6176,169.4489 52.5232,168.6074 51.9832,167.5615 52.2269,166.0901 52.5631,164.0601 54.4983,162.7646 56.3753,163.0754 57.7172,163.2976 59.0591,163.5198 60.401,163.7421 62.3629,164.067 63.5404,165.878 63.235,167.7222 62.9325,169.5489 61.2368,170.8667 59.2749,170.5418" stroke="black" stroke-width="1" /><polyline fill="none" points="53.3127,149.1187 55.9996,152.2866 58.6866,155.4545 61.3736,158.6224 58.0802,157.7537 54.7868,156.885 51.4933,156.0163 49.5867,155.5134 48.4516,153.564 48.9543,151.6581 49.4618,149.7341 51.406,148.6158 53.3127,149.1187 56.6061,149.9874 59.8995,150.8561 63.193,151.7248 65.0996,152.2277 66.2386,154.1593 65.7356,156.0663 65.2284,157.9892 63.2803,159.1253 61.3736,158.6224" stroke="black" stroke-width="1" /><polyline fill="none" points="62.1738,138.709 62.1686,138.7071 62.1635,138.7052 62.1584,138.7034 64.3472,139.5065 66.536,140.3096 68.7248,141.1127 69.7364,141.4839 70.3851,140.9166 70.5795,140.3868 70.3314,141.0631 69.5473,141.4145 68.8532,141.1599 68.8104,141.1442 68.7676,141.1284 68.7248,141.1127 69.264,142.4801 69.459,143.9394 68.9453,145.3393 68.52,146.4984 67.2492,148.1691 64.8834,147.301 63.6438,146.8461 63.1093,145.8652 63.0578,144.7137 63.0253,144.1543 63.2806,142.5117 63.4492,141.4052 63.6081,140.2766 63.4134,139.1638 62.1738,138.709 60.9184,138.2484 58.9396,138.9653 58.2309,140.8966 57.5634,142.716 58.1412,143.8775 58.767,144.7101" stroke="black" stroke-width="1" /><polyline fill="none" points="65.0279,133.4027 63.233,132.5457 62.5426,130.4117 63.3628,128.6938 64.1827,126.9766 66.2692,126.1867 68.0641,127.0436 69.4255,127.6936 70.7869,128.3437 72.1483,128.9937 73.9429,129.8505 74.6411,131.97 73.8212,133.6872 73.001,135.4051 70.914,136.1944 69.1194,135.3376 69.117,135.3426 69.1146,135.3477 69.1122,135.3527 64.9658,133.373 60.8195,131.3933 56.6732,129.4137" stroke="black" stroke-width="1" /><polyline fill="none" points="65.9147,119.2275 64.2226,118.215 63.6733,116.028 64.6858,114.3359 65.7073,112.6288 67.9411,112.0676 69.6332,113.0801 70.2961,113.4767 70.6574,113.8724 70.8676,114.2578 72.9965,118.1562 75.1254,122.0546 77.2544,125.9531 77.3768,126.0263 77.4991,126.0995 77.6215,126.1728 78.8365,124.1423 80.0516,122.1117 81.2666,120.0812" stroke="black" stroke-width="1" /><polyline fill="none" points="86.6119,109.4309 86.9895,110.4521 87.266,111.6118 86.008,113.3263 84.8818,114.8612 82.6744,115.2615 81.029,114.0542 79.8266,113.172 78.6242,112.2897 77.4218,111.4075 75.8181,110.2308 75.5382,108.0054 76.6643,106.4706 77.8108,104.9082 80.0377,104.48 81.6413,105.6567 82.2402,106.0961 82.839,106.5355 83.4379,106.9749 82.0348,108.8872 80.6316,110.7995 79.2285,112.7119" stroke="black" stroke-width="1" /><polyline fill="none" points="93.1735,99.1085 94.6597,100.4299 94.742,102.6599 93.4773,104.0822 92.2126,105.5046 89.9771,105.6962 88.491,104.3748 87.3636,103.3724 86.2362,102.3699 85.1087,101.3675 83.6223,100.0459 83.5517,97.8038 84.8164,96.3814 86.0811,94.9591 88.3049,94.7795 89.7913,96.1011" stroke="black" stroke-width="1" /><polyline fill="none" points="90.7868,86.942 90.4285,82.6582 102.1173,95.1994" stroke="black" stroke-width="1" /><polyline fill="none" points="111.5133,82.9016 112.727,84.4769 112.392,86.6832 110.8843,87.8448 109.3766,89.0063 107.1446,88.7778 105.9309,87.2025 105.0101,86.0074 104.0894,84.8123 103.1687,83.6172 101.9548,82.0416 102.3035,79.8257 103.8112,78.6641 105.3189,77.5025 107.5372,77.7408 108.7511,79.3164" stroke="black" stroke-width="1" /><polyline fill="none" points="122.9128,79.5407 120.6172,75.9008 115.4535,79.1574 113.3904,65.2777" stroke="black" stroke-width="1" /><polyline fill="none" points="130.0363,65.9461 130.0338,65.9412 130.0314,65.9363 130.0289,65.9314 131.0825,68.0113 132.1361,70.0912 133.1897,72.1711 133.6767,73.1323 134.5381,73.1595 135.0414,72.9045 134.3988,73.2301 133.5856,72.9526 133.2515,72.2931 133.2309,72.2524 133.2103,72.2117 133.1897,72.1711 132.6519,73.5389 131.7995,74.7394 130.4693,75.4132 129.3679,75.9712 127.2992,76.3269 126.1604,74.0788 125.5637,72.9009 125.8415,71.8189 126.5889,70.9414 126.9465,70.5101 128.2533,69.4825 129.131,68.7881 130.0168,68.0707 130.633,67.124 130.0363,65.9461 129.432,64.7532 127.4957,63.9285 125.6605,64.8582 123.9317,65.7339 123.5624,66.9776 123.4525,68.0133" stroke="black" stroke-width="1" /><polyline fill="none" points="136.2426,65.4995 135.5202,63.6648 136.4196,61.5964 138.2537,60.8742 140.105,60.1452 142.157,61.0515 142.8794,62.8862 143.252,63.8326 143.6247,64.7789 143.9973,65.7252 144.7198,67.56 143.8364,69.6213 141.985,70.3503 140.1509,71.0725 138.083,70.1733 137.3605,68.3385 136.1126,65.1693 134.8647,62.0001 133.6168,58.8309 132.8945,56.9964 133.794,54.9284 135.6281,54.2062 137.2083,53.584 138.9431,54.1538 139.8722,55.483" stroke="black" stroke-width="1" /><polyline fill="none" points="155.7428,65.6148 154.548,61.4806 148.6832,63.1756 150.5548,49.2687" stroke="black" stroke-width="1" /><polyline fill="none" points="158.8139,50.8607 158.4462,48.9234 159.7156,47.0597 161.6529,46.692 163.6074,46.3211 165.5111,47.6175 165.8788,49.5548 166.0228,50.3138 165.9673,50.8467 165.8189,51.2598 164.3201,55.4412 162.8214,59.6226 161.3227,63.804 161.3493,63.9441 161.3759,64.0842 161.4025,64.2243 163.7272,63.7831 166.052,63.3419 168.3768,62.9007" stroke="black" stroke-width="1" /><polyline fill="none" points="152.6261,108.6091 236.6952,108.8569 188.1635,280.8196 220.8597,130.6987 108.8569,140.3048 108.8569,140.3048 268.4255,140.8637 140.8637,108.5745 126.744,171.7336 188.1635,280.8196" stroke="black" stroke-width="1" /><polyline fill="none" points="203.5377,272.1633 172.7893,289.4758" stroke="black" stroke-width="1" /><polyline fill="none" points="152.6261,108.5745 152.4813,106.7344 152.0504,104.9397 151.3441,103.2345 150.3797,101.6607 149.181,100.2572 147.7775,99.0585 146.2038,98.0941 144.4985,97.3878 142.7038,96.9569 140.8637,96.8121 139.0237,96.9569 137.2289,97.3878 135.5237,98.0941 133.95,99.0585 132.5465,100.2572 131.3477,101.6607 130.3834,103.2344 129.677,104.9397 129.2462,106.7344 129.1013,108.5745 129.2462,110.4145 129.677,112.2093 130.3834,113.9145 131.3477,115.4882 132.5465,116.8917 133.95,118.0904 135.5237,119.0548 137.2289,119.7612 139.0237,120.192 140.8637,120.3369 142.7038,120.192 144.4985,119.7612 146.2038,119.0548 147.7775,118.0904 149.181,116.8917 150.3797,115.4882 151.3441,113.9145 152.0504,112.2093 152.4813,110.4145 152.6261,108.5745" stroke="black" stroke-width="1" /><polyline fill="none" points="188.5,69.0664 199.6839,69.5912 210.7696,71.161 221.6595,73.7619 232.2581,77.3712 242.4721,81.9571 252.2118,87.4792 261.3915,93.8892 269.9308,101.1306 277.7544,109.1398 284.7936,117.8464 290.9866,127.1739 296.2789,137.0404 300.6241,147.3591 303.9839,158.0393 306.3289,168.9873 307.6383,180.1067 307.9008,191.2998 307.114,202.4684 305.2847,213.5142 302.4292,224.3402 298.5725,234.8512 293.7484,244.9549 287.9994,254.5625 281.376,263.5894 273.9365,271.9565 265.7461,279.5902 256.8768,286.4234 247.4067,292.3961 237.4188,297.4556 227.0011,301.5577 216.2451,304.6663 205.2452,306.7539 194.0981,307.8023 182.9019,307.8023 171.7548,306.7539 160.7549,304.6663 149.9989,301.5577 139.5811,297.4556 129.5933,292.3961 120.1232,286.4234 111.2539,279.5902 103.0635,271.9565 95.6239,263.5894 89.0006,254.5625 83.2516,244.9549 78.4275,234.8512 74.5708,224.3402 71.7153,213.5142 69.8861,202.4684 69.0992,191.2998 69.3617,180.1067 70.6712,168.9872 73.0161,158.0393 76.3759,147.3591 80.7211,137.0404 86.0134,127.174 92.2064,117.8464 99.2457,109.1398 107.0692,101.1306 115.6085,93.8892 124.7882,87.4792 134.5279,81.957 144.7419,77.3712 155.3405,73.7619 166.2304,71.161 177.3161,69.5912 188.5,69.0664" stroke="black" stroke-width="1" />

    </g>
  </g>
  <WCB
     pausedposy="0"
     pausedposx="0"
     lastknownposy="0"
     lastknownposx="0"
     lastpathnc="0"
     lastpath="0"
     node="0"
     layer="0" />
</svg>
