<?xml version="1.0" encoding="UTF-8" standalone="no"?>
<!-- Created with Inkscape (http://www.inkscape.org/) -->

<svg
   xmlns:dc="http://purl.org/dc/elements/1.1/"
   xmlns:cc="http://creativecommons.org/ns#"
   xmlns:rdf="http://www.w3.org/1999/02/22-rdf-syntax-ns#"
   xmlns:svg="http://www.w3.org/2000/svg"
   xmlns="http://www.w3.org/2000/svg"
   xmlns:sodipodi="http://sodipodi.sourceforge.net/DTD/sodipodi-0.dtd"
   xmlns:inkscape="http://www.inkscape.org/namespaces/inkscape"
   width="100mm"
   height="100mm"
   viewBox="0 0 100 100"
   version="1.1"
   id="svg19124"
   inkscape:version="0.92.3 (2405546, 2018-03-11)"
   sodipodi:docname="inkscape_template_TMP.svg"
   shape-rendering="crispEdges">
  <sodipodi:namedview
     pagecolor="#ffffff"
     bordercolor="#666666"
     borderopacity="1"
     objecttolerance="10"
     gridtolerance="10"
     guidetolerance="10"
     inkscape:pageopacity="0"
     inkscape:pageshadow="2"
     inkscape:window-width="1568"
     inkscape:window-height="1550"
     id="namedview24021"
     showgrid="false"
     inkscape:zoom="0.62441667"
     inkscape:cx="712.66515"
     inkscape:cy="409.98265"
     inkscape:window-x="0"
     inkscape:window-y="0"
     inkscape:window-maximized="0"
     inkscape:current-layer="layer1" />
  <defs
     id="defs19118" />
  <metadata
     id="metadata19121">
    <rdf:RDF>
      <cc:Work
         rdf:about="">
        <dc:format>image/svg+xml</dc:format>
        <dc:type
           rdf:resource="http://purl.org/dc/dcmitype/StillImage" />
        <dc:title />
      </cc:Work>
    </rdf:RDF>
  </metadata>
  <g
     transform="translate(0,-197)"
     id="layer1"
     inkscape:groupmode="layer"
     inkscape:label="Layer 1">
    <g
       id="g24447"
       transform="matrix(0.26458333,0,0,0.26458333,0.10666333,197.9735)">

<polyline fill="none" points="192.1004,47.7394 189.7225,51.1455 187.3447,54.5516 184.9669,57.9577 184.9669,54.5516 184.9669,51.1455 184.9669,47.7394 184.9669,45.7676 186.5623,44.1729 188.5334,44.1729 190.5231,44.1729 192.1004,45.7676 192.1004,47.7394 192.1004,51.1455 192.1004,54.5516 192.1004,57.9577 192.1004,59.9295 190.5231,61.5235 188.5509,61.5235 186.5623,61.5235 184.9669,59.9295 184.9669,57.9577" stroke="black" stroke-width="1" /><polyline fill="none" points="197.8298,61.5877 200.7471,57.7851 198.696,53.7706 202.935,62.0679 200.7471,57.7851 203.4811,54.2207" stroke="black" stroke-width="1" /><polyline fill="none" points="218.7234,47.237 217.8667,51.7512 217.01,56.2653 216.1533,60.7794 215.7824,62.7335 213.895,63.9457 212.0247,63.5908 210.1717,63.2391 208.8593,61.4196 209.2302,59.4654 209.5115,57.9833 209.7928,56.5011 210.0741,55.0189 210.4449,53.0648 212.3326,51.8533 214.1856,52.205 216.0559,52.56 217.368,54.3788 216.9972,56.3329" stroke="black" stroke-width="1" /><polyline fill="none" points="229.2902,58.987 229.2917,58.9817 229.2932,58.9765 229.2947,58.9712 228.6474,61.211 228.0001,63.4509 227.3528,65.6907 227.0536,66.7259 227.6651,67.3332 228.2073,67.4898 227.5152,67.2898 227.1095,66.5324 227.3148,65.8222 227.3275,65.7784 227.3401,65.7345 227.3528,65.6907 226.0267,66.3247 224.5847,66.6217 223.1522,66.2077 221.966,65.8649 220.2102,64.7147 220.9099,62.2937 221.2765,61.0252 222.2174,60.4231 223.3624,60.2908 223.9182,60.219 225.5747,60.3583 226.6902,60.4488 227.8273,60.5279 228.9236,60.2555 229.2902,58.987 229.6614,57.7024 228.8072,55.7788 226.8309,55.2076 224.9691,54.6696 223.851,55.3276 223.0645,56.0103" stroke="black" stroke-width="1" /><polyline fill="none" points="239.5838,68.2152 238.8552,70.0656 236.79,70.911 235.0191,70.2137 233.2481,69.5164 232.2982,67.4837 233.0268,65.6333 233.5795,64.2296 234.1322,62.8259 234.685,61.4222 235.4137,59.5715 237.4942,58.7329 239.2652,59.4302 241.0361,60.1275 241.9707,62.1534 241.242,64.0041" stroke="black" stroke-width="1" /><polyline fill="none" points="248.3212,76.2715 250.2659,72.4326 244.8199,69.6738 255.6708,60.7766" stroke="black" stroke-width="1" /><polyline fill="none" points="261.1025,66.494 262.3647,64.4926 268.3842,68.289 255.018,80.1278" stroke="black" stroke-width="1" /><polyline fill="none" points="277.9928,75.4605 277.2057,74.8541 276.1871,74.8273 275.4129,75.8322 274.663,76.8055 273.9132,77.7788 273.1634,78.752 273.6431,79.1217 274.1228,79.4913 274.6026,79.8609 273.679,79.1493 272.7555,78.4378 271.8319,77.7262 272.2757,78.0682 272.7195,78.4101 273.1634,78.752 270.858,81.7443 268.5526,84.7367 266.2472,87.729" stroke="black" stroke-width="1" /><polyline fill="none" points="276.9819,88.3456 278.3264,86.9032 280.5804,86.8236 282.0224,88.1676 283.4779,89.5242 283.5442,91.7663 282.1997,93.2088 281.5063,93.9528 280.8129,94.6968 280.1194,95.4408 278.775,96.8833 276.5342,96.9743 275.0787,95.6177 273.6367,94.2737 273.5572,92.0202 274.9016,90.5777 277.2239,88.086 279.5462,85.5944 281.8685,83.1027 283.2126,81.6605 285.4665,81.5812 286.9084,82.9252 288.1508,84.0831 288.3841,85.8941 287.5849,87.3052" stroke="black" stroke-width="1" /><polyline fill="none" points="296.0846,97.6592 291.9592,98.1455 287.8338,98.6317 283.7084,99.118 286.2538,96.8547 288.7992,94.5915 291.3446,92.3283 292.8182,91.018 295.0701,91.1507 296.3799,92.6237 297.702,94.1107 297.5582,96.349 296.0846,97.6592 293.5392,99.9224 290.9938,102.1857 288.4484,104.4489 286.9748,105.7592 284.7356,105.6397 283.4251,104.1658 282.1037,102.6796 282.2348,100.4282 283.7084,99.118" stroke="black" stroke-width="1" /><polyline fill="none" points="304.1183,108.1327 299.9655,108.2306 295.8127,108.3284 291.6599,108.4262 294.4061,106.4112 297.1523,104.3963 299.8984,102.3814 301.4882,101.2149 303.7177,101.5578 304.8838,103.147 306.0609,104.7513 305.7082,106.9662 304.1183,108.1327 301.3722,110.1477 298.626,112.1626 295.8799,114.1776 294.2901,115.344 292.0719,115.0154 290.9052,113.4253 289.7288,111.8219 290.0701,109.5927 291.6599,108.4262" stroke="black" stroke-width="1" /><polyline fill="none" points="307.4896,113.2185 309.1817,112.206 311.3687,112.7558 312.3811,114.4478 313.4026,116.1549 312.8413,118.3887 311.1493,119.4012 310.4864,119.7978 309.9669,119.9293 309.5279,119.9323 305.0862,119.9656 300.6445,119.9989 296.2028,120.0323 296.0804,120.1055 295.958,120.1787 295.8356,120.252 297.0506,122.2825 298.2656,124.313 299.4807,126.3435" stroke="black" stroke-width="1" /><polyline fill="none" points="320.2729,129.3005 316.1266,131.2802 311.9803,133.2599 307.8339,135.2395 306.039,136.0965 303.9451,135.2919 303.1249,133.5741 302.3122,131.872 303.0029,129.7375 304.7978,128.8805 306.1592,128.2305 307.5206,127.5805 308.882,126.9305 310.6769,126.0735 312.7703,126.8787 313.583,128.5808 314.4032,130.2987 313.7131,132.4325 311.9182,133.2895" stroke="black" stroke-width="1" /><polyline fill="none" points="319.0594,144.549 317.2083,145.2282 315.1683,144.2959 314.4891,142.4448 313.8039,140.5775 314.7513,138.532 316.6024,137.8528 317.5575,137.5023 318.5125,137.1519 319.4676,136.8015 321.3187,136.1223 323.3649,137.0694 324.0443,138.9209 324.7293,140.7878 323.7757,142.8185 321.9246,143.4977 318.7269,144.671 315.5293,145.8443 312.3317,147.0175 310.4809,147.6967 308.4406,146.7645 307.7613,144.9133 307.1767,143.32 307.787,141.5979 309.1379,140.7001" stroke="black" stroke-width="1" /><polyline fill="none" points="323.7127,149.2144 325.6194,148.7115 327.5677,149.8469 328.0706,151.7535 328.578,153.6771 327.4186,155.6672 325.5119,156.1701 324.765,156.3672 324.2294,156.3492 323.8069,156.2302 319.5305,155.029 315.2542,153.8279 310.9778,152.6267 310.8399,152.6631 310.702,152.6994 310.5641,152.7358 311.1676,155.0238 311.7711,157.3118 312.3746,159.5999" stroke="black" stroke-width="1" /><polyline fill="none" points="314.373,170.3397 318.6185,169.6366 317.6212,163.6138 331.2136,167.099" stroke="black" stroke-width="1" /><polyline fill="none" points="332.6406,181.2671 332.4964,179.2201 332.3522,177.1731 332.2079,175.126 329.5114,175.316 326.8147,175.506 324.1181,175.696 325.3781,176.2603 326.1462,177.1521 326.251,178.6399 326.3956,180.6924 324.8143,182.4021 322.9164,182.5358 321.5596,182.6314 320.2028,182.727 318.846,182.8226 316.8623,182.9623 315.2963,181.4743 315.1649,179.6096 315.0348,177.7627 316.3779,176.087 318.3617,175.9472" stroke="black" stroke-width="1" /><polyline fill="none" points="329.3041,188.2994 331.2754,188.3456 332.8319,189.9773 332.7857,191.9486 332.7391,193.9374 331.0727,195.5274 329.1014,195.4812 328.3291,195.4631 327.8196,195.2971 327.4467,195.0655 323.672,192.7242 319.8972,190.383 316.1225,188.0418 315.9799,188.0384 315.8373,188.0351 315.6947,188.0317 315.6393,190.3974 315.5838,192.763 315.5283,195.1286" stroke="black" stroke-width="1" /><polyline fill="none" points="331.5377,208.7213 326.9745,208.1839 322.4114,207.6466 317.8482,207.1092 315.8729,206.8766 314.531,205.079 314.7536,203.1884 314.9742,201.3153 316.697,199.8783 318.6724,200.1109 320.1706,200.2873 321.6689,200.4638 323.1672,200.6402 325.1425,200.8728 326.4836,202.6707 326.2631,204.5438 326.0404,206.4344 324.3184,207.8712 322.343,207.6385" stroke="black" stroke-width="1" /><polyline fill="none" points="329.0156,222.0267 324.5228,221.0644 320.03,220.1021 315.5373,219.1398 313.5924,218.7232 312.4247,216.8079 312.8234,214.9465 313.2184,213.1022 315.0682,211.8328 317.0131,212.2494 318.4883,212.5654 319.9634,212.8813 321.4386,213.1973 323.3835,213.6139 324.5504,215.5294 324.1554,217.3737 323.7567,219.2351 321.9077,220.5043 319.9628,220.0877" stroke="black" stroke-width="1" /><polyline fill="none" points="323.8241,227.4002 325.7051,227.9919 326.7474,229.9915 326.1557,231.8725 325.5587,233.7702 323.5164,234.835 321.6354,234.2433 320.8985,234.0115 320.4551,233.7106 320.1612,233.3845 317.1849,230.0873 314.2086,226.7901 311.2322,223.4929 311.0962,223.4501 310.9601,223.4073 310.8241,223.3645 310.114,225.6217 309.4039,227.8789 308.6938,230.1362" stroke="black" stroke-width="1" /><polyline fill="none" points="307.5542,242.3896 305.7214,241.6178 304.9246,239.5334 305.6633,237.7793 306.4019,236.0251 308.4563,235.1231 310.2891,235.8949 311.6794,236.4804 313.0698,237.0658 314.4602,237.6513 316.2933,238.4232 317.0829,240.5229 316.3443,242.277 315.6056,244.0311 313.5584,244.9179 311.7253,244.146" stroke="black" stroke-width="1" /><polyline fill="none" points="313.7356,253.1372 315.4556,257.0768 300.348,248.9731" stroke="black" stroke-width="1" /><polyline fill="none" points="303.0276,260.3645 304.6846,261.4647 305.069,263.6744 304.0161,265.2603 302.9635,266.8456 300.7868,267.3352 299.1298,266.235 297.873,265.4005 296.6162,264.5661 295.3593,263.7316 293.7026,262.6316 293.3085,260.4352 294.3611,258.8499 295.414,257.2639 297.5911,256.7751 299.2478,257.8751 299.2509,257.8704 299.254,257.8657 299.2571,257.8611 303.0849,260.4025 306.9127,262.944 310.7405,265.4855" stroke="black" stroke-width="1" /><polyline fill="none" points="294.6249,269.7247 296.1583,270.9644 296.3961,273.2073 295.1568,274.7402 293.9058,276.2875 291.6738,276.5111 290.1404,275.2714 289.3495,274.632 288.5586,273.9925 287.7677,273.3531 286.2343,272.1133 285.9861,269.8845 287.2371,268.3372 288.4764,266.8044 290.7188,266.5667 292.2522,267.8064 294.9009,269.9478 297.5496,272.0893 300.1982,274.2307 301.7314,275.4702 301.9689,277.7129 300.7296,279.2458 299.6618,280.5664 297.8717,280.9264 296.4079,280.2283" stroke="black" stroke-width="1" /><polyline fill="none" points="285.9404,283.7117 284.7361,284.7994 284.5787,287.1057 285.9831,288.4776 286.31,288.7969 286.6368,289.1161 286.9637,289.4354 288.2886,290.7297 290.423,290.7037 291.7292,289.3664 293.0233,288.0417 292.974,285.8836 291.6738,284.6136 291.3469,284.2943 291.0201,283.975 290.6932,283.6557 289.368,282.3612 287.2344,282.387 285.9404,283.7117 284.5146,285.1713 282.2097,285.1511 280.7997,283.7737 280.3172,283.3025 279.8347,282.8312 279.3523,282.3599 277.942,280.9823 277.8918,278.702 279.3176,277.2424 280.7314,275.795 283.0115,275.7925 284.4218,277.1702 284.9123,277.6492 285.4027,278.1283 285.8932,278.6074 287.1021,279.7884 287.4094,282.0627" stroke="black" stroke-width="1" /><polyline fill="none" points="278.5725,289.3365 279.8589,290.8535 279.6147,293.0831 278.1629,294.3144 276.7115,295.5451 274.4845,295.4111 273.1981,293.8941 272.2224,292.7435 271.2466,291.5929 270.2709,290.4423 268.9847,288.9256 269.2159,286.7061 270.6672,285.4753 272.1191,284.2441 274.3463,284.3789 275.6325,285.8956 275.6367,285.892 275.641,285.8884 275.6453,285.8847 278.617,289.389 281.5887,292.8933 284.5604,296.3976" stroke="black" stroke-width="1" /><polyline fill="none" points="259.1223,294.2653 261.586,297.7936 266.5914,294.2986 269.3027,308.0663" stroke="black" stroke-width="1" /><polyline fill="none" points="260.9615,309.4635 261.841,311.0148 261.3217,313.1227 259.6359,314.0786 257.951,315.0338 255.9015,314.4801 254.9038,312.7203 254.746,312.442 254.5882,312.1638 254.4305,311.8855 252.9083,309.2008 254.9965,307.426 255.2954,307.2566 255.5836,307.0931 255.8718,306.9297 256.16,306.7663 255.8718,306.9297 255.5836,307.0931 255.2954,307.2566 254.4149,307.7558 251.9435,307.7771 250.7599,305.6896 250.4131,305.0779 250.0663,304.4663 249.7195,303.8546 248.7388,302.125 249.3632,299.9575 251.0935,298.9765 252.8386,297.9871 255.0036,298.573 255.9843,300.3026" stroke="black" stroke-width="1" /><polyline fill="none" points="242.8697,318.3862 243.6438,314.3051 244.4179,310.2239 245.192,306.1427 246.5871,309.2499 247.9822,312.3572 249.3773,315.4645 250.185,317.2633 249.3827,319.3716 247.5845,320.179 245.7693,320.9939 243.6773,320.1851 242.8697,318.3862 241.4746,315.279 240.0795,312.1718 238.6844,309.0645 237.8767,307.2656 238.6627,305.1655 240.4619,304.3577 242.276,303.5432 244.3844,304.3438 245.192,306.1427" stroke="black" stroke-width="1" /><polyline fill="none" points="226.7701,311.6605 227.0452,310.607 227.4825,309.4979 229.4955,308.8124 231.2975,308.1987 233.3365,309.1342 233.9944,311.0661 234.4752,312.4778 234.9559,313.8896 235.4367,315.3013 236.0779,317.1841 235.0333,319.169 233.2313,319.7827 231.3969,320.4074 229.3259,319.4835 228.6847,317.6006 228.4453,316.8976 228.2058,316.1945 227.9664,315.4913 230.2116,314.7267 232.4569,313.9621 234.7021,313.1975" stroke="black" stroke-width="1" /><polyline fill="none" points="222.9959,317.6122 223.454,319.5302 222.2734,321.4521 220.3562,321.91 218.4209,322.3722 216.5164,321.1871 216.0583,319.2692 215.822,318.28 215.5857,317.2908 215.3495,316.3015 214.8914,314.3836 216.0551,312.4665 217.9904,312.0043 219.9076,311.5464 221.829,312.7266 222.2871,314.6446 223.0783,317.9575 223.8696,321.2703 224.6608,324.5833 225.1188,326.5008 223.9382,328.4223 222.021,328.8802 220.3692,329.2747 218.7314,328.4673 217.9978,327.021" stroke="black" stroke-width="1" /><polyline fill="none" points="203.7045,314.7641 204.3079,319.025 210.3524,318.169 206.5495,331.6761" stroke="black" stroke-width="1" /><polyline fill="none" points="198.8229,330.0981 198.9338,332.4617 191.8249,332.7953 196.0061,315.4364" stroke="black" stroke-width="1" /><polyline fill="none" points="178.9123,323.9457 178.912,323.9512 178.9118,323.9566 178.9115,323.9621 179.0208,321.6332 179.1301,319.3042 179.2394,316.9753 179.2899,315.8989 178.554,315.4503 177.9903,315.4239 178.7099,315.4576 179.2805,316.1001 179.2458,316.8386 179.2437,316.8842 179.2415,316.9297 179.2394,316.9753 180.3819,316.0506 181.7155,315.4267 183.205,315.4966 184.4383,315.5545 186.4133,316.2654 186.2952,318.7827 186.2333,320.1016 185.4579,320.9058 184.375,321.3005 183.8512,321.4994 182.2076,321.7487 181.1015,321.9199 179.9772,322.1071 178.9742,322.6267 178.9123,323.9457 178.8496,325.2814 180.1273,326.9539 182.1823,327.0504 184.1181,327.1412 185.0527,326.2415 185.6592,325.3947" stroke="black" stroke-width="1" /><polyline fill="none" points="172.076,328.5468 171.826,330.3124 170.1281,331.6653 168.2093,331.3936 166.2915,331.122 165.006,329.4325 165.2897,327.4296 165.3345,327.1129 165.3794,326.7961 165.4242,326.4794 165.8569,323.4237 168.5943,323.2922 168.9344,323.3404 169.2625,323.3868 169.5905,323.4333 169.9186,323.4797 169.5905,323.4333 169.2625,323.3868 168.9344,323.3404 167.9323,323.1985 165.9615,321.707 166.2979,319.331 166.3965,318.6348 166.4951,317.9387 166.5937,317.2425 166.8724,315.2738 168.6899,313.9379 170.6593,314.2168 172.6456,314.498 174.003,316.2835 173.7242,318.2522" stroke="black" stroke-width="1" /><polyline fill="none" points="152.2987,324.5734 155.4027,321.8129 158.5067,319.0524 161.6108,316.2919 160.8195,319.6047 160.0283,322.9177 159.237,326.2305 158.7789,328.1484 156.8567,329.3289 154.9395,328.871 153.0042,328.4088 151.8406,326.4913 152.2987,324.5734 153.09,321.2605 153.8812,317.9476 154.6725,314.6347 155.1305,312.7168 157.0349,311.5328 158.9531,311.991 160.8874,312.4529 162.0688,314.3739 161.6108,316.2919" stroke="black" stroke-width="1" /><polyline fill="none" points="146.4382,322.875 145.8025,324.7416 143.779,325.7368 141.9124,325.1011 140.0293,324.4598 139.0126,322.3931 139.6482,320.5265 139.8973,319.7952 140.2084,319.359 140.5413,319.0728 143.9074,316.1746 147.2735,313.2764 150.6396,310.3782 150.6855,310.2432 150.7315,310.1082 150.7775,309.9732 148.5375,309.2104 146.2976,308.4476 144.0576,307.6848" stroke="black" stroke-width="1" /><polyline fill="none" points="133.7205,319.4801 132.7513,321.6387 126.259,318.7238 137.8333,305.1279" stroke="black" stroke-width="1" /><polyline fill="none" points="115.7399,312.9702 116.6042,313.4603 117.6165,313.3441 118.2422,312.2405 118.8482,311.1717 119.4541,310.1029 120.0601,309.0341 119.5333,308.7354 119.0064,308.4367 118.4796,308.138 119.4938,308.7131 120.508,309.2881 121.5222,309.8631 121.0349,309.5868 120.5475,309.3105 120.0601,309.0341 121.9232,305.7482 123.7863,302.4622 125.6493,299.1762" stroke="black" stroke-width="1" /><polyline fill="none" points="110.5615,306.0093 109.5406,307.4714 107.4146,307.9109 105.8256,306.8015 104.2376,305.6926 103.8543,303.6045 105.0125,301.9459 105.1956,301.6837 105.3788,301.4214 105.5619,301.1591 107.3288,298.6287 109.8301,299.7485 110.1118,299.9452 110.3834,300.1349 110.6551,300.3246 110.9267,300.5142 110.6551,300.3246 110.3834,300.1349 110.1118,299.9452 109.2819,299.3657 108.1978,297.1446 109.5717,295.1771 109.9742,294.6006 110.3767,294.0241 110.7793,293.4476 111.9176,291.8174 114.1426,291.447 115.7734,292.5857 117.4182,293.7343 117.8223,295.9405 116.6839,297.5706" stroke="black" stroke-width="1" /><polyline fill="none" points="92.953,296.6647 94.5181,297.9919 96.0832,299.3192 97.6483,300.6464 99.3967,298.5846 101.1451,296.5228 102.8936,294.4611 101.6095,294.968 100.4347,294.8943 99.2972,293.9297 97.7279,292.5989 97.6099,290.2731 98.8404,288.822 99.7201,287.7846 100.5998,286.7473 101.4795,285.7099 102.7657,284.1932 104.9244,284.1127 106.3501,285.3217 107.7622,286.5192 108.0224,288.6509 106.7363,290.1677" stroke="black" stroke-width="1" /><polyline fill="none" points="90.2539,289.364 88.8433,290.7418 86.5885,290.7151 85.2106,289.3046 83.8205,287.8815 83.8475,285.5784 85.2581,284.2006 85.8107,283.6607 86.2854,283.4122 86.7117,283.3073 91.0241,282.2431 95.3366,281.1788 99.6491,280.1146 99.7511,280.0149 99.8531,279.9152 99.9552,279.8156 98.3017,278.1229 96.6482,276.4301 94.9947,274.7375" stroke="black" stroke-width="1" /><polyline fill="none" points="80.4429,280.5883 78.6029,282.076 74.1286,276.5418 90.5977,269.6438" stroke="black" stroke-width="1" /><polyline fill="none" points="73.1698,269.2761 71.527,270.3668 69.3167,269.9201 68.226,268.2774 67.1256,266.6201 67.5816,264.3624 69.2243,263.2717 69.8679,262.8444 70.3806,262.6888 70.819,262.6652 75.2543,262.4237 79.6896,262.1823 84.1249,261.9407 84.2437,261.8619 84.3625,261.783 84.4813,261.7041 83.1725,259.7328 81.8636,257.7614 80.5547,255.7901" stroke="black" stroke-width="1" /><polyline fill="none" points="62.7558,251.8632 66.8813,252.3486 71.0068,252.834 75.1323,253.3194 72.1307,254.9294 69.1292,256.5394 66.1277,258.1494 64.39,259.0815 62.2306,258.4293 61.2989,256.6923 60.3584,254.9389 61.0181,252.7953 62.7558,251.8632 65.7573,250.2532 68.7588,248.6432 71.7604,247.0331 73.498,246.1011 75.6482,246.7375 76.5805,248.4754 77.5205,250.2279 76.8699,252.3873 75.1323,253.3194" stroke="black" stroke-width="1" /><polyline fill="none" points="59.4985,245.2496 55.3535,244.1103 71.1535,237.4569" stroke="black" stroke-width="1" /><polyline fill="none" points="62.845,224.3999 64.742,223.8031 66.6978,224.8776 67.269,226.6931 67.8401,228.5087 66.8567,230.5254 64.9597,231.1222 63.5206,231.5749 62.0815,232.0276 60.6424,232.4803 58.7451,233.0772 56.7849,231.9865 56.2138,230.1709 55.6426,228.3554 56.6304,226.3549 58.5277,225.7581" stroke="black" stroke-width="1" /><polyline fill="none" points="51.1793,220.2008 47.3194,218.3085 64.083,214.7179" stroke="black" stroke-width="1" /><polyline fill="none" points="53.3078,201.1699 53.3024,201.1705 53.2969,201.1712 53.2915,201.1718 55.607,200.8991 57.9225,200.6265 60.238,200.3538 61.3082,200.2278 61.6305,199.4285 61.5645,198.868 61.6487,199.5835 61.1081,200.2513 60.3739,200.3378 60.3286,200.3431 60.2833,200.3484 60.238,200.3538 61.3369,201.3298 62.1703,202.5436 62.3447,204.0245 62.4891,205.2507 62.1104,207.3153 59.6077,207.61 58.2963,207.7645 57.3762,207.1309 56.8099,206.127 56.5281,205.6427 56.0136,204.062 55.664,202.9987 55.2957,201.9201 54.6191,201.0155 53.3078,201.1699 51.9798,201.3263 50.5385,202.8601 50.7791,204.9032 51.0058,206.8278 52.0461,207.6029 52.9806,208.0629" stroke="black" stroke-width="1" /><polyline fill="none" points="44.0401,188.533 48.6335,188.4253 53.2269,188.3176 57.8203,188.2099 59.8088,188.1632 61.3894,189.7549 61.4341,191.658 61.4783,193.5436 59.974,195.208 57.9855,195.2546 56.4773,195.29 54.9691,195.3253 53.4609,195.3607 51.4724,195.4073 49.8925,193.8153 49.8483,191.9297 49.8036,190.0266 51.3073,188.3626 53.2957,188.316" stroke="black" stroke-width="1" /><polyline fill="none" points="60.1404,175.973 61.0046,176.6354 61.8571,177.4688 61.7076,179.59 61.5738,181.489 59.9203,183.0051 57.8845,182.8617 56.3969,182.7569 54.9092,182.6521 53.4215,182.5473 51.4374,182.4075 50.0135,180.6745 50.1473,178.7756 50.2835,176.8425 51.9387,175.2924 53.9228,175.4322 54.6637,175.4844 55.4046,175.5366 56.1456,175.5888 55.9789,177.9548 55.8122,180.3208 55.6455,182.6868" stroke="black" stroke-width="1" /><polyline fill="none" points="54.585,169.8496 52.6227,169.5247 51.3669,167.6663 51.6779,165.7882 51.9888,163.9108 53.774,162.5727 55.7363,162.8976 57.2246,163.1441 58.713,163.3906 60.2013,163.6371 62.1633,163.962 63.4224,165.8043 63.1115,167.6816 62.8005,169.5597 61.0147,170.8974 59.0528,170.5725 59.0519,170.578 59.051,170.5835 59.0501,170.5891 54.5171,169.8384 49.9842,169.0877 45.4512,168.3371" stroke="black" stroke-width="1" /><polyline fill="none" points="56.9199,157.3916 54.9966,156.8843 53.9204,154.9164 54.4059,153.0757 54.8912,151.2357 56.7939,150.0706 58.7171,150.5779 60.1758,150.9627 61.6345,151.3474 63.0933,151.7322 65.0162,152.2394 66.0973,154.1915 65.612,156.0315 65.1265,157.8722 63.2232,159.0368 61.3004,158.5296 61.2989,158.535 61.2975,158.5404 61.2961,158.5458 56.8533,157.374 52.4106,156.2021 47.9678,155.0303" stroke="black" stroke-width="1" /><polyline fill="none" points="60.498,137.5789 62.3492,138.2581 63.3021,140.2885 62.6229,142.1397 61.9377,144.007 59.8922,144.9543 58.041,144.2751 57.086,143.9247 56.131,143.5742 55.1759,143.2238 53.3248,142.5446 52.3767,140.4988 53.0561,138.6473 53.7411,136.7804 55.7818,135.8484 57.6329,136.5276 60.8306,137.7009 64.0282,138.8742 67.2258,140.0475 69.0766,140.7266 70.0299,142.7571 69.3506,144.6083 68.766,146.2016 67.1868,147.1203 65.5757,146.9313" stroke="black" stroke-width="1" /><polyline fill="none" points="59.5438,123.6993 58.6596,125.5512 57.7755,127.403 56.8913,129.2549 59.3308,130.4196 61.7703,131.5844 64.2098,132.7492 63.3921,131.6368 63.1637,130.4822 63.8064,129.1362 64.6929,127.2794 66.9117,126.5721 68.6286,127.3918 69.8561,127.9779 71.0835,128.5639 72.311,129.15 74.1055,130.0068 74.7339,132.0736 73.9285,133.7605 73.1307,135.4313 71.1359,136.2266 69.3413,135.3698" stroke="black" stroke-width="1" /><polyline fill="none" points="69.5613,113.1336 71.2631,116.923 72.965,120.7123 74.6668,124.5017 71.744,122.7528 68.8212,121.0038 65.8985,119.2549 64.2064,118.2424 63.6572,116.0545 64.6693,114.3631 65.691,112.6557 67.8693,112.1211 69.5613,113.1336 72.4841,114.8826 75.4069,116.6315 78.3296,118.3804 80.0217,119.3929 80.5796,121.5648 79.567,123.2571 78.5458,124.9636 76.3588,125.5142 74.6668,124.5017" stroke="black" stroke-width="1" /><polyline fill="none" points="74.0441,100.3608 77.7486,103.0788 81.4531,105.7969 85.1575,108.515 86.7612,109.6917 87.0419,111.9172 85.9158,113.452 84.8,114.9727 82.5926,115.373 80.9889,114.1964 79.7726,113.3039 78.5563,112.4115 77.3399,111.519 75.7363,110.3424 75.4563,108.117 76.5721,106.5963 77.6983,105.0615 79.9049,104.661 81.5085,105.8376" stroke="black" stroke-width="1" /><polyline fill="none" points="80.9125,97.353 79.5799,96.1681 79.392,94.0052 80.6797,92.557 81.9667,91.1096 84.0852,90.9731 85.597,92.3173 85.836,92.5299 86.0751,92.7424 86.3142,92.955 88.6205,95.0057 87.2159,97.3588 86.9876,97.6156 86.7674,97.8632 86.5473,98.1108 86.3271,98.3584 86.5473,98.1108 86.7674,97.8632 86.9876,97.6156 87.6602,96.8592 89.9928,96.0423 91.7861,97.6368 92.3116,98.104 92.837,98.5713 93.3625,99.0385 94.8484,100.3596 94.956,102.6127 93.6344,104.0991 92.3014,105.5983 90.063,105.7415 88.5772,104.4204" stroke="black" stroke-width="1" /><polyline fill="none" points="97.3248,85.2308 98.6692,86.6732 98.6017,88.9151 97.1592,90.2595 95.7042,91.6157 93.4514,91.5364 92.1069,90.0939 91.4133,89.3497 90.7197,88.6056 90.0261,87.8614 88.6817,86.4189 88.7605,84.1655 90.2032,82.8209 91.658,81.465 93.8995,81.5557 95.244,82.9982 97.5662,85.4899 99.8885,87.9815 102.2108,90.4731 103.555,91.9154 103.4877,94.1575 102.0453,95.5019 100.8037,96.6591 98.9798,96.765 97.628,95.8684" stroke="black" stroke-width="1" /><polyline fill="none" points="105.4445,74.7974 105.6396,78.9468 105.8347,83.0962 106.0299,87.2455 103.9511,84.5474 101.8724,81.8492 99.7936,79.151 98.5901,77.589 98.8807,75.3521 100.4422,74.149 102.0184,72.9347 104.241,73.2354 105.4445,74.7974 107.5232,77.4956 109.602,80.1937 111.6807,82.8919 112.8842,84.4539 112.6076,86.6792 111.0453,87.8829 109.47,89.0966 107.2333,88.8076 106.0299,87.2455" stroke="black" stroke-width="1" /><polyline fill="none" points="118.817,71.9593 118.8141,71.9546 118.8112,71.95 118.8083,71.9454 120.052,73.9174 121.2958,75.8895 122.5395,77.8616 123.1143,78.773 123.9745,78.7195 124.4518,78.4184 123.8425,78.8027 123.0069,78.6026 122.6125,77.9773 122.5882,77.9387 122.5638,77.9001 122.5395,77.8616 122.1321,79.2738 121.3959,80.5488 120.1347,81.3443 119.0903,82.0029 117.0641,82.5508 115.7197,80.4192 115.0154,79.3023 115.1907,78.1991 115.8526,77.2555 116.1682,76.7925 117.373,75.6471 118.1819,74.8735 118.9966,74.0764 119.5214,73.0761 118.817,71.9593 118.1037,70.8282 116.0986,70.1884 114.3586,71.2859 112.7194,72.3196 112.4682,73.5924 112.4558,74.6339" stroke="black" stroke-width="1" /><polyline fill="none" points="128.102,61.3049 127.5201,65.4179 126.9381,69.5309 126.3561,73.6439 124.8169,70.6054 123.2777,67.567 121.7385,64.5285 120.8474,62.7695 121.55,60.626 123.3084,59.7352 125.0833,58.8361 127.2109,59.5459 128.102,61.3049 129.6412,64.3434 131.1804,67.3818 132.7196,70.4203 133.6107,72.1793 132.9241,74.314 131.1647,75.2052 129.3907,76.1039 127.2472,75.4029 126.3561,73.6439" stroke="black" stroke-width="1" /><polyline fill="none" points="138.6059,61.7306 140.15,61.2316 141.2383,59.1921 140.519,57.3654 140.3516,56.9402 140.1841,56.5151 140.0167,56.0899 139.3381,54.3665 137.3803,53.516 135.641,54.2009 133.9179,54.8794 133.0789,56.8683 133.7449,58.5595 133.9123,58.9847 134.0797,59.4098 134.2471,59.835 134.9258,61.5587 136.8828,62.4091 138.6059,61.7306 140.5044,60.9831 142.5988,61.9455 143.321,63.7796 143.5681,64.4072 143.8152,65.0347 144.0623,65.6622 144.7846,67.4966 143.8964,69.5975 141.9979,70.345 140.1153,71.0863 138.0342,70.1547 137.3119,68.3203 137.0607,67.6823 136.8095,67.0444 136.5583,66.4064 135.9391,64.8339 136.5903,62.6333" stroke="black" stroke-width="1" /><polyline fill="none" points="155.7428,65.6148 154.548,61.4806 148.6832,63.1756 150.5548,49.2687" stroke="black" stroke-width="1" /><polyline fill="none" points="167.5425,59.5087 167.9133,61.4624 166.6175,63.2792 164.7476,63.6341 162.8777,63.9889 160.9899,62.7764 160.6191,60.8227 160.3378,59.3405 160.0565,57.8583 159.7752,56.3762 159.4043,54.422 160.7168,52.6029 162.5867,52.248 164.4566,51.8931 166.3278,53.108 166.6986,55.0622" stroke="black" stroke-width="1" /><polyline fill="none" points="209.1404,131.7038 108.8569,140.3048 108.5745,236.1363 96.1804,188.1635 188.2428,253.3668 239.8942,231.6324 140.3048,268.1431 236.1363,268.4255 188.8697,188.4998 108.8569,140.3048" stroke="black" stroke-width="1" /><polyline fill="none" points="99.7534,155.4185 117.9605,125.1912" stroke="black" stroke-width="1" /><polyline fill="none" points="232.6221,130.6987 232.4773,128.8586 232.0464,127.0639 231.3401,125.3586 230.3757,123.7849 229.177,122.3814 227.7735,121.1827 226.1998,120.2183 224.4945,119.5119 222.6998,119.0811 220.8597,118.9362 219.0197,119.0811 217.225,119.5119 215.5197,120.2183 213.946,121.1827 212.5425,122.3814 211.3438,123.7849 210.3794,125.3586 209.673,127.0639 209.2422,128.8586 209.0973,130.6987 209.2422,132.5387 209.673,134.3334 210.3794,136.0387 211.3438,137.6124 212.5425,139.0159 213.946,140.2146 215.5197,141.179 217.2249,141.8854 219.0197,142.3162 220.8597,142.4611 222.6998,142.3162 224.4945,141.8854 226.1998,141.179 227.7735,140.2146 229.177,139.0159 230.3757,137.6124 231.3401,136.0387 232.0464,134.3334 232.4773,132.5387 232.6221,130.6987" stroke="black" stroke-width="1" /><polyline fill="none" points="188.5,69.0664 199.6839,69.5912 210.7696,71.161 221.6595,73.7619 232.2581,77.3712 242.4721,81.9571 252.2118,87.4792 261.3915,93.8892 269.9308,101.1306 277.7544,109.1398 284.7936,117.8464 290.9866,127.1739 296.2789,137.0404 300.6241,147.3591 303.9839,158.0393 306.3289,168.9873 307.6383,180.1067 307.9008,191.2998 307.114,202.4684 305.2847,213.5142 302.4292,224.3402 298.5725,234.8512 293.7484,244.9549 287.9994,254.5625 281.376,263.5894 273.9365,271.9565 265.7461,279.5902 256.8768,286.4234 247.4067,292.3961 237.4188,297.4556 227.0011,301.5577 216.2451,304.6663 205.2452,306.7539 194.0981,307.8023 182.9019,307.8023 171.7548,306.7539 160.7549,304.6663 149.9989,301.5577 139.5811,297.4556 129.5933,292.3961 120.1232,286.4234 111.2539,279.5902 103.0635,271.9565 95.6239,263.5894 89.0006,254.5625 83.2516,244.9549 78.4275,234.8512 74.5708,224.3402 71.7153,213.5142 69.8861,202.4684 69.0992,191.2998 69.3617,180.1067 70.6712,168.9872 73.0161,158.0393 76.3759,147.3591 80.7211,137.0404 86.0134,127.174 92.2064,117.8464 99.2457,109.1398 107.0692,101.1306 115.6085,93.8892 124.7882,87.4792 134.5279,81.957 144.7419,77.3712 155.3405,73.7619 166.2304,71.161 177.3161,69.5912 188.5,69.0664" stroke="black" stroke-width="1" />

    </g>
  </g>
  <WCB
     pausedposy="0"
     pausedposx="0"
     lastknownposy="0"
     lastknownposx="0"
     lastpathnc="0"
     lastpath="0"
     node="0"
     layer="0" />
</svg>
