<?xml version="1.0" encoding="UTF-8" standalone="no"?>
<!-- Created with Inkscape (http://www.inkscape.org/) -->

<svg
   xmlns:dc="http://purl.org/dc/elements/1.1/"
   xmlns:cc="http://creativecommons.org/ns#"
   xmlns:rdf="http://www.w3.org/1999/02/22-rdf-syntax-ns#"
   xmlns:svg="http://www.w3.org/2000/svg"
   xmlns="http://www.w3.org/2000/svg"
   xmlns:sodipodi="http://sodipodi.sourceforge.net/DTD/sodipodi-0.dtd"
   xmlns:inkscape="http://www.inkscape.org/namespaces/inkscape"
   width="100mm"
   height="100mm"
   viewBox="0 0 100 100"
   version="1.1"
   id="svg19124"
   inkscape:version="0.92.3 (2405546, 2018-03-11)"
   sodipodi:docname="inkscape_template_TMP.svg"
   shape-rendering="crispEdges">
  <sodipodi:namedview
     pagecolor="#ffffff"
     bordercolor="#666666"
     borderopacity="1"
     objecttolerance="10"
     gridtolerance="10"
     guidetolerance="10"
     inkscape:pageopacity="0"
     inkscape:pageshadow="2"
     inkscape:window-width="1568"
     inkscape:window-height="1550"
     id="namedview24021"
     showgrid="false"
     inkscape:zoom="0.62441667"
     inkscape:cx="712.66515"
     inkscape:cy="409.98265"
     inkscape:window-x="0"
     inkscape:window-y="0"
     inkscape:window-maximized="0"
     inkscape:current-layer="layer1" />
  <defs
     id="defs19118" />
  <metadata
     id="metadata19121">
    <rdf:RDF>
      <cc:Work
         rdf:about="">
        <dc:format>image/svg+xml</dc:format>
        <dc:type
           rdf:resource="http://purl.org/dc/dcmitype/StillImage" />
        <dc:title />
      </cc:Work>
    </rdf:RDF>
  </metadata>
  <g
     transform="translate(0,-197)"
     id="layer1"
     inkscape:groupmode="layer"
     inkscape:label="Layer 1">
    <g
       id="g24447"
       transform="matrix(0.26458333,0,0,0.26458333,0.10666333,197.9735)">

<polyline fill="none" points="192.1004,47.7394 189.7225,51.1455 187.3447,54.5516 184.9669,57.9577 184.9669,54.5516 184.9669,51.1455 184.9669,47.7394 184.9669,45.7676 186.5623,44.1729 188.5334,44.1729 190.5231,44.1729 192.1004,45.7676 192.1004,47.7394 192.1004,51.1455 192.1004,54.5516 192.1004,57.9577 192.1004,59.9295 190.5231,61.5235 188.5509,61.5235 186.5623,61.5235 184.9669,59.9295 184.9669,57.9577" stroke="black" stroke-width="1" /><polyline fill="none" points="197.8298,61.5877 200.7471,57.7851 198.696,53.7706 202.935,62.0679 200.7471,57.7851 203.4811,54.2207" stroke="black" stroke-width="1" /><polyline fill="none" points="218.7234,47.237 217.8667,51.7512 217.01,56.2653 216.1533,60.7794 215.7824,62.7335 213.895,63.9457 212.0247,63.5908 210.1717,63.2391 208.8593,61.4196 209.2302,59.4654 209.5115,57.9833 209.7928,56.5011 210.0741,55.0189 210.4449,53.0648 212.3326,51.8533 214.1856,52.205 216.0559,52.56 217.368,54.3788 216.9972,56.3329" stroke="black" stroke-width="1" /><polyline fill="none" points="222.6844,57.6853 223.2367,55.7745 225.2292,54.7446 227.058,55.2732 228.8861,55.8015 230.0063,57.7309 229.4541,59.6417 229.0352,61.091 228.6164,62.5403 228.1975,63.9897 227.6454,65.9001 225.6685,66.9352 223.8403,66.4069 222.0115,65.8783 220.8919,63.9483 221.444,62.0379 221.4386,62.0363 221.4333,62.0348 221.4279,62.0332 222.7036,57.6192 223.9792,53.2051 225.2549,48.7911" stroke="black" stroke-width="1" /><polyline fill="none" points="238.4333,61.7461 239.903,62.4338 242.0897,61.6838 242.809,59.8571 242.9764,59.4319 243.1438,59.0068 243.3112,58.5816 243.9898,56.8582 243.1375,54.9012 241.3982,54.2163 239.6751,53.5378 237.7053,54.4208 237.0393,56.112 236.8719,56.5371 236.7045,56.9623 236.5371,57.3875 235.8584,59.1112 236.7102,61.0676 238.4333,61.7461 240.3318,62.4936 241.2077,64.6257 240.4855,66.4598 240.2384,67.0873 239.9913,67.7149 239.7442,68.3424 239.0219,70.1768 236.9398,71.108 235.0412,70.3605 233.1586,69.6192 232.2715,67.5187 232.9938,65.6843 233.245,65.0464 233.4962,64.4084 233.7474,63.7705 234.3666,62.198 236.3433,61.0322" stroke="black" stroke-width="1" /><polyline fill="none" points="249.3586,60.2315 250.4279,58.1207 256.7765,61.3367 244.5776,74.3751" stroke="black" stroke-width="1" /><polyline fill="none" points="267.0143,67.577 266.1739,67.047 265.1573,67.1156 264.4806,68.1887 263.8252,69.2279 263.1698,70.2671 262.5144,71.3063 263.0266,71.6293 263.5389,71.9524 264.0511,72.2755 263.065,71.6535 262.0789,71.0316 261.0927,70.4097 261.5666,70.7085 262.0405,71.0074 262.5144,71.3063 260.4993,74.5013 258.4843,77.6964 256.4692,80.8914" stroke="black" stroke-width="1" /><polyline fill="none" points="272.7293,75.5074 276.8971,74.4541 266.434,88.0348" stroke="black" stroke-width="1" /><polyline fill="none" points="280.1017,95.2953 278.7458,96.75 276.5145,96.78 275.1221,95.4824 273.7298,94.1847 273.5906,91.9453 274.9465,90.4906 275.9751,89.387 277.0037,88.2833 278.0323,87.1797 279.3884,85.7247 281.6315,85.7067 283.0238,87.0044 284.4161,88.3021 284.5435,90.5294 283.1874,91.9845" stroke="black" stroke-width="1" /><polyline fill="none" points="287.1973,96.0884 288.6837,94.7668 290.9185,94.9586 292.1833,96.3812 293.4478,97.8033 293.366,100.0328 291.8796,101.3545 290.7522,102.3569 289.6248,103.3593 288.4974,104.3618 287.0112,105.6832 284.7869,105.5041 283.5225,104.082 282.2576,102.6594 282.3401,100.4296 283.8262,99.1082 283.8225,99.1041 283.8188,99.0999 283.8151,99.0957 287.2487,96.0427 290.6824,92.9896 294.1161,89.9366" stroke="black" stroke-width="1" /><polyline fill="none" points="305.8586,104.7514 305.2709,103.9503 304.2998,103.6418 303.277,104.3922 302.2864,105.1191 301.2958,105.8459 300.3053,106.5727 300.6635,107.061 301.0218,107.5492 301.3801,108.0375 300.6904,107.0975 300.0007,106.1575 299.311,105.2176 299.6424,105.6693 299.9738,106.121 300.3053,106.5727 297.2597,108.8073 294.2142,111.0419 291.1687,113.2765" stroke="black" stroke-width="1" /><polyline fill="none" points="313.8147,116.9106 312.761,115.1497 311.7073,113.3887 310.6536,111.6278 308.3339,113.0159 306.0142,114.404 303.6945,115.7921 305.0734,115.7261 306.1617,116.1745 306.9276,117.4544 307.9841,119.22 307.346,121.4598 305.7134,122.4367 304.5463,123.1351 303.3791,123.8335 302.2119,124.5319 300.5055,125.553 298.4361,124.9333 297.4762,123.3292 296.5255,121.7404 296.9664,119.6386 298.6729,118.6175" stroke="black" stroke-width="1" /><polyline fill="none" points="314.3701,132.5163 312.5907,133.3659 310.4724,132.6288 309.6228,130.8493 308.7658,129.0544 309.5175,126.9292 311.2969,126.0796 312.2149,125.6413 313.1329,125.203 314.051,124.7647 315.8304,123.9151 317.9563,124.6664 318.806,126.4462 319.6628,128.2407 318.9036,130.3518 317.1242,131.2014 314.0505,132.6689 310.9768,134.1365 307.9031,135.604 306.124,136.4535 304.0054,135.7165 303.1558,133.9371 302.4245,132.4055 302.8708,130.6338 304.1318,129.6134" stroke="black" stroke-width="1" /><polyline fill="none" points="314.1922,138.6749 316.0595,137.9898 318.0685,138.987 318.7242,140.7742 319.3797,142.5606 318.4868,144.6052 316.6195,145.2903 315.2032,145.81 313.787,146.3297 312.3707,146.8493 310.5037,147.5344 308.4997,146.5528 307.8442,144.7663 307.1884,142.9792 308.0822,140.9347 309.9491,140.2497 309.9472,140.2444 309.9453,140.2392 309.9433,140.2339 314.2568,138.6512 318.5703,137.0685 322.8838,135.4858" stroke="black" stroke-width="1" /><polyline fill="none" points="328.7641,154.5175 328.2407,152.5333 327.7173,150.549 327.194,148.5648 324.58,149.2542 321.9661,149.9437 319.3522,150.6332 320.6953,150.9526 321.6163,151.6856 321.9967,153.1277 322.5215,155.1173 321.2867,157.0918 319.447,157.5771 318.1318,157.924 316.8167,158.2709 315.5015,158.6178 313.5786,159.125 311.7626,157.9551 311.2859,156.1476 310.8136,154.3573 311.8207,152.4605 313.7436,151.9533" stroke="black" stroke-width="1" /><polyline fill="none" points="321.2783,162.9853 323.2405,162.6604 325.0284,164.0147 325.3394,165.8928 325.6503,167.7702 324.3918,169.6124 322.4295,169.9373 320.9412,170.1838 319.4528,170.4303 317.9645,170.6767 316.0026,171.0016 314.2167,169.6636 313.9058,167.7862 313.5948,165.9082 314.854,164.0662 316.8159,163.7413 316.815,163.7358 316.8141,163.7303 316.8132,163.7247 321.3461,162.9741 325.8791,162.2234 330.412,161.4727" stroke="black" stroke-width="1" /><polyline fill="none" points="329.8173,174.8605 332.1776,174.6942 332.6777,181.7933 315.2256,178.0203" stroke="black" stroke-width="1" /><polyline fill="none" points="322.1404,188.074 324.1117,188.1203 325.6689,189.7519 325.6227,191.7225 325.5761,193.7117 323.9445,195.251 321.9732,195.2048 320.9564,195.181 319.9396,195.1571 318.9229,195.1333 316.9515,195.0871 315.3946,193.4729 315.4413,191.4838 315.4875,189.5132 317.1188,187.9563 319.0901,188.0025 322.4952,188.0824 325.9003,188.1622 329.3055,188.2421 331.2764,188.2883 332.8333,189.9199 332.7871,191.8905 332.7473,193.5883 331.5489,194.966 329.9633,195.3064" stroke="black" stroke-width="1" /><polyline fill="none" points="324.8294,208.2925 322.8711,208.0619 321.4726,206.3084 321.7032,204.3501 321.9359,202.3747 323.7053,200.9781 325.6636,201.2087 326.674,201.3277 327.6843,201.4467 328.6946,201.5657 330.6529,201.7963 332.0502,203.5658 331.8196,205.5245 331.587,207.4995 329.8187,208.8801 327.8604,208.6495 324.4777,208.2511 321.095,207.8528 317.7123,207.4544 315.7543,207.2238 314.3555,205.4703 314.5861,203.5119 314.7846,201.8264 316.1072,200.5659 317.7181,200.3755" stroke="black" stroke-width="1" /><polyline fill="none" points="313.8354,218.9 313.0726,218.1229 312.3454,217.1782 312.7908,215.0989 313.1895,213.2375 315.0392,211.9681 317.0348,212.3955 318.493,212.7079 319.9514,213.0202 321.4096,213.3326 323.3545,213.7492 324.5214,215.6647 324.1227,217.5261 323.7169,219.421 321.8607,220.7237 319.9158,220.3071 319.1895,220.1516 318.4632,219.996 317.7369,219.8404 318.2336,217.5212 318.7304,215.2019 319.2272,212.8827" stroke="black" stroke-width="1" /><polyline fill="none" points="318.4497,229.402 317.8669,230.9165 318.7687,233.045 320.6415,233.6342 321.0774,233.7713 321.5132,233.9084 321.9491,234.0455 323.7159,234.6014 325.6082,233.6136 326.1691,231.8304 326.7249,230.0639 325.7056,228.161 323.9718,227.6156 323.536,227.4785 323.1001,227.3414 322.6642,227.2043 320.8971,226.6483 319.0054,227.6355 318.4497,229.402 317.8374,231.3484 315.7721,232.3719 313.8918,231.7804 313.2485,231.578 312.6051,231.3757 311.9618,231.1733 310.0811,230.5817 309.0059,228.5702 309.6182,226.6238 310.2253,224.6937 312.2582,223.6611 314.1389,224.2527 314.7929,224.4585 315.4469,224.6642 316.1009,224.87 317.7131,225.3771 319.015,227.2671" stroke="black" stroke-width="1" /><polyline fill="none" points="320.2999,247.6393 316.0654,245.8561 311.8308,244.073 307.5963,242.2898 305.7632,241.5179 304.9731,239.4185 305.7119,237.664 306.4438,235.9257 308.4979,235.0235 310.331,235.7955 311.7214,236.381 313.1118,236.9664 314.5021,237.5519 316.3353,238.3238 317.1245,240.4233 316.3925,242.1616 315.6537,243.916 313.6005,244.8182 311.7674,244.0463" stroke="black" stroke-width="1" /><polyline fill="none" points="314.1975,251.9505 315.9352,252.8826 316.5864,255.0415 315.6543,256.7791 314.714,258.5322 312.5089,259.1976 310.7713,258.2655 310.0905,257.9003 309.711,257.5221 309.483,257.1469 307.1737,253.3526 304.8644,249.5582 302.5551,245.7639 302.4294,245.6965 302.3037,245.629 302.178,245.5616 301.0595,247.6469 299.941,249.7321 298.8225,251.8173" stroke="black" stroke-width="1" /><polyline fill="none" points="301.7646,259.4301 303.4073,260.5208 303.8541,262.7316 302.7638,264.3737 301.6632,266.0314 299.462,266.463 297.8192,265.3723 296.9719,264.8098 296.1246,264.2472 295.2773,263.6846 293.6346,262.5939 293.1787,260.3981 294.2793,258.7405 295.3696,257.0984 297.5799,256.6517 299.2227,257.7424 302.0602,259.6264 304.8978,261.5104 307.7354,263.3944 309.3778,264.4849 309.8243,266.6955 308.734,268.3376 307.7946,269.7525 306.0461,270.2785 304.5233,269.7206" stroke="black" stroke-width="1" /><polyline fill="none" points="300.1621,274.2753 301.6955,275.515 301.9327,277.7575 300.693,279.2909 299.4423,280.8379 297.1519,281.0804 295.6185,279.8407 295.0177,279.355 294.7154,278.9127 294.5614,278.5015 293.0001,274.3431 291.4387,270.1848 289.8774,266.0263 289.7665,265.9367 289.6556,265.847 289.5447,265.7573 288.057,267.5974 286.5693,269.4375 285.0815,271.2776" stroke="black" stroke-width="1" /><polyline fill="none" points="283.3497,285.6648 283.3536,285.6686 283.3575,285.6725 283.3614,285.6763 281.6936,284.0471 280.0257,282.4179 278.3579,280.7887 277.5871,280.0358 276.7629,280.2877 276.3686,280.6913 276.8719,280.176 277.7312,280.1765 278.26,280.6931 278.2927,280.725 278.3253,280.7569 278.3579,280.7887 278.426,279.3205 278.8459,277.9093 279.8879,276.8427 280.7506,275.9594 282.5942,274.9558 284.397,276.7168 285.3415,277.6395 285.4273,278.7533 285.0027,279.8248 284.8032,280.3485 283.8975,281.7424 283.2905,282.6827 282.6832,283.6473 282.4051,284.7422 283.3497,285.6648 284.3062,286.5992 286.4051,286.7557 287.8426,285.2841 289.1968,283.8978 289.1454,282.6014 288.9156,281.5856" stroke="black" stroke-width="1" /><polyline fill="none" points="276.5964,292.4178 275.2956,293.3879 274.9229,295.6694 276.1927,297.1667 276.4883,297.5152 276.7838,297.8637 277.0793,298.2122 278.2772,299.6248 280.4047,299.7988 281.8304,298.5898 283.2428,297.392 283.3958,295.2388 282.2202,293.8526 281.9247,293.5041 281.6292,293.1556 281.3337,292.8071 280.1355,291.3942 278.0089,291.2201 276.5964,292.4178 275.0403,293.7375 272.7474,293.5015 271.4725,291.9982 271.0363,291.4838 270.6001,290.9694 270.1639,290.455 268.8888,288.9514 269.0523,286.6764 270.6086,285.3567 272.1517,284.0481 274.422,284.2592 275.6971,285.7628 276.1406,286.2857 276.584,286.8086 277.0274,287.3315 278.1205,288.6205 278.2134,290.9136" stroke="black" stroke-width="1" /><polyline fill="none" points="260.4525,297.5909 259.314,295.9604 259.752,293.7723 261.3125,292.6826 262.873,291.593 265.0919,291.9259 266.2303,293.5564 267.0941,294.7933 267.9578,296.0302 268.8215,297.2672 269.9602,298.8979 269.508,301.0951 267.9475,302.1847 266.387,303.2744 264.1823,302.9324 263.0436,301.3016" stroke="black" stroke-width="1" /><polyline fill="none" points="257.9481,314.8481 258.8124,314.358 259.2325,313.4297 258.6068,312.3261 258.0008,311.2574 257.3948,310.1886 256.7888,309.1198 256.262,309.4185 255.7352,309.7172 255.2084,310.0159 256.2226,309.4409 257.2368,308.8658 258.251,308.2908 257.7636,308.5671 257.2762,308.8435 256.7888,309.1198 254.9258,305.8338 253.0627,302.5479 251.1996,299.2619" stroke="black" stroke-width="1" /><polyline fill="none" points="242.8697,318.3862 243.6438,314.3051 244.4179,310.2239 245.192,306.1427 246.5871,309.2499 247.9822,312.3572 249.3773,315.4645 250.185,317.2633 249.3827,319.3716 247.5845,320.179 245.7693,320.9939 243.6773,320.1851 242.8697,318.3862 241.4746,315.279 240.0795,312.1718 238.6844,309.0645 237.8767,307.2656 238.6627,305.1655 240.4619,304.3577 242.276,303.5432 244.3844,304.3438 245.192,306.1427" stroke="black" stroke-width="1" /><polyline fill="none" points="237.1358,320.8533 237.7107,322.5414 236.8074,324.5155 234.9729,325.1402 233.1395,325.7646 231.2292,324.8384 230.5771,322.9235 230.474,322.6206 230.3708,322.3178 230.2677,322.015 229.2728,319.0936 231.6553,317.7393 231.9806,317.6285 232.2942,317.5217 232.6078,317.4149 232.9215,317.3081 232.6078,317.4149 232.2942,317.5217 231.9806,317.6285 231.0224,317.9548 228.5904,317.515 227.8168,315.2433 227.5901,314.5778 227.3635,313.9122 227.1368,313.2466 226.4958,311.3644 227.5134,309.3514 229.3963,308.7102 231.2953,308.0635 233.3131,309.0429 233.954,310.925" stroke="black" stroke-width="1" /><polyline fill="none" points="220.1276,321.0126 218.5288,321.2902 217.1653,323.157 217.6214,325.0665 217.7275,325.511 217.8336,325.9554 217.9398,326.3998 218.3701,328.2014 220.1893,329.3179 222.0075,328.8837 223.8087,328.4534 224.9182,326.6017 224.496,324.8339 224.3898,324.3895 224.2837,323.9451 224.1776,323.5007 223.7472,321.6988 221.9288,320.5824 220.1276,321.0126 218.143,321.4866 216.2042,320.24 215.7463,318.3228 215.5896,317.6667 215.433,317.0108 215.2763,316.3548 214.8183,314.4373 215.9922,312.4817 217.9769,312.0077 219.9448,311.5377 221.8747,312.7519 222.3327,314.6695 222.492,315.3363 222.6512,316.0032 222.8105,316.67 223.2031,318.3139 222.2498,320.4014" stroke="black" stroke-width="1" /><polyline fill="none" points="203.7045,314.7641 204.3079,319.025 210.3524,318.169 206.5495,331.6761" stroke="black" stroke-width="1" /><polyline fill="none" points="191.9195,332.9195 191.7041,328.3298 191.4888,323.7402 191.2734,319.1506 191.1802,317.1638 192.7344,315.5462 194.6359,315.457 196.52,315.3686 198.2191,316.8335 198.3123,318.8203 198.3831,320.3272 198.4538,321.8342 198.5245,323.3412 198.6177,325.328 197.0632,326.9448 195.1791,327.0332 193.2776,327.1225 191.5788,325.6583 191.4856,323.6715" stroke="black" stroke-width="1" /><polyline fill="none" points="179.8411,332.4163 180.8336,332.4629 181.6841,331.9017 181.7436,330.6345 181.8012,329.4073 181.8588,328.18 181.9164,326.9527 181.3114,326.9243 180.7065,326.8959 180.1015,326.8676 181.2661,326.9222 182.4307,326.9769 183.5953,327.0315 183.0356,327.0052 182.476,326.979 181.9164,326.9527 182.0934,323.1795 182.2705,319.4062 182.4475,315.633" stroke="black" stroke-width="1" /><polyline fill="none" points="164.9311,331.0243 165.5753,326.475 166.2195,321.9257 166.8637,317.3764 167.1425,315.407 168.9711,314.1077 170.8559,314.3746 172.7234,314.639 174.1196,316.3951 173.8408,318.3644 173.6292,319.8581 173.4177,321.3518 173.2062,322.8456 172.9273,324.8149 171.0986,326.1135 169.2311,325.8491 167.3462,325.5822 165.9503,323.8269 166.2291,321.8576" stroke="black" stroke-width="1" /><polyline fill="none" points="160.9268,319.2657 160.4688,321.1836 158.5471,322.3646 156.6299,321.9066 154.6946,321.4444 153.5311,319.5266 153.9892,317.6087 154.2255,316.6194 154.4617,315.6302 154.698,314.641 155.1561,312.7231 157.0605,311.5388 158.9958,312.001 160.913,312.4589 162.0937,314.3801 161.6356,316.298 160.8444,319.6109 160.0531,322.9238 159.2619,326.2367 158.8039,328.1542 156.8824,329.3348 154.9651,328.8769 153.3133,328.4824 152.2172,327.0221 152.2164,325.4003" stroke="black" stroke-width="1" /><polyline fill="none" points="146.4382,322.875 145.8025,324.7416 143.779,325.7368 141.9124,325.1011 140.0293,324.4598 139.0126,322.3931 139.6482,320.5265 139.8973,319.7952 140.2084,319.359 140.5413,319.0728 143.9074,316.1746 147.2735,313.2764 150.6396,310.3782 150.6855,310.2432 150.7315,310.1082 150.7775,309.9732 148.5375,309.2104 146.2976,308.4476 144.0576,307.6848" stroke="black" stroke-width="1" /><polyline fill="none" points="136.3123,313.2297 135.4977,315.0443 133.3804,315.7845 131.6438,315.0049 129.9078,314.2254 129.0692,312.158 129.8839,310.3435 130.5018,308.9672 131.1197,307.5909 131.7376,306.2147 132.5522,304.4005 134.6547,303.6528 136.3907,304.4323 138.1273,305.212 138.9653,307.2799 138.1508,309.0941 138.1559,309.0963 138.161,309.0986 138.1661,309.101 136.2841,313.2925 134.4022,317.4841 132.5203,321.6757" stroke="black" stroke-width="1" /><polyline fill="none" points="114.3519,312.4788 116.618,308.4818 118.8842,304.4849 121.1504,300.4879 122.1314,298.7577 124.3088,298.2186 125.9648,299.1575 127.6056,300.0878 128.2614,302.2332 127.2803,303.9634 126.5363,305.2758 125.7922,306.5882 125.0481,307.9005 124.0671,309.6308 121.8897,310.1691 120.2489,309.2388 118.593,308.2999 117.9372,306.1552 118.9182,304.425" stroke="black" stroke-width="1" /><polyline fill="none" points="110.2586,306.9689 108.904,308.9089 103.069,304.8345 116.9754,293.6353" stroke="black" stroke-width="1" /><polyline fill="none" points="103.7341,293.8367 102.4477,295.3536 100.2082,295.477 98.7563,294.2458 97.305,293.015 97.0733,290.7961 98.3597,289.2791 99.3355,288.1285 100.3112,286.9779 101.2869,285.8273 102.5731,284.3106 104.8006,284.176 106.2519,285.4068 107.7038,286.638 107.9347,288.8573 106.6485,290.374 106.6528,290.3776 106.6571,290.3812 106.6613,290.3849 103.6896,293.8892 100.7179,297.3934 97.7462,300.8978" stroke="black" stroke-width="1" /><polyline fill="none" points="94.2427,285.4362 92.8199,286.826 90.5786,286.7392 89.2484,285.3774 87.9187,284.0161 87.8959,281.7852 89.3187,280.3954 90.3979,279.3412 91.4771,278.287 92.5563,277.2328 93.9788,275.8432 96.2091,275.9179 97.5388,277.2791 98.869,278.6409 98.8911,280.872 97.4685,282.2617 97.4724,282.2657 97.4763,282.2697 97.4803,282.2737 94.1935,285.4843 90.9067,288.6949 87.6199,291.9055" stroke="black" stroke-width="1" /><polyline fill="none" points="75.1958,277.6573 75.8205,278.43 76.805,278.6927 77.7915,277.8951 78.7469,277.1227 79.7023,276.3503 80.6577,275.5778 80.277,275.1069 79.8962,274.6359 79.5155,274.165 80.2485,275.0716 80.9815,275.9782 81.7145,276.8849 81.3622,276.4492 81.01,276.0135 80.6577,275.5778 83.5952,273.2029 86.5326,270.828 89.4701,268.4531" stroke="black" stroke-width="1" /><polyline fill="none" points="74.992,263.8381 74.1807,262.4328 71.9585,261.7958 70.3229,262.8818 69.9422,263.1345 69.5616,263.3872 69.1809,263.64 67.6378,264.6645 67.2163,266.757 68.2503,268.3143 69.2746,269.8571 71.3951,270.2609 72.9093,269.2555 73.29,269.0028 73.6707,268.7501 74.0513,268.4973 75.5947,267.4726 76.0163,265.3809 74.992,263.8381 73.8634,262.1383 74.3659,259.8887 76.0081,258.7984 76.5699,258.4254 77.1318,258.0523 77.6936,257.6793 79.3361,256.5888 81.5763,257.0173 82.705,258.7172 83.8241,260.4027 83.349,262.6328 81.7066,263.7233 81.1354,264.1025 80.5642,264.4818 79.993,264.861 78.585,265.7958 76.2968,265.62" stroke="black" stroke-width="1" /><polyline fill="none" points="59.6468,253.8109 63.6957,251.6391 67.7447,249.4672 71.7937,247.2954 73.5464,246.3552 75.6758,247.0608 76.5756,248.7383 77.4671,250.4004 76.8773,252.5649 75.1245,253.5051 73.7951,254.2182 72.4657,254.9313 71.1362,255.6444 69.3835,256.5846 67.2546,255.8784 66.363,254.2163 65.4632,252.5387 66.0526,250.3749 67.8053,249.4347" stroke="black" stroke-width="1" /><polyline fill="none" points="59.1238,246.9669 56.9431,247.8852 54.1812,241.3264 71.9179,239.272" stroke="black" stroke-width="1" /><polyline fill="none" points="55.043,234.0198 53.3419,234.5549 51.3895,233.6056 50.8079,231.757 50.2267,229.9094 51.1974,228.0214 53.1271,227.4143 53.4323,227.3183 53.7374,227.2223 54.0426,227.1263 56.9865,226.2002 58.2846,228.6138 58.3876,228.9415 58.4871,229.2576 58.5865,229.5737 58.6859,229.8897 58.5865,229.5737 58.4871,229.2576 58.3876,228.9415 58.0839,227.976 58.5807,225.5549 60.8698,224.8348 61.5405,224.6238 62.2112,224.4128 62.882,224.2018 64.7786,223.6052 66.7672,224.6697 67.3641,226.567 67.9661,228.4807 66.9397,230.4749 65.0431,231.0716" stroke="black" stroke-width="1" /><polyline fill="none" points="51.3668,221.3226 49.6231,221.6961 47.7682,220.5681 47.3623,218.6732 46.9566,216.7793 48.0999,214.9904 50.0779,214.5668 50.3907,214.4998 50.7035,214.4328 51.0163,214.3658 54.0341,213.7194 55.1004,216.2439 55.1724,216.5799 55.2418,216.9039 55.3111,217.2278 55.3805,217.5518 55.3111,217.2278 55.2418,216.9039 55.1724,216.5799 54.9604,215.5902 55.6817,213.2262 58.0282,212.7236 58.7157,212.5764 59.4032,212.4291 60.0907,212.2819 62.0349,211.8654 63.9152,213.1115 64.3317,215.0564 64.7519,217.018 63.5433,218.9074 61.5991,219.3238" stroke="black" stroke-width="1" /><polyline fill="none" points="44.8569,202.4812 45.0969,204.5192 45.3369,206.5572 45.5769,208.5952 48.2616,208.279 50.9464,207.9629 53.6311,207.6467 52.3461,207.1421 51.537,206.2872 51.3625,204.806 51.1219,202.7625 52.6214,200.9806 54.5109,200.7581 55.8617,200.599 57.2125,200.4399 58.5634,200.2808 60.5384,200.0483 62.1724,201.4612 62.391,203.3177 62.6075,205.1565 61.3445,206.8933 59.3695,207.1259" stroke="black" stroke-width="1" /><polyline fill="none" points="55.0264,195.1895 53.0551,195.2357 51.4231,193.6789 51.3769,191.7083 51.3303,189.7191 52.8879,188.1049 54.8592,188.0587 55.876,188.0349 56.8928,188.011 57.9096,187.9872 59.8809,187.941 61.5118,189.4804 61.5584,191.4695 61.6046,193.4401 60.0481,195.0718 58.0768,195.118 54.6716,195.1978 51.2665,195.2777 47.8614,195.3575 45.8904,195.4037 44.2588,193.8469 44.2126,191.8763 44.1727,190.1785 45.3052,188.7461 46.8732,188.3317" stroke="black" stroke-width="1" /><polyline fill="none" points="53.3163,175.7398 53.3108,175.7394 53.3054,175.739 53.2999,175.7386 55.6257,175.9025 57.9514,176.0663 60.2771,176.2302 61.352,176.3059 61.8177,175.5807 61.8574,175.0178 61.8067,175.7364 61.1511,176.2917 60.4136,176.2398 60.3681,176.2366 60.3226,176.2334 60.2771,176.2302 61.1747,177.394 61.7672,178.7419 61.6624,180.2293 61.5757,181.461 60.8187,183.4187 58.3048,183.2417 56.9877,183.1488 56.2019,182.3549 55.8327,181.263 55.6461,180.7346 55.4354,179.0856 55.2902,177.9759 55.1294,176.8475 54.6334,175.8326 53.3163,175.7398 51.9824,175.6458 50.2804,176.8839 50.1358,178.9361 49.9996,180.8692 50.8772,181.8247 51.7096,182.4508" stroke="black" stroke-width="1" /><polyline fill="none" points="49.1133,167.6849 46.2151,164.5101 63.1286,167.311" stroke="black" stroke-width="1" /><polyline fill="none" points="64.7273,152.2587 65.4528,153.0706 66.1349,154.0484 65.5926,156.1045 65.1071,157.9452 63.1998,159.1265 61.2265,158.606 59.7845,158.2256 58.3424,157.8453 56.9004,157.4649 54.9772,156.9576 53.9014,154.9895 54.3869,153.1488 54.8811,151.275 56.7963,150.0608 58.7196,150.568 59.4378,150.7575 60.156,150.9469 60.8742,151.1364 60.2692,153.4298 59.6643,155.7232 59.0594,158.0166" stroke="black" stroke-width="1" /><polyline fill="none" points="53.8148,137.0531 53.4726,137.9859 53.7526,138.9656 54.9436,139.4026 56.097,139.8258 57.2504,140.249 58.4039,140.6722 58.6125,140.1037 58.8211,139.5351 59.0297,138.9666 58.6281,140.0611 58.2265,141.1556 57.8249,142.2502 58.0179,141.7242 58.2109,141.1982 58.4039,140.6722 61.9501,141.9734 65.4963,143.2746 69.0425,144.5758" stroke="black" stroke-width="1" /><polyline fill="none" points="74.9,131.3262 71.0166,129.472 68.3862,134.9811 59.2371,124.3418" stroke="black" stroke-width="1" /><polyline fill="none" points="78.1773,118.4508 79.8838,119.4719 80.3805,121.6475 79.4032,123.2807 78.4259,124.9139 76.2653,125.519 74.5589,124.4979 73.2643,123.7232 71.9698,122.9486 70.6752,122.174 68.9684,121.1527 68.481,118.9631 69.4583,117.3298 70.4356,115.6966 72.5869,115.1056 74.2937,116.1269" stroke="black" stroke-width="1" /><polyline fill="none" points="78.673,107.8904 79.7128,106.6446 79.5453,104.339 77.9624,103.1775 77.594,102.9072 77.2256,102.6369 76.8573,102.3666 75.3639,101.2709 73.2543,101.5959 72.1484,103.1031 71.0529,104.5962 71.4043,106.726 72.8697,107.8013 73.2381,108.0716 73.6065,108.3419 73.9749,108.6122 75.4685,109.7081 77.5775,109.3834 78.673,107.8904 79.88,106.2453 82.165,105.9421 83.7542,107.1082 84.298,107.5072 84.8417,107.9061 85.3855,108.3051 86.975,109.4714 87.3444,111.7221 86.1374,113.3672 84.9405,114.9985 82.6832,115.3207 81.0937,114.1544 80.5409,113.7488 79.9881,113.3432 79.4353,112.9376 78.0727,111.9378 77.4496,109.7291" stroke="black" stroke-width="1" /><polyline fill="none" points="94.4637,100.2373 94.744,101.2895 94.9107,102.47 93.4977,104.0591 92.2328,105.4818 89.9976,105.6736 88.4725,104.3176 87.358,103.3266 86.2434,102.3356 85.1289,101.3447 83.6425,100.023 83.5722,97.7812 84.8371,96.3586 86.1248,94.9103 88.382,94.6926 89.8684,96.0143 90.4235,96.5078 90.9786,97.0014 91.5337,97.4949 89.9576,99.2674 88.3816,101.04 86.8055,102.8125" stroke="black" stroke-width="1" /><polyline fill="none" points="91.6005,81.7416 90.8736,82.419 90.6807,83.4195 91.5457,84.3476 92.3834,85.2463 93.221,86.1451 94.0587,87.0439 94.5017,86.631 94.9448,86.218 95.3878,85.8051 94.5349,86.6 93.6821,87.3949 92.8292,88.1898 93.239,87.8079 93.6489,87.4259 94.0587,87.0439 96.6342,89.8072 99.2096,92.5704 101.7851,95.3337" stroke="black" stroke-width="1" /><polyline fill="none" points="105.4445,74.7974 105.6396,78.9468 105.8347,83.0962 106.0299,87.2455 103.9511,84.5474 101.8724,81.8492 99.7936,79.151 98.5901,77.589 98.8807,75.3521 100.4422,74.149 102.0184,72.9347 104.241,73.2354 105.4445,74.7974 107.5232,77.4956 109.602,80.1937 111.6807,82.8919 112.8842,84.4539 112.6076,86.6792 111.0453,87.8829 109.47,89.0966 107.2333,88.8076 106.0299,87.2455" stroke="black" stroke-width="1" /><polyline fill="none" points="113.455,76.0309 112.3939,74.3485 112.9483,72.1751 114.5585,71.1597 116.168,70.1445 118.3542,70.5895 119.4153,72.2718 120.22,73.5479 121.0248,74.8239 121.8296,76.0999 122.8904,77.782 122.3503,79.9472 120.7408,80.9623 119.1306,81.9778 116.9443,81.5321 115.8835,79.85 115.8787,79.853 115.874,79.856 115.8693,79.859 113.4183,75.9727 110.9672,72.0863 108.5162,68.2" stroke="black" stroke-width="1" /><polyline fill="none" points="133.4041,73.8778 131.4594,70.0389 126.0135,72.7977 125.2592,58.7858" stroke="black" stroke-width="1" /><polyline fill="none" points="141.7693,61.01 141.7673,61.0049 141.7653,60.9998 141.7633,60.9947 142.6175,63.1641 143.4717,65.3335 144.3259,67.5029 144.7207,68.5055 145.5758,68.6133 146.1008,68.4066 145.4305,68.6705 144.6469,68.3181 144.376,67.6301 144.3593,67.5877 144.3426,67.5453 144.3259,67.5029 143.6624,68.8144 142.7013,69.9298 141.3139,70.4761 140.1651,70.9284 138.0722,71.0889 137.1488,68.744 136.6651,67.5154 137.043,66.4642 137.8693,65.6606 138.2657,65.2646 139.663,64.3639 140.6019,63.7547 141.5509,63.1235 142.2531,62.2386 141.7693,61.01 141.2794,59.7658 139.4287,58.7634 137.5146,59.5171 135.7114,60.2271 135.2272,61.4307 135.0208,62.4516" stroke="black" stroke-width="1" /><polyline fill="none" points="156.0447,63.681 155.7206,64.7205 155.2318,65.8079 153.1889,66.3983 151.3601,66.9268 149.3671,65.8968 148.8005,63.9362 148.3865,62.5035 147.9724,61.0708 147.5583,59.638 147.0061,57.7272 148.1425,55.7935 149.9713,55.265 151.8331,54.7269 153.8585,55.7469 154.4107,57.6577 154.6169,58.3712 154.8231,59.0848 155.0293,59.7984 152.7507,60.4569 150.4721,61.1154 148.1935,61.7739" stroke="black" stroke-width="1" /><polyline fill="none" points="165.791,49.5367 164.09,53.3264 162.389,57.1161 160.6879,60.9058 160.0528,57.5595 159.4178,54.2131 158.7827,50.8668 158.415,48.9295 159.6851,47.0653 161.6216,46.6978 163.5765,46.3268 165.4233,47.5994 165.791,49.5367 166.4261,52.883 167.0612,56.2294 167.6963,59.5757 168.064,61.513 166.8116,63.3731 164.874,63.7408 162.9203,64.1116 161.0556,62.8431 160.6879,60.9058" stroke="black" stroke-width="1" /><polyline fill="none" points="179.8766,272.472 96.1804,188.1635 239.8942,231.6324 140.8637,108.5745 188.1635,280.8196 250.763,172.1919 189.0084,152.2515 96.1804,188.1635 188.8365,96.1804 156.5688,130.1462" stroke="black" stroke-width="1" /><polyline fill="none" points="169.3604,142.2983 143.7773,117.9942" stroke="black" stroke-width="1" /><polyline fill="none" points="199.9259,280.8196 199.7811,278.9795 199.3502,277.1848 198.6439,275.4796 197.6795,273.9058 196.4808,272.5023 195.0773,271.3036 193.5035,270.3392 191.7983,269.6329 190.0036,269.202 188.1635,269.0572 186.3235,269.202 184.5287,269.6329 182.8235,270.3392 181.2497,271.3036 179.8462,272.5023 178.6475,273.9058 177.6831,275.4796 176.9768,277.1848 176.5459,278.9795 176.4011,280.8196 176.5459,282.6596 176.9768,284.4543 177.6831,286.1596 178.6475,287.7333 179.8462,289.1368 181.2497,290.3356 182.8235,291.3 184.5287,292.0063 186.3235,292.4372 188.1635,292.582 190.0036,292.4372 191.7983,292.0063 193.5035,291.3 195.0773,290.3356 196.4808,289.1368 197.6795,287.7333 198.6439,286.1596 199.3502,284.4543 199.7811,282.6596 199.9259,280.8196" stroke="black" stroke-width="1" /><polyline fill="none" points="188.5,69.0664 199.6839,69.5912 210.7696,71.161 221.6595,73.7619 232.2581,77.3712 242.4721,81.9571 252.2118,87.4792 261.3915,93.8892 269.9308,101.1306 277.7544,109.1398 284.7936,117.8464 290.9866,127.1739 296.2789,137.0404 300.6241,147.3591 303.9839,158.0393 306.3289,168.9873 307.6383,180.1067 307.9008,191.2998 307.114,202.4684 305.2847,213.5142 302.4292,224.3402 298.5725,234.8512 293.7484,244.9549 287.9994,254.5625 281.376,263.5894 273.9365,271.9565 265.7461,279.5902 256.8768,286.4234 247.4067,292.3961 237.4188,297.4556 227.0011,301.5577 216.2451,304.6663 205.2452,306.7539 194.0981,307.8023 182.9019,307.8023 171.7548,306.7539 160.7549,304.6663 149.9989,301.5577 139.5811,297.4556 129.5933,292.3961 120.1232,286.4234 111.2539,279.5902 103.0635,271.9565 95.6239,263.5894 89.0006,254.5625 83.2516,244.9549 78.4275,234.8512 74.5708,224.3402 71.7153,213.5142 69.8861,202.4684 69.0992,191.2998 69.3617,180.1067 70.6712,168.9872 73.0161,158.0393 76.3759,147.3591 80.7211,137.0404 86.0134,127.174 92.2064,117.8464 99.2457,109.1398 107.0692,101.1306 115.6085,93.8892 124.7882,87.4792 134.5279,81.957 144.7419,77.3712 155.3405,73.7619 166.2304,71.161 177.3161,69.5912 188.5,69.0664" stroke="black" stroke-width="1" />

    </g>
  </g>
  <WCB
     pausedposy="0"
     pausedposx="0"
     lastknownposy="0"
     lastknownposx="0"
     lastpathnc="0"
     lastpath="0"
     node="0"
     layer="0" />
</svg>
