<?xml version="1.0" encoding="UTF-8" standalone="no"?>
<!-- Created with Inkscape (http://www.inkscape.org/) -->

<svg
   xmlns:dc="http://purl.org/dc/elements/1.1/"
   xmlns:cc="http://creativecommons.org/ns#"
   xmlns:rdf="http://www.w3.org/1999/02/22-rdf-syntax-ns#"
   xmlns:svg="http://www.w3.org/2000/svg"
   xmlns="http://www.w3.org/2000/svg"
   xmlns:sodipodi="http://sodipodi.sourceforge.net/DTD/sodipodi-0.dtd"
   xmlns:inkscape="http://www.inkscape.org/namespaces/inkscape"
   width="100mm"
   height="100mm"
   viewBox="0 0 100 100"
   version="1.1"
   id="svg19124"
   inkscape:version="0.92.3 (2405546, 2018-03-11)"
   sodipodi:docname="inkscape_template_TMP.svg"
   shape-rendering="crispEdges">
  <sodipodi:namedview
     pagecolor="#ffffff"
     bordercolor="#666666"
     borderopacity="1"
     objecttolerance="10"
     gridtolerance="10"
     guidetolerance="10"
     inkscape:pageopacity="0"
     inkscape:pageshadow="2"
     inkscape:window-width="1568"
     inkscape:window-height="1550"
     id="namedview24021"
     showgrid="false"
     inkscape:zoom="0.62441667"
     inkscape:cx="712.66515"
     inkscape:cy="409.98265"
     inkscape:window-x="0"
     inkscape:window-y="0"
     inkscape:window-maximized="0"
     inkscape:current-layer="layer1" />
  <defs
     id="defs19118" />
  <metadata
     id="metadata19121">
    <rdf:RDF>
      <cc:Work
         rdf:about="">
        <dc:format>image/svg+xml</dc:format>
        <dc:type
           rdf:resource="http://purl.org/dc/dcmitype/StillImage" />
        <dc:title />
      </cc:Work>
    </rdf:RDF>
  </metadata>
  <g
     transform="translate(0,-197)"
     id="layer1"
     inkscape:groupmode="layer"
     inkscape:label="Layer 1">
    <g
       id="g24447"
       transform="matrix(0.26458333,0,0,0.26458333,0.10666333,197.9735)">

<polyline fill="none" points="192.1004,47.7394 189.7225,51.1455 187.3447,54.5516 184.9669,57.9577 184.9669,54.5516 184.9669,51.1455 184.9669,47.7394 184.9669,45.7676 186.5623,44.1729 188.5334,44.1729 190.5231,44.1729 192.1004,45.7676 192.1004,47.7394 192.1004,51.1455 192.1004,54.5516 192.1004,57.9577 192.1004,59.9295 190.5231,61.5235 188.5509,61.5235 186.5623,61.5235 184.9669,59.9295 184.9669,57.9577" stroke="black" stroke-width="1" /><polyline fill="none" points="197.8298,61.5877 200.7471,57.7851 198.696,53.7706 202.935,62.0679 200.7471,57.7851 203.4811,54.2207" stroke="black" stroke-width="1" /><polyline fill="none" points="218.7234,47.237 217.8667,51.7512 217.01,56.2653 216.1533,60.7794 215.7824,62.7335 213.895,63.9457 212.0247,63.5908 210.1717,63.2391 208.8593,61.4196 209.2302,59.4654 209.5115,57.9833 209.7928,56.5011 210.0741,55.0189 210.4449,53.0648 212.3326,51.8533 214.1856,52.205 216.0559,52.56 217.368,54.3788 216.9972,56.3329" stroke="black" stroke-width="1" /><polyline fill="none" points="231.8187,50.6879 230.5431,55.102 229.2674,59.516 227.9917,63.9301 227.4395,65.8409 225.4469,66.871 223.6181,66.3425 221.8061,65.8189 220.6699,63.8844 221.2221,61.9736 221.6409,60.5243 222.0598,59.075 222.4787,57.6257 223.0309,55.7149 225.0237,54.6855 226.8356,55.2092 228.6644,55.7377 229.8005,57.6713 229.2483,59.5821" stroke="black" stroke-width="1" /><polyline fill="none" points="234.7839,61.4612 235.5127,59.6105 237.5929,58.7718 239.3641,59.4692 241.1347,60.1664 242.0693,62.1923 241.3406,64.0429 240.7879,65.4467 240.2352,66.8504 239.6824,68.2541 238.9538,70.1045 236.8886,70.9499 235.118,70.2527 233.3468,69.5552 232.4128,67.5289 233.1414,65.6785 233.1362,65.6765 233.131,65.6744 233.1257,65.6723 234.8091,61.3971 236.4925,57.1219 238.1759,52.8468" stroke="black" stroke-width="1" /><polyline fill="none" points="255.3459,60.7562 254.4596,60.3071 253.4539,60.4707 252.8806,61.6024 252.3254,62.6984 251.7702,63.7944 251.215,64.8904 251.7552,65.1641 252.2955,65.4378 252.8357,65.7114 251.7957,65.1846 250.7556,64.6577 249.7156,64.1309 250.2154,64.384 250.7152,64.6372 251.215,64.8904 249.508,68.2601 247.801,71.6298 246.0939,74.9995" stroke="black" stroke-width="1" /><polyline fill="none" points="266.6339,71.3608 262.8057,72.9733 258.9775,74.5858 255.1493,76.1984 256.9662,73.3174 258.7832,70.4364 260.6002,67.5555 261.6521,65.8876 263.8522,65.3898 265.5195,66.4413 267.2025,67.5027 267.6858,69.6929 266.6339,71.3608 264.817,74.2418 263.0,77.1227 261.183,80.0037 260.1311,81.6716 257.9468,82.1785 256.2786,81.1264 254.5966,80.0655 254.0974,77.8662 255.1493,76.1984" stroke="black" stroke-width="1" /><polyline fill="none" points="272.2083,73.8287 273.6524,71.9543 279.2899,76.2977 264.8739,86.8328" stroke="black" stroke-width="1" /><polyline fill="none" points="285.1065,90.2928 283.7621,91.7353 281.521,91.8255 280.0785,90.4811 278.6235,89.125 278.5442,86.8721 279.8886,85.4297 280.5822,84.6855 281.2758,83.9413 281.9695,83.1971 283.3139,81.7546 285.5672,81.6749 287.0099,83.0195 288.4647,84.3754 288.5317,86.6178 287.1873,88.0603 284.865,90.5519 282.5427,93.0436 280.2204,95.5352 278.8762,96.9774 276.6349,97.0679 275.1924,95.7235 273.9509,94.5663 273.717,92.7543 274.5165,91.3429" stroke="black" stroke-width="1" /><polyline fill="none" points="287.155,105.4318 286.0773,105.5872 284.8854,105.6146 283.4724,104.0255 282.2075,102.6029 282.2783,100.3605 283.8034,99.0045 284.9179,98.0135 286.0325,97.0226 287.147,96.0316 288.6334,94.71 290.868,94.9023 292.133,96.3249 293.4207,97.7732 293.3729,100.0404 291.8865,101.362 291.3314,101.8555 290.7763,102.3491 290.2213,102.8426 288.6452,101.0701 287.0692,99.2976 285.4931,97.525" stroke="black" stroke-width="1" /><polyline fill="none" points="304.1183,108.1327 299.9655,108.2306 295.8127,108.3284 291.6599,108.4262 294.4061,106.4112 297.1523,104.3963 299.8984,102.3814 301.4882,101.2149 303.7177,101.5578 304.8838,103.147 306.0609,104.7513 305.7082,106.9662 304.1183,108.1327 301.3722,110.1477 298.626,112.1626 295.8799,114.1776 294.2901,115.344 292.0719,115.0154 290.9052,113.4253 289.7288,111.8219 290.0701,109.5927 291.6599,108.4262" stroke="black" stroke-width="1" /><polyline fill="none" points="302.6975,116.1122 304.4043,115.0909 306.564,115.696 307.5415,117.3295 308.5186,118.9624 308.0226,121.1376 306.3158,122.1589 305.0212,122.9336 303.7267,123.7082 302.4321,124.4829 300.7256,125.504 298.5737,124.9133 297.5966,123.2804 296.6191,121.6468 297.116,119.4716 298.8224,118.4505 298.8196,118.4457 298.8167,118.4409 298.8138,118.4361 302.7565,116.0768 306.6993,113.7176 310.642,111.3583" stroke="black" stroke-width="1" /><polyline fill="none" points="314.0163,124.6917 315.7957,123.8421 317.9215,124.5942 318.7712,126.3736 319.6283,128.1689 318.8603,130.3403 317.0809,131.1899 316.3837,131.5227 315.8543,131.6049 315.4169,131.5668 310.9916,131.1841 306.5663,130.8013 302.1409,130.4186 302.0122,130.48 301.8835,130.5415 301.7548,130.603 302.7744,132.7383 303.7939,134.8737 304.8134,137.009" stroke="black" stroke-width="1" /><polyline fill="none" points="319.0594,144.549 317.2083,145.2282 315.1683,144.2959 314.4891,142.4448 313.8039,140.5775 314.7513,138.532 316.6024,137.8528 317.5575,137.5023 318.5125,137.1519 319.4676,136.8015 321.3187,136.1223 323.3649,137.0694 324.0443,138.9209 324.7293,140.7878 323.7757,142.8185 321.9246,143.4977 318.7269,144.671 315.5293,145.8443 312.3317,147.0175 310.4809,147.6967 308.4406,146.7645 307.7613,144.9133 307.1767,143.32 307.787,141.5979 309.1379,140.7001" stroke="black" stroke-width="1" /><polyline fill="none" points="328.382,153.5727 328.1285,152.612 327.3381,151.9691 326.1114,152.2926 324.9234,152.606 323.7354,152.9193 322.5474,153.2327 322.7019,153.8183 322.8564,154.4039 323.0108,154.9895 322.7135,153.8622 322.4161,152.7348 322.1188,151.6075 322.2617,152.1492 322.4045,152.691 322.5474,153.2327 318.895,154.1961 315.2425,155.1595 311.59,156.1229" stroke="black" stroke-width="1" /><polyline fill="none" points="321.2783,162.9853 323.2405,162.6604 325.0284,164.0147 325.3394,165.8928 325.6503,167.7702 324.3918,169.6124 322.4295,169.9373 320.9412,170.1838 319.4528,170.4303 317.9645,170.6767 316.0026,171.0016 314.2167,169.6636 313.9058,167.7862 313.5948,165.9082 314.854,164.0662 316.8159,163.7413 316.815,163.7358 316.8141,163.7303 316.8132,163.7247 321.3461,162.9741 325.8791,162.2234 330.412,161.4727" stroke="black" stroke-width="1" /><polyline fill="none" points="332.7996,181.6959 328.2163,182.0188 323.633,182.3417 319.0497,182.6646 317.0656,182.8043 315.412,181.2885 315.2783,179.3896 315.1457,177.5081 316.5704,175.7751 318.5544,175.6353 320.0593,175.5293 321.5642,175.4233 323.0691,175.3172 325.0532,175.1775 326.7061,176.6937 326.8386,178.5752 326.9724,180.4741 325.5484,182.2067 323.5643,182.3465" stroke="black" stroke-width="1" /><polyline fill="none" points="329.1375,195.3991 325.7881,192.9421 322.4387,190.4851 319.0893,188.0281 322.4944,188.1079 325.8996,188.1878 329.3047,188.2676 331.276,188.3139 332.8329,189.9462 332.7867,191.9168 332.74,193.906 331.1088,195.4454 329.1375,195.3991 325.7324,195.3193 322.3272,195.2395 318.9221,195.1596 316.9507,195.1134 315.3942,193.4992 315.4404,191.5276 315.487,189.5395 317.118,187.9819 319.0893,188.0281" stroke="black" stroke-width="1" /><polyline fill="none" points="314.4663,206.001 318.7402,206.5043 319.4542,200.4414 331.5446,207.5634" stroke="black" stroke-width="1" /><polyline fill="none" points="326.8722,214.5573 328.8003,214.9703 330.0253,216.8635 329.6123,218.7916 329.1956,220.7369 327.262,221.9883 325.3339,221.5753 324.5785,221.4135 324.1089,221.1555 323.7857,220.8584 320.5137,217.8543 317.2418,214.8503 313.9698,211.8463 313.8303,211.8164 313.6909,211.7866 313.5514,211.7567 313.0558,214.0705 312.5602,216.3843 312.0646,218.6981" stroke="black" stroke-width="1" /><polyline fill="none" points="323.9817,227.5838 325.6828,228.1189 326.7401,230.015 326.1585,231.8637 325.5773,233.7113 323.7005,234.7035 321.7708,234.0964 321.4656,234.0004 321.1605,233.9044 320.8553,233.8084 317.9114,232.8823 318.2289,230.1603 318.332,229.8325 318.4315,229.5165 318.5309,229.2004 318.6303,228.8844 318.5309,229.2004 318.4315,229.5165 318.332,229.8325 318.0283,230.7981 316.2349,232.4987 313.9458,231.7786 313.2751,231.5676 312.6044,231.3566 311.9337,231.1456 310.037,230.549 309.016,228.5376 309.6128,226.6403 310.2148,224.7266 312.1981,223.6792 314.0948,224.2758" stroke="black" stroke-width="1" /><polyline fill="none" points="304.655,240.2863 308.6211,241.9564 310.9903,236.33 320.6281,246.5289" stroke="black" stroke-width="1" /><polyline fill="none" points="308.5441,252.9151 307.6891,254.2944 308.1783,256.5537 309.9084,257.4818 310.311,257.6978 310.7137,257.9137 311.1163,258.1297 312.7485,259.0052 314.7918,258.3876 315.6754,256.7403 316.5507,255.1084 315.9042,253.0488 314.3025,252.1897 313.8999,251.9737 313.4972,251.7577 313.0946,251.5417 311.462,250.6661 309.4194,251.2832 308.5441,252.9151 307.5796,254.7132 305.3597,255.3337 303.6227,254.402 303.0284,254.0832 302.4341,253.7644 301.8397,253.4456 300.1024,252.5137 299.421,250.337 300.3855,248.5389 301.3419,246.7559 303.5317,246.1205 305.269,247.0524 305.8732,247.3764 306.4774,247.7005 307.0816,248.0246 308.5709,248.8235 309.4975,250.923" stroke="black" stroke-width="1" /><polyline fill="none" points="307.5492,269.8275 308.0988,268.9998 308.054,267.9818 306.9971,267.2801 305.9735,266.6005 304.95,265.921 303.9264,265.2414 303.5914,265.7459 303.2564,266.2505 302.9215,266.755 303.5663,265.7837 304.2112,264.8124 304.8561,263.8411 304.5462,264.3079 304.2363,264.7746 303.9264,265.2414 300.7795,263.152 297.6326,261.0626 294.4857,258.9732" stroke="black" stroke-width="1" /><polyline fill="none" points="300.2415,274.5039 301.6282,275.6251 301.9173,277.7767 300.6989,279.2838 299.4812,280.7899 297.3713,281.0255 295.7982,279.7537 295.5495,279.5526 295.3007,279.3514 295.052,279.1503 292.652,277.21 293.9448,274.7936 294.1608,274.5264 294.3691,274.2687 294.5774,274.0111 294.7857,273.7534 294.5774,274.0111 294.3691,274.2687 294.1608,274.5264 293.5244,275.3135 291.2327,276.2388 289.3665,274.7301 288.8198,274.288 288.273,273.8459 287.7262,273.4039 286.1801,272.1538 285.9669,269.9083 287.2174,268.3616 288.4787,266.8015 290.7079,266.5535 292.254,267.8036" stroke="black" stroke-width="1" /><polyline fill="none" points="286.6768,289.4347 285.9019,285.3536 285.1269,281.2726 284.3519,277.1916 286.7885,279.5717 289.2249,281.9517 291.6615,284.3318 293.072,285.7097 293.098,287.9653 291.7206,289.3753 290.3303,290.7986 288.0874,290.8126 286.6768,289.4347 284.2403,287.0546 281.8038,284.6746 279.3672,282.2945 277.9567,280.9166 277.9185,278.6746 279.2967,277.2637 280.6863,275.8412 282.9413,275.8137 284.3519,277.1916" stroke="black" stroke-width="1" /><polyline fill="none" points="282.2455,293.8309 283.3989,295.191 283.2817,297.3588 281.8037,298.6122 280.3265,299.8649 278.2097,299.703 276.9013,298.1602 276.6945,297.9162 276.4875,297.6722 276.2807,297.4282 274.2846,295.0744 276.0052,292.9414 276.2673,292.7192 276.52,292.5049 276.7727,292.2906 277.0254,292.0764 276.7727,292.2906 276.52,292.5049 276.2673,292.7192 275.4953,293.3738 273.0712,293.8556 271.5192,292.0254 271.0644,291.4891 270.6096,290.9529 270.1549,290.4166 268.8689,288.9002 269.0782,286.6543 270.5952,285.3679 272.1252,284.0703 274.3615,284.2423 275.6475,285.7588" stroke="black" stroke-width="1" /><polyline fill="none" points="268.4328,308.8305 265.8023,305.0633 263.1718,301.2961 260.5413,297.529 259.4026,295.8982 259.8543,293.701 261.415,292.6111 262.9615,291.5313 265.1801,291.8639 266.3188,293.4947 267.1826,294.7316 268.0463,295.9685 268.91,297.2054 270.0487,298.8362 269.5963,301.0331 268.0499,302.1129 266.4891,303.2028 264.2711,302.8705 263.1324,301.2397" stroke="black" stroke-width="1" /><polyline fill="none" points="257.132,315.4585 258.9172,314.4464 260.7023,313.4343 262.4874,312.4221 261.1541,310.0705 259.8208,307.7189 258.4875,305.3673 258.5211,306.7474 258.0473,307.8249 256.7498,308.5605 254.96,309.5753 252.7358,308.885 251.7974,307.2299 251.1265,306.0467 250.4557,304.8635 249.7848,303.6803 248.804,301.9503 249.472,299.8961 251.0982,298.9741 252.7088,298.0609 254.7997,298.5509 255.7805,300.2808" stroke="black" stroke-width="1" /><polyline fill="none" points="249.9838,316.4701 250.953,318.6286 244.4606,321.5435 241.9911,303.8598" stroke="black" stroke-width="1" /><polyline fill="none" points="226.7701,311.6605 227.0452,310.607 227.4825,309.4979 229.4955,308.8124 231.2975,308.1987 233.3365,309.1342 233.9944,311.0661 234.4752,312.4778 234.9559,313.8896 235.4367,315.3013 236.0779,317.1841 235.0333,319.169 233.2313,319.7827 231.3969,320.4074 229.3259,319.4835 228.6847,317.6006 228.4453,316.8976 228.2058,316.1945 227.9664,315.4913 230.2116,314.7267 232.4569,313.9621 234.7021,313.1975" stroke="black" stroke-width="1" /><polyline fill="none" points="215.4613,312.7856 216.461,316.9712 222.3988,315.553 219.8774,329.3568" stroke="black" stroke-width="1" /><polyline fill="none" points="204.3357,323.358 204.3364,323.3635 204.3372,323.3689 204.338,323.3743 204.0111,321.0658 203.6842,318.7573 203.3573,316.4489 203.2062,315.382 202.3996,315.0785 201.8409,315.1576 202.5541,315.0566 203.2345,315.5814 203.3381,316.3134 203.3445,316.3586 203.3509,316.4037 203.3573,316.4489 204.3073,315.3274 205.5012,314.4658 206.9776,314.2567 208.2001,314.0836 210.273,314.4137 210.6263,316.9089 210.8115,318.2163 210.1997,319.151 209.2093,319.7407 208.7317,320.0338 207.1635,320.5851 206.1087,320.9596 205.039,321.3531 204.1505,322.0507 204.3357,323.358 204.5231,324.682 206.0903,326.0869 208.1272,325.7985 210.046,325.5268 210.7965,324.4686 211.2344,323.5235" stroke="black" stroke-width="1" /><polyline fill="none" points="194.8646,324.5859 193.2421,324.5605 191.5544,326.1404 191.6465,328.1015 191.6679,328.5579 191.6893,329.0143 191.7107,329.4708 191.7975,331.3209 193.3766,332.7571 195.2439,332.6695 197.0937,332.5827 198.5291,330.9704 198.4439,329.1548 198.4225,328.6984 198.401,328.2419 198.3796,327.7855 198.2928,325.935 196.7144,324.4991 194.8646,324.5859 192.8264,324.6816 191.1541,323.0953 191.0617,321.1263 191.0301,320.4527 190.9985,319.779 190.9669,319.1053 190.8745,317.1359 192.3925,315.4336 194.4307,315.338 196.4517,315.2431 198.1214,316.7959 198.2138,318.7652 198.2459,319.4501 198.2781,320.1349 198.3102,320.8198 198.3894,322.508 197.0636,324.3812" stroke="black" stroke-width="1" /><polyline fill="none" points="179.8411,332.4163 180.8336,332.4629 181.6841,331.9017 181.7436,330.6345 181.8012,329.4073 181.8588,328.18 181.9164,326.9527 181.3114,326.9243 180.7065,326.8959 180.1015,326.8676 181.2661,326.9222 182.4307,326.9769 183.5953,327.0315 183.0356,327.0052 182.476,326.979 181.9164,326.9527 182.0934,323.1795 182.2705,319.4062 182.4475,315.633" stroke="black" stroke-width="1" /><polyline fill="none" points="166.9833,315.6619 167.7048,314.8464 168.5961,314.0546 170.7016,314.3527 172.5864,314.6196 173.9826,316.3756 173.6965,318.3963 173.4874,319.8729 173.2783,321.3495 173.0692,322.8262 172.7903,324.7955 170.9616,326.0941 169.0767,325.8272 167.158,325.5555 165.728,323.7955 166.0069,321.8261 166.1111,321.0907 166.2152,320.3553 166.3193,319.6198 168.6678,319.9524 171.0162,320.2849 173.3647,320.6175" stroke="black" stroke-width="1" /><polyline fill="none" points="153.1583,328.2778 154.1247,328.5087 155.0649,328.1159 155.3596,326.882 155.6451,325.687 155.9305,324.492 156.2159,323.297 155.6268,323.1563 155.0378,323.0156 154.4487,322.875 155.5827,323.1458 156.7167,323.4166 157.8507,323.6875 157.3057,323.5573 156.7608,323.4272 156.2159,323.297 157.0934,319.623 157.9709,315.9489 158.8484,312.2748" stroke="black" stroke-width="1" /><polyline fill="none" points="148.2215,317.5686 147.5804,319.4514 145.5417,320.3867 143.7397,319.7731 141.9384,319.1597 140.9099,317.1799 141.551,315.297 142.0374,313.869 142.5237,312.4409 143.01,311.0128 143.6511,309.1303 145.6744,308.189 147.4757,308.8024 149.2777,309.4161 150.3057,311.3965 149.6646,313.279 149.6699,313.2808 149.6752,313.2826 149.6805,313.2844 148.1993,317.6338 146.7182,321.9832 145.237,326.3326" stroke="black" stroke-width="1" /><polyline fill="none" points="136.3123,313.2297 135.4977,315.0443 133.3804,315.7845 131.6438,315.0049 129.9078,314.2254 129.0692,312.158 129.8839,310.3435 130.5018,308.9672 131.1197,307.5909 131.7376,306.2147 132.5522,304.4005 134.6547,303.6528 136.3907,304.4323 138.1273,305.212 138.9653,307.2799 138.1508,309.0941 138.1559,309.0963 138.161,309.0986 138.1661,309.101 136.2841,313.2925 134.4022,317.4841 132.5203,321.6757" stroke="black" stroke-width="1" /><polyline fill="none" points="114.3519,312.4788 116.618,308.4818 118.8842,304.4849 121.1504,300.4879 122.1314,298.7577 124.3088,298.2186 125.9648,299.1575 127.6056,300.0878 128.2614,302.2332 127.2803,303.9634 126.5363,305.2758 125.7922,306.5882 125.0481,307.9005 124.0671,309.6308 121.8897,310.1691 120.2489,309.2388 118.593,308.2999 117.9372,306.1552 118.9182,304.425" stroke="black" stroke-width="1" /><polyline fill="none" points="104.404,305.6099 105.2187,306.1788 106.2374,306.1578 106.9637,305.1177 107.667,304.1104 108.3704,303.103 109.0738,302.0957 108.5773,301.749 108.0807,301.4023 107.5842,301.0555 108.5401,301.723 109.496,302.3905 110.4519,303.058 109.9925,302.7372 109.5332,302.4164 109.0738,302.0957 111.2364,298.9986 113.399,295.9016 115.5616,292.8044" stroke="black" stroke-width="1" /><polyline fill="none" points="99.067,297.4204 94.8545,298.2772 105.9426,285.2018" stroke="black" stroke-width="1" /><polyline fill="none" points="89.541,290.3024 87.8484,291.9557 82.8755,286.8649 98.6263,278.455" stroke="black" stroke-width="1" /><polyline fill="none" points="87.9593,266.3804 84.6128,269.086 88.451,273.8334 74.9078,277.5056" stroke="black" stroke-width="1" /><polyline fill="none" points="79.1723,265.3596 77.5296,266.4503 75.3186,266.0041 74.2284,264.3619 73.1278,262.7043 73.5842,260.5081 75.227,259.4174 76.0743,258.8548 76.9216,258.2922 77.7689,257.7297 79.4116,256.639 81.6123,257.071 82.7128,258.7287 83.8031,260.3708 83.357,262.5812 81.7142,263.6719 78.8766,265.5559 76.0391,267.4399 73.2015,269.3239 71.559,270.4144 69.3484,269.968 68.2581,268.3258 67.3188,266.911 67.5126,265.0953 68.6177,263.9084" stroke="black" stroke-width="1" /><polyline fill="none" points="73.2468,246.3776 74.3311,246.4768 75.4967,246.727 76.5019,248.601 77.4017,250.2785 76.8119,252.443 75.0135,253.4077 73.6993,254.1126 72.3851,254.8176 71.0708,255.5225 69.3181,256.4627 67.1892,255.7565 66.2894,254.0789 65.3733,252.3712 65.9465,250.1771 67.6992,249.2369 68.3538,248.8858 69.0083,248.5347 69.6629,248.1836 70.784,250.2738 71.9052,252.364 73.0264,254.4541" stroke="black" stroke-width="1" /><polyline fill="none" points="62.1405,238.2065 62.1355,238.2086 62.1304,238.2108 62.1254,238.2129 64.2741,237.308 66.4229,236.4032 68.5717,235.4984 69.5648,235.0802 69.6525,234.2228 69.4335,233.7028 69.7131,234.3667 69.3791,235.1584 68.6977,235.4453 68.6557,235.463 68.6137,235.4807 68.5717,235.4984 69.8983,236.131 71.036,237.0656 71.6147,238.4399 72.0938,239.5778 72.3033,241.6664 69.9807,242.6444 68.7638,243.1568 67.704,242.8036 66.8812,241.9964 66.476,241.6094 65.5429,240.2336 64.9118,239.3093 64.2585,238.3753 63.3574,237.6941 62.1405,238.2065 60.9081,238.7255 59.9494,240.5991 60.7477,242.4951 61.4998,244.2811 62.7145,244.7369 63.7399,244.9193" stroke="black" stroke-width="1" /><polyline fill="none" points="54.2173,234.5951 51.9602,235.3051 49.8246,228.5164 67.6758,228.132" stroke="black" stroke-width="1" /><polyline fill="none" points="51.5945,221.4046 49.6664,221.8176 47.7734,220.5922 47.3604,218.6641 46.9437,216.7188 48.1951,214.7852 50.1233,214.3722 50.8787,214.2104 51.4128,214.2535 51.8293,214.3922 56.0446,215.7925 60.26,217.1928 64.4753,218.5931 64.6148,218.5632 64.7543,218.5333 64.8937,218.5034 64.3981,216.1897 63.9025,213.8759 63.4069,211.5621" stroke="black" stroke-width="1" /><polyline fill="none" points="54.6718,207.763 52.6964,207.9957 50.974,206.559 50.7514,204.6684 50.5288,202.7785 51.8723,200.9973 53.8476,200.7647 55.3459,200.5883 56.8441,200.4118 58.3424,200.2354 60.3174,200.0028 62.0386,201.4231 62.2612,203.313 62.4838,205.2036 61.1396,206.9845 59.1646,207.217 59.1653,207.2226 59.1659,207.2282 59.1666,207.2337 54.6034,207.7711 50.0403,208.3085 45.4771,208.8458" stroke="black" stroke-width="1" /><polyline fill="none" points="44.0401,188.533 48.6335,188.4253 53.2269,188.3176 57.8203,188.2099 59.8088,188.1632 61.3894,189.7549 61.4341,191.658 61.4783,193.5436 59.974,195.208 57.9855,195.2546 56.4773,195.29 54.9691,195.3253 53.4609,195.3607 51.4724,195.4073 49.8925,193.8153 49.8483,191.9297 49.8036,190.0266 51.3073,188.3626 53.2957,188.316" stroke="black" stroke-width="1" /><polyline fill="none" points="58.4294,175.8661 60.4131,176.0059 61.8393,177.7222 61.7055,179.6208 61.5718,181.5194 59.9178,183.0355 57.9341,182.8958 56.4292,182.7897 54.9243,182.6837 53.4194,182.5777 51.4354,182.4379 50.0111,180.7049 50.1448,178.8063 50.2786,176.9078 51.9306,175.4083 53.9147,175.5481" stroke="black" stroke-width="1" /><polyline fill="none" points="56.1199,170.1847 54.1745,169.8626 52.8615,168.0287 53.1835,166.084 53.5086,164.1211 55.3399,162.8257 57.2852,163.1478 58.2886,163.314 59.292,163.4801 60.2954,163.6463 62.2408,163.9685 63.556,165.7849 63.2309,167.7479 62.9089,169.6926 61.0754,171.0054 59.1301,170.6832 55.7698,170.1267 52.4095,169.5703 49.0492,169.0138 47.1041,168.6917 45.7914,166.8579 46.1134,164.9132 46.3909,163.2378 47.7706,162.0417 49.3883,161.9269" stroke="black" stroke-width="1" /><polyline fill="none" points="49.7103,148.4238 54.153,149.5957 58.5958,150.7675 63.0385,151.9393 64.9617,152.4466 66.0384,154.4146 65.5528,156.2552 65.0718,158.079 63.1645,159.2603 61.2413,158.753 59.7826,158.3682 58.3239,157.9835 56.8651,157.5987 54.9419,157.0914 53.8661,155.1233 54.3471,153.2996 54.8326,151.4589 56.7391,150.2778 58.6623,150.785" stroke="black" stroke-width="1" /><polyline fill="none" points="60.6103,141.5519 61.2634,140.0664 60.4624,137.8979 58.6193,137.2216 58.1903,137.0643 57.7614,136.9069 57.3324,136.7495 55.5936,136.1114 53.6571,137.0094 53.0132,138.7643 52.3753,140.5029 53.3042,142.4514 55.0105,143.0775 55.4394,143.2349 55.8684,143.3923 56.2974,143.5497 58.0365,144.1879 59.9724,143.2904 60.6103,141.5519 61.3132,139.6364 63.4241,138.7108 65.2747,139.3897 65.9078,139.6221 66.541,139.8544 67.1741,140.0867 69.0249,140.7658 70.0048,142.8255 69.3019,144.7411 68.6049,146.6405 66.5259,147.5767 64.675,146.8976 64.0314,146.6614 63.3877,146.4252 62.744,146.1891 61.1574,145.6069 59.9456,143.658" stroke="black" stroke-width="1" /><polyline fill="none" points="63.0265,124.6023 65.0757,128.2157 67.1249,131.829 69.1741,135.4424 66.1004,133.9748 63.0267,132.5073 59.953,131.0397 58.1736,130.1901 57.4219,128.0633 58.2711,126.2845 59.1285,124.4889 61.2471,123.7527 63.0265,124.6023 66.1002,126.0699 69.1739,127.5374 72.2476,129.005 74.0271,129.8546 74.7859,131.9647 73.9362,133.7444 73.0794,135.539 70.9535,136.292 69.1741,135.4424" stroke="black" stroke-width="1" /><polyline fill="none" points="79.6554,119.3193 80.127,120.3007 80.5108,121.4294 79.4189,123.2542 78.4415,124.8877 76.2812,125.493 74.53,124.4451 73.2503,123.6793 71.9705,122.9136 70.6908,122.1478 68.984,121.1265 68.4969,118.9371 69.4744,117.3036 70.4695,115.6406 72.6465,115.0058 74.3533,116.0271 74.9906,116.4085 75.628,116.7899 76.2654,117.1713 75.0475,119.2066 73.8296,121.2419 72.6117,123.2772" stroke="black" stroke-width="1" /><polyline fill="none" points="72.8501,107.8282 71.4123,106.7733 71.0228,104.6375 72.1692,103.0751 73.315,101.5135 75.4114,101.1792 77.0424,102.3759 77.3003,102.5652 77.5583,102.7544 77.8162,102.9437 80.3044,104.7694 79.1263,107.2437 78.9231,107.5207 78.7271,107.7879 78.5311,108.055 78.3351,108.3221 78.5311,108.055 78.7271,107.7879 78.9231,107.5207 79.5219,106.7047 81.7677,105.6729 83.7025,107.0925 84.2694,107.5085 84.8363,107.9244 85.4032,108.3404 87.0062,109.5166 87.3244,111.7497 86.1478,113.3533 84.961,114.9708 82.7459,115.323 81.1429,114.1468" stroke="black" stroke-width="1" /><polyline fill="none" points="79.9949,96.94 78.2266,95.3677 82.9555,90.0493 92.4515,105.1702" stroke="black" stroke-width="1" /><polyline fill="none" points="101.9631,90.5748 103.319,92.0295 103.1921,94.2574 101.7998,95.5551 100.4075,96.8528 98.1639,96.8342 96.808,95.3795 95.7794,94.2759 94.7508,93.1723 93.7222,92.0687 92.3661,90.6137 92.5058,88.3748 93.8981,87.0771 95.2904,85.7795 97.5212,85.8089 98.8774,87.264" stroke="black" stroke-width="1" /><polyline fill="none" points="105.4445,74.7974 105.6396,78.9468 105.8347,83.0962 106.0299,87.2455 103.9511,84.5474 101.8724,81.8492 99.7936,79.151 98.5901,77.589 98.8807,75.3521 100.4422,74.149 102.0184,72.9347 104.241,73.2354 105.4445,74.7974 107.5232,77.4956 109.602,80.1937 111.6807,82.8919 112.8842,84.4539 112.6076,86.6792 111.0453,87.8829 109.47,89.0966 107.2333,88.8076 106.0299,87.2455" stroke="black" stroke-width="1" /><polyline fill="none" points="122.9128,79.5407 120.6172,75.9008 115.4535,79.1574 113.3904,65.2777" stroke="black" stroke-width="1" /><polyline fill="none" points="133.3402,71.9216 133.2155,73.0033 132.9381,74.1628 131.0411,75.1238 129.3429,75.984 127.1928,75.3436 126.2706,73.5231 125.5966,72.1927 124.9227,70.8623 124.2488,69.5319 123.3499,67.7576 124.1059,65.6458 125.804,64.7856 127.5328,63.9098 129.7128,64.5343 130.6117,66.3086 130.9473,66.9712 131.283,67.6338 131.6186,68.2964 129.5028,69.3682 127.3869,70.4401 125.271,71.5119" stroke="black" stroke-width="1" /><polyline fill="none" points="143.8583,65.6786 144.5869,67.5289 143.6525,69.5554 141.8816,70.2528 140.1107,70.9501 138.0299,70.1108 137.3013,68.2605 136.7485,66.8567 136.1958,65.453 135.6431,64.0493 134.9144,62.1986 135.8646,60.1666 137.6355,59.4693 139.4064,58.772 141.4714,59.6167 142.2001,61.4674" stroke="black" stroke-width="1" /><polyline fill="none" points="151.2387,49.0711 149.2673,49.6408 147.2959,50.2106 145.3244,50.7803 146.075,53.3774 146.8255,55.9744 147.5761,58.5714 147.864,57.2212 148.5751,56.2833 150.008,55.8692 151.9846,55.2979 153.9876,56.4861 154.5159,58.3139 154.8935,59.6206 155.2711,60.9273 155.6488,62.2339 156.2009,64.1444 155.0739,65.9873 153.278,66.5063 151.4993,67.0204 149.5795,66.058 149.0274,64.1476" stroke="black" stroke-width="1" /><polyline fill="none" points="164.4588,46.1945 162.4427,46.5772 160.4266,46.9598 158.4104,47.3425 158.9145,49.9984 159.4186,52.6543 159.9226,55.3102 160.3357,53.9928 161.1316,53.1256 162.5969,52.8475 164.6184,52.4639 166.5013,53.8344 166.856,55.7036 167.1096,57.0399 167.3633,58.3762 167.6169,59.7125 167.9877,61.6663 166.6931,63.3956 164.8565,63.7441 163.0375,64.0894 161.2162,62.9514 160.8454,60.9977" stroke="black" stroke-width="1" /><polyline fill="none" points="247.8987,268.4255 236.1363,268.4255 158.7145,203.9175 96.1804,188.1635 136.578,231.1149 188.8365,96.1804 188.2428,253.3668 268.4255,140.8637 188.8365,96.1804 268.4255,140.8637" stroke="black" stroke-width="1" /><polyline fill="none" points="277.0629,125.479 259.7881,156.2485" stroke="black" stroke-width="1" /><polyline fill="none" points="247.8987,268.4255 247.7538,266.5855 247.323,264.7907 246.6166,263.0855 245.6523,261.5117 244.4535,260.1082 243.05,258.9095 241.4763,257.9451 239.7711,257.2388 237.9763,256.8079 236.1363,256.6631 234.2962,256.8079 232.5015,257.2388 230.7962,257.9451 229.2225,258.9095 227.819,260.1082 226.6203,261.5117 225.6559,263.0855 224.9496,264.7907 224.5187,266.5855 224.3739,268.4255 224.5187,270.2656 224.9496,272.0603 225.6559,273.7655 226.6203,275.3393 227.819,276.7428 229.2225,277.9415 230.7962,278.9059 232.5015,279.6122 234.2962,280.0431 236.1363,280.1879 237.9763,280.0431 239.7711,279.6122 241.4763,278.9059 243.05,277.9415 244.4535,276.7428 245.6523,275.3393 246.6166,273.7655 247.323,272.0603 247.7538,270.2656 247.8987,268.4255" stroke="black" stroke-width="1" /><polyline fill="none" points="188.5,69.0664 199.6839,69.5912 210.7696,71.161 221.6595,73.7619 232.2581,77.3712 242.4721,81.9571 252.2118,87.4792 261.3915,93.8892 269.9308,101.1306 277.7544,109.1398 284.7936,117.8464 290.9866,127.1739 296.2789,137.0404 300.6241,147.3591 303.9839,158.0393 306.3289,168.9873 307.6383,180.1067 307.9008,191.2998 307.114,202.4684 305.2847,213.5142 302.4292,224.3402 298.5725,234.8512 293.7484,244.9549 287.9994,254.5625 281.376,263.5894 273.9365,271.9565 265.7461,279.5902 256.8768,286.4234 247.4067,292.3961 237.4188,297.4556 227.0011,301.5577 216.2451,304.6663 205.2452,306.7539 194.0981,307.8023 182.9019,307.8023 171.7548,306.7539 160.7549,304.6663 149.9989,301.5577 139.5811,297.4556 129.5933,292.3961 120.1232,286.4234 111.2539,279.5902 103.0635,271.9565 95.6239,263.5894 89.0006,254.5625 83.2516,244.9549 78.4275,234.8512 74.5708,224.3402 71.7153,213.5142 69.8861,202.4684 69.0992,191.2998 69.3617,180.1067 70.6712,168.9872 73.0161,158.0393 76.3759,147.3591 80.7211,137.0404 86.0134,127.174 92.2064,117.8464 99.2457,109.1398 107.0692,101.1306 115.6085,93.8892 124.7882,87.4792 134.5279,81.957 144.7419,77.3712 155.3405,73.7619 166.2304,71.161 177.3161,69.5912 188.5,69.0664" stroke="black" stroke-width="1" />

    </g>
  </g>
  <WCB
     pausedposy="0"
     pausedposx="0"
     lastknownposy="0"
     lastknownposx="0"
     lastpathnc="0"
     lastpath="0"
     node="0"
     layer="0" />
</svg>
