<?xml version="1.0" encoding="UTF-8" standalone="no"?>
<!-- Created with Inkscape (http://www.inkscape.org/) -->

<svg
   xmlns:dc="http://purl.org/dc/elements/1.1/"
   xmlns:cc="http://creativecommons.org/ns#"
   xmlns:rdf="http://www.w3.org/1999/02/22-rdf-syntax-ns#"
   xmlns:svg="http://www.w3.org/2000/svg"
   xmlns="http://www.w3.org/2000/svg"
   xmlns:sodipodi="http://sodipodi.sourceforge.net/DTD/sodipodi-0.dtd"
   xmlns:inkscape="http://www.inkscape.org/namespaces/inkscape"
   width="100mm"
   height="100mm"
   viewBox="0 0 100 100"
   version="1.1"
   id="svg19124"
   inkscape:version="0.92.3 (2405546, 2018-03-11)"
   sodipodi:docname="inkscape_template_TMP.svg"
   shape-rendering="crispEdges">
  <sodipodi:namedview
     pagecolor="#ffffff"
     bordercolor="#666666"
     borderopacity="1"
     objecttolerance="10"
     gridtolerance="10"
     guidetolerance="10"
     inkscape:pageopacity="0"
     inkscape:pageshadow="2"
     inkscape:window-width="1568"
     inkscape:window-height="1550"
     id="namedview24021"
     showgrid="false"
     inkscape:zoom="0.62441667"
     inkscape:cx="712.66515"
     inkscape:cy="409.98265"
     inkscape:window-x="0"
     inkscape:window-y="0"
     inkscape:window-maximized="0"
     inkscape:current-layer="layer1" />
  <defs
     id="defs19118" />
  <metadata
     id="metadata19121">
    <rdf:RDF>
      <cc:Work
         rdf:about="">
        <dc:format>image/svg+xml</dc:format>
        <dc:type
           rdf:resource="http://purl.org/dc/dcmitype/StillImage" />
        <dc:title />
      </cc:Work>
    </rdf:RDF>
  </metadata>
  <g
     transform="translate(0,-197)"
     id="layer1"
     inkscape:groupmode="layer"
     inkscape:label="Layer 1">
    <g
       id="g24447"
       transform="matrix(0.26458333,0,0,0.26458333,0.10666333,197.9735)">

<polyline fill="none" points="192.1004,47.7394 189.7225,51.1455 187.3447,54.5516 184.9669,57.9577 184.9669,54.5516 184.9669,51.1455 184.9669,47.7394 184.9669,45.7676 186.5623,44.1729 188.5334,44.1729 190.5231,44.1729 192.1004,45.7676 192.1004,47.7394 192.1004,51.1455 192.1004,54.5516 192.1004,57.9577 192.1004,59.9295 190.5231,61.5235 188.5509,61.5235 186.5623,61.5235 184.9669,59.9295 184.9669,57.9577" stroke="black" stroke-width="1" /><polyline fill="none" points="197.8298,61.5877 200.7471,57.7851 198.696,53.7706 202.935,62.0679 200.7471,57.7851 203.4811,54.2207" stroke="black" stroke-width="1" /><polyline fill="none" points="215.9534,62.4864 215.1945,63.2672 214.2671,64.0163 212.1779,63.6198 210.3076,63.2649 208.9953,61.4454 209.3758,59.4404 209.6539,57.9752 209.9319,56.5099 210.21,55.0447 210.5809,53.0906 212.4685,51.8792 214.3388,52.2341 216.2427,52.5954 217.5885,54.4206 217.2177,56.3747 217.0792,57.1045 216.9407,57.8342 216.8022,58.5639 214.4719,58.1217 212.1416,57.6794 209.8114,57.2372" stroke="black" stroke-width="1" /><polyline fill="none" points="230.3545,50.5323 229.4,50.2565 228.4424,50.6047 228.0902,51.8234 227.7491,53.0037 227.408,54.184 227.0669,55.3643 227.6487,55.5325 228.2305,55.7007 228.8123,55.8688 227.6922,55.5451 226.5722,55.2214 225.4522,54.8977 225.9904,55.0533 226.5286,55.2088 227.0669,55.3643 226.0181,58.9932 224.9693,62.6221 223.9206,66.251" stroke="black" stroke-width="1" /><polyline fill="none" points="237.08,55.0962 237.9469,52.8945 244.5687,55.502 233.6444,69.6254" stroke="black" stroke-width="1" /><polyline fill="none" points="255.3459,60.7562 254.4596,60.3071 253.4539,60.4707 252.8806,61.6024 252.3254,62.6984 251.7702,63.7944 251.215,64.8904 251.7552,65.1641 252.2955,65.4378 252.8357,65.7114 251.7957,65.1846 250.7556,64.6577 249.7156,64.1309 250.2154,64.384 250.7152,64.6372 251.215,64.8904 249.508,68.2601 247.801,71.6298 246.0939,74.9995" stroke="black" stroke-width="1" /><polyline fill="none" points="256.7554,73.6038 257.8073,71.9359 260.007,71.4374 261.6743,72.489 263.3572,73.5504 263.8404,75.7409 262.7885,77.4087 262.2459,78.269 261.7034,79.1292 261.1608,79.9895 260.1089,81.6574 257.9244,82.1646 256.2415,81.1031 254.5742,80.0516 254.0758,77.8524 255.1277,76.1845 256.9447,73.3036 258.7617,70.4226 260.5786,67.5417 261.6303,65.8741 263.8299,65.3759 265.4971,66.4274 266.9336,67.3334 267.5004,69.0691 266.9784,70.6046" stroke="black" stroke-width="1" /><polyline fill="none" points="270.9713,87.1271 269.7576,88.7024 267.5389,88.9412 266.0312,87.7796 264.5235,86.618 264.1752,84.4016 265.3889,82.8262 266.3096,81.6312 267.2304,80.4361 268.1511,79.241 269.365,77.6654 271.5966,77.4374 273.1043,78.599 274.612,79.7606 274.9474,81.9663 273.7335,83.5419" stroke="black" stroke-width="1" /><polyline fill="none" points="277.1284,97.2925 280.0625,94.1445 275.5966,89.9821 288.4911,84.4474" stroke="black" stroke-width="1" /><polyline fill="none" points="288.427,104.2825 286.9408,105.6039 284.7165,105.4248 283.4518,104.0025 282.1872,102.5801 282.2583,100.3376 283.7444,99.0162 284.8718,98.0138 285.9993,97.0113 287.1267,96.0089 288.6131,94.6872 290.848,94.8794 292.1127,96.3017 293.3774,97.7241 293.2956,99.9536 291.8092,101.2752" stroke="black" stroke-width="1" /><polyline fill="none" points="306.9236,105.7683 303.2191,108.4864 299.5146,111.2045 295.8102,113.9226 294.2065,115.0992 291.9993,114.6992 290.8732,113.1643 289.7574,111.6436 290.0379,109.4178 291.6415,108.2412 292.8579,107.3487 294.0742,106.4563 295.2905,105.5638 296.8942,104.3872 299.101,104.7879 300.2168,106.3086 301.343,107.8434 301.0628,110.0686 299.4592,111.2452" stroke="black" stroke-width="1" /><polyline fill="none" points="298.9669,125.4851 302.6596,123.2754 299.5249,118.0368 313.4492,116.2997" stroke="black" stroke-width="1" /><polyline fill="none" points="308.9742,127.1239 310.7691,126.2669 312.8627,127.0716 313.6829,128.7895 314.5028,130.5067 313.8053,132.6259 312.0104,133.4829 310.649,134.1329 309.2876,134.7829 307.9261,135.433 306.1316,136.2898 304.0444,135.5002 303.2245,133.7829 302.4043,132.0651 303.1026,129.9459 304.8972,129.0891 304.8948,129.084 304.8924,129.0789 304.89,129.0739 309.0363,127.0942 313.1826,125.1145 317.3289,123.1348" stroke="black" stroke-width="1" /><polyline fill="none" points="321.886,143.3926 317.8693,142.3336 313.8526,141.2746 309.8359,140.2156 313.0335,139.0423 316.2312,137.869 319.4288,136.6958 321.2799,136.0165 323.3266,136.965 324.0056,138.8155 324.691,140.6834 323.7372,142.7134 321.886,143.3926 318.6884,144.5659 315.4908,145.7392 312.2932,146.9125 310.442,147.5917 308.4023,146.6601 307.7229,144.8086 307.0379,142.9417 307.9847,140.8948 309.8359,140.2156" stroke="black" stroke-width="1" /><polyline fill="none" points="325.5238,156.0813 321.6239,154.6508 317.7241,153.2203 313.8242,151.7898 317.1176,150.9211 320.4111,150.0524 323.7045,149.1837 325.6111,148.6808 327.56,149.8168 328.0627,151.7227 328.5702,153.6467 327.4305,155.5784 325.5238,156.0813 322.2304,156.95 318.937,157.8187 315.6435,158.6874 313.7369,159.1903 311.7934,158.0718 311.2903,156.1648 310.7832,154.2419 311.9175,152.2927 313.8242,151.7898" stroke="black" stroke-width="1" /><polyline fill="none" points="327.9191,161.6873 330.2534,161.3007 331.4161,168.3218 313.6874,166.1996" stroke="black" stroke-width="1" /><polyline fill="none" points="315.5205,182.2064 319.8132,181.904 319.3842,175.8142 332.5906,180.557" stroke="black" stroke-width="1" /><polyline fill="none" points="323.7071,188.1906 325.6956,188.2372 327.1995,189.9012 327.1549,191.8043 327.1103,193.7067 325.5304,195.282 323.5419,195.2354 322.0337,195.2 320.5255,195.1646 319.0173,195.1293 317.0292,195.0826 315.5242,193.4351 315.5688,191.5327 315.6134,189.6295 317.194,188.0547 319.1821,188.1013 319.1823,188.0957 319.1824,188.0901 319.1825,188.0845 323.7759,188.1922 328.3694,188.2999 332.9628,188.4077" stroke="black" stroke-width="1" /><polyline fill="none" points="329.8821,201.4498 332.232,201.7265 331.3997,208.7943 314.9572,201.8333" stroke="black" stroke-width="1" /><polyline fill="none" points="319.8762,213.0001 321.8043,213.4131 323.03,215.3065 322.6171,217.2339 322.2004,219.1795 320.3104,220.3876 318.3823,219.9747 317.3878,219.7616 316.3932,219.5486 315.3987,219.3356 313.4706,218.9226 312.242,217.0465 312.6587,215.1009 313.0715,213.1735 314.9645,211.9481 316.8926,212.3611 320.2231,213.0744 323.5537,213.7878 326.8842,214.5012 328.812,214.9141 330.0374,216.8074 329.6245,218.7348 329.2688,220.3954 327.8346,221.5255 326.2133,221.5643" stroke="black" stroke-width="1" /><polyline fill="none" points="318.4497,229.402 317.8669,230.9165 318.7687,233.045 320.6415,233.6342 321.0774,233.7713 321.5132,233.9084 321.9491,234.0455 323.7159,234.6014 325.6082,233.6136 326.1691,231.8304 326.7249,230.0639 325.7056,228.161 323.9718,227.6156 323.536,227.4785 323.1001,227.3414 322.6642,227.2043 320.8971,226.6483 319.0054,227.6355 318.4497,229.402 317.8374,231.3484 315.7721,232.3719 313.8918,231.7804 313.2485,231.578 312.6051,231.3757 311.9618,231.1733 310.0811,230.5817 309.0059,228.5702 309.6182,226.6238 310.2253,224.6937 312.2582,223.6611 314.1389,224.2527 314.7929,224.4585 315.4469,224.6642 316.1009,224.87 317.7131,225.3771 319.015,227.2671" stroke="black" stroke-width="1" /><polyline fill="none" points="319.7266,240.0988 321.3701,240.7908 322.2451,242.7776 321.493,244.5637 320.7413,246.3487 318.7799,247.1609 316.9155,246.3758 316.6207,246.2516 316.3259,246.1275 316.031,246.0033 313.1867,244.8056 313.7578,242.1252 313.8911,241.8086 314.0197,241.5033 314.1483,241.1979 314.2769,240.8925 314.1483,241.1979 314.0197,241.5033 313.8911,241.8086 313.4983,242.7415 311.5536,244.2667 309.3419,243.3354 308.6939,243.0625 308.0459,242.7896 307.3979,242.5167 305.5654,241.7451 304.7372,239.647 305.5091,237.8139 306.2877,235.965 308.3604,235.1079 310.1928,235.8795" stroke="black" stroke-width="1" /><polyline fill="none" points="308.0982,256.8646 306.3606,255.9326 305.7018,253.7886 306.6339,252.0509 307.574,250.2982 309.7321,249.647 311.4698,250.5791 312.3663,251.0599 313.2628,251.5408 314.1592,252.0216 315.8969,252.9537 316.5487,255.1122 315.6165,256.8502 314.6765,258.6026 312.5253,259.2393 310.7877,258.3072 307.7861,256.6972 304.7846,255.0872 301.7831,253.4772 300.0457,252.5453 299.3866,250.4012 300.3187,248.6635 301.1209,247.1679 302.8134,246.4797 304.382,246.8927" stroke="black" stroke-width="1" /><polyline fill="none" points="307.097,270.7408 308.2321,269.0313 309.3672,267.3217 310.5023,265.6121 308.2502,264.1168 305.9981,262.6215 303.746,261.1263 304.3997,262.3422 304.4639,263.5175 303.6389,264.7601 302.5008,266.4742 300.2047,266.8635 298.6197,265.8111 297.4865,265.0587 296.3534,264.3064 295.2202,263.554 293.5635,262.4541 293.2311,260.3196 294.2651,258.7623 295.2892,257.2198 297.3759,256.7121 299.0326,257.812" stroke="black" stroke-width="1" /><polyline fill="none" points="299.4105,280.6181 300.0351,279.8455 300.0858,278.8278 299.0993,278.0302 298.1439,277.2578 297.1885,276.4853 296.2331,275.7129 295.8523,276.1838 295.4716,276.6548 295.0908,277.1257 295.8238,276.2191 296.5568,275.3125 297.2898,274.4059 296.9376,274.8415 296.5853,275.2772 296.2331,275.7129 293.2956,273.338 290.3582,270.9631 287.4207,268.5882" stroke="black" stroke-width="1" /><polyline fill="none" points="289.4678,291.8159 286.181,288.6053 282.8942,285.3947 279.6074,282.1841 278.1846,280.7942 278.2187,278.5513 279.5489,277.1895 280.8668,275.8403 283.1086,275.7534 284.5314,277.1432 285.6106,278.1974 286.6898,279.2516 287.769,280.3058 289.1918,281.6956 289.157,283.9383 287.839,285.2875 286.5088,286.6493 284.2678,286.7365 282.845,285.3466" stroke="black" stroke-width="1" /><polyline fill="none" points="273.8342,294.1197 273.8378,294.1239 273.8413,294.1281 273.8448,294.1323 272.3369,292.3541 270.8289,290.5758 269.321,288.7976 268.6241,287.9758 267.7799,288.1494 267.3495,288.5144 267.899,288.0485 268.7544,288.1295 269.2325,288.6933 269.262,288.7281 269.2915,288.7629 269.321,288.7976 269.5263,287.3423 270.0765,285.9766 271.2138,285.0122 272.1555,284.2136 274.0849,283.3871 275.7148,285.3091 276.5688,286.3162 276.55,287.4331 276.0269,288.4602 275.7792,288.9629 274.7469,290.2658 274.0545,291.1452 273.3596,292.0487 272.9802,293.1127 273.8342,294.1197 274.6991,295.1396 276.7741,295.4919 278.3431,294.1614 279.8211,292.908 279.8914,291.6125 279.7577,290.5796" stroke="black" stroke-width="1" /><polyline fill="none" points="263.5689,301.6465 263.572,301.6509 263.5751,301.6555 263.5783,301.6599 262.2435,299.7484 260.9087,297.8367 259.5739,295.9251 258.957,295.0417 258.1003,295.1354 257.6376,295.4585 258.2282,295.0461 259.0723,295.2068 259.4955,295.813 259.5217,295.8504 259.5478,295.8878 259.5739,295.9251 259.9146,294.4954 260.5902,293.1872 261.8128,292.3336 262.8251,291.6267 264.8235,290.9844 266.2663,293.0507 267.0222,294.1333 266.8988,295.2435 266.2818,296.2171 265.9883,296.6944 264.8384,297.895 264.0668,298.7056 263.2903,299.5401 262.8129,300.5639 263.5689,301.6465 264.3344,302.7428 266.3673,303.2879 268.054,302.1102 269.6429,301.0007 269.8342,299.7175 269.7978,298.6766" stroke="black" stroke-width="1" /><polyline fill="none" points="256.8137,315.7868 254.5475,311.7899 252.2813,307.7929 250.0151,303.7959 249.0341,302.0657 249.6896,299.9204 251.3456,298.9815 252.9863,298.0512 255.1641,298.5901 256.1451,300.3204 256.8892,301.6328 257.6332,302.9451 258.3773,304.2575 259.3583,305.9877 258.7022,308.1326 257.0614,309.0628 255.4055,310.0017 253.2284,309.4633 252.2474,307.733" stroke="black" stroke-width="1" /><polyline fill="none" points="244.5941,321.6245 242.7122,317.4329 240.8303,313.2413 238.9483,309.0497 238.1336,307.2352 238.9871,305.1607 240.7237,304.381 242.4444,303.6085 244.5621,304.3489 245.3768,306.1635 245.9947,307.5397 246.6126,308.916 247.2305,310.2923 248.0452,312.1068 247.1911,314.1808 245.4705,314.9533 243.7338,315.733 241.6167,314.993 240.8021,313.1785" stroke="black" stroke-width="1" /><polyline fill="none" points="230.468,322.9068 231.6209,318.916 232.7738,314.9253 233.9267,310.9345 235.0247,314.1587 236.1227,317.383 237.2207,320.6072 237.8563,322.4738 236.8602,324.4977 234.9943,325.1331 233.1108,325.7745 231.1037,324.7734 230.468,322.9068 229.37,319.6826 228.272,316.4583 227.174,313.2341 226.5384,311.3675 227.5175,309.3502 229.3845,308.7144 231.267,308.0733 233.291,309.0679 233.9267,310.9345" stroke="black" stroke-width="1" /><polyline fill="none" points="224.5284,324.826 224.9426,326.5605 223.8584,328.4414 221.9735,328.8916 220.0896,329.3416 218.2745,328.2405 217.8046,326.2729 217.7303,325.9618 217.656,325.6507 217.5816,325.3395 216.8647,322.3378 219.3636,321.2125 219.6978,321.1328 220.02,321.0558 220.3423,320.9788 220.6645,320.9019 220.3423,320.9788 220.02,321.0558 219.6978,321.1328 218.7133,321.3679 216.3331,320.7022 215.7756,318.3681 215.6123,317.6842 215.4489,317.0004 215.2856,316.3165 214.8237,314.3826 216.0253,312.4737 217.9599,312.0116 219.9112,311.5455 221.8284,312.7096 222.2903,314.6435" stroke="black" stroke-width="1" /><polyline fill="none" points="210.7541,320.2752 211.0305,322.2275 209.6752,324.0305 207.7235,324.3068 205.7535,324.5858 203.9682,323.2276 203.6918,321.2752 203.5492,320.2682 203.4066,319.2612 203.264,318.2542 202.9875,316.3018 204.3256,314.5021 206.2957,314.2231 208.2473,313.9467 210.0498,315.3018 210.3263,317.2542 210.8038,320.6266 211.2814,323.999 211.7589,327.3714 212.0353,329.3235 210.68,331.126 208.7283,331.4023 207.0468,331.6404 205.4918,330.6833 204.8969,329.1746" stroke="black" stroke-width="1" /><polyline fill="none" points="198.8229,330.0981 198.9338,332.4617 191.8249,332.7953 196.0061,315.4364" stroke="black" stroke-width="1" /><polyline fill="none" points="178.9855,317.118 179.6274,316.2386 180.4406,315.3668 182.5648,315.4664 184.4664,315.5557 186.0209,317.1732 185.9252,319.2117 185.8553,320.7015 185.7854,322.1912 185.7155,323.6809 185.6223,325.6677 183.9232,327.1319 182.0216,327.0427 180.0858,326.9518 178.4974,325.3334 178.5906,323.3466 178.6254,322.6046 178.6602,321.8627 178.695,321.1207 181.0643,321.2319 183.4336,321.3431 185.8028,321.4543" stroke="black" stroke-width="1" /><polyline fill="none" points="166.4026,330.9731 167.3864,331.1124 168.2857,330.6334 168.4636,329.3773 168.6358,328.1608 168.8081,326.9443 168.9804,325.7278 168.3807,325.6429 167.7811,325.558 167.1815,325.4731 168.3358,325.6366 169.4902,325.8 170.6445,325.9635 170.0898,325.8849 169.5351,325.8064 168.9804,325.7278 169.51,321.9878 170.0396,318.2477 170.5692,314.5076" stroke="black" stroke-width="1" /><polyline fill="none" points="159.034,326.3934 158.6197,328.1279 156.8026,329.3158 154.9176,328.8656 153.0338,328.4157 151.9121,326.6133 152.382,324.6457 152.4564,324.3345 152.5307,324.0234 152.605,323.7122 153.3219,320.7105 156.0596,320.8359 156.3937,320.9158 156.716,320.9927 157.0383,321.0697 157.3605,321.1467 157.0383,321.0697 156.716,320.9927 156.3937,320.9158 155.4093,320.6806 153.5868,319.0112 154.1443,316.6771 154.3076,315.9932 154.4709,315.3093 154.6343,314.6254 155.0962,312.6916 157.0307,311.5317 158.9653,311.9937 160.9166,312.4598 162.1008,314.3646 161.6389,316.2984" stroke="black" stroke-width="1" /><polyline fill="none" points="140.5936,317.6605 141.2292,315.7939 143.2367,314.7937 145.1033,315.4293 146.9861,316.0705 147.9812,318.0933 147.3455,319.9598 147.0176,320.9229 146.6897,321.8858 146.3617,322.8488 145.7261,324.7154 143.7031,325.7111 141.8362,325.0753 139.9537,324.4343 138.9741,322.416 139.6097,320.5494 140.7077,317.3252 141.8057,314.101 142.9037,310.8767 143.5393,309.0105 145.5469,308.0099 147.4135,308.6456 149.0201,309.1927 149.9756,310.7499 149.8244,312.365" stroke="black" stroke-width="1" /><polyline fill="none" points="126.2872,318.8773 128.1692,314.6857 130.0511,310.4941 131.933,306.3026 132.7477,304.488 134.8651,303.7474 136.6017,304.5271 138.3224,305.2997 139.1762,307.3743 138.3615,309.1888 137.7436,310.5651 137.1257,311.9413 136.5078,313.3176 135.6931,315.1321 133.5757,315.8719 131.855,315.0994 130.1184,314.3197 129.2646,312.2458 130.0793,310.4314" stroke="black" stroke-width="1" /><polyline fill="none" points="121.8899,298.9365 122.86,298.442 123.9794,298.0318 125.8292,299.0806 127.4852,300.0195 128.141,302.165 127.1344,303.9402 126.3989,305.2376 125.6633,306.5349 124.9277,307.8323 123.9467,309.5625 121.7693,310.1008 120.1134,309.1619 118.4276,308.2061 117.7419,306.0446 118.7229,304.3143 119.0893,303.6682 119.4556,303.022 119.822,302.3759 121.8853,303.5457 123.9486,304.7156 126.0119,305.8854" stroke="black" stroke-width="1" /><polyline fill="none" points="110.2586,306.9689 108.904,308.9089 103.069,304.8345 116.9754,293.6353" stroke="black" stroke-width="1" /><polyline fill="none" points="101.3678,285.8959 102.6539,284.3792 104.8814,284.2446 106.333,285.4756 107.7846,286.7066 108.0286,288.937 106.7424,290.4537 105.7667,291.6043 104.791,292.7549 103.8152,293.9055 102.5288,295.4225 100.289,295.5456 98.8374,294.3146 97.3858,293.0836 97.1541,290.8647 98.4406,289.3477" stroke="black" stroke-width="1" /><polyline fill="none" points="94.2427,285.4362 92.8199,286.826 90.5786,286.7392 89.2484,285.3774 87.9187,284.0161 87.8959,281.7852 89.3187,280.3954 90.3979,279.3412 91.4771,278.287 92.5563,277.2328 93.9788,275.8432 96.2091,275.9179 97.5388,277.2791 98.869,278.6409 98.8911,280.872 97.4685,282.2617 97.4724,282.2657 97.4763,282.2697 97.4803,282.2737 94.1935,285.4843 90.9067,288.6949 87.6199,291.9055" stroke="black" stroke-width="1" /><polyline fill="none" points="80.9088,271.3348 80.9046,271.3382 80.9003,271.3416 80.8961,271.3451 82.7091,269.8792 84.5222,268.4134 86.3353,266.9475 87.1732,266.2701 87.0195,265.4221 86.6647,264.9833 87.1176,265.5435 87.0166,266.3967 86.4416,266.8615 86.4062,266.8902 86.3707,266.9189 86.3353,266.9475 87.7854,267.187 89.1378,267.769 90.0753,268.9286 90.8516,269.8887 91.6327,271.837 89.6729,273.4214 88.6461,274.2516 87.5299,274.2065 86.5154,273.6595 86.0187,273.4001 84.7403,272.3376 83.8774,271.6248 82.9904,270.9089 81.9356,270.5046 80.9088,271.3348 79.869,272.1755 79.4681,274.2416 80.7615,275.8414 81.9799,277.3484 83.2733,277.4491 84.3091,277.3396" stroke="black" stroke-width="1" /><polyline fill="none" points="69.2417,263.3596 73.3946,263.4566 77.5474,263.5535 81.7002,263.6505 78.8626,265.5345 76.0251,267.4185 73.1875,269.3025 71.5447,270.3932 69.3337,269.9461 68.2434,268.304 67.1429,266.6464 67.599,264.4503 69.2417,263.3596 72.0793,261.4756 74.9169,259.5916 77.7545,257.7076 79.3972,256.6169 81.5975,257.0492 82.6884,258.6923 83.7884,260.349 83.3429,262.5598 81.7002,263.6505" stroke="black" stroke-width="1" /><polyline fill="none" points="68.436,252.878 67.7598,251.4029 65.607,250.5606 63.8769,251.4886 63.4743,251.7046 63.0716,251.9206 62.669,252.1366 61.0368,253.0121 60.4211,255.0559 61.3047,256.7032 62.1801,258.3351 64.2535,258.9357 65.8552,258.0766 66.2578,257.8606 66.6605,257.6446 67.0631,257.4286 68.6957,256.553 69.3114,254.5099 68.436,252.878 67.4715,251.08 68.1825,248.8874 69.9195,247.9556 70.5138,247.6368 71.1081,247.318 71.7025,246.9992 73.4398,246.0673 75.6301,246.7037 76.5946,248.5018 77.551,250.2848 76.8691,252.4606 75.1318,253.3925 74.5276,253.7166 73.9234,254.0406 73.3192,254.3647 71.8299,255.1636 69.5682,254.7742" stroke="black" stroke-width="1" /><polyline fill="none" points="66.7584,243.6264 64.9411,244.3917 62.8521,243.541 62.0872,241.7243 61.315,239.8906 62.1729,237.818 63.9902,237.0527 64.9276,236.658 65.8649,236.2633 66.8022,235.8686 68.6195,235.1033 70.701,235.9381 71.4732,237.7719 72.2382,239.5885 71.3877,241.677 69.5704,242.4423 66.4313,243.7641 63.2922,245.086 60.1531,246.4079 58.3361,247.173 56.2475,246.3222 55.4825,244.5055 54.8234,242.9404 55.3524,241.1927 56.6595,240.2327" stroke="black" stroke-width="1" /><polyline fill="none" points="58.5377,229.3619 58.1485,227.7865 56.1904,226.5576 54.3177,227.1468 53.8818,227.2839 53.4459,227.421 53.0101,227.5581 51.2432,228.1139 50.2573,230.0071 50.8182,231.7903 51.3739,233.5568 53.299,234.5335 55.0328,233.988 55.4687,233.8509 55.9046,233.7138 56.3404,233.5767 58.1076,233.0208 59.0934,231.1284 58.5377,229.3619 57.9254,227.4155 59.0327,225.3939 60.913,224.8024 61.5563,224.6 62.1997,224.3976 62.843,224.1952 64.7237,223.6036 66.7569,224.6372 67.3692,226.5836 67.9764,228.5137 66.9008,230.5242 65.0201,231.1158 64.3661,231.3215 63.7121,231.5273 63.0581,231.733 61.4459,232.2402 59.2965,231.4359" stroke="black" stroke-width="1" /><polyline fill="none" points="51.3668,221.3226 49.6231,221.6961 47.7682,220.5681 47.3623,218.6732 46.9566,216.7793 48.0999,214.9904 50.0779,214.5668 50.3907,214.4998 50.7035,214.4328 51.0163,214.3658 54.0341,213.7194 55.1004,216.2439 55.1724,216.5799 55.2418,216.9039 55.3111,217.2278 55.3805,217.5518 55.3111,217.2278 55.2418,216.9039 55.1724,216.5799 54.9604,215.5902 55.6817,213.2262 58.0282,212.7236 58.7157,212.5764 59.4032,212.4291 60.0907,212.2819 62.0349,211.8654 63.9152,213.1115 64.3317,215.0564 64.7519,217.018 63.5433,218.9074 61.5991,219.3238" stroke="black" stroke-width="1" /><polyline fill="none" points="54.6718,207.763 52.6964,207.9957 50.974,206.559 50.7514,204.6684 50.5288,202.7785 51.8723,200.9973 53.8476,200.7647 55.3459,200.5883 56.8441,200.4118 58.3424,200.2354 60.3174,200.0028 62.0386,201.4231 62.2612,203.313 62.4838,205.2036 61.1396,206.9845 59.1646,207.217 59.1653,207.2226 59.1659,207.2282 59.1666,207.2337 54.6034,207.7711 50.0403,208.3085 45.4771,208.8458" stroke="black" stroke-width="1" /><polyline fill="none" points="50.7422,188.017 52.7135,187.9708 54.344,189.5109 54.3902,191.4822 54.4369,193.4707 52.8807,195.1016 50.9094,195.1478 49.8923,195.1716 48.8753,195.1955 47.8583,195.2193 45.887,195.2656 44.2554,193.7094 44.2091,191.7377 44.1625,189.7496 45.7198,188.1348 47.6911,188.0886 51.0962,188.0087 54.5014,187.9289 57.9065,187.849 59.8775,187.8028 61.5084,189.3429 61.5546,191.3142 61.5944,193.011 60.4615,194.4444 58.8933,194.8588" stroke="black" stroke-width="1" /><polyline fill="none" points="46.6663,182.1914 44.306,182.0251 44.8061,174.926 61.5569,181.1087" stroke="black" stroke-width="1" /><polyline fill="none" points="46.6224,162.0504 46.2872,164.0749 45.9519,166.0994 45.6167,168.1239 48.2836,168.5656 50.9506,169.0073 53.6176,169.4489 52.5232,168.6074 51.9832,167.5615 52.2269,166.0901 52.5631,164.0601 54.4983,162.7646 56.3753,163.0754 57.7172,163.2976 59.0591,163.5198 60.401,163.7421 62.3629,164.067 63.5404,165.878 63.235,167.7222 62.9325,169.5489 61.2368,170.8667 59.2749,170.5418" stroke="black" stroke-width="1" /><polyline fill="none" points="63.0662,151.8347 64.9891,152.3419 66.0702,154.294 65.5848,156.1344 65.0994,157.9747 63.1918,159.1559 61.2689,158.6487 59.8102,158.2639 58.3514,157.8792 56.8927,157.4944 54.9695,156.9871 53.8933,155.0189 54.3787,153.1786 54.8641,151.3382 56.7668,150.1731 58.69,150.6804" stroke="black" stroke-width="1" /><polyline fill="none" points="61.8566,145.8223 60.0054,145.1431 59.0573,143.0966 59.7363,141.246 60.4217,139.3781 62.4624,138.4469 64.3136,139.1261 65.2684,139.4765 66.2232,139.8268 67.178,140.1772 69.0292,140.8564 69.9827,142.8863 69.2973,144.7542 68.6183,146.6047 66.5722,147.5526 64.721,146.8734 61.5234,145.7001 58.3258,144.5268 55.1282,143.3535 53.2773,142.6744 52.3295,140.628 53.0085,138.7775 53.5935,137.1832 55.1721,136.2653 56.7828,136.4542" stroke="black" stroke-width="1" /><polyline fill="none" points="59.9666,131.011 58.1871,130.1613 57.4355,128.0353 58.285,126.2559 59.1422,124.4607 61.3136,123.6927 63.093,124.5423 63.7902,124.8751 64.187,125.2352 64.4323,125.5993 66.9169,129.2812 69.4016,132.9631 71.8862,136.6451 72.0149,136.7065 72.1436,136.768 72.2723,136.8294 73.2919,134.6941 74.3114,132.5587 75.331,130.4233" stroke="black" stroke-width="1" /><polyline fill="none" points="64.8255,118.7776 62.7951,117.5627 66.4493,111.4558 78.5982,124.5408" stroke="black" stroke-width="1" /><polyline fill="none" points="79.6682,104.0424 81.258,105.2089 81.6097,107.424 80.4432,109.0138 79.2666,110.6175 77.0384,110.9596 75.4486,109.7932 74.6284,109.1914 73.8082,108.5896 72.988,107.9877 71.3982,106.8213 71.0555,104.5927 72.2222,103.0026 73.3986,101.3993 75.6178,101.0705 77.2076,102.237 79.9537,104.2519 82.6999,106.2668 85.446,108.2818 87.0356,109.448 87.3875,111.6634 86.2211,113.2532 85.217,114.6216 83.4448,115.0657 81.9496,114.4369" stroke="black" stroke-width="1" /><polyline fill="none" points="89.2003,95.8878 89.1962,95.8841 89.1921,95.8805 89.188,95.8769 90.9304,97.4261 92.6727,98.9753 94.4151,100.5245 95.2204,101.2405 96.0319,100.9503 96.4068,100.5286 95.9281,101.0669 95.0698,101.1067 94.5173,100.6154 94.4833,100.5851 94.4492,100.5548 94.4151,100.5245 94.4158,101.9943 94.0626,103.4236 93.0718,104.538 92.2513,105.4607 90.4568,106.5496 88.5735,104.875 87.5868,103.9977 87.4489,102.8891 87.8228,101.7988 87.9975,101.2664 88.8369,99.8316 89.3992,98.8638 89.9605,97.8718 90.187,96.7652 89.2003,95.8878 88.201,94.9993 86.0971,94.9413 84.7301,96.4787 83.4424,97.9269 83.5544,99.2194 83.8317,100.2234" stroke="black" stroke-width="1" /><polyline fill="none" points="89.9669,87.9164 88.6225,86.4739 88.702,84.2203 90.1445,82.8759 91.5998,81.5195 93.9016,81.6005 95.246,83.043 95.7727,83.6081 96.01,84.0885 96.1049,84.5171 97.0677,88.8534 98.0306,93.1896 98.9935,97.5258 99.0907,97.6302 99.188,97.7345 99.2852,97.8388 101.0162,96.2255 102.7472,94.6122 104.4782,92.9988" stroke="black" stroke-width="1" /><polyline fill="none" points="98.9701,78.3138 97.526,76.4395 103.1636,72.0961 109.6736,88.7223" stroke="black" stroke-width="1" /><polyline fill="none" points="122.666,77.5991 122.6431,78.6878 122.4755,79.8681 120.6768,81.0025 119.0667,82.018 116.8661,81.5817 115.7774,79.8556 114.9818,78.5941 114.1863,77.3327 113.3907,76.0713 112.3297,74.3889 112.8845,72.2157 114.4947,71.2002 116.1339,70.1664 118.3628,70.5839 119.4238,72.2663 119.82,72.8945 120.2163,73.5228 120.6125,74.1511 118.6063,75.4163 116.6001,76.6816 114.5939,77.9469" stroke="black" stroke-width="1" /><polyline fill="none" points="128.102,61.3049 127.5201,65.4179 126.9381,69.5309 126.3561,73.6439 124.8169,70.6054 123.2777,67.567 121.7385,64.5285 120.8474,62.7695 121.55,60.626 123.3084,59.7352 125.0833,58.8361 127.2109,59.5459 128.102,61.3049 129.6412,64.3434 131.1804,67.3818 132.7196,70.4203 133.6107,72.1793 132.9241,74.314 131.1647,75.2052 129.3907,76.1039 127.2472,75.4029 126.3561,73.6439" stroke="black" stroke-width="1" /><polyline fill="none" points="140.2781,56.2081 139.3136,60.2485 138.349,64.2889 137.3844,68.3293 136.1365,65.1601 134.8886,61.9909 133.6407,58.8216 132.9182,56.9869 133.8184,54.9186 135.6525,54.1964 137.5039,53.4674 139.5557,54.3734 140.2781,56.2081 141.526,59.3773 142.774,62.5465 144.0219,65.7158 144.7443,67.5505 143.8608,69.6115 142.0257,70.3341 140.1754,71.0627 138.1069,70.1641 137.3844,68.3293" stroke="black" stroke-width="1" /><polyline fill="none" points="153.8329,55.1747 154.3803,57.069 153.307,59.0384 151.4127,59.5859 149.5019,60.1381 147.528,59.0493 146.9805,57.155 146.6981,56.1777 146.4156,55.2004 146.1332,54.2231 145.5857,52.3287 146.6743,50.3542 148.569,49.8066 150.4794,49.2545 152.4381,50.3484 152.9855,52.2427 153.9312,55.5149 154.8769,58.7871 155.8225,62.0592 156.3699,63.9532 155.2967,65.923 153.4023,66.4704 151.7719,66.9417 150.0969,66.2119 149.2962,64.8011" stroke="black" stroke-width="1" /><polyline fill="none" points="158.4264,49.7478 157.9852,47.4232 164.9771,46.0962 163.271,63.8698" stroke="black" stroke-width="1" /><polyline fill="none" points="167.3098,134.9407 250.763,172.1919 280.8196,188.8365 140.3048,268.1431 136.578,231.1149 268.4255,140.8637 140.8637,108.5745 268.4255,140.8637 268.4255,140.8637 239.8942,231.6324" stroke="black" stroke-width="1" /><polyline fill="none" points="256.7259,236.9231 223.0626,226.3417" stroke="black" stroke-width="1" /><polyline fill="none" points="168.3312,130.1462 168.1864,128.3062 167.7555,126.5115 167.0492,124.8062 166.0848,123.2325 164.8861,121.829 163.4826,120.6303 161.9088,119.6659 160.2036,118.9595 158.4089,118.5287 156.5688,118.3839 154.7288,118.5287 152.9341,118.9595 151.2288,119.6659 149.6551,120.6303 148.2516,121.829 147.0528,123.2325 146.0885,124.8062 145.3821,126.5115 144.9512,128.3062 144.8064,130.1462 144.9512,131.9863 145.3821,133.781 146.0885,135.4863 147.0528,137.06 148.2516,138.4635 149.6551,139.6622 151.2288,140.6266 152.9341,141.3329 154.7288,141.7638 156.5688,141.9086 158.4089,141.7638 160.2036,141.3329 161.9088,140.6266 163.4826,139.6622 164.8861,138.4635 166.0848,137.06 167.0492,135.4863 167.7555,133.781 168.1864,131.9863 168.3312,130.1462" stroke="black" stroke-width="1" /><polyline fill="none" points="188.5,69.0664 199.6839,69.5912 210.7696,71.161 221.6595,73.7619 232.2581,77.3712 242.4721,81.9571 252.2118,87.4792 261.3915,93.8892 269.9308,101.1306 277.7544,109.1398 284.7936,117.8464 290.9866,127.1739 296.2789,137.0404 300.6241,147.3591 303.9839,158.0393 306.3289,168.9873 307.6383,180.1067 307.9008,191.2998 307.114,202.4684 305.2847,213.5142 302.4292,224.3402 298.5725,234.8512 293.7484,244.9549 287.9994,254.5625 281.376,263.5894 273.9365,271.9565 265.7461,279.5902 256.8768,286.4234 247.4067,292.3961 237.4188,297.4556 227.0011,301.5577 216.2451,304.6663 205.2452,306.7539 194.0981,307.8023 182.9019,307.8023 171.7548,306.7539 160.7549,304.6663 149.9989,301.5577 139.5811,297.4556 129.5933,292.3961 120.1232,286.4234 111.2539,279.5902 103.0635,271.9565 95.6239,263.5894 89.0006,254.5625 83.2516,244.9549 78.4275,234.8512 74.5708,224.3402 71.7153,213.5142 69.8861,202.4684 69.0992,191.2998 69.3617,180.1067 70.6712,168.9872 73.0161,158.0393 76.3759,147.3591 80.7211,137.0404 86.0134,127.174 92.2064,117.8464 99.2457,109.1398 107.0692,101.1306 115.6085,93.8892 124.7882,87.4792 134.5279,81.957 144.7419,77.3712 155.3405,73.7619 166.2304,71.161 177.3161,69.5912 188.5,69.0664" stroke="black" stroke-width="1" />

    </g>
  </g>
  <WCB
     pausedposy="0"
     pausedposx="0"
     lastknownposy="0"
     lastknownposx="0"
     lastpathnc="0"
     lastpath="0"
     node="0"
     layer="0" />
</svg>
