<?xml version="1.0" encoding="UTF-8" standalone="no"?>
<!-- Created with Inkscape (http://www.inkscape.org/) -->

<svg
   xmlns:dc="http://purl.org/dc/elements/1.1/"
   xmlns:cc="http://creativecommons.org/ns#"
   xmlns:rdf="http://www.w3.org/1999/02/22-rdf-syntax-ns#"
   xmlns:svg="http://www.w3.org/2000/svg"
   xmlns="http://www.w3.org/2000/svg"
   xmlns:sodipodi="http://sodipodi.sourceforge.net/DTD/sodipodi-0.dtd"
   xmlns:inkscape="http://www.inkscape.org/namespaces/inkscape"
   width="100mm"
   height="100mm"
   viewBox="0 0 100 100"
   version="1.1"
   id="svg19124"
   inkscape:version="0.92.3 (2405546, 2018-03-11)"
   sodipodi:docname="inkscape_template_TMP.svg"
   shape-rendering="crispEdges">
  <sodipodi:namedview
     pagecolor="#ffffff"
     bordercolor="#666666"
     borderopacity="1"
     objecttolerance="10"
     gridtolerance="10"
     guidetolerance="10"
     inkscape:pageopacity="0"
     inkscape:pageshadow="2"
     inkscape:window-width="1568"
     inkscape:window-height="1550"
     id="namedview24021"
     showgrid="false"
     inkscape:zoom="0.62441667"
     inkscape:cx="712.66515"
     inkscape:cy="409.98265"
     inkscape:window-x="0"
     inkscape:window-y="0"
     inkscape:window-maximized="0"
     inkscape:current-layer="layer1" />
  <defs
     id="defs19118" />
  <metadata
     id="metadata19121">
    <rdf:RDF>
      <cc:Work
         rdf:about="">
        <dc:format>image/svg+xml</dc:format>
        <dc:type
           rdf:resource="http://purl.org/dc/dcmitype/StillImage" />
        <dc:title />
      </cc:Work>
    </rdf:RDF>
  </metadata>
  <g
     transform="translate(0,-197)"
     id="layer1"
     inkscape:groupmode="layer"
     inkscape:label="Layer 1">
    <g
       id="g24447"
       transform="matrix(0.26458333,0,0,0.26458333,0.10666333,197.9735)">

<polyline fill="none" points="192.1004,47.7394 189.7225,51.1455 187.3447,54.5516 184.9669,57.9577 184.9669,54.5516 184.9669,51.1455 184.9669,47.7394 184.9669,45.7676 186.5623,44.1729 188.5334,44.1729 190.5231,44.1729 192.1004,45.7676 192.1004,47.7394 192.1004,51.1455 192.1004,54.5516 192.1004,57.9577 192.1004,59.9295 190.5231,61.5235 188.5509,61.5235 186.5623,61.5235 184.9669,59.9295 184.9669,57.9577" stroke="black" stroke-width="1" /><polyline fill="none" points="197.8298,61.5877 200.7471,57.7851 198.696,53.7706 202.935,62.0679 200.7471,57.7851 203.4811,54.2207" stroke="black" stroke-width="1" /><polyline fill="none" points="217.2511,47.2193 216.2749,47.034 215.3542,47.4703 215.1176,48.7167 214.8885,49.9238 214.6595,51.1308 214.4304,52.3379 215.0254,52.4508 215.6204,52.5638 216.2154,52.6767 215.0699,52.4593 213.9245,52.2419 212.7791,52.0245 213.3295,52.129 213.8799,52.2334 214.4304,52.3379 213.726,56.0491 213.0217,59.7602 212.3174,63.4713" stroke="black" stroke-width="1" /><polyline fill="none" points="224.397,52.1393 224.8921,50.4261 226.7629,49.3247 228.6247,49.8627 230.4854,50.4005 231.5213,52.2535 230.9597,54.1969 230.8709,54.5042 230.7821,54.8115 230.6933,55.1189 229.8364,58.0837 227.1077,57.8301 226.7776,57.7347 226.4593,57.6427 226.141,57.5507 225.8227,57.4587 226.141,57.5507 226.4593,57.6427 226.7776,57.7347 227.75,58.0157 229.4922,59.7687 228.8259,62.0741 228.6307,62.7496 228.4355,63.4251 228.2403,64.1005 227.6883,66.0107 225.7014,67.0786 223.7906,66.5264 221.8634,65.9694 220.7697,64.0112 221.3217,62.1011" stroke="black" stroke-width="1" /><polyline fill="none" points="238.0466,56.5642 241.758,54.3952 235.4769,70.347" stroke="black" stroke-width="1" /><polyline fill="none" points="256.3059,61.0983 254.4753,60.171 252.6447,59.2436 250.8141,58.3163 249.5924,60.7278 248.3708,63.1394 247.1492,65.5509 248.2804,64.7595 249.4401,64.5583 250.7706,65.2323 252.6061,66.1621 253.2612,68.3969 252.4015,70.0941 251.7868,71.3075 251.1721,72.5208 250.5575,73.7342 249.6588,75.5082 247.5779,76.088 245.9103,75.2432 244.2586,74.4065 243.5103,72.3935 244.409,70.6195" stroke="black" stroke-width="1" /><polyline fill="none" points="265.1005,74.0019 264.0486,75.6697 261.8637,76.1763 260.1958,75.1244 258.5135,74.0633 258.0155,71.8648 259.0674,70.1969 259.6101,69.3365 260.1528,68.476 260.6954,67.6155 261.7473,65.9477 263.9463,65.4491 265.6144,66.5012 267.2965,67.5621 267.7805,69.7526 266.7285,71.4205 264.9116,74.3015 263.0946,77.1824 261.2776,80.0634 260.226,81.7309 258.0408,82.2378 256.373,81.1859 254.9374,80.2805 254.3698,78.5439 254.8921,77.0081" stroke="black" stroke-width="1" /><polyline fill="none" points="271.6621,80.5928 272.8831,81.6616 275.1921,81.5482 276.3903,79.993 276.6691,79.631 276.948,79.2691 277.2269,78.9071 278.3573,77.4399 278.0818,75.3232 276.601,74.1823 275.134,73.0521 272.9965,73.3535 271.8872,74.7933 271.6084,75.1552 271.3295,75.5172 271.0506,75.8791 269.92,77.3467 270.1951,79.4626 271.6621,80.5928 273.2784,81.8381 273.528,84.1296 272.325,85.691 271.9133,86.2253 271.5017,86.7595 271.0901,87.2938 269.8869,88.8555 267.6281,89.1721 266.0117,87.9268 264.409,86.692 264.1398,84.4278 265.343,82.8661 265.7615,82.3229 266.1799,81.7798 266.5984,81.2367 267.6298,79.8979 269.8526,79.3267" stroke="black" stroke-width="1" /><polyline fill="none" points="282.94,83.8913 287.188,83.2328 275.4993,95.7741" stroke="black" stroke-width="1" /><polyline fill="none" points="287.155,105.4318 286.0773,105.5872 284.8854,105.6146 283.4724,104.0255 282.2075,102.6029 282.2783,100.3605 283.8034,99.0045 284.9179,98.0135 286.0325,97.0226 287.147,96.0316 288.6334,94.71 290.868,94.9023 292.133,96.3249 293.4207,97.7732 293.3729,100.0404 291.8865,101.362 291.3314,101.8555 290.7763,102.3491 290.2213,102.8426 288.6452,101.0701 287.0692,99.2976 285.4931,97.525" stroke="black" stroke-width="1" /><polyline fill="none" points="300.7892,103.3351 305.0854,103.4803 291.2632,113.6222" stroke="black" stroke-width="1" /><polyline fill="none" points="313.8147,116.9106 312.761,115.1497 311.7073,113.3887 310.6536,111.6278 308.3339,113.0159 306.0142,114.404 303.6945,115.7921 305.0734,115.7261 306.1617,116.1745 306.9276,117.4544 307.9841,119.22 307.346,121.4598 305.7134,122.4367 304.5463,123.1351 303.3791,123.8335 302.2119,124.5319 300.5055,125.553 298.4361,124.9333 297.4762,123.3292 296.5255,121.7404 296.9664,119.6386 298.6729,118.6175" stroke="black" stroke-width="1" /><polyline fill="none" points="307.8805,135.3373 306.0859,136.1941 303.9988,135.4045 303.1787,133.6869 302.3586,131.9694 303.0496,129.8347 304.8442,128.9779 306.2056,128.3279 307.567,127.6779 308.9284,127.0279 310.7233,126.1709 312.8171,126.976 313.6371,128.6935 314.4572,130.4111 313.7596,132.5302 311.9647,133.3872" stroke="black" stroke-width="1" /><polyline fill="none" points="324.9656,141.5323 324.2587,139.6058 323.5518,137.6793 322.845,135.7528 320.3071,136.684 317.7692,137.6152 315.2314,138.5464 316.5984,138.7387 317.584,139.3822 318.0978,140.7823 318.8066,142.714 317.7621,144.7955 315.976,145.4509 314.699,145.9194 313.4221,146.388 312.1452,146.8565 310.2783,147.5415 308.3607,146.5468 307.7168,144.7919 307.079,143.0537 307.9041,141.071 309.771,140.3859" stroke="black" stroke-width="1" /><polyline fill="none" points="322.6014,156.9679 320.6948,157.4708 318.751,156.3516 318.2481,154.4449 317.7408,152.5217 318.8756,150.5739 320.7822,150.071 321.7659,149.8116 322.7495,149.5521 323.7332,149.2926 325.6398,148.7897 327.5883,149.9243 328.0913,151.8313 328.5985,153.7542 327.459,155.6866 325.5524,156.1895 322.2589,157.0582 318.9655,157.9269 315.6721,158.7956 313.7657,159.2984 311.8217,158.1793 311.3188,156.2727 310.886,154.6316 311.6548,152.9742 313.0839,152.2068" stroke="black" stroke-width="1" /><polyline fill="none" points="322.9498,169.5073 322.9551,169.5064 322.9606,169.5055 322.9659,169.5046 320.6658,169.8855 318.3656,170.2664 316.0654,170.6473 315.0023,170.8234 314.7178,171.6369 314.8101,172.1936 314.6924,171.4829 315.2011,170.7905 315.9305,170.6697 315.9754,170.6622 316.0204,170.6548 316.0654,170.6473 314.922,169.7238 314.0326,168.5505 313.789,167.0794 313.5873,165.8613 313.8687,163.7812 316.3549,163.3695 317.6576,163.1538 318.6064,163.7435 319.2191,164.7198 319.5233,165.1903 320.1113,166.7452 320.5104,167.7909 320.9289,168.8511 321.6471,169.723 322.9498,169.5073 324.269,169.2888 325.6368,167.6892 325.3007,165.6596 324.9841,163.7477 323.9085,163.0222 322.9535,162.6066" stroke="black" stroke-width="1" /><polyline fill="none" points="329.1656,182.1993 325.6008,180.0668 322.0361,177.9342 318.4713,175.8016 321.869,175.5622 325.2666,175.3229 328.6643,175.0835 330.6312,174.9449 332.3341,176.4243 332.4727,178.3906 332.6125,180.3754 331.1326,182.0608 329.1656,182.1993 325.7679,182.4387 322.3703,182.6781 318.9726,182.9174 317.0056,183.056 315.3047,181.5947 315.1662,179.6274 315.0264,177.6437 316.5043,175.9402 318.4713,175.8016" stroke="black" stroke-width="1" /><polyline fill="none" points="324.1332,194.9099 324.1387,194.91 324.1442,194.9101 324.1497,194.9102 321.8188,194.8556 319.4879,194.8009 317.157,194.7463 316.0798,194.721 315.6486,195.4672 315.6354,196.0314 315.6523,195.3112 316.2812,194.7257 317.0203,194.7431 317.0659,194.7441 317.1115,194.7452 317.157,194.7463 316.2059,193.6258 315.5508,192.3072 315.5858,190.8164 315.6147,189.5821 316.2791,187.591 318.7985,187.6501 320.1186,187.681 320.9407,188.4373 321.3607,189.5107 321.5718,190.0297 321.8596,191.667 322.0567,192.7687 322.2701,193.8884 322.8132,194.8789 324.1332,194.9099 325.47,194.9412 327.1121,193.6246 327.1603,191.568 327.2058,189.6306 326.2844,188.7173 325.4236,188.1309" stroke="black" stroke-width="1" /><polyline fill="none" points="331.452,207.2514 331.5682,206.2646 331.0682,205.3768 329.8083,205.2284 328.5881,205.0847 327.3679,204.941 326.1477,204.7973 326.0769,205.3988 326.0061,206.0002 325.9352,206.6017 326.0716,205.4438 326.2079,204.2859 326.3443,203.1281 326.2788,203.6845 326.2133,204.2409 326.1477,204.7973 322.3963,204.3555 318.6448,203.9137 314.8933,203.472" stroke="black" stroke-width="1" /><polyline fill="none" points="319.8762,213.0001 321.8043,213.4131 323.03,215.3065 322.6171,217.2339 322.2004,219.1795 320.3104,220.3876 318.3823,219.9747 317.3878,219.7616 316.3932,219.5486 315.3987,219.3356 313.4706,218.9226 312.242,217.0465 312.6587,215.1009 313.0715,213.1735 314.9645,211.9481 316.8926,212.3611 320.2231,213.0744 323.5537,213.7878 326.8842,214.5012 328.812,214.9141 330.0374,216.8074 329.6245,218.7348 329.2688,220.3954 327.8346,221.5255 326.2133,221.5643" stroke="black" stroke-width="1" /><polyline fill="none" points="323.5915,228.6522 326.016,232.202 309.6623,227.0574" stroke="black" stroke-width="1" /><polyline fill="none" points="319.5868,239.9012 321.4041,240.6665 322.2546,242.7549 321.4894,244.5722 320.7173,246.4057 318.5843,247.2746 316.767,246.5093 316.055,246.2095 315.6417,245.8684 315.3796,245.5163 312.7252,241.9548 310.0706,238.3934 307.4162,234.832 307.2847,234.7766 307.1533,234.7213 307.0219,234.6659 306.1035,236.8467 305.1852,239.0275 304.2668,241.2083" stroke="black" stroke-width="1" /><polyline fill="none" points="314.6417,258.3222 315.1114,257.4466 314.9714,256.4374 313.8535,255.8377 312.7708,255.257 311.6881,254.6762 310.6054,254.0955 310.3192,254.6292 310.0329,255.1628 309.7466,255.6965 310.2977,254.6691 310.8488,253.6417 311.3999,252.6143 311.1351,253.108 310.8702,253.6017 310.6054,254.0955 307.2767,252.3099 303.9479,250.5244 300.6192,248.7389" stroke="black" stroke-width="1" /><polyline fill="none" points="299.8036,266.2751 299.8081,266.2781 299.8127,266.2812 299.8173,266.2842 297.8749,264.9946 295.9325,263.705 293.9902,262.4153 293.0925,261.8193 292.3297,262.2204 292.0175,262.6906 292.416,262.0904 293.2603,261.9307 293.8762,262.3397 293.9142,262.3649 293.9522,262.3901 293.9902,262.4153 293.7834,260.9601 293.9327,259.4954 294.7575,258.2532 295.4405,257.2245 297.0646,255.8948 299.1641,257.2888 300.2641,258.0191 300.5561,259.0974 300.3387,260.2293 300.2404,260.781 299.6104,262.3193 299.1894,263.3564 298.7726,264.4173 298.7036,265.5448 299.8036,266.2751 300.9176,267.0148 303.0088,266.7772 304.1467,265.0633 305.2187,263.4488 304.9265,262.1848 304.5113,261.2296" stroke="black" stroke-width="1" /><polyline fill="none" points="287.9117,273.3251 286.3652,272.0748 286.1785,269.8511 287.3752,268.3711 288.5718,266.891 290.7958,266.5948 292.3423,267.8451 293.5154,268.7936 294.6886,269.7421 295.8618,270.6906 297.4084,271.941 297.584,274.1774 296.3875,275.6574 295.1908,277.1375 292.9779,277.4211 291.4312,276.1706" stroke="black" stroke-width="1" /><polyline fill="none" points="290.8661,285.3664 291.4247,289.6287 279.1609,277.6491" stroke="black" stroke-width="1" /><polyline fill="none" points="270.3518,290.3738 269.0656,288.8571 269.2968,286.6376 270.7484,285.4066 272.2,284.1756 274.4402,284.2993 275.7264,285.816 276.7022,286.9666 277.6779,288.1172 278.6536,289.2678 279.9401,290.7848 279.6956,293.0146 278.244,294.2456 276.7924,295.4766 274.5654,295.3426 273.279,293.8256" stroke="black" stroke-width="1" /><polyline fill="none" points="267.9014,295.9959 269.0303,297.6126 268.636,299.8334 267.0199,300.9619 265.3885,302.101 263.1822,301.6962 262.0533,300.0794 261.471,299.2455 260.8887,298.4117 260.3065,297.5778 259.1776,295.9611 259.5579,293.7509 261.1893,292.6118 262.8054,291.4833 265.0257,291.8775 266.1546,293.4942 268.1046,296.2869 270.0546,299.0795 272.0046,301.8721 273.1333,303.4886 272.7388,305.709 271.1227,306.8375 269.7302,307.8098 267.9106,307.6586 266.6981,306.5816" stroke="black" stroke-width="1" /><polyline fill="none" points="260.9615,309.4635 261.841,311.0148 261.3217,313.1227 259.6359,314.0786 257.951,315.0338 255.9015,314.4801 254.9038,312.7203 254.746,312.442 254.5882,312.1638 254.4305,311.8855 252.9083,309.2008 254.9965,307.426 255.2954,307.2566 255.5836,307.0931 255.8718,306.9297 256.16,306.7663 255.8718,306.9297 255.5836,307.0931 255.2954,307.2566 254.4149,307.7558 251.9435,307.7771 250.7599,305.6896 250.4131,305.0779 250.0663,304.4663 249.7195,303.8546 248.7388,302.125 249.3632,299.9575 251.0935,298.9765 252.8386,297.9871 255.0036,298.573 255.9843,300.3026" stroke="black" stroke-width="1" /><polyline fill="none" points="238.1349,307.5357 238.3101,306.4611 238.6416,305.3159 240.5815,304.4449 242.3182,303.6651 244.4359,304.4056 245.2718,306.2674 245.8826,307.6279 246.4935,308.9884 247.1043,310.3489 247.919,312.1635 247.0649,314.2374 245.3283,315.0171 243.5604,315.8109 241.412,315.085 240.5973,313.2704 240.2931,312.5928 239.9889,311.9153 239.6846,311.2376 241.8484,310.2661 244.0122,309.2946 246.176,308.3232" stroke="black" stroke-width="1" /><polyline fill="none" points="226.9811,309.7147 228.3683,313.7884 234.1473,311.8204 232.9296,325.7996" stroke="black" stroke-width="1" /><polyline fill="none" points="223.2827,319.1569 223.7448,321.0915 222.5194,322.9701 220.6679,323.4123 218.817,323.8544 216.8909,322.7285 216.4288,320.7939 216.0784,319.3265 215.7279,317.8592 215.3775,316.3918 214.9155,314.4576 216.1247,312.5821 217.9756,312.14 219.8272,311.6978 221.7531,312.8245 222.215,314.7587 222.2205,314.7574 222.2259,314.7561 222.2314,314.7549 223.2987,319.2238 224.3661,323.6928 225.4335,328.1618" stroke="black" stroke-width="1" /><polyline fill="none" points="210.895,321.8399 211.1739,323.8093 209.778,325.5649 207.8931,325.8318 206.009,326.0986 204.1968,324.7972 203.9179,322.8279 203.7064,321.3342 203.4949,319.8404 203.2834,318.3467 203.0046,316.3777 204.3841,314.6237 206.2682,314.3569 208.1531,314.09 209.965,315.3921 210.2438,317.3611 210.2494,317.3603 210.2549,317.3595 210.2605,317.3587 210.9047,321.908 211.5489,326.4573 212.1931,331.0066" stroke="black" stroke-width="1" /><polyline fill="none" points="198.5953,328.9419 198.6877,330.9116 197.1695,332.5789 195.1998,332.6714 193.2126,332.7646 191.5094,331.2141 191.417,329.2444 191.3808,328.4727 191.5105,327.9528 191.7154,327.5646 193.7856,323.6346 195.8557,319.7047 197.9259,315.7748 197.9192,315.6323 197.9126,315.4898 197.9059,315.3474 195.5422,315.4583 193.1785,315.5692 190.8148,315.6801" stroke="black" stroke-width="1" /><polyline fill="none" points="179.8411,332.4163 180.8336,332.4629 181.6841,331.9017 181.7436,330.6345 181.8012,329.4073 181.8588,328.18 181.9164,326.9527 181.3114,326.9243 180.7065,326.8959 180.1015,326.8676 181.2661,326.9222 182.4307,326.9769 183.5953,327.0315 183.0356,327.0052 182.476,326.979 181.9164,326.9527 182.0934,323.1795 182.2705,319.4062 182.4475,315.633" stroke="black" stroke-width="1" /><polyline fill="none" points="172.2395,329.5397 171.9077,331.8824 164.8613,330.8846 172.2059,314.6098" stroke="black" stroke-width="1" /><polyline fill="none" points="152.8988,321.579 153.3569,319.6611 155.2619,318.4773 157.1799,318.9353 159.1144,319.3974 160.2945,321.3181 159.8365,323.236 159.6001,324.2254 159.3638,325.2149 159.1275,326.2044 158.6694,328.1223 156.7486,329.3031 154.8303,328.8449 152.8961,328.3829 151.7318,326.4653 152.1899,324.5474 152.9811,321.2345 153.7724,317.9216 154.5636,314.6087 155.0216,312.6912 156.9267,311.507 158.8446,311.9651 160.4954,312.3593 161.5925,313.8203 161.5932,315.4424" stroke="black" stroke-width="1" /><polyline fill="none" points="145.0047,308.0072 143.6174,312.0808 149.3964,314.0488 139.9001,324.3795" stroke="black" stroke-width="1" /><polyline fill="none" points="132.6804,312.7741 131.2444,312.0182 129.025,312.6649 128.2209,314.4559 128.0337,314.8728 127.8466,315.2896 127.6594,315.7065 126.9008,317.3962 127.6604,319.3909 129.3658,320.1566 131.0552,320.9151 133.0642,320.1255 133.8087,318.4673 133.9958,318.0505 134.183,317.6337 134.3701,317.2169 135.1289,315.5268 134.3698,313.5327 132.6804,312.7741 130.819,311.9384 130.044,309.7676 130.8513,307.9694 131.1276,307.3541 131.4038,306.7389 131.6801,306.1236 132.4876,304.3251 134.611,303.4924 136.4724,304.3282 138.3182,305.1569 139.106,307.2966 138.2985,309.0952 138.0177,309.7206 137.7368,310.3461 137.456,310.9716 136.7638,312.5134 134.7345,313.5852" stroke="black" stroke-width="1" /><polyline fill="none" points="121.8899,298.9365 122.86,298.442 123.9794,298.0318 125.8292,299.0806 127.4852,300.0195 128.141,302.165 127.1344,303.9402 126.3989,305.2376 125.6633,306.5349 124.9277,307.8323 123.9467,309.5625 121.7693,310.1008 120.1134,309.1619 118.4276,308.2061 117.7419,306.0446 118.7229,304.3143 119.0893,303.6682 119.4556,303.022 119.822,302.3759 121.8853,303.5457 123.9486,304.7156 126.0119,305.8854" stroke="black" stroke-width="1" /><polyline fill="none" points="113.5347,291.2327 111.071,294.761 116.0764,298.2561 104.0852,305.5441" stroke="black" stroke-width="1" /><polyline fill="none" points="98.2411,289.9435 98.2376,289.9477 98.234,289.9519 98.2305,289.9561 99.7384,288.1779 101.2464,286.3997 102.7543,284.6214 103.4512,283.7996 103.1421,282.9951 102.7117,282.6302 103.2611,283.0961 103.321,283.9532 102.8428,284.5171 102.8133,284.5519 102.7838,284.5867 102.7543,284.6214 104.2237,284.5862 105.6609,284.9059 106.7982,285.8703 107.7398,286.6689 108.8705,288.4374 107.2406,290.3594 106.3866,291.3665 105.2816,291.5303 104.1828,291.1821 103.6465,291.0199 102.1923,290.2143 101.2117,289.6749 100.2068,289.137 99.0951,288.9365 98.2411,289.9435 97.3762,290.9634 97.3677,293.0681 98.9367,294.3986 100.4147,295.652 101.7042,295.5097 102.7014,295.209" stroke="black" stroke-width="1" /><polyline fill="none" points="92.6303,277.3087 94.0529,275.9191 96.2831,275.9937 97.6131,277.3552 98.9431,278.7167 98.9771,280.9602 97.5546,282.3498 96.4754,283.404 95.3962,284.4581 94.317,285.5123 92.8942,286.9022 90.6527,286.815 89.3227,285.4535 87.9928,284.092 87.9699,281.8611 89.3927,280.4713" stroke="black" stroke-width="1" /><polyline fill="none" points="80.3261,278.8345 76.0277,278.8908 89.3594,268.1123" stroke="black" stroke-width="1" /><polyline fill="none" points="67.3448,266.6557 67.8944,267.4834 68.85,267.8372 69.9069,267.1355 70.9304,266.4559 71.954,265.7763 72.9775,265.0967 72.6425,264.5922 72.3075,264.0876 71.9725,263.5831 72.6174,264.5544 73.2623,265.5257 73.9072,266.4969 73.5973,266.0302 73.2874,265.5635 72.9775,265.0967 76.1244,263.0073 79.2714,260.9179 82.4183,258.8285" stroke="black" stroke-width="1" /><polyline fill="none" points="65.3923,250.322 67.13,249.3899 69.2805,250.0269 70.2126,251.7646 71.1527,253.5174 70.5015,255.6755 68.7639,256.6076 67.8674,257.0884 66.9709,257.5693 66.0745,258.0502 64.3368,258.9822 62.178,258.3314 61.2458,256.5934 60.3058,254.8409 60.9652,252.6967 62.7029,251.7646 65.7044,250.1546 68.7059,248.5445 71.7075,246.9345 73.4448,246.0026 75.5957,246.6395 76.5277,248.3772 77.33,249.8728 76.9672,251.6634 75.7555,252.7418" stroke="black" stroke-width="1" /><polyline fill="none" points="54.8967,242.6944 55.2823,243.6101 56.1551,244.1358 57.3243,243.6435 58.4566,243.1667 59.5889,242.6898 60.7212,242.213 60.4862,241.6549 60.2512,241.0967 60.0161,240.5386 60.4686,241.6131 60.9211,242.6876 61.3735,243.7621 61.1561,243.2457 60.9387,242.7294 60.7212,242.213 64.2026,240.747 67.6839,239.2811 71.1652,237.8151" stroke="black" stroke-width="1" /><polyline fill="none" points="54.7512,232.9204 50.7311,231.3979 67.0848,226.2534" stroke="black" stroke-width="1" /><polyline fill="none" points="53.068,213.7118 54.9961,213.2988 56.8852,214.5079 57.2982,216.436 57.7148,218.3809 56.49,220.2734 54.5619,220.6864 53.5672,220.8994 52.5724,221.1125 51.5777,221.3256 49.6496,221.7385 47.7564,220.5139 47.3433,218.5854 46.9268,216.6409 48.1557,214.764 50.0838,214.351 53.4143,213.6376 56.7449,212.9243 60.0754,212.2109 62.0032,211.798 63.8926,213.007 64.3056,214.9351 64.6611,216.5947 63.8154,218.2142 62.3519,218.9137" stroke="black" stroke-width="1" /><polyline fill="none" points="48.8958,208.3371 47.1248,208.5456 45.3836,207.2489 45.157,205.3243 44.9304,203.4007 46.2362,201.7268 48.2452,201.4902 48.5629,201.4528 48.8806,201.4154 49.1983,201.378 52.2633,201.017 53.0886,203.6303 53.1288,203.9716 53.1675,204.3006 53.2063,204.6297 53.245,204.9587 53.2063,204.6297 53.1675,204.3006 53.1288,203.9716 53.0104,202.9663 53.9499,200.6803 56.3331,200.3997 57.0314,200.3174 57.7297,200.2352 58.428,200.153 60.4026,199.9204 62.1579,201.3371 62.3905,203.3124 62.6252,205.3048 61.2449,207.0727 59.2703,207.3052" stroke="black" stroke-width="1" /><polyline fill="none" points="47.6937,188.2004 51.1546,190.4977 54.6155,192.7951 58.0764,195.0924 54.6712,195.1722 51.2661,195.2521 47.8609,195.3319 45.8896,195.3781 44.258,193.8206 44.2118,191.85 44.1651,189.8608 45.7224,188.2466 47.6937,188.2004 51.0989,188.1206 54.504,188.0407 57.9091,187.9609 59.8804,187.9147 61.511,189.4541 61.5572,191.4257 61.6038,193.4138 60.0477,195.0462 58.0764,195.0924" stroke="black" stroke-width="1" /><polyline fill="none" points="47.7766,180.8288 44.5938,177.9393 61.6953,179.1441" stroke="black" stroke-width="1" /><polyline fill="none" points="48.8768,168.7975 47.1175,168.5061 45.8048,166.7769 46.1214,164.8651 46.4378,162.9542 48.157,161.7087 50.1527,162.0392 50.4683,162.0914 50.7839,162.1437 51.0995,162.196 54.1442,162.7002 54.2115,165.4398 54.1553,165.7788 54.1012,166.1057 54.0471,166.4325 53.993,166.7594 54.0471,166.4325 54.1012,166.1057 54.1553,165.7788 54.3207,164.7802 55.8579,162.8449 58.2254,163.237 58.9191,163.3519 59.6128,163.4668 60.3064,163.5816 62.268,163.9065 63.561,165.7547 63.236,167.717 62.9082,169.6962 61.0914,171.0114 59.1299,170.6865" stroke="black" stroke-width="1" /><polyline fill="none" points="64.7273,152.2587 65.4528,153.0706 66.1349,154.0484 65.5926,156.1045 65.1071,157.9452 63.1998,159.1265 61.2265,158.606 59.7845,158.2256 58.3424,157.8453 56.9004,157.4649 54.9772,156.9576 53.9014,154.9895 54.3869,153.1488 54.8811,151.275 56.7963,150.0608 58.7196,150.568 59.4378,150.7575 60.156,150.9469 60.8742,151.1364 60.2692,153.4298 59.6643,155.7232 59.0594,158.0166" stroke="black" stroke-width="1" /><polyline fill="none" points="55.148,143.2997 53.2968,142.6204 52.3493,140.5741 53.0286,138.7229 53.7139,136.8553 55.8038,135.8874 57.655,136.5666 58.3802,136.8327 58.809,137.1541 59.0873,137.4936 61.9058,140.9267 64.7243,144.3597 67.5428,147.7928 67.6767,147.842 67.8106,147.8911 67.9445,147.9402 68.7596,145.7188 69.5747,143.4973 70.3898,141.2759" stroke="black" stroke-width="1" /><polyline fill="none" points="67.3914,127.0984 67.3864,127.096 67.3815,127.0937 67.3765,127.0913 69.4805,128.0959 71.5845,129.1004 73.6885,130.105 74.6609,130.5693 75.3599,130.0652 75.6031,129.5559 75.2927,130.206 74.4791,130.4825 73.812,130.1639 73.7708,130.1443 73.7297,130.1246 73.6885,130.105 74.0973,131.5168 74.1547,132.988 73.5123,134.3336 72.9803,135.4478 71.5587,136.9921 69.2845,135.9063 68.0929,135.3374 67.6527,134.3107 67.7092,133.1595 67.7292,132.5995 68.1373,130.988 68.4087,129.9022 68.6726,128.7934 68.5829,127.6673 67.3914,127.0984 66.1847,126.5222 64.1474,127.0507 63.261,128.9072 62.426,130.656 62.8925,131.8666 63.4376,132.7541" stroke="black" stroke-width="1" /><polyline fill="none" points="72.0352,122.9569 70.3432,121.9444 69.7933,119.7569 70.8054,118.0655 71.8271,116.3581 74.0057,115.8237 75.6977,116.8362 76.5705,117.3585 77.4432,117.8807 78.316,118.4029 80.008,119.4154 80.5663,121.5875 79.5446,123.2949 78.5325,124.9863 76.3455,125.5361 74.6535,124.5236 71.7307,122.7746 68.8079,121.0257 65.8852,119.2768 64.1934,118.2645 63.6438,116.0772 64.656,114.3858 65.528,112.9285 67.25,112.3211 68.7972,112.807" stroke="black" stroke-width="1" /><polyline fill="none" points="85.2216,108.4278 86.825,109.6042 87.1157,111.8167 85.9898,113.3512 84.8639,114.8858 82.6562,115.2859 81.0528,114.1095 79.8365,113.217 78.6201,112.3245 77.4038,111.4321 75.8002,110.2554 75.5199,108.0298 76.6459,106.4953 77.7718,104.9608 79.969,104.5738 81.5726,105.7504" stroke="black" stroke-width="1" /><polyline fill="none" points="88.0551,94.2223 89.5287,95.5325 89.6715,97.7709 88.3612,99.2445 87.0396,100.7309 84.7892,100.8629 83.3156,99.5527 82.5554,98.8767 81.7951,98.2007 81.0349,97.5248 79.5613,96.2145 79.4287,93.9637 80.7392,92.4898 82.0606,91.0037 84.3008,90.8841 85.7744,92.1944 88.3198,94.4576 90.8652,96.7209 93.4106,98.9841 94.8839,100.2941 95.0269,102.5327 93.7167,104.0063 92.589,105.2746 90.7829,105.5509 89.3532,104.7847" stroke="black" stroke-width="1" /><polyline fill="none" points="103.1419,91.8195 103.3225,92.8933 103.3779,94.0842 101.8223,95.534 100.4297,96.832 98.1864,96.8137 96.7949,95.3208 95.7781,94.2298 94.7613,93.1388 93.7445,92.0478 92.3884,90.5928 92.5283,88.3543 93.9208,87.0563 95.3385,85.735 97.6062,85.7297 98.9623,87.1847 99.4687,87.728 99.9751,88.2714 100.4816,88.8148 98.7465,90.4319 97.0114,92.0491 95.2763,93.6662" stroke="black" stroke-width="1" /><polyline fill="none" points="107.3957,77.1467 108.5991,78.7088 108.322,80.9345 106.76,82.1379 105.1844,83.3518 102.9488,83.0619 101.7454,81.4999 101.1245,80.694 100.5037,79.8882 99.8828,79.0823 98.6794,77.5203 98.9688,75.2842 100.5311,74.0805 102.1064,72.8669 104.3297,73.1671 105.5331,74.7291 107.6119,77.4273 109.6906,80.1255 111.7694,82.8236 112.9726,84.3854 112.6957,86.6114 111.1337,87.8148 109.7892,88.8506 107.9633,88.7853 106.7015,87.766" stroke="black" stroke-width="1" /><polyline fill="none" points="115.8435,73.2571 117.2675,72.479 117.9564,70.2723 116.9091,68.6117 116.6653,68.2252 116.4216,67.8387 116.1778,67.4522 115.1898,65.8856 113.1077,65.4151 111.5266,66.4123 109.9602,67.4001 109.5068,69.5106 110.4764,71.048 110.7202,71.4345 110.9639,71.8209 111.2076,72.2074 112.1959,73.7744 114.2771,74.245 115.8435,73.2571 117.5693,72.1686 119.8065,72.7237 120.858,74.391 121.2178,74.9614 121.5775,75.5319 121.9373,76.1024 122.989,77.7699 122.5081,79.9995 120.7823,81.088 119.0709,82.1673 116.8526,81.64 115.8009,79.9725 115.4351,79.3926 115.0694,78.8126 114.7037,78.2327 113.8021,76.8032 114.0316,74.5198" stroke="black" stroke-width="1" /><polyline fill="none" points="130.0363,65.9461 130.0338,65.9412 130.0314,65.9363 130.0289,65.9314 131.0825,68.0113 132.1361,70.0912 133.1897,72.1711 133.6767,73.1323 134.5381,73.1595 135.0414,72.9045 134.3988,73.2301 133.5856,72.9526 133.2515,72.2931 133.2309,72.2524 133.2103,72.2117 133.1897,72.1711 132.6519,73.5389 131.7995,74.7394 130.4693,75.4132 129.3679,75.9712 127.2992,76.3269 126.1604,74.0788 125.5637,72.9009 125.8415,71.8189 126.5889,70.9414 126.9465,70.5101 128.2533,69.4825 129.131,68.7881 130.0168,68.0707 130.633,67.124 130.0363,65.9461 129.432,64.7532 127.4957,63.9285 125.6605,64.8582 123.9317,65.7339 123.5624,66.9776 123.4525,68.0133" stroke="black" stroke-width="1" /><polyline fill="none" points="143.8583,65.6786 144.5869,67.5289 143.6525,69.5554 141.8816,70.2528 140.1107,70.9501 138.0299,70.1108 137.3013,68.2605 136.7485,66.8567 136.1958,65.453 135.6431,64.0493 134.9144,62.1986 135.8646,60.1666 137.6355,59.4693 139.4064,58.772 141.4714,59.6167 142.2001,61.4674" stroke="black" stroke-width="1" /><polyline fill="none" points="146.0555,54.2454 145.5081,52.351 146.5974,50.3766 148.4917,49.8292 150.4029,49.2768 152.4196,50.3893 152.9671,52.2836 153.1816,53.0258 153.1762,53.5615 153.0671,53.9868 151.9665,58.2901 150.8659,62.5935 149.7654,66.8968 149.8049,67.0338 149.8445,67.1708 149.8841,67.3079 152.1574,66.6509 154.4306,65.9939 156.7039,65.3369" stroke="black" stroke-width="1" /><polyline fill="none" points="164.866,45.9865 165.7227,50.5006 166.5794,55.0147 167.4362,59.5288 167.807,61.4829 166.495,63.3024 164.6248,63.6573 162.7717,64.009 160.8839,62.7968 160.5131,60.8427 160.2318,59.3605 159.9505,57.8784 159.6692,56.3962 159.2983,54.4421 160.6108,52.6233 162.4639,52.2716 164.3341,51.9166 166.2214,53.1282 166.5923,55.0823" stroke="black" stroke-width="1" /><polyline fill="none" points="239.5878,219.874 236.6952,108.8569 188.1635,280.8196 236.6952,108.8569 96.1804,188.1635 140.8637,108.5745 140.8637,108.5745 158.7145,203.9175 158.7145,203.9175 96.1804,188.1635" stroke="black" stroke-width="1" /><polyline fill="none" points="91.8702,205.2725 100.4906,171.0545" stroke="black" stroke-width="1" /><polyline fill="none" points="251.6566,231.6324 251.5118,229.7924 251.0809,227.9976 250.3746,226.2924 249.4102,224.7187 248.2115,223.3152 246.808,222.1164 245.2343,221.152 243.529,220.4457 241.7343,220.0148 239.8942,219.87 238.0542,220.0148 236.2594,220.4457 234.5542,221.152 232.9805,222.1164 231.577,223.3152 230.3783,224.7187 229.4139,226.2924 228.7075,227.9977 228.2766,229.7924 228.1318,231.6324 228.2766,233.4725 228.7075,235.2672 229.4139,236.9724 230.3783,238.5462 231.577,239.9497 232.9805,241.1484 234.5542,242.1128 236.2594,242.8191 238.0542,243.25 239.8942,243.3948 241.7343,243.25 243.529,242.8191 245.2343,242.1128 246.808,241.1484 248.2115,239.9497 249.4102,238.5462 250.3746,236.9724 251.0809,235.2672 251.5118,233.4725 251.6566,231.6324" stroke="black" stroke-width="1" /><polyline fill="none" points="188.5,69.0664 199.6839,69.5912 210.7696,71.161 221.6595,73.7619 232.2581,77.3712 242.4721,81.9571 252.2118,87.4792 261.3915,93.8892 269.9308,101.1306 277.7544,109.1398 284.7936,117.8464 290.9866,127.1739 296.2789,137.0404 300.6241,147.3591 303.9839,158.0393 306.3289,168.9873 307.6383,180.1067 307.9008,191.2998 307.114,202.4684 305.2847,213.5142 302.4292,224.3402 298.5725,234.8512 293.7484,244.9549 287.9994,254.5625 281.376,263.5894 273.9365,271.9565 265.7461,279.5902 256.8768,286.4234 247.4067,292.3961 237.4188,297.4556 227.0011,301.5577 216.2451,304.6663 205.2452,306.7539 194.0981,307.8023 182.9019,307.8023 171.7548,306.7539 160.7549,304.6663 149.9989,301.5577 139.5811,297.4556 129.5933,292.3961 120.1232,286.4234 111.2539,279.5902 103.0635,271.9565 95.6239,263.5894 89.0006,254.5625 83.2516,244.9549 78.4275,234.8512 74.5708,224.3402 71.7153,213.5142 69.8861,202.4684 69.0992,191.2998 69.3617,180.1067 70.6712,168.9872 73.0161,158.0393 76.3759,147.3591 80.7211,137.0404 86.0134,127.174 92.2064,117.8464 99.2457,109.1398 107.0692,101.1306 115.6085,93.8892 124.7882,87.4792 134.5279,81.957 144.7419,77.3712 155.3405,73.7619 166.2304,71.161 177.3161,69.5912 188.5,69.0664" stroke="black" stroke-width="1" />

    </g>
  </g>
  <WCB
     pausedposy="0"
     pausedposx="0"
     lastknownposy="0"
     lastknownposx="0"
     lastpathnc="0"
     lastpath="0"
     node="0"
     layer="0" />
</svg>
