<?xml version="1.0" encoding="UTF-8" standalone="no"?>
<!-- Created with Inkscape (http://www.inkscape.org/) -->

<svg
   xmlns:dc="http://purl.org/dc/elements/1.1/"
   xmlns:cc="http://creativecommons.org/ns#"
   xmlns:rdf="http://www.w3.org/1999/02/22-rdf-syntax-ns#"
   xmlns:svg="http://www.w3.org/2000/svg"
   xmlns="http://www.w3.org/2000/svg"
   xmlns:sodipodi="http://sodipodi.sourceforge.net/DTD/sodipodi-0.dtd"
   xmlns:inkscape="http://www.inkscape.org/namespaces/inkscape"
   width="100mm"
   height="100mm"
   viewBox="0 0 100 100"
   version="1.1"
   id="svg19124"
   inkscape:version="0.92.3 (2405546, 2018-03-11)"
   sodipodi:docname="inkscape_template_TMP.svg"
   shape-rendering="crispEdges">
  <sodipodi:namedview
     pagecolor="#ffffff"
     bordercolor="#666666"
     borderopacity="1"
     objecttolerance="10"
     gridtolerance="10"
     guidetolerance="10"
     inkscape:pageopacity="0"
     inkscape:pageshadow="2"
     inkscape:window-width="1568"
     inkscape:window-height="1550"
     id="namedview24021"
     showgrid="false"
     inkscape:zoom="0.62441667"
     inkscape:cx="712.66515"
     inkscape:cy="409.98265"
     inkscape:window-x="0"
     inkscape:window-y="0"
     inkscape:window-maximized="0"
     inkscape:current-layer="layer1" />
  <defs
     id="defs19118" />
  <metadata
     id="metadata19121">
    <rdf:RDF>
      <cc:Work
         rdf:about="">
        <dc:format>image/svg+xml</dc:format>
        <dc:type
           rdf:resource="http://purl.org/dc/dcmitype/StillImage" />
        <dc:title />
      </cc:Work>
    </rdf:RDF>
  </metadata>
  <g
     transform="translate(0,-197)"
     id="layer1"
     inkscape:groupmode="layer"
     inkscape:label="Layer 1">
    <g
       id="g24447"
       transform="matrix(0.26458333,0,0,0.26458333,0.10666333,197.9735)">

<polyline fill="none" points="192.1004,47.7394 189.7225,51.1455 187.3447,54.5516 184.9669,57.9577 184.9669,54.5516 184.9669,51.1455 184.9669,47.7394 184.9669,45.7676 186.5623,44.1729 188.5334,44.1729 190.5231,44.1729 192.1004,45.7676 192.1004,47.7394 192.1004,51.1455 192.1004,54.5516 192.1004,57.9577 192.1004,59.9295 190.5231,61.5235 188.5509,61.5235 186.5623,61.5235 184.9669,59.9295 184.9669,57.9577" stroke="black" stroke-width="1" /><polyline fill="none" points="197.8298,61.5877 200.7471,57.7851 198.696,53.7706 202.935,62.0679 200.7471,57.7851 203.4811,54.2207" stroke="black" stroke-width="1" /><polyline fill="none" points="217.2511,47.2193 216.2749,47.034 215.3542,47.4703 215.1176,48.7167 214.8885,49.9238 214.6595,51.1308 214.4304,52.3379 215.0254,52.4508 215.6204,52.5638 216.2154,52.6767 215.0699,52.4593 213.9245,52.2419 212.7791,52.0245 213.3295,52.129 213.8799,52.2334 214.4304,52.3379 213.726,56.0491 213.0217,59.7602 212.3174,63.4713" stroke="black" stroke-width="1" /><polyline fill="none" points="231.8187,50.6879 230.5431,55.102 229.2674,59.516 227.9917,63.9301 227.4395,65.8409 225.4469,66.871 223.6181,66.3425 221.8061,65.8189 220.6699,63.8844 221.2221,61.9736 221.6409,60.5243 222.0598,59.075 222.4787,57.6257 223.0309,55.7149 225.0237,54.6855 226.8356,55.2092 228.6644,55.7377 229.8005,57.6713 229.2483,59.5821" stroke="black" stroke-width="1" /><polyline fill="none" points="242.4078,61.727 241.6854,63.5617 239.6332,64.4667 237.7984,63.7443 235.9477,63.0156 235.0486,60.9484 235.771,59.1136 236.1438,58.1671 236.5165,57.2205 236.8892,56.274 237.6116,54.4392 239.6791,53.5394 241.5141,54.262 243.3645,54.9906 244.2484,57.0525 243.526,58.8873 242.2781,62.0565 241.0301,65.2257 239.7822,68.395 239.0599,70.2294 237.0076,71.1348 235.1728,70.4123 233.5936,69.7905 232.7122,68.1901 232.9389,66.584" stroke="black" stroke-width="1" /><polyline fill="none" points="254.0422,67.332 253.1511,69.091 251.0232,69.7999 249.2641,68.9088 247.4898,68.01 246.7882,65.8677 247.6793,64.1087 248.139,63.2012 248.5987,62.2937 249.0584,61.3862 249.9495,59.6272 252.0921,58.9249 253.8514,59.8162 255.6254,60.7148 256.3124,62.8505 255.4213,64.6095 253.8821,67.648 252.3429,70.6864 250.8037,73.7249 249.9128,75.4836 247.7847,76.1928 246.0257,75.3017 244.5116,74.5347 243.7839,72.8589 244.1601,71.281" stroke="black" stroke-width="1" /><polyline fill="none" points="257.6599,72.3192 258.7209,70.6369 260.921,70.2007 262.5312,71.2162 264.1407,72.2313 264.6812,74.3959 263.6202,76.0783 262.8154,77.3543 262.0107,78.6304 261.2059,79.9064 260.145,81.5884 257.9584,82.034 256.3489,81.0188 254.7387,80.0034 254.1989,77.8384 255.2598,76.1563 255.255,76.1533 255.2503,76.1503 255.2456,76.1474 257.6966,72.261 260.1476,68.3747 262.5987,64.4884" stroke="black" stroke-width="1" /><polyline fill="none" points="277.9928,75.4605 277.2057,74.8541 276.1871,74.8273 275.4129,75.8322 274.663,76.8055 273.9132,77.7788 273.1634,78.752 273.6431,79.1217 274.1228,79.4913 274.6026,79.8609 273.679,79.1493 272.7555,78.4378 271.8319,77.7262 272.2757,78.0682 272.7195,78.4101 273.1634,78.752 270.858,81.7443 268.5526,84.7367 266.2472,87.729" stroke="black" stroke-width="1" /><polyline fill="none" points="276.9819,88.3456 278.3264,86.9032 280.5804,86.8236 282.0224,88.1676 283.4779,89.5242 283.5442,91.7663 282.1997,93.2088 281.5063,93.9528 280.8129,94.6968 280.1194,95.4408 278.775,96.8833 276.5342,96.9743 275.0787,95.6177 273.6367,94.2737 273.5572,92.0202 274.9016,90.5777 277.2239,88.086 279.5462,85.5944 281.8685,83.1027 283.2126,81.6605 285.4665,81.5812 286.9084,82.9252 288.1508,84.0831 288.3841,85.8941 287.5849,87.3052" stroke="black" stroke-width="1" /><polyline fill="none" points="290.324,97.9917 291.3244,99.2694 293.614,99.5885 295.0811,98.284 295.4226,97.9803 295.7641,97.6767 296.1055,97.3731 297.4897,96.1424 297.6137,94.0115 296.3716,92.6145 295.1411,91.2306 292.9849,91.1281 291.6266,92.3358 291.2851,92.6394 290.9437,92.943 290.6022,93.2466 289.2178,94.4776 289.0935,96.6077 290.324,97.9917 291.6798,99.5165 291.4977,101.8143 290.0246,103.124 289.5206,103.5722 289.0166,104.0203 288.5126,104.4684 287.0393,105.7785 284.7611,105.6683 283.4053,104.1435 282.0609,102.6314 282.2186,100.3568 283.6919,99.0468 284.2043,98.5912 284.7167,98.1356 285.2291,97.68 286.4921,96.557 288.7823,96.4104" stroke="black" stroke-width="1" /><polyline fill="none" points="300.1586,102.3885 301.5964,101.3335 303.7506,101.6028 304.897,103.1653 306.0428,104.7269 305.7325,106.827 304.1015,108.0237 303.8436,108.2129 303.5857,108.4022 303.3278,108.5914 300.8395,110.4171 298.8327,108.5508 298.6295,108.2738 298.4335,108.0067 298.2375,107.7396 298.0415,107.4724 298.2375,107.7396 298.4335,108.0067 298.6295,108.2738 299.2283,109.0899 299.5385,111.5419 297.6037,112.9615 297.0368,113.3774 296.4699,113.7934 295.903,114.2093 294.3,115.3855 292.0743,115.0189 290.8977,113.4153 289.7109,111.7978 290.0397,109.5792 291.6427,108.4029" stroke="black" stroke-width="1" /><polyline fill="none" points="305.4145,118.565 306.1591,120.0069 308.349,120.7473 310.0337,119.7392 310.4258,119.5046 310.8178,119.27 311.2099,119.0354 312.7993,118.0843 313.3185,116.0139 312.3586,114.4098 311.4078,112.8207 309.3085,112.318 307.7488,113.2512 307.3567,113.4859 306.9646,113.7205 306.5725,113.9551 304.9828,114.9063 304.4636,116.976 305.4145,118.565 306.4622,120.3159 305.8548,122.5395 304.1634,123.5516 303.5846,123.8979 303.0059,124.2442 302.4272,124.5905 300.7354,125.6028 298.5177,125.0698 297.47,123.3189 296.4311,121.5827 297.0102,119.3773 298.702,118.365 299.2903,118.013 299.8786,117.6609 300.467,117.3089 301.9172,116.4411 304.1946,116.724" stroke="black" stroke-width="1" /><polyline fill="none" points="314.9935,124.0331 317.1288,123.0136 320.1951,129.4359 302.5742,132.3193" stroke="black" stroke-width="1" /><polyline fill="none" points="319.6768,136.7748 321.3509,136.1606 323.3457,137.0173 324.0132,138.8367 324.6804,140.655 323.7992,142.5864 321.9001,143.2832 321.5998,143.3934 321.2995,143.5036 320.9991,143.6138 318.1019,144.6769 316.6921,142.3268 316.5738,142.0042 316.4597,141.6932 316.3455,141.3822 316.2314,141.0711 316.3455,141.3822 316.4597,141.6932 316.5738,142.0042 316.9224,142.9545 316.5397,145.3962 314.2868,146.2228 313.6267,146.465 312.9666,146.7072 312.3065,146.9494 310.44,147.6343 308.4036,146.6642 307.7185,144.7969 307.0274,142.9136 307.9592,140.8734 309.8258,140.1885" stroke="black" stroke-width="1" /><polyline fill="none" points="320.5805,157.0006 320.5858,156.9993 320.5911,156.9979 320.5963,156.9965 318.3419,157.5911 316.0875,158.1857 313.8331,158.7804 312.7912,159.0552 312.5841,159.8918 312.7281,160.4374 312.5443,159.7408 312.986,159.0038 313.7009,158.8152 313.7449,158.8036 313.789,158.792 313.8331,158.7804 312.6082,157.968 311.6129,156.8831 311.2326,155.4413 310.9177,154.2474 311.0031,152.1501 313.4399,151.5074 314.7166,151.1706 315.7165,151.6689 316.4179,152.5835 316.7648,153.0235 317.4959,154.5165 317.9911,155.5202 318.507,156.5366 319.3037,157.3374 320.5805,157.0006 321.8734,156.6596 323.0854,154.9389 322.5607,152.9497 322.0665,151.0759 320.9278,150.4543 319.938,150.1299" stroke="black" stroke-width="1" /><polyline fill="none" points="321.2783,162.9853 323.2405,162.6604 325.0284,164.0147 325.3394,165.8928 325.6503,167.7702 324.3918,169.6124 322.4295,169.9373 320.9412,170.1838 319.4528,170.4303 317.9645,170.6767 316.0026,171.0016 314.2167,169.6636 313.9058,167.7862 313.5948,165.9082 314.854,164.0662 316.8159,163.7413 316.815,163.7358 316.8141,163.7303 316.8132,163.7247 321.3461,162.9741 325.8791,162.2234 330.412,161.4727" stroke="black" stroke-width="1" /><polyline fill="none" points="328.6666,175.1152 330.6336,174.9766 332.3361,176.4553 332.4747,178.4223 332.6145,180.4068 331.1043,182.1458 329.1373,182.2844 328.3667,182.3387 327.8439,182.2212 327.451,182.0255 323.4736,180.048 319.4962,178.0705 315.5188,176.093 315.3765,176.103 315.2343,176.1131 315.092,176.1231 315.2583,178.4835 315.4246,180.8439 315.5909,183.2044" stroke="black" stroke-width="1" /><polyline fill="none" points="315.5517,194.1284 319.8539,194.2293 319.9969,188.1262 332.7012,194.0847" stroke="black" stroke-width="1" /><polyline fill="none" points="331.4614,208.2704 331.7014,206.2324 331.9414,204.1944 332.1814,202.1564 329.4966,201.8402 326.8119,201.5241 324.1271,201.2079 325.2598,201.9972 325.8481,203.0166 325.6737,204.4979 325.4331,206.5413 323.5607,207.9262 321.6712,207.7037 320.3204,207.5446 318.9695,207.3855 317.6187,207.2265 315.6437,206.9939 314.3826,205.24 314.6013,203.3835 314.8178,201.5447 316.4498,200.1488 318.4248,200.3814" stroke="black" stroke-width="1" /><polyline fill="none" points="328.9819,221.5707 329.4117,219.5641 329.8415,217.5575 330.2712,215.5509 327.6279,214.9847 324.9846,214.4185 322.3412,213.8524 323.395,214.7443 323.8853,215.8143 323.5729,217.2727 323.142,219.2847 321.1482,220.4881 319.2878,220.0896 317.9578,219.8048 316.6278,219.5199 315.2978,219.235 313.3532,218.8185 312.262,216.9543 312.6535,215.1264 313.0413,213.3159 314.7968,212.079 316.7413,212.4955" stroke="black" stroke-width="1" /><polyline fill="none" points="324.988,227.5847 327.2451,228.2948 325.1095,235.0835 310.2533,225.1787" stroke="black" stroke-width="1" /><polyline fill="none" points="313.9745,245.3649 312.1572,244.5996 311.3005,242.5268 312.0657,240.7095 312.8377,238.8764 314.9253,238.026 316.7426,238.7912 317.6802,239.186 318.6178,239.5808 319.5553,239.9756 321.3726,240.7409 322.2237,242.8288 321.4583,244.6465 320.6865,246.4792 318.6045,247.3146 316.7872,246.5493 313.648,245.2274 310.5089,243.9056 307.3698,242.5837 305.5529,241.8186 304.6959,239.7456 305.4611,237.9283 306.1198,236.3641 307.7404,235.5204 309.3408,235.7848" stroke="black" stroke-width="1" /><polyline fill="none" points="314.1975,251.9505 315.9352,252.8826 316.5864,255.0415 315.6543,256.7791 314.714,258.5322 312.5089,259.1976 310.7713,258.2655 310.0905,257.9003 309.711,257.5221 309.483,257.1469 307.1737,253.3526 304.8644,249.5582 302.5551,245.7639 302.4294,245.6965 302.3037,245.629 302.178,245.5616 301.0595,247.6469 299.941,249.7321 298.8225,251.8173" stroke="black" stroke-width="1" /><polyline fill="none" points="308.7705,263.9427 310.7417,265.2515 306.8053,271.1803 295.2831,257.5403" stroke="black" stroke-width="1" /><polyline fill="none" points="298.8748,281.4851 300.165,279.8893 301.4551,278.2935 302.7453,276.6978 300.6431,274.9981 298.541,273.2985 296.4388,271.5989 296.9757,272.8708 296.9296,274.0469 295.9919,275.2068 294.6982,276.8068 292.3758,276.9793 290.8963,275.7832 289.8386,274.928 288.7809,274.0729 287.7231,273.2177 286.1767,271.9674 286.0456,269.8112 287.2209,268.3575 288.3849,266.9178 290.51,266.6077 292.0565,267.8579" stroke="black" stroke-width="1" /><polyline fill="none" points="285.9404,283.7117 284.7361,284.7994 284.5787,287.1057 285.9831,288.4776 286.31,288.7969 286.6368,289.1161 286.9637,289.4354 288.2886,290.7297 290.423,290.7037 291.7292,289.3664 293.0233,288.0417 292.974,285.8836 291.6738,284.6136 291.3469,284.2943 291.0201,283.975 290.6932,283.6557 289.368,282.3612 287.2344,282.387 285.9404,283.7117 284.5146,285.1713 282.2097,285.1511 280.7997,283.7737 280.3172,283.3025 279.8347,282.8312 279.3523,282.3599 277.942,280.9823 277.8918,278.702 279.3176,277.2424 280.7314,275.795 283.0115,275.7925 284.4218,277.1702 284.9123,277.6492 285.4027,278.1283 285.8932,278.6074 287.1021,279.7884 287.4094,282.0627" stroke="black" stroke-width="1" /><polyline fill="none" points="276.7938,298.1846 276.4044,294.049 276.015,289.9133 275.6255,285.7776 277.8285,288.3754 280.0314,290.9731 282.2344,293.5709 283.5097,295.0748 283.3243,297.3229 281.8209,298.5978 280.3034,299.8847 278.0691,299.6885 276.7938,298.1846 274.5908,295.5868 272.3879,292.9891 270.1849,290.3913 268.9096,288.8874 269.0816,286.6516 270.5858,285.376 272.1024,284.0898 274.3502,284.2737 275.6255,285.7776" stroke="black" stroke-width="1" /><polyline fill="none" points="271.9575,301.905 273.0864,303.5217 272.6917,305.7419 271.075,306.8708 269.4439,308.0097 267.1762,307.6068 266.0473,305.9901 265.605,305.3567 265.4374,304.8477 265.4036,304.41 265.0582,299.9816 264.7128,295.5532 264.3674,291.1248 264.2857,291.0079 264.2041,290.8909 264.1224,290.774 262.1823,292.1287 260.2422,293.4834 258.3021,294.8381" stroke="black" stroke-width="1" /><polyline fill="none" points="249.9209,303.8493 248.9401,302.1193 249.5811,299.9819 251.2367,299.0431 252.8924,298.1044 255.0703,298.6436 256.0512,300.3736 256.7953,301.6859 257.5393,302.9983 258.2834,304.3106 259.2644,306.0409 258.6085,308.186 256.9528,309.1248 255.2971,310.0635 253.1342,309.5166 252.1532,307.7863" stroke="black" stroke-width="1" /><polyline fill="none" points="249.3159,315.7174 250.0463,317.3442 249.3318,319.3943 247.5639,320.188 245.797,320.9813 243.8084,320.2381 242.9798,318.3926 242.8488,318.1008 242.7178,317.809 242.5867,317.5172 241.3227,314.7017 243.5679,313.1303 243.8813,312.9896 244.1836,312.8539 244.4858,312.7182 244.7881,312.5825 244.4858,312.7182 244.1836,312.8539 243.8813,312.9896 242.9579,313.4041 240.4954,313.194 239.5125,311.0048 239.2245,310.3633 238.9365,309.7219 238.6485,309.0804 237.8341,307.2666 238.6587,305.1671 240.4732,304.3524 242.3034,303.5307 244.404,304.3169 245.2184,306.1307" stroke="black" stroke-width="1" /><polyline fill="none" points="231.8817,326.2922 230.4005,321.9428 228.9194,317.5934 227.4382,313.244 226.797,311.3612 227.841,309.3758 229.643,308.7621 231.4284,308.1541 233.4675,309.0896 234.1087,310.9725 234.595,312.4005 235.0813,313.8286 235.5677,315.2567 236.2088,317.1395 235.1643,319.1244 233.3789,319.7324 231.5769,320.3461 229.5384,319.4111 228.8972,317.5283" stroke="black" stroke-width="1" /><polyline fill="none" points="219.185,329.5222 221.181,329.0455 223.1769,328.5688 225.1729,328.092 224.5449,325.4627 223.9169,322.8333 223.2889,320.204 222.938,321.5392 222.1837,322.4427 220.733,322.7892 218.7317,323.2672 216.7867,321.9865 216.3447,320.136 216.0287,318.813 215.7127,317.4901 215.3968,316.1671 214.9348,314.2328 216.1469,312.4448 217.9651,312.0105 219.766,311.5804 221.6386,312.6317 222.1006,314.5659" stroke="black" stroke-width="1" /><polyline fill="none" points="211.6043,327.6008 211.8543,329.3665 210.5987,331.1375 208.68,331.4092 206.7622,331.6808 205.0582,330.4146 204.7746,328.4117 204.7297,328.095 204.6849,327.7782 204.64,327.4615 204.2073,324.4058 206.8006,323.5195 207.1407,323.4713 207.4688,323.4249 207.7968,323.3784 208.1249,323.332 207.7968,323.3784 207.4688,323.4249 207.1407,323.4713 206.1386,323.6133 203.8312,322.7276 203.4947,320.3516 203.3961,319.6554 203.2975,318.9592 203.199,318.2631 202.9202,316.2944 204.2953,314.5064 206.2646,314.2275 208.251,313.9463 210.0508,315.2847 210.3295,317.2534" stroke="black" stroke-width="1" /><polyline fill="none" points="198.5953,328.9419 198.6877,330.9116 197.1695,332.5789 195.1998,332.6714 193.2126,332.7646 191.5094,331.2141 191.417,329.2444 191.3808,328.4727 191.5105,327.9528 191.7154,327.5646 193.7856,323.6346 195.8557,319.7047 197.9259,315.7748 197.9192,315.6323 197.9126,315.4898 197.9059,315.3474 195.5422,315.4583 193.1785,315.5692 190.8148,315.6801" stroke="black" stroke-width="1" /><polyline fill="none" points="178.8252,332.4973 180.8751,332.5935 182.9249,332.6897 184.9748,332.7859 185.1015,330.0855 185.2282,327.3852 185.3549,324.6849 184.6471,325.8702 183.6716,326.5287 182.1817,326.4589 180.1264,326.3624 178.6134,324.592 178.7026,322.6915 178.7663,321.3328 178.8301,319.9742 178.8938,318.6155 178.987,316.629 180.6479,315.2478 182.5153,315.3354 184.3647,315.4222 185.8719,316.9521 185.7786,318.9385" stroke="black" stroke-width="1" /><polyline fill="none" points="164.9311,331.0243 165.5753,326.475 166.2195,321.9257 166.8637,317.3764 167.1425,315.407 168.9711,314.1077 170.8559,314.3746 172.7234,314.639 174.1196,316.3951 173.8408,318.3644 173.6292,319.8581 173.4177,321.3518 173.2062,322.8456 172.9273,324.8149 171.0986,326.1135 169.2311,325.8491 167.3462,325.5822 165.9503,323.8269 166.2291,321.8576" stroke="black" stroke-width="1" /><polyline fill="none" points="159.034,326.3934 158.6197,328.1279 156.8026,329.3158 154.9176,328.8656 153.0338,328.4157 151.9121,326.6133 152.382,324.6457 152.4564,324.3345 152.5307,324.0234 152.605,323.7122 153.3219,320.7105 156.0596,320.8359 156.3937,320.9158 156.716,320.9927 157.0383,321.0697 157.3605,321.1467 157.0383,321.0697 156.716,320.9927 156.3937,320.9158 155.4093,320.6806 153.5868,319.0112 154.1443,316.6771 154.3076,315.9932 154.4709,315.3093 154.6343,314.6254 155.0962,312.6916 157.0307,311.5317 158.9653,311.9937 160.9166,312.4598 162.1008,314.3646 161.6389,316.2984" stroke="black" stroke-width="1" /><polyline fill="none" points="146.2263,324.0342 145.4636,326.2741 138.7268,323.9799 148.9772,309.36" stroke="black" stroke-width="1" /><polyline fill="none" points="137.0278,311.8311 136.2202,313.6299 134.112,314.4319 132.3138,313.6245 130.4987,312.8096 129.7132,310.7084 130.5208,308.9096 130.9374,307.9818 131.354,307.0539 131.7706,306.1261 132.5782,304.3272 134.6701,303.5187 136.4852,304.3337 138.2834,305.1411 139.0852,307.2487 138.2776,309.0476 136.8825,312.1548 135.4874,315.2621 134.0923,318.3694 133.2848,320.1679 131.1768,320.9695 129.3786,320.1622 127.8293,319.4666 127.0247,317.8275 127.3263,316.2339" stroke="black" stroke-width="1" /><polyline fill="none" points="121.2885,307.001 119.9296,306.114 117.6594,306.55 116.6911,308.2579 116.4657,308.6553 116.2403,309.0528 116.015,309.4503 115.1014,311.0616 115.671,313.1187 117.2971,314.0407 118.9081,314.9541 120.9822,314.356 121.8787,312.7749 122.104,312.3774 122.3294,311.9799 122.5547,311.5825 123.4685,309.9709 122.8994,307.9144 121.2885,307.001 119.5135,305.9947 118.9452,303.7609 119.9174,302.0461 120.25,301.4595 120.5826,300.8728 120.9153,300.2861 121.8877,298.571 124.0798,297.9409 125.8547,298.9473 127.6148,299.9452 128.1987,302.1493 127.2264,303.8643 126.8882,304.4608 126.55,305.0572 126.2119,305.6536 125.3783,307.1238 123.2576,308.0009" stroke="black" stroke-width="1" /><polyline fill="none" points="110.2586,306.9689 108.904,308.9089 103.069,304.8345 116.9754,293.6353" stroke="black" stroke-width="1" /><polyline fill="none" points="98.2411,289.9435 98.2376,289.9477 98.234,289.9519 98.2305,289.9561 99.7384,288.1779 101.2464,286.3997 102.7543,284.6214 103.4512,283.7996 103.1421,282.9951 102.7117,282.6302 103.2611,283.0961 103.321,283.9532 102.8428,284.5171 102.8133,284.5519 102.7838,284.5867 102.7543,284.6214 104.2237,284.5862 105.6609,284.9059 106.7982,285.8703 107.7398,286.6689 108.8705,288.4374 107.2406,290.3594 106.3866,291.3665 105.2816,291.5303 104.1828,291.1821 103.6465,291.0199 102.1923,290.2143 101.2117,289.6749 100.2068,289.137 99.0951,288.9365 98.2411,289.9435 97.3762,290.9634 97.3677,293.0681 98.9367,294.3986 100.4147,295.652 101.7042,295.5097 102.7014,295.209" stroke="black" stroke-width="1" /><polyline fill="none" points="93.847,276.101 94.9163,275.8954 96.1056,275.812 97.5915,277.3333 98.9217,278.695 98.956,280.9382 97.4962,282.3642 96.4293,283.4063 95.3625,284.4485 94.2956,285.4906 92.8728,286.8804 90.6316,286.793 89.3014,285.4313 87.9472,284.045 87.8887,281.778 89.3115,280.3882 89.8428,279.8691 90.3742,279.3501 90.9055,278.8311 92.5629,280.5278 94.2203,282.2245 95.8777,283.9212" stroke="black" stroke-width="1" /><polyline fill="none" points="80.3261,278.8345 76.0277,278.8908 89.3594,268.1123" stroke="black" stroke-width="1" /><polyline fill="none" points="81.1082,256.6235 77.5231,259.0038 80.8999,264.0897 67.0723,266.4776" stroke="black" stroke-width="1" /><polyline fill="none" points="71.7426,247.2 73.495,246.2599 75.6169,246.9509 76.5165,248.6281 77.4162,250.3053 76.8261,252.47 75.0736,253.41 73.7442,254.1231 72.4147,254.8362 71.0853,255.5493 69.3325,256.4895 67.2033,255.7835 66.3037,254.1062 65.404,252.429 66.0015,250.2794 67.7542,249.3393" stroke="black" stroke-width="1" /><polyline fill="none" points="60.1441,238.5223 61.9614,237.757 64.0429,238.5927 64.8081,240.41 65.58,242.2431 64.7296,244.3307 62.9123,245.096 61.9747,245.4908 61.0372,245.8856 60.0996,246.2804 58.2823,247.0457 56.194,246.1955 55.4286,244.3779 54.6568,242.5451 55.5141,240.472 57.3314,239.7067 60.4706,238.3849 63.6097,237.063 66.7488,235.7411 68.5657,234.976 70.6475,235.8115 71.4128,237.6288 72.0714,239.193 71.5425,240.9418 70.2351,241.9019" stroke="black" stroke-width="1" /><polyline fill="none" points="49.7286,228.6396 54.1116,227.2608 58.4945,225.882 62.8774,224.5032 64.7748,223.9063 66.7352,224.9966 67.3064,226.8125 67.8724,228.6117 66.8894,230.6282 64.992,231.2251 63.5529,231.6778 62.1138,232.1305 60.6747,232.5833 58.7774,233.1801 56.8176,232.0893 56.2516,230.2901 55.6803,228.4742 56.6628,226.4582 58.5601,225.8613" stroke="black" stroke-width="1" /><polyline fill="none" points="53.068,213.7118 54.9961,213.2988 56.8852,214.5079 57.2982,216.436 57.7148,218.3809 56.49,220.2734 54.5619,220.6864 53.5672,220.8994 52.5724,221.1125 51.5777,221.3256 49.6496,221.7385 47.7564,220.5139 47.3433,218.5854 46.9268,216.6409 48.1557,214.764 50.0838,214.351 53.4143,213.6376 56.7449,212.9243 60.0754,212.2109 62.0032,211.798 63.8926,213.007 64.3056,214.9351 64.6611,216.5947 63.8154,218.2142 62.3519,218.9137" stroke="black" stroke-width="1" /><polyline fill="none" points="48.8142,207.2026 45.1485,204.9572 62.1746,202.9522" stroke="black" stroke-width="1" /><polyline fill="none" points="52.3023,191.6726 52.3657,190.0511 50.8259,188.3269 48.8631,188.373 48.4063,188.3837 47.9495,188.3944 47.4928,188.4051 45.641,188.4485 44.1682,189.9935 44.2121,191.8624 44.2555,193.7137 45.8337,195.1864 47.6508,195.1438 48.1076,195.1331 48.5643,195.1224 49.0211,195.1117 50.8732,195.0683 52.3457,193.524 52.3023,191.6726 52.2544,189.6328 53.8795,187.9981 55.8501,187.9519 56.5243,187.9361 57.1985,187.9203 57.8728,187.9045 59.8438,187.8582 61.5101,189.4157 61.5579,191.4556 61.6053,193.4783 60.0138,195.1111 58.0429,195.1574 57.3574,195.1734 56.672,195.1895 55.9866,195.2056 54.297,195.2452 52.4554,193.8758" stroke="black" stroke-width="1" /><polyline fill="none" points="48.3405,175.0165 51.571,177.6278 54.8016,180.2391 58.0321,182.8504 54.6344,182.611 51.2368,182.3717 47.8391,182.1323 45.8722,181.9937 44.3935,180.2902 44.532,178.3239 44.6719,176.3391 46.3735,174.8779 48.3405,175.0165 51.7381,175.2558 55.1358,175.4952 58.5334,175.7346 60.5004,175.8731 61.9796,177.5585 61.841,179.5258 61.7012,181.5095 59.9991,182.989 58.0321,182.8504" stroke="black" stroke-width="1" /><polyline fill="none" points="53.2481,162.3392 55.1935,162.6613 56.5083,164.4784 56.1861,166.4238 55.8611,168.3861 54.0282,169.6982 52.0828,169.3761 51.0792,169.2099 50.0755,169.0437 49.0719,168.8775 47.1266,168.5553 45.8137,166.7222 46.1359,164.7765 46.4608,162.8146 48.2919,161.5184 50.2372,161.8405 53.5975,162.397 56.9579,162.9535 60.3182,163.51 62.2632,163.8321 63.5783,165.6493 63.2561,167.5946 62.9789,169.269 61.5986,170.4661 59.9806,170.5808" stroke="black" stroke-width="1" /><polyline fill="none" points="58.4166,157.8689 56.51,157.366 55.3744,155.4172 55.8771,153.5113 56.3846,151.5874 58.3291,150.4691 60.2358,150.972 61.2192,151.2314 62.2026,151.4908 63.1861,151.7502 65.0927,152.2531 66.2321,154.1848 65.7246,156.1087 65.2219,158.0146 63.2736,159.15 61.3669,158.6471 58.0735,157.7784 54.78,156.9097 51.4866,156.041 49.5803,155.5382 48.4451,153.5895 48.9478,151.6835 49.3809,150.0414 50.8666,148.9798 52.4879,149.0171" stroke="black" stroke-width="1" /><polyline fill="none" points="60.4111,145.2069 58.5438,144.5218 57.6565,142.4618 58.3123,140.6747 58.9678,138.8882 60.9712,137.9064 62.8384,138.5915 64.2547,139.1112 65.671,139.6309 67.0873,140.1505 68.9542,140.8355 69.8478,142.8803 69.1923,144.6668 68.5366,146.4539 66.5327,147.4352 64.6657,146.7502 64.6638,146.7554 64.6619,146.7607 64.66,146.7659 60.3465,145.1832 56.033,143.6005 51.7195,142.0178" stroke="black" stroke-width="1" /><polyline fill="none" points="74.9,131.3262 71.0166,129.472 68.3862,134.9811 59.2371,124.3418" stroke="black" stroke-width="1" /><polyline fill="none" points="72.2376,114.6047 73.9297,115.6172 74.4873,117.7897 73.4748,119.4817 72.4535,121.1885 70.2672,121.7378 68.5751,120.7253 67.7022,120.203 66.8292,119.6806 65.9563,119.1583 64.2642,118.1458 63.7143,115.9591 64.727,114.2668 65.7481,112.5603 67.9267,112.0251 69.6188,113.0376 72.5415,114.7865 75.4643,116.5355 78.3871,118.2844 80.0788,119.2967 80.6367,121.4694 79.6242,123.1614 78.7528,124.6178 77.0299,125.226 75.4824,124.7399" stroke="black" stroke-width="1" /><polyline fill="none" points="73.8881,100.7906 72.6741,102.4451 71.4602,104.0996 70.2462,105.7541 72.4258,107.3533 74.6053,108.9525 76.7849,110.5517 76.1889,109.3065 76.1798,108.1294 77.0621,106.9269 78.2793,105.268 80.5912,104.9868 82.1251,106.1123 83.2217,106.9169 84.3184,107.7216 85.415,108.5262 87.0184,109.7026 87.2504,111.8503 86.1445,113.3575 85.0492,114.8503 82.941,115.2596 81.3377,114.0832" stroke="black" stroke-width="1" /><polyline fill="none" points="85.1794,101.288 83.693,99.9664 83.6222,97.7246 84.8871,96.302 86.1516,94.8799 88.3754,94.7003 89.8618,96.022 90.9892,97.0244 92.1166,98.0268 93.244,99.0293 94.7301,100.3507 94.8124,102.5807 93.548,104.0028 92.2831,105.4254 90.059,105.6042 88.5728,104.2828 88.5691,104.287 88.5654,104.2912 88.5617,104.2953 85.128,101.2423 81.6944,98.1893 78.2607,95.1362" stroke="black" stroke-width="1" /><polyline fill="none" points="97.3248,85.2308 98.6692,86.6732 98.6017,88.9151 97.1592,90.2595 95.7042,91.6157 93.4514,91.5364 92.1069,90.0939 91.4133,89.3497 90.7197,88.6056 90.0261,87.8614 88.6817,86.4189 88.7605,84.1655 90.2032,82.8209 91.658,81.465 93.8995,81.5557 95.244,82.9982 97.5662,85.4899 99.8885,87.9815 102.2108,90.4731 103.555,91.9154 103.4877,94.1575 102.0453,95.5019 100.8037,96.6591 98.9798,96.765 97.628,95.8684" stroke="black" stroke-width="1" /><polyline fill="none" points="105.3713,80.5671 106.7161,79.659 107.1953,77.3976 105.9971,75.8423 105.7183,75.4804 105.4394,75.1184 105.1606,74.7565 104.0301,73.2892 101.9132,73.0157 100.4324,74.1566 98.9654,75.2868 98.7116,77.4305 99.8209,78.8703 100.0998,79.2323 100.3786,79.5942 100.6575,79.9562 101.7881,81.4237 103.9043,81.6973 105.3713,80.5671 106.9876,79.3218 109.2669,79.665 110.4699,81.2265 110.8815,81.7607 111.2931,82.295 111.7047,82.8292 112.908,84.391 112.638,86.6558 111.0216,87.9011 109.4188,89.1359 107.1609,88.8187 105.9577,87.257 105.5392,86.7139 105.1208,86.1707 104.7023,85.6276 103.6709,84.2888 103.6855,81.9939" stroke="black" stroke-width="1" /><polyline fill="none" points="110.4498,71.3079 109.3979,69.64 109.8962,67.4408 111.5641,66.3889 113.2467,65.3277 115.4931,65.8364 116.545,67.5043 116.9571,68.1577 117.1006,68.6739 117.1139,69.1127 117.2514,73.5525 117.3888,77.9922 117.5263,82.4319 117.6023,82.5525 117.6784,82.6732 117.7545,82.7938 119.756,81.5315 121.7575,80.2692 123.7589,79.007" stroke="black" stroke-width="1" /><polyline fill="none" points="128.102,61.3049 127.5201,65.4179 126.9381,69.5309 126.3561,73.6439 124.8169,70.6054 123.2777,67.567 121.7385,64.5285 120.8474,62.7695 121.55,60.626 123.3084,59.7352 125.0833,58.8361 127.2109,59.5459 128.102,61.3049 129.6412,64.3434 131.1804,67.3818 132.7196,70.4203 133.6107,72.1793 132.9241,74.314 131.1647,75.2052 129.3907,76.1039 127.2472,75.4029 126.3561,73.6439" stroke="black" stroke-width="1" /><polyline fill="none" points="144.3796,69.2222 142.8029,65.2181 137.1225,67.4548 137.6837,53.4338" stroke="black" stroke-width="1" /><polyline fill="none" points="150.3032,49.4753 149.3486,49.7511 148.7244,50.5565 149.0766,51.7752 149.4178,52.9555 149.7589,54.1358 150.1,55.3161 150.6818,55.148 151.2636,54.9799 151.8454,54.8117 150.7254,55.1354 149.6053,55.4591 148.4853,55.7828 149.0235,55.6272 149.5618,55.4717 150.1,55.3161 151.1487,58.945 152.1975,62.5739 153.2462,66.2028" stroke="black" stroke-width="1" /><polyline fill="none" points="158.8139,50.8607 158.4462,48.9234 159.7156,47.0597 161.6529,46.692 163.6074,46.3211 165.5111,47.6175 165.8788,49.5548 166.0228,50.3138 165.9673,50.8467 165.8189,51.2598 164.3201,55.4412 162.8214,59.6226 161.3227,63.804 161.3493,63.9441 161.3759,64.0842 161.4025,64.2243 163.7272,63.7831 166.052,63.3419 168.3768,62.9007" stroke="black" stroke-width="1" /><polyline fill="none" points="240.0355,177.0162 108.5745,236.1363 126.744,171.7336 188.2428,253.3668 126.744,171.7336 268.1431,236.6952 189.0084,152.2515 188.8365,96.1804 189.0084,152.2515 188.2428,253.3668" stroke="black" stroke-width="1" /><polyline fill="none" points="205.8859,253.5004 170.5997,253.2332" stroke="black" stroke-width="1" /><polyline fill="none" points="262.5255,172.1919 262.3806,170.3519 261.9497,168.5571 261.2434,166.8519 260.279,165.2781 259.0803,163.8746 257.6768,162.6759 256.1031,161.7115 254.3978,161.0052 252.6031,160.5743 250.763,160.4295 248.923,160.5743 247.1283,161.0052 245.423,161.7115 243.8493,162.6759 242.4458,163.8746 241.2471,165.2781 240.2827,166.8519 239.5763,168.5571 239.1454,170.3519 239.0006,172.1919 239.1455,174.032 239.5763,175.8267 240.2827,177.5319 241.2471,179.1057 242.4458,180.5092 243.8493,181.7079 245.423,182.6723 247.1283,183.3786 248.923,183.8095 250.763,183.9543 252.6031,183.8095 254.3978,183.3786 256.1031,182.6723 257.6768,181.7079 259.0803,180.5092 260.279,179.1057 261.2434,177.5319 261.9497,175.8267 262.3806,174.0319 262.5255,172.1919" stroke="black" stroke-width="1" /><polyline fill="none" points="188.5,69.0664 199.6839,69.5912 210.7696,71.161 221.6595,73.7619 232.2581,77.3712 242.4721,81.9571 252.2118,87.4792 261.3915,93.8892 269.9308,101.1306 277.7544,109.1398 284.7936,117.8464 290.9866,127.1739 296.2789,137.0404 300.6241,147.3591 303.9839,158.0393 306.3289,168.9873 307.6383,180.1067 307.9008,191.2998 307.114,202.4684 305.2847,213.5142 302.4292,224.3402 298.5725,234.8512 293.7484,244.9549 287.9994,254.5625 281.376,263.5894 273.9365,271.9565 265.7461,279.5902 256.8768,286.4234 247.4067,292.3961 237.4188,297.4556 227.0011,301.5577 216.2451,304.6663 205.2452,306.7539 194.0981,307.8023 182.9019,307.8023 171.7548,306.7539 160.7549,304.6663 149.9989,301.5577 139.5811,297.4556 129.5933,292.3961 120.1232,286.4234 111.2539,279.5902 103.0635,271.9565 95.6239,263.5894 89.0006,254.5625 83.2516,244.9549 78.4275,234.8512 74.5708,224.3402 71.7153,213.5142 69.8861,202.4684 69.0992,191.2998 69.3617,180.1067 70.6712,168.9872 73.0161,158.0393 76.3759,147.3591 80.7211,137.0404 86.0134,127.174 92.2064,117.8464 99.2457,109.1398 107.0692,101.1306 115.6085,93.8892 124.7882,87.4792 134.5279,81.957 144.7419,77.3712 155.3405,73.7619 166.2304,71.161 177.3161,69.5912 188.5,69.0664" stroke="black" stroke-width="1" />

    </g>
  </g>
  <WCB
     pausedposy="0"
     pausedposx="0"
     lastknownposy="0"
     lastknownposx="0"
     lastpathnc="0"
     lastpath="0"
     node="0"
     layer="0" />
</svg>
