<?xml version="1.0" encoding="UTF-8" standalone="no"?>
<!-- Created with Inkscape (http://www.inkscape.org/) -->

<svg
   xmlns:dc="http://purl.org/dc/elements/1.1/"
   xmlns:cc="http://creativecommons.org/ns#"
   xmlns:rdf="http://www.w3.org/1999/02/22-rdf-syntax-ns#"
   xmlns:svg="http://www.w3.org/2000/svg"
   xmlns="http://www.w3.org/2000/svg"
   xmlns:sodipodi="http://sodipodi.sourceforge.net/DTD/sodipodi-0.dtd"
   xmlns:inkscape="http://www.inkscape.org/namespaces/inkscape"
   width="100mm"
   height="100mm"
   viewBox="0 0 100 100"
   version="1.1"
   id="svg19124"
   inkscape:version="0.92.3 (2405546, 2018-03-11)"
   sodipodi:docname="inkscape_template_TMP.svg"
   shape-rendering="crispEdges">
  <sodipodi:namedview
     pagecolor="#ffffff"
     bordercolor="#666666"
     borderopacity="1"
     objecttolerance="10"
     gridtolerance="10"
     guidetolerance="10"
     inkscape:pageopacity="0"
     inkscape:pageshadow="2"
     inkscape:window-width="1568"
     inkscape:window-height="1550"
     id="namedview24021"
     showgrid="false"
     inkscape:zoom="0.62441667"
     inkscape:cx="712.66515"
     inkscape:cy="409.98265"
     inkscape:window-x="0"
     inkscape:window-y="0"
     inkscape:window-maximized="0"
     inkscape:current-layer="layer1" />
  <defs
     id="defs19118" />
  <metadata
     id="metadata19121">
    <rdf:RDF>
      <cc:Work
         rdf:about="">
        <dc:format>image/svg+xml</dc:format>
        <dc:type
           rdf:resource="http://purl.org/dc/dcmitype/StillImage" />
        <dc:title />
      </cc:Work>
    </rdf:RDF>
  </metadata>
  <g
     transform="translate(0,-197)"
     id="layer1"
     inkscape:groupmode="layer"
     inkscape:label="Layer 1">
    <g
       id="g24447"
       transform="matrix(0.26458333,0,0,0.26458333,0.10666333,197.9735)">

<polyline fill="none" points="192.1004,47.7394 189.7225,51.1455 187.3447,54.5516 184.9669,57.9577 184.9669,54.5516 184.9669,51.1455 184.9669,47.7394 184.9669,45.7676 186.5623,44.1729 188.5334,44.1729 190.5231,44.1729 192.1004,45.7676 192.1004,47.7394 192.1004,51.1455 192.1004,54.5516 192.1004,57.9577 192.1004,59.9295 190.5231,61.5235 188.5509,61.5235 186.5623,61.5235 184.9669,59.9295 184.9669,57.9577" stroke="black" stroke-width="1" /><polyline fill="none" points="197.8298,61.5877 200.7471,57.7851 198.696,53.7706 202.935,62.0679 200.7471,57.7851 203.4811,54.2207" stroke="black" stroke-width="1" /><polyline fill="none" points="211.4702,49.377 211.8028,47.625 213.5622,46.3532 215.4662,46.7146 217.3691,47.0757 218.574,48.8236 218.1968,50.811 218.1371,51.1253 218.0775,51.4396 218.0178,51.7539 217.4424,54.7859 214.7019,54.789 214.3643,54.7249 214.0388,54.6631 213.7133,54.6013 213.3878,54.5396 213.7133,54.6013 214.0388,54.6631 214.3643,54.7249 215.3588,54.9136 217.2575,56.4958 216.81,58.8534 216.6789,59.5442 216.5478,60.235 216.4167,60.9258 216.046,62.8792 214.1679,64.1285 212.2138,63.7576 210.2428,63.3836 208.9706,61.5364 209.3413,59.583" stroke="black" stroke-width="1" /><polyline fill="none" points="224.2171,52.3012 224.7646,50.4068 226.7393,49.3179 228.6336,49.8654 230.5447,50.4177 231.6572,52.4345 231.1097,54.3288 230.8952,55.071 230.6048,55.5213 230.2857,55.8228 227.0592,58.8756 223.8327,61.9283 220.6061,64.9811 220.5665,65.1182 220.5269,65.2552 220.4873,65.3922 222.7606,66.0492 225.0338,66.7061 227.3071,67.3631" stroke="black" stroke-width="1" /><polyline fill="none" points="241.2387,63.3757 241.2407,63.3706 241.2427,63.3655 241.2447,63.3604 240.3905,65.5298 239.5363,67.6992 238.6821,69.8686 238.2873,70.8712 238.8393,71.5331 239.3643,71.7398 238.6941,71.4759 238.3611,70.6838 238.632,69.9959 238.6487,69.9535 238.6654,69.911 238.6821,69.8686 237.3025,70.3756 235.839,70.5363 234.4515,69.99 233.3027,69.5376 231.6623,68.228 232.5856,65.8832 233.0694,64.6546 234.0626,64.1432 235.215,64.1187 235.7749,64.0993 237.4111,64.3931 238.5133,64.5876 239.638,64.7729 240.7549,64.6043 241.2387,63.3757 241.7286,62.1315 241.0583,60.1364 239.1441,59.3827 237.341,58.6727 236.1662,59.2231 235.3191,59.8292" stroke="black" stroke-width="1" /><polyline fill="none" points="255.3459,60.7562 254.4596,60.3071 253.4539,60.4707 252.8806,61.6024 252.3254,62.6984 251.7702,63.7944 251.215,64.8904 251.7552,65.1641 252.2955,65.4378 252.8357,65.7114 251.7957,65.1846 250.7556,64.6577 249.7156,64.1309 250.2154,64.384 250.7152,64.6372 251.215,64.8904 249.508,68.2601 247.801,71.6298 246.0939,74.9995" stroke="black" stroke-width="1" /><polyline fill="none" points="260.6272,67.5723 261.679,65.9044 263.8784,65.4066 265.5463,66.4585 267.2289,67.5197 267.7377,69.766 266.6858,71.4339 266.2737,72.0873 265.8697,72.4393 265.4794,72.6403 261.5322,74.6773 257.5849,76.7143 253.6376,78.7512 253.5616,78.8718 253.4855,78.9925 253.4094,79.1131 255.4109,80.3754 257.4124,81.6377 259.4138,82.9" stroke="black" stroke-width="1" /><polyline fill="none" points="272.7293,75.5074 276.8971,74.4541 266.434,88.0348" stroke="black" stroke-width="1" /><polyline fill="none" points="282.144,83.0788 283.3599,81.7743 285.5265,81.6371 286.9442,82.9584 288.3611,84.279 288.4478,86.4002 287.0685,87.88 286.8505,88.114 286.6324,88.348 286.4142,88.582 284.3101,90.8397 281.9904,89.3803 281.7391,89.146 281.4967,88.9201 281.2544,88.6942 281.012,88.4683 281.2544,88.6942 281.4967,88.9201 281.7391,89.146 282.4796,89.8361 283.2415,92.1873 281.6054,93.9427 281.126,94.4571 280.6466,94.9715 280.1672,95.4858 278.8116,96.9403 276.5566,96.9951 275.1016,95.639 273.634,94.2712 273.5433,92.0301 274.899,90.5757" stroke="black" stroke-width="1" /><polyline fill="none" points="291.6044,92.311 292.937,91.126 295.107,91.1924 296.3947,92.6406 297.6817,94.0881 297.5694,96.2081 296.0576,97.5522 295.8186,97.7648 295.5795,97.9773 295.3405,98.1899 293.0341,100.2406 290.8614,98.5704 290.6331,98.3136 290.4129,98.066 290.1927,97.8184 289.9726,97.5708 290.1927,97.8184 290.4129,98.066 290.6331,98.3136 291.3056,99.0701 291.8441,101.4822 290.0508,103.0768 289.5253,103.544 288.9998,104.0112 288.4744,104.4784 286.9885,105.7995 284.7383,105.643 283.4167,104.1565 282.0837,102.6573 282.2032,100.4176 283.6891,99.0965" stroke="black" stroke-width="1" /><polyline fill="none" points="304.1183,108.1327 299.9655,108.2306 295.8127,108.3284 291.6599,108.4262 294.4061,106.4112 297.1523,104.3963 299.8984,102.3814 301.4882,101.2149 303.7177,101.5578 304.8838,103.147 306.0609,104.7513 305.7082,106.9662 304.1183,108.1327 301.3722,110.1477 298.626,112.1626 295.8799,114.1776 294.2901,115.344 292.0719,115.0154 290.9052,113.4253 289.7288,111.8219 290.0701,109.5927 291.6599,108.4262" stroke="black" stroke-width="1" /><polyline fill="none" points="302.6975,116.1122 304.4043,115.0909 306.564,115.696 307.5415,117.3295 308.5186,118.9624 308.0226,121.1376 306.3158,122.1589 305.0212,122.9336 303.7267,123.7082 302.4321,124.4829 300.7256,125.504 298.5737,124.9133 297.5966,123.2804 296.6191,121.6468 297.116,119.4716 298.8224,118.4505 298.8196,118.4457 298.8167,118.4409 298.8138,118.4361 302.7565,116.0768 306.6993,113.7176 310.642,111.3583" stroke="black" stroke-width="1" /><polyline fill="none" points="317.076,131.1004 312.9778,130.4222 308.8796,129.7439 304.7813,129.0657 307.855,127.5981 310.9287,126.1306 314.0024,124.663 315.7819,123.8134 317.9084,124.5661 318.7577,126.3449 319.6149,128.1404 318.8554,130.2508 317.076,131.1004 314.0023,132.5679 310.9286,134.0355 307.8549,135.5031 306.0755,136.3527 303.9575,135.6161 303.1077,133.8364 302.2509,132.0418 303.0019,129.9153 304.7813,129.0657" stroke="black" stroke-width="1" /><polyline fill="none" points="320.4745,136.1614 322.6959,135.3464 325.1473,142.0275 307.3338,143.2482" stroke="black" stroke-width="1" /><polyline fill="none" points="314.0455,158.9797 313.0139,158.6313 311.9383,158.1172 311.3959,156.061 310.9104,154.2203 311.9869,152.252 313.9602,151.7315 315.4023,151.3512 316.8443,150.9708 318.2863,150.5905 320.2095,150.0832 322.1161,151.2646 322.6016,153.1053 323.0959,154.9791 322.0287,156.98 320.1055,157.4873 319.3873,157.6768 318.6691,157.8662 317.9509,158.0556 317.346,155.7622 316.741,153.4688 316.1361,151.1753" stroke="black" stroke-width="1" /><polyline fill="none" points="317.9472,170.5722 315.9853,170.897 314.1994,169.559 313.8884,167.6813 313.5775,165.8036 314.834,163.9447 316.7958,163.6198 318.2842,163.3733 319.7726,163.1269 321.2609,162.8804 323.2232,162.5554 325.0111,163.9102 325.3221,165.7879 325.633,167.6656 324.3745,169.5078 322.4123,169.8327" stroke="black" stroke-width="1" /><polyline fill="none" points="328.8806,175.2283 330.6594,175.103 332.3379,176.4799 332.4741,178.4131 332.6102,180.3451 331.2274,181.956 329.2095,182.0981 328.8904,182.1206 328.5713,182.1431 328.2522,182.1656 325.1736,182.3825 324.4718,179.7334 324.4477,179.3906 324.4244,179.0601 324.4011,178.7296 324.3778,178.3991 324.4011,178.7296 324.4244,179.0601 324.4477,179.3906 324.5188,180.4003 323.4732,182.6397 321.0794,182.8084 320.378,182.8578 319.6766,182.9072 318.9753,182.9566 316.9919,183.0964 315.3049,181.599 315.1652,179.6149 315.0242,177.6137 316.4858,175.9125 318.4691,175.7728" stroke="black" stroke-width="1" /><polyline fill="none" points="324.1332,194.9099 324.1387,194.91 324.1442,194.9101 324.1497,194.9102 321.8188,194.8556 319.4879,194.8009 317.157,194.7463 316.0798,194.721 315.6486,195.4672 315.6354,196.0314 315.6523,195.3112 316.2812,194.7257 317.0203,194.7431 317.0659,194.7441 317.1115,194.7452 317.157,194.7463 316.2059,193.6258 315.5508,192.3072 315.5858,190.8164 315.6147,189.5821 316.2791,187.591 318.7985,187.6501 320.1186,187.681 320.9407,188.4373 321.3607,189.5107 321.5718,190.0297 321.8596,191.667 322.0567,192.7687 322.2701,193.8884 322.8132,194.8789 324.1332,194.9099 325.47,194.9412 327.1121,193.6246 327.1603,191.568 327.2058,189.6306 326.2844,188.7173 325.4236,188.1309" stroke="black" stroke-width="1" /><polyline fill="none" points="316.1313,207.0298 315.2992,206.3276 314.4867,205.4552 314.7354,203.3432 314.958,201.4527 316.6808,200.0157 318.7076,200.2543 320.1887,200.4288 321.6699,200.6032 323.151,200.7776 325.1263,201.0102 326.4675,202.8081 326.2448,204.6986 326.0182,206.6233 324.2921,208.094 322.3168,207.8614 321.5791,207.7746 320.8414,207.6877 320.1038,207.6008 320.3812,205.2452 320.6586,202.8896 320.936,200.534" stroke="black" stroke-width="1" /><polyline fill="none" points="328.9819,221.5707 329.4117,219.5641 329.8415,217.5575 330.2712,215.5509 327.6279,214.9847 324.9846,214.4185 322.3412,213.8524 323.395,214.7443 323.8853,215.8143 323.5729,217.2727 323.142,219.2847 321.1482,220.4881 319.2878,220.0896 317.9578,219.8048 316.6278,219.5199 315.2978,219.235 313.3532,218.8185 312.262,216.9543 312.6535,215.1264 313.0413,213.3159 314.7968,212.079 316.7413,212.4955" stroke="black" stroke-width="1" /><polyline fill="none" points="325.4485,233.5773 325.7467,232.6295 325.4211,231.6641 324.2109,231.2834 323.0389,230.9147 321.8669,230.546 320.6949,230.1773 320.5132,230.755 320.3315,231.3327 320.1497,231.9104 320.4996,230.7983 320.8494,229.6861 321.1993,228.574 321.0312,229.1084 320.8631,229.6429 320.6949,230.1773 317.0916,229.0438 313.4883,227.9102 309.885,226.7767" stroke="black" stroke-width="1" /><polyline fill="none" points="320.2999,247.6393 316.0654,245.8561 311.8308,244.073 307.5963,242.2898 305.7632,241.5179 304.9731,239.4185 305.7119,237.664 306.4438,235.9257 308.4979,235.0235 310.331,235.7955 311.7214,236.381 313.1118,236.9664 314.5021,237.5519 316.3353,238.3238 317.1245,240.4233 316.3925,242.1616 315.6537,243.916 313.6005,244.8182 311.7674,244.0463" stroke="black" stroke-width="1" /><polyline fill="none" points="309.2538,249.3242 311.0066,250.2643 311.5963,252.4284 310.6964,254.1059 309.797,255.7828 307.6757,256.4741 305.9229,255.5339 304.5935,254.8208 303.2641,254.1077 301.9346,253.3946 300.1822,252.4546 299.5841,250.3047 300.4836,248.6277 301.3834,246.9502 303.5051,246.2596 305.2576,247.1996 305.2602,247.1947 305.2628,247.1898 305.2655,247.1848 309.3145,249.3567 313.3634,251.5285 317.4124,253.7004" stroke="black" stroke-width="1" /><polyline fill="none" points="303.7753,269.3585 302.253,265.4935 300.7307,261.6286 299.2083,257.7636 302.0459,259.6476 304.8835,261.5316 307.7211,263.4156 309.3638,264.5063 309.8099,266.7175 308.7196,268.3597 307.619,270.0173 305.4181,270.4492 303.7753,269.3585 300.9377,267.4745 298.1002,265.5905 295.2626,263.7065 293.6199,262.6158 293.1643,260.4201 294.2552,258.7771 295.3552,257.1204 297.5656,256.6729 299.2083,257.7636" stroke="black" stroke-width="1" /><polyline fill="none" points="301.1775,274.8735 303.0175,276.3611 298.5432,281.8953 288.3488,267.2362" stroke="black" stroke-width="1" /><polyline fill="none" points="283.3497,285.6648 283.3536,285.6686 283.3575,285.6725 283.3614,285.6763 281.6936,284.0471 280.0257,282.4179 278.3579,280.7887 277.5871,280.0358 276.7629,280.2877 276.3686,280.6913 276.8719,280.176 277.7312,280.1765 278.26,280.6931 278.2927,280.725 278.3253,280.7569 278.3579,280.7887 278.426,279.3205 278.8459,277.9093 279.8879,276.8427 280.7506,275.9594 282.5942,274.9558 284.397,276.7168 285.3415,277.6395 285.4273,278.7533 285.0027,279.8248 284.8032,280.3485 283.8975,281.7424 283.2905,282.6827 282.6832,283.6473 282.4051,284.7422 283.3497,285.6648 284.3062,286.5992 286.4051,286.7557 287.8426,285.2841 289.1968,283.8978 289.1454,282.6014 288.9156,281.5856" stroke="black" stroke-width="1" /><polyline fill="none" points="282.2455,293.8309 283.3989,295.191 283.2817,297.3588 281.8037,298.6122 280.3265,299.8649 278.2097,299.703 276.9013,298.1602 276.6945,297.9162 276.4875,297.6722 276.2807,297.4282 274.2846,295.0744 276.0052,292.9414 276.2673,292.7192 276.52,292.5049 276.7727,292.2906 277.0254,292.0764 276.7727,292.2906 276.52,292.5049 276.2673,292.7192 275.4953,293.3738 273.0712,293.8556 271.5192,292.0254 271.0644,291.4891 270.6096,290.9529 270.1549,290.4166 268.8689,288.9002 269.0782,286.6543 270.5952,285.3679 272.1252,284.0703 274.3615,284.2423 275.6475,285.7588" stroke="black" stroke-width="1" /><polyline fill="none" points="271.9703,302.1466 272.9912,303.6087 272.6715,305.756 271.0826,306.8655 269.4946,307.9744 267.4023,307.6149 266.2442,305.9563 266.061,305.6941 265.8779,305.4318 265.6948,305.1695 263.9279,302.6392 265.8407,300.6766 266.1224,300.4799 266.3941,300.2903 266.6657,300.1006 266.9374,299.9109 266.6657,300.1006 266.3941,300.2903 266.1224,300.4799 265.2925,301.0594 262.834,301.3121 261.4601,299.3445 261.0576,298.7681 260.655,298.1916 260.2525,297.6151 259.1141,295.9849 259.5328,293.7685 261.1636,292.6297 262.8084,291.4812 265.0188,291.8619 266.1571,293.4921" stroke="black" stroke-width="1" /><polyline fill="none" points="254.7935,312.7243 255.1821,308.5885 255.5706,304.4528 255.9592,300.317 257.6391,303.28 259.3191,306.243 260.999,309.2059 261.9716,310.9213 261.3702,313.0954 259.6555,314.0676 257.9246,315.049 255.7661,314.4396 254.7935,312.7243 253.1136,309.7613 251.4337,306.7983 249.7537,303.8354 248.7812,302.1201 249.367,299.9555 251.0827,298.9828 252.8126,298.002 254.9866,298.6017 255.9592,300.317" stroke="black" stroke-width="1" /><polyline fill="none" points="244.5941,321.6245 242.7122,317.4329 240.8303,313.2413 238.9483,309.0497 238.1336,307.2352 238.9871,305.1607 240.7237,304.381 242.4444,303.6085 244.5621,304.3489 245.3768,306.1635 245.9947,307.5397 246.6126,308.916 247.2305,310.2923 248.0452,312.1068 247.1911,314.1808 245.4705,314.9533 243.7338,315.733 241.6167,314.993 240.8021,313.1785" stroke="black" stroke-width="1" /><polyline fill="none" points="231.8817,326.2922 230.4005,321.9428 228.9194,317.5934 227.4382,313.244 226.797,311.3612 227.841,309.3758 229.643,308.7621 231.4284,308.1541 233.4675,309.0896 234.1087,310.9725 234.595,312.4005 235.0813,313.8286 235.5677,315.2567 236.2088,317.1395 235.1643,319.1244 233.3789,319.7324 231.5769,320.3461 229.5384,319.4111 228.8972,317.5283" stroke="black" stroke-width="1" /><polyline fill="none" points="216.8798,323.3037 216.4217,321.3858 217.5862,319.4689 219.5041,319.0108 221.4386,318.5488 223.3593,319.7289 223.8174,321.6468 224.0537,322.6362 224.29,323.6257 224.5264,324.6152 224.9844,326.5331 223.8045,328.4544 221.8863,328.9126 219.952,329.3746 218.0468,328.1901 217.5887,326.2722 216.7975,322.9593 216.0062,319.6464 215.215,316.3335 214.757,314.4159 215.9214,312.4986 217.8393,312.0405 219.4901,311.6463 221.129,312.4537 221.8626,313.9005" stroke="black" stroke-width="1" /><polyline fill="none" points="203.1345,316.6365 203.6012,315.6527 204.2375,314.6446 206.343,314.3464 208.2279,314.0795 210.0568,315.3788 210.3429,317.3995 210.552,318.8761 210.7611,320.3527 210.9702,321.8293 211.249,323.7987 209.8527,325.554 207.9679,325.8209 206.0491,326.0927 204.1867,324.7988 203.9079,322.8294 203.8037,322.094 203.6996,321.3586 203.5955,320.6231 205.9439,320.2906 208.2923,319.958 210.6408,319.6255" stroke="black" stroke-width="1" /><polyline fill="none" points="191.0713,317.4438 191.628,316.5081 192.356,315.564 194.4802,315.4643 196.3818,315.3751 198.0809,316.84 198.1766,318.8785 198.2465,320.3682 198.3164,321.8579 198.3863,323.3477 198.4795,325.3345 196.925,326.9513 195.0234,327.0405 193.0876,327.1314 191.3546,325.6688 191.2614,323.682 191.2265,322.94 191.1917,322.1981 191.1569,321.4561 193.5262,321.345 195.8954,321.2338 198.2647,321.1226" stroke="black" stroke-width="1" /><polyline fill="none" points="178.9188,318.8311 179.012,316.8446 180.6944,315.3786 182.5956,315.4678 184.4968,315.557 186.0513,317.1749 185.9581,319.1614 185.8874,320.6683 185.8167,322.1753 185.7459,323.6823 185.6527,325.6691 183.9536,327.1336 182.0524,327.0444 180.1512,326.9552 178.6134,325.3387 178.7067,323.352" stroke="black" stroke-width="1" /><polyline fill="none" points="165.1999,327.3654 168.0318,324.3264 170.8637,321.2873 173.6956,318.2483 173.218,321.6207 172.7405,324.9932 172.2629,328.3656 171.9865,330.3179 170.1832,331.6732 168.2315,331.3969 166.2615,331.1179 164.9234,329.3178 165.1999,327.3654 165.6775,323.993 166.155,320.6205 166.6326,317.2481 166.909,315.2958 168.6941,313.9387 170.6469,314.2151 172.6158,314.494 173.972,316.2959 173.6956,318.2483" stroke="black" stroke-width="1" /><polyline fill="none" points="156.3866,311.555 155.3869,315.7407 161.3248,317.1588 152.8376,328.3334" stroke="black" stroke-width="1" /><polyline fill="none" points="144.5629,317.4551 143.0625,316.837 140.9133,317.6887 140.2805,319.5471 140.1332,319.9797 139.9859,320.4122 139.8386,320.8447 139.2415,322.5981 140.1846,324.5129 141.9542,325.1155 143.7072,325.7125 145.6334,324.7382 146.2193,323.0176 146.3666,322.5851 146.5139,322.1526 146.6612,321.72 147.2584,319.9664 146.3159,318.0521 144.5629,317.4551 142.6314,316.7974 141.6565,314.7087 142.2919,312.8428 142.5093,312.2043 142.7268,311.5659 142.9442,310.9275 143.5797,309.0612 145.6159,308.0334 147.5474,308.6912 149.4626,309.3434 150.4473,311.4 149.8118,313.2662 149.5907,313.9152 149.3697,314.5642 149.1487,315.2133 148.6039,316.8131 146.6839,318.0703" stroke="black" stroke-width="1" /><polyline fill="none" points="131.8343,306.2581 132.6488,304.444 134.7514,303.6963 136.4877,304.4758 138.224,305.2554 139.0776,307.3304 138.2631,309.1445 137.6452,310.5208 137.0273,311.8971 136.4094,313.2733 135.5947,315.0879 133.4771,315.828 131.7408,315.0484 130.0045,314.2689 129.1659,312.2014 129.9806,310.387" stroke="black" stroke-width="1" /><polyline fill="none" points="121.9077,312.7912 121.0282,314.3425 118.9527,314.9792 117.2668,314.0234 115.582,313.0681 115.0048,311.0251 116.0026,309.2653 116.1603,308.9871 116.3181,308.7088 116.4759,308.4305 117.998,305.7458 120.5932,306.6264 120.8921,306.7959 121.1803,306.9593 121.4685,307.1227 121.7568,307.2861 121.4685,307.1227 121.1803,306.9593 120.8921,306.7959 120.0116,306.2967 118.7243,304.1868 119.9079,302.0993 120.2547,301.4877 120.6014,300.876 120.9482,300.2644 121.9289,298.5347 124.1094,297.9576 125.8397,298.9386 127.5848,299.9281 128.1937,302.0867 127.213,303.8163" stroke="black" stroke-width="1" /><polyline fill="none" points="111.8411,292.2137 112.8533,291.8123 114.0062,291.5087 115.7497,292.7261 117.3105,293.816 117.7625,296.0134 116.5941,297.6866 115.7403,298.9094 114.8865,300.1322 114.0326,301.3549 112.8939,302.9857 110.6757,303.3177 109.1149,302.2279 107.526,301.1184 107.0458,298.9022 108.1845,297.2714 108.6097,296.6624 109.035,296.0534 109.4602,295.4444 111.4049,296.8023 113.3496,298.1602 115.2943,299.5182" stroke="black" stroke-width="1" /><polyline fill="none" points="100.3715,292.3906 99.2018,291.2657 96.8901,291.2708 95.6203,292.7681 95.3248,293.1166 95.0293,293.4651 94.7338,293.8136 93.5358,295.2263 93.7118,297.3535 95.1375,298.5626 96.5499,299.7603 98.6992,299.5594 99.8747,298.1732 100.1702,297.8247 100.4658,297.4763 100.7613,297.1277 101.9595,295.7148 101.7838,293.5883 100.3715,292.3906 98.8152,291.0709 98.6734,288.7703 99.9483,287.2669 100.3845,286.7526 100.8207,286.2382 101.2569,285.7238 102.532,284.2202 104.8032,284.0098 106.3594,285.3295 107.9025,286.6381 108.0652,288.9124 106.7901,290.416 106.3467,290.939 105.9032,291.4619 105.4598,291.9848 104.3667,293.2738 102.1197,293.7401" stroke="black" stroke-width="1" /><polyline fill="none" points="95.4209,284.3969 94.0103,285.7748 91.755,285.7486 90.3776,284.3386 88.9872,282.9152 89.0262,280.6724 90.4367,279.2945 91.1643,278.5838 91.8918,277.8731 92.6194,277.1624 94.0299,275.7846 96.2725,275.7988 97.6629,277.2221 99.0403,278.6321 99.0141,280.887 97.6035,282.2648 95.167,284.6449 92.7305,287.025 90.2939,289.405 88.8836,290.7827 86.6285,290.7562 85.2512,289.3462 84.0645,288.1313 83.9163,286.3114 84.7808,284.9392" stroke="black" stroke-width="1" /><polyline fill="none" points="81.2405,279.7208 79.7071,280.9606 77.4647,280.7228 76.225,279.1895 74.9742,277.6425 75.2168,275.3521 76.7502,274.1123 77.3509,273.6266 77.8468,273.4236 78.281,273.3591 82.6742,272.7034 87.0674,272.0476 91.4606,271.3918 91.5715,271.3022 91.6824,271.2125 91.7933,271.1229 90.3056,269.2827 88.8179,267.4426 87.3302,265.6025" stroke="black" stroke-width="1" /><polyline fill="none" points="72.9279,269.2832 71.4423,270.2696 69.303,269.8997 68.2311,268.2852 67.1598,266.6716 67.5681,264.5883 69.2534,263.4694 69.5199,263.2924 69.7864,263.1155 70.0529,262.9385 72.624,261.2314 74.5411,263.1898 74.7312,263.476 74.9145,263.752 75.0977,264.028 75.281,264.3041 75.0977,264.028 74.9145,263.752 74.7312,263.476 74.1713,262.6328 73.9764,260.1689 75.9756,258.8416 76.5613,258.4527 77.1471,258.0638 77.7328,257.6748 79.3893,256.575 81.5953,257.0456 82.6955,258.7026 83.8051,260.3739 83.3728,262.5747 81.7163,263.6745" stroke="black" stroke-width="1" /><polyline fill="none" points="60.5586,254.9671 61.0283,255.8427 61.9465,256.2844 63.0644,255.6847 64.1471,255.1039 65.2298,254.5232 66.3125,253.9424 66.0262,253.4088 65.7399,252.8751 65.4537,252.3414 66.0048,253.3688 66.5559,254.3962 67.107,255.4236 66.8421,254.9299 66.5773,254.4362 66.3125,253.9424 69.6412,252.1569 72.97,250.3714 76.2987,248.5858" stroke="black" stroke-width="1" /><polyline fill="none" points="65.2813,244.1618 63.4482,244.9337 61.3947,244.0317 60.6559,242.2772 59.9174,240.5235 60.7135,238.4393 62.5466,237.6674 63.937,237.0819 65.3274,236.4964 66.7177,235.9109 68.5505,235.1392 70.5984,236.0257 71.3369,237.7795 72.0756,239.534 71.2787,241.6181 69.446,242.3898 69.4481,242.395 69.4503,242.4001 69.4525,242.4053 65.2179,244.1885 60.9834,245.9716 56.7488,247.7548" stroke="black" stroke-width="1" /><polyline fill="none" points="55.2773,234.0801 53.3963,234.6718 51.3969,233.6291 50.8052,231.7481 50.2082,229.8504 51.273,227.8081 53.154,227.2164 53.8909,226.9846 54.4267,226.9774 54.8544,227.0765 59.1824,228.0759 63.5103,229.0753 67.8383,230.0747 67.9743,230.0319 68.1104,229.9891 68.2464,229.9463 67.5363,227.6891 66.8263,225.4319 66.1162,223.1747" stroke="black" stroke-width="1" /><polyline fill="none" points="53.068,213.7118 54.9961,213.2988 56.8852,214.5079 57.2982,216.436 57.7148,218.3809 56.49,220.2734 54.5619,220.6864 53.5672,220.8994 52.5724,221.1125 51.5777,221.3256 49.6496,221.7385 47.7564,220.5139 47.3433,218.5854 46.9268,216.6409 48.1557,214.764 50.0838,214.351 53.4143,213.6376 56.7449,212.9243 60.0754,212.2109 62.0032,211.798 63.8926,213.007 64.3056,214.9351 64.6611,216.5947 63.8154,218.2142 62.3519,218.9137" stroke="black" stroke-width="1" /><polyline fill="none" points="53.1978,204.4125 53.1091,202.7922 51.4146,201.2197 49.4648,201.4493 49.011,201.5028 48.5572,201.5562 48.1034,201.6097 46.2639,201.8263 44.9423,203.5024 45.1609,205.3589 45.3775,207.1981 47.0867,208.5166 48.8918,208.304 49.3456,208.2506 49.7993,208.1971 50.2531,208.1437 52.093,207.927 53.4144,206.2516 53.1978,204.4125 52.9592,202.3861 54.424,200.6064 56.3816,200.3759 57.0514,200.297 57.7212,200.2181 58.391,200.1392 60.349,199.9087 62.1538,201.3033 62.3924,203.3297 62.6291,205.3391 61.1975,207.1138 59.2395,207.3443 58.5586,207.4245 57.8777,207.5047 57.1968,207.5849 55.5183,207.7826 53.5565,206.5916" stroke="black" stroke-width="1" /><polyline fill="none" points="50.7422,188.017 52.7135,187.9708 54.344,189.5109 54.3902,191.4822 54.4369,193.4707 52.8807,195.1016 50.9094,195.1478 49.8923,195.1716 48.8753,195.1955 47.8583,195.2193 45.887,195.2656 44.2554,193.7094 44.2091,191.7377 44.1625,189.7496 45.7198,188.1348 47.6911,188.0886 51.0962,188.0087 54.5014,187.9289 57.9065,187.849 59.8775,187.8028 61.5084,189.3429 61.5546,191.3142 61.5944,193.011 60.4615,194.4444 58.8933,194.8588" stroke="black" stroke-width="1" /><polyline fill="none" points="47.6453,181.9586 45.8664,181.8333 44.3976,180.2346 44.5338,178.3015 44.6699,176.3694 46.2648,174.9683 48.2828,175.1105 48.6019,175.133 48.921,175.1555 49.2401,175.1779 52.3186,175.3948 52.6421,178.1162 52.618,178.4589 52.5947,178.7894 52.5714,179.1199 52.5481,179.4504 52.5714,179.1199 52.5947,178.7894 52.618,178.4589 52.6891,177.4492 54.0384,175.3785 56.4322,175.5471 57.1336,175.5966 57.8349,175.646 58.5363,175.6954 60.5197,175.8351 61.98,177.5542 61.8403,179.5383 61.6993,181.5395 60.0136,183.019 58.0302,182.8793" stroke="black" stroke-width="1" /><polyline fill="none" points="55.1052,163.137 55.0998,163.1361 55.0944,163.1352 55.089,163.1343 57.3892,163.5152 59.6893,163.8961 61.9895,164.2771 63.0526,164.4531 63.5842,163.7747 63.6763,163.218 63.5586,163.9287 62.8539,164.4202 62.1245,164.2994 62.0795,164.292 62.0345,164.2845 61.9895,164.2771 62.7742,165.5199 63.2379,166.9173 62.9943,168.3884 62.7925,169.6065 61.8555,171.4848 59.3693,171.0731 58.0667,170.8573 57.3587,169.9932 57.0933,168.8716 56.9571,168.328 56.9017,166.6666 56.861,165.5481 56.8066,164.4096 56.4079,163.3527 55.1052,163.137 53.786,162.9185 51.9755,163.9919 51.6394,166.0214 51.3228,167.9333 52.107,168.9668 52.8771,169.6681" stroke="black" stroke-width="1" /><polyline fill="none" points="56.9199,157.3916 54.9966,156.8843 53.9204,154.9164 54.4059,153.0757 54.8912,151.2357 56.7939,150.0706 58.7171,150.5779 60.1758,150.9627 61.6345,151.3474 63.0933,151.7322 65.0162,152.2394 66.0973,154.1915 65.612,156.0315 65.1265,157.8722 63.2232,159.0368 61.3004,158.5296 61.2989,158.535 61.2975,158.5404 61.2961,158.5458 56.8533,157.374 52.4106,156.2021 47.9678,155.0303" stroke="black" stroke-width="1" /><polyline fill="none" points="53.994,143.0607 51.7727,142.2457 54.2241,135.5645 68.5998,146.1548" stroke="black" stroke-width="1" /><polyline fill="none" points="67.3914,127.0984 67.3864,127.096 67.3815,127.0937 67.3765,127.0913 69.4805,128.0959 71.5845,129.1004 73.6885,130.105 74.6609,130.5693 75.3599,130.0652 75.6031,129.5559 75.2927,130.206 74.4791,130.4825 73.812,130.1639 73.7708,130.1443 73.7297,130.1246 73.6885,130.105 74.0973,131.5168 74.1547,132.988 73.5123,134.3336 72.9803,135.4478 71.5587,136.9921 69.2845,135.9063 68.0929,135.3374 67.6527,134.3107 67.7092,133.1595 67.7292,132.5995 68.1373,130.988 68.4087,129.9022 68.6726,128.7934 68.5829,127.6673 67.3914,127.0984 66.1847,126.5222 64.1474,127.0507 63.261,128.9072 62.426,130.656 62.8925,131.8666 63.4376,132.7541" stroke="black" stroke-width="1" /><polyline fill="none" points="73.6732,116.0274 73.6685,116.0246 73.6638,116.0218 73.6591,116.019 75.6598,117.2162 77.6605,118.4133 79.6612,119.6105 80.5858,120.1638 81.329,119.7274 81.6187,119.2431 81.2488,119.8613 80.413,120.0604 79.7786,119.6808 79.7394,119.6573 79.7003,119.6339 79.6612,119.6105 79.936,121.0544 79.8554,122.5245 79.0897,123.8041 78.4558,124.8635 76.8958,126.268 74.7333,124.974 73.6002,124.296 73.258,123.2325 73.4221,122.0917 73.4945,121.536 74.0516,119.9698 74.4236,118.9142 74.7901,117.8349 74.8063,116.7054 73.6732,116.0274 72.5258,115.3408 70.448,115.6762 69.3917,117.4415 68.3966,119.1045 68.7476,120.3534 69.2072,121.2881" stroke="black" stroke-width="1" /><polyline fill="none" points="87.5529,111.147 84.0833,108.6012 80.4718,113.5233 73.467,101.3646" stroke="black" stroke-width="1" /><polyline fill="none" points="86.704,97.9602 87.8559,96.8173 87.9051,94.5061 86.4379,93.2015 86.0964,92.8979 85.755,92.5943 85.4135,92.2907 84.0293,91.06 81.8985,91.186 80.6564,92.583 79.4259,93.9669 79.5763,96.1203 80.9346,97.328 81.276,97.6316 81.6175,97.9353 81.959,98.2389 83.3434,99.4698 85.4735,99.3441 86.704,97.9602 88.0598,96.4353 90.3631,96.3475 91.8361,97.6573 92.3401,98.1054 92.8441,98.5535 93.3482,99.0017 94.8215,100.3117 94.9785,102.5871 93.6227,104.112 92.2783,105.624 90.0008,105.7334 88.5275,104.4234 88.0151,103.9678 87.5027,103.5122 86.9904,103.0566 85.7274,101.9336 85.3138,99.6763" stroke="black" stroke-width="1" /><polyline fill="none" points="103.1419,91.8195 103.3225,92.8933 103.3779,94.0842 101.8223,95.534 100.4297,96.832 98.1864,96.8137 96.7949,95.3208 95.7781,94.2298 94.7613,93.1388 93.7445,92.0478 92.3884,90.5928 92.5283,88.3543 93.9208,87.0563 95.3385,85.735 97.6062,85.7297 98.9623,87.1847 99.4687,87.728 99.9751,88.2714 100.4816,88.8148 98.7465,90.4319 97.0114,92.0491 95.2763,93.6662" stroke="black" stroke-width="1" /><polyline fill="none" points="102.7457,72.418 101.1201,73.6704 99.4945,74.9229 97.8689,76.1753 99.5188,78.3167 101.1686,80.4582 102.8185,82.5997 102.5917,81.2379 102.9097,80.1046 104.0912,79.1944 105.7212,77.9386 108.0202,78.3103 109.1814,79.8174 110.0115,80.8949 110.8416,81.9724 111.6717,83.0499 112.8854,84.6252 112.512,86.7528 111.0312,87.8937 109.5645,89.0237 107.4255,88.8317 106.2118,87.2563" stroke="black" stroke-width="1" /><polyline fill="none" points="110.4498,71.3079 109.3979,69.64 109.8962,67.4408 111.5641,66.3889 113.2467,65.3277 115.4931,65.8364 116.545,67.5043 116.9571,68.1577 117.1006,68.6739 117.1139,69.1127 117.2514,73.5525 117.3888,77.9922 117.5263,82.4319 117.6023,82.5525 117.6784,82.6732 117.7545,82.7938 119.756,81.5315 121.7575,80.2692 123.7589,79.007" stroke="black" stroke-width="1" /><polyline fill="none" points="126.9543,66.9598 128.4449,66.3184 129.3374,64.1859 128.4502,62.4345 128.2437,62.027 128.0372,61.6193 127.8307,61.2117 126.9937,59.5594 124.9649,58.896 123.2973,59.7408 121.6453,60.5777 120.9963,62.6364 121.8177,64.2578 122.0241,64.6654 122.2306,65.073 122.4371,65.4806 123.2743,67.1332 125.3023,67.7967 126.9543,66.9598 128.7745,66.0377 130.9498,66.7999 131.8406,68.5583 132.1453,69.1599 132.4501,69.7615 132.7549,70.3632 133.6458,72.1219 132.9583,74.2967 131.1381,75.2187 129.3331,76.1331 127.174,75.4004 126.283,73.6417 125.9732,73.03 125.6634,72.4184 125.3535,71.8068 124.5898,70.2992 125.0321,68.0472" stroke="black" stroke-width="1" /><polyline fill="none" points="140.2781,56.2081 139.3136,60.2485 138.349,64.2889 137.3844,68.3293 136.1365,65.1601 134.8886,61.9909 133.6407,58.8216 132.9182,56.9869 133.8184,54.9186 135.6525,54.1964 137.5039,53.4674 139.5557,54.3734 140.2781,56.2081 141.526,59.3773 142.774,62.5465 144.0219,65.7158 144.7443,67.5505 143.8608,69.6115 142.0257,70.3341 140.1754,71.0627 138.1069,70.1641 137.3844,68.3293" stroke="black" stroke-width="1" /><polyline fill="none" points="146.1213,54.0125 145.6262,52.2993 146.6211,50.3697 148.4828,49.8317 150.3435,49.2939 152.2083,50.3087 152.7699,52.252 152.8587,52.5594 152.9475,52.8667 153.0363,53.174 153.8932,56.1388 151.4498,57.38 151.1198,57.4753 150.8015,57.5673 150.4832,57.6593 150.1649,57.7513 150.4832,57.6593 150.8015,57.5673 151.1198,57.4753 152.0921,57.1943 154.5009,57.7477 155.1672,60.0531 155.3624,60.7286 155.5576,61.404 155.7528,62.0795 156.3048,63.9896 155.194,65.9528 153.2832,66.505 151.3559,67.062 149.3863,65.9891 148.8343,64.079" stroke="black" stroke-width="1" /><polyline fill="none" points="166.3607,54.5324 166.3597,54.5271 166.3586,54.5217 166.3576,54.5163 166.7924,56.8069 167.2271,59.0975 167.6618,61.3882 167.8627,62.4468 168.6827,62.7122 169.2371,62.6069 168.5293,62.7413 167.8252,62.2489 167.6873,61.5226 167.6788,61.4778 167.6703,61.433 167.6618,61.3882 166.7654,62.5529 165.6132,63.4696 164.1482,63.7476 162.9352,63.9778 160.8491,63.7452 160.3792,61.2693 160.133,59.9721 160.7003,59.0097 161.6619,58.3743 162.1252,58.0591 163.6659,57.4348 164.702,57.0113 165.752,56.5681 166.6069,55.8297 166.3607,54.5324 166.1113,53.2187 164.4801,51.8888 162.4589,52.2724 160.555,52.6337 159.8549,53.7259 159.4618,54.6905" stroke="black" stroke-width="1" /><polyline fill="none" points="148.6495,259.8532 268.4255,140.8637 268.4255,140.8637 140.3048,268.1431 250.763,172.1919 140.3048,268.1431 280.8196,188.8365 140.8637,108.5745 236.1363,268.4255 158.7145,203.9175" stroke="black" stroke-width="1" /><polyline fill="none" points="147.4204,217.4725 170.0086,190.3624" stroke="black" stroke-width="1" /><polyline fill="none" points="152.0672,268.1431 151.9224,266.303 151.4915,264.5083 150.7852,262.803 149.8208,261.2293 148.6221,259.8258 147.2186,258.6271 145.6449,257.6627 143.9396,256.9564 142.1449,256.5255 140.3048,256.3807 138.4648,256.5255 136.6701,256.9564 134.9648,257.6627 133.3911,258.6271 131.9876,259.8258 130.7889,261.2293 129.8245,262.803 129.1181,264.5083 128.6873,266.303 128.5424,268.1431 128.6873,269.9831 129.1181,271.7779 129.8245,273.4831 130.7889,275.0568 131.9876,276.4604 133.3911,277.6591 134.9648,278.6234 136.6701,279.3298 138.4648,279.7607 140.3048,279.9055 142.1449,279.7607 143.9396,279.3298 145.6449,278.6234 147.2186,277.6591 148.6221,276.4604 149.8208,275.0568 150.7852,273.4831 151.4915,271.7779 151.9224,269.9831 152.0672,268.1431" stroke="black" stroke-width="1" /><polyline fill="none" points="188.5,69.0664 199.6839,69.5912 210.7696,71.161 221.6595,73.7619 232.2581,77.3712 242.4721,81.9571 252.2118,87.4792 261.3915,93.8892 269.9308,101.1306 277.7544,109.1398 284.7936,117.8464 290.9866,127.1739 296.2789,137.0404 300.6241,147.3591 303.9839,158.0393 306.3289,168.9873 307.6383,180.1067 307.9008,191.2998 307.114,202.4684 305.2847,213.5142 302.4292,224.3402 298.5725,234.8512 293.7484,244.9549 287.9994,254.5625 281.376,263.5894 273.9365,271.9565 265.7461,279.5902 256.8768,286.4234 247.4067,292.3961 237.4188,297.4556 227.0011,301.5577 216.2451,304.6663 205.2452,306.7539 194.0981,307.8023 182.9019,307.8023 171.7548,306.7539 160.7549,304.6663 149.9989,301.5577 139.5811,297.4556 129.5933,292.3961 120.1232,286.4234 111.2539,279.5902 103.0635,271.9565 95.6239,263.5894 89.0006,254.5625 83.2516,244.9549 78.4275,234.8512 74.5708,224.3402 71.7153,213.5142 69.8861,202.4684 69.0992,191.2998 69.3617,180.1067 70.6712,168.9872 73.0161,158.0393 76.3759,147.3591 80.7211,137.0404 86.0134,127.174 92.2064,117.8464 99.2457,109.1398 107.0692,101.1306 115.6085,93.8892 124.7882,87.4792 134.5279,81.957 144.7419,77.3712 155.3405,73.7619 166.2304,71.161 177.3161,69.5912 188.5,69.0664" stroke="black" stroke-width="1" />

    </g>
  </g>
  <WCB
     pausedposy="0"
     pausedposx="0"
     lastknownposy="0"
     lastknownposx="0"
     lastpathnc="0"
     lastpath="0"
     node="0"
     layer="0" />
</svg>
