<?xml version="1.0" encoding="UTF-8" standalone="no"?>
<!-- Created with Inkscape (http://www.inkscape.org/) -->

<svg
   xmlns:dc="http://purl.org/dc/elements/1.1/"
   xmlns:cc="http://creativecommons.org/ns#"
   xmlns:rdf="http://www.w3.org/1999/02/22-rdf-syntax-ns#"
   xmlns:svg="http://www.w3.org/2000/svg"
   xmlns="http://www.w3.org/2000/svg"
   xmlns:sodipodi="http://sodipodi.sourceforge.net/DTD/sodipodi-0.dtd"
   xmlns:inkscape="http://www.inkscape.org/namespaces/inkscape"
   width="100mm"
   height="100mm"
   viewBox="0 0 100 100"
   version="1.1"
   id="svg19124"
   inkscape:version="0.92.3 (2405546, 2018-03-11)"
   sodipodi:docname="inkscape_template_TMP.svg"
   shape-rendering="crispEdges">
  <sodipodi:namedview
     pagecolor="#ffffff"
     bordercolor="#666666"
     borderopacity="1"
     objecttolerance="10"
     gridtolerance="10"
     guidetolerance="10"
     inkscape:pageopacity="0"
     inkscape:pageshadow="2"
     inkscape:window-width="1568"
     inkscape:window-height="1550"
     id="namedview24021"
     showgrid="false"
     inkscape:zoom="0.62441667"
     inkscape:cx="712.66515"
     inkscape:cy="409.98265"
     inkscape:window-x="0"
     inkscape:window-y="0"
     inkscape:window-maximized="0"
     inkscape:current-layer="layer1" />
  <defs
     id="defs19118" />
  <metadata
     id="metadata19121">
    <rdf:RDF>
      <cc:Work
         rdf:about="">
        <dc:format>image/svg+xml</dc:format>
        <dc:type
           rdf:resource="http://purl.org/dc/dcmitype/StillImage" />
        <dc:title />
      </cc:Work>
    </rdf:RDF>
  </metadata>
  <g
     transform="translate(0,-197)"
     id="layer1"
     inkscape:groupmode="layer"
     inkscape:label="Layer 1">
    <g
       id="g24447"
       transform="matrix(0.26458333,0,0,0.26458333,0.10666333,197.9735)">

<polyline fill="none" points="192.1004,47.7394 189.7225,51.1455 187.3447,54.5516 184.9669,57.9577 184.9669,54.5516 184.9669,51.1455 184.9669,47.7394 184.9669,45.7676 186.5623,44.1729 188.5334,44.1729 190.5231,44.1729 192.1004,45.7676 192.1004,47.7394 192.1004,51.1455 192.1004,54.5516 192.1004,57.9577 192.1004,59.9295 190.5231,61.5235 188.5509,61.5235 186.5623,61.5235 184.9669,59.9295 184.9669,57.9577" stroke="black" stroke-width="1" /><polyline fill="none" points="197.8298,61.5877 200.7471,57.7851 198.696,53.7706 202.935,62.0679 200.7471,57.7851 203.4811,54.2207" stroke="black" stroke-width="1" /><polyline fill="none" points="211.4702,49.377 211.8028,47.625 213.5622,46.3532 215.4662,46.7146 217.3691,47.0757 218.574,48.8236 218.1968,50.811 218.1371,51.1253 218.0775,51.4396 218.0178,51.7539 217.4424,54.7859 214.7019,54.789 214.3643,54.7249 214.0388,54.6631 213.7133,54.6013 213.3878,54.5396 213.7133,54.6013 214.0388,54.6631 214.3643,54.7249 215.3588,54.9136 217.2575,56.4958 216.81,58.8534 216.6789,59.5442 216.5478,60.235 216.4167,60.9258 216.046,62.8792 214.1679,64.1285 212.2138,63.7576 210.2428,63.3836 208.9706,61.5364 209.3413,59.583" stroke="black" stroke-width="1" /><polyline fill="none" points="224.397,52.1393 224.8921,50.4261 226.7629,49.3247 228.6247,49.8627 230.4854,50.4005 231.5213,52.2535 230.9597,54.1969 230.8709,54.5042 230.7821,54.8115 230.6933,55.1189 229.8364,58.0837 227.1077,57.8301 226.7776,57.7347 226.4593,57.6427 226.141,57.5507 225.8227,57.4587 226.141,57.5507 226.4593,57.6427 226.7776,57.7347 227.75,58.0157 229.4922,59.7687 228.8259,62.0741 228.6307,62.7496 228.4355,63.4251 228.2403,64.1005 227.6883,66.0107 225.7014,67.0786 223.7906,66.5264 221.8634,65.9694 220.7697,64.0112 221.3217,62.1011" stroke="black" stroke-width="1" /><polyline fill="none" points="237.08,55.0962 237.9469,52.8945 244.5687,55.502 233.6444,69.6254" stroke="black" stroke-width="1" /><polyline fill="none" points="250.1836,61.7836 254.0818,59.9716 246.3345,75.2651" stroke="black" stroke-width="1" /><polyline fill="none" points="258.5676,82.3664 260.8632,78.7265 255.6995,75.4698 267.3359,67.6278" stroke="black" stroke-width="1" /><polyline fill="none" points="278.8721,75.9757 277.2465,74.7233 275.6209,73.4709 273.9953,72.2185 272.3454,74.3599 270.6956,76.5014 269.0457,78.6429 270.3046,78.0762 271.4815,78.0948 272.663,79.005 274.293,80.2608 274.5199,82.5786 273.3587,84.0857 272.5286,85.1632 271.6985,86.2407 270.8684,87.3181 269.6547,88.8935 267.5021,89.075 266.0213,87.9342 264.5546,86.8042 264.1948,84.687 265.4085,83.1116" stroke="black" stroke-width="1" /><polyline fill="none" points="289.0119,84.9327 287.5107,83.5336 286.0096,82.1345 284.5084,80.7353 282.6653,82.7129 280.8221,84.6904 278.979,86.668 280.2854,86.2217 281.4554,86.3504 282.5465,87.3673 284.0517,88.7702 284.0606,91.099 282.7634,92.4908 281.836,93.4858 280.9086,94.4808 279.9813,95.4758 278.6254,96.9306 276.4653,96.9098 275.0978,95.6353 273.7434,94.3729 273.5834,92.2313 274.9393,90.7765" stroke="black" stroke-width="1" /><polyline fill="none" points="287.1973,96.0884 288.6837,94.7668 290.9185,94.9586 292.1833,96.3812 293.4478,97.8033 293.366,100.0328 291.8796,101.3545 290.7522,102.3569 289.6248,103.3593 288.4974,104.3618 287.0112,105.6832 284.7869,105.5041 283.5225,104.082 282.2576,102.6594 282.3401,100.4296 283.8262,99.1082 283.8225,99.1041 283.8188,99.0999 283.8151,99.0957 287.2487,96.0427 290.6824,92.9896 294.1161,89.9366" stroke="black" stroke-width="1" /><polyline fill="none" points="301.724,110.0284 300.1342,111.1949 297.9156,110.8656 296.7491,109.2758 295.5724,107.6722 295.9146,105.4441 297.5044,104.2776 298.3246,103.6758 299.1448,103.074 299.965,102.4722 301.5548,101.3057 303.7835,101.6474 304.9502,103.2375 306.1266,104.8409 305.7744,107.0565 304.1846,108.223 301.4384,110.2379 298.6923,112.2528 295.9461,114.2678 294.3566,115.4341 292.1377,115.105 290.9712,113.5152 289.9672,112.1468 290.0753,110.323 291.1239,109.0854" stroke="black" stroke-width="1" /><polyline fill="none" points="300.9137,125.2839 299.8259,125.2355 298.6498,125.0403 297.5579,123.2155 296.5804,121.582 297.0682,119.3922 298.8194,118.3443 300.0991,117.5785 301.3789,116.8128 302.6586,116.047 304.3654,115.0257 306.525,115.6313 307.5025,117.2648 308.4976,118.9278 308.0279,121.1463 306.3211,122.1676 305.6837,122.549 305.0464,122.9304 304.409,123.3118 303.1911,121.2765 301.9732,119.2412 300.7553,117.2058" stroke="black" stroke-width="1" /><polyline fill="none" points="307.8805,135.3373 306.0859,136.1941 303.9988,135.4045 303.1787,133.6869 302.3586,131.9694 303.0496,129.8347 304.8442,128.9779 306.2056,128.3279 307.567,127.6779 308.9284,127.0279 310.7233,126.1709 312.8171,126.976 313.6371,128.6935 314.4572,130.4111 313.7596,132.5302 311.9647,133.3872" stroke="black" stroke-width="1" /><polyline fill="none" points="314.1922,138.6749 316.0595,137.9898 318.0685,138.987 318.7242,140.7742 319.3797,142.5606 318.4868,144.6052 316.6195,145.2903 315.2032,145.81 313.787,146.3297 312.3707,146.8493 310.5037,147.5344 308.4997,146.5528 307.8442,144.7663 307.1884,142.9792 308.0822,140.9347 309.9491,140.2497 309.9472,140.2444 309.9453,140.2392 309.9433,140.2339 314.2568,138.6512 318.5703,137.0685 322.8838,135.4858" stroke="black" stroke-width="1" /><polyline fill="none" points="318.3056,150.6639 320.2288,150.1566 322.1356,151.3376 322.6212,153.1783 323.1065,155.0183 322.026,156.9702 320.1028,157.4775 318.6441,157.8623 317.1853,158.247 315.7266,158.6318 313.8037,159.139 311.9004,157.974 311.4151,156.1341 310.9296,154.2934 312.0108,152.3416 313.9337,151.8344 313.9323,151.829 313.9308,151.8236 313.9294,151.8182 318.3721,150.6463 322.8149,149.4745 327.2576,148.3026" stroke="black" stroke-width="1" /><polyline fill="none" points="327.9575,169.0549 324.2087,167.2655 320.4599,165.4761 316.7111,163.6867 320.0714,163.1302 323.4317,162.5737 326.792,162.0173 328.7374,161.6951 330.5713,163.0086 330.8934,164.9532 331.2184,166.9162 329.9028,168.7327 327.9575,169.0549 324.5972,169.6114 321.2369,170.1678 317.8766,170.7243 315.9312,171.0465 314.101,169.7509 313.7787,167.8052 313.4538,165.8432 314.7657,164.0089 316.7111,163.6867" stroke="black" stroke-width="1" /><polyline fill="none" points="323.0841,175.531 325.0682,175.3912 326.7213,176.907 326.8551,178.806 326.9888,180.7042 325.5634,182.4205 323.5793,182.5602 322.0744,182.6663 320.5695,182.7723 319.0646,182.8783 317.0809,183.0181 315.4282,181.5186 315.2944,179.6204 315.1606,177.7215 316.5869,176.0055 318.5706,175.8658 318.5702,175.8602 318.5698,175.8546 318.5694,175.849 323.1527,175.5261 327.736,175.2032 332.3194,174.8804" stroke="black" stroke-width="1" /><polyline fill="none" points="332.6845,194.7964 332.7326,192.7449 332.7807,190.6934 332.8289,188.6418 330.1263,188.5785 327.4237,188.5151 324.7211,188.4517 325.9227,189.1315 326.604,190.0914 326.569,191.5824 326.5208,193.6394 324.7863,195.1935 322.8843,195.1489 321.5245,195.1171 320.1647,195.0852 318.8049,195.0533 316.8168,195.0067 315.397,193.3786 315.4409,191.5098 315.4843,189.6588 316.9784,188.1162 318.9665,188.1628" stroke="black" stroke-width="1" /><polyline fill="none" points="328.8932,201.6364 330.6643,201.845 332.0566,203.5107 331.83,205.4354 331.6034,207.3589 329.9445,208.6837 327.9355,208.4471 327.6178,208.4097 327.3001,208.3723 326.9824,208.3349 323.9174,207.9739 323.7218,205.2404 323.762,204.8992 323.8008,204.5701 323.8395,204.2411 323.8782,203.912 323.8395,204.2411 323.8008,204.5701 323.762,204.8992 323.6436,205.9044 322.1988,207.9096 319.8156,207.629 319.1172,207.5467 318.4189,207.4645 317.7206,207.3823 315.746,207.1497 314.3678,205.3641 314.6005,203.3887 314.8351,201.3964 316.5883,199.9975 318.5629,200.23" stroke="black" stroke-width="1" /><polyline fill="none" points="328.9819,221.5707 329.4117,219.5641 329.8415,217.5575 330.2712,215.5509 327.6279,214.9847 324.9846,214.4185 322.3412,213.8524 323.395,214.7443 323.8853,215.8143 323.5729,217.2727 323.142,219.2847 321.1482,220.4881 319.2878,220.0896 317.9578,219.8048 316.6278,219.5199 315.2978,219.235 313.3532,218.8185 312.262,216.9543 312.6535,215.1264 313.0413,213.3159 314.7968,212.079 316.7413,212.4955" stroke="black" stroke-width="1" /><polyline fill="none" points="318.4774,225.7417 320.3747,226.3386 321.3576,228.3547 320.7863,230.1706 320.2153,231.9858 318.2601,233.0605 316.3628,232.4636 314.9237,232.0109 313.4846,231.5582 312.0455,231.1055 310.1485,230.5087 309.1601,228.508 309.7311,226.6928 310.3023,224.8769 312.2581,223.8028 314.1551,224.3996 314.1567,224.3942 314.1584,224.3889 314.1601,224.3835 318.543,225.7623 322.926,227.1411 327.3089,228.5199" stroke="black" stroke-width="1" /><polyline fill="none" points="316.8306,246.4462 314.6143,242.9329 312.398,239.4196 310.1817,235.9062 313.3208,237.2281 316.4599,238.55 319.599,239.8718 321.4163,240.6371 322.2669,242.7264 321.5019,244.543 320.7297,246.3768 318.6479,247.2115 316.8306,246.4462 313.6915,245.1243 310.5524,243.8025 307.4133,242.4806 305.5959,241.7153 304.739,239.6431 305.5044,237.8255 306.2762,235.9927 308.3644,235.141 310.1817,235.9062" stroke="black" stroke-width="1" /><polyline fill="none" points="314.6417,258.3222 315.1114,257.4466 314.9714,256.4374 313.8535,255.8377 312.7708,255.257 311.6881,254.6762 310.6054,254.0955 310.3192,254.6292 310.0329,255.1628 309.7466,255.6965 310.2977,254.6691 310.8488,253.6417 311.3999,252.6143 311.1351,253.108 310.8702,253.6017 310.6054,254.0955 307.2767,252.3099 303.9479,250.5244 300.6192,248.7389" stroke="black" stroke-width="1" /><polyline fill="none" points="301.1709,267.7636 299.5282,266.6729 299.0731,264.4767 300.1637,262.8339 301.2639,261.1769 303.4735,260.7307 305.1163,261.8214 305.9638,262.3841 306.8113,262.9467 307.6588,263.5095 309.3015,264.6002 309.7484,266.8102 308.6575,268.4532 307.5575,270.1099 305.3562,270.5424 303.7134,269.4517 300.8759,267.5677 298.0383,265.6837 295.2007,263.7997 293.5583,262.7092 293.1028,260.5128 294.1935,258.87 295.1323,257.4561 296.8817,256.9294 298.4048,257.4875" stroke="black" stroke-width="1" /><polyline fill="none" points="292.0316,276.356 292.0358,276.3595 292.0401,276.3629 292.0443,276.3663 290.2313,274.9005 288.4182,273.4346 286.6051,271.9688 285.7672,271.2913 284.9702,271.6193 284.6154,272.0581 285.0683,271.4979 285.9238,271.418 286.4987,271.8828 286.5342,271.9115 286.5696,271.9401 286.6051,271.9688 286.5355,270.5007 286.8214,269.0563 287.7589,267.8968 288.5351,266.9366 290.2766,265.7648 292.2363,267.3492 293.2631,268.1794 293.4529,269.2803 293.1304,270.3869 292.9809,270.9269 292.2096,272.3995 291.6934,273.3926 291.1791,274.4098 291.0048,275.5258 292.0316,276.356 293.0714,277.1967 295.1757,277.156 296.4691,275.5562 297.6875,274.0492 297.515,272.7634 297.191,271.7735" stroke="black" stroke-width="1" /><polyline fill="none" points="289.4678,291.8159 286.181,288.6053 282.8942,285.3947 279.6074,282.1841 278.1846,280.7942 278.2187,278.5513 279.5489,277.1895 280.8668,275.8403 283.1086,275.7534 284.5314,277.1432 285.6106,278.1974 286.6898,279.2516 287.769,280.3058 289.1918,281.6956 289.157,283.9383 287.839,285.2875 286.5088,286.6493 284.2678,286.7365 282.845,285.3466" stroke="black" stroke-width="1" /><polyline fill="none" points="282.2455,293.8309 283.3989,295.191 283.2817,297.3588 281.8037,298.6122 280.3265,299.8649 278.2097,299.703 276.9013,298.1602 276.6945,297.9162 276.4875,297.6722 276.2807,297.4282 274.2846,295.0744 276.0052,292.9414 276.2673,292.7192 276.52,292.5049 276.7727,292.2906 277.0254,292.0764 276.7727,292.2906 276.52,292.5049 276.2673,292.7192 275.4953,293.3738 273.0712,293.8556 271.5192,292.0254 271.0644,291.4891 270.6096,290.9529 270.1549,290.4166 268.8689,288.9002 269.0782,286.6543 270.5952,285.3679 272.1252,284.0703 274.3615,284.2423 275.6475,285.7588" stroke="black" stroke-width="1" /><polyline fill="none" points="268.7191,308.4739 270.4016,307.299 272.0841,306.1242 273.7666,304.9493 272.2189,302.7329 270.6713,300.5165 269.1236,298.3 269.2863,299.671 268.9155,300.7881 267.6926,301.6419 266.0056,302.8199 263.7265,302.3409 262.6373,300.7809 261.8586,299.6658 261.0799,298.5506 260.3012,297.4354 259.1627,295.8049 259.6354,293.6971 261.1681,292.6268 262.6861,291.5668 264.8137,291.8589 265.9522,293.4894" stroke="black" stroke-width="1" /><polyline fill="none" points="249.9209,303.8493 248.9401,302.1193 249.5811,299.9819 251.2367,299.0431 252.8924,298.1044 255.0703,298.6436 256.0512,300.3736 256.7953,301.6859 257.5393,302.9983 258.2834,304.3106 259.2644,306.0409 258.6085,308.186 256.9528,309.1248 255.2971,310.0635 253.1342,309.5166 252.1532,307.7863" stroke="black" stroke-width="1" /><polyline fill="none" points="244.5941,321.6245 242.7122,317.4329 240.8303,313.2413 238.9483,309.0497 238.1336,307.2352 238.9871,305.1607 240.7237,304.381 242.4444,303.6085 244.5621,304.3489 245.3768,306.1635 245.9947,307.5397 246.6126,308.916 247.2305,310.2923 248.0452,312.1068 247.1911,314.1808 245.4705,314.9533 243.7338,315.733 241.6167,314.993 240.8021,313.1785" stroke="black" stroke-width="1" /><polyline fill="none" points="237.1358,320.8533 237.7107,322.5414 236.8074,324.5155 234.9729,325.1402 233.1395,325.7646 231.2292,324.8384 230.5771,322.9235 230.474,322.6206 230.3708,322.3178 230.2677,322.015 229.2728,319.0936 231.6553,317.7393 231.9806,317.6285 232.2942,317.5217 232.6078,317.4149 232.9215,317.3081 232.6078,317.4149 232.2942,317.5217 231.9806,317.6285 231.0224,317.9548 228.5904,317.515 227.8168,315.2433 227.5901,314.5778 227.3635,313.9122 227.1368,313.2466 226.4958,311.3644 227.5134,309.3514 229.3963,308.7102 231.2953,308.0635 233.3131,309.0429 233.954,310.925" stroke="black" stroke-width="1" /><polyline fill="none" points="223.4112,325.0398 221.61,328.943 217.6274,312.2682" stroke="black" stroke-width="1" /><polyline fill="none" points="211.6043,327.6008 211.8543,329.3665 210.5987,331.1375 208.68,331.4092 206.7622,331.6808 205.0582,330.4146 204.7746,328.4117 204.7297,328.095 204.6849,327.7782 204.64,327.4615 204.2073,324.4058 206.8006,323.5195 207.1407,323.4713 207.4688,323.4249 207.7968,323.3784 208.1249,323.332 207.7968,323.3784 207.4688,323.4249 207.1407,323.4713 206.1386,323.6133 203.8312,322.7276 203.4947,320.3516 203.3961,319.6554 203.2975,318.9592 203.199,318.2631 202.9202,316.2944 204.2953,314.5064 206.2646,314.2275 208.251,313.9463 210.0508,315.2847 210.3295,317.2534" stroke="black" stroke-width="1" /><polyline fill="none" points="194.8646,324.5859 193.2421,324.5605 191.5544,326.1404 191.6465,328.1015 191.6679,328.5579 191.6893,329.0143 191.7107,329.4708 191.7975,331.3209 193.3766,332.7571 195.2439,332.6695 197.0937,332.5827 198.5291,330.9704 198.4439,329.1548 198.4225,328.6984 198.401,328.2419 198.3796,327.7855 198.2928,325.935 196.7144,324.4991 194.8646,324.5859 192.8264,324.6816 191.1541,323.0953 191.0617,321.1263 191.0301,320.4527 190.9985,319.779 190.9669,319.1053 190.8745,317.1359 192.3925,315.4336 194.4307,315.338 196.4517,315.2431 198.1214,316.7959 198.2138,318.7652 198.2459,319.4501 198.2781,320.1349 198.3102,320.8198 198.3894,322.508 197.0636,324.3812" stroke="black" stroke-width="1" /><polyline fill="none" points="179.8947,315.3848 179.693,319.6835 185.7911,319.9696 179.5363,332.5307" stroke="black" stroke-width="1" /><polyline fill="none" points="172.2395,329.5397 171.9077,331.8824 164.8613,330.8846 172.2059,314.6098" stroke="black" stroke-width="1" /><polyline fill="none" points="157.9408,326.0792 154.5701,328.7472 158.5527,312.0724" stroke="black" stroke-width="1" /><polyline fill="none" points="148.8029,316.1091 148.1672,317.9757 146.1435,318.9715 144.2776,318.3361 142.3941,317.6947 141.4153,315.6763 142.0509,313.8098 142.3788,312.847 142.7066,311.8842 143.0345,310.9214 143.6702,309.0549 145.6771,308.0541 147.5606,308.6955 149.4265,309.3309 150.4221,311.3542 149.7865,313.2208 148.6885,316.4451 147.5905,319.6693 146.4925,322.8935 145.8569,324.7598 143.8333,325.7553 141.9674,325.1199 140.3598,324.5724 139.4052,323.0158 139.5563,321.4011" stroke="black" stroke-width="1" /><polyline fill="none" points="132.6804,312.7741 131.2444,312.0182 129.025,312.6649 128.2209,314.4559 128.0337,314.8728 127.8466,315.2896 127.6594,315.7065 126.9008,317.3962 127.6604,319.3909 129.3658,320.1566 131.0552,320.9151 133.0642,320.1255 133.8087,318.4673 133.9958,318.0505 134.183,317.6337 134.3701,317.2169 135.1289,315.5268 134.3698,313.5327 132.6804,312.7741 130.819,311.9384 130.044,309.7676 130.8513,307.9694 131.1276,307.3541 131.4038,306.7389 131.6801,306.1236 132.4876,304.3251 134.611,303.4924 136.4724,304.3282 138.3182,305.1569 139.106,307.2966 138.2985,309.0952 138.0177,309.7206 137.7368,310.3461 137.456,310.9716 136.7638,312.5134 134.7345,313.5852" stroke="black" stroke-width="1" /><polyline fill="none" points="122.1203,312.6755 121.1477,314.3909 118.9741,314.9913 117.2588,314.0187 115.5282,313.0375 114.9148,310.8175 115.8873,309.1022 116.2683,308.4302 116.6554,308.0596 117.0358,307.8405 120.8832,305.6208 124.7307,303.4011 128.5781,301.1813 128.6485,301.0573 128.7188,300.9332 128.7892,300.8091 126.7307,299.642 124.6723,298.4749 122.6138,297.3079" stroke="black" stroke-width="1" /><polyline fill="none" points="108.137,297.9498 108.1339,297.9542 108.1308,297.9587 108.1276,297.9632 109.4624,296.0516 110.7972,294.14 112.132,292.2284 112.749,291.3449 112.3658,290.573 111.9031,290.2499 112.4938,290.6623 112.6336,291.5101 112.2104,292.1163 112.1843,292.1537 112.1582,292.191 112.132,292.2284 113.5917,292.0558 115.0525,292.2395 116.2751,293.0931 117.2874,293.8 118.5787,295.4549 117.1359,297.5211 116.38,298.6037 115.2951,298.8703 114.1686,298.6264 113.6194,298.5152 112.0963,297.8494 111.0694,297.4041 110.0185,296.9626 108.893,296.8672 108.137,297.9498 107.3715,299.0461 107.56,301.1424 109.2467,302.3201 110.8356,303.4296 112.1061,303.1672 113.0708,302.7744" stroke="black" stroke-width="1" /><polyline fill="none" points="99.5088,299.1217 97.9784,300.9263 92.5507,296.3235 107.4447,286.4756" stroke="black" stroke-width="1" /><polyline fill="none" points="84.0425,287.8756 84.7368,288.5864 85.7415,288.7557 86.649,287.8693 87.5279,287.0107 88.4068,286.1522 89.2857,285.2937 88.8625,284.8605 88.4393,284.4272 88.0161,283.994 88.8308,284.828 89.6455,285.662 90.4602,286.496 90.0687,286.0953 89.6772,285.6945 89.2857,285.2937 91.9878,282.6542 94.69,280.0146 97.3921,277.3751" stroke="black" stroke-width="1" /><polyline fill="none" points="74.0844,276.6915 77.6574,273.8028 81.2304,270.9141 84.8034,268.0253 86.3501,266.7748 88.5737,267.071 89.7705,268.5513 90.9563,270.018 90.7804,272.2546 89.2337,273.5051 88.0606,274.4536 86.8874,275.402 85.7142,276.3506 84.1675,277.601 81.9443,277.3042 80.7585,275.8374 79.5616,274.3571 79.7372,272.1213 81.2839,270.8708" stroke="black" stroke-width="1" /><polyline fill="none" points="71.7224,261.5783 73.3651,260.4876 75.5658,260.9205 76.6565,262.5632 77.7567,264.2203 77.3104,266.4299 75.6677,267.5206 74.8202,268.0833 73.9727,268.646 73.1252,269.2087 71.4824,270.2994 69.2722,269.8535 68.1813,268.2105 67.0814,266.5537 67.5371,264.3571 69.1798,263.2664 72.0174,261.3824 74.855,259.4984 77.6926,257.6144 79.335,256.5239 81.536,256.9566 82.6267,258.5993 83.5655,260.0132 83.372,261.83 82.2666,263.0171" stroke="black" stroke-width="1" /><polyline fill="none" points="67.3503,249.8206 67.3455,249.8232 67.3407,249.8258 67.3359,249.8284 69.3905,248.7263 71.4451,247.6242 73.4996,246.5222 74.4492,246.0128 74.4563,245.151 74.1895,244.6537 74.53,245.2886 74.2717,246.108 73.6202,246.4575 73.58,246.479 73.5398,246.5006 73.4996,246.5222 74.8797,247.0277 76.0999,247.8518 76.8047,249.1658 77.3883,250.2538 77.7924,252.3136 75.5717,253.5048 74.4081,254.129 73.3199,253.8766 72.4251,253.1499 71.9855,252.8026 70.9276,251.5202 70.2128,250.659 69.4748,249.7903 68.5139,249.1965 67.3503,249.8206 66.172,250.4527 65.3928,252.4079 66.3653,254.2208 67.2813,255.9285 68.5333,256.2686 69.5713,256.3542" stroke="black" stroke-width="1" /><polyline fill="none" points="66.7588,236.0087 68.5916,235.2369 70.6395,236.1234 71.3781,237.8775 72.1168,239.6317 71.3265,241.7316 69.4937,242.5033 68.1033,243.0888 66.713,243.6743 65.3226,244.2598 63.4895,245.0317 61.4358,244.1294 60.6971,242.3753 59.9585,240.6212 60.7546,238.537 62.5877,237.7651" stroke="black" stroke-width="1" /><polyline fill="none" points="62.1312,231.9841 60.2502,232.5759 58.2501,231.5333 57.6586,229.653 57.0616,227.755 58.1098,225.7719 59.9908,225.1801 60.961,224.8749 61.9312,224.5697 62.9013,224.2645 64.7823,223.6728 66.7765,224.6989 67.3736,226.5969 67.9651,228.4772 66.9227,230.4768 65.0418,231.0685 61.7927,232.0906 58.5436,233.1127 55.2945,234.1349 53.4138,234.7265 51.4141,233.6838 50.8226,231.8035 50.313,230.1835 51.0033,228.4931 52.3945,227.6597" stroke="black" stroke-width="1" /><polyline fill="none" points="58.6145,219.9597 56.6864,220.3727 54.7928,219.1474 54.3799,217.22 53.9632,215.2744 55.1925,213.3981 57.1207,212.9851 58.1152,212.7721 59.1097,212.5591 60.1042,212.3461 62.0323,211.9331 63.9216,213.1414 64.3383,215.087 64.7512,217.0144 63.5262,218.9077 61.598,219.3206 58.2675,220.034 54.937,220.7474 51.6065,221.4608 49.6787,221.8737 47.7854,220.6483 47.3725,218.7209 47.0168,217.0603 47.8624,215.4419 49.3255,214.7424" stroke="black" stroke-width="1" /><polyline fill="none" points="53.1978,204.4125 53.1091,202.7922 51.4146,201.2197 49.4648,201.4493 49.011,201.5028 48.5572,201.5562 48.1034,201.6097 46.2639,201.8263 44.9423,203.5024 45.1609,205.3589 45.3775,207.1981 47.0867,208.5166 48.8918,208.304 49.3456,208.2506 49.7993,208.1971 50.2531,208.1437 52.093,207.927 53.4144,206.2516 53.1978,204.4125 52.9592,202.3861 54.424,200.6064 56.3816,200.3759 57.0514,200.297 57.7212,200.2181 58.391,200.1392 60.349,199.9087 62.1538,201.3033 62.3924,203.3297 62.6291,205.3391 61.1975,207.1138 59.2395,207.3443 58.5586,207.4245 57.8777,207.5047 57.1968,207.5849 55.5183,207.7826 53.5565,206.5916" stroke="black" stroke-width="1" /><polyline fill="none" points="46.6988,195.5006 44.3333,195.5561 44.1665,188.4414 61.4225,193.0283" stroke="black" stroke-width="1" /><polyline fill="none" points="51.3927,175.1193 53.3596,175.2579 54.8388,176.9439 54.7002,178.9109 54.5605,180.895 52.8584,182.373 50.8914,182.2344 49.8766,182.1629 48.8618,182.0914 47.8471,182.02 45.8801,181.8814 44.4013,180.1793 44.5399,178.2119 44.6797,176.2282 46.3813,174.7663 48.3483,174.9048 51.746,175.1442 55.1436,175.3836 58.5413,175.6229 60.5079,175.7615 61.9874,177.4476 61.8488,179.4145 61.7296,181.1075 60.4675,182.4286 58.8673,182.6943" stroke="black" stroke-width="1" /><polyline fill="none" points="46.5841,163.0688 46.4218,164.049 46.8796,164.9593 48.1311,165.1665 49.3432,165.3673 50.5554,165.568 51.7675,165.7687 51.8664,165.1713 51.9653,164.5738 52.0643,163.9763 51.8738,165.1265 51.6833,166.2767 51.4929,167.4269 51.5844,166.8742 51.6759,166.3215 51.7675,165.7687 55.4941,166.3859 59.2207,167.003 62.9474,167.6202" stroke="black" stroke-width="1" /><polyline fill="none" points="51.5013,155.9855 49.5947,155.4826 48.4597,153.534 48.9627,151.6274 49.47,149.7038 51.4602,148.5444 53.3668,149.0473 54.1138,149.2443 54.5708,149.5241 54.8797,149.836 58.0072,152.9901 61.1348,156.1442 64.2624,159.2983 64.4004,159.3347 64.5383,159.371 64.6762,159.4074 65.2797,157.1194 65.8832,154.8314 66.4867,152.5433" stroke="black" stroke-width="1" /><polyline fill="none" points="55.439,142.0599 53.1836,138.4004 69.2782,144.3058" stroke="black" stroke-width="1" /><polyline fill="none" points="59.2242,124.667 58.7961,125.5637 58.9832,126.5653 60.128,127.1119 61.2367,127.6412 62.3455,128.1706 63.4542,128.7 63.7151,128.1535 63.9761,127.6069 64.237,127.0604 63.7347,128.1125 63.2323,129.1646 62.73,130.2167 62.9714,129.7112 63.2128,129.2056 63.4542,128.7 66.863,130.3275 70.2718,131.9551 73.6805,133.5826" stroke="black" stroke-width="1" /><polyline fill="none" points="71.6071,118.529 72.5258,117.1913 72.1431,114.9115 70.4584,113.9034 70.0663,113.6688 69.6742,113.4342 69.2822,113.1995 67.6927,112.2485 65.6228,112.7696 64.663,114.3737 63.7121,115.9628 64.2614,118.0504 65.821,118.9837 66.2131,119.2183 66.6052,119.4529 66.9973,119.6875 68.587,120.6388 70.6562,120.118 71.6071,118.529 72.6548,116.7781 74.9014,116.2623 76.5928,117.2744 77.1715,117.6207 77.7503,117.967 78.329,118.3133 80.0207,119.3256 80.5993,121.5319 79.5516,123.2828 78.5127,125.019 76.2955,125.5511 74.6038,124.5388 74.0154,124.1867 73.4271,123.8347 72.8388,123.4826 71.3885,122.6148 70.5614,120.4742" stroke="black" stroke-width="1" /><polyline fill="none" points="78.673,107.8904 79.7128,106.6446 79.5453,104.339 77.9624,103.1775 77.594,102.9072 77.2256,102.6369 76.8573,102.3666 75.3639,101.2709 73.2543,101.5959 72.1484,103.1031 71.0529,104.5962 71.4043,106.726 72.8697,107.8013 73.2381,108.0716 73.6065,108.3419 73.9749,108.6122 75.4685,109.7081 77.5775,109.3834 78.673,107.8904 79.88,106.2453 82.165,105.9421 83.7542,107.1082 84.298,107.5072 84.8417,107.9061 85.3855,108.3051 86.975,109.4714 87.3444,111.7221 86.1374,113.3672 84.9405,114.9985 82.6832,115.3207 81.0937,114.1544 80.5409,113.7488 79.9881,113.3432 79.4353,112.9376 78.0727,111.9378 77.4496,109.7291" stroke="black" stroke-width="1" /><polyline fill="none" points="95.2399,102.034 92.024,99.1746 87.9674,103.7368 82.1319,90.9756" stroke="black" stroke-width="1" /><polyline fill="none" points="103.7465,93.681 100.8124,90.5329 96.3465,94.6953 91.7316,81.4436" stroke="black" stroke-width="1" /><polyline fill="none" points="104.1473,84.844 102.9439,83.282 103.2337,81.0452 104.7951,79.8421 106.3713,78.6278 108.5942,78.9288 109.7976,80.4908 110.4183,81.2965 111.0391,82.1021 111.6598,82.9078 112.8632,84.4699 112.5869,86.6954 111.0107,87.9098 109.4492,89.1128 107.2129,88.8231 106.0095,87.261 103.9307,84.5629 101.852,81.8647 99.7732,79.1665 98.57,77.6048 98.86,75.3683 100.4214,74.1653 101.7667,73.1288 103.5915,73.1945 104.8532,74.2135" stroke="black" stroke-width="1" /><polyline fill="none" points="111.4369,70.5034 111.8837,66.228 121.0291,80.7287" stroke="black" stroke-width="1" /><polyline fill="none" points="121.0855,63.5525 120.0163,61.4417 126.3648,58.2257 129.6605,75.7742" stroke="black" stroke-width="1" /><polyline fill="none" points="136.2426,65.4995 135.5202,63.6648 136.4196,61.5964 138.2537,60.8742 140.105,60.1452 142.157,61.0515 142.8794,62.8862 143.252,63.8326 143.6247,64.7789 143.9973,65.7252 144.7198,67.56 143.8364,69.6213 141.985,70.3503 140.1509,71.0725 138.083,70.1733 137.3605,68.3385 136.1126,65.1693 134.8647,62.0001 133.6168,58.8309 132.8945,56.9964 133.794,54.9284 135.6281,54.2062 137.2083,53.584 138.9431,54.1538 139.8722,55.483" stroke="black" stroke-width="1" /><polyline fill="none" points="147.6313,59.6171 147.0791,57.7063 148.2151,55.7723 150.0439,55.2437 151.872,54.7154 153.8487,55.7498 154.4009,57.6606 154.8198,59.1099 155.2386,60.5592 155.6575,62.0086 156.2096,63.919 155.0896,65.8491 153.2615,66.3774 151.4327,66.906 149.4561,65.8708 148.904,63.9603 148.8986,63.9619 148.8932,63.9634 148.8879,63.965 147.6122,59.5509 146.3365,55.1369 145.0609,50.7229" stroke="black" stroke-width="1" /><polyline fill="none" points="163.1184,54.6506 164.7285,54.4483 166.1779,52.6474 165.8119,50.7186 165.7267,50.2697 165.6415,49.8208 165.5563,49.3719 165.2109,47.5521 163.446,46.3515 161.6095,46.7001 159.7901,47.0454 158.595,48.843 158.9339,50.6287 159.0191,51.0776 159.1043,51.5265 159.1895,51.9754 159.5349,53.7955 161.299,54.9959 163.1184,54.6506 165.123,54.2701 167.0012,55.6063 167.3688,57.5428 167.4945,58.2054 167.6203,58.868 167.746,59.5307 168.1136,61.4676 166.8493,63.366 164.8447,63.7464 162.8569,64.1237 160.986,62.8203 160.6184,60.8834 160.4905,60.2098 160.3627,59.5362 160.2348,58.8626 159.9197,57.2022 160.9698,55.1616" stroke="black" stroke-width="1" /><polyline fill="none" points="179.2883,145.6279 156.5688,130.1462 250.763,172.1919 268.4255,140.8637 268.4255,140.8637 188.1635,280.8196 250.763,172.1919 239.8942,231.6324 189.0084,152.2515 236.6952,108.8569" stroke="black" stroke-width="1" /><polyline fill="none" points="224.8203,95.8076 248.57,121.9063" stroke="black" stroke-width="1" /><polyline fill="none" points="200.7708,152.2515 200.626,150.4114 200.1952,148.6167 199.4888,146.9115 198.5244,145.3377 197.3257,143.9342 195.9222,142.7355 194.3485,141.7711 192.6432,141.0648 190.8485,140.6339 189.0084,140.4891 187.1684,140.6339 185.3737,141.0648 183.6684,141.7711 182.0947,142.7355 180.6912,143.9342 179.4925,145.3377 178.5281,146.9115 177.8217,148.6167 177.3909,150.4114 177.246,152.2515 177.3909,154.0915 177.8217,155.8863 178.5281,157.5915 179.4925,159.1652 180.6912,160.5687 182.0947,161.7675 183.6684,162.7318 185.3737,163.4382 187.1684,163.869 189.0084,164.0139 190.8485,163.869 192.6432,163.4382 194.3485,162.7318 195.9222,161.7675 197.3257,160.5687 198.5244,159.1652 199.4888,157.5915 200.1951,155.8863 200.626,154.0915 200.7708,152.2515" stroke="black" stroke-width="1" /><polyline fill="none" points="188.5,69.0664 199.6839,69.5912 210.7696,71.161 221.6595,73.7619 232.2581,77.3712 242.4721,81.9571 252.2118,87.4792 261.3915,93.8892 269.9308,101.1306 277.7544,109.1398 284.7936,117.8464 290.9866,127.1739 296.2789,137.0404 300.6241,147.3591 303.9839,158.0393 306.3289,168.9873 307.6383,180.1067 307.9008,191.2998 307.114,202.4684 305.2847,213.5142 302.4292,224.3402 298.5725,234.8512 293.7484,244.9549 287.9994,254.5625 281.376,263.5894 273.9365,271.9565 265.7461,279.5902 256.8768,286.4234 247.4067,292.3961 237.4188,297.4556 227.0011,301.5577 216.2451,304.6663 205.2452,306.7539 194.0981,307.8023 182.9019,307.8023 171.7548,306.7539 160.7549,304.6663 149.9989,301.5577 139.5811,297.4556 129.5933,292.3961 120.1232,286.4234 111.2539,279.5902 103.0635,271.9565 95.6239,263.5894 89.0006,254.5625 83.2516,244.9549 78.4275,234.8512 74.5708,224.3402 71.7153,213.5142 69.8861,202.4684 69.0992,191.2998 69.3617,180.1067 70.6712,168.9872 73.0161,158.0393 76.3759,147.3591 80.7211,137.0404 86.0134,127.174 92.2064,117.8464 99.2457,109.1398 107.0692,101.1306 115.6085,93.8892 124.7882,87.4792 134.5279,81.957 144.7419,77.3712 155.3405,73.7619 166.2304,71.161 177.3161,69.5912 188.5,69.0664" stroke="black" stroke-width="1" />

    </g>
  </g>
  <WCB
     pausedposy="0"
     pausedposx="0"
     lastknownposy="0"
     lastknownposx="0"
     lastpathnc="0"
     lastpath="0"
     node="0"
     layer="0" />
</svg>
