<?xml version="1.0" encoding="UTF-8" standalone="no"?>
<!-- Created with Inkscape (http://www.inkscape.org/) -->

<svg
   xmlns:dc="http://purl.org/dc/elements/1.1/"
   xmlns:cc="http://creativecommons.org/ns#"
   xmlns:rdf="http://www.w3.org/1999/02/22-rdf-syntax-ns#"
   xmlns:svg="http://www.w3.org/2000/svg"
   xmlns="http://www.w3.org/2000/svg"
   xmlns:sodipodi="http://sodipodi.sourceforge.net/DTD/sodipodi-0.dtd"
   xmlns:inkscape="http://www.inkscape.org/namespaces/inkscape"
   width="100mm"
   height="100mm"
   viewBox="0 0 100 100"
   version="1.1"
   id="svg19124"
   inkscape:version="0.92.3 (2405546, 2018-03-11)"
   sodipodi:docname="inkscape_template_TMP.svg"
   shape-rendering="crispEdges">
  <sodipodi:namedview
     pagecolor="#ffffff"
     bordercolor="#666666"
     borderopacity="1"
     objecttolerance="10"
     gridtolerance="10"
     guidetolerance="10"
     inkscape:pageopacity="0"
     inkscape:pageshadow="2"
     inkscape:window-width="1568"
     inkscape:window-height="1550"
     id="namedview24021"
     showgrid="false"
     inkscape:zoom="0.62441667"
     inkscape:cx="712.66515"
     inkscape:cy="409.98265"
     inkscape:window-x="0"
     inkscape:window-y="0"
     inkscape:window-maximized="0"
     inkscape:current-layer="layer1" />
  <defs
     id="defs19118" />
  <metadata
     id="metadata19121">
    <rdf:RDF>
      <cc:Work
         rdf:about="">
        <dc:format>image/svg+xml</dc:format>
        <dc:type
           rdf:resource="http://purl.org/dc/dcmitype/StillImage" />
        <dc:title />
      </cc:Work>
    </rdf:RDF>
  </metadata>
  <g
     transform="translate(0,-197)"
     id="layer1"
     inkscape:groupmode="layer"
     inkscape:label="Layer 1">
    <g
       id="g24447"
       transform="matrix(0.26458333,0,0,0.26458333,0.10666333,197.9735)">

<polyline fill="none" points="192.1004,47.7394 189.7225,51.1455 187.3447,54.5516 184.9669,57.9577 184.9669,54.5516 184.9669,51.1455 184.9669,47.7394 184.9669,45.7676 186.5623,44.1729 188.5334,44.1729 190.5231,44.1729 192.1004,45.7676 192.1004,47.7394 192.1004,51.1455 192.1004,54.5516 192.1004,57.9577 192.1004,59.9295 190.5231,61.5235 188.5509,61.5235 186.5623,61.5235 184.9669,59.9295 184.9669,57.9577" stroke="black" stroke-width="1" /><polyline fill="none" points="197.8298,61.5877 200.7471,57.7851 198.696,53.7706 202.935,62.0679 200.7471,57.7851 203.4811,54.2207" stroke="black" stroke-width="1" /><polyline fill="none" points="211.4702,49.377 211.8028,47.625 213.5622,46.3532 215.4662,46.7146 217.3691,47.0757 218.574,48.8236 218.1968,50.811 218.1371,51.1253 218.0775,51.4396 218.0178,51.7539 217.4424,54.7859 214.7019,54.789 214.3643,54.7249 214.0388,54.6631 213.7133,54.6013 213.3878,54.5396 213.7133,54.6013 214.0388,54.6631 214.3643,54.7249 215.3588,54.9136 217.2575,56.4958 216.81,58.8534 216.6789,59.5442 216.5478,60.235 216.4167,60.9258 216.046,62.8792 214.1679,64.1285 212.2138,63.7576 210.2428,63.3836 208.9706,61.5364 209.3413,59.583" stroke="black" stroke-width="1" /><polyline fill="none" points="227.6329,65.6109 226.8042,66.3172 225.8107,66.9762 223.7678,66.3858 221.939,65.8573 220.8028,63.9228 221.3694,61.9623 221.7834,60.5296 222.1975,59.0968 222.6116,57.6641 223.1638,55.7533 225.1566,54.7239 226.9854,55.2524 228.8471,55.7905 230.0161,57.7336 229.4639,59.6445 229.2577,60.358 229.0515,61.0716 228.8452,61.7851 226.5666,61.1266 224.288,60.4681 222.0094,59.8096" stroke="black" stroke-width="1" /><polyline fill="none" points="234.1348,62.8919 234.8572,61.0571 236.9254,60.1572 238.7595,60.8794 240.6109,61.6084 241.494,63.6704 240.7716,65.5051 240.3989,66.4515 240.0263,67.3978 239.6537,68.3442 238.9312,70.1789 236.8796,71.0845 235.0282,70.3555 233.1941,69.6334 232.2945,67.5656 233.0169,65.7309 234.2648,62.5616 235.5127,59.3924 236.7607,56.2232 237.483,54.3887 239.5511,53.4892 241.3851,54.2114 242.9653,54.8336 243.8459,56.4332 243.6193,58.039" stroke="black" stroke-width="1" /><polyline fill="none" points="255.3215,64.5589 251.6611,66.5229 248.0007,68.4868 244.3403,70.4507 245.8795,67.4122 247.4188,64.3738 248.958,61.3353 249.849,59.5763 251.9929,58.8747 253.7513,59.7654 255.5263,60.6646 256.2126,62.7999 255.3215,64.5589 253.7823,67.5974 252.2431,70.6358 250.7039,73.6743 249.8128,75.4333 247.6855,76.1425 245.9262,75.2513 244.1522,74.3526 243.4493,72.2097 244.3403,70.4507" stroke="black" stroke-width="1" /><polyline fill="none" points="263.6445,75.4038 263.6474,75.3991 263.6503,75.3945 263.6533,75.3899 262.4095,77.3619 261.1658,79.334 259.922,81.3061 259.3472,82.2175 259.7661,82.9706 260.2434,83.2717 259.6341,82.8874 259.4547,82.0471 259.8491,81.4218 259.8734,81.3832 259.8977,81.3446 259.922,81.3061 258.4721,81.5469 257.0043,81.4319 255.743,80.6365 254.6987,79.9778 253.3313,78.3853 254.6756,76.2538 255.38,75.1369 256.4511,74.8197 257.5878,75.0105 258.1416,75.0959 259.6943,75.6896 260.7409,76.0862 261.8113,76.478 262.9401,76.5206 263.6445,75.4038 264.3578,74.2727 264.0712,72.1876 262.3312,71.0902 260.692,70.0564 259.4352,70.3781 258.49,70.8156" stroke="black" stroke-width="1" /><polyline fill="none" points="272.2083,73.8287 273.6524,71.9543 279.2899,76.2977 264.8739,86.8328" stroke="black" stroke-width="1" /><polyline fill="none" points="289.0119,84.9327 287.5107,83.5336 286.0096,82.1345 284.5084,80.7353 282.6653,82.7129 280.8221,84.6904 278.979,86.668 280.2854,86.2217 281.4554,86.3504 282.5465,87.3673 284.0517,88.7702 284.0606,91.099 282.7634,92.4908 281.836,93.4858 280.9086,94.4808 279.9813,95.4758 278.6254,96.9306 276.4653,96.9098 275.0978,95.6353 273.7434,94.3729 273.5834,92.2313 274.9393,90.7765" stroke="black" stroke-width="1" /><polyline fill="none" points="297.5006,94.1298 296.8404,93.3873 295.8447,93.171 294.8967,94.0139 293.9785,94.8303 293.0604,95.6467 292.1422,96.4631 292.5446,96.9156 292.947,97.3682 293.3494,97.8208 292.5747,96.9495 291.8,96.0783 291.0254,95.207 291.3976,95.6257 291.7699,96.0444 292.1422,96.4631 289.3193,98.973 286.4964,101.483 283.6735,103.993" stroke="black" stroke-width="1" /><polyline fill="none" points="298.352,107.9243 299.2283,109.2901 301.4779,109.8222 303.0608,108.6608 303.4292,108.3905 303.7976,108.1202 304.166,107.8499 305.6593,106.7542 305.9823,104.6442 304.8765,103.137 303.781,101.644 301.6438,101.34 300.1784,102.4153 299.81,102.6856 299.4416,102.9558 299.0732,103.2262 297.5796,104.3221 297.2564,106.4312 298.352,107.9243 299.559,109.5694 299.1625,111.84 297.5733,113.0061 297.0295,113.4051 296.4857,113.804 295.942,114.203 294.3525,115.3693 292.0946,115.0463 290.8875,113.4012 289.6906,111.7699 290.0607,109.52 291.6502,108.3537 292.203,107.9481 292.7558,107.5425 293.3085,107.1369 294.6711,106.1372 296.9651,106.2056" stroke="black" stroke-width="1" /><polyline fill="none" points="307.4896,113.2185 309.1817,112.206 311.3687,112.7558 312.3811,114.4478 313.4026,116.1549 312.8413,118.3887 311.1493,119.4012 310.4864,119.7978 309.9669,119.9293 309.5279,119.9323 305.0862,119.9656 300.6445,119.9989 296.2028,120.0323 296.0804,120.1055 295.958,120.1787 295.8356,120.252 297.0506,122.2825 298.2656,124.313 299.4807,126.3435" stroke="black" stroke-width="1" /><polyline fill="none" points="314.9935,124.0331 317.1288,123.0136 320.1951,129.4359 302.5742,132.3193" stroke="black" stroke-width="1" /><polyline fill="none" points="314.1922,138.6749 316.0595,137.9898 318.0685,138.987 318.7242,140.7742 319.3797,142.5606 318.4868,144.6052 316.6195,145.2903 315.2032,145.81 313.787,146.3297 312.3707,146.8493 310.5037,147.5344 308.4997,146.5528 307.8442,144.7663 307.1884,142.9792 308.0822,140.9347 309.9491,140.2497 309.9472,140.2444 309.9453,140.2392 309.9433,140.2339 314.2568,138.6512 318.5703,137.0685 322.8838,135.4858" stroke="black" stroke-width="1" /><polyline fill="none" points="312.1193,158.6325 316.2804,157.535 314.7234,151.632 328.5825,153.8291" stroke="black" stroke-width="1" /><polyline fill="none" points="321.2783,162.9853 323.2405,162.6604 325.0284,164.0147 325.3394,165.8928 325.6503,167.7702 324.3918,169.6124 322.4295,169.9373 320.9412,170.1838 319.4528,170.4303 317.9645,170.6767 316.0026,171.0016 314.2167,169.6636 313.9058,167.7862 313.5948,165.9082 314.854,164.0662 316.8159,163.7413 316.815,163.7358 316.8141,163.7303 316.8132,163.7247 321.3461,162.9741 325.8791,162.2234 330.412,161.4727" stroke="black" stroke-width="1" /><polyline fill="none" points="332.7996,181.6959 328.2163,182.0188 323.633,182.3417 319.0497,182.6646 317.0656,182.8043 315.412,181.2885 315.2783,179.3896 315.1457,177.5081 316.5704,175.7751 318.5544,175.6353 320.0593,175.5293 321.5642,175.4233 323.0691,175.3172 325.0532,175.1775 326.7061,176.6937 326.8386,178.5752 326.9724,180.4741 325.5484,182.2067 323.5643,182.3465" stroke="black" stroke-width="1" /><polyline fill="none" points="326.0838,195.4395 324.1125,195.3932 322.5559,193.7784 322.6022,191.8071 322.6488,189.8186 324.2797,188.2625 326.251,188.3087 327.268,188.3325 328.285,188.3564 329.3021,188.3802 331.2734,188.4265 332.8303,190.0574 332.7841,192.0291 332.7374,194.0171 331.1061,195.5572 329.1349,195.511 325.7297,195.4312 322.3246,195.3513 318.9194,195.2715 316.9485,195.2253 315.3916,193.6104 315.4378,191.6391 315.4776,189.9424 316.6763,188.5636 318.2623,188.2232" stroke="black" stroke-width="1" /><polyline fill="none" points="323.7973,204.4543 323.5071,206.0509 324.79,207.9739 326.7398,208.2036 327.1936,208.257 327.6474,208.3104 328.1012,208.3639 329.9406,208.5805 331.6155,207.2573 331.8342,205.4007 332.0508,203.5616 330.6946,201.8821 328.8895,201.6695 328.4357,201.6161 327.9819,201.5627 327.5281,201.5092 325.6883,201.2926 324.0139,202.6151 323.7973,204.4543 323.5587,206.4807 321.7205,207.8714 319.7628,207.6409 319.093,207.562 318.4232,207.4831 317.7534,207.4042 315.7955,207.1736 314.364,205.3979 314.6026,203.3715 314.8393,201.3621 316.644,199.9685 318.6019,200.1991 319.2829,200.2793 319.9638,200.3595 320.6447,200.4397 322.3232,200.6373 323.9546,202.2514" stroke="black" stroke-width="1" /><polyline fill="none" points="320.5594,220.0876 320.5647,220.0888 320.5701,220.0899 320.5754,220.0911 318.2957,219.6028 316.0158,219.1144 313.736,218.6261 312.6824,218.4005 312.1196,219.0532 312.0014,219.6049 312.1523,218.9005 312.8794,218.4426 313.6023,218.5975 313.6469,218.607 313.6915,218.6166 313.736,218.6261 313.0105,217.3479 312.6129,215.9303 312.9251,214.4722 313.1837,213.265 314.2077,211.4326 316.6719,211.9604 317.963,212.237 318.6298,213.1333 318.8422,214.2662 318.9529,214.8155 318.9303,216.4777 318.9185,217.5969 318.9195,218.7367 319.2682,219.8111 320.5594,220.0876 321.8669,220.3677 323.7257,219.3804 324.1566,217.3688 324.5624,215.4739 323.8275,214.4048 323.0911,213.6681" stroke="black" stroke-width="1" /><polyline fill="none" points="324.988,227.5847 327.2451,228.2948 325.1095,235.0835 310.2533,225.1787" stroke="black" stroke-width="1" /><polyline fill="none" points="313.9745,245.3649 312.1572,244.5996 311.3005,242.5268 312.0657,240.7095 312.8377,238.8764 314.9253,238.026 316.7426,238.7912 317.6802,239.186 318.6178,239.5808 319.5553,239.9756 321.3726,240.7409 322.2237,242.8288 321.4583,244.6465 320.6865,246.4792 318.6045,247.3146 316.7872,246.5493 313.648,245.2274 310.5089,243.9056 307.3698,242.5837 305.5529,241.8186 304.6959,239.7456 305.4611,237.9283 306.1198,236.3641 307.7404,235.5204 309.3408,235.7848" stroke="black" stroke-width="1" /><polyline fill="none" points="315.3066,252.3489 317.3917,253.4673 314.0278,259.7387 301.2789,247.2376" stroke="black" stroke-width="1" /><polyline fill="none" points="292.9619,261.0363 296.547,263.4167 299.9238,258.3307 307.4908,270.1478" stroke="black" stroke-width="1" /><polyline fill="none" points="293.2535,277.966 291.7201,276.7263 291.4726,274.4971 292.7123,272.9637 293.9629,271.417 296.2046,271.1796 297.7379,272.4193 298.5291,273.0589 299.3201,273.6985 300.1112,274.3381 301.6446,275.5778 301.8825,277.8199 300.6426,279.3536 299.3923,280.9001 297.1602,281.1245 295.6268,279.8848 292.9781,277.7433 290.3294,275.6019 287.6807,273.4604 286.1476,272.2209 285.8998,269.9915 287.1396,268.4581 288.2066,267.1383 289.9977,266.7777 291.4618,267.476" stroke="black" stroke-width="1" /><polyline fill="none" points="284.4155,287.3821 283.0049,286.0043 282.9673,283.7617 284.3451,282.3511 285.735,280.9283 287.9891,280.9019 289.3996,282.2798 290.1273,282.9906 290.8551,283.7015 291.5828,284.4123 292.9933,285.7902 293.0203,288.0448 291.6422,289.4556 290.2526,290.8782 288.0092,290.8926 286.5986,289.5147 284.1621,287.1347 281.7256,284.7546 279.2891,282.3745 277.8788,280.9969 277.8409,278.7541 279.2187,277.3435 280.4047,276.1295 282.2217,275.9382 283.614,276.7704" stroke="black" stroke-width="1" /><polyline fill="none" points="282.2455,293.8309 283.3989,295.191 283.2817,297.3588 281.8037,298.6122 280.3265,299.8649 278.2097,299.703 276.9013,298.1602 276.6945,297.9162 276.4875,297.6722 276.2807,297.4282 274.2846,295.0744 276.0052,292.9414 276.2673,292.7192 276.52,292.5049 276.7727,292.2906 277.0254,292.0764 276.7727,292.2906 276.52,292.5049 276.2673,292.7192 275.4953,293.3738 273.0712,293.8556 271.5192,292.0254 271.0644,291.4891 270.6096,290.9529 270.1549,290.4166 268.8689,288.9002 269.0782,286.6543 270.5952,285.3679 272.1252,284.0703 274.3615,284.2423 275.6475,285.7588" stroke="black" stroke-width="1" /><polyline fill="none" points="260.4525,297.5909 259.314,295.9604 259.752,293.7723 261.3125,292.6826 262.873,291.593 265.0919,291.9259 266.2303,293.5564 267.0941,294.7933 267.9578,296.0302 268.8215,297.2672 269.9602,298.8979 269.508,301.0951 267.9475,302.1847 266.387,303.2744 264.1823,302.9324 263.0436,301.3016" stroke="black" stroke-width="1" /><polyline fill="none" points="257.132,315.4585 258.9172,314.4464 260.7023,313.4343 262.4874,312.4221 261.1541,310.0705 259.8208,307.7189 258.4875,305.3673 258.5211,306.7474 258.0473,307.8249 256.7498,308.5605 254.96,309.5753 252.7358,308.885 251.7974,307.2299 251.1265,306.0467 250.4557,304.8635 249.7848,303.6803 248.804,301.9503 249.472,299.8961 251.0982,298.9741 252.7088,298.0609 254.7997,298.5509 255.7805,300.2808" stroke="black" stroke-width="1" /><polyline fill="none" points="238.8495,309.094 238.035,307.2798 238.8733,305.2117 240.6096,304.4322 242.3459,303.6526 244.4638,304.3934 245.2783,306.2076 245.8962,307.5839 246.5142,308.9601 247.1321,310.3364 247.9467,312.1509 247.0928,314.2252 245.3565,315.0048 243.6202,315.7843 241.518,315.0373 240.7033,313.2228" stroke="black" stroke-width="1" /><polyline fill="none" points="226.9811,309.7147 228.3683,313.7884 234.1473,311.8204 232.9296,325.7996" stroke="black" stroke-width="1" /><polyline fill="none" points="222.9959,317.6122 223.454,319.5302 222.2734,321.4521 220.3562,321.91 218.4209,322.3722 216.5164,321.1871 216.0583,319.2692 215.822,318.28 215.5857,317.2908 215.3495,316.3015 214.8914,314.3836 216.0551,312.4665 217.9904,312.0043 219.9076,311.5464 221.829,312.7266 222.2871,314.6446 223.0783,317.9575 223.8696,321.2703 224.6608,324.5833 225.1188,326.5008 223.9382,328.4223 222.021,328.8802 220.3692,329.2747 218.7314,328.4673 217.9978,327.021" stroke="black" stroke-width="1" /><polyline fill="none" points="212.037,328.5093 212.3687,330.8521 205.3223,331.8499 207.8596,314.1757" stroke="black" stroke-width="1" /><polyline fill="none" points="191.2466,326.2313 191.1541,324.2616 192.6556,322.5955 194.6253,322.503 196.6121,322.4098 198.279,323.9273 198.3715,325.897 198.4191,326.9132 198.4668,327.9294 198.5145,328.9456 198.6069,330.9152 197.0895,332.5829 195.1194,332.6754 193.1329,332.7686 191.482,331.2496 191.3896,329.2798 191.2299,325.8776 191.0703,322.4752 190.9107,319.0729 190.8183,317.1035 192.3197,315.437 194.2894,315.3446 195.9847,315.265 197.4443,316.3639 197.8954,317.9221" stroke="black" stroke-width="1" /><polyline fill="none" points="185.2624,329.4694 185.1788,331.2507 183.615,332.7566 181.6792,332.6657 179.7445,332.575 178.3064,331.0133 178.4012,328.9926 178.4162,328.673 178.4312,328.3535 178.4462,328.0339 178.5909,324.9512 181.3039,324.564 181.6471,324.58 181.978,324.5956 182.309,324.6111 182.6399,324.6266 182.309,324.6111 181.978,324.5956 181.6471,324.58 180.636,324.5326 178.5342,323.2323 178.6467,320.8352 178.6797,320.1328 178.7126,319.4305 178.7456,318.7281 178.8388,316.742 180.5231,315.2418 182.5099,315.335 184.5139,315.429 186.0325,317.0796 185.9393,319.0657" stroke="black" stroke-width="1" /><polyline fill="none" points="168.0508,314.0215 167.4475,318.2823 173.492,319.1382 166.0885,331.0584" stroke="black" stroke-width="1" /><polyline fill="none" points="152.2987,324.5734 155.4027,321.8129 158.5067,319.0524 161.6108,316.2919 160.8195,319.6047 160.0283,322.9177 159.237,326.2305 158.7789,328.1484 156.8567,329.3289 154.9395,328.871 153.0042,328.4088 151.8406,326.4913 152.2987,324.5734 153.09,321.2605 153.8812,317.9476 154.6725,314.6347 155.1305,312.7168 157.0349,311.5328 158.9531,311.991 160.8874,312.4529 162.0688,314.3739 161.6108,316.2919" stroke="black" stroke-width="1" /><polyline fill="none" points="139.7157,320.5855 143.0645,318.1278 146.4134,315.6701 149.7623,313.2124 148.6643,316.4366 147.5663,319.6609 146.4683,322.8851 145.8327,324.7517 143.8083,325.7469 141.9424,325.1115 140.0589,324.4701 139.08,322.4521 139.7157,320.5855 140.8137,317.3613 141.9117,314.137 143.0096,310.9128 143.6453,309.0462 145.6521,308.0458 147.5191,308.6815 149.4016,309.3226 150.3979,311.3458 149.7623,313.2124" stroke="black" stroke-width="1" /><polyline fill="none" points="133.7205,319.4801 132.7513,321.6387 126.259,318.7238 137.8333,305.1279" stroke="black" stroke-width="1" /><polyline fill="none" points="114.797,312.5834 116.5822,313.5956 118.3673,314.6077 120.1524,315.6198 121.4857,313.2682 122.8191,310.9166 124.1524,308.5649 122.9853,309.3025 121.8175,309.4491 120.52,308.7135 118.7301,307.6987 118.1805,305.4356 119.1188,303.7805 119.7897,302.5973 120.4606,301.4141 121.1314,300.2309 122.1122,298.5009 124.2181,298.0194 125.8442,298.9414 127.4548,299.8546 128.108,301.9004 127.1271,303.6303" stroke="black" stroke-width="1" /><polyline fill="none" points="104.9614,301.8481 108.861,300.4168 112.7606,298.9855 116.6601,297.5542 114.7101,300.3469 112.7601,303.1395 110.8101,305.9321 109.6812,307.5488 107.4602,307.9429 105.844,306.8145 104.2127,305.6753 103.8325,303.4648 104.9614,301.8481 106.9114,299.0555 108.8614,296.2629 110.8114,293.4702 111.9403,291.8535 114.146,291.4496 115.763,292.5787 117.3935,293.7172 117.789,295.9375 116.6601,297.5542" stroke="black" stroke-width="1" /><polyline fill="none" points="101.3678,285.8959 102.6539,284.3792 104.8814,284.2446 106.333,285.4756 107.7846,286.7066 108.0286,288.937 106.7424,290.4537 105.7667,291.6043 104.791,292.7549 103.8152,293.9055 102.5288,295.4225 100.289,295.5456 98.8374,294.3146 97.3858,293.0836 97.1541,290.8647 98.4406,289.3477" stroke="black" stroke-width="1" /><polyline fill="none" points="84.0425,287.8756 84.7368,288.5864 85.7415,288.7557 86.649,287.8693 87.5279,287.0107 88.4068,286.1522 89.2857,285.2937 88.8625,284.8605 88.4393,284.4272 88.0161,283.994 88.8308,284.828 89.6455,285.662 90.4602,286.496 90.0687,286.0953 89.6772,285.6945 89.2857,285.2937 91.9878,282.6542 94.69,280.0146 97.3921,277.3751" stroke="black" stroke-width="1" /><polyline fill="none" points="84.7354,267.9411 86.2818,266.6908 88.4953,266.9739 89.6919,268.454 90.8886,269.9341 90.7124,272.1708 89.1659,273.4211 87.9928,274.3696 86.8196,275.3181 85.6465,276.2666 84.0997,277.5171 81.8763,277.2205 80.6796,275.7404 79.483,274.2603 79.6692,272.037 81.2159,270.7866" stroke="black" stroke-width="1" /><polyline fill="none" points="71.7224,261.5783 73.3651,260.4876 75.5658,260.9205 76.6565,262.5632 77.7567,264.2203 77.3104,266.4299 75.6677,267.5206 74.8202,268.0833 73.9727,268.646 73.1252,269.2087 71.4824,270.2994 69.2722,269.8535 68.1813,268.2105 67.0814,266.5537 67.5371,264.3571 69.1798,263.2664 72.0174,261.3824 74.855,259.4984 77.6926,257.6144 79.335,256.5239 81.536,256.9566 82.6267,258.5993 83.5655,260.0132 83.372,261.83 82.2666,263.0171" stroke="black" stroke-width="1" /><polyline fill="none" points="73.2468,246.3776 74.3311,246.4768 75.4967,246.727 76.5019,248.601 77.4017,250.2785 76.8119,252.443 75.0135,253.4077 73.6993,254.1126 72.3851,254.8176 71.0708,255.5225 69.3181,256.4627 67.1892,255.7565 66.2894,254.0789 65.3733,252.3712 65.9465,250.1771 67.6992,249.2369 68.3538,248.8858 69.0083,248.5347 69.6629,248.1836 70.784,250.2738 71.9052,252.364 73.0264,254.4541" stroke="black" stroke-width="1" /><polyline fill="none" points="62.1405,238.2065 62.1355,238.2086 62.1304,238.2108 62.1254,238.2129 64.2741,237.308 66.4229,236.4032 68.5717,235.4984 69.5648,235.0802 69.6525,234.2228 69.4335,233.7028 69.7131,234.3667 69.3791,235.1584 68.6977,235.4453 68.6557,235.463 68.6137,235.4807 68.5717,235.4984 69.8983,236.131 71.036,237.0656 71.6147,238.4399 72.0938,239.5778 72.3033,241.6664 69.9807,242.6444 68.7638,243.1568 67.704,242.8036 66.8812,241.9964 66.476,241.6094 65.5429,240.2336 64.9118,239.3093 64.2585,238.3753 63.3574,237.6941 62.1405,238.2065 60.9081,238.7255 59.9494,240.5991 60.7477,242.4951 61.4998,244.2811 62.7145,244.7369 63.7399,244.9193" stroke="black" stroke-width="1" /><polyline fill="none" points="55.043,234.0198 53.3419,234.5549 51.3895,233.6056 50.8079,231.757 50.2267,229.9094 51.1974,228.0214 53.1271,227.4143 53.4323,227.3183 53.7374,227.2223 54.0426,227.1263 56.9865,226.2002 58.2846,228.6138 58.3876,228.9415 58.4871,229.2576 58.5865,229.5737 58.6859,229.8897 58.5865,229.5737 58.4871,229.2576 58.3876,228.9415 58.0839,227.976 58.5807,225.5549 60.8698,224.8348 61.5405,224.6238 62.2112,224.4128 62.882,224.2018 64.7786,223.6052 66.7672,224.6697 67.3641,226.567 67.9661,228.4807 66.9397,230.4749 65.0431,231.0716" stroke="black" stroke-width="1" /><polyline fill="none" points="51.1793,220.2008 47.3194,218.3085 64.083,214.7179" stroke="black" stroke-width="1" /><polyline fill="none" points="58.3548,200.3407 60.3298,200.1081 62.051,201.5284 62.2736,203.4186 62.4962,205.3088 61.154,207.1068 59.179,207.3394 57.6807,207.5158 56.1824,207.6922 54.6842,207.8687 52.7088,208.1013 50.9864,206.6643 50.7638,204.774 50.5412,202.8838 51.8846,201.1026 53.86,200.87" stroke="black" stroke-width="1" /><polyline fill="none" points="57.8179,188.1016 59.806,188.055 61.3866,189.6302 61.4312,191.533 61.4758,193.4358 59.9712,195.1001 57.9831,195.1467 56.4749,195.1821 54.9666,195.2175 53.4584,195.2528 51.47,195.2995 49.8897,193.7074 49.8451,191.8047 49.8004,189.9019 51.3048,188.2544 53.2932,188.2077" stroke="black" stroke-width="1" /><polyline fill="none" points="46.6663,182.1914 44.306,182.0251 44.8061,174.926 61.5569,181.1087" stroke="black" stroke-width="1" /><polyline fill="none" points="54.585,169.8496 52.6227,169.5247 51.3669,167.6663 51.6779,165.7882 51.9888,163.9108 53.774,162.5727 55.7363,162.8976 57.2246,163.1441 58.713,163.3906 60.2013,163.6371 62.1633,163.962 63.4224,165.8043 63.1115,167.6816 62.8005,169.5597 61.0147,170.8974 59.0528,170.5725 59.0519,170.578 59.051,170.5835 59.0501,170.5891 54.5171,169.8384 49.9842,169.0877 45.4512,168.3371" stroke="black" stroke-width="1" /><polyline fill="none" points="56.9199,157.3916 54.9966,156.8843 53.9204,154.9164 54.4059,153.0757 54.8912,151.2357 56.7939,150.0706 58.7171,150.5779 60.1758,150.9627 61.6345,151.3474 63.0933,151.7322 65.0162,152.2394 66.0973,154.1915 65.612,156.0315 65.1265,157.8722 63.2232,159.0368 61.3004,158.5296 61.2989,158.535 61.2975,158.5404 61.2961,158.5458 56.8533,157.374 52.4106,156.2021 47.9678,155.0303" stroke="black" stroke-width="1" /><polyline fill="none" points="55.148,143.2997 53.2968,142.6204 52.3493,140.5741 53.0286,138.7229 53.7139,136.8553 55.8038,135.8874 57.655,136.5666 58.3802,136.8327 58.809,137.1541 59.0873,137.4936 61.9058,140.9267 64.7243,144.3597 67.5428,147.7928 67.6767,147.842 67.8106,147.8911 67.9445,147.9402 68.7596,145.7188 69.5747,143.4973 70.3898,141.2759" stroke="black" stroke-width="1" /><polyline fill="none" points="59.6169,123.2479 63.7633,125.2276 67.9096,127.2073 72.0559,129.187 73.8508,130.044 74.5416,132.1781 73.7214,133.896 72.9087,135.5981 70.8146,136.403 69.0197,135.546 67.6583,134.896 66.2969,134.246 64.9355,133.596 63.1406,132.739 62.4506,130.6048 63.2633,128.9027 64.0835,127.1849 66.1768,126.38 67.9717,127.2369" stroke="black" stroke-width="1" /><polyline fill="none" points="72.2376,114.6047 73.9297,115.6172 74.4873,117.7897 73.4748,119.4817 72.4535,121.1885 70.2672,121.7378 68.5751,120.7253 67.7022,120.203 66.8292,119.6806 65.9563,119.1583 64.2642,118.1458 63.7143,115.9591 64.727,114.2668 65.7481,112.5603 67.9267,112.0251 69.6188,113.0376 72.5415,114.7865 75.4643,116.5355 78.3871,118.2844 80.0788,119.2967 80.6367,121.4694 79.6242,123.1614 78.7528,124.6178 77.0299,125.226 75.4824,124.7399" stroke="black" stroke-width="1" /><polyline fill="none" points="72.9401,108.0528 71.3503,106.8863 71.0082,104.6574 72.1747,103.0676 73.3516,101.4637 75.6281,101.1141 77.2179,102.2806 77.8408,102.7376 78.1635,103.1653 78.3366,103.5687 80.0911,107.6494 81.8457,111.73 83.6002,115.8107 83.7152,115.895 83.8302,115.9794 83.9452,116.0638 85.345,114.156 86.7448,112.2482 88.1446,110.3403" stroke="black" stroke-width="1" /><polyline fill="none" points="86.2989,102.3903 84.8254,101.08 84.693,98.8284 86.0027,97.3553 87.3249,95.8684 89.5649,95.7496 91.0385,97.0598 91.7985,97.7357 92.5586,98.4115 93.3186,99.0873 94.7922,100.3975 94.9357,102.6356 93.6136,104.1225 92.3038,105.5956 90.0527,105.7279 88.5791,104.4177 86.0337,102.1544 83.4883,99.8912 80.9429,97.628 79.4696,96.318 79.3375,94.0666 80.6473,92.5935 81.7757,91.3244 83.5807,91.0487 85.0103,91.8146" stroke="black" stroke-width="1" /><polyline fill="none" points="95.1621,83.0745 95.7449,87.1874 96.3278,91.3002 96.9106,95.4131 94.5883,92.9214 92.266,90.4298 89.9437,87.9381 88.5993,86.4957 88.6791,84.2413 90.1211,82.8974 91.5766,81.5408 93.8177,81.632 95.1621,83.0745 97.4844,85.5661 99.8067,88.0578 102.129,90.5494 103.4734,91.9919 103.4064,94.2333 101.9637,95.578 100.5089,96.9339 98.255,96.8556 96.9106,95.4131" stroke="black" stroke-width="1" /><polyline fill="none" points="102.7457,72.418 101.1201,73.6704 99.4945,74.9229 97.8689,76.1753 99.5188,78.3167 101.1686,80.4582 102.8185,82.5997 102.5917,81.2379 102.9097,80.1046 104.0912,79.1944 105.7212,77.9386 108.0202,78.3103 109.1814,79.8174 110.0115,80.8949 110.8416,81.9724 111.6717,83.0499 112.8854,84.6252 112.512,86.7528 111.0312,87.8937 109.5645,89.0237 107.4255,88.8317 106.2118,87.2563" stroke="black" stroke-width="1" /><polyline fill="none" points="116.4567,67.5196 116.2624,71.669 116.0681,75.8184 115.8738,79.9678 114.0569,77.0869 112.2399,74.2059 110.4229,71.3249 109.3711,69.6571 109.8698,67.4572 111.5371,66.4057 113.22,65.3443 115.4048,65.8517 116.4567,67.5196 118.2736,70.4006 120.0906,73.2815 121.9075,76.1625 122.9594,77.8304 122.4757,80.02 120.8075,81.072 119.1255,82.1329 116.9257,81.6357 115.8738,79.9678" stroke="black" stroke-width="1" /><polyline fill="none" points="133.4041,73.8778 131.4594,70.0389 126.0135,72.7977 125.2592,58.7858" stroke="black" stroke-width="1" /><polyline fill="none" points="138.7073,52.8926 140.3907,57.1678 142.0741,61.443 143.7575,65.7182 144.4863,67.5689 143.5365,69.6011 141.7652,70.2985 140.0103,70.9896 137.9296,70.1506 137.2008,68.2999 136.6481,66.8962 136.0954,65.4925 135.5427,64.0888 134.8139,62.2381 135.7643,60.2064 137.5193,59.5154 139.2905,58.8179 141.3706,59.6563 142.0993,61.507" stroke="black" stroke-width="1" /><polyline fill="none" points="151.6246,48.8258 152.9003,53.2399 154.176,57.6539 155.4516,62.0679 156.0039,63.9787 154.868,65.9131 153.0392,66.4416 151.2272,66.9652 149.2342,65.9352 148.682,64.0244 148.2631,62.5751 147.8443,61.1257 147.4254,59.6764 146.8732,57.7656 148.0096,55.8319 149.8216,55.3082 151.6504,54.7797 153.6429,55.8092 154.1951,57.72" stroke="black" stroke-width="1" /><polyline fill="none" points="165.791,49.5367 164.09,53.3264 162.389,57.1161 160.6879,60.9058 160.0528,57.5595 159.4178,54.2131 158.7827,50.8668 158.415,48.9295 159.6851,47.0653 161.6216,46.6978 163.5765,46.3268 165.4233,47.5994 165.791,49.5367 166.4261,52.883 167.0612,56.2294 167.6963,59.5757 168.064,61.513 166.8116,63.3731 164.874,63.7408 162.9203,64.1116 161.0556,62.8431 160.6879,60.9058" stroke="black" stroke-width="1" /><polyline fill="none" points="213.2483,139.6664 158.7145,203.9175 268.1431,236.6952 108.8569,140.3048 126.744,171.7336 136.578,231.1149 96.1804,188.1635 268.4255,140.8637 236.1363,268.4255 268.1431,236.6952" stroke="black" stroke-width="1" /><polyline fill="none" points="255.7214,224.1653 280.5648,249.2251" stroke="black" stroke-width="1" /><polyline fill="none" points="232.6221,130.6987 232.4773,128.8586 232.0464,127.0639 231.3401,125.3586 230.3757,123.7849 229.177,122.3814 227.7735,121.1827 226.1998,120.2183 224.4945,119.5119 222.6998,119.0811 220.8597,118.9362 219.0197,119.0811 217.225,119.5119 215.5197,120.2183 213.946,121.1827 212.5425,122.3814 211.3438,123.7849 210.3794,125.3586 209.673,127.0639 209.2422,128.8586 209.0973,130.6987 209.2422,132.5387 209.673,134.3334 210.3794,136.0387 211.3438,137.6124 212.5425,139.0159 213.946,140.2146 215.5197,141.179 217.2249,141.8854 219.0197,142.3162 220.8597,142.4611 222.6998,142.3162 224.4945,141.8854 226.1998,141.179 227.7735,140.2146 229.177,139.0159 230.3757,137.6124 231.3401,136.0387 232.0464,134.3334 232.4773,132.5387 232.6221,130.6987" stroke="black" stroke-width="1" /><polyline fill="none" points="188.5,69.0664 199.6839,69.5912 210.7696,71.161 221.6595,73.7619 232.2581,77.3712 242.4721,81.9571 252.2118,87.4792 261.3915,93.8892 269.9308,101.1306 277.7544,109.1398 284.7936,117.8464 290.9866,127.1739 296.2789,137.0404 300.6241,147.3591 303.9839,158.0393 306.3289,168.9873 307.6383,180.1067 307.9008,191.2998 307.114,202.4684 305.2847,213.5142 302.4292,224.3402 298.5725,234.8512 293.7484,244.9549 287.9994,254.5625 281.376,263.5894 273.9365,271.9565 265.7461,279.5902 256.8768,286.4234 247.4067,292.3961 237.4188,297.4556 227.0011,301.5577 216.2451,304.6663 205.2452,306.7539 194.0981,307.8023 182.9019,307.8023 171.7548,306.7539 160.7549,304.6663 149.9989,301.5577 139.5811,297.4556 129.5933,292.3961 120.1232,286.4234 111.2539,279.5902 103.0635,271.9565 95.6239,263.5894 89.0006,254.5625 83.2516,244.9549 78.4275,234.8512 74.5708,224.3402 71.7153,213.5142 69.8861,202.4684 69.0992,191.2998 69.3617,180.1067 70.6712,168.9872 73.0161,158.0393 76.3759,147.3591 80.7211,137.0404 86.0134,127.174 92.2064,117.8464 99.2457,109.1398 107.0692,101.1306 115.6085,93.8892 124.7882,87.4792 134.5279,81.957 144.7419,77.3712 155.3405,73.7619 166.2304,71.161 177.3161,69.5912 188.5,69.0664" stroke="black" stroke-width="1" />

    </g>
  </g>
  <WCB
     pausedposy="0"
     pausedposx="0"
     lastknownposy="0"
     lastknownposx="0"
     lastpathnc="0"
     lastpath="0"
     node="0"
     layer="0" />
</svg>
