<?xml version="1.0" encoding="UTF-8" standalone="no"?>
<!-- Created with Inkscape (http://www.inkscape.org/) -->

<svg
   xmlns:dc="http://purl.org/dc/elements/1.1/"
   xmlns:cc="http://creativecommons.org/ns#"
   xmlns:rdf="http://www.w3.org/1999/02/22-rdf-syntax-ns#"
   xmlns:svg="http://www.w3.org/2000/svg"
   xmlns="http://www.w3.org/2000/svg"
   xmlns:sodipodi="http://sodipodi.sourceforge.net/DTD/sodipodi-0.dtd"
   xmlns:inkscape="http://www.inkscape.org/namespaces/inkscape"
   width="100mm"
   height="100mm"
   viewBox="0 0 100 100"
   version="1.1"
   id="svg19124"
   inkscape:version="0.92.3 (2405546, 2018-03-11)"
   sodipodi:docname="inkscape_template_TMP.svg"
   shape-rendering="crispEdges">
  <sodipodi:namedview
     pagecolor="#ffffff"
     bordercolor="#666666"
     borderopacity="1"
     objecttolerance="10"
     gridtolerance="10"
     guidetolerance="10"
     inkscape:pageopacity="0"
     inkscape:pageshadow="2"
     inkscape:window-width="1568"
     inkscape:window-height="1550"
     id="namedview24021"
     showgrid="false"
     inkscape:zoom="0.62441667"
     inkscape:cx="712.66515"
     inkscape:cy="409.98265"
     inkscape:window-x="0"
     inkscape:window-y="0"
     inkscape:window-maximized="0"
     inkscape:current-layer="layer1" />
  <defs
     id="defs19118" />
  <metadata
     id="metadata19121">
    <rdf:RDF>
      <cc:Work
         rdf:about="">
        <dc:format>image/svg+xml</dc:format>
        <dc:type
           rdf:resource="http://purl.org/dc/dcmitype/StillImage" />
        <dc:title />
      </cc:Work>
    </rdf:RDF>
  </metadata>
  <g
     transform="translate(0,-197)"
     id="layer1"
     inkscape:groupmode="layer"
     inkscape:label="Layer 1">
    <g
       id="g24447"
       transform="matrix(0.26458333,0,0,0.26458333,0.10666333,197.9735)">

<polyline fill="none" points="192.1004,47.7394 189.7225,51.1455 187.3447,54.5516 184.9669,57.9577 184.9669,54.5516 184.9669,51.1455 184.9669,47.7394 184.9669,45.7676 186.5623,44.1729 188.5334,44.1729 190.5231,44.1729 192.1004,45.7676 192.1004,47.7394 192.1004,51.1455 192.1004,54.5516 192.1004,57.9577 192.1004,59.9295 190.5231,61.5235 188.5509,61.5235 186.5623,61.5235 184.9669,59.9295 184.9669,57.9577" stroke="black" stroke-width="1" /><polyline fill="none" points="197.8298,61.5877 200.7471,57.7851 198.696,53.7706 202.935,62.0679 200.7471,57.7851 203.4811,54.2207" stroke="black" stroke-width="1" /><polyline fill="none" points="218.2683,47.2815 216.2522,46.8988 214.2361,46.5162 212.22,46.1336 211.7159,48.7895 211.2119,51.4454 210.7078,54.1013 211.5748,53.0269 212.6331,52.5116 214.0984,52.7897 216.1199,53.1733 217.3697,55.1384 217.015,57.0076 216.7614,58.3439 216.5077,59.6802 216.2541,61.0165 215.8833,62.9703 214.0452,64.105 212.2086,63.7565 210.3896,63.4112 209.1118,61.6852 209.4826,59.7314" stroke="black" stroke-width="1" /><polyline fill="none" points="226.3444,57.6272 227.8721,58.1743 229.979,57.2228 230.5241,55.3367 230.6509,54.8978 230.7778,54.4588 230.9046,54.0199 231.4189,52.2405 230.3871,50.3719 228.5912,49.8529 226.8122,49.3388 224.9337,50.4023 224.429,52.1484 224.3022,52.5874 224.1753,53.0263 224.0485,53.4653 223.5341,55.245 224.5654,57.113 226.3444,57.6272 228.3046,58.1937 229.3763,60.2344 228.829,62.128 228.6418,62.7759 228.4545,63.4239 228.2673,64.0718 227.7199,65.9658 225.7342,67.0879 223.774,66.5214 221.8302,65.9596 220.7503,63.9515 221.2976,62.0575 221.488,61.3988 221.6783,60.7402 221.8687,60.0815 222.3379,58.4579 224.1968,57.1121" stroke="black" stroke-width="1" /><polyline fill="none" points="234.7839,61.4612 235.5127,59.6105 237.5929,58.7718 239.3641,59.4692 241.1347,60.1664 242.0693,62.1923 241.3406,64.0429 240.7879,65.4467 240.2352,66.8504 239.6824,68.2541 238.9538,70.1045 236.8886,70.9499 235.118,70.2527 233.3468,69.5552 232.4128,67.5289 233.1414,65.6785 233.1362,65.6765 233.131,65.6744 233.1257,65.6723 234.8091,61.3971 236.4925,57.1219 238.1759,52.8468" stroke="black" stroke-width="1" /><polyline fill="none" points="248.3212,76.2715 250.2659,72.4326 244.8199,69.6738 255.6708,60.7766" stroke="black" stroke-width="1" /><polyline fill="none" points="260.8449,67.4668 261.7962,65.9584 263.8993,65.4197 265.5384,66.4535 267.1767,67.4867 267.6574,69.5545 266.5783,71.2655 266.4077,71.5361 266.237,71.8067 266.0664,72.0772 264.42,74.6876 261.869,73.6864 261.5784,73.5031 261.2982,73.3263 261.0179,73.1496 260.7377,72.9729 261.0179,73.1496 261.2982,73.3263 261.5784,73.5031 262.4345,74.043 263.6215,76.2109 262.3414,78.2406 261.9663,78.8353 261.5912,79.4301 261.2162,80.0248 260.1555,81.7065 257.9503,82.1809 256.2679,81.1198 254.5711,80.0497 254.0641,77.8648 255.1248,76.183" stroke="black" stroke-width="1" /><polyline fill="none" points="278.8721,75.9757 277.2465,74.7233 275.6209,73.4709 273.9953,72.2185 272.3454,74.3599 270.6956,76.5014 269.0457,78.6429 270.3046,78.0762 271.4815,78.0948 272.663,79.005 274.293,80.2608 274.5199,82.5786 273.3587,84.0857 272.5286,85.1632 271.6985,86.2407 270.8684,87.3181 269.6547,88.8935 267.5021,89.075 266.0213,87.9342 264.5546,86.8042 264.1948,84.687 265.4085,83.1116" stroke="black" stroke-width="1" /><polyline fill="none" points="283.4146,91.3986 283.4183,91.3946 283.4221,91.3906 283.4258,91.3866 281.8362,93.0922 280.2465,94.7977 278.6569,96.5033 277.9222,97.2916 278.1933,98.1096 278.6061,98.4944 278.0791,98.0032 278.0595,97.1442 278.5636,96.6034 278.5947,96.57 278.6258,96.5367 278.6569,96.5033 277.1875,96.4696 275.7668,96.0829 274.676,95.0662 273.7728,94.2244 272.7263,92.4049 274.4445,90.5614 275.3448,89.5955 276.4562,89.4836 277.5375,89.883 278.0656,90.0701 279.4804,90.9429 280.4347,91.5277 281.4133,92.1122 282.5143,92.3645 283.4146,91.3986 284.3263,90.4204 284.4335,88.3185 282.9286,86.9158 281.511,85.5945 280.2162,85.6762 279.206,85.9298" stroke="black" stroke-width="1" /><polyline fill="none" points="290.324,97.9917 291.3244,99.2694 293.614,99.5885 295.0811,98.284 295.4226,97.9803 295.7641,97.6767 296.1055,97.3731 297.4897,96.1424 297.6137,94.0115 296.3716,92.6145 295.1411,91.2306 292.9849,91.1281 291.6266,92.3358 291.2851,92.6394 290.9437,92.943 290.6022,93.2466 289.2178,94.4776 289.0935,96.6077 290.324,97.9917 291.6798,99.5165 291.4977,101.8143 290.0246,103.124 289.5206,103.5722 289.0166,104.0203 288.5126,104.4684 287.0393,105.7785 284.7611,105.6683 283.4053,104.1435 282.0609,102.6314 282.2186,100.3568 283.6919,99.0468 284.2043,98.5912 284.7167,98.1356 285.2291,97.68 286.4921,96.557 288.7823,96.4104" stroke="black" stroke-width="1" /><polyline fill="none" points="306.9236,105.7683 303.2191,108.4864 299.5146,111.2045 295.8102,113.9226 294.2065,115.0992 291.9993,114.6992 290.8732,113.1643 289.7574,111.6436 290.0379,109.4178 291.6415,108.2412 292.8579,107.3487 294.0742,106.4563 295.2905,105.5638 296.8942,104.3872 299.101,104.7879 300.2168,106.3086 301.343,107.8434 301.0628,110.0686 299.4592,111.2452" stroke="black" stroke-width="1" /><polyline fill="none" points="305.4145,118.565 306.1591,120.0069 308.349,120.7473 310.0337,119.7392 310.4258,119.5046 310.8178,119.27 311.2099,119.0354 312.7993,118.0843 313.3185,116.0139 312.3586,114.4098 311.4078,112.8207 309.3085,112.318 307.7488,113.2512 307.3567,113.4859 306.9646,113.7205 306.5725,113.9551 304.9828,114.9063 304.4636,116.976 305.4145,118.565 306.4622,120.3159 305.8548,122.5395 304.1634,123.5516 303.5846,123.8979 303.0059,124.2442 302.4272,124.5905 300.7354,125.6028 298.5177,125.0698 297.47,123.3189 296.4311,121.5827 297.0102,119.3773 298.702,118.365 299.2903,118.013 299.8786,117.6609 300.467,117.3089 301.9172,116.4411 304.1946,116.724" stroke="black" stroke-width="1" /><polyline fill="none" points="306.3394,136.0882 305.2609,135.9382 304.1083,135.6337 303.192,133.7147 302.3718,131.9968 303.0625,129.8624 304.9041,128.9831 306.2499,128.3405 307.5958,127.6979 308.9416,127.0553 310.7365,126.1983 312.8299,127.0036 313.6501,128.7215 314.4851,130.4703 313.8098,132.6351 312.0148,133.4921 311.3446,133.8121 310.6743,134.1321 310.004,134.4521 308.9821,132.3117 307.9601,130.1713 306.9381,128.0309" stroke="black" stroke-width="1" /><polyline fill="none" points="310.7295,147.3532 309.6699,147.1029 308.5508,146.6917 307.8183,144.6954 307.1625,142.9082 308.05,140.8478 309.9659,140.1448 311.366,139.6311 312.7661,139.1174 314.1662,138.6036 316.0334,137.9185 318.0422,138.9162 318.698,140.7034 319.3655,142.5227 318.4904,144.6147 316.6232,145.2999 315.9258,145.5557 315.2285,145.8116 314.5312,146.0674 313.7142,143.8407 312.8972,141.614 312.0801,139.3873" stroke="black" stroke-width="1" /><polyline fill="none" points="323.7127,149.2144 325.6194,148.7115 327.5677,149.8469 328.0706,151.7535 328.578,153.6771 327.4186,155.6672 325.5119,156.1701 324.765,156.3672 324.2294,156.3492 323.8069,156.2302 319.5305,155.029 315.2542,153.8279 310.9778,152.6267 310.8399,152.6631 310.702,152.6994 310.5641,152.7358 311.1676,155.0238 311.7711,157.3118 312.3746,159.5999" stroke="black" stroke-width="1" /><polyline fill="none" points="322.9498,169.5073 322.9551,169.5064 322.9606,169.5055 322.9659,169.5046 320.6658,169.8855 318.3656,170.2664 316.0654,170.6473 315.0023,170.8234 314.7178,171.6369 314.8101,172.1936 314.6924,171.4829 315.2011,170.7905 315.9305,170.6697 315.9754,170.6622 316.0204,170.6548 316.0654,170.6473 314.922,169.7238 314.0326,168.5505 313.789,167.0794 313.5873,165.8613 313.8687,163.7812 316.3549,163.3695 317.6576,163.1538 318.6064,163.7435 319.2191,164.7198 319.5233,165.1903 320.1113,166.7452 320.5104,167.7909 320.9289,168.8511 321.6471,169.723 322.9498,169.5073 324.269,169.2888 325.6368,167.6892 325.3007,165.6596 324.9841,163.7477 323.9085,163.0222 322.9535,162.6066" stroke="black" stroke-width="1" /><polyline fill="none" points="319.0572,182.7726 317.0735,182.9123 315.4207,181.4129 315.287,179.5143 315.1532,177.6158 316.5782,175.8827 318.562,175.7429 320.0668,175.6369 321.5717,175.5309 323.0766,175.4249 325.0607,175.2851 326.7139,176.8013 326.8477,178.6999 326.9814,180.5984 325.556,182.3147 323.5719,182.4545" stroke="black" stroke-width="1" /><polyline fill="none" points="324.1332,194.9099 324.1387,194.91 324.1442,194.9101 324.1497,194.9102 321.8188,194.8556 319.4879,194.8009 317.157,194.7463 316.0798,194.721 315.6486,195.4672 315.6354,196.0314 315.6523,195.3112 316.2812,194.7257 317.0203,194.7431 317.0659,194.7441 317.1115,194.7452 317.157,194.7463 316.2059,193.6258 315.5508,192.3072 315.5858,190.8164 315.6147,189.5821 316.2791,187.591 318.7985,187.6501 320.1186,187.681 320.9407,188.4373 321.3607,189.5107 321.5718,190.0297 321.8596,191.667 322.0567,192.7687 322.2701,193.8884 322.8132,194.8789 324.1332,194.9099 325.47,194.9412 327.1121,193.6246 327.1603,191.568 327.2058,189.6306 326.2844,188.7173 325.4236,188.1309" stroke="black" stroke-width="1" /><polyline fill="none" points="328.7091,202.7589 331.753,205.7943 314.7268,203.7893" stroke="black" stroke-width="1" /><polyline fill="none" points="321.7088,217.0536 321.2704,218.616 322.3676,220.6508 324.2873,221.062 324.7341,221.1577 325.1809,221.2534 325.6277,221.349 327.4388,221.737 329.2302,220.5764 329.6218,218.7485 330.0096,216.9377 328.8167,215.1386 327.0394,214.7579 326.5927,214.6622 326.1459,214.5666 325.6991,214.4709 323.8876,214.0829 322.0966,215.2428 321.7088,217.0536 321.2815,219.0488 319.3211,220.2612 317.3937,219.8484 316.7343,219.7071 316.0748,219.5659 315.4153,219.4246 313.4875,219.0117 312.2286,217.1097 312.6559,215.1146 313.0797,213.1362 315.007,211.9177 316.9348,212.3306 317.6052,212.4742 318.2756,212.6178 318.946,212.7614 320.5986,213.1154 322.0717,214.8752" stroke="black" stroke-width="1" /><polyline fill="none" points="318.4497,229.402 317.8669,230.9165 318.7687,233.045 320.6415,233.6342 321.0774,233.7713 321.5132,233.9084 321.9491,234.0455 323.7159,234.6014 325.6082,233.6136 326.1691,231.8304 326.7249,230.0639 325.7056,228.161 323.9718,227.6156 323.536,227.4785 323.1001,227.3414 322.6642,227.2043 320.8971,226.6483 319.0054,227.6355 318.4497,229.402 317.8374,231.3484 315.7721,232.3719 313.8918,231.7804 313.2485,231.578 312.6051,231.3757 311.9618,231.1733 310.0811,230.5817 309.0059,228.5702 309.6182,226.6238 310.2253,224.6937 312.2582,223.6611 314.1389,224.2527 314.7929,224.4585 315.4469,224.6642 316.1009,224.87 317.7131,225.3771 319.015,227.2671" stroke="black" stroke-width="1" /><polyline fill="none" points="313.9745,245.3649 312.1572,244.5996 311.3005,242.5268 312.0657,240.7095 312.8377,238.8764 314.9253,238.026 316.7426,238.7912 317.6802,239.186 318.6178,239.5808 319.5553,239.9756 321.3726,240.7409 322.2237,242.8288 321.4583,244.6465 320.6865,246.4792 318.6045,247.3146 316.7872,246.5493 313.648,245.2274 310.5089,243.9056 307.3698,242.5837 305.5529,241.8186 304.6959,239.7456 305.4611,237.9283 306.1198,236.3641 307.7404,235.5204 309.3408,235.7848" stroke="black" stroke-width="1" /><polyline fill="none" points="307.9089,248.5121 309.6465,249.4442 310.2984,251.6035 309.3666,253.3405 308.4261,255.0939 306.275,255.7298 304.5373,254.7977 303.6411,254.317 302.7448,253.8362 301.8485,253.3555 300.1109,252.4234 299.4514,250.2799 300.3919,248.5265 301.3237,246.7895 303.4825,246.1378 305.2201,247.0699 308.2216,248.6799 311.2232,250.2899 314.2247,251.8999 315.962,252.8318 316.6136,254.9909 315.6818,256.728 314.8791,258.2245 313.1874,258.912 311.6191,258.4991" stroke="black" stroke-width="1" /><polyline fill="none" points="308.7705,263.9427 310.7417,265.2515 306.8053,271.1803 295.2831,257.5403" stroke="black" stroke-width="1" /><polyline fill="none" points="285.7104,270.4996 289.0569,273.2052 292.8951,268.4578 299.3224,280.9315" stroke="black" stroke-width="1" /><polyline fill="none" points="291.697,284.5896 292.9727,285.8357 293.0589,288.005 291.7048,289.3913 290.3514,290.7768 288.2287,290.8138 286.7816,289.4003 286.5528,289.1767 286.324,288.9532 286.0952,288.7297 283.8875,286.5732 285.4008,284.2884 285.6409,284.0426 285.8724,283.8056 286.1039,283.5686 286.3354,283.3316 286.1039,283.5686 285.8724,283.8056 285.6409,284.0426 284.9336,284.7667 282.5653,285.4733 280.8486,283.7964 280.3456,283.3051 279.8427,282.8138 279.3397,282.3225 277.9174,280.9332 277.9155,278.6775 279.3053,277.2547 280.7072,275.8196 282.9497,275.7815 284.372,277.1708" stroke="black" stroke-width="1" /><polyline fill="none" points="278.5725,289.3365 279.8589,290.8535 279.6147,293.0831 278.1629,294.3144 276.7115,295.5451 274.4845,295.4111 273.1981,293.8941 272.2224,292.7435 271.2466,291.5929 270.2709,290.4423 268.9847,288.9256 269.2159,286.7061 270.6672,285.4753 272.1191,284.2441 274.3463,284.3789 275.6325,285.8956 275.6367,285.892 275.641,285.8884 275.6453,285.8847 278.617,289.389 281.5887,292.8933 284.5604,296.3976" stroke="black" stroke-width="1" /><polyline fill="none" points="269.4744,307.7897 270.289,307.2209 270.6203,306.2573 269.894,305.2172 269.1906,304.2098 268.4872,303.2025 267.7838,302.1951 267.2873,302.5419 266.7907,302.8886 266.2942,303.2353 267.2501,302.5678 268.206,301.9003 269.1619,301.2329 268.7025,301.5536 268.2432,301.8744 267.7838,302.1951 265.6212,299.0981 263.4586,296.001 261.296,292.9039" stroke="black" stroke-width="1" /><polyline fill="none" points="260.9615,309.4635 261.841,311.0148 261.3217,313.1227 259.6359,314.0786 257.951,315.0338 255.9015,314.4801 254.9038,312.7203 254.746,312.442 254.5882,312.1638 254.4305,311.8855 252.9083,309.2008 254.9965,307.426 255.2954,307.2566 255.5836,307.0931 255.8718,306.9297 256.16,306.7663 255.8718,306.9297 255.5836,307.0931 255.2954,307.2566 254.4149,307.7558 251.9435,307.7771 250.7599,305.6896 250.4131,305.0779 250.0663,304.4663 249.7195,303.8546 248.7388,302.125 249.3632,299.9575 251.0935,298.9765 252.8386,297.9871 255.0036,298.573 255.9843,300.3026" stroke="black" stroke-width="1" /><polyline fill="none" points="249.3159,315.7174 250.0463,317.3442 249.3318,319.3943 247.5639,320.188 245.797,320.9813 243.8084,320.2381 242.9798,318.3926 242.8488,318.1008 242.7178,317.809 242.5867,317.5172 241.3227,314.7017 243.5679,313.1303 243.8813,312.9896 244.1836,312.8539 244.4858,312.7182 244.7881,312.5825 244.4858,312.7182 244.1836,312.8539 243.8813,312.9896 242.9579,313.4041 240.4954,313.194 239.5125,311.0048 239.2245,310.3633 238.9365,309.7219 238.6485,309.0804 237.8341,307.2666 238.6587,305.1671 240.4732,304.3524 242.3034,303.5307 244.404,304.3169 245.2184,306.1307" stroke="black" stroke-width="1" /><polyline fill="none" points="234.9346,313.8147 235.5702,315.6813 234.5749,317.7053 232.709,318.3407 230.8255,318.9821 228.8183,317.9806 228.1826,316.114 227.8547,315.1513 227.5269,314.1885 227.199,313.2257 226.5634,311.3592 227.5424,309.3415 229.4259,308.7001 231.2918,308.0646 233.3153,309.0598 233.951,310.9264 235.049,314.1506 236.147,317.3749 237.245,320.5991 237.8805,322.4654 236.885,324.489 235.0191,325.1245 233.4115,325.6719 231.7053,325.0214 230.8395,323.6501" stroke="black" stroke-width="1" /><polyline fill="none" points="219.185,329.5222 221.181,329.0455 223.1769,328.5688 225.1729,328.092 224.5449,325.4627 223.9169,322.8333 223.2889,320.204 222.938,321.5392 222.1837,322.4427 220.733,322.7892 218.7317,323.2672 216.7867,321.9865 216.3447,320.136 216.0287,318.813 215.7127,317.4901 215.3968,316.1671 214.9348,314.2328 216.1469,312.4448 217.9651,312.0105 219.766,311.5804 221.6386,312.6317 222.1006,314.5659" stroke="black" stroke-width="1" /><polyline fill="none" points="205.8447,331.7759 207.8765,331.4882 209.9083,331.2005 211.9401,330.9128 211.5611,328.2361 211.1821,325.5596 210.8031,322.8829 210.3287,324.1794 209.4931,325.0084 208.0163,325.2175 205.9791,325.506 204.1625,324.0487 203.8957,322.1649 203.705,320.8182 203.5143,319.4715 203.3236,318.1248 203.0448,316.1558 204.4191,314.4891 206.2699,314.227 208.1031,313.9674 209.8691,315.1894 210.1479,317.1584" stroke="black" stroke-width="1" /><polyline fill="none" points="193.3557,332.5948 194.3482,332.5482 195.1424,331.9099 195.0829,330.6427 195.0254,329.4154 194.9678,328.1881 194.9102,326.9609 194.3052,326.9893 193.7003,327.0176 193.0953,327.046 194.2599,326.9914 195.4245,326.9367 196.5891,326.8821 196.0295,326.9083 195.4698,326.9346 194.9102,326.9609 194.7331,323.1876 194.5561,319.4144 194.379,315.6411" stroke="black" stroke-width="1" /><polyline fill="none" points="178.9188,318.8311 179.012,316.8446 180.6944,315.3786 182.5956,315.4678 184.4968,315.557 186.0513,317.1749 185.9581,319.1614 185.8874,320.6683 185.8167,322.1753 185.7459,323.6823 185.6527,325.6691 183.9536,327.1336 182.0524,327.0444 180.1512,326.9552 178.6134,325.3387 178.7067,323.352" stroke="black" stroke-width="1" /><polyline fill="none" points="168.0508,314.0215 167.4475,318.2823 173.492,319.1382 166.0885,331.0584" stroke="black" stroke-width="1" /><polyline fill="none" points="160.4847,320.7733 160.0226,322.7078 158.0806,323.8299 156.229,323.3877 154.3781,322.9456 153.1687,321.0709 153.6308,319.1363 153.9812,317.6689 154.3317,316.2016 154.6822,314.7342 155.1441,312.8 157.0704,311.6733 158.9213,312.1154 160.7728,312.5576 161.9817,314.433 161.5197,316.3673 161.5252,316.3686 161.5306,316.3699 161.5361,316.3712 160.4687,320.8401 159.4013,325.3091 158.334,329.7781" stroke="black" stroke-width="1" /><polyline fill="none" points="140.5936,317.6605 141.2292,315.7939 143.2367,314.7937 145.1033,315.4293 146.9861,316.0705 147.9812,318.0933 147.3455,319.9598 147.0176,320.9229 146.6897,321.8858 146.3617,322.8488 145.7261,324.7154 143.7031,325.7111 141.8362,325.0753 139.9537,324.4343 138.9741,322.416 139.6097,320.5494 140.7077,317.3252 141.8057,314.101 142.9037,310.8767 143.5393,309.0105 145.5469,308.0099 147.4135,308.6456 149.0201,309.1927 149.9756,310.7499 149.8244,312.365" stroke="black" stroke-width="1" /><polyline fill="none" points="132.6804,312.7741 131.2444,312.0182 129.025,312.6649 128.2209,314.4559 128.0337,314.8728 127.8466,315.2896 127.6594,315.7065 126.9008,317.3962 127.6604,319.3909 129.3658,320.1566 131.0552,320.9151 133.0642,320.1255 133.8087,318.4673 133.9958,318.0505 134.183,317.6337 134.3701,317.2169 135.1289,315.5268 134.3698,313.5327 132.6804,312.7741 130.819,311.9384 130.044,309.7676 130.8513,307.9694 131.1276,307.3541 131.4038,306.7389 131.6801,306.1236 132.4876,304.3251 134.611,303.4924 136.4724,304.3282 138.3182,305.1569 139.106,307.2966 138.2985,309.0952 138.0177,309.7206 137.7368,310.3461 137.456,310.9716 136.7638,312.5134 134.7345,313.5852" stroke="black" stroke-width="1" /><polyline fill="none" points="118.7392,304.9941 118.7365,304.9989 118.7338,305.0037 118.7311,305.0084 119.881,302.9802 121.031,300.952 122.1809,298.9238 122.7124,297.9865 122.2586,297.2538 121.7677,296.9755 122.3944,297.3307 122.613,298.1617 122.2484,298.8048 122.2259,298.8445 122.2034,298.8842 122.1809,298.9238 123.6179,298.6153 125.0895,298.6614 126.3867,299.3968 127.4607,300.0058 128.9013,301.5324 127.6584,303.7247 127.0071,304.8733 125.952,305.2403 124.8076,305.103 124.2504,305.0437 122.6716,304.5234 121.6076,304.1763 120.52,303.8352 119.3904,303.8455 118.7392,304.9941 118.0797,306.1573 118.4636,308.2267 120.2532,309.2414 121.939,310.1972 123.1794,309.817 124.1031,309.3356" stroke="black" stroke-width="1" /><polyline fill="none" points="110.784,305.914 109.6551,307.5308 107.4348,307.925 105.8181,306.7961 104.187,305.6571 103.7841,303.3894 104.913,301.7727 105.3553,301.1393 105.7753,300.8066 106.1746,300.6241 110.213,298.7744 114.2514,296.9247 118.2898,295.075 118.3714,294.9581 118.4531,294.8411 118.5347,294.7242 116.5946,293.3695 114.6545,292.0148 112.7144,290.6601" stroke="black" stroke-width="1" /><polyline fill="none" points="100.3715,292.3906 99.2018,291.2657 96.8901,291.2708 95.6203,292.7681 95.3248,293.1166 95.0293,293.4651 94.7338,293.8136 93.5358,295.2263 93.7118,297.3535 95.1375,298.5626 96.5499,299.7603 98.6992,299.5594 99.8747,298.1732 100.1702,297.8247 100.4658,297.4763 100.7613,297.1277 101.9595,295.7148 101.7838,293.5883 100.3715,292.3906 98.8152,291.0709 98.6734,288.7703 99.9483,287.2669 100.3845,286.7526 100.8207,286.2382 101.2569,285.7238 102.532,284.2202 104.8032,284.0098 106.3594,285.3295 107.9025,286.6381 108.0652,288.9124 106.7901,290.416 106.3467,290.939 105.9032,291.4619 105.4598,291.9848 104.3667,293.2738 102.1197,293.7401" stroke="black" stroke-width="1" /><polyline fill="none" points="89.541,290.3024 87.8484,291.9557 82.8755,286.8649 98.6263,278.455" stroke="black" stroke-width="1" /><polyline fill="none" points="76.7757,274.1982 80.9194,273.9059 85.063,273.6135 89.2067,273.3211 86.558,275.4626 83.9093,277.604 81.2606,279.7455 79.7272,280.9852 77.4841,280.7471 76.2448,279.2143 74.9938,277.667 75.2423,275.4379 76.7757,274.1982 79.4244,272.0568 82.0731,269.9153 84.7218,267.7739 86.2552,266.5341 88.4863,266.7585 89.7263,268.2921 90.9766,269.8386 90.7401,272.0814 89.2067,273.3211" stroke="black" stroke-width="1" /><polyline fill="none" points="67.3448,266.6557 67.8944,267.4834 68.85,267.8372 69.9069,267.1355 70.9304,266.4559 71.954,265.7763 72.9775,265.0967 72.6425,264.5922 72.3075,264.0876 71.9725,263.5831 72.6174,264.5544 73.2623,265.5257 73.9072,266.4969 73.5973,266.0302 73.2874,265.5635 72.9775,265.0967 76.1244,263.0073 79.2714,260.9179 82.4183,258.8285" stroke="black" stroke-width="1" /><polyline fill="none" points="71.035,255.4556 69.2823,256.3958 67.1533,255.69 66.2534,254.0125 65.3539,252.3356 65.9514,250.186 67.7042,249.2458 69.0336,248.5327 70.363,247.8196 71.6925,247.1065 73.4449,246.1665 75.5668,246.8574 76.4663,248.5343 77.3661,250.2119 76.7679,252.3615 75.0154,253.3015 75.0181,253.3064 75.0207,253.3113 75.0234,253.3163 70.9744,255.4881 66.9254,257.66 62.8765,259.8318" stroke="black" stroke-width="1" /><polyline fill="none" points="60.1441,238.5223 61.9614,237.757 64.0429,238.5927 64.8081,240.41 65.58,242.2431 64.7296,244.3307 62.9123,245.096 61.9747,245.4908 61.0372,245.8856 60.0996,246.2804 58.2823,247.0457 56.194,246.1955 55.4286,244.3779 54.6568,242.5451 55.5141,240.472 57.3314,239.7067 60.4706,238.3849 63.6097,237.063 66.7488,235.7411 68.5657,234.976 70.6475,235.8115 71.4128,237.6288 72.0714,239.193 71.5425,240.9418 70.2351,241.9019" stroke="black" stroke-width="1" /><polyline fill="none" points="53.1463,227.3057 57.109,228.5518 61.0716,229.7979 65.0343,231.044 61.7851,232.0662 58.5361,233.0883 55.287,234.1104 53.406,234.7021 51.406,233.6588 50.8145,231.7785 50.2174,229.8805 51.2654,227.8974 53.1463,227.3057 56.3954,226.2836 59.6445,225.2615 62.8936,224.2393 64.7746,223.6476 66.7684,224.6738 67.3602,226.5551 67.957,228.4521 66.9152,230.4523 65.0343,231.044" stroke="black" stroke-width="1" /><polyline fill="none" points="51.1793,220.2008 47.3194,218.3085 64.083,214.7179" stroke="black" stroke-width="1" /><polyline fill="none" points="51.3022,200.919 53.2606,200.6884 55.0282,202.069 55.2588,204.0274 55.4914,206.0027 54.0948,207.7722 52.1364,208.0028 51.1261,208.1218 50.1158,208.2408 49.1055,208.3597 47.1472,208.5904 45.377,207.1938 45.1463,205.2352 44.9137,203.2602 46.313,201.5066 48.2713,201.2759 51.654,200.8776 55.0367,200.4792 58.4194,200.0809 60.3773,199.8503 62.1453,201.2309 62.3759,203.1892 62.5744,204.8748 61.5808,206.408 60.0582,206.9674" stroke="black" stroke-width="1" /><polyline fill="none" points="44.0401,188.533 48.6335,188.4253 53.2269,188.3176 57.8203,188.2099 59.8088,188.1632 61.3894,189.7549 61.4341,191.658 61.4783,193.5436 59.974,195.208 57.9855,195.2546 56.4773,195.29 54.9691,195.3253 53.4609,195.3607 51.4724,195.4073 49.8925,193.8153 49.8483,191.9297 49.8036,190.0266 51.3073,188.3626 53.2957,188.316" stroke="black" stroke-width="1" /><polyline fill="none" points="51.3927,175.1193 53.3596,175.2579 54.8388,176.9439 54.7002,178.9109 54.5605,180.895 52.8584,182.373 50.8914,182.2344 49.8766,182.1629 48.8618,182.0914 47.8471,182.02 45.8801,181.8814 44.4013,180.1793 44.5399,178.2119 44.6797,176.2282 46.3813,174.7663 48.3483,174.9048 51.746,175.1442 55.1436,175.3836 58.5413,175.6229 60.5079,175.7615 61.9874,177.4476 61.8488,179.4145 61.7296,181.1075 60.4675,182.4286 58.8673,182.6943" stroke="black" stroke-width="1" /><polyline fill="none" points="56.1199,170.1847 54.1745,169.8626 52.8615,168.0287 53.1835,166.084 53.5086,164.1211 55.3399,162.8257 57.2852,163.1478 58.2886,163.314 59.292,163.4801 60.2954,163.6463 62.2408,163.9685 63.556,165.7849 63.2309,167.7479 62.9089,169.6926 61.0754,171.0054 59.1301,170.6832 55.7698,170.1267 52.4095,169.5703 49.0492,169.0138 47.1041,168.6917 45.7914,166.8579 46.1134,164.9132 46.3909,163.2378 47.7706,162.0417 49.3883,161.9269" stroke="black" stroke-width="1" /><polyline fill="none" points="50.33,155.8557 48.0421,155.2522 49.8572,148.3709 65.1613,157.5684" stroke="black" stroke-width="1" /><polyline fill="none" points="60.498,137.5789 62.3492,138.2581 63.3021,140.2885 62.6229,142.1397 61.9377,144.007 59.8922,144.9543 58.041,144.2751 57.086,143.9247 56.131,143.5742 55.1759,143.2238 53.3248,142.5446 52.3767,140.4988 53.0561,138.6473 53.7411,136.7804 55.7818,135.8484 57.6329,136.5276 60.8306,137.7009 64.0282,138.8742 67.2258,140.0475 69.0766,140.7266 70.0299,142.7571 69.3506,144.6083 68.766,146.2016 67.1868,147.1203 65.5757,146.9313" stroke="black" stroke-width="1" /><polyline fill="none" points="65.5686,129.7824 66.3579,128.3646 65.7635,126.1306 63.9918,125.2847 63.5794,125.0878 63.1671,124.891 62.7548,124.6941 61.0833,123.896 59.0712,124.6087 58.2658,126.2957 57.4679,127.9668 58.2103,129.9938 59.8505,130.7769 60.2628,130.9738 60.6751,131.1707 61.0875,131.3675 62.7593,132.1657 64.7707,131.4535 65.5686,129.7824 66.4477,127.9411 68.6361,127.2172 70.4149,128.0665 71.0235,128.3571 71.6321,128.6477 72.2407,128.9383 74.0198,129.7877 74.8025,131.9301 73.9233,133.7714 73.0516,135.5973 70.894,136.3347 69.1148,135.4852 68.4961,135.1898 67.8774,134.8944 67.2587,134.599 65.7336,133.8708 64.7096,131.817" stroke="black" stroke-width="1" /><polyline fill="none" points="78.1773,118.4508 79.8838,119.4719 80.3805,121.6475 79.4032,123.2807 78.4259,124.9139 76.2653,125.519 74.5589,124.4979 73.2643,123.7232 71.9698,122.9486 70.6752,122.174 68.9684,121.1527 68.481,118.9631 69.4583,117.3298 70.4356,115.6966 72.5869,115.1056 74.2937,116.1269" stroke="black" stroke-width="1" /><polyline fill="none" points="71.8979,107.5029 69.9901,106.1031 74.2002,100.3653 85.0704,114.5304" stroke="black" stroke-width="1" /><polyline fill="none" points="85.7001,92.278 86.6655,96.3182 87.6309,100.3584 88.5963,104.3987 86.0509,102.1354 83.5055,99.8722 80.9601,97.6089 79.4865,96.2987 79.3548,94.0468 80.6646,92.5737 81.9867,91.0868 84.2265,90.9678 85.7001,92.278 88.2455,94.5412 90.7909,96.8045 93.3363,99.0677 94.8099,100.378 94.9531,102.6158 93.6426,104.0896 92.3212,105.5758 90.0699,105.7089 88.5963,104.3987" stroke="black" stroke-width="1" /><polyline fill="none" points="89.0455,87.1817 87.4322,85.4508 92.6383,80.5986 100.6766,96.5422" stroke="black" stroke-width="1" /><polyline fill="none" points="103.253,83.5524 102.039,81.9767 102.3875,79.761 103.8955,78.5992 105.4029,77.4379 107.6212,77.6761 108.8351,79.2517 109.7558,80.4468 110.6765,81.6418 111.5973,82.8369 112.8109,84.4123 112.476,86.6185 110.9686,87.7799 109.4606,88.9417 107.2421,88.7027 106.0284,87.1273 106.024,87.1308 106.0196,87.1342 106.0151,87.1376 103.211,83.4978 100.4068,79.8581 97.6026,76.2184" stroke="black" stroke-width="1" /><polyline fill="none" points="121.7399,76.1565 122.8008,77.8385 122.2607,80.0037 120.6508,81.019 119.0409,82.0343 116.8401,81.5977 115.7793,79.9157 114.9745,78.6396 114.1698,77.3636 113.365,76.0876 112.3039,74.4052 112.8586,72.2317 114.4685,71.2164 116.0783,70.2011 118.2646,70.646 119.3256,72.3283" stroke="black" stroke-width="1" /><polyline fill="none" points="124.9543,70.9334 124.0633,69.1744 124.765,67.0309 126.5234,66.1401 128.2984,65.241 130.4262,65.9511 131.3172,67.7101 131.7769,68.6174 132.2365,69.5247 132.6961,70.432 133.5872,72.191 132.9007,74.326 131.1257,75.2252 129.3673,76.1159 127.2243,75.4143 126.3332,73.6553 124.794,70.6169 123.2548,67.5784 121.7156,64.5399 120.8246,62.7812 121.5266,60.638 123.285,59.7473 124.7999,58.9798 126.5805,59.3846 127.63,60.621" stroke="black" stroke-width="1" /><polyline fill="none" points="141.5004,59.0068 142.2228,60.8415 141.3386,62.9028 139.5039,63.6252 137.6532,64.354 135.5861,63.4548 134.8636,61.6201 134.4909,60.6735 134.1182,59.7269 133.7455,58.7804 133.023,56.9456 133.9219,54.8778 135.757,54.1553 137.6073,53.4267 139.6598,54.3324 140.3822,56.1671 141.6302,59.3363 142.8781,62.5055 144.126,65.6748 144.8483,67.5092 143.9642,69.5708 142.1295,70.2932 140.5503,70.915 138.8144,70.3453 137.8851,69.0158" stroke="black" stroke-width="1" /><polyline fill="none" points="153.913,57.1943 153.9115,57.189 153.91,57.1837 153.9084,57.1785 154.5558,59.4183 155.2031,61.6582 155.8504,63.898 156.1496,64.9332 156.9908,65.1206 157.5329,64.9639 156.8408,65.1639 156.0937,64.7397 155.8884,64.0294 155.8757,63.9856 155.8631,63.9418 155.8504,63.898 155.067,65.1416 154.0057,66.1621 152.5732,66.5761 151.3871,66.9189 149.2883,66.8827 148.5887,64.4616 148.222,63.1931 148.6968,62.1819 149.5947,61.4592 150.0264,61.1021 151.5019,60.3362 152.4937,59.8176 153.4977,59.278 154.2796,58.4628 153.913,57.1943 153.5417,55.9096 151.7931,54.7383 149.8168,55.3095 147.955,55.8475 147.3603,57.0005 147.0592,57.9976" stroke="black" stroke-width="1" /><polyline fill="none" points="160.0938,57.9127 159.7262,55.9755 160.9955,54.111 162.932,53.7435 164.8869,53.3725 166.7338,54.6455 167.1015,56.5828 167.2911,57.582 167.4808,58.5812 167.6704,59.5804 168.0381,61.5177 166.7858,63.3782 164.831,63.7492 162.8944,64.1167 161.0304,62.8477 160.6628,60.9104 160.0276,57.5641 159.3926,54.2177 158.7575,50.8714 158.3899,48.9345 159.6592,47.0704 161.5958,46.7029 163.2643,46.3862 164.8624,47.2695 165.5274,48.7486" stroke="black" stroke-width="1" /><polyline fill="none" points="209.1404,131.7038 108.8569,140.3048 268.4255,140.8637 136.578,231.1149 188.8365,96.1804 140.3048,268.1431 239.8942,231.6324 188.2428,253.3668 268.4255,140.8637 108.8569,140.3048" stroke="black" stroke-width="1" /><polyline fill="none" points="108.7951,157.9483 108.9187,122.6613" stroke="black" stroke-width="1" /><polyline fill="none" points="232.6221,130.6987 232.4773,128.8586 232.0464,127.0639 231.3401,125.3586 230.3757,123.7849 229.177,122.3814 227.7735,121.1827 226.1998,120.2183 224.4945,119.5119 222.6998,119.0811 220.8597,118.9362 219.0197,119.0811 217.225,119.5119 215.5197,120.2183 213.946,121.1827 212.5425,122.3814 211.3438,123.7849 210.3794,125.3586 209.673,127.0639 209.2422,128.8586 209.0973,130.6987 209.2422,132.5387 209.673,134.3334 210.3794,136.0387 211.3438,137.6124 212.5425,139.0159 213.946,140.2146 215.5197,141.179 217.2249,141.8854 219.0197,142.3162 220.8597,142.4611 222.6998,142.3162 224.4945,141.8854 226.1998,141.179 227.7735,140.2146 229.177,139.0159 230.3757,137.6124 231.3401,136.0387 232.0464,134.3334 232.4773,132.5387 232.6221,130.6987" stroke="black" stroke-width="1" /><polyline fill="none" points="188.5,69.0664 199.6839,69.5912 210.7696,71.161 221.6595,73.7619 232.2581,77.3712 242.4721,81.9571 252.2118,87.4792 261.3915,93.8892 269.9308,101.1306 277.7544,109.1398 284.7936,117.8464 290.9866,127.1739 296.2789,137.0404 300.6241,147.3591 303.9839,158.0393 306.3289,168.9873 307.6383,180.1067 307.9008,191.2998 307.114,202.4684 305.2847,213.5142 302.4292,224.3402 298.5725,234.8512 293.7484,244.9549 287.9994,254.5625 281.376,263.5894 273.9365,271.9565 265.7461,279.5902 256.8768,286.4234 247.4067,292.3961 237.4188,297.4556 227.0011,301.5577 216.2451,304.6663 205.2452,306.7539 194.0981,307.8023 182.9019,307.8023 171.7548,306.7539 160.7549,304.6663 149.9989,301.5577 139.5811,297.4556 129.5933,292.3961 120.1232,286.4234 111.2539,279.5902 103.0635,271.9565 95.6239,263.5894 89.0006,254.5625 83.2516,244.9549 78.4275,234.8512 74.5708,224.3402 71.7153,213.5142 69.8861,202.4684 69.0992,191.2998 69.3617,180.1067 70.6712,168.9872 73.0161,158.0393 76.3759,147.3591 80.7211,137.0404 86.0134,127.174 92.2064,117.8464 99.2457,109.1398 107.0692,101.1306 115.6085,93.8892 124.7882,87.4792 134.5279,81.957 144.7419,77.3712 155.3405,73.7619 166.2304,71.161 177.3161,69.5912 188.5,69.0664" stroke="black" stroke-width="1" />

    </g>
  </g>
  <WCB
     pausedposy="0"
     pausedposx="0"
     lastknownposy="0"
     lastknownposx="0"
     lastpathnc="0"
     lastpath="0"
     node="0"
     layer="0" />
</svg>
