<?xml version="1.0" encoding="UTF-8" standalone="no"?>
<!-- Created with Inkscape (http://www.inkscape.org/) -->

<svg
   xmlns:dc="http://purl.org/dc/elements/1.1/"
   xmlns:cc="http://creativecommons.org/ns#"
   xmlns:rdf="http://www.w3.org/1999/02/22-rdf-syntax-ns#"
   xmlns:svg="http://www.w3.org/2000/svg"
   xmlns="http://www.w3.org/2000/svg"
   xmlns:sodipodi="http://sodipodi.sourceforge.net/DTD/sodipodi-0.dtd"
   xmlns:inkscape="http://www.inkscape.org/namespaces/inkscape"
   width="100mm"
   height="100mm"
   viewBox="0 0 100 100"
   version="1.1"
   id="svg19124"
   inkscape:version="0.92.3 (2405546, 2018-03-11)"
   sodipodi:docname="inkscape_template_TMP.svg"
   shape-rendering="crispEdges">
  <sodipodi:namedview
     pagecolor="#ffffff"
     bordercolor="#666666"
     borderopacity="1"
     objecttolerance="10"
     gridtolerance="10"
     guidetolerance="10"
     inkscape:pageopacity="0"
     inkscape:pageshadow="2"
     inkscape:window-width="1568"
     inkscape:window-height="1550"
     id="namedview24021"
     showgrid="false"
     inkscape:zoom="0.62441667"
     inkscape:cx="712.66515"
     inkscape:cy="409.98265"
     inkscape:window-x="0"
     inkscape:window-y="0"
     inkscape:window-maximized="0"
     inkscape:current-layer="layer1" />
  <defs
     id="defs19118" />
  <metadata
     id="metadata19121">
    <rdf:RDF>
      <cc:Work
         rdf:about="">
        <dc:format>image/svg+xml</dc:format>
        <dc:type
           rdf:resource="http://purl.org/dc/dcmitype/StillImage" />
        <dc:title />
      </cc:Work>
    </rdf:RDF>
  </metadata>
  <g
     transform="translate(0,-197)"
     id="layer1"
     inkscape:groupmode="layer"
     inkscape:label="Layer 1">
    <g
       id="g24447"
       transform="matrix(0.26458333,0,0,0.26458333,0.10666333,197.9735)">

<polyline fill="none" points="192.1004,47.7394 189.7225,51.1455 187.3447,54.5516 184.9669,57.9577 184.9669,54.5516 184.9669,51.1455 184.9669,47.7394 184.9669,45.7676 186.5623,44.1729 188.5334,44.1729 190.5231,44.1729 192.1004,45.7676 192.1004,47.7394 192.1004,51.1455 192.1004,54.5516 192.1004,57.9577 192.1004,59.9295 190.5231,61.5235 188.5509,61.5235 186.5623,61.5235 184.9669,59.9295 184.9669,57.9577" stroke="black" stroke-width="1" /><polyline fill="none" points="197.8298,61.5877 200.7471,57.7851 198.696,53.7706 202.935,62.0679 200.7471,57.7851 203.4811,54.2207" stroke="black" stroke-width="1" /><polyline fill="none" points="209.9136,56.5856 210.2812,54.6483 212.1454,53.3786 214.082,53.7461 216.0368,54.1172 217.2889,55.9783 216.9212,57.9156 216.7316,58.9148 216.542,59.914 216.3523,60.9133 215.9846,62.8505 214.1378,64.1228 212.183,63.7518 210.2464,63.3843 208.977,61.5206 209.3447,59.5833 209.9798,56.237 210.6149,52.8906 211.2499,49.5443 211.6176,47.6073 213.4816,46.338 215.4182,46.7055 217.0867,47.0222 218.2501,48.4295 218.3269,50.0495" stroke="black" stroke-width="1" /><polyline fill="none" points="224.397,52.1393 224.8921,50.4261 226.7629,49.3247 228.6247,49.8627 230.4854,50.4005 231.5213,52.2535 230.9597,54.1969 230.8709,54.5042 230.7821,54.8115 230.6933,55.1189 229.8364,58.0837 227.1077,57.8301 226.7776,57.7347 226.4593,57.6427 226.141,57.5507 225.8227,57.4587 226.141,57.5507 226.4593,57.6427 226.7776,57.7347 227.75,58.0157 229.4922,59.7687 228.8259,62.0741 228.6307,62.7496 228.4355,63.4251 228.2403,64.1005 227.6883,66.0107 225.7014,67.0786 223.7906,66.5264 221.8634,65.9694 220.7697,64.0112 221.3217,62.1011" stroke="black" stroke-width="1" /><polyline fill="none" points="238.9685,69.8153 238.0773,70.4409 237.0264,71.004 235.0478,70.2249 233.2765,69.5275 232.3264,67.4951 233.0741,65.5963 233.6205,64.2086 234.1669,62.8209 234.7133,61.4333 235.4421,59.5826 237.5225,58.7443 239.2938,59.4418 241.0969,60.1518 242.0789,62.1959 241.3501,64.0466 241.078,64.7377 240.8058,65.4288 240.5337,66.1199 238.3268,65.2509 236.1198,64.3819 233.9129,63.5129" stroke="black" stroke-width="1" /><polyline fill="none" points="256.3059,61.0983 254.4753,60.171 252.6447,59.2436 250.8141,58.3163 249.5924,60.7278 248.3708,63.1394 247.1492,65.5509 248.2804,64.7595 249.4401,64.5583 250.7706,65.2323 252.6061,66.1621 253.2612,68.3969 252.4015,70.0941 251.7868,71.3075 251.1721,72.5208 250.5575,73.7342 249.6588,75.5082 247.5779,76.088 245.9103,75.2432 244.2586,74.4065 243.5103,72.3935 244.409,70.6195" stroke="black" stroke-width="1" /><polyline fill="none" points="265.1005,74.0019 264.0486,75.6697 261.8637,76.1763 260.1958,75.1244 258.5135,74.0633 258.0155,71.8648 259.0674,70.1969 259.6101,69.3365 260.1528,68.476 260.6954,67.6155 261.7473,65.9477 263.9463,65.4491 265.6144,66.5012 267.2965,67.5621 267.7805,69.7526 266.7285,71.4205 264.9116,74.3015 263.0946,77.1824 261.2776,80.0634 260.226,81.7309 258.0408,82.2378 256.373,81.1859 254.9374,80.2805 254.3698,78.5439 254.8921,77.0081" stroke="black" stroke-width="1" /><polyline fill="none" points="272.7293,75.5074 276.8971,74.4541 266.434,88.0348" stroke="black" stroke-width="1" /><polyline fill="none" points="280.1017,95.2953 278.7458,96.75 276.5145,96.78 275.1221,95.4824 273.7298,94.1847 273.5906,91.9453 274.9465,90.4906 275.9751,89.387 277.0037,88.2833 278.0323,87.1797 279.3884,85.7247 281.6315,85.7067 283.0238,87.0044 284.4161,88.3021 284.5435,90.5294 283.1874,91.9845" stroke="black" stroke-width="1" /><polyline fill="none" points="296.0846,97.6592 291.9592,98.1455 287.8338,98.6317 283.7084,99.118 286.2538,96.8547 288.7992,94.5915 291.3446,92.3283 292.8182,91.018 295.0701,91.1507 296.3799,92.6237 297.702,94.1107 297.5582,96.349 296.0846,97.6592 293.5392,99.9224 290.9938,102.1857 288.4484,104.4489 286.9748,105.7592 284.7356,105.6397 283.4251,104.1658 282.1037,102.6796 282.2348,100.4282 283.7084,99.118" stroke="black" stroke-width="1" /><polyline fill="none" points="294.1049,106.6004 295.6948,105.4339 297.9242,105.7761 299.0902,107.3653 300.2673,108.9695 299.9143,111.1847 298.3245,112.3512 297.5045,112.9529 296.6845,113.5546 295.8645,114.1562 294.2747,115.3227 292.0562,114.9943 290.8792,113.3901 289.7131,111.8008 290.0551,109.5719 291.6449,108.4054 294.3911,106.3905 297.1372,104.3756 299.8834,102.3606 301.4729,101.1943 303.702,101.5367 304.8681,103.1259 305.8727,104.4952 305.7643,106.3179 304.716,107.5553" stroke="black" stroke-width="1" /><polyline fill="none" points="314.1503,117.2212 310.2076,119.5804 306.2649,121.9397 302.3222,124.299 300.6154,125.3203 298.4554,124.7153 297.4779,123.0817 296.5094,121.4632 296.9971,119.2735 298.7039,118.2522 299.9985,117.4775 301.293,116.7029 302.5876,115.9282 304.2943,114.9069 306.454,115.5126 307.4225,117.1311 308.3999,118.7646 307.9126,120.9537 306.2059,121.975" stroke="black" stroke-width="1" /><polyline fill="none" points="320.2729,129.3005 316.1266,131.2802 311.9803,133.2599 307.8339,135.2395 306.039,136.0965 303.9451,135.2919 303.1249,133.5741 302.3122,131.872 303.0029,129.7375 304.7978,128.8805 306.1592,128.2305 307.5206,127.5805 308.882,126.9305 310.6769,126.0735 312.7703,126.8787 313.583,128.5808 314.4032,130.2987 313.7131,132.4325 311.9182,133.2895" stroke="black" stroke-width="1" /><polyline fill="none" points="324.4967,140.6275 324.1544,139.6947 323.3072,139.1286 322.1162,139.5656 320.9628,139.9888 319.8094,140.412 318.6559,140.8353 318.8646,141.4038 319.0732,141.9724 319.2818,142.5409 318.8802,141.4464 318.4786,140.3519 318.077,139.2574 318.27,139.7833 318.463,140.3093 318.6559,140.8353 315.1097,142.1364 311.5635,143.4376 308.0173,144.7388" stroke="black" stroke-width="1" /><polyline fill="none" points="323.944,149.2857 325.6683,148.8309 327.5741,149.8707 328.0683,151.7445 328.5623,153.6173 327.5042,155.4578 325.5481,155.9737 325.2388,156.0553 324.9295,156.1369 324.6202,156.2185 321.636,157.0056 320.4526,154.5338 320.3649,154.2016 320.2804,153.8812 320.1959,153.5608 320.1115,153.2405 320.1959,153.5608 320.2804,153.8812 320.3649,154.2016 320.6231,155.1803 320.0134,157.5754 317.693,158.1874 317.0131,158.3668 316.3333,158.5461 315.6534,158.7254 313.7309,159.2325 311.7943,158.076 311.287,156.1528 310.7754,154.213 311.8941,152.269 313.8167,151.7619" stroke="black" stroke-width="1" /><polyline fill="none" points="327.1556,163.2706 330.9226,165.3417 314.0092,168.1426" stroke="black" stroke-width="1" /><polyline fill="none" points="332.4413,180.2677 332.3715,179.2765 331.7148,178.4975 330.4493,178.5867 329.2237,178.673 327.9981,178.7594 326.7726,178.8457 326.8151,179.4498 326.8577,180.0539 326.9002,180.6581 326.8183,179.4951 326.7364,178.3321 326.6544,177.1691 326.6938,177.728 326.7332,178.2868 326.7726,178.8457 323.0045,179.1112 319.2365,179.3766 315.4684,179.6421" stroke="black" stroke-width="1" /><polyline fill="none" points="319.0198,195.0233 317.0317,194.9767 315.5267,193.3291 315.5713,191.4263 315.6159,189.5236 317.197,187.9316 319.185,187.9782 320.6932,188.0135 322.2014,188.0489 323.7097,188.0843 325.6981,188.1309 327.2021,189.7953 327.1574,191.698 327.1129,193.6008 325.5329,195.176 323.5445,195.1294" stroke="black" stroke-width="1" /><polyline fill="none" points="328.7042,201.4854 330.6625,201.716 332.0594,203.4863 331.8288,205.4446 331.5961,207.4203 329.7882,208.8473 327.8299,208.6166 327.0626,208.5263 326.5709,208.3134 326.2214,208.0478 322.6824,205.3634 319.1436,202.679 315.6046,199.9946 315.463,199.9779 315.3213,199.9612 315.1797,199.9445 314.9029,202.2945 314.6262,204.6446 314.3494,206.9946" stroke="black" stroke-width="1" /><polyline fill="none" points="315.5145,219.2456 313.57,218.8291 312.3985,216.9298 312.7971,215.0687 313.1958,213.2077 315.0459,211.9384 316.9904,212.3549 318.4656,212.6708 319.9408,212.9868 321.416,213.3028 323.3608,213.7194 324.5281,215.6349 324.1295,217.496 323.7308,219.3571 321.8849,220.6101 319.94,220.1935" stroke="black" stroke-width="1" /><polyline fill="none" points="325.2678,234.5803 325.8836,232.6228 326.4994,230.6652 327.1152,228.7077 324.5365,227.8965 321.9578,227.0853 319.379,226.274 320.3446,227.2607 320.7327,228.372 320.2851,229.7947 319.6676,231.7575 317.5699,232.7689 315.755,232.198 314.4575,231.7898 313.16,231.3817 311.8625,230.9735 309.9656,230.3767 309.0536,228.4185 309.6146,226.6353 310.1702,224.8691 312.0338,223.802 313.9308,224.3988" stroke="black" stroke-width="1" /><polyline fill="none" points="320.2999,247.6393 316.0654,245.8561 311.8308,244.073 307.5963,242.2898 305.7632,241.5179 304.9731,239.4185 305.7119,237.664 306.4438,235.9257 308.4979,235.0235 310.331,235.7955 311.7214,236.381 313.1118,236.9664 314.5021,237.5519 316.3353,238.3238 317.1245,240.4233 316.3925,242.1616 315.6537,243.916 313.6005,244.8182 311.7674,244.0463" stroke="black" stroke-width="1" /><polyline fill="none" points="307.9089,248.5121 309.6465,249.4442 310.2984,251.6035 309.3666,253.3405 308.4261,255.0939 306.275,255.7298 304.5373,254.7977 303.6411,254.317 302.7448,253.8362 301.8485,253.3555 300.1109,252.4234 299.4514,250.2799 300.3919,248.5265 301.3237,246.7895 303.4825,246.1378 305.2201,247.0699 308.2216,248.6799 311.2232,250.2899 314.2247,251.8999 315.962,252.8318 316.6136,254.9909 315.6818,256.728 314.8791,258.2245 313.1874,258.912 311.6191,258.4991" stroke="black" stroke-width="1" /><polyline fill="none" points="307.5492,269.8275 308.0988,268.9998 308.054,267.9818 306.9971,267.2801 305.9735,266.6005 304.95,265.921 303.9264,265.2414 303.5914,265.7459 303.2564,266.2505 302.9215,266.755 303.5663,265.7837 304.2112,264.8124 304.8561,263.8411 304.5462,264.3079 304.2363,264.7746 303.9264,265.2414 300.7795,263.152 297.6326,261.0626 294.4857,258.9732" stroke="black" stroke-width="1" /><polyline fill="none" points="293.2535,277.966 291.7201,276.7263 291.4726,274.4971 292.7123,272.9637 293.9629,271.417 296.2046,271.1796 297.7379,272.4193 298.5291,273.0589 299.3201,273.6985 300.1112,274.3381 301.6446,275.5778 301.8825,277.8199 300.6426,279.3536 299.3923,280.9001 297.1602,281.1245 295.6268,279.8848 292.9781,277.7433 290.3294,275.6019 287.6807,273.4604 286.1476,272.2209 285.8998,269.9915 287.1396,268.4581 288.2066,267.1383 289.9977,266.7777 291.4618,267.476" stroke="black" stroke-width="1" /><polyline fill="none" points="286.6768,289.4347 285.9019,285.3536 285.1269,281.2726 284.3519,277.1916 286.7885,279.5717 289.2249,281.9517 291.6615,284.3318 293.072,285.7097 293.098,287.9653 291.7206,289.3753 290.3303,290.7986 288.0874,290.8126 286.6768,289.4347 284.2403,287.0546 281.8038,284.6746 279.3672,282.2945 277.9567,280.9166 277.9185,278.6746 279.2967,277.2637 280.6863,275.8412 282.9413,275.8137 284.3519,277.1916" stroke="black" stroke-width="1" /><polyline fill="none" points="268.716,287.1874 271.4993,290.4695 276.1554,286.5211 280.144,299.9744" stroke="black" stroke-width="1" /><polyline fill="none" points="271.9575,301.905 273.0864,303.5217 272.6917,305.7419 271.075,306.8708 269.4439,308.0097 267.1762,307.6068 266.0473,305.9901 265.605,305.3567 265.4374,304.8477 265.4036,304.41 265.0582,299.9816 264.7128,295.5532 264.3674,291.1248 264.2857,291.0079 264.2041,290.8909 264.1224,290.774 262.1823,292.1287 260.2422,293.4834 258.3021,294.8381" stroke="black" stroke-width="1" /><polyline fill="none" points="249.0635,302.3647 249.1373,301.2784 249.3601,300.1072 251.21,299.0584 252.866,298.1195 255.0437,298.6584 256.0503,300.4337 256.7858,301.731 257.5214,303.0284 258.257,304.3257 259.2379,306.056 258.5818,308.2008 256.9258,309.1397 255.2401,310.0955 253.0331,309.574 252.0521,307.8437 251.6858,307.1976 251.3194,306.5515 250.9531,305.9053 253.0164,304.7355 255.0797,303.5656 257.143,302.3958" stroke="black" stroke-width="1" /><polyline fill="none" points="242.8697,318.3862 243.6438,314.3051 244.4179,310.2239 245.192,306.1427 246.5871,309.2499 247.9822,312.3572 249.3773,315.4645 250.185,317.2633 249.3827,319.3716 247.5845,320.179 245.7693,320.9939 243.6773,320.1851 242.8697,318.3862 241.4746,315.279 240.0795,312.1718 238.6844,309.0645 237.8767,307.2656 238.6627,305.1655 240.4619,304.3577 242.276,303.5432 244.3844,304.3438 245.192,306.1427" stroke="black" stroke-width="1" /><polyline fill="none" points="237.7303,321.6652 238.4931,323.905 231.7563,326.1992 230.9536,308.3619" stroke="black" stroke-width="1" /><polyline fill="none" points="219.185,329.5222 221.181,329.0455 223.1769,328.5688 225.1729,328.092 224.5449,325.4627 223.9169,322.8333 223.2889,320.204 222.938,321.5392 222.1837,322.4427 220.733,322.7892 218.7317,323.2672 216.7867,321.9865 216.3447,320.136 216.0287,318.813 215.7127,317.4901 215.3968,316.1671 214.9348,314.2328 216.1469,312.4448 217.9651,312.0105 219.766,311.5804 221.6386,312.6317 222.1006,314.5659" stroke="black" stroke-width="1" /><polyline fill="none" points="211.6043,327.6008 211.8543,329.3665 210.5987,331.1375 208.68,331.4092 206.7622,331.6808 205.0582,330.4146 204.7746,328.4117 204.7297,328.095 204.6849,327.7782 204.64,327.4615 204.2073,324.4058 206.8006,323.5195 207.1407,323.4713 207.4688,323.4249 207.7968,323.3784 208.1249,323.332 207.7968,323.3784 207.4688,323.4249 207.1407,323.4713 206.1386,323.6133 203.8312,322.7276 203.4947,320.3516 203.3961,319.6554 203.2975,318.9592 203.199,318.2631 202.9202,316.2944 204.2953,314.5064 206.2646,314.2275 208.251,313.9463 210.0508,315.2847 210.3295,317.2534" stroke="black" stroke-width="1" /><polyline fill="none" points="191.6378,324.2484 191.638,324.2538 191.6383,324.2593 191.6385,324.2648 191.5293,321.9358 191.42,319.6069 191.3107,317.2779 191.2602,316.2016 190.4855,315.8239 189.9218,315.8503 190.6414,315.8166 191.2696,316.4028 191.3043,317.1413 191.3064,317.1868 191.3085,317.2324 191.3107,317.2779 192.3616,316.2504 193.6309,315.5043 195.1204,315.4344 196.3537,315.3765 198.3866,315.8994 198.5047,318.4167 198.5666,319.7356 197.87,320.6089 196.8288,321.1033 196.3258,321.3503 194.7128,321.7525 193.6277,322.0265 192.5258,322.3181 191.5759,322.9294 191.6378,324.2484 191.7005,325.5841 193.1292,327.1296 195.1841,327.0331 197.1199,326.9423 197.9662,325.959 198.4907,325.0591" stroke="black" stroke-width="1" /><polyline fill="none" points="178.9855,317.118 179.6274,316.2386 180.4406,315.3668 182.5648,315.4664 184.4664,315.5557 186.0209,317.1732 185.9252,319.2117 185.8553,320.7015 185.7854,322.1912 185.7155,323.6809 185.6223,325.6677 183.9232,327.1319 182.0216,327.0427 180.0858,326.9518 178.4974,325.3334 178.5906,323.3466 178.6254,322.6046 178.6602,321.8627 178.695,321.1207 181.0643,321.2319 183.4336,321.3431 185.8028,321.4543" stroke="black" stroke-width="1" /><polyline fill="none" points="166.2711,322.4527 166.2703,322.4581 166.2696,322.4636 166.2688,322.469 166.5957,320.1605 166.9226,317.852 167.2495,315.5435 167.4005,314.4767 166.7099,313.9612 166.1512,313.882 166.8644,313.983 167.3723,314.6761 167.2686,315.4081 167.2623,315.4532 167.2559,315.4984 167.2495,315.5435 168.4735,314.7299 169.8597,314.2337 171.3361,314.4427 172.5586,314.6158 174.4583,315.5085 174.105,318.0037 173.9199,319.3111 173.0726,320.0392 171.9575,320.3307 171.4173,320.4797 169.7576,320.574 168.6404,320.6409 167.5035,320.7219 166.4562,321.1454 166.2711,322.4527 166.0836,323.7767 167.1991,325.5615 169.236,325.8499 171.1548,326.1216 172.1696,325.3134 172.8527,324.5271" stroke="black" stroke-width="1" /><polyline fill="none" points="160.9268,319.2657 160.4688,321.1836 158.5471,322.3646 156.6299,321.9066 154.6946,321.4444 153.5311,319.5266 153.9892,317.6087 154.2255,316.6194 154.4617,315.6302 154.698,314.641 155.1561,312.7231 157.0605,311.5388 158.9958,312.001 160.913,312.4589 162.0937,314.3801 161.6356,316.298 160.8444,319.6109 160.0531,322.9238 159.2619,326.2367 158.8039,328.1542 156.8824,329.3348 154.9651,328.8769 153.3133,328.4824 152.2172,327.0221 152.2164,325.4003" stroke="black" stroke-width="1" /><polyline fill="none" points="146.2509,323.0283 145.6761,324.7163 143.7556,325.7289 141.9212,325.1042 140.0877,324.4798 139.1398,322.5802 139.7919,320.6653 139.895,320.3625 139.9981,320.0597 140.1012,319.7568 141.0961,316.8354 143.81,317.2167 144.1352,317.3275 144.4489,317.4343 144.7625,317.541 145.0761,317.6479 144.7625,317.541 144.4489,317.4343 144.1352,317.3275 143.1771,317.0012 141.5189,315.1684 142.2925,312.8968 142.5192,312.2312 142.7458,311.5656 142.9725,310.9 143.6135,309.0179 145.6481,308.0443 147.5309,308.6854 149.43,309.3322 150.4307,311.3394 149.7897,313.2216" stroke="black" stroke-width="1" /><polyline fill="none" points="126.2872,318.8773 128.1692,314.6857 130.0511,310.4941 131.933,306.3026 132.7477,304.488 134.8651,303.7474 136.6017,304.5271 138.3224,305.2997 139.1762,307.3743 138.3615,309.1888 137.7436,310.5651 137.1257,311.9413 136.5078,313.3176 135.6931,315.1321 133.5757,315.8719 131.855,315.0994 130.1184,314.3197 129.2646,312.2458 130.0793,310.4314" stroke="black" stroke-width="1" /><polyline fill="none" points="121.696,313.775 120.529,315.8333 114.3381,312.3232 127.1347,299.871" stroke="black" stroke-width="1" /><polyline fill="none" points="111.8411,292.2137 112.8533,291.8123 114.0062,291.5087 115.7497,292.7261 117.3105,293.816 117.7625,296.0134 116.5941,297.6866 115.7403,298.9094 114.8865,300.1322 114.0326,301.3549 112.8939,302.9857 110.6757,303.3177 109.1149,302.2279 107.526,301.1184 107.0458,298.9022 108.1845,297.2714 108.6097,296.6624 109.035,296.0534 109.4602,295.4444 111.4049,296.8023 113.3496,298.1602 115.2943,299.5182" stroke="black" stroke-width="1" /><polyline fill="none" points="92.953,296.6647 94.5181,297.9919 96.0832,299.3192 97.6483,300.6464 99.3967,298.5846 101.1451,296.5228 102.8936,294.4611 101.6095,294.968 100.4347,294.8943 99.2972,293.9297 97.7279,292.5989 97.6099,290.2731 98.8404,288.822 99.7201,287.7846 100.5998,286.7473 101.4795,285.7099 102.7657,284.1932 104.9244,284.1127 106.3501,285.3217 107.7622,286.5192 108.0224,288.6509 106.7363,290.1677" stroke="black" stroke-width="1" /><polyline fill="none" points="94.2427,285.4362 92.8199,286.826 90.5786,286.7392 89.2484,285.3774 87.9187,284.0161 87.8959,281.7852 89.3187,280.3954 90.3979,279.3412 91.4771,278.287 92.5563,277.2328 93.9788,275.8432 96.2091,275.9179 97.5388,277.2791 98.869,278.6409 98.8911,280.872 97.4685,282.2617 97.4724,282.2657 97.4763,282.2697 97.4803,282.2737 94.1935,285.4843 90.9067,288.6949 87.6199,291.9055" stroke="black" stroke-width="1" /><polyline fill="none" points="80.4429,280.5883 78.6029,282.076 74.1286,276.5418 90.5977,269.6438" stroke="black" stroke-width="1" /><polyline fill="none" points="79.1729,256.9158 80.2618,256.9131 81.4457,257.053 82.622,258.8246 83.6749,260.4105 83.2904,262.6207 81.5902,263.7495 80.3478,264.5744 79.1053,265.3994 77.8629,266.2243 76.2059,267.3245 74.0202,266.8207 72.9673,265.2348 71.8953,263.6203 72.2605,261.3822 73.9175,260.282 74.5363,259.8712 75.1551,259.4603 75.7739,259.0495 77.0859,261.0255 78.3978,263.0015 79.7098,264.9774" stroke="black" stroke-width="1" /><polyline fill="none" points="72.4554,254.7843 70.7178,255.7163 68.5584,255.065 67.6266,253.328 66.6861,251.5746 67.3462,249.4308 69.0839,248.4987 69.9801,248.0179 70.8764,247.5372 71.7727,247.0564 73.5103,246.1243 75.6608,246.7606 76.6013,248.514 77.5331,250.251 76.8819,252.4099 75.1442,253.342 72.1427,254.952 69.1412,256.562 66.1396,258.1721 64.4023,259.1039 62.2432,258.4525 61.3115,256.7154 60.5087,255.2189 60.8717,253.4293 62.0831,252.3511" stroke="black" stroke-width="1" /><polyline fill="none" points="60.1441,238.5223 61.9614,237.757 64.0429,238.5927 64.8081,240.41 65.58,242.2431 64.7296,244.3307 62.9123,245.096 61.9747,245.4908 61.0372,245.8856 60.0996,246.2804 58.2823,247.0457 56.194,246.1955 55.4286,244.3779 54.6568,242.5451 55.5141,240.472 57.3314,239.7067 60.4706,238.3849 63.6097,237.063 66.7488,235.7411 68.5657,234.976 70.6475,235.8115 71.4128,237.6288 72.0714,239.193 71.5425,240.9418 70.2351,241.9019" stroke="black" stroke-width="1" /><polyline fill="none" points="55.2773,234.0801 53.3963,234.6718 51.3969,233.6291 50.8052,231.7481 50.2082,229.8504 51.273,227.8081 53.154,227.2164 53.8909,226.9846 54.4267,226.9774 54.8544,227.0765 59.1824,228.0759 63.5103,229.0753 67.8383,230.0747 67.9743,230.0319 68.1104,229.9891 68.2464,229.9463 67.5363,227.6891 66.8263,225.4319 66.1162,223.1747" stroke="black" stroke-width="1" /><polyline fill="none" points="58.6145,219.9597 56.6864,220.3727 54.7928,219.1474 54.3799,217.22 53.9632,215.2744 55.1925,213.3981 57.1207,212.9851 58.1152,212.7721 59.1097,212.5591 60.1042,212.3461 62.0323,211.9331 63.9216,213.1414 64.3383,215.087 64.7512,217.0144 63.5262,218.9077 61.598,219.3206 58.2675,220.034 54.937,220.7474 51.6065,221.4608 49.6787,221.8737 47.7854,220.6483 47.3725,218.7209 47.0168,217.0603 47.8624,215.4419 49.3255,214.7424" stroke="black" stroke-width="1" /><polyline fill="none" points="54.6718,207.763 52.6964,207.9957 50.974,206.559 50.7514,204.6684 50.5288,202.7785 51.8723,200.9973 53.8476,200.7647 55.3459,200.5883 56.8441,200.4118 58.3424,200.2354 60.3174,200.0028 62.0386,201.4231 62.2612,203.313 62.4838,205.2036 61.1396,206.9845 59.1646,207.217 59.1653,207.2226 59.1659,207.2282 59.1666,207.2337 54.6034,207.7711 50.0403,208.3085 45.4771,208.8458" stroke="black" stroke-width="1" /><polyline fill="none" points="57.8179,188.1016 59.806,188.055 61.3866,189.6302 61.4312,191.533 61.4758,193.4358 59.9712,195.1001 57.9831,195.1467 56.4749,195.1821 54.9666,195.2175 53.4584,195.2528 51.47,195.2995 49.8897,193.7074 49.8451,191.8047 49.8004,189.9019 51.3048,188.2544 53.2932,188.2077" stroke="black" stroke-width="1" /><polyline fill="none" points="47.8412,182.1006 45.8743,181.962 44.3959,180.2592 44.5345,178.2922 44.6743,176.3078 46.4134,174.7976 48.3803,174.9362 49.151,174.9905 49.6521,175.1801 50.0137,175.429 53.6746,177.9446 57.3354,180.4602 60.9963,182.9758 61.1386,182.9858 61.2808,182.9958 61.4231,183.0059 61.5894,180.6454 61.7557,178.285 61.922,175.9246" stroke="black" stroke-width="1" /><polyline fill="none" points="49.1133,167.6849 46.2151,164.5101 63.1286,167.311" stroke="black" stroke-width="1" /><polyline fill="none" points="56.9199,157.3916 54.9966,156.8843 53.9204,154.9164 54.4059,153.0757 54.8912,151.2357 56.7939,150.0706 58.7171,150.5779 60.1758,150.9627 61.6345,151.3474 63.0933,151.7322 65.0162,152.2394 66.0973,154.1915 65.612,156.0315 65.1265,157.8722 63.2232,159.0368 61.3004,158.5296 61.2989,158.535 61.2975,158.5404 61.2961,158.5458 56.8533,157.374 52.4106,156.2021 47.9678,155.0303" stroke="black" stroke-width="1" /><polyline fill="none" points="53.994,143.0607 51.7727,142.2457 54.2241,135.5645 68.5998,146.1548" stroke="black" stroke-width="1" /><polyline fill="none" points="59.6169,123.2479 63.7633,125.2276 67.9096,127.2073 72.0559,129.187 73.8508,130.044 74.5416,132.1781 73.7214,133.896 72.9087,135.5981 70.8146,136.403 69.0197,135.546 67.6583,134.896 66.2969,134.246 64.9355,133.596 63.1406,132.739 62.4506,130.6048 63.2633,128.9027 64.0835,127.1849 66.1768,126.38 67.9717,127.2369" stroke="black" stroke-width="1" /><polyline fill="none" points="72.2376,114.6047 73.9297,115.6172 74.4873,117.7897 73.4748,119.4817 72.4535,121.1885 70.2672,121.7378 68.5751,120.7253 67.7022,120.203 66.8292,119.6806 65.9563,119.1583 64.2642,118.1458 63.7143,115.9591 64.727,114.2668 65.7481,112.5603 67.9267,112.0251 69.6188,113.0376 72.5415,114.7865 75.4643,116.5355 78.3871,118.2844 80.0788,119.2967 80.6367,121.4694 79.6242,123.1614 78.7528,124.6178 77.0299,125.226 75.4824,124.7399" stroke="black" stroke-width="1" /><polyline fill="none" points="74.0441,100.3608 77.7486,103.0788 81.4531,105.7969 85.1575,108.515 86.7612,109.6917 87.0419,111.9172 85.9158,113.452 84.8,114.9727 82.5926,115.373 80.9889,114.1964 79.7726,113.3039 78.5563,112.4115 77.3399,111.519 75.7363,110.3424 75.4563,108.117 76.5721,106.5963 77.6983,105.0615 79.9049,104.661 81.5085,105.8376" stroke="black" stroke-width="1" /><polyline fill="none" points="82.8005,90.0302 86.2342,93.0832 89.6679,96.1363 93.1016,99.1893 94.588,100.5109 94.6591,102.753 93.3941,104.1756 92.1409,105.5851 89.9056,105.777 88.4192,104.4554 87.2918,103.4529 86.1644,102.4505 85.037,101.4481 83.5506,100.1264 83.4803,97.8846 84.7335,96.4751 85.9985,95.0524 88.2329,94.8604 89.7193,96.182" stroke="black" stroke-width="1" /><polyline fill="none" points="93.8001,91.9962 92.4439,90.5412 92.5834,88.3026 93.9759,87.0047 95.368,85.7072 97.5988,85.7367 98.9549,87.1917 99.9835,88.2953 101.0121,89.3989 102.0407,90.5025 103.3966,91.9573 103.2697,94.1852 101.8776,95.4826 100.4851,96.7805 98.254,96.7503 96.8981,95.2955 96.894,95.2994 96.8899,95.3032 96.8858,95.307 93.7531,91.9458 90.6205,88.5847 87.4878,85.2235" stroke="black" stroke-width="1" /><polyline fill="none" points="104.1473,84.844 102.9439,83.282 103.2337,81.0452 104.7951,79.8421 106.3713,78.6278 108.5942,78.9288 109.7976,80.4908 110.4183,81.2965 111.0391,82.1021 111.6598,82.9078 112.8632,84.4699 112.5869,86.6954 111.0107,87.9098 109.4492,89.1128 107.2129,88.8231 106.0095,87.261 103.9307,84.5629 101.852,81.8647 99.7732,79.1665 98.57,77.6048 98.86,75.3683 100.4214,74.1653 101.7667,73.1288 103.5915,73.1945 104.8532,74.2135" stroke="black" stroke-width="1" /><polyline fill="none" points="122.666,77.5991 122.6431,78.6878 122.4755,79.8681 120.6768,81.0025 119.0667,82.018 116.8661,81.5817 115.7774,79.8556 114.9818,78.5941 114.1863,77.3327 113.3907,76.0713 112.3297,74.3889 112.8845,72.2157 114.4947,71.2002 116.1339,70.1664 118.3628,70.5839 119.4238,72.2663 119.82,72.8945 120.2163,73.5228 120.6125,74.1511 118.6063,75.4163 116.6001,76.6816 114.5939,77.9469" stroke="black" stroke-width="1" /><polyline fill="none" points="122.8249,63.8056 123.6701,59.5907 131.4174,74.8842" stroke="black" stroke-width="1" /><polyline fill="none" points="138.6059,61.7306 140.15,61.2316 141.2383,59.1921 140.519,57.3654 140.3516,56.9402 140.1841,56.5151 140.0167,56.0899 139.3381,54.3665 137.3803,53.516 135.641,54.2009 133.9179,54.8794 133.0789,56.8683 133.7449,58.5595 133.9123,58.9847 134.0797,59.4098 134.2471,59.835 134.9258,61.5587 136.8828,62.4091 138.6059,61.7306 140.5044,60.9831 142.5988,61.9455 143.321,63.7796 143.5681,64.4072 143.8152,65.0347 144.0623,65.6622 144.7846,67.4966 143.8964,69.5975 141.9979,70.345 140.1153,71.0863 138.0342,70.1547 137.3119,68.3203 137.0607,67.6823 136.8095,67.0444 136.5583,66.4064 135.9391,64.8339 136.5903,62.6333" stroke="black" stroke-width="1" /><polyline fill="none" points="151.2387,49.0711 149.2673,49.6408 147.2959,50.2106 145.3244,50.7803 146.075,53.3774 146.8255,55.9744 147.5761,58.5714 147.864,57.2212 148.5751,56.2833 150.008,55.8692 151.9846,55.2979 153.9876,56.4861 154.5159,58.3139 154.8935,59.6206 155.2711,60.9273 155.6488,62.2339 156.2009,64.1444 155.0739,65.9873 153.278,66.5063 151.4993,67.0204 149.5795,66.058 149.0274,64.1476" stroke="black" stroke-width="1" /><polyline fill="none" points="158.9012,50.6351 158.5687,48.8831 159.7398,47.0551 161.6438,46.6937 163.5467,46.3326 165.3082,47.5175 165.6854,49.5049 165.745,49.8192 165.8047,50.1335 165.8643,50.4478 166.4398,53.4798 163.8909,54.4867 163.5534,54.5507 163.2279,54.6125 162.9023,54.6743 162.5768,54.7361 162.9023,54.6743 163.2279,54.6125 163.5534,54.5507 164.5478,54.362 166.8942,55.1385 167.3416,57.4962 167.4727,58.187 167.6038,58.8777 167.7349,59.5685 168.1057,61.5219 166.8159,63.3724 164.8618,63.7433 162.8908,64.1174 161.0303,62.8648 160.6595,60.9113" stroke="black" stroke-width="1" /><polyline fill="none" points="152.2522,105.6322 188.8365,96.1804 136.578,231.1149 188.2428,253.3668 156.5688,130.1462 140.8637,108.5745 239.8942,231.6324 188.2428,253.3668 188.8365,96.1804 188.1635,280.8196" stroke="black" stroke-width="1" /><polyline fill="none" points="205.807,280.8839 170.52,280.7553" stroke="black" stroke-width="1" /><polyline fill="none" points="152.6261,108.5745 152.4813,106.7344 152.0504,104.9397 151.3441,103.2345 150.3797,101.6607 149.181,100.2572 147.7775,99.0585 146.2038,98.0941 144.4985,97.3878 142.7038,96.9569 140.8637,96.8121 139.0237,96.9569 137.2289,97.3878 135.5237,98.0941 133.95,99.0585 132.5465,100.2572 131.3477,101.6607 130.3834,103.2344 129.677,104.9397 129.2462,106.7344 129.1013,108.5745 129.2462,110.4145 129.677,112.2093 130.3834,113.9145 131.3477,115.4882 132.5465,116.8917 133.95,118.0904 135.5237,119.0548 137.2289,119.7612 139.0237,120.192 140.8637,120.3369 142.7038,120.192 144.4985,119.7612 146.2038,119.0548 147.7775,118.0904 149.181,116.8917 150.3797,115.4882 151.3441,113.9145 152.0504,112.2093 152.4813,110.4145 152.6261,108.5745" stroke="black" stroke-width="1" /><polyline fill="none" points="188.5,69.0664 199.6839,69.5912 210.7696,71.161 221.6595,73.7619 232.2581,77.3712 242.4721,81.9571 252.2118,87.4792 261.3915,93.8892 269.9308,101.1306 277.7544,109.1398 284.7936,117.8464 290.9866,127.1739 296.2789,137.0404 300.6241,147.3591 303.9839,158.0393 306.3289,168.9873 307.6383,180.1067 307.9008,191.2998 307.114,202.4684 305.2847,213.5142 302.4292,224.3402 298.5725,234.8512 293.7484,244.9549 287.9994,254.5625 281.376,263.5894 273.9365,271.9565 265.7461,279.5902 256.8768,286.4234 247.4067,292.3961 237.4188,297.4556 227.0011,301.5577 216.2451,304.6663 205.2452,306.7539 194.0981,307.8023 182.9019,307.8023 171.7548,306.7539 160.7549,304.6663 149.9989,301.5577 139.5811,297.4556 129.5933,292.3961 120.1232,286.4234 111.2539,279.5902 103.0635,271.9565 95.6239,263.5894 89.0006,254.5625 83.2516,244.9549 78.4275,234.8512 74.5708,224.3402 71.7153,213.5142 69.8861,202.4684 69.0992,191.2998 69.3617,180.1067 70.6712,168.9872 73.0161,158.0393 76.3759,147.3591 80.7211,137.0404 86.0134,127.174 92.2064,117.8464 99.2457,109.1398 107.0692,101.1306 115.6085,93.8892 124.7882,87.4792 134.5279,81.957 144.7419,77.3712 155.3405,73.7619 166.2304,71.161 177.3161,69.5912 188.5,69.0664" stroke="black" stroke-width="1" />

    </g>
  </g>
  <WCB
     pausedposy="0"
     pausedposx="0"
     lastknownposy="0"
     lastknownposx="0"
     lastpathnc="0"
     lastpath="0"
     node="0"
     layer="0" />
</svg>
