<?xml version="1.0" encoding="UTF-8" standalone="no"?>
<!-- Created with Inkscape (http://www.inkscape.org/) -->

<svg
   xmlns:dc="http://purl.org/dc/elements/1.1/"
   xmlns:cc="http://creativecommons.org/ns#"
   xmlns:rdf="http://www.w3.org/1999/02/22-rdf-syntax-ns#"
   xmlns:svg="http://www.w3.org/2000/svg"
   xmlns="http://www.w3.org/2000/svg"
   xmlns:sodipodi="http://sodipodi.sourceforge.net/DTD/sodipodi-0.dtd"
   xmlns:inkscape="http://www.inkscape.org/namespaces/inkscape"
   width="100mm"
   height="100mm"
   viewBox="0 0 100 100"
   version="1.1"
   id="svg19124"
   inkscape:version="0.92.3 (2405546, 2018-03-11)"
   sodipodi:docname="inkscape_template_TMP.svg"
   shape-rendering="crispEdges">
  <sodipodi:namedview
     pagecolor="#ffffff"
     bordercolor="#666666"
     borderopacity="1"
     objecttolerance="10"
     gridtolerance="10"
     guidetolerance="10"
     inkscape:pageopacity="0"
     inkscape:pageshadow="2"
     inkscape:window-width="1568"
     inkscape:window-height="1550"
     id="namedview24021"
     showgrid="false"
     inkscape:zoom="0.62441667"
     inkscape:cx="712.66515"
     inkscape:cy="409.98265"
     inkscape:window-x="0"
     inkscape:window-y="0"
     inkscape:window-maximized="0"
     inkscape:current-layer="layer1" />
  <defs
     id="defs19118" />
  <metadata
     id="metadata19121">
    <rdf:RDF>
      <cc:Work
         rdf:about="">
        <dc:format>image/svg+xml</dc:format>
        <dc:type
           rdf:resource="http://purl.org/dc/dcmitype/StillImage" />
        <dc:title />
      </cc:Work>
    </rdf:RDF>
  </metadata>
  <g
     transform="translate(0,-197)"
     id="layer1"
     inkscape:groupmode="layer"
     inkscape:label="Layer 1">
    <g
       id="g24447"
       transform="matrix(0.26458333,0,0,0.26458333,0.10666333,197.9735)">

<polyline fill="none" points="192.1004,47.7394 189.7225,51.1455 187.3447,54.5516 184.9669,57.9577 184.9669,54.5516 184.9669,51.1455 184.9669,47.7394 184.9669,45.7676 186.5623,44.1729 188.5334,44.1729 190.5231,44.1729 192.1004,45.7676 192.1004,47.7394 192.1004,51.1455 192.1004,54.5516 192.1004,57.9577 192.1004,59.9295 190.5231,61.5235 188.5509,61.5235 186.5623,61.5235 184.9669,59.9295 184.9669,57.9577" stroke="black" stroke-width="1" /><polyline fill="none" points="197.8298,61.5877 200.7471,57.7851 198.696,53.7706 202.935,62.0679 200.7471,57.7851 203.4811,54.2207" stroke="black" stroke-width="1" /><polyline fill="none" points="211.3535,48.3775 211.7947,46.0529 218.7866,47.3798 210.6873,63.2925" stroke="black" stroke-width="1" /><polyline fill="none" points="224.2171,52.3012 224.7646,50.4068 226.7393,49.3179 228.6336,49.8654 230.5447,50.4177 231.6572,52.4345 231.1097,54.3288 230.8952,55.071 230.6048,55.5213 230.2857,55.8228 227.0592,58.8756 223.8327,61.9283 220.6061,64.9811 220.5665,65.1182 220.5269,65.2552 220.4873,65.3922 222.7606,66.0492 225.0338,66.7061 227.3071,67.3631" stroke="black" stroke-width="1" /><polyline fill="none" points="243.4219,58.8463 239.9615,61.1443 236.5011,63.4424 233.0407,65.7404 234.2886,62.5712 235.5365,59.4019 236.7844,56.2327 237.5069,54.398 239.5756,53.4987 241.4097,54.2209 243.261,54.9499 244.1443,57.0115 243.4219,58.8463 242.174,62.0155 240.926,65.1848 239.6781,68.354 238.9557,70.1887 236.9041,71.094 235.069,70.3714 233.2187,69.6428 232.3182,67.5752 233.0407,65.7404" stroke="black" stroke-width="1" /><polyline fill="none" points="248.3212,76.2715 250.2659,72.4326 244.8199,69.6738 255.6708,60.7766" stroke="black" stroke-width="1" /><polyline fill="none" points="256.7554,73.6038 257.8073,71.9359 260.007,71.4374 261.6743,72.489 263.3572,73.5504 263.8404,75.7409 262.7885,77.4087 262.2459,78.269 261.7034,79.1292 261.1608,79.9895 260.1089,81.6574 257.9244,82.1646 256.2415,81.1031 254.5742,80.0516 254.0758,77.8524 255.1277,76.1845 256.9447,73.3036 258.7617,70.4226 260.5786,67.5417 261.6303,65.8741 263.8299,65.3759 265.4971,66.4274 266.9336,67.3334 267.5004,69.0691 266.9784,70.6046" stroke="black" stroke-width="1" /><polyline fill="none" points="268.2354,79.3059 269.4492,77.7303 271.6805,77.5021 273.1885,78.6639 274.696,79.8253 275.0314,82.031 273.8174,83.6066 272.8967,84.8017 271.976,85.9968 271.0553,87.1918 269.8416,88.7672 267.6229,89.006 266.1154,87.8446 264.6075,86.6828 264.2728,84.4767 265.4865,82.9014 265.482,82.898 265.4776,82.8946 265.4731,82.8912 268.2773,79.2514 271.0815,75.6117 273.8857,71.972" stroke="black" stroke-width="1" /><polyline fill="none" points="288.1847,84.3375 287.4579,83.66 286.4463,83.5379 285.5814,84.466 284.7437,85.3647 283.906,86.2635 283.0683,87.1623 283.5114,87.5752 283.9543,87.9881 284.3974,88.401 283.5445,87.6061 282.6917,86.8112 281.8388,86.0163 282.2486,86.3983 282.6584,86.7803 283.0683,87.1623 280.4929,89.9256 277.9174,92.6888 275.3419,95.4521" stroke="black" stroke-width="1" /><polyline fill="none" points="298.2685,94.7999 296.9049,93.2663 295.5414,91.7328 294.1778,90.1992 292.1576,91.9955 290.1373,93.7918 288.1171,95.588 289.4596,95.2661 290.6124,95.5037 291.6035,96.6183 292.9707,98.156 292.7614,100.4754 291.3396,101.7396 290.3232,102.6434 289.3067,103.5472 288.2902,104.451 286.8041,105.7724 284.6555,105.5494 283.4133,104.1525 282.183,102.7688 282.2243,100.6216 283.7104,99.3002" stroke="black" stroke-width="1" /><polyline fill="none" points="306.5604,105.4905 305.3464,103.836 304.1324,102.1815 302.9185,100.527 300.7389,102.1262 298.5594,103.7254 296.3798,105.3246 297.7466,105.1298 298.872,105.4743 299.7544,106.6768 300.9716,108.3357 300.5461,110.6254 299.0121,111.7509 297.9155,112.5556 296.8188,113.3602 295.7222,114.1648 294.1189,115.3413 292.0005,114.9181 290.8947,113.4109 289.7994,111.9181 290.0415,109.7843 291.6449,108.6078" stroke="black" stroke-width="1" /><polyline fill="none" points="314.1503,117.2212 310.2076,119.5804 306.2649,121.9397 302.3222,124.299 300.6154,125.3203 298.4554,124.7153 297.4779,123.0817 296.5094,121.4632 296.9971,119.2735 298.7039,118.2522 299.9985,117.4775 301.293,116.7029 302.5876,115.9282 304.2943,114.9069 306.454,115.5126 307.4225,117.1311 308.3999,118.7646 307.9126,120.9537 306.2059,121.975" stroke="black" stroke-width="1" /><polyline fill="none" points="304.3823,136.1063 308.2657,134.2521 305.6354,128.743 319.6611,128.3174" stroke="black" stroke-width="1" /><polyline fill="none" points="312.3342,146.7498 310.4673,147.4348 308.4632,146.4532 307.8076,144.6665 307.152,142.8797 308.0398,140.8191 309.9067,140.1341 311.323,139.6144 312.7393,139.0947 314.1556,138.5751 316.0229,137.8899 318.032,138.8875 318.6876,140.6743 319.3433,142.4611 318.4503,144.5057 316.5831,145.1908" stroke="black" stroke-width="1" /><polyline fill="none" points="312.1193,158.6325 316.2804,157.535 314.7234,151.632 328.5825,153.8291" stroke="black" stroke-width="1" /><polyline fill="none" points="327.9191,161.6873 330.2534,161.3007 331.4161,168.3218 313.6874,166.1996" stroke="black" stroke-width="1" /><polyline fill="none" points="317.3481,182.9067 316.3996,182.372 315.4387,181.6663 315.2892,179.5451 315.1555,177.6461 316.5801,175.9131 318.6158,175.7697 320.1035,175.6649 321.5912,175.5601 323.0789,175.4553 325.0629,175.3155 326.7158,176.8317 326.8495,178.7306 326.9857,180.6638 325.5642,182.4306 323.5801,182.5704 322.8392,182.6226 322.0983,182.6748 321.3573,182.727 321.1906,180.361 321.024,177.995 320.8573,175.629" stroke="black" stroke-width="1" /><polyline fill="none" points="332.8027,195.2382 328.2093,195.1305 323.6158,195.0228 319.0225,194.9151 317.034,194.8684 315.5297,193.2044 315.5743,191.3013 315.6185,189.4157 317.1992,187.8237 319.1876,187.8703 320.6959,187.9057 322.204,187.9411 323.7123,187.9764 325.7007,188.023 327.2043,189.6874 327.1601,191.573 327.1155,193.4761 325.5355,195.0678 323.5471,195.0211" stroke="black" stroke-width="1" /><polyline fill="none" points="317.8355,207.2167 315.8605,206.9841 314.5163,205.2029 314.7389,203.3126 314.9615,201.4224 316.6847,199.9854 318.6597,200.218 320.158,200.3945 321.6562,200.5709 323.1545,200.7474 325.1298,200.98 326.4713,202.7778 326.2487,204.6681 326.0261,206.5583 324.3056,207.9787 322.3303,207.746" stroke="black" stroke-width="1" /><polyline fill="none" points="329.0679,220.5552 329.276,219.5836 328.8614,218.6529 327.6209,218.3872 326.4196,218.1299 325.2182,217.8726 324.0168,217.6152 323.89,218.2074 323.7631,218.7996 323.6363,219.3918 323.8805,218.2518 324.1246,217.1118 324.3688,215.9717 324.2515,216.5196 324.1342,217.0674 324.0168,217.6152 320.3232,216.8241 316.6296,216.033 312.9359,215.2418" stroke="black" stroke-width="1" /><polyline fill="none" points="308.994,229.1818 313.099,230.4732 314.931,224.6497 325.4814,233.9012" stroke="black" stroke-width="1" /><polyline fill="none" points="319.5868,239.9012 321.4041,240.6665 322.2546,242.7549 321.4894,244.5722 320.7173,246.4057 318.5843,247.2746 316.767,246.5093 316.055,246.2095 315.6417,245.8684 315.3796,245.5163 312.7252,241.9548 310.0706,238.3934 307.4162,234.832 307.2847,234.7766 307.1533,234.7213 307.0219,234.6659 306.1035,236.8467 305.1852,239.0275 304.2668,241.2083" stroke="black" stroke-width="1" /><polyline fill="none" points="308.5441,252.9151 307.6891,254.2944 308.1783,256.5537 309.9084,257.4818 310.311,257.6978 310.7137,257.9137 311.1163,258.1297 312.7485,259.0052 314.7918,258.3876 315.6754,256.7403 316.5507,255.1084 315.9042,253.0488 314.3025,252.1897 313.8999,251.9737 313.4972,251.7577 313.0946,251.5417 311.462,250.6661 309.4194,251.2832 308.5441,252.9151 307.5796,254.7132 305.3597,255.3337 303.6227,254.402 303.0284,254.0832 302.4341,253.7644 301.8397,253.4456 300.1024,252.5137 299.421,250.337 300.3855,248.5389 301.3419,246.7559 303.5317,246.1205 305.269,247.0524 305.8732,247.3764 306.4774,247.7005 307.0816,248.0246 308.5709,248.8235 309.4975,250.923" stroke="black" stroke-width="1" /><polyline fill="none" points="293.9823,262.7065 293.5573,261.704 293.2267,260.5586 294.4029,258.787 295.4559,257.2011 297.6421,256.6977 299.3423,257.8265 300.5847,258.6515 301.8272,259.4764 303.0696,260.3013 304.7267,261.4015 305.1106,263.6113 304.0576,265.1972 302.9857,266.8117 300.7813,267.3437 299.1243,266.2436 298.5055,265.8327 297.8867,265.4218 297.2679,265.011 298.5799,263.035 299.8918,261.059 301.2038,259.083" stroke="black" stroke-width="1" /><polyline fill="none" points="301.1775,274.8735 303.0175,276.3611 298.5432,281.8953 288.3488,267.2362" stroke="black" stroke-width="1" /><polyline fill="none" points="284.4155,287.3821 283.0049,286.0043 282.9673,283.7617 284.3451,282.3511 285.735,280.9283 287.9891,280.9019 289.3996,282.2798 290.1273,282.9906 290.8551,283.7015 291.5828,284.4123 292.9933,285.7902 293.0203,288.0448 291.6422,289.4556 290.2526,290.8782 288.0092,290.8926 286.5986,289.5147 284.1621,287.1347 281.7256,284.7546 279.2891,282.3745 277.8788,280.9969 277.8409,278.7541 279.2187,277.3435 280.4047,276.1295 282.2217,275.9382 283.614,276.7704" stroke="black" stroke-width="1" /><polyline fill="none" points="274.7346,295.9293 273.4592,294.4254 273.6317,292.1892 275.1356,290.9138 276.6526,289.6274 278.8993,289.8122 280.1746,291.3161 280.8326,292.092 281.4905,292.8678 282.1485,293.6437 283.4238,295.1476 283.2395,297.3948 281.7353,298.6704 280.2186,299.9566 277.9838,299.7609 276.7084,298.257 274.5055,295.6592 272.3026,293.0614 270.0996,290.4637 268.8245,288.9601 268.9968,286.7235 270.5007,285.4482 271.7951,284.3505 273.622,284.3302 274.9302,285.2892" stroke="black" stroke-width="1" /><polyline fill="none" points="267.9014,295.9959 269.0303,297.6126 268.636,299.8334 267.0199,300.9619 265.3885,302.101 263.1822,301.6962 262.0533,300.0794 261.471,299.2455 260.8887,298.4117 260.3065,297.5778 259.1776,295.9611 259.5579,293.7509 261.1893,292.6118 262.8054,291.4833 265.0257,291.8775 266.1546,293.4942 268.1046,296.2869 270.0546,299.0795 272.0046,301.8721 273.1333,303.4886 272.7388,305.709 271.1227,306.8375 269.7302,307.8098 267.9106,307.6586 266.6981,306.5816" stroke="black" stroke-width="1" /><polyline fill="none" points="249.9209,303.8493 248.9401,302.1193 249.5811,299.9819 251.2367,299.0431 252.8924,298.1044 255.0703,298.6436 256.0512,300.3736 256.7953,301.6859 257.5393,302.9983 258.2834,304.3106 259.2644,306.0409 258.6085,308.186 256.9528,309.1248 255.2971,310.0635 253.1342,309.5166 252.1532,307.7863" stroke="black" stroke-width="1" /><polyline fill="none" points="244.2812,312.7914 242.7622,313.3622 241.7707,315.4505 242.5748,317.2415 242.762,317.6584 242.9491,318.0752 243.1363,318.492 243.8949,320.1818 245.8904,320.9395 247.5958,320.1739 249.2852,319.4153 250.03,317.3893 249.2855,315.7312 249.0984,315.3143 248.9112,314.8975 248.7241,314.4807 247.9653,312.7906 245.9706,312.0329 244.2812,312.7914 242.4198,313.6271 240.2826,312.7639 239.4752,310.9656 239.199,310.3504 238.9227,309.7351 238.6465,309.1199 237.839,307.3214 238.6277,305.1812 240.4892,304.3454 242.3349,303.5167 244.4574,304.3498 245.2649,306.1483 245.5457,306.7738 245.8266,307.3993 246.1074,308.0247 246.7996,309.5665 246.2523,311.7953" stroke="black" stroke-width="1" /><polyline fill="none" points="232.3973,317.4687 230.8315,317.8948 229.6488,319.881 230.2817,321.7395 230.429,322.172 230.5763,322.6046 230.7236,323.037 231.3207,324.7904 233.2364,325.7317 235.006,325.1291 236.759,324.5321 237.6902,322.5847 237.1043,320.8641 236.957,320.4316 236.8097,319.9991 236.6624,319.5666 236.0652,317.8129 234.1503,316.8717 232.3973,317.4687 230.4658,318.1264 228.4188,317.0668 227.7834,315.2009 227.5659,314.5625 227.3485,313.9241 227.1311,313.2856 226.4956,311.4194 227.4813,309.3625 229.4128,308.7047 231.328,308.0525 233.3632,309.0807 233.9987,310.9469 234.2198,311.5959 234.4408,312.245 234.6618,312.894 235.2066,314.4938 234.453,316.6615" stroke="black" stroke-width="1" /><polyline fill="none" points="218.788,329.7491 217.7206,325.2801 216.6533,320.8112 215.5859,316.3422 215.1238,314.4076 216.3491,312.5286 218.2007,312.0864 220.0352,311.6482 221.9777,312.7706 222.4398,314.7052 222.7903,316.1725 223.1407,317.6399 223.4912,319.1072 223.9532,321.0418 222.7274,322.9202 220.8929,323.3583 219.0413,323.8005 217.0993,322.6788 216.6373,320.7442" stroke="black" stroke-width="1" /><polyline fill="none" points="204.1319,325.3689 203.8554,323.4166 205.1942,321.6171 207.1466,321.3406 209.116,321.0618 210.9177,322.4165 211.1942,324.3689 211.3368,325.3761 211.4794,326.3834 211.622,327.3906 211.8985,329.343 210.5438,331.1454 208.5911,331.4219 206.6221,331.7008 204.8362,330.3431 204.5597,328.3907 204.0822,325.0182 203.6046,321.6458 203.1271,318.2734 202.8507,316.3214 204.1895,314.5215 206.1418,314.2451 207.8223,314.0071 209.3784,314.9645 209.9733,316.4736" stroke="black" stroke-width="1" /><polyline fill="none" points="198.8229,330.0981 198.9338,332.4617 191.8249,332.7953 196.0061,315.4364" stroke="black" stroke-width="1" /><polyline fill="none" points="178.9188,318.8311 179.012,316.8446 180.6944,315.3786 182.5956,315.4678 184.4968,315.557 186.0513,317.1749 185.9581,319.1614 185.8874,320.6683 185.8167,322.1753 185.7459,323.6823 185.6527,325.6691 183.9536,327.1336 182.0524,327.0444 180.1512,326.9552 178.6134,325.3387 178.7067,323.352" stroke="black" stroke-width="1" /><polyline fill="none" points="165.3836,330.9586 167.4155,331.2463 169.4473,331.5341 171.4791,331.8217 171.8581,329.1451 172.2372,326.4686 172.6162,323.7919 171.8005,324.9058 170.7676,325.4701 169.2908,325.261 167.2536,324.9725 165.913,323.0682 166.1797,321.1844 166.3704,319.8377 166.5611,318.491 166.7518,317.1442 167.0307,315.1752 168.8136,313.9556 170.6645,314.2177 172.4977,314.4773 173.855,316.1416 173.5761,318.1106" stroke="black" stroke-width="1" /><polyline fill="none" points="152.8988,321.579 153.3569,319.6611 155.2619,318.4773 157.1799,318.9353 159.1144,319.3974 160.2945,321.3181 159.8365,323.236 159.6001,324.2254 159.3638,325.2149 159.1275,326.2044 158.6694,328.1223 156.7486,329.3031 154.8303,328.8449 152.8961,328.3829 151.7318,326.4653 152.1899,324.5474 152.9811,321.2345 153.7724,317.9216 154.5636,314.6087 155.0216,312.6912 156.9267,311.507 158.8446,311.9651 160.4954,312.3593 161.5925,313.8203 161.5932,315.4424" stroke="black" stroke-width="1" /><polyline fill="none" points="143.1104,311.047 143.7514,309.1645 145.7747,308.2232 147.5764,308.8368 149.3781,309.4503 150.4222,311.4362 149.7812,313.3187 149.2949,314.7468 148.8085,316.1749 148.3222,317.603 147.681,319.4858 145.6421,320.421 143.8404,319.8074 142.0387,319.1938 141.0102,317.2141 141.6514,315.3312" stroke="black" stroke-width="1" /><polyline fill="none" points="129.9544,311.0148 129.9521,311.0198 129.9499,311.0247 129.9476,311.0297 130.9026,308.9028 131.8576,306.7758 132.8125,304.6488 133.2539,303.6658 132.7335,302.9789 132.2187,302.7477 132.8759,303.0428 133.1714,303.8496 132.8686,304.524 132.8499,304.5656 132.8312,304.6072 132.8125,304.6488 134.2144,304.2071 135.6838,304.1152 137.0441,304.7259 138.1705,305.2316 139.7477,306.6167 138.7155,308.9157 138.1747,310.1202 137.1586,310.5844 136.0063,310.5549 135.4461,310.5481 133.8255,310.1779 132.7336,309.9319 131.6189,309.6942 130.4952,309.8102 129.9544,311.0148 129.4067,312.2346 129.9828,314.259 131.8595,315.1016 133.6274,315.8953 134.8267,315.4006 135.7013,314.8349" stroke="black" stroke-width="1" /><polyline fill="none" points="114.797,312.5834 116.5822,313.5956 118.3673,314.6077 120.1524,315.6198 121.4857,313.2682 122.8191,310.9166 124.1524,308.5649 122.9853,309.3025 121.8175,309.4491 120.52,308.7135 118.7301,307.6987 118.1805,305.4356 119.1188,303.7805 119.7897,302.5973 120.4606,301.4141 121.1314,300.2309 122.1122,298.5009 124.2181,298.0194 125.8442,298.9414 127.4548,299.8546 128.108,301.9004 127.1271,303.6303" stroke="black" stroke-width="1" /><polyline fill="none" points="114.9342,300.0707 113.8053,301.6874 111.5846,302.0822 109.9685,300.9537 108.3371,299.8146 107.9572,297.6038 109.0861,295.9871 109.6683,295.1532 110.2506,294.3193 110.8329,293.4855 111.9618,291.8687 114.1677,291.4645 115.7991,292.6036 117.4152,293.7321 117.8099,295.9523 116.681,297.569 114.731,300.3616 112.781,303.1543 110.831,305.9469 109.7023,307.5634 107.4818,307.9579 105.8657,306.8293 104.4733,305.8571 103.9884,304.0967 104.5818,302.5874" stroke="black" stroke-width="1" /><polyline fill="none" points="94.7144,293.5274 98.7309,292.4676 102.7473,291.4077 106.7638,290.3478 104.5609,292.9456 102.3579,295.5434 100.155,298.1411 98.8796,299.645 96.6314,299.8294 95.1281,298.5545 93.6105,297.2676 93.439,295.0313 94.7144,293.5274 96.9173,290.9297 99.1203,288.3319 101.3232,285.7341 102.5985,284.2302 104.8324,284.0346 106.3366,285.3102 107.8533,286.5964 108.0391,288.8439 106.7638,290.3478" stroke="black" stroke-width="1" /><polyline fill="none" points="92.6303,277.3087 94.0529,275.9191 96.2831,275.9937 97.6131,277.3552 98.9431,278.7167 98.9771,280.9602 97.5546,282.3498 96.4754,283.404 95.3962,284.4581 94.317,285.5123 92.8942,286.9022 90.6527,286.815 89.3227,285.4535 87.9928,284.092 87.9699,281.8611 89.3927,280.4713" stroke="black" stroke-width="1" /><polyline fill="none" points="84.7354,267.9411 86.2818,266.6908 88.4953,266.9739 89.6919,268.454 90.8886,269.9341 90.7124,272.1708 89.1659,273.4211 87.9928,274.3696 86.8196,275.3181 85.6465,276.2666 84.0997,277.5171 81.8763,277.2205 80.6796,275.7404 79.483,274.2603 79.6692,272.037 81.2159,270.7866" stroke="black" stroke-width="1" /><polyline fill="none" points="67.3448,266.6557 67.8944,267.4834 68.85,267.8372 69.9069,267.1355 70.9304,266.4559 71.954,265.7763 72.9775,265.0967 72.6425,264.5922 72.3075,264.0876 71.9725,263.5831 72.6174,264.5544 73.2623,265.5257 73.9072,266.4969 73.5973,266.0302 73.2874,265.5635 72.9775,265.0967 76.1244,263.0073 79.2714,260.9179 82.4183,258.8285" stroke="black" stroke-width="1" /><polyline fill="none" points="65.1672,258.8251 63.0821,259.9435 59.7181,253.6721 77.1845,249.9659" stroke="black" stroke-width="1" /><polyline fill="none" points="59.8919,246.3168 58.2484,247.0089 56.2157,246.2466 55.4635,244.4605 54.7119,242.6755 55.5015,240.7049 57.3659,239.9198 57.6607,239.7957 57.9556,239.6715 58.2504,239.5474 61.0947,238.3496 62.613,240.6311 62.7464,240.9477 62.8749,241.2531 63.0035,241.5584 63.1321,241.8638 63.0035,241.5584 62.8749,241.2531 62.7464,240.9477 62.3535,240.0149 62.6214,237.5579 64.833,236.6266 65.481,236.3537 66.1291,236.0809 66.7771,235.808 68.6095,235.0363 70.6891,235.9099 71.461,237.743 72.2396,239.5919 71.4044,241.6736 69.572,242.4452" stroke="black" stroke-width="1" /><polyline fill="none" points="54.2173,234.5951 51.9602,235.3051 49.8246,228.5164 67.6758,228.132" stroke="black" stroke-width="1" /><polyline fill="none" points="51.1793,220.2008 47.3194,218.3085 64.083,214.7179" stroke="black" stroke-width="1" /><polyline fill="none" points="51.3022,200.919 53.2606,200.6884 55.0282,202.069 55.2588,204.0274 55.4914,206.0027 54.0948,207.7722 52.1364,208.0028 51.1261,208.1218 50.1158,208.2408 49.1055,208.3597 47.1472,208.5904 45.377,207.1938 45.1463,205.2352 44.9137,203.2602 46.313,201.5066 48.2713,201.2759 51.654,200.8776 55.0367,200.4792 58.4194,200.0809 60.3773,199.8503 62.1453,201.2309 62.3759,203.1892 62.5744,204.8748 61.5808,206.408 60.0582,206.9674" stroke="black" stroke-width="1" /><polyline fill="none" points="50.7422,188.017 52.7135,187.9708 54.344,189.5109 54.3902,191.4822 54.4369,193.4707 52.8807,195.1016 50.9094,195.1478 49.8923,195.1716 48.8753,195.1955 47.8583,195.2193 45.887,195.2656 44.2554,193.7094 44.2091,191.7377 44.1625,189.7496 45.7198,188.1348 47.6911,188.0886 51.0962,188.0087 54.5014,187.9289 57.9065,187.849 59.8775,187.8028 61.5084,189.3429 61.5546,191.3142 61.5944,193.011 60.4615,194.4444 58.8933,194.8588" stroke="black" stroke-width="1" /><polyline fill="none" points="47.8412,182.1006 45.8743,181.962 44.3959,180.2592 44.5345,178.2922 44.6743,176.3078 46.4134,174.7976 48.3803,174.9362 49.151,174.9905 49.6521,175.1801 50.0137,175.429 53.6746,177.9446 57.3354,180.4602 60.9963,182.9758 61.1386,182.9858 61.2808,182.9958 61.4231,183.0059 61.5894,180.6454 61.7557,178.285 61.922,175.9246" stroke="black" stroke-width="1" /><polyline fill="none" points="47.8803,168.9376 45.5459,168.551 46.7086,161.53 62.8068,169.254" stroke="black" stroke-width="1" /><polyline fill="none" points="49.7103,148.4238 54.153,149.5957 58.5958,150.7675 63.0385,151.9393 64.9617,152.4466 66.0384,154.4146 65.5528,156.2552 65.0718,158.079 63.1645,159.2603 61.2413,158.753 59.7826,158.3682 58.3239,157.9835 56.8651,157.5987 54.9419,157.0914 53.8661,155.1233 54.3471,153.2996 54.8326,151.4589 56.7391,150.2778 58.6623,150.785" stroke="black" stroke-width="1" /><polyline fill="none" points="67.0508,140.25 68.9177,140.9351 69.8113,142.9799 69.1557,144.7666 68.5,146.5535 66.4902,147.5508 64.6233,146.8658 63.207,146.3461 61.7907,145.8264 60.3744,145.3068 58.5071,144.6216 57.62,142.5613 58.2756,140.7745 58.9312,138.9877 60.9346,138.0059 62.8019,138.691" stroke="black" stroke-width="1" /><polyline fill="none" points="60.3724,129.8039 58.4696,125.9492 73.9405,133.3359" stroke="black" stroke-width="1" /><polyline fill="none" points="65.7696,112.842 65.2595,113.6946 65.3519,114.7093 66.4405,115.3607 67.4948,115.9916 68.5491,116.6224 69.6034,117.2533 69.9144,116.7336 70.2253,116.2139 70.5363,115.6943 69.9376,116.6947 69.339,117.6951 68.7403,118.6956 69.028,118.2148 69.3157,117.7341 69.6034,117.2533 72.8448,119.1929 76.0862,121.1325 79.3276,123.0721" stroke="black" stroke-width="1" /><polyline fill="none" points="71.8979,107.5029 69.9901,106.1031 74.2002,100.3653 85.0704,114.5304" stroke="black" stroke-width="1" /><polyline fill="none" points="82.8005,90.0302 86.2342,93.0832 89.6679,96.1363 93.1016,99.1893 94.588,100.5109 94.6591,102.753 93.3941,104.1756 92.1409,105.5851 89.9056,105.777 88.4192,104.4554 87.2918,103.4529 86.1644,102.4505 85.037,101.4481 83.5506,100.1264 83.4803,97.8846 84.7335,96.4751 85.9985,95.0524 88.2329,94.8604 89.7193,96.182" stroke="black" stroke-width="1" /><polyline fill="none" points="89.9669,87.9164 88.6225,86.4739 88.702,84.2203 90.1445,82.8759 91.5998,81.5195 93.9016,81.6005 95.246,83.043 95.7727,83.6081 96.01,84.0885 96.1049,84.5171 97.0677,88.8534 98.0306,93.1896 98.9935,97.5258 99.0907,97.6302 99.188,97.7345 99.2852,97.8388 101.0162,96.2255 102.7472,94.6122 104.4782,92.9988" stroke="black" stroke-width="1" /><polyline fill="none" points="100.7262,78.2382 100.7707,73.9397 111.2337,87.5203" stroke="black" stroke-width="1" /><polyline fill="none" points="109.6814,70.4143 108.4192,68.4129 114.4387,64.6166 119.3633,81.7794" stroke="black" stroke-width="1" /><polyline fill="none" points="125.8942,58.4641 124.0636,59.3914 122.233,60.3188 120.4024,61.2461 121.624,63.6576 122.8457,66.0692 124.0673,68.4807 124.0984,67.1005 124.6222,66.0464 125.9527,65.3724 127.7882,64.4426 129.9776,65.2365 130.8373,66.9337 131.452,68.147 132.0667,69.3604 132.6813,70.5738 133.58,72.3478 132.8164,74.3685 131.1488,75.2132 129.4971,76.0499 127.4315,75.4624 126.5328,73.6884" stroke="black" stroke-width="1" /><polyline fill="none" points="136.2426,65.4995 135.5202,63.6648 136.4196,61.5964 138.2537,60.8742 140.105,60.1452 142.157,61.0515 142.8794,62.8862 143.252,63.8326 143.6247,64.7789 143.9973,65.7252 144.7198,67.56 143.8364,69.6213 141.985,70.3503 140.1509,71.0725 138.083,70.1733 137.3605,68.3385 136.1126,65.1693 134.8647,62.0001 133.6168,58.8309 132.8945,56.9964 133.794,54.9284 135.6281,54.2062 137.2083,53.584 138.9431,54.1538 139.8722,55.483" stroke="black" stroke-width="1" /><polyline fill="none" points="150.696,57.6155 152.2801,57.2633 153.5546,55.3346 153.0095,53.4485 152.8826,53.0096 152.7557,52.5706 152.6289,52.1317 152.1146,50.3523 150.2451,49.3222 148.4492,49.8412 146.6702,50.3554 145.6487,52.257 146.1533,54.0031 146.2802,54.4421 146.407,54.881 146.5339,55.32 147.0482,57.0997 148.917,58.1297 150.696,57.6155 152.6562,57.049 154.6513,58.2034 155.1986,60.097 155.3858,60.7449 155.5731,61.3929 155.7603,62.0408 156.3077,63.9348 155.2267,65.9432 153.2665,66.5097 151.3227,67.0715 149.338,65.949 148.7906,64.055 148.6003,63.3964 148.4099,62.7377 148.2196,62.079 147.7503,60.4554 148.6048,58.3255" stroke="black" stroke-width="1" /><polyline fill="none" points="165.791,49.5367 164.09,53.3264 162.389,57.1161 160.6879,60.9058 160.0528,57.5595 159.4178,54.2131 158.7827,50.8668 158.415,48.9295 159.6851,47.0653 161.6216,46.6978 163.5765,46.3268 165.4233,47.5994 165.791,49.5367 166.4261,52.883 167.0612,56.2294 167.6963,59.5757 168.064,61.513 166.8116,63.3731 164.874,63.7408 162.9203,64.1116 161.0556,62.8431 160.6879,60.9058" stroke="black" stroke-width="1" /><polyline fill="none" points="213.2483,139.6664 158.7145,203.9175 140.8637,108.5745 268.4255,140.8637 268.4255,140.8637 268.1431,236.6952 239.8942,231.6324 108.8569,140.3048 239.8942,231.6324 96.1804,188.1635" stroke="black" stroke-width="1" /><polyline fill="none" points="91.0723,205.0515 101.2885,171.2755" stroke="black" stroke-width="1" /><polyline fill="none" points="232.6221,130.6987 232.4773,128.8586 232.0464,127.0639 231.3401,125.3586 230.3757,123.7849 229.177,122.3814 227.7735,121.1827 226.1998,120.2183 224.4945,119.5119 222.6998,119.0811 220.8597,118.9362 219.0197,119.0811 217.225,119.5119 215.5197,120.2183 213.946,121.1827 212.5425,122.3814 211.3438,123.7849 210.3794,125.3586 209.673,127.0639 209.2422,128.8586 209.0973,130.6987 209.2422,132.5387 209.673,134.3334 210.3794,136.0387 211.3438,137.6124 212.5425,139.0159 213.946,140.2146 215.5197,141.179 217.2249,141.8854 219.0197,142.3162 220.8597,142.4611 222.6998,142.3162 224.4945,141.8854 226.1998,141.179 227.7735,140.2146 229.177,139.0159 230.3757,137.6124 231.3401,136.0387 232.0464,134.3334 232.4773,132.5387 232.6221,130.6987" stroke="black" stroke-width="1" /><polyline fill="none" points="188.5,69.0664 199.6839,69.5912 210.7696,71.161 221.6595,73.7619 232.2581,77.3712 242.4721,81.9571 252.2118,87.4792 261.3915,93.8892 269.9308,101.1306 277.7544,109.1398 284.7936,117.8464 290.9866,127.1739 296.2789,137.0404 300.6241,147.3591 303.9839,158.0393 306.3289,168.9873 307.6383,180.1067 307.9008,191.2998 307.114,202.4684 305.2847,213.5142 302.4292,224.3402 298.5725,234.8512 293.7484,244.9549 287.9994,254.5625 281.376,263.5894 273.9365,271.9565 265.7461,279.5902 256.8768,286.4234 247.4067,292.3961 237.4188,297.4556 227.0011,301.5577 216.2451,304.6663 205.2452,306.7539 194.0981,307.8023 182.9019,307.8023 171.7548,306.7539 160.7549,304.6663 149.9989,301.5577 139.5811,297.4556 129.5933,292.3961 120.1232,286.4234 111.2539,279.5902 103.0635,271.9565 95.6239,263.5894 89.0006,254.5625 83.2516,244.9549 78.4275,234.8512 74.5708,224.3402 71.7153,213.5142 69.8861,202.4684 69.0992,191.2998 69.3617,180.1067 70.6712,168.9872 73.0161,158.0393 76.3759,147.3591 80.7211,137.0404 86.0134,127.174 92.2064,117.8464 99.2457,109.1398 107.0692,101.1306 115.6085,93.8892 124.7882,87.4792 134.5279,81.957 144.7419,77.3712 155.3405,73.7619 166.2304,71.161 177.3161,69.5912 188.5,69.0664" stroke="black" stroke-width="1" />

    </g>
  </g>
  <WCB
     pausedposy="0"
     pausedposx="0"
     lastknownposy="0"
     lastknownposx="0"
     lastpathnc="0"
     lastpath="0"
     node="0"
     layer="0" />
</svg>
