<?xml version="1.0" encoding="UTF-8" standalone="no"?>
<!-- Created with Inkscape (http://www.inkscape.org/) -->

<svg
   xmlns:dc="http://purl.org/dc/elements/1.1/"
   xmlns:cc="http://creativecommons.org/ns#"
   xmlns:rdf="http://www.w3.org/1999/02/22-rdf-syntax-ns#"
   xmlns:svg="http://www.w3.org/2000/svg"
   xmlns="http://www.w3.org/2000/svg"
   xmlns:sodipodi="http://sodipodi.sourceforge.net/DTD/sodipodi-0.dtd"
   xmlns:inkscape="http://www.inkscape.org/namespaces/inkscape"
   width="100mm"
   height="100mm"
   viewBox="0 0 100 100"
   version="1.1"
   id="svg19124"
   inkscape:version="0.92.3 (2405546, 2018-03-11)"
   sodipodi:docname="inkscape_template_TMP.svg"
   shape-rendering="crispEdges">
  <sodipodi:namedview
     pagecolor="#ffffff"
     bordercolor="#666666"
     borderopacity="1"
     objecttolerance="10"
     gridtolerance="10"
     guidetolerance="10"
     inkscape:pageopacity="0"
     inkscape:pageshadow="2"
     inkscape:window-width="1568"
     inkscape:window-height="1550"
     id="namedview24021"
     showgrid="false"
     inkscape:zoom="0.62441667"
     inkscape:cx="712.66515"
     inkscape:cy="409.98265"
     inkscape:window-x="0"
     inkscape:window-y="0"
     inkscape:window-maximized="0"
     inkscape:current-layer="layer1" />
  <defs
     id="defs19118" />
  <metadata
     id="metadata19121">
    <rdf:RDF>
      <cc:Work
         rdf:about="">
        <dc:format>image/svg+xml</dc:format>
        <dc:type
           rdf:resource="http://purl.org/dc/dcmitype/StillImage" />
        <dc:title />
      </cc:Work>
    </rdf:RDF>
  </metadata>
  <g
     transform="translate(0,-197)"
     id="layer1"
     inkscape:groupmode="layer"
     inkscape:label="Layer 1">
    <g
       id="g24447"
       transform="matrix(0.26458333,0,0,0.26458333,0.10666333,197.9735)">

<polyline fill="none" points="192.1004,47.7394 189.7225,51.1455 187.3447,54.5516 184.9669,57.9577 184.9669,54.5516 184.9669,51.1455 184.9669,47.7394 184.9669,45.7676 186.5623,44.1729 188.5334,44.1729 190.5231,44.1729 192.1004,45.7676 192.1004,47.7394 192.1004,51.1455 192.1004,54.5516 192.1004,57.9577 192.1004,59.9295 190.5231,61.5235 188.5509,61.5235 186.5623,61.5235 184.9669,59.9295 184.9669,57.9577" stroke="black" stroke-width="1" /><polyline fill="none" points="197.8298,61.5877 200.7471,57.7851 198.696,53.7706 202.935,62.0679 200.7471,57.7851 203.4811,54.2207" stroke="black" stroke-width="1" /><polyline fill="none" points="213.923,54.6584 215.4953,55.0601 217.5037,53.9155 217.8698,51.9867 217.955,51.5378 218.0402,51.0889 218.1254,50.64 218.4708,48.8202 217.2685,47.0565 215.4319,46.7079 213.6125,46.3626 211.8419,47.5974 211.503,49.3831 211.4178,49.832 211.3326,50.2809 211.2474,50.7298 210.902,52.5499 212.1036,54.3131 213.923,54.6584 215.9276,55.0389 217.1857,56.9703 216.8182,58.9068 216.6924,59.5694 216.5667,60.232 216.4409,60.8946 216.0733,62.8316 214.2014,64.1347 212.1967,63.7542 210.2089,63.377 208.9456,61.4788 209.3132,59.5419 209.4411,58.8683 209.5689,58.1947 209.6968,57.5211 210.0119,55.8607 211.7366,54.3467" stroke="black" stroke-width="1" /><polyline fill="none" points="224.2171,52.3012 224.7646,50.4068 226.7393,49.3179 228.6336,49.8654 230.5447,50.4177 231.6572,52.4345 231.1097,54.3288 230.8952,55.071 230.6048,55.5213 230.2857,55.8228 227.0592,58.8756 223.8327,61.9283 220.6061,64.9811 220.5665,65.1182 220.5269,65.2552 220.4873,65.3922 222.7606,66.0492 225.0338,66.7061 227.3071,67.3631" stroke="black" stroke-width="1" /><polyline fill="none" points="238.9685,69.8153 238.0773,70.4409 237.0264,71.004 235.0478,70.2249 233.2765,69.5275 232.3264,67.4951 233.0741,65.5963 233.6205,64.2086 234.1669,62.8209 234.7133,61.4333 235.4421,59.5826 237.5225,58.7443 239.2938,59.4418 241.0969,60.1518 242.0789,62.1959 241.3501,64.0466 241.078,64.7377 240.8058,65.4288 240.5337,66.1199 238.3268,65.2509 236.1198,64.3819 233.9129,63.5129" stroke="black" stroke-width="1" /><polyline fill="none" points="255.3459,60.7562 254.4596,60.3071 253.4539,60.4707 252.8806,61.6024 252.3254,62.6984 251.7702,63.7944 251.215,64.8904 251.7552,65.1641 252.2955,65.4378 252.8357,65.7114 251.7957,65.1846 250.7556,64.6577 249.7156,64.1309 250.2154,64.384 250.7152,64.6372 251.215,64.8904 249.508,68.2601 247.801,71.6298 246.0939,74.9995" stroke="black" stroke-width="1" /><polyline fill="none" points="257.6599,72.3192 258.7209,70.6369 260.921,70.2007 262.5312,71.2162 264.1407,72.2313 264.6812,74.3959 263.6202,76.0783 262.8154,77.3543 262.0107,78.6304 261.2059,79.9064 260.145,81.5884 257.9584,82.034 256.3489,81.0188 254.7387,80.0034 254.1989,77.8384 255.2598,76.1563 255.255,76.1533 255.2503,76.1503 255.2456,76.1474 257.6966,72.261 260.1476,68.3747 262.5987,64.4884" stroke="black" stroke-width="1" /><polyline fill="none" points="268.1982,89.394 270.8246,85.985 265.9885,82.2591 278.3081,75.5412" stroke="black" stroke-width="1" /><polyline fill="none" points="289.4206,85.138 286.2879,88.4991 283.1552,91.8603 280.0225,95.2214 278.6664,96.6764 276.4233,96.695 275.0307,95.397 273.6509,94.1111 273.5115,91.872 274.8676,90.4169 275.8962,89.3133 276.9248,88.2097 277.9534,87.1061 279.3095,85.6511 281.5524,85.6334 282.9322,86.9193 284.3247,88.2173 284.4644,90.4556 283.1083,91.9106" stroke="black" stroke-width="1" /><polyline fill="none" points="292.0902,100.7132 292.0944,100.7096 292.0984,100.7059 292.1025,100.7023 290.3602,102.2515 288.6178,103.8008 286.8754,105.35 286.0702,106.066 286.2635,106.9058 286.6385,107.3275 286.1598,106.7892 286.2207,105.9321 286.7732,105.4409 286.8073,105.4106 286.8413,105.3803 286.8754,105.35 285.4156,105.1788 284.0374,104.6608 283.0466,103.5464 282.2262,102.6237 281.3547,100.7142 283.238,99.0397 284.2247,98.1623 285.3418,98.155 286.3809,98.6539 286.8892,98.8896 288.216,99.8911 289.1114,100.5627 290.0309,101.2362 291.1035,101.5906 292.0902,100.7132 293.0895,99.8247 293.3932,97.742 292.0262,96.2046 290.7385,94.7564 289.4418,94.7165 288.4122,94.8744" stroke="black" stroke-width="1" /><polyline fill="none" points="299.9173,102.4069 301.5071,101.2404 303.736,101.583 304.9024,103.1728 306.0793,104.7767 305.7297,107.0533 304.1398,108.2197 303.517,108.6768 303.0121,108.8563 302.5753,108.9003 298.1562,109.3494 293.7372,109.7986 289.3181,110.2477 289.2031,110.3321 289.0881,110.4164 288.9731,110.5008 290.3729,112.4086 291.7728,114.3164 293.1726,116.2242" stroke="black" stroke-width="1" /><polyline fill="none" points="307.7316,113.2227 309.2618,112.3071 311.3813,112.7769 312.3764,114.4398 313.371,116.1018 312.8654,118.1637 311.1295,119.2024 310.855,119.3667 310.5805,119.5309 310.306,119.6952 307.6577,121.2799 305.8345,119.2338 305.6581,118.939 305.4879,118.6547 305.3178,118.3704 305.1477,118.0861 305.3178,118.3704 305.4879,118.6547 305.6581,118.939 306.1778,119.8076 306.257,122.2778 304.1978,123.51 303.5945,123.871 302.9911,124.2321 302.3878,124.5931 300.6816,125.6141 298.5001,125.0406 297.4788,123.3339 296.4487,121.6124 296.9838,119.4343 298.6899,118.4133" stroke="black" stroke-width="1" /><polyline fill="none" points="320.2729,129.3005 316.1266,131.2802 311.9803,133.2599 307.8339,135.2395 306.039,136.0965 303.9451,135.2919 303.1249,133.5741 302.3122,131.872 303.0029,129.7375 304.7978,128.8805 306.1592,128.2305 307.5206,127.5805 308.882,126.9305 310.6769,126.0735 312.7703,126.8787 313.583,128.5808 314.4032,130.2987 313.7131,132.4325 311.9182,133.2895" stroke="black" stroke-width="1" /><polyline fill="none" points="308.7793,147.1879 312.8193,145.7055 310.7164,139.9743 324.7204,140.864" stroke="black" stroke-width="1" /><polyline fill="none" points="322.6014,156.9679 320.6948,157.4708 318.751,156.3516 318.2481,154.4449 317.7408,152.5217 318.8756,150.5739 320.7822,150.071 321.7659,149.8116 322.7495,149.5521 323.7332,149.2926 325.6398,148.7897 327.5883,149.9243 328.0913,151.8313 328.5985,153.7542 327.459,155.6866 325.5524,156.1895 322.2589,157.0582 318.9655,157.9269 315.6721,158.7956 313.7657,159.2984 311.8217,158.1793 311.3188,156.2727 310.886,154.6316 311.6548,152.9742 313.0839,152.2068" stroke="black" stroke-width="1" /><polyline fill="none" points="331.5284,168.2133 326.9955,168.964 322.4625,169.7147 317.9296,170.4653 315.9673,170.7903 314.1791,169.436 313.8681,167.5579 313.5599,165.6971 314.816,163.8383 316.7783,163.5134 318.2667,163.2669 319.755,163.0204 321.2433,162.7739 323.2056,162.449 324.9932,163.8038 325.3013,165.6646 325.6124,167.5426 324.3569,169.401 322.3947,169.7259" stroke="black" stroke-width="1" /><polyline fill="none" points="324.3994,178.9469 324.412,180.5696 326.0309,182.2198 327.9894,182.0818 328.4452,182.0497 328.9009,182.0176 329.3568,181.9855 331.2044,181.8553 332.6031,180.243 332.4718,178.3782 332.3416,176.531 330.6961,175.1338 328.8831,175.2615 328.4272,175.2937 327.9715,175.3258 327.5157,175.3579 325.6677,175.4881 324.2692,177.0997 324.3994,178.9469 324.5427,180.9823 322.9961,182.6914 321.0298,182.8299 320.3571,182.8773 319.6843,182.9247 319.0116,182.9721 317.0449,183.1106 315.3074,181.6329 315.1641,179.5976 315.0219,177.5793 316.5351,175.8737 318.5017,175.7351 319.1856,175.6869 319.8696,175.6387 320.5535,175.5906 322.2394,175.4718 324.1431,176.7534" stroke="black" stroke-width="1" /><polyline fill="none" points="324.6968,191.7147 324.5574,193.3315 326.0147,195.126 327.9774,195.172 328.4342,195.1827 328.8911,195.1934 329.3478,195.2041 331.1995,195.2475 332.7431,193.7733 332.787,191.9044 332.8304,190.0531 331.3229,188.508 329.5059,188.4654 329.049,188.4547 328.5923,188.444 328.1354,188.4332 326.2834,188.3898 324.7402,189.8634 324.6968,191.7147 324.6489,193.7546 322.949,195.3113 320.9785,195.2651 320.3042,195.2493 319.6299,195.2335 318.9557,195.2177 316.9847,195.1714 315.3933,193.5376 315.4411,191.4977 315.4885,189.475 317.1548,187.9185 319.1258,187.9648 319.8112,187.9808 320.4966,187.9969 321.1821,188.013 322.8717,188.0526 324.6471,189.5068" stroke="black" stroke-width="1" /><polyline fill="none" points="328.7091,202.7589 331.753,205.7943 314.7268,203.7893" stroke="black" stroke-width="1" /><polyline fill="none" points="327.0463,214.7253 328.79,215.0988 330.0202,216.8876 329.6143,218.7826 329.2086,220.6765 327.433,221.8401 325.455,221.4164 325.1422,221.3494 324.8293,221.2824 324.5165,221.2154 321.4988,220.569 321.5601,217.8292 321.632,217.4933 321.7014,217.1693 321.7708,216.8453 321.8402,216.5213 321.7708,216.8453 321.7014,217.1693 321.632,217.4933 321.42,218.483 319.7938,220.3441 317.4473,219.8415 316.7598,219.6942 316.0722,219.547 315.3847,219.3997 313.4405,218.9833 312.2356,217.0764 312.6522,215.1315 313.0723,213.1699 314.9488,211.9413 316.893,212.3578" stroke="black" stroke-width="1" /><polyline fill="none" points="321.6929,234.1745 319.1573,230.8842 316.6218,227.5938 314.0862,224.3035 317.3353,225.3256 320.5844,226.3477 323.8335,227.3698 325.7145,227.9615 326.7569,229.9619 326.1654,231.8422 325.5684,233.7403 323.5739,234.7662 321.6929,234.1745 318.4438,233.1524 315.1947,232.1303 311.9456,231.1082 310.0646,230.5164 309.0174,228.5336 309.6092,226.6523 310.206,224.7553 312.2052,223.7117 314.0862,224.3035" stroke="black" stroke-width="1" /><polyline fill="none" points="314.0485,241.391 313.3265,242.8442 314.025,245.0479 315.8344,245.8098 316.2556,245.9872 316.6767,246.1645 317.0978,246.3418 318.8048,247.0606 320.7812,246.2544 321.5067,244.5316 322.2254,242.8249 321.3889,240.8349 319.7137,240.1295 319.2926,239.9522 318.8715,239.7749 318.4504,239.5975 316.743,238.8786 314.7672,239.6843 314.0485,241.391 313.2567,243.2715 311.1046,244.0971 309.288,243.3322 308.6664,243.0704 308.0449,242.8087 307.4233,242.5469 305.6063,241.7818 304.7241,239.6785 305.516,237.7979 306.3012,235.9333 308.4219,235.0956 310.2389,235.8607 310.8708,236.1268 311.5026,236.3928 312.1345,236.6589 313.6921,237.3148 314.8112,239.3184" stroke="black" stroke-width="1" /><polyline fill="none" points="306.5975,255.5107 306.6023,255.5133 306.6071,255.5159 306.612,255.5185 304.5574,254.4164 302.5028,253.3143 300.4482,252.2123 299.4986,251.7029 298.7768,252.1737 298.51,252.671 298.8505,252.0362 299.6761,251.7981 300.3276,252.1476 300.3678,252.1692 300.408,252.1907 300.4482,252.2123 300.106,250.7829 300.1176,249.3106 300.8224,247.9966 301.4061,246.9085 302.8985,245.4325 305.1193,246.6237 306.2829,247.2479 306.6746,248.2941 306.5641,249.4414 306.5179,249.9998 306.0347,251.5904 305.7127,252.6623 305.3971,253.7576 305.4339,254.8866 306.5975,255.5107 307.7759,256.1428 309.8357,255.7104 310.8081,253.8975 311.7241,252.1898 311.3149,250.9587 310.812,250.0465" stroke="black" stroke-width="1" /><polyline fill="none" points="303.0276,260.3645 304.6846,261.4647 305.069,263.6744 304.0161,265.2603 302.9635,266.8456 300.7868,267.3352 299.1298,266.235 297.873,265.4005 296.6162,264.5661 295.3593,263.7316 293.7026,262.6316 293.3085,260.4352 294.3611,258.8499 295.414,257.2639 297.5911,256.7751 299.2478,257.8751 299.2509,257.8704 299.254,257.8657 299.2571,257.8611 303.0849,260.4025 306.9127,262.944 310.7405,265.4855" stroke="black" stroke-width="1" /><polyline fill="none" points="300.2415,274.5039 301.6282,275.6251 301.9173,277.7767 300.6989,279.2838 299.4812,280.7899 297.3713,281.0255 295.7982,279.7537 295.5495,279.5526 295.3007,279.3514 295.052,279.1503 292.652,277.21 293.9448,274.7936 294.1608,274.5264 294.3691,274.2687 294.5774,274.0111 294.7857,273.7534 294.5774,274.0111 294.3691,274.2687 294.1608,274.5264 293.5244,275.3135 291.2327,276.2388 289.3665,274.7301 288.8198,274.288 288.273,273.8459 287.7262,273.4039 286.1801,272.1538 285.9669,269.9083 287.2174,268.3616 288.4787,266.8015 290.7079,266.5535 292.254,267.8036" stroke="black" stroke-width="1" /><polyline fill="none" points="279.5317,282.2614 278.1092,280.8718 278.1315,278.6404 279.4614,277.2789 280.7914,275.9174 283.0334,275.8307 284.456,277.2204 285.5352,278.2745 286.6143,279.3287 287.6935,280.3829 289.1164,281.7728 289.0818,284.0157 287.7518,285.3772 286.4219,286.7387 284.1921,286.8138 282.7693,285.424" stroke="black" stroke-width="1" /><polyline fill="none" points="269.2326,289.0752 269.1026,287.9941 269.1031,286.8019 270.7249,285.4266 272.1768,284.1953 274.4168,284.3188 275.7368,285.8752 276.7013,287.0127 277.6659,288.1501 278.6305,289.2876 279.9169,290.8045 279.6722,293.0341 278.2203,294.2653 276.7423,295.5187 274.4768,295.4178 273.1904,293.9008 272.71,293.3343 272.2296,292.7678 271.7492,292.2013 273.5582,290.6673 275.3672,289.1332 277.1762,287.5992" stroke="black" stroke-width="1" /><polyline fill="none" points="263.5689,301.6465 263.572,301.6509 263.5751,301.6555 263.5783,301.6599 262.2435,299.7484 260.9087,297.8367 259.5739,295.9251 258.957,295.0417 258.1003,295.1354 257.6376,295.4585 258.2282,295.0461 259.0723,295.2068 259.4955,295.813 259.5217,295.8504 259.5478,295.8878 259.5739,295.9251 259.9146,294.4954 260.5902,293.1872 261.8128,292.3336 262.8251,291.6267 264.8235,290.9844 266.2663,293.0507 267.0222,294.1333 266.8988,295.2435 266.2818,296.2171 265.9883,296.6944 264.8384,297.895 264.0668,298.7056 263.2903,299.5401 262.8129,300.5639 263.5689,301.6465 264.3344,302.7428 266.3673,303.2879 268.054,302.1102 269.6429,301.0007 269.8342,299.7175 269.7978,298.6766" stroke="black" stroke-width="1" /><polyline fill="none" points="255.675,307.0218 254.2161,307.7324 253.4245,309.9043 254.3928,311.6122 254.6182,312.0097 254.8435,312.4072 255.0689,312.8046 255.9824,314.4159 258.0401,314.9835 259.6663,314.0615 261.2772,313.1481 261.829,311.0612 260.9326,309.48 260.7072,309.0826 260.4819,308.6851 260.2565,308.2876 259.3428,306.6761 257.2859,306.1085 255.675,307.0218 253.9,308.0282 251.6913,307.3688 250.7191,305.6541 250.3865,305.0674 250.0538,304.4807 249.7212,303.8941 248.7488,302.179 249.3337,299.9744 251.1087,298.968 252.8687,297.9702 255.0599,298.6008 256.0323,300.3158 256.3704,300.9123 256.7086,301.5087 257.0468,302.1051 257.8803,303.5753 257.5441,305.8455" stroke="black" stroke-width="1" /><polyline fill="none" points="247.035,310.3799 247.8497,312.1944 246.9961,314.2686 245.2595,315.0483 243.5235,315.8277 241.4212,315.0807 240.6066,313.2662 239.9886,311.8899 239.3707,310.5136 238.7528,309.1374 237.9383,307.3232 238.7766,305.2551 240.5126,304.4757 242.2492,303.696 244.3514,304.4438 245.166,306.258 245.1711,306.2557 245.1762,306.2534 245.1813,306.2511 247.0632,310.4427 248.9452,314.6343 250.8271,318.8259" stroke="black" stroke-width="1" /><polyline fill="none" points="235.3648,315.3257 236.006,317.2085 234.9619,319.1936 233.1599,319.8073 231.3586,320.4207 229.3355,319.4801 228.6943,317.5973 228.208,316.1692 227.7217,314.7411 227.2353,313.313 226.5943,311.4305 227.6226,309.45 229.4239,308.8366 231.2259,308.223 233.2489,309.1644 233.89,311.0468 233.8952,311.045 233.9005,311.0432 233.9058,311.0414 235.387,315.3908 236.8682,319.7402 238.3493,324.0896" stroke="black" stroke-width="1" /><polyline fill="none" points="216.8944,321.2826 216.8957,321.2879 216.8969,321.2932 216.8982,321.2986 216.3566,319.0308 215.815,316.7631 215.2733,314.4954 215.023,313.4473 214.1915,313.2207 213.6427,313.3518 214.3433,313.1844 215.0698,313.6432 215.2415,314.3623 215.2521,314.4067 215.2627,314.451 215.2733,314.4954 216.1142,313.2899 217.2221,312.3203 218.6725,311.9738 219.8734,311.687 221.9681,311.8216 222.5535,314.2728 222.8603,315.557 222.3387,316.5449 221.4079,317.2247 220.9599,317.5613 219.4501,318.2571 218.4351,318.7286 217.4069,319.2206 216.5876,319.9983 216.8944,321.2826 217.205,322.5832 218.8968,323.8352 220.8978,323.3573 222.7827,322.9071 223.4308,321.7833 223.7783,320.8014" stroke="black" stroke-width="1" /><polyline fill="none" points="211.6043,327.6008 211.8543,329.3665 210.5987,331.1375 208.68,331.4092 206.7622,331.6808 205.0582,330.4146 204.7746,328.4117 204.7297,328.095 204.6849,327.7782 204.64,327.4615 204.2073,324.4058 206.8006,323.5195 207.1407,323.4713 207.4688,323.4249 207.7968,323.3784 208.1249,323.332 207.7968,323.3784 207.4688,323.4249 207.1407,323.4713 206.1386,323.6133 203.8312,322.7276 203.4947,320.3516 203.3961,319.6554 203.2975,318.9592 203.199,318.2631 202.9202,316.2944 204.2953,314.5064 206.2646,314.2275 208.251,313.9463 210.0508,315.2847 210.3295,317.2534" stroke="black" stroke-width="1" /><polyline fill="none" points="198.3167,321.7801 198.4091,323.7498 196.8909,325.4178 194.9219,325.5102 192.9344,325.6035 191.2842,324.0841 191.1917,322.1144 191.1441,321.0984 191.0964,320.0825 191.0487,319.0666 190.9563,317.0969 192.457,315.4304 194.4446,315.3371 196.4135,315.2447 198.0812,316.7626 198.1736,318.7322 198.3333,322.1346 198.4929,325.5369 198.6526,328.9392 198.745,330.9086 197.2268,332.5763 195.2578,332.6686 193.5614,332.7483 192.1029,331.6497 191.6519,330.0919" stroke="black" stroke-width="1" /><polyline fill="none" points="184.1298,329.3645 181.3157,332.6142 182.1193,315.4892" stroke="black" stroke-width="1" /><polyline fill="none" points="165.517,324.328 165.7935,322.3756 167.5793,321.0186 169.5317,321.295 171.501,321.5739 172.8558,323.3757 172.5793,325.328 172.4367,326.3353 172.294,327.3425 172.1514,328.3498 171.875,330.3022 170.0731,331.6576 168.1204,331.3811 166.1514,331.1023 164.8127,329.3021 165.0891,327.3497 165.5667,323.9773 166.0442,320.6049 166.5218,317.2325 166.7982,315.2804 168.584,313.9231 170.5364,314.1995 172.2169,314.4375 173.446,315.7893 173.5985,317.4042" stroke="black" stroke-width="1" /><polyline fill="none" points="159.034,326.3934 158.6197,328.1279 156.8026,329.3158 154.9176,328.8656 153.0338,328.4157 151.9121,326.6133 152.382,324.6457 152.4564,324.3345 152.5307,324.0234 152.605,323.7122 153.3219,320.7105 156.0596,320.8359 156.3937,320.9158 156.716,320.9927 157.0383,321.0697 157.3605,321.1467 157.0383,321.0697 156.716,320.9927 156.3937,320.9158 155.4093,320.6806 153.5868,319.0112 154.1443,316.6771 154.3076,315.9932 154.4709,315.3093 154.6343,314.6254 155.0962,312.6916 157.0307,311.5317 158.9653,311.9937 160.9166,312.4598 162.1008,314.3646 161.6389,316.2984" stroke="black" stroke-width="1" /><polyline fill="none" points="148.8029,316.1091 148.1672,317.9757 146.1435,318.9715 144.2776,318.3361 142.3941,317.6947 141.4153,315.6763 142.0509,313.8098 142.3788,312.847 142.7066,311.8842 143.0345,310.9214 143.6702,309.0549 145.6771,308.0541 147.5606,308.6955 149.4265,309.3309 150.4221,311.3542 149.7865,313.2208 148.6885,316.4451 147.5905,319.6693 146.4925,322.8935 145.8569,324.7598 143.8333,325.7553 141.9674,325.1199 140.3598,324.5724 139.4052,323.0158 139.5563,321.4011" stroke="black" stroke-width="1" /><polyline fill="none" points="132.524,304.6887 133.4435,304.1055 134.5196,303.5923 136.4595,304.4633 138.1962,305.243 139.05,307.3176 138.2141,309.1794 137.6032,310.5399 136.9924,311.9004 136.3815,313.2609 135.5669,315.0754 133.4494,315.8153 131.7128,315.0356 129.9449,314.2418 129.0599,312.1539 129.8745,310.3394 130.1788,309.6618 130.483,308.9842 130.7872,308.3066 132.951,309.2781 135.1148,310.2496 137.2786,311.2211" stroke="black" stroke-width="1" /><polyline fill="none" points="121.9077,312.7912 121.0282,314.3425 118.9527,314.9792 117.2668,314.0234 115.582,313.0681 115.0048,311.0251 116.0026,309.2653 116.1603,308.9871 116.3181,308.7088 116.4759,308.4305 117.998,305.7458 120.5932,306.6264 120.8921,306.7959 121.1803,306.9593 121.4685,307.1227 121.7568,307.2861 121.4685,307.1227 121.1803,306.9593 120.8921,306.7959 120.0116,306.2967 118.7243,304.1868 119.9079,302.0993 120.2547,301.4877 120.6014,300.876 120.9482,300.2644 121.9289,298.5347 124.1094,297.9576 125.8397,298.9386 127.5848,299.9281 128.1937,302.0867 127.213,303.8163" stroke="black" stroke-width="1" /><polyline fill="none" points="104.9614,301.8481 108.861,300.4168 112.7606,298.9855 116.6601,297.5542 114.7101,300.3469 112.7601,303.1395 110.8101,305.9321 109.6812,307.5488 107.4602,307.9429 105.844,306.8145 104.2127,305.6753 103.8325,303.4648 104.9614,301.8481 106.9114,299.0555 108.8614,296.2629 110.8114,293.4702 111.9403,291.8535 114.146,291.4496 115.763,292.5787 117.3935,293.7172 117.789,295.9375 116.6601,297.5542" stroke="black" stroke-width="1" /><polyline fill="none" points="99.067,297.4204 94.8545,298.2772 105.9426,285.2018" stroke="black" stroke-width="1" /><polyline fill="none" points="87.3965,282.0711 88.8071,280.6932 91.0499,280.7081 92.4278,282.1187 93.8176,283.5415 93.7912,285.7956 92.3806,287.1735 91.6529,287.8843 90.9252,288.5952 90.1975,289.306 88.7869,290.6839 86.5323,290.658 85.1542,289.2472 83.7646,287.8246 83.8028,285.5815 85.2133,284.2036 87.6499,281.8236 90.0864,279.4435 92.5229,277.0635 93.9332,275.6859 96.1763,275.7005 97.5542,277.1111 98.7401,278.3252 98.8888,280.1461 98.0241,281.5185" stroke="black" stroke-width="1" /><polyline fill="none" points="81.2405,279.7208 79.7071,280.9606 77.4647,280.7228 76.225,279.1895 74.9742,277.6425 75.2168,275.3521 76.7502,274.1123 77.3509,273.6266 77.8468,273.4236 78.281,273.3591 82.6742,272.7034 87.0674,272.0476 91.4606,271.3918 91.5715,271.3022 91.6824,271.2125 91.7933,271.1229 90.3056,269.2827 88.8179,267.4426 87.3302,265.6025" stroke="black" stroke-width="1" /><polyline fill="none" points="77.821,266.161 76.164,267.2612 73.9782,266.7579 72.9253,265.172 71.8727,263.5867 72.2663,261.3906 73.9233,260.2904 75.1801,259.456 76.4369,258.6215 77.6937,257.787 79.3505,256.6871 81.5277,257.1763 82.5803,258.7616 83.6333,260.3475 83.2389,262.5436 81.5822,263.6436 81.5853,263.6483 81.5884,263.6529 81.5915,263.6576 77.7637,266.199 73.9359,268.7405 70.1081,271.282" stroke="black" stroke-width="1" /><polyline fill="none" points="67.3503,249.8206 67.3455,249.8232 67.3407,249.8258 67.3359,249.8284 69.3905,248.7263 71.4451,247.6242 73.4996,246.5222 74.4492,246.0128 74.4563,245.151 74.1895,244.6537 74.53,245.2886 74.2717,246.108 73.6202,246.4575 73.58,246.479 73.5398,246.5006 73.4996,246.5222 74.8797,247.0277 76.0999,247.8518 76.8047,249.1658 77.3883,250.2538 77.7924,252.3136 75.5717,253.5048 74.4081,254.129 73.3199,253.8766 72.4251,253.1499 71.9855,252.8026 70.9276,251.5202 70.2128,250.659 69.4748,249.7903 68.5139,249.1965 67.3503,249.8206 66.172,250.4527 65.3928,252.4079 66.3653,254.2208 67.2813,255.9285 68.5333,256.2686 69.5713,256.3542" stroke="black" stroke-width="1" /><polyline fill="none" points="68.3334,235.3307 69.4037,235.5311 70.5408,235.8893 71.3661,237.8492 72.1049,239.6036 71.3149,241.7034 69.4341,242.4954 68.0596,243.0742 66.6852,243.653 65.3107,244.2318 63.4776,245.0037 61.4242,244.1012 60.6854,242.3468 59.9333,240.5607 60.7094,238.43 62.5425,237.6581 63.2271,237.3698 63.9116,237.0815 64.5962,236.7933 65.5167,238.9792 66.4372,241.1652 67.3577,243.3512" stroke="black" stroke-width="1" /><polyline fill="none" points="49.9829,229.0197 50.5987,230.9772 51.2145,232.9347 51.8303,234.8922 54.4091,234.081 56.9878,233.2698 59.5665,232.4586 58.2099,232.2024 57.2556,231.5134 56.808,230.0907 56.1906,228.1279 57.3315,226.0976 59.1463,225.5267 60.4438,225.1185 61.7413,224.7104 63.0388,224.3022 64.9358,223.7055 66.8046,224.7889 67.3655,226.5721 67.9212,228.3383 67.0041,230.2802 65.1071,230.877" stroke="black" stroke-width="1" /><polyline fill="none" points="61.7088,212.1032 62.7229,212.4996 63.7733,213.0636 64.2187,215.1429 64.6174,217.0043 63.4498,218.92 61.4542,219.3474 59.996,219.6598 58.5377,219.9721 57.0794,220.2845 55.1345,220.701 53.2854,219.4315 52.8867,217.5701 52.4808,215.6752 53.6406,213.7265 55.5855,213.3099 56.3118,213.1544 57.0381,212.9988 57.7644,212.8432 58.2611,215.1625 58.7579,217.4818 59.2547,219.801" stroke="black" stroke-width="1" /><polyline fill="none" points="48.8142,207.2026 45.1485,204.9572 62.1746,202.9522" stroke="black" stroke-width="1" /><polyline fill="none" points="61.3242,188.8329 57.022,188.9338 57.1651,195.037 44.1955,189.6804" stroke="black" stroke-width="1" /><polyline fill="none" points="47.8412,182.1006 45.8743,181.962 44.3959,180.2592 44.5345,178.2922 44.6743,176.3078 46.4134,174.7976 48.3803,174.9362 49.151,174.9905 49.6521,175.1801 50.0137,175.429 53.6746,177.9446 57.3354,180.4602 60.9963,182.9758 61.1386,182.9858 61.2808,182.9958 61.4231,183.0059 61.5894,180.6454 61.7557,178.285 61.922,175.9246" stroke="black" stroke-width="1" /><polyline fill="none" points="50.219,161.9509 53.1908,164.8533 56.1626,167.7556 59.1344,170.658 55.7741,170.1015 52.4138,169.545 49.0535,168.9886 47.1082,168.6664 45.7955,166.8319 46.1176,164.8872 46.4426,162.9242 48.2736,161.6288 50.219,161.9509 53.5793,162.5074 56.9396,163.0639 60.2999,163.6204 62.2452,163.9425 63.5601,165.7589 63.2379,167.7047 62.913,169.6666 61.0798,170.9801 59.1344,170.658" stroke="black" stroke-width="1" /><polyline fill="none" points="66.2316,153.5107 62.0706,152.4132 60.5136,158.3161 49.5411,149.5693" stroke="black" stroke-width="1" /><polyline fill="none" points="60.6103,141.5519 61.2634,140.0664 60.4624,137.8979 58.6193,137.2216 58.1903,137.0643 57.7614,136.9069 57.3324,136.7495 55.5936,136.1114 53.6571,137.0094 53.0132,138.7643 52.3753,140.5029 53.3042,142.4514 55.0105,143.0775 55.4394,143.2349 55.8684,143.3923 56.2974,143.5497 58.0365,144.1879 59.9724,143.2904 60.6103,141.5519 61.3132,139.6364 63.4241,138.7108 65.2747,139.3897 65.9078,139.6221 66.541,139.8544 67.1741,140.0867 69.0249,140.7658 70.0048,142.8255 69.3019,144.7411 68.6049,146.6405 66.5259,147.5767 64.675,146.8976 64.0314,146.6614 63.3877,146.4252 62.744,146.1891 61.1574,145.6069 59.9456,143.658" stroke="black" stroke-width="1" /><polyline fill="none" points="59.9666,131.011 58.1871,130.1613 57.4355,128.0353 58.285,126.2559 59.1422,124.4607 61.3136,123.6927 63.093,124.5423 63.7902,124.8751 64.187,125.2352 64.4323,125.5993 66.9169,129.2812 69.4016,132.9631 71.8862,136.6451 72.0149,136.7065 72.1436,136.768 72.2723,136.8294 73.2919,134.6941 74.3114,132.5587 75.331,130.4233" stroke="black" stroke-width="1" /><polyline fill="none" points="65.7696,112.842 65.2595,113.6946 65.3519,114.7093 66.4405,115.3607 67.4948,115.9916 68.5491,116.6224 69.6034,117.2533 69.9144,116.7336 70.2253,116.2139 70.5363,115.6943 69.9376,116.6947 69.339,117.6951 68.7403,118.6956 69.028,118.2148 69.3157,117.7341 69.6034,117.2533 72.8448,119.1929 76.0862,121.1325 79.3276,123.0721" stroke="black" stroke-width="1" /><polyline fill="none" points="73.3937,101.6817 72.8059,102.4828 72.8029,103.5018 73.8258,104.2522 74.8163,104.979 75.8069,105.7059 76.7975,106.4327 77.1557,105.9444 77.514,105.4561 77.8723,104.9678 77.1826,105.9078 76.4929,106.8478 75.8032,107.7878 76.1346,107.3361 76.466,106.8844 76.7975,106.4327 79.843,108.6673 82.8885,110.9019 85.9341,113.1365" stroke="black" stroke-width="1" /><polyline fill="none" points="85.1794,101.288 83.693,99.9664 83.6222,97.7246 84.8871,96.302 86.1516,94.8799 88.3754,94.7003 89.8618,96.022 90.9892,97.0244 92.1166,98.0268 93.244,99.0293 94.7301,100.3507 94.8124,102.5807 93.548,104.0028 92.2831,105.4254 90.059,105.6042 88.5728,104.2828 88.5691,104.287 88.5654,104.2912 88.5617,104.2953 85.128,101.2423 81.6944,98.1893 78.2607,95.1362" stroke="black" stroke-width="1" /><polyline fill="none" points="103.1419,91.8195 103.3225,92.8933 103.3779,94.0842 101.8223,95.534 100.4297,96.832 98.1864,96.8137 96.7949,95.3208 95.7781,94.2298 94.7613,93.1388 93.7445,92.0478 92.3884,90.5928 92.5283,88.3543 93.9208,87.0563 95.3385,85.735 97.6062,85.7297 98.9623,87.1847 99.4687,87.728 99.9751,88.2714 100.4816,88.8148 98.7465,90.4319 97.0114,92.0491 95.2763,93.6662" stroke="black" stroke-width="1" /><polyline fill="none" points="99.8187,79.1315 98.6152,77.5695 98.9055,75.3333 100.4675,74.1298 102.0434,72.9157 104.3275,73.2119 105.5309,74.7739 106.0024,75.3859 106.1937,75.8864 106.248,76.322 106.8006,80.7294 107.3532,85.1367 107.9058,89.544 107.9928,89.657 108.0799,89.77 108.1669,89.883 110.0414,88.4388 111.9159,86.9947 113.7903,85.5505" stroke="black" stroke-width="1" /><polyline fill="none" points="113.455,76.0309 112.3939,74.3485 112.9483,72.1751 114.5585,71.1597 116.168,70.1445 118.3542,70.5895 119.4153,72.2718 120.22,73.5479 121.0248,74.8239 121.8296,76.0999 122.8904,77.782 122.3503,79.9472 120.7408,80.9623 119.1306,81.9778 116.9443,81.5321 115.8835,79.85 115.8787,79.853 115.874,79.856 115.8693,79.859 113.4183,75.9727 110.9672,72.0863 108.5162,68.2" stroke="black" stroke-width="1" /><polyline fill="none" points="125.0505,59.0356 124.1641,59.4846 123.701,60.3922 124.2743,61.5239 124.8295,62.6199 125.3848,63.7159 125.94,64.8119 126.4802,64.5382 127.0205,64.2646 127.5607,63.9909 126.5207,64.5177 125.4806,65.0446 124.4406,65.5714 124.9404,65.3183 125.4402,65.0651 125.94,64.8119 127.647,68.1816 129.354,71.5513 131.061,74.921" stroke="black" stroke-width="1" /><polyline fill="none" points="133.082,57.7887 132.2151,55.5871 138.8369,52.9797 140.4749,70.7597" stroke="black" stroke-width="1" /><polyline fill="none" points="152.8781,52.2738 151.5394,56.2061 150.2007,60.1385 148.862,64.0708 147.9164,60.7987 146.9707,57.5265 146.025,54.2543 145.4776,52.36 146.5675,50.3851 148.4612,49.8378 150.3726,49.2854 152.3306,50.3795 152.8781,52.2738 153.8237,55.546 154.7694,58.8181 155.715,62.0903 156.2625,63.9846 155.1898,65.9538 153.2952,66.5014 151.3847,67.0535 149.4095,65.9652 148.862,64.0708" stroke="black" stroke-width="1" /><polyline fill="none" points="158.8139,50.8607 158.4462,48.9234 159.7156,47.0597 161.6529,46.692 163.6074,46.3211 165.5111,47.6175 165.8788,49.5548 166.0228,50.3138 165.9673,50.8467 165.8189,51.2598 164.3201,55.4412 162.8214,59.6226 161.3227,63.804 161.3493,63.9441 161.3759,64.0842 161.4025,64.2243 163.7272,63.7831 166.052,63.3419 168.3768,62.9007" stroke="black" stroke-width="1" /><polyline fill="none" points="179.2883,145.6279 156.5688,130.1462 236.6952,108.8569 236.1363,268.4255 96.1804,188.1635 189.0084,152.2515 239.8942,231.6324 108.5745,236.1363 250.763,172.1919 268.4255,140.8637" stroke="black" stroke-width="1" /><polyline fill="none" points="253.0563,132.1987 283.7948,149.5287" stroke="black" stroke-width="1" /><polyline fill="none" points="200.7708,152.2515 200.626,150.4114 200.1952,148.6167 199.4888,146.9115 198.5244,145.3377 197.3257,143.9342 195.9222,142.7355 194.3485,141.7711 192.6432,141.0648 190.8485,140.6339 189.0084,140.4891 187.1684,140.6339 185.3737,141.0648 183.6684,141.7711 182.0947,142.7355 180.6912,143.9342 179.4925,145.3377 178.5281,146.9115 177.8217,148.6167 177.3909,150.4114 177.246,152.2515 177.3909,154.0915 177.8217,155.8863 178.5281,157.5915 179.4925,159.1652 180.6912,160.5687 182.0947,161.7675 183.6684,162.7318 185.3737,163.4382 187.1684,163.869 189.0084,164.0139 190.8485,163.869 192.6432,163.4382 194.3485,162.7318 195.9222,161.7675 197.3257,160.5687 198.5244,159.1652 199.4888,157.5915 200.1951,155.8863 200.626,154.0915 200.7708,152.2515" stroke="black" stroke-width="1" /><polyline fill="none" points="188.5,69.0664 199.6839,69.5912 210.7696,71.161 221.6595,73.7619 232.2581,77.3712 242.4721,81.9571 252.2118,87.4792 261.3915,93.8892 269.9308,101.1306 277.7544,109.1398 284.7936,117.8464 290.9866,127.1739 296.2789,137.0404 300.6241,147.3591 303.9839,158.0393 306.3289,168.9873 307.6383,180.1067 307.9008,191.2998 307.114,202.4684 305.2847,213.5142 302.4292,224.3402 298.5725,234.8512 293.7484,244.9549 287.9994,254.5625 281.376,263.5894 273.9365,271.9565 265.7461,279.5902 256.8768,286.4234 247.4067,292.3961 237.4188,297.4556 227.0011,301.5577 216.2451,304.6663 205.2452,306.7539 194.0981,307.8023 182.9019,307.8023 171.7548,306.7539 160.7549,304.6663 149.9989,301.5577 139.5811,297.4556 129.5933,292.3961 120.1232,286.4234 111.2539,279.5902 103.0635,271.9565 95.6239,263.5894 89.0006,254.5625 83.2516,244.9549 78.4275,234.8512 74.5708,224.3402 71.7153,213.5142 69.8861,202.4684 69.0992,191.2998 69.3617,180.1067 70.6712,168.9872 73.0161,158.0393 76.3759,147.3591 80.7211,137.0404 86.0134,127.174 92.2064,117.8464 99.2457,109.1398 107.0692,101.1306 115.6085,93.8892 124.7882,87.4792 134.5279,81.957 144.7419,77.3712 155.3405,73.7619 166.2304,71.161 177.3161,69.5912 188.5,69.0664" stroke="black" stroke-width="1" />

    </g>
  </g>
  <WCB
     pausedposy="0"
     pausedposx="0"
     lastknownposy="0"
     lastknownposx="0"
     lastpathnc="0"
     lastpath="0"
     node="0"
     layer="0" />
</svg>
