<?xml version="1.0" encoding="UTF-8" standalone="no"?>
<!-- Created with Inkscape (http://www.inkscape.org/) -->

<svg
   xmlns:dc="http://purl.org/dc/elements/1.1/"
   xmlns:cc="http://creativecommons.org/ns#"
   xmlns:rdf="http://www.w3.org/1999/02/22-rdf-syntax-ns#"
   xmlns:svg="http://www.w3.org/2000/svg"
   xmlns="http://www.w3.org/2000/svg"
   xmlns:sodipodi="http://sodipodi.sourceforge.net/DTD/sodipodi-0.dtd"
   xmlns:inkscape="http://www.inkscape.org/namespaces/inkscape"
   width="100mm"
   height="100mm"
   viewBox="0 0 100 100"
   version="1.1"
   id="svg19124"
   inkscape:version="0.92.3 (2405546, 2018-03-11)"
   sodipodi:docname="inkscape_template_TMP.svg"
   shape-rendering="crispEdges">
  <sodipodi:namedview
     pagecolor="#ffffff"
     bordercolor="#666666"
     borderopacity="1"
     objecttolerance="10"
     gridtolerance="10"
     guidetolerance="10"
     inkscape:pageopacity="0"
     inkscape:pageshadow="2"
     inkscape:window-width="1568"
     inkscape:window-height="1550"
     id="namedview24021"
     showgrid="false"
     inkscape:zoom="0.62441667"
     inkscape:cx="712.66515"
     inkscape:cy="409.98265"
     inkscape:window-x="0"
     inkscape:window-y="0"
     inkscape:window-maximized="0"
     inkscape:current-layer="layer1" />
  <defs
     id="defs19118" />
  <metadata
     id="metadata19121">
    <rdf:RDF>
      <cc:Work
         rdf:about="">
        <dc:format>image/svg+xml</dc:format>
        <dc:type
           rdf:resource="http://purl.org/dc/dcmitype/StillImage" />
        <dc:title />
      </cc:Work>
    </rdf:RDF>
  </metadata>
  <g
     transform="translate(0,-197)"
     id="layer1"
     inkscape:groupmode="layer"
     inkscape:label="Layer 1">
    <g
       id="g24447"
       transform="matrix(0.26458333,0,0,0.26458333,0.10666333,197.9735)">

<polyline fill="none" points="192.1004,47.7394 189.7225,51.1455 187.3447,54.5516 184.9669,57.9577 184.9669,54.5516 184.9669,51.1455 184.9669,47.7394 184.9669,45.7676 186.5623,44.1729 188.5334,44.1729 190.5231,44.1729 192.1004,45.7676 192.1004,47.7394 192.1004,51.1455 192.1004,54.5516 192.1004,57.9577 192.1004,59.9295 190.5231,61.5235 188.5509,61.5235 186.5623,61.5235 184.9669,59.9295 184.9669,57.9577" stroke="black" stroke-width="1" /><polyline fill="none" points="197.8298,61.5877 200.7471,57.7851 198.696,53.7706 202.935,62.0679 200.7471,57.7851 203.4811,54.2207" stroke="black" stroke-width="1" /><polyline fill="none" points="216.9831,55.7364 216.9842,55.731 216.9852,55.7257 216.9862,55.7203 216.5515,58.0109 216.1167,60.3015 215.682,62.5921 215.4811,63.6508 216.1468,64.1981 216.7012,64.3033 215.9935,64.169 215.5186,63.4529 215.6565,62.7265 215.665,62.6817 215.6735,62.6369 215.682,62.5921 214.4212,63.3475 213.0132,63.7782 211.5483,63.5002 210.3352,63.27 208.4794,62.2892 208.9493,59.8133 209.1955,58.5161 210.076,57.8285 211.2036,57.5896 211.7501,57.4661 213.4124,57.4497 214.5315,57.4352 215.671,57.4075 216.7369,57.0337 216.9831,55.7364 217.2325,54.4227 216.2019,52.5876 214.1808,52.204 212.2768,51.8426 211.2252,52.6024 210.506,53.3558" stroke="black" stroke-width="1" /><polyline fill="none" points="228.0957,63.9602 227.5436,65.8707 225.5666,66.9057 223.7382,66.3773 221.9097,65.8489 220.7736,63.9141 221.3257,62.0037 221.7446,60.5543 222.1634,59.105 222.5823,57.6557 223.1345,55.7449 225.1274,54.7152 226.9558,55.2436 228.7843,55.772 229.9045,57.7014 229.3523,59.6123" stroke="black" stroke-width="1" /><polyline fill="none" points="243.4219,58.8463 239.9615,61.1443 236.5011,63.4424 233.0407,65.7404 234.2886,62.5712 235.5365,59.4019 236.7844,56.2327 237.5069,54.398 239.5756,53.4987 241.4097,54.2209 243.261,54.9499 244.1443,57.0115 243.4219,58.8463 242.174,62.0155 240.926,65.1848 239.6781,68.354 238.9557,70.1887 236.9041,71.094 235.069,70.3714 233.2187,69.6428 232.3182,67.5752 233.0407,65.7404" stroke="black" stroke-width="1" /><polyline fill="none" points="252.7238,68.8641 252.7263,68.8592 252.7288,68.8543 252.7312,68.8494 251.6776,70.9293 250.624,73.0091 249.5704,75.089 249.0835,76.0502 249.5711,76.7609 250.0745,77.0159 249.4318,76.6903 249.1745,75.8705 249.5086,75.211 249.5292,75.1703 249.5498,75.1297 249.5704,75.089 248.1494,75.4646 246.6773,75.4875 245.3471,74.8137 244.2456,74.2557 242.7351,72.7983 243.8739,70.5502 244.4706,69.3723 245.5073,68.9562 246.6569,69.0397 247.2163,69.0728 248.8178,69.5186 249.8969,69.8154 250.9993,70.1052 252.1271,70.0419 252.7238,68.8641 253.3281,67.6712 252.8475,65.6221 251.0123,64.6924 249.2836,63.8167 248.0624,64.2546 247.1623,64.7788" stroke="black" stroke-width="1" /><polyline fill="none" points="257.6599,72.3192 258.7209,70.6369 260.921,70.2007 262.5312,71.2162 264.1407,72.2313 264.6812,74.3959 263.6202,76.0783 262.8154,77.3543 262.0107,78.6304 261.2059,79.9064 260.145,81.5884 257.9584,82.034 256.3489,81.0188 254.7387,80.0034 254.1989,77.8384 255.2598,76.1563 255.255,76.1533 255.2503,76.1503 255.2456,76.1474 257.6966,72.261 260.1476,68.3747 262.5987,64.4884" stroke="black" stroke-width="1" /><polyline fill="none" points="271.6621,80.5928 272.8831,81.6616 275.1921,81.5482 276.3903,79.993 276.6691,79.631 276.948,79.2691 277.2269,78.9071 278.3573,77.4399 278.0818,75.3232 276.601,74.1823 275.134,73.0521 272.9965,73.3535 271.8872,74.7933 271.6084,75.1552 271.3295,75.5172 271.0506,75.8791 269.92,77.3467 270.1951,79.4626 271.6621,80.5928 273.2784,81.8381 273.528,84.1296 272.325,85.691 271.9133,86.2253 271.5017,86.7595 271.0901,87.2938 269.8869,88.8555 267.6281,89.1721 266.0117,87.9268 264.409,86.692 264.1398,84.4278 265.343,82.8661 265.7615,82.3229 266.1799,81.7798 266.5984,81.2367 267.6298,79.8979 269.8526,79.3267" stroke="black" stroke-width="1" /><polyline fill="none" points="283.4146,91.3986 283.4183,91.3946 283.4221,91.3906 283.4258,91.3866 281.8362,93.0922 280.2465,94.7977 278.6569,96.5033 277.9222,97.2916 278.1933,98.1096 278.6061,98.4944 278.0791,98.0032 278.0595,97.1442 278.5636,96.6034 278.5947,96.57 278.6258,96.5367 278.6569,96.5033 277.1875,96.4696 275.7668,96.0829 274.676,95.0662 273.7728,94.2244 272.7263,92.4049 274.4445,90.5614 275.3448,89.5955 276.4562,89.4836 277.5375,89.883 278.0656,90.0701 279.4804,90.9429 280.4347,91.5277 281.4133,92.1122 282.5143,92.3645 283.4146,91.3986 284.3263,90.4204 284.4335,88.3185 282.9286,86.9158 281.511,85.5945 280.2162,85.6762 279.206,85.9298" stroke="black" stroke-width="1" /><polyline fill="none" points="285.2798,105.9926 288.4958,103.1331 284.4393,98.5709 297.7954,94.2679" stroke="black" stroke-width="1" /><polyline fill="none" points="294.1049,106.6004 295.6948,105.4339 297.9242,105.7761 299.0902,107.3653 300.2673,108.9695 299.9143,111.1847 298.3245,112.3512 297.5045,112.9529 296.6845,113.5546 295.8645,114.1562 294.2747,115.3227 292.0562,114.9943 290.8792,113.3901 289.7131,111.8008 290.0551,109.5719 291.6449,108.4054 294.3911,106.3905 297.1372,104.3756 299.8834,102.3606 301.4729,101.1943 303.702,101.5367 304.8681,103.1259 305.8727,104.4952 305.7643,106.3179 304.716,107.5553" stroke="black" stroke-width="1" /><polyline fill="none" points="313.8147,116.9106 312.761,115.1497 311.7073,113.3887 310.6536,111.6278 308.3339,113.0159 306.0142,114.404 303.6945,115.7921 305.0734,115.7261 306.1617,116.1745 306.9276,117.4544 307.9841,119.22 307.346,121.4598 305.7134,122.4367 304.5463,123.1351 303.3791,123.8335 302.2119,124.5319 300.5055,125.553 298.4361,124.9333 297.4762,123.3292 296.5255,121.7404 296.9664,119.6386 298.6729,118.6175" stroke="black" stroke-width="1" /><polyline fill="none" points="319.9678,128.9598 319.0836,127.108 318.1995,125.2561 317.3153,123.4043 314.8758,124.569 312.4363,125.7338 309.9968,126.8986 311.3759,126.962 312.4174,127.5104 313.06,128.8563 313.9465,130.7131 313.1016,132.8833 311.3846,133.703 310.1572,134.2891 308.9298,134.8751 307.7023,135.4612 305.9078,136.318 303.9055,135.5072 303.1001,133.8203 302.3023,132.1495 302.9381,130.0982 304.7327,129.2413" stroke="black" stroke-width="1" /><polyline fill="none" points="324.9656,141.5323 324.2587,139.6058 323.5518,137.6793 322.845,135.7528 320.3071,136.684 317.7692,137.6152 315.2314,138.5464 316.5984,138.7387 317.584,139.3822 318.0978,140.7823 318.8066,142.714 317.7621,144.7955 315.976,145.4509 314.699,145.9194 313.4221,146.388 312.1452,146.8565 310.2783,147.5415 308.3607,146.5468 307.7168,144.7919 307.079,143.0537 307.9041,141.071 309.771,140.3859" stroke="black" stroke-width="1" /><polyline fill="none" points="323.7127,149.2144 325.6194,148.7115 327.5677,149.8469 328.0706,151.7535 328.578,153.6771 327.4186,155.6672 325.5119,156.1701 324.765,156.3672 324.2294,156.3492 323.8069,156.2302 319.5305,155.029 315.2542,153.8279 310.9778,152.6267 310.8399,152.6631 310.702,152.6994 310.5641,152.7358 311.1676,155.0238 311.7711,157.3118 312.3746,159.5999" stroke="black" stroke-width="1" /><polyline fill="none" points="316.2582,170.8657 315.2638,170.4222 314.241,169.8096 313.8936,167.7117 313.5825,165.8336 314.8386,163.9748 316.852,163.6414 318.3233,163.3977 319.7946,163.1541 321.266,162.9104 323.2282,162.5855 325.0158,163.9402 325.3268,165.8183 325.6434,167.7302 324.3936,169.6224 322.4313,169.9473 321.6985,170.0687 320.9657,170.19 320.233,170.3114 319.8454,167.9714 319.4579,165.6314 319.0704,163.2914" stroke="black" stroke-width="1" /><polyline fill="none" points="317.3481,182.9067 316.3996,182.372 315.4387,181.6663 315.2892,179.5451 315.1555,177.6461 316.5801,175.9131 318.6158,175.7697 320.1035,175.6649 321.5912,175.5601 323.0789,175.4553 325.0629,175.3155 326.7158,176.8317 326.8495,178.7306 326.9857,180.6638 325.5642,182.4306 323.5801,182.5704 322.8392,182.6226 322.0983,182.6748 321.3573,182.727 321.1906,180.361 321.024,177.995 320.8573,175.629" stroke="black" stroke-width="1" /><polyline fill="none" points="329.3041,188.2994 331.2754,188.3456 332.8319,189.9773 332.7857,191.9486 332.7391,193.9374 331.0727,195.5274 329.1014,195.4812 328.3291,195.4631 327.8196,195.2971 327.4467,195.0655 323.672,192.7242 319.8972,190.383 316.1225,188.0418 315.9799,188.0384 315.8373,188.0351 315.6947,188.0317 315.6393,190.3974 315.5838,192.763 315.5283,195.1286" stroke="black" stroke-width="1" /><polyline fill="none" points="331.452,207.2514 331.5682,206.2646 331.0682,205.3768 329.8083,205.2284 328.5881,205.0847 327.3679,204.941 326.1477,204.7973 326.0769,205.3988 326.0061,206.0002 325.9352,206.6017 326.0716,205.4438 326.2079,204.2859 326.3443,203.1281 326.2788,203.6845 326.2133,204.2409 326.1477,204.7973 322.3963,204.3555 318.6448,203.9137 314.8933,203.472" stroke="black" stroke-width="1" /><polyline fill="none" points="321.3936,213.4068 323.3385,213.8233 324.5059,215.7386 324.1071,217.6 323.7086,219.4607 321.8627,220.7137 319.9178,220.2972 318.4426,219.9812 316.9675,219.6652 315.4923,219.3493 313.5478,218.9328 312.3763,217.0334 312.7748,215.1727 313.1735,213.3113 315.0201,212.0588 316.9646,212.4753 316.9658,212.4698 316.967,212.4643 316.9681,212.4589 321.4609,213.4212 325.9537,214.3835 330.4465,215.3458" stroke="black" stroke-width="1" /><polyline fill="none" points="325.2678,234.5803 325.8836,232.6228 326.4994,230.6652 327.1152,228.7077 324.5365,227.8965 321.9578,227.0853 319.379,226.274 320.3446,227.2607 320.7327,228.372 320.2851,229.7947 319.6676,231.7575 317.5699,232.7689 315.755,232.198 314.4575,231.7898 313.16,231.3817 311.8625,230.9735 309.9656,230.3767 309.0536,228.4185 309.6146,226.6353 310.1702,224.8691 312.0338,223.802 313.9308,224.3988" stroke="black" stroke-width="1" /><polyline fill="none" points="312.3536,244.1575 312.3586,244.1596 312.3636,244.1617 312.3687,244.1638 310.2199,243.259 308.0712,242.3542 305.9224,241.4493 304.9293,241.0311 304.2547,241.5675 304.0357,242.0875 304.3153,241.4236 305.115,241.1093 305.7963,241.3962 305.8383,241.4139 305.8804,241.4316 305.9224,241.4493 305.4479,240.0583 305.3215,238.5913 305.9002,237.2171 306.3794,236.0792 307.7271,234.4699 310.0497,235.448 311.2666,235.9604 311.7545,236.9653 311.752,238.118 311.7582,238.6782 311.4261,240.3071 311.2059,241.4044 310.9943,242.5244 311.1367,243.645 312.3536,244.1575 313.5859,244.6764 315.5962,244.053 316.3946,242.1571 317.1467,240.371 316.624,239.1837 316.0379,238.3226" stroke="black" stroke-width="1" /><polyline fill="none" points="314.1829,259.7214 310.1339,257.5495 306.085,255.3777 302.036,253.2058 300.2832,252.2656 299.6932,250.1014 300.593,248.4239 301.4846,246.7618 303.6141,246.0559 305.3669,246.9961 306.6963,247.7092 308.0258,248.4223 309.3552,249.1354 311.108,250.0756 311.6972,252.2397 310.8056,253.9019 309.9058,255.5794 307.7771,256.2853 306.0243,255.3451" stroke="black" stroke-width="1" /><polyline fill="none" points="301.1709,267.7636 299.5282,266.6729 299.0731,264.4767 300.1637,262.8339 301.2639,261.1769 303.4735,260.7307 305.1163,261.8214 305.9638,262.3841 306.8113,262.9467 307.6588,263.5095 309.3015,264.6002 309.7484,266.8102 308.6575,268.4532 307.5575,270.1099 305.3562,270.5424 303.7134,269.4517 300.8759,267.5677 298.0383,265.6837 295.2007,263.7997 293.5583,262.7092 293.1028,260.5128 294.1935,258.87 295.1323,257.4561 296.8817,256.9294 298.4048,257.4875" stroke="black" stroke-width="1" /><polyline fill="none" points="300.2415,274.5039 301.6282,275.6251 301.9173,277.7767 300.6989,279.2838 299.4812,280.7899 297.3713,281.0255 295.7982,279.7537 295.5495,279.5526 295.3007,279.3514 295.052,279.1503 292.652,277.21 293.9448,274.7936 294.1608,274.5264 294.3691,274.2687 294.5774,274.0111 294.7857,273.7534 294.5774,274.0111 294.3691,274.2687 294.1608,274.5264 293.5244,275.3135 291.2327,276.2388 289.3665,274.7301 288.8198,274.288 288.273,273.8459 287.7262,273.4039 286.1801,272.1538 285.9669,269.9083 287.2174,268.3616 288.4787,266.8015 290.7079,266.5535 292.254,267.8036" stroke="black" stroke-width="1" /><polyline fill="none" points="291.697,284.5896 292.9727,285.8357 293.0589,288.005 291.7048,289.3913 290.3514,290.7768 288.2287,290.8138 286.7816,289.4003 286.5528,289.1767 286.324,288.9532 286.0952,288.7297 283.8875,286.5732 285.4008,284.2884 285.6409,284.0426 285.8724,283.8056 286.1039,283.5686 286.3354,283.3316 286.1039,283.5686 285.8724,283.8056 285.6409,284.0426 284.9336,284.7667 282.5653,285.4733 280.8486,283.7964 280.3456,283.3051 279.8427,282.8138 279.3397,282.3225 277.9174,280.9332 277.9155,278.6775 279.3053,277.2547 280.7072,275.8196 282.9497,275.7815 284.372,277.1708" stroke="black" stroke-width="1" /><polyline fill="none" points="274.7346,295.9293 273.4592,294.4254 273.6317,292.1892 275.1356,290.9138 276.6526,289.6274 278.8993,289.8122 280.1746,291.3161 280.8326,292.092 281.4905,292.8678 282.1485,293.6437 283.4238,295.1476 283.2395,297.3948 281.7353,298.6704 280.2186,299.9566 277.9838,299.7609 276.7084,298.257 274.5055,295.6592 272.3026,293.0614 270.0996,290.4637 268.8245,288.9601 268.9968,286.7235 270.5007,285.4482 271.7951,284.3505 273.622,284.3302 274.9302,285.2892" stroke="black" stroke-width="1" /><polyline fill="none" points="268.7342,297.328 269.873,298.9588 269.4211,301.1557 267.8603,302.2456 266.3001,303.335 264.0954,302.9931 262.9567,301.3623 262.093,300.1254 261.2293,298.8885 260.3656,297.6516 259.2271,296.0211 259.6651,293.8329 261.2253,292.7435 262.7861,291.6537 264.9908,291.9964 266.1294,293.6269 266.134,293.6237 266.1385,293.6205 266.1431,293.6172 268.7736,297.3844 271.4041,301.1516 274.0346,304.9188" stroke="black" stroke-width="1" /><polyline fill="none" points="249.0635,302.3647 249.1373,301.2784 249.3601,300.1072 251.21,299.0584 252.866,298.1195 255.0437,298.6584 256.0503,300.4337 256.7858,301.731 257.5214,303.0284 258.257,304.3257 259.2379,306.056 258.5818,308.2008 256.9258,309.1397 255.2401,310.0955 253.0331,309.574 252.0521,307.8437 251.6858,307.1976 251.3194,306.5515 250.9531,305.9053 253.0164,304.7355 255.0797,303.5656 257.143,302.3958" stroke="black" stroke-width="1" /><polyline fill="none" points="249.3159,315.7174 250.0463,317.3442 249.3318,319.3943 247.5639,320.188 245.797,320.9813 243.8084,320.2381 242.9798,318.3926 242.8488,318.1008 242.7178,317.809 242.5867,317.5172 241.3227,314.7017 243.5679,313.1303 243.8813,312.9896 244.1836,312.8539 244.4858,312.7182 244.7881,312.5825 244.4858,312.7182 244.1836,312.8539 243.8813,312.9896 242.9579,313.4041 240.4954,313.194 239.5125,311.0048 239.2245,310.3633 238.9365,309.7219 238.6485,309.0804 237.8341,307.2666 238.6587,305.1671 240.4732,304.3524 242.3034,303.5307 244.404,304.3169 245.2184,306.1307" stroke="black" stroke-width="1" /><polyline fill="none" points="237.1906,320.6176 237.8263,322.4842 236.8307,324.5075 234.9641,325.1431 233.0809,325.7844 231.0143,324.7678 230.3786,322.9012 230.1295,322.1699 230.1098,321.6344 230.1989,321.2045 231.0965,316.8543 231.9942,312.5042 232.8919,308.154 232.8459,308.019 232.7999,307.8839 232.754,307.7489 230.514,308.5117 228.274,309.2745 226.0341,310.0373" stroke="black" stroke-width="1" /><polyline fill="none" points="220.1385,329.1623 221.1049,328.9315 221.7661,328.1563 221.4714,326.9224 221.186,325.7274 220.9006,324.5323 220.6152,323.3374 220.0261,323.478 219.4371,323.6187 218.848,323.7594 219.982,323.4886 221.116,323.2177 222.25,322.9469 221.705,323.0771 221.1601,323.2072 220.6152,323.3374 219.7377,319.6633 218.8602,315.9893 217.9827,312.3152" stroke="black" stroke-width="1" /><polyline fill="none" points="205.8447,331.7759 207.8765,331.4882 209.9083,331.2005 211.9401,330.9128 211.5611,328.2361 211.1821,325.5596 210.8031,322.8829 210.3287,324.1794 209.4931,325.0084 208.0163,325.2175 205.9791,325.506 204.1625,324.0487 203.8957,322.1649 203.705,320.8182 203.5143,319.4715 203.3236,318.1248 203.0448,316.1558 204.4191,314.4891 206.2699,314.227 208.1031,313.9674 209.8691,315.1894 210.1479,317.1584" stroke="black" stroke-width="1" /><polyline fill="none" points="198.4772,329.1531 198.5607,330.9344 197.1449,332.5801 195.2091,332.671 193.2743,332.7618 191.6963,331.3416 191.6015,329.3209 191.5865,329.0014 191.5715,328.6818 191.5565,328.3623 191.4119,325.2795 194.0767,324.64 194.4199,324.6238 194.7509,324.6083 195.0818,324.5928 195.4128,324.5773 195.0818,324.5928 194.7509,324.6083 194.4199,324.6238 193.4089,324.6713 191.1945,323.5735 191.082,321.1764 191.0491,320.474 191.0161,319.7717 190.9832,319.0693 190.89,317.0833 192.4265,315.4319 194.4133,315.3386 196.4172,315.2446 198.0838,316.7457 198.1769,318.7318" stroke="black" stroke-width="1" /><polyline fill="none" points="178.8252,332.4973 180.8751,332.5935 182.9249,332.6897 184.9748,332.7859 185.1015,330.0855 185.2282,327.3852 185.3549,324.6849 184.6471,325.8702 183.6716,326.5287 182.1817,326.4589 180.1264,326.3624 178.6134,324.592 178.7026,322.6915 178.7663,321.3328 178.8301,319.9742 178.8938,318.6155 178.987,316.629 180.6479,315.2478 182.5153,315.3354 184.3647,315.4222 185.8719,316.9521 185.7786,318.9385" stroke="black" stroke-width="1" /><polyline fill="none" points="166.9833,315.6619 167.7048,314.8464 168.5961,314.0546 170.7016,314.3527 172.5864,314.6196 173.9826,316.3756 173.6965,318.3963 173.4874,319.8729 173.2783,321.3495 173.0692,322.8262 172.7903,324.7955 170.9616,326.0941 169.0767,325.8272 167.158,325.5555 165.728,323.7955 166.0069,321.8261 166.1111,321.0907 166.2152,320.3553 166.3193,319.6198 168.6678,319.9524 171.0162,320.2849 173.3647,320.6175" stroke="black" stroke-width="1" /><polyline fill="none" points="160.9268,319.2657 160.4688,321.1836 158.5471,322.3646 156.6299,321.9066 154.6946,321.4444 153.5311,319.5266 153.9892,317.6087 154.2255,316.6194 154.4617,315.6302 154.698,314.641 155.1561,312.7231 157.0605,311.5388 158.9958,312.001 160.913,312.4589 162.0937,314.3801 161.6356,316.298 160.8444,319.6109 160.0531,322.9238 159.2619,326.2367 158.8039,328.1542 156.8824,329.3348 154.9651,328.8769 153.3133,328.4824 152.2172,327.0221 152.2164,325.4003" stroke="black" stroke-width="1" /><polyline fill="none" points="141.6841,315.9587 141.6823,315.9639 141.6806,315.9691 141.6788,315.9743 142.4304,313.7672 143.182,311.5602 143.9336,309.3531 144.2809,308.3331 143.6985,307.6979 143.1644,307.516 143.8463,307.7482 144.216,308.5238 143.9777,309.2237 143.963,309.2668 143.9483,309.31 143.9336,309.3531 145.2879,308.7821 146.7423,308.5529 148.1538,309.0336 149.3226,309.4316 151.0226,310.6629 150.2102,313.0485 149.7845,314.2984 148.8164,314.8557 147.6664,314.9342 147.1079,314.9799 145.4598,314.7631 144.3497,314.6204 143.2176,314.4881 142.1097,314.7088 141.6841,315.9587 141.253,317.2245 142.0161,319.186 143.9635,319.8492 145.798,320.4739 146.9457,319.8691 147.7634,319.2239" stroke="black" stroke-width="1" /><polyline fill="none" points="126.2872,318.8773 128.1692,314.6857 130.0511,310.4941 131.933,306.3026 132.7477,304.488 134.8651,303.7474 136.6017,304.5271 138.3224,305.2997 139.1762,307.3743 138.3615,309.1888 137.7436,310.5651 137.1257,311.9413 136.5078,313.3176 135.6931,315.1321 133.5757,315.8719 131.855,315.0994 130.1184,314.3197 129.2646,312.2458 130.0793,310.4314" stroke="black" stroke-width="1" /><polyline fill="none" points="114.3519,312.4788 116.618,308.4818 118.8842,304.4849 121.1504,300.4879 122.1314,298.7577 124.3088,298.2186 125.9648,299.1575 127.6056,300.0878 128.2614,302.2332 127.2803,303.9634 126.5363,305.2758 125.7922,306.5882 125.0481,307.9005 124.0671,309.6308 121.8897,310.1691 120.2489,309.2388 118.593,308.2999 117.9372,306.1552 118.9182,304.425" stroke="black" stroke-width="1" /><polyline fill="none" points="109.6595,305.3164 105.5457,306.5639 115.3607,292.5078" stroke="black" stroke-width="1" /><polyline fill="none" points="100.1306,298.1207 98.8553,299.6246 96.6079,299.8091 95.104,298.5338 93.5867,297.2472 93.3979,294.9517 94.6733,293.4478 95.1729,292.8586 95.6223,292.5667 96.0369,292.4224 100.2307,290.959 104.4246,289.4955 108.6184,288.0322 108.7107,287.9234 108.8029,287.8146 108.8952,287.7058 107.0905,286.1754 105.2857,284.645 103.481,283.1145" stroke="black" stroke-width="1" /><polyline fill="none" points="84.0425,287.8756 84.7368,288.5864 85.7415,288.7557 86.649,287.8693 87.5279,287.0107 88.4068,286.1522 89.2857,285.2937 88.8625,284.8605 88.4393,284.4272 88.0161,283.994 88.8308,284.828 89.6455,285.662 90.4602,286.496 90.0687,286.0953 89.6772,285.6945 89.2857,285.2937 91.9878,282.6542 94.69,280.0146 97.3921,277.3751" stroke="black" stroke-width="1" /><polyline fill="none" points="76.7757,274.1982 80.9194,273.9059 85.063,273.6135 89.2067,273.3211 86.558,275.4626 83.9093,277.604 81.2606,279.7455 79.7272,280.9852 77.4841,280.7471 76.2448,279.2143 74.9938,277.667 75.2423,275.4379 76.7757,274.1982 79.4244,272.0568 82.0731,269.9153 84.7218,267.7739 86.2552,266.5341 88.4863,266.7585 89.7263,268.2921 90.9766,269.8386 90.7401,272.0814 89.2067,273.3211" stroke="black" stroke-width="1" /><polyline fill="none" points="77.7523,257.8754 79.4091,256.7754 81.5863,257.2646 82.6391,258.8502 83.6919,260.4358 83.307,262.6462 81.6503,263.7462 80.3935,264.5807 79.1366,265.4152 77.8798,266.2496 76.2228,267.3498 74.0368,266.8462 72.9841,265.2606 71.9313,263.675 72.3249,261.4789 73.9819,260.3788" stroke="black" stroke-width="1" /><polyline fill="none" points="75.2009,246.2678 71.4086,248.302 74.2943,253.6817 60.304,254.7643" stroke="black" stroke-width="1" /><polyline fill="none" points="70.2893,235.4044 66.3232,237.0745 68.6924,242.7009 54.6622,242.4686" stroke="black" stroke-width="1" /><polyline fill="none" points="55.043,234.0198 53.3419,234.5549 51.3895,233.6056 50.8079,231.757 50.2267,229.9094 51.1974,228.0214 53.1271,227.4143 53.4323,227.3183 53.7374,227.2223 54.0426,227.1263 56.9865,226.2002 58.2846,228.6138 58.3876,228.9415 58.4871,229.2576 58.5865,229.5737 58.6859,229.8897 58.5865,229.5737 58.4871,229.2576 58.3876,228.9415 58.0839,227.976 58.5807,225.5549 60.8698,224.8348 61.5405,224.6238 62.2112,224.4128 62.882,224.2018 64.7786,223.6052 66.7672,224.6697 67.3641,226.567 67.9661,228.4807 66.9397,230.4749 65.0431,231.0716" stroke="black" stroke-width="1" /><polyline fill="none" points="47.1347,216.8323 47.3428,217.8038 48.1022,218.4831 49.3427,218.2174 50.5441,217.9601 51.7455,217.7027 52.9468,217.4454 52.82,216.8532 52.6931,216.261 52.5663,215.6689 52.8105,216.8089 53.0547,217.9489 53.2989,219.0889 53.1815,218.5411 53.0642,217.9932 52.9468,217.4454 56.6404,216.6543 60.3341,215.8631 64.0277,215.072" stroke="black" stroke-width="1" /><polyline fill="none" points="48.8958,208.3371 47.1248,208.5456 45.3836,207.2489 45.157,205.3243 44.9304,203.4007 46.2362,201.7268 48.2452,201.4902 48.5629,201.4528 48.8806,201.4154 49.1983,201.378 52.2633,201.017 53.0886,203.6303 53.1288,203.9716 53.1675,204.3006 53.2063,204.6297 53.245,204.9587 53.2063,204.6297 53.1675,204.3006 53.1288,203.9716 53.0104,202.9663 53.9499,200.6803 56.3331,200.3997 57.0314,200.3174 57.7297,200.2352 58.428,200.153 60.4026,199.9204 62.1579,201.3371 62.3905,203.3124 62.6252,205.3048 61.2449,207.0727 59.2703,207.3052" stroke="black" stroke-width="1" /><polyline fill="none" points="53.456,195.1465 51.4675,195.1931 49.8872,193.6015 49.8426,191.6983 49.798,189.7959 51.3023,188.1484 53.2908,188.1018 54.799,188.0664 56.3072,188.031 57.8154,187.9957 59.8035,187.949 61.3841,189.5243 61.4287,191.4267 61.4734,193.3298 59.9683,194.977 57.9802,195.0236 57.9803,195.0292 57.9805,195.0348 57.9806,195.0404 53.3872,195.1481 48.7938,195.2558 44.2003,195.3635" stroke="black" stroke-width="1" /><polyline fill="none" points="48.3405,175.0165 51.571,177.6278 54.8016,180.2391 58.0321,182.8504 54.6344,182.611 51.2368,182.3717 47.8391,182.1323 45.8722,181.9937 44.3935,180.2902 44.532,178.3239 44.6719,176.3391 46.3735,174.8779 48.3405,175.0165 51.7381,175.2558 55.1358,175.4952 58.5334,175.7346 60.5004,175.8731 61.9796,177.5585 61.841,179.5258 61.7012,181.5095 59.9991,182.989 58.0321,182.8504" stroke="black" stroke-width="1" /><polyline fill="none" points="46.5841,163.0688 46.4218,164.049 46.8796,164.9593 48.1311,165.1665 49.3432,165.3673 50.5554,165.568 51.7675,165.7687 51.8664,165.1713 51.9653,164.5738 52.0643,163.9763 51.8738,165.1265 51.6833,166.2767 51.4929,167.4269 51.5844,166.8742 51.6759,166.3215 51.7675,165.7687 55.4941,166.3859 59.2207,167.003 62.9474,167.6202" stroke="black" stroke-width="1" /><polyline fill="none" points="51.5013,155.9855 49.5947,155.4826 48.4597,153.534 48.9627,151.6274 49.47,149.7038 51.4602,148.5444 53.3668,149.0473 54.1138,149.2443 54.5708,149.5241 54.8797,149.836 58.0072,152.9901 61.1348,156.1442 64.2624,159.2983 64.4004,159.3347 64.5383,159.371 64.6762,159.4074 65.2797,157.1194 65.8832,154.8314 66.4867,152.5433" stroke="black" stroke-width="1" /><polyline fill="none" points="57.5944,136.6327 59.9729,140.0382 62.3515,143.4438 64.73,146.8494 61.5324,145.6761 58.3348,144.5028 55.1371,143.3295 53.286,142.6503 52.3384,140.6032 53.0174,138.7527 53.7028,136.8848 55.7432,135.9534 57.5944,136.6327 60.792,137.8059 63.9896,138.9792 67.1872,140.1525 69.0384,140.8317 69.9916,142.8615 69.3122,144.713 68.6272,146.5799 66.5812,147.5286 64.73,146.8494" stroke="black" stroke-width="1" /><polyline fill="none" points="67.3914,127.0984 67.3864,127.096 67.3815,127.0937 67.3765,127.0913 69.4805,128.0959 71.5845,129.1004 73.6885,130.105 74.6609,130.5693 75.3599,130.0652 75.6031,129.5559 75.2927,130.206 74.4791,130.4825 73.812,130.1639 73.7708,130.1443 73.7297,130.1246 73.6885,130.105 74.0973,131.5168 74.1547,132.988 73.5123,134.3336 72.9803,135.4478 71.5587,136.9921 69.2845,135.9063 68.0929,135.3374 67.6527,134.3107 67.7092,133.1595 67.7292,132.5995 68.1373,130.988 68.4087,129.9022 68.6726,128.7934 68.5829,127.6673 67.3914,127.0984 66.1847,126.5222 64.1474,127.0507 63.261,128.9072 62.426,130.656 62.8925,131.8666 63.4376,132.7541" stroke="black" stroke-width="1" /><polyline fill="none" points="73.6732,116.0274 73.6685,116.0246 73.6638,116.0218 73.6591,116.019 75.6598,117.2162 77.6605,118.4133 79.6612,119.6105 80.5858,120.1638 81.329,119.7274 81.6187,119.2431 81.2488,119.8613 80.413,120.0604 79.7786,119.6808 79.7394,119.6573 79.7003,119.6339 79.6612,119.6105 79.936,121.0544 79.8554,122.5245 79.0897,123.8041 78.4558,124.8635 76.8958,126.268 74.7333,124.974 73.6002,124.296 73.258,123.2325 73.4221,122.0917 73.4945,121.536 74.0516,119.9698 74.4236,118.9142 74.7901,117.8349 74.8063,116.7054 73.6732,116.0274 72.5258,115.3408 70.448,115.6762 69.3917,117.4415 68.3966,119.1045 68.7476,120.3534 69.2072,121.2881" stroke="black" stroke-width="1" /><polyline fill="none" points="73.8881,100.7906 72.6741,102.4451 71.4602,104.0996 70.2462,105.7541 72.4258,107.3533 74.6053,108.9525 76.7849,110.5517 76.1889,109.3065 76.1798,108.1294 77.0621,106.9269 78.2793,105.268 80.5912,104.9868 82.1251,106.1123 83.2217,106.9169 84.3184,107.7216 85.415,108.5262 87.0184,109.7026 87.2504,111.8503 86.1445,113.3575 85.0492,114.8503 82.941,115.2596 81.3377,114.0832" stroke="black" stroke-width="1" /><polyline fill="none" points="88.0551,94.2223 89.5287,95.5325 89.6715,97.7709 88.3612,99.2445 87.0396,100.7309 84.7892,100.8629 83.3156,99.5527 82.5554,98.8767 81.7951,98.2007 81.0349,97.5248 79.5613,96.2145 79.4287,93.9637 80.7392,92.4898 82.0606,91.0037 84.3008,90.8841 85.7744,92.1944 88.3198,94.4576 90.8652,96.7209 93.4106,98.9841 94.8839,100.2941 95.0269,102.5327 93.7167,104.0063 92.589,105.2746 90.7829,105.5509 89.3532,104.7847" stroke="black" stroke-width="1" /><polyline fill="none" points="89.9669,87.9164 88.6225,86.4739 88.702,84.2203 90.1445,82.8759 91.5998,81.5195 93.9016,81.6005 95.246,83.043 95.7727,83.6081 96.01,84.0885 96.1049,84.5171 97.0677,88.8534 98.0306,93.1896 98.9935,97.5258 99.0907,97.6302 99.188,97.7345 99.2852,97.8388 101.0162,96.2255 102.7472,94.6122 104.4782,92.9988" stroke="black" stroke-width="1" /><polyline fill="none" points="102.7457,72.418 101.1201,73.6704 99.4945,74.9229 97.8689,76.1753 99.5188,78.3167 101.1686,80.4582 102.8185,82.5997 102.5917,81.2379 102.9097,80.1046 104.0912,79.1944 105.7212,77.9386 108.0202,78.3103 109.1814,79.8174 110.0115,80.8949 110.8416,81.9724 111.6717,83.0499 112.8854,84.6252 112.512,86.7528 111.0312,87.8937 109.5645,89.0237 107.4255,88.8317 106.2118,87.2563" stroke="black" stroke-width="1" /><polyline fill="none" points="118.1793,70.0413 119.2312,71.7092 118.7469,73.8991 117.079,74.951 115.3967,76.0121 113.1981,75.5141 112.1462,73.8463 111.6035,72.9858 111.0609,72.1253 110.5182,71.2649 109.4663,69.597 109.9639,67.3979 111.632,66.3458 113.3141,65.2849 115.4994,65.792 116.5513,67.4599 118.3683,70.3409 120.1852,73.2218 122.0022,76.1028 123.0539,77.7704 122.5697,79.9606 120.9019,81.0125 119.4663,81.9179 117.6546,81.6818 116.4938,80.5489" stroke="black" stroke-width="1" /><polyline fill="none" points="130.0363,65.9461 130.0338,65.9412 130.0314,65.9363 130.0289,65.9314 131.0825,68.0113 132.1361,70.0912 133.1897,72.1711 133.6767,73.1323 134.5381,73.1595 135.0414,72.9045 134.3988,73.2301 133.5856,72.9526 133.2515,72.2931 133.2309,72.2524 133.2103,72.2117 133.1897,72.1711 132.6519,73.5389 131.7995,74.7394 130.4693,75.4132 129.3679,75.9712 127.2992,76.3269 126.1604,74.0788 125.5637,72.9009 125.8415,71.8189 126.5889,70.9414 126.9465,70.5101 128.2533,69.4825 129.131,68.7881 130.0168,68.0707 130.633,67.124 130.0363,65.9461 129.432,64.7532 127.4957,63.9285 125.6605,64.8582 123.9317,65.7339 123.5624,66.9776 123.4525,68.0133" stroke="black" stroke-width="1" /><polyline fill="none" points="137.4525,53.663 136.528,54.027 135.9819,54.8873 136.4467,56.0676 136.8969,57.2108 137.347,58.354 137.7971,59.4972 138.3607,59.2753 138.9242,59.0534 139.4877,58.8315 138.4029,59.2587 137.3181,59.6859 136.2332,60.113 136.7545,59.9077 137.2758,59.7025 137.7971,59.4972 139.1811,63.0119 140.5651,66.5267 141.949,70.0414" stroke="black" stroke-width="1" /><polyline fill="none" points="156.0447,63.681 155.7206,64.7205 155.2318,65.8079 153.1889,66.3983 151.3601,66.9268 149.3671,65.8968 148.8005,63.9362 148.3865,62.5035 147.9724,61.0708 147.5583,59.638 147.0061,57.7272 148.1425,55.7935 149.9713,55.265 151.8331,54.7269 153.8585,55.7469 154.4107,57.6577 154.6169,58.3712 154.8231,59.0848 155.0293,59.7984 152.7507,60.4569 150.4721,61.1154 148.1935,61.7739" stroke="black" stroke-width="1" /><polyline fill="none" points="163.1184,54.6506 164.7285,54.4483 166.1779,52.6474 165.8119,50.7186 165.7267,50.2697 165.6415,49.8208 165.5563,49.3719 165.2109,47.5521 163.446,46.3515 161.6095,46.7001 159.7901,47.0454 158.595,48.843 158.9339,50.6287 159.0191,51.0776 159.1043,51.5265 159.1895,51.9754 159.5349,53.7955 161.299,54.9959 163.1184,54.6506 165.123,54.2701 167.0012,55.6063 167.3688,57.5428 167.4945,58.2054 167.6203,58.868 167.746,59.5307 168.1136,61.4676 166.8493,63.366 164.8447,63.7464 162.8569,64.1237 160.986,62.8203 160.6184,60.8834 160.4905,60.2098 160.3627,59.5362 160.2348,58.8626 159.9197,57.2022 160.9698,55.1616" stroke="black" stroke-width="1" /><polyline fill="none" points="237.0015,120.6153 239.8942,231.6324 239.8942,231.6324 250.763,172.1919 158.7145,203.9175 96.1804,188.1635 188.1635,280.8196 126.744,171.7336 236.1363,268.4255 236.6952,108.8569" stroke="black" stroke-width="1" /><polyline fill="none" points="219.0517,108.7951 254.3387,108.9187" stroke="black" stroke-width="1" /><polyline fill="none" points="248.4576,108.8569 248.3127,107.0169 247.8819,105.2221 247.1755,103.5169 246.2111,101.9432 245.0124,100.5397 243.6089,99.341 242.0352,98.3766 240.3299,97.6702 238.5352,97.2393 236.6952,97.0945 234.8551,97.2393 233.0604,97.6702 231.3551,98.3765 229.7814,99.3409 228.3779,100.5396 227.1792,101.9432 226.2148,103.5169 225.5085,105.2221 225.0776,107.0169 224.9328,108.8569 225.0776,110.697 225.5085,112.4917 226.2148,114.1969 227.1792,115.7707 228.3779,117.1742 229.7814,118.3729 231.3551,119.3373 233.0604,120.0436 234.8551,120.4745 236.6952,120.6193 238.5352,120.4745 240.3299,120.0436 242.0352,119.3373 243.6089,118.3729 245.0124,117.1742 246.2111,115.7707 247.1755,114.197 247.8819,112.4917 248.3127,110.697 248.4576,108.8569" stroke="black" stroke-width="1" /><polyline fill="none" points="188.5,69.0664 199.6839,69.5912 210.7696,71.161 221.6595,73.7619 232.2581,77.3712 242.4721,81.9571 252.2118,87.4792 261.3915,93.8892 269.9308,101.1306 277.7544,109.1398 284.7936,117.8464 290.9866,127.1739 296.2789,137.0404 300.6241,147.3591 303.9839,158.0393 306.3289,168.9873 307.6383,180.1067 307.9008,191.2998 307.114,202.4684 305.2847,213.5142 302.4292,224.3402 298.5725,234.8512 293.7484,244.9549 287.9994,254.5625 281.376,263.5894 273.9365,271.9565 265.7461,279.5902 256.8768,286.4234 247.4067,292.3961 237.4188,297.4556 227.0011,301.5577 216.2451,304.6663 205.2452,306.7539 194.0981,307.8023 182.9019,307.8023 171.7548,306.7539 160.7549,304.6663 149.9989,301.5577 139.5811,297.4556 129.5933,292.3961 120.1232,286.4234 111.2539,279.5902 103.0635,271.9565 95.6239,263.5894 89.0006,254.5625 83.2516,244.9549 78.4275,234.8512 74.5708,224.3402 71.7153,213.5142 69.8861,202.4684 69.0992,191.2998 69.3617,180.1067 70.6712,168.9872 73.0161,158.0393 76.3759,147.3591 80.7211,137.0404 86.0134,127.174 92.2064,117.8464 99.2457,109.1398 107.0692,101.1306 115.6085,93.8892 124.7882,87.4792 134.5279,81.957 144.7419,77.3712 155.3405,73.7619 166.2304,71.161 177.3161,69.5912 188.5,69.0664" stroke="black" stroke-width="1" />

    </g>
  </g>
  <WCB
     pausedposy="0"
     pausedposx="0"
     lastknownposy="0"
     lastknownposx="0"
     lastpathnc="0"
     lastpath="0"
     node="0"
     layer="0" />
</svg>
