<?xml version="1.0" encoding="UTF-8" standalone="no"?>
<!-- Created with Inkscape (http://www.inkscape.org/) -->

<svg
   xmlns:dc="http://purl.org/dc/elements/1.1/"
   xmlns:cc="http://creativecommons.org/ns#"
   xmlns:rdf="http://www.w3.org/1999/02/22-rdf-syntax-ns#"
   xmlns:svg="http://www.w3.org/2000/svg"
   xmlns="http://www.w3.org/2000/svg"
   xmlns:sodipodi="http://sodipodi.sourceforge.net/DTD/sodipodi-0.dtd"
   xmlns:inkscape="http://www.inkscape.org/namespaces/inkscape"
   width="100mm"
   height="100mm"
   viewBox="0 0 100 100"
   version="1.1"
   id="svg19124"
   inkscape:version="0.92.3 (2405546, 2018-03-11)"
   sodipodi:docname="inkscape_template_TMP.svg"
   shape-rendering="crispEdges">
  <sodipodi:namedview
     pagecolor="#ffffff"
     bordercolor="#666666"
     borderopacity="1"
     objecttolerance="10"
     gridtolerance="10"
     guidetolerance="10"
     inkscape:pageopacity="0"
     inkscape:pageshadow="2"
     inkscape:window-width="1568"
     inkscape:window-height="1550"
     id="namedview24021"
     showgrid="false"
     inkscape:zoom="0.62441667"
     inkscape:cx="712.66515"
     inkscape:cy="409.98265"
     inkscape:window-x="0"
     inkscape:window-y="0"
     inkscape:window-maximized="0"
     inkscape:current-layer="layer1" />
  <defs
     id="defs19118" />
  <metadata
     id="metadata19121">
    <rdf:RDF>
      <cc:Work
         rdf:about="">
        <dc:format>image/svg+xml</dc:format>
        <dc:type
           rdf:resource="http://purl.org/dc/dcmitype/StillImage" />
        <dc:title />
      </cc:Work>
    </rdf:RDF>
  </metadata>
  <g
     transform="translate(0,-197)"
     id="layer1"
     inkscape:groupmode="layer"
     inkscape:label="Layer 1">
    <g
       id="g24447"
       transform="matrix(0.26458333,0,0,0.26458333,0.10666333,197.9735)">

<polyline fill="none" points="192.1004,47.7394 189.7225,51.1455 187.3447,54.5516 184.9669,57.9577 184.9669,54.5516 184.9669,51.1455 184.9669,47.7394 184.9669,45.7676 186.5623,44.1729 188.5334,44.1729 190.5231,44.1729 192.1004,45.7676 192.1004,47.7394 192.1004,51.1455 192.1004,54.5516 192.1004,57.9577 192.1004,59.9295 190.5231,61.5235 188.5509,61.5235 186.5623,61.5235 184.9669,59.9295 184.9669,57.9577" stroke="black" stroke-width="1" /><polyline fill="none" points="197.8298,61.5877 200.7471,57.7851 198.696,53.7706 202.935,62.0679 200.7471,57.7851 203.4811,54.2207" stroke="black" stroke-width="1" /><polyline fill="none" points="210.2846,55.059 210.6554,53.1049 212.5428,51.893 214.413,52.2479 216.2826,52.6028 217.5785,54.4188 217.2077,56.3729 216.9264,57.8551 216.6451,59.3373 216.3638,60.8194 215.993,62.7732 214.1216,63.9889 212.2521,63.634 210.3818,63.2791 209.0863,61.4624 209.4572,59.5086 209.4517,59.5076 209.4462,59.5065 209.4407,59.5055 210.2974,54.9914 211.1541,50.4773 212.0108,45.9632" stroke="black" stroke-width="1" /><polyline fill="none" points="226.3459,67.0854 227.5407,62.9513 221.6759,61.2563 230.6775,50.4919" stroke="black" stroke-width="1" /><polyline fill="none" points="234.1348,62.8919 234.8572,61.0571 236.9254,60.1572 238.7595,60.8794 240.6109,61.6084 241.494,63.6704 240.7716,65.5051 240.3989,66.4515 240.0263,67.3978 239.6537,68.3442 238.9312,70.1789 236.8796,71.0845 235.0282,70.3555 233.1941,69.6334 232.2945,67.5656 233.0169,65.7309 234.2648,62.5616 235.5127,59.3924 236.7607,56.2232 237.483,54.3887 239.5511,53.4892 241.3851,54.2114 242.9653,54.8336 243.8459,56.4332 243.6193,58.039" stroke="black" stroke-width="1" /><polyline fill="none" points="250.623,73.5273 249.7243,75.3013 247.5891,75.9496 245.8912,75.0895 244.1933,74.2295 243.4379,72.1168 244.3365,70.3428 245.0183,68.997 245.7,67.6512 246.3818,66.3054 247.2806,64.5311 249.4306,63.891 251.1284,64.7511 252.8263,65.6112 253.5671,67.7156 252.6682,69.4899" stroke="black" stroke-width="1" /><polyline fill="none" points="267.0143,67.577 266.1739,67.047 265.1573,67.1156 264.4806,68.1887 263.8252,69.2279 263.1698,70.2671 262.5144,71.3063 263.0266,71.6293 263.5389,71.9524 264.0511,72.2755 263.065,71.6535 262.0789,71.0316 261.0927,70.4097 261.5666,70.7085 262.0405,71.0074 262.5144,71.3063 260.4993,74.5013 258.4843,77.6964 256.4692,80.8914" stroke="black" stroke-width="1" /><polyline fill="none" points="269.9359,88.4934 268.9061,88.847 267.7402,89.0962 266.0557,87.7984 264.5477,86.6366 264.1992,84.4204 265.4447,82.8037 266.3549,81.6223 267.2651,80.4409 268.1753,79.2595 269.3892,77.6839 271.6205,77.4562 273.1285,78.618 274.6637,79.8008 275.0395,82.0371 273.8256,83.6127 273.3723,84.2011 272.9189,84.7895 272.4656,85.3779 270.5867,83.9303 268.7078,82.4827 266.8289,81.0352" stroke="black" stroke-width="1" /><polyline fill="none" points="281.9104,83.1419 283.2549,81.6994 285.5085,81.6204 286.9509,82.9648 288.4062,84.3212 288.4872,86.623 287.1428,88.0654 286.616,88.6306 286.1535,88.9011 285.7326,89.0258 281.4747,90.291 277.2169,91.5563 272.9591,92.8215 272.8618,92.9258 272.7646,93.0302 272.6673,93.1345 274.3983,94.7478 276.1293,96.3612 277.8604,97.9745" stroke="black" stroke-width="1" /><polyline fill="none" points="292.3208,93.1944 296.6118,92.9367 283.8,104.3283" stroke="black" stroke-width="1" /><polyline fill="none" points="292.5807,115.4177 296.0503,112.872 292.4388,107.9499 306.1392,104.9165" stroke="black" stroke-width="1" /><polyline fill="none" points="313.1853,116.1091 312.6751,115.2564 311.7372,114.8583 310.6486,115.5097 309.5944,116.1406 308.5401,116.7714 307.4858,117.4023 307.7968,117.922 308.1077,118.4416 308.4187,118.9613 307.82,117.9609 307.2214,116.9604 306.6227,115.96 306.9104,116.4408 307.1981,116.9215 307.4858,117.4023 304.2444,119.3419 301.003,121.2815 297.7616,123.2211" stroke="black" stroke-width="1" /><polyline fill="none" points="307.8805,135.3373 306.0859,136.1941 303.9988,135.4045 303.1787,133.6869 302.3586,131.9694 303.0496,129.8347 304.8442,128.9779 306.2056,128.3279 307.567,127.6779 308.9284,127.0279 310.7233,126.1709 312.8171,126.976 313.6371,128.6935 314.4572,130.4111 313.7596,132.5302 311.9647,133.3872" stroke="black" stroke-width="1" /><polyline fill="none" points="316.4042,141.5914 316.8668,143.1468 318.8803,144.2826 320.7234,143.6063 321.1524,143.4489 321.5813,143.2915 322.0103,143.1341 323.7491,142.4961 324.6453,140.5588 324.0013,138.8038 323.3634,137.0653 321.3947,136.18 319.6884,136.8061 319.2594,136.9635 318.8304,137.1208 318.4015,137.2782 316.6623,137.9164 315.7663,139.8529 316.4042,141.5914 317.107,143.507 316.0957,145.5782 314.2452,146.2572 313.6121,146.4895 312.9789,146.7219 312.3457,146.9542 310.4949,147.6333 308.4155,146.6961 307.7126,144.7805 307.0157,142.8811 307.9958,140.8224 309.8467,140.1433 310.4903,139.9071 311.134,139.6709 311.7776,139.4348 313.3643,138.8526 315.549,139.5552" stroke="black" stroke-width="1" /><polyline fill="none" points="314.0455,158.9797 313.0139,158.6313 311.9383,158.1172 311.3959,156.061 310.9104,154.2203 311.9869,152.252 313.9602,151.7315 315.4023,151.3512 316.8443,150.9708 318.2863,150.5905 320.2095,150.0832 322.1161,151.2646 322.6016,153.1053 323.0959,154.9791 322.0287,156.98 320.1055,157.4873 319.3873,157.6768 318.6691,157.8662 317.9509,158.0556 317.346,155.7622 316.741,153.4688 316.1361,151.1753" stroke="black" stroke-width="1" /><polyline fill="none" points="322.9498,169.5073 322.9551,169.5064 322.9606,169.5055 322.9659,169.5046 320.6658,169.8855 318.3656,170.2664 316.0654,170.6473 315.0023,170.8234 314.7178,171.6369 314.8101,172.1936 314.6924,171.4829 315.2011,170.7905 315.9305,170.6697 315.9754,170.6622 316.0204,170.6548 316.0654,170.6473 314.922,169.7238 314.0326,168.5505 313.789,167.0794 313.5873,165.8613 313.8687,163.7812 316.3549,163.3695 317.6576,163.1538 318.6064,163.7435 319.2191,164.7198 319.5233,165.1903 320.1113,166.7452 320.5104,167.7909 320.9289,168.8511 321.6471,169.723 322.9498,169.5073 324.269,169.2888 325.6368,167.6892 325.3007,165.6596 324.9841,163.7477 323.9085,163.0222 322.9535,162.6066" stroke="black" stroke-width="1" /><polyline fill="none" points="332.4413,180.2677 332.3715,179.2765 331.7148,178.4975 330.4493,178.5867 329.2237,178.673 327.9981,178.7594 326.7726,178.8457 326.8151,179.4498 326.8577,180.0539 326.9002,180.6581 326.8183,179.4951 326.7364,178.3321 326.6544,177.1691 326.6938,177.728 326.7332,178.2868 326.7726,178.8457 323.0045,179.1112 319.2365,179.3766 315.4684,179.6421" stroke="black" stroke-width="1" /><polyline fill="none" points="317.3057,194.9968 316.4114,194.3756 315.5208,193.5831 315.5706,191.4571 315.6153,189.554 317.1959,187.962 319.2361,188.0099 320.7271,188.0448 322.2181,188.0798 323.709,188.1147 325.6975,188.1614 327.201,189.8257 327.1564,191.7288 327.111,193.6662 325.5303,195.2922 323.5418,195.2455 322.7993,195.2281 322.0567,195.2107 321.3141,195.1933 321.3698,192.8221 321.4254,190.4509 321.4809,188.0796" stroke="black" stroke-width="1" /><polyline fill="none" points="328.7091,202.7589 331.753,205.7943 314.7268,203.7893" stroke="black" stroke-width="1" /><polyline fill="none" points="326.7578,215.8256 329.504,219.1328 312.7404,215.5422" stroke="black" stroke-width="1" /><polyline fill="none" points="324.988,227.5847 327.2451,228.2948 325.1095,235.0835 310.2533,225.1787" stroke="black" stroke-width="1" /><polyline fill="none" points="307.5542,242.3896 305.7214,241.6178 304.9246,239.5334 305.6633,237.7793 306.4019,236.0251 308.4563,235.1231 310.2891,235.8949 311.6794,236.4804 313.0698,237.0658 314.4602,237.6513 316.2933,238.4232 317.0829,240.5229 316.3443,242.277 315.6056,244.0311 313.5584,244.9179 311.7253,244.146" stroke="black" stroke-width="1" /><polyline fill="none" points="310.8405,258.2086 308.963,254.5032 307.0854,250.7978 305.2079,247.0924 308.2094,248.7024 311.2109,250.3124 314.2124,251.9224 315.9501,252.8545 316.6013,255.0142 315.6695,256.7512 314.729,258.5046 312.5782,259.1407 310.8405,258.2086 307.839,256.5986 304.8375,254.9886 301.8359,253.3786 300.0983,252.4465 299.4391,250.3032 300.3714,248.5652 301.3114,246.8128 303.4702,246.1603 305.2079,247.0924" stroke="black" stroke-width="1" /><polyline fill="none" points="303.7753,269.3585 302.253,265.4935 300.7307,261.6286 299.2083,257.7636 302.0459,259.6476 304.8835,261.5316 307.7211,263.4156 309.3638,264.5063 309.8099,266.7175 308.7196,268.3597 307.619,270.0173 305.4181,270.4492 303.7753,269.3585 300.9377,267.4745 298.1002,265.5905 295.2626,263.7065 293.6199,262.6158 293.1643,260.4201 294.2552,258.7771 295.3552,257.1204 297.5656,256.6729 299.2083,257.7636" stroke="black" stroke-width="1" /><polyline fill="none" points="294.6249,269.7247 296.1583,270.9644 296.3961,273.2073 295.1568,274.7402 293.9058,276.2875 291.6738,276.5111 290.1404,275.2714 289.3495,274.632 288.5586,273.9925 287.7677,273.3531 286.2343,272.1133 285.9861,269.8845 287.2371,268.3372 288.4764,266.8044 290.7188,266.5667 292.2522,267.8064 294.9009,269.9478 297.5496,272.0893 300.1982,274.2307 301.7314,275.4702 301.9689,277.7129 300.7296,279.2458 299.6618,280.5664 297.8717,280.9264 296.4079,280.2283" stroke="black" stroke-width="1" /><polyline fill="none" points="285.9404,283.7117 284.7361,284.7994 284.5787,287.1057 285.9831,288.4776 286.31,288.7969 286.6368,289.1161 286.9637,289.4354 288.2886,290.7297 290.423,290.7037 291.7292,289.3664 293.0233,288.0417 292.974,285.8836 291.6738,284.6136 291.3469,284.2943 291.0201,283.975 290.6932,283.6557 289.368,282.3612 287.2344,282.387 285.9404,283.7117 284.5146,285.1713 282.2097,285.1511 280.7997,283.7737 280.3172,283.3025 279.8347,282.8312 279.3523,282.3599 277.942,280.9823 277.8918,278.702 279.3176,277.2424 280.7314,275.795 283.0115,275.7925 284.4218,277.1702 284.9123,277.6492 285.4027,278.1283 285.8932,278.6074 287.1021,279.7884 287.4094,282.0627" stroke="black" stroke-width="1" /><polyline fill="none" points="274.7346,295.9293 273.4592,294.4254 273.6317,292.1892 275.1356,290.9138 276.6526,289.6274 278.8993,289.8122 280.1746,291.3161 280.8326,292.092 281.4905,292.8678 282.1485,293.6437 283.4238,295.1476 283.2395,297.3948 281.7353,298.6704 280.2186,299.9566 277.9838,299.7609 276.7084,298.257 274.5055,295.6592 272.3026,293.0614 270.0996,290.4637 268.8245,288.9601 268.9968,286.7235 270.5007,285.4482 271.7951,284.3505 273.622,284.3302 274.9302,285.2892" stroke="black" stroke-width="1" /><polyline fill="none" points="268.4328,308.8305 265.8023,305.0633 263.1718,301.2961 260.5413,297.529 259.4026,295.8982 259.8543,293.701 261.415,292.6111 262.9615,291.5313 265.1801,291.8639 266.3188,293.4947 267.1826,294.7316 268.0463,295.9685 268.91,297.2054 270.0487,298.8362 269.5963,301.0331 268.0499,302.1129 266.4891,303.2028 264.2711,302.8705 263.1324,301.2397" stroke="black" stroke-width="1" /><polyline fill="none" points="253.1909,310.1246 252.2184,308.4093 252.8049,306.2444 254.5202,305.2719 256.2504,304.2908 258.4232,304.8913 259.3958,306.6066 259.8975,307.4916 260.3993,308.3765 260.901,309.2615 261.8736,310.9768 261.2735,313.1502 259.5579,314.123 257.8279,315.1038 255.6687,314.4948 254.6962,312.7795 253.0163,309.8165 251.3363,306.8535 249.6564,303.8906 248.684,302.1755 249.2703,300.0104 250.9856,299.0378 252.462,298.2007 254.2607,298.5214 255.3672,299.7076" stroke="black" stroke-width="1" /><polyline fill="none" points="238.1627,305.5787 239.9254,309.5045 245.4946,307.004 245.5913,321.0359" stroke="black" stroke-width="1" /><polyline fill="none" points="229.3783,320.0539 228.7426,318.1873 229.7225,316.1697 231.5891,315.5341 233.4719,314.8929 235.4946,315.8879 236.1303,317.7545 236.4582,318.7175 236.7861,319.6805 237.1141,320.6435 237.7497,322.5101 236.7549,324.5335 234.888,325.1693 233.0055,325.8103 230.9978,324.8094 230.3621,322.9428 229.2641,319.7186 228.1661,316.4944 227.0681,313.2701 226.4326,311.4039 227.4123,309.386 229.2789,308.7503 230.8855,308.2032 232.5928,308.8537 233.4587,310.2253" stroke="black" stroke-width="1" /><polyline fill="none" points="216.8798,323.3037 216.4217,321.3858 217.5862,319.4689 219.5041,319.0108 221.4386,318.5488 223.3593,319.7289 223.8174,321.6468 224.0537,322.6362 224.29,323.6257 224.5264,324.6152 224.9844,326.5331 223.8045,328.4544 221.8863,328.9126 219.952,329.3746 218.0468,328.1901 217.5887,326.2722 216.7975,322.9593 216.0062,319.6464 215.215,316.3335 214.757,314.4159 215.9214,312.4986 217.8393,312.0405 219.4901,311.6463 221.129,312.4537 221.8626,313.9005" stroke="black" stroke-width="1" /><polyline fill="none" points="205.8447,331.7759 207.8765,331.4882 209.9083,331.2005 211.9401,330.9128 211.5611,328.2361 211.1821,325.5596 210.8031,322.8829 210.3287,324.1794 209.4931,325.0084 208.0163,325.2175 205.9791,325.506 204.1625,324.0487 203.8957,322.1649 203.705,320.8182 203.5143,319.4715 203.3236,318.1248 203.0448,316.1558 204.4191,314.4891 206.2699,314.227 208.1031,313.9674 209.8691,315.1894 210.1479,317.1584" stroke="black" stroke-width="1" /><polyline fill="none" points="191.2466,326.2313 191.1541,324.2616 192.6556,322.5955 194.6253,322.503 196.6121,322.4098 198.279,323.9273 198.3715,325.897 198.4191,326.9132 198.4668,327.9294 198.5145,328.9456 198.6069,330.9152 197.0895,332.5829 195.1194,332.6754 193.1329,332.7686 191.482,331.2496 191.3896,329.2798 191.2299,325.8776 191.0703,322.4752 190.9107,319.0729 190.8183,317.1035 192.3197,315.437 194.2894,315.3446 195.9847,315.265 197.4443,316.3639 197.8954,317.9221" stroke="black" stroke-width="1" /><polyline fill="none" points="185.3997,329.2701 185.3073,331.2398 183.6396,332.7576 181.6699,332.6652 179.6828,332.572 178.1322,330.8688 178.2247,328.8991 178.2609,328.1274 178.4387,327.622 178.6791,327.2546 181.1081,323.5358 183.5372,319.817 185.9663,316.0982 185.973,315.9557 185.9797,315.8132 185.9864,315.6708 183.6227,315.5599 181.259,315.4489 178.8953,315.338" stroke="black" stroke-width="1" /><polyline fill="none" points="166.7565,317.3611 167.0353,315.3922 168.8476,314.0901 170.7321,314.357 172.6166,314.6238 174.0128,316.3802 173.7339,318.3492 173.5224,319.8429 173.3109,321.3366 173.0994,322.8304 172.8205,324.7997 170.9917,326.0987 169.1072,325.8318 167.2227,325.565 165.8431,323.8117 166.1219,321.8423" stroke="black" stroke-width="1" /><polyline fill="none" points="153.1583,328.2778 154.1247,328.5087 155.0649,328.1159 155.3596,326.882 155.6451,325.687 155.9305,324.492 156.2159,323.297 155.6268,323.1563 155.0378,323.0156 154.4487,322.875 155.5827,323.1458 156.7167,323.4166 157.8507,323.6875 157.3057,323.5573 156.7608,323.4272 156.2159,323.297 157.0934,319.623 157.9709,315.9489 158.8484,312.2748" stroke="black" stroke-width="1" /><polyline fill="none" points="146.2509,323.0283 145.6761,324.7163 143.7556,325.7289 141.9212,325.1042 140.0877,324.4798 139.1398,322.5802 139.7919,320.6653 139.895,320.3625 139.9981,320.0597 140.1012,319.7568 141.0961,316.8354 143.81,317.2167 144.1352,317.3275 144.4489,317.4343 144.7625,317.541 145.0761,317.6479 144.7625,317.541 144.4489,317.4343 144.1352,317.3275 143.1771,317.0012 141.5189,315.1684 142.2925,312.8968 142.5192,312.2312 142.7458,311.5656 142.9725,310.9 143.6135,309.0179 145.6481,308.0443 147.5309,308.6854 149.43,309.3322 150.4307,311.3394 149.7897,313.2216" stroke="black" stroke-width="1" /><polyline fill="none" points="131.8343,306.2581 132.6488,304.444 134.7514,303.6963 136.4877,304.4758 138.224,305.2554 139.0776,307.3304 138.2631,309.1445 137.6452,310.5208 137.0273,311.8971 136.4094,313.2733 135.5947,315.0879 133.4771,315.828 131.7408,315.0484 130.0045,314.2689 129.1659,312.2014 129.9806,310.387" stroke="black" stroke-width="1" /><polyline fill="none" points="118.7392,304.9941 118.7365,304.9989 118.7338,305.0037 118.7311,305.0084 119.881,302.9802 121.031,300.952 122.1809,298.9238 122.7124,297.9865 122.2586,297.2538 121.7677,296.9755 122.3944,297.3307 122.613,298.1617 122.2484,298.8048 122.2259,298.8445 122.2034,298.8842 122.1809,298.9238 123.6179,298.6153 125.0895,298.6614 126.3867,299.3968 127.4607,300.0058 128.9013,301.5324 127.6584,303.7247 127.0071,304.8733 125.952,305.2403 124.8076,305.103 124.2504,305.0437 122.6716,304.5234 121.6076,304.1763 120.52,303.8352 119.3904,303.8455 118.7392,304.9941 118.0797,306.1573 118.4636,308.2267 120.2532,309.2414 121.939,310.1972 123.1794,309.817 124.1031,309.3356" stroke="black" stroke-width="1" /><polyline fill="none" points="109.6595,305.3164 105.5457,306.5639 115.3607,292.5078" stroke="black" stroke-width="1" /><polyline fill="none" points="99.067,297.4204 94.8545,298.2772 105.9426,285.2018" stroke="black" stroke-width="1" /><polyline fill="none" points="89.541,290.3024 87.8484,291.9557 82.8755,286.8649 98.6263,278.455" stroke="black" stroke-width="1" /><polyline fill="none" points="75.1958,277.6573 75.8205,278.43 76.805,278.6927 77.7915,277.8951 78.7469,277.1227 79.7023,276.3503 80.6577,275.5778 80.277,275.1069 79.8962,274.6359 79.5155,274.165 80.2485,275.0716 80.9815,275.9782 81.7145,276.8849 81.3622,276.4492 81.01,276.0135 80.6577,275.5778 83.5952,273.2029 86.5326,270.828 89.4701,268.4531" stroke="black" stroke-width="1" /><polyline fill="none" points="66.6786,265.8845 67.8136,267.5941 68.9487,269.3037 70.0838,271.0133 72.3359,269.518 74.588,268.0227 76.8401,266.5274 75.4658,266.658 74.3577,266.261 73.5327,265.0185 72.3946,263.3044 72.9269,261.0371 74.5119,259.9848 75.6451,259.2324 76.7782,258.4801 77.9114,257.7277 79.5681,256.6277 81.6643,257.1498 82.6983,258.7071 83.7224,260.2496 83.3805,262.3698 81.7238,263.4697" stroke="black" stroke-width="1" /><polyline fill="none" points="65.3923,250.322 67.13,249.3899 69.2805,250.0269 70.2126,251.7646 71.1527,253.5174 70.5015,255.6755 68.7639,256.6076 67.8674,257.0884 66.9709,257.5693 66.0745,258.0502 64.3368,258.9822 62.178,258.3314 61.2458,256.5934 60.3058,254.8409 60.9652,252.6967 62.7029,251.7646 65.7044,250.1546 68.7059,248.5445 71.7075,246.9345 73.4448,246.0026 75.5957,246.6395 76.5277,248.3772 77.33,249.8728 76.9672,251.6634 75.7555,252.7418" stroke="black" stroke-width="1" /><polyline fill="none" points="59.4985,245.2496 55.3535,244.1103 71.1535,237.4569" stroke="black" stroke-width="1" /><polyline fill="none" points="54.2173,234.5951 51.9602,235.3051 49.8246,228.5164 67.6758,228.132" stroke="black" stroke-width="1" /><polyline fill="none" points="55.0883,213.7738 55.0829,213.7749 55.0775,213.7761 55.0722,213.7772 57.352,213.2889 59.6318,212.8006 61.9116,212.3123 62.9652,212.0866 63.2113,211.2607 63.0931,210.7089 63.244,211.4133 62.7683,212.1288 62.0453,212.2836 62.0008,212.2932 61.9562,212.3027 61.9116,212.3123 63.0971,213.1812 64.0405,214.3116 64.3528,215.7696 64.6114,216.9769 64.4277,219.0679 61.9635,219.5957 60.6724,219.8723 59.697,219.3277 59.0392,218.3812 58.7133,217.9254 58.053,216.3998 57.6054,215.374 57.1376,214.3345 56.3794,213.4973 55.0883,213.7738 53.7807,214.0539 52.4894,215.7159 52.9203,217.7274 53.3262,219.6224 54.4345,220.2967 55.408,220.6671" stroke="black" stroke-width="1" /><polyline fill="none" points="47.9774,208.7484 45.6275,209.0251 44.7952,201.9573 62.405,204.9081" stroke="black" stroke-width="1" /><polyline fill="none" points="47.6517,195.1771 45.8689,195.2189 44.2568,193.7649 44.2114,191.8275 44.166,189.8911 45.6227,188.3469 47.6451,188.2995 47.9649,188.2919 48.2847,188.2845 48.6045,188.2769 51.6898,188.2046 52.2668,190.8837 52.2748,191.2272 52.2826,191.5584 52.2903,191.8896 52.2981,192.2209 52.2903,191.8896 52.2826,191.5584 52.2748,191.2272 52.2511,190.2153 53.4005,188.0273 55.7996,187.9711 56.5025,187.9546 57.2054,187.9381 57.9084,187.9216 59.8961,187.875 61.511,189.4498 61.5576,191.4382 61.6047,193.4438 60.0649,195.0747 58.0772,195.1213" stroke="black" stroke-width="1" /><polyline fill="none" points="44.7691,175.4523 44.6248,177.4993 44.4806,179.5463 44.3364,181.5933 47.0331,181.7833 49.7297,181.9733 52.4263,182.1633 51.2579,181.4279 50.6224,180.4372 50.7272,178.9494 50.8718,176.8969 52.6772,175.4258 54.575,175.5595 55.9318,175.6551 57.2887,175.7507 58.6455,175.8463 60.6292,175.986 61.9711,177.6788 61.8397,179.5436 61.7096,181.3905 60.1448,182.8614 58.1611,182.7216" stroke="black" stroke-width="1" /><polyline fill="none" points="54.585,169.8496 52.6227,169.5247 51.3669,167.6663 51.6779,165.7882 51.9888,163.9108 53.774,162.5727 55.7363,162.8976 57.2246,163.1441 58.713,163.3906 60.2013,163.6371 62.1633,163.962 63.4224,165.8043 63.1115,167.6816 62.8005,169.5597 61.0147,170.8974 59.0528,170.5725 59.0519,170.578 59.051,170.5835 59.0501,170.5891 54.5171,169.8384 49.9842,169.0877 45.4512,168.3371" stroke="black" stroke-width="1" /><polyline fill="none" points="58.0663,150.7571 58.0611,150.7557 58.0558,150.7543 58.0505,150.7529 60.3049,151.3476 62.5593,151.9422 64.8137,152.5368 65.8556,152.8117 66.4483,152.1861 66.5923,151.6404 66.4085,152.337 65.6608,152.7603 64.946,152.5717 64.9019,152.5601 64.8578,152.5485 64.8137,152.5368 65.4785,153.8477 65.8093,155.2824 65.429,156.7242 65.1141,157.918 64.0053,159.7003 61.5686,159.0576 60.2919,158.7209 59.6679,157.7943 59.5088,156.6527 59.424,156.0988 59.5244,154.4395 59.5887,153.3221 59.6412,152.1835 59.3431,151.0939 58.0663,150.7571 56.7734,150.4161 54.8704,151.3152 54.3457,153.3044 53.8514,155.1782 54.5354,156.2805 55.2365,157.0509" stroke="black" stroke-width="1" /><polyline fill="none" points="53.8148,137.0531 53.4726,137.9859 53.7526,138.9656 54.9436,139.4026 56.097,139.8258 57.2504,140.249 58.4039,140.6722 58.6125,140.1037 58.8211,139.5351 59.0297,138.9666 58.6281,140.0611 58.2265,141.1556 57.8249,142.2502 58.0179,141.7242 58.2109,141.1982 58.4039,140.6722 61.9501,141.9734 65.4963,143.2746 69.0425,144.5758" stroke="black" stroke-width="1" /><polyline fill="none" points="63.0265,124.6023 65.0757,128.2157 67.1249,131.829 69.1741,135.4424 66.1004,133.9748 63.0267,132.5073 59.953,131.0397 58.1736,130.1901 57.4219,128.0633 58.2711,126.2845 59.1285,124.4889 61.2471,123.7527 63.0265,124.6023 66.1002,126.0699 69.1739,127.5374 72.2476,129.005 74.0271,129.8546 74.7859,131.9647 73.9362,133.7444 73.0794,135.539 70.9535,136.292 69.1741,135.4424" stroke="black" stroke-width="1" /><polyline fill="none" points="65.7696,112.842 65.2595,113.6946 65.3519,114.7093 66.4405,115.3607 67.4948,115.9916 68.5491,116.6224 69.6034,117.2533 69.9144,116.7336 70.2253,116.2139 70.5363,115.6943 69.9376,116.6947 69.339,117.6951 68.7403,118.6956 69.028,118.2148 69.3157,117.7341 69.6034,117.2533 72.8448,119.1929 76.0862,121.1325 79.3276,123.0721" stroke="black" stroke-width="1" /><polyline fill="none" points="74.0441,100.3608 77.7486,103.0788 81.4531,105.7969 85.1575,108.515 86.7612,109.6917 87.0419,111.9172 85.9158,113.452 84.8,114.9727 82.5926,115.373 80.9889,114.1964 79.7726,113.3039 78.5563,112.4115 77.3399,111.519 75.7363,110.3424 75.4563,108.117 76.5721,106.5963 77.6983,105.0615 79.9049,104.661 81.5085,105.8376" stroke="black" stroke-width="1" /><polyline fill="none" points="79.9949,96.94 78.2266,95.3677 82.9555,90.0493 92.4515,105.1702" stroke="black" stroke-width="1" /><polyline fill="none" points="89.9204,87.6789 88.7045,86.3744 88.72,84.2035 90.1376,82.8822 91.5545,81.5616 93.6765,81.6241 95.0558,83.104 95.2739,83.338 95.492,83.572 95.7101,83.806 97.8143,86.0636 96.1955,88.2749 95.9442,88.5092 95.7018,88.7351 95.4594,88.961 95.217,89.1869 95.4594,88.961 95.7018,88.7351 95.9442,88.5092 96.6846,87.8191 99.0835,87.2242 100.7196,88.9797 101.199,89.4941 101.6784,90.0084 102.1578,90.5228 103.5134,91.9773 103.4096,94.2305 101.9546,95.5866 100.4871,96.9544 98.2452,96.8874 96.8895,95.4329" stroke="black" stroke-width="1" /><polyline fill="none" points="103.0149,72.0484 105.8191,75.6881 108.6233,79.3279 111.4275,82.9676 112.6414,84.5432 112.2932,86.7592 110.7852,87.921 109.291,89.0721 107.0593,88.8439 105.8454,87.2683 104.9246,86.0732 104.0039,84.8781 103.0832,83.683 101.8693,82.1074 102.2182,79.8918 103.7123,78.7407 105.2203,77.5788 107.4514,77.8068 108.6653,79.3824" stroke="black" stroke-width="1" /><polyline fill="none" points="122.9128,79.5407 120.6172,75.9008 115.4535,79.1574 113.3904,65.2777" stroke="black" stroke-width="1" /><polyline fill="none" points="124.9543,70.9334 124.0633,69.1744 124.765,67.0309 126.5234,66.1401 128.2984,65.241 130.4262,65.9511 131.3172,67.7101 131.7769,68.6174 132.2365,69.5247 132.6961,70.432 133.5872,72.191 132.9007,74.326 131.1257,75.2252 129.3673,76.1159 127.2243,75.4143 126.3332,73.6553 124.794,70.6169 123.2548,67.5784 121.7156,64.5399 120.8246,62.7812 121.5266,60.638 123.285,59.7473 124.7999,58.9798 126.5805,59.3846 127.63,60.621" stroke="black" stroke-width="1" /><polyline fill="none" points="141.7693,61.01 141.7673,61.0049 141.7653,60.9998 141.7633,60.9947 142.6175,63.1641 143.4717,65.3335 144.3259,67.5029 144.7207,68.5055 145.5758,68.6133 146.1008,68.4066 145.4305,68.6705 144.6469,68.3181 144.376,67.6301 144.3593,67.5877 144.3426,67.5453 144.3259,67.5029 143.6624,68.8144 142.7013,69.9298 141.3139,70.4761 140.1651,70.9284 138.0722,71.0889 137.1488,68.744 136.6651,67.5154 137.043,66.4642 137.8693,65.6606 138.2657,65.2646 139.663,64.3639 140.6019,63.7547 141.5509,63.1235 142.2531,62.2386 141.7693,61.01 141.2794,59.7658 139.4287,58.7634 137.5146,59.5171 135.7114,60.2271 135.2272,61.4307 135.0208,62.4516" stroke="black" stroke-width="1" /><polyline fill="none" points="146.0555,54.2454 145.5081,52.351 146.5974,50.3766 148.4917,49.8292 150.4029,49.2768 152.4196,50.3893 152.9671,52.2836 153.1816,53.0258 153.1762,53.5615 153.0671,53.9868 151.9665,58.2901 150.8659,62.5935 149.7654,66.8968 149.8049,67.0338 149.8445,67.1708 149.8841,67.3079 152.1574,66.6509 154.4306,65.9939 156.7039,65.3369" stroke="black" stroke-width="1" /><polyline fill="none" points="158.4264,49.7478 157.9852,47.4232 164.9771,46.0962 163.271,63.8698" stroke="black" stroke-width="1" /><polyline fill="none" points="152.0672,268.1431 140.3048,268.1431 188.8697,188.4998 96.1804,188.1635 268.4255,140.8637 108.8569,140.3048 280.8196,188.8365 108.8569,140.3048 268.4255,140.8637 188.1635,280.8196" stroke="black" stroke-width="1" /><polyline fill="none" points="203.4689,289.5969 172.8581,272.0422" stroke="black" stroke-width="1" /><polyline fill="none" points="152.0672,268.1431 151.9224,266.303 151.4915,264.5083 150.7852,262.803 149.8208,261.2293 148.6221,259.8258 147.2186,258.6271 145.6449,257.6627 143.9396,256.9564 142.1449,256.5255 140.3048,256.3807 138.4648,256.5255 136.6701,256.9564 134.9648,257.6627 133.3911,258.6271 131.9876,259.8258 130.7889,261.2293 129.8245,262.803 129.1181,264.5083 128.6873,266.303 128.5424,268.1431 128.6873,269.9831 129.1181,271.7779 129.8245,273.4831 130.7889,275.0568 131.9876,276.4604 133.3911,277.6591 134.9648,278.6234 136.6701,279.3298 138.4648,279.7607 140.3048,279.9055 142.1449,279.7607 143.9396,279.3298 145.6449,278.6234 147.2186,277.6591 148.6221,276.4604 149.8208,275.0568 150.7852,273.4831 151.4915,271.7779 151.9224,269.9831 152.0672,268.1431" stroke="black" stroke-width="1" /><polyline fill="none" points="188.5,69.0664 199.6839,69.5912 210.7696,71.161 221.6595,73.7619 232.2581,77.3712 242.4721,81.9571 252.2118,87.4792 261.3915,93.8892 269.9308,101.1306 277.7544,109.1398 284.7936,117.8464 290.9866,127.1739 296.2789,137.0404 300.6241,147.3591 303.9839,158.0393 306.3289,168.9873 307.6383,180.1067 307.9008,191.2998 307.114,202.4684 305.2847,213.5142 302.4292,224.3402 298.5725,234.8512 293.7484,244.9549 287.9994,254.5625 281.376,263.5894 273.9365,271.9565 265.7461,279.5902 256.8768,286.4234 247.4067,292.3961 237.4188,297.4556 227.0011,301.5577 216.2451,304.6663 205.2452,306.7539 194.0981,307.8023 182.9019,307.8023 171.7548,306.7539 160.7549,304.6663 149.9989,301.5577 139.5811,297.4556 129.5933,292.3961 120.1232,286.4234 111.2539,279.5902 103.0635,271.9565 95.6239,263.5894 89.0006,254.5625 83.2516,244.9549 78.4275,234.8512 74.5708,224.3402 71.7153,213.5142 69.8861,202.4684 69.0992,191.2998 69.3617,180.1067 70.6712,168.9872 73.0161,158.0393 76.3759,147.3591 80.7211,137.0404 86.0134,127.174 92.2064,117.8464 99.2457,109.1398 107.0692,101.1306 115.6085,93.8892 124.7882,87.4792 134.5279,81.957 144.7419,77.3712 155.3405,73.7619 166.2304,71.161 177.3161,69.5912 188.5,69.0664" stroke="black" stroke-width="1" />

    </g>
  </g>
  <WCB
     pausedposy="0"
     pausedposx="0"
     lastknownposy="0"
     lastknownposx="0"
     lastpathnc="0"
     lastpath="0"
     node="0"
     layer="0" />
</svg>
