<?xml version="1.0" encoding="UTF-8" standalone="no"?>
<!-- Created with Inkscape (http://www.inkscape.org/) -->

<svg
   xmlns:dc="http://purl.org/dc/elements/1.1/"
   xmlns:cc="http://creativecommons.org/ns#"
   xmlns:rdf="http://www.w3.org/1999/02/22-rdf-syntax-ns#"
   xmlns:svg="http://www.w3.org/2000/svg"
   xmlns="http://www.w3.org/2000/svg"
   xmlns:sodipodi="http://sodipodi.sourceforge.net/DTD/sodipodi-0.dtd"
   xmlns:inkscape="http://www.inkscape.org/namespaces/inkscape"
   width="100mm"
   height="100mm"
   viewBox="0 0 100 100"
   version="1.1"
   id="svg19124"
   inkscape:version="0.92.3 (2405546, 2018-03-11)"
   sodipodi:docname="inkscape_template_TMP.svg"
   shape-rendering="crispEdges">
  <sodipodi:namedview
     pagecolor="#ffffff"
     bordercolor="#666666"
     borderopacity="1"
     objecttolerance="10"
     gridtolerance="10"
     guidetolerance="10"
     inkscape:pageopacity="0"
     inkscape:pageshadow="2"
     inkscape:window-width="1568"
     inkscape:window-height="1550"
     id="namedview24021"
     showgrid="false"
     inkscape:zoom="0.62441667"
     inkscape:cx="712.66515"
     inkscape:cy="409.98265"
     inkscape:window-x="0"
     inkscape:window-y="0"
     inkscape:window-maximized="0"
     inkscape:current-layer="layer1" />
  <defs
     id="defs19118" />
  <metadata
     id="metadata19121">
    <rdf:RDF>
      <cc:Work
         rdf:about="">
        <dc:format>image/svg+xml</dc:format>
        <dc:type
           rdf:resource="http://purl.org/dc/dcmitype/StillImage" />
        <dc:title />
      </cc:Work>
    </rdf:RDF>
  </metadata>
  <g
     transform="translate(0,-197)"
     id="layer1"
     inkscape:groupmode="layer"
     inkscape:label="Layer 1">
    <g
       id="g24447"
       transform="matrix(0.26458333,0,0,0.26458333,0.10666333,197.9735)">

<polyline fill="none" points="192.1004,47.7394 189.7225,51.1455 187.3447,54.5516 184.9669,57.9577 184.9669,54.5516 184.9669,51.1455 184.9669,47.7394 184.9669,45.7676 186.5623,44.1729 188.5334,44.1729 190.5231,44.1729 192.1004,45.7676 192.1004,47.7394 192.1004,51.1455 192.1004,54.5516 192.1004,57.9577 192.1004,59.9295 190.5231,61.5235 188.5509,61.5235 186.5623,61.5235 184.9669,59.9295 184.9669,57.9577" stroke="black" stroke-width="1" /><polyline fill="none" points="197.8298,61.5877 200.7471,57.7851 198.696,53.7706 202.935,62.0679 200.7471,57.7851 203.4811,54.2207" stroke="black" stroke-width="1" /><polyline fill="none" points="210.2846,55.059 210.6554,53.1049 212.5428,51.893 214.413,52.2479 216.2826,52.6028 217.5785,54.4188 217.2077,56.3729 216.9264,57.8551 216.6451,59.3373 216.3638,60.8194 215.993,62.7732 214.1216,63.9889 212.2521,63.634 210.3818,63.2791 209.0863,61.4624 209.4572,59.5086 209.4517,59.5076 209.4462,59.5065 209.4407,59.5055 210.2974,54.9914 211.1541,50.4773 212.0108,45.9632" stroke="black" stroke-width="1" /><polyline fill="none" points="222.6844,57.6853 223.2367,55.7745 225.2292,54.7446 227.058,55.2732 228.8861,55.8015 230.0063,57.7309 229.4541,59.6417 229.0352,61.091 228.6164,62.5403 228.1975,63.9897 227.6454,65.9001 225.6685,66.9352 223.8403,66.4069 222.0115,65.8783 220.8919,63.9483 221.444,62.0379 221.4386,62.0363 221.4333,62.0348 221.4279,62.0332 222.7036,57.6192 223.9792,53.2051 225.2549,48.7911" stroke="black" stroke-width="1" /><polyline fill="none" points="234.7839,61.4612 235.5127,59.6105 237.5929,58.7718 239.3641,59.4692 241.1347,60.1664 242.0693,62.1923 241.3406,64.0429 240.7879,65.4467 240.2352,66.8504 239.6824,68.2541 238.9538,70.1045 236.8886,70.9499 235.118,70.2527 233.3468,69.5552 232.4128,67.5289 233.1414,65.6785 233.1362,65.6765 233.131,65.6744 233.1257,65.6723 234.8091,61.3971 236.4925,57.1219 238.1759,52.8468" stroke="black" stroke-width="1" /><polyline fill="none" points="245.6964,67.7171 246.5875,65.9581 248.7309,65.2558 250.4893,66.1466 252.2642,67.0457 252.9504,69.1813 252.0593,70.9404 251.5997,71.8477 251.1401,72.755 250.6805,73.6622 249.7894,75.4213 247.662,76.1308 245.887,75.2316 244.1286,74.3409 243.4265,72.198 244.3176,70.4389 245.8568,67.4005 247.396,64.362 248.9352,61.3236 249.8261,59.5649 251.9693,58.8629 253.7277,59.7537 255.2427,60.5212 255.9696,62.1962 255.5937,63.7738" stroke="black" stroke-width="1" /><polyline fill="none" points="260.8449,67.4668 261.7962,65.9584 263.8993,65.4197 265.5384,66.4535 267.1767,67.4867 267.6574,69.5545 266.5783,71.2655 266.4077,71.5361 266.237,71.8067 266.0664,72.0772 264.42,74.6876 261.869,73.6864 261.5784,73.5031 261.2982,73.3263 261.0179,73.1496 260.7377,72.9729 261.0179,73.1496 261.2982,73.3263 261.5784,73.5031 262.4345,74.043 263.6215,76.2109 262.3414,78.2406 261.9663,78.8353 261.5912,79.4301 261.2162,80.0248 260.1555,81.7065 257.9503,82.1809 256.2679,81.1198 254.5711,80.0497 254.0641,77.8648 255.1248,76.183" stroke="black" stroke-width="1" /><polyline fill="none" points="268.2354,79.3059 269.4492,77.7303 271.6805,77.5021 273.1885,78.6639 274.696,79.8253 275.0314,82.031 273.8174,83.6066 272.8967,84.8017 271.976,85.9968 271.0553,87.1918 269.8416,88.7672 267.6229,89.006 266.1154,87.8446 264.6075,86.6828 264.2728,84.4767 265.4865,82.9014 265.482,82.898 265.4776,82.8946 265.4731,82.8912 268.2773,79.2514 271.0815,75.6117 273.8857,71.972" stroke="black" stroke-width="1" /><polyline fill="none" points="281.9104,83.1419 283.2549,81.6994 285.5085,81.6204 286.9509,82.9648 288.4062,84.3212 288.4872,86.623 287.1428,88.0654 286.616,88.6306 286.1535,88.9011 285.7326,89.0258 281.4747,90.291 277.2169,91.5563 272.9591,92.8215 272.8618,92.9258 272.7646,93.0302 272.6673,93.1345 274.3983,94.7478 276.1293,96.3612 277.8604,97.9745" stroke="black" stroke-width="1" /><polyline fill="none" points="297.5006,94.1298 296.8404,93.3873 295.8447,93.171 294.8967,94.0139 293.9785,94.8303 293.0604,95.6467 292.1422,96.4631 292.5446,96.9156 292.947,97.3682 293.3494,97.8208 292.5747,96.9495 291.8,96.0783 291.0254,95.207 291.3976,95.6257 291.7699,96.0444 292.1422,96.4631 289.3193,98.973 286.4964,101.483 283.6735,103.993" stroke="black" stroke-width="1" /><polyline fill="none" points="298.352,107.9243 299.2283,109.2901 301.4779,109.8222 303.0608,108.6608 303.4292,108.3905 303.7976,108.1202 304.166,107.8499 305.6593,106.7542 305.9823,104.6442 304.8765,103.137 303.781,101.644 301.6438,101.34 300.1784,102.4153 299.81,102.6856 299.4416,102.9558 299.0732,103.2262 297.5796,104.3221 297.2564,106.4312 298.352,107.9243 299.559,109.5694 299.1625,111.84 297.5733,113.0061 297.0295,113.4051 296.4857,113.804 295.942,114.203 294.3525,115.3693 292.0946,115.0463 290.8875,113.4012 289.6906,111.7699 290.0607,109.52 291.6502,108.3537 292.203,107.9481 292.7558,107.5425 293.3085,107.1369 294.6711,106.1372 296.9651,106.2056" stroke="black" stroke-width="1" /><polyline fill="none" points="302.3777,124.3919 300.6712,125.413 298.5193,124.8223 297.542,123.1891 296.5648,121.5559 297.0528,119.3659 298.7592,118.3448 300.0538,117.5701 301.3484,116.7955 302.6429,116.0209 304.3497,114.9996 306.5096,115.605 307.4869,117.2383 308.4642,118.8715 307.9681,121.0467 306.2614,122.068" stroke="black" stroke-width="1" /><polyline fill="none" points="314.0163,124.6917 315.7957,123.8421 317.9215,124.5942 318.7712,126.3736 319.6283,128.1689 318.8603,130.3403 317.0809,131.1899 316.3837,131.5227 315.8543,131.6049 315.4169,131.5668 310.9916,131.1841 306.5663,130.8013 302.1409,130.4186 302.0122,130.48 301.8835,130.5415 301.7548,130.603 302.7744,132.7383 303.7939,134.8737 304.8134,137.009" stroke="black" stroke-width="1" /><polyline fill="none" points="308.7793,147.1879 312.8193,145.7055 310.7164,139.9743 324.7204,140.864" stroke="black" stroke-width="1" /><polyline fill="none" points="329.0002,154.9091 324.5575,156.0809 320.1148,157.2528 315.6721,158.4246 313.7488,158.9319 311.8417,157.751 311.3562,155.9103 310.8751,154.0865 311.9516,152.1182 313.8748,151.611 315.3336,151.2262 316.7923,150.8414 318.251,150.4567 320.1743,149.9494 322.0808,151.1308 322.5619,152.9546 323.0474,154.7953 321.9715,156.763 320.0482,157.2703" stroke="black" stroke-width="1" /><polyline fill="none" points="324.9649,169.6639 323.0195,169.9861 321.1891,168.6898 320.867,166.7444 320.5421,164.7821 321.8542,162.9491 323.7996,162.627 324.8032,162.4608 325.8068,162.2946 326.8104,162.1284 328.7558,161.8062 330.5895,163.1182 330.9117,165.064 331.2366,167.0259 329.9211,168.8431 327.9758,169.1653 324.6155,169.7218 321.2551,170.2782 317.8948,170.8347 315.9498,171.1568 314.1191,169.8606 313.797,167.9152 313.5197,166.2408 314.4403,164.6627 315.935,164.0325" stroke="black" stroke-width="1" /><polyline fill="none" points="317.3481,182.9067 316.3996,182.372 315.4387,181.6663 315.2892,179.5451 315.1555,177.6461 316.5801,175.9131 318.6158,175.7697 320.1035,175.6649 321.5912,175.5601 323.0789,175.4553 325.0629,175.3155 326.7158,176.8317 326.8495,178.7306 326.9857,180.6638 325.5642,182.4306 323.5801,182.5704 322.8392,182.6226 322.0983,182.6748 321.3573,182.727 321.1906,180.361 321.024,177.995 320.8573,175.629" stroke="black" stroke-width="1" /><polyline fill="none" points="329.3041,188.2994 331.2754,188.3456 332.8319,189.9773 332.7857,191.9486 332.7391,193.9374 331.0727,195.5274 329.1014,195.4812 328.3291,195.4631 327.8196,195.2971 327.4467,195.0655 323.672,192.7242 319.8972,190.383 316.1225,188.0418 315.9799,188.0384 315.8373,188.0351 315.6947,188.0317 315.6393,190.3974 315.5838,192.763 315.5283,195.1286" stroke="black" stroke-width="1" /><polyline fill="none" points="331.452,207.2514 331.5682,206.2646 331.0682,205.3768 329.8083,205.2284 328.5881,205.0847 327.3679,204.941 326.1477,204.7973 326.0769,205.3988 326.0061,206.0002 325.9352,206.6017 326.0716,205.4438 326.2079,204.2859 326.3443,203.1281 326.2788,203.6845 326.2133,204.2409 326.1477,204.7973 322.3963,204.3555 318.6448,203.9137 314.8933,203.472" stroke="black" stroke-width="1" /><polyline fill="none" points="327.0463,214.7253 328.79,215.0988 330.0202,216.8876 329.6143,218.7826 329.2086,220.6765 327.433,221.8401 325.455,221.4164 325.1422,221.3494 324.8293,221.2824 324.5165,221.2154 321.4988,220.569 321.5601,217.8292 321.632,217.4933 321.7014,217.1693 321.7708,216.8453 321.8402,216.5213 321.7708,216.8453 321.7014,217.1693 321.632,217.4933 321.42,218.483 319.7938,220.3441 317.4473,219.8415 316.7598,219.6942 316.0722,219.547 315.3847,219.3997 313.4405,218.9833 312.2356,217.0764 312.6522,215.1315 313.0723,213.1699 314.9488,211.9413 316.893,212.3578" stroke="black" stroke-width="1" /><polyline fill="none" points="310.438,230.503 309.7513,229.6579 309.1157,228.6493 309.7539,226.6208 310.3251,224.8049 312.2856,223.7143 314.2324,224.3267 315.655,224.7742 317.0776,225.2218 318.5003,225.6693 320.3976,226.2662 321.38,228.2825 320.8087,230.0984 320.2272,231.9471 318.2572,233.0702 316.3598,232.4733 315.6513,232.2505 314.9428,232.0276 314.2343,231.8047 314.946,229.5421 315.6578,227.2796 316.3695,225.017" stroke="black" stroke-width="1" /><polyline fill="none" points="319.5868,239.9012 321.4041,240.6665 322.2546,242.7549 321.4894,244.5722 320.7173,246.4057 318.5843,247.2746 316.767,246.5093 316.055,246.2095 315.6417,245.8684 315.3796,245.5163 312.7252,241.9548 310.0706,238.3934 307.4162,234.832 307.2847,234.7766 307.1533,234.7213 307.0219,234.6659 306.1035,236.8467 305.1852,239.0275 304.2668,241.2083" stroke="black" stroke-width="1" /><polyline fill="none" points="308.0982,256.8646 306.3606,255.9326 305.7018,253.7886 306.6339,252.0509 307.574,250.2982 309.7321,249.647 311.4698,250.5791 312.3663,251.0599 313.2628,251.5408 314.1592,252.0216 315.8969,252.9537 316.5487,255.1122 315.6165,256.8502 314.6765,258.6026 312.5253,259.2393 310.7877,258.3072 307.7861,256.6972 304.7846,255.0872 301.7831,253.4772 300.0457,252.5453 299.3866,250.4012 300.3187,248.6635 301.1209,247.1679 302.8134,246.4797 304.382,246.8927" stroke="black" stroke-width="1" /><polyline fill="none" points="307.804,263.6624 309.2897,264.6487 309.7789,266.7639 308.707,268.3784 307.6357,269.9919 305.5572,270.4241 303.8719,269.3051 303.6054,269.1282 303.3389,268.9512 303.0724,268.7743 300.5013,267.0672 301.5621,264.5404 301.7522,264.2542 301.9354,263.9781 302.1187,263.7021 302.3019,263.4261 302.1187,263.7021 301.9354,263.9781 301.7522,264.2542 301.1923,265.0974 298.9973,266.2332 296.998,264.9059 296.4123,264.517 295.8265,264.1281 295.2408,263.7391 293.5843,262.6393 293.1618,260.4236 294.262,258.7666 295.3717,257.0953 297.5678,256.6396 299.2242,257.7394" stroke="black" stroke-width="1" /><polyline fill="none" points="299.4105,280.6181 300.0351,279.8455 300.0858,278.8278 299.0993,278.0302 298.1439,277.2578 297.1885,276.4853 296.2331,275.7129 295.8523,276.1838 295.4716,276.6548 295.0908,277.1257 295.8238,276.2191 296.5568,275.3125 297.2898,274.4059 296.9376,274.8415 296.5853,275.2772 296.2331,275.7129 293.2956,273.338 290.3582,270.9631 287.4207,268.5882" stroke="black" stroke-width="1" /><polyline fill="none" points="289.4678,291.8159 286.181,288.6053 282.8942,285.3947 279.6074,282.1841 278.1846,280.7942 278.2187,278.5513 279.5489,277.1895 280.8668,275.8403 283.1086,275.7534 284.5314,277.1432 285.6106,278.1974 286.6898,279.2516 287.769,280.3058 289.1918,281.6956 289.157,283.9383 287.839,285.2875 286.5088,286.6493 284.2678,286.7365 282.845,285.3466" stroke="black" stroke-width="1" /><polyline fill="none" points="282.2455,293.8309 283.3989,295.191 283.2817,297.3588 281.8037,298.6122 280.3265,299.8649 278.2097,299.703 276.9013,298.1602 276.6945,297.9162 276.4875,297.6722 276.2807,297.4282 274.2846,295.0744 276.0052,292.9414 276.2673,292.7192 276.52,292.5049 276.7727,292.2906 277.0254,292.0764 276.7727,292.2906 276.52,292.5049 276.2673,292.7192 275.4953,293.3738 273.0712,293.8556 271.5192,292.0254 271.0644,291.4891 270.6096,290.9529 270.1549,290.4166 268.8689,288.9002 269.0782,286.6543 270.5952,285.3679 272.1252,284.0703 274.3615,284.2423 275.6475,285.7588" stroke="black" stroke-width="1" /><polyline fill="none" points="271.9703,302.1466 272.9912,303.6087 272.6715,305.756 271.0826,306.8655 269.4946,307.9744 267.4023,307.6149 266.2442,305.9563 266.061,305.6941 265.8779,305.4318 265.6948,305.1695 263.9279,302.6392 265.8407,300.6766 266.1224,300.4799 266.3941,300.2903 266.6657,300.1006 266.9374,299.9109 266.6657,300.1006 266.3941,300.2903 266.1224,300.4799 265.2925,301.0594 262.834,301.3121 261.4601,299.3445 261.0576,298.7681 260.655,298.1916 260.2525,297.6151 259.1141,295.9849 259.5328,293.7685 261.1636,292.6297 262.8084,291.4812 265.0188,291.8619 266.1571,293.4921" stroke="black" stroke-width="1" /><polyline fill="none" points="260.9714,309.2217 261.944,310.9371 261.3431,313.1105 259.6277,314.0831 257.8972,315.0643 255.6772,314.4508 254.7046,312.7354 254.3236,312.0634 254.2044,311.541 254.2117,311.1021 254.2825,306.6608 254.3533,302.2195 254.4241,297.7782 254.3537,297.6541 254.2834,297.5301 254.213,297.406 252.1546,298.5731 250.0962,299.7402 248.0377,300.9073" stroke="black" stroke-width="1" /><polyline fill="none" points="244.5941,321.6245 242.7122,317.4329 240.8303,313.2413 238.9483,309.0497 238.1336,307.2352 238.9871,305.1607 240.7237,304.381 242.4444,303.6085 244.5621,304.3489 245.3768,306.1635 245.9947,307.5397 246.6126,308.916 247.2305,310.2923 248.0452,312.1068 247.1911,314.1808 245.4705,314.9533 243.7338,315.733 241.6167,314.993 240.8021,313.1785" stroke="black" stroke-width="1" /><polyline fill="none" points="232.3973,317.4687 230.8315,317.8948 229.6488,319.881 230.2817,321.7395 230.429,322.172 230.5763,322.6046 230.7236,323.037 231.3207,324.7904 233.2364,325.7317 235.006,325.1291 236.759,324.5321 237.6902,322.5847 237.1043,320.8641 236.957,320.4316 236.8097,319.9991 236.6624,319.5666 236.0652,317.8129 234.1503,316.8717 232.3973,317.4687 230.4658,318.1264 228.4188,317.0668 227.7834,315.2009 227.5659,314.5625 227.3485,313.9241 227.1311,313.2856 226.4956,311.4194 227.4813,309.3625 229.4128,308.7047 231.328,308.0525 233.3632,309.0807 233.9987,310.9469 234.2198,311.5959 234.4408,312.245 234.6618,312.894 235.2066,314.4938 234.453,316.6615" stroke="black" stroke-width="1" /><polyline fill="none" points="216.8944,321.2826 216.8957,321.2879 216.8969,321.2932 216.8982,321.2986 216.3566,319.0308 215.815,316.7631 215.2733,314.4954 215.023,313.4473 214.1915,313.2207 213.6427,313.3518 214.3433,313.1844 215.0698,313.6432 215.2415,314.3623 215.2521,314.4067 215.2627,314.451 215.2733,314.4954 216.1142,313.2899 217.2221,312.3203 218.6725,311.9738 219.8734,311.687 221.9681,311.8216 222.5535,314.2728 222.8603,315.557 222.3387,316.5449 221.4079,317.2247 220.9599,317.5613 219.4501,318.2571 218.4351,318.7286 217.4069,319.2206 216.5876,319.9983 216.8944,321.2826 217.205,322.5832 218.8968,323.8352 220.8978,323.3573 222.7827,322.9071 223.4308,321.7833 223.7783,320.8014" stroke="black" stroke-width="1" /><polyline fill="none" points="210.472,327.709 208.3132,331.4263 205.9096,314.4519" stroke="black" stroke-width="1" /><polyline fill="none" points="191.9195,332.9195 191.7041,328.3298 191.4888,323.7402 191.2734,319.1506 191.1802,317.1638 192.7344,315.5462 194.6359,315.457 196.52,315.3686 198.2191,316.8335 198.3123,318.8203 198.3831,320.3272 198.4538,321.8342 198.5245,323.3412 198.6177,325.328 197.0632,326.9448 195.1791,327.0332 193.2776,327.1225 191.5788,325.6583 191.4856,323.6715" stroke="black" stroke-width="1" /><polyline fill="none" points="178.3808,332.6051 178.5962,328.0155 178.8116,323.4258 179.0269,318.8362 179.1202,316.8494 180.819,315.3845 182.7205,315.4737 184.6046,315.5621 186.1591,317.1797 186.0659,319.1665 185.9951,320.6735 185.9244,322.1804 185.8537,323.6874 185.7605,325.6742 184.0614,327.1384 182.1773,327.05 180.2758,326.9608 178.7216,325.3439 178.8148,323.3571" stroke="black" stroke-width="1" /><polyline fill="none" points="165.1999,327.3654 168.0318,324.3264 170.8637,321.2873 173.6956,318.2483 173.218,321.6207 172.7405,324.9932 172.2629,328.3656 171.9865,330.3179 170.1832,331.6732 168.2315,331.3969 166.2615,331.1179 164.9234,329.3178 165.1999,327.3654 165.6775,323.993 166.155,320.6205 166.6326,317.2481 166.909,315.2958 168.6941,313.9387 170.6469,314.2151 172.6158,314.494 173.972,316.2959 173.6956,318.2483" stroke="black" stroke-width="1" /><polyline fill="none" points="153.8252,319.7826 153.8239,319.7879 153.8227,319.7932 153.8214,319.7986 154.363,317.5309 154.9046,315.2631 155.4463,312.9954 155.6966,311.9473 155.0573,311.3694 154.5084,311.2383 155.2091,311.4057 155.6498,312.1432 155.4781,312.8623 155.4675,312.9067 155.4569,312.951 155.4463,312.9954 156.7411,312.3 158.1677,311.9357 159.618,312.2821 160.8189,312.5689 162.6267,313.6356 162.0413,316.0867 161.7346,317.371 160.8229,318.0165 159.6853,318.2024 159.1336,318.3001 157.4724,318.2386 156.3538,318.2006 155.2143,318.1748 154.132,318.4983 153.8252,319.7826 153.5146,321.0832 154.458,322.9646 156.459,323.4425 158.3439,323.8927 159.4299,323.183 160.1836,322.4641" stroke="black" stroke-width="1" /><polyline fill="none" points="138.7693,324.1301 140.2505,319.7808 141.7316,315.4313 143.2128,311.0819 143.854,309.1991 145.8927,308.2635 147.6947,308.8771 149.4802,309.4852 150.5245,311.4707 149.8833,313.3535 149.397,314.7816 148.9106,316.2097 148.4243,317.6378 147.7831,319.5206 145.7443,320.4555 143.9588,319.8474 142.1568,319.2338 141.1126,317.249 141.7538,315.3662" stroke="black" stroke-width="1" /><polyline fill="none" points="126.2872,318.8773 128.1692,314.6857 130.0511,310.4941 131.933,306.3026 132.7477,304.488 134.8651,303.7474 136.6017,304.5271 138.3224,305.2997 139.1762,307.3743 138.3615,309.1888 137.7436,310.5651 137.1257,311.9413 136.5078,313.3176 135.6931,315.1321 133.5757,315.8719 131.855,315.0994 130.1184,314.3197 129.2646,312.2458 130.0793,310.4314" stroke="black" stroke-width="1" /><polyline fill="none" points="117.3505,306.4627 118.323,304.7474 120.4818,304.139 122.1972,305.1116 123.9274,306.0926 124.5278,308.2654 123.5553,309.9807 123.0535,310.8657 122.5518,311.7506 122.05,312.6356 121.0775,314.3509 118.9043,314.952 117.1887,313.9792 115.4588,312.9984 114.8727,310.8329 115.8452,309.1176 117.5251,306.1546 119.2051,303.1917 120.885,300.2287 121.8574,298.5137 124.0164,297.905 125.7317,298.8775 127.2081,299.7146 127.8565,301.4227 127.4068,302.9813" stroke="black" stroke-width="1" /><polyline fill="none" points="106.6169,299.2818 107.7458,297.6651 109.9521,297.2616 111.5688,298.3905 113.1996,299.5292 113.5939,301.7487 112.465,303.3654 111.8826,304.1995 111.3002,305.0336 110.7178,305.8676 109.5889,307.4844 107.369,307.8793 105.752,306.7502 104.1215,305.6117 103.7407,303.4008 104.8697,301.7841 106.8197,298.9915 108.7697,296.1988 110.7197,293.4062 111.8484,291.7897 114.0549,291.3859 115.6716,292.5148 117.0631,293.4865 117.5487,295.2478 116.9551,296.7574" stroke="black" stroke-width="1" /><polyline fill="none" points="96.6029,291.1274 97.8782,289.6235 100.1126,289.4283 101.6165,290.7037 103.1335,291.9901 103.3183,294.2368 102.0429,295.7407 101.385,296.5165 100.727,297.2924 100.0691,298.0683 98.7937,299.5722 96.5466,299.7575 95.0424,298.4819 93.5257,297.1957 93.3537,294.959 94.629,293.455 96.832,290.8573 99.0349,288.2595 101.2379,285.6617 102.513,284.1581 104.7476,283.9627 106.2515,285.238 107.5459,286.3357 107.8644,288.1348 107.132,289.5821" stroke="black" stroke-width="1" /><polyline fill="none" points="89.2605,288.5671 84.9863,289.0257 97.2501,277.0461" stroke="black" stroke-width="1" /><polyline fill="none" points="81.2405,279.7208 79.7071,280.9606 77.4647,280.7228 76.225,279.1895 74.9742,277.6425 75.2168,275.3521 76.7502,274.1123 77.3509,273.6266 77.8468,273.4236 78.281,273.3591 82.6742,272.7034 87.0674,272.0476 91.4606,271.3918 91.5715,271.3022 91.6824,271.2125 91.7933,271.1229 90.3056,269.2827 88.8179,267.4426 87.3302,265.6025" stroke="black" stroke-width="1" /><polyline fill="none" points="67.3448,266.6557 67.8944,267.4834 68.85,267.8372 69.9069,267.1355 70.9304,266.4559 71.954,265.7763 72.9775,265.0967 72.6425,264.5922 72.3075,264.0876 71.9725,263.5831 72.6174,264.5544 73.2623,265.5257 73.9072,266.4969 73.5973,266.0302 73.2874,265.5635 72.9775,265.0967 76.1244,263.0073 79.2714,260.9179 82.4183,258.8285" stroke="black" stroke-width="1" /><polyline fill="none" points="73.2468,246.3776 74.3311,246.4768 75.4967,246.727 76.5019,248.601 77.4017,250.2785 76.8119,252.443 75.0135,253.4077 73.6993,254.1126 72.3851,254.8176 71.0708,255.5225 69.3181,256.4627 67.1892,255.7565 66.2894,254.0789 65.3733,252.3712 65.9465,250.1771 67.6992,249.2369 68.3538,248.8858 69.0083,248.5347 69.6629,248.1836 70.784,250.2738 71.9052,252.364 73.0264,254.4541" stroke="black" stroke-width="1" /><polyline fill="none" points="59.8919,246.3168 58.2484,247.0089 56.2157,246.2466 55.4635,244.4605 54.7119,242.6755 55.5015,240.7049 57.3659,239.9198 57.6607,239.7957 57.9556,239.6715 58.2504,239.5474 61.0947,238.3496 62.613,240.6311 62.7464,240.9477 62.8749,241.2531 63.0035,241.5584 63.1321,241.8638 63.0035,241.5584 62.8749,241.2531 62.7464,240.9477 62.3535,240.0149 62.6214,237.5579 64.833,236.6266 65.481,236.3537 66.1291,236.0809 66.7771,235.808 68.6095,235.0363 70.6891,235.9099 71.461,237.743 72.2396,239.5919 71.4044,241.6736 69.572,242.4452" stroke="black" stroke-width="1" /><polyline fill="none" points="49.9829,229.0197 50.5987,230.9772 51.2145,232.9347 51.8303,234.8922 54.4091,234.081 56.9878,233.2698 59.5665,232.4586 58.2099,232.2024 57.2556,231.5134 56.808,230.0907 56.1906,228.1279 57.3315,226.0976 59.1463,225.5267 60.4438,225.1185 61.7413,224.7104 63.0388,224.3022 64.9358,223.7055 66.8046,224.7889 67.3655,226.5721 67.9212,228.3383 67.0041,230.2802 65.1071,230.877" stroke="black" stroke-width="1" /><polyline fill="none" points="57.0636,220.2102 55.1187,220.6268 53.2694,219.3577 52.8707,217.4963 52.4721,215.6356 53.6429,213.7364 55.5878,213.3199 57.0629,213.0039 58.5381,212.6879 60.0132,212.3719 61.9578,211.9554 63.8044,213.2083 64.2029,215.069 64.6016,216.9305 63.4301,218.8294 61.4856,219.2459 61.4868,219.2514 61.4879,219.2569 61.4891,219.2623 56.9963,220.2247 52.5035,221.187 48.0108,222.1493" stroke="black" stroke-width="1" /><polyline fill="none" points="48.8958,208.3371 47.1248,208.5456 45.3836,207.2489 45.157,205.3243 44.9304,203.4007 46.2362,201.7268 48.2452,201.4902 48.5629,201.4528 48.8806,201.4154 49.1983,201.378 52.2633,201.017 53.0886,203.6303 53.1288,203.9716 53.1675,204.3006 53.2063,204.6297 53.245,204.9587 53.2063,204.6297 53.1675,204.3006 53.1288,203.9716 53.0104,202.9663 53.9499,200.6803 56.3331,200.3997 57.0314,200.3174 57.7297,200.2352 58.428,200.153 60.4026,199.9204 62.1579,201.3371 62.3905,203.3124 62.6252,205.3048 61.2449,207.0727 59.2703,207.3052" stroke="black" stroke-width="1" /><polyline fill="none" points="44.0401,188.533 48.6335,188.4253 53.2269,188.3176 57.8203,188.2099 59.8088,188.1632 61.3894,189.7549 61.4341,191.658 61.4783,193.5436 59.974,195.208 57.9855,195.2546 56.4773,195.29 54.9691,195.3253 53.4609,195.3607 51.4724,195.4073 49.8925,193.8153 49.8483,191.9297 49.8036,190.0266 51.3073,188.3626 53.2957,188.316" stroke="black" stroke-width="1" /><polyline fill="none" points="54.9865,182.6615 53.0195,182.5229 51.5405,180.8201 51.679,178.8538 51.8188,176.869 53.5208,175.4078 55.4877,175.5464 56.5023,175.6179 57.5168,175.6893 58.5314,175.7608 60.4984,175.8994 61.9779,177.5847 61.8381,179.5695 61.6996,181.5358 59.9971,183.0145 58.0301,182.8759 54.6325,182.6366 51.2348,182.3972 47.8372,182.1578 45.8705,182.0193 44.3919,180.3165 44.5304,178.3502 44.6497,176.6561 45.9114,175.3361 47.5112,175.0704" stroke="black" stroke-width="1" /><polyline fill="none" points="60.184,163.7416 62.1459,164.0665 63.4051,165.9088 63.0941,167.7866 62.7832,169.6643 60.9946,171.0189 59.0327,170.694 57.5443,170.4475 56.0559,170.201 54.5676,169.9546 52.6053,169.6296 51.3496,167.7708 51.6605,165.8931 51.9715,164.0154 53.7566,162.6772 55.7189,163.0022" stroke="black" stroke-width="1" /><polyline fill="none" points="49.7103,148.4238 54.153,149.5957 58.5958,150.7675 63.0385,151.9393 64.9617,152.4466 66.0384,154.4146 65.5528,156.2552 65.0718,158.079 63.1645,159.2603 61.2413,158.753 59.7826,158.3682 58.3239,157.9835 56.8651,157.5987 54.9419,157.0914 53.8661,155.1233 54.3471,153.2996 54.8326,151.4589 56.7391,150.2778 58.6623,150.785" stroke="black" stroke-width="1" /><polyline fill="none" points="57.5944,136.6327 59.9729,140.0382 62.3515,143.4438 64.73,146.8494 61.5324,145.6761 58.3348,144.5028 55.1371,143.3295 53.286,142.6503 52.3384,140.6032 53.0174,138.7527 53.7028,136.8848 55.7432,135.9534 57.5944,136.6327 60.792,137.8059 63.9896,138.9792 67.1872,140.1525 69.0384,140.8317 69.9916,142.8615 69.3122,144.713 68.6272,146.5799 66.5812,147.5286 64.73,146.8494" stroke="black" stroke-width="1" /><polyline fill="none" points="65.8288,125.8163 67.6083,126.6659 68.3668,128.7766 67.5172,130.5561 66.6603,132.351 64.535,133.1026 62.7556,132.253 61.8376,131.8147 60.9195,131.3764 60.0015,130.9381 58.2221,130.0885 57.4698,127.9629 58.3195,126.1832 59.1764,124.3886 61.2953,123.6518 63.0748,124.5014 66.1484,125.9689 69.2221,127.4365 72.2958,128.904 74.075,129.7535 74.8338,131.8643 73.9843,133.6438 73.253,135.1754 71.5947,135.9422 70.0084,135.6031" stroke="black" stroke-width="1" /><polyline fill="none" points="79.6554,119.3193 80.127,120.3007 80.5108,121.4294 79.4189,123.2542 78.4415,124.8877 76.2812,125.493 74.53,124.4451 73.2503,123.6793 71.9705,122.9136 70.6908,122.1478 68.984,121.1265 68.4969,118.9371 69.4744,117.3036 70.4695,115.6406 72.6465,115.0058 74.3533,116.0271 74.9906,116.4085 75.628,116.7899 76.2654,117.1713 75.0475,119.2066 73.8296,121.2419 72.6117,123.2772" stroke="black" stroke-width="1" /><polyline fill="none" points="71.8979,107.5029 69.9901,106.1031 74.2002,100.3653 85.0704,114.5304" stroke="black" stroke-width="1" /><polyline fill="none" points="86.704,97.9602 87.8559,96.8173 87.9051,94.5061 86.4379,93.2015 86.0964,92.8979 85.755,92.5943 85.4135,92.2907 84.0293,91.06 81.8985,91.186 80.6564,92.583 79.4259,93.9669 79.5763,96.1203 80.9346,97.328 81.276,97.6316 81.6175,97.9353 81.959,98.2389 83.3434,99.4698 85.4735,99.3441 86.704,97.9602 88.0598,96.4353 90.3631,96.3475 91.8361,97.6573 92.3401,98.1054 92.8441,98.5535 93.3482,99.0017 94.8215,100.3117 94.9785,102.5871 93.6227,104.112 92.2783,105.624 90.0008,105.7334 88.5275,104.4234 88.0151,103.9678 87.5027,103.5122 86.9904,103.0566 85.7274,101.9336 85.3138,99.6763" stroke="black" stroke-width="1" /><polyline fill="none" points="97.3248,85.2308 98.6692,86.6732 98.6017,88.9151 97.1592,90.2595 95.7042,91.6157 93.4514,91.5364 92.1069,90.0939 91.4133,89.3497 90.7197,88.6056 90.0261,87.8614 88.6817,86.4189 88.7605,84.1655 90.2032,82.8209 91.658,81.465 93.8995,81.5557 95.244,82.9982 97.5662,85.4899 99.8885,87.9815 102.2108,90.4731 103.555,91.9154 103.4877,94.1575 102.0453,95.5019 100.8037,96.6591 98.9798,96.765 97.628,95.8684" stroke="black" stroke-width="1" /><polyline fill="none" points="112.5703,84.2512 112.6496,85.3372 112.5932,86.5281 110.9086,87.8259 109.4007,88.9877 107.1689,88.7594 105.9233,87.1428 105.0132,85.9614 104.103,84.78 103.1928,83.5986 101.9789,82.023 102.3278,79.8073 103.8358,78.6455 105.3709,77.4628 107.6292,77.6698 108.8431,79.2454 109.2964,79.8338 109.7497,80.4222 110.203,81.0106 108.3241,82.4581 106.4452,83.9057 104.5663,85.3533" stroke="black" stroke-width="1" /><polyline fill="none" points="113.455,76.0309 112.3939,74.3485 112.9483,72.1751 114.5585,71.1597 116.168,70.1445 118.3542,70.5895 119.4153,72.2718 120.22,73.5479 121.0248,74.8239 121.8296,76.0999 122.8904,77.782 122.3503,79.9472 120.7408,80.9623 119.1306,81.9778 116.9443,81.5321 115.8835,79.85 115.8787,79.853 115.874,79.856 115.8693,79.859 113.4183,75.9727 110.9672,72.0863 108.5162,68.2" stroke="black" stroke-width="1" /><polyline fill="none" points="133.3402,71.9216 133.2155,73.0033 132.9381,74.1628 131.0411,75.1238 129.3429,75.984 127.1928,75.3436 126.2706,73.5231 125.5966,72.1927 124.9227,70.8623 124.2488,69.5319 123.3499,67.7576 124.1059,65.6458 125.804,64.7856 127.5328,63.9098 129.7128,64.5343 130.6117,66.3086 130.9473,66.9712 131.283,67.6338 131.6186,68.2964 129.5028,69.3682 127.3869,70.4401 125.271,71.5119" stroke="black" stroke-width="1" /><polyline fill="none" points="143.8583,65.6786 144.5869,67.5289 143.6525,69.5554 141.8816,70.2528 140.1107,70.9501 138.0299,70.1108 137.3013,68.2605 136.7485,66.8567 136.1958,65.453 135.6431,64.0493 134.9144,62.1986 135.8646,60.1666 137.6355,59.4693 139.4064,58.772 141.4714,59.6167 142.2001,61.4674" stroke="black" stroke-width="1" /><polyline fill="none" points="147.6313,59.6171 147.0791,57.7063 148.2151,55.7723 150.0439,55.2437 151.872,54.7154 153.8487,55.7498 154.4009,57.6606 154.8198,59.1099 155.2386,60.5592 155.6575,62.0086 156.2096,63.919 155.0896,65.8491 153.2615,66.3774 151.4327,66.906 149.4561,65.8708 148.904,63.9603 148.8986,63.9619 148.8932,63.9634 148.8879,63.965 147.6122,59.5509 146.3365,55.1369 145.0609,50.7229" stroke="black" stroke-width="1" /><polyline fill="none" points="159.8797,56.3564 159.5088,54.4022 160.8209,52.5831 162.6912,52.2282 164.5607,51.8734 166.4319,53.0883 166.8028,55.0424 167.0841,56.5246 167.3654,58.0068 167.6467,59.4889 168.0175,61.4427 166.7217,63.2594 164.8521,63.6143 162.9819,63.9692 161.1109,62.7535 160.7401,60.7997 160.7346,60.8008 160.7291,60.8018 160.7236,60.8029 159.8669,56.2887 159.0101,51.7746 158.1534,47.2605" stroke="black" stroke-width="1" /><polyline fill="none" points="149.7139,139.7047 126.744,171.7336 96.1804,188.1635 96.1804,188.1635 268.1431,236.6952 188.8697,188.4998 136.578,231.1149 239.8942,231.6324 239.8942,231.6324 188.8365,96.1804" stroke="black" stroke-width="1" /><polyline fill="none" points="172.3268,102.4036 205.3461,89.9572" stroke="black" stroke-width="1" /><polyline fill="none" points="168.3312,130.1462 168.1864,128.3062 167.7555,126.5115 167.0492,124.8062 166.0848,123.2325 164.8861,121.829 163.4826,120.6303 161.9088,119.6659 160.2036,118.9595 158.4089,118.5287 156.5688,118.3839 154.7288,118.5287 152.9341,118.9595 151.2288,119.6659 149.6551,120.6303 148.2516,121.829 147.0528,123.2325 146.0885,124.8062 145.3821,126.5115 144.9512,128.3062 144.8064,130.1462 144.9512,131.9863 145.3821,133.781 146.0885,135.4863 147.0528,137.06 148.2516,138.4635 149.6551,139.6622 151.2288,140.6266 152.9341,141.3329 154.7288,141.7638 156.5688,141.9086 158.4089,141.7638 160.2036,141.3329 161.9088,140.6266 163.4826,139.6622 164.8861,138.4635 166.0848,137.06 167.0492,135.4863 167.7555,133.781 168.1864,131.9863 168.3312,130.1462" stroke="black" stroke-width="1" /><polyline fill="none" points="188.5,69.0664 199.6839,69.5912 210.7696,71.161 221.6595,73.7619 232.2581,77.3712 242.4721,81.9571 252.2118,87.4792 261.3915,93.8892 269.9308,101.1306 277.7544,109.1398 284.7936,117.8464 290.9866,127.1739 296.2789,137.0404 300.6241,147.3591 303.9839,158.0393 306.3289,168.9873 307.6383,180.1067 307.9008,191.2998 307.114,202.4684 305.2847,213.5142 302.4292,224.3402 298.5725,234.8512 293.7484,244.9549 287.9994,254.5625 281.376,263.5894 273.9365,271.9565 265.7461,279.5902 256.8768,286.4234 247.4067,292.3961 237.4188,297.4556 227.0011,301.5577 216.2451,304.6663 205.2452,306.7539 194.0981,307.8023 182.9019,307.8023 171.7548,306.7539 160.7549,304.6663 149.9989,301.5577 139.5811,297.4556 129.5933,292.3961 120.1232,286.4234 111.2539,279.5902 103.0635,271.9565 95.6239,263.5894 89.0006,254.5625 83.2516,244.9549 78.4275,234.8512 74.5708,224.3402 71.7153,213.5142 69.8861,202.4684 69.0992,191.2998 69.3617,180.1067 70.6712,168.9872 73.0161,158.0393 76.3759,147.3591 80.7211,137.0404 86.0134,127.174 92.2064,117.8464 99.2457,109.1398 107.0692,101.1306 115.6085,93.8892 124.7882,87.4792 134.5279,81.957 144.7419,77.3712 155.3405,73.7619 166.2304,71.161 177.3161,69.5912 188.5,69.0664" stroke="black" stroke-width="1" />

    </g>
  </g>
  <WCB
     pausedposy="0"
     pausedposx="0"
     lastknownposy="0"
     lastknownposx="0"
     lastpathnc="0"
     lastpath="0"
     node="0"
     layer="0" />
</svg>
