<?xml version="1.0" encoding="UTF-8" standalone="no"?>
<!-- Created with Inkscape (http://www.inkscape.org/) -->

<svg
   xmlns:dc="http://purl.org/dc/elements/1.1/"
   xmlns:cc="http://creativecommons.org/ns#"
   xmlns:rdf="http://www.w3.org/1999/02/22-rdf-syntax-ns#"
   xmlns:svg="http://www.w3.org/2000/svg"
   xmlns="http://www.w3.org/2000/svg"
   xmlns:sodipodi="http://sodipodi.sourceforge.net/DTD/sodipodi-0.dtd"
   xmlns:inkscape="http://www.inkscape.org/namespaces/inkscape"
   width="100mm"
   height="100mm"
   viewBox="0 0 100 100"
   version="1.1"
   id="svg19124"
   inkscape:version="0.92.3 (2405546, 2018-03-11)"
   sodipodi:docname="inkscape_template_TMP.svg"
   shape-rendering="crispEdges">
  <sodipodi:namedview
     pagecolor="#ffffff"
     bordercolor="#666666"
     borderopacity="1"
     objecttolerance="10"
     gridtolerance="10"
     guidetolerance="10"
     inkscape:pageopacity="0"
     inkscape:pageshadow="2"
     inkscape:window-width="1568"
     inkscape:window-height="1550"
     id="namedview24021"
     showgrid="false"
     inkscape:zoom="0.62441667"
     inkscape:cx="712.66515"
     inkscape:cy="409.98265"
     inkscape:window-x="0"
     inkscape:window-y="0"
     inkscape:window-maximized="0"
     inkscape:current-layer="layer1" />
  <defs
     id="defs19118" />
  <metadata
     id="metadata19121">
    <rdf:RDF>
      <cc:Work
         rdf:about="">
        <dc:format>image/svg+xml</dc:format>
        <dc:type
           rdf:resource="http://purl.org/dc/dcmitype/StillImage" />
        <dc:title />
      </cc:Work>
    </rdf:RDF>
  </metadata>
  <g
     transform="translate(0,-197)"
     id="layer1"
     inkscape:groupmode="layer"
     inkscape:label="Layer 1">
    <g
       id="g24447"
       transform="matrix(0.26458333,0,0,0.26458333,0.10666333,197.9735)">

<polyline fill="none" points="192.1004,47.7394 189.7225,51.1455 187.3447,54.5516 184.9669,57.9577 184.9669,54.5516 184.9669,51.1455 184.9669,47.7394 184.9669,45.7676 186.5623,44.1729 188.5334,44.1729 190.5231,44.1729 192.1004,45.7676 192.1004,47.7394 192.1004,51.1455 192.1004,54.5516 192.1004,57.9577 192.1004,59.9295 190.5231,61.5235 188.5509,61.5235 186.5623,61.5235 184.9669,59.9295 184.9669,57.9577" stroke="black" stroke-width="1" /><polyline fill="none" points="197.8298,61.5877 200.7471,57.7851 198.696,53.7706 202.935,62.0679 200.7471,57.7851 203.4811,54.2207" stroke="black" stroke-width="1" /><polyline fill="none" points="210.2846,55.059 210.6554,53.1049 212.5428,51.893 214.413,52.2479 216.2826,52.6028 217.5785,54.4188 217.2077,56.3729 216.9264,57.8551 216.6451,59.3373 216.3638,60.8194 215.993,62.7732 214.1216,63.9889 212.2521,63.634 210.3818,63.2791 209.0863,61.4624 209.4572,59.5086 209.4517,59.5076 209.4462,59.5065 209.4407,59.5055 210.2974,54.9914 211.1541,50.4773 212.0108,45.9632" stroke="black" stroke-width="1" /><polyline fill="none" points="230.3545,50.5323 229.4,50.2565 228.4424,50.6047 228.0902,51.8234 227.7491,53.0037 227.408,54.184 227.0669,55.3643 227.6487,55.5325 228.2305,55.7007 228.8123,55.8688 227.6922,55.5451 226.5722,55.2214 225.4522,54.8977 225.9904,55.0533 226.5286,55.2088 227.0669,55.3643 226.0181,58.9932 224.9693,62.6221 223.9206,66.251" stroke="black" stroke-width="1" /><polyline fill="none" points="238.0466,56.5642 241.758,54.3952 235.4769,70.347" stroke="black" stroke-width="1" /><polyline fill="none" points="250.1836,61.7836 254.0818,59.9716 246.3345,75.2651" stroke="black" stroke-width="1" /><polyline fill="none" points="267.938,68.0076 266.2023,66.9129 264.4666,65.8182 262.7308,64.7235 261.2888,67.0101 259.8467,69.2966 258.4046,71.5832 259.6049,70.9011 260.7784,70.8094 262.0399,71.605 263.7803,72.7026 264.2233,74.989 263.2084,76.5982 262.4828,77.7487 261.7572,78.8992 261.0316,80.0496 259.9708,81.7317 257.8447,82.114 256.2635,81.1168 254.6975,80.1292 254.141,78.055 255.2018,76.3729" stroke="black" stroke-width="1" /><polyline fill="none" points="272.7293,75.5074 276.8971,74.4541 266.434,88.0348" stroke="black" stroke-width="1" /><polyline fill="none" points="282.5785,82.1711 284.1917,80.4402 289.3978,85.2924 274.0586,94.4313" stroke="black" stroke-width="1" /><polyline fill="none" points="298.6561,95.0425 295.2224,98.0955 291.7888,101.1486 288.3551,104.2016 286.8687,105.5232 284.6337,105.3316 283.3688,103.909 282.1155,102.4995 282.1864,100.2571 283.6728,98.9355 284.8002,97.9331 285.9276,96.9306 287.055,95.9282 288.5414,94.6066 290.7761,94.7989 292.0294,96.2085 293.2943,97.6311 293.2238,99.8726 291.7373,101.1943" stroke="black" stroke-width="1" /><polyline fill="none" points="300.7892,103.3351 305.0854,103.4803 291.2632,113.6222" stroke="black" stroke-width="1" /><polyline fill="none" points="307.4896,113.2185 309.1817,112.206 311.3687,112.7558 312.3811,114.4478 313.4026,116.1549 312.8413,118.3887 311.1493,119.4012 310.4864,119.7978 309.9669,119.9293 309.5279,119.9323 305.0862,119.9656 300.6445,119.9989 296.2028,120.0323 296.0804,120.1055 295.958,120.1787 295.8356,120.252 297.0506,122.2825 298.2656,124.313 299.4807,126.3435" stroke="black" stroke-width="1" /><polyline fill="none" points="314.0163,124.6917 315.7957,123.8421 317.9215,124.5942 318.7712,126.3736 319.6283,128.1689 318.8603,130.3403 317.0809,131.1899 316.3837,131.5227 315.8543,131.6049 315.4169,131.5668 310.9916,131.1841 306.5663,130.8013 302.1409,130.4186 302.0122,130.48 301.8835,130.5415 301.7548,130.603 302.7744,132.7383 303.7939,134.8737 304.8134,137.009" stroke="black" stroke-width="1" /><polyline fill="none" points="320.0197,137.8593 324.1068,139.1917 308.0122,145.0971" stroke="black" stroke-width="1" /><polyline fill="none" points="312.1193,158.6325 316.2804,157.535 314.7234,151.632 328.5825,153.8291" stroke="black" stroke-width="1" /><polyline fill="none" points="327.9575,169.0549 324.2087,167.2655 320.4599,165.4761 316.7111,163.6867 320.0714,163.1302 323.4317,162.5737 326.792,162.0173 328.7374,161.6951 330.5713,163.0086 330.8934,164.9532 331.2184,166.9162 329.9028,168.7327 327.9575,169.0549 324.5972,169.6114 321.2369,170.1678 317.8766,170.7243 315.9312,171.0465 314.101,169.7509 313.7787,167.8052 313.4538,165.8432 314.7657,164.0089 316.7111,163.6867" stroke="black" stroke-width="1" /><polyline fill="none" points="324.3994,178.9469 324.412,180.5696 326.0309,182.2198 327.9894,182.0818 328.4452,182.0497 328.9009,182.0176 329.3568,181.9855 331.2044,181.8553 332.6031,180.243 332.4718,178.3782 332.3416,176.531 330.6961,175.1338 328.8831,175.2615 328.4272,175.2937 327.9715,175.3258 327.5157,175.3579 325.6677,175.4881 324.2692,177.0997 324.3994,178.9469 324.5427,180.9823 322.9961,182.6914 321.0298,182.8299 320.3571,182.8773 319.6843,182.9247 319.0116,182.9721 317.0449,183.1106 315.3074,181.6329 315.1641,179.5976 315.0219,177.5793 316.5351,175.8737 318.5017,175.7351 319.1856,175.6869 319.8696,175.6387 320.5535,175.5906 322.2394,175.4718 324.1431,176.7534" stroke="black" stroke-width="1" /><polyline fill="none" points="329.1375,195.3991 325.7881,192.9421 322.4387,190.4851 319.0893,188.0281 322.4944,188.1079 325.8996,188.1878 329.3047,188.2676 331.276,188.3139 332.8329,189.9462 332.7867,191.9168 332.74,193.906 331.1088,195.4454 329.1375,195.3991 325.7324,195.3193 322.3272,195.2395 318.9221,195.1596 316.9507,195.1134 315.3942,193.4992 315.4404,191.5276 315.487,189.5395 317.118,187.9819 319.0893,188.0281" stroke="black" stroke-width="1" /><polyline fill="none" points="324.8294,208.2925 322.8711,208.0619 321.4726,206.3084 321.7032,204.3501 321.9359,202.3747 323.7053,200.9781 325.6636,201.2087 326.674,201.3277 327.6843,201.4467 328.6946,201.5657 330.6529,201.7963 332.0502,203.5658 331.8196,205.5245 331.587,207.4995 329.8187,208.8801 327.8604,208.6495 324.4777,208.2511 321.095,207.8528 317.7123,207.4544 315.7543,207.2238 314.3555,205.4703 314.5861,203.5119 314.7846,201.8264 316.1072,200.5659 317.7181,200.3755" stroke="black" stroke-width="1" /><polyline fill="none" points="325.3846,221.5014 322.5521,218.463 319.7196,215.4245 316.8871,212.3861 320.2176,213.0994 323.5482,213.8128 326.8787,214.5262 328.8068,214.9392 330.032,216.8332 329.6191,218.7606 329.2024,220.7062 327.3127,221.9144 325.3846,221.5014 322.0541,220.7881 318.7236,220.0747 315.3931,219.3613 313.4649,218.9483 312.2366,217.0723 312.6497,215.1438 313.0662,213.1993 314.959,211.9731 316.8871,212.3861" stroke="black" stroke-width="1" /><polyline fill="none" points="321.6929,234.1745 319.1573,230.8842 316.6218,227.5938 314.0862,224.3035 317.3353,225.3256 320.5844,226.3477 323.8335,227.3698 325.7145,227.9615 326.7569,229.9619 326.1654,231.8422 325.5684,233.7403 323.5739,234.7662 321.6929,234.1745 318.4438,233.1524 315.1947,232.1303 311.9456,231.1082 310.0646,230.5164 309.0174,228.5336 309.6092,226.6523 310.206,224.7553 312.2052,223.7117 314.0862,224.3035" stroke="black" stroke-width="1" /><polyline fill="none" points="312.3536,244.1575 312.3586,244.1596 312.3636,244.1617 312.3687,244.1638 310.2199,243.259 308.0712,242.3542 305.9224,241.4493 304.9293,241.0311 304.2547,241.5675 304.0357,242.0875 304.3153,241.4236 305.115,241.1093 305.7963,241.3962 305.8383,241.4139 305.8804,241.4316 305.9224,241.4493 305.4479,240.0583 305.3215,238.5913 305.9002,237.2171 306.3794,236.0792 307.7271,234.4699 310.0497,235.448 311.2666,235.9604 311.7545,236.9653 311.752,238.118 311.7582,238.6782 311.4261,240.3071 311.2059,241.4044 310.9943,242.5244 311.1367,243.645 312.3536,244.1575 313.5859,244.6764 315.5962,244.053 316.3946,242.1571 317.1467,240.371 316.624,239.1837 316.0379,238.3226" stroke="black" stroke-width="1" /><polyline fill="none" points="315.3066,252.3489 317.3917,253.4673 314.0278,259.7387 301.2789,247.2376" stroke="black" stroke-width="1" /><polyline fill="none" points="301.9847,263.8732 301.0043,265.1663 301.2797,267.4616 302.9153,268.5475 303.296,268.8003 303.6766,269.053 304.0573,269.3057 305.6003,270.3303 307.6924,269.9067 308.7264,268.3494 309.7508,266.8066 309.2999,264.6956 307.7857,263.6902 307.4051,263.4374 307.0244,263.1847 306.6437,262.932 305.1004,261.9073 303.009,262.3304 301.9847,263.8732 300.856,265.5731 298.5878,265.983 296.9457,264.8927 296.3838,264.5196 295.822,264.1466 295.2601,263.7735 293.6176,262.683 293.1431,260.4521 294.2717,258.7522 295.3909,257.0666 297.6306,256.639 299.273,257.7295 299.8442,258.1088 300.4154,258.488 300.9865,258.8672 302.3945,259.8021 303.1205,261.9792" stroke="black" stroke-width="1" /><polyline fill="none" points="295.7948,270.7732 297.3416,272.0237 297.5174,274.2598 296.3206,275.7401 295.1241,277.2199 292.9112,277.5035 291.3645,276.253 290.1913,275.3045 289.0182,274.356 287.845,273.4075 286.2986,272.1572 286.1118,269.9335 287.3082,268.4537 288.5051,266.9734 290.7184,266.6905 292.2648,267.9408 292.2683,267.9365 292.2718,267.9321 292.2754,267.9278 295.8484,270.8165 299.4214,273.7052 302.9944,276.594" stroke="black" stroke-width="1" /><polyline fill="none" points="285.9404,283.7117 284.7361,284.7994 284.5787,287.1057 285.9831,288.4776 286.31,288.7969 286.6368,289.1161 286.9637,289.4354 288.2886,290.7297 290.423,290.7037 291.7292,289.3664 293.0233,288.0417 292.974,285.8836 291.6738,284.6136 291.3469,284.2943 291.0201,283.975 290.6932,283.6557 289.368,282.3612 287.2344,282.387 285.9404,283.7117 284.5146,285.1713 282.2097,285.1511 280.7997,283.7737 280.3172,283.3025 279.8347,282.8312 279.3523,282.3599 277.942,280.9823 277.8918,278.702 279.3176,277.2424 280.7314,275.795 283.0115,275.7925 284.4218,277.1702 284.9123,277.6492 285.4027,278.1283 285.8932,278.6074 287.1021,279.7884 287.4094,282.0627" stroke="black" stroke-width="1" /><polyline fill="none" points="283.0962,294.3686 284.6266,296.1732 279.1988,300.7761 271.9166,284.4732" stroke="black" stroke-width="1" /><polyline fill="none" points="266.4783,300.2107 265.0924,301.0547 264.5077,303.2913 265.6317,304.9009 265.8933,305.2756 266.1549,305.6502 266.4164,306.0248 267.4769,307.5435 269.5786,307.9159 271.1113,306.8456 272.6297,305.7854 272.9836,303.656 271.9431,302.1658 271.6815,301.7912 271.4199,301.4165 271.1583,301.0419 270.0977,299.523 267.9967,299.1505 266.4783,300.2107 264.8054,301.3788 262.5447,300.9292 261.4162,299.313 261.0301,298.7601 260.644,298.2072 260.2579,297.6542 259.1292,296.0378 259.505,293.7881 261.1779,292.6199 262.8369,291.4615 265.0775,291.8842 266.2061,293.5007 266.5987,294.0628 266.9912,294.625 267.3837,295.1871 268.3513,296.5728 268.2291,298.8645" stroke="black" stroke-width="1" /><polyline fill="none" points="260.9714,309.2217 261.944,310.9371 261.3431,313.1105 259.6277,314.0831 257.8972,315.0643 255.6772,314.4508 254.7046,312.7354 254.3236,312.0634 254.2044,311.541 254.2117,311.1021 254.2825,306.6608 254.3533,302.2195 254.4241,297.7782 254.3537,297.6541 254.2834,297.5301 254.213,297.406 252.1546,298.5731 250.0962,299.7402 248.0377,300.9073" stroke="black" stroke-width="1" /><polyline fill="none" points="249.3484,315.4776 250.156,317.2765 249.3542,319.3841 247.5554,320.1918 245.7406,321.0066 243.5878,320.1879 242.7801,318.389 242.4637,317.6843 242.3939,317.153 242.4423,316.7167 242.9286,312.3016 243.415,307.8864 243.9014,303.4713 243.843,303.3412 243.7846,303.2111 243.7262,303.0809 241.5675,304.0502 239.4088,305.0193 237.2501,305.9886" stroke="black" stroke-width="1" /><polyline fill="none" points="229.2036,318.0403 229.2053,318.0454 229.2071,318.0506 229.2089,318.0558 228.4573,315.8488 227.7057,313.6417 226.9541,311.4347 226.6067,310.4146 225.7577,310.2669 225.2235,310.4488 225.9054,310.2166 226.6716,310.6053 226.91,311.3052 226.9247,311.3483 226.9394,311.3915 226.9541,311.4347 227.6783,310.1557 228.6906,309.0866 230.1022,308.6059 231.2709,308.2079 233.369,308.1458 234.1814,310.5313 234.6071,311.7812 234.1803,312.8136 233.3173,313.5776 232.9027,313.9546 231.4648,314.7887 230.4984,315.3533 229.5208,315.9393 228.7779,316.7903 229.2036,318.0403 229.6346,319.306 231.4362,320.3941 233.3837,319.731 235.2181,319.1063 235.7581,317.9266 236.0122,316.9165" stroke="black" stroke-width="1" /><polyline fill="none" points="216.8944,321.2826 216.8957,321.2879 216.8969,321.2932 216.8982,321.2986 216.3566,319.0308 215.815,316.7631 215.2733,314.4954 215.023,313.4473 214.1915,313.2207 213.6427,313.3518 214.3433,313.1844 215.0698,313.6432 215.2415,314.3623 215.2521,314.4067 215.2627,314.451 215.2733,314.4954 216.1142,313.2899 217.2221,312.3203 218.6725,311.9738 219.8734,311.687 221.9681,311.8216 222.5535,314.2728 222.8603,315.557 222.3387,316.5449 221.4079,317.2247 220.9599,317.5613 219.4501,318.2571 218.4351,318.7286 217.4069,319.2206 216.5876,319.9983 216.8944,321.2826 217.205,322.5832 218.8968,323.8352 220.8978,323.3573 222.7827,322.9071 223.4308,321.7833 223.7783,320.8014" stroke="black" stroke-width="1" /><polyline fill="none" points="203.1345,316.6365 203.6012,315.6527 204.2375,314.6446 206.343,314.3464 208.2279,314.0795 210.0568,315.3788 210.3429,317.3995 210.552,318.8761 210.7611,320.3527 210.9702,321.8293 211.249,323.7987 209.8527,325.554 207.9679,325.8209 206.0491,326.0927 204.1867,324.7988 203.9079,322.8294 203.8037,322.094 203.6996,321.3586 203.5955,320.6231 205.9439,320.2906 208.2923,319.958 210.6408,319.6255" stroke="black" stroke-width="1" /><polyline fill="none" points="191.2466,326.2313 191.1541,324.2616 192.6556,322.5955 194.6253,322.503 196.6121,322.4098 198.279,323.9273 198.3715,325.897 198.4191,326.9132 198.4668,327.9294 198.5145,328.9456 198.6069,330.9152 197.0895,332.5829 195.1194,332.6754 193.1329,332.7686 191.482,331.2496 191.3896,329.2798 191.2299,325.8776 191.0703,322.4752 190.9107,319.0729 190.8183,317.1035 192.3197,315.437 194.2894,315.3446 195.9847,315.265 197.4443,316.3639 197.8954,317.9221" stroke="black" stroke-width="1" /><polyline fill="none" points="184.1298,329.3645 181.3157,332.6142 182.1193,315.4892" stroke="black" stroke-width="1" /><polyline fill="none" points="172.2395,329.5397 171.9077,331.8824 164.8613,330.8846 172.2059,314.6098" stroke="black" stroke-width="1" /><polyline fill="none" points="160.9268,319.2657 160.4688,321.1836 158.5471,322.3646 156.6299,321.9066 154.6946,321.4444 153.5311,319.5266 153.9892,317.6087 154.2255,316.6194 154.4617,315.6302 154.698,314.641 155.1561,312.7231 157.0605,311.5388 158.9958,312.001 160.913,312.4589 162.0937,314.3801 161.6356,316.298 160.8444,319.6109 160.0531,322.9238 159.2619,326.2367 158.8039,328.1542 156.8824,329.3348 154.9651,328.8769 153.3133,328.4824 152.2172,327.0221 152.2164,325.4003" stroke="black" stroke-width="1" /><polyline fill="none" points="145.192,322.6131 141.5863,324.9537 147.1128,308.7251" stroke="black" stroke-width="1" /><polyline fill="none" points="129.9544,311.0148 129.9521,311.0198 129.9499,311.0247 129.9476,311.0297 130.9026,308.9028 131.8576,306.7758 132.8125,304.6488 133.2539,303.6658 132.7335,302.9789 132.2187,302.7477 132.8759,303.0428 133.1714,303.8496 132.8686,304.524 132.8499,304.5656 132.8312,304.6072 132.8125,304.6488 134.2144,304.2071 135.6838,304.1152 137.0441,304.7259 138.1705,305.2316 139.7477,306.6167 138.7155,308.9157 138.1747,310.1202 137.1586,310.5844 136.0063,310.5549 135.4461,310.5481 133.8255,310.1779 132.7336,309.9319 131.6189,309.6942 130.4952,309.8102 129.9544,311.0148 129.4067,312.2346 129.9828,314.259 131.8595,315.1016 133.6274,315.8953 134.8267,315.4006 135.7013,314.8349" stroke="black" stroke-width="1" /><polyline fill="none" points="118.7392,304.9941 118.7365,304.9989 118.7338,305.0037 118.7311,305.0084 119.881,302.9802 121.031,300.952 122.1809,298.9238 122.7124,297.9865 122.2586,297.2538 121.7677,296.9755 122.3944,297.3307 122.613,298.1617 122.2484,298.8048 122.2259,298.8445 122.2034,298.8842 122.1809,298.9238 123.6179,298.6153 125.0895,298.6614 126.3867,299.3968 127.4607,300.0058 128.9013,301.5324 127.6584,303.7247 127.0071,304.8733 125.952,305.2403 124.8076,305.103 124.2504,305.0437 122.6716,304.5234 121.6076,304.1763 120.52,303.8352 119.3904,303.8455 118.7392,304.9941 118.0797,306.1573 118.4636,308.2267 120.2532,309.2414 121.939,310.1972 123.1794,309.817 124.1031,309.3356" stroke="black" stroke-width="1" /><polyline fill="none" points="110.784,305.914 109.6551,307.5308 107.4348,307.925 105.8181,306.7961 104.187,305.6571 103.7841,303.3894 104.913,301.7727 105.3553,301.1393 105.7753,300.8066 106.1746,300.6241 110.213,298.7744 114.2514,296.9247 118.2898,295.075 118.3714,294.9581 118.4531,294.8411 118.5347,294.7242 116.5946,293.3695 114.6545,292.0148 112.7144,290.6601" stroke="black" stroke-width="1" /><polyline fill="none" points="94.7144,293.5274 98.7309,292.4676 102.7473,291.4077 106.7638,290.3478 104.5609,292.9456 102.3579,295.5434 100.155,298.1411 98.8796,299.645 96.6314,299.8294 95.1281,298.5545 93.6105,297.2676 93.439,295.0313 94.7144,293.5274 96.9173,290.9297 99.1203,288.3319 101.3232,285.7341 102.5985,284.2302 104.8324,284.0346 106.3366,285.3102 107.8533,286.5964 108.0391,288.8439 106.7638,290.3478" stroke="black" stroke-width="1" /><polyline fill="none" points="87.3965,282.0711 88.8071,280.6932 91.0499,280.7081 92.4278,282.1187 93.8176,283.5415 93.7912,285.7956 92.3806,287.1735 91.6529,287.8843 90.9252,288.5952 90.1975,289.306 88.7869,290.6839 86.5323,290.658 85.1542,289.2472 83.7646,287.8246 83.8028,285.5815 85.2133,284.2036 87.6499,281.8236 90.0864,279.4435 92.5229,277.0635 93.9332,275.6859 96.1763,275.7005 97.5542,277.1111 98.7401,278.3252 98.8888,280.1461 98.0241,281.5185" stroke="black" stroke-width="1" /><polyline fill="none" points="86.8499,275.2595 85.3165,276.4992 83.0736,276.2619 81.8343,274.7291 80.5833,273.1818 80.8321,270.9525 82.3655,269.7128 83.1564,269.0733 83.9473,268.4339 84.7382,267.7945 86.2716,266.5547 88.503,266.7788 89.754,268.3261 90.9932,269.8589 90.756,272.1014 89.2226,273.3412 86.574,275.4826 83.9253,277.624 81.2766,279.7655 79.7435,281.005 77.5008,280.7675 76.2615,279.2347 75.1937,277.914 75.2167,276.0882 76.2058,274.803" stroke="black" stroke-width="1" /><polyline fill="none" points="79.1729,256.9158 80.2618,256.9131 81.4457,257.053 82.622,258.8246 83.6749,260.4105 83.2904,262.6207 81.5902,263.7495 80.3478,264.5744 79.1053,265.3994 77.8629,266.2243 76.2059,267.3245 74.0202,266.8207 72.9673,265.2348 71.8953,263.6203 72.2605,261.3822 73.9175,260.282 74.5363,259.8712 75.1551,259.4603 75.7739,259.0495 77.0859,261.0255 78.3978,263.0015 79.7098,264.9774" stroke="black" stroke-width="1" /><polyline fill="none" points="59.9675,254.1369 60.9374,255.9453 61.9075,257.7537 62.8775,259.5621 65.2597,258.2842 67.6419,257.0064 70.0242,255.7286 68.6436,255.7299 67.5775,255.2309 66.8725,253.9166 65.8999,252.1034 66.6423,249.896 68.3189,248.9966 69.5175,248.3537 70.7161,247.7108 71.9147,247.0678 73.6672,246.1278 75.7052,246.8438 76.5889,248.4912 77.464,250.1228 76.9251,252.2016 75.1727,253.1416" stroke="black" stroke-width="1" /><polyline fill="none" points="59.1238,246.9669 56.9431,247.8852 54.1812,241.3264 71.9179,239.272" stroke="black" stroke-width="1" /><polyline fill="none" points="56.024,226.2831 57.905,225.6914 59.899,226.7182 60.4907,228.5992 61.0876,230.4966 60.0454,232.4954 58.1644,233.0871 57.194,233.3924 56.2236,233.6977 55.2532,234.003 53.3722,234.5947 51.3727,233.5527 50.7808,231.6714 50.1841,229.7744 51.2318,227.7906 53.1127,227.1989 56.3618,226.1768 59.6109,225.1547 62.86,224.1326 64.7407,223.541 66.735,224.5677 67.3268,226.4487 67.8361,228.0677 67.1458,229.7593 65.7542,230.5928" stroke="black" stroke-width="1" /><polyline fill="none" points="51.1793,220.2008 47.3194,218.3085 64.083,214.7179" stroke="black" stroke-width="1" /><polyline fill="none" points="51.3022,200.919 53.2606,200.6884 55.0282,202.069 55.2588,204.0274 55.4914,206.0027 54.0948,207.7722 52.1364,208.0028 51.1261,208.1218 50.1158,208.2408 49.1055,208.3597 47.1472,208.5904 45.377,207.1938 45.1463,205.2352 44.9137,203.2602 46.313,201.5066 48.2713,201.2759 51.654,200.8776 55.0367,200.4792 58.4194,200.0809 60.3773,199.8503 62.1453,201.2309 62.3759,203.1892 62.5744,204.8748 61.5808,206.408 60.0582,206.9674" stroke="black" stroke-width="1" /><polyline fill="none" points="47.6766,194.04 44.2373,191.4612 61.3764,191.0594" stroke="black" stroke-width="1" /><polyline fill="none" points="47.7766,180.8288 44.5938,177.9393 61.6953,179.1441" stroke="black" stroke-width="1" /><polyline fill="none" points="54.0992,166.2216 54.4639,164.6403 53.2726,162.6592 51.3357,162.3385 50.8849,162.2638 50.4341,162.1892 49.9834,162.1145 48.156,161.8119 46.421,163.0552 46.1156,164.8994 45.813,166.7264 47.0889,168.4676 48.8821,168.7646 49.3329,168.8392 49.7836,168.9139 50.2344,168.9885 52.0621,169.2912 53.7967,168.0485 54.0992,166.2216 54.4326,164.2086 56.334,162.9056 58.2786,163.2276 58.944,163.3378 59.6093,163.448 60.2747,163.5582 62.2197,163.8802 63.5664,165.7211 63.233,167.7341 62.9025,169.7303 61.0344,171.0377 59.0894,170.7156 58.413,170.6036 57.7366,170.4915 57.0602,170.3795 55.3928,170.1034 53.8389,168.4146" stroke="black" stroke-width="1" /><polyline fill="none" points="53.3127,149.1187 55.9996,152.2866 58.6866,155.4545 61.3736,158.6224 58.0802,157.7537 54.7868,156.885 51.4933,156.0163 49.5867,155.5134 48.4516,153.564 48.9543,151.6581 49.4618,149.7341 51.406,148.6158 53.3127,149.1187 56.6061,149.9874 59.8995,150.8561 63.193,151.7248 65.0996,152.2277 66.2386,154.1593 65.7356,156.0663 65.2284,157.9892 63.2803,159.1253 61.3736,158.6224" stroke="black" stroke-width="1" /><polyline fill="none" points="54.9991,143.1089 53.325,142.4946 52.3578,140.551 53.0253,138.7316 53.6925,136.9133 55.6137,136.0102 57.5129,136.707 57.8132,136.8172 58.1135,136.9274 58.4138,137.0376 61.3111,138.1006 60.8663,140.8048 60.748,141.1274 60.6339,141.4384 60.5197,141.7495 60.4056,142.0605 60.5197,141.7495 60.6339,141.4384 60.748,141.1274 61.0967,140.1772 62.9678,138.5624 65.2206,139.3891 65.8807,139.6313 66.5408,139.8735 67.2009,140.1157 69.0675,140.8006 69.9932,142.8575 69.308,144.7248 68.617,146.6082 66.5868,147.5615 64.7202,146.8766" stroke="black" stroke-width="1" /><polyline fill="none" points="65.5686,129.7824 66.3579,128.3646 65.7635,126.1306 63.9918,125.2847 63.5794,125.0878 63.1671,124.891 62.7548,124.6941 61.0833,123.896 59.0712,124.6087 58.2658,126.2957 57.4679,127.9668 58.2103,129.9938 59.8505,130.7769 60.2628,130.9738 60.6751,131.1707 61.0875,131.3675 62.7593,132.1657 64.7707,131.4535 65.5686,129.7824 66.4477,127.9411 68.6361,127.2172 70.4149,128.0665 71.0235,128.3571 71.6321,128.6477 72.2407,128.9383 74.0198,129.7877 74.8025,131.9301 73.9233,133.7714 73.0516,135.5973 70.894,136.3347 69.1148,135.4852 68.4961,135.1898 67.8774,134.8944 67.2587,134.599 65.7336,133.8708 64.7096,131.817" stroke="black" stroke-width="1" /><polyline fill="none" points="72.0352,122.9569 70.3432,121.9444 69.7933,119.7569 70.8054,118.0655 71.8271,116.3581 74.0057,115.8237 75.6977,116.8362 76.5705,117.3585 77.4432,117.8807 78.316,118.4029 80.008,119.4154 80.5663,121.5875 79.5446,123.2949 78.5325,124.9863 76.3455,125.5361 74.6535,124.5236 71.7307,122.7746 68.8079,121.0257 65.8852,119.2768 64.1934,118.2645 63.6438,116.0772 64.656,114.3858 65.528,112.9285 67.25,112.3211 68.7972,112.807" stroke="black" stroke-width="1" /><polyline fill="none" points="85.2216,108.4278 86.825,109.6042 87.1157,111.8167 85.9898,113.3512 84.8639,114.8858 82.6562,115.2859 81.0528,114.1095 79.8365,113.217 78.6201,112.3245 77.4038,111.4321 75.8002,110.2554 75.5199,108.0298 76.6459,106.4953 77.7718,104.9608 79.969,104.5738 81.5726,105.7504" stroke="black" stroke-width="1" /><polyline fill="none" points="88.0551,94.2223 89.5287,95.5325 89.6715,97.7709 88.3612,99.2445 87.0396,100.7309 84.7892,100.8629 83.3156,99.5527 82.5554,98.8767 81.7951,98.2007 81.0349,97.5248 79.5613,96.2145 79.4287,93.9637 80.7392,92.4898 82.0606,91.0037 84.3008,90.8841 85.7744,92.1944 88.3198,94.4576 90.8652,96.7209 93.4106,98.9841 94.8839,100.2941 95.0269,102.5327 93.7167,104.0063 92.589,105.2746 90.7829,105.5509 89.3532,104.7847" stroke="black" stroke-width="1" /><polyline fill="none" points="92.2524,80.9583 90.7512,82.3574 89.25,83.7566 87.7489,85.1557 89.592,87.1332 91.4351,89.1108 93.2783,91.0884 92.9249,89.7538 93.1355,88.5957 94.2266,87.5788 95.7318,86.176 98.0555,86.3307 99.3527,87.7225 100.28,88.7175 101.2074,89.7125 102.1348,90.7075 103.4906,92.1623 103.3181,94.3156 101.9506,95.5901 100.5962,96.8525 98.4486,96.8616 97.0928,95.4068" stroke="black" stroke-width="1" /><polyline fill="none" points="102.7457,72.418 101.1201,73.6704 99.4945,74.9229 97.8689,76.1753 99.5188,78.3167 101.1686,80.4582 102.8185,82.5997 102.5917,81.2379 102.9097,80.1046 104.0912,79.1944 105.7212,77.9386 108.0202,78.3103 109.1814,79.8174 110.0115,80.8949 110.8416,81.9724 111.6717,83.0499 112.8854,84.6252 112.512,86.7528 111.0312,87.8937 109.5645,89.0237 107.4255,88.8317 106.2118,87.2563" stroke="black" stroke-width="1" /><polyline fill="none" points="114.2952,64.5551 116.7462,68.4415 119.1973,72.3278 121.6483,76.2141 122.7093,77.8965 122.1552,80.0701 120.545,81.0856 118.9496,82.0918 116.749,81.6555 115.688,79.9732 114.8832,78.6971 114.0784,77.4211 113.2737,76.1451 112.2126,74.4627 112.7675,72.2895 114.3629,71.2833 115.973,70.2678 118.173,70.7037 119.234,72.386" stroke="black" stroke-width="1" /><polyline fill="none" points="133.4041,73.8778 131.4594,70.0389 126.0135,72.7977 125.2592,58.7858" stroke="black" stroke-width="1" /><polyline fill="none" points="138.6059,61.7306 140.15,61.2316 141.2383,59.1921 140.519,57.3654 140.3516,56.9402 140.1841,56.5151 140.0167,56.0899 139.3381,54.3665 137.3803,53.516 135.641,54.2009 133.9179,54.8794 133.0789,56.8683 133.7449,58.5595 133.9123,58.9847 134.0797,59.4098 134.2471,59.835 134.9258,61.5587 136.8828,62.4091 138.6059,61.7306 140.5044,60.9831 142.5988,61.9455 143.321,63.7796 143.5681,64.4072 143.8152,65.0347 144.0623,65.6622 144.7846,67.4966 143.8964,69.5975 141.9979,70.345 140.1153,71.0863 138.0342,70.1547 137.3119,68.3203 137.0607,67.6823 136.8095,67.0444 136.5583,66.4064 135.9391,64.8339 136.5903,62.6333" stroke="black" stroke-width="1" /><polyline fill="none" points="155.7428,65.6148 154.548,61.4806 148.6832,63.1756 150.5548,49.2687" stroke="black" stroke-width="1" /><polyline fill="none" points="160.0938,57.9127 159.7262,55.9755 160.9955,54.111 162.932,53.7435 164.8869,53.3725 166.7338,54.6455 167.1015,56.5828 167.2911,57.582 167.4808,58.5812 167.6704,59.5804 168.0381,61.5177 166.7858,63.3782 164.831,63.7492 162.8944,64.1167 161.0304,62.8477 160.6628,60.9104 160.0276,57.5641 159.3926,54.2177 158.7575,50.8714 158.3899,48.9345 159.6592,47.0704 161.5958,46.7029 163.2643,46.3862 164.8624,47.2695 165.5274,48.7486" stroke="black" stroke-width="1" /><polyline fill="none" points="239.5878,219.874 236.6952,108.8569 268.4255,140.8637 268.4255,140.8637 140.3048,268.1431 136.578,231.1149 156.5688,130.1462 268.4255,140.8637 268.4255,140.8637 250.763,172.1919" stroke="black" stroke-width="1" /><polyline fill="none" points="266.1323,180.8569 235.3938,163.5269" stroke="black" stroke-width="1" /><polyline fill="none" points="251.6566,231.6324 251.5118,229.7924 251.0809,227.9976 250.3746,226.2924 249.4102,224.7187 248.2115,223.3152 246.808,222.1164 245.2343,221.152 243.529,220.4457 241.7343,220.0148 239.8942,219.87 238.0542,220.0148 236.2594,220.4457 234.5542,221.152 232.9805,222.1164 231.577,223.3152 230.3783,224.7187 229.4139,226.2924 228.7075,227.9977 228.2766,229.7924 228.1318,231.6324 228.2766,233.4725 228.7075,235.2672 229.4139,236.9724 230.3783,238.5462 231.577,239.9497 232.9805,241.1484 234.5542,242.1128 236.2594,242.8191 238.0542,243.25 239.8942,243.3948 241.7343,243.25 243.529,242.8191 245.2343,242.1128 246.808,241.1484 248.2115,239.9497 249.4102,238.5462 250.3746,236.9724 251.0809,235.2672 251.5118,233.4725 251.6566,231.6324" stroke="black" stroke-width="1" /><polyline fill="none" points="188.5,69.0664 199.6839,69.5912 210.7696,71.161 221.6595,73.7619 232.2581,77.3712 242.4721,81.9571 252.2118,87.4792 261.3915,93.8892 269.9308,101.1306 277.7544,109.1398 284.7936,117.8464 290.9866,127.1739 296.2789,137.0404 300.6241,147.3591 303.9839,158.0393 306.3289,168.9873 307.6383,180.1067 307.9008,191.2998 307.114,202.4684 305.2847,213.5142 302.4292,224.3402 298.5725,234.8512 293.7484,244.9549 287.9994,254.5625 281.376,263.5894 273.9365,271.9565 265.7461,279.5902 256.8768,286.4234 247.4067,292.3961 237.4188,297.4556 227.0011,301.5577 216.2451,304.6663 205.2452,306.7539 194.0981,307.8023 182.9019,307.8023 171.7548,306.7539 160.7549,304.6663 149.9989,301.5577 139.5811,297.4556 129.5933,292.3961 120.1232,286.4234 111.2539,279.5902 103.0635,271.9565 95.6239,263.5894 89.0006,254.5625 83.2516,244.9549 78.4275,234.8512 74.5708,224.3402 71.7153,213.5142 69.8861,202.4684 69.0992,191.2998 69.3617,180.1067 70.6712,168.9872 73.0161,158.0393 76.3759,147.3591 80.7211,137.0404 86.0134,127.174 92.2064,117.8464 99.2457,109.1398 107.0692,101.1306 115.6085,93.8892 124.7882,87.4792 134.5279,81.957 144.7419,77.3712 155.3405,73.7619 166.2304,71.161 177.3161,69.5912 188.5,69.0664" stroke="black" stroke-width="1" />

    </g>
  </g>
  <WCB
     pausedposy="0"
     pausedposx="0"
     lastknownposy="0"
     lastknownposx="0"
     lastpathnc="0"
     lastpath="0"
     node="0"
     layer="0" />
</svg>
