<?xml version="1.0" encoding="UTF-8" standalone="no"?>
<!-- Created with Inkscape (http://www.inkscape.org/) -->

<svg
   xmlns:dc="http://purl.org/dc/elements/1.1/"
   xmlns:cc="http://creativecommons.org/ns#"
   xmlns:rdf="http://www.w3.org/1999/02/22-rdf-syntax-ns#"
   xmlns:svg="http://www.w3.org/2000/svg"
   xmlns="http://www.w3.org/2000/svg"
   xmlns:sodipodi="http://sodipodi.sourceforge.net/DTD/sodipodi-0.dtd"
   xmlns:inkscape="http://www.inkscape.org/namespaces/inkscape"
   width="100mm"
   height="100mm"
   viewBox="0 0 100 100"
   version="1.1"
   id="svg19124"
   inkscape:version="0.92.3 (2405546, 2018-03-11)"
   sodipodi:docname="inkscape_template_TMP.svg"
   shape-rendering="crispEdges">
  <sodipodi:namedview
     pagecolor="#ffffff"
     bordercolor="#666666"
     borderopacity="1"
     objecttolerance="10"
     gridtolerance="10"
     guidetolerance="10"
     inkscape:pageopacity="0"
     inkscape:pageshadow="2"
     inkscape:window-width="1568"
     inkscape:window-height="1550"
     id="namedview24021"
     showgrid="false"
     inkscape:zoom="0.62441667"
     inkscape:cx="712.66515"
     inkscape:cy="409.98265"
     inkscape:window-x="0"
     inkscape:window-y="0"
     inkscape:window-maximized="0"
     inkscape:current-layer="layer1" />
  <defs
     id="defs19118" />
  <metadata
     id="metadata19121">
    <rdf:RDF>
      <cc:Work
         rdf:about="">
        <dc:format>image/svg+xml</dc:format>
        <dc:type
           rdf:resource="http://purl.org/dc/dcmitype/StillImage" />
        <dc:title />
      </cc:Work>
    </rdf:RDF>
  </metadata>
  <g
     transform="translate(0,-197)"
     id="layer1"
     inkscape:groupmode="layer"
     inkscape:label="Layer 1">
    <g
       id="g24447"
       transform="matrix(0.26458333,0,0,0.26458333,0.10666333,197.9735)">

<polyline fill="none" points="192.1004,47.7394 189.7225,51.1455 187.3447,54.5516 184.9669,57.9577 184.9669,54.5516 184.9669,51.1455 184.9669,47.7394 184.9669,45.7676 186.5623,44.1729 188.5334,44.1729 190.5231,44.1729 192.1004,45.7676 192.1004,47.7394 192.1004,51.1455 192.1004,54.5516 192.1004,57.9577 192.1004,59.9295 190.5231,61.5235 188.5509,61.5235 186.5623,61.5235 184.9669,59.9295 184.9669,57.9577" stroke="black" stroke-width="1" /><polyline fill="none" points="197.8298,61.5877 200.7471,57.7851 198.696,53.7706 202.935,62.0679 200.7471,57.7851 203.4811,54.2207" stroke="black" stroke-width="1" /><polyline fill="none" points="218.7234,47.237 217.8667,51.7512 217.01,56.2653 216.1533,60.7794 215.7824,62.7335 213.895,63.9457 212.0247,63.5908 210.1717,63.2391 208.8593,61.4196 209.2302,59.4654 209.5115,57.9833 209.7928,56.5011 210.0741,55.0189 210.4449,53.0648 212.3326,51.8533 214.1856,52.205 216.0559,52.56 217.368,54.3788 216.9972,56.3329" stroke="black" stroke-width="1" /><polyline fill="none" points="229.2902,58.987 229.2917,58.9817 229.2932,58.9765 229.2947,58.9712 228.6474,61.211 228.0001,63.4509 227.3528,65.6907 227.0536,66.7259 227.6651,67.3332 228.2073,67.4898 227.5152,67.2898 227.1095,66.5324 227.3148,65.8222 227.3275,65.7784 227.3401,65.7345 227.3528,65.6907 226.0267,66.3247 224.5847,66.6217 223.1522,66.2077 221.966,65.8649 220.2102,64.7147 220.9099,62.2937 221.2765,61.0252 222.2174,60.4231 223.3624,60.2908 223.9182,60.219 225.5747,60.3583 226.6902,60.4488 227.8273,60.5279 228.9236,60.2555 229.2902,58.987 229.6614,57.7024 228.8072,55.7788 226.8309,55.2076 224.9691,54.6696 223.851,55.3276 223.0645,56.0103" stroke="black" stroke-width="1" /><polyline fill="none" points="238.9685,69.8153 238.0773,70.4409 237.0264,71.004 235.0478,70.2249 233.2765,69.5275 232.3264,67.4951 233.0741,65.5963 233.6205,64.2086 234.1669,62.8209 234.7133,61.4333 235.4421,59.5826 237.5225,58.7443 239.2938,59.4418 241.0969,60.1518 242.0789,62.1959 241.3501,64.0466 241.078,64.7377 240.8058,65.4288 240.5337,66.1199 238.3268,65.2509 236.1198,64.3819 233.9129,63.5129" stroke="black" stroke-width="1" /><polyline fill="none" points="256.3059,61.0983 254.4753,60.171 252.6447,59.2436 250.8141,58.3163 249.5924,60.7278 248.3708,63.1394 247.1492,65.5509 248.2804,64.7595 249.4401,64.5583 250.7706,65.2323 252.6061,66.1621 253.2612,68.3969 252.4015,70.0941 251.7868,71.3075 251.1721,72.5208 250.5575,73.7342 249.6588,75.5082 247.5779,76.088 245.9103,75.2432 244.2586,74.4065 243.5103,72.3935 244.409,70.6195" stroke="black" stroke-width="1" /><polyline fill="none" points="266.6339,71.3608 262.8057,72.9733 258.9775,74.5858 255.1493,76.1984 256.9662,73.3174 258.7832,70.4364 260.6002,67.5555 261.6521,65.8876 263.8522,65.3898 265.5195,66.4413 267.2025,67.5027 267.6858,69.6929 266.6339,71.3608 264.817,74.2418 263.0,77.1227 261.183,80.0037 260.1311,81.6716 257.9468,82.1785 256.2786,81.1264 254.5966,80.0655 254.0974,77.8662 255.1493,76.1984" stroke="black" stroke-width="1" /><polyline fill="none" points="271.8607,74.773 272.9491,73.3604 275.0934,73.021 276.6285,74.2037 278.1628,75.3858 278.4478,77.4895 277.2132,79.092 277.018,79.3454 276.8228,79.5988 276.6275,79.8522 274.744,82.297 272.2979,81.0612 272.0258,80.8515 271.7633,80.6493 271.5009,80.4471 271.2384,80.2449 271.5009,80.4471 271.7633,80.6493 272.0258,80.8515 272.8276,81.4693 273.8064,83.7387 272.3418,85.6397 271.9127,86.1967 271.4836,86.7537 271.0544,87.3107 269.8409,88.8857 267.601,89.1514 266.0254,87.9375 264.4362,86.7132 264.136,84.4904 265.3495,82.9154" stroke="black" stroke-width="1" /><polyline fill="none" points="281.4013,88.8544 282.5169,90.0328 284.8263,90.1361 286.1649,88.7 286.4764,88.3657 286.7879,88.0314 287.0995,87.6972 288.3623,86.3422 288.2863,84.2091 286.9188,82.9345 285.5641,81.6719 283.4077,81.7718 282.1685,83.1014 281.857,83.4357 281.5454,83.7699 281.2339,84.1042 279.9708,85.4594 280.0466,87.5918 281.4013,88.8544 282.8939,90.2456 282.9277,92.5503 281.5838,93.9923 281.124,94.4856 280.6641,94.979 280.2043,95.4724 278.8601,96.9146 276.5816,97.0182 275.089,95.6271 273.6089,94.2476 273.5529,91.9681 274.8971,90.5259 275.3646,90.0244 275.832,89.5228 276.2995,89.0212 277.4518,87.7849 279.7183,87.4244" stroke="black" stroke-width="1" /><polyline fill="none" points="298.2685,94.7999 296.9049,93.2663 295.5414,91.7328 294.1778,90.1992 292.1576,91.9955 290.1373,93.7918 288.1171,95.588 289.4596,95.2661 290.6124,95.5037 291.6035,96.6183 292.9707,98.156 292.7614,100.4754 291.3396,101.7396 290.3232,102.6434 289.3067,103.5472 288.2902,104.451 286.8041,105.7724 284.6555,105.5494 283.4133,104.1525 282.183,102.7688 282.2243,100.6216 283.7104,99.3002" stroke="black" stroke-width="1" /><polyline fill="none" points="300.1586,102.3885 301.5964,101.3335 303.7506,101.6028 304.897,103.1653 306.0428,104.7269 305.7325,106.827 304.1015,108.0237 303.8436,108.2129 303.5857,108.4022 303.3278,108.5914 300.8395,110.4171 298.8327,108.5508 298.6295,108.2738 298.4335,108.0067 298.2375,107.7396 298.0415,107.4724 298.2375,107.7396 298.4335,108.0067 298.6295,108.2738 299.2283,109.0899 299.5385,111.5419 297.6037,112.9615 297.0368,113.3774 296.4699,113.7934 295.903,114.2093 294.3,115.3855 292.0743,115.0189 290.8977,113.4153 289.7109,111.7978 290.0397,109.5792 291.6427,108.4029" stroke="black" stroke-width="1" /><polyline fill="none" points="308.401,112.4713 310.4314,111.2564 314.0856,117.3632 296.8121,121.8841" stroke="black" stroke-width="1" /><polyline fill="none" points="308.9742,127.1239 310.7691,126.2669 312.8627,127.0716 313.6829,128.7895 314.5028,130.5067 313.8053,132.6259 312.0104,133.4829 310.649,134.1329 309.2876,134.7829 307.9261,135.433 306.1316,136.2898 304.0444,135.5002 303.2245,133.7829 302.4043,132.0651 303.1026,129.9459 304.8972,129.0891 304.8948,129.084 304.8924,129.0789 304.89,129.0739 309.0363,127.0942 313.1826,125.1145 317.3289,123.1348" stroke="black" stroke-width="1" /><polyline fill="none" points="319.4398,136.7256 321.291,136.0463 323.3371,136.9942 324.0164,138.8454 324.7016,140.713 323.7336,142.803 321.8825,143.4822 321.1572,143.7483 320.6224,143.7806 320.1906,143.7016 315.8205,142.9062 311.4505,142.1107 307.0804,141.3153 306.9465,141.3644 306.8126,141.4136 306.6787,141.4627 307.4938,143.6841 308.3089,145.9056 309.124,148.127" stroke="black" stroke-width="1" /><polyline fill="none" points="312.1193,158.6325 316.2804,157.535 314.7234,151.632 328.5825,153.8291" stroke="black" stroke-width="1" /><polyline fill="none" points="331.5284,168.2133 326.9955,168.964 322.4625,169.7147 317.9296,170.4653 315.9673,170.7903 314.1791,169.436 313.8681,167.5579 313.5599,165.6971 314.816,163.8383 316.7783,163.5134 318.2667,163.2669 319.755,163.0204 321.2433,162.7739 323.2056,162.449 324.9932,163.8038 325.3013,165.6646 325.6124,167.5426 324.3569,169.401 322.3947,169.7259" stroke="black" stroke-width="1" /><polyline fill="none" points="328.6666,175.1152 330.6336,174.9766 332.3361,176.4553 332.4747,178.4223 332.6145,180.4068 331.1043,182.1458 329.1373,182.2844 328.3667,182.3387 327.8439,182.2212 327.451,182.0255 323.4736,180.048 319.4962,178.0705 315.5188,176.093 315.3765,176.103 315.2343,176.1131 315.092,176.1231 315.2583,178.4835 315.4246,180.8439 315.5909,183.2044" stroke="black" stroke-width="1" /><polyline fill="none" points="329.3041,188.2994 331.2754,188.3456 332.8319,189.9773 332.7857,191.9486 332.7391,193.9374 331.0727,195.5274 329.1014,195.4812 328.3291,195.4631 327.8196,195.2971 327.4467,195.0655 323.672,192.7242 319.8972,190.383 316.1225,188.0418 315.9799,188.0384 315.8373,188.0351 315.6947,188.0317 315.6393,190.3974 315.5838,192.763 315.5283,195.1286" stroke="black" stroke-width="1" /><polyline fill="none" points="316.1313,207.0298 315.2992,206.3276 314.4867,205.4552 314.7354,203.3432 314.958,201.4527 316.6808,200.0157 318.7076,200.2543 320.1887,200.4288 321.6699,200.6032 323.151,200.7776 325.1263,201.0102 326.4675,202.8081 326.2448,204.6986 326.0182,206.6233 324.2921,208.094 322.3168,207.8614 321.5791,207.7746 320.8414,207.6877 320.1038,207.6008 320.3812,205.2452 320.6586,202.8896 320.936,200.534" stroke="black" stroke-width="1" /><polyline fill="none" points="321.3936,213.4068 323.3385,213.8233 324.5059,215.7386 324.1071,217.6 323.7086,219.4607 321.8627,220.7137 319.9178,220.2972 318.4426,219.9812 316.9675,219.6652 315.4923,219.3493 313.5478,218.9328 312.3763,217.0334 312.7748,215.1727 313.1735,213.3113 315.0201,212.0588 316.9646,212.4753 316.9658,212.4698 316.967,212.4643 316.9681,212.4589 321.4609,213.4212 325.9537,214.3835 330.4465,215.3458" stroke="black" stroke-width="1" /><polyline fill="none" points="325.2678,234.5803 325.8836,232.6228 326.4994,230.6652 327.1152,228.7077 324.5365,227.8965 321.9578,227.0853 319.379,226.274 320.3446,227.2607 320.7327,228.372 320.2851,229.7947 319.6676,231.7575 317.5699,232.7689 315.755,232.198 314.4575,231.7898 313.16,231.3817 311.8625,230.9735 309.9656,230.3767 309.0536,228.4185 309.6146,226.6353 310.1702,224.8691 312.0338,223.802 313.9308,224.3988" stroke="black" stroke-width="1" /><polyline fill="none" points="320.2999,247.6393 316.0654,245.8561 311.8308,244.073 307.5963,242.2898 305.7632,241.5179 304.9731,239.4185 305.7119,237.664 306.4438,235.9257 308.4979,235.0235 310.331,235.7955 311.7214,236.381 313.1118,236.9664 314.5021,237.5519 316.3353,238.3238 317.1245,240.4233 316.3925,242.1616 315.6537,243.916 313.6005,244.8182 311.7674,244.0463" stroke="black" stroke-width="1" /><polyline fill="none" points="314.1975,251.9505 315.9352,252.8826 316.5864,255.0415 315.6543,256.7791 314.714,258.5322 312.5089,259.1976 310.7713,258.2655 310.0905,257.9003 309.711,257.5221 309.483,257.1469 307.1737,253.3526 304.8644,249.5582 302.5551,245.7639 302.4294,245.6965 302.3037,245.629 302.178,245.5616 301.0595,247.6469 299.941,249.7321 298.8225,251.8173" stroke="black" stroke-width="1" /><polyline fill="none" points="306.9614,271.1776 303.1335,268.6361 299.3058,266.0946 295.478,263.5532 293.8209,262.453 293.4362,260.243 294.4891,258.6572 295.5324,257.0858 297.7187,256.5825 299.3757,257.6826 300.6325,258.5171 301.8893,259.3516 303.1462,260.186 304.8032,261.2862 305.1871,263.496 304.1439,265.0674 303.0909,266.6533 300.9055,267.1567 299.2484,266.0566" stroke="black" stroke-width="1" /><polyline fill="none" points="286.57,272.258 286.2407,271.2201 286.0189,270.0487 287.3558,268.3951 288.5527,266.9147 290.7764,266.6183 292.3634,267.9014 293.5232,268.839 294.6829,269.7766 295.8427,270.7143 297.3893,271.9648 297.5647,274.2009 296.3679,275.6812 295.1494,277.1882 292.9049,277.5115 291.3582,276.261 290.7806,275.794 290.203,275.327 289.6254,274.86 291.1166,273.0156 292.6078,271.1711 294.0991,269.3267" stroke="black" stroke-width="1" /><polyline fill="none" points="292.5942,285.0453 294.2869,286.6986 289.3139,291.7896 280.5371,276.2403" stroke="black" stroke-width="1" /><polyline fill="none" points="282.2102,293.5916 283.4855,295.0955 283.3005,297.3428 281.7966,298.6182 280.2793,299.9048 277.9838,299.7161 276.7085,298.2122 276.2089,297.623 275.9943,297.132 275.9196,296.6993 275.1611,292.3228 274.4025,287.9461 273.644,283.5695 273.5517,283.4608 273.4595,283.352 273.3672,283.2432 271.5625,284.7737 269.7578,286.3041 267.9531,287.8345" stroke="black" stroke-width="1" /><polyline fill="none" points="271.9703,302.1466 272.9912,303.6087 272.6715,305.756 271.0826,306.8655 269.4946,307.9744 267.4023,307.6149 266.2442,305.9563 266.061,305.6941 265.8779,305.4318 265.6948,305.1695 263.9279,302.6392 265.8407,300.6766 266.1224,300.4799 266.3941,300.2903 266.6657,300.1006 266.9374,299.9109 266.6657,300.1006 266.3941,300.2903 266.1224,300.4799 265.2925,301.0594 262.834,301.3121 261.4601,299.3445 261.0576,298.7681 260.655,298.1916 260.2525,297.6151 259.1141,295.9849 259.5328,293.7685 261.1636,292.6297 262.8084,291.4812 265.0188,291.8619 266.1571,293.4921" stroke="black" stroke-width="1" /><polyline fill="none" points="255.675,307.0218 254.2161,307.7324 253.4245,309.9043 254.3928,311.6122 254.6182,312.0097 254.8435,312.4072 255.0689,312.8046 255.9824,314.4159 258.0401,314.9835 259.6663,314.0615 261.2772,313.1481 261.829,311.0612 260.9326,309.48 260.7072,309.0826 260.4819,308.6851 260.2565,308.2876 259.3428,306.6761 257.2859,306.1085 255.675,307.0218 253.9,308.0282 251.6913,307.3688 250.7191,305.6541 250.3865,305.0674 250.0538,304.4807 249.7212,303.8941 248.7488,302.179 249.3337,299.9744 251.1087,298.968 252.8687,297.9702 255.0599,298.6008 256.0323,300.3158 256.3704,300.9123 256.7086,301.5087 257.0468,302.1051 257.8803,303.5753 257.5441,305.8455" stroke="black" stroke-width="1" /><polyline fill="none" points="246.4652,308.9159 247.2729,310.7147 246.4714,312.823 244.6732,313.6304 242.858,314.4453 240.7659,313.6362 239.9582,311.8374 239.5416,310.9095 239.1251,309.9817 238.7085,309.0539 237.9008,307.255 238.6866,305.1545 240.5018,304.3396 242.3,303.5322 244.4078,304.3335 245.2155,306.1324 246.6106,309.2396 248.0057,312.3469 249.4007,315.4541 250.2083,317.2527 249.4066,319.3607 247.6084,320.168 246.0591,320.8636 244.2995,320.3757 243.3091,319.0916" stroke="black" stroke-width="1" /><polyline fill="none" points="234.9346,313.8147 235.5702,315.6813 234.5749,317.7053 232.709,318.3407 230.8255,318.9821 228.8183,317.9806 228.1826,316.114 227.8547,315.1513 227.5269,314.1885 227.199,313.2257 226.5634,311.3592 227.5424,309.3415 229.4259,308.7001 231.2918,308.0646 233.3153,309.0598 233.951,310.9264 235.049,314.1506 236.147,317.3749 237.245,320.5991 237.8805,322.4654 236.885,324.489 235.0191,325.1245 233.4115,325.6719 231.7053,325.0214 230.8395,323.6501" stroke="black" stroke-width="1" /><polyline fill="none" points="222.9959,317.6122 223.454,319.5302 222.2734,321.4521 220.3562,321.91 218.4209,322.3722 216.5164,321.1871 216.0583,319.2692 215.822,318.28 215.5857,317.2908 215.3495,316.3015 214.8914,314.3836 216.0551,312.4665 217.9904,312.0043 219.9076,311.5464 221.829,312.7266 222.2871,314.6446 223.0783,317.9575 223.8696,321.2703 224.6608,324.5833 225.1188,326.5008 223.9382,328.4223 222.021,328.8802 220.3692,329.2747 218.7314,328.4673 217.9978,327.021" stroke="black" stroke-width="1" /><polyline fill="none" points="211.6043,327.6008 211.8543,329.3665 210.5987,331.1375 208.68,331.4092 206.7622,331.6808 205.0582,330.4146 204.7746,328.4117 204.7297,328.095 204.6849,327.7782 204.64,327.4615 204.2073,324.4058 206.8006,323.5195 207.1407,323.4713 207.4688,323.4249 207.7968,323.3784 208.1249,323.332 207.7968,323.3784 207.4688,323.4249 207.1407,323.4713 206.1386,323.6133 203.8312,322.7276 203.4947,320.3516 203.3961,319.6554 203.2975,318.9592 203.199,318.2631 202.9202,316.2944 204.2953,314.5064 206.2646,314.2275 208.251,313.9463 210.0508,315.2847 210.3295,317.2534" stroke="black" stroke-width="1" /><polyline fill="none" points="194.8646,324.5859 193.2421,324.5605 191.5544,326.1404 191.6465,328.1015 191.6679,328.5579 191.6893,329.0143 191.7107,329.4708 191.7975,331.3209 193.3766,332.7571 195.2439,332.6695 197.0937,332.5827 198.5291,330.9704 198.4439,329.1548 198.4225,328.6984 198.401,328.2419 198.3796,327.7855 198.2928,325.935 196.7144,324.4991 194.8646,324.5859 192.8264,324.6816 191.1541,323.0953 191.0617,321.1263 191.0301,320.4527 190.9985,319.779 190.9669,319.1053 190.8745,317.1359 192.3925,315.4336 194.4307,315.338 196.4517,315.2431 198.1214,316.7959 198.2138,318.7652 198.2459,319.4501 198.2781,320.1349 198.3102,320.8198 198.3894,322.508 197.0636,324.3812" stroke="black" stroke-width="1" /><polyline fill="none" points="185.793,322.1137 185.7006,324.0834 184.0329,325.6019 182.0639,325.5095 180.0763,325.4163 178.5757,323.7491 178.6681,321.7794 178.7157,320.7634 178.7634,319.7475 178.8111,318.7315 178.9035,316.7618 180.5537,315.2432 182.5412,315.3365 184.5102,315.4288 186.0284,317.0962 185.936,319.0659 185.7764,322.4682 185.6167,325.8705 185.457,329.2728 185.3646,331.2422 183.6969,332.7604 181.728,332.668 180.0316,332.5884 178.6823,331.358 178.3792,329.7649" stroke="black" stroke-width="1" /><polyline fill="none" points="169.3784,323.3861 167.7891,323.0586 165.8364,324.296 165.5612,326.2399 165.4971,326.6923 165.4331,327.1447 165.369,327.5971 165.1093,329.431 166.3929,331.1365 168.2438,331.3986 170.0774,331.6582 171.7882,330.3418 172.043,328.5422 172.1071,328.0898 172.1711,327.6374 172.2352,327.185 172.4949,325.3507 171.212,323.6457 169.3784,323.3861 167.3581,323.1 166.0109,321.2297 166.2873,319.2781 166.3818,318.6103 166.4764,317.9425 166.571,317.2747 166.8474,315.3228 168.6562,313.9333 170.6765,314.2194 172.6797,314.503 174.0306,316.3399 173.7542,318.2919 173.6581,318.9708 173.562,319.6496 173.4658,320.3285 173.2289,322.0018 171.577,323.595" stroke="black" stroke-width="1" /><polyline fill="none" points="152.8988,321.579 153.3569,319.6611 155.2619,318.4773 157.1799,318.9353 159.1144,319.3974 160.2945,321.3181 159.8365,323.236 159.6001,324.2254 159.3638,325.2149 159.1275,326.2044 158.6694,328.1223 156.7486,329.3031 154.8303,328.8449 152.8961,328.3829 151.7318,326.4653 152.1899,324.5474 152.9811,321.2345 153.7724,317.9216 154.5636,314.6087 155.0216,312.6912 156.9267,311.507 158.8446,311.9651 160.4954,312.3593 161.5925,313.8203 161.5932,315.4424" stroke="black" stroke-width="1" /><polyline fill="none" points="141.6841,315.9587 141.6823,315.9639 141.6806,315.9691 141.6788,315.9743 142.4304,313.7672 143.182,311.5602 143.9336,309.3531 144.2809,308.3331 143.6985,307.6979 143.1644,307.516 143.8463,307.7482 144.216,308.5238 143.9777,309.2237 143.963,309.2668 143.9483,309.31 143.9336,309.3531 145.2879,308.7821 146.7423,308.5529 148.1538,309.0336 149.3226,309.4316 151.0226,310.6629 150.2102,313.0485 149.7845,314.2984 148.8164,314.8557 147.6664,314.9342 147.1079,314.9799 145.4598,314.7631 144.3497,314.6204 143.2176,314.4881 142.1097,314.7088 141.6841,315.9587 141.253,317.2245 142.0161,319.186 143.9635,319.8492 145.798,320.4739 146.9457,319.8691 147.7634,319.2239" stroke="black" stroke-width="1" /><polyline fill="none" points="136.3123,313.2297 135.4977,315.0443 133.3804,315.7845 131.6438,315.0049 129.9078,314.2254 129.0692,312.158 129.8839,310.3435 130.5018,308.9672 131.1197,307.5909 131.7376,306.2147 132.5522,304.4005 134.6547,303.6528 136.3907,304.4323 138.1273,305.212 138.9653,307.2799 138.1508,309.0941 138.1559,309.0963 138.161,309.0986 138.1661,309.101 136.2841,313.2925 134.4022,317.4841 132.5203,321.6757" stroke="black" stroke-width="1" /><polyline fill="none" points="121.0563,300.4344 122.0371,298.7045 124.2004,298.157 125.8561,299.0957 127.5118,300.0345 128.1674,302.1802 127.1865,303.9102 126.4424,305.2225 125.6984,306.5349 124.9543,307.8473 123.9733,309.5775 121.7957,310.1161 120.14,309.1774 118.4844,308.2386 117.843,306.1018 118.824,304.3716" stroke="black" stroke-width="1" /><polyline fill="none" points="114.9342,300.0707 113.8053,301.6874 111.5846,302.0822 109.9685,300.9537 108.3371,299.8146 107.9572,297.6038 109.0861,295.9871 109.6683,295.1532 110.2506,294.3193 110.8329,293.4855 111.9618,291.8687 114.1677,291.4645 115.7991,292.6036 117.4152,293.7321 117.8099,295.9523 116.681,297.569 114.731,300.3616 112.781,303.1543 110.831,305.9469 109.7023,307.5634 107.4818,307.9579 105.8657,306.8293 104.4733,305.8571 103.9884,304.0967 104.5818,302.5874" stroke="black" stroke-width="1" /><polyline fill="none" points="101.3678,285.8959 102.6539,284.3792 104.8814,284.2446 106.333,285.4756 107.7846,286.7066 108.0286,288.937 106.7424,290.4537 105.7667,291.6043 104.791,292.7549 103.8152,293.9055 102.5288,295.4225 100.289,295.5456 98.8374,294.3146 97.3858,293.0836 97.1541,290.8647 98.4406,289.3477" stroke="black" stroke-width="1" /><polyline fill="none" points="85.2915,284.2837 89.3896,283.6046 93.4877,282.9255 97.5857,282.2464 95.1492,284.6265 92.7127,287.0065 90.2762,289.3866 88.8656,290.7645 86.61,290.7375 85.2327,289.3275 83.8423,287.9041 83.881,285.6616 85.2915,284.2837 87.7281,281.9036 90.1646,279.5236 92.6011,277.1435 94.0117,275.7656 96.254,275.7801 97.6321,277.1909 99.0217,278.6134 98.9963,280.8685 97.5857,282.2464" stroke="black" stroke-width="1" /><polyline fill="none" points="84.7354,267.9411 86.2818,266.6908 88.4953,266.9739 89.6919,268.454 90.8886,269.9341 90.7124,272.1708 89.1659,273.4211 87.9928,274.3696 86.8196,275.3181 85.6465,276.2666 84.0997,277.5171 81.8763,277.2205 80.6796,275.7404 79.483,274.2603 79.6692,272.037 81.2159,270.7866" stroke="black" stroke-width="1" /><polyline fill="none" points="73.1698,269.2761 71.527,270.3668 69.3167,269.9201 68.226,268.2774 67.1256,266.6201 67.5816,264.3624 69.2243,263.2717 69.8679,262.8444 70.3806,262.6888 70.819,262.6652 75.2543,262.4237 79.6896,262.1823 84.1249,261.9407 84.2437,261.8619 84.3625,261.783 84.4813,261.7041 83.1725,259.7328 81.8636,257.7614 80.5547,255.7901" stroke="black" stroke-width="1" /><polyline fill="none" points="65.1672,258.8251 63.0821,259.9435 59.7181,253.6721 77.1845,249.9659" stroke="black" stroke-width="1" /><polyline fill="none" points="60.1441,238.5223 61.9614,237.757 64.0429,238.5927 64.8081,240.41 65.58,242.2431 64.7296,244.3307 62.9123,245.096 61.9747,245.4908 61.0372,245.8856 60.0996,246.2804 58.2823,247.0457 56.194,246.1955 55.4286,244.3779 54.6568,242.5451 55.5141,240.472 57.3314,239.7067 60.4706,238.3849 63.6097,237.063 66.7488,235.7411 68.5657,234.976 70.6475,235.8115 71.4128,237.6288 72.0714,239.193 71.5425,240.9418 70.2351,241.9019" stroke="black" stroke-width="1" /><polyline fill="none" points="56.024,226.2831 57.905,225.6914 59.899,226.7182 60.4907,228.5992 61.0876,230.4966 60.0454,232.4954 58.1644,233.0871 57.194,233.3924 56.2236,233.6977 55.2532,234.003 53.3722,234.5947 51.3727,233.5527 50.7808,231.6714 50.1841,229.7744 51.2318,227.7906 53.1127,227.1989 56.3618,226.1768 59.6109,225.1547 62.86,224.1326 64.7407,223.541 66.735,224.5677 67.3268,226.4487 67.8361,228.0677 67.1458,229.7593 65.7542,230.5928" stroke="black" stroke-width="1" /><polyline fill="none" points="47.1347,216.8323 47.3428,217.8038 48.1022,218.4831 49.3427,218.2174 50.5441,217.9601 51.7455,217.7027 52.9468,217.4454 52.82,216.8532 52.6931,216.261 52.5663,215.6689 52.8105,216.8089 53.0547,217.9489 53.2989,219.0889 53.1815,218.5411 53.0642,217.9932 52.9468,217.4454 56.6404,216.6543 60.3341,215.8631 64.0277,215.072" stroke="black" stroke-width="1" /><polyline fill="none" points="45.1028,203.4701 45.219,204.4569 45.9115,205.2043 47.1714,205.0559 48.3916,204.9122 49.6118,204.7686 50.832,204.6249 50.7611,204.0234 50.6903,203.4219 50.6195,202.8205 50.7558,203.9783 50.8922,205.1362 51.0285,206.2941 50.963,205.7377 50.8975,205.1813 50.832,204.6249 54.5834,204.1831 58.3349,203.7413 62.0864,203.2995" stroke="black" stroke-width="1" /><polyline fill="none" points="44.331,189.9764 44.3543,190.9697 44.9738,191.7787 46.2421,191.7489 47.4704,191.7201 48.6986,191.6913 49.9269,191.6625 49.9127,191.0571 49.8985,190.4516 49.8843,189.8462 49.9117,191.0117 49.939,192.1773 49.9663,193.3428 49.9532,192.7827 49.9401,192.2226 49.9269,191.6625 53.7033,191.574 57.4796,191.4854 61.256,191.3969" stroke="black" stroke-width="1" /><polyline fill="none" points="44.7691,175.4523 44.6248,177.4993 44.4806,179.5463 44.3364,181.5933 47.0331,181.7833 49.7297,181.9733 52.4263,182.1633 51.2579,181.4279 50.6224,180.4372 50.7272,178.9494 50.8718,176.8969 52.6772,175.4258 54.575,175.5595 55.9318,175.6551 57.2887,175.7507 58.6455,175.8463 60.6292,175.986 61.9711,177.6788 61.8397,179.5436 61.7096,181.3905 60.1448,182.8614 58.1611,182.7216" stroke="black" stroke-width="1" /><polyline fill="none" points="48.8768,168.7975 47.1175,168.5061 45.8048,166.7769 46.1214,164.8651 46.4378,162.9542 48.157,161.7087 50.1527,162.0392 50.4683,162.0914 50.7839,162.1437 51.0995,162.196 54.1442,162.7002 54.2115,165.4398 54.1553,165.7788 54.1012,166.1057 54.0471,166.4325 53.993,166.7594 54.0471,166.4325 54.1012,166.1057 54.1553,165.7788 54.3207,164.7802 55.8579,162.8449 58.2254,163.237 58.9191,163.3519 59.6128,163.4668 60.3064,163.5816 62.268,163.9065 63.561,165.7547 63.236,167.717 62.9082,169.6962 61.0914,171.0114 59.1299,170.6865" stroke="black" stroke-width="1" /><polyline fill="none" points="56.9199,157.3916 54.9966,156.8843 53.9204,154.9164 54.4059,153.0757 54.8912,151.2357 56.7939,150.0706 58.7171,150.5779 60.1758,150.9627 61.6345,151.3474 63.0933,151.7322 65.0162,152.2394 66.0973,154.1915 65.612,156.0315 65.1265,157.8722 63.2232,159.0368 61.3004,158.5296 61.2989,158.535 61.2975,158.5404 61.2961,158.5458 56.8533,157.374 52.4106,156.2021 47.9678,155.0303" stroke="black" stroke-width="1" /><polyline fill="none" points="62.1738,138.709 62.1686,138.7071 62.1635,138.7052 62.1584,138.7034 64.3472,139.5065 66.536,140.3096 68.7248,141.1127 69.7364,141.4839 70.3851,140.9166 70.5795,140.3868 70.3314,141.0631 69.5473,141.4145 68.8532,141.1599 68.8104,141.1442 68.7676,141.1284 68.7248,141.1127 69.264,142.4801 69.459,143.9394 68.9453,145.3393 68.52,146.4984 67.2492,148.1691 64.8834,147.301 63.6438,146.8461 63.1093,145.8652 63.0578,144.7137 63.0253,144.1543 63.2806,142.5117 63.4492,141.4052 63.6081,140.2766 63.4134,139.1638 62.1738,138.709 60.9184,138.2484 58.9396,138.9653 58.2309,140.8966 57.5634,142.716 58.1412,143.8775 58.767,144.7101" stroke="black" stroke-width="1" /><polyline fill="none" points="59.5438,123.6993 58.6596,125.5512 57.7755,127.403 56.8913,129.2549 59.3308,130.4196 61.7703,131.5844 64.2098,132.7492 63.3921,131.6368 63.1637,130.4822 63.8064,129.1362 64.6929,127.2794 66.9117,126.5721 68.6286,127.3918 69.8561,127.9779 71.0835,128.5639 72.311,129.15 74.1055,130.0068 74.7339,132.0736 73.9285,133.7605 73.1307,135.4313 71.1359,136.2266 69.3413,135.3698" stroke="black" stroke-width="1" /><polyline fill="none" points="66.2935,111.4659 70.2363,113.8251 74.179,116.1844 78.1217,118.5436 79.8285,119.5649 80.3164,121.7544 79.3389,123.3879 78.3704,125.0064 76.2102,125.6117 74.5034,124.5904 73.2089,123.8158 71.9143,123.0412 70.6197,122.2665 68.913,121.2452 68.4259,119.0558 69.3943,117.4373 70.3718,115.8038 72.5313,115.1984 74.238,116.2197" stroke="black" stroke-width="1" /><polyline fill="none" points="80.9642,105.5933 80.9598,105.5901 80.9554,105.5868 80.951,105.5836 82.8308,106.9629 84.7106,108.3421 86.5904,109.7214 87.4591,110.3588 88.2399,109.9939 88.5737,109.5389 88.1475,110.1197 87.2967,110.2396 86.7006,109.8023 86.6639,109.7753 86.6271,109.7483 86.5904,109.7214 86.7287,111.1846 86.5108,112.6407 85.6287,113.843 84.8983,114.8384 83.2137,116.0906 81.1818,114.5998 80.1173,113.8187 79.8762,112.7279 80.1463,111.6074 80.2704,111.0609 80.9718,109.5538 81.441,108.5376 81.907,107.4975 82.0288,106.3744 80.9642,105.5933 79.8861,104.8023 77.786,104.9416 76.5691,106.6002 75.4226,108.1627 75.6552,109.439 76.0252,110.4126" stroke="black" stroke-width="1" /><polyline fill="none" points="79.9949,96.94 78.2266,95.3677 82.9555,90.0493 92.4515,105.1702" stroke="black" stroke-width="1" /><polyline fill="none" points="93.8001,91.9962 92.4439,90.5412 92.5834,88.3026 93.9759,87.0047 95.368,85.7072 97.5988,85.7367 98.9549,87.1917 99.9835,88.2953 101.0121,89.3989 102.0407,90.5025 103.3966,91.9573 103.2697,94.1852 101.8776,95.4826 100.4851,96.7805 98.254,96.7503 96.8981,95.2955 96.894,95.2994 96.8899,95.3032 96.8858,95.307 93.7531,91.9458 90.6205,88.5847 87.4878,85.2235" stroke="black" stroke-width="1" /><polyline fill="none" points="104.1473,84.844 102.9439,83.282 103.2337,81.0452 104.7951,79.8421 106.3713,78.6278 108.5942,78.9288 109.7976,80.4908 110.4183,81.2965 111.0391,82.1021 111.6598,82.9078 112.8632,84.4699 112.5869,86.6954 111.0107,87.9098 109.4492,89.1128 107.2129,88.8231 106.0095,87.261 103.9307,84.5629 101.852,81.8647 99.7732,79.1665 98.57,77.6048 98.86,75.3683 100.4214,74.1653 101.7667,73.1288 103.5915,73.1945 104.8532,74.2135" stroke="black" stroke-width="1" /><polyline fill="none" points="111.4369,70.5034 111.8837,66.228 121.0291,80.7287" stroke="black" stroke-width="1" /><polyline fill="none" points="124.9543,70.9334 124.0633,69.1744 124.765,67.0309 126.5234,66.1401 128.2984,65.241 130.4262,65.9511 131.3172,67.7101 131.7769,68.6174 132.2365,69.5247 132.6961,70.432 133.5872,72.191 132.9007,74.326 131.1257,75.2252 129.3673,76.1159 127.2243,75.4143 126.3332,73.6553 124.794,70.6169 123.2548,67.5784 121.7156,64.5399 120.8246,62.7812 121.5266,60.638 123.285,59.7473 124.7999,58.9798 126.5805,59.3846 127.63,60.621" stroke="black" stroke-width="1" /><polyline fill="none" points="144.3796,69.2222 142.8029,65.2181 137.1225,67.4548 137.6837,53.4338" stroke="black" stroke-width="1" /><polyline fill="none" points="147.9902,61.1465 147.4428,59.2522 148.5319,57.2771 150.4256,56.7299 152.3371,56.1774 154.2951,57.2719 154.8426,59.1662 155.1249,60.1433 155.4073,61.1204 155.6897,62.0974 156.2372,63.9918 155.1646,65.9613 153.2531,66.5137 151.3595,67.061 149.3848,65.9721 148.8374,64.0778 147.8917,60.8056 146.946,57.5334 146.0004,54.2613 145.453,52.3673 146.5423,50.3925 148.4359,49.8453 150.0674,49.3738 151.7412,50.1035 152.5418,51.5139" stroke="black" stroke-width="1" /><polyline fill="none" points="167.3939,63.0873 166.5915,58.8594 160.5937,59.9977 163.7594,46.3273" stroke="black" stroke-width="1" /><polyline fill="none" points="212.8599,122.0756 188.8365,96.1804 136.578,231.1149 140.8637,108.5745 156.5688,130.1462 280.8196,188.8365 250.763,172.1919 136.578,231.1149 239.8942,231.6324 250.763,172.1919" stroke="black" stroke-width="1" /><polyline fill="none" points="233.4072,169.0184 268.1189,175.3654" stroke="black" stroke-width="1" /><polyline fill="none" points="232.6221,130.6987 232.4773,128.8586 232.0464,127.0639 231.3401,125.3586 230.3757,123.7849 229.177,122.3814 227.7735,121.1827 226.1998,120.2183 224.4945,119.5119 222.6998,119.0811 220.8597,118.9362 219.0197,119.0811 217.225,119.5119 215.5197,120.2183 213.946,121.1827 212.5425,122.3814 211.3438,123.7849 210.3794,125.3586 209.673,127.0639 209.2422,128.8586 209.0973,130.6987 209.2422,132.5387 209.673,134.3334 210.3794,136.0387 211.3438,137.6124 212.5425,139.0159 213.946,140.2146 215.5197,141.179 217.2249,141.8854 219.0197,142.3162 220.8597,142.4611 222.6998,142.3162 224.4945,141.8854 226.1998,141.179 227.7735,140.2146 229.177,139.0159 230.3757,137.6124 231.3401,136.0387 232.0464,134.3334 232.4773,132.5387 232.6221,130.6987" stroke="black" stroke-width="1" /><polyline fill="none" points="188.5,69.0664 199.6839,69.5912 210.7696,71.161 221.6595,73.7619 232.2581,77.3712 242.4721,81.9571 252.2118,87.4792 261.3915,93.8892 269.9308,101.1306 277.7544,109.1398 284.7936,117.8464 290.9866,127.1739 296.2789,137.0404 300.6241,147.3591 303.9839,158.0393 306.3289,168.9873 307.6383,180.1067 307.9008,191.2998 307.114,202.4684 305.2847,213.5142 302.4292,224.3402 298.5725,234.8512 293.7484,244.9549 287.9994,254.5625 281.376,263.5894 273.9365,271.9565 265.7461,279.5902 256.8768,286.4234 247.4067,292.3961 237.4188,297.4556 227.0011,301.5577 216.2451,304.6663 205.2452,306.7539 194.0981,307.8023 182.9019,307.8023 171.7548,306.7539 160.7549,304.6663 149.9989,301.5577 139.5811,297.4556 129.5933,292.3961 120.1232,286.4234 111.2539,279.5902 103.0635,271.9565 95.6239,263.5894 89.0006,254.5625 83.2516,244.9549 78.4275,234.8512 74.5708,224.3402 71.7153,213.5142 69.8861,202.4684 69.0992,191.2998 69.3617,180.1067 70.6712,168.9872 73.0161,158.0393 76.3759,147.3591 80.7211,137.0404 86.0134,127.174 92.2064,117.8464 99.2457,109.1398 107.0692,101.1306 115.6085,93.8892 124.7882,87.4792 134.5279,81.957 144.7419,77.3712 155.3405,73.7619 166.2304,71.161 177.3161,69.5912 188.5,69.0664" stroke="black" stroke-width="1" />

    </g>
  </g>
  <WCB
     pausedposy="0"
     pausedposx="0"
     lastknownposy="0"
     lastknownposx="0"
     lastpathnc="0"
     lastpath="0"
     node="0"
     layer="0" />
</svg>
