<?xml version="1.0" encoding="UTF-8" standalone="no"?>
<!-- Created with Inkscape (http://www.inkscape.org/) -->

<svg
   xmlns:dc="http://purl.org/dc/elements/1.1/"
   xmlns:cc="http://creativecommons.org/ns#"
   xmlns:rdf="http://www.w3.org/1999/02/22-rdf-syntax-ns#"
   xmlns:svg="http://www.w3.org/2000/svg"
   xmlns="http://www.w3.org/2000/svg"
   xmlns:sodipodi="http://sodipodi.sourceforge.net/DTD/sodipodi-0.dtd"
   xmlns:inkscape="http://www.inkscape.org/namespaces/inkscape"
   width="100mm"
   height="100mm"
   viewBox="0 0 100 100"
   version="1.1"
   id="svg19124"
   inkscape:version="0.92.3 (2405546, 2018-03-11)"
   sodipodi:docname="inkscape_template_TMP.svg"
   shape-rendering="crispEdges">
  <sodipodi:namedview
     pagecolor="#ffffff"
     bordercolor="#666666"
     borderopacity="1"
     objecttolerance="10"
     gridtolerance="10"
     guidetolerance="10"
     inkscape:pageopacity="0"
     inkscape:pageshadow="2"
     inkscape:window-width="1568"
     inkscape:window-height="1550"
     id="namedview24021"
     showgrid="false"
     inkscape:zoom="0.62441667"
     inkscape:cx="712.66515"
     inkscape:cy="409.98265"
     inkscape:window-x="0"
     inkscape:window-y="0"
     inkscape:window-maximized="0"
     inkscape:current-layer="layer1" />
  <defs
     id="defs19118" />
  <metadata
     id="metadata19121">
    <rdf:RDF>
      <cc:Work
         rdf:about="">
        <dc:format>image/svg+xml</dc:format>
        <dc:type
           rdf:resource="http://purl.org/dc/dcmitype/StillImage" />
        <dc:title />
      </cc:Work>
    </rdf:RDF>
  </metadata>
  <g
     transform="translate(0,-197)"
     id="layer1"
     inkscape:groupmode="layer"
     inkscape:label="Layer 1">
    <g
       id="g24447"
       transform="matrix(0.26458333,0,0,0.26458333,0.10666333,197.9735)">

<polyline fill="none" points="192.1004,47.7394 189.7225,51.1455 187.3447,54.5516 184.9669,57.9577 184.9669,54.5516 184.9669,51.1455 184.9669,47.7394 184.9669,45.7676 186.5623,44.1729 188.5334,44.1729 190.5231,44.1729 192.1004,45.7676 192.1004,47.7394 192.1004,51.1455 192.1004,54.5516 192.1004,57.9577 192.1004,59.9295 190.5231,61.5235 188.5509,61.5235 186.5623,61.5235 184.9669,59.9295 184.9669,57.9577" stroke="black" stroke-width="1" /><polyline fill="none" points="197.8298,61.5877 200.7471,57.7851 198.696,53.7706 202.935,62.0679 200.7471,57.7851 203.4811,54.2207" stroke="black" stroke-width="1" /><polyline fill="none" points="218.7234,47.237 217.8667,51.7512 217.01,56.2653 216.1533,60.7794 215.7824,62.7335 213.895,63.9457 212.0247,63.5908 210.1717,63.2391 208.8593,61.4196 209.2302,59.4654 209.5115,57.9833 209.7928,56.5011 210.0741,55.0189 210.4449,53.0648 212.3326,51.8533 214.1856,52.205 216.0559,52.56 217.368,54.3788 216.9972,56.3329" stroke="black" stroke-width="1" /><polyline fill="none" points="228.0957,63.9602 227.5436,65.8707 225.5666,66.9057 223.7382,66.3773 221.9097,65.8489 220.7736,63.9141 221.3257,62.0037 221.7446,60.5543 222.1634,59.105 222.5823,57.6557 223.1345,55.7449 225.1274,54.7152 226.9558,55.2436 228.7843,55.772 229.9045,57.7014 229.3523,59.6123" stroke="black" stroke-width="1" /><polyline fill="none" points="241.2387,63.3757 241.2407,63.3706 241.2427,63.3655 241.2447,63.3604 240.3905,65.5298 239.5363,67.6992 238.6821,69.8686 238.2873,70.8712 238.8393,71.5331 239.3643,71.7398 238.6941,71.4759 238.3611,70.6838 238.632,69.9959 238.6487,69.9535 238.6654,69.911 238.6821,69.8686 237.3025,70.3756 235.839,70.5363 234.4515,69.99 233.3027,69.5376 231.6623,68.228 232.5856,65.8832 233.0694,64.6546 234.0626,64.1432 235.215,64.1187 235.7749,64.0993 237.4111,64.3931 238.5133,64.5876 239.638,64.7729 240.7549,64.6043 241.2387,63.3757 241.7286,62.1315 241.0583,60.1364 239.1441,59.3827 237.341,58.6727 236.1662,59.2231 235.3191,59.8292" stroke="black" stroke-width="1" /><polyline fill="none" points="256.7555,61.182 254.6791,65.2808 252.6028,69.3796 250.5265,73.4783 249.6276,75.2527 247.4778,75.8932 245.7797,75.033 244.0971,74.1806 243.3415,72.0683 244.2403,70.294 244.9221,68.9482 245.6038,67.6024 246.2856,66.2566 247.1844,64.4822 249.3342,63.8425 251.0167,64.6948 252.7149,65.5551 253.4705,67.6666 252.5717,69.441" stroke="black" stroke-width="1" /><polyline fill="none" points="261.1025,66.494 262.3647,64.4926 268.3842,68.289 255.018,80.1278" stroke="black" stroke-width="1" /><polyline fill="none" points="268.2354,79.3059 269.4492,77.7303 271.6805,77.5021 273.1885,78.6639 274.696,79.8253 275.0314,82.031 273.8174,83.6066 272.8967,84.8017 271.976,85.9968 271.0553,87.1918 269.8416,88.7672 267.6229,89.006 266.1154,87.8446 264.6075,86.6828 264.2728,84.4767 265.4865,82.9014 265.482,82.898 265.4776,82.8946 265.4731,82.8912 268.2773,79.2514 271.0815,75.6117 273.8857,71.972" stroke="black" stroke-width="1" /><polyline fill="none" points="282.94,83.8913 287.188,83.2328 275.4993,95.7741" stroke="black" stroke-width="1" /><polyline fill="none" points="290.324,97.9917 291.3244,99.2694 293.614,99.5885 295.0811,98.284 295.4226,97.9803 295.7641,97.6767 296.1055,97.3731 297.4897,96.1424 297.6137,94.0115 296.3716,92.6145 295.1411,91.2306 292.9849,91.1281 291.6266,92.3358 291.2851,92.6394 290.9437,92.943 290.6022,93.2466 289.2178,94.4776 289.0935,96.6077 290.324,97.9917 291.6798,99.5165 291.4977,101.8143 290.0246,103.124 289.5206,103.5722 289.0166,104.0203 288.5126,104.4684 287.0393,105.7785 284.7611,105.6683 283.4053,104.1435 282.0609,102.6314 282.2186,100.3568 283.6919,99.0468 284.2043,98.5912 284.7167,98.1356 285.2291,97.68 286.4921,96.557 288.7823,96.4104" stroke="black" stroke-width="1" /><polyline fill="none" points="300.1586,102.3885 301.5964,101.3335 303.7506,101.6028 304.897,103.1653 306.0428,104.7269 305.7325,106.827 304.1015,108.0237 303.8436,108.2129 303.5857,108.4022 303.3278,108.5914 300.8395,110.4171 298.8327,108.5508 298.6295,108.2738 298.4335,108.0067 298.2375,107.7396 298.0415,107.4724 298.2375,107.7396 298.4335,108.0067 298.6295,108.2738 299.2283,109.0899 299.5385,111.5419 297.6037,112.9615 297.0368,113.3774 296.4699,113.7934 295.903,114.2093 294.3,115.3855 292.0743,115.0189 290.8977,113.4153 289.7109,111.7978 290.0397,109.5792 291.6427,108.4029" stroke="black" stroke-width="1" /><polyline fill="none" points="307.7316,113.2227 309.2618,112.3071 311.3813,112.7769 312.3764,114.4398 313.371,116.1018 312.8654,118.1637 311.1295,119.2024 310.855,119.3667 310.5805,119.5309 310.306,119.6952 307.6577,121.2799 305.8345,119.2338 305.6581,118.939 305.4879,118.6547 305.3178,118.3704 305.1477,118.0861 305.3178,118.3704 305.4879,118.6547 305.6581,118.939 306.1778,119.8076 306.257,122.2778 304.1978,123.51 303.5945,123.871 302.9911,124.2321 302.3878,124.5931 300.6816,125.6141 298.5001,125.0406 297.4788,123.3339 296.4487,121.6124 296.9838,119.4343 298.6899,118.4133" stroke="black" stroke-width="1" /><polyline fill="none" points="319.9678,128.9598 319.0836,127.108 318.1995,125.2561 317.3153,123.4043 314.8758,124.569 312.4363,125.7338 309.9968,126.8986 311.3759,126.962 312.4174,127.5104 313.06,128.8563 313.9465,130.7131 313.1016,132.8833 311.3846,133.703 310.1572,134.2891 308.9298,134.8751 307.7023,135.4612 305.9078,136.318 303.9055,135.5072 303.1001,133.8203 302.3023,132.1495 302.9381,130.0982 304.7327,129.2413" stroke="black" stroke-width="1" /><polyline fill="none" points="319.0594,144.549 317.2083,145.2282 315.1683,144.2959 314.4891,142.4448 313.8039,140.5775 314.7513,138.532 316.6024,137.8528 317.5575,137.5023 318.5125,137.1519 319.4676,136.8015 321.3187,136.1223 323.3649,137.0694 324.0443,138.9209 324.7293,140.7878 323.7757,142.8185 321.9246,143.4977 318.7269,144.671 315.5293,145.8443 312.3317,147.0175 310.4809,147.6967 308.4406,146.7645 307.7613,144.9133 307.1767,143.32 307.787,141.5979 309.1379,140.7001" stroke="black" stroke-width="1" /><polyline fill="none" points="318.3056,150.6639 320.2288,150.1566 322.1356,151.3376 322.6212,153.1783 323.1065,155.0183 322.026,156.9702 320.1028,157.4775 318.6441,157.8623 317.1853,158.247 315.7266,158.6318 313.8037,159.139 311.9004,157.974 311.4151,156.1341 310.9296,154.2934 312.0108,152.3416 313.9337,151.8344 313.9323,151.829 313.9308,151.8236 313.9294,151.8182 318.3721,150.6463 322.8149,149.4745 327.2576,148.3026" stroke="black" stroke-width="1" /><polyline fill="none" points="317.9472,170.5722 315.9853,170.897 314.1994,169.559 313.8884,167.6813 313.5775,165.8036 314.834,163.9447 316.7958,163.6198 318.2842,163.3733 319.7726,163.1269 321.2609,162.8804 323.2232,162.5554 325.0111,163.9102 325.3221,165.7879 325.633,167.6656 324.3745,169.5078 322.4123,169.8327" stroke="black" stroke-width="1" /><polyline fill="none" points="328.8806,175.2283 330.6594,175.103 332.3379,176.4799 332.4741,178.4131 332.6102,180.3451 331.2274,181.956 329.2095,182.0981 328.8904,182.1206 328.5713,182.1431 328.2522,182.1656 325.1736,182.3825 324.4718,179.7334 324.4477,179.3906 324.4244,179.0601 324.4011,178.7296 324.3778,178.3991 324.4011,178.7296 324.4244,179.0601 324.4477,179.3906 324.5188,180.4003 323.4732,182.6397 321.0794,182.8084 320.378,182.8578 319.6766,182.9072 318.9753,182.9566 316.9919,183.0964 315.3049,181.599 315.1652,179.6149 315.0242,177.6137 316.4858,175.9125 318.4691,175.7728" stroke="black" stroke-width="1" /><polyline fill="none" points="319.0198,195.0233 317.0317,194.9767 315.5267,193.3291 315.5713,191.4263 315.6159,189.5236 317.197,187.9316 319.185,187.9782 320.6932,188.0135 322.2014,188.0489 323.7097,188.0843 325.6981,188.1309 327.2021,189.7953 327.1574,191.698 327.1129,193.6008 325.5329,195.176 323.5445,195.1294" stroke="black" stroke-width="1" /><polyline fill="none" points="331.4614,208.2704 331.7014,206.2324 331.9414,204.1944 332.1814,202.1564 329.4966,201.8402 326.8119,201.5241 324.1271,201.2079 325.2598,201.9972 325.8481,203.0166 325.6737,204.4979 325.4331,206.5413 323.5607,207.9262 321.6712,207.7037 320.3204,207.5446 318.9695,207.3855 317.6187,207.2265 315.6437,206.9939 314.3826,205.24 314.6013,203.3835 314.8178,201.5447 316.4498,200.1488 318.4248,200.3814" stroke="black" stroke-width="1" /><polyline fill="none" points="327.0463,214.7253 328.79,215.0988 330.0202,216.8876 329.6143,218.7826 329.2086,220.6765 327.433,221.8401 325.455,221.4164 325.1422,221.3494 324.8293,221.2824 324.5165,221.2154 321.4988,220.569 321.5601,217.8292 321.632,217.4933 321.7014,217.1693 321.7708,216.8453 321.8402,216.5213 321.7708,216.8453 321.7014,217.1693 321.632,217.4933 321.42,218.483 319.7938,220.3441 317.4473,219.8415 316.7598,219.6942 316.0722,219.547 315.3847,219.3997 313.4405,218.9833 312.2356,217.0764 312.6522,215.1315 313.0723,213.1699 314.9488,211.9413 316.893,212.3578" stroke="black" stroke-width="1" /><polyline fill="none" points="325.4485,233.5773 325.7467,232.6295 325.4211,231.6641 324.2109,231.2834 323.0389,230.9147 321.8669,230.546 320.6949,230.1773 320.5132,230.755 320.3315,231.3327 320.1497,231.9104 320.4996,230.7983 320.8494,229.6861 321.1993,228.574 321.0312,229.1084 320.8631,229.6429 320.6949,230.1773 317.0916,229.0438 313.4883,227.9102 309.885,226.7767" stroke="black" stroke-width="1" /><polyline fill="none" points="320.2999,247.6393 316.0654,245.8561 311.8308,244.073 307.5963,242.2898 305.7632,241.5179 304.9731,239.4185 305.7119,237.664 306.4438,235.9257 308.4979,235.0235 310.331,235.7955 311.7214,236.381 313.1118,236.9664 314.5021,237.5519 316.3353,238.3238 317.1245,240.4233 316.3925,242.1616 315.6537,243.916 313.6005,244.8182 311.7674,244.0463" stroke="black" stroke-width="1" /><polyline fill="none" points="314.6417,258.3222 315.1114,257.4466 314.9714,256.4374 313.8535,255.8377 312.7708,255.257 311.6881,254.6762 310.6054,254.0955 310.3192,254.6292 310.0329,255.1628 309.7466,255.6965 310.2977,254.6691 310.8488,253.6417 311.3999,252.6143 311.1351,253.108 310.8702,253.6017 310.6054,254.0955 307.2767,252.3099 303.9479,250.5244 300.6192,248.7389" stroke="black" stroke-width="1" /><polyline fill="none" points="301.9847,263.8732 301.0043,265.1663 301.2797,267.4616 302.9153,268.5475 303.296,268.8003 303.6766,269.053 304.0573,269.3057 305.6003,270.3303 307.6924,269.9067 308.7264,268.3494 309.7508,266.8066 309.2999,264.6956 307.7857,263.6902 307.4051,263.4374 307.0244,263.1847 306.6437,262.932 305.1004,261.9073 303.009,262.3304 301.9847,263.8732 300.856,265.5731 298.5878,265.983 296.9457,264.8927 296.3838,264.5196 295.822,264.1466 295.2601,263.7735 293.6176,262.683 293.1431,260.4521 294.2717,258.7522 295.3909,257.0666 297.6306,256.639 299.273,257.7295 299.8442,258.1088 300.4154,258.488 300.9865,258.8672 302.3945,259.8021 303.1205,261.9792" stroke="black" stroke-width="1" /><polyline fill="none" points="294.428,274.1689 293.3309,275.3645 293.3901,277.6755 294.9168,278.9099 295.2721,279.1971 295.6274,279.4844 295.9828,279.7716 297.4231,280.9362 299.5457,280.7104 300.7209,279.2567 301.8853,277.8166 301.6341,275.6726 300.2207,274.5299 299.8654,274.2426 299.51,273.9554 299.1547,273.6681 297.7141,272.5034 295.5923,272.7288 294.428,274.1689 293.1451,275.7556 290.8485,275.9513 289.3156,274.712 288.7912,274.288 288.2667,273.864 287.7423,273.4399 286.2092,272.2004 285.9456,269.9348 287.2285,268.3481 288.5005,266.7747 290.7704,266.5588 292.3035,267.7983 292.8367,268.2293 293.3698,268.6604 293.903,269.0915 295.2173,270.154 295.7361,272.3895" stroke="black" stroke-width="1" /><polyline fill="none" points="287.6192,280.459 289.042,281.8488 289.0077,284.0915 287.6775,285.4532 286.3478,286.8145 284.118,286.8896 282.6952,285.4998 281.616,284.4456 280.5368,283.3914 279.4576,282.3372 278.0351,280.9476 278.0574,278.7162 279.3871,277.355 280.7173,275.9932 282.9473,275.9188 284.3699,277.3084 284.3738,277.3044 284.3777,277.3004 284.3816,277.2964 287.6684,280.507 290.9552,283.7177 294.242,286.9283" stroke="black" stroke-width="1" /><polyline fill="none" points="277.6186,288.0883 278.8939,289.5922 278.7093,291.8401 277.2059,293.115 275.6884,294.4019 273.4539,294.2054 272.1785,292.7015 271.5208,291.9258 270.8629,291.1501 270.2051,290.3744 268.9298,288.8705 269.1015,286.6345 270.619,285.3476 272.1224,284.0727 274.3698,284.2573 275.6452,285.7612 277.8481,288.3589 280.0511,290.9567 282.254,293.5544 283.5291,295.0581 283.3443,297.3058 281.8409,298.5806 280.5457,299.679 278.7198,299.6989 277.4118,298.7401" stroke="black" stroke-width="1" /><polyline fill="none" points="268.7191,308.4739 270.4016,307.299 272.0841,306.1242 273.7666,304.9493 272.2189,302.7329 270.6713,300.5165 269.1236,298.3 269.2863,299.671 268.9155,300.7881 267.6926,301.6419 266.0056,302.8199 263.7265,302.3409 262.6373,300.7809 261.8586,299.6658 261.0799,298.5506 260.3012,297.4354 259.1627,295.8049 259.6354,293.6971 261.1681,292.6268 262.6861,291.5668 264.8137,291.8589 265.9522,293.4894" stroke="black" stroke-width="1" /><polyline fill="none" points="249.9209,303.8493 248.9401,302.1193 249.5811,299.9819 251.2367,299.0431 252.8924,298.1044 255.0703,298.6436 256.0512,300.3736 256.7953,301.6859 257.5393,302.9983 258.2834,304.3106 259.2644,306.0409 258.6085,308.186 256.9528,309.1248 255.2971,310.0635 253.1342,309.5166 252.1532,307.7863" stroke="black" stroke-width="1" /><polyline fill="none" points="249.9838,316.4701 250.953,318.6286 244.4606,321.5435 241.9911,303.8598" stroke="black" stroke-width="1" /><polyline fill="none" points="237.7303,321.6652 238.4931,323.905 231.7563,326.1992 230.9536,308.3619" stroke="black" stroke-width="1" /><polyline fill="none" points="215.4613,312.7856 216.461,316.9712 222.3988,315.553 219.8774,329.3568" stroke="black" stroke-width="1" /><polyline fill="none" points="211.6043,327.6008 211.8543,329.3665 210.5987,331.1375 208.68,331.4092 206.7622,331.6808 205.0582,330.4146 204.7746,328.4117 204.7297,328.095 204.6849,327.7782 204.64,327.4615 204.2073,324.4058 206.8006,323.5195 207.1407,323.4713 207.4688,323.4249 207.7968,323.3784 208.1249,323.332 207.7968,323.3784 207.4688,323.4249 207.1407,323.4713 206.1386,323.6133 203.8312,322.7276 203.4947,320.3516 203.3961,319.6554 203.2975,318.9592 203.199,318.2631 202.9202,316.2944 204.2953,314.5064 206.2646,314.2275 208.251,313.9463 210.0508,315.2847 210.3295,317.2534" stroke="black" stroke-width="1" /><polyline fill="none" points="192.3519,332.7706 194.4017,332.6744 196.4516,332.5782 198.5014,332.482 198.3747,329.7816 198.248,327.0813 198.1213,324.381 197.5276,325.6273 196.618,326.3744 195.1282,326.4443 193.0728,326.5408 191.4007,324.9198 191.3115,323.0193 191.2478,321.6606 191.184,320.302 191.1203,318.9433 191.027,316.9568 192.5513,315.4262 194.4186,315.3386 196.2681,315.2518 197.9118,316.6338 198.0051,318.6202" stroke="black" stroke-width="1" /><polyline fill="none" points="178.3808,332.6051 178.5962,328.0155 178.8116,323.4258 179.0269,318.8362 179.1202,316.8494 180.819,315.3845 182.7205,315.4737 184.6046,315.5621 186.1591,317.1797 186.0659,319.1665 185.9951,320.6735 185.9244,322.1804 185.8537,323.6874 185.7605,325.6742 184.0614,327.1384 182.1773,327.05 180.2758,326.9608 178.7216,325.3439 178.8148,323.3571" stroke="black" stroke-width="1" /><polyline fill="none" points="170.9582,328.3363 167.8522,331.3082 170.2559,314.3337" stroke="black" stroke-width="1" /><polyline fill="none" points="155.1702,313.0883 155.9649,312.3439 156.9264,311.6391 158.9947,312.1331 160.8463,312.5753 162.0719,314.4543 161.5978,316.4393 161.2514,317.8898 160.9049,319.3404 160.5585,320.791 160.0964,322.7256 158.1541,323.8472 156.3025,323.405 154.4176,322.9548 153.1588,321.0686 153.6209,319.134 153.7934,318.4116 153.966,317.6891 154.1385,316.9667 156.4455,317.5176 158.7525,318.0687 161.0594,318.6197" stroke="black" stroke-width="1" /><polyline fill="none" points="148.2215,317.5686 147.5804,319.4514 145.5417,320.3867 143.7397,319.7731 141.9384,319.1597 140.9099,317.1799 141.551,315.297 142.0374,313.869 142.5237,312.4409 143.01,311.0128 143.6511,309.1303 145.6744,308.189 147.4757,308.8024 149.2777,309.4161 150.3057,311.3965 149.6646,313.279 149.6699,313.2808 149.6752,313.2826 149.6805,313.2844 148.1993,317.6338 146.7182,321.9832 145.237,326.3326" stroke="black" stroke-width="1" /><polyline fill="none" points="132.8237,317.9684 129.0147,319.961 136.0367,304.3213" stroke="black" stroke-width="1" /><polyline fill="none" points="121.696,313.775 120.529,315.8333 114.3381,312.3232 127.1347,299.871" stroke="black" stroke-width="1" /><polyline fill="none" points="108.137,297.9498 108.1339,297.9542 108.1308,297.9587 108.1276,297.9632 109.4624,296.0516 110.7972,294.14 112.132,292.2284 112.749,291.3449 112.3658,290.573 111.9031,290.2499 112.4938,290.6623 112.6336,291.5101 112.2104,292.1163 112.1843,292.1537 112.1582,292.191 112.132,292.2284 113.5917,292.0558 115.0525,292.2395 116.2751,293.0931 117.2874,293.8 118.5787,295.4549 117.1359,297.5211 116.38,298.6037 115.2951,298.8703 114.1686,298.6264 113.6194,298.5152 112.0963,297.8494 111.0694,297.4041 110.0185,296.9626 108.893,296.8672 108.137,297.9498 107.3715,299.0461 107.56,301.1424 109.2467,302.3201 110.8356,303.4296 112.1061,303.1672 113.0708,302.7744" stroke="black" stroke-width="1" /><polyline fill="none" points="96.6029,291.1274 97.8782,289.6235 100.1126,289.4283 101.6165,290.7037 103.1335,291.9901 103.3183,294.2368 102.0429,295.7407 101.385,296.5165 100.727,297.2924 100.0691,298.0683 98.7937,299.5722 96.5466,299.7575 95.0424,298.4819 93.5257,297.1957 93.3537,294.959 94.629,293.455 96.832,290.8573 99.0349,288.2595 101.2379,285.6617 102.513,284.1581 104.7476,283.9627 106.2515,285.238 107.5459,286.3357 107.8644,288.1348 107.132,289.5821" stroke="black" stroke-width="1" /><polyline fill="none" points="95.6939,275.453 92.6155,278.4601 96.8814,282.8272 83.7416,287.7515" stroke="black" stroke-width="1" /><polyline fill="none" points="85.5796,276.1839 84.0329,277.4344 81.8096,277.138 80.6128,275.6577 79.4164,274.1779 79.6026,271.9546 81.1493,270.7041 82.3224,269.7556 83.4956,268.8071 84.6688,267.8586 86.2152,266.6083 88.4287,266.8915 89.6251,268.3713 90.8219,269.8516 90.635,272.075 89.0885,273.3253 89.0921,273.3297 89.0956,273.334 89.0991,273.3384 85.5261,276.2271 81.9531,279.1158 78.3801,282.0046" stroke="black" stroke-width="1" /><polyline fill="none" points="72.2945,270.0651 70.3232,271.3739 66.3868,265.4451 83.4294,260.1196" stroke="black" stroke-width="1" /><polyline fill="none" points="68.436,252.878 67.7598,251.4029 65.607,250.5606 63.8769,251.4886 63.4743,251.7046 63.0716,251.9206 62.669,252.1366 61.0368,253.0121 60.4211,255.0559 61.3047,256.7032 62.1801,258.3351 64.2535,258.9357 65.8552,258.0766 66.2578,257.8606 66.6605,257.6446 67.0631,257.4286 68.6957,256.553 69.3114,254.5099 68.436,252.878 67.4715,251.08 68.1825,248.8874 69.9195,247.9556 70.5138,247.6368 71.1081,247.318 71.7025,246.9992 73.4398,246.0673 75.6301,246.7037 76.5946,248.5018 77.551,250.2848 76.8691,252.4606 75.1318,253.3925 74.5276,253.7166 73.9234,254.0406 73.3192,254.3647 71.8299,255.1636 69.5682,254.7742" stroke="black" stroke-width="1" /><polyline fill="none" points="60.1441,238.5223 61.9614,237.757 64.0429,238.5927 64.8081,240.41 65.58,242.2431 64.7296,244.3307 62.9123,245.096 61.9747,245.4908 61.0372,245.8856 60.0996,246.2804 58.2823,247.0457 56.194,246.1955 55.4286,244.3779 54.6568,242.5451 55.5141,240.472 57.3314,239.7067 60.4706,238.3849 63.6097,237.063 66.7488,235.7411 68.5657,234.976 70.6475,235.8115 71.4128,237.6288 72.0714,239.193 71.5425,240.9418 70.2351,241.9019" stroke="black" stroke-width="1" /><polyline fill="none" points="49.9829,229.0197 50.5987,230.9772 51.2145,232.9347 51.8303,234.8922 54.4091,234.081 56.9878,233.2698 59.5665,232.4586 58.2099,232.2024 57.2556,231.5134 56.808,230.0907 56.1906,228.1279 57.3315,226.0976 59.1463,225.5267 60.4438,225.1185 61.7413,224.7104 63.0388,224.3022 64.9358,223.7055 66.8046,224.7889 67.3655,226.5721 67.9212,228.3383 67.0041,230.2802 65.1071,230.877" stroke="black" stroke-width="1" /><polyline fill="none" points="60.0354,212.4756 61.9799,212.0591 63.8266,213.312 64.2252,215.173 64.6238,217.0341 63.4559,218.9499 61.5113,219.3663 60.0362,219.6823 58.561,219.9983 57.0858,220.3143 55.141,220.7308 53.2915,219.4614 52.8929,217.6003 52.4943,215.7393 53.665,213.8401 55.6099,213.4235" stroke="black" stroke-width="1" /><polyline fill="none" points="45.1028,203.4701 45.219,204.4569 45.9115,205.2043 47.1714,205.0559 48.3916,204.9122 49.6118,204.7686 50.832,204.6249 50.7611,204.0234 50.6903,203.4219 50.6195,202.8205 50.7558,203.9783 50.8922,205.1362 51.0285,206.2941 50.963,205.7377 50.8975,205.1813 50.832,204.6249 54.5834,204.1831 58.3349,203.7413 62.0864,203.2995" stroke="black" stroke-width="1" /><polyline fill="none" points="47.6766,194.04 44.2373,191.4612 61.3764,191.0594" stroke="black" stroke-width="1" /><polyline fill="none" points="44.8262,176.4698 44.7564,177.4609 45.2974,178.3243 46.5629,178.4135 47.7885,178.4998 49.0141,178.5862 50.2397,178.6725 50.2822,178.0684 50.3248,177.4642 50.3673,176.8601 50.2854,178.0231 50.2035,179.1861 50.1215,180.3491 50.1609,179.7902 50.2003,179.2314 50.2397,178.6725 54.0077,178.938 57.7758,179.2034 61.5438,179.4689" stroke="black" stroke-width="1" /><polyline fill="none" points="63.4924,165.1139 59.2469,164.4108 58.2495,170.4336 46.5061,162.7527" stroke="black" stroke-width="1" /><polyline fill="none" points="56.776,153.7339 57.2871,152.1938 56.2865,150.1099 54.3882,149.6091 53.9464,149.4926 53.5046,149.3761 53.0628,149.2596 51.2718,148.7872 49.4279,149.8625 48.9512,151.67 48.4789,153.4606 49.5862,155.3137 51.3436,155.7772 51.7854,155.8938 52.2272,156.0103 52.6691,156.1268 54.4604,156.5993 56.3037,155.5246 56.776,153.7339 57.2964,151.761 59.3114,150.6418 61.2173,151.1445 61.8695,151.3165 62.5216,151.4885 63.1737,151.6605 65.08,152.1633 66.2484,154.1222 65.728,156.0952 65.212,158.0516 63.2297,159.1783 61.3234,158.6755 60.6605,158.5006 59.9975,158.3258 59.3346,158.1509 57.7004,157.7199 56.3114,155.893" stroke="black" stroke-width="1" /><polyline fill="none" points="60.4111,145.2069 58.5438,144.5218 57.6565,142.4618 58.3123,140.6747 58.9678,138.8882 60.9712,137.9064 62.8384,138.5915 64.2547,139.1112 65.671,139.6309 67.0873,140.1505 68.9542,140.8355 69.8478,142.8803 69.1923,144.6668 68.5366,146.4539 66.5327,147.4352 64.6657,146.7502 64.6638,146.7554 64.6619,146.7607 64.66,146.7659 60.3465,145.1832 56.033,143.6005 51.7195,142.0178" stroke="black" stroke-width="1" /><polyline fill="none" points="66.4094,134.1508 64.63,133.3011 63.8777,131.1748 64.727,129.396 65.5843,127.6005 67.7033,126.8644 69.4827,127.714 70.4005,128.1523 71.3183,128.5905 72.2361,129.0287 74.0156,129.8783 74.7748,131.9885 73.9175,133.7841 73.0682,135.5629 70.9423,136.315 69.1629,135.4654 66.0892,133.9978 63.0155,132.5303 59.9418,131.0627 58.1627,130.2133 57.4107,128.0871 58.26,126.3083 58.9917,124.7758 60.6492,124.0098 62.2352,124.3487" stroke="black" stroke-width="1" /><polyline fill="none" points="71.6071,118.529 72.5258,117.1913 72.1431,114.9115 70.4584,113.9034 70.0663,113.6688 69.6742,113.4342 69.2822,113.1995 67.6927,112.2485 65.6228,112.7696 64.663,114.3737 63.7121,115.9628 64.2614,118.0504 65.821,118.9837 66.2131,119.2183 66.6052,119.4529 66.9973,119.6875 68.587,120.6388 70.6562,120.118 71.6071,118.529 72.6548,116.7781 74.9014,116.2623 76.5928,117.2744 77.1715,117.6207 77.7503,117.967 78.329,118.3133 80.0207,119.3256 80.5993,121.5319 79.5516,123.2828 78.5127,125.019 76.2955,125.5511 74.6038,124.5388 74.0154,124.1867 73.4271,123.8347 72.8388,123.4826 71.3885,122.6148 70.5614,120.4742" stroke="black" stroke-width="1" /><polyline fill="none" points="87.5529,111.147 84.0833,108.6012 80.4718,113.5233 73.467,101.3646" stroke="black" stroke-width="1" /><polyline fill="none" points="88.0551,94.2223 89.5287,95.5325 89.6715,97.7709 88.3612,99.2445 87.0396,100.7309 84.7892,100.8629 83.3156,99.5527 82.5554,98.8767 81.7951,98.2007 81.0349,97.5248 79.5613,96.2145 79.4287,93.9637 80.7392,92.4898 82.0606,91.0037 84.3008,90.8841 85.7744,92.1944 88.3198,94.4576 90.8652,96.7209 93.4106,98.9841 94.8839,100.2941 95.0269,102.5327 93.7167,104.0063 92.589,105.2746 90.7829,105.5509 89.3532,104.7847" stroke="black" stroke-width="1" /><polyline fill="none" points="97.3248,85.2308 98.6692,86.6732 98.6017,88.9151 97.1592,90.2595 95.7042,91.6157 93.4514,91.5364 92.1069,90.0939 91.4133,89.3497 90.7197,88.6056 90.0261,87.8614 88.6817,86.4189 88.7605,84.1655 90.2032,82.8209 91.658,81.465 93.8995,81.5557 95.244,82.9982 97.5662,85.4899 99.8885,87.9815 102.2108,90.4731 103.555,91.9154 103.4877,94.1575 102.0453,95.5019 100.8037,96.6591 98.9798,96.765 97.628,95.8684" stroke="black" stroke-width="1" /><polyline fill="none" points="108.2102,78.9965 108.2069,78.9922 108.2035,78.9879 108.2002,78.9835 109.6231,80.8305 111.0461,82.6774 112.469,84.5243 113.1266,85.3779 113.978,85.2441 114.425,84.8997 113.8544,85.3393 113.0037,85.2183 112.5525,84.6327 112.5247,84.5966 112.4968,84.5604 112.469,84.5243 112.1957,85.9685 111.5821,87.3069 110.4009,88.2169 109.4228,88.9705 107.4567,89.7056 105.9187,87.7093 105.1128,86.6633 105.1841,85.5485 105.7547,84.5471 106.0256,84.0566 107.1179,82.8034 107.8507,81.9575 108.5872,81.0875 109.0161,80.0425 108.2102,78.9965 107.3941,77.9373 105.3379,77.4881 103.7083,78.7436 102.1731,79.9263 102.0422,81.217 102.1273,82.2551" stroke="black" stroke-width="1" /><polyline fill="none" points="113.455,76.0309 112.3939,74.3485 112.9483,72.1751 114.5585,71.1597 116.168,70.1445 118.3542,70.5895 119.4153,72.2718 120.22,73.5479 121.0248,74.8239 121.8296,76.0999 122.8904,77.782 122.3503,79.9472 120.7408,80.9623 119.1306,81.9778 116.9443,81.5321 115.8835,79.85 115.8787,79.853 115.874,79.856 115.8693,79.859 113.4183,75.9727 110.9672,72.0863 108.5162,68.2" stroke="black" stroke-width="1" /><polyline fill="none" points="121.7668,64.514 120.8757,62.755 121.5778,60.6121 123.3368,59.721 125.1115,58.8221 127.3003,59.5389 128.1914,61.2979 128.5405,61.9871 128.6351,62.5145 128.6072,62.9526 128.3283,67.3857 128.0494,71.8188 127.7705,76.2519 127.835,76.3791 127.8994,76.5063 127.9639,76.6336 130.0748,75.5642 132.1856,74.4949 134.2965,73.4256" stroke="black" stroke-width="1" /><polyline fill="none" points="138.7073,52.8926 140.3907,57.1678 142.0741,61.443 143.7575,65.7182 144.4863,67.5689 143.5365,69.6011 141.7652,70.2985 140.0103,70.9896 137.9296,70.1506 137.2008,68.2999 136.6481,66.8962 136.0954,65.4925 135.5427,64.0888 134.8139,62.2381 135.7643,60.2064 137.5193,59.5154 139.2905,58.8179 141.3706,59.6563 142.0993,61.507" stroke="black" stroke-width="1" /><polyline fill="none" points="145.5655,53.1736 144.9086,50.9005 151.7455,48.9246 151.7113,66.7799" stroke="black" stroke-width="1" /><polyline fill="none" points="163.4895,46.5093 162.5133,46.6946 161.8165,47.438 162.053,48.6843 162.2821,49.8914 162.5112,51.0984 162.7403,52.3055 163.3353,52.1926 163.9303,52.0797 164.5253,51.9668 163.3798,52.1841 162.2344,52.4015 161.089,52.6189 161.6394,52.5145 162.1898,52.41 162.7403,52.3055 163.4446,56.0167 164.1489,59.7278 164.8533,63.439" stroke="black" stroke-width="1" /><polyline fill="none" points="168.9126,198.0564 268.4255,140.8637 188.8697,188.4998 188.8365,96.1804 250.763,172.1919 236.1363,268.4255 156.5688,130.1462 156.5688,130.1462 239.8942,231.6324 188.8697,188.4998" stroke="black" stroke-width="1" /><polyline fill="none" points="177.4794,201.9741 200.26,175.0254" stroke="black" stroke-width="1" /><polyline fill="none" points="170.4769,203.9175 170.3321,202.0775 169.9012,200.2827 169.1949,198.5775 168.2305,197.0037 167.0318,195.6002 165.6283,194.4015 164.0545,193.4371 162.3493,192.7308 160.5545,192.2999 158.7145,192.1551 156.8744,192.2999 155.0797,192.7308 153.3745,193.4371 151.8007,194.4015 150.3972,195.6002 149.1985,197.0037 148.2341,198.5775 147.5278,200.2827 147.0969,202.0775 146.9521,203.9175 147.0969,205.7575 147.5278,207.5523 148.2341,209.2575 149.1985,210.8313 150.3972,212.2348 151.8007,213.4335 153.3745,214.3979 155.0797,215.1042 156.8744,215.5351 158.7145,215.6799 160.5545,215.5351 162.3493,215.1042 164.0545,214.3979 165.6283,213.4335 167.0318,212.2348 168.2305,210.8313 169.1949,209.2575 169.9012,207.5523 170.3321,205.7575 170.4769,203.9175" stroke="black" stroke-width="1" /><polyline fill="none" points="188.5,69.0664 199.6839,69.5912 210.7696,71.161 221.6595,73.7619 232.2581,77.3712 242.4721,81.9571 252.2118,87.4792 261.3915,93.8892 269.9308,101.1306 277.7544,109.1398 284.7936,117.8464 290.9866,127.1739 296.2789,137.0404 300.6241,147.3591 303.9839,158.0393 306.3289,168.9873 307.6383,180.1067 307.9008,191.2998 307.114,202.4684 305.2847,213.5142 302.4292,224.3402 298.5725,234.8512 293.7484,244.9549 287.9994,254.5625 281.376,263.5894 273.9365,271.9565 265.7461,279.5902 256.8768,286.4234 247.4067,292.3961 237.4188,297.4556 227.0011,301.5577 216.2451,304.6663 205.2452,306.7539 194.0981,307.8023 182.9019,307.8023 171.7548,306.7539 160.7549,304.6663 149.9989,301.5577 139.5811,297.4556 129.5933,292.3961 120.1232,286.4234 111.2539,279.5902 103.0635,271.9565 95.6239,263.5894 89.0006,254.5625 83.2516,244.9549 78.4275,234.8512 74.5708,224.3402 71.7153,213.5142 69.8861,202.4684 69.0992,191.2998 69.3617,180.1067 70.6712,168.9872 73.0161,158.0393 76.3759,147.3591 80.7211,137.0404 86.0134,127.174 92.2064,117.8464 99.2457,109.1398 107.0692,101.1306 115.6085,93.8892 124.7882,87.4792 134.5279,81.957 144.7419,77.3712 155.3405,73.7619 166.2304,71.161 177.3161,69.5912 188.5,69.0664" stroke="black" stroke-width="1" />

    </g>
  </g>
  <WCB
     pausedposy="0"
     pausedposx="0"
     lastknownposy="0"
     lastknownposx="0"
     lastpathnc="0"
     lastpath="0"
     node="0"
     layer="0" />
</svg>
