<?xml version="1.0" encoding="UTF-8" standalone="no"?>
<!-- Created with Inkscape (http://www.inkscape.org/) -->

<svg
   xmlns:dc="http://purl.org/dc/elements/1.1/"
   xmlns:cc="http://creativecommons.org/ns#"
   xmlns:rdf="http://www.w3.org/1999/02/22-rdf-syntax-ns#"
   xmlns:svg="http://www.w3.org/2000/svg"
   xmlns="http://www.w3.org/2000/svg"
   xmlns:sodipodi="http://sodipodi.sourceforge.net/DTD/sodipodi-0.dtd"
   xmlns:inkscape="http://www.inkscape.org/namespaces/inkscape"
   width="100mm"
   height="100mm"
   viewBox="0 0 100 100"
   version="1.1"
   id="svg19124"
   inkscape:version="0.92.3 (2405546, 2018-03-11)"
   sodipodi:docname="inkscape_template_TMP.svg"
   shape-rendering="crispEdges">
  <sodipodi:namedview
     pagecolor="#ffffff"
     bordercolor="#666666"
     borderopacity="1"
     objecttolerance="10"
     gridtolerance="10"
     guidetolerance="10"
     inkscape:pageopacity="0"
     inkscape:pageshadow="2"
     inkscape:window-width="1568"
     inkscape:window-height="1550"
     id="namedview24021"
     showgrid="false"
     inkscape:zoom="0.62441667"
     inkscape:cx="712.66515"
     inkscape:cy="409.98265"
     inkscape:window-x="0"
     inkscape:window-y="0"
     inkscape:window-maximized="0"
     inkscape:current-layer="layer1" />
  <defs
     id="defs19118" />
  <metadata
     id="metadata19121">
    <rdf:RDF>
      <cc:Work
         rdf:about="">
        <dc:format>image/svg+xml</dc:format>
        <dc:type
           rdf:resource="http://purl.org/dc/dcmitype/StillImage" />
        <dc:title />
      </cc:Work>
    </rdf:RDF>
  </metadata>
  <g
     transform="translate(0,-197)"
     id="layer1"
     inkscape:groupmode="layer"
     inkscape:label="Layer 1">
    <g
       id="g24447"
       transform="matrix(0.26458333,0,0,0.26458333,0.10666333,197.9735)">

<polyline fill="none" points="192.1004,47.7394 189.7225,51.1455 187.3447,54.5516 184.9669,57.9577 184.9669,54.5516 184.9669,51.1455 184.9669,47.7394 184.9669,45.7676 186.5623,44.1729 188.5334,44.1729 190.5231,44.1729 192.1004,45.7676 192.1004,47.7394 192.1004,51.1455 192.1004,54.5516 192.1004,57.9577 192.1004,59.9295 190.5231,61.5235 188.5509,61.5235 186.5623,61.5235 184.9669,59.9295 184.9669,57.9577" stroke="black" stroke-width="1" /><polyline fill="none" points="197.8298,61.5877 200.7471,57.7851 198.696,53.7706 202.935,62.0679 200.7471,57.7851 203.4811,54.2207" stroke="black" stroke-width="1" /><polyline fill="none" points="215.9534,62.4864 215.1945,63.2672 214.2671,64.0163 212.1779,63.6198 210.3076,63.2649 208.9953,61.4454 209.3758,59.4404 209.6539,57.9752 209.9319,56.5099 210.21,55.0447 210.5809,53.0906 212.4685,51.8792 214.3388,52.2341 216.2427,52.5954 217.5885,54.4206 217.2177,56.3747 217.0792,57.1045 216.9407,57.8342 216.8022,58.5639 214.4719,58.1217 212.1416,57.6794 209.8114,57.2372" stroke="black" stroke-width="1" /><polyline fill="none" points="224.2171,52.3012 224.7646,50.4068 226.7393,49.3179 228.6336,49.8654 230.5447,50.4177 231.6572,52.4345 231.1097,54.3288 230.8952,55.071 230.6048,55.5213 230.2857,55.8228 227.0592,58.8756 223.8327,61.9283 220.6061,64.9811 220.5665,65.1182 220.5269,65.2552 220.4873,65.3922 222.7606,66.0492 225.0338,66.7061 227.3071,67.3631" stroke="black" stroke-width="1" /><polyline fill="none" points="244.0779,55.3087 242.1685,54.5568 240.2591,53.805 238.3497,53.0531 237.3592,55.5685 236.3688,58.0838 235.3783,60.5992 236.4305,59.7053 237.5662,59.3963 238.954,59.9428 240.8685,60.6966 241.73,62.8603 241.033,64.6306 240.5346,65.8962 240.0363,67.1618 239.5379,68.4273 238.8093,70.2777 236.7919,71.0498 235.0525,70.3649 233.3297,69.6865 232.3962,67.7525 233.1248,65.9021" stroke="black" stroke-width="1" /><polyline fill="none" points="255.3459,60.7562 254.4596,60.3071 253.4539,60.4707 252.8806,61.6024 252.3254,62.6984 251.7702,63.7944 251.215,64.8904 251.7552,65.1641 252.2955,65.4378 252.8357,65.7114 251.7957,65.1846 250.7556,64.6577 249.7156,64.1309 250.2154,64.384 250.7152,64.6372 251.215,64.8904 249.508,68.2601 247.801,71.6298 246.0939,74.9995" stroke="black" stroke-width="1" /><polyline fill="none" points="266.6339,71.3608 262.8057,72.9733 258.9775,74.5858 255.1493,76.1984 256.9662,73.3174 258.7832,70.4364 260.6002,67.5555 261.6521,65.8876 263.8522,65.3898 265.5195,66.4413 267.2025,67.5027 267.6858,69.6929 266.6339,71.3608 264.817,74.2418 263.0,77.1227 261.183,80.0037 260.1311,81.6716 257.9468,82.1785 256.2786,81.1264 254.5966,80.0655 254.0974,77.8662 255.1493,76.1984" stroke="black" stroke-width="1" /><polyline fill="none" points="278.8721,75.9757 277.2465,74.7233 275.6209,73.4709 273.9953,72.2185 272.3454,74.3599 270.6956,76.5014 269.0457,78.6429 270.3046,78.0762 271.4815,78.0948 272.663,79.005 274.293,80.2608 274.5199,82.5786 273.3587,84.0857 272.5286,85.1632 271.6985,86.2407 270.8684,87.3181 269.6547,88.8935 267.5021,89.075 266.0213,87.9342 264.5546,86.8042 264.1948,84.687 265.4085,83.1116" stroke="black" stroke-width="1" /><polyline fill="none" points="280.1017,95.2953 278.7458,96.75 276.5145,96.78 275.1221,95.4824 273.7298,94.1847 273.5906,91.9453 274.9465,90.4906 275.9751,89.387 277.0037,88.2833 278.0323,87.1797 279.3884,85.7247 281.6315,85.7067 283.0238,87.0044 284.4161,88.3021 284.5435,90.5294 283.1874,91.9845" stroke="black" stroke-width="1" /><polyline fill="none" points="285.9717,97.0713 287.4453,95.7611 289.697,95.8929 291.0067,97.366 292.3288,98.8529 292.1848,101.0915 290.7112,102.4017 289.9512,103.0775 289.1911,103.7533 288.4311,104.4291 286.9575,105.7394 284.718,105.6201 283.3959,104.1332 282.0861,102.6601 282.218,100.409 283.6915,99.0987 286.2369,96.8355 288.7823,94.5722 291.3278,92.309 292.8011,90.999 295.0525,91.1311 296.3622,92.6042 297.4907,93.8733 297.5533,95.6982 296.6255,97.0283" stroke="black" stroke-width="1" /><polyline fill="none" points="306.5604,105.4905 305.3464,103.836 304.1324,102.1815 302.9185,100.527 300.7389,102.1262 298.5594,103.7254 296.3798,105.3246 297.7466,105.1298 298.872,105.4743 299.7544,106.6768 300.9716,108.3357 300.5461,110.6254 299.0121,111.7509 297.9155,112.5556 296.8188,113.3602 295.7222,114.1648 294.1189,115.3413 292.0005,114.9181 290.8947,113.4109 289.7994,111.9181 290.0415,109.7843 291.6449,108.6078" stroke="black" stroke-width="1" /><polyline fill="none" points="306.6423,121.5682 306.647,121.5654 306.6517,121.5626 306.6564,121.5598 304.6557,122.7569 302.655,123.9541 300.6543,125.1513 299.7297,125.7046 299.763,126.5658 300.0528,127.05 299.6829,126.4318 299.9025,125.6011 300.537,125.2215 300.5761,125.1981 300.6152,125.1747 300.6543,125.1513 299.2521,124.7109 297.9946,123.945 297.229,122.6655 296.595,121.606 296.0948,119.5674 298.2573,118.2734 299.3903,117.5954 300.4892,117.7965 301.417,118.4804 301.8725,118.8068 302.9893,120.0381 303.7437,120.8649 304.5215,121.6981 305.5092,122.2462 306.6423,121.5682 307.7897,120.8816 308.4763,118.892 307.42,117.1267 306.4249,115.4638 305.1584,115.1828 304.1175,115.146" stroke="black" stroke-width="1" /><polyline fill="none" points="314.3701,132.5163 312.5907,133.3659 310.4724,132.6288 309.6228,130.8493 308.7658,129.0544 309.5175,126.9292 311.2969,126.0796 312.2149,125.6413 313.1329,125.203 314.051,124.7647 315.8304,123.9151 317.9563,124.6664 318.806,126.4462 319.6628,128.2407 318.9036,130.3518 317.1242,131.2014 314.0505,132.6689 310.9768,134.1365 307.9031,135.604 306.124,136.4535 304.0054,135.7165 303.1558,133.9371 302.4245,132.4055 302.8708,130.6338 304.1318,129.6134" stroke="black" stroke-width="1" /><polyline fill="none" points="312.3342,146.7498 310.4673,147.4348 308.4632,146.4532 307.8076,144.6665 307.152,142.8797 308.0398,140.8191 309.9067,140.1341 311.323,139.6144 312.7393,139.0947 314.1556,138.5751 316.0229,137.8899 318.032,138.8875 318.6876,140.6743 319.3433,142.4611 318.4503,144.5057 316.5831,145.1908" stroke="black" stroke-width="1" /><polyline fill="none" points="324.1839,150.3975 328.1282,152.1068 311.5513,156.4792" stroke="black" stroke-width="1" /><polyline fill="none" points="317.9472,170.5722 315.9853,170.897 314.1994,169.559 313.8884,167.6813 313.5775,165.8036 314.834,163.9447 316.7958,163.6198 318.2842,163.3733 319.7726,163.1269 321.2609,162.8804 323.2232,162.5554 325.0111,163.9102 325.3221,165.7879 325.633,167.6656 324.3745,169.5078 322.4123,169.8327" stroke="black" stroke-width="1" /><polyline fill="none" points="332.6406,181.2671 332.4964,179.2201 332.3522,177.1731 332.2079,175.126 329.5114,175.316 326.8147,175.506 324.1181,175.696 325.3781,176.2603 326.1462,177.1521 326.251,178.6399 326.3956,180.6924 324.8143,182.4021 322.9164,182.5358 321.5596,182.6314 320.2028,182.727 318.846,182.8226 316.8623,182.9623 315.2963,181.4743 315.1649,179.6096 315.0348,177.7627 316.3779,176.087 318.3617,175.9472" stroke="black" stroke-width="1" /><polyline fill="none" points="329.3041,188.2994 331.2754,188.3456 332.8319,189.9773 332.7857,191.9486 332.7391,193.9374 331.0727,195.5274 329.1014,195.4812 328.3291,195.4631 327.8196,195.2971 327.4467,195.0655 323.672,192.7242 319.8972,190.383 316.1225,188.0418 315.9799,188.0384 315.8373,188.0351 315.6947,188.0317 315.6393,190.3974 315.5838,192.763 315.5283,195.1286" stroke="black" stroke-width="1" /><polyline fill="none" points="321.5931,200.5902 323.5514,200.8208 324.949,202.5911 324.7185,204.5487 324.4858,206.5248 322.7172,207.9046 320.7589,207.674 319.7488,207.5551 318.7387,207.4361 317.7286,207.3171 315.7703,207.0865 314.3714,205.3337 314.6041,203.3576 314.8346,201.4 316.6045,200.0027 318.5629,200.2334 321.9456,200.6317 325.3282,201.0301 328.7109,201.4284 330.6689,201.659 332.0662,203.4293 331.8356,205.3869 331.637,207.0735 330.3149,208.3329 328.7043,208.5234" stroke="black" stroke-width="1" /><polyline fill="none" points="328.0482,214.6321 330.3619,215.1276 328.8714,222.0865 313.153,213.6164" stroke="black" stroke-width="1" /><polyline fill="none" points="321.6929,234.1745 319.1573,230.8842 316.6218,227.5938 314.0862,224.3035 317.3353,225.3256 320.5844,226.3477 323.8335,227.3698 325.7145,227.9615 326.7569,229.9619 326.1654,231.8422 325.5684,233.7403 323.5739,234.7662 321.6929,234.1745 318.4438,233.1524 315.1947,232.1303 311.9456,231.1082 310.0646,230.5164 309.0174,228.5336 309.6092,226.6523 310.206,224.7553 312.2052,223.7117 314.0862,224.3035" stroke="black" stroke-width="1" /><polyline fill="none" points="316.8306,246.4462 314.6143,242.9329 312.398,239.4196 310.1817,235.9062 313.3208,237.2281 316.4599,238.55 319.599,239.8718 321.4163,240.6371 322.2669,242.7264 321.5019,244.543 320.7297,246.3768 318.6479,247.2115 316.8306,246.4462 313.6915,245.1243 310.5524,243.8025 307.4133,242.4806 305.5959,241.7153 304.739,239.6431 305.5044,237.8255 306.2762,235.9927 308.3644,235.141 310.1817,235.9062" stroke="black" stroke-width="1" /><polyline fill="none" points="314.2771,259.2739 315.2471,257.4655 316.2171,255.6571 317.1871,253.8488 314.8049,252.571 312.4226,251.2931 310.0404,250.0153 310.8051,251.1647 310.9791,252.3288 310.2741,253.6432 309.3015,255.4564 307.0519,256.0589 305.3753,255.1596 304.1767,254.5167 302.9781,253.8737 301.7795,253.2308 300.027,252.2908 299.4962,250.1969 300.3798,248.5495 301.255,246.9179 303.285,246.217 305.0374,247.157" stroke="black" stroke-width="1" /><polyline fill="none" points="303.7753,269.3585 302.253,265.4935 300.7307,261.6286 299.2083,257.7636 302.0459,259.6476 304.8835,261.5316 307.7211,263.4156 309.3638,264.5063 309.8099,266.7175 308.7196,268.3597 307.619,270.0173 305.4181,270.4492 303.7753,269.3585 300.9377,267.4745 298.1002,265.5905 295.2626,263.7065 293.6199,262.6158 293.1643,260.4201 294.2552,258.7771 295.3552,257.1204 297.5656,256.6729 299.2083,257.7636" stroke="black" stroke-width="1" /><polyline fill="none" points="299.487,275.355 300.4423,279.5463 287.1106,268.7678" stroke="black" stroke-width="1" /><polyline fill="none" points="287.6192,280.459 289.042,281.8488 289.0077,284.0915 287.6775,285.4532 286.3478,286.8145 284.118,286.8896 282.6952,285.4998 281.616,284.4456 280.5368,283.3914 279.4576,282.3372 278.0351,280.9476 278.0574,278.7162 279.3871,277.355 280.7173,275.9932 282.9473,275.9188 284.3699,277.3084 284.3738,277.3044 284.3777,277.3004 284.3816,277.2964 287.6684,280.507 290.9552,283.7177 294.242,286.9283" stroke="black" stroke-width="1" /><polyline fill="none" points="273.8342,294.1197 273.8378,294.1239 273.8413,294.1281 273.8448,294.1323 272.3369,292.3541 270.8289,290.5758 269.321,288.7976 268.6241,287.9758 267.7799,288.1494 267.3495,288.5144 267.899,288.0485 268.7544,288.1295 269.2325,288.6933 269.262,288.7281 269.2915,288.7629 269.321,288.7976 269.5263,287.3423 270.0765,285.9766 271.2138,285.0122 272.1555,284.2136 274.0849,283.3871 275.7148,285.3091 276.5688,286.3162 276.55,287.4331 276.0269,288.4602 275.7792,288.9629 274.7469,290.2658 274.0545,291.1452 273.3596,292.0487 272.9802,293.1127 273.8342,294.1197 274.6991,295.1396 276.7741,295.4919 278.3431,294.1614 279.8211,292.908 279.8914,291.6125 279.7577,290.5796" stroke="black" stroke-width="1" /><polyline fill="none" points="259.4598,296.1932 259.4316,295.1047 259.5438,293.9178 261.2873,292.7003 262.8481,291.6105 265.0667,291.9431 266.235,293.6164 267.0889,294.8391 267.9427,296.0619 268.7965,297.2847 269.9352,298.9154 269.4828,301.1123 267.9221,302.2021 266.3332,303.3116 264.0871,302.999 262.9484,301.3682 262.5232,300.7592 262.0979,300.1502 261.6727,299.5412 263.6174,298.1833 265.5621,296.8254 267.5067,295.4675" stroke="black" stroke-width="1" /><polyline fill="none" points="254.7935,312.7243 255.1821,308.5885 255.5706,304.4528 255.9592,300.317 257.6391,303.28 259.3191,306.243 260.999,309.2059 261.9716,310.9213 261.3702,313.0954 259.6555,314.0676 257.9246,315.049 255.7661,314.4396 254.7935,312.7243 253.1136,309.7613 251.4337,306.7983 249.7537,303.8354 248.7812,302.1201 249.367,299.9555 251.0827,298.9828 252.8126,298.002 254.9866,298.6017 255.9592,300.317" stroke="black" stroke-width="1" /><polyline fill="none" points="248.2582,316.1357 247.2163,320.3063 240.1944,304.6665" stroke="black" stroke-width="1" /><polyline fill="none" points="232.3973,317.4687 230.8315,317.8948 229.6488,319.881 230.2817,321.7395 230.429,322.172 230.5763,322.6046 230.7236,323.037 231.3207,324.7904 233.2364,325.7317 235.006,325.1291 236.759,324.5321 237.6902,322.5847 237.1043,320.8641 236.957,320.4316 236.8097,319.9991 236.6624,319.5666 236.0652,317.8129 234.1503,316.8717 232.3973,317.4687 230.4658,318.1264 228.4188,317.0668 227.7834,315.2009 227.5659,314.5625 227.3485,313.9241 227.1311,313.2856 226.4956,311.4194 227.4813,309.3625 229.4128,308.7047 231.328,308.0525 233.3632,309.0807 233.9987,310.9469 234.2198,311.5959 234.4408,312.245 234.6618,312.894 235.2066,314.4938 234.453,316.6615" stroke="black" stroke-width="1" /><polyline fill="none" points="225.0442,325.6901 225.5939,327.9915 218.6719,329.6447 219.543,311.8107" stroke="black" stroke-width="1" /><polyline fill="none" points="205.4281,331.9647 204.7839,327.4154 204.1397,322.8661 203.4955,318.3168 203.2167,316.3474 204.6125,314.5915 206.4974,314.3246 208.3649,314.0601 210.1938,315.3594 210.4726,317.3288 210.6841,318.8225 210.8956,320.3162 211.1072,321.81 211.386,323.7793 209.9897,325.5346 208.1222,325.7991 206.2374,326.066 204.409,324.7673 204.1301,322.7979" stroke="black" stroke-width="1" /><polyline fill="none" points="191.0713,317.4438 191.628,316.5081 192.356,315.564 194.4802,315.4643 196.3818,315.3751 198.0809,316.84 198.1766,318.8785 198.2465,320.3682 198.3164,321.8579 198.3863,323.3477 198.4795,325.3345 196.925,326.9513 195.0234,327.0405 193.0876,327.1314 191.3546,325.6688 191.2614,323.682 191.2265,322.94 191.1917,322.1981 191.1569,321.4561 193.5262,321.345 195.8954,321.2338 198.2647,321.1226" stroke="black" stroke-width="1" /><polyline fill="none" points="178.9188,318.8311 179.012,316.8446 180.6944,315.3786 182.5956,315.4678 184.4968,315.557 186.0513,317.1749 185.9581,319.1614 185.8874,320.6683 185.8167,322.1753 185.7459,323.6823 185.6527,325.6691 183.9536,327.1336 182.0524,327.0444 180.1512,326.9552 178.6134,325.3387 178.7067,323.352" stroke="black" stroke-width="1" /><polyline fill="none" points="172.2314,328.3613 171.955,330.3136 170.1525,331.6686 168.2001,331.3922 166.2304,331.1133 164.8462,329.2724 165.1227,327.32 165.231,326.5551 165.4553,326.0685 165.729,325.7253 168.4957,322.2502 171.2623,318.7752 174.029,315.3002 174.049,315.159 174.069,315.0178 174.089,314.8766 171.746,314.5448 169.4032,314.2131 167.0603,313.8813" stroke="black" stroke-width="1" /><polyline fill="none" points="159.034,326.3934 158.6197,328.1279 156.8026,329.3158 154.9176,328.8656 153.0338,328.4157 151.9121,326.6133 152.382,324.6457 152.4564,324.3345 152.5307,324.0234 152.605,323.7122 153.3219,320.7105 156.0596,320.8359 156.3937,320.9158 156.716,320.9927 157.0383,321.0697 157.3605,321.1467 157.0383,321.0697 156.716,320.9927 156.3937,320.9158 155.4093,320.6806 153.5868,319.0112 154.1443,316.6771 154.3076,315.9932 154.4709,315.3093 154.6343,314.6254 155.0962,312.6916 157.0307,311.5317 158.9653,311.9937 160.9166,312.4598 162.1008,314.3646 161.6389,316.2984" stroke="black" stroke-width="1" /><polyline fill="none" points="146.2509,323.0283 145.6761,324.7163 143.7556,325.7289 141.9212,325.1042 140.0877,324.4798 139.1398,322.5802 139.7919,320.6653 139.895,320.3625 139.9981,320.0597 140.1012,319.7568 141.0961,316.8354 143.81,317.2167 144.1352,317.3275 144.4489,317.4343 144.7625,317.541 145.0761,317.6479 144.7625,317.541 144.4489,317.4343 144.1352,317.3275 143.1771,317.0012 141.5189,315.1684 142.2925,312.8968 142.5192,312.2312 142.7458,311.5656 142.9725,310.9 143.6135,309.0179 145.6481,308.0443 147.5309,308.6854 149.43,309.3322 150.4307,311.3394 149.7897,313.2216" stroke="black" stroke-width="1" /><polyline fill="none" points="133.8391,318.4808 133.1087,320.1077 131.1019,320.9359 129.334,320.1422 127.5671,319.3489 126.8012,317.3689 127.6297,315.5234 127.7608,315.2316 127.8918,314.9398 128.0228,314.6479 129.2869,311.8325 131.9531,312.4662 132.2666,312.607 132.5688,312.7427 132.8711,312.8784 133.1733,313.0141 132.8711,312.8784 132.5688,312.7427 132.2666,312.607 131.3432,312.1924 129.864,310.2124 130.8469,308.0232 131.1349,307.3818 131.4229,306.7404 131.7108,306.0989 132.5252,304.2851 134.6421,303.5063 136.4566,304.3209 138.2868,305.1426 139.0951,307.2348 138.2807,309.0486" stroke="black" stroke-width="1" /><polyline fill="none" points="121.696,313.775 120.529,315.8333 114.3381,312.3232 127.1347,299.871" stroke="black" stroke-width="1" /><polyline fill="none" points="111.8411,292.2137 112.8533,291.8123 114.0062,291.5087 115.7497,292.7261 117.3105,293.816 117.7625,296.0134 116.5941,297.6866 115.7403,298.9094 114.8865,300.1322 114.0326,301.3549 112.8939,302.9857 110.6757,303.3177 109.1149,302.2279 107.526,301.1184 107.0458,298.9022 108.1845,297.2714 108.6097,296.6624 109.035,296.0534 109.4602,295.4444 111.4049,296.8023 113.3496,298.1602 115.2943,299.5182" stroke="black" stroke-width="1" /><polyline fill="none" points="103.7341,293.8367 102.4477,295.3536 100.2082,295.477 98.7563,294.2458 97.305,293.015 97.0733,290.7961 98.3597,289.2791 99.3355,288.1285 100.3112,286.9779 101.2869,285.8273 102.5731,284.3106 104.8006,284.176 106.2519,285.4068 107.7038,286.638 107.9347,288.8573 106.6485,290.374 106.6528,290.3776 106.6571,290.3812 106.6613,290.3849 103.6896,293.8892 100.7179,297.3934 97.7462,300.8978" stroke="black" stroke-width="1" /><polyline fill="none" points="83.2441,287.2422 84.678,288.7102 86.112,290.1781 87.5459,291.6461 89.4797,289.7571 91.4136,287.8681 93.3474,285.9791 92.0214,286.3636 90.8587,286.1803 89.8166,285.1133 88.3788,283.6415 88.479,281.3148 89.84,279.9853 90.813,279.0349 91.786,278.0844 92.759,277.134 94.1816,275.7444 96.3383,275.8664 97.6446,277.2036 98.9383,278.5281 98.9978,280.6748 97.5752,282.0645" stroke="black" stroke-width="1" /><polyline fill="none" points="86.8499,275.2595 85.3165,276.4992 83.0736,276.2619 81.8343,274.7291 80.5833,273.1818 80.8321,270.9525 82.3655,269.7128 83.1564,269.0733 83.9473,268.4339 84.7382,267.7945 86.2716,266.5547 88.503,266.7788 89.754,268.3261 90.9932,269.8589 90.756,272.1014 89.2226,273.3412 86.574,275.4826 83.9253,277.624 81.2766,279.7655 79.7435,281.005 77.5008,280.7675 76.2615,279.2347 75.1937,277.914 75.2167,276.0882 76.2058,274.803" stroke="black" stroke-width="1" /><polyline fill="none" points="79.1723,265.3596 77.5296,266.4503 75.3186,266.0041 74.2284,264.3619 73.1278,262.7043 73.5842,260.5081 75.227,259.4174 76.0743,258.8548 76.9216,258.2922 77.7689,257.7297 79.4116,256.639 81.6123,257.071 82.7128,258.7287 83.8031,260.3708 83.357,262.5812 81.7142,263.6719 78.8766,265.5559 76.0391,267.4399 73.2015,269.3239 71.559,270.4144 69.3484,269.968 68.2581,268.3258 67.3188,266.911 67.5126,265.0953 68.6177,263.9084" stroke="black" stroke-width="1" /><polyline fill="none" points="65.1672,258.8251 63.0821,259.9435 59.7181,253.6721 77.1845,249.9659" stroke="black" stroke-width="1" /><polyline fill="none" points="68.3334,235.3307 69.4037,235.5311 70.5408,235.8893 71.3661,237.8492 72.1049,239.6036 71.3149,241.7034 69.4341,242.4954 68.0596,243.0742 66.6852,243.653 65.3107,244.2318 63.4776,245.0037 61.4242,244.1012 60.6854,242.3468 59.9333,240.5607 60.7094,238.43 62.5425,237.6581 63.2271,237.3698 63.9116,237.0815 64.5962,236.7933 65.5167,238.9792 66.4372,241.1652 67.3577,243.3512" stroke="black" stroke-width="1" /><polyline fill="none" points="55.2773,234.0801 53.3963,234.6718 51.3969,233.6291 50.8052,231.7481 50.2082,229.8504 51.273,227.8081 53.154,227.2164 53.8909,226.9846 54.4267,226.9774 54.8544,227.0765 59.1824,228.0759 63.5103,229.0753 67.8383,230.0747 67.9743,230.0319 68.1104,229.9891 68.2464,229.9463 67.5363,227.6891 66.8263,225.4319 66.1162,223.1747" stroke="black" stroke-width="1" /><polyline fill="none" points="63.6166,212.5403 59.4086,213.4416 60.6873,219.411 46.9463,216.5667" stroke="black" stroke-width="1" /><polyline fill="none" points="51.3022,200.919 53.2606,200.6884 55.0282,202.069 55.2588,204.0274 55.4914,206.0027 54.0948,207.7722 52.1364,208.0028 51.1261,208.1218 50.1158,208.2408 49.1055,208.3597 47.1472,208.5904 45.377,207.1938 45.1463,205.2352 44.9137,203.2602 46.313,201.5066 48.2713,201.2759 51.654,200.8776 55.0367,200.4792 58.4194,200.0809 60.3773,199.8503 62.1453,201.2309 62.3759,203.1892 62.5744,204.8748 61.5808,206.408 60.0582,206.9674" stroke="black" stroke-width="1" /><polyline fill="none" points="55.0264,195.1895 53.0551,195.2357 51.4231,193.6789 51.3769,191.7083 51.3303,189.7191 52.8879,188.1049 54.8592,188.0587 55.876,188.0349 56.8928,188.011 57.9096,187.9872 59.8809,187.941 61.5118,189.4804 61.5584,191.4695 61.6046,193.4401 60.0481,195.0718 58.0768,195.118 54.6716,195.1978 51.2665,195.2777 47.8614,195.3575 45.8904,195.4037 44.2588,193.8469 44.2126,191.8763 44.1727,190.1785 45.3052,188.7461 46.8732,188.3317" stroke="black" stroke-width="1" /><polyline fill="none" points="47.6453,181.9586 45.8664,181.8333 44.3976,180.2346 44.5338,178.3015 44.6699,176.3694 46.2648,174.9683 48.2828,175.1105 48.6019,175.133 48.921,175.1555 49.2401,175.1779 52.3186,175.3948 52.6421,178.1162 52.618,178.4589 52.5947,178.7894 52.5714,179.1199 52.5481,179.4504 52.5714,179.1199 52.5947,178.7894 52.618,178.4589 52.6891,177.4492 54.0384,175.3785 56.4322,175.5471 57.1336,175.5966 57.8349,175.646 58.5363,175.6954 60.5197,175.8351 61.98,177.5542 61.8403,179.5383 61.6993,181.5395 60.0136,183.019 58.0302,182.8793" stroke="black" stroke-width="1" /><polyline fill="none" points="60.184,163.7416 62.1459,164.0665 63.4051,165.9088 63.0941,167.7866 62.7832,169.6643 60.9946,171.0189 59.0327,170.694 57.5443,170.4475 56.0559,170.201 54.5676,169.9546 52.6053,169.6296 51.3496,167.7708 51.6605,165.8931 51.9715,164.0154 53.7566,162.6772 55.7189,163.0022" stroke="black" stroke-width="1" /><polyline fill="none" points="64.7273,152.2587 65.4528,153.0706 66.1349,154.0484 65.5926,156.1045 65.1071,157.9452 63.1998,159.1265 61.2265,158.606 59.7845,158.2256 58.3424,157.8453 56.9004,157.4649 54.9772,156.9576 53.9014,154.9895 54.3869,153.1488 54.8811,151.275 56.7963,150.0608 58.7196,150.568 59.4378,150.7575 60.156,150.9469 60.8742,151.1364 60.2692,153.4298 59.6643,155.7232 59.0594,158.0166" stroke="black" stroke-width="1" /><polyline fill="none" points="61.8566,145.8223 60.0054,145.1431 59.0573,143.0966 59.7363,141.246 60.4217,139.3781 62.4624,138.4469 64.3136,139.1261 65.2684,139.4765 66.2232,139.8268 67.178,140.1772 69.0292,140.8564 69.9827,142.8863 69.2973,144.7542 68.6183,146.6047 66.5722,147.5526 64.721,146.8734 61.5234,145.7001 58.3258,144.5268 55.1282,143.3535 53.2773,142.6744 52.3295,140.628 53.0085,138.7775 53.5935,137.1832 55.1721,136.2653 56.7828,136.4542" stroke="black" stroke-width="1" /><polyline fill="none" points="59.2242,124.667 58.7961,125.5637 58.9832,126.5653 60.128,127.1119 61.2367,127.6412 62.3455,128.1706 63.4542,128.7 63.7151,128.1535 63.9761,127.6069 64.237,127.0604 63.7347,128.1125 63.2323,129.1646 62.73,130.2167 62.9714,129.7112 63.2128,129.2056 63.4542,128.7 66.863,130.3275 70.2718,131.9551 73.6805,133.5826" stroke="black" stroke-width="1" /><polyline fill="none" points="78.1773,118.4508 79.8838,119.4719 80.3805,121.6475 79.4032,123.2807 78.4259,124.9139 76.2653,125.519 74.5589,124.4979 73.2643,123.7232 71.9698,122.9486 70.6752,122.174 68.9684,121.1527 68.481,118.9631 69.4583,117.3298 70.4356,115.6966 72.5869,115.1056 74.2937,116.1269" stroke="black" stroke-width="1" /><polyline fill="none" points="73.3937,101.6817 72.8059,102.4828 72.8029,103.5018 73.8258,104.2522 74.8163,104.979 75.8069,105.7059 76.7975,106.4327 77.1557,105.9444 77.514,105.4561 77.8723,104.9678 77.1826,105.9078 76.4929,106.8478 75.8032,107.7878 76.1346,107.3361 76.466,106.8844 76.7975,106.4327 79.843,108.6673 82.8885,110.9019 85.9341,113.1365" stroke="black" stroke-width="1" /><polyline fill="none" points="88.0551,94.2223 89.5287,95.5325 89.6715,97.7709 88.3612,99.2445 87.0396,100.7309 84.7892,100.8629 83.3156,99.5527 82.5554,98.8767 81.7951,98.2007 81.0349,97.5248 79.5613,96.2145 79.4287,93.9637 80.7392,92.4898 82.0606,91.0037 84.3008,90.8841 85.7744,92.1944 88.3198,94.4576 90.8652,96.7209 93.4106,98.9841 94.8839,100.2941 95.0269,102.5327 93.7167,104.0063 92.589,105.2746 90.7829,105.5509 89.3532,104.7847" stroke="black" stroke-width="1" /><polyline fill="none" points="93.8001,91.9962 92.4439,90.5412 92.5834,88.3026 93.9759,87.0047 95.368,85.7072 97.5988,85.7367 98.9549,87.1917 99.9835,88.2953 101.0121,89.3989 102.0407,90.5025 103.3966,91.9573 103.2697,94.1852 101.8776,95.4826 100.4851,96.7805 98.254,96.7503 96.8981,95.2955 96.894,95.2994 96.8899,95.3032 96.8858,95.307 93.7531,91.9458 90.6205,88.5847 87.4878,85.2235" stroke="black" stroke-width="1" /><polyline fill="none" points="99.7946,78.8908 98.7062,77.4781 98.9249,75.3182 100.4601,74.1354 101.9944,72.9533 104.1012,73.2143 105.3359,74.8168 105.5311,75.0702 105.7263,75.3236 105.9215,75.577 107.8051,78.0218 105.9863,80.0718 105.7142,80.2815 105.4517,80.4837 105.1892,80.6859 104.9268,80.8881 105.1892,80.6859 105.4517,80.4837 105.7142,80.2815 106.516,79.6637 108.96,79.2961 110.4246,81.1971 110.8537,81.7541 111.2828,82.3111 111.7119,82.868 112.9254,84.4431 112.6111,86.6767 111.0355,87.8906 109.4463,89.115 107.2205,88.8383 106.007,87.2633" stroke="black" stroke-width="1" /><polyline fill="none" points="122.666,77.5991 122.6431,78.6878 122.4755,79.8681 120.6768,81.0025 119.0667,82.018 116.8661,81.5817 115.7774,79.8556 114.9818,78.5941 114.1863,77.3327 113.3907,76.0713 112.3297,74.3889 112.8845,72.2157 114.4947,71.2002 116.1339,70.1664 118.3628,70.5839 119.4238,72.2663 119.82,72.8945 120.2163,73.5228 120.6125,74.1511 118.6063,75.4163 116.6001,76.6816 114.5939,77.9469" stroke="black" stroke-width="1" /><polyline fill="none" points="121.7668,64.514 120.8757,62.755 121.5778,60.6121 123.3368,59.721 125.1115,58.8221 127.3003,59.5389 128.1914,61.2979 128.5405,61.9871 128.6351,62.5145 128.6072,62.9526 128.3283,67.3857 128.0494,71.8188 127.7705,76.2519 127.835,76.3791 127.8994,76.5063 127.9639,76.6336 130.0748,75.5642 132.1856,74.4949 134.2965,73.4256" stroke="black" stroke-width="1" /><polyline fill="none" points="138.6059,61.7306 140.15,61.2316 141.2383,59.1921 140.519,57.3654 140.3516,56.9402 140.1841,56.5151 140.0167,56.0899 139.3381,54.3665 137.3803,53.516 135.641,54.2009 133.9179,54.8794 133.0789,56.8683 133.7449,58.5595 133.9123,58.9847 134.0797,59.4098 134.2471,59.835 134.9258,61.5587 136.8828,62.4091 138.6059,61.7306 140.5044,60.9831 142.5988,61.9455 143.321,63.7796 143.5681,64.4072 143.8152,65.0347 144.0623,65.6622 144.7846,67.4966 143.8964,69.5975 141.9979,70.345 140.1153,71.0863 138.0342,70.1547 137.3119,68.3203 137.0607,67.6823 136.8095,67.0444 136.5583,66.4064 135.9391,64.8339 136.5903,62.6333" stroke="black" stroke-width="1" /><polyline fill="none" points="150.696,57.6155 152.2801,57.2633 153.5546,55.3346 153.0095,53.4485 152.8826,53.0096 152.7557,52.5706 152.6289,52.1317 152.1146,50.3523 150.2451,49.3222 148.4492,49.8412 146.6702,50.3554 145.6487,52.257 146.1533,54.0031 146.2802,54.4421 146.407,54.881 146.5339,55.32 147.0482,57.0997 148.917,58.1297 150.696,57.6155 152.6562,57.049 154.6513,58.2034 155.1986,60.097 155.3858,60.7449 155.5731,61.3929 155.7603,62.0408 156.3077,63.9348 155.2267,65.9432 153.2665,66.5097 151.3227,67.0715 149.338,65.949 148.7906,64.055 148.6003,63.3964 148.4099,62.7377 148.2196,62.079 147.7503,60.4554 148.6048,58.3255" stroke="black" stroke-width="1" /><polyline fill="none" points="167.3939,63.0873 166.5915,58.8594 160.5937,59.9977 163.7594,46.3273" stroke="black" stroke-width="1" /><polyline fill="none" points="256.8229,233.5003 96.1804,188.1635 268.4255,140.8637 140.3048,268.1431 140.3048,268.1431 136.578,231.1149 220.8597,130.6987 108.8569,140.3048 188.8365,96.1804 108.8569,140.3048" stroke="black" stroke-width="1" /><polyline fill="none" points="117.3798,155.7534 100.334,124.8563" stroke="black" stroke-width="1" /><polyline fill="none" points="279.9055,236.6952 279.7607,234.8551 279.3298,233.0604 278.6234,231.3551 277.6591,229.7814 276.4604,228.3779 275.0569,227.1792 273.4831,226.2148 271.7779,225.5085 269.9831,225.0776 268.1431,224.9328 266.303,225.0776 264.5083,225.5085 262.803,226.2148 261.2293,227.1792 259.8258,228.3779 258.6271,229.7814 257.6627,231.3551 256.9564,233.0604 256.5255,234.8551 256.3807,236.6952 256.5255,238.5352 256.9564,240.3299 257.6627,242.0352 258.6271,243.6089 259.8258,245.0124 261.2293,246.2111 262.803,247.1755 264.5083,247.8819 266.303,248.3127 268.1431,248.4576 269.9831,248.3127 271.7779,247.8819 273.4831,247.1755 275.0568,246.2111 276.4604,245.0124 277.6591,243.6089 278.6234,242.0352 279.3298,240.3299 279.7607,238.5352 279.9055,236.6952" stroke="black" stroke-width="1" /><polyline fill="none" points="188.5,69.0664 199.6839,69.5912 210.7696,71.161 221.6595,73.7619 232.2581,77.3712 242.4721,81.9571 252.2118,87.4792 261.3915,93.8892 269.9308,101.1306 277.7544,109.1398 284.7936,117.8464 290.9866,127.1739 296.2789,137.0404 300.6241,147.3591 303.9839,158.0393 306.3289,168.9873 307.6383,180.1067 307.9008,191.2998 307.114,202.4684 305.2847,213.5142 302.4292,224.3402 298.5725,234.8512 293.7484,244.9549 287.9994,254.5625 281.376,263.5894 273.9365,271.9565 265.7461,279.5902 256.8768,286.4234 247.4067,292.3961 237.4188,297.4556 227.0011,301.5577 216.2451,304.6663 205.2452,306.7539 194.0981,307.8023 182.9019,307.8023 171.7548,306.7539 160.7549,304.6663 149.9989,301.5577 139.5811,297.4556 129.5933,292.3961 120.1232,286.4234 111.2539,279.5902 103.0635,271.9565 95.6239,263.5894 89.0006,254.5625 83.2516,244.9549 78.4275,234.8512 74.5708,224.3402 71.7153,213.5142 69.8861,202.4684 69.0992,191.2998 69.3617,180.1067 70.6712,168.9872 73.0161,158.0393 76.3759,147.3591 80.7211,137.0404 86.0134,127.174 92.2064,117.8464 99.2457,109.1398 107.0692,101.1306 115.6085,93.8892 124.7882,87.4792 134.5279,81.957 144.7419,77.3712 155.3405,73.7619 166.2304,71.161 177.3161,69.5912 188.5,69.0664" stroke="black" stroke-width="1" />

    </g>
  </g>
  <WCB
     pausedposy="0"
     pausedposx="0"
     lastknownposy="0"
     lastknownposx="0"
     lastpathnc="0"
     lastpath="0"
     node="0"
     layer="0" />
</svg>
