<?xml version="1.0" encoding="UTF-8" standalone="no"?>
<!-- Created with Inkscape (http://www.inkscape.org/) -->

<svg
   xmlns:dc="http://purl.org/dc/elements/1.1/"
   xmlns:cc="http://creativecommons.org/ns#"
   xmlns:rdf="http://www.w3.org/1999/02/22-rdf-syntax-ns#"
   xmlns:svg="http://www.w3.org/2000/svg"
   xmlns="http://www.w3.org/2000/svg"
   xmlns:sodipodi="http://sodipodi.sourceforge.net/DTD/sodipodi-0.dtd"
   xmlns:inkscape="http://www.inkscape.org/namespaces/inkscape"
   width="100mm"
   height="100mm"
   viewBox="0 0 100 100"
   version="1.1"
   id="svg19124"
   inkscape:version="0.92.3 (2405546, 2018-03-11)"
   sodipodi:docname="inkscape_template_TMP.svg"
   shape-rendering="crispEdges">
  <sodipodi:namedview
     pagecolor="#ffffff"
     bordercolor="#666666"
     borderopacity="1"
     objecttolerance="10"
     gridtolerance="10"
     guidetolerance="10"
     inkscape:pageopacity="0"
     inkscape:pageshadow="2"
     inkscape:window-width="1568"
     inkscape:window-height="1550"
     id="namedview24021"
     showgrid="false"
     inkscape:zoom="0.62441667"
     inkscape:cx="712.66515"
     inkscape:cy="409.98265"
     inkscape:window-x="0"
     inkscape:window-y="0"
     inkscape:window-maximized="0"
     inkscape:current-layer="layer1" />
  <defs
     id="defs19118" />
  <metadata
     id="metadata19121">
    <rdf:RDF>
      <cc:Work
         rdf:about="">
        <dc:format>image/svg+xml</dc:format>
        <dc:type
           rdf:resource="http://purl.org/dc/dcmitype/StillImage" />
        <dc:title />
      </cc:Work>
    </rdf:RDF>
  </metadata>
  <g
     transform="translate(0,-197)"
     id="layer1"
     inkscape:groupmode="layer"
     inkscape:label="Layer 1">
    <g
       id="g24447"
       transform="matrix(0.26458333,0,0,0.26458333,0.10666333,197.9735)">

<polyline fill="none" points="192.1004,47.7394 189.7225,51.1455 187.3447,54.5516 184.9669,57.9577 184.9669,54.5516 184.9669,51.1455 184.9669,47.7394 184.9669,45.7676 186.5623,44.1729 188.5334,44.1729 190.5231,44.1729 192.1004,45.7676 192.1004,47.7394 192.1004,51.1455 192.1004,54.5516 192.1004,57.9577 192.1004,59.9295 190.5231,61.5235 188.5509,61.5235 186.5623,61.5235 184.9669,59.9295 184.9669,57.9577" stroke="black" stroke-width="1" /><polyline fill="none" points="197.8298,61.5877 200.7471,57.7851 198.696,53.7706 202.935,62.0679 200.7471,57.7851 203.4811,54.2207" stroke="black" stroke-width="1" /><polyline fill="none" points="215.9534,62.4864 215.1945,63.2672 214.2671,64.0163 212.1779,63.6198 210.3076,63.2649 208.9953,61.4454 209.3758,59.4404 209.6539,57.9752 209.9319,56.5099 210.21,55.0447 210.5809,53.0906 212.4685,51.8792 214.3388,52.2341 216.2427,52.5954 217.5885,54.4206 217.2177,56.3747 217.0792,57.1045 216.9407,57.8342 216.8022,58.5639 214.4719,58.1217 212.1416,57.6794 209.8114,57.2372" stroke="black" stroke-width="1" /><polyline fill="none" points="224.397,52.1393 224.8921,50.4261 226.7629,49.3247 228.6247,49.8627 230.4854,50.4005 231.5213,52.2535 230.9597,54.1969 230.8709,54.5042 230.7821,54.8115 230.6933,55.1189 229.8364,58.0837 227.1077,57.8301 226.7776,57.7347 226.4593,57.6427 226.141,57.5507 225.8227,57.4587 226.141,57.5507 226.4593,57.6427 226.7776,57.7347 227.75,58.0157 229.4922,59.7687 228.8259,62.0741 228.6307,62.7496 228.4355,63.4251 228.2403,64.1005 227.6883,66.0107 225.7014,67.0786 223.7906,66.5264 221.8634,65.9694 220.7697,64.0112 221.3217,62.1011" stroke="black" stroke-width="1" /><polyline fill="none" points="234.1348,62.8919 234.8572,61.0571 236.9254,60.1572 238.7595,60.8794 240.6109,61.6084 241.494,63.6704 240.7716,65.5051 240.3989,66.4515 240.0263,67.3978 239.6537,68.3442 238.9312,70.1789 236.8796,71.0845 235.0282,70.3555 233.1941,69.6334 232.2945,67.5656 233.0169,65.7309 234.2648,62.5616 235.5127,59.3924 236.7607,56.2232 237.483,54.3887 239.5511,53.4892 241.3851,54.2114 242.9653,54.8336 243.8459,56.4332 243.6193,58.039" stroke="black" stroke-width="1" /><polyline fill="none" points="250.1836,61.7836 254.0818,59.9716 246.3345,75.2651" stroke="black" stroke-width="1" /><polyline fill="none" points="261.1921,73.2796 262.5079,74.2293 264.796,73.9002 265.8433,72.2396 266.0871,71.8531 266.3308,71.4666 266.5746,71.0802 267.5626,69.5135 267.0901,67.4319 265.509,66.4347 263.9426,65.4469 261.8427,65.9471 260.8732,67.4844 260.6294,67.8709 260.3857,68.2574 260.1419,68.6438 259.1537,70.2108 259.6257,72.2917 261.1921,73.2796 262.918,74.368 263.3809,76.626 262.3294,78.2933 261.9697,78.8637 261.6099,79.4342 261.2501,80.0046 260.1984,81.6722 257.9792,82.1989 256.2533,81.1104 254.542,80.0311 254.062,77.8021 255.1137,76.1345 255.4794,75.5546 255.8452,74.9747 256.2109,74.3948 257.1125,72.9653 259.272,72.1885" stroke="black" stroke-width="1" /><polyline fill="none" points="270.9713,87.1271 269.7576,88.7024 267.5389,88.9412 266.0312,87.7796 264.5235,86.618 264.1752,84.4016 265.3889,82.8262 266.3096,81.6312 267.2304,80.4361 268.1511,79.241 269.365,77.6654 271.5966,77.4374 273.1043,78.599 274.612,79.7606 274.9474,81.9663 273.7335,83.5419" stroke="black" stroke-width="1" /><polyline fill="none" points="276.9819,88.3456 278.3264,86.9032 280.5804,86.8236 282.0224,88.1676 283.4779,89.5242 283.5442,91.7663 282.1997,93.2088 281.5063,93.9528 280.8129,94.6968 280.1194,95.4408 278.775,96.8833 276.5342,96.9743 275.0787,95.6177 273.6367,94.2737 273.5572,92.0202 274.9016,90.5777 277.2239,88.086 279.5462,85.5944 281.8685,83.1027 283.2126,81.6605 285.4665,81.5812 286.9084,82.9252 288.1508,84.0831 288.3841,85.8941 287.5849,87.3052" stroke="black" stroke-width="1" /><polyline fill="none" points="285.9717,97.0713 287.4453,95.7611 289.697,95.8929 291.0067,97.366 292.3288,98.8529 292.1848,101.0915 290.7112,102.4017 289.9512,103.0775 289.1911,103.7533 288.4311,104.4291 286.9575,105.7394 284.718,105.6201 283.3959,104.1332 282.0861,102.6601 282.218,100.409 283.6915,99.0987 286.2369,96.8355 288.7823,94.5722 291.3278,92.309 292.8011,90.999 295.0525,91.1311 296.3622,92.6042 297.4907,93.8733 297.5533,95.6982 296.6255,97.0283" stroke="black" stroke-width="1" /><polyline fill="none" points="306.9236,105.7683 303.2191,108.4864 299.5146,111.2045 295.8102,113.9226 294.2065,115.0992 291.9993,114.6992 290.8732,113.1643 289.7574,111.6436 290.0379,109.4178 291.6415,108.2412 292.8579,107.3487 294.0742,106.4563 295.2905,105.5638 296.8942,104.3872 299.101,104.7879 300.2168,106.3086 301.343,107.8434 301.0628,110.0686 299.4592,111.2452" stroke="black" stroke-width="1" /><polyline fill="none" points="308.5746,120.9756 306.8826,121.9881 304.7046,121.4526 303.6921,119.7605 302.6708,118.0538 303.2201,115.8675 304.9122,114.855 305.7851,114.3326 306.6581,113.8103 307.531,113.2879 309.2231,112.2754 311.41,112.8244 312.4226,114.5167 313.4438,116.2232 312.8856,118.3961 311.1935,119.4086 308.2707,121.1575 305.348,122.9064 302.4252,124.6554 300.7335,125.6677 298.5551,125.1323 297.5426,123.4402 296.6711,121.9839 296.9496,120.1782 298.1095,119.0442" stroke="black" stroke-width="1" /><polyline fill="none" points="311.4496,129.8204 312.0558,131.3256 314.1668,132.2679 315.9385,131.422 316.3508,131.2251 316.7632,131.0282 317.1755,130.8314 318.847,130.0333 319.5577,128.0206 318.7523,126.3337 317.9544,124.6625 315.9114,123.9654 314.2712,124.7485 313.8589,124.9454 313.4466,125.1423 313.0342,125.3392 311.3624,126.1374 310.6517,128.1493 311.4496,129.8204 312.3287,131.6617 311.5158,133.8186 309.737,134.6679 309.1284,134.9585 308.5198,135.2491 307.9111,135.5396 306.132,136.3891 303.974,135.6507 303.0948,133.8094 302.2231,131.9836 303.0062,129.8421 304.7853,128.9927 305.404,128.6973 306.0227,128.4019 306.6414,128.1065 308.1666,127.3783 310.4075,127.8732" stroke="black" stroke-width="1" /><polyline fill="none" points="308.7793,147.1879 312.8193,145.7055 310.7164,139.9743 324.7204,140.864" stroke="black" stroke-width="1" /><polyline fill="none" points="318.3056,150.6639 320.2288,150.1566 322.1356,151.3376 322.6212,153.1783 323.1065,155.0183 322.026,156.9702 320.1028,157.4775 318.6441,157.8623 317.1853,158.247 315.7266,158.6318 313.8037,159.139 311.9004,157.974 311.4151,156.1341 310.9296,154.2934 312.0108,152.3416 313.9337,151.8344 313.9323,151.829 313.9308,151.8236 313.9294,151.8182 318.3721,150.6463 322.8149,149.4745 327.2576,148.3026" stroke="black" stroke-width="1" /><polyline fill="none" points="327.9575,169.0549 324.2087,167.2655 320.4599,165.4761 316.7111,163.6867 320.0714,163.1302 323.4317,162.5737 326.792,162.0173 328.7374,161.6951 330.5713,163.0086 330.8934,164.9532 331.2184,166.9162 329.9028,168.7327 327.9575,169.0549 324.5972,169.6114 321.2369,170.1678 317.8766,170.7243 315.9312,171.0465 314.101,169.7509 313.7787,167.8052 313.4538,165.8432 314.7657,164.0089 316.7111,163.6867" stroke="black" stroke-width="1" /><polyline fill="none" points="329.8173,174.8605 332.1776,174.6942 332.6777,181.7933 315.2256,178.0203" stroke="black" stroke-width="1" /><polyline fill="none" points="317.3057,194.9968 316.4114,194.3756 315.5208,193.5831 315.5706,191.4571 315.6153,189.554 317.1959,187.962 319.2361,188.0099 320.7271,188.0448 322.2181,188.0798 323.709,188.1147 325.6975,188.1614 327.201,189.8257 327.1564,191.7288 327.111,193.6662 325.5303,195.2922 323.5418,195.2455 322.7993,195.2281 322.0567,195.2107 321.3141,195.1933 321.3698,192.8221 321.4254,190.4509 321.4809,188.0796" stroke="black" stroke-width="1" /><polyline fill="none" points="316.1313,207.0298 315.2992,206.3276 314.4867,205.4552 314.7354,203.3432 314.958,201.4527 316.6808,200.0157 318.7076,200.2543 320.1887,200.4288 321.6699,200.6032 323.151,200.7776 325.1263,201.0102 326.4675,202.8081 326.2448,204.6986 326.0182,206.6233 324.2921,208.094 322.3168,207.8614 321.5791,207.7746 320.8414,207.6877 320.1038,207.6008 320.3812,205.2452 320.6586,202.8896 320.936,200.534" stroke="black" stroke-width="1" /><polyline fill="none" points="325.3846,221.5014 322.5521,218.463 319.7196,215.4245 316.8871,212.3861 320.2176,213.0994 323.5482,213.8128 326.8787,214.5262 328.8068,214.9392 330.032,216.8332 329.6191,218.7606 329.2024,220.7062 327.3127,221.9144 325.3846,221.5014 322.0541,220.7881 318.7236,220.0747 315.3931,219.3613 313.4649,218.9483 312.2366,217.0723 312.6497,215.1438 313.0662,213.1993 314.959,211.9731 316.8871,212.3861" stroke="black" stroke-width="1" /><polyline fill="none" points="324.988,227.5847 327.2451,228.2948 325.1095,235.0835 310.2533,225.1787" stroke="black" stroke-width="1" /><polyline fill="none" points="319.5868,239.9012 321.4041,240.6665 322.2546,242.7549 321.4894,244.5722 320.7173,246.4057 318.5843,247.2746 316.767,246.5093 316.055,246.2095 315.6417,245.8684 315.3796,245.5163 312.7252,241.9548 310.0706,238.3934 307.4162,234.832 307.2847,234.7766 307.1533,234.7213 307.0219,234.6659 306.1035,236.8467 305.1852,239.0275 304.2668,241.2083" stroke="black" stroke-width="1" /><polyline fill="none" points="309.2538,249.3242 311.0066,250.2643 311.5963,252.4284 310.6964,254.1059 309.797,255.7828 307.6757,256.4741 305.9229,255.5339 304.5935,254.8208 303.2641,254.1077 301.9346,253.3946 300.1822,252.4546 299.5841,250.3047 300.4836,248.6277 301.3834,246.9502 303.5051,246.2596 305.2576,247.1996 305.2602,247.1947 305.2628,247.1898 305.2655,247.1848 309.3145,249.3567 313.3634,251.5285 317.4124,253.7004" stroke="black" stroke-width="1" /><polyline fill="none" points="299.8036,266.2751 299.8081,266.2781 299.8127,266.2812 299.8173,266.2842 297.8749,264.9946 295.9325,263.705 293.9902,262.4153 293.0925,261.8193 292.3297,262.2204 292.0175,262.6906 292.416,262.0904 293.2603,261.9307 293.8762,262.3397 293.9142,262.3649 293.9522,262.3901 293.9902,262.4153 293.7834,260.9601 293.9327,259.4954 294.7575,258.2532 295.4405,257.2245 297.0646,255.8948 299.1641,257.2888 300.2641,258.0191 300.5561,259.0974 300.3387,260.2293 300.2404,260.781 299.6104,262.3193 299.1894,263.3564 298.7726,264.4173 298.7036,265.5448 299.8036,266.2751 300.9176,267.0148 303.0088,266.7772 304.1467,265.0633 305.2187,263.4488 304.9265,262.1848 304.5113,261.2296" stroke="black" stroke-width="1" /><polyline fill="none" points="295.6971,279.7978 294.5434,275.8072 293.3896,271.8167 292.236,267.8262 294.8846,269.9676 297.5333,272.1091 300.182,274.2505 301.7154,275.4902 301.9525,277.7335 300.7132,279.2663 299.4622,280.8136 297.2305,281.0375 295.6971,279.7978 293.0484,277.6563 290.3997,275.5149 287.751,273.3734 286.2177,272.1337 285.9697,269.9051 287.2097,268.3714 288.46,266.825 290.7026,266.5865 292.236,267.8262" stroke="black" stroke-width="1" /><polyline fill="none" points="284.4155,287.3821 283.0049,286.0043 282.9673,283.7617 284.3451,282.3511 285.735,280.9283 287.9891,280.9019 289.3996,282.2798 290.1273,282.9906 290.8551,283.7015 291.5828,284.4123 292.9933,285.7902 293.0203,288.0448 291.6422,289.4556 290.2526,290.8782 288.0092,290.8926 286.5986,289.5147 284.1621,287.1347 281.7256,284.7546 279.2891,282.3745 277.8788,280.9969 277.8409,278.7541 279.2187,277.3435 280.4047,276.1295 282.2217,275.9382 283.614,276.7704" stroke="black" stroke-width="1" /><polyline fill="none" points="280.289,299.683 281.0468,299.0403 281.2864,298.05 280.4659,297.0824 279.6713,296.1454 278.8766,295.2083 278.082,294.2713 277.6201,294.663 277.1582,295.0547 276.6963,295.4464 277.5855,294.6923 278.4747,293.9383 279.3639,293.1842 278.9366,293.5466 278.5093,293.9089 278.082,294.2713 275.6389,291.3903 273.1958,288.5094 270.7527,285.6284" stroke="black" stroke-width="1" /><polyline fill="none" points="267.9014,295.9959 269.0303,297.6126 268.636,299.8334 267.0199,300.9619 265.3885,302.101 263.1822,301.6962 262.0533,300.0794 261.471,299.2455 260.8887,298.4117 260.3065,297.5778 259.1776,295.9611 259.5579,293.7509 261.1893,292.6118 262.8054,291.4833 265.0257,291.8775 266.1546,293.4942 268.1046,296.2869 270.0546,299.0795 272.0046,301.8721 273.1333,303.4886 272.7388,305.709 271.1227,306.8375 269.7302,307.8098 267.9106,307.6586 266.6981,306.5816" stroke="black" stroke-width="1" /><polyline fill="none" points="252.6438,308.1789 252.6465,308.1836 252.6492,308.1884 252.6519,308.1931 251.502,306.1649 250.3521,304.1367 249.2021,302.1086 248.6707,301.1712 247.8089,301.1843 247.318,301.4627 247.9447,301.1074 248.77,301.3464 249.1346,301.9896 249.1571,302.0292 249.1796,302.0689 249.2021,302.1086 249.6752,300.717 250.4704,299.4779 251.7675,298.7424 252.8416,298.1335 254.8913,297.6812 256.1343,299.8734 256.7855,301.022 256.5587,302.1159 255.8533,303.0274 255.5163,303.4751 254.2591,304.5627 253.4149,305.2976 252.5638,306.0557 251.9926,307.0302 252.6438,308.1789 253.3034,309.3421 255.2763,310.0752 257.0659,309.0605 258.7517,308.1047 259.0623,306.8451 259.1235,305.8053" stroke="black" stroke-width="1" /><polyline fill="none" points="238.8495,309.094 238.035,307.2798 238.8733,305.2117 240.6096,304.4322 242.3459,303.6526 244.4638,304.3934 245.2783,306.2076 245.8962,307.5839 246.5142,308.9601 247.1321,310.3364 247.9467,312.1509 247.0928,314.2252 245.3565,315.0048 243.6202,315.7843 241.518,315.0373 240.7033,313.2228" stroke="black" stroke-width="1" /><polyline fill="none" points="234.9346,313.8147 235.5702,315.6813 234.5749,317.7053 232.709,318.3407 230.8255,318.9821 228.8183,317.9806 228.1826,316.114 227.8547,315.1513 227.5269,314.1885 227.199,313.2257 226.5634,311.3592 227.5424,309.3415 229.4259,308.7001 231.2918,308.0646 233.3153,309.0598 233.951,310.9264 235.049,314.1506 236.147,317.3749 237.245,320.5991 237.8805,322.4654 236.885,324.489 235.0191,325.1245 233.4115,325.6719 231.7053,325.0214 230.8395,323.6501" stroke="black" stroke-width="1" /><polyline fill="none" points="220.1385,329.1623 221.1049,328.9315 221.7661,328.1563 221.4714,326.9224 221.186,325.7274 220.9006,324.5323 220.6152,323.3374 220.0261,323.478 219.4371,323.6187 218.848,323.7594 219.982,323.4886 221.116,323.2177 222.25,322.9469 221.705,323.0771 221.1601,323.2072 220.6152,323.3374 219.7377,319.6633 218.8602,315.9893 217.9827,312.3152" stroke="black" stroke-width="1" /><polyline fill="none" points="206.8276,331.5069 207.8114,331.3676 208.5423,330.6577 208.3645,329.4016 208.1922,328.1852 208.02,326.9687 207.8477,325.7522 207.2481,325.8371 206.6484,325.922 206.0488,326.0069 207.2032,325.8434 208.3575,325.68 209.5119,325.5165 208.9572,325.5951 208.4024,325.6736 207.8477,325.7522 207.3181,322.0121 206.7885,318.272 206.2589,314.532" stroke="black" stroke-width="1" /><polyline fill="none" points="198.8229,330.0981 198.9338,332.4617 191.8249,332.7953 196.0061,315.4364" stroke="black" stroke-width="1" /><polyline fill="none" points="184.1298,329.3645 181.3157,332.6142 182.1193,315.4892" stroke="black" stroke-width="1" /><polyline fill="none" points="164.9311,331.0243 165.5753,326.475 166.2195,321.9257 166.8637,317.3764 167.1425,315.407 168.9711,314.1077 170.8559,314.3746 172.7234,314.639 174.1196,316.3951 173.8408,318.3644 173.6292,319.8581 173.4177,321.3518 173.2062,322.8456 172.9273,324.8149 171.0986,326.1135 169.2311,325.8491 167.3462,325.5822 165.9503,323.8269 166.2291,321.8576" stroke="black" stroke-width="1" /><polyline fill="none" points="159.1037,327.3973 158.554,329.6987 151.6321,328.0455 160.4683,312.5299" stroke="black" stroke-width="1" /><polyline fill="none" points="140.2246,324.3542 141.1652,324.6745 142.138,324.3716 142.547,323.1707 142.943,322.0076 143.3391,320.8446 143.7352,319.6816 143.1619,319.4864 142.5886,319.2911 142.0153,319.0959 143.1189,319.4717 144.2226,319.8476 145.3262,320.2234 144.7959,320.0428 144.2655,319.8622 143.7352,319.6816 144.9529,316.1058 146.1705,312.5301 147.3882,308.9543" stroke="black" stroke-width="1" /><polyline fill="none" points="127.5613,315.4369 131.1256,313.3036 134.69,311.1703 138.2543,309.0369 136.8592,312.1442 135.4641,315.2514 134.069,318.3587 133.2613,320.1576 131.1527,320.9589 129.3545,320.1516 127.5393,319.3366 126.7537,317.2358 127.5613,315.4369 128.9564,312.3297 130.3515,309.2224 131.7466,306.1151 132.5543,304.3163 134.646,303.5081 136.4452,304.3159 138.2594,305.1305 139.0619,307.2381 138.2543,309.0369" stroke="black" stroke-width="1" /><polyline fill="none" points="115.7399,312.9702 116.6042,313.4603 117.6165,313.3441 118.2422,312.2405 118.8482,311.1717 119.4541,310.1029 120.0601,309.0341 119.5333,308.7354 119.0064,308.4367 118.4796,308.138 119.4938,308.7131 120.508,309.2881 121.5222,309.8631 121.0349,309.5868 120.5475,309.3105 120.0601,309.0341 121.9232,305.7482 123.7863,302.4622 125.6493,299.1762" stroke="black" stroke-width="1" /><polyline fill="none" points="110.8709,293.6271 112.0094,291.9966 114.2145,291.6541 115.775,292.7437 117.3355,293.8334 117.7873,296.0311 116.6488,297.6616 115.7851,298.8985 114.9214,300.1354 114.0577,301.3723 112.9189,303.0031 110.7005,303.3354 109.14,302.2458 107.5795,301.1562 107.1411,298.9686 108.2798,297.3378" stroke="black" stroke-width="1" /><polyline fill="none" points="92.5352,296.4788 95.5069,292.9745 98.4786,289.4702 101.4503,285.9659 102.7367,284.4489 104.9765,284.3253 106.4283,285.5565 107.8669,286.7764 108.1111,289.0065 106.8247,290.5235 105.8489,291.6741 104.8732,292.8247 103.8975,293.9753 102.611,295.4923 100.3715,295.6152 98.9329,294.3953 97.4811,293.1641 97.2366,290.9347 98.5231,289.4178" stroke="black" stroke-width="1" /><polyline fill="none" points="91.0302,283.6816 89.9711,282.4521 87.6691,282.2407 86.2646,283.6126 85.9378,283.9319 85.6109,284.2512 85.2841,284.5704 83.9591,285.8647 83.9351,287.9991 85.2413,289.3363 86.5353,290.661 88.694,290.6624 89.9942,289.3923 90.321,289.073 90.6479,288.7537 90.9747,288.4344 92.3,287.1399 92.3242,285.0063 91.0302,283.6816 89.6044,282.222 89.6786,279.9182 91.0887,278.5408 91.5712,278.0695 92.0536,277.5983 92.5361,277.127 93.9464,275.7494 96.2272,275.7526 97.653,277.2122 99.0668,278.6596 99.0159,280.9391 97.6056,282.3168 97.1151,282.7959 96.6246,283.275 96.1342,283.754 94.9252,284.935 92.6444,285.1889" stroke="black" stroke-width="1" /><polyline fill="none" points="80.3261,278.8345 76.0277,278.8908 89.3594,268.1123" stroke="black" stroke-width="1" /><polyline fill="none" points="72.9279,269.2832 71.4423,270.2696 69.303,269.8997 68.2311,268.2852 67.1598,266.6716 67.5681,264.5883 69.2534,263.4694 69.5199,263.2924 69.7864,263.1155 70.0529,262.9385 72.624,261.2314 74.5411,263.1898 74.7312,263.476 74.9145,263.752 75.0977,264.028 75.281,264.3041 75.0977,264.028 74.9145,263.752 74.7312,263.476 74.1713,262.6328 73.9764,260.1689 75.9756,258.8416 76.5613,258.4527 77.1471,258.0638 77.7328,257.6748 79.3893,256.575 81.5953,257.0456 82.6955,258.7026 83.8051,260.3739 83.3728,262.5747 81.7163,263.6745" stroke="black" stroke-width="1" /><polyline fill="none" points="62.7558,251.8632 66.8813,252.3486 71.0068,252.834 75.1323,253.3194 72.1307,254.9294 69.1292,256.5394 66.1277,258.1494 64.39,259.0815 62.2306,258.4293 61.2989,256.6923 60.3584,254.9389 61.0181,252.7953 62.7558,251.8632 65.7573,250.2532 68.7588,248.6432 71.7604,247.0331 73.498,246.1011 75.6482,246.7375 76.5805,248.4754 77.5205,250.2279 76.8699,252.3873 75.1323,253.3194" stroke="black" stroke-width="1" /><polyline fill="none" points="59.1238,246.9669 56.9431,247.8852 54.1812,241.3264 71.9179,239.272" stroke="black" stroke-width="1" /><polyline fill="none" points="54.2173,234.5951 51.9602,235.3051 49.8246,228.5164 67.6758,228.132" stroke="black" stroke-width="1" /><polyline fill="none" points="60.0354,212.4756 61.9799,212.0591 63.8266,213.312 64.2252,215.173 64.6238,217.0341 63.4559,218.9499 61.5113,219.3663 60.0362,219.6823 58.561,219.9983 57.0858,220.3143 55.141,220.7308 53.2915,219.4614 52.8929,217.6003 52.4943,215.7393 53.665,213.8401 55.6099,213.4235" stroke="black" stroke-width="1" /><polyline fill="none" points="54.6718,207.763 52.6964,207.9957 50.974,206.559 50.7514,204.6684 50.5288,202.7785 51.8723,200.9973 53.8476,200.7647 55.3459,200.5883 56.8441,200.4118 58.3424,200.2354 60.3174,200.0028 62.0386,201.4231 62.2612,203.313 62.4838,205.2036 61.1396,206.9845 59.1646,207.217 59.1653,207.2226 59.1659,207.2282 59.1666,207.2337 54.6034,207.7711 50.0403,208.3085 45.4771,208.8458" stroke="black" stroke-width="1" /><polyline fill="none" points="52.3023,191.6726 52.3657,190.0511 50.8259,188.3269 48.8631,188.373 48.4063,188.3837 47.9495,188.3944 47.4928,188.4051 45.641,188.4485 44.1682,189.9935 44.2121,191.8624 44.2555,193.7137 45.8337,195.1864 47.6508,195.1438 48.1076,195.1331 48.5643,195.1224 49.0211,195.1117 50.8732,195.0683 52.3457,193.524 52.3023,191.6726 52.2544,189.6328 53.8795,187.9981 55.8501,187.9519 56.5243,187.9361 57.1985,187.9203 57.8728,187.9045 59.8438,187.8582 61.5101,189.4157 61.5579,191.4556 61.6053,193.4783 60.0138,195.1111 58.0429,195.1574 57.3574,195.1734 56.672,195.1895 55.9866,195.2056 54.297,195.2452 52.4554,193.8758" stroke="black" stroke-width="1" /><polyline fill="none" points="44.8262,176.4698 44.7564,177.4609 45.2974,178.3243 46.5629,178.4135 47.7885,178.4998 49.0141,178.5862 50.2397,178.6725 50.2822,178.0684 50.3248,177.4642 50.3673,176.8601 50.2854,178.0231 50.2035,179.1861 50.1215,180.3491 50.1609,179.7902 50.2003,179.2314 50.2397,178.6725 54.0077,178.938 57.7758,179.2034 61.5438,179.4689" stroke="black" stroke-width="1" /><polyline fill="none" points="63.4924,165.1139 59.2469,164.4108 58.2495,170.4336 46.5061,162.7527" stroke="black" stroke-width="1" /><polyline fill="none" points="49.5891,149.8913 49.3357,150.852 49.7062,151.8011 50.9329,152.1247 52.1209,152.438 53.3089,152.7514 54.4968,153.0648 54.6513,152.4792 54.8058,151.8936 54.9602,151.308 54.6629,152.4353 54.3655,153.5626 54.0682,154.6899 54.2111,154.1482 54.354,153.6065 54.4968,153.0648 58.1493,154.0282 61.8018,154.9915 65.4543,155.955" stroke="black" stroke-width="1" /><polyline fill="none" points="54.9991,143.1089 53.325,142.4946 52.3578,140.551 53.0253,138.7316 53.6925,136.9133 55.6137,136.0102 57.5129,136.707 57.8132,136.8172 58.1135,136.9274 58.4138,137.0376 61.3111,138.1006 60.8663,140.8048 60.748,141.1274 60.6339,141.4384 60.5197,141.7495 60.4056,142.0605 60.5197,141.7495 60.6339,141.4384 60.748,141.1274 61.0967,140.1772 62.9678,138.5624 65.2206,139.3891 65.8807,139.6313 66.5408,139.8735 67.2009,140.1157 69.0675,140.8006 69.9932,142.8575 69.308,144.7248 68.617,146.6082 66.5868,147.5615 64.7202,146.8766" stroke="black" stroke-width="1" /><polyline fill="none" points="59.5438,123.6993 58.6596,125.5512 57.7755,127.403 56.8913,129.2549 59.3308,130.4196 61.7703,131.5844 64.2098,132.7492 63.3921,131.6368 63.1637,130.4822 63.8064,129.1362 64.6929,127.2794 66.9117,126.5721 68.6286,127.3918 69.8561,127.9779 71.0835,128.5639 72.311,129.15 74.1055,130.0068 74.7339,132.0736 73.9285,133.7605 73.1307,135.4313 71.1359,136.2266 69.3413,135.3698" stroke="black" stroke-width="1" /><polyline fill="none" points="78.1773,118.4508 79.8838,119.4719 80.3805,121.6475 79.4032,123.2807 78.4259,124.9139 76.2653,125.519 74.5589,124.4979 73.2643,123.7232 71.9698,122.9486 70.6752,122.174 68.9684,121.1527 68.481,118.9631 69.4583,117.3298 70.4356,115.6966 72.5869,115.1056 74.2937,116.1269" stroke="black" stroke-width="1" /><polyline fill="none" points="74.0441,100.3608 77.7486,103.0788 81.4531,105.7969 85.1575,108.515 86.7612,109.6917 87.0419,111.9172 85.9158,113.452 84.8,114.9727 82.5926,115.373 80.9889,114.1964 79.7726,113.3039 78.5563,112.4115 77.3399,111.519 75.7363,110.3424 75.4563,108.117 76.5721,106.5963 77.6983,105.0615 79.9049,104.661 81.5085,105.8376" stroke="black" stroke-width="1" /><polyline fill="none" points="86.2989,102.3903 84.8254,101.08 84.693,98.8284 86.0027,97.3553 87.3249,95.8684 89.5649,95.7496 91.0385,97.0598 91.7985,97.7357 92.5586,98.4115 93.3186,99.0873 94.7922,100.3975 94.9357,102.6356 93.6136,104.1225 92.3038,105.5956 90.0527,105.7279 88.5791,104.4177 86.0337,102.1544 83.4883,99.8912 80.9429,97.628 79.4696,96.318 79.3375,94.0666 80.6473,92.5935 81.7757,91.3244 83.5807,91.0487 85.0103,91.8146" stroke="black" stroke-width="1" /><polyline fill="none" points="103.1419,91.8195 103.3225,92.8933 103.3779,94.0842 101.8223,95.534 100.4297,96.832 98.1864,96.8137 96.7949,95.3208 95.7781,94.2298 94.7613,93.1388 93.7445,92.0478 92.3884,90.5928 92.5283,88.3543 93.9208,87.0563 95.3385,85.735 97.6062,85.7297 98.9623,87.1847 99.4687,87.728 99.9751,88.2714 100.4816,88.8148 98.7465,90.4319 97.0114,92.0491 95.2763,93.6662" stroke="black" stroke-width="1" /><polyline fill="none" points="104.1473,84.844 102.9439,83.282 103.2337,81.0452 104.7951,79.8421 106.3713,78.6278 108.5942,78.9288 109.7976,80.4908 110.4183,81.2965 111.0391,82.1021 111.6598,82.9078 112.8632,84.4699 112.5869,86.6954 111.0107,87.9098 109.4492,89.1128 107.2129,88.8231 106.0095,87.261 103.9307,84.5629 101.852,81.8647 99.7732,79.1665 98.57,77.6048 98.86,75.3683 100.4214,74.1653 101.7667,73.1288 103.5915,73.1945 104.8532,74.2135" stroke="black" stroke-width="1" /><polyline fill="none" points="113.455,76.0309 112.3939,74.3485 112.9483,72.1751 114.5585,71.1597 116.168,70.1445 118.3542,70.5895 119.4153,72.2718 120.22,73.5479 121.0248,74.8239 121.8296,76.0999 122.8904,77.782 122.3503,79.9472 120.7408,80.9623 119.1306,81.9778 116.9443,81.5321 115.8835,79.85 115.8787,79.853 115.874,79.856 115.8693,79.859 113.4183,75.9727 110.9672,72.0863 108.5162,68.2" stroke="black" stroke-width="1" /><polyline fill="none" points="121.788,64.273 120.9821,62.6822 121.5997,60.6009 123.3285,59.7252 125.0563,58.8499 127.0775,59.4991 127.9917,61.3037 128.1363,61.5891 128.2808,61.8744 128.4254,62.1598 129.82,64.9129 127.6509,66.5878 127.3444,66.7431 127.0489,66.8928 126.7533,67.0425 126.4578,67.1923 126.7533,67.0425 127.0489,66.8928 127.3444,66.7431 128.2474,66.2857 130.7171,66.3802 131.8015,68.521 132.1193,69.1482 132.437,69.7754 132.7547,70.4026 133.6533,72.1763 132.928,74.3122 131.1536,75.211 129.364,76.1176 127.2289,75.4308 126.3304,73.6571" stroke="black" stroke-width="1" /><polyline fill="none" points="138.3461,53.173 136.4367,53.9248 134.5273,54.6767 132.6178,55.4285 133.6083,57.9438 134.5987,60.4592 135.5892,62.9745 135.7494,61.6033 136.3696,60.6029 137.7573,60.0564 139.6718,59.3026 141.7773,60.298 142.4743,62.0682 142.9727,63.3338 143.471,64.5994 143.9693,65.865 144.6979,67.7154 143.7485,69.6557 142.0091,70.3406 140.2864,71.0189 138.2848,70.2406 137.5562,68.3902" stroke="black" stroke-width="1" /><polyline fill="none" points="153.8329,55.1747 154.3803,57.069 153.307,59.0384 151.4127,59.5859 149.5019,60.1381 147.528,59.0493 146.9805,57.155 146.6981,56.1777 146.4156,55.2004 146.1332,54.2231 145.5857,52.3287 146.6743,50.3542 148.569,49.8066 150.4794,49.2545 152.4381,50.3484 152.9855,52.2427 153.9312,55.5149 154.8769,58.7871 155.8225,62.0592 156.3699,63.9532 155.2967,65.923 153.4023,66.4704 151.7719,66.9417 150.0969,66.2119 149.2962,64.8011" stroke="black" stroke-width="1" /><polyline fill="none" points="160.0271,50.4739 162.0093,46.6594 165.2059,63.5026" stroke="black" stroke-width="1" /><polyline fill="none" points="261.053,177.8902 280.8196,188.8365 108.8569,140.3048 239.8942,231.6324 220.8597,130.6987 188.8697,188.4998 188.2428,253.3668 236.6952,108.8569 188.8365,96.1804 239.8942,231.6324" stroke="black" stroke-width="1" /><polyline fill="none" points="256.4039,225.4092 223.3846,237.8556" stroke="black" stroke-width="1" /><polyline fill="none" points="262.5255,172.1919 262.3806,170.3519 261.9497,168.5571 261.2434,166.8519 260.279,165.2781 259.0803,163.8746 257.6768,162.6759 256.1031,161.7115 254.3978,161.0052 252.6031,160.5743 250.763,160.4295 248.923,160.5743 247.1283,161.0052 245.423,161.7115 243.8493,162.6759 242.4458,163.8746 241.2471,165.2781 240.2827,166.8519 239.5763,168.5571 239.1454,170.3519 239.0006,172.1919 239.1455,174.032 239.5763,175.8267 240.2827,177.5319 241.2471,179.1057 242.4458,180.5092 243.8493,181.7079 245.423,182.6723 247.1283,183.3786 248.923,183.8095 250.763,183.9543 252.6031,183.8095 254.3978,183.3786 256.1031,182.6723 257.6768,181.7079 259.0803,180.5092 260.279,179.1057 261.2434,177.5319 261.9497,175.8267 262.3806,174.0319 262.5255,172.1919" stroke="black" stroke-width="1" /><polyline fill="none" points="188.5,69.0664 199.6839,69.5912 210.7696,71.161 221.6595,73.7619 232.2581,77.3712 242.4721,81.9571 252.2118,87.4792 261.3915,93.8892 269.9308,101.1306 277.7544,109.1398 284.7936,117.8464 290.9866,127.1739 296.2789,137.0404 300.6241,147.3591 303.9839,158.0393 306.3289,168.9873 307.6383,180.1067 307.9008,191.2998 307.114,202.4684 305.2847,213.5142 302.4292,224.3402 298.5725,234.8512 293.7484,244.9549 287.9994,254.5625 281.376,263.5894 273.9365,271.9565 265.7461,279.5902 256.8768,286.4234 247.4067,292.3961 237.4188,297.4556 227.0011,301.5577 216.2451,304.6663 205.2452,306.7539 194.0981,307.8023 182.9019,307.8023 171.7548,306.7539 160.7549,304.6663 149.9989,301.5577 139.5811,297.4556 129.5933,292.3961 120.1232,286.4234 111.2539,279.5902 103.0635,271.9565 95.6239,263.5894 89.0006,254.5625 83.2516,244.9549 78.4275,234.8512 74.5708,224.3402 71.7153,213.5142 69.8861,202.4684 69.0992,191.2998 69.3617,180.1067 70.6712,168.9872 73.0161,158.0393 76.3759,147.3591 80.7211,137.0404 86.0134,127.174 92.2064,117.8464 99.2457,109.1398 107.0692,101.1306 115.6085,93.8892 124.7882,87.4792 134.5279,81.957 144.7419,77.3712 155.3405,73.7619 166.2304,71.161 177.3161,69.5912 188.5,69.0664" stroke="black" stroke-width="1" />

    </g>
  </g>
  <WCB
     pausedposy="0"
     pausedposx="0"
     lastknownposy="0"
     lastknownposx="0"
     lastpathnc="0"
     lastpath="0"
     node="0"
     layer="0" />
</svg>
