<?xml version="1.0" encoding="UTF-8" standalone="no"?>
<!-- Created with Inkscape (http://www.inkscape.org/) -->

<svg
   xmlns:dc="http://purl.org/dc/elements/1.1/"
   xmlns:cc="http://creativecommons.org/ns#"
   xmlns:rdf="http://www.w3.org/1999/02/22-rdf-syntax-ns#"
   xmlns:svg="http://www.w3.org/2000/svg"
   xmlns="http://www.w3.org/2000/svg"
   xmlns:sodipodi="http://sodipodi.sourceforge.net/DTD/sodipodi-0.dtd"
   xmlns:inkscape="http://www.inkscape.org/namespaces/inkscape"
   width="100mm"
   height="100mm"
   viewBox="0 0 100 100"
   version="1.1"
   id="svg19124"
   inkscape:version="0.92.3 (2405546, 2018-03-11)"
   sodipodi:docname="inkscape_template_TMP.svg"
   shape-rendering="crispEdges">
  <sodipodi:namedview
     pagecolor="#ffffff"
     bordercolor="#666666"
     borderopacity="1"
     objecttolerance="10"
     gridtolerance="10"
     guidetolerance="10"
     inkscape:pageopacity="0"
     inkscape:pageshadow="2"
     inkscape:window-width="1568"
     inkscape:window-height="1550"
     id="namedview24021"
     showgrid="false"
     inkscape:zoom="0.62441667"
     inkscape:cx="712.66515"
     inkscape:cy="409.98265"
     inkscape:window-x="0"
     inkscape:window-y="0"
     inkscape:window-maximized="0"
     inkscape:current-layer="layer1" />
  <defs
     id="defs19118" />
  <metadata
     id="metadata19121">
    <rdf:RDF>
      <cc:Work
         rdf:about="">
        <dc:format>image/svg+xml</dc:format>
        <dc:type
           rdf:resource="http://purl.org/dc/dcmitype/StillImage" />
        <dc:title />
      </cc:Work>
    </rdf:RDF>
  </metadata>
  <g
     transform="translate(0,-197)"
     id="layer1"
     inkscape:groupmode="layer"
     inkscape:label="Layer 1">
    <g
       id="g24447"
       transform="matrix(0.26458333,0,0,0.26458333,0.10666333,197.9735)">

<polyline fill="none" points="192.1004,47.7394 189.7225,51.1455 187.3447,54.5516 184.9669,57.9577 184.9669,54.5516 184.9669,51.1455 184.9669,47.7394 184.9669,45.7676 186.5623,44.1729 188.5334,44.1729 190.5231,44.1729 192.1004,45.7676 192.1004,47.7394 192.1004,51.1455 192.1004,54.5516 192.1004,57.9577 192.1004,59.9295 190.5231,61.5235 188.5509,61.5235 186.5623,61.5235 184.9669,59.9295 184.9669,57.9577" stroke="black" stroke-width="1" /><polyline fill="none" points="197.8298,61.5877 200.7471,57.7851 198.696,53.7706 202.935,62.0679 200.7471,57.7851 203.4811,54.2207" stroke="black" stroke-width="1" /><polyline fill="none" points="215.9534,62.4864 215.1945,63.2672 214.2671,64.0163 212.1779,63.6198 210.3076,63.2649 208.9953,61.4454 209.3758,59.4404 209.6539,57.9752 209.9319,56.5099 210.21,55.0447 210.5809,53.0906 212.4685,51.8792 214.3388,52.2341 216.2427,52.5954 217.5885,54.4206 217.2177,56.3747 217.0792,57.1045 216.9407,57.8342 216.8022,58.5639 214.4719,58.1217 212.1416,57.6794 209.8114,57.2372" stroke="black" stroke-width="1" /><polyline fill="none" points="228.0957,63.9602 227.5436,65.8707 225.5666,66.9057 223.7382,66.3773 221.9097,65.8489 220.7736,63.9141 221.3257,62.0037 221.7446,60.5543 222.1634,59.105 222.5823,57.6557 223.1345,55.7449 225.1274,54.7152 226.9558,55.2436 228.7843,55.772 229.9045,57.7014 229.3523,59.6123" stroke="black" stroke-width="1" /><polyline fill="none" points="243.0901,55.0579 242.1656,54.6939 241.1796,54.9509 240.7148,56.1313 240.2647,57.2744 239.8145,58.4176 239.3644,59.5608 239.9279,59.7827 240.4914,60.0046 241.0549,60.2265 239.9701,59.7993 238.8853,59.3722 237.8005,58.945 238.3218,59.1503 238.8431,59.3556 239.3644,59.5608 237.9805,63.0756 236.5965,66.5903 235.2125,70.105" stroke="black" stroke-width="1" /><polyline fill="none" points="255.3459,60.7562 254.4596,60.3071 253.4539,60.4707 252.8806,61.6024 252.3254,62.6984 251.7702,63.7944 251.215,64.8904 251.7552,65.1641 252.2955,65.4378 252.8357,65.7114 251.7957,65.1846 250.7556,64.6577 249.7156,64.1309 250.2154,64.384 250.7152,64.6372 251.215,64.8904 249.508,68.2601 247.801,71.6298 246.0939,74.9995" stroke="black" stroke-width="1" /><polyline fill="none" points="260.6272,67.5723 261.679,65.9044 263.8784,65.4066 265.5463,66.4585 267.2289,67.5197 267.7377,69.766 266.6858,71.4339 266.2737,72.0873 265.8697,72.4393 265.4794,72.6403 261.5322,74.6773 257.5849,76.7143 253.6376,78.7512 253.5616,78.8718 253.4855,78.9925 253.4094,79.1131 255.4109,80.3754 257.4124,81.6377 259.4138,82.9" stroke="black" stroke-width="1" /><polyline fill="none" points="270.9713,87.1271 269.7576,88.7024 267.5389,88.9412 266.0312,87.7796 264.5235,86.618 264.1752,84.4016 265.3889,82.8262 266.3096,81.6312 267.2304,80.4361 268.1511,79.241 269.365,77.6654 271.5966,77.4374 273.1043,78.599 274.612,79.7606 274.9474,81.9663 273.7335,83.5419" stroke="black" stroke-width="1" /><polyline fill="none" points="278.1101,87.2523 279.4662,85.7973 281.709,85.779 283.1016,87.0769 284.4937,88.3744 284.6211,90.6017 283.265,92.0568 282.2364,93.1604 281.2078,94.264 280.1792,95.3676 278.8233,96.8223 276.592,96.8523 275.1999,95.5549 273.8073,94.257 273.6807,92.0293 275.0366,90.5746 275.0325,90.5707 275.0284,90.5669 275.0243,90.5631 278.157,87.2019 281.2897,83.8408 284.4224,80.4796" stroke="black" stroke-width="1" /><polyline fill="none" points="296.0846,97.6592 291.9592,98.1455 287.8338,98.6317 283.7084,99.118 286.2538,96.8547 288.7992,94.5915 291.3446,92.3283 292.8182,91.018 295.0701,91.1507 296.3799,92.6237 297.702,94.1107 297.5582,96.349 296.0846,97.6592 293.5392,99.9224 290.9938,102.1857 288.4484,104.4489 286.9748,105.7592 284.7356,105.6397 283.4251,104.1658 282.1037,102.6796 282.2348,100.4282 283.7084,99.118" stroke="black" stroke-width="1" /><polyline fill="none" points="306.9236,105.7683 303.2191,108.4864 299.5146,111.2045 295.8102,113.9226 294.2065,115.0992 291.9993,114.6992 290.8732,113.1643 289.7574,111.6436 290.0379,109.4178 291.6415,108.2412 292.8579,107.3487 294.0742,106.4563 295.2905,105.5638 296.8942,104.3872 299.101,104.7879 300.2168,106.3086 301.343,107.8434 301.0628,110.0686 299.4592,111.2452" stroke="black" stroke-width="1" /><polyline fill="none" points="301.3101,116.8493 303.0022,115.8368 305.1898,116.3862 306.2019,118.0777 307.2235,119.785 306.6647,121.9575 304.9726,122.97 304.0999,123.4922 303.2271,124.0144 302.3544,124.5367 300.6623,125.5492 298.4843,125.0144 297.4627,123.307 296.4506,121.6156 296.9998,119.4285 298.6919,118.416 301.6147,116.6671 304.5374,114.9182 307.4602,113.1692 309.1519,112.1569 311.3392,112.7065 312.3513,114.3979 313.2234,115.8552 312.9446,117.6598 311.7851,118.7936" stroke="black" stroke-width="1" /><polyline fill="none" points="319.4162,128.1029 318.9881,127.2062 318.0916,126.722 316.9468,127.2686 315.8381,127.798 314.7294,128.3273 313.6207,128.8567 313.8816,129.4032 314.1425,129.9498 314.4035,130.4963 313.9011,129.4442 313.3988,128.3921 312.8965,127.34 313.1379,127.8455 313.3793,128.3511 313.6207,128.8567 310.2119,130.4843 306.8031,132.1118 303.3943,133.7393" stroke="black" stroke-width="1" /><polyline fill="none" points="320.0197,137.8593 324.1068,139.1917 308.0122,145.0971" stroke="black" stroke-width="1" /><polyline fill="none" points="328.382,153.5727 328.1285,152.612 327.3381,151.9691 326.1114,152.2926 324.9234,152.606 323.7354,152.9193 322.5474,153.2327 322.7019,153.8183 322.8564,154.4039 323.0108,154.9895 322.7135,153.8622 322.4161,152.7348 322.1188,151.6075 322.2617,152.1492 322.4045,152.691 322.5474,153.2327 318.895,154.1961 315.2425,155.1595 311.59,156.1229" stroke="black" stroke-width="1" /><polyline fill="none" points="331.038,166.825 330.8756,165.8447 330.1488,165.1306 328.8972,165.3379 327.6851,165.5386 326.473,165.7393 325.2609,165.9401 325.3599,166.5376 325.4588,167.135 325.5577,167.7325 325.3673,166.5823 325.1768,165.4321 324.9863,164.2819 325.0779,164.8346 325.1694,165.3873 325.2609,165.9401 321.5343,166.5572 317.8076,167.1744 314.081,167.7915" stroke="black" stroke-width="1" /><polyline fill="none" points="332.7996,181.6959 328.2163,182.0188 323.633,182.3417 319.0497,182.6646 317.0656,182.8043 315.412,181.2885 315.2783,179.3896 315.1457,177.5081 316.5704,175.7751 318.5544,175.6353 320.0593,175.5293 321.5642,175.4233 323.0691,175.3172 325.0532,175.1775 326.7061,176.6937 326.8386,178.5752 326.9724,180.4741 325.5484,182.2067 323.5643,182.3465" stroke="black" stroke-width="1" /><polyline fill="none" points="329.1375,195.3991 325.7881,192.9421 322.4387,190.4851 319.0893,188.0281 322.4944,188.1079 325.8996,188.1878 329.3047,188.2676 331.276,188.3139 332.8329,189.9462 332.7867,191.9168 332.74,193.906 331.1088,195.4454 329.1375,195.3991 325.7324,195.3193 322.3272,195.2395 318.9221,195.1596 316.9507,195.1134 315.3942,193.4992 315.4404,191.5276 315.487,189.5395 317.118,187.9819 319.0893,188.0281" stroke="black" stroke-width="1" /><polyline fill="none" points="331.4614,208.2704 331.7014,206.2324 331.9414,204.1944 332.1814,202.1564 329.4966,201.8402 326.8119,201.5241 324.1271,201.2079 325.2598,201.9972 325.8481,203.0166 325.6737,204.4979 325.4331,206.5413 323.5607,207.9262 321.6712,207.7037 320.3204,207.5446 318.9695,207.3855 317.6187,207.2265 315.6437,206.9939 314.3826,205.24 314.6013,203.3835 314.8178,201.5447 316.4498,200.1488 318.4248,200.3814" stroke="black" stroke-width="1" /><polyline fill="none" points="315.5145,219.2456 313.57,218.8291 312.3985,216.9298 312.7971,215.0687 313.1958,213.2077 315.0459,211.9384 316.9904,212.3549 318.4656,212.6708 319.9408,212.9868 321.416,213.3028 323.3608,213.7194 324.5281,215.6349 324.1295,217.496 323.7308,219.3571 321.8849,220.6101 319.94,220.1935" stroke="black" stroke-width="1" /><polyline fill="none" points="323.8241,227.4002 325.7051,227.9919 326.7474,229.9915 326.1557,231.8725 325.5587,233.7702 323.5164,234.835 321.6354,234.2433 320.8985,234.0115 320.4551,233.7106 320.1612,233.3845 317.1849,230.0873 314.2086,226.7901 311.2322,223.4929 311.0962,223.4501 310.9601,223.4073 310.8241,223.3645 310.114,225.6217 309.4039,227.8789 308.6938,230.1362" stroke="black" stroke-width="1" /><polyline fill="none" points="305.9689,241.7369 305.3644,240.8313 304.8261,239.7675 305.6514,237.8077 306.3902,236.0533 308.4442,235.1511 310.325,235.9431 311.6995,236.5219 313.074,237.1006 314.4484,237.6794 316.2816,238.4514 317.0708,240.5508 316.332,242.3053 315.5799,244.0913 313.5134,245.025 311.6803,244.2531 310.9957,243.9649 310.3112,243.6766 309.6266,243.3883 310.5471,241.2024 311.4677,239.0164 312.3882,236.8304" stroke="black" stroke-width="1" /><polyline fill="none" points="314.6417,258.3222 315.1114,257.4466 314.9714,256.4374 313.8535,255.8377 312.7708,255.257 311.6881,254.6762 310.6054,254.0955 310.3192,254.6292 310.0329,255.1628 309.7466,255.6965 310.2977,254.6691 310.8488,253.6417 311.3999,252.6143 311.1351,253.108 310.8702,253.6017 310.6054,254.0955 307.2767,252.3099 303.9479,250.5244 300.6192,248.7389" stroke="black" stroke-width="1" /><polyline fill="none" points="307.5492,269.8275 308.0988,268.9998 308.054,267.9818 306.9971,267.2801 305.9735,266.6005 304.95,265.921 303.9264,265.2414 303.5914,265.7459 303.2564,266.2505 302.9215,266.755 303.5663,265.7837 304.2112,264.8124 304.8561,263.8411 304.5462,264.3079 304.2363,264.7746 303.9264,265.2414 300.7795,263.152 297.6326,261.0626 294.4857,258.9732" stroke="black" stroke-width="1" /><polyline fill="none" points="295.6971,279.7978 294.5434,275.8072 293.3896,271.8167 292.236,267.8262 294.8846,269.9676 297.5333,272.1091 300.182,274.2505 301.7154,275.4902 301.9525,277.7335 300.7132,279.2663 299.4622,280.8136 297.2305,281.0375 295.6971,279.7978 293.0484,277.6563 290.3997,275.5149 287.751,273.3734 286.2177,272.1337 285.9697,269.9051 287.2097,268.3714 288.46,266.825 290.7026,266.5865 292.236,267.8262" stroke="black" stroke-width="1" /><polyline fill="none" points="291.6394,284.3546 293.0499,285.7325 293.0761,287.9873 291.6982,289.3979 290.3081,290.821 288.0051,290.848 286.5945,289.4701 286.0419,288.9303 285.7823,288.4615 285.6675,288.0378 284.5024,283.7515 283.3373,279.4651 282.1723,275.1788 282.0703,275.0792 281.9682,274.9795 281.8662,274.8798 280.2127,276.5725 278.5592,278.2652 276.9058,279.9579" stroke="black" stroke-width="1" /><polyline fill="none" points="274.7346,295.9293 273.4592,294.4254 273.6317,292.1892 275.1356,290.9138 276.6526,289.6274 278.8993,289.8122 280.1746,291.3161 280.8326,292.092 281.4905,292.8678 282.1485,293.6437 283.4238,295.1476 283.2395,297.3948 281.7353,298.6704 280.2186,299.9566 277.9838,299.7609 276.7084,298.257 274.5055,295.6592 272.3026,293.0614 270.0996,290.4637 268.8245,288.9601 268.9968,286.7235 270.5007,285.4482 271.7951,284.3505 273.622,284.3302 274.9302,285.2892" stroke="black" stroke-width="1" /><polyline fill="none" points="269.4744,307.7897 270.289,307.2209 270.6203,306.2573 269.894,305.2172 269.1906,304.2098 268.4872,303.2025 267.7838,302.1951 267.2873,302.5419 266.7907,302.8886 266.2942,303.2353 267.2501,302.5678 268.206,301.9003 269.1619,301.2329 268.7025,301.5536 268.2432,301.8744 267.7838,302.1951 265.6212,299.0981 263.4586,296.001 261.296,292.9039" stroke="black" stroke-width="1" /><polyline fill="none" points="256.8137,315.7868 254.5475,311.7899 252.2813,307.7929 250.0151,303.7959 249.0341,302.0657 249.6896,299.9204 251.3456,298.9815 252.9863,298.0512 255.1641,298.5901 256.1451,300.3204 256.8892,301.6328 257.6332,302.9451 258.3773,304.2575 259.3583,305.9877 258.7022,308.1326 257.0614,309.0628 255.4055,310.0017 253.2284,309.4633 252.2474,307.733" stroke="black" stroke-width="1" /><polyline fill="none" points="247.035,310.3799 247.8497,312.1944 246.9961,314.2686 245.2595,315.0483 243.5235,315.8277 241.4212,315.0807 240.6066,313.2662 239.9886,311.8899 239.3707,310.5136 238.7528,309.1374 237.9383,307.3232 238.7766,305.2551 240.5126,304.4757 242.2492,303.696 244.3514,304.4438 245.166,306.258 245.1711,306.2557 245.1762,306.2534 245.1813,306.2511 247.0632,310.4427 248.9452,314.6343 250.8271,318.8259" stroke="black" stroke-width="1" /><polyline fill="none" points="237.7303,321.6652 238.4931,323.905 231.7563,326.1992 230.9536,308.3619" stroke="black" stroke-width="1" /><polyline fill="none" points="225.0442,325.6901 225.5939,327.9915 218.6719,329.6447 219.543,311.8107" stroke="black" stroke-width="1" /><polyline fill="none" points="210.7541,320.2752 211.0305,322.2275 209.6752,324.0305 207.7235,324.3068 205.7535,324.5858 203.9682,323.2276 203.6918,321.2752 203.5492,320.2682 203.4066,319.2612 203.264,318.2542 202.9875,316.3018 204.3256,314.5021 206.2957,314.2231 208.2473,313.9467 210.0498,315.3018 210.3263,317.2542 210.8038,320.6266 211.2814,323.999 211.7589,327.3714 212.0353,329.3235 210.68,331.126 208.7283,331.4023 207.0468,331.6404 205.4918,330.6833 204.8969,329.1746" stroke="black" stroke-width="1" /><polyline fill="none" points="191.8142,315.6331 192.0159,319.9317 198.114,319.6456 193.063,332.7372" stroke="black" stroke-width="1" /><polyline fill="none" points="179.8947,315.3848 179.693,319.6835 185.7911,319.9696 179.5363,332.5307" stroke="black" stroke-width="1" /><polyline fill="none" points="166.2711,322.4527 166.2703,322.4581 166.2696,322.4636 166.2688,322.469 166.5957,320.1605 166.9226,317.852 167.2495,315.5435 167.4005,314.4767 166.7099,313.9612 166.1512,313.882 166.8644,313.983 167.3723,314.6761 167.2686,315.4081 167.2623,315.4532 167.2559,315.4984 167.2495,315.5435 168.4735,314.7299 169.8597,314.2337 171.3361,314.4427 172.5586,314.6158 174.4583,315.5085 174.105,318.0037 173.9199,319.3111 173.0726,320.0392 171.9575,320.3307 171.4173,320.4797 169.7576,320.574 168.6404,320.6409 167.5035,320.7219 166.4562,321.1454 166.2711,322.4527 166.0836,323.7767 167.1991,325.5615 169.236,325.8499 171.1548,326.1216 172.1696,325.3134 172.8527,324.5271" stroke="black" stroke-width="1" /><polyline fill="none" points="156.3866,311.555 155.3869,315.7407 161.3248,317.1588 152.8376,328.3334" stroke="black" stroke-width="1" /><polyline fill="none" points="144.5629,317.4551 143.0625,316.837 140.9133,317.6887 140.2805,319.5471 140.1332,319.9797 139.9859,320.4122 139.8386,320.8447 139.2415,322.5981 140.1846,324.5129 141.9542,325.1155 143.7072,325.7125 145.6334,324.7382 146.2193,323.0176 146.3666,322.5851 146.5139,322.1526 146.6612,321.72 147.2584,319.9664 146.3159,318.0521 144.5629,317.4551 142.6314,316.7974 141.6565,314.7087 142.2919,312.8428 142.5093,312.2043 142.7268,311.5659 142.9442,310.9275 143.5797,309.0612 145.6159,308.0334 147.5474,308.6912 149.4626,309.3434 150.4473,311.4 149.8118,313.2662 149.5907,313.9152 149.3697,314.5642 149.1487,315.2133 148.6039,316.8131 146.6839,318.0703" stroke="black" stroke-width="1" /><polyline fill="none" points="137.0278,311.8311 136.2202,313.6299 134.112,314.4319 132.3138,313.6245 130.4987,312.8096 129.7132,310.7084 130.5208,308.9096 130.9374,307.9818 131.354,307.0539 131.7706,306.1261 132.5782,304.3272 134.6701,303.5187 136.4852,304.3337 138.2834,305.1411 139.0852,307.2487 138.2776,309.0476 136.8825,312.1548 135.4874,315.2621 134.0923,318.3694 133.2848,320.1679 131.1768,320.9695 129.3786,320.1622 127.8293,319.4666 127.0247,317.8275 127.3263,316.2339" stroke="black" stroke-width="1" /><polyline fill="none" points="124.8618,307.7948 123.8808,309.525 121.7035,310.0638 120.0475,309.1249 118.3922,308.1863 117.7508,306.0495 118.7318,304.3192 119.4759,303.0069 120.22,301.6945 120.9641,300.3821 121.9449,298.6522 124.1082,298.1047 125.7636,299.0433 127.4196,299.9822 128.0602,302.1195 127.0794,303.8494 127.0843,303.8522 127.0892,303.8549 127.094,303.8577 124.8278,307.8546 122.5617,311.8516 120.2955,315.8485" stroke="black" stroke-width="1" /><polyline fill="none" points="110.784,305.914 109.6551,307.5308 107.4348,307.925 105.8181,306.7961 104.187,305.6571 103.7841,303.3894 104.913,301.7727 105.3553,301.1393 105.7753,300.8066 106.1746,300.6241 110.213,298.7744 114.2514,296.9247 118.2898,295.075 118.3714,294.9581 118.4531,294.8411 118.5347,294.7242 116.5946,293.3695 114.6545,292.0148 112.7144,290.6601" stroke="black" stroke-width="1" /><polyline fill="none" points="99.067,297.4204 94.8545,298.2772 105.9426,285.2018" stroke="black" stroke-width="1" /><polyline fill="none" points="92.6303,277.3087 94.0529,275.9191 96.2831,275.9937 97.6131,277.3552 98.9431,278.7167 98.9771,280.9602 97.5546,282.3498 96.4754,283.404 95.3962,284.4581 94.317,285.5123 92.8942,286.9022 90.6527,286.815 89.3227,285.4535 87.9928,284.092 87.9699,281.8611 89.3927,280.4713" stroke="black" stroke-width="1" /><polyline fill="none" points="80.3261,278.8345 76.0277,278.8908 89.3594,268.1123" stroke="black" stroke-width="1" /><polyline fill="none" points="72.9279,269.2832 71.4423,270.2696 69.303,269.8997 68.2311,268.2852 67.1598,266.6716 67.5681,264.5883 69.2534,263.4694 69.5199,263.2924 69.7864,263.1155 70.0529,262.9385 72.624,261.2314 74.5411,263.1898 74.7312,263.476 74.9145,263.752 75.0977,264.028 75.281,264.3041 75.0977,264.028 74.9145,263.752 74.7312,263.476 74.1713,262.6328 73.9764,260.1689 75.9756,258.8416 76.5613,258.4527 77.1471,258.0638 77.7328,257.6748 79.3893,256.575 81.5953,257.0456 82.6955,258.7026 83.8051,260.3739 83.3728,262.5747 81.7163,263.6745" stroke="black" stroke-width="1" /><polyline fill="none" points="65.8711,258.1059 64.2996,258.9488 62.2044,258.3802 61.2884,256.6724 60.3728,254.9656 60.9745,252.9297 62.7572,251.9735 63.0391,251.8223 63.3209,251.6711 63.6029,251.5199 66.3225,250.0611 68.0478,252.1903 68.2102,252.4931 68.3668,252.785 68.5234,253.077 68.68,253.369 68.5234,253.077 68.3668,252.785 68.2102,252.4931 67.7318,251.6011 67.7684,249.1299 69.8831,247.9955 70.5027,247.6632 71.1223,247.3308 71.7419,246.9985 73.4941,246.0586 75.6463,246.7336 76.5865,248.4864 77.5348,250.2543 76.8982,252.405 75.1461,253.3448" stroke="black" stroke-width="1" /><polyline fill="none" points="54.8967,242.6944 55.2823,243.6101 56.1551,244.1358 57.3243,243.6435 58.4566,243.1667 59.5889,242.6898 60.7212,242.213 60.4862,241.6549 60.2512,241.0967 60.0161,240.5386 60.4686,241.6131 60.9211,242.6876 61.3735,243.7621 61.1561,243.2457 60.9387,242.7294 60.7212,242.213 64.2026,240.747 67.6839,239.2811 71.1652,237.8151" stroke="black" stroke-width="1" /><polyline fill="none" points="62.845,224.3999 64.742,223.8031 66.6978,224.8776 67.269,226.6931 67.8401,228.5087 66.8567,230.5254 64.9597,231.1222 63.5206,231.5749 62.0815,232.0276 60.6424,232.4803 58.7451,233.0772 56.7849,231.9865 56.2138,230.1709 55.6426,228.3554 56.6304,226.3549 58.5277,225.7581" stroke="black" stroke-width="1" /><polyline fill="none" points="61.7088,212.1032 62.7229,212.4996 63.7733,213.0636 64.2187,215.1429 64.6174,217.0043 63.4498,218.92 61.4542,219.3474 59.996,219.6598 58.5377,219.9721 57.0794,220.2845 55.1345,220.701 53.2854,219.4315 52.8867,217.5701 52.4808,215.6752 53.6406,213.7265 55.5855,213.3099 56.3118,213.1544 57.0381,212.9988 57.7644,212.8432 58.2611,215.1625 58.7579,217.4818 59.2547,219.801" stroke="black" stroke-width="1" /><polyline fill="none" points="48.8142,207.2026 45.1485,204.9572 62.1746,202.9522" stroke="black" stroke-width="1" /><polyline fill="none" points="44.1788,188.9687 44.2269,191.0203 44.275,193.0718 44.3231,195.1233 47.0257,195.06 49.7283,194.9966 52.4308,194.9332 51.1987,194.3105 50.4732,193.3836 50.4382,191.8925 50.39,189.8355 52.0497,188.2018 53.9518,188.1572 55.3115,188.1254 56.6713,188.0935 58.0311,188.0616 60.0192,188.015 61.5138,189.5747 61.5576,191.4435 61.601,193.2945 60.1808,194.9055 58.1927,194.9521" stroke="black" stroke-width="1" /><polyline fill="none" points="47.8412,182.1006 45.8743,181.962 44.3959,180.2592 44.5345,178.2922 44.6743,176.3078 46.4134,174.7976 48.3803,174.9362 49.151,174.9905 49.6521,175.1801 50.0137,175.429 53.6746,177.9446 57.3354,180.4602 60.9963,182.9758 61.1386,182.9858 61.2808,182.9958 61.4231,183.0059 61.5894,180.6454 61.7557,178.285 61.922,175.9246" stroke="black" stroke-width="1" /><polyline fill="none" points="54.0992,166.2216 54.4639,164.6403 53.2726,162.6592 51.3357,162.3385 50.8849,162.2638 50.4341,162.1892 49.9834,162.1145 48.156,161.8119 46.421,163.0552 46.1156,164.8994 45.813,166.7264 47.0889,168.4676 48.8821,168.7646 49.3329,168.8392 49.7836,168.9139 50.2344,168.9885 52.0621,169.2912 53.7967,168.0485 54.0992,166.2216 54.4326,164.2086 56.334,162.9056 58.2786,163.2276 58.944,163.3378 59.6093,163.448 60.2747,163.5582 62.2197,163.8802 63.5664,165.7211 63.233,167.7341 62.9025,169.7303 61.0344,171.0377 59.0894,170.7156 58.413,170.6036 57.7366,170.4915 57.0602,170.3795 55.3928,170.1034 53.8389,168.4146" stroke="black" stroke-width="1" /><polyline fill="none" points="51.5013,155.9855 49.5947,155.4826 48.4597,153.534 48.9627,151.6274 49.47,149.7038 51.4602,148.5444 53.3668,149.0473 54.1138,149.2443 54.5708,149.5241 54.8797,149.836 58.0072,152.9901 61.1348,156.1442 64.2624,159.2983 64.4004,159.3347 64.5383,159.371 64.6762,159.4074 65.2797,157.1194 65.8832,154.8314 66.4867,152.5433" stroke="black" stroke-width="1" /><polyline fill="none" points="67.0508,140.25 68.9177,140.9351 69.8113,142.9799 69.1557,144.7666 68.5,146.5535 66.4902,147.5508 64.6233,146.8658 63.207,146.3461 61.7907,145.8264 60.3744,145.3068 58.5071,144.6216 57.62,142.5613 58.2756,140.7745 58.9312,138.9877 60.9346,138.0059 62.8019,138.691" stroke="black" stroke-width="1" /><polyline fill="none" points="63.0265,124.6023 65.0757,128.2157 67.1249,131.829 69.1741,135.4424 66.1004,133.9748 63.0267,132.5073 59.953,131.0397 58.1736,130.1901 57.4219,128.0633 58.2711,126.2845 59.1285,124.4889 61.2471,123.7527 63.0265,124.6023 66.1002,126.0699 69.1739,127.5374 72.2476,129.005 74.0271,129.8546 74.7859,131.9647 73.9362,133.7444 73.0794,135.539 70.9535,136.292 69.1741,135.4424" stroke="black" stroke-width="1" /><polyline fill="none" points="66.4318,118.0638 64.8983,114.0479 79.6095,122.8508" stroke="black" stroke-width="1" /><polyline fill="none" points="78.673,107.8904 79.7128,106.6446 79.5453,104.339 77.9624,103.1775 77.594,102.9072 77.2256,102.6369 76.8573,102.3666 75.3639,101.2709 73.2543,101.5959 72.1484,103.1031 71.0529,104.5962 71.4043,106.726 72.8697,107.8013 73.2381,108.0716 73.6065,108.3419 73.9749,108.6122 75.4685,109.7081 77.5775,109.3834 78.673,107.8904 79.88,106.2453 82.165,105.9421 83.7542,107.1082 84.298,107.5072 84.8417,107.9061 85.3855,108.3051 86.975,109.4714 87.3444,111.7221 86.1374,113.3672 84.9405,114.9985 82.6832,115.3207 81.0937,114.1544 80.5409,113.7488 79.9881,113.3432 79.4353,112.9376 78.0727,111.9378 77.4496,109.7291" stroke="black" stroke-width="1" /><polyline fill="none" points="85.1794,101.288 83.693,99.9664 83.6222,97.7246 84.8871,96.302 86.1516,94.8799 88.3754,94.7003 89.8618,96.022 90.9892,97.0244 92.1166,98.0268 93.244,99.0293 94.7301,100.3507 94.8124,102.5807 93.548,104.0028 92.2831,105.4254 90.059,105.6042 88.5728,104.2828 88.5691,104.287 88.5654,104.2912 88.5617,104.2953 85.128,101.2423 81.6944,98.1893 78.2607,95.1362" stroke="black" stroke-width="1" /><polyline fill="none" points="92.2524,80.9583 90.7512,82.3574 89.25,83.7566 87.7489,85.1557 89.592,87.1332 91.4351,89.1108 93.2783,91.0884 92.9249,89.7538 93.1355,88.5957 94.2266,87.5788 95.7318,86.176 98.0555,86.3307 99.3527,87.7225 100.28,88.7175 101.2074,89.7125 102.1348,90.7075 103.4906,92.1623 103.3181,94.3156 101.9506,95.5901 100.5962,96.8525 98.4486,96.8616 97.0928,95.4068" stroke="black" stroke-width="1" /><polyline fill="none" points="99.7946,78.8908 98.7062,77.4781 98.9249,75.3182 100.4601,74.1354 101.9944,72.9533 104.1012,73.2143 105.3359,74.8168 105.5311,75.0702 105.7263,75.3236 105.9215,75.577 107.8051,78.0218 105.9863,80.0718 105.7142,80.2815 105.4517,80.4837 105.1892,80.6859 104.9268,80.8881 105.1892,80.6859 105.4517,80.4837 105.7142,80.2815 106.516,79.6637 108.96,79.2961 110.4246,81.1971 110.8537,81.7541 111.2828,82.3111 111.7119,82.868 112.9254,84.4431 112.6111,86.6767 111.0355,87.8906 109.4463,89.115 107.2205,88.8383 106.007,87.2633" stroke="black" stroke-width="1" /><polyline fill="none" points="113.455,76.0309 112.3939,74.3485 112.9483,72.1751 114.5585,71.1597 116.168,70.1445 118.3542,70.5895 119.4153,72.2718 120.22,73.5479 121.0248,74.8239 121.8296,76.0999 122.8904,77.782 122.3503,79.9472 120.7408,80.9623 119.1306,81.9778 116.9443,81.5321 115.8835,79.85 115.8787,79.853 115.874,79.856 115.8693,79.859 113.4183,75.9727 110.9672,72.0863 108.5162,68.2" stroke="black" stroke-width="1" /><polyline fill="none" points="124.9543,70.9334 124.0633,69.1744 124.765,67.0309 126.5234,66.1401 128.2984,65.241 130.4262,65.9511 131.3172,67.7101 131.7769,68.6174 132.2365,69.5247 132.6961,70.432 133.5872,72.191 132.9007,74.326 131.1257,75.2252 129.3673,76.1159 127.2243,75.4143 126.3332,73.6553 124.794,70.6169 123.2548,67.5784 121.7156,64.5399 120.8246,62.7812 121.5266,60.638 123.285,59.7473 124.7999,58.9798 126.5805,59.3846 127.63,60.621" stroke="black" stroke-width="1" /><polyline fill="none" points="133.082,57.7887 132.2151,55.5871 138.8369,52.9797 140.4749,70.7597" stroke="black" stroke-width="1" /><polyline fill="none" points="153.8329,55.1747 154.3803,57.069 153.307,59.0384 151.4127,59.5859 149.5019,60.1381 147.528,59.0493 146.9805,57.155 146.6981,56.1777 146.4156,55.2004 146.1332,54.2231 145.5857,52.3287 146.6743,50.3542 148.569,49.8066 150.4794,49.2545 152.4381,50.3484 152.9855,52.2427 153.9312,55.5149 154.8769,58.7871 155.8225,62.0592 156.3699,63.9532 155.2967,65.923 153.4023,66.4704 151.7719,66.9417 150.0969,66.2119 149.2962,64.8011" stroke="black" stroke-width="1" /><polyline fill="none" points="166.47,52.5142 166.8377,54.4515 165.5847,56.3117 163.6474,56.6794 161.6933,57.0503 159.83,55.7814 159.4623,53.8442 159.2727,52.8447 159.083,51.8452 158.8933,50.8458 158.5256,48.9085 159.7943,47.0446 161.7319,46.6768 163.6857,46.306 165.5333,47.5786 165.901,49.5158 166.536,52.8622 167.1711,56.2085 167.8062,59.5548 168.1738,61.4918 166.9209,63.3524 164.9836,63.72 163.3162,64.0365 161.7169,63.1531 161.0519,61.6736" stroke="black" stroke-width="1" /><polyline fill="none" points="101.9387,177.907 140.8637,108.5745 188.1635,280.8196 108.8569,140.3048 140.8637,108.5745 239.8942,231.6324 188.8365,96.1804 268.4255,140.8637 188.2428,253.3668 108.8569,140.3048" stroke="black" stroke-width="1" /><polyline fill="none" points="94.4173,150.4436 123.2966,130.1661" stroke="black" stroke-width="1" /><polyline fill="none" points="107.9428,188.1635 107.798,186.3235 107.3671,184.5287 106.6608,182.8235 105.6964,181.2497 104.4977,179.8462 103.0942,178.6475 101.5204,177.6831 99.8152,176.9768 98.0205,176.5459 96.1804,176.4011 94.3404,176.5459 92.5456,176.9768 90.8404,177.6831 89.2667,178.6475 87.8632,179.8462 86.6644,181.2497 85.7001,182.8235 84.9937,184.5287 84.5628,186.3235 84.418,188.1635 84.5628,190.0035 84.9937,191.7983 85.7001,193.5035 86.6644,195.0773 87.8632,196.4808 89.2667,197.6795 90.8404,198.6439 92.5456,199.3502 94.3404,199.7811 96.1804,199.9259 98.0205,199.7811 99.8152,199.3502 101.5204,198.6439 103.0942,197.6795 104.4977,196.4808 105.6964,195.0773 106.6608,193.5035 107.3671,191.7983 107.798,190.0035 107.9428,188.1635" stroke="black" stroke-width="1" /><polyline fill="none" points="188.5,69.0664 199.6839,69.5912 210.7696,71.161 221.6595,73.7619 232.2581,77.3712 242.4721,81.9571 252.2118,87.4792 261.3915,93.8892 269.9308,101.1306 277.7544,109.1398 284.7936,117.8464 290.9866,127.1739 296.2789,137.0404 300.6241,147.3591 303.9839,158.0393 306.3289,168.9873 307.6383,180.1067 307.9008,191.2998 307.114,202.4684 305.2847,213.5142 302.4292,224.3402 298.5725,234.8512 293.7484,244.9549 287.9994,254.5625 281.376,263.5894 273.9365,271.9565 265.7461,279.5902 256.8768,286.4234 247.4067,292.3961 237.4188,297.4556 227.0011,301.5577 216.2451,304.6663 205.2452,306.7539 194.0981,307.8023 182.9019,307.8023 171.7548,306.7539 160.7549,304.6663 149.9989,301.5577 139.5811,297.4556 129.5933,292.3961 120.1232,286.4234 111.2539,279.5902 103.0635,271.9565 95.6239,263.5894 89.0006,254.5625 83.2516,244.9549 78.4275,234.8512 74.5708,224.3402 71.7153,213.5142 69.8861,202.4684 69.0992,191.2998 69.3617,180.1067 70.6712,168.9872 73.0161,158.0393 76.3759,147.3591 80.7211,137.0404 86.0134,127.174 92.2064,117.8464 99.2457,109.1398 107.0692,101.1306 115.6085,93.8892 124.7882,87.4792 134.5279,81.957 144.7419,77.3712 155.3405,73.7619 166.2304,71.161 177.3161,69.5912 188.5,69.0664" stroke="black" stroke-width="1" />

    </g>
  </g>
  <WCB
     pausedposy="0"
     pausedposx="0"
     lastknownposy="0"
     lastknownposx="0"
     lastpathnc="0"
     lastpath="0"
     node="0"
     layer="0" />
</svg>
