<?xml version="1.0" encoding="UTF-8" standalone="no"?>
<!-- Created with Inkscape (http://www.inkscape.org/) -->

<svg
   xmlns:dc="http://purl.org/dc/elements/1.1/"
   xmlns:cc="http://creativecommons.org/ns#"
   xmlns:rdf="http://www.w3.org/1999/02/22-rdf-syntax-ns#"
   xmlns:svg="http://www.w3.org/2000/svg"
   xmlns="http://www.w3.org/2000/svg"
   xmlns:sodipodi="http://sodipodi.sourceforge.net/DTD/sodipodi-0.dtd"
   xmlns:inkscape="http://www.inkscape.org/namespaces/inkscape"
   width="100mm"
   height="100mm"
   viewBox="0 0 100 100"
   version="1.1"
   id="svg19124"
   inkscape:version="0.92.3 (2405546, 2018-03-11)"
   sodipodi:docname="inkscape_template_TMP.svg"
   shape-rendering="crispEdges">
  <sodipodi:namedview
     pagecolor="#ffffff"
     bordercolor="#666666"
     borderopacity="1"
     objecttolerance="10"
     gridtolerance="10"
     guidetolerance="10"
     inkscape:pageopacity="0"
     inkscape:pageshadow="2"
     inkscape:window-width="1568"
     inkscape:window-height="1550"
     id="namedview24021"
     showgrid="false"
     inkscape:zoom="0.62441667"
     inkscape:cx="712.66515"
     inkscape:cy="409.98265"
     inkscape:window-x="0"
     inkscape:window-y="0"
     inkscape:window-maximized="0"
     inkscape:current-layer="layer1" />
  <defs
     id="defs19118" />
  <metadata
     id="metadata19121">
    <rdf:RDF>
      <cc:Work
         rdf:about="">
        <dc:format>image/svg+xml</dc:format>
        <dc:type
           rdf:resource="http://purl.org/dc/dcmitype/StillImage" />
        <dc:title />
      </cc:Work>
    </rdf:RDF>
  </metadata>
  <g
     transform="translate(0,-197)"
     id="layer1"
     inkscape:groupmode="layer"
     inkscape:label="Layer 1">
    <g
       id="g24447"
       transform="matrix(0.26458333,0,0,0.26458333,0.10666333,197.9735)">

<polyline fill="none" points="192.1004,47.7394 189.7225,51.1455 187.3447,54.5516 184.9669,57.9577 184.9669,54.5516 184.9669,51.1455 184.9669,47.7394 184.9669,45.7676 186.5623,44.1729 188.5334,44.1729 190.5231,44.1729 192.1004,45.7676 192.1004,47.7394 192.1004,51.1455 192.1004,54.5516 192.1004,57.9577 192.1004,59.9295 190.5231,61.5235 188.5509,61.5235 186.5623,61.5235 184.9669,59.9295 184.9669,57.9577" stroke="black" stroke-width="1" /><polyline fill="none" points="197.8298,61.5877 200.7471,57.7851 198.696,53.7706 202.935,62.0679 200.7471,57.7851 203.4811,54.2207" stroke="black" stroke-width="1" /><polyline fill="none" points="217.2511,47.2193 216.2749,47.034 215.3542,47.4703 215.1176,48.7167 214.8885,49.9238 214.6595,51.1308 214.4304,52.3379 215.0254,52.4508 215.6204,52.5638 216.2154,52.6767 215.0699,52.4593 213.9245,52.2419 212.7791,52.0245 213.3295,52.129 213.8799,52.2334 214.4304,52.3379 213.726,56.0491 213.0217,59.7602 212.3174,63.4713" stroke="black" stroke-width="1" /><polyline fill="none" points="231.3614,50.6895 229.39,50.1198 227.4186,49.55 225.4472,48.9803 224.6966,51.5773 223.9461,54.1744 223.1955,56.7714 224.1593,55.7829 225.2612,55.369 226.694,55.7831 228.6707,56.3543 229.731,58.4278 229.2028,60.2556 228.8252,61.5623 228.4475,62.869 228.0699,64.1757 227.5178,66.0861 225.5814,67.0437 223.7856,66.5247 222.0069,66.0107 220.8964,64.1725 221.4485,62.2621" stroke="black" stroke-width="1" /><polyline fill="none" points="236.814,56.2442 237.5365,54.4095 239.6044,53.5103 241.4392,54.2327 243.2902,54.9616 244.2089,57.0737 243.4865,58.9084 243.2034,59.6272 242.8721,60.0484 242.5262,60.3186 239.028,63.0559 235.5298,65.7931 232.0315,68.5304 231.9793,68.6631 231.927,68.7958 231.8748,68.9285 234.0765,69.7954 236.2782,70.6624 238.48,71.5294" stroke="black" stroke-width="1" /><polyline fill="none" points="250.623,73.5273 249.7243,75.3013 247.5891,75.9496 245.8912,75.0895 244.1933,74.2295 243.4379,72.1168 244.3365,70.3428 245.0183,68.997 245.7,67.6512 246.3818,66.3054 247.2806,64.5311 249.4306,63.891 251.1284,64.7511 252.8263,65.6112 253.5671,67.7156 252.6682,69.4899" stroke="black" stroke-width="1" /><polyline fill="none" points="265.1005,74.0019 264.0486,75.6697 261.8637,76.1763 260.1958,75.1244 258.5135,74.0633 258.0155,71.8648 259.0674,70.1969 259.6101,69.3365 260.1528,68.476 260.6954,67.6155 261.7473,65.9477 263.9463,65.4491 265.6144,66.5012 267.2965,67.5621 267.7805,69.7526 266.7285,71.4205 264.9116,74.3015 263.0946,77.1824 261.2776,80.0634 260.226,81.7309 258.0408,82.2378 256.373,81.1859 254.9374,80.2805 254.3698,78.5439 254.8921,77.0081" stroke="black" stroke-width="1" /><polyline fill="none" points="272.7293,75.5074 276.8971,74.4541 266.434,88.0348" stroke="black" stroke-width="1" /><polyline fill="none" points="280.1017,95.2953 278.7458,96.75 276.5145,96.78 275.1221,95.4824 273.7298,94.1847 273.5906,91.9453 274.9465,90.4906 275.9751,89.387 277.0037,88.2833 278.0323,87.1797 279.3884,85.7247 281.6315,85.7067 283.0238,87.0044 284.4161,88.3021 284.5435,90.5294 283.1874,91.9845" stroke="black" stroke-width="1" /><polyline fill="none" points="288.427,104.2825 286.9408,105.6039 284.7165,105.4248 283.4518,104.0025 282.1872,102.5801 282.2583,100.3376 283.7444,99.0162 284.8718,98.0138 285.9993,97.0113 287.1267,96.0089 288.6131,94.6872 290.848,94.8794 292.1127,96.3017 293.3774,97.7241 293.2956,99.9536 291.8092,101.2752" stroke="black" stroke-width="1" /><polyline fill="none" points="301.724,110.0284 300.1342,111.1949 297.9156,110.8656 296.7491,109.2758 295.5724,107.6722 295.9146,105.4441 297.5044,104.2776 298.3246,103.6758 299.1448,103.074 299.965,102.4722 301.5548,101.3057 303.7835,101.6474 304.9502,103.2375 306.1266,104.8409 305.7744,107.0565 304.1846,108.223 301.4384,110.2379 298.6923,112.2528 295.9461,114.2678 294.3566,115.4341 292.1377,115.105 290.9712,113.5152 289.9672,112.1468 290.0753,110.323 291.1239,109.0854" stroke="black" stroke-width="1" /><polyline fill="none" points="302.6975,116.1122 304.4043,115.0909 306.564,115.696 307.5415,117.3295 308.5186,118.9624 308.0226,121.1376 306.3158,122.1589 305.0212,122.9336 303.7267,123.7082 302.4321,124.4829 300.7256,125.504 298.5737,124.9133 297.5966,123.2804 296.6191,121.6468 297.116,119.4716 298.8224,118.4505 298.8196,118.4457 298.8167,118.4409 298.8138,118.4361 302.7565,116.0768 306.6993,113.7176 310.642,111.3583" stroke="black" stroke-width="1" /><polyline fill="none" points="314.6997,125.7661 318.8936,126.7099 303.4227,134.0966" stroke="black" stroke-width="1" /><polyline fill="none" points="320.4745,136.1614 322.6959,135.3464 325.1473,142.0275 307.3338,143.2482" stroke="black" stroke-width="1" /><polyline fill="none" points="312.1193,158.6325 316.2804,157.535 314.7234,151.632 328.5825,153.8291" stroke="black" stroke-width="1" /><polyline fill="none" points="319.7173,163.1629 321.6627,162.8408 323.4968,164.1534 323.8188,166.0981 324.1439,168.0611 322.828,169.8777 320.8826,170.1998 319.8792,170.366 318.8758,170.5322 317.8724,170.6983 315.9271,171.0205 314.0965,169.7249 313.7714,167.762 313.4493,165.8173 314.7617,163.9836 316.7071,163.6614 320.0674,163.1049 323.4277,162.5484 326.788,161.992 328.733,161.6699 330.5668,162.9826 330.8889,164.9273 331.1664,166.6027 330.2458,168.1797 328.7515,168.8098" stroke="black" stroke-width="1" /><polyline fill="none" points="324.3994,178.9469 324.412,180.5696 326.0309,182.2198 327.9894,182.0818 328.4452,182.0497 328.9009,182.0176 329.3568,181.9855 331.2044,181.8553 332.6031,180.243 332.4718,178.3782 332.3416,176.531 330.6961,175.1338 328.8831,175.2615 328.4272,175.2937 327.9715,175.3258 327.5157,175.3579 325.6677,175.4881 324.2692,177.0997 324.3994,178.9469 324.5427,180.9823 322.9961,182.6914 321.0298,182.8299 320.3571,182.8773 319.6843,182.9247 319.0116,182.9721 317.0449,183.1106 315.3074,181.6329 315.1641,179.5976 315.0219,177.5793 316.5351,175.8737 318.5017,175.7351 319.1856,175.6869 319.8696,175.6387 320.5535,175.5906 322.2394,175.4718 324.1431,176.7534" stroke="black" stroke-width="1" /><polyline fill="none" points="324.6968,191.7147 324.5574,193.3315 326.0147,195.126 327.9774,195.172 328.4342,195.1827 328.8911,195.1934 329.3478,195.2041 331.1995,195.2475 332.7431,193.7733 332.787,191.9044 332.8304,190.0531 331.3229,188.508 329.5059,188.4654 329.049,188.4547 328.5923,188.444 328.1354,188.4332 326.2834,188.3898 324.7402,189.8634 324.6968,191.7147 324.6489,193.7546 322.949,195.3113 320.9785,195.2651 320.3042,195.2493 319.6299,195.2335 318.9557,195.2177 316.9847,195.1714 315.3933,193.5376 315.4411,191.4977 315.4885,189.475 317.1548,187.9185 319.1258,187.9648 319.8112,187.9808 320.4966,187.9969 321.1821,188.013 322.8717,188.0526 324.6471,189.5068" stroke="black" stroke-width="1" /><polyline fill="none" points="321.5931,200.5902 323.5514,200.8208 324.949,202.5911 324.7185,204.5487 324.4858,206.5248 322.7172,207.9046 320.7589,207.674 319.7488,207.5551 318.7387,207.4361 317.7286,207.3171 315.7703,207.0865 314.3714,205.3337 314.6041,203.3576 314.8346,201.4 316.6045,200.0027 318.5629,200.2334 321.9456,200.6317 325.3282,201.0301 328.7109,201.4284 330.6689,201.659 332.0662,203.4293 331.8356,205.3869 331.637,207.0735 330.3149,208.3329 328.7043,208.5234" stroke="black" stroke-width="1" /><polyline fill="none" points="326.7578,215.8256 329.504,219.1328 312.7404,215.5422" stroke="black" stroke-width="1" /><polyline fill="none" points="318.4774,225.7417 320.3747,226.3386 321.3576,228.3547 320.7863,230.1706 320.2153,231.9858 318.2601,233.0605 316.3628,232.4636 314.9237,232.0109 313.4846,231.5582 312.0455,231.1055 310.1485,230.5087 309.1601,228.508 309.7311,226.6928 310.3023,224.8769 312.2581,223.8028 314.1551,224.3996 314.1567,224.3942 314.1584,224.3889 314.1601,224.3835 318.543,225.7623 322.926,227.1411 327.3089,228.5199" stroke="black" stroke-width="1" /><polyline fill="none" points="319.7266,240.0988 321.3701,240.7908 322.2451,242.7776 321.493,244.5637 320.7413,246.3487 318.7799,247.1609 316.9155,246.3758 316.6207,246.2516 316.3259,246.1275 316.031,246.0033 313.1867,244.8056 313.7578,242.1252 313.8911,241.8086 314.0197,241.5033 314.1483,241.1979 314.2769,240.8925 314.1483,241.1979 314.0197,241.5033 313.8911,241.8086 313.4983,242.7415 311.5536,244.2667 309.3419,243.3354 308.6939,243.0625 308.0459,242.7896 307.3979,242.5167 305.5654,241.7451 304.7372,239.647 305.5091,237.8139 306.2877,235.965 308.3604,235.1079 310.1928,235.8795" stroke="black" stroke-width="1" /><polyline fill="none" points="308.0982,256.8646 306.3606,255.9326 305.7018,253.7886 306.6339,252.0509 307.574,250.2982 309.7321,249.647 311.4698,250.5791 312.3663,251.0599 313.2628,251.5408 314.1592,252.0216 315.8969,252.9537 316.5487,255.1122 315.6165,256.8502 314.6765,258.6026 312.5253,259.2393 310.7877,258.3072 307.7861,256.6972 304.7846,255.0872 301.7831,253.4772 300.0457,252.5453 299.3866,250.4012 300.3187,248.6635 301.1209,247.1679 302.8134,246.4797 304.382,246.8927" stroke="black" stroke-width="1" /><polyline fill="none" points="307.1325,264.5804 308.4761,268.6638 294.1937,259.181" stroke="black" stroke-width="1" /><polyline fill="none" points="301.1775,274.8735 303.0175,276.3611 298.5432,281.8953 288.3488,267.2362" stroke="black" stroke-width="1" /><polyline fill="none" points="286.5526,279.3055 287.9631,280.6833 287.9898,282.9387 286.6125,284.3488 285.2221,285.7721 282.979,285.7857 281.5684,284.4079 280.8409,283.6972 280.1133,282.9865 279.3858,282.2758 277.9752,280.8979 277.9368,278.6556 279.3271,277.2323 280.7045,275.8222 282.9594,275.7955 284.3699,277.1734 286.8065,279.5535 289.243,281.9335 291.6795,284.3136 293.0898,285.6912 293.1162,287.9463 291.7389,289.3564 290.5522,290.5712 288.7362,290.762 287.3441,289.9299" stroke="black" stroke-width="1" /><polyline fill="none" points="279.3495,300.8167 276.3778,297.3124 273.4061,293.8081 270.4344,290.3038 269.1479,288.7869 269.3919,286.557 270.8438,285.3257 272.2823,284.1059 274.5223,284.2293 275.8088,285.7462 276.7845,286.8969 277.7603,288.0475 278.736,289.1981 280.0224,290.7151 279.7777,292.9446 278.3392,294.1645 276.8873,295.3957 274.648,295.2726 273.3616,293.7556" stroke="black" stroke-width="1" /><polyline fill="none" points="271.9575,301.905 273.0864,303.5217 272.6917,305.7419 271.075,306.8708 269.4439,308.0097 267.1762,307.6068 266.0473,305.9901 265.605,305.3567 265.4374,304.8477 265.4036,304.41 265.0582,299.9816 264.7128,295.5532 264.3674,291.1248 264.2857,291.0079 264.2041,290.8909 264.1224,290.774 262.1823,292.1287 260.2422,293.4834 258.3021,294.8381" stroke="black" stroke-width="1" /><polyline fill="none" points="261.697,310.1503 262.864,312.2086 256.6732,315.7187 252.5585,298.344" stroke="black" stroke-width="1" /><polyline fill="none" points="245.8115,320.7961 246.7179,320.3892 247.223,319.5043 246.7034,318.347 246.2002,317.2261 245.697,316.1053 245.1937,314.9845 244.6413,315.2325 244.0888,315.4806 243.5363,315.7286 244.5999,315.2511 245.6635,314.7736 246.7271,314.2961 246.2159,314.5255 245.7048,314.755 245.1937,314.9845 243.6465,311.5385 242.0994,308.0925 240.5522,304.6465" stroke="black" stroke-width="1" /><polyline fill="none" points="237.7303,321.6652 238.4931,323.905 231.7563,326.1992 230.9536,308.3619" stroke="black" stroke-width="1" /><polyline fill="none" points="215.069,314.703 215.4416,313.6799 215.9808,312.6166 218.0491,312.1226 219.9007,311.6804 221.8432,312.8027 222.3172,314.7877 222.6637,316.2383 223.0101,317.6888 223.3566,319.1394 223.8186,321.074 222.5928,322.9523 220.7413,323.3945 218.8564,323.8447 216.881,322.7309 216.419,320.7963 216.2464,320.0739 216.0739,319.3514 215.9013,318.629 218.2083,318.078 220.5153,317.527 222.8223,316.976" stroke="black" stroke-width="1" /><polyline fill="none" points="211.7021,327.3795 211.9785,329.3318 210.6231,331.134 208.6707,331.4105 206.701,331.6894 204.8602,330.3052 204.5837,328.3528 204.4754,327.5879 204.5558,327.0582 204.7235,326.6524 206.4165,322.5459 208.1096,318.4394 209.8027,314.3328 209.7827,314.1916 209.7627,314.0504 209.7427,313.9092 207.3998,314.241 205.0569,314.5727 202.714,314.9045" stroke="black" stroke-width="1" /><polyline fill="none" points="198.5953,328.9419 198.6877,330.9116 197.1695,332.5789 195.1998,332.6714 193.2126,332.7646 191.5094,331.2141 191.417,329.2444 191.3808,328.4727 191.5105,327.9528 191.7154,327.5646 193.7856,323.6346 195.8557,319.7047 197.9259,315.7748 197.9192,315.6323 197.9126,315.4898 197.9059,315.3474 195.5422,315.4583 193.1785,315.5692 190.8148,315.6801" stroke="black" stroke-width="1" /><polyline fill="none" points="179.8411,332.4163 180.8336,332.4629 181.6841,331.9017 181.7436,330.6345 181.8012,329.4073 181.8588,328.18 181.9164,326.9527 181.3114,326.9243 180.7065,326.8959 180.1015,326.8676 181.2661,326.9222 182.4307,326.9769 183.5953,327.0315 183.0356,327.0052 182.476,326.979 181.9164,326.9527 182.0934,323.1795 182.2705,319.4062 182.4475,315.633" stroke="black" stroke-width="1" /><polyline fill="none" points="166.4026,330.9731 167.3864,331.1124 168.2857,330.6334 168.4636,329.3773 168.6358,328.1608 168.8081,326.9443 168.9804,325.7278 168.3807,325.6429 167.7811,325.558 167.1815,325.4731 168.3358,325.6366 169.4902,325.8 170.6445,325.9635 170.0898,325.8849 169.5351,325.8064 168.9804,325.7278 169.51,321.9878 170.0396,318.2477 170.5692,314.5076" stroke="black" stroke-width="1" /><polyline fill="none" points="151.6884,328.191 152.7558,323.722 153.8232,319.2531 154.8905,314.7841 155.3526,312.8495 157.2948,311.7271 159.1463,312.1693 160.9809,312.6074 162.2065,314.4865 161.7444,316.4211 161.394,317.8884 161.0435,319.3558 160.6931,320.8231 160.231,322.7577 158.2887,323.8794 156.4541,323.4412 154.6026,322.999 153.3771,321.1207 153.8392,319.1861" stroke="black" stroke-width="1" /><polyline fill="none" points="148.8029,316.1091 148.1672,317.9757 146.1435,318.9715 144.2776,318.3361 142.3941,317.6947 141.4153,315.6763 142.0509,313.8098 142.3788,312.847 142.7066,311.8842 143.0345,310.9214 143.6702,309.0549 145.6771,308.0541 147.5606,308.6955 149.4265,309.3309 150.4221,311.3542 149.7865,313.2208 148.6885,316.4451 147.5905,319.6693 146.4925,322.8935 145.8569,324.7598 143.8333,325.7553 141.9674,325.1199 140.3598,324.5724 139.4052,323.0158 139.5563,321.4011" stroke="black" stroke-width="1" /><polyline fill="none" points="134.005,303.4091 132.2424,307.3349 137.8116,309.8354 127.3897,319.2314" stroke="black" stroke-width="1" /><polyline fill="none" points="121.2885,307.001 119.9296,306.114 117.6594,306.55 116.6911,308.2579 116.4657,308.6553 116.2403,309.0528 116.015,309.4503 115.1014,311.0616 115.671,313.1187 117.2971,314.0407 118.9081,314.9541 120.9822,314.356 121.8787,312.7749 122.104,312.3774 122.3294,311.9799 122.5547,311.5825 123.4685,309.9709 122.8994,307.9144 121.2885,307.001 119.5135,305.9947 118.9452,303.7609 119.9174,302.0461 120.25,301.4595 120.5826,300.8728 120.9153,300.2861 121.8877,298.571 124.0798,297.9409 125.8547,298.9473 127.6148,299.9452 128.1987,302.1493 127.2264,303.8643 126.8882,304.4608 126.55,305.0572 126.2119,305.6536 125.3783,307.1238 123.2576,308.0009" stroke="black" stroke-width="1" /><polyline fill="none" points="109.6595,305.3164 105.5457,306.5639 115.3607,292.5078" stroke="black" stroke-width="1" /><polyline fill="none" points="103.7341,293.8367 102.4477,295.3536 100.2082,295.477 98.7563,294.2458 97.305,293.015 97.0733,290.7961 98.3597,289.2791 99.3355,288.1285 100.3112,286.9779 101.2869,285.8273 102.5731,284.3106 104.8006,284.176 106.2519,285.4068 107.7038,286.638 107.9347,288.8573 106.6485,290.374 106.6528,290.3776 106.6571,290.3812 106.6613,290.3849 103.6896,293.8892 100.7179,297.3934 97.7462,300.8978" stroke="black" stroke-width="1" /><polyline fill="none" points="94.2427,285.4362 92.8199,286.826 90.5786,286.7392 89.2484,285.3774 87.9187,284.0161 87.8959,281.7852 89.3187,280.3954 90.3979,279.3412 91.4771,278.287 92.5563,277.2328 93.9788,275.8432 96.2091,275.9179 97.5388,277.2791 98.869,278.6409 98.8911,280.872 97.4685,282.2617 97.4724,282.2657 97.4763,282.2697 97.4803,282.2737 94.1935,285.4843 90.9067,288.6949 87.6199,291.9055" stroke="black" stroke-width="1" /><polyline fill="none" points="76.7757,274.1982 80.9194,273.9059 85.063,273.6135 89.2067,273.3211 86.558,275.4626 83.9093,277.604 81.2606,279.7455 79.7272,280.9852 77.4841,280.7471 76.2448,279.2143 74.9938,277.667 75.2423,275.4379 76.7757,274.1982 79.4244,272.0568 82.0731,269.9153 84.7218,267.7739 86.2552,266.5341 88.4863,266.7585 89.7263,268.2921 90.9766,269.8386 90.7401,272.0814 89.2067,273.3211" stroke="black" stroke-width="1" /><polyline fill="none" points="73.1698,269.2761 71.527,270.3668 69.3167,269.9201 68.226,268.2774 67.1256,266.6201 67.5816,264.3624 69.2243,263.2717 69.8679,262.8444 70.3806,262.6888 70.819,262.6652 75.2543,262.4237 79.6896,262.1823 84.1249,261.9407 84.2437,261.8619 84.3625,261.783 84.4813,261.7041 83.1725,259.7328 81.8636,257.7614 80.5547,255.7901" stroke="black" stroke-width="1" /><polyline fill="none" points="68.436,252.878 67.7598,251.4029 65.607,250.5606 63.8769,251.4886 63.4743,251.7046 63.0716,251.9206 62.669,252.1366 61.0368,253.0121 60.4211,255.0559 61.3047,256.7032 62.1801,258.3351 64.2535,258.9357 65.8552,258.0766 66.2578,257.8606 66.6605,257.6446 67.0631,257.4286 68.6957,256.553 69.3114,254.5099 68.436,252.878 67.4715,251.08 68.1825,248.8874 69.9195,247.9556 70.5138,247.6368 71.1081,247.318 71.7025,246.9992 73.4398,246.0673 75.6301,246.7037 76.5946,248.5018 77.551,250.2848 76.8691,252.4606 75.1318,253.3925 74.5276,253.7166 73.9234,254.0406 73.3192,254.3647 71.8299,255.1636 69.5682,254.7742" stroke="black" stroke-width="1" /><polyline fill="none" points="60.1308,246.3549 58.3135,247.1202 56.2253,246.2693 55.46,244.452 54.688,242.6185 55.5569,240.4855 57.3742,239.7202 58.0862,239.4204 58.6189,239.3631 59.054,239.4217 63.4565,240.0115 67.859,240.6012 72.2616,241.1909 72.393,241.1356 72.5244,241.0802 72.6559,241.0249 71.7376,238.8441 70.8192,236.6633 69.9009,234.4825" stroke="black" stroke-width="1" /><polyline fill="none" points="60.6105,232.3788 58.7132,232.9757 56.7531,231.8854 56.1819,230.0695 55.6108,228.2542 56.5986,226.2538 58.496,225.6569 59.935,225.2042 61.3741,224.7515 62.8132,224.2988 64.7102,223.702 66.6661,224.7765 67.2371,226.5917 67.8083,228.4076 66.8198,230.4079 64.9228,231.0047 64.9245,231.01 64.9261,231.0154 64.9278,231.0207 60.5449,232.3995 56.162,233.7783 51.7791,235.1571" stroke="black" stroke-width="1" /><polyline fill="none" points="60.0354,212.4756 61.9799,212.0591 63.8266,213.312 64.2252,215.173 64.6238,217.0341 63.4559,218.9499 61.5113,219.3663 60.0362,219.6823 58.561,219.9983 57.0858,220.3143 55.141,220.7308 53.2915,219.4614 52.8929,217.6003 52.4943,215.7393 53.665,213.8401 55.6099,213.4235" stroke="black" stroke-width="1" /><polyline fill="none" points="48.8142,207.2026 45.1485,204.9572 62.1746,202.9522" stroke="black" stroke-width="1" /><polyline fill="none" points="53.456,195.1465 51.4675,195.1931 49.8872,193.6015 49.8426,191.6983 49.798,189.7959 51.3023,188.1484 53.2908,188.1018 54.799,188.0664 56.3072,188.031 57.8154,187.9957 59.8035,187.949 61.3841,189.5243 61.4287,191.4267 61.4734,193.3298 59.9683,194.977 57.9802,195.0236 57.9803,195.0292 57.9805,195.0348 57.9806,195.0404 53.3872,195.1481 48.7938,195.2558 44.2003,195.3635" stroke="black" stroke-width="1" /><polyline fill="none" points="44.6717,175.0054 49.2551,175.3283 53.8384,175.6512 58.4217,175.9741 60.4058,176.1139 61.8304,177.8466 61.6967,179.7455 61.5641,181.627 59.9106,183.1432 57.9265,183.0034 56.4216,182.8974 54.9167,182.7914 53.4118,182.6853 51.4277,182.5455 50.0038,180.8126 50.1363,178.9311 50.2701,177.0322 51.9229,175.5163 53.907,175.6561" stroke="black" stroke-width="1" /><polyline fill="none" points="61.8774,164.0082 62.6758,164.7486 63.4465,165.6582 63.0991,167.7561 62.7881,169.6342 60.9998,170.9889 58.9865,170.6555 57.5151,170.4118 56.0438,170.1681 54.5725,169.9245 52.6102,169.5995 51.3548,167.7408 51.6658,165.8628 51.9825,163.9509 53.7756,162.5626 55.7378,162.8876 56.4706,163.0089 57.2034,163.1303 57.9362,163.2516 57.5487,165.5916 57.1611,167.9316 56.7737,170.2716" stroke="black" stroke-width="1" /><polyline fill="none" points="58.4166,157.8689 56.51,157.366 55.3744,155.4172 55.8771,153.5113 56.3846,151.5874 58.3291,150.4691 60.2358,150.972 61.2192,151.2314 62.2026,151.4908 63.1861,151.7502 65.0927,152.2531 66.2321,154.1848 65.7246,156.1087 65.2219,158.0146 63.2736,159.15 61.3669,158.6471 58.0735,157.7784 54.78,156.9097 51.4866,156.041 49.5803,155.5382 48.4451,153.5895 48.9478,151.6835 49.3809,150.0414 50.8666,148.9798 52.4879,149.0171" stroke="black" stroke-width="1" /><polyline fill="none" points="55.148,143.2997 53.2968,142.6204 52.3493,140.5741 53.0286,138.7229 53.7139,136.8553 55.8038,135.8874 57.655,136.5666 58.3802,136.8327 58.809,137.1541 59.0873,137.4936 61.9058,140.9267 64.7243,144.3597 67.5428,147.7928 67.6767,147.842 67.8106,147.8911 67.9445,147.9402 68.7596,145.7188 69.5747,143.4973 70.3898,141.2759" stroke="black" stroke-width="1" /><polyline fill="none" points="65.0279,133.4027 63.233,132.5457 62.5426,130.4117 63.3628,128.6938 64.1827,126.9766 66.2692,126.1867 68.0641,127.0436 69.4255,127.6936 70.7869,128.3437 72.1483,128.9937 73.9429,129.8505 74.6411,131.97 73.8212,133.6872 73.001,135.4051 70.914,136.1944 69.1194,135.3376 69.117,135.3426 69.1146,135.3477 69.1122,135.3527 64.9658,133.373 60.8195,131.3933 56.6732,129.4137" stroke="black" stroke-width="1" /><polyline fill="none" points="70.7299,122.0827 69.0231,121.0614 68.5355,118.8721 69.5129,117.2386 70.4901,115.6057 72.6414,115.0146 74.3481,116.0359 75.6427,116.8106 76.9372,117.5852 78.2318,118.3598 79.9383,119.381 80.4349,121.5565 79.4578,123.1894 78.4803,124.8229 76.3286,125.4133 74.6221,124.3922 74.6193,124.397 74.6164,124.4018 74.6135,124.4066 70.6708,122.0474 66.7281,119.6881 62.7854,117.3289" stroke="black" stroke-width="1" /><polyline fill="none" points="78.6846,112.3389 77.0948,111.1724 76.7521,108.9431 77.9182,107.3539 79.0952,105.7496 81.3143,105.4216 82.9041,106.5881 83.7241,107.1898 84.5441,107.7914 85.3641,108.3931 86.9539,109.5596 87.3064,111.7744 86.1293,113.3786 84.9632,114.9678 82.7344,115.3104 81.1446,114.1439 78.3984,112.129 75.6523,110.114 72.9061,108.0991 71.3166,106.9328 70.9743,104.7037 72.1403,103.1144 73.145,101.7452 74.9163,101.3017 76.4112,101.9304" stroke="black" stroke-width="1" /><polyline fill="none" points="86.2989,102.3903 84.8254,101.08 84.693,98.8284 86.0027,97.3553 87.3249,95.8684 89.5649,95.7496 91.0385,97.0598 91.7985,97.7357 92.5586,98.4115 93.3186,99.0873 94.7922,100.3975 94.9357,102.6356 93.6136,104.1225 92.3038,105.5956 90.0527,105.7279 88.5791,104.4177 86.0337,102.1544 83.4883,99.8912 80.9429,97.628 79.4696,96.318 79.3375,94.0666 80.6473,92.5935 81.7757,91.3244 83.5807,91.0487 85.0103,91.8146" stroke="black" stroke-width="1" /><polyline fill="none" points="95.1621,83.0745 95.7449,87.1874 96.3278,91.3002 96.9106,95.4131 94.5883,92.9214 92.266,90.4298 89.9437,87.9381 88.5993,86.4957 88.6791,84.2413 90.1211,82.8974 91.5766,81.5408 93.8177,81.632 95.1621,83.0745 97.4844,85.5661 99.8067,88.0578 102.129,90.5494 103.4734,91.9919 103.4064,94.2333 101.9637,95.578 100.5089,96.9339 98.255,96.8556 96.9106,95.4131" stroke="black" stroke-width="1" /><polyline fill="none" points="100.7262,78.2382 100.7707,73.9397 111.2337,87.5203" stroke="black" stroke-width="1" /><polyline fill="none" points="111.4369,70.5034 111.8837,66.228 121.0291,80.7287" stroke="black" stroke-width="1" /><polyline fill="none" points="125.8942,58.4641 124.0636,59.3914 122.233,60.3188 120.4024,61.2461 121.624,63.6576 122.8457,66.0692 124.0673,68.4807 124.0984,67.1005 124.6222,66.0464 125.9527,65.3724 127.7882,64.4426 129.9776,65.2365 130.8373,66.9337 131.452,68.147 132.0667,69.3604 132.6813,70.5738 133.58,72.3478 132.8164,74.3685 131.1488,75.2132 129.4971,76.0499 127.4315,75.4624 126.5328,73.6884" stroke="black" stroke-width="1" /><polyline fill="none" points="141.5004,59.0068 142.2228,60.8415 141.3386,62.9028 139.5039,63.6252 137.6532,64.354 135.5861,63.4548 134.8636,61.6201 134.4909,60.6735 134.1182,59.7269 133.7455,58.7804 133.023,56.9456 133.9219,54.8778 135.757,54.1553 137.6073,53.4267 139.6598,54.3324 140.3822,56.1671 141.6302,59.3363 142.8781,62.5055 144.126,65.6748 144.8483,67.5092 143.9642,69.5708 142.1295,70.2932 140.5503,70.915 138.8144,70.3453 137.8851,69.0158" stroke="black" stroke-width="1" /><polyline fill="none" points="146.1213,54.0125 145.6262,52.2993 146.6211,50.3697 148.4828,49.8317 150.3435,49.2939 152.2083,50.3087 152.7699,52.252 152.8587,52.5594 152.9475,52.8667 153.0363,53.174 153.8932,56.1388 151.4498,57.38 151.1198,57.4753 150.8015,57.5673 150.4832,57.6593 150.1649,57.7513 150.4832,57.6593 150.8015,57.5673 151.1198,57.4753 152.0921,57.1943 154.5009,57.7477 155.1672,60.0531 155.3624,60.7286 155.5576,61.404 155.7528,62.0795 156.3048,63.9896 155.194,65.9528 153.2832,66.505 151.3559,67.062 149.3863,65.9891 148.8343,64.079" stroke="black" stroke-width="1" /><polyline fill="none" points="163.1184,54.6506 164.7285,54.4483 166.1779,52.6474 165.8119,50.7186 165.7267,50.2697 165.6415,49.8208 165.5563,49.3719 165.2109,47.5521 163.446,46.3515 161.6095,46.7001 159.7901,47.0454 158.595,48.843 158.9339,50.6287 159.0191,51.0776 159.1043,51.5265 159.1895,51.9754 159.5349,53.7955 161.299,54.9959 163.1184,54.6506 165.123,54.2701 167.0012,55.6063 167.3688,57.5428 167.4945,58.2054 167.6203,58.868 167.746,59.5307 168.1136,61.4676 166.8493,63.366 164.8447,63.7464 162.8569,64.1237 160.986,62.8203 160.6184,60.8834 160.4905,60.2098 160.3627,59.5362 160.2348,58.8626 159.9197,57.2022 160.9698,55.1616" stroke="black" stroke-width="1" /><polyline fill="none" points="185.7495,269.3076 156.5688,130.1462 268.4255,140.8637 188.1635,280.8196 188.8697,188.4998 108.8569,140.3048 108.8569,140.3048 250.763,172.1919 268.4255,140.8637 268.1431,236.6952" stroke="black" stroke-width="1" /><polyline fill="none" points="285.7866,236.7472 250.4995,236.6432" stroke="black" stroke-width="1" /><polyline fill="none" points="199.9259,280.8196 199.7811,278.9795 199.3502,277.1848 198.6439,275.4796 197.6795,273.9058 196.4808,272.5023 195.0773,271.3036 193.5035,270.3392 191.7983,269.6329 190.0036,269.202 188.1635,269.0572 186.3235,269.202 184.5287,269.6329 182.8235,270.3392 181.2497,271.3036 179.8462,272.5023 178.6475,273.9058 177.6831,275.4796 176.9768,277.1848 176.5459,278.9795 176.4011,280.8196 176.5459,282.6596 176.9768,284.4543 177.6831,286.1596 178.6475,287.7333 179.8462,289.1368 181.2497,290.3356 182.8235,291.3 184.5287,292.0063 186.3235,292.4372 188.1635,292.582 190.0036,292.4372 191.7983,292.0063 193.5035,291.3 195.0773,290.3356 196.4808,289.1368 197.6795,287.7333 198.6439,286.1596 199.3502,284.4543 199.7811,282.6596 199.9259,280.8196" stroke="black" stroke-width="1" /><polyline fill="none" points="188.5,69.0664 199.6839,69.5912 210.7696,71.161 221.6595,73.7619 232.2581,77.3712 242.4721,81.9571 252.2118,87.4792 261.3915,93.8892 269.9308,101.1306 277.7544,109.1398 284.7936,117.8464 290.9866,127.1739 296.2789,137.0404 300.6241,147.3591 303.9839,158.0393 306.3289,168.9873 307.6383,180.1067 307.9008,191.2998 307.114,202.4684 305.2847,213.5142 302.4292,224.3402 298.5725,234.8512 293.7484,244.9549 287.9994,254.5625 281.376,263.5894 273.9365,271.9565 265.7461,279.5902 256.8768,286.4234 247.4067,292.3961 237.4188,297.4556 227.0011,301.5577 216.2451,304.6663 205.2452,306.7539 194.0981,307.8023 182.9019,307.8023 171.7548,306.7539 160.7549,304.6663 149.9989,301.5577 139.5811,297.4556 129.5933,292.3961 120.1232,286.4234 111.2539,279.5902 103.0635,271.9565 95.6239,263.5894 89.0006,254.5625 83.2516,244.9549 78.4275,234.8512 74.5708,224.3402 71.7153,213.5142 69.8861,202.4684 69.0992,191.2998 69.3617,180.1067 70.6712,168.9872 73.0161,158.0393 76.3759,147.3591 80.7211,137.0404 86.0134,127.174 92.2064,117.8464 99.2457,109.1398 107.0692,101.1306 115.6085,93.8892 124.7882,87.4792 134.5279,81.957 144.7419,77.3712 155.3405,73.7619 166.2304,71.161 177.3161,69.5912 188.5,69.0664" stroke="black" stroke-width="1" />

    </g>
  </g>
  <WCB
     pausedposy="0"
     pausedposx="0"
     lastknownposy="0"
     lastknownposx="0"
     lastpathnc="0"
     lastpath="0"
     node="0"
     layer="0" />
</svg>
