<?xml version="1.0" encoding="UTF-8" standalone="no"?>
<!-- Created with Inkscape (http://www.inkscape.org/) -->

<svg
   xmlns:dc="http://purl.org/dc/elements/1.1/"
   xmlns:cc="http://creativecommons.org/ns#"
   xmlns:rdf="http://www.w3.org/1999/02/22-rdf-syntax-ns#"
   xmlns:svg="http://www.w3.org/2000/svg"
   xmlns="http://www.w3.org/2000/svg"
   xmlns:sodipodi="http://sodipodi.sourceforge.net/DTD/sodipodi-0.dtd"
   xmlns:inkscape="http://www.inkscape.org/namespaces/inkscape"
   width="100mm"
   height="100mm"
   viewBox="0 0 100 100"
   version="1.1"
   id="svg19124"
   inkscape:version="0.92.3 (2405546, 2018-03-11)"
   sodipodi:docname="inkscape_template_TMP.svg"
   shape-rendering="crispEdges">
  <sodipodi:namedview
     pagecolor="#ffffff"
     bordercolor="#666666"
     borderopacity="1"
     objecttolerance="10"
     gridtolerance="10"
     guidetolerance="10"
     inkscape:pageopacity="0"
     inkscape:pageshadow="2"
     inkscape:window-width="1568"
     inkscape:window-height="1550"
     id="namedview24021"
     showgrid="false"
     inkscape:zoom="0.62441667"
     inkscape:cx="712.66515"
     inkscape:cy="409.98265"
     inkscape:window-x="0"
     inkscape:window-y="0"
     inkscape:window-maximized="0"
     inkscape:current-layer="layer1" />
  <defs
     id="defs19118" />
  <metadata
     id="metadata19121">
    <rdf:RDF>
      <cc:Work
         rdf:about="">
        <dc:format>image/svg+xml</dc:format>
        <dc:type
           rdf:resource="http://purl.org/dc/dcmitype/StillImage" />
        <dc:title />
      </cc:Work>
    </rdf:RDF>
  </metadata>
  <g
     transform="translate(0,-197)"
     id="layer1"
     inkscape:groupmode="layer"
     inkscape:label="Layer 1">
    <g
       id="g24447"
       transform="matrix(0.26458333,0,0,0.26458333,0.10666333,197.9735)">

<polyline fill="none" points="192.1004,47.7394 189.7225,51.1455 187.3447,54.5516 184.9669,57.9577 184.9669,54.5516 184.9669,51.1455 184.9669,47.7394 184.9669,45.7676 186.5623,44.1729 188.5334,44.1729 190.5231,44.1729 192.1004,45.7676 192.1004,47.7394 192.1004,51.1455 192.1004,54.5516 192.1004,57.9577 192.1004,59.9295 190.5231,61.5235 188.5509,61.5235 186.5623,61.5235 184.9669,59.9295 184.9669,57.9577" stroke="black" stroke-width="1" /><polyline fill="none" points="197.8298,61.5877 200.7471,57.7851 198.696,53.7706 202.935,62.0679 200.7471,57.7851 203.4811,54.2207" stroke="black" stroke-width="1" /><polyline fill="none" points="217.2511,47.2193 216.2749,47.034 215.3542,47.4703 215.1176,48.7167 214.8885,49.9238 214.6595,51.1308 214.4304,52.3379 215.0254,52.4508 215.6204,52.5638 216.2154,52.6767 215.0699,52.4593 213.9245,52.2419 212.7791,52.0245 213.3295,52.129 213.8799,52.2334 214.4304,52.3379 213.726,56.0491 213.0217,59.7602 212.3174,63.4713" stroke="black" stroke-width="1" /><polyline fill="none" points="230.3545,50.5323 229.4,50.2565 228.4424,50.6047 228.0902,51.8234 227.7491,53.0037 227.408,54.184 227.0669,55.3643 227.6487,55.5325 228.2305,55.7007 228.8123,55.8688 227.6922,55.5451 226.5722,55.2214 225.4522,54.8977 225.9904,55.0533 226.5286,55.2088 227.0669,55.3643 226.0181,58.9932 224.9693,62.6221 223.9206,66.251" stroke="black" stroke-width="1" /><polyline fill="none" points="234.7839,61.4612 235.5127,59.6105 237.5929,58.7718 239.3641,59.4692 241.1347,60.1664 242.0693,62.1923 241.3406,64.0429 240.7879,65.4467 240.2352,66.8504 239.6824,68.2541 238.9538,70.1045 236.8886,70.9499 235.118,70.2527 233.3468,69.5552 232.4128,67.5289 233.1414,65.6785 233.1362,65.6765 233.131,65.6744 233.1257,65.6723 234.8091,61.3971 236.4925,57.1219 238.1759,52.8468" stroke="black" stroke-width="1" /><polyline fill="none" points="249.8605,75.0628 248.9147,75.6021 247.8157,76.0644 245.9187,75.1034 244.2205,74.2432 243.4649,72.1308 244.3872,70.3103 245.0611,68.9799 245.7351,67.6495 246.409,66.3191 247.3078,64.5448 249.4576,63.905 251.1558,64.7653 252.8845,65.641 253.6707,67.7681 252.7719,69.5424 252.4362,70.205 252.1006,70.8676 251.7649,71.5302 249.6491,70.4583 247.5332,69.3865 245.4173,68.3146" stroke="black" stroke-width="1" /><polyline fill="none" points="261.1162,79.8498 260.0554,81.5319 257.8688,81.9774 256.2589,80.9621 254.6491,79.9468 254.0948,77.7726 255.1556,76.0906 255.9604,74.8145 256.7652,73.5385 257.5699,72.2625 258.631,70.5801 260.8314,70.1441 262.4413,71.1594 264.0511,72.1747 264.5916,74.3393 263.5305,76.0217" stroke="black" stroke-width="1" /><polyline fill="none" points="271.6341,74.8577 272.8375,73.2957 275.0738,73.006 276.6359,74.2094 278.2117,75.4236 278.5079,77.7077 277.3045,79.2697 276.833,79.8817 276.3978,80.1943 275.9904,80.3579 271.8698,82.0163 267.7491,83.6746 263.6285,85.333 263.5414,85.446 263.4544,85.559 263.3673,85.672 265.2418,87.1161 267.1163,88.5603 268.9908,90.0045" stroke="black" stroke-width="1" /><polyline fill="none" points="282.144,83.0788 283.3599,81.7743 285.5265,81.6371 286.9442,82.9584 288.3611,84.279 288.4478,86.4002 287.0685,87.88 286.8505,88.114 286.6324,88.348 286.4142,88.582 284.3101,90.8397 281.9904,89.3803 281.7391,89.146 281.4967,88.9201 281.2544,88.6942 281.012,88.4683 281.2544,88.6942 281.4967,88.9201 281.7391,89.146 282.4796,89.8361 283.2415,92.1873 281.6054,93.9427 281.126,94.4571 280.6466,94.9715 280.1672,95.4858 278.8116,96.9403 276.5566,96.9951 275.1016,95.639 273.634,94.2712 273.5433,92.0301 274.899,90.5757" stroke="black" stroke-width="1" /><polyline fill="none" points="292.1219,91.448 293.8901,89.8757 298.619,95.1941 282.4913,102.8565" stroke="black" stroke-width="1" /><polyline fill="none" points="305.8586,104.7514 305.2709,103.9503 304.2998,103.6418 303.277,104.3922 302.2864,105.1191 301.2958,105.8459 300.3053,106.5727 300.6635,107.061 301.0218,107.5492 301.3801,108.0375 300.6904,107.0975 300.0007,106.1575 299.311,105.2176 299.6424,105.6693 299.9738,106.121 300.3053,106.5727 297.2597,108.8073 294.2142,111.0419 291.1687,113.2765" stroke="black" stroke-width="1" /><polyline fill="none" points="313.8147,116.9106 312.761,115.1497 311.7073,113.3887 310.6536,111.6278 308.3339,113.0159 306.0142,114.404 303.6945,115.7921 305.0734,115.7261 306.1617,116.1745 306.9276,117.4544 307.9841,119.22 307.346,121.4598 305.7134,122.4367 304.5463,123.1351 303.3791,123.8335 302.2119,124.5319 300.5055,125.553 298.4361,124.9333 297.4762,123.3292 296.5255,121.7404 296.9664,119.6386 298.6729,118.6175" stroke="black" stroke-width="1" /><polyline fill="none" points="314.6997,125.7661 318.8936,126.7099 303.4227,134.0966" stroke="black" stroke-width="1" /><polyline fill="none" points="317.0504,144.7708 317.0556,144.769 317.0607,144.7671 317.0659,144.7652 314.8771,145.5683 312.6882,146.3714 310.4994,147.1746 309.4878,147.5457 309.36,148.398 309.5544,148.9278 309.3062,148.2515 309.6769,147.4764 310.371,147.2217 310.4138,147.206 310.4566,147.1903 310.4994,147.1746 309.2039,146.4805 308.1113,145.4935 307.5977,144.0937 307.1723,142.9345 307.061,140.8385 309.4269,139.9704 310.6665,139.5155 311.7086,139.918 312.4926,140.7629 312.8792,141.1685 313.7468,142.5865 314.3339,143.5394 314.9427,144.503 315.8109,145.2257 317.0504,144.7708 318.3058,144.3102 319.3513,142.4836 318.6427,140.5523 317.9752,138.733 316.7832,138.2207 315.7674,137.9905" stroke="black" stroke-width="1" /><polyline fill="none" points="328.7641,154.5175 328.2407,152.5333 327.7173,150.549 327.194,148.5648 324.58,149.2542 321.9661,149.9437 319.3522,150.6332 320.6953,150.9526 321.6163,151.6856 321.9967,153.1277 322.5215,155.1173 321.2867,157.0918 319.447,157.5771 318.1318,157.924 316.8167,158.2709 315.5015,158.6178 313.5786,159.125 311.7626,157.9551 311.2859,156.1476 310.8136,154.3573 311.8207,152.4605 313.7436,151.9533" stroke="black" stroke-width="1" /><polyline fill="none" points="324.9649,169.6639 323.0195,169.9861 321.1891,168.6898 320.867,166.7444 320.5421,164.7821 321.8542,162.9491 323.7996,162.627 324.8032,162.4608 325.8068,162.2946 326.8104,162.1284 328.7558,161.8062 330.5895,163.1182 330.9117,165.064 331.2366,167.0259 329.9211,168.8431 327.9758,169.1653 324.6155,169.7218 321.2551,170.2782 317.8948,170.8347 315.9498,171.1568 314.1191,169.8606 313.797,167.9152 313.5197,166.2408 314.4403,164.6627 315.935,164.0325" stroke="black" stroke-width="1" /><polyline fill="none" points="332.6406,181.2671 332.4964,179.2201 332.3522,177.1731 332.2079,175.126 329.5114,175.316 326.8147,175.506 324.1181,175.696 325.3781,176.2603 326.1462,177.1521 326.251,178.6399 326.3956,180.6924 324.8143,182.4021 322.9164,182.5358 321.5596,182.6314 320.2028,182.727 318.846,182.8226 316.8623,182.9623 315.2963,181.4743 315.1649,179.6096 315.0348,177.7627 316.3779,176.087 318.3617,175.9472" stroke="black" stroke-width="1" /><polyline fill="none" points="319.0198,195.0233 317.0317,194.9767 315.5267,193.3291 315.5713,191.4263 315.6159,189.5236 317.197,187.9316 319.185,187.9782 320.6932,188.0135 322.2014,188.0489 323.7097,188.0843 325.6981,188.1309 327.2021,189.7953 327.1574,191.698 327.1129,193.6008 325.5329,195.176 323.5445,195.1294" stroke="black" stroke-width="1" /><polyline fill="none" points="331.4614,208.2704 331.7014,206.2324 331.9414,204.1944 332.1814,202.1564 329.4966,201.8402 326.8119,201.5241 324.1271,201.2079 325.2598,201.9972 325.8481,203.0166 325.6737,204.4979 325.4331,206.5413 323.5607,207.9262 321.6712,207.7037 320.3204,207.5446 318.9695,207.3855 317.6187,207.2265 315.6437,206.9939 314.3826,205.24 314.6013,203.3835 314.8178,201.5447 316.4498,200.1488 318.4248,200.3814" stroke="black" stroke-width="1" /><polyline fill="none" points="321.7088,217.0536 321.2704,218.616 322.3676,220.6508 324.2873,221.062 324.7341,221.1577 325.1809,221.2534 325.6277,221.349 327.4388,221.737 329.2302,220.5764 329.6218,218.7485 330.0096,216.9377 328.8167,215.1386 327.0394,214.7579 326.5927,214.6622 326.1459,214.5666 325.6991,214.4709 323.8876,214.0829 322.0966,215.2428 321.7088,217.0536 321.2815,219.0488 319.3211,220.2612 317.3937,219.8484 316.7343,219.7071 316.0748,219.5659 315.4153,219.4246 313.4875,219.0117 312.2286,217.1097 312.6559,215.1146 313.0797,213.1362 315.007,211.9177 316.9348,212.3306 317.6052,212.4742 318.2756,212.6178 318.946,212.7614 320.5986,213.1154 322.0717,214.8752" stroke="black" stroke-width="1" /><polyline fill="none" points="323.8241,227.4002 325.7051,227.9919 326.7474,229.9915 326.1557,231.8725 325.5587,233.7702 323.5164,234.835 321.6354,234.2433 320.8985,234.0115 320.4551,233.7106 320.1612,233.3845 317.1849,230.0873 314.2086,226.7901 311.2322,223.4929 311.0962,223.4501 310.9601,223.4073 310.8241,223.3645 310.114,225.6217 309.4039,227.8789 308.6938,230.1362" stroke="black" stroke-width="1" /><polyline fill="none" points="319.5868,239.9012 321.4041,240.6665 322.2546,242.7549 321.4894,244.5722 320.7173,246.4057 318.5843,247.2746 316.767,246.5093 316.055,246.2095 315.6417,245.8684 315.3796,245.5163 312.7252,241.9548 310.0706,238.3934 307.4162,234.832 307.2847,234.7766 307.1533,234.7213 307.0219,234.6659 306.1035,236.8467 305.1852,239.0275 304.2668,241.2083" stroke="black" stroke-width="1" /><polyline fill="none" points="314.3181,252.1603 315.8896,253.0032 316.5748,255.0632 315.6588,256.771 314.7432,258.4778 312.7143,259.1027 310.9317,258.1465 310.6498,257.9952 310.3679,257.8441 310.086,257.6928 307.3663,256.234 308.1859,253.6189 308.3483,253.3162 308.5049,253.0242 308.6615,252.7322 308.8181,252.4402 308.6615,252.7322 308.5049,253.0242 308.3483,253.3162 307.8698,254.2081 305.7908,255.5445 303.6761,254.4102 303.0565,254.0779 302.4369,253.7455 301.8173,253.4131 300.0651,252.4733 299.437,250.3069 300.3772,248.5541 301.3254,246.7863 303.4693,246.127 305.2214,247.0668" stroke="black" stroke-width="1" /><polyline fill="none" points="301.9847,263.8732 301.0043,265.1663 301.2797,267.4616 302.9153,268.5475 303.296,268.8003 303.6766,269.053 304.0573,269.3057 305.6003,270.3303 307.6924,269.9067 308.7264,268.3494 309.7508,266.8066 309.2999,264.6956 307.7857,263.6902 307.4051,263.4374 307.0244,263.1847 306.6437,262.932 305.1004,261.9073 303.009,262.3304 301.9847,263.8732 300.856,265.5731 298.5878,265.983 296.9457,264.8927 296.3838,264.5196 295.822,264.1466 295.2601,263.7735 293.6176,262.683 293.1431,260.4521 294.2717,258.7522 295.3909,257.0666 297.6306,256.639 299.273,257.7295 299.8442,258.1088 300.4154,258.488 300.9865,258.8672 302.3945,259.8021 303.1205,261.9792" stroke="black" stroke-width="1" /><polyline fill="none" points="298.6988,281.9072 295.1258,279.0184 291.5528,276.1297 287.9798,273.241 286.4331,271.9905 286.257,269.7542 287.4538,268.2739 288.6396,266.8071 290.8634,266.5107 292.4102,267.7612 293.5833,268.7097 294.7565,269.6582 295.9296,270.6067 297.4763,271.8572 297.6517,274.0933 296.4659,275.56 295.269,277.0403 293.046,277.3369 291.4993,276.0865" stroke="black" stroke-width="1" /><polyline fill="none" points="291.697,284.5896 292.9727,285.8357 293.0589,288.005 291.7048,289.3913 290.3514,290.7768 288.2287,290.8138 286.7816,289.4003 286.5528,289.1767 286.324,288.9532 286.0952,288.7297 283.8875,286.5732 285.4008,284.2884 285.6409,284.0426 285.8724,283.8056 286.1039,283.5686 286.3354,283.3316 286.1039,283.5686 285.8724,283.8056 285.6409,284.0426 284.9336,284.7667 282.5653,285.4733 280.8486,283.7964 280.3456,283.3051 279.8427,282.8138 279.3397,282.3225 277.9174,280.9332 277.9155,278.6775 279.3053,277.2547 280.7072,275.8196 282.9497,275.7815 284.372,277.1708" stroke="black" stroke-width="1" /><polyline fill="none" points="276.7938,298.1846 276.4044,294.049 276.015,289.9133 275.6255,285.7776 277.8285,288.3754 280.0314,290.9731 282.2344,293.5709 283.5097,295.0748 283.3243,297.3229 281.8209,298.5978 280.3034,299.8847 278.0691,299.6885 276.7938,298.1846 274.5908,295.5868 272.3879,292.9891 270.1849,290.3913 268.9096,288.8874 269.0816,286.6516 270.5858,285.376 272.1024,284.0898 274.3502,284.2737 275.6255,285.7776" stroke="black" stroke-width="1" /><polyline fill="none" points="269.4744,307.7897 270.289,307.2209 270.6203,306.2573 269.894,305.2172 269.1906,304.2098 268.4872,303.2025 267.7838,302.1951 267.2873,302.5419 266.7907,302.8886 266.2942,303.2353 267.2501,302.5678 268.206,301.9003 269.1619,301.2329 268.7025,301.5536 268.2432,301.8744 267.7838,302.1951 265.6212,299.0981 263.4586,296.001 261.296,292.9039" stroke="black" stroke-width="1" /><polyline fill="none" points="259.9476,309.979 259.3009,314.2289 250.8453,299.3153" stroke="black" stroke-width="1" /><polyline fill="none" points="238.8495,309.094 238.035,307.2798 238.8733,305.2117 240.6096,304.4322 242.3459,303.6526 244.4638,304.3934 245.2783,306.2076 245.8962,307.5839 246.5142,308.9601 247.1321,310.3364 247.9467,312.1509 247.0928,314.2252 245.3565,315.0048 243.6202,315.7843 241.518,315.0373 240.7033,313.2228" stroke="black" stroke-width="1" /><polyline fill="none" points="226.9811,309.7147 228.3683,313.7884 234.1473,311.8204 232.9296,325.7996" stroke="black" stroke-width="1" /><polyline fill="none" points="220.1385,329.1623 221.1049,328.9315 221.7661,328.1563 221.4714,326.9224 221.186,325.7274 220.9006,324.5323 220.6152,323.3374 220.0261,323.478 219.4371,323.6187 218.848,323.7594 219.982,323.4886 221.116,323.2177 222.25,322.9469 221.705,323.0771 221.1601,323.2072 220.6152,323.3374 219.7377,319.6633 218.8602,315.9893 217.9827,312.3152" stroke="black" stroke-width="1" /><polyline fill="none" points="211.7021,327.3795 211.9785,329.3318 210.6231,331.134 208.6707,331.4105 206.701,331.6894 204.8602,330.3052 204.5837,328.3528 204.4754,327.5879 204.5558,327.0582 204.7235,326.6524 206.4165,322.5459 208.1096,318.4394 209.8027,314.3328 209.7827,314.1916 209.7627,314.0504 209.7427,313.9092 207.3998,314.241 205.0569,314.5727 202.714,314.9045" stroke="black" stroke-width="1" /><polyline fill="none" points="197.3397,329.1548 194.8423,332.6537 194.0388,315.5287" stroke="black" stroke-width="1" /><polyline fill="none" points="179.8947,315.3848 179.693,319.6835 185.7911,319.9696 179.5363,332.5307" stroke="black" stroke-width="1" /><polyline fill="none" points="172.2395,329.5397 171.9077,331.8824 164.8613,330.8846 172.2059,314.6098" stroke="black" stroke-width="1" /><polyline fill="none" points="159.2061,326.2233 158.748,328.1412 156.8265,329.3215 154.9086,328.8634 152.9737,328.4012 151.768,326.4388 152.226,324.5209 152.4055,323.7695 152.6744,323.3061 152.9791,322.99 156.059,319.7893 159.1389,316.5887 162.2188,313.388 162.2519,313.2493 162.285,313.1105 162.3182,312.9718 160.0166,312.4221 157.7151,311.8724 155.4135,311.3227" stroke="black" stroke-width="1" /><polyline fill="none" points="145.0047,308.0072 143.6174,312.0808 149.3964,314.0488 139.9001,324.3795" stroke="black" stroke-width="1" /><polyline fill="none" points="131.8343,306.2581 132.6488,304.444 134.7514,303.6963 136.4877,304.4758 138.224,305.2554 139.0776,307.3304 138.2631,309.1445 137.6452,310.5208 137.0273,311.8971 136.4094,313.2733 135.5947,315.0879 133.4771,315.828 131.7408,315.0484 130.0045,314.2689 129.1659,312.2014 129.9806,310.387" stroke="black" stroke-width="1" /><polyline fill="none" points="121.8899,298.9365 122.86,298.442 123.9794,298.0318 125.8292,299.0806 127.4852,300.0195 128.141,302.165 127.1344,303.9402 126.3989,305.2376 125.6633,306.5349 124.9277,307.8323 123.9467,309.5625 121.7693,310.1008 120.1134,309.1619 118.4276,308.2061 117.7419,306.0446 118.7229,304.3143 119.0893,303.6682 119.4556,303.022 119.822,302.3759 121.8853,303.5457 123.9486,304.7156 126.0119,305.8854" stroke="black" stroke-width="1" /><polyline fill="none" points="113.9705,301.3114 112.8318,302.9422 110.6136,303.2747 109.0528,302.1849 107.4926,301.0954 107.0542,298.9079 108.1929,297.2771 109.0566,296.0402 109.9203,294.8033 110.784,293.5664 111.9225,291.9359 114.1276,291.5934 115.6878,292.6828 117.2486,293.7726 117.6863,295.9606 116.5478,297.591 116.5524,297.5942 116.557,297.5974 116.5616,297.6006 113.9311,301.3678 111.3006,305.135 108.6701,308.9022" stroke="black" stroke-width="1" /><polyline fill="none" points="92.5352,296.4788 95.5069,292.9745 98.4786,289.4702 101.4503,285.9659 102.7367,284.4489 104.9765,284.3253 106.4283,285.5565 107.8669,286.7764 108.1111,289.0065 106.8247,290.5235 105.8489,291.6741 104.8732,292.8247 103.8975,293.9753 102.611,295.4923 100.3715,295.6152 98.9329,294.3953 97.4811,293.1641 97.2366,290.9347 98.5231,289.4178" stroke="black" stroke-width="1" /><polyline fill="none" points="91.0302,283.6816 89.9711,282.4521 87.6691,282.2407 86.2646,283.6126 85.9378,283.9319 85.6109,284.2512 85.2841,284.5704 83.9591,285.8647 83.9351,287.9991 85.2413,289.3363 86.5353,290.661 88.694,290.6624 89.9942,289.3923 90.321,289.073 90.6479,288.7537 90.9747,288.4344 92.3,287.1399 92.3242,285.0063 91.0302,283.6816 89.6044,282.222 89.6786,279.9182 91.0887,278.5408 91.5712,278.0695 92.0536,277.5983 92.5361,277.127 93.9464,275.7494 96.2272,275.7526 97.653,277.2122 99.0668,278.6596 99.0159,280.9391 97.6056,282.3168 97.1151,282.7959 96.6246,283.275 96.1342,283.754 94.9252,284.935 92.6444,285.1889" stroke="black" stroke-width="1" /><polyline fill="none" points="86.0599,266.8527 87.1437,266.748 88.3355,266.7764 89.6725,268.4301 90.8693,269.9104 90.6935,272.147 89.1065,273.43 87.9467,274.3677 86.787,275.3053 85.6272,276.243 84.0805,277.4935 81.8573,277.1966 80.6605,275.7162 79.4421,274.2092 79.5961,271.9468 81.1428,270.6963 81.7204,270.2292 82.298,269.7623 82.8756,269.2953 84.3668,271.1397 85.8581,272.9842 87.3493,274.8287" stroke="black" stroke-width="1" /><polyline fill="none" points="72.3424,268.308 68.0576,267.9616 82.34,258.4788" stroke="black" stroke-width="1" /><polyline fill="none" points="60.5586,254.9671 61.0283,255.8427 61.9465,256.2844 63.0644,255.6847 64.1471,255.1039 65.2298,254.5232 66.3125,253.9424 66.0262,253.4088 65.7399,252.8751 65.4537,252.3414 66.0048,253.3688 66.5559,254.3962 67.107,255.4236 66.8421,254.9299 66.5773,254.4362 66.3125,253.9424 69.6412,252.1569 72.97,250.3714 76.2987,248.5858" stroke="black" stroke-width="1" /><polyline fill="none" points="57.3749,239.8098 61.4368,240.6794 65.4987,241.549 69.5606,242.4186 66.4215,243.7405 63.2824,245.0623 60.1433,246.3842 58.326,247.1495 56.2371,246.298 55.4721,244.4813 54.7,242.6476 55.5576,240.5751 57.3749,239.8098 60.514,238.488 63.6531,237.1661 66.7922,235.8442 68.6095,235.079 70.6906,235.914 71.456,237.7316 72.2278,239.5644 71.3779,241.6533 69.5606,242.4186" stroke="black" stroke-width="1" /><polyline fill="none" points="54.7512,232.9204 50.7311,231.3979 67.0848,226.2534" stroke="black" stroke-width="1" /><polyline fill="none" points="46.5797,215.4684 51.0724,214.5061 55.5652,213.5438 60.058,212.5815 62.0029,212.1649 63.8526,213.4339 64.2513,215.2953 64.6463,217.1396 63.4788,219.0553 61.5339,219.4719 60.0587,219.7878 58.5835,220.1038 57.1084,220.4198 55.1635,220.8363 53.3144,219.5668 52.9194,217.7225 52.5207,215.8611 53.6876,213.946 55.6325,213.5294" stroke="black" stroke-width="1" /><polyline fill="none" points="53.1978,204.4125 53.1091,202.7922 51.4146,201.2197 49.4648,201.4493 49.011,201.5028 48.5572,201.5562 48.1034,201.6097 46.2639,201.8263 44.9423,203.5024 45.1609,205.3589 45.3775,207.1981 47.0867,208.5166 48.8918,208.304 49.3456,208.2506 49.7993,208.1971 50.2531,208.1437 52.093,207.927 53.4144,206.2516 53.1978,204.4125 52.9592,202.3861 54.424,200.6064 56.3816,200.3759 57.0514,200.297 57.7212,200.2181 58.391,200.1392 60.349,199.9087 62.1538,201.3033 62.3924,203.3297 62.6291,205.3391 61.1975,207.1138 59.2395,207.3443 58.5586,207.4245 57.8777,207.5047 57.1968,207.5849 55.5183,207.7826 53.5565,206.5916" stroke="black" stroke-width="1" /><polyline fill="none" points="57.8179,188.1016 59.806,188.055 61.3866,189.6302 61.4312,191.533 61.4758,193.4358 59.9712,195.1001 57.9831,195.1467 56.4749,195.1821 54.9666,195.2175 53.4584,195.2528 51.47,195.2995 49.8897,193.7074 49.8451,191.8047 49.8004,189.9019 51.3048,188.2544 53.2932,188.2077" stroke="black" stroke-width="1" /><polyline fill="none" points="60.1404,175.973 61.0046,176.6354 61.8571,177.4688 61.7076,179.59 61.5738,181.489 59.9203,183.0051 57.8845,182.8617 56.3969,182.7569 54.9092,182.6521 53.4215,182.5473 51.4374,182.4075 50.0135,180.6745 50.1473,178.7756 50.2835,176.8425 51.9387,175.2924 53.9228,175.4322 54.6637,175.4844 55.4046,175.5366 56.1456,175.5888 55.9789,177.9548 55.8122,180.3208 55.6455,182.6868" stroke="black" stroke-width="1" /><polyline fill="none" points="48.8768,168.7975 47.1175,168.5061 45.8048,166.7769 46.1214,164.8651 46.4378,162.9542 48.157,161.7087 50.1527,162.0392 50.4683,162.0914 50.7839,162.1437 51.0995,162.196 54.1442,162.7002 54.2115,165.4398 54.1553,165.7788 54.1012,166.1057 54.0471,166.4325 53.993,166.7594 54.0471,166.4325 54.1012,166.1057 54.1553,165.7788 54.3207,164.7802 55.8579,162.8449 58.2254,163.237 58.9191,163.3519 59.6128,163.4668 60.3064,163.5816 62.268,163.9065 63.561,165.7547 63.236,167.717 62.9082,169.6962 61.0914,171.0114 59.1299,170.6865" stroke="black" stroke-width="1" /><polyline fill="none" points="66.2316,153.5107 62.0706,152.4132 60.5136,158.3161 49.5411,149.5693" stroke="black" stroke-width="1" /><polyline fill="none" points="54.0424,136.0598 53.3355,137.9863 52.6286,139.9128 51.9218,141.8393 54.4596,142.7705 56.9975,143.7017 59.5354,144.6329 58.6171,143.602 58.2816,142.4738 58.7953,141.0736 59.5041,139.142 61.647,138.2299 63.4331,138.8853 64.71,139.3538 65.9869,139.8224 67.2639,140.2909 69.1308,140.9759 69.95,142.9748 69.306,144.7297 68.6682,146.4679 66.7566,147.4465 64.8897,146.7615" stroke="black" stroke-width="1" /><polyline fill="none" points="67.3914,127.0984 67.3864,127.096 67.3815,127.0937 67.3765,127.0913 69.4805,128.0959 71.5845,129.1004 73.6885,130.105 74.6609,130.5693 75.3599,130.0652 75.6031,129.5559 75.2927,130.206 74.4791,130.4825 73.812,130.1639 73.7708,130.1443 73.7297,130.1246 73.6885,130.105 74.0973,131.5168 74.1547,132.988 73.5123,134.3336 72.9803,135.4478 71.5587,136.9921 69.2845,135.9063 68.0929,135.3374 67.6527,134.3107 67.7092,133.1595 67.7292,132.5995 68.1373,130.988 68.4087,129.9022 68.6726,128.7934 68.5829,127.6673 67.3914,127.0984 66.1847,126.5222 64.1474,127.0507 63.261,128.9072 62.426,130.656 62.8925,131.8666 63.4376,132.7541" stroke="black" stroke-width="1" /><polyline fill="none" points="73.6732,116.0274 73.6685,116.0246 73.6638,116.0218 73.6591,116.019 75.6598,117.2162 77.6605,118.4133 79.6612,119.6105 80.5858,120.1638 81.329,119.7274 81.6187,119.2431 81.2488,119.8613 80.413,120.0604 79.7786,119.6808 79.7394,119.6573 79.7003,119.6339 79.6612,119.6105 79.936,121.0544 79.8554,122.5245 79.0897,123.8041 78.4558,124.8635 76.8958,126.268 74.7333,124.974 73.6002,124.296 73.258,123.2325 73.4221,122.0917 73.4945,121.536 74.0516,119.9698 74.4236,118.9142 74.7901,117.8349 74.8063,116.7054 73.6732,116.0274 72.5258,115.3408 70.448,115.6762 69.3917,117.4415 68.3966,119.1045 68.7476,120.3534 69.2072,121.2881" stroke="black" stroke-width="1" /><polyline fill="none" points="87.5529,111.147 84.0833,108.6012 80.4718,113.5233 73.467,101.3646" stroke="black" stroke-width="1" /><polyline fill="none" points="79.9949,96.94 78.2266,95.3677 82.9555,90.0493 92.4515,105.1702" stroke="black" stroke-width="1" /><polyline fill="none" points="94.8114,93.1984 93.467,91.7559 93.5461,89.5018 94.988,88.1579 96.4436,86.8013 98.6848,86.8928 100.0293,88.3352 100.7227,89.0792 101.4161,89.8232 102.1096,90.5673 103.454,92.0097 103.3873,94.2514 101.9317,95.608 100.4898,96.9519 98.2362,96.8729 96.8918,95.4304 94.5695,92.9388 92.2472,90.4471 89.9249,87.9555 88.5807,86.5133 88.66,84.2594 90.102,82.9155 91.3443,81.7576 93.1672,81.6522 94.5187,82.5485" stroke="black" stroke-width="1" /><polyline fill="none" points="102.7457,72.418 101.1201,73.6704 99.4945,74.9229 97.8689,76.1753 99.5188,78.3167 101.1686,80.4582 102.8185,82.5997 102.5917,81.2379 102.9097,80.1046 104.0912,79.1944 105.7212,77.9386 108.0202,78.3103 109.1814,79.8174 110.0115,80.8949 110.8416,81.9724 111.6717,83.0499 112.8854,84.6252 112.512,86.7528 111.0312,87.8937 109.5645,89.0237 107.4255,88.8317 106.2118,87.2563" stroke="black" stroke-width="1" /><polyline fill="none" points="118.1793,70.0413 119.2312,71.7092 118.7469,73.8991 117.079,74.951 115.3967,76.0121 113.1981,75.5141 112.1462,73.8463 111.6035,72.9858 111.0609,72.1253 110.5182,71.2649 109.4663,69.597 109.9639,67.3979 111.632,66.3458 113.3141,65.2849 115.4994,65.792 116.5513,67.4599 118.3683,70.3409 120.1852,73.2218 122.0022,76.1028 123.0539,77.7704 122.5697,79.9606 120.9019,81.0125 119.4663,81.9179 117.6546,81.6818 116.4938,80.5489" stroke="black" stroke-width="1" /><polyline fill="none" points="124.3165,69.4977 123.4177,67.7234 124.1731,65.6115 125.8713,64.7512 127.5688,63.8913 129.7038,64.539 130.6026,66.3133 131.2844,67.6591 131.9661,69.0049 132.6479,70.3507 133.5465,72.1247 132.8061,74.2298 131.1085,75.0897 129.4104,75.95 127.2754,75.3015 126.3767,73.5275 126.3717,73.53 126.3667,73.5326 126.3618,73.5351 124.2854,69.4363 122.2091,65.3375 120.1327,61.2388" stroke="black" stroke-width="1" /><polyline fill="none" points="133.7139,58.5719 133.0605,56.9126 133.8703,54.8983 135.6735,54.1883 137.4757,53.4786 139.4272,54.3143 140.1684,56.1965 140.2856,56.4942 140.4028,56.7919 140.52,57.0895 141.6507,59.9611 139.3343,61.4255 139.0146,61.5514 138.7063,61.6728 138.3981,61.7942 138.0898,61.9156 138.3981,61.7942 138.7063,61.6728 139.0146,61.5514 139.9564,61.1806 142.4064,61.506 143.2856,63.7388 143.5433,64.3931 143.8009,65.0473 144.0585,65.7015 144.7869,67.5515 143.8648,69.6101 142.0141,70.3388 140.1475,71.0738 138.086,70.1901 137.3576,68.3401" stroke="black" stroke-width="1" /><polyline fill="none" points="156.0447,63.681 155.7206,64.7205 155.2318,65.8079 153.1889,66.3983 151.3601,66.9268 149.3671,65.8968 148.8005,63.9362 148.3865,62.5035 147.9724,61.0708 147.5583,59.638 147.0061,57.7272 148.1425,55.7935 149.9713,55.265 151.8331,54.7269 153.8585,55.7469 154.4107,57.6577 154.6169,58.3712 154.8231,59.0848 155.0293,59.7984 152.7507,60.4569 150.4721,61.1154 148.1935,61.7739" stroke="black" stroke-width="1" /><polyline fill="none" points="166.3607,54.5324 166.3597,54.5271 166.3586,54.5217 166.3576,54.5163 166.7924,56.8069 167.2271,59.0975 167.6618,61.3882 167.8627,62.4468 168.6827,62.7122 169.2371,62.6069 168.5293,62.7413 167.8252,62.2489 167.6873,61.5226 167.6788,61.4778 167.6703,61.433 167.6618,61.3882 166.7654,62.5529 165.6132,63.4696 164.1482,63.7476 162.9352,63.9778 160.8491,63.7452 160.3792,61.2693 160.133,59.9721 160.7003,59.0097 161.6619,58.3743 162.1252,58.0591 163.6659,57.4348 164.702,57.0113 165.752,56.5681 166.6069,55.8297 166.3607,54.5324 166.1113,53.2187 164.4801,51.8888 162.4589,52.2724 160.555,52.6337 159.8549,53.7259 159.4618,54.6905" stroke="black" stroke-width="1" /><polyline fill="none" points="152.6261,108.5745 140.8637,108.5745 158.7145,203.9175 188.8697,188.4998 188.2428,253.3668 188.8365,96.1804 188.1635,280.8196 220.8597,130.6987 140.3048,268.1431 268.4255,140.8637" stroke="black" stroke-width="1" /><polyline fill="none" points="255.9908,128.3468 280.8603,153.3807" stroke="black" stroke-width="1" /><polyline fill="none" points="152.6261,108.5745 152.4813,106.7344 152.0504,104.9397 151.3441,103.2345 150.3797,101.6607 149.181,100.2572 147.7775,99.0585 146.2038,98.0941 144.4985,97.3878 142.7038,96.9569 140.8637,96.8121 139.0237,96.9569 137.2289,97.3878 135.5237,98.0941 133.95,99.0585 132.5465,100.2572 131.3477,101.6607 130.3834,103.2344 129.677,104.9397 129.2462,106.7344 129.1013,108.5745 129.2462,110.4145 129.677,112.2093 130.3834,113.9145 131.3477,115.4882 132.5465,116.8917 133.95,118.0904 135.5237,119.0548 137.2289,119.7612 139.0237,120.192 140.8637,120.3369 142.7038,120.192 144.4985,119.7612 146.2038,119.0548 147.7775,118.0904 149.181,116.8917 150.3797,115.4882 151.3441,113.9145 152.0504,112.2093 152.4813,110.4145 152.6261,108.5745" stroke="black" stroke-width="1" /><polyline fill="none" points="188.5,69.0664 199.6839,69.5912 210.7696,71.161 221.6595,73.7619 232.2581,77.3712 242.4721,81.9571 252.2118,87.4792 261.3915,93.8892 269.9308,101.1306 277.7544,109.1398 284.7936,117.8464 290.9866,127.1739 296.2789,137.0404 300.6241,147.3591 303.9839,158.0393 306.3289,168.9873 307.6383,180.1067 307.9008,191.2998 307.114,202.4684 305.2847,213.5142 302.4292,224.3402 298.5725,234.8512 293.7484,244.9549 287.9994,254.5625 281.376,263.5894 273.9365,271.9565 265.7461,279.5902 256.8768,286.4234 247.4067,292.3961 237.4188,297.4556 227.0011,301.5577 216.2451,304.6663 205.2452,306.7539 194.0981,307.8023 182.9019,307.8023 171.7548,306.7539 160.7549,304.6663 149.9989,301.5577 139.5811,297.4556 129.5933,292.3961 120.1232,286.4234 111.2539,279.5902 103.0635,271.9565 95.6239,263.5894 89.0006,254.5625 83.2516,244.9549 78.4275,234.8512 74.5708,224.3402 71.7153,213.5142 69.8861,202.4684 69.0992,191.2998 69.3617,180.1067 70.6712,168.9872 73.0161,158.0393 76.3759,147.3591 80.7211,137.0404 86.0134,127.174 92.2064,117.8464 99.2457,109.1398 107.0692,101.1306 115.6085,93.8892 124.7882,87.4792 134.5279,81.957 144.7419,77.3712 155.3405,73.7619 166.2304,71.161 177.3161,69.5912 188.5,69.0664" stroke="black" stroke-width="1" />

    </g>
  </g>
  <WCB
     pausedposy="0"
     pausedposx="0"
     lastknownposy="0"
     lastknownposx="0"
     lastpathnc="0"
     lastpath="0"
     node="0"
     layer="0" />
</svg>
