<?xml version="1.0" encoding="UTF-8" standalone="no"?>
<!-- Created with Inkscape (http://www.inkscape.org/) -->

<svg
   xmlns:dc="http://purl.org/dc/elements/1.1/"
   xmlns:cc="http://creativecommons.org/ns#"
   xmlns:rdf="http://www.w3.org/1999/02/22-rdf-syntax-ns#"
   xmlns:svg="http://www.w3.org/2000/svg"
   xmlns="http://www.w3.org/2000/svg"
   xmlns:sodipodi="http://sodipodi.sourceforge.net/DTD/sodipodi-0.dtd"
   xmlns:inkscape="http://www.inkscape.org/namespaces/inkscape"
   width="100mm"
   height="100mm"
   viewBox="0 0 100 100"
   version="1.1"
   id="svg19124"
   inkscape:version="0.92.3 (2405546, 2018-03-11)"
   sodipodi:docname="inkscape_template_TMP.svg"
   shape-rendering="crispEdges">
  <sodipodi:namedview
     pagecolor="#ffffff"
     bordercolor="#666666"
     borderopacity="1"
     objecttolerance="10"
     gridtolerance="10"
     guidetolerance="10"
     inkscape:pageopacity="0"
     inkscape:pageshadow="2"
     inkscape:window-width="1568"
     inkscape:window-height="1550"
     id="namedview24021"
     showgrid="false"
     inkscape:zoom="0.62441667"
     inkscape:cx="712.66515"
     inkscape:cy="409.98265"
     inkscape:window-x="0"
     inkscape:window-y="0"
     inkscape:window-maximized="0"
     inkscape:current-layer="layer1" />
  <defs
     id="defs19118" />
  <metadata
     id="metadata19121">
    <rdf:RDF>
      <cc:Work
         rdf:about="">
        <dc:format>image/svg+xml</dc:format>
        <dc:type
           rdf:resource="http://purl.org/dc/dcmitype/StillImage" />
        <dc:title />
      </cc:Work>
    </rdf:RDF>
  </metadata>
  <g
     transform="translate(0,-197)"
     id="layer1"
     inkscape:groupmode="layer"
     inkscape:label="Layer 1">
    <g
       id="g24447"
       transform="matrix(0.26458333,0,0,0.26458333,0.10666333,197.9735)">

<polyline fill="none" points="192.1004,47.7394 189.7225,51.1455 187.3447,54.5516 184.9669,57.9577 184.9669,54.5516 184.9669,51.1455 184.9669,47.7394 184.9669,45.7676 186.5623,44.1729 188.5334,44.1729 190.5231,44.1729 192.1004,45.7676 192.1004,47.7394 192.1004,51.1455 192.1004,54.5516 192.1004,57.9577 192.1004,59.9295 190.5231,61.5235 188.5509,61.5235 186.5623,61.5235 184.9669,59.9295 184.9669,57.9577" stroke="black" stroke-width="1" /><polyline fill="none" points="197.8298,61.5877 200.7471,57.7851 198.696,53.7706 202.935,62.0679 200.7471,57.7851 203.4811,54.2207" stroke="black" stroke-width="1" /><polyline fill="none" points="212.577,49.6396 215.8188,46.8166 212.6222,63.6598" stroke="black" stroke-width="1" /><polyline fill="none" points="224.3744,51.1333 225.0313,48.8601 231.8682,50.836 222.3144,65.9203" stroke="black" stroke-width="1" /><polyline fill="none" points="241.2387,63.3757 241.2407,63.3706 241.2427,63.3655 241.2447,63.3604 240.3905,65.5298 239.5363,67.6992 238.6821,69.8686 238.2873,70.8712 238.8393,71.5331 239.3643,71.7398 238.6941,71.4759 238.3611,70.6838 238.632,69.9959 238.6487,69.9535 238.6654,69.911 238.6821,69.8686 237.3025,70.3756 235.839,70.5363 234.4515,69.99 233.3027,69.5376 231.6623,68.228 232.5856,65.8832 233.0694,64.6546 234.0626,64.1432 235.215,64.1187 235.7749,64.0993 237.4111,64.3931 238.5133,64.5876 239.638,64.7729 240.7549,64.6043 241.2387,63.3757 241.7286,62.1315 241.0583,60.1364 239.1441,59.3827 237.341,58.6727 236.1662,59.2231 235.3191,59.8292" stroke="black" stroke-width="1" /><polyline fill="none" points="248.3212,76.2715 250.2659,72.4326 244.8199,69.6738 255.6708,60.7766" stroke="black" stroke-width="1" /><polyline fill="none" points="265.1005,74.0019 264.0486,75.6697 261.8637,76.1763 260.1958,75.1244 258.5135,74.0633 258.0155,71.8648 259.0674,70.1969 259.6101,69.3365 260.1528,68.476 260.6954,67.6155 261.7473,65.9477 263.9463,65.4491 265.6144,66.5012 267.2965,67.5621 267.7805,69.7526 266.7285,71.4205 264.9116,74.3015 263.0946,77.1824 261.2776,80.0634 260.226,81.7309 258.0408,82.2378 256.373,81.1859 254.9374,80.2805 254.3698,78.5439 254.8921,77.0081" stroke="black" stroke-width="1" /><polyline fill="none" points="271.6341,74.8577 272.8375,73.2957 275.0738,73.006 276.6359,74.2094 278.2117,75.4236 278.5079,77.7077 277.3045,79.2697 276.833,79.8817 276.3978,80.1943 275.9904,80.3579 271.8698,82.0163 267.7491,83.6746 263.6285,85.333 263.5414,85.446 263.4544,85.559 263.3673,85.672 265.2418,87.1161 267.1163,88.5603 268.9908,90.0045" stroke="black" stroke-width="1" /><polyline fill="none" points="285.1065,90.2928 283.7621,91.7353 281.521,91.8255 280.0785,90.4811 278.6235,89.125 278.5442,86.8721 279.8886,85.4297 280.5822,84.6855 281.2758,83.9413 281.9695,83.1971 283.3139,81.7546 285.5672,81.6749 287.0099,83.0195 288.4647,84.3754 288.5317,86.6178 287.1873,88.0603 284.865,90.5519 282.5427,93.0436 280.2204,95.5352 278.8762,96.9774 276.6349,97.0679 275.1924,95.7235 273.9509,94.5663 273.717,92.7543 274.5165,91.3429" stroke="black" stroke-width="1" /><polyline fill="none" points="287.1973,96.0884 288.6837,94.7668 290.9185,94.9586 292.1833,96.3812 293.4478,97.8033 293.366,100.0328 291.8796,101.3545 290.7522,102.3569 289.6248,103.3593 288.4974,104.3618 287.0112,105.6832 284.7869,105.5041 283.5225,104.082 282.2576,102.6594 282.3401,100.4296 283.8262,99.1082 283.8225,99.1041 283.8188,99.0999 283.8151,99.0957 287.2487,96.0427 290.6824,92.9896 294.1161,89.9366" stroke="black" stroke-width="1" /><polyline fill="none" points="295.4172,105.7366 297.0208,104.56 299.2278,104.9602 300.3539,106.495 301.4796,108.0293 301.1895,110.2414 299.5858,111.418 298.3695,112.3105 297.1532,113.2029 295.9368,114.0954 294.3335,115.2718 292.1357,114.8852 291.01,113.351 289.8839,111.8162 290.1748,109.6039 291.7781,108.4275 291.7748,108.423 291.7715,108.4185 291.7682,108.414 295.4727,105.6959 299.1772,102.9778 302.8817,100.2597" stroke="black" stroke-width="1" /><polyline fill="none" points="300.9137,125.2839 299.8259,125.2355 298.6498,125.0403 297.5579,123.2155 296.5804,121.582 297.0682,119.3922 298.8194,118.3443 300.0991,117.5785 301.3789,116.8128 302.6586,116.047 304.3654,115.0257 306.525,115.6313 307.5025,117.2648 308.4976,118.9278 308.0279,121.1463 306.3211,122.1676 305.6837,122.549 305.0464,122.9304 304.409,123.3118 303.1911,121.2765 301.9732,119.2412 300.7553,117.2058" stroke="black" stroke-width="1" /><polyline fill="none" points="311.4496,129.8204 312.0558,131.3256 314.1668,132.2679 315.9385,131.422 316.3508,131.2251 316.7632,131.0282 317.1755,130.8314 318.847,130.0333 319.5577,128.0206 318.7523,126.3337 317.9544,124.6625 315.9114,123.9654 314.2712,124.7485 313.8589,124.9454 313.4466,125.1423 313.0342,125.3392 311.3624,126.1374 310.6517,128.1493 311.4496,129.8204 312.3287,131.6617 311.5158,133.8186 309.737,134.6679 309.1284,134.9585 308.5198,135.2491 307.9111,135.5396 306.132,136.3891 303.974,135.6507 303.0948,133.8094 302.2231,131.9836 303.0062,129.8421 304.7853,128.9927 305.404,128.6973 306.0227,128.4019 306.6414,128.1065 308.1666,127.3783 310.4075,127.8732" stroke="black" stroke-width="1" /><polyline fill="none" points="312.3342,146.7498 310.4673,147.4348 308.4632,146.4532 307.8076,144.6665 307.152,142.8797 308.0398,140.8191 309.9067,140.1341 311.323,139.6144 312.7393,139.0947 314.1556,138.5751 316.0229,137.8899 318.032,138.8875 318.6876,140.6743 319.3433,142.4611 318.4503,144.5057 316.5831,145.1908" stroke="black" stroke-width="1" /><polyline fill="none" points="324.7957,148.7497 327.0836,148.1462 328.8986,155.0276 311.049,154.5748" stroke="black" stroke-width="1" /><polyline fill="none" points="317.9472,170.5722 315.9853,170.897 314.1994,169.559 313.8884,167.6813 313.5775,165.8036 314.834,163.9447 316.7958,163.6198 318.2842,163.3733 319.7726,163.1269 321.2609,162.8804 323.2232,162.5554 325.0111,163.9102 325.3221,165.7879 325.633,167.6656 324.3745,169.5078 322.4123,169.8327" stroke="black" stroke-width="1" /><polyline fill="none" points="326.1291,182.5254 324.1621,182.664 322.4612,181.202 322.3226,179.235 322.1828,177.2509 323.6608,175.5489 325.6278,175.4103 326.6426,175.3388 327.6574,175.2673 328.6722,175.1958 330.6392,175.0573 332.3419,176.5352 332.4805,178.5026 332.6203,180.4863 331.1404,182.1724 329.1735,182.3109 325.7758,182.5503 322.3781,182.7897 318.9805,183.0291 317.0139,183.1676 315.3126,181.7056 315.174,179.7386 315.0547,178.0456 316.1191,176.5607 317.6663,176.0732" stroke="black" stroke-width="1" /><polyline fill="none" points="329.3041,188.2994 331.2754,188.3456 332.8319,189.9773 332.7857,191.9486 332.7391,193.9374 331.0727,195.5274 329.1014,195.4812 328.3291,195.4631 327.8196,195.2971 327.4467,195.0655 323.672,192.7242 319.8972,190.383 316.1225,188.0418 315.9799,188.0384 315.8373,188.0351 315.6947,188.0317 315.6393,190.3974 315.5838,192.763 315.5283,195.1286" stroke="black" stroke-width="1" /><polyline fill="none" points="322.937,207.5826 322.9424,207.5833 322.9479,207.5839 322.9533,207.5845 320.6378,207.3118 318.3223,207.0392 316.0068,206.7665 314.9366,206.6405 314.4375,207.343 314.3715,207.9034 314.4557,207.188 315.1367,206.664 315.871,206.7505 315.9162,206.7558 315.9615,206.7611 316.0068,206.7665 315.1647,205.5618 314.6361,204.1877 314.8105,202.7068 314.9549,201.4806 315.8028,199.5604 318.3056,199.8551 319.6169,200.0096 320.3647,200.8395 320.6823,201.9475 320.8439,202.4841 320.9771,204.1411 321.0701,205.2564 321.1778,206.3911 321.6257,207.4282 322.937,207.5826 324.265,207.739 326.0232,206.582 326.2638,204.5389 326.4904,202.6143 325.6586,201.6187 324.8565,200.9542" stroke="black" stroke-width="1" /><polyline fill="none" points="320.5594,220.0876 320.5647,220.0888 320.5701,220.0899 320.5754,220.0911 318.2957,219.6028 316.0158,219.1144 313.736,218.6261 312.6824,218.4005 312.1196,219.0532 312.0014,219.6049 312.1523,218.9005 312.8794,218.4426 313.6023,218.5975 313.6469,218.607 313.6915,218.6166 313.736,218.6261 313.0105,217.3479 312.6129,215.9303 312.9251,214.4722 313.1837,213.265 314.2077,211.4326 316.6719,211.9604 317.963,212.237 318.6298,213.1333 318.8422,214.2662 318.9529,214.8155 318.9303,216.4777 318.9185,217.5969 318.9195,218.7367 319.2682,219.8111 320.5594,220.0876 321.8669,220.3677 323.7257,219.3804 324.1566,217.3688 324.5624,215.4739 323.8275,214.4048 323.0911,213.6681" stroke="black" stroke-width="1" /><polyline fill="none" points="321.6929,234.1745 319.1573,230.8842 316.6218,227.5938 314.0862,224.3035 317.3353,225.3256 320.5844,226.3477 323.8335,227.3698 325.7145,227.9615 326.7569,229.9619 326.1654,231.8422 325.5684,233.7403 323.5739,234.7662 321.6929,234.1745 318.4438,233.1524 315.1947,232.1303 311.9456,231.1082 310.0646,230.5164 309.0174,228.5336 309.6092,226.6523 310.206,224.7553 312.2052,223.7117 314.0862,224.3035" stroke="black" stroke-width="1" /><polyline fill="none" points="313.0038,237.0668 314.8211,237.8321 315.6723,239.9208 314.9073,241.7375 314.1351,243.5712 312.053,244.4058 310.2357,243.6405 309.2983,243.2458 308.361,242.8511 307.4236,242.4564 305.6064,241.6911 304.7491,239.6188 305.5212,237.785 306.2862,235.9684 308.3745,235.1174 310.1918,235.8827 313.3309,237.2046 316.47,238.5264 319.6091,239.8483 321.4261,240.6134 322.2769,242.702 321.5119,244.5187 320.8528,246.0838 319.233,246.9267 317.6329,246.6625" stroke="black" stroke-width="1" /><polyline fill="none" points="310.8405,258.2086 308.963,254.5032 307.0854,250.7978 305.2079,247.0924 308.2094,248.7024 311.2109,250.3124 314.2124,251.9224 315.9501,252.8545 316.6013,255.0142 315.6695,256.7512 314.729,258.5046 312.5782,259.1407 310.8405,258.2086 307.839,256.5986 304.8375,254.9886 301.8359,253.3786 300.0983,252.4465 299.4391,250.3032 300.3714,248.5652 301.3114,246.8128 303.4702,246.1603 305.2079,247.0924" stroke="black" stroke-width="1" /><polyline fill="none" points="307.7036,263.4422 309.3463,264.5329 309.7925,266.7433 308.7018,268.386 307.6014,270.0434 305.3438,270.4993 303.701,269.4086 303.0575,268.9813 302.715,268.5692 302.5232,268.1743 300.5793,264.1804 298.6355,260.1865 296.6916,256.1925 296.5728,256.1136 296.454,256.0348 296.3352,255.9559 295.0263,257.9272 293.7174,259.8985 292.4086,261.8699" stroke="black" stroke-width="1" /><polyline fill="none" points="299.4105,280.6181 300.0351,279.8455 300.0858,278.8278 299.0993,278.0302 298.1439,277.2578 297.1885,276.4853 296.2331,275.7129 295.8523,276.1838 295.4716,276.6548 295.0908,277.1257 295.8238,276.2191 296.5568,275.3125 297.2898,274.4059 296.9376,274.8415 296.5853,275.2772 296.2331,275.7129 293.2956,273.338 290.3582,270.9631 287.4207,268.5882" stroke="black" stroke-width="1" /><polyline fill="none" points="291.6394,284.3546 293.0499,285.7325 293.0761,287.9873 291.6982,289.3979 290.3081,290.821 288.0051,290.848 286.5945,289.4701 286.0419,288.9303 285.7823,288.4615 285.6675,288.0378 284.5024,283.7515 283.3373,279.4651 282.1723,275.1788 282.0703,275.0792 281.9682,274.9795 281.8662,274.8798 280.2127,276.5725 278.5592,278.2652 276.9058,279.9579" stroke="black" stroke-width="1" /><polyline fill="none" points="279.3495,300.8167 276.3778,297.3124 273.4061,293.8081 270.4344,290.3038 269.1479,288.7869 269.3919,286.557 270.8438,285.3257 272.2823,284.1059 274.5223,284.2293 275.8088,285.7462 276.7845,286.8969 277.7603,288.0475 278.736,289.1981 280.0224,290.7151 279.7777,292.9446 278.3392,294.1645 276.8873,295.3957 274.648,295.2726 273.3616,293.7556" stroke="black" stroke-width="1" /><polyline fill="none" points="259.4598,296.1932 259.4316,295.1047 259.5438,293.9178 261.2873,292.7003 262.8481,291.6105 265.0667,291.9431 266.235,293.6164 267.0889,294.8391 267.9427,296.0619 268.7965,297.2847 269.9352,298.9154 269.4828,301.1123 267.9221,302.2021 266.3332,303.3116 264.0871,302.999 262.9484,301.3682 262.5232,300.7592 262.0979,300.1502 261.6727,299.5412 263.6174,298.1833 265.5621,296.8254 267.5067,295.4675" stroke="black" stroke-width="1" /><polyline fill="none" points="260.9714,309.2217 261.944,310.9371 261.3431,313.1105 259.6277,314.0831 257.8972,315.0643 255.6772,314.4508 254.7046,312.7354 254.3236,312.0634 254.2044,311.541 254.2117,311.1021 254.2825,306.6608 254.3533,302.2195 254.4241,297.7782 254.3537,297.6541 254.2834,297.5301 254.213,297.406 252.1546,298.5731 250.0962,299.7402 248.0377,300.9073" stroke="black" stroke-width="1" /><polyline fill="none" points="244.5941,321.6245 242.7122,317.4329 240.8303,313.2413 238.9483,309.0497 238.1336,307.2352 238.9871,305.1607 240.7237,304.381 242.4444,303.6085 244.5621,304.3489 245.3768,306.1635 245.9947,307.5397 246.6126,308.916 247.2305,310.2923 248.0452,312.1068 247.1911,314.1808 245.4705,314.9533 243.7338,315.733 241.6167,314.993 240.8021,313.1785" stroke="black" stroke-width="1" /><polyline fill="none" points="232.3973,317.4687 230.8315,317.8948 229.6488,319.881 230.2817,321.7395 230.429,322.172 230.5763,322.6046 230.7236,323.037 231.3207,324.7904 233.2364,325.7317 235.006,325.1291 236.759,324.5321 237.6902,322.5847 237.1043,320.8641 236.957,320.4316 236.8097,319.9991 236.6624,319.5666 236.0652,317.8129 234.1503,316.8717 232.3973,317.4687 230.4658,318.1264 228.4188,317.0668 227.7834,315.2009 227.5659,314.5625 227.3485,313.9241 227.1311,313.2856 226.4956,311.4194 227.4813,309.3625 229.4128,308.7047 231.328,308.0525 233.3632,309.0807 233.9987,310.9469 234.2198,311.5959 234.4408,312.245 234.6618,312.894 235.2066,314.4938 234.453,316.6615" stroke="black" stroke-width="1" /><polyline fill="none" points="217.6976,326.2462 219.2191,322.3809 220.7406,318.5156 222.2621,314.6503 223.0534,317.9632 223.8446,321.2761 224.6359,324.589 225.094,326.5069 223.9127,328.4286 221.9954,328.8865 220.0602,329.3488 218.1557,328.1641 217.6976,326.2462 216.9063,322.9333 216.1151,319.6204 215.3238,316.3075 214.8658,314.3896 216.0295,312.4728 217.9478,312.0146 219.882,311.5527 221.8041,312.7324 222.2621,314.6503" stroke="black" stroke-width="1" /><polyline fill="none" points="204.6705,328.375 206.5473,324.6692 208.4241,320.9634 210.3009,317.2576 210.7784,320.63 211.256,324.0024 211.7335,327.3748 212.01,329.3272 210.6539,331.1299 208.7023,331.4062 206.7322,331.6852 204.947,330.3274 204.6705,328.375 204.193,325.0026 203.7154,321.6301 203.2379,318.2577 202.9614,316.3053 204.2996,314.506 206.2523,314.2294 208.2213,313.9506 210.0244,315.3052 210.3009,317.2576" stroke="black" stroke-width="1" /><polyline fill="none" points="191.2466,326.2313 191.1541,324.2616 192.6556,322.5955 194.6253,322.503 196.6121,322.4098 198.279,323.9273 198.3715,325.897 198.4191,326.9132 198.4668,327.9294 198.5145,328.9456 198.6069,330.9152 197.0895,332.5829 195.1194,332.6754 193.1329,332.7686 191.482,331.2496 191.3896,329.2798 191.2299,325.8776 191.0703,322.4752 190.9107,319.0729 190.8183,317.1035 192.3197,315.437 194.2894,315.3446 195.9847,315.265 197.4443,316.3639 197.8954,317.9221" stroke="black" stroke-width="1" /><polyline fill="none" points="179.8411,332.4163 180.8336,332.4629 181.6841,331.9017 181.7436,330.6345 181.8012,329.4073 181.8588,328.18 181.9164,326.9527 181.3114,326.9243 180.7065,326.8959 180.1015,326.8676 181.2661,326.9222 182.4307,326.9769 183.5953,327.0315 183.0356,327.0052 182.476,326.979 181.9164,326.9527 182.0934,323.1795 182.2705,319.4062 182.4475,315.633" stroke="black" stroke-width="1" /><polyline fill="none" points="165.3836,330.9586 167.4155,331.2463 169.4473,331.5341 171.4791,331.8217 171.8581,329.1451 172.2372,326.4686 172.6162,323.7919 171.8005,324.9058 170.7676,325.4701 169.2908,325.261 167.2536,324.9725 165.913,323.0682 166.1797,321.1844 166.3704,319.8377 166.5611,318.491 166.7518,317.1442 167.0307,315.1752 168.8136,313.9556 170.6645,314.2177 172.4977,314.4773 173.855,316.1416 173.5761,318.1106" stroke="black" stroke-width="1" /><polyline fill="none" points="155.1702,313.0883 155.9649,312.3439 156.9264,311.6391 158.9947,312.1331 160.8463,312.5753 162.0719,314.4543 161.5978,316.4393 161.2514,317.8898 160.9049,319.3404 160.5585,320.791 160.0964,322.7256 158.1541,323.8472 156.3025,323.405 154.4176,322.9548 153.1588,321.0686 153.6209,319.134 153.7934,318.4116 153.966,317.6891 154.1385,316.9667 156.4455,317.5176 158.7525,318.0687 161.0594,318.6197" stroke="black" stroke-width="1" /><polyline fill="none" points="141.6841,315.9587 141.6823,315.9639 141.6806,315.9691 141.6788,315.9743 142.4304,313.7672 143.182,311.5602 143.9336,309.3531 144.2809,308.3331 143.6985,307.6979 143.1644,307.516 143.8463,307.7482 144.216,308.5238 143.9777,309.2237 143.963,309.2668 143.9483,309.31 143.9336,309.3531 145.2879,308.7821 146.7423,308.5529 148.1538,309.0336 149.3226,309.4316 151.0226,310.6629 150.2102,313.0485 149.7845,314.2984 148.8164,314.8557 147.6664,314.9342 147.1079,314.9799 145.4598,314.7631 144.3497,314.6204 143.2176,314.4881 142.1097,314.7088 141.6841,315.9587 141.253,317.2245 142.0161,319.186 143.9635,319.8492 145.798,320.4739 146.9457,319.8691 147.7634,319.2239" stroke="black" stroke-width="1" /><polyline fill="none" points="128.7093,312.6069 129.5169,310.808 131.6093,310.0002 133.4082,310.8079 135.2227,311.6225 136.0239,313.7296 135.2163,315.5284 134.7996,316.4565 134.3829,317.3845 133.9662,318.3126 133.1586,320.1115 131.0513,320.9134 129.2521,320.1056 127.4379,319.291 126.6516,317.1899 127.4593,315.3911 128.8544,312.2838 130.2495,309.1765 131.6445,306.0693 132.4521,304.2708 134.5446,303.4626 136.3434,304.2703 137.8917,304.9654 138.6972,306.6053 138.3954,308.1991" stroke="black" stroke-width="1" /><polyline fill="none" points="123.4842,297.8012 121.3617,301.5447 126.6723,304.5557 115.4163,312.9345" stroke="black" stroke-width="1" /><polyline fill="none" points="110.4872,300.1866 109.2174,299.1762 106.9163,299.3977 105.7923,301.0074 105.5307,301.382 105.2691,301.7566 105.0075,302.1313 103.9471,303.6499 104.3215,305.7513 105.8542,306.8215 107.3725,307.8817 109.4935,307.4805 110.5341,305.9903 110.7957,305.6157 111.0573,305.2411 111.3189,304.8664 112.3795,303.3475 112.0055,301.2468 110.4872,300.1866 108.8142,299.0184 108.4576,296.7412 109.5861,295.1251 109.9722,294.5721 110.3583,294.0191 110.7444,293.4662 111.8731,291.8497 114.1146,291.4276 115.7876,292.5958 117.4464,293.7542 117.8214,296.0032 116.6927,297.6197 116.3002,298.1818 115.9077,298.7439 115.5152,299.3061 114.5476,300.6917 112.3541,301.3665" stroke="black" stroke-width="1" /><polyline fill="none" points="99.067,297.4204 94.8545,298.2772 105.9426,285.2018" stroke="black" stroke-width="1" /><polyline fill="none" points="84.0425,287.8756 84.7368,288.5864 85.7415,288.7557 86.649,287.8693 87.5279,287.0107 88.4068,286.1522 89.2857,285.2937 88.8625,284.8605 88.4393,284.4272 88.0161,283.994 88.8308,284.828 89.6455,285.662 90.4602,286.496 90.0687,286.0953 89.6772,285.6945 89.2857,285.2937 91.9878,282.6542 94.69,280.0146 97.3921,277.3751" stroke="black" stroke-width="1" /><polyline fill="none" points="74.0844,276.6915 77.6574,273.8028 81.2304,270.9141 84.8034,268.0253 86.3501,266.7748 88.5737,267.071 89.7705,268.5513 90.9563,270.018 90.7804,272.2546 89.2337,273.5051 88.0606,274.4536 86.8874,275.402 85.7142,276.3506 84.1675,277.601 81.9443,277.3042 80.7585,275.8374 79.5616,274.3571 79.7372,272.1213 81.2839,270.8708" stroke="black" stroke-width="1" /><polyline fill="none" points="73.1698,269.2761 71.527,270.3668 69.3167,269.9201 68.226,268.2774 67.1256,266.6201 67.5816,264.3624 69.2243,263.2717 69.8679,262.8444 70.3806,262.6888 70.819,262.6652 75.2543,262.4237 79.6896,262.1823 84.1249,261.9407 84.2437,261.8619 84.3625,261.783 84.4813,261.7041 83.1725,259.7328 81.8636,257.7614 80.5547,255.7901" stroke="black" stroke-width="1" /><polyline fill="none" points="72.4554,254.7843 70.7178,255.7163 68.5584,255.065 67.6266,253.328 66.6861,251.5746 67.3462,249.4308 69.0839,248.4987 69.9801,248.0179 70.8764,247.5372 71.7727,247.0564 73.5103,246.1243 75.6608,246.7606 76.6013,248.514 77.5331,250.251 76.8819,252.4099 75.1442,253.342 72.1427,254.952 69.1412,256.562 66.1396,258.1721 64.4023,259.1039 62.2432,258.4525 61.3115,256.7154 60.5087,255.2189 60.8717,253.4293 62.0831,252.3511" stroke="black" stroke-width="1" /><polyline fill="none" points="59.1238,246.9669 56.9431,247.8852 54.1812,241.3264 71.9179,239.272" stroke="black" stroke-width="1" /><polyline fill="none" points="54.7512,232.9204 50.7311,231.3979 67.0848,226.2534" stroke="black" stroke-width="1" /><polyline fill="none" points="46.7972,215.8706 47.227,217.8772 47.6568,219.8838 48.0866,221.8904 50.73,221.3242 53.3733,220.758 56.0167,220.1918 54.69,219.8098 53.8044,219.0345 53.4921,217.576 53.0611,215.5641 54.3871,213.6496 56.2475,213.2511 57.5775,212.9662 58.9075,212.6814 60.2375,212.3965 62.182,211.98 63.9412,213.2337 64.3327,215.0616 64.7205,216.872 63.6255,218.7195 61.681,219.136" stroke="black" stroke-width="1" /><polyline fill="none" points="56.2393,207.6588 54.281,207.8894 52.5104,206.4922 52.2799,204.5346 52.0471,202.5586 53.4468,200.8056 55.4051,200.575 56.4152,200.4561 57.4253,200.3371 58.4354,200.2182 60.3937,199.9875 62.1615,201.3674 62.3943,203.3435 62.6248,205.3011 61.2279,207.0714 59.2696,207.302 55.8869,207.7003 52.5042,208.0987 49.1215,208.497 47.1635,208.7276 45.3932,207.3304 45.1627,205.3728 44.9641,203.6861 45.9575,202.154 47.4797,201.5947" stroke="black" stroke-width="1" /><polyline fill="none" points="44.331,189.9764 44.3543,190.9697 44.9738,191.7787 46.2421,191.7489 47.4704,191.7201 48.6986,191.6913 49.9269,191.6625 49.9127,191.0571 49.8985,190.4516 49.8843,189.8462 49.9117,191.0117 49.939,192.1773 49.9663,193.3428 49.9532,192.7827 49.9401,192.2226 49.9269,191.6625 53.7033,191.574 57.4796,191.4854 61.256,191.3969" stroke="black" stroke-width="1" /><polyline fill="none" points="61.8518,176.9226 57.5591,176.6201 57.13,182.7099 44.719,176.1624" stroke="black" stroke-width="1" /><polyline fill="none" points="50.219,161.9509 53.1908,164.8533 56.1626,167.7556 59.1344,170.658 55.7741,170.1015 52.4138,169.545 49.0535,168.9886 47.1082,168.6664 45.7955,166.8319 46.1176,164.8872 46.4426,162.9242 48.2736,161.6288 50.219,161.9509 53.5793,162.5074 56.9396,163.0639 60.2999,163.6204 62.2452,163.9425 63.5601,165.7589 63.2379,167.7047 62.913,169.6666 61.0798,170.9801 59.1344,170.658" stroke="black" stroke-width="1" /><polyline fill="none" points="50.33,155.8557 48.0421,155.2522 49.8572,148.3709 65.1613,157.5684" stroke="black" stroke-width="1" /><polyline fill="none" points="60.498,137.5789 62.3492,138.2581 63.3021,140.2885 62.6229,142.1397 61.9377,144.007 59.8922,144.9543 58.041,144.2751 57.086,143.9247 56.131,143.5742 55.1759,143.2238 53.3248,142.5446 52.3767,140.4988 53.0561,138.6473 53.7411,136.7804 55.7818,135.8484 57.6329,136.5276 60.8306,137.7009 64.0282,138.8742 67.2258,140.0475 69.0766,140.7266 70.0299,142.7571 69.3506,144.6083 68.766,146.2016 67.1868,147.1203 65.5757,146.9313" stroke="black" stroke-width="1" /><polyline fill="none" points="66.4094,134.1508 64.63,133.3011 63.8777,131.1748 64.727,129.396 65.5843,127.6005 67.7033,126.8644 69.4827,127.714 70.4005,128.1523 71.3183,128.5905 72.2361,129.0287 74.0156,129.8783 74.7748,131.9885 73.9175,133.7841 73.0682,135.5629 70.9423,136.315 69.1629,135.4654 66.0892,133.9978 63.0155,132.5303 59.9418,131.0627 58.1627,130.2133 57.4107,128.0871 58.26,126.3083 58.9917,124.7758 60.6492,124.0098 62.2352,124.3487" stroke="black" stroke-width="1" /><polyline fill="none" points="72.2376,114.6047 73.9297,115.6172 74.4873,117.7897 73.4748,119.4817 72.4535,121.1885 70.2672,121.7378 68.5751,120.7253 67.7022,120.203 66.8292,119.6806 65.9563,119.1583 64.2642,118.1458 63.7143,115.9591 64.727,114.2668 65.7481,112.5603 67.9267,112.0251 69.6188,113.0376 72.5415,114.7865 75.4643,116.5355 78.3871,118.2844 80.0788,119.2967 80.6367,121.4694 79.6242,123.1614 78.7528,124.6178 77.0299,125.226 75.4824,124.7399" stroke="black" stroke-width="1" /><polyline fill="none" points="72.9401,108.0528 71.3503,106.8863 71.0082,104.6574 72.1747,103.0676 73.3516,101.4637 75.6281,101.1141 77.2179,102.2806 77.8408,102.7376 78.1635,103.1653 78.3366,103.5687 80.0911,107.6494 81.8457,111.73 83.6002,115.8107 83.7152,115.895 83.8302,115.9794 83.9452,116.0638 85.345,114.156 86.7448,112.2482 88.1446,110.3403" stroke="black" stroke-width="1" /><polyline fill="none" points="79.9949,96.94 78.2266,95.3677 82.9555,90.0493 92.4515,105.1702" stroke="black" stroke-width="1" /><polyline fill="none" points="94.8114,93.1984 93.467,91.7559 93.5461,89.5018 94.988,88.1579 96.4436,86.8013 98.6848,86.8928 100.0293,88.3352 100.7227,89.0792 101.4161,89.8232 102.1096,90.5673 103.454,92.0097 103.3873,94.2514 101.9317,95.608 100.4898,96.9519 98.2362,96.8729 96.8918,95.4304 94.5695,92.9388 92.2472,90.4471 89.9249,87.9555 88.5807,86.5133 88.66,84.2594 90.102,82.9155 91.3443,81.7576 93.1672,81.6522 94.5187,82.5485" stroke="black" stroke-width="1" /><polyline fill="none" points="103.0149,72.0484 105.8191,75.6881 108.6233,79.3279 111.4275,82.9676 112.6414,84.5432 112.2932,86.7592 110.7852,87.921 109.291,89.0721 107.0593,88.8439 105.8454,87.2683 104.9246,86.0732 104.0039,84.8781 103.0832,83.683 101.8693,82.1074 102.2182,79.8918 103.7123,78.7407 105.2203,77.5788 107.4514,77.8068 108.6653,79.3824" stroke="black" stroke-width="1" /><polyline fill="none" points="121.7399,76.1565 122.8008,77.8385 122.2607,80.0037 120.6508,81.019 119.0409,82.0343 116.8401,81.5977 115.7793,79.9157 114.9745,78.6396 114.1698,77.3636 113.365,76.0876 112.3039,74.4052 112.8586,72.2317 114.4685,71.2164 116.0783,70.2011 118.2646,70.646 119.3256,72.3283" stroke="black" stroke-width="1" /><polyline fill="none" points="128.102,61.3049 127.5201,65.4179 126.9381,69.5309 126.3561,73.6439 124.8169,70.6054 123.2777,67.567 121.7385,64.5285 120.8474,62.7695 121.55,60.626 123.3084,59.7352 125.0833,58.8361 127.2109,59.5459 128.102,61.3049 129.6412,64.3434 131.1804,67.3818 132.7196,70.4203 133.6107,72.1793 132.9241,74.314 131.1647,75.2052 129.3907,76.1039 127.2472,75.4029 126.3561,73.6439" stroke="black" stroke-width="1" /><polyline fill="none" points="140.2781,56.2081 139.3136,60.2485 138.349,64.2889 137.3844,68.3293 136.1365,65.1601 134.8886,61.9909 133.6407,58.8216 132.9182,56.9869 133.8184,54.9186 135.6525,54.1964 137.5039,53.4674 139.5557,54.3734 140.2781,56.2081 141.526,59.3773 142.774,62.5465 144.0219,65.7158 144.7443,67.5505 143.8608,69.6115 142.0257,70.3341 140.1754,71.0627 138.1069,70.1641 137.3844,68.3293" stroke="black" stroke-width="1" /><polyline fill="none" points="150.696,57.6155 152.2801,57.2633 153.5546,55.3346 153.0095,53.4485 152.8826,53.0096 152.7557,52.5706 152.6289,52.1317 152.1146,50.3523 150.2451,49.3222 148.4492,49.8412 146.6702,50.3554 145.6487,52.257 146.1533,54.0031 146.2802,54.4421 146.407,54.881 146.5339,55.32 147.0482,57.0997 148.917,58.1297 150.696,57.6155 152.6562,57.049 154.6513,58.2034 155.1986,60.097 155.3858,60.7449 155.5731,61.3929 155.7603,62.0408 156.3077,63.9348 155.2267,65.9432 153.2665,66.5097 151.3227,67.0715 149.338,65.949 148.7906,64.055 148.6003,63.3964 148.4099,62.7377 148.2196,62.079 147.7503,60.4554 148.6048,58.3255" stroke="black" stroke-width="1" /><polyline fill="none" points="158.4264,49.7478 157.9852,47.4232 164.9771,46.0962 163.271,63.8698" stroke="black" stroke-width="1" /><polyline fill="none" points="228.132,231.5735 136.578,231.1149 250.763,172.1919 140.3048,268.1431 140.8637,108.5745 108.8569,140.3048 158.7145,203.9175 268.4255,140.8637 268.1431,236.6952 268.4255,140.8637" stroke="black" stroke-width="1" /><polyline fill="none" points="250.782,140.8117 286.069,140.9157" stroke="black" stroke-width="1" /><polyline fill="none" points="251.6566,231.6324 251.5118,229.7924 251.0809,227.9976 250.3746,226.2924 249.4102,224.7187 248.2115,223.3152 246.808,222.1164 245.2343,221.152 243.529,220.4457 241.7343,220.0148 239.8942,219.87 238.0542,220.0148 236.2594,220.4457 234.5542,221.152 232.9805,222.1164 231.577,223.3152 230.3783,224.7187 229.4139,226.2924 228.7075,227.9977 228.2766,229.7924 228.1318,231.6324 228.2766,233.4725 228.7075,235.2672 229.4139,236.9724 230.3783,238.5462 231.577,239.9497 232.9805,241.1484 234.5542,242.1128 236.2594,242.8191 238.0542,243.25 239.8942,243.3948 241.7343,243.25 243.529,242.8191 245.2343,242.1128 246.808,241.1484 248.2115,239.9497 249.4102,238.5462 250.3746,236.9724 251.0809,235.2672 251.5118,233.4725 251.6566,231.6324" stroke="black" stroke-width="1" /><polyline fill="none" points="188.5,69.0664 199.6839,69.5912 210.7696,71.161 221.6595,73.7619 232.2581,77.3712 242.4721,81.9571 252.2118,87.4792 261.3915,93.8892 269.9308,101.1306 277.7544,109.1398 284.7936,117.8464 290.9866,127.1739 296.2789,137.0404 300.6241,147.3591 303.9839,158.0393 306.3289,168.9873 307.6383,180.1067 307.9008,191.2998 307.114,202.4684 305.2847,213.5142 302.4292,224.3402 298.5725,234.8512 293.7484,244.9549 287.9994,254.5625 281.376,263.5894 273.9365,271.9565 265.7461,279.5902 256.8768,286.4234 247.4067,292.3961 237.4188,297.4556 227.0011,301.5577 216.2451,304.6663 205.2452,306.7539 194.0981,307.8023 182.9019,307.8023 171.7548,306.7539 160.7549,304.6663 149.9989,301.5577 139.5811,297.4556 129.5933,292.3961 120.1232,286.4234 111.2539,279.5902 103.0635,271.9565 95.6239,263.5894 89.0006,254.5625 83.2516,244.9549 78.4275,234.8512 74.5708,224.3402 71.7153,213.5142 69.8861,202.4684 69.0992,191.2998 69.3617,180.1067 70.6712,168.9872 73.0161,158.0393 76.3759,147.3591 80.7211,137.0404 86.0134,127.174 92.2064,117.8464 99.2457,109.1398 107.0692,101.1306 115.6085,93.8892 124.7882,87.4792 134.5279,81.957 144.7419,77.3712 155.3405,73.7619 166.2304,71.161 177.3161,69.5912 188.5,69.0664" stroke="black" stroke-width="1" />

    </g>
  </g>
  <WCB
     pausedposy="0"
     pausedposx="0"
     lastknownposy="0"
     lastknownposx="0"
     lastpathnc="0"
     lastpath="0"
     node="0"
     layer="0" />
</svg>
