<?xml version="1.0" encoding="UTF-8" standalone="no"?>
<!-- Created with Inkscape (http://www.inkscape.org/) -->

<svg
   xmlns:dc="http://purl.org/dc/elements/1.1/"
   xmlns:cc="http://creativecommons.org/ns#"
   xmlns:rdf="http://www.w3.org/1999/02/22-rdf-syntax-ns#"
   xmlns:svg="http://www.w3.org/2000/svg"
   xmlns="http://www.w3.org/2000/svg"
   xmlns:sodipodi="http://sodipodi.sourceforge.net/DTD/sodipodi-0.dtd"
   xmlns:inkscape="http://www.inkscape.org/namespaces/inkscape"
   width="100mm"
   height="100mm"
   viewBox="0 0 100 100"
   version="1.1"
   id="svg19124"
   inkscape:version="0.92.3 (2405546, 2018-03-11)"
   sodipodi:docname="inkscape_template_TMP.svg"
   shape-rendering="crispEdges">
  <sodipodi:namedview
     pagecolor="#ffffff"
     bordercolor="#666666"
     borderopacity="1"
     objecttolerance="10"
     gridtolerance="10"
     guidetolerance="10"
     inkscape:pageopacity="0"
     inkscape:pageshadow="2"
     inkscape:window-width="1568"
     inkscape:window-height="1550"
     id="namedview24021"
     showgrid="false"
     inkscape:zoom="0.62441667"
     inkscape:cx="712.66515"
     inkscape:cy="409.98265"
     inkscape:window-x="0"
     inkscape:window-y="0"
     inkscape:window-maximized="0"
     inkscape:current-layer="layer1" />
  <defs
     id="defs19118" />
  <metadata
     id="metadata19121">
    <rdf:RDF>
      <cc:Work
         rdf:about="">
        <dc:format>image/svg+xml</dc:format>
        <dc:type
           rdf:resource="http://purl.org/dc/dcmitype/StillImage" />
        <dc:title />
      </cc:Work>
    </rdf:RDF>
  </metadata>
  <g
     transform="translate(0,-197)"
     id="layer1"
     inkscape:groupmode="layer"
     inkscape:label="Layer 1">
    <g
       id="g24447"
       transform="matrix(0.26458333,0,0,0.26458333,0.10666333,197.9735)">

<polyline fill="none" points="192.1004,47.7394 189.7225,51.1455 187.3447,54.5516 184.9669,57.9577 184.9669,54.5516 184.9669,51.1455 184.9669,47.7394 184.9669,45.7676 186.5623,44.1729 188.5334,44.1729 190.5231,44.1729 192.1004,45.7676 192.1004,47.7394 192.1004,51.1455 192.1004,54.5516 192.1004,57.9577 192.1004,59.9295 190.5231,61.5235 188.5509,61.5235 186.5623,61.5235 184.9669,59.9295 184.9669,57.9577" stroke="black" stroke-width="1" /><polyline fill="none" points="197.8298,61.5877 200.7471,57.7851 198.696,53.7706 202.935,62.0679 200.7471,57.7851 203.4811,54.2207" stroke="black" stroke-width="1" /><polyline fill="none" points="211.4702,49.377 211.8028,47.625 213.5622,46.3532 215.4662,46.7146 217.3691,47.0757 218.574,48.8236 218.1968,50.811 218.1371,51.1253 218.0775,51.4396 218.0178,51.7539 217.4424,54.7859 214.7019,54.789 214.3643,54.7249 214.0388,54.6631 213.7133,54.6013 213.3878,54.5396 213.7133,54.6013 214.0388,54.6631 214.3643,54.7249 215.3588,54.9136 217.2575,56.4958 216.81,58.8534 216.6789,59.5442 216.5478,60.235 216.4167,60.9258 216.046,62.8792 214.1679,64.1285 212.2138,63.7576 210.2428,63.3836 208.9706,61.5364 209.3413,59.583" stroke="black" stroke-width="1" /><polyline fill="none" points="231.0396,54.273 227.8096,56.885 224.5796,59.497 221.3496,62.109 222.2952,58.8368 223.2409,55.5646 224.1866,52.2925 224.734,50.3981 226.7095,49.3091 228.6031,49.8564 230.5146,50.4088 231.587,52.3787 231.0396,54.273 230.0939,57.5452 229.1482,60.8173 228.2026,64.0895 227.6551,65.9838 225.6974,67.0772 223.8027,66.5297 221.8922,65.9776 220.8021,64.0033 221.3496,62.109" stroke="black" stroke-width="1" /><polyline fill="none" points="244.5333,55.3499 242.8499,59.6251 241.1665,63.9003 239.4831,68.1755 238.7544,70.0262 236.674,70.8653 234.9028,70.1678 233.1478,69.4768 232.1977,67.4444 232.9264,65.5937 233.4791,64.19 234.0319,62.7863 234.5846,61.3826 235.3133,59.5319 237.3938,58.6936 239.1487,59.3847 240.92,60.0821 241.87,62.1136 241.1413,63.9643" stroke="black" stroke-width="1" /><polyline fill="none" points="252.7238,68.8641 252.7263,68.8592 252.7288,68.8543 252.7312,68.8494 251.6776,70.9293 250.624,73.0091 249.5704,75.089 249.0835,76.0502 249.5711,76.7609 250.0745,77.0159 249.4318,76.6903 249.1745,75.8705 249.5086,75.211 249.5292,75.1703 249.5498,75.1297 249.5704,75.089 248.1494,75.4646 246.6773,75.4875 245.3471,74.8137 244.2456,74.2557 242.7351,72.7983 243.8739,70.5502 244.4706,69.3723 245.5073,68.9562 246.6569,69.0397 247.2163,69.0728 248.8178,69.5186 249.8969,69.8154 250.9993,70.1052 252.1271,70.0419 252.7238,68.8641 253.3281,67.6712 252.8475,65.6221 251.0123,64.6924 249.2836,63.8167 248.0624,64.2546 247.1623,64.7788" stroke="black" stroke-width="1" /><polyline fill="none" points="267.938,68.0076 266.2023,66.9129 264.4666,65.8182 262.7308,64.7235 261.2888,67.0101 259.8467,69.2966 258.4046,71.5832 259.6049,70.9011 260.7784,70.8094 262.0399,71.605 263.7803,72.7026 264.2233,74.989 263.2084,76.5982 262.4828,77.7487 261.7572,78.8992 261.0316,80.0496 259.9708,81.7317 257.8447,82.114 256.2635,81.1168 254.6975,80.1292 254.141,78.055 255.2018,76.3729" stroke="black" stroke-width="1" /><polyline fill="none" points="278.8721,75.9757 277.2465,74.7233 275.6209,73.4709 273.9953,72.2185 272.3454,74.3599 270.6956,76.5014 269.0457,78.6429 270.3046,78.0762 271.4815,78.0948 272.663,79.005 274.293,80.2608 274.5199,82.5786 273.3587,84.0857 272.5286,85.1632 271.6985,86.2407 270.8684,87.3181 269.6547,88.8935 267.5021,89.075 266.0213,87.9342 264.5546,86.8042 264.1948,84.687 265.4085,83.1116" stroke="black" stroke-width="1" /><polyline fill="none" points="287.1054,87.984 283.0437,88.8544 278.9819,89.7248 274.9202,90.5953 277.2425,88.1036 279.5648,85.612 281.8871,83.1203 283.2315,81.6778 285.4859,81.599 286.9278,82.943 288.3834,84.2996 288.4499,86.5415 287.1054,87.984 284.7831,90.4756 282.4608,92.9673 280.1385,95.4589 278.7941,96.9014 276.5536,96.9921 275.1108,95.6474 273.6561,94.2916 273.5758,92.0377 274.9202,90.5953" stroke="black" stroke-width="1" /><polyline fill="none" points="287.1973,96.0884 288.6837,94.7668 290.9185,94.9586 292.1833,96.3812 293.4478,97.8033 293.366,100.0328 291.8796,101.3545 290.7522,102.3569 289.6248,103.3593 288.4974,104.3618 287.0112,105.6832 284.7869,105.5041 283.5225,104.082 282.2576,102.6594 282.3401,100.4296 283.8262,99.1082 283.8225,99.1041 283.8188,99.0999 283.8151,99.0957 287.2487,96.0427 290.6824,92.9896 294.1161,89.9366" stroke="black" stroke-width="1" /><polyline fill="none" points="304.1183,108.1327 299.9655,108.2306 295.8127,108.3284 291.6599,108.4262 294.4061,106.4112 297.1523,104.3963 299.8984,102.3814 301.4882,101.2149 303.7177,101.5578 304.8838,103.147 306.0609,104.7513 305.7082,106.9662 304.1183,108.1327 301.3722,110.1477 298.626,112.1626 295.8799,114.1776 294.2901,115.344 292.0719,115.0154 290.9052,113.4253 289.7288,111.8219 290.0701,109.5927 291.6599,108.4262" stroke="black" stroke-width="1" /><polyline fill="none" points="300.9137,125.2839 299.8259,125.2355 298.6498,125.0403 297.5579,123.2155 296.5804,121.582 297.0682,119.3922 298.8194,118.3443 300.0991,117.5785 301.3789,116.8128 302.6586,116.047 304.3654,115.0257 306.525,115.6313 307.5025,117.2648 308.4976,118.9278 308.0279,121.1463 306.3211,122.1676 305.6837,122.549 305.0464,122.9304 304.409,123.3118 303.1911,121.2765 301.9732,119.2412 300.7553,117.2058" stroke="black" stroke-width="1" /><polyline fill="none" points="314.0163,124.6917 315.7957,123.8421 317.9215,124.5942 318.7712,126.3736 319.6283,128.1689 318.8603,130.3403 317.0809,131.1899 316.3837,131.5227 315.8543,131.6049 315.4169,131.5668 310.9916,131.1841 306.5663,130.8013 302.1409,130.4186 302.0122,130.48 301.8835,130.5415 301.7548,130.603 302.7744,132.7383 303.7939,134.8737 304.8134,137.009" stroke="black" stroke-width="1" /><polyline fill="none" points="312.6917,139.1405 314.5429,138.4612 316.5897,139.4089 317.2686,141.2594 317.954,143.1273 316.9999,145.1574 315.1487,145.8367 314.1939,146.187 313.2391,146.5374 312.2843,146.8877 310.4331,147.567 308.393,146.6355 307.7076,144.7675 307.0287,142.917 307.9761,140.8707 309.8273,140.1915 313.0249,139.0182 316.2225,137.8449 319.4201,136.6717 321.2709,135.9926 323.3174,136.9403 323.9964,138.7908 324.5814,140.3852 323.9711,142.1061 322.6204,143.0038" stroke="black" stroke-width="1" /><polyline fill="none" points="329.0002,154.9091 324.5575,156.0809 320.1148,157.2528 315.6721,158.4246 313.7488,158.9319 311.8417,157.751 311.3562,155.9103 310.8751,154.0865 311.9516,152.1182 313.8748,151.611 315.3336,151.2262 316.7923,150.8414 318.251,150.4567 320.1743,149.9494 322.0808,151.1308 322.5619,152.9546 323.0474,154.7953 321.9715,156.763 320.0482,157.2703" stroke="black" stroke-width="1" /><polyline fill="none" points="324.9649,169.6639 323.0195,169.9861 321.1891,168.6898 320.867,166.7444 320.5421,164.7821 321.8542,162.9491 323.7996,162.627 324.8032,162.4608 325.8068,162.2946 326.8104,162.1284 328.7558,161.8062 330.5895,163.1182 330.9117,165.064 331.2366,167.0259 329.9211,168.8431 327.9758,169.1653 324.6155,169.7218 321.2551,170.2782 317.8948,170.8347 315.9498,171.1568 314.1191,169.8606 313.797,167.9152 313.5197,166.2408 314.4403,164.6627 315.935,164.0325" stroke="black" stroke-width="1" /><polyline fill="none" points="317.3481,182.9067 316.3996,182.372 315.4387,181.6663 315.2892,179.5451 315.1555,177.6461 316.5801,175.9131 318.6158,175.7697 320.1035,175.6649 321.5912,175.5601 323.0789,175.4553 325.0629,175.3155 326.7158,176.8317 326.8495,178.7306 326.9857,180.6638 325.5642,182.4306 323.5801,182.5704 322.8392,182.6226 322.0983,182.6748 321.3573,182.727 321.1906,180.361 321.024,177.995 320.8573,175.629" stroke="black" stroke-width="1" /><polyline fill="none" points="317.3057,194.9968 316.4114,194.3756 315.5208,193.5831 315.5706,191.4571 315.6153,189.554 317.1959,187.962 319.2361,188.0099 320.7271,188.0448 322.2181,188.0798 323.709,188.1147 325.6975,188.1614 327.201,189.8257 327.1564,191.7288 327.111,193.6662 325.5303,195.2922 323.5418,195.2455 322.7993,195.2281 322.0567,195.2107 321.3141,195.1933 321.3698,192.8221 321.4254,190.4509 321.4809,188.0796" stroke="black" stroke-width="1" /><polyline fill="none" points="324.8294,208.2925 322.8711,208.0619 321.4726,206.3084 321.7032,204.3501 321.9359,202.3747 323.7053,200.9781 325.6636,201.2087 326.674,201.3277 327.6843,201.4467 328.6946,201.5657 330.6529,201.7963 332.0502,203.5658 331.8196,205.5245 331.587,207.4995 329.8187,208.8801 327.8604,208.6495 324.4777,208.2511 321.095,207.8528 317.7123,207.4544 315.7543,207.2238 314.3555,205.4703 314.5861,203.5119 314.7846,201.8264 316.1072,200.5659 317.7181,200.3755" stroke="black" stroke-width="1" /><polyline fill="none" points="325.3846,221.5014 322.5521,218.463 319.7196,215.4245 316.8871,212.3861 320.2176,213.0994 323.5482,213.8128 326.8787,214.5262 328.8068,214.9392 330.032,216.8332 329.6191,218.7606 329.2024,220.7062 327.3127,221.9144 325.3846,221.5014 322.0541,220.7881 318.7236,220.0747 315.3931,219.3613 313.4649,218.9483 312.2366,217.0723 312.6497,215.1438 313.0662,213.1993 314.959,211.9731 316.8871,212.3861" stroke="black" stroke-width="1" /><polyline fill="none" points="317.0046,225.1947 318.8856,225.7864 319.9286,227.7863 319.3371,229.6666 318.74,231.5646 316.7452,232.5905 314.8642,231.9987 313.894,231.6935 312.9238,231.3883 311.9536,231.0831 310.0727,230.4914 309.0251,228.5084 309.6222,226.6104 310.2137,224.7301 312.2131,223.6874 314.0941,224.2791 317.3432,225.3012 320.5923,226.3233 323.8414,227.3454 325.722,227.937 326.7646,229.9368 326.1732,231.8171 325.6635,233.4371 324.1298,234.4279 322.512,234.3147" stroke="black" stroke-width="1" /><polyline fill="none" points="320.6257,246.2033 321.0113,245.2876 320.7775,244.2959 319.6083,243.8036 318.476,243.3267 317.3437,242.8499 316.2113,242.3731 315.9763,242.9313 315.7413,243.4894 315.5062,244.0476 315.9587,242.9731 316.4112,241.8986 316.8636,240.8241 316.6462,241.3404 316.4288,241.8568 316.2113,242.3731 312.73,240.9071 309.2487,239.4412 305.7674,237.9752" stroke="black" stroke-width="1" /><polyline fill="none" points="313.7356,253.1372 315.4556,257.0768 300.348,248.9731" stroke="black" stroke-width="1" /><polyline fill="none" points="303.7753,269.3585 302.253,265.4935 300.7307,261.6286 299.2083,257.7636 302.0459,259.6476 304.8835,261.5316 307.7211,263.4156 309.3638,264.5063 309.8099,266.7175 308.7196,268.3597 307.619,270.0173 305.4181,270.4492 303.7753,269.3585 300.9377,267.4745 298.1002,265.5905 295.2626,263.7065 293.6199,262.6158 293.1643,260.4201 294.2552,258.7771 295.3552,257.1204 297.5656,256.6729 299.2083,257.7636" stroke="black" stroke-width="1" /><polyline fill="none" points="293.2535,277.966 291.7201,276.7263 291.4726,274.4971 292.7123,272.9637 293.9629,271.417 296.2046,271.1796 297.7379,272.4193 298.5291,273.0589 299.3201,273.6985 300.1112,274.3381 301.6446,275.5778 301.8825,277.8199 300.6426,279.3536 299.3923,280.9001 297.1602,281.1245 295.6268,279.8848 292.9781,277.7433 290.3294,275.6019 287.6807,273.4604 286.1476,272.2209 285.8998,269.9915 287.1396,268.4581 288.2066,267.1383 289.9977,266.7777 291.4618,267.476" stroke="black" stroke-width="1" /><polyline fill="none" points="287.6192,280.459 289.042,281.8488 289.0077,284.0915 287.6775,285.4532 286.3478,286.8145 284.118,286.8896 282.6952,285.4998 281.616,284.4456 280.5368,283.3914 279.4576,282.3372 278.0351,280.9476 278.0574,278.7162 279.3871,277.355 280.7173,275.9932 282.9473,275.9188 284.3699,277.3084 284.3738,277.3044 284.3777,277.3004 284.3816,277.2964 287.6684,280.507 290.9552,283.7177 294.242,286.9283" stroke="black" stroke-width="1" /><polyline fill="none" points="276.7938,298.1846 276.4044,294.049 276.015,289.9133 275.6255,285.7776 277.8285,288.3754 280.0314,290.9731 282.2344,293.5709 283.5097,295.0748 283.3243,297.3229 281.8209,298.5978 280.3034,299.8847 278.0691,299.6885 276.7938,298.1846 274.5908,295.5868 272.3879,292.9891 270.1849,290.3913 268.9096,288.8874 269.0816,286.6516 270.5858,285.376 272.1024,284.0898 274.3502,284.2737 275.6255,285.7776" stroke="black" stroke-width="1" /><polyline fill="none" points="264.2958,303.5324 263.1669,301.9157 263.5481,299.7054 265.1648,298.5765 266.7956,297.4378 269.015,297.8322 270.1439,299.4489 270.7263,300.283 271.3087,301.117 271.8912,301.9511 273.0201,303.5678 272.6262,305.7879 271.0091,306.917 269.3787,308.0555 267.1719,307.6514 266.043,306.0347 264.093,303.242 262.143,300.4494 260.193,297.6568 259.0643,296.0403 259.4453,293.8298 261.062,292.7009 262.4535,291.7292 264.2743,291.8801 265.487,292.9574" stroke="black" stroke-width="1" /><polyline fill="none" points="255.675,307.0218 254.2161,307.7324 253.4245,309.9043 254.3928,311.6122 254.6182,312.0097 254.8435,312.4072 255.0689,312.8046 255.9824,314.4159 258.0401,314.9835 259.6663,314.0615 261.2772,313.1481 261.829,311.0612 260.9326,309.48 260.7072,309.0826 260.4819,308.6851 260.2565,308.2876 259.3428,306.6761 257.2859,306.1085 255.675,307.0218 253.9,308.0282 251.6913,307.3688 250.7191,305.6541 250.3865,305.0674 250.0538,304.4807 249.7212,303.8941 248.7488,302.179 249.3337,299.9744 251.1087,298.968 252.8687,297.9702 255.0599,298.6008 256.0323,300.3158 256.3704,300.9123 256.7086,301.5087 257.0468,302.1051 257.8803,303.5753 257.5441,305.8455" stroke="black" stroke-width="1" /><polyline fill="none" points="242.8697,318.3862 243.6438,314.3051 244.4179,310.2239 245.192,306.1427 246.5871,309.2499 247.9822,312.3572 249.3773,315.4645 250.185,317.2633 249.3827,319.3716 247.5845,320.179 245.7693,320.9939 243.6773,320.1851 242.8697,318.3862 241.4746,315.279 240.0795,312.1718 238.6844,309.0645 237.8767,307.2656 238.6627,305.1655 240.4619,304.3577 242.276,303.5432 244.3844,304.3438 245.192,306.1427" stroke="black" stroke-width="1" /><polyline fill="none" points="237.1358,320.8533 237.7107,322.5414 236.8074,324.5155 234.9729,325.1402 233.1395,325.7646 231.2292,324.8384 230.5771,322.9235 230.474,322.6206 230.3708,322.3178 230.2677,322.015 229.2728,319.0936 231.6553,317.7393 231.9806,317.6285 232.2942,317.5217 232.6078,317.4149 232.9215,317.3081 232.6078,317.4149 232.2942,317.5217 231.9806,317.6285 231.0224,317.9548 228.5904,317.515 227.8168,315.2433 227.5901,314.5778 227.3635,313.9122 227.1368,313.2466 226.4958,311.3644 227.5134,309.3514 229.3963,308.7102 231.2953,308.0635 233.3131,309.0429 233.954,310.925" stroke="black" stroke-width="1" /><polyline fill="none" points="224.605,324.5965 225.0631,326.5144 223.8824,328.4356 221.9645,328.8937 220.0295,329.3558 218.0671,328.1501 217.6091,326.2322 217.4296,325.4808 217.4601,324.9459 217.589,324.5262 218.8901,320.2792 220.1912,316.0321 221.4923,311.7851 221.4591,311.6464 221.426,311.5077 221.3929,311.369 219.0913,311.9186 216.7898,312.4684 214.4883,313.018" stroke="black" stroke-width="1" /><polyline fill="none" points="210.895,321.8399 211.1739,323.8093 209.778,325.5649 207.8931,325.8318 206.009,326.0986 204.1968,324.7972 203.9179,322.8279 203.7064,321.3342 203.4949,319.8404 203.2834,318.3467 203.0046,316.3777 204.3841,314.6237 206.2682,314.3569 208.1531,314.09 209.965,315.3921 210.2438,317.3611 210.2494,317.3603 210.2549,317.3595 210.2605,317.3587 210.9047,321.908 211.5489,326.4573 212.1931,331.0066" stroke="black" stroke-width="1" /><polyline fill="none" points="198.3105,323.3511 198.4037,325.3379 196.8495,326.9551 194.948,327.0443 193.0471,327.1335 191.3648,325.6682 191.2715,323.6814 191.2008,322.1744 191.1301,320.6675 191.0594,319.1605 190.9662,317.1741 192.5039,315.5569 194.4048,315.4677 196.3063,315.3785 197.9883,316.8445 198.0816,318.831 198.0871,318.8307 198.0927,318.8305 198.0983,318.8302 198.3137,323.4199 198.5291,328.0095 198.7444,332.5991" stroke="black" stroke-width="1" /><polyline fill="none" points="185.3997,329.2701 185.3073,331.2398 183.6396,332.7576 181.6699,332.6652 179.6828,332.572 178.1322,330.8688 178.2247,328.8991 178.2609,328.1274 178.4387,327.622 178.6791,327.2546 181.1081,323.5358 183.5372,319.817 185.9663,316.0982 185.973,315.9557 185.9797,315.8132 185.9864,315.6708 183.6227,315.5599 181.259,315.4489 178.8953,315.338" stroke="black" stroke-width="1" /><polyline fill="none" points="172.9941,322.8154 172.7152,324.7848 170.8867,326.0838 169.0019,325.8169 167.1178,325.5501 165.7381,323.7968 166.017,321.8275 166.2285,320.3337 166.44,318.84 166.6516,317.3463 166.9304,315.3773 168.7427,314.0753 170.6268,314.342 172.5116,314.6089 173.8908,316.3629 173.612,318.3319 173.6176,318.3327 173.6231,318.3335 173.6286,318.3342 172.9844,322.8835 172.3402,327.4329 171.696,331.9821" stroke="black" stroke-width="1" /><polyline fill="none" points="157.9408,326.0792 154.5701,328.7472 158.5527,312.0724" stroke="black" stroke-width="1" /><polyline fill="none" points="139.2262,324.15 141.1687,324.8115 143.1113,325.473 145.0538,326.1345 145.9253,323.5756 146.7967,321.0165 147.6682,318.4576 146.6591,319.3998 145.5391,319.7616 144.1272,319.2808 142.1795,318.6175 141.2175,316.4966 141.8308,314.6956 142.2693,313.4081 142.7077,312.1205 143.1462,310.8329 143.7873,308.9505 145.7664,308.0847 147.5359,308.6873 149.2886,309.2842 150.3117,311.1723 149.6707,313.0548" stroke="black" stroke-width="1" /><polyline fill="none" points="137.0278,311.8311 136.2202,313.6299 134.112,314.4319 132.3138,313.6245 130.4987,312.8096 129.7132,310.7084 130.5208,308.9096 130.9374,307.9818 131.354,307.0539 131.7706,306.1261 132.5782,304.3272 134.6701,303.5187 136.4852,304.3337 138.2834,305.1411 139.0852,307.2487 138.2776,309.0476 136.8825,312.1548 135.4874,315.2621 134.0923,318.3694 133.2848,320.1679 131.1768,320.9695 129.3786,320.1622 127.8293,319.4666 127.0247,317.8275 127.3263,316.2339" stroke="black" stroke-width="1" /><polyline fill="none" points="124.8618,307.7948 123.8808,309.525 121.7035,310.0638 120.0475,309.1249 118.3922,308.1863 117.7508,306.0495 118.7318,304.3192 119.4759,303.0069 120.22,301.6945 120.9641,300.3821 121.9449,298.6522 124.1082,298.1047 125.7636,299.0433 127.4196,299.9822 128.0602,302.1195 127.0794,303.8494 127.0843,303.8522 127.0892,303.8549 127.094,303.8577 124.8278,307.8546 122.5617,311.8516 120.2955,315.8485" stroke="black" stroke-width="1" /><polyline fill="none" points="108.137,297.9498 108.1339,297.9542 108.1308,297.9587 108.1276,297.9632 109.4624,296.0516 110.7972,294.14 112.132,292.2284 112.749,291.3449 112.3658,290.573 111.9031,290.2499 112.4938,290.6623 112.6336,291.5101 112.2104,292.1163 112.1843,292.1537 112.1582,292.191 112.132,292.2284 113.5917,292.0558 115.0525,292.2395 116.2751,293.0931 117.2874,293.8 118.5787,295.4549 117.1359,297.5211 116.38,298.6037 115.2951,298.8703 114.1686,298.6264 113.6194,298.5152 112.0963,297.8494 111.0694,297.4041 110.0185,296.9626 108.893,296.8672 108.137,297.9498 107.3715,299.0461 107.56,301.1424 109.2467,302.3201 110.8356,303.4296 112.1061,303.1672 113.0708,302.7744" stroke="black" stroke-width="1" /><polyline fill="none" points="99.9002,298.1947 98.7469,299.5547 96.589,299.7933 95.111,298.5399 93.6338,297.2872 93.4477,295.1724 94.7561,293.6295 94.963,293.3856 95.1699,293.1416 95.3768,292.8976 97.3728,290.5438 99.7583,291.8929 100.0203,292.1151 100.273,292.3294 100.5257,292.5437 100.7784,292.758 100.5257,292.5437 100.273,292.3294 100.0203,292.1151 99.2483,291.4604 98.377,289.1476 99.9291,287.3174 100.3838,286.7811 100.8386,286.2449 101.2933,285.7086 102.5793,284.1922 104.8292,284.0317 106.3462,285.3181 107.8763,286.6157 108.0719,288.85 106.786,290.3665" stroke="black" stroke-width="1" /><polyline fill="none" points="89.2605,288.5671 84.9863,289.0257 97.2501,277.0461" stroke="black" stroke-width="1" /><polyline fill="none" points="80.9088,271.3348 80.9046,271.3382 80.9003,271.3416 80.8961,271.3451 82.7091,269.8792 84.5222,268.4134 86.3353,266.9475 87.1732,266.2701 87.0195,265.4221 86.6647,264.9833 87.1176,265.5435 87.0166,266.3967 86.4416,266.8615 86.4062,266.8902 86.3707,266.9189 86.3353,266.9475 87.7854,267.187 89.1378,267.769 90.0753,268.9286 90.8516,269.8887 91.6327,271.837 89.6729,273.4214 88.6461,274.2516 87.5299,274.2065 86.5154,273.6595 86.0187,273.4001 84.7403,272.3376 83.8774,271.6248 82.9904,270.9089 81.9356,270.5046 80.9088,271.3348 79.869,272.1755 79.4681,274.2416 80.7615,275.8414 81.9799,277.3484 83.2733,277.4491 84.3091,277.3396" stroke="black" stroke-width="1" /><polyline fill="none" points="69.2417,263.3596 73.3946,263.4566 77.5474,263.5535 81.7002,263.6505 78.8626,265.5345 76.0251,267.4185 73.1875,269.3025 71.5447,270.3932 69.3337,269.9461 68.2434,268.304 67.1429,266.6464 67.599,264.4503 69.2417,263.3596 72.0793,261.4756 74.9169,259.5916 77.7545,257.7076 79.3972,256.6169 81.5975,257.0492 82.6884,258.6923 83.7884,260.349 83.3429,262.5598 81.7002,263.6505" stroke="black" stroke-width="1" /><polyline fill="none" points="65.3923,250.322 67.13,249.3899 69.2805,250.0269 70.2126,251.7646 71.1527,253.5174 70.5015,255.6755 68.7639,256.6076 67.8674,257.0884 66.9709,257.5693 66.0745,258.0502 64.3368,258.9822 62.178,258.3314 61.2458,256.5934 60.3058,254.8409 60.9652,252.6967 62.7029,251.7646 65.7044,250.1546 68.7059,248.5445 71.7075,246.9345 73.4448,246.0026 75.5957,246.6395 76.5277,248.3772 77.33,249.8728 76.9672,251.6634 75.7555,252.7418" stroke="black" stroke-width="1" /><polyline fill="none" points="54.8967,242.6944 55.2823,243.6101 56.1551,244.1358 57.3243,243.6435 58.4566,243.1667 59.5889,242.6898 60.7212,242.213 60.4862,241.6549 60.2512,241.0967 60.0161,240.5386 60.4686,241.6131 60.9211,242.6876 61.3735,243.7621 61.1561,243.2457 60.9387,242.7294 60.7212,242.213 64.2026,240.747 67.6839,239.2811 71.1652,237.8151" stroke="black" stroke-width="1" /><polyline fill="none" points="49.9829,229.0197 50.5987,230.9772 51.2145,232.9347 51.8303,234.8922 54.4091,234.081 56.9878,233.2698 59.5665,232.4586 58.2099,232.2024 57.2556,231.5134 56.808,230.0907 56.1906,228.1279 57.3315,226.0976 59.1463,225.5267 60.4438,225.1185 61.7413,224.7104 63.0388,224.3022 64.9358,223.7055 66.8046,224.7889 67.3655,226.5721 67.9212,228.3383 67.0041,230.2802 65.1071,230.877" stroke="black" stroke-width="1" /><polyline fill="none" points="46.5797,215.4684 51.0724,214.5061 55.5652,213.5438 60.058,212.5815 62.0029,212.1649 63.8526,213.4339 64.2513,215.2953 64.6463,217.1396 63.4788,219.0553 61.5339,219.4719 60.0587,219.7878 58.5835,220.1038 57.1084,220.4198 55.1635,220.8363 53.3144,219.5668 52.9194,217.7225 52.5207,215.8611 53.6876,213.946 55.6325,213.5294" stroke="black" stroke-width="1" /><polyline fill="none" points="48.8142,207.2026 45.1485,204.9572 62.1746,202.9522" stroke="black" stroke-width="1" /><polyline fill="none" points="53.456,195.1465 51.4675,195.1931 49.8872,193.6015 49.8426,191.6983 49.798,189.7959 51.3023,188.1484 53.2908,188.1018 54.799,188.0664 56.3072,188.031 57.8154,187.9957 59.8035,187.949 61.3841,189.5243 61.4287,191.4267 61.4734,193.3298 59.9683,194.977 57.9802,195.0236 57.9803,195.0292 57.9805,195.0348 57.9806,195.0404 53.3872,195.1481 48.7938,195.2558 44.2003,195.3635" stroke="black" stroke-width="1" /><polyline fill="none" points="58.4294,175.8661 60.4131,176.0059 61.8393,177.7222 61.7055,179.6208 61.5718,181.5194 59.9178,183.0355 57.9341,182.8958 56.4292,182.7897 54.9243,182.6837 53.4194,182.5777 51.4354,182.4379 50.0111,180.7049 50.1448,178.8063 50.2786,176.9078 51.9306,175.4083 53.9147,175.5481" stroke="black" stroke-width="1" /><polyline fill="none" points="47.8803,168.9376 45.5459,168.551 46.7086,161.53 62.8068,169.254" stroke="black" stroke-width="1" /><polyline fill="none" points="50.33,155.8557 48.0421,155.2522 49.8572,148.3709 65.1613,157.5684" stroke="black" stroke-width="1" /><polyline fill="none" points="60.498,137.5789 62.3492,138.2581 63.3021,140.2885 62.6229,142.1397 61.9377,144.007 59.8922,144.9543 58.041,144.2751 57.086,143.9247 56.131,143.5742 55.1759,143.2238 53.3248,142.5446 52.3767,140.4988 53.0561,138.6473 53.7411,136.7804 55.7818,135.8484 57.6329,136.5276 60.8306,137.7009 64.0282,138.8742 67.2258,140.0475 69.0766,140.7266 70.0299,142.7571 69.3506,144.6083 68.766,146.2016 67.1868,147.1203 65.5757,146.9313" stroke="black" stroke-width="1" /><polyline fill="none" points="59.9666,131.011 58.1871,130.1613 57.4355,128.0353 58.285,126.2559 59.1422,124.4607 61.3136,123.6927 63.093,124.5423 63.7902,124.8751 64.187,125.2352 64.4323,125.5993 66.9169,129.2812 69.4016,132.9631 71.8862,136.6451 72.0149,136.7065 72.1436,136.768 72.2723,136.8294 73.2919,134.6941 74.3114,132.5587 75.331,130.4233" stroke="black" stroke-width="1" /><polyline fill="none" points="73.6732,116.0274 73.6685,116.0246 73.6638,116.0218 73.6591,116.019 75.6598,117.2162 77.6605,118.4133 79.6612,119.6105 80.5858,120.1638 81.329,119.7274 81.6187,119.2431 81.2488,119.8613 80.413,120.0604 79.7786,119.6808 79.7394,119.6573 79.7003,119.6339 79.6612,119.6105 79.936,121.0544 79.8554,122.5245 79.0897,123.8041 78.4558,124.8635 76.8958,126.268 74.7333,124.974 73.6002,124.296 73.258,123.2325 73.4221,122.0917 73.4945,121.536 74.0516,119.9698 74.4236,118.9142 74.7901,117.8349 74.8063,116.7054 73.6732,116.0274 72.5258,115.3408 70.448,115.6762 69.3917,117.4415 68.3966,119.1045 68.7476,120.3534 69.2072,121.2881" stroke="black" stroke-width="1" /><polyline fill="none" points="80.9642,105.5933 80.9598,105.5901 80.9554,105.5868 80.951,105.5836 82.8308,106.9629 84.7106,108.3421 86.5904,109.7214 87.4591,110.3588 88.2399,109.9939 88.5737,109.5389 88.1475,110.1197 87.2967,110.2396 86.7006,109.8023 86.6639,109.7753 86.6271,109.7483 86.5904,109.7214 86.7287,111.1846 86.5108,112.6407 85.6287,113.843 84.8983,114.8384 83.2137,116.0906 81.1818,114.5998 80.1173,113.8187 79.8762,112.7279 80.1463,111.6074 80.2704,111.0609 80.9718,109.5538 81.441,108.5376 81.907,107.4975 82.0288,106.3744 80.9642,105.5933 79.8861,104.8023 77.786,104.9416 76.5691,106.6002 75.4226,108.1627 75.6552,109.439 76.0252,110.4126" stroke="black" stroke-width="1" /><polyline fill="none" points="79.9949,96.94 78.2266,95.3677 82.9555,90.0493 92.4515,105.1702" stroke="black" stroke-width="1" /><polyline fill="none" points="92.4858,80.5651 95.6185,83.9262 98.7512,87.2874 101.8839,90.6485 103.24,92.1035 103.1008,94.3424 101.7083,95.6403 100.3285,96.9263 98.0851,96.908 96.729,95.453 95.7004,94.3494 94.6718,93.2458 93.6433,92.1422 92.2871,90.6872 92.427,88.4486 93.8068,87.1626 95.1994,85.8647 97.442,85.8827 98.7981,87.3377" stroke="black" stroke-width="1" /><polyline fill="none" points="99.7946,78.8908 98.7062,77.4781 98.9249,75.3182 100.4601,74.1354 101.9944,72.9533 104.1012,73.2143 105.3359,74.8168 105.5311,75.0702 105.7263,75.3236 105.9215,75.577 107.8051,78.0218 105.9863,80.0718 105.7142,80.2815 105.4517,80.4837 105.1892,80.6859 104.9268,80.8881 105.1892,80.6859 105.4517,80.4837 105.7142,80.2815 106.516,79.6637 108.96,79.2961 110.4246,81.1971 110.8537,81.7541 111.2828,82.3111 111.7119,82.868 112.9254,84.4431 112.6111,86.6767 111.0355,87.8906 109.4463,89.115 107.2205,88.8383 106.007,87.2633" stroke="black" stroke-width="1" /><polyline fill="none" points="109.6814,70.4143 108.4192,68.4129 114.4387,64.6166 119.3633,81.7794" stroke="black" stroke-width="1" /><polyline fill="none" points="133.4041,73.8778 131.4594,70.0389 126.0135,72.7977 125.2592,58.7858" stroke="black" stroke-width="1" /><polyline fill="none" points="140.2781,56.2081 139.3136,60.2485 138.349,64.2889 137.3844,68.3293 136.1365,65.1601 134.8886,61.9909 133.6407,58.8216 132.9182,56.9869 133.8184,54.9186 135.6525,54.1964 137.5039,53.4674 139.5557,54.3734 140.2781,56.2081 141.526,59.3773 142.774,62.5465 144.0219,65.7158 144.7443,67.5505 143.8608,69.6115 142.0257,70.3341 140.1754,71.0627 138.1069,70.1641 137.3844,68.3293" stroke="black" stroke-width="1" /><polyline fill="none" points="147.9902,61.1465 147.4428,59.2522 148.5319,57.2771 150.4256,56.7299 152.3371,56.1774 154.2951,57.2719 154.8426,59.1662 155.1249,60.1433 155.4073,61.1204 155.6897,62.0974 156.2372,63.9918 155.1646,65.9613 153.2531,66.5137 151.3595,67.061 149.3848,65.9721 148.8374,64.0778 147.8917,60.8056 146.946,57.5334 146.0004,54.2613 145.453,52.3673 146.5423,50.3925 148.4359,49.8453 150.0674,49.3738 151.7412,50.1035 152.5418,51.5139" stroke="black" stroke-width="1" /><polyline fill="none" points="158.4264,49.7478 157.9852,47.4232 164.9771,46.0962 163.271,63.8698" stroke="black" stroke-width="1" /><polyline fill="none" points="101.9387,177.907 140.8637,108.5745 140.8637,108.5745 158.7145,203.9175 188.8365,96.1804 188.8365,96.1804 188.8365,96.1804 268.4255,140.8637 188.2428,253.3668 140.8637,108.5745" stroke="black" stroke-width="1" /><polyline fill="none" points="124.0951,114.0615 157.6324,103.0874" stroke="black" stroke-width="1" /><polyline fill="none" points="107.9428,188.1635 107.798,186.3235 107.3671,184.5287 106.6608,182.8235 105.6964,181.2497 104.4977,179.8462 103.0942,178.6475 101.5204,177.6831 99.8152,176.9768 98.0205,176.5459 96.1804,176.4011 94.3404,176.5459 92.5456,176.9768 90.8404,177.6831 89.2667,178.6475 87.8632,179.8462 86.6644,181.2497 85.7001,182.8235 84.9937,184.5287 84.5628,186.3235 84.418,188.1635 84.5628,190.0035 84.9937,191.7983 85.7001,193.5035 86.6644,195.0773 87.8632,196.4808 89.2667,197.6795 90.8404,198.6439 92.5456,199.3502 94.3404,199.7811 96.1804,199.9259 98.0205,199.7811 99.8152,199.3502 101.5204,198.6439 103.0942,197.6795 104.4977,196.4808 105.6964,195.0773 106.6608,193.5035 107.3671,191.7983 107.798,190.0035 107.9428,188.1635" stroke="black" stroke-width="1" /><polyline fill="none" points="188.5,69.0664 199.6839,69.5912 210.7696,71.161 221.6595,73.7619 232.2581,77.3712 242.4721,81.9571 252.2118,87.4792 261.3915,93.8892 269.9308,101.1306 277.7544,109.1398 284.7936,117.8464 290.9866,127.1739 296.2789,137.0404 300.6241,147.3591 303.9839,158.0393 306.3289,168.9873 307.6383,180.1067 307.9008,191.2998 307.114,202.4684 305.2847,213.5142 302.4292,224.3402 298.5725,234.8512 293.7484,244.9549 287.9994,254.5625 281.376,263.5894 273.9365,271.9565 265.7461,279.5902 256.8768,286.4234 247.4067,292.3961 237.4188,297.4556 227.0011,301.5577 216.2451,304.6663 205.2452,306.7539 194.0981,307.8023 182.9019,307.8023 171.7548,306.7539 160.7549,304.6663 149.9989,301.5577 139.5811,297.4556 129.5933,292.3961 120.1232,286.4234 111.2539,279.5902 103.0635,271.9565 95.6239,263.5894 89.0006,254.5625 83.2516,244.9549 78.4275,234.8512 74.5708,224.3402 71.7153,213.5142 69.8861,202.4684 69.0992,191.2998 69.3617,180.1067 70.6712,168.9872 73.0161,158.0393 76.3759,147.3591 80.7211,137.0404 86.0134,127.174 92.2064,117.8464 99.2457,109.1398 107.0692,101.1306 115.6085,93.8892 124.7882,87.4792 134.5279,81.957 144.7419,77.3712 155.3405,73.7619 166.2304,71.161 177.3161,69.5912 188.5,69.0664" stroke="black" stroke-width="1" />

    </g>
  </g>
  <WCB
     pausedposy="0"
     pausedposx="0"
     lastknownposy="0"
     lastknownposx="0"
     lastpathnc="0"
     lastpath="0"
     node="0"
     layer="0" />
</svg>
