<?xml version="1.0" encoding="UTF-8" standalone="no"?>
<!-- Created with Inkscape (http://www.inkscape.org/) -->

<svg
   xmlns:dc="http://purl.org/dc/elements/1.1/"
   xmlns:cc="http://creativecommons.org/ns#"
   xmlns:rdf="http://www.w3.org/1999/02/22-rdf-syntax-ns#"
   xmlns:svg="http://www.w3.org/2000/svg"
   xmlns="http://www.w3.org/2000/svg"
   xmlns:sodipodi="http://sodipodi.sourceforge.net/DTD/sodipodi-0.dtd"
   xmlns:inkscape="http://www.inkscape.org/namespaces/inkscape"
   width="100mm"
   height="100mm"
   viewBox="0 0 100 100"
   version="1.1"
   id="svg19124"
   inkscape:version="0.92.3 (2405546, 2018-03-11)"
   sodipodi:docname="inkscape_template_TMP.svg"
   shape-rendering="crispEdges">
  <sodipodi:namedview
     pagecolor="#ffffff"
     bordercolor="#666666"
     borderopacity="1"
     objecttolerance="10"
     gridtolerance="10"
     guidetolerance="10"
     inkscape:pageopacity="0"
     inkscape:pageshadow="2"
     inkscape:window-width="1568"
     inkscape:window-height="1550"
     id="namedview24021"
     showgrid="false"
     inkscape:zoom="0.62441667"
     inkscape:cx="712.66515"
     inkscape:cy="409.98265"
     inkscape:window-x="0"
     inkscape:window-y="0"
     inkscape:window-maximized="0"
     inkscape:current-layer="layer1" />
  <defs
     id="defs19118" />
  <metadata
     id="metadata19121">
    <rdf:RDF>
      <cc:Work
         rdf:about="">
        <dc:format>image/svg+xml</dc:format>
        <dc:type
           rdf:resource="http://purl.org/dc/dcmitype/StillImage" />
        <dc:title />
      </cc:Work>
    </rdf:RDF>
  </metadata>
  <g
     transform="translate(0,-197)"
     id="layer1"
     inkscape:groupmode="layer"
     inkscape:label="Layer 1">
    <g
       id="g24447"
       transform="matrix(0.26458333,0,0,0.26458333,0.10666333,197.9735)">

<polyline fill="none" points="192.1004,47.7394 189.7225,51.1455 187.3447,54.5516 184.9669,57.9577 184.9669,54.5516 184.9669,51.1455 184.9669,47.7394 184.9669,45.7676 186.5623,44.1729 188.5334,44.1729 190.5231,44.1729 192.1004,45.7676 192.1004,47.7394 192.1004,51.1455 192.1004,54.5516 192.1004,57.9577 192.1004,59.9295 190.5231,61.5235 188.5509,61.5235 186.5623,61.5235 184.9669,59.9295 184.9669,57.9577" stroke="black" stroke-width="1" /><polyline fill="none" points="197.8298,61.5877 200.7471,57.7851 198.696,53.7706 202.935,62.0679 200.7471,57.7851 203.4811,54.2207" stroke="black" stroke-width="1" /><polyline fill="none" points="211.4702,49.377 211.8028,47.625 213.5622,46.3532 215.4662,46.7146 217.3691,47.0757 218.574,48.8236 218.1968,50.811 218.1371,51.1253 218.0775,51.4396 218.0178,51.7539 217.4424,54.7859 214.7019,54.789 214.3643,54.7249 214.0388,54.6631 213.7133,54.6013 213.3878,54.5396 213.7133,54.6013 214.0388,54.6631 214.3643,54.7249 215.3588,54.9136 217.2575,56.4958 216.81,58.8534 216.6789,59.5442 216.5478,60.235 216.4167,60.9258 216.046,62.8792 214.1679,64.1285 212.2138,63.7576 210.2428,63.3836 208.9706,61.5364 209.3413,59.583" stroke="black" stroke-width="1" /><polyline fill="none" points="231.0396,54.273 227.8096,56.885 224.5796,59.497 221.3496,62.109 222.2952,58.8368 223.2409,55.5646 224.1866,52.2925 224.734,50.3981 226.7095,49.3091 228.6031,49.8564 230.5146,50.4088 231.587,52.3787 231.0396,54.273 230.0939,57.5452 229.1482,60.8173 228.2026,64.0895 227.6551,65.9838 225.6974,67.0772 223.8027,66.5297 221.8922,65.9776 220.8021,64.0033 221.3496,62.109" stroke="black" stroke-width="1" /><polyline fill="none" points="239.5838,68.2152 238.8552,70.0656 236.79,70.911 235.0191,70.2137 233.2481,69.5164 232.2982,67.4837 233.0268,65.6333 233.5795,64.2296 234.1322,62.8259 234.685,61.4222 235.4137,59.5715 237.4942,58.7329 239.2652,59.4302 241.0361,60.1275 241.9707,62.1534 241.242,64.0041" stroke="black" stroke-width="1" /><polyline fill="none" points="250.623,73.5273 249.7243,75.3013 247.5891,75.9496 245.8912,75.0895 244.1933,74.2295 243.4379,72.1168 244.3365,70.3428 245.0183,68.997 245.7,67.6512 246.3818,66.3054 247.2806,64.5311 249.4306,63.891 251.1284,64.7511 252.8263,65.6112 253.5671,67.7156 252.6682,69.4899" stroke="black" stroke-width="1" /><polyline fill="none" points="257.6599,72.3192 258.7209,70.6369 260.921,70.2007 262.5312,71.2162 264.1407,72.2313 264.6812,74.3959 263.6202,76.0783 262.8154,77.3543 262.0107,78.6304 261.2059,79.9064 260.145,81.5884 257.9584,82.034 256.3489,81.0188 254.7387,80.0034 254.1989,77.8384 255.2598,76.1563 255.255,76.1533 255.2503,76.1503 255.2456,76.1474 257.6966,72.261 260.1476,68.3747 262.5987,64.4884" stroke="black" stroke-width="1" /><polyline fill="none" points="271.8607,74.773 272.9491,73.3604 275.0934,73.021 276.6285,74.2037 278.1628,75.3858 278.4478,77.4895 277.2132,79.092 277.018,79.3454 276.8228,79.5988 276.6275,79.8522 274.744,82.297 272.2979,81.0612 272.0258,80.8515 271.7633,80.6493 271.5009,80.4471 271.2384,80.2449 271.5009,80.4471 271.7633,80.6493 272.0258,80.8515 272.8276,81.4693 273.8064,83.7387 272.3418,85.6397 271.9127,86.1967 271.4836,86.7537 271.0544,87.3107 269.8409,88.8857 267.601,89.1514 266.0254,87.9375 264.4362,86.7132 264.136,84.4904 265.3495,82.9154" stroke="black" stroke-width="1" /><polyline fill="none" points="280.1017,95.2953 278.7458,96.75 276.5145,96.78 275.1221,95.4824 273.7298,94.1847 273.5906,91.9453 274.9465,90.4906 275.9751,89.387 277.0037,88.2833 278.0323,87.1797 279.3884,85.7247 281.6315,85.7067 283.0238,87.0044 284.4161,88.3021 284.5435,90.5294 283.1874,91.9845" stroke="black" stroke-width="1" /><polyline fill="none" points="291.3659,92.3519 292.8394,91.0417 295.0906,91.174 296.4008,92.6476 297.7227,94.1343 297.5878,96.4336 296.1142,97.7438 295.5368,98.2571 295.051,98.4831 294.6203,98.5679 290.2627,99.4289 285.905,100.2898 281.5474,101.1508 281.4409,101.2455 281.3343,101.3403 281.2277,101.4351 282.8,103.2034 284.3723,104.9718 285.9446,106.7401" stroke="black" stroke-width="1" /><polyline fill="none" points="292.5807,115.4177 296.0503,112.872 292.4388,107.9499 306.1392,104.9165" stroke="black" stroke-width="1" /><polyline fill="none" points="308.2707,114.2242 312.5345,114.7711 297.8233,123.5741" stroke="black" stroke-width="1" /><polyline fill="none" points="307.5239,127.7279 309.3033,126.8783 311.4298,127.6301 312.2791,129.4089 313.1364,131.2044 312.3766,133.315 310.5972,134.1646 309.6793,134.6028 308.7615,135.041 307.8437,135.4792 306.0643,136.3288 303.946,135.5925 303.0887,133.7969 302.2394,132.0181 302.991,129.8921 304.7705,129.0425 307.8442,127.575 310.9178,126.1074 313.9916,124.6398 315.7707,123.7904 317.8969,124.5424 318.7462,126.3212 319.4779,127.8537 319.0314,129.6243 317.7708,130.6445" stroke="black" stroke-width="1" /><polyline fill="none" points="310.7295,147.3532 309.6699,147.1029 308.5508,146.6917 307.8183,144.6954 307.1625,142.9082 308.05,140.8478 309.9659,140.1448 311.366,139.6311 312.7661,139.1174 314.1662,138.6036 316.0334,137.9185 318.0422,138.9162 318.698,140.7034 319.3655,142.5227 318.4904,144.6147 316.6232,145.2999 315.9258,145.5557 315.2285,145.8116 314.5312,146.0674 313.7142,143.8407 312.8972,141.614 312.0801,139.3873" stroke="black" stroke-width="1" /><polyline fill="none" points="314.0455,158.9797 313.0139,158.6313 311.9383,158.1172 311.3959,156.061 310.9104,154.2203 311.9869,152.252 313.9602,151.7315 315.4023,151.3512 316.8443,150.9708 318.2863,150.5905 320.2095,150.0832 322.1161,151.2646 322.6016,153.1053 323.0959,154.9791 322.0287,156.98 320.1055,157.4873 319.3873,157.6768 318.6691,157.8662 317.9509,158.0556 317.346,155.7622 316.741,153.4688 316.1361,151.1753" stroke="black" stroke-width="1" /><polyline fill="none" points="322.9077,166.2631 323.0722,167.8775 324.8385,169.3688 326.7755,169.048 327.2262,168.9734 327.677,168.8987 328.1278,168.8241 329.9551,168.5215 331.1967,166.7852 330.8913,164.941 330.5888,163.114 328.8196,161.8771 327.0265,162.174 326.5757,162.2487 326.1249,162.3233 325.6742,162.398 323.8465,162.7007 322.6051,164.4361 322.9077,166.2631 323.241,168.2761 321.8612,170.1225 319.9166,170.4445 319.2512,170.5547 318.5858,170.6649 317.9204,170.7751 315.9754,171.0972 314.1072,169.7887 313.7739,167.7757 313.4433,165.7796 314.7902,163.9398 316.7352,163.6177 317.4116,163.5056 318.088,163.3936 318.7644,163.2816 320.4317,163.0055 322.4471,164.1032" stroke="black" stroke-width="1" /><polyline fill="none" points="332.6406,181.2671 332.4964,179.2201 332.3522,177.1731 332.2079,175.126 329.5114,175.316 326.8147,175.506 324.1181,175.696 325.3781,176.2603 326.1462,177.1521 326.251,178.6399 326.3956,180.6924 324.8143,182.4021 322.9164,182.5358 321.5596,182.6314 320.2028,182.727 318.846,182.8226 316.8623,182.9623 315.2963,181.4743 315.1649,179.6096 315.0348,177.7627 316.3779,176.087 318.3617,175.9472" stroke="black" stroke-width="1" /><polyline fill="none" points="319.0198,195.0233 317.0317,194.9767 315.5267,193.3291 315.5713,191.4263 315.6159,189.5236 317.197,187.9316 319.185,187.9782 320.6932,188.0135 322.2014,188.0489 323.7097,188.0843 325.6981,188.1309 327.2021,189.7953 327.1574,191.698 327.1129,193.6008 325.5329,195.176 323.5445,195.1294" stroke="black" stroke-width="1" /><polyline fill="none" points="328.7042,201.4854 330.6625,201.716 332.0594,203.4863 331.8288,205.4446 331.5961,207.4203 329.7882,208.8473 327.8299,208.6166 327.0626,208.5263 326.5709,208.3134 326.2214,208.0478 322.6824,205.3634 319.1436,202.679 315.6046,199.9946 315.463,199.9779 315.3213,199.9612 315.1797,199.9445 314.9029,202.2945 314.6262,204.6446 314.3494,206.9946" stroke="black" stroke-width="1" /><polyline fill="none" points="329.0679,220.5552 329.276,219.5836 328.8614,218.6529 327.6209,218.3872 326.4196,218.1299 325.2182,217.8726 324.0168,217.6152 323.89,218.2074 323.7631,218.7996 323.6363,219.3918 323.8805,218.2518 324.1246,217.1118 324.3688,215.9717 324.2515,216.5196 324.1342,217.0674 324.0168,217.6152 320.3232,216.8241 316.6296,216.033 312.9359,215.2418" stroke="black" stroke-width="1" /><polyline fill="none" points="317.0212,232.3151 317.0264,232.3167 317.0316,232.3184 317.0369,232.32 314.8128,231.6203 312.5887,230.9207 310.3647,230.221 309.3368,229.8977 308.7154,230.4948 308.5461,231.0331 308.7622,230.3459 309.529,229.9581 310.2342,230.18 310.2777,230.1937 310.3212,230.2074 310.3647,230.221 309.762,228.8805 309.4988,227.4319 309.9463,226.0095 310.3168,224.8317 311.5079,223.1033 313.9119,223.8596 315.1714,224.2558 315.7513,225.2106 315.8567,226.3584 315.9154,226.9156 315.7373,228.5684 315.6208,229.6816 315.515,230.8165 315.7617,231.9188 317.0212,232.3151 318.2968,232.7163 320.2398,231.9074 320.8571,229.945 321.4387,228.0964 320.8071,226.9632 320.1429,226.1609" stroke="black" stroke-width="1" /><polyline fill="none" points="307.5542,242.3896 305.7214,241.6178 304.9246,239.5334 305.6633,237.7793 306.4019,236.0251 308.4563,235.1231 310.2891,235.8949 311.6794,236.4804 313.0698,237.0658 314.4602,237.6513 316.2933,238.4232 317.0829,240.5229 316.3443,242.277 315.6056,244.0311 313.5584,244.9179 311.7253,244.146" stroke="black" stroke-width="1" /><polyline fill="none" points="309.2538,249.3242 311.0066,250.2643 311.5963,252.4284 310.6964,254.1059 309.797,255.7828 307.6757,256.4741 305.9229,255.5339 304.5935,254.8208 303.2641,254.1077 301.9346,253.3946 300.1822,252.4546 299.5841,250.3047 300.4836,248.6277 301.3834,246.9502 303.5051,246.2596 305.2576,247.1996 305.2602,247.1947 305.2628,247.1898 305.2655,247.1848 309.3145,249.3567 313.3634,251.5285 317.4124,253.7004" stroke="black" stroke-width="1" /><polyline fill="none" points="293.9823,262.7065 293.5573,261.704 293.2267,260.5586 294.4029,258.787 295.4559,257.2011 297.6421,256.6977 299.3423,257.8265 300.5847,258.6515 301.8272,259.4764 303.0696,260.3013 304.7267,261.4015 305.1106,263.6113 304.0576,265.1972 302.9857,266.8117 300.7813,267.3437 299.1243,266.2436 298.5055,265.8327 297.8867,265.4218 297.2679,265.011 298.5799,263.035 299.8918,261.059 301.2038,259.083" stroke="black" stroke-width="1" /><polyline fill="none" points="298.8748,281.4851 300.165,279.8893 301.4551,278.2935 302.7453,276.6978 300.6431,274.9981 298.541,273.2985 296.4388,271.5989 296.9757,272.8708 296.9296,274.0469 295.9919,275.2068 294.6982,276.8068 292.3758,276.9793 290.8963,275.7832 289.8386,274.928 288.7809,274.0729 287.7231,273.2177 286.1767,271.9674 286.0456,269.8112 287.2209,268.3575 288.3849,266.9178 290.51,266.6077 292.0565,267.8579" stroke="black" stroke-width="1" /><polyline fill="none" points="289.4678,291.8159 286.181,288.6053 282.8942,285.3947 279.6074,282.1841 278.1846,280.7942 278.2187,278.5513 279.5489,277.1895 280.8668,275.8403 283.1086,275.7534 284.5314,277.1432 285.6106,278.1974 286.6898,279.2516 287.769,280.3058 289.1918,281.6956 289.157,283.9383 287.839,285.2875 286.5088,286.6493 284.2678,286.7365 282.845,285.3466" stroke="black" stroke-width="1" /><polyline fill="none" points="279.6011,300.4349 281.1662,299.1076 282.7313,297.7804 284.2964,296.4532 282.548,294.3914 280.7996,292.3296 279.0511,290.2679 279.3416,291.6175 279.0769,292.7644 277.9394,293.7291 276.3701,295.0598 274.0562,294.7963 272.8257,293.3453 271.946,292.3079 271.0663,291.2705 270.1866,290.2331 268.9004,288.7164 269.1736,286.5736 270.5994,285.3646 272.0115,284.1671 274.1571,284.2586 275.4433,285.7753" stroke="black" stroke-width="1" /><polyline fill="none" points="259.1223,294.2653 261.586,297.7936 266.5914,294.2986 269.3027,308.0663" stroke="black" stroke-width="1" /><polyline fill="none" points="249.0635,302.3647 249.1373,301.2784 249.3601,300.1072 251.21,299.0584 252.866,298.1195 255.0437,298.6584 256.0503,300.4337 256.7858,301.731 257.5214,303.0284 258.257,304.3257 259.2379,306.056 258.5818,308.2008 256.9258,309.1397 255.2401,310.0955 253.0331,309.574 252.0521,307.8437 251.6858,307.1976 251.3194,306.5515 250.9531,305.9053 253.0164,304.7355 255.0797,303.5656 257.143,302.3958" stroke="black" stroke-width="1" /><polyline fill="none" points="248.2582,316.1357 247.2163,320.3063 240.1944,304.6665" stroke="black" stroke-width="1" /><polyline fill="none" points="229.3783,320.0539 228.7426,318.1873 229.7225,316.1697 231.5891,315.5341 233.4719,314.8929 235.4946,315.8879 236.1303,317.7545 236.4582,318.7175 236.7861,319.6805 237.1141,320.6435 237.7497,322.5101 236.7549,324.5335 234.888,325.1693 233.0055,325.8103 230.9978,324.8094 230.3621,322.9428 229.2641,319.7186 228.1661,316.4944 227.0681,313.2701 226.4326,311.4039 227.4123,309.386 229.2789,308.7503 230.8855,308.2032 232.5928,308.8537 233.4587,310.2253" stroke="black" stroke-width="1" /><polyline fill="none" points="223.2827,319.1569 223.7448,321.0915 222.5194,322.9701 220.6679,323.4123 218.817,323.8544 216.8909,322.7285 216.4288,320.7939 216.0784,319.3265 215.7279,317.8592 215.3775,316.3918 214.9155,314.4576 216.1247,312.5821 217.9756,312.14 219.8272,311.6978 221.7531,312.8245 222.215,314.7587 222.2205,314.7574 222.2259,314.7561 222.2314,314.7549 223.2987,319.2238 224.3661,323.6928 225.4335,328.1618" stroke="black" stroke-width="1" /><polyline fill="none" points="210.472,327.709 208.3132,331.4263 205.9096,314.4519" stroke="black" stroke-width="1" /><polyline fill="none" points="193.3557,332.5948 194.3482,332.5482 195.1424,331.9099 195.0829,330.6427 195.0254,329.4154 194.9678,328.1881 194.9102,326.9609 194.3052,326.9893 193.7003,327.0176 193.0953,327.046 194.2599,326.9914 195.4245,326.9367 196.5891,326.8821 196.0295,326.9083 195.4698,326.9346 194.9102,326.9609 194.7331,323.1876 194.5561,319.4144 194.379,315.6411" stroke="black" stroke-width="1" /><polyline fill="none" points="178.9188,318.8311 179.012,316.8446 180.6944,315.3786 182.5956,315.4678 184.4968,315.557 186.0513,317.1749 185.9581,319.1614 185.8874,320.6683 185.8167,322.1753 185.7459,323.6823 185.6527,325.6691 183.9536,327.1336 182.0524,327.0444 180.1512,326.9552 178.6134,325.3387 178.7067,323.352" stroke="black" stroke-width="1" /><polyline fill="none" points="168.0508,314.0215 167.4475,318.2823 173.492,319.1382 166.0885,331.0584" stroke="black" stroke-width="1" /><polyline fill="none" points="154.7853,314.7589 155.2472,312.8246 157.1735,311.698 159.0247,312.1401 160.8759,312.5823 162.1015,314.4617 161.6395,316.3959 161.2891,317.8633 160.9386,319.3306 160.5881,320.798 160.1261,322.7326 158.1837,323.8546 156.3324,323.4124 154.4812,322.9703 153.2718,321.0955 153.7339,319.1609" stroke="black" stroke-width="1" /><polyline fill="none" points="140.5936,317.6605 141.2292,315.7939 143.2367,314.7937 145.1033,315.4293 146.9861,316.0705 147.9812,318.0933 147.3455,319.9598 147.0176,320.9229 146.6897,321.8858 146.3617,322.8488 145.7261,324.7154 143.7031,325.7111 141.8362,325.0753 139.9537,324.4343 138.9741,322.416 139.6097,320.5494 140.7077,317.3252 141.8057,314.101 142.9037,310.8767 143.5393,309.0105 145.5469,308.0099 147.4135,308.6456 149.0201,309.1927 149.9756,310.7499 149.8244,312.365" stroke="black" stroke-width="1" /><polyline fill="none" points="129.9544,311.0148 129.9521,311.0198 129.9499,311.0247 129.9476,311.0297 130.9026,308.9028 131.8576,306.7758 132.8125,304.6488 133.2539,303.6658 132.7335,302.9789 132.2187,302.7477 132.8759,303.0428 133.1714,303.8496 132.8686,304.524 132.8499,304.5656 132.8312,304.6072 132.8125,304.6488 134.2144,304.2071 135.6838,304.1152 137.0441,304.7259 138.1705,305.2316 139.7477,306.6167 138.7155,308.9157 138.1747,310.1202 137.1586,310.5844 136.0063,310.5549 135.4461,310.5481 133.8255,310.1779 132.7336,309.9319 131.6189,309.6942 130.4952,309.8102 129.9544,311.0148 129.4067,312.2346 129.9828,314.259 131.8595,315.1016 133.6274,315.8953 134.8267,315.4006 135.7013,314.8349" stroke="black" stroke-width="1" /><polyline fill="none" points="115.7399,312.9702 116.6042,313.4603 117.6165,313.3441 118.2422,312.2405 118.8482,311.1717 119.4541,310.1029 120.0601,309.0341 119.5333,308.7354 119.0064,308.4367 118.4796,308.138 119.4938,308.7131 120.508,309.2881 121.5222,309.8631 121.0349,309.5868 120.5475,309.3105 120.0601,309.0341 121.9232,305.7482 123.7863,302.4622 125.6493,299.1762" stroke="black" stroke-width="1" /><polyline fill="none" points="110.2586,306.9689 108.904,308.9089 103.069,304.8345 116.9754,293.6353" stroke="black" stroke-width="1" /><polyline fill="none" points="104.2441,283.7615 101.4608,287.0436 106.1169,290.992 93.4959,297.1251" stroke="black" stroke-width="1" /><polyline fill="none" points="95.6939,275.453 92.6155,278.4601 96.8814,282.8272 83.7416,287.7515" stroke="black" stroke-width="1" /><polyline fill="none" points="80.9088,271.3348 80.9046,271.3382 80.9003,271.3416 80.8961,271.3451 82.7091,269.8792 84.5222,268.4134 86.3353,266.9475 87.1732,266.2701 87.0195,265.4221 86.6647,264.9833 87.1176,265.5435 87.0166,266.3967 86.4416,266.8615 86.4062,266.8902 86.3707,266.9189 86.3353,266.9475 87.7854,267.187 89.1378,267.769 90.0753,268.9286 90.8516,269.8887 91.6327,271.837 89.6729,273.4214 88.6461,274.2516 87.5299,274.2065 86.5154,273.6595 86.0187,273.4001 84.7403,272.3376 83.8774,271.6248 82.9904,270.9089 81.9356,270.5046 80.9088,271.3348 79.869,272.1755 79.4681,274.2416 80.7615,275.8414 81.9799,277.3484 83.2733,277.4491 84.3091,277.3396" stroke="black" stroke-width="1" /><polyline fill="none" points="71.7224,261.5783 73.3651,260.4876 75.5658,260.9205 76.6565,262.5632 77.7567,264.2203 77.3104,266.4299 75.6677,267.5206 74.8202,268.0833 73.9727,268.646 73.1252,269.2087 71.4824,270.2994 69.2722,269.8535 68.1813,268.2105 67.0814,266.5537 67.5371,264.3571 69.1798,263.2664 72.0174,261.3824 74.855,259.4984 77.6926,257.6144 79.335,256.5239 81.536,256.9566 82.6267,258.5993 83.5655,260.0132 83.372,261.83 82.2666,263.0171" stroke="black" stroke-width="1" /><polyline fill="none" points="68.436,252.878 67.7598,251.4029 65.607,250.5606 63.8769,251.4886 63.4743,251.7046 63.0716,251.9206 62.669,252.1366 61.0368,253.0121 60.4211,255.0559 61.3047,256.7032 62.1801,258.3351 64.2535,258.9357 65.8552,258.0766 66.2578,257.8606 66.6605,257.6446 67.0631,257.4286 68.6957,256.553 69.3114,254.5099 68.436,252.878 67.4715,251.08 68.1825,248.8874 69.9195,247.9556 70.5138,247.6368 71.1081,247.318 71.7025,246.9992 73.4398,246.0673 75.6301,246.7037 76.5946,248.5018 77.551,250.2848 76.8691,252.4606 75.1318,253.3925 74.5276,253.7166 73.9234,254.0406 73.3192,254.3647 71.8299,255.1636 69.5682,254.7742" stroke="black" stroke-width="1" /><polyline fill="none" points="65.2813,244.1618 63.4482,244.9337 61.3947,244.0317 60.6559,242.2772 59.9174,240.5235 60.7135,238.4393 62.5466,237.6674 63.937,237.0819 65.3274,236.4964 66.7177,235.9109 68.5505,235.1392 70.5984,236.0257 71.3369,237.7795 72.0756,239.534 71.2787,241.6181 69.446,242.3898 69.4481,242.395 69.4503,242.4001 69.4525,242.4053 65.2179,244.1885 60.9834,245.9716 56.7488,247.7548" stroke="black" stroke-width="1" /><polyline fill="none" points="50.4089,229.9455 50.7071,230.8933 51.5268,231.4984 52.737,231.1177 53.909,230.749 55.081,230.3803 56.253,230.0117 56.0712,229.4339 55.8895,228.8562 55.7077,228.2785 56.0576,229.3907 56.4075,230.5028 56.7573,231.615 56.5892,231.0805 56.4211,230.5461 56.253,230.0117 59.8563,228.8781 63.4596,227.7446 67.0629,226.611" stroke="black" stroke-width="1" /><polyline fill="none" points="60.0354,212.4756 61.9799,212.0591 63.8266,213.312 64.2252,215.173 64.6238,217.0341 63.4559,218.9499 61.5113,219.3663 60.0362,219.6823 58.561,219.9983 57.0858,220.3143 55.141,220.7308 53.2915,219.4614 52.8929,217.6003 52.4943,215.7393 53.665,213.8401 55.6099,213.4235" stroke="black" stroke-width="1" /><polyline fill="none" points="51.3022,200.919 53.2606,200.6884 55.0282,202.069 55.2588,204.0274 55.4914,206.0027 54.0948,207.7722 52.1364,208.0028 51.1261,208.1218 50.1158,208.2408 49.1055,208.3597 47.1472,208.5904 45.377,207.1938 45.1463,205.2352 44.9137,203.2602 46.313,201.5066 48.2713,201.2759 51.654,200.8776 55.0367,200.4792 58.4194,200.0809 60.3773,199.8503 62.1453,201.2309 62.3759,203.1892 62.5744,204.8748 61.5808,206.408 60.0582,206.9674" stroke="black" stroke-width="1" /><polyline fill="none" points="59.5314,188.0478 60.4538,188.6263 61.3806,189.3763 61.4304,191.5022 61.475,193.4053 59.9707,195.0697 57.9305,195.1175 56.4395,195.1525 54.9486,195.1874 53.4577,195.2224 51.4692,195.269 49.8893,193.677 49.8446,191.7739 49.7992,189.8365 51.302,188.1382 53.2904,188.0916 54.033,188.0742 54.7756,188.0568 55.5181,188.0394 55.5737,190.4106 55.6293,192.7818 55.6849,195.153" stroke="black" stroke-width="1" /><polyline fill="none" points="44.6717,175.0054 49.2551,175.3283 53.8384,175.6512 58.4217,175.9741 60.4058,176.1139 61.8304,177.8466 61.6967,179.7455 61.5641,181.627 59.9106,183.1432 57.9265,183.0034 56.4216,182.8974 54.9167,182.7914 53.4118,182.6853 51.4277,182.5455 50.0038,180.8126 50.1363,178.9311 50.2701,177.0322 51.9229,175.5163 53.907,175.6561" stroke="black" stroke-width="1" /><polyline fill="none" points="63.4924,165.1139 59.2469,164.4108 58.2495,170.4336 46.5061,162.7527" stroke="black" stroke-width="1" /><polyline fill="none" points="56.9199,157.3916 54.9966,156.8843 53.9204,154.9164 54.4059,153.0757 54.8912,151.2357 56.7939,150.0706 58.7171,150.5779 60.1758,150.9627 61.6345,151.3474 63.0933,151.7322 65.0162,152.2394 66.0973,154.1915 65.612,156.0315 65.1265,157.8722 63.2232,159.0368 61.3004,158.5296 61.2989,158.535 61.2975,158.5404 61.2961,158.5458 56.8533,157.374 52.4106,156.2021 47.9678,155.0303" stroke="black" stroke-width="1" /><polyline fill="none" points="57.5944,136.6327 59.9729,140.0382 62.3515,143.4438 64.73,146.8494 61.5324,145.6761 58.3348,144.5028 55.1371,143.3295 53.286,142.6503 52.3384,140.6032 53.0174,138.7527 53.7028,136.8848 55.7432,135.9534 57.5944,136.6327 60.792,137.8059 63.9896,138.9792 67.1872,140.1525 69.0384,140.8317 69.9916,142.8615 69.3122,144.713 68.6272,146.5799 66.5812,147.5286 64.73,146.8494" stroke="black" stroke-width="1" /><polyline fill="none" points="72.1026,129.0893 73.8972,129.9462 74.5954,132.0656 73.7753,133.7832 72.9553,135.5008 70.8609,136.3055 69.0663,135.4487 67.7049,134.7987 66.3435,134.1487 64.9821,133.4987 63.1872,132.6417 62.4968,130.5073 63.3169,128.7898 64.137,127.0722 66.2235,126.2823 68.0184,127.1393" stroke="black" stroke-width="1" /><polyline fill="none" points="66.4318,118.0638 64.8983,114.0479 79.6095,122.8508" stroke="black" stroke-width="1" /><polyline fill="none" points="87.5529,111.147 84.0833,108.6012 80.4718,113.5233 73.467,101.3646" stroke="black" stroke-width="1" /><polyline fill="none" points="80.9125,97.353 79.5799,96.1681 79.392,94.0052 80.6797,92.557 81.9667,91.1096 84.0852,90.9731 85.597,92.3173 85.836,92.5299 86.0751,92.7424 86.3142,92.955 88.6205,95.0057 87.2159,97.3588 86.9876,97.6156 86.7674,97.8632 86.5473,98.1108 86.3271,98.3584 86.5473,98.1108 86.7674,97.8632 86.9876,97.6156 87.6602,96.8592 89.9928,96.0423 91.7861,97.6368 92.3116,98.104 92.837,98.5713 93.3625,99.0385 94.8484,100.3596 94.956,102.6127 93.6344,104.0991 92.3014,105.5983 90.063,105.7415 88.5772,104.4204" stroke="black" stroke-width="1" /><polyline fill="none" points="94.8114,93.1984 93.467,91.7559 93.5461,89.5018 94.988,88.1579 96.4436,86.8013 98.6848,86.8928 100.0293,88.3352 100.7227,89.0792 101.4161,89.8232 102.1096,90.5673 103.454,92.0097 103.3873,94.2514 101.9317,95.608 100.4898,96.9519 98.2362,96.8729 96.8918,95.4304 94.5695,92.9388 92.2472,90.4471 89.9249,87.9555 88.5807,86.5133 88.66,84.2594 90.102,82.9155 91.3443,81.7576 93.1672,81.6522 94.5187,82.5485" stroke="black" stroke-width="1" /><polyline fill="none" points="105.3713,80.5671 106.7161,79.659 107.1953,77.3976 105.9971,75.8423 105.7183,75.4804 105.4394,75.1184 105.1606,74.7565 104.0301,73.2892 101.9132,73.0157 100.4324,74.1566 98.9654,75.2868 98.7116,77.4305 99.8209,78.8703 100.0998,79.2323 100.3786,79.5942 100.6575,79.9562 101.7881,81.4237 103.9043,81.6973 105.3713,80.5671 106.9876,79.3218 109.2669,79.665 110.4699,81.2265 110.8815,81.7607 111.2931,82.295 111.7047,82.8292 112.908,84.391 112.638,86.6558 111.0216,87.9011 109.4188,89.1359 107.1609,88.8187 105.9577,87.257 105.5392,86.7139 105.1208,86.1707 104.7023,85.6276 103.6709,84.2888 103.6855,81.9939" stroke="black" stroke-width="1" /><polyline fill="none" points="110.4498,71.3079 109.3979,69.64 109.8962,67.4408 111.5641,66.3889 113.2467,65.3277 115.4931,65.8364 116.545,67.5043 116.9571,68.1577 117.1006,68.6739 117.1139,69.1127 117.2514,73.5525 117.3888,77.9922 117.5263,82.4319 117.6023,82.5525 117.6784,82.6732 117.7545,82.7938 119.756,81.5315 121.7575,80.2692 123.7589,79.007" stroke="black" stroke-width="1" /><polyline fill="none" points="121.0855,63.5525 120.0163,61.4417 126.3648,58.2257 129.6605,75.7742" stroke="black" stroke-width="1" /><polyline fill="none" points="133.082,57.7887 132.2151,55.5871 138.8369,52.9797 140.4749,70.7597" stroke="black" stroke-width="1" /><polyline fill="none" points="151.2387,49.0711 149.2673,49.6408 147.2959,50.2106 145.3244,50.7803 146.075,53.3774 146.8255,55.9744 147.5761,58.5714 147.864,57.2212 148.5751,56.2833 150.008,55.8692 151.9846,55.2979 153.9876,56.4861 154.5159,58.3139 154.8935,59.6206 155.2711,60.9273 155.6488,62.2339 156.2009,64.1444 155.0739,65.9873 153.278,66.5063 151.4993,67.0204 149.5795,66.058 149.0274,64.1476" stroke="black" stroke-width="1" /><polyline fill="none" points="160.0271,50.4739 162.0093,46.6594 165.2059,63.5026" stroke="black" stroke-width="1" /><polyline fill="none" points="107.5229,185.0488 268.4255,140.8637 140.8637,108.5745 156.5688,130.1462 236.6952,108.8569 158.7145,203.9175 189.0084,152.2515 108.8569,140.3048 250.763,172.1919 188.2428,253.3668" stroke="black" stroke-width="1" /><polyline fill="none" points="202.2211,264.1327 174.2646,242.6008" stroke="black" stroke-width="1" /><polyline fill="none" points="107.9428,188.1635 107.798,186.3235 107.3671,184.5287 106.6608,182.8235 105.6964,181.2497 104.4977,179.8462 103.0942,178.6475 101.5204,177.6831 99.8152,176.9768 98.0205,176.5459 96.1804,176.4011 94.3404,176.5459 92.5456,176.9768 90.8404,177.6831 89.2667,178.6475 87.8632,179.8462 86.6644,181.2497 85.7001,182.8235 84.9937,184.5287 84.5628,186.3235 84.418,188.1635 84.5628,190.0035 84.9937,191.7983 85.7001,193.5035 86.6644,195.0773 87.8632,196.4808 89.2667,197.6795 90.8404,198.6439 92.5456,199.3502 94.3404,199.7811 96.1804,199.9259 98.0205,199.7811 99.8152,199.3502 101.5204,198.6439 103.0942,197.6795 104.4977,196.4808 105.6964,195.0773 106.6608,193.5035 107.3671,191.7983 107.798,190.0035 107.9428,188.1635" stroke="black" stroke-width="1" /><polyline fill="none" points="188.5,69.0664 199.6839,69.5912 210.7696,71.161 221.6595,73.7619 232.2581,77.3712 242.4721,81.9571 252.2118,87.4792 261.3915,93.8892 269.9308,101.1306 277.7544,109.1398 284.7936,117.8464 290.9866,127.1739 296.2789,137.0404 300.6241,147.3591 303.9839,158.0393 306.3289,168.9873 307.6383,180.1067 307.9008,191.2998 307.114,202.4684 305.2847,213.5142 302.4292,224.3402 298.5725,234.8512 293.7484,244.9549 287.9994,254.5625 281.376,263.5894 273.9365,271.9565 265.7461,279.5902 256.8768,286.4234 247.4067,292.3961 237.4188,297.4556 227.0011,301.5577 216.2451,304.6663 205.2452,306.7539 194.0981,307.8023 182.9019,307.8023 171.7548,306.7539 160.7549,304.6663 149.9989,301.5577 139.5811,297.4556 129.5933,292.3961 120.1232,286.4234 111.2539,279.5902 103.0635,271.9565 95.6239,263.5894 89.0006,254.5625 83.2516,244.9549 78.4275,234.8512 74.5708,224.3402 71.7153,213.5142 69.8861,202.4684 69.0992,191.2998 69.3617,180.1067 70.6712,168.9872 73.0161,158.0393 76.3759,147.3591 80.7211,137.0404 86.0134,127.174 92.2064,117.8464 99.2457,109.1398 107.0692,101.1306 115.6085,93.8892 124.7882,87.4792 134.5279,81.957 144.7419,77.3712 155.3405,73.7619 166.2304,71.161 177.3161,69.5912 188.5,69.0664" stroke="black" stroke-width="1" />

    </g>
  </g>
  <WCB
     pausedposy="0"
     pausedposx="0"
     lastknownposy="0"
     lastknownposx="0"
     lastpathnc="0"
     lastpath="0"
     node="0"
     layer="0" />
</svg>
