<?xml version="1.0" encoding="UTF-8" standalone="no"?>
<!-- Created with Inkscape (http://www.inkscape.org/) -->

<svg
   xmlns:dc="http://purl.org/dc/elements/1.1/"
   xmlns:cc="http://creativecommons.org/ns#"
   xmlns:rdf="http://www.w3.org/1999/02/22-rdf-syntax-ns#"
   xmlns:svg="http://www.w3.org/2000/svg"
   xmlns="http://www.w3.org/2000/svg"
   xmlns:sodipodi="http://sodipodi.sourceforge.net/DTD/sodipodi-0.dtd"
   xmlns:inkscape="http://www.inkscape.org/namespaces/inkscape"
   width="100mm"
   height="100mm"
   viewBox="0 0 100 100"
   version="1.1"
   id="svg19124"
   inkscape:version="0.92.3 (2405546, 2018-03-11)"
   sodipodi:docname="inkscape_template_TMP.svg"
   shape-rendering="crispEdges">
  <sodipodi:namedview
     pagecolor="#ffffff"
     bordercolor="#666666"
     borderopacity="1"
     objecttolerance="10"
     gridtolerance="10"
     guidetolerance="10"
     inkscape:pageopacity="0"
     inkscape:pageshadow="2"
     inkscape:window-width="1568"
     inkscape:window-height="1550"
     id="namedview24021"
     showgrid="false"
     inkscape:zoom="0.62441667"
     inkscape:cx="712.66515"
     inkscape:cy="409.98265"
     inkscape:window-x="0"
     inkscape:window-y="0"
     inkscape:window-maximized="0"
     inkscape:current-layer="layer1" />
  <defs
     id="defs19118" />
  <metadata
     id="metadata19121">
    <rdf:RDF>
      <cc:Work
         rdf:about="">
        <dc:format>image/svg+xml</dc:format>
        <dc:type
           rdf:resource="http://purl.org/dc/dcmitype/StillImage" />
        <dc:title />
      </cc:Work>
    </rdf:RDF>
  </metadata>
  <g
     transform="translate(0,-197)"
     id="layer1"
     inkscape:groupmode="layer"
     inkscape:label="Layer 1">
    <g
       id="g24447"
       transform="matrix(0.26458333,0,0,0.26458333,0.10666333,197.9735)">

<polyline fill="none" points="192.1004,47.7394 189.7225,51.1455 187.3447,54.5516 184.9669,57.9577 184.9669,54.5516 184.9669,51.1455 184.9669,47.7394 184.9669,45.7676 186.5623,44.1729 188.5334,44.1729 190.5231,44.1729 192.1004,45.7676 192.1004,47.7394 192.1004,51.1455 192.1004,54.5516 192.1004,57.9577 192.1004,59.9295 190.5231,61.5235 188.5509,61.5235 186.5623,61.5235 184.9669,59.9295 184.9669,57.9577" stroke="black" stroke-width="1" /><polyline fill="none" points="197.8298,61.5877 200.7471,57.7851 198.696,53.7706 202.935,62.0679 200.7471,57.7851 203.4811,54.2207" stroke="black" stroke-width="1" /><polyline fill="none" points="211.4702,49.377 211.8028,47.625 213.5622,46.3532 215.4662,46.7146 217.3691,47.0757 218.574,48.8236 218.1968,50.811 218.1371,51.1253 218.0775,51.4396 218.0178,51.7539 217.4424,54.7859 214.7019,54.789 214.3643,54.7249 214.0388,54.6631 213.7133,54.6013 213.3878,54.5396 213.7133,54.6013 214.0388,54.6631 214.3643,54.7249 215.3588,54.9136 217.2575,56.4958 216.81,58.8534 216.6789,59.5442 216.5478,60.235 216.4167,60.9258 216.046,62.8792 214.1679,64.1285 212.2138,63.7576 210.2428,63.3836 208.9706,61.5364 209.3413,59.583" stroke="black" stroke-width="1" /><polyline fill="none" points="229.2902,58.987 229.2917,58.9817 229.2932,58.9765 229.2947,58.9712 228.6474,61.211 228.0001,63.4509 227.3528,65.6907 227.0536,66.7259 227.6651,67.3332 228.2073,67.4898 227.5152,67.2898 227.1095,66.5324 227.3148,65.8222 227.3275,65.7784 227.3401,65.7345 227.3528,65.6907 226.0267,66.3247 224.5847,66.6217 223.1522,66.2077 221.966,65.8649 220.2102,64.7147 220.9099,62.2937 221.2765,61.0252 222.2174,60.4231 223.3624,60.2908 223.9182,60.219 225.5747,60.3583 226.6902,60.4488 227.8273,60.5279 228.9236,60.2555 229.2902,58.987 229.6614,57.7024 228.8072,55.7788 226.8309,55.2076 224.9691,54.6696 223.851,55.3276 223.0645,56.0103" stroke="black" stroke-width="1" /><polyline fill="none" points="241.2387,63.3757 241.2407,63.3706 241.2427,63.3655 241.2447,63.3604 240.3905,65.5298 239.5363,67.6992 238.6821,69.8686 238.2873,70.8712 238.8393,71.5331 239.3643,71.7398 238.6941,71.4759 238.3611,70.6838 238.632,69.9959 238.6487,69.9535 238.6654,69.911 238.6821,69.8686 237.3025,70.3756 235.839,70.5363 234.4515,69.99 233.3027,69.5376 231.6623,68.228 232.5856,65.8832 233.0694,64.6546 234.0626,64.1432 235.215,64.1187 235.7749,64.0993 237.4111,64.3931 238.5133,64.5876 239.638,64.7729 240.7549,64.6043 241.2387,63.3757 241.7286,62.1315 241.0583,60.1364 239.1441,59.3827 237.341,58.6727 236.1662,59.2231 235.3191,59.8292" stroke="black" stroke-width="1" /><polyline fill="none" points="249.3586,60.2315 250.4279,58.1207 256.7765,61.3367 244.5776,74.3751" stroke="black" stroke-width="1" /><polyline fill="none" points="257.6599,72.3192 258.7209,70.6369 260.921,70.2007 262.5312,71.2162 264.1407,72.2313 264.6812,74.3959 263.6202,76.0783 262.8154,77.3543 262.0107,78.6304 261.2059,79.9064 260.145,81.5884 257.9584,82.034 256.3489,81.0188 254.7387,80.0034 254.1989,77.8384 255.2598,76.1563 255.255,76.1533 255.2503,76.1503 255.2456,76.1474 257.6966,72.261 260.1476,68.3747 262.5987,64.4884" stroke="black" stroke-width="1" /><polyline fill="none" points="273.9048,82.9373 273.9081,82.933 273.9115,82.9287 273.9148,82.9243 272.4919,84.7713 271.0689,86.6182 269.646,88.4651 268.9884,89.3187 269.3349,90.1078 269.7819,90.4522 269.2113,90.0125 269.1113,89.1591 269.5625,88.5735 269.5903,88.5374 269.6182,88.5013 269.646,88.4651 268.1799,88.5692 266.7293,88.3172 265.5481,87.4072 264.57,86.6536 263.3577,84.9401 264.8957,82.9437 265.7016,81.8978 266.7977,81.6823 267.9116,81.9787 268.455,82.1155 269.9452,82.852 270.9501,83.3449 271.9791,83.8351 273.0989,83.9833 273.9048,82.9373 274.7209,81.8781 274.6308,79.7753 273.0012,78.5198 271.466,77.337 270.1846,77.5396 269.2026,77.8867" stroke="black" stroke-width="1" /><polyline fill="none" points="278.1101,87.2523 279.4662,85.7973 281.709,85.779 283.1016,87.0769 284.4937,88.3744 284.6211,90.6017 283.265,92.0568 282.2364,93.1604 281.2078,94.264 280.1792,95.3676 278.8233,96.8223 276.592,96.8523 275.1999,95.5549 273.8073,94.257 273.6807,92.0293 275.0366,90.5746 275.0325,90.5707 275.0284,90.5669 275.0243,90.5631 278.157,87.2019 281.2897,83.8408 284.4224,80.4796" stroke="black" stroke-width="1" /><polyline fill="none" points="288.427,104.2825 286.9408,105.6039 284.7165,105.4248 283.4518,104.0025 282.1872,102.5801 282.2583,100.3376 283.7444,99.0162 284.8718,98.0138 285.9993,97.0113 287.1267,96.0089 288.6131,94.6872 290.848,94.8794 292.1127,96.3017 293.3774,97.7241 293.2956,99.9536 291.8092,101.2752" stroke="black" stroke-width="1" /><polyline fill="none" points="299.8556,110.7993 299.86,110.7961 299.8644,110.7928 299.8688,110.7896 297.989,112.1688 296.1093,113.5481 294.2294,114.9274 293.3607,115.5648 293.4745,116.4191 293.8083,116.874 293.3822,116.2932 293.5231,115.4456 294.1192,115.0083 294.1559,114.9813 294.1927,114.9543 294.2294,114.9274 292.7921,114.6202 291.4685,113.9754 290.5864,112.7732 289.856,111.7777 289.1671,109.795 291.1989,108.3042 292.2635,107.5231 293.3763,107.6204 294.3641,108.2144 294.8481,108.4967 296.0753,109.618 296.9039,110.3705 297.7563,111.1272 298.791,111.5804 299.8556,110.7993 300.9337,110.0083 301.431,107.9632 300.214,106.3045 299.0676,104.7421 297.7803,104.5809 296.7405,104.6417" stroke="black" stroke-width="1" /><polyline fill="none" points="307.4896,113.2185 309.1817,112.206 311.3687,112.7558 312.3811,114.4478 313.4026,116.1549 312.8413,118.3887 311.1493,119.4012 310.4864,119.7978 309.9669,119.9293 309.5279,119.9323 305.0862,119.9656 300.6445,119.9989 296.2028,120.0323 296.0804,120.1055 295.958,120.1787 295.8356,120.252 297.0506,122.2825 298.2656,124.313 299.4807,126.3435" stroke="black" stroke-width="1" /><polyline fill="none" points="311.4496,129.8204 312.0558,131.3256 314.1668,132.2679 315.9385,131.422 316.3508,131.2251 316.7632,131.0282 317.1755,130.8314 318.847,130.0333 319.5577,128.0206 318.7523,126.3337 317.9544,124.6625 315.9114,123.9654 314.2712,124.7485 313.8589,124.9454 313.4466,125.1423 313.0342,125.3392 311.3624,126.1374 310.6517,128.1493 311.4496,129.8204 312.3287,131.6617 311.5158,133.8186 309.737,134.6679 309.1284,134.9585 308.5198,135.2491 307.9111,135.5396 306.132,136.3891 303.974,135.6507 303.0948,133.8094 302.2231,131.9836 303.0062,129.8421 304.7853,128.9927 305.404,128.6973 306.0227,128.4019 306.6414,128.1065 308.1666,127.3783 310.4075,127.8732" stroke="black" stroke-width="1" /><polyline fill="none" points="324.4967,140.6275 324.1544,139.6947 323.3072,139.1286 322.1162,139.5656 320.9628,139.9888 319.8094,140.412 318.6559,140.8353 318.8646,141.4038 319.0732,141.9724 319.2818,142.5409 318.8802,141.4464 318.4786,140.3519 318.077,139.2574 318.27,139.7833 318.463,140.3093 318.6559,140.8353 315.1097,142.1364 311.5635,143.4376 308.0173,144.7388" stroke="black" stroke-width="1" /><polyline fill="none" points="314.0455,158.9797 313.0139,158.6313 311.9383,158.1172 311.3959,156.061 310.9104,154.2203 311.9869,152.252 313.9602,151.7315 315.4023,151.3512 316.8443,150.9708 318.2863,150.5905 320.2095,150.0832 322.1161,151.2646 322.6016,153.1053 323.0959,154.9791 322.0287,156.98 320.1055,157.4873 319.3873,157.6768 318.6691,157.8662 317.9509,158.0556 317.346,155.7622 316.741,153.4688 316.1361,151.1753" stroke="black" stroke-width="1" /><polyline fill="none" points="331.5284,168.2133 326.9955,168.964 322.4625,169.7147 317.9296,170.4653 315.9673,170.7903 314.1791,169.436 313.8681,167.5579 313.5599,165.6971 314.816,163.8383 316.7783,163.5134 318.2667,163.2669 319.755,163.0204 321.2433,162.7739 323.2056,162.449 324.9932,163.8038 325.3013,165.6646 325.6124,167.5426 324.3569,169.401 322.3947,169.7259" stroke="black" stroke-width="1" /><polyline fill="none" points="323.0841,175.531 325.0682,175.3912 326.7213,176.907 326.8551,178.806 326.9888,180.7042 325.5634,182.4205 323.5793,182.5602 322.0744,182.6663 320.5695,182.7723 319.0646,182.8783 317.0809,183.0181 315.4282,181.5186 315.2944,179.6204 315.1606,177.7215 316.5869,176.0055 318.5706,175.8658 318.5702,175.8602 318.5698,175.8546 318.5694,175.849 323.1527,175.5261 327.736,175.2032 332.3194,174.8804" stroke="black" stroke-width="1" /><polyline fill="none" points="322.1404,188.074 324.1117,188.1203 325.6689,189.7519 325.6227,191.7225 325.5761,193.7117 323.9445,195.251 321.9732,195.2048 320.9564,195.181 319.9396,195.1571 318.9229,195.1333 316.9515,195.0871 315.3946,193.4729 315.4413,191.4838 315.4875,189.5132 317.1188,187.9563 319.0901,188.0025 322.4952,188.0824 325.9003,188.1622 329.3055,188.2421 331.2764,188.2883 332.8333,189.9199 332.7871,191.8905 332.7473,193.5883 331.5489,194.966 329.9633,195.3064" stroke="black" stroke-width="1" /><polyline fill="none" points="331.452,207.2514 331.5682,206.2646 331.0682,205.3768 329.8083,205.2284 328.5881,205.0847 327.3679,204.941 326.1477,204.7973 326.0769,205.3988 326.0061,206.0002 325.9352,206.6017 326.0716,205.4438 326.2079,204.2859 326.3443,203.1281 326.2788,203.6845 326.2133,204.2409 326.1477,204.7973 322.3963,204.3555 318.6448,203.9137 314.8933,203.472" stroke="black" stroke-width="1" /><polyline fill="none" points="325.3846,221.5014 322.5521,218.463 319.7196,215.4245 316.8871,212.3861 320.2176,213.0994 323.5482,213.8128 326.8787,214.5262 328.8068,214.9392 330.032,216.8332 329.6191,218.7606 329.2024,220.7062 327.3127,221.9144 325.3846,221.5014 322.0541,220.7881 318.7236,220.0747 315.3931,219.3613 313.4649,218.9483 312.2366,217.0723 312.6497,215.1438 313.0662,213.1993 314.959,211.9731 316.8871,212.3861" stroke="black" stroke-width="1" /><polyline fill="none" points="325.2678,234.5803 325.8836,232.6228 326.4994,230.6652 327.1152,228.7077 324.5365,227.8965 321.9578,227.0853 319.379,226.274 320.3446,227.2607 320.7327,228.372 320.2851,229.7947 319.6676,231.7575 317.5699,232.7689 315.755,232.198 314.4575,231.7898 313.16,231.3817 311.8625,230.9735 309.9656,230.3767 309.0536,228.4185 309.6146,226.6353 310.1702,224.8691 312.0338,223.802 313.9308,224.3988" stroke="black" stroke-width="1" /><polyline fill="none" points="314.0485,241.391 313.3265,242.8442 314.025,245.0479 315.8344,245.8098 316.2556,245.9872 316.6767,246.1645 317.0978,246.3418 318.8048,247.0606 320.7812,246.2544 321.5067,244.5316 322.2254,242.8249 321.3889,240.8349 319.7137,240.1295 319.2926,239.9522 318.8715,239.7749 318.4504,239.5975 316.743,238.8786 314.7672,239.6843 314.0485,241.391 313.2567,243.2715 311.1046,244.0971 309.288,243.3322 308.6664,243.0704 308.0449,242.8087 307.4233,242.5469 305.6063,241.7818 304.7241,239.6785 305.516,237.7979 306.3012,235.9333 308.4219,235.0956 310.2389,235.8607 310.8708,236.1268 311.5026,236.3928 312.1345,236.6589 313.6921,237.3148 314.8112,239.3184" stroke="black" stroke-width="1" /><polyline fill="none" points="314.3181,252.1603 315.8896,253.0032 316.5748,255.0632 315.6588,256.771 314.7432,258.4778 312.7143,259.1027 310.9317,258.1465 310.6498,257.9952 310.3679,257.8441 310.086,257.6928 307.3663,256.234 308.1859,253.6189 308.3483,253.3162 308.5049,253.0242 308.6615,252.7322 308.8181,252.4402 308.6615,252.7322 308.5049,253.0242 308.3483,253.3162 307.8698,254.2081 305.7908,255.5445 303.6761,254.4102 303.0565,254.0779 302.4369,253.7455 301.8173,253.4131 300.0651,252.4733 299.437,250.3069 300.3772,248.5541 301.3254,246.7863 303.4693,246.127 305.2214,247.0668" stroke="black" stroke-width="1" /><polyline fill="none" points="303.7753,269.3585 302.253,265.4935 300.7307,261.6286 299.2083,257.7636 302.0459,259.6476 304.8835,261.5316 307.7211,263.4156 309.3638,264.5063 309.8099,266.7175 308.7196,268.3597 307.619,270.0173 305.4181,270.4492 303.7753,269.3585 300.9377,267.4745 298.1002,265.5905 295.2626,263.7065 293.6199,262.6158 293.1643,260.4201 294.2552,258.7771 295.3552,257.1204 297.5656,256.6729 299.2083,257.7636" stroke="black" stroke-width="1" /><polyline fill="none" points="285.7104,270.4996 289.0569,273.2052 292.8951,268.4578 299.3224,280.9315" stroke="black" stroke-width="1" /><polyline fill="none" points="277.6047,279.2422 280.6831,282.2493 284.949,277.8822 290.18,290.903" stroke="black" stroke-width="1" /><polyline fill="none" points="274.7346,295.9293 273.4592,294.4254 273.6317,292.1892 275.1356,290.9138 276.6526,289.6274 278.8993,289.8122 280.1746,291.3161 280.8326,292.092 281.4905,292.8678 282.1485,293.6437 283.4238,295.1476 283.2395,297.3948 281.7353,298.6704 280.2186,299.9566 277.9838,299.7609 276.7084,298.257 274.5055,295.6592 272.3026,293.0614 270.0996,290.4637 268.8245,288.9601 268.9968,286.7235 270.5007,285.4482 271.7951,284.3505 273.622,284.3302 274.9302,285.2892" stroke="black" stroke-width="1" /><polyline fill="none" points="271.9575,301.905 273.0864,303.5217 272.6917,305.7419 271.075,306.8708 269.4439,308.0097 267.1762,307.6068 266.0473,305.9901 265.605,305.3567 265.4374,304.8477 265.4036,304.41 265.0582,299.9816 264.7128,295.5532 264.3674,291.1248 264.2857,291.0079 264.2041,290.8909 264.1224,290.774 262.1823,292.1287 260.2422,293.4834 258.3021,294.8381" stroke="black" stroke-width="1" /><polyline fill="none" points="248.908,300.4138 251.0304,304.1573 256.3411,301.1462 257.7513,315.1074" stroke="black" stroke-width="1" /><polyline fill="none" points="238.1349,307.5357 238.3101,306.4611 238.6416,305.3159 240.5815,304.4449 242.3182,303.6651 244.4359,304.4056 245.2718,306.2674 245.8826,307.6279 246.4935,308.9884 247.1043,310.3489 247.919,312.1635 247.0649,314.2374 245.3283,315.0171 243.5604,315.8109 241.412,315.085 240.5973,313.2704 240.2931,312.5928 239.9889,311.9153 239.6846,311.2376 241.8484,310.2661 244.0122,309.2946 246.176,308.3232" stroke="black" stroke-width="1" /><polyline fill="none" points="232.2557,326.0291 234.1982,325.3676 236.1408,324.7061 238.0833,324.0446 237.2119,321.4856 236.3404,318.9266 235.469,316.3676 235.2447,317.7298 234.5783,318.7 233.1664,319.1808 231.2187,319.8441 229.1622,318.7511 228.5489,316.9501 228.1104,315.6626 227.672,314.375 227.2335,313.0875 226.5924,311.205 227.6318,309.3113 229.4014,308.7086 231.154,308.1118 233.1169,308.9831 233.7579,310.8656" stroke="black" stroke-width="1" /><polyline fill="none" points="220.1276,321.0126 218.5288,321.2902 217.1653,323.157 217.6214,325.0665 217.7275,325.511 217.8336,325.9554 217.9398,326.3998 218.3701,328.2014 220.1893,329.3179 222.0075,328.8837 223.8087,328.4534 224.9182,326.6017 224.496,324.8339 224.3898,324.3895 224.2837,323.9451 224.1776,323.5007 223.7472,321.6988 221.9288,320.5824 220.1276,321.0126 218.143,321.4866 216.2042,320.24 215.7463,318.3228 215.5896,317.6667 215.433,317.0108 215.2763,316.3548 214.8183,314.4373 215.9922,312.4817 217.9769,312.0077 219.9448,311.5377 221.8747,312.7519 222.3327,314.6695 222.492,315.3363 222.6512,316.0032 222.8105,316.67 223.2031,318.3139 222.2498,320.4014" stroke="black" stroke-width="1" /><polyline fill="none" points="211.7021,327.3795 211.9785,329.3318 210.6231,331.134 208.6707,331.4105 206.701,331.6894 204.8602,330.3052 204.5837,328.3528 204.4754,327.5879 204.5558,327.0582 204.7235,326.6524 206.4165,322.5459 208.1096,318.4394 209.8027,314.3328 209.7827,314.1916 209.7627,314.0504 209.7427,313.9092 207.3998,314.241 205.0569,314.5727 202.714,314.9045" stroke="black" stroke-width="1" /><polyline fill="none" points="191.6378,324.2484 191.638,324.2538 191.6383,324.2593 191.6385,324.2648 191.5293,321.9358 191.42,319.6069 191.3107,317.2779 191.2602,316.2016 190.4855,315.8239 189.9218,315.8503 190.6414,315.8166 191.2696,316.4028 191.3043,317.1413 191.3064,317.1868 191.3085,317.2324 191.3107,317.2779 192.3616,316.2504 193.6309,315.5043 195.1204,315.4344 196.3537,315.3765 198.3866,315.8994 198.5047,318.4167 198.5666,319.7356 197.87,320.6089 196.8288,321.1033 196.3258,321.3503 194.7128,321.7525 193.6277,322.0265 192.5258,322.3181 191.5759,322.9294 191.6378,324.2484 191.7005,325.5841 193.1292,327.1296 195.1841,327.0331 197.1199,326.9423 197.9662,325.959 198.4907,325.0591" stroke="black" stroke-width="1" /><polyline fill="none" points="178.9855,317.118 179.6274,316.2386 180.4406,315.3668 182.5648,315.4664 184.4664,315.5557 186.0209,317.1732 185.9252,319.2117 185.8553,320.7015 185.7854,322.1912 185.7155,323.6809 185.6223,325.6677 183.9232,327.1319 182.0216,327.0427 180.0858,326.9518 178.4974,325.3334 178.5906,323.3466 178.6254,322.6046 178.6602,321.8627 178.695,321.1207 181.0643,321.2319 183.4336,321.3431 185.8028,321.4543" stroke="black" stroke-width="1" /><polyline fill="none" points="170.9582,328.3363 167.8522,331.3082 170.2559,314.3337" stroke="black" stroke-width="1" /><polyline fill="none" points="160.9268,319.2657 160.4688,321.1836 158.5471,322.3646 156.6299,321.9066 154.6946,321.4444 153.5311,319.5266 153.9892,317.6087 154.2255,316.6194 154.4617,315.6302 154.698,314.641 155.1561,312.7231 157.0605,311.5388 158.9958,312.001 160.913,312.4589 162.0937,314.3801 161.6356,316.298 160.8444,319.6109 160.0531,322.9238 159.2619,326.2367 158.8039,328.1542 156.8824,329.3348 154.9651,328.8769 153.3133,328.4824 152.2172,327.0221 152.2164,325.4003" stroke="black" stroke-width="1" /><polyline fill="none" points="143.1104,311.047 143.7514,309.1645 145.7747,308.2232 147.5764,308.8368 149.3781,309.4503 150.4222,311.4362 149.7812,313.3187 149.2949,314.7468 148.8085,316.1749 148.3222,317.603 147.681,319.4858 145.6421,320.421 143.8404,319.8074 142.0387,319.1938 141.0102,317.2141 141.6514,315.3312" stroke="black" stroke-width="1" /><polyline fill="none" points="128.7093,312.6069 129.5169,310.808 131.6093,310.0002 133.4082,310.8079 135.2227,311.6225 136.0239,313.7296 135.2163,315.5284 134.7996,316.4565 134.3829,317.3845 133.9662,318.3126 133.1586,320.1115 131.0513,320.9134 129.2521,320.1056 127.4379,319.291 126.6516,317.1899 127.4593,315.3911 128.8544,312.2838 130.2495,309.1765 131.6445,306.0693 132.4521,304.2708 134.5446,303.4626 136.3434,304.2703 137.8917,304.9654 138.6972,306.6053 138.3954,308.1991" stroke="black" stroke-width="1" /><polyline fill="none" points="118.7392,304.9941 118.7365,304.9989 118.7338,305.0037 118.7311,305.0084 119.881,302.9802 121.031,300.952 122.1809,298.9238 122.7124,297.9865 122.2586,297.2538 121.7677,296.9755 122.3944,297.3307 122.613,298.1617 122.2484,298.8048 122.2259,298.8445 122.2034,298.8842 122.1809,298.9238 123.6179,298.6153 125.0895,298.6614 126.3867,299.3968 127.4607,300.0058 128.9013,301.5324 127.6584,303.7247 127.0071,304.8733 125.952,305.2403 124.8076,305.103 124.2504,305.0437 122.6716,304.5234 121.6076,304.1763 120.52,303.8352 119.3904,303.8455 118.7392,304.9941 118.0797,306.1573 118.4636,308.2267 120.2532,309.2414 121.939,310.1972 123.1794,309.817 124.1031,309.3356" stroke="black" stroke-width="1" /><polyline fill="none" points="103.5015,305.1365 105.184,306.3114 106.8666,307.4862 108.5491,308.6611 110.0967,306.4446 111.6444,304.2282 113.1921,302.0117 111.9611,302.6368 110.7846,302.6734 109.5618,301.8195 107.8748,300.6415 107.5394,298.3369 108.6287,296.777 109.4074,295.6618 110.1861,294.5466 110.9648,293.4315 112.1033,291.801 114.245,291.5187 115.7776,292.5889 117.2957,293.6489 117.7544,295.7469 116.6158,297.3774" stroke="black" stroke-width="1" /><polyline fill="none" points="93.8072,297.2205 94.565,297.8631 95.5812,297.9377 96.4017,296.9701 97.1963,296.0331 97.9909,295.096 98.7856,294.159 98.3237,293.7673 97.8618,293.3756 97.3999,292.9839 98.2891,293.7379 99.1783,294.492 100.0675,295.2461 99.6402,294.8837 99.2129,294.5214 98.7856,294.159 101.2287,291.278 103.6718,288.3971 106.1149,285.5161" stroke="black" stroke-width="1" /><polyline fill="none" points="84.0425,287.8756 84.7368,288.5864 85.7415,288.7557 86.649,287.8693 87.5279,287.0107 88.4068,286.1522 89.2857,285.2937 88.8625,284.8605 88.4393,284.4272 88.0161,283.994 88.8308,284.828 89.6455,285.662 90.4602,286.496 90.0687,286.0953 89.6772,285.6945 89.2857,285.2937 91.9878,282.6542 94.69,280.0146 97.3921,277.3751" stroke="black" stroke-width="1" /><polyline fill="none" points="86.8499,275.2595 85.3165,276.4992 83.0736,276.2619 81.8343,274.7291 80.5833,273.1818 80.8321,270.9525 82.3655,269.7128 83.1564,269.0733 83.9473,268.4339 84.7382,267.7945 86.2716,266.5547 88.503,266.7788 89.754,268.3261 90.9932,269.8589 90.756,272.1014 89.2226,273.3412 86.574,275.4826 83.9253,277.624 81.2766,279.7655 79.7435,281.005 77.5008,280.7675 76.2615,279.2347 75.1937,277.914 75.2167,276.0882 76.2058,274.803" stroke="black" stroke-width="1" /><polyline fill="none" points="73.6248,260.8958 73.6203,260.8989 73.6157,260.9019 73.6111,260.9049 75.5535,259.6153 77.4959,258.3257 79.4382,257.036 80.3359,256.44 80.2623,255.5813 79.9501,255.1112 80.3486,255.7114 80.1681,256.5514 79.5522,256.9604 79.5142,256.9856 79.4762,257.0108 79.4382,257.036 80.8596,257.4102 82.1516,258.1163 82.9764,259.3586 83.6593,260.3871 84.2545,262.4 82.155,263.794 81.055,264.5243 79.9479,264.3749 78.9891,263.7353 78.5188,263.4306 77.3455,262.253 76.5532,261.4625 75.7372,260.6667 74.7249,260.1655 73.6248,260.8958 72.5108,261.6355 71.9182,263.655 73.0561,265.3689 74.1281,266.9833 75.4064,267.2047 76.4479,267.1927" stroke="black" stroke-width="1" /><polyline fill="none" points="59.6468,253.8109 63.6957,251.6391 67.7447,249.4672 71.7937,247.2954 73.5464,246.3552 75.6758,247.0608 76.5756,248.7383 77.4671,250.4004 76.8773,252.5649 75.1245,253.5051 73.7951,254.2182 72.4657,254.9313 71.1362,255.6444 69.3835,256.5846 67.2546,255.8784 66.363,254.2163 65.4632,252.5387 66.0526,250.3749 67.8053,249.4347" stroke="black" stroke-width="1" /><polyline fill="none" points="66.7584,243.6264 64.9411,244.3917 62.8521,243.541 62.0872,241.7243 61.315,239.8906 62.1729,237.818 63.9902,237.0527 64.9276,236.658 65.8649,236.2633 66.8022,235.8686 68.6195,235.1033 70.701,235.9381 71.4732,237.7719 72.2382,239.5885 71.3877,241.677 69.5704,242.4423 66.4313,243.7641 63.2922,245.086 60.1531,246.4079 58.3361,247.173 56.2475,246.3222 55.4825,244.5055 54.8234,242.9404 55.3524,241.1927 56.6595,240.2327" stroke="black" stroke-width="1" /><polyline fill="none" points="55.2773,234.0801 53.3963,234.6718 51.3969,233.6291 50.8052,231.7481 50.2082,229.8504 51.273,227.8081 53.154,227.2164 53.8909,226.9846 54.4267,226.9774 54.8544,227.0765 59.1824,228.0759 63.5103,229.0753 67.8383,230.0747 67.9743,230.0319 68.1104,229.9891 68.2464,229.9463 67.5363,227.6891 66.8263,225.4319 66.1162,223.1747" stroke="black" stroke-width="1" /><polyline fill="none" points="46.7972,215.8706 47.227,217.8772 47.6568,219.8838 48.0866,221.8904 50.73,221.3242 53.3733,220.758 56.0167,220.1918 54.69,219.8098 53.8044,219.0345 53.4921,217.576 53.0611,215.5641 54.3871,213.6496 56.2475,213.2511 57.5775,212.9662 58.9075,212.6814 60.2375,212.3965 62.182,211.98 63.9412,213.2337 64.3327,215.0616 64.7205,216.872 63.6255,218.7195 61.681,219.136" stroke="black" stroke-width="1" /><polyline fill="none" points="58.3548,200.3407 60.3298,200.1081 62.051,201.5284 62.2736,203.4186 62.4962,205.3088 61.154,207.1068 59.179,207.3394 57.6807,207.5158 56.1824,207.6922 54.6842,207.8687 52.7088,208.1013 50.9864,206.6643 50.7638,204.774 50.5412,202.8838 51.8846,201.1026 53.86,200.87" stroke="black" stroke-width="1" /><polyline fill="none" points="61.3242,188.8329 57.022,188.9338 57.1651,195.037 44.1955,189.6804" stroke="black" stroke-width="1" /><polyline fill="none" points="60.1404,175.973 61.0046,176.6354 61.8571,177.4688 61.7076,179.59 61.5738,181.489 59.9203,183.0051 57.8845,182.8617 56.3969,182.7569 54.9092,182.6521 53.4215,182.5473 51.4374,182.4075 50.0135,180.6745 50.1473,178.7756 50.2835,176.8425 51.9387,175.2924 53.9228,175.4322 54.6637,175.4844 55.4046,175.5366 56.1456,175.5888 55.9789,177.9548 55.8122,180.3208 55.6455,182.6868" stroke="black" stroke-width="1" /><polyline fill="none" points="46.5841,163.0688 46.4218,164.049 46.8796,164.9593 48.1311,165.1665 49.3432,165.3673 50.5554,165.568 51.7675,165.7687 51.8664,165.1713 51.9653,164.5738 52.0643,163.9763 51.8738,165.1265 51.6833,166.2767 51.4929,167.4269 51.5844,166.8742 51.6759,166.3215 51.7675,165.7687 55.4941,166.3859 59.2207,167.003 62.9474,167.6202" stroke="black" stroke-width="1" /><polyline fill="none" points="58.4166,157.8689 56.51,157.366 55.3744,155.4172 55.8771,153.5113 56.3846,151.5874 58.3291,150.4691 60.2358,150.972 61.2192,151.2314 62.2026,151.4908 63.1861,151.7502 65.0927,152.2531 66.2321,154.1848 65.7246,156.1087 65.2219,158.0146 63.2736,159.15 61.3669,158.6471 58.0735,157.7784 54.78,156.9097 51.4866,156.041 49.5803,155.5382 48.4451,153.5895 48.9478,151.6835 49.3809,150.0414 50.8666,148.9798 52.4879,149.0171" stroke="black" stroke-width="1" /><polyline fill="none" points="60.498,137.5789 62.3492,138.2581 63.3021,140.2885 62.6229,142.1397 61.9377,144.007 59.8922,144.9543 58.041,144.2751 57.086,143.9247 56.131,143.5742 55.1759,143.2238 53.3248,142.5446 52.3767,140.4988 53.0561,138.6473 53.7411,136.7804 55.7818,135.8484 57.6329,136.5276 60.8306,137.7009 64.0282,138.8742 67.2258,140.0475 69.0766,140.7266 70.0299,142.7571 69.3506,144.6083 68.766,146.2016 67.1868,147.1203 65.5757,146.9313" stroke="black" stroke-width="1" /><polyline fill="none" points="58.84,130.665 56.7048,129.6455 59.7711,123.2233 73.0919,135.1132" stroke="black" stroke-width="1" /><polyline fill="none" points="66.2935,111.4659 70.2363,113.8251 74.179,116.1844 78.1217,118.5436 79.8285,119.5649 80.3164,121.7544 79.3389,123.3879 78.3704,125.0064 76.2102,125.6117 74.5034,124.5904 73.2089,123.8158 71.9143,123.0412 70.6197,122.2665 68.913,121.2452 68.4259,119.0558 69.3943,117.4373 70.3718,115.8038 72.5313,115.1984 74.238,116.2197" stroke="black" stroke-width="1" /><polyline fill="none" points="77.1414,102.3272 78.4809,106.2592 79.8204,110.1913 81.1599,114.1233 78.4137,112.1084 75.6676,110.0935 72.9214,108.0785 71.3316,106.912 70.9897,104.6824 72.1557,103.0931 73.3328,101.4889 75.5516,101.1607 77.1414,102.3272 79.8875,104.3421 82.6337,106.357 85.3798,108.372 86.9697,109.5385 87.3218,111.753 86.1551,113.3431 84.9786,114.9465 82.7497,115.2898 81.1599,114.1233" stroke="black" stroke-width="1" /><polyline fill="none" points="80.9811,97.5851 79.5075,96.2748 79.3757,94.0237 80.6859,92.5501 82.0078,91.0634 84.307,90.9285 85.7806,92.2388 86.3579,92.7521 86.6392,93.2082 86.7738,93.626 88.1385,97.853 89.5032,102.0801 90.8679,106.3071 90.9745,106.4018 91.081,106.4966 91.1876,106.5914 92.7599,104.823 94.3323,103.0547 95.9046,101.2863" stroke="black" stroke-width="1" /><polyline fill="none" points="97.3248,85.2308 98.6692,86.6732 98.6017,88.9151 97.1592,90.2595 95.7042,91.6157 93.4514,91.5364 92.1069,90.0939 91.4133,89.3497 90.7197,88.6056 90.0261,87.8614 88.6817,86.4189 88.7605,84.1655 90.2032,82.8209 91.658,81.465 93.8995,81.5557 95.244,82.9982 97.5662,85.4899 99.8885,87.9815 102.2108,90.4731 103.555,91.9154 103.4877,94.1575 102.0453,95.5019 100.8037,96.6591 98.9798,96.765 97.628,95.8684" stroke="black" stroke-width="1" /><polyline fill="none" points="99.8187,79.1315 98.6152,77.5695 98.9055,75.3333 100.4675,74.1298 102.0434,72.9157 104.3275,73.2119 105.5309,74.7739 106.0024,75.3859 106.1937,75.8864 106.248,76.322 106.8006,80.7294 107.3532,85.1367 107.9058,89.544 107.9928,89.657 108.0799,89.77 108.1669,89.883 110.0414,88.4388 111.9159,86.9947 113.7903,85.5505" stroke="black" stroke-width="1" /><polyline fill="none" points="118.1793,70.0413 119.2312,71.7092 118.7469,73.8991 117.079,74.951 115.3967,76.0121 113.1981,75.5141 112.1462,73.8463 111.6035,72.9858 111.0609,72.1253 110.5182,71.2649 109.4663,69.597 109.9639,67.3979 111.632,66.3458 113.3141,65.2849 115.4994,65.792 116.5513,67.4599 118.3683,70.3409 120.1852,73.2218 122.0022,76.1028 123.0539,77.7704 122.5697,79.9606 120.9019,81.0125 119.4663,81.9179 117.6546,81.6818 116.4938,80.5489" stroke="black" stroke-width="1" /><polyline fill="none" points="133.4041,73.8778 131.4594,70.0389 126.0135,72.7977 125.2592,58.7858" stroke="black" stroke-width="1" /><polyline fill="none" points="144.4991,67.2686 144.2737,68.3339 143.8889,69.4623 141.9103,70.2414 140.139,70.9389 138.0583,70.0999 137.3106,68.2011 136.7642,66.8134 136.2178,65.4257 135.6714,64.0381 134.9427,62.1874 135.893,60.1557 137.6643,59.4583 139.4675,58.7483 141.5795,59.5741 142.3082,61.4248 142.5803,62.1159 142.8524,62.807 143.1246,63.4981 140.9176,64.3671 138.7107,65.2361 136.5038,66.1051" stroke="black" stroke-width="1" /><polyline fill="none" points="155.7428,65.6148 154.548,61.4806 148.6832,63.1756 150.5548,49.2687" stroke="black" stroke-width="1" /><polyline fill="none" points="166.3607,54.5324 166.3597,54.5271 166.3586,54.5217 166.3576,54.5163 166.7924,56.8069 167.2271,59.0975 167.6618,61.3882 167.8627,62.4468 168.6827,62.7122 169.2371,62.6069 168.5293,62.7413 167.8252,62.2489 167.6873,61.5226 167.6788,61.4778 167.6703,61.433 167.6618,61.3882 166.7654,62.5529 165.6132,63.4696 164.1482,63.7476 162.9352,63.9778 160.8491,63.7452 160.3792,61.2693 160.133,59.9721 160.7003,59.0097 161.6619,58.3743 162.1252,58.0591 163.6659,57.4348 164.702,57.0113 165.752,56.5681 166.6069,55.8297 166.3607,54.5324 166.1113,53.2187 164.4801,51.8888 162.4589,52.2724 160.555,52.6337 159.8549,53.7259 159.4618,54.6905" stroke="black" stroke-width="1" /><polyline fill="none" points="228.6356,228.227 96.1804,188.1635 158.7145,203.9175 189.0084,152.2515 220.8597,130.6987 126.744,171.7336 189.0084,152.2515 239.8942,231.6324 140.3048,268.1431 189.0084,152.2515" stroke="black" stroke-width="1" /><polyline fill="none" points="172.7428,145.4158 205.2741,159.0871" stroke="black" stroke-width="1" /><polyline fill="none" points="251.6566,231.6324 251.5118,229.7924 251.0809,227.9976 250.3746,226.2924 249.4102,224.7187 248.2115,223.3152 246.808,222.1164 245.2343,221.152 243.529,220.4457 241.7343,220.0148 239.8942,219.87 238.0542,220.0148 236.2594,220.4457 234.5542,221.152 232.9805,222.1164 231.577,223.3152 230.3783,224.7187 229.4139,226.2924 228.7075,227.9977 228.2766,229.7924 228.1318,231.6324 228.2766,233.4725 228.7075,235.2672 229.4139,236.9724 230.3783,238.5462 231.577,239.9497 232.9805,241.1484 234.5542,242.1128 236.2594,242.8191 238.0542,243.25 239.8942,243.3948 241.7343,243.25 243.529,242.8191 245.2343,242.1128 246.808,241.1484 248.2115,239.9497 249.4102,238.5462 250.3746,236.9724 251.0809,235.2672 251.5118,233.4725 251.6566,231.6324" stroke="black" stroke-width="1" /><polyline fill="none" points="188.5,69.0664 199.6839,69.5912 210.7696,71.161 221.6595,73.7619 232.2581,77.3712 242.4721,81.9571 252.2118,87.4792 261.3915,93.8892 269.9308,101.1306 277.7544,109.1398 284.7936,117.8464 290.9866,127.1739 296.2789,137.0404 300.6241,147.3591 303.9839,158.0393 306.3289,168.9873 307.6383,180.1067 307.9008,191.2998 307.114,202.4684 305.2847,213.5142 302.4292,224.3402 298.5725,234.8512 293.7484,244.9549 287.9994,254.5625 281.376,263.5894 273.9365,271.9565 265.7461,279.5902 256.8768,286.4234 247.4067,292.3961 237.4188,297.4556 227.0011,301.5577 216.2451,304.6663 205.2452,306.7539 194.0981,307.8023 182.9019,307.8023 171.7548,306.7539 160.7549,304.6663 149.9989,301.5577 139.5811,297.4556 129.5933,292.3961 120.1232,286.4234 111.2539,279.5902 103.0635,271.9565 95.6239,263.5894 89.0006,254.5625 83.2516,244.9549 78.4275,234.8512 74.5708,224.3402 71.7153,213.5142 69.8861,202.4684 69.0992,191.2998 69.3617,180.1067 70.6712,168.9872 73.0161,158.0393 76.3759,147.3591 80.7211,137.0404 86.0134,127.174 92.2064,117.8464 99.2457,109.1398 107.0692,101.1306 115.6085,93.8892 124.7882,87.4792 134.5279,81.957 144.7419,77.3712 155.3405,73.7619 166.2304,71.161 177.3161,69.5912 188.5,69.0664" stroke="black" stroke-width="1" />

    </g>
  </g>
  <WCB
     pausedposy="0"
     pausedposx="0"
     lastknownposy="0"
     lastknownposx="0"
     lastpathnc="0"
     lastpath="0"
     node="0"
     layer="0" />
</svg>
