<?xml version="1.0" encoding="UTF-8" standalone="no"?>
<!-- Created with Inkscape (http://www.inkscape.org/) -->

<svg
   xmlns:dc="http://purl.org/dc/elements/1.1/"
   xmlns:cc="http://creativecommons.org/ns#"
   xmlns:rdf="http://www.w3.org/1999/02/22-rdf-syntax-ns#"
   xmlns:svg="http://www.w3.org/2000/svg"
   xmlns="http://www.w3.org/2000/svg"
   xmlns:sodipodi="http://sodipodi.sourceforge.net/DTD/sodipodi-0.dtd"
   xmlns:inkscape="http://www.inkscape.org/namespaces/inkscape"
   width="100mm"
   height="100mm"
   viewBox="0 0 100 100"
   version="1.1"
   id="svg19124"
   inkscape:version="0.92.3 (2405546, 2018-03-11)"
   sodipodi:docname="inkscape_template_TMP.svg"
   shape-rendering="crispEdges">
  <sodipodi:namedview
     pagecolor="#ffffff"
     bordercolor="#666666"
     borderopacity="1"
     objecttolerance="10"
     gridtolerance="10"
     guidetolerance="10"
     inkscape:pageopacity="0"
     inkscape:pageshadow="2"
     inkscape:window-width="1568"
     inkscape:window-height="1550"
     id="namedview24021"
     showgrid="false"
     inkscape:zoom="0.62441667"
     inkscape:cx="712.66515"
     inkscape:cy="409.98265"
     inkscape:window-x="0"
     inkscape:window-y="0"
     inkscape:window-maximized="0"
     inkscape:current-layer="layer1" />
  <defs
     id="defs19118" />
  <metadata
     id="metadata19121">
    <rdf:RDF>
      <cc:Work
         rdf:about="">
        <dc:format>image/svg+xml</dc:format>
        <dc:type
           rdf:resource="http://purl.org/dc/dcmitype/StillImage" />
        <dc:title />
      </cc:Work>
    </rdf:RDF>
  </metadata>
  <g
     transform="translate(0,-197)"
     id="layer1"
     inkscape:groupmode="layer"
     inkscape:label="Layer 1">
    <g
       id="g24447"
       transform="matrix(0.26458333,0,0,0.26458333,0.10666333,197.9735)">

<polyline fill="none" points="192.1004,47.7394 189.7225,51.1455 187.3447,54.5516 184.9669,57.9577 184.9669,54.5516 184.9669,51.1455 184.9669,47.7394 184.9669,45.7676 186.5623,44.1729 188.5334,44.1729 190.5231,44.1729 192.1004,45.7676 192.1004,47.7394 192.1004,51.1455 192.1004,54.5516 192.1004,57.9577 192.1004,59.9295 190.5231,61.5235 188.5509,61.5235 186.5623,61.5235 184.9669,59.9295 184.9669,57.9577" stroke="black" stroke-width="1" /><polyline fill="none" points="197.8298,61.5877 200.7471,57.7851 198.696,53.7706 202.935,62.0679 200.7471,57.7851 203.4811,54.2207" stroke="black" stroke-width="1" /><polyline fill="none" points="211.4702,49.377 211.8028,47.625 213.5622,46.3532 215.4662,46.7146 217.3691,47.0757 218.574,48.8236 218.1968,50.811 218.1371,51.1253 218.0775,51.4396 218.0178,51.7539 217.4424,54.7859 214.7019,54.789 214.3643,54.7249 214.0388,54.6631 213.7133,54.6013 213.3878,54.5396 213.7133,54.6013 214.0388,54.6631 214.3643,54.7249 215.3588,54.9136 217.2575,56.4958 216.81,58.8534 216.6789,59.5442 216.5478,60.235 216.4167,60.9258 216.046,62.8792 214.1679,64.1285 212.2138,63.7576 210.2428,63.3836 208.9706,61.5364 209.3413,59.583" stroke="black" stroke-width="1" /><polyline fill="none" points="222.6844,57.6853 223.2367,55.7745 225.2292,54.7446 227.058,55.2732 228.8861,55.8015 230.0063,57.7309 229.4541,59.6417 229.0352,61.091 228.6164,62.5403 228.1975,63.9897 227.6454,65.9001 225.6685,66.9352 223.8403,66.4069 222.0115,65.8783 220.8919,63.9483 221.444,62.0379 221.4386,62.0363 221.4333,62.0348 221.4279,62.0332 222.7036,57.6192 223.9792,53.2051 225.2549,48.7911" stroke="black" stroke-width="1" /><polyline fill="none" points="238.4333,61.7461 239.903,62.4338 242.0897,61.6838 242.809,59.8571 242.9764,59.4319 243.1438,59.0068 243.3112,58.5816 243.9898,56.8582 243.1375,54.9012 241.3982,54.2163 239.6751,53.5378 237.7053,54.4208 237.0393,56.112 236.8719,56.5371 236.7045,56.9623 236.5371,57.3875 235.8584,59.1112 236.7102,61.0676 238.4333,61.7461 240.3318,62.4936 241.2077,64.6257 240.4855,66.4598 240.2384,67.0873 239.9913,67.7149 239.7442,68.3424 239.0219,70.1768 236.9398,71.108 235.0412,70.3605 233.1586,69.6192 232.2715,67.5187 232.9938,65.6843 233.245,65.0464 233.4962,64.4084 233.7474,63.7705 234.3666,62.198 236.3433,61.0322" stroke="black" stroke-width="1" /><polyline fill="none" points="249.1933,61.2241 249.9991,59.6333 252.0425,58.9 253.7713,59.7757 255.4991,60.651 256.1714,62.6647 255.2572,64.4693 255.1127,64.7546 254.9681,65.04 254.8235,65.3254 253.4289,68.0785 250.7953,67.3205 250.4888,67.1652 250.1932,67.0155 249.8977,66.8658 249.6021,66.716 249.8977,66.8658 250.1932,67.0155 250.4888,67.1652 251.3917,67.6226 252.7765,69.6698 251.6921,71.8105 251.3744,72.4377 251.0566,73.0649 250.7389,73.6922 249.8404,75.4659 247.6893,76.1446 245.9149,75.2458 244.1253,74.3392 243.416,72.2114 244.3145,70.4377" stroke="black" stroke-width="1" /><polyline fill="none" points="261.1921,73.2796 262.5079,74.2293 264.796,73.9002 265.8433,72.2396 266.0871,71.8531 266.3308,71.4666 266.5746,71.0802 267.5626,69.5135 267.0901,67.4319 265.509,66.4347 263.9426,65.4469 261.8427,65.9471 260.8732,67.4844 260.6294,67.8709 260.3857,68.2574 260.1419,68.6438 259.1537,70.2108 259.6257,72.2917 261.1921,73.2796 262.918,74.368 263.3809,76.626 262.3294,78.2933 261.9697,78.8637 261.6099,79.4342 261.2501,80.0046 260.1984,81.6722 257.9792,82.1989 256.2533,81.1104 254.542,80.0311 254.062,77.8021 255.1137,76.1345 255.4794,75.5546 255.8452,74.9747 256.2109,74.3948 257.1125,72.9653 259.272,72.1885" stroke="black" stroke-width="1" /><polyline fill="none" points="269.9359,88.4934 268.9061,88.847 267.7402,89.0962 266.0557,87.7984 264.5477,86.6366 264.1992,84.4204 265.4447,82.8037 266.3549,81.6223 267.2651,80.4409 268.1753,79.2595 269.3892,77.6839 271.6205,77.4562 273.1285,78.618 274.6637,79.8008 275.0395,82.0371 273.8256,83.6127 273.3723,84.2011 272.9189,84.7895 272.4656,85.3779 270.5867,83.9303 268.7078,82.4827 266.8289,81.0352" stroke="black" stroke-width="1" /><polyline fill="none" points="285.1065,90.2928 283.7621,91.7353 281.521,91.8255 280.0785,90.4811 278.6235,89.125 278.5442,86.8721 279.8886,85.4297 280.5822,84.6855 281.2758,83.9413 281.9695,83.1971 283.3139,81.7546 285.5672,81.6749 287.0099,83.0195 288.4647,84.3754 288.5317,86.6178 287.1873,88.0603 284.865,90.5519 282.5427,93.0436 280.2204,95.5352 278.8762,96.9774 276.6349,97.0679 275.1924,95.7235 273.9509,94.5663 273.717,92.7543 274.5165,91.3429" stroke="black" stroke-width="1" /><polyline fill="none" points="291.6044,92.311 292.937,91.126 295.107,91.1924 296.3947,92.6406 297.6817,94.0881 297.5694,96.2081 296.0576,97.5522 295.8186,97.7648 295.5795,97.9773 295.3405,98.1899 293.0341,100.2406 290.8614,98.5704 290.6331,98.3136 290.4129,98.066 290.1927,97.8184 289.9726,97.5708 290.1927,97.8184 290.4129,98.066 290.6331,98.3136 291.3056,99.0701 291.8441,101.4822 290.0508,103.0768 289.5253,103.544 288.9998,104.0112 288.4744,104.4784 286.9885,105.7995 284.7383,105.643 283.4167,104.1565 282.0837,102.6573 282.2032,100.4176 283.6891,99.0965" stroke="black" stroke-width="1" /><polyline fill="none" points="294.5001,115.035 293.4126,115.0888 292.2234,115.0045 290.9654,113.29 289.8392,111.7552 290.1198,109.5294 291.7651,108.3221 292.9676,107.4398 294.17,106.5576 295.3724,105.6754 296.976,104.4987 299.1829,104.8995 300.309,106.4343 301.4554,107.9967 301.1956,110.2495 299.5919,111.4261 298.9931,111.8655 298.3942,112.3049 297.7953,112.7443 296.3922,110.832 294.9891,108.9197 293.586,107.0074" stroke="black" stroke-width="1" /><polyline fill="none" points="313.1853,116.1091 312.6751,115.2564 311.7372,114.8583 310.6486,115.5097 309.5944,116.1406 308.5401,116.7714 307.4858,117.4023 307.7968,117.922 308.1077,118.4416 308.4187,118.9613 307.82,117.9609 307.2214,116.9604 306.6227,115.96 306.9104,116.4408 307.1981,116.9215 307.4858,117.4023 304.2444,119.3419 301.003,121.2815 297.7616,123.2211" stroke="black" stroke-width="1" /><polyline fill="none" points="307.5239,127.7279 309.3033,126.8783 311.4298,127.6301 312.2791,129.4089 313.1364,131.2044 312.3766,133.315 310.5972,134.1646 309.6793,134.6028 308.7615,135.041 307.8437,135.4792 306.0643,136.3288 303.946,135.5925 303.0887,133.7969 302.2394,132.0181 302.991,129.8921 304.7705,129.0425 307.8442,127.575 310.9178,126.1074 313.9916,124.6398 315.7707,123.7904 317.8969,124.5424 318.7462,126.3212 319.4779,127.8537 319.0314,129.6243 317.7708,130.6445" stroke="black" stroke-width="1" /><polyline fill="none" points="317.0504,144.7708 317.0556,144.769 317.0607,144.7671 317.0659,144.7652 314.8771,145.5683 312.6882,146.3714 310.4994,147.1746 309.4878,147.5457 309.36,148.398 309.5544,148.9278 309.3062,148.2515 309.6769,147.4764 310.371,147.2217 310.4138,147.206 310.4566,147.1903 310.4994,147.1746 309.2039,146.4805 308.1113,145.4935 307.5977,144.0937 307.1723,142.9345 307.061,140.8385 309.4269,139.9704 310.6665,139.5155 311.7086,139.918 312.4926,140.7629 312.8792,141.1685 313.7468,142.5865 314.3339,143.5394 314.9427,144.503 315.8109,145.2257 317.0504,144.7708 318.3058,144.3102 319.3513,142.4836 318.6427,140.5523 317.9752,138.733 316.7832,138.2207 315.7674,137.9905" stroke="black" stroke-width="1" /><polyline fill="none" points="315.6996,158.5293 313.7767,159.0365 311.8734,157.8715 311.388,156.0312 310.9026,154.1909 311.9794,152.2225 313.9023,151.7153 315.361,151.3305 316.8198,150.9458 318.2785,150.561 320.2017,150.0537 322.1086,151.2351 322.5941,153.0754 323.0795,154.9158 321.999,156.8677 320.0758,157.375" stroke="black" stroke-width="1" /><polyline fill="none" points="331.5284,168.2133 326.9955,168.964 322.4625,169.7147 317.9296,170.4653 315.9673,170.7903 314.1791,169.436 313.8681,167.5579 313.5599,165.6971 314.816,163.8383 316.7783,163.5134 318.2667,163.2669 319.755,163.0204 321.2433,162.7739 323.2056,162.449 324.9932,163.8038 325.3013,165.6646 325.6124,167.5426 324.3569,169.401 322.3947,169.7259" stroke="black" stroke-width="1" /><polyline fill="none" points="332.6406,181.2671 332.4964,179.2201 332.3522,177.1731 332.2079,175.126 329.5114,175.316 326.8147,175.506 324.1181,175.696 325.3781,176.2603 326.1462,177.1521 326.251,178.6399 326.3956,180.6924 324.8143,182.4021 322.9164,182.5358 321.5596,182.6314 320.2028,182.727 318.846,182.8226 316.8623,182.9623 315.2963,181.4743 315.1649,179.6096 315.0348,177.7627 316.3779,176.087 318.3617,175.9472" stroke="black" stroke-width="1" /><polyline fill="none" points="322.1404,188.074 324.1117,188.1203 325.6689,189.7519 325.6227,191.7225 325.5761,193.7117 323.9445,195.251 321.9732,195.2048 320.9564,195.181 319.9396,195.1571 318.9229,195.1333 316.9515,195.0871 315.3946,193.4729 315.4413,191.4838 315.4875,189.5132 317.1188,187.9563 319.0901,188.0025 322.4952,188.0824 325.9003,188.1622 329.3055,188.2421 331.2764,188.2883 332.8333,189.9199 332.7871,191.8905 332.7473,193.5883 331.5489,194.966 329.9633,195.3064" stroke="black" stroke-width="1" /><polyline fill="none" points="331.452,207.2514 331.5682,206.2646 331.0682,205.3768 329.8083,205.2284 328.5881,205.0847 327.3679,204.941 326.1477,204.7973 326.0769,205.3988 326.0061,206.0002 325.9352,206.6017 326.0716,205.4438 326.2079,204.2859 326.3443,203.1281 326.2788,203.6845 326.2133,204.2409 326.1477,204.7973 322.3963,204.3555 318.6448,203.9137 314.8933,203.472" stroke="black" stroke-width="1" /><polyline fill="none" points="312.274,217.7198 316.482,218.6211 317.7606,212.6516 329.131,220.8746" stroke="black" stroke-width="1" /><polyline fill="none" points="317.0212,232.3151 317.0264,232.3167 317.0316,232.3184 317.0369,232.32 314.8128,231.6203 312.5887,230.9207 310.3647,230.221 309.3368,229.8977 308.7154,230.4948 308.5461,231.0331 308.7622,230.3459 309.529,229.9581 310.2342,230.18 310.2777,230.1937 310.3212,230.2074 310.3647,230.221 309.762,228.8805 309.4988,227.4319 309.9463,226.0095 310.3168,224.8317 311.5079,223.1033 313.9119,223.8596 315.1714,224.2558 315.7513,225.2106 315.8567,226.3584 315.9154,226.9156 315.7373,228.5684 315.6208,229.6816 315.515,230.8165 315.7617,231.9188 317.0212,232.3151 318.2968,232.7163 320.2398,231.9074 320.8571,229.945 321.4387,228.0964 320.8071,226.9632 320.1429,226.1609" stroke="black" stroke-width="1" /><polyline fill="none" points="320.7283,240.194 322.909,241.1122 320.1471,247.6711 306.2836,236.4187" stroke="black" stroke-width="1" /><polyline fill="none" points="309.2538,249.3242 311.0066,250.2643 311.5963,252.4284 310.6964,254.1059 309.797,255.7828 307.6757,256.4741 305.9229,255.5339 304.5935,254.8208 303.2641,254.1077 301.9346,253.3946 300.1822,252.4546 299.5841,250.3047 300.4836,248.6277 301.3834,246.9502 303.5051,246.2596 305.2576,247.1996 305.2602,247.1947 305.2628,247.1898 305.2655,247.1848 309.3145,249.3567 313.3634,251.5285 317.4124,253.7004" stroke="black" stroke-width="1" /><polyline fill="none" points="307.5492,269.8275 308.0988,268.9998 308.054,267.9818 306.9971,267.2801 305.9735,266.6005 304.95,265.921 303.9264,265.2414 303.5914,265.7459 303.2564,266.2505 302.9215,266.755 303.5663,265.7837 304.2112,264.8124 304.8561,263.8411 304.5462,264.3079 304.2363,264.7746 303.9264,265.2414 300.7795,263.152 297.6326,261.0626 294.4857,258.9732" stroke="black" stroke-width="1" /><polyline fill="none" points="287.9117,273.3251 286.3652,272.0748 286.1785,269.8511 287.3752,268.3711 288.5718,266.891 290.7958,266.5948 292.3423,267.8451 293.5154,268.7936 294.6886,269.7421 295.8618,270.6906 297.4084,271.941 297.584,274.1774 296.3875,275.6574 295.1908,277.1375 292.9779,277.4211 291.4312,276.1706" stroke="black" stroke-width="1" /><polyline fill="none" points="290.297,290.5992 290.9913,289.8884 291.1371,288.88 290.2296,287.9935 289.3507,287.135 288.4718,286.2765 287.593,285.4179 287.1698,285.8512 286.7466,286.2844 286.3234,286.7176 287.1381,285.8836 287.9528,285.0496 288.7674,284.2156 288.3759,284.6164 287.9844,285.0172 287.593,285.4179 284.8908,282.7784 282.1887,280.1389 279.4865,277.4994" stroke="black" stroke-width="1" /><polyline fill="none" points="276.5964,292.4178 275.2956,293.3879 274.9229,295.6694 276.1927,297.1667 276.4883,297.5152 276.7838,297.8637 277.0793,298.2122 278.2772,299.6248 280.4047,299.7988 281.8304,298.5898 283.2428,297.392 283.3958,295.2388 282.2202,293.8526 281.9247,293.5041 281.6292,293.1556 281.3337,292.8071 280.1355,291.3942 278.0089,291.2201 276.5964,292.4178 275.0403,293.7375 272.7474,293.5015 271.4725,291.9982 271.0363,291.4838 270.6001,290.9694 270.1639,290.455 268.8888,288.9514 269.0523,286.6764 270.6086,285.3567 272.1517,284.0481 274.422,284.2592 275.6971,285.7628 276.1406,286.2857 276.584,286.8086 277.0274,287.3315 278.1205,288.6205 278.2134,290.9136" stroke="black" stroke-width="1" /><polyline fill="none" points="268.7191,308.4739 270.4016,307.299 272.0841,306.1242 273.7666,304.9493 272.2189,302.7329 270.6713,300.5165 269.1236,298.3 269.2863,299.671 268.9155,300.7881 267.6926,301.6419 266.0056,302.8199 263.7265,302.3409 262.6373,300.7809 261.8586,299.6658 261.0799,298.5506 260.3012,297.4354 259.1627,295.8049 259.6354,293.6971 261.1681,292.6268 262.6861,291.5668 264.8137,291.8589 265.9522,293.4894" stroke="black" stroke-width="1" /><polyline fill="none" points="249.0635,302.3647 249.1373,301.2784 249.3601,300.1072 251.21,299.0584 252.866,298.1195 255.0437,298.6584 256.0503,300.4337 256.7858,301.731 257.5214,303.0284 258.257,304.3257 259.2379,306.056 258.5818,308.2008 256.9258,309.1397 255.2401,310.0955 253.0331,309.574 252.0521,307.8437 251.6858,307.1976 251.3194,306.5515 250.9531,305.9053 253.0164,304.7355 255.0797,303.5656 257.143,302.3958" stroke="black" stroke-width="1" /><polyline fill="none" points="238.1349,307.5357 238.3101,306.4611 238.6416,305.3159 240.5815,304.4449 242.3182,303.6651 244.4359,304.4056 245.2718,306.2674 245.8826,307.6279 246.4935,308.9884 247.1043,310.3489 247.919,312.1635 247.0649,314.2374 245.3283,315.0171 243.5604,315.8109 241.412,315.085 240.5973,313.2704 240.2931,312.5928 239.9889,311.9153 239.6846,311.2376 241.8484,310.2661 244.0122,309.2946 246.176,308.3232" stroke="black" stroke-width="1" /><polyline fill="none" points="232.3973,317.4687 230.8315,317.8948 229.6488,319.881 230.2817,321.7395 230.429,322.172 230.5763,322.6046 230.7236,323.037 231.3207,324.7904 233.2364,325.7317 235.006,325.1291 236.759,324.5321 237.6902,322.5847 237.1043,320.8641 236.957,320.4316 236.8097,319.9991 236.6624,319.5666 236.0652,317.8129 234.1503,316.8717 232.3973,317.4687 230.4658,318.1264 228.4188,317.0668 227.7834,315.2009 227.5659,314.5625 227.3485,313.9241 227.1311,313.2856 226.4956,311.4194 227.4813,309.3625 229.4128,308.7047 231.328,308.0525 233.3632,309.0807 233.9987,310.9469 234.2198,311.5959 234.4408,312.245 234.6618,312.894 235.2066,314.4938 234.453,316.6615" stroke="black" stroke-width="1" /><polyline fill="none" points="222.9959,317.6122 223.454,319.5302 222.2734,321.4521 220.3562,321.91 218.4209,322.3722 216.5164,321.1871 216.0583,319.2692 215.822,318.28 215.5857,317.2908 215.3495,316.3015 214.8914,314.3836 216.0551,312.4665 217.9904,312.0043 219.9076,311.5464 221.829,312.7266 222.2871,314.6446 223.0783,317.9575 223.8696,321.2703 224.6608,324.5833 225.1188,326.5008 223.9382,328.4223 222.021,328.8802 220.3692,329.2747 218.7314,328.4673 217.9978,327.021" stroke="black" stroke-width="1" /><polyline fill="none" points="203.3884,318.3319 203.1095,316.3629 204.4891,314.6089 206.3736,314.342 208.258,314.0752 210.087,315.3748 210.3658,317.3438 210.5773,318.8376 210.7888,320.3313 211.0003,321.825 211.2792,323.7944 209.8829,325.55 207.9984,325.8169 206.114,326.0837 204.3018,324.7824 204.0229,322.813" stroke="black" stroke-width="1" /><polyline fill="none" points="198.4772,329.1531 198.5607,330.9344 197.1449,332.5801 195.2091,332.671 193.2743,332.7618 191.6963,331.3416 191.6015,329.3209 191.5865,329.0014 191.5715,328.6818 191.5565,328.3623 191.4119,325.2795 194.0767,324.64 194.4199,324.6238 194.7509,324.6083 195.0818,324.5928 195.4128,324.5773 195.0818,324.5928 194.7509,324.6083 194.4199,324.6238 193.4089,324.6713 191.1945,323.5735 191.082,321.1764 191.0491,320.474 191.0161,319.7717 190.9832,319.0693 190.89,317.0833 192.4265,315.4319 194.4133,315.3386 196.4172,315.2446 198.0838,316.7457 198.1769,318.7318" stroke="black" stroke-width="1" /><polyline fill="none" points="185.2624,329.4694 185.1788,331.2507 183.615,332.7566 181.6792,332.6657 179.7445,332.575 178.3064,331.0133 178.4012,328.9926 178.4162,328.673 178.4312,328.3535 178.4462,328.0339 178.5909,324.9512 181.3039,324.564 181.6471,324.58 181.978,324.5956 182.309,324.6111 182.6399,324.6266 182.309,324.6111 181.978,324.5956 181.6471,324.58 180.636,324.5326 178.5342,323.2323 178.6467,320.8352 178.6797,320.1328 178.7126,319.4305 178.7456,318.7281 178.8388,316.742 180.5231,315.2418 182.5099,315.335 184.5139,315.429 186.0325,317.0796 185.9393,319.0657" stroke="black" stroke-width="1" /><polyline fill="none" points="172.9941,322.8154 172.7152,324.7848 170.8867,326.0838 169.0019,325.8169 167.1178,325.5501 165.7381,323.7968 166.017,321.8275 166.2285,320.3337 166.44,318.84 166.6516,317.3463 166.9304,315.3773 168.7427,314.0753 170.6268,314.342 172.5116,314.6089 173.8908,316.3629 173.612,318.3319 173.6176,318.3327 173.6231,318.3335 173.6286,318.3342 172.9844,322.8835 172.3402,327.4329 171.696,331.9821" stroke="black" stroke-width="1" /><polyline fill="none" points="155.1702,313.0883 155.9649,312.3439 156.9264,311.6391 158.9947,312.1331 160.8463,312.5753 162.0719,314.4543 161.5978,316.4393 161.2514,317.8898 160.9049,319.3404 160.5585,320.791 160.0964,322.7256 158.1541,323.8472 156.3025,323.405 154.4176,322.9548 153.1588,321.0686 153.6209,319.134 153.7934,318.4116 153.966,317.6891 154.1385,316.9667 156.4455,317.5176 158.7525,318.0687 161.0594,318.6197" stroke="black" stroke-width="1" /><polyline fill="none" points="143.1104,311.047 143.7514,309.1645 145.7747,308.2232 147.5764,308.8368 149.3781,309.4503 150.4222,311.4362 149.7812,313.3187 149.2949,314.7468 148.8085,316.1749 148.3222,317.603 147.681,319.4858 145.6421,320.421 143.8404,319.8074 142.0387,319.1938 141.0102,317.2141 141.6514,315.3312" stroke="black" stroke-width="1" /><polyline fill="none" points="127.5613,315.4369 131.1256,313.3036 134.69,311.1703 138.2543,309.0369 136.8592,312.1442 135.4641,315.2514 134.069,318.3587 133.2613,320.1576 131.1527,320.9589 129.3545,320.1516 127.5393,319.3366 126.7537,317.2358 127.5613,315.4369 128.9564,312.3297 130.3515,309.2224 131.7466,306.1151 132.5543,304.3163 134.646,303.5081 136.4452,304.3159 138.2594,305.1305 139.0619,307.2381 138.2543,309.0369" stroke="black" stroke-width="1" /><polyline fill="none" points="120.9447,312.1859 116.9659,313.8131 125.4215,298.8996" stroke="black" stroke-width="1" /><polyline fill="none" points="113.5347,291.2327 111.071,294.761 116.0764,298.2561 104.0852,305.5441" stroke="black" stroke-width="1" /><polyline fill="none" points="99.9002,298.1947 98.7469,299.5547 96.589,299.7933 95.111,298.5399 93.6338,297.2872 93.4477,295.1724 94.7561,293.6295 94.963,293.3856 95.1699,293.1416 95.3768,292.8976 97.3728,290.5438 99.7583,291.8929 100.0203,292.1151 100.273,292.3294 100.5257,292.5437 100.7784,292.758 100.5257,292.5437 100.273,292.3294 100.0203,292.1151 99.2483,291.4604 98.377,289.1476 99.9291,287.3174 100.3838,286.7811 100.8386,286.2449 101.2933,285.7086 102.5793,284.1922 104.8292,284.0317 106.3462,285.3181 107.8763,286.6157 108.0719,288.85 106.786,290.3665" stroke="black" stroke-width="1" /><polyline fill="none" points="95.4209,284.3969 94.0103,285.7748 91.755,285.7486 90.3776,284.3386 88.9872,282.9152 89.0262,280.6724 90.4367,279.2945 91.1643,278.5838 91.8918,277.8731 92.6194,277.1624 94.0299,275.7846 96.2725,275.7988 97.6629,277.2221 99.0403,278.6321 99.0141,280.887 97.6035,282.2648 95.167,284.6449 92.7305,287.025 90.2939,289.405 88.8836,290.7827 86.6285,290.7562 85.2512,289.3462 84.0645,288.1313 83.9163,286.3114 84.7808,284.9392" stroke="black" stroke-width="1" /><polyline fill="none" points="85.5796,276.1839 84.0329,277.4344 81.8096,277.138 80.6128,275.6577 79.4164,274.1779 79.6026,271.9546 81.1493,270.7041 82.3224,269.7556 83.4956,268.8071 84.6688,267.8586 86.2152,266.6083 88.4287,266.8915 89.6251,268.3713 90.8219,269.8516 90.635,272.075 89.0885,273.3253 89.0921,273.3297 89.0956,273.334 89.0991,273.3384 85.5261,276.2271 81.9531,279.1158 78.3801,282.0046" stroke="black" stroke-width="1" /><polyline fill="none" points="81.1082,256.6235 77.5231,259.0038 80.8999,264.0897 67.0723,266.4776" stroke="black" stroke-width="1" /><polyline fill="none" points="75.2009,246.2678 71.4086,248.302 74.2943,253.6817 60.304,254.7643" stroke="black" stroke-width="1" /><polyline fill="none" points="65.2813,244.1618 63.4482,244.9337 61.3947,244.0317 60.6559,242.2772 59.9174,240.5235 60.7135,238.4393 62.5466,237.6674 63.937,237.0819 65.3274,236.4964 66.7177,235.9109 68.5505,235.1392 70.5984,236.0257 71.3369,237.7795 72.0756,239.534 71.2787,241.6181 69.446,242.3898 69.4481,242.395 69.4503,242.4001 69.4525,242.4053 65.2179,244.1885 60.9834,245.9716 56.7488,247.7548" stroke="black" stroke-width="1" /><polyline fill="none" points="62.845,224.3999 64.742,223.8031 66.6978,224.8776 67.269,226.6931 67.8401,228.5087 66.8567,230.5254 64.9597,231.1222 63.5206,231.5749 62.0815,232.0276 60.6424,232.4803 58.7451,233.0772 56.7849,231.9865 56.2138,230.1709 55.6426,228.3554 56.6304,226.3549 58.5277,225.7581" stroke="black" stroke-width="1" /><polyline fill="none" points="50.1072,214.4604 53.9358,216.0721 57.7643,217.6839 61.5929,219.2956 58.2623,220.0089 54.9318,220.7223 51.6013,221.4357 49.6732,221.8486 47.7797,220.6226 47.3668,218.6952 46.9501,216.7496 48.1791,214.8734 50.1072,214.4604 53.4378,213.747 56.7683,213.0337 60.0988,212.3203 62.027,211.9073 63.9159,213.1157 64.329,215.0442 64.7455,216.9887 63.521,218.8826 61.5929,219.2956" stroke="black" stroke-width="1" /><polyline fill="none" points="53.1978,204.4125 53.1091,202.7922 51.4146,201.2197 49.4648,201.4493 49.011,201.5028 48.5572,201.5562 48.1034,201.6097 46.2639,201.8263 44.9423,203.5024 45.1609,205.3589 45.3775,207.1981 47.0867,208.5166 48.8918,208.304 49.3456,208.2506 49.7993,208.1971 50.2531,208.1437 52.093,207.927 53.4144,206.2516 53.1978,204.4125 52.9592,202.3861 54.424,200.6064 56.3816,200.3759 57.0514,200.297 57.7212,200.2181 58.391,200.1392 60.349,199.9087 62.1538,201.3033 62.3924,203.3297 62.6291,205.3391 61.1975,207.1138 59.2395,207.3443 58.5586,207.4245 57.8777,207.5047 57.1968,207.5849 55.5183,207.7826 53.5565,206.5916" stroke="black" stroke-width="1" /><polyline fill="none" points="44.331,189.9764 44.3543,190.9697 44.9738,191.7787 46.2421,191.7489 47.4704,191.7201 48.6986,191.6913 49.9269,191.6625 49.9127,191.0571 49.8985,190.4516 49.8843,189.8462 49.9117,191.0117 49.939,192.1773 49.9663,193.3428 49.9532,192.7827 49.9401,192.2226 49.9269,191.6625 53.7033,191.574 57.4796,191.4854 61.256,191.3969" stroke="black" stroke-width="1" /><polyline fill="none" points="44.8262,176.4698 44.7564,177.4609 45.2974,178.3243 46.5629,178.4135 47.7885,178.4998 49.0141,178.5862 50.2397,178.6725 50.2822,178.0684 50.3248,177.4642 50.3673,176.8601 50.2854,178.0231 50.2035,179.1861 50.1215,180.3491 50.1609,179.7902 50.2003,179.2314 50.2397,178.6725 54.0077,178.938 57.7758,179.2034 61.5438,179.4689" stroke="black" stroke-width="1" /><polyline fill="none" points="48.8768,168.7975 47.1175,168.5061 45.8048,166.7769 46.1214,164.8651 46.4378,162.9542 48.157,161.7087 50.1527,162.0392 50.4683,162.0914 50.7839,162.1437 51.0995,162.196 54.1442,162.7002 54.2115,165.4398 54.1553,165.7788 54.1012,166.1057 54.0471,166.4325 53.993,166.7594 54.0471,166.4325 54.1012,166.1057 54.1553,165.7788 54.3207,164.7802 55.8579,162.8449 58.2254,163.237 58.9191,163.3519 59.6128,163.4668 60.3064,163.5816 62.268,163.9065 63.561,165.7547 63.236,167.717 62.9082,169.6962 61.0914,171.0114 59.1299,170.6865" stroke="black" stroke-width="1" /><polyline fill="none" points="58.0663,150.7571 58.0611,150.7557 58.0558,150.7543 58.0505,150.7529 60.3049,151.3476 62.5593,151.9422 64.8137,152.5368 65.8556,152.8117 66.4483,152.1861 66.5923,151.6404 66.4085,152.337 65.6608,152.7603 64.946,152.5717 64.9019,152.5601 64.8578,152.5485 64.8137,152.5368 65.4785,153.8477 65.8093,155.2824 65.429,156.7242 65.1141,157.918 64.0053,159.7003 61.5686,159.0576 60.2919,158.7209 59.6679,157.7943 59.5088,156.6527 59.424,156.0988 59.5244,154.4395 59.5887,153.3221 59.6412,152.1835 59.3431,151.0939 58.0663,150.7571 56.7734,150.4161 54.8704,151.3152 54.3457,153.3044 53.8514,155.1782 54.5354,156.2805 55.2365,157.0509" stroke="black" stroke-width="1" /><polyline fill="none" points="68.6648,140.8277 69.3111,141.704 69.8987,142.7413 69.1662,144.7377 68.5105,146.5248 66.501,147.5223 64.5851,146.8193 63.185,146.3056 61.7849,145.7919 60.3848,145.2781 58.5175,144.593 57.6308,142.5328 58.2865,140.7457 58.954,138.9263 60.9746,137.8968 62.8418,138.5819 63.5391,138.8378 64.2364,139.0936 64.9338,139.3495 64.1167,141.5762 63.2997,143.8029 62.4827,146.0296" stroke="black" stroke-width="1" /><polyline fill="none" points="60.3724,129.8039 58.4696,125.9492 73.9405,133.3359" stroke="black" stroke-width="1" /><polyline fill="none" points="73.6732,116.0274 73.6685,116.0246 73.6638,116.0218 73.6591,116.019 75.6598,117.2162 77.6605,118.4133 79.6612,119.6105 80.5858,120.1638 81.329,119.7274 81.6187,119.2431 81.2488,119.8613 80.413,120.0604 79.7786,119.6808 79.7394,119.6573 79.7003,119.6339 79.6612,119.6105 79.936,121.0544 79.8554,122.5245 79.0897,123.8041 78.4558,124.8635 76.8958,126.268 74.7333,124.974 73.6002,124.296 73.258,123.2325 73.4221,122.0917 73.4945,121.536 74.0516,119.9698 74.4236,118.9142 74.7901,117.8349 74.8063,116.7054 73.6732,116.0274 72.5258,115.3408 70.448,115.6762 69.3917,117.4415 68.3966,119.1045 68.7476,120.3534 69.2072,121.2881" stroke="black" stroke-width="1" /><polyline fill="none" points="72.9401,108.0528 71.3503,106.8863 71.0082,104.6574 72.1747,103.0676 73.3516,101.4637 75.6281,101.1141 77.2179,102.2806 77.8408,102.7376 78.1635,103.1653 78.3366,103.5687 80.0911,107.6494 81.8457,111.73 83.6002,115.8107 83.7152,115.895 83.8302,115.9794 83.9452,116.0638 85.345,114.156 86.7448,112.2482 88.1446,110.3403" stroke="black" stroke-width="1" /><polyline fill="none" points="82.605,90.4436 81.2414,91.9771 79.8778,93.5107 78.5143,95.0442 80.5345,96.8405 82.5547,98.6368 84.5749,100.4331 84.0982,99.1374 84.1994,97.9647 85.1904,96.8501 86.5576,95.3125 88.8856,95.249 90.3074,96.5132 91.3239,97.417 92.3404,98.3208 93.3569,99.2246 94.843,100.546 94.8728,102.7059 93.6307,104.1029 92.4005,105.4866 90.2632,105.6967 88.7771,104.3753" stroke="black" stroke-width="1" /><polyline fill="none" points="89.0455,87.1817 87.4322,85.4508 92.6383,80.5986 100.6766,96.5422" stroke="black" stroke-width="1" /><polyline fill="none" points="105.3713,80.5671 106.7161,79.659 107.1953,77.3976 105.9971,75.8423 105.7183,75.4804 105.4394,75.1184 105.1606,74.7565 104.0301,73.2892 101.9132,73.0157 100.4324,74.1566 98.9654,75.2868 98.7116,77.4305 99.8209,78.8703 100.0998,79.2323 100.3786,79.5942 100.6575,79.9562 101.7881,81.4237 103.9043,81.6973 105.3713,80.5671 106.9876,79.3218 109.2669,79.665 110.4699,81.2265 110.8815,81.7607 111.2931,82.295 111.7047,82.8292 112.908,84.391 112.638,86.6558 111.0216,87.9011 109.4188,89.1359 107.1609,88.8187 105.9577,87.257 105.5392,86.7139 105.1208,86.1707 104.7023,85.6276 103.6709,84.2888 103.6855,81.9939" stroke="black" stroke-width="1" /><polyline fill="none" points="113.206,65.546 112.3656,66.076 111.9895,67.023 112.6663,68.096 113.3217,69.1352 113.9771,70.1744 114.6325,71.2136 115.1447,70.8906 115.657,70.5675 116.1692,70.2444 115.1831,70.8664 114.197,71.4883 113.2108,72.1102 113.6847,71.8114 114.1586,71.5125 114.6325,71.2136 116.6475,74.4087 118.6626,77.6037 120.6776,80.7988" stroke="black" stroke-width="1" /><polyline fill="none" points="121.0855,63.5525 120.0163,61.4417 126.3648,58.2257 129.6605,75.7742" stroke="black" stroke-width="1" /><polyline fill="none" points="141.5004,59.0068 142.2228,60.8415 141.3386,62.9028 139.5039,63.6252 137.6532,64.354 135.5861,63.4548 134.8636,61.6201 134.4909,60.6735 134.1182,59.7269 133.7455,58.7804 133.023,56.9456 133.9219,54.8778 135.757,54.1553 137.6073,53.4267 139.6598,54.3324 140.3822,56.1671 141.6302,59.3363 142.8781,62.5055 144.126,65.6748 144.8483,67.5092 143.9642,69.5708 142.1295,70.2932 140.5503,70.915 138.8144,70.3453 137.8851,69.0158" stroke="black" stroke-width="1" /><polyline fill="none" points="151.2387,49.0711 149.2673,49.6408 147.2959,50.2106 145.3244,50.7803 146.075,53.3774 146.8255,55.9744 147.5761,58.5714 147.864,57.2212 148.5751,56.2833 150.008,55.8692 151.9846,55.2979 153.9876,56.4861 154.5159,58.3139 154.8935,59.6206 155.2711,60.9273 155.6488,62.2339 156.2009,64.1444 155.0739,65.9873 153.278,66.5063 151.4993,67.0204 149.5795,66.058 149.0274,64.1476" stroke="black" stroke-width="1" /><polyline fill="none" points="167.3939,63.0873 166.5915,58.8594 160.5937,59.9977 163.7594,46.3273" stroke="black" stroke-width="1" /><polyline fill="none" points="192.9853,107.1869 239.8942,231.6324 188.2428,253.3668 126.744,171.7336 188.1635,280.8196 156.5688,130.1462 236.1363,268.4255 220.8597,130.6987 189.0084,152.2515 239.8942,231.6324" stroke="black" stroke-width="1" /><polyline fill="none" points="254.748,222.1107 225.0405,241.1541" stroke="black" stroke-width="1" /><polyline fill="none" points="200.5989,96.1804 200.4541,94.3404 200.0232,92.5456 199.3169,90.8404 198.3525,89.2667 197.1538,87.8632 195.7503,86.6644 194.1765,85.7001 192.4713,84.9937 190.6765,84.5628 188.8365,84.418 186.9964,84.5628 185.2017,84.9937 183.4965,85.7001 181.9227,86.6644 180.5192,87.8632 179.3205,89.2667 178.3561,90.8404 177.6498,92.5456 177.2189,94.3404 177.0741,96.1804 177.2189,98.0205 177.6498,99.8152 178.3561,101.5204 179.3205,103.0942 180.5192,104.4977 181.9227,105.6964 183.4965,106.6608 185.2017,107.3671 186.9964,107.798 188.8365,107.9428 190.6765,107.798 192.4713,107.3671 194.1765,106.6608 195.7503,105.6964 197.1538,104.4977 198.3525,103.0942 199.3169,101.5204 200.0232,99.8152 200.4541,98.0205 200.5989,96.1804" stroke="black" stroke-width="1" /><polyline fill="none" points="188.5,69.0664 199.6839,69.5912 210.7696,71.161 221.6595,73.7619 232.2581,77.3712 242.4721,81.9571 252.2118,87.4792 261.3915,93.8892 269.9308,101.1306 277.7544,109.1398 284.7936,117.8464 290.9866,127.1739 296.2789,137.0404 300.6241,147.3591 303.9839,158.0393 306.3289,168.9873 307.6383,180.1067 307.9008,191.2998 307.114,202.4684 305.2847,213.5142 302.4292,224.3402 298.5725,234.8512 293.7484,244.9549 287.9994,254.5625 281.376,263.5894 273.9365,271.9565 265.7461,279.5902 256.8768,286.4234 247.4067,292.3961 237.4188,297.4556 227.0011,301.5577 216.2451,304.6663 205.2452,306.7539 194.0981,307.8023 182.9019,307.8023 171.7548,306.7539 160.7549,304.6663 149.9989,301.5577 139.5811,297.4556 129.5933,292.3961 120.1232,286.4234 111.2539,279.5902 103.0635,271.9565 95.6239,263.5894 89.0006,254.5625 83.2516,244.9549 78.4275,234.8512 74.5708,224.3402 71.7153,213.5142 69.8861,202.4684 69.0992,191.2998 69.3617,180.1067 70.6712,168.9872 73.0161,158.0393 76.3759,147.3591 80.7211,137.0404 86.0134,127.174 92.2064,117.8464 99.2457,109.1398 107.0692,101.1306 115.6085,93.8892 124.7882,87.4792 134.5279,81.957 144.7419,77.3712 155.3405,73.7619 166.2304,71.161 177.3161,69.5912 188.5,69.0664" stroke="black" stroke-width="1" />

    </g>
  </g>
  <WCB
     pausedposy="0"
     pausedposx="0"
     lastknownposy="0"
     lastknownposx="0"
     lastpathnc="0"
     lastpath="0"
     node="0"
     layer="0" />
</svg>
