<?xml version="1.0" encoding="UTF-8" standalone="no"?>
<!-- Created with Inkscape (http://www.inkscape.org/) -->

<svg
   xmlns:dc="http://purl.org/dc/elements/1.1/"
   xmlns:cc="http://creativecommons.org/ns#"
   xmlns:rdf="http://www.w3.org/1999/02/22-rdf-syntax-ns#"
   xmlns:svg="http://www.w3.org/2000/svg"
   xmlns="http://www.w3.org/2000/svg"
   xmlns:sodipodi="http://sodipodi.sourceforge.net/DTD/sodipodi-0.dtd"
   xmlns:inkscape="http://www.inkscape.org/namespaces/inkscape"
   width="100mm"
   height="100mm"
   viewBox="0 0 100 100"
   version="1.1"
   id="svg19124"
   inkscape:version="0.92.3 (2405546, 2018-03-11)"
   sodipodi:docname="inkscape_template_TMP.svg"
   shape-rendering="crispEdges">
  <sodipodi:namedview
     pagecolor="#ffffff"
     bordercolor="#666666"
     borderopacity="1"
     objecttolerance="10"
     gridtolerance="10"
     guidetolerance="10"
     inkscape:pageopacity="0"
     inkscape:pageshadow="2"
     inkscape:window-width="1568"
     inkscape:window-height="1550"
     id="namedview24021"
     showgrid="false"
     inkscape:zoom="0.62441667"
     inkscape:cx="712.66515"
     inkscape:cy="409.98265"
     inkscape:window-x="0"
     inkscape:window-y="0"
     inkscape:window-maximized="0"
     inkscape:current-layer="layer1" />
  <defs
     id="defs19118" />
  <metadata
     id="metadata19121">
    <rdf:RDF>
      <cc:Work
         rdf:about="">
        <dc:format>image/svg+xml</dc:format>
        <dc:type
           rdf:resource="http://purl.org/dc/dcmitype/StillImage" />
        <dc:title />
      </cc:Work>
    </rdf:RDF>
  </metadata>
  <g
     transform="translate(0,-197)"
     id="layer1"
     inkscape:groupmode="layer"
     inkscape:label="Layer 1">
    <g
       id="g24447"
       transform="matrix(0.26458333,0,0,0.26458333,0.10666333,197.9735)">

<polyline fill="none" points="192.1004,47.7394 189.7225,51.1455 187.3447,54.5516 184.9669,57.9577 184.9669,54.5516 184.9669,51.1455 184.9669,47.7394 184.9669,45.7676 186.5623,44.1729 188.5334,44.1729 190.5231,44.1729 192.1004,45.7676 192.1004,47.7394 192.1004,51.1455 192.1004,54.5516 192.1004,57.9577 192.1004,59.9295 190.5231,61.5235 188.5509,61.5235 186.5623,61.5235 184.9669,59.9295 184.9669,57.9577" stroke="black" stroke-width="1" /><polyline fill="none" points="197.8298,61.5877 200.7471,57.7851 198.696,53.7706 202.935,62.0679 200.7471,57.7851 203.4811,54.2207" stroke="black" stroke-width="1" /><polyline fill="none" points="211.4702,49.377 211.8028,47.625 213.5622,46.3532 215.4662,46.7146 217.3691,47.0757 218.574,48.8236 218.1968,50.811 218.1371,51.1253 218.0775,51.4396 218.0178,51.7539 217.4424,54.7859 214.7019,54.789 214.3643,54.7249 214.0388,54.6631 213.7133,54.6013 213.3878,54.5396 213.7133,54.6013 214.0388,54.6631 214.3643,54.7249 215.3588,54.9136 217.2575,56.4958 216.81,58.8534 216.6789,59.5442 216.5478,60.235 216.4167,60.9258 216.046,62.8792 214.1679,64.1285 212.2138,63.7576 210.2428,63.3836 208.9706,61.5364 209.3413,59.583" stroke="black" stroke-width="1" /><polyline fill="none" points="231.8187,50.6879 230.5431,55.102 229.2674,59.516 227.9917,63.9301 227.4395,65.8409 225.4469,66.871 223.6181,66.3425 221.8061,65.8189 220.6699,63.8844 221.2221,61.9736 221.6409,60.5243 222.0598,59.075 222.4787,57.6257 223.0309,55.7149 225.0237,54.6855 226.8356,55.2092 228.6644,55.7377 229.8005,57.6713 229.2483,59.5821" stroke="black" stroke-width="1" /><polyline fill="none" points="238.4333,61.7461 239.903,62.4338 242.0897,61.6838 242.809,59.8571 242.9764,59.4319 243.1438,59.0068 243.3112,58.5816 243.9898,56.8582 243.1375,54.9012 241.3982,54.2163 239.6751,53.5378 237.7053,54.4208 237.0393,56.112 236.8719,56.5371 236.7045,56.9623 236.5371,57.3875 235.8584,59.1112 236.7102,61.0676 238.4333,61.7461 240.3318,62.4936 241.2077,64.6257 240.4855,66.4598 240.2384,67.0873 239.9913,67.7149 239.7442,68.3424 239.0219,70.1768 236.9398,71.108 235.0412,70.3605 233.1586,69.6192 232.2715,67.5187 232.9938,65.6843 233.245,65.0464 233.4962,64.4084 233.7474,63.7705 234.3666,62.198 236.3433,61.0322" stroke="black" stroke-width="1" /><polyline fill="none" points="250.0833,66.9788 251.4822,67.8012 253.7295,67.2593 254.6167,65.5079 254.8232,65.1003 255.0297,64.6927 255.2361,64.2851 256.0732,62.6328 255.4078,60.6046 253.7402,59.7598 252.0883,58.923 250.0444,59.6176 249.2231,61.239 249.0166,61.6466 248.8101,62.0542 248.6036,62.4618 247.7664,64.1144 248.4313,66.142 250.0833,66.9788 251.9035,67.9009 252.5759,70.1056 251.6851,71.864 251.3803,72.4657 251.0755,73.0673 250.7708,73.6689 249.8799,75.4277 247.7197,76.1598 245.8995,75.2378 244.0946,74.3234 243.408,72.1492 244.2989,70.3904 244.6087,69.7788 244.9186,69.1672 245.2284,68.5556 245.9921,67.048 248.0694,66.0724" stroke="black" stroke-width="1" /><polyline fill="none" points="265.1005,74.0019 264.0486,75.6697 261.8637,76.1763 260.1958,75.1244 258.5135,74.0633 258.0155,71.8648 259.0674,70.1969 259.6101,69.3365 260.1528,68.476 260.6954,67.6155 261.7473,65.9477 263.9463,65.4491 265.6144,66.5012 267.2965,67.5621 267.7805,69.7526 266.7285,71.4205 264.9116,74.3015 263.0946,77.1824 261.2776,80.0634 260.226,81.7309 258.0408,82.2378 256.373,81.1859 254.9374,80.2805 254.3698,78.5439 254.8921,77.0081" stroke="black" stroke-width="1" /><polyline fill="none" points="279.2982,76.1418 276.494,79.7815 273.6898,83.4212 270.8856,87.061 269.6717,88.6366 267.4402,88.8651 265.9322,87.7033 264.438,86.5521 264.0896,84.3359 265.3035,82.7603 266.2242,81.5652 267.145,80.3702 268.0657,79.1751 269.2796,77.5995 271.5109,77.3718 273.0051,78.5229 274.5131,79.6847 274.8617,81.9001 273.6478,83.4758" stroke="black" stroke-width="1" /><polyline fill="none" points="289.0119,84.9327 287.5107,83.5336 286.0096,82.1345 284.5084,80.7353 282.6653,82.7129 280.8221,84.6904 278.979,86.668 280.2854,86.2217 281.4554,86.3504 282.5465,87.3673 284.0517,88.7702 284.0606,91.099 282.7634,92.4908 281.836,93.4858 280.9086,94.4808 279.9813,95.4758 278.6254,96.9306 276.4653,96.9098 275.0978,95.6353 273.7434,94.3729 273.5834,92.2313 274.9393,90.7765" stroke="black" stroke-width="1" /><polyline fill="none" points="287.1973,96.0884 288.6837,94.7668 290.9185,94.9586 292.1833,96.3812 293.4478,97.8033 293.366,100.0328 291.8796,101.3545 290.7522,102.3569 289.6248,103.3593 288.4974,104.3618 287.0112,105.6832 284.7869,105.5041 283.5225,104.082 282.2576,102.6594 282.3401,100.4296 283.8262,99.1082 283.8225,99.1041 283.8188,99.0999 283.8151,99.0957 287.2487,96.0427 290.6824,92.9896 294.1161,89.9366" stroke="black" stroke-width="1" /><polyline fill="none" points="300.1586,102.3885 301.5964,101.3335 303.7506,101.6028 304.897,103.1653 306.0428,104.7269 305.7325,106.827 304.1015,108.0237 303.8436,108.2129 303.5857,108.4022 303.3278,108.5914 300.8395,110.4171 298.8327,108.5508 298.6295,108.2738 298.4335,108.0067 298.2375,107.7396 298.0415,107.4724 298.2375,107.7396 298.4335,108.0067 298.6295,108.2738 299.2283,109.0899 299.5385,111.5419 297.6037,112.9615 297.0368,113.3774 296.4699,113.7934 295.903,114.2093 294.3,115.3855 292.0743,115.0189 290.8977,113.4153 289.7109,111.7978 290.0397,109.5792 291.6427,108.4029" stroke="black" stroke-width="1" /><polyline fill="none" points="314.1503,117.2212 310.2076,119.5804 306.2649,121.9397 302.3222,124.299 300.6154,125.3203 298.4554,124.7153 297.4779,123.0817 296.5094,121.4632 296.9971,119.2735 298.7039,118.2522 299.9985,117.4775 301.293,116.7029 302.5876,115.9282 304.2943,114.9069 306.454,115.5126 307.4225,117.1311 308.3999,118.7646 307.9126,120.9537 306.2059,121.975" stroke="black" stroke-width="1" /><polyline fill="none" points="307.5239,127.7279 309.3033,126.8783 311.4298,127.6301 312.2791,129.4089 313.1364,131.2044 312.3766,133.315 310.5972,134.1646 309.6793,134.6028 308.7615,135.041 307.8437,135.4792 306.0643,136.3288 303.946,135.5925 303.0887,133.7969 302.2394,132.0181 302.991,129.8921 304.7705,129.0425 307.8442,127.575 310.9178,126.1074 313.9916,124.6398 315.7707,123.7904 317.8969,124.5424 318.7462,126.3212 319.4779,127.8537 319.0314,129.6243 317.7708,130.6445" stroke="black" stroke-width="1" /><polyline fill="none" points="312.6917,139.1405 314.5429,138.4612 316.5897,139.4089 317.2686,141.2594 317.954,143.1273 316.9999,145.1574 315.1487,145.8367 314.1939,146.187 313.2391,146.5374 312.2843,146.8877 310.4331,147.567 308.393,146.6355 307.7076,144.7675 307.0287,142.917 307.9761,140.8707 309.8273,140.1915 313.0249,139.0182 316.2225,137.8449 319.4201,136.6717 321.2709,135.9926 323.3174,136.9403 323.9964,138.7908 324.5814,140.3852 323.9711,142.1061 322.6204,143.0038" stroke="black" stroke-width="1" /><polyline fill="none" points="325.5238,156.0813 321.6239,154.6508 317.7241,153.2203 313.8242,151.7898 317.1176,150.9211 320.4111,150.0524 323.7045,149.1837 325.6111,148.6808 327.56,149.8168 328.0627,151.7227 328.5702,153.6467 327.4305,155.5784 325.5238,156.0813 322.2304,156.95 318.937,157.8187 315.6435,158.6874 313.7369,159.1903 311.7934,158.0718 311.2903,156.1648 310.7832,154.2419 311.9175,152.2927 313.8242,151.7898" stroke="black" stroke-width="1" /><polyline fill="none" points="327.9191,161.6873 330.2534,161.3007 331.4161,168.3218 313.6874,166.1996" stroke="black" stroke-width="1" /><polyline fill="none" points="324.3994,178.9469 324.412,180.5696 326.0309,182.2198 327.9894,182.0818 328.4452,182.0497 328.9009,182.0176 329.3568,181.9855 331.2044,181.8553 332.6031,180.243 332.4718,178.3782 332.3416,176.531 330.6961,175.1338 328.8831,175.2615 328.4272,175.2937 327.9715,175.3258 327.5157,175.3579 325.6677,175.4881 324.2692,177.0997 324.3994,178.9469 324.5427,180.9823 322.9961,182.6914 321.0298,182.8299 320.3571,182.8773 319.6843,182.9247 319.0116,182.9721 317.0449,183.1106 315.3074,181.6329 315.1641,179.5976 315.0219,177.5793 316.5351,175.8737 318.5017,175.7351 319.1856,175.6869 319.8696,175.6387 320.5535,175.5906 322.2394,175.4718 324.1431,176.7534" stroke="black" stroke-width="1" /><polyline fill="none" points="330.4735,188.1536 332.839,188.2091 332.6721,195.3238 315.65,189.9331" stroke="black" stroke-width="1" /><polyline fill="none" points="323.142,200.853 325.1174,201.0856 326.4589,202.8831 326.2362,204.7737 326.0137,206.6635 324.2932,208.0839 322.3179,207.8513 320.8196,207.6749 319.3213,207.4984 317.8231,207.322 315.8481,207.0894 314.5039,205.3081 314.7264,203.4182 314.9491,201.5277 316.6702,200.1077 318.6452,200.3403 318.6459,200.3348 318.6465,200.3292 318.6472,200.3237 323.2103,200.861 327.7735,201.3984 332.3367,201.9358" stroke="black" stroke-width="1" /><polyline fill="none" points="326.8722,214.5573 328.8003,214.9703 330.0253,216.8635 329.6123,218.7916 329.1956,220.7369 327.262,221.9883 325.3339,221.5753 324.5785,221.4135 324.1089,221.1555 323.7857,220.8584 320.5137,217.8543 317.2418,214.8503 313.9698,211.8463 313.8303,211.8164 313.6909,211.7866 313.5514,211.7567 313.0558,214.0705 312.5602,216.3843 312.0646,218.6981" stroke="black" stroke-width="1" /><polyline fill="none" points="310.438,230.503 309.7513,229.6579 309.1157,228.6493 309.7539,226.6208 310.3251,224.8049 312.2856,223.7143 314.2324,224.3267 315.655,224.7742 317.0776,225.2218 318.5003,225.6693 320.3976,226.2662 321.38,228.2825 320.8087,230.0984 320.2272,231.9471 318.2572,233.0702 316.3598,232.4733 315.6513,232.2505 314.9428,232.0276 314.2343,231.8047 314.946,229.5421 315.6578,227.2796 316.3695,225.017" stroke="black" stroke-width="1" /><polyline fill="none" points="304.655,240.2863 308.6211,241.9564 310.9903,236.33 320.6281,246.5289" stroke="black" stroke-width="1" /><polyline fill="none" points="314.1829,259.7214 310.1339,257.5495 306.085,255.3777 302.036,253.2058 300.2832,252.2656 299.6932,250.1014 300.593,248.4239 301.4846,246.7618 303.6141,246.0559 305.3669,246.9961 306.6963,247.7092 308.0258,248.4223 309.3552,249.1354 311.108,250.0756 311.6972,252.2397 310.8056,253.9019 309.9058,255.5794 307.7771,256.2853 306.0243,255.3451" stroke="black" stroke-width="1" /><polyline fill="none" points="301.7646,259.4301 303.4073,260.5208 303.8541,262.7316 302.7638,264.3737 301.6632,266.0314 299.462,266.463 297.8192,265.3723 296.9719,264.8098 296.1246,264.2472 295.2773,263.6846 293.6346,262.5939 293.1787,260.3981 294.2793,258.7405 295.3696,257.0984 297.5799,256.6517 299.2227,257.7424 302.0602,259.6264 304.8978,261.5104 307.7354,263.3944 309.3778,264.4849 309.8243,266.6955 308.734,268.3376 307.7946,269.7525 306.0461,270.2785 304.5233,269.7206" stroke="black" stroke-width="1" /><polyline fill="none" points="286.57,272.258 286.2407,271.2201 286.0189,270.0487 287.3558,268.3951 288.5527,266.9147 290.7764,266.6183 292.3634,267.9014 293.5232,268.839 294.6829,269.7766 295.8427,270.7143 297.3893,271.9648 297.5647,274.2009 296.3679,275.6812 295.1494,277.1882 292.9049,277.5115 291.3582,276.261 290.7806,275.794 290.203,275.327 289.6254,274.86 291.1166,273.0156 292.6078,271.1711 294.0991,269.3267" stroke="black" stroke-width="1" /><polyline fill="none" points="277.6047,279.2422 280.6831,282.2493 284.949,277.8822 290.18,290.903" stroke="black" stroke-width="1" /><polyline fill="none" points="279.3495,300.8167 276.3778,297.3124 273.4061,293.8081 270.4344,290.3038 269.1479,288.7869 269.3919,286.557 270.8438,285.3257 272.2823,284.1059 274.5223,284.2293 275.8088,285.7462 276.7845,286.8969 277.7603,288.0475 278.736,289.1981 280.0224,290.7151 279.7777,292.9446 278.3392,294.1645 276.8873,295.3957 274.648,295.2726 273.3616,293.7556" stroke="black" stroke-width="1" /><polyline fill="none" points="259.4598,296.1932 259.4316,295.1047 259.5438,293.9178 261.2873,292.7003 262.8481,291.6105 265.0667,291.9431 266.235,293.6164 267.0889,294.8391 267.9427,296.0619 268.7965,297.2847 269.9352,298.9154 269.4828,301.1123 267.9221,302.2021 266.3332,303.3116 264.0871,302.999 262.9484,301.3682 262.5232,300.7592 262.0979,300.1502 261.6727,299.5412 263.6174,298.1833 265.5621,296.8254 267.5067,295.4675" stroke="black" stroke-width="1" /><polyline fill="none" points="256.8137,315.7868 254.5475,311.7899 252.2813,307.7929 250.0151,303.7959 249.0341,302.0657 249.6896,299.9204 251.3456,298.9815 252.9863,298.0512 255.1641,298.5901 256.1451,300.3204 256.8892,301.6328 257.6332,302.9451 258.3773,304.2575 259.3583,305.9877 258.7022,308.1326 257.0614,309.0628 255.4055,310.0017 253.2284,309.4633 252.2474,307.733" stroke="black" stroke-width="1" /><polyline fill="none" points="247.035,310.3799 247.8497,312.1944 246.9961,314.2686 245.2595,315.0483 243.5235,315.8277 241.4212,315.0807 240.6066,313.2662 239.9886,311.8899 239.3707,310.5136 238.7528,309.1374 237.9383,307.3232 238.7766,305.2551 240.5126,304.4757 242.2492,303.696 244.3514,304.4438 245.166,306.258 245.1711,306.2557 245.1762,306.2534 245.1813,306.2511 247.0632,310.4427 248.9452,314.6343 250.8271,318.8259" stroke="black" stroke-width="1" /><polyline fill="none" points="233.1713,325.5815 234.1118,325.2612 234.6976,324.4276 234.2886,323.2267 233.8926,322.0636 233.4965,320.9006 233.1004,319.7376 232.5271,319.9328 231.9539,320.128 231.3806,320.3232 232.4842,319.9474 233.5878,319.5716 234.6915,319.1957 234.1611,319.3763 233.6308,319.5569 233.1004,319.7376 231.8827,316.1618 230.665,312.5861 229.4473,309.0103" stroke="black" stroke-width="1" /><polyline fill="none" points="220.1276,321.0126 218.5288,321.2902 217.1653,323.157 217.6214,325.0665 217.7275,325.511 217.8336,325.9554 217.9398,326.3998 218.3701,328.2014 220.1893,329.3179 222.0075,328.8837 223.8087,328.4534 224.9182,326.6017 224.496,324.8339 224.3898,324.3895 224.2837,323.9451 224.1776,323.5007 223.7472,321.6988 221.9288,320.5824 220.1276,321.0126 218.143,321.4866 216.2042,320.24 215.7463,318.3228 215.5896,317.6667 215.433,317.0108 215.2763,316.3548 214.8183,314.4373 215.9922,312.4817 217.9769,312.0077 219.9448,311.5377 221.8747,312.7519 222.3327,314.6695 222.492,315.3363 222.6512,316.0032 222.8105,316.67 223.2031,318.3139 222.2498,320.4014" stroke="black" stroke-width="1" /><polyline fill="none" points="206.8276,331.5069 207.8114,331.3676 208.5423,330.6577 208.3645,329.4016 208.1922,328.1852 208.02,326.9687 207.8477,325.7522 207.2481,325.8371 206.6484,325.922 206.0488,326.0069 207.2032,325.8434 208.3575,325.68 209.5119,325.5165 208.9572,325.5951 208.4024,325.6736 207.8477,325.7522 207.3181,322.0121 206.7885,318.272 206.2589,314.532" stroke="black" stroke-width="1" /><polyline fill="none" points="192.3519,332.7706 194.4017,332.6744 196.4516,332.5782 198.5014,332.482 198.3747,329.7816 198.248,327.0813 198.1213,324.381 197.5276,325.6273 196.618,326.3744 195.1282,326.4443 193.0728,326.5408 191.4007,324.9198 191.3115,323.0193 191.2478,321.6606 191.184,320.302 191.1203,318.9433 191.027,316.9568 192.5513,315.4262 194.4186,315.3386 196.2681,315.2518 197.9118,316.6338 198.0051,318.6202" stroke="black" stroke-width="1" /><polyline fill="none" points="178.3058,328.9371 180.8407,325.6462 183.3756,322.3553 185.9104,319.0645 185.7508,322.4668 185.5911,325.8691 185.4315,329.2715 185.3391,331.2411 183.6706,332.7593 181.7017,332.6669 179.7141,332.5737 178.2134,330.9068 178.3058,328.9371 178.4655,325.5348 178.6252,322.1324 178.7848,318.7301 178.8772,316.7604 180.5274,315.2421 182.4975,315.3346 184.4839,315.4278 186.0029,317.0948 185.9104,319.0645" stroke="black" stroke-width="1" /><polyline fill="none" points="166.2711,322.4527 166.2703,322.4581 166.2696,322.4636 166.2688,322.469 166.5957,320.1605 166.9226,317.852 167.2495,315.5435 167.4005,314.4767 166.7099,313.9612 166.1512,313.882 166.8644,313.983 167.3723,314.6761 167.2686,315.4081 167.2623,315.4532 167.2559,315.4984 167.2495,315.5435 168.4735,314.7299 169.8597,314.2337 171.3361,314.4427 172.5586,314.6158 174.4583,315.5085 174.105,318.0037 173.9199,319.3111 173.0726,320.0392 171.9575,320.3307 171.4173,320.4797 169.7576,320.574 168.6404,320.6409 167.5035,320.7219 166.4562,321.1454 166.2711,322.4527 166.0836,323.7767 167.1991,325.5615 169.236,325.8499 171.1548,326.1216 172.1696,325.3134 172.8527,324.5271" stroke="black" stroke-width="1" /><polyline fill="none" points="159.2061,326.2233 158.748,328.1412 156.8265,329.3215 154.9086,328.8634 152.9737,328.4012 151.768,326.4388 152.226,324.5209 152.4055,323.7695 152.6744,323.3061 152.9791,322.99 156.059,319.7893 159.1389,316.5887 162.2188,313.388 162.2519,313.2493 162.285,313.1105 162.3182,312.9718 160.0166,312.4221 157.7151,311.8724 155.4135,311.3227" stroke="black" stroke-width="1" /><polyline fill="none" points="148.8029,316.1091 148.1672,317.9757 146.1435,318.9715 144.2776,318.3361 142.3941,317.6947 141.4153,315.6763 142.0509,313.8098 142.3788,312.847 142.7066,311.8842 143.0345,310.9214 143.6702,309.0549 145.6771,308.0541 147.5606,308.6955 149.4265,309.3309 150.4221,311.3542 149.7865,313.2208 148.6885,316.4451 147.5905,319.6693 146.4925,322.8935 145.8569,324.7598 143.8333,325.7553 141.9674,325.1199 140.3598,324.5724 139.4052,323.0158 139.5563,321.4011" stroke="black" stroke-width="1" /><polyline fill="none" points="132.524,304.6887 133.4435,304.1055 134.5196,303.5923 136.4595,304.4633 138.1962,305.243 139.05,307.3176 138.2141,309.1794 137.6032,310.5399 136.9924,311.9004 136.3815,313.2609 135.5669,315.0754 133.4494,315.8153 131.7128,315.0356 129.9449,314.2418 129.0599,312.1539 129.8745,310.3394 130.1788,309.6618 130.483,308.9842 130.7872,308.3066 132.951,309.2781 135.1148,310.2496 137.2786,311.2211" stroke="black" stroke-width="1" /><polyline fill="none" points="114.797,312.5834 116.5822,313.5956 118.3673,314.6077 120.1524,315.6198 121.4857,313.2682 122.8191,310.9166 124.1524,308.5649 122.9853,309.3025 121.8175,309.4491 120.52,308.7135 118.7301,307.6987 118.1805,305.4356 119.1188,303.7805 119.7897,302.5973 120.4606,301.4141 121.1314,300.2309 122.1122,298.5009 124.2181,298.0194 125.8442,298.9414 127.4548,299.8546 128.108,301.9004 127.1271,303.6303" stroke="black" stroke-width="1" /><polyline fill="none" points="103.0681,304.9907 105.6986,301.2235 108.3291,297.4563 110.9596,293.6891 112.0984,292.0583 114.3167,291.7255 115.8775,292.8154 117.4239,293.8952 117.8759,296.0926 116.7372,297.7234 115.8735,298.9603 115.0098,300.1972 114.1461,301.4342 113.0074,303.0649 110.7891,303.397 109.2427,302.3171 107.6819,301.2273 107.2298,299.0306 108.3685,297.3999" stroke="black" stroke-width="1" /><polyline fill="none" points="100.3715,292.3906 99.2018,291.2657 96.8901,291.2708 95.6203,292.7681 95.3248,293.1166 95.0293,293.4651 94.7338,293.8136 93.5358,295.2263 93.7118,297.3535 95.1375,298.5626 96.5499,299.7603 98.6992,299.5594 99.8747,298.1732 100.1702,297.8247 100.4658,297.4763 100.7613,297.1277 101.9595,295.7148 101.7838,293.5883 100.3715,292.3906 98.8152,291.0709 98.6734,288.7703 99.9483,287.2669 100.3845,286.7526 100.8207,286.2382 101.2569,285.7238 102.532,284.2202 104.8032,284.0098 106.3594,285.3295 107.9025,286.6381 108.0652,288.9124 106.7901,290.416 106.3467,290.939 105.9032,291.4619 105.4598,291.9848 104.3667,293.2738 102.1197,293.7401" stroke="black" stroke-width="1" /><polyline fill="none" points="89.541,290.3024 87.8484,291.9557 82.8755,286.8649 98.6263,278.455" stroke="black" stroke-width="1" /><polyline fill="none" points="81.2405,279.7208 79.7071,280.9606 77.4647,280.7228 76.225,279.1895 74.9742,277.6425 75.2168,275.3521 76.7502,274.1123 77.3509,273.6266 77.8468,273.4236 78.281,273.3591 82.6742,272.7034 87.0674,272.0476 91.4606,271.3918 91.5715,271.3022 91.6824,271.2125 91.7933,271.1229 90.3056,269.2827 88.8179,267.4426 87.3302,265.6025" stroke="black" stroke-width="1" /><polyline fill="none" points="72.9279,269.2832 71.4423,270.2696 69.303,269.8997 68.2311,268.2852 67.1598,266.6716 67.5681,264.5883 69.2534,263.4694 69.5199,263.2924 69.7864,263.1155 70.0529,262.9385 72.624,261.2314 74.5411,263.1898 74.7312,263.476 74.9145,263.752 75.0977,264.028 75.281,264.3041 75.0977,264.028 74.9145,263.752 74.7312,263.476 74.1713,262.6328 73.9764,260.1689 75.9756,258.8416 76.5613,258.4527 77.1471,258.0638 77.7328,257.6748 79.3893,256.575 81.5953,257.0456 82.6955,258.7026 83.8051,260.3739 83.3728,262.5747 81.7163,263.6745" stroke="black" stroke-width="1" /><polyline fill="none" points="62.7558,251.8632 66.8813,252.3486 71.0068,252.834 75.1323,253.3194 72.1307,254.9294 69.1292,256.5394 66.1277,258.1494 64.39,259.0815 62.2306,258.4293 61.2989,256.6923 60.3584,254.9389 61.0181,252.7953 62.7558,251.8632 65.7573,250.2532 68.7588,248.6432 71.7604,247.0331 73.498,246.1011 75.6482,246.7375 76.5805,248.4754 77.5205,250.2279 76.8699,252.3873 75.1323,253.3194" stroke="black" stroke-width="1" /><polyline fill="none" points="54.0971,241.4579 58.3317,239.6748 62.5662,237.8916 66.8008,236.1084 68.6339,235.3365 70.6878,236.2384 71.4266,237.9928 72.1586,239.7311 71.3686,241.8309 69.5355,242.6028 68.1452,243.1883 66.7548,243.7738 65.3644,244.3593 63.5313,245.1312 61.4779,244.2287 60.7459,242.4904 60.0071,240.736 60.7965,238.6368 62.6296,237.8649" stroke="black" stroke-width="1" /><polyline fill="none" points="49.7286,228.6396 54.1116,227.2608 58.4945,225.882 62.8774,224.5032 64.7748,223.9063 66.7352,224.9966 67.3064,226.8125 67.8724,228.6117 66.8894,230.6282 64.992,231.2251 63.5529,231.6778 62.1138,232.1305 60.6747,232.5833 58.7774,233.1801 56.8176,232.0893 56.2516,230.2901 55.6803,228.4742 56.6628,226.4582 58.5601,225.8613" stroke="black" stroke-width="1" /><polyline fill="none" points="51.3668,221.3226 49.6231,221.6961 47.7682,220.5681 47.3623,218.6732 46.9566,216.7793 48.0999,214.9904 50.0779,214.5668 50.3907,214.4998 50.7035,214.4328 51.0163,214.3658 54.0341,213.7194 55.1004,216.2439 55.1724,216.5799 55.2418,216.9039 55.3111,217.2278 55.3805,217.5518 55.3111,217.2278 55.2418,216.9039 55.1724,216.5799 54.9604,215.5902 55.6817,213.2262 58.0282,212.7236 58.7157,212.5764 59.4032,212.4291 60.0907,212.2819 62.0349,211.8654 63.9152,213.1115 64.3317,215.0564 64.7519,217.018 63.5433,218.9074 61.5991,219.3238" stroke="black" stroke-width="1" /><polyline fill="none" points="53.3078,201.1699 53.3024,201.1705 53.2969,201.1712 53.2915,201.1718 55.607,200.8991 57.9225,200.6265 60.238,200.3538 61.3082,200.2278 61.6305,199.4285 61.5645,198.868 61.6487,199.5835 61.1081,200.2513 60.3739,200.3378 60.3286,200.3431 60.2833,200.3484 60.238,200.3538 61.3369,201.3298 62.1703,202.5436 62.3447,204.0245 62.4891,205.2507 62.1104,207.3153 59.6077,207.61 58.2963,207.7645 57.3762,207.1309 56.8099,206.127 56.5281,205.6427 56.0136,204.062 55.664,202.9987 55.2957,201.9201 54.6191,201.0155 53.3078,201.1699 51.9798,201.3263 50.5385,202.8601 50.7791,204.9032 51.0058,206.8278 52.0461,207.6029 52.9806,208.0629" stroke="black" stroke-width="1" /><polyline fill="none" points="50.7422,188.017 52.7135,187.9708 54.344,189.5109 54.3902,191.4822 54.4369,193.4707 52.8807,195.1016 50.9094,195.1478 49.8923,195.1716 48.8753,195.1955 47.8583,195.2193 45.887,195.2656 44.2554,193.7094 44.2091,191.7377 44.1625,189.7496 45.7198,188.1348 47.6911,188.0886 51.0962,188.0087 54.5014,187.9289 57.9065,187.849 59.8775,187.8028 61.5084,189.3429 61.5546,191.3142 61.5944,193.011 60.4615,194.4444 58.8933,194.8588" stroke="black" stroke-width="1" /><polyline fill="none" points="53.4269,182.4716 51.4429,182.3318 50.0186,180.5992 50.1523,178.7002 50.2861,176.802 51.9381,175.3026 53.9222,175.4424 55.4271,175.5484 56.932,175.6544 58.4369,175.7604 60.4206,175.9002 61.8468,177.6165 61.713,179.5147 61.5792,181.4136 59.9265,182.9127 57.9428,182.7729 57.9424,182.7785 57.942,182.7841 57.9416,182.7897 53.3583,182.4668 48.775,182.1439 44.1917,181.821" stroke="black" stroke-width="1" /><polyline fill="none" points="47.8803,168.9376 45.5459,168.551 46.7086,161.53 62.8068,169.254" stroke="black" stroke-width="1" /><polyline fill="none" points="66.2316,153.5107 62.0706,152.4132 60.5136,158.3161 49.5411,149.5693" stroke="black" stroke-width="1" /><polyline fill="none" points="60.6103,141.5519 61.2634,140.0664 60.4624,137.8979 58.6193,137.2216 58.1903,137.0643 57.7614,136.9069 57.3324,136.7495 55.5936,136.1114 53.6571,137.0094 53.0132,138.7643 52.3753,140.5029 53.3042,142.4514 55.0105,143.0775 55.4394,143.2349 55.8684,143.3923 56.2974,143.5497 58.0365,144.1879 59.9724,143.2904 60.6103,141.5519 61.3132,139.6364 63.4241,138.7108 65.2747,139.3897 65.9078,139.6221 66.541,139.8544 67.1741,140.0867 69.0249,140.7658 70.0048,142.8255 69.3019,144.7411 68.6049,146.6405 66.5259,147.5767 64.675,146.8976 64.0314,146.6614 63.3877,146.4252 62.744,146.1891 61.1574,145.6069 59.9456,143.658" stroke="black" stroke-width="1" /><polyline fill="none" points="66.4094,134.1508 64.63,133.3011 63.8777,131.1748 64.727,129.396 65.5843,127.6005 67.7033,126.8644 69.4827,127.714 70.4005,128.1523 71.3183,128.5905 72.2361,129.0287 74.0156,129.8783 74.7748,131.9885 73.9175,133.7841 73.0682,135.5629 70.9423,136.315 69.1629,135.4654 66.0892,133.9978 63.0155,132.5303 59.9418,131.0627 58.1627,130.2133 57.4107,128.0871 58.26,126.3083 58.9917,124.7758 60.6492,124.0098 62.2352,124.3487" stroke="black" stroke-width="1" /><polyline fill="none" points="66.1784,111.9085 65.1247,113.6694 64.0711,115.4303 63.0174,117.1912 65.3371,118.5793 67.6568,119.9674 69.9765,121.3555 69.2666,120.1714 69.1473,119.0005 69.9132,117.7206 70.9697,115.955 73.245,115.4585 74.8776,116.4354 76.0448,117.1339 77.2119,117.8323 78.3791,118.5307 80.0856,119.5518 80.5176,121.6683 79.5578,123.2724 78.6071,124.8612 76.5465,125.4662 74.84,124.4451" stroke="black" stroke-width="1" /><polyline fill="none" points="72.9401,108.0528 71.3503,106.8863 71.0082,104.6574 72.1747,103.0676 73.3516,101.4637 75.6281,101.1141 77.2179,102.2806 77.8408,102.7376 78.1635,103.1653 78.3366,103.5687 80.0911,107.6494 81.8457,111.73 83.6002,115.8107 83.7152,115.895 83.8302,115.9794 83.9452,116.0638 85.345,114.156 86.7448,112.2482 88.1446,110.3403" stroke="black" stroke-width="1" /><polyline fill="none" points="80.9125,97.353 79.5799,96.1681 79.392,94.0052 80.6797,92.557 81.9667,91.1096 84.0852,90.9731 85.597,92.3173 85.836,92.5299 86.0751,92.7424 86.3142,92.955 88.6205,95.0057 87.2159,97.3588 86.9876,97.6156 86.7674,97.8632 86.5473,98.1108 86.3271,98.3584 86.5473,98.1108 86.7674,97.8632 86.9876,97.6156 87.6602,96.8592 89.9928,96.0423 91.7861,97.6368 92.3116,98.104 92.837,98.5713 93.3625,99.0385 94.8484,100.3596 94.956,102.6127 93.6344,104.0991 92.3014,105.5983 90.063,105.7415 88.5772,104.4204" stroke="black" stroke-width="1" /><polyline fill="none" points="89.9669,87.9164 88.6225,86.4739 88.702,84.2203 90.1445,82.8759 91.5998,81.5195 93.9016,81.6005 95.246,83.043 95.7727,83.6081 96.01,84.0885 96.1049,84.5171 97.0677,88.8534 98.0306,93.1896 98.9935,97.5258 99.0907,97.6302 99.188,97.7345 99.2852,97.8388 101.0162,96.2255 102.7472,94.6122 104.4782,92.9988" stroke="black" stroke-width="1" /><polyline fill="none" points="103.253,83.5524 102.039,81.9767 102.3875,79.761 103.8955,78.5992 105.4029,77.4379 107.6212,77.6761 108.8351,79.2517 109.7558,80.4468 110.6765,81.6418 111.5973,82.8369 112.8109,84.4123 112.476,86.6185 110.9686,87.7799 109.4606,88.9417 107.2421,88.7027 106.0284,87.1273 106.024,87.1308 106.0196,87.1342 106.0151,87.1376 103.211,83.4978 100.4068,79.8581 97.6026,76.2184" stroke="black" stroke-width="1" /><polyline fill="none" points="109.6814,70.4143 108.4192,68.4129 114.4387,64.6166 119.3633,81.7794" stroke="black" stroke-width="1" /><polyline fill="none" points="121.788,64.273 120.9821,62.6822 121.5997,60.6009 123.3285,59.7252 125.0563,58.8499 127.0775,59.4991 127.9917,61.3037 128.1363,61.5891 128.2808,61.8744 128.4254,62.1598 129.82,64.9129 127.6509,66.5878 127.3444,66.7431 127.0489,66.8928 126.7533,67.0425 126.4578,67.1923 126.7533,67.0425 127.0489,66.8928 127.3444,66.7431 128.2474,66.2857 130.7171,66.3802 131.8015,68.521 132.1193,69.1482 132.437,69.7754 132.7547,70.4026 133.6533,72.1763 132.928,74.3122 131.1536,75.211 129.364,76.1176 127.2289,75.4308 126.3304,73.6571" stroke="black" stroke-width="1" /><polyline fill="none" points="141.5004,59.0068 142.2228,60.8415 141.3386,62.9028 139.5039,63.6252 137.6532,64.354 135.5861,63.4548 134.8636,61.6201 134.4909,60.6735 134.1182,59.7269 133.7455,58.7804 133.023,56.9456 133.9219,54.8778 135.757,54.1553 137.6073,53.4267 139.6598,54.3324 140.3822,56.1671 141.6302,59.3363 142.8781,62.5055 144.126,65.6748 144.8483,67.5092 143.9642,69.5708 142.1295,70.2932 140.5503,70.915 138.8144,70.3453 137.8851,69.0158" stroke="black" stroke-width="1" /><polyline fill="none" points="146.0555,54.2454 145.5081,52.351 146.5974,50.3766 148.4917,49.8292 150.4029,49.2768 152.4196,50.3893 152.9671,52.2836 153.1816,53.0258 153.1762,53.5615 153.0671,53.9868 151.9665,58.2901 150.8659,62.5935 149.7654,66.8968 149.8049,67.0338 149.8445,67.1708 149.8841,67.3079 152.1574,66.6509 154.4306,65.9939 156.7039,65.3369" stroke="black" stroke-width="1" /><polyline fill="none" points="166.47,52.5142 166.8377,54.4515 165.5847,56.3117 163.6474,56.6794 161.6933,57.0503 159.83,55.7814 159.4623,53.8442 159.2727,52.8447 159.083,51.8452 158.8933,50.8458 158.5256,48.9085 159.7943,47.0446 161.7319,46.6768 163.6857,46.306 165.5333,47.5786 165.901,49.5158 166.536,52.8622 167.1711,56.2085 167.8062,59.5548 168.1738,61.4918 166.9209,63.3524 164.9836,63.72 163.3162,64.0365 161.7169,63.1531 161.0519,61.6736" stroke="black" stroke-width="1" /><polyline fill="none" points="251.6566,231.6324 239.8942,231.6324 220.8597,130.6987 108.8569,140.3048 268.4255,140.8637 268.4255,140.8637 136.578,231.1149 140.8637,108.5745 140.8637,108.5745 140.3048,268.1431" stroke="black" stroke-width="1" /><polyline fill="none" points="157.9483,268.2049 122.6613,268.0813" stroke="black" stroke-width="1" /><polyline fill="none" points="251.6566,231.6324 251.5118,229.7924 251.0809,227.9976 250.3746,226.2924 249.4102,224.7187 248.2115,223.3152 246.808,222.1164 245.2343,221.152 243.529,220.4457 241.7343,220.0148 239.8942,219.87 238.0542,220.0148 236.2594,220.4457 234.5542,221.152 232.9805,222.1164 231.577,223.3152 230.3783,224.7187 229.4139,226.2924 228.7075,227.9977 228.2766,229.7924 228.1318,231.6324 228.2766,233.4725 228.7075,235.2672 229.4139,236.9724 230.3783,238.5462 231.577,239.9497 232.9805,241.1484 234.5542,242.1128 236.2594,242.8191 238.0542,243.25 239.8942,243.3948 241.7343,243.25 243.529,242.8191 245.2343,242.1128 246.808,241.1484 248.2115,239.9497 249.4102,238.5462 250.3746,236.9724 251.0809,235.2672 251.5118,233.4725 251.6566,231.6324" stroke="black" stroke-width="1" /><polyline fill="none" points="188.5,69.0664 199.6839,69.5912 210.7696,71.161 221.6595,73.7619 232.2581,77.3712 242.4721,81.9571 252.2118,87.4792 261.3915,93.8892 269.9308,101.1306 277.7544,109.1398 284.7936,117.8464 290.9866,127.1739 296.2789,137.0404 300.6241,147.3591 303.9839,158.0393 306.3289,168.9873 307.6383,180.1067 307.9008,191.2998 307.114,202.4684 305.2847,213.5142 302.4292,224.3402 298.5725,234.8512 293.7484,244.9549 287.9994,254.5625 281.376,263.5894 273.9365,271.9565 265.7461,279.5902 256.8768,286.4234 247.4067,292.3961 237.4188,297.4556 227.0011,301.5577 216.2451,304.6663 205.2452,306.7539 194.0981,307.8023 182.9019,307.8023 171.7548,306.7539 160.7549,304.6663 149.9989,301.5577 139.5811,297.4556 129.5933,292.3961 120.1232,286.4234 111.2539,279.5902 103.0635,271.9565 95.6239,263.5894 89.0006,254.5625 83.2516,244.9549 78.4275,234.8512 74.5708,224.3402 71.7153,213.5142 69.8861,202.4684 69.0992,191.2998 69.3617,180.1067 70.6712,168.9872 73.0161,158.0393 76.3759,147.3591 80.7211,137.0404 86.0134,127.174 92.2064,117.8464 99.2457,109.1398 107.0692,101.1306 115.6085,93.8892 124.7882,87.4792 134.5279,81.957 144.7419,77.3712 155.3405,73.7619 166.2304,71.161 177.3161,69.5912 188.5,69.0664" stroke="black" stroke-width="1" />

    </g>
  </g>
  <WCB
     pausedposy="0"
     pausedposx="0"
     lastknownposy="0"
     lastknownposx="0"
     lastpathnc="0"
     lastpath="0"
     node="0"
     layer="0" />
</svg>
