<?xml version="1.0" encoding="UTF-8" standalone="no"?>
<!-- Created with Inkscape (http://www.inkscape.org/) -->

<svg
   xmlns:dc="http://purl.org/dc/elements/1.1/"
   xmlns:cc="http://creativecommons.org/ns#"
   xmlns:rdf="http://www.w3.org/1999/02/22-rdf-syntax-ns#"
   xmlns:svg="http://www.w3.org/2000/svg"
   xmlns="http://www.w3.org/2000/svg"
   xmlns:sodipodi="http://sodipodi.sourceforge.net/DTD/sodipodi-0.dtd"
   xmlns:inkscape="http://www.inkscape.org/namespaces/inkscape"
   width="100mm"
   height="100mm"
   viewBox="0 0 100 100"
   version="1.1"
   id="svg19124"
   inkscape:version="0.92.3 (2405546, 2018-03-11)"
   sodipodi:docname="inkscape_template_TMP.svg"
   shape-rendering="crispEdges">
  <sodipodi:namedview
     pagecolor="#ffffff"
     bordercolor="#666666"
     borderopacity="1"
     objecttolerance="10"
     gridtolerance="10"
     guidetolerance="10"
     inkscape:pageopacity="0"
     inkscape:pageshadow="2"
     inkscape:window-width="1568"
     inkscape:window-height="1550"
     id="namedview24021"
     showgrid="false"
     inkscape:zoom="0.62441667"
     inkscape:cx="712.66515"
     inkscape:cy="409.98265"
     inkscape:window-x="0"
     inkscape:window-y="0"
     inkscape:window-maximized="0"
     inkscape:current-layer="layer1" />
  <defs
     id="defs19118" />
  <metadata
     id="metadata19121">
    <rdf:RDF>
      <cc:Work
         rdf:about="">
        <dc:format>image/svg+xml</dc:format>
        <dc:type
           rdf:resource="http://purl.org/dc/dcmitype/StillImage" />
        <dc:title />
      </cc:Work>
    </rdf:RDF>
  </metadata>
  <g
     transform="translate(0,-197)"
     id="layer1"
     inkscape:groupmode="layer"
     inkscape:label="Layer 1">
    <g
       id="g24447"
       transform="matrix(0.26458333,0,0,0.26458333,0.10666333,197.9735)">

<polyline fill="none" points="192.1004,47.7394 189.7225,51.1455 187.3447,54.5516 184.9669,57.9577 184.9669,54.5516 184.9669,51.1455 184.9669,47.7394 184.9669,45.7676 186.5623,44.1729 188.5334,44.1729 190.5231,44.1729 192.1004,45.7676 192.1004,47.7394 192.1004,51.1455 192.1004,54.5516 192.1004,57.9577 192.1004,59.9295 190.5231,61.5235 188.5509,61.5235 186.5623,61.5235 184.9669,59.9295 184.9669,57.9577" stroke="black" stroke-width="1" /><polyline fill="none" points="197.8298,61.5877 200.7471,57.7851 198.696,53.7706 202.935,62.0679 200.7471,57.7851 203.4811,54.2207" stroke="black" stroke-width="1" /><polyline fill="none" points="211.4702,49.377 211.8028,47.625 213.5622,46.3532 215.4662,46.7146 217.3691,47.0757 218.574,48.8236 218.1968,50.811 218.1371,51.1253 218.0775,51.4396 218.0178,51.7539 217.4424,54.7859 214.7019,54.789 214.3643,54.7249 214.0388,54.6631 213.7133,54.6013 213.3878,54.5396 213.7133,54.6013 214.0388,54.6631 214.3643,54.7249 215.3588,54.9136 217.2575,56.4958 216.81,58.8534 216.6789,59.5442 216.5478,60.235 216.4167,60.9258 216.046,62.8792 214.1679,64.1285 212.2138,63.7576 210.2428,63.3836 208.9706,61.5364 209.3413,59.583" stroke="black" stroke-width="1" /><polyline fill="none" points="230.3545,50.5323 229.4,50.2565 228.4424,50.6047 228.0902,51.8234 227.7491,53.0037 227.408,54.184 227.0669,55.3643 227.6487,55.5325 228.2305,55.7007 228.8123,55.8688 227.6922,55.5451 226.5722,55.2214 225.4522,54.8977 225.9904,55.0533 226.5286,55.2088 227.0669,55.3643 226.0181,58.9932 224.9693,62.6221 223.9206,66.251" stroke="black" stroke-width="1" /><polyline fill="none" points="234.7839,61.4612 235.5127,59.6105 237.5929,58.7718 239.3641,59.4692 241.1347,60.1664 242.0693,62.1923 241.3406,64.0429 240.7879,65.4467 240.2352,66.8504 239.6824,68.2541 238.9538,70.1045 236.8886,70.9499 235.118,70.2527 233.3468,69.5552 232.4128,67.5289 233.1414,65.6785 233.1362,65.6765 233.131,65.6744 233.1257,65.6723 234.8091,61.3971 236.4925,57.1219 238.1759,52.8468" stroke="black" stroke-width="1" /><polyline fill="none" points="256.3059,61.0983 254.4753,60.171 252.6447,59.2436 250.8141,58.3163 249.5924,60.7278 248.3708,63.1394 247.1492,65.5509 248.2804,64.7595 249.4401,64.5583 250.7706,65.2323 252.6061,66.1621 253.2612,68.3969 252.4015,70.0941 251.7868,71.3075 251.1721,72.5208 250.5575,73.7342 249.6588,75.5082 247.5779,76.088 245.9103,75.2432 244.2586,74.4065 243.5103,72.3935 244.409,70.6195" stroke="black" stroke-width="1" /><polyline fill="none" points="266.6339,71.3608 262.8057,72.9733 258.9775,74.5858 255.1493,76.1984 256.9662,73.3174 258.7832,70.4364 260.6002,67.5555 261.6521,65.8876 263.8522,65.3898 265.5195,66.4413 267.2025,67.5027 267.6858,69.6929 266.6339,71.3608 264.817,74.2418 263.0,77.1227 261.183,80.0037 260.1311,81.6716 257.9468,82.1785 256.2786,81.1264 254.5966,80.0655 254.0974,77.8662 255.1493,76.1984" stroke="black" stroke-width="1" /><polyline fill="none" points="273.9048,82.9373 273.9081,82.933 273.9115,82.9287 273.9148,82.9243 272.4919,84.7713 271.0689,86.6182 269.646,88.4651 268.9884,89.3187 269.3349,90.1078 269.7819,90.4522 269.2113,90.0125 269.1113,89.1591 269.5625,88.5735 269.5903,88.5374 269.6182,88.5013 269.646,88.4651 268.1799,88.5692 266.7293,88.3172 265.5481,87.4072 264.57,86.6536 263.3577,84.9401 264.8957,82.9437 265.7016,81.8978 266.7977,81.6823 267.9116,81.9787 268.455,82.1155 269.9452,82.852 270.9501,83.3449 271.9791,83.8351 273.0989,83.9833 273.9048,82.9373 274.7209,81.8781 274.6308,79.7753 273.0012,78.5198 271.466,77.337 270.1846,77.5396 269.2026,77.8867" stroke="black" stroke-width="1" /><polyline fill="none" points="289.0119,84.9327 287.5107,83.5336 286.0096,82.1345 284.5084,80.7353 282.6653,82.7129 280.8221,84.6904 278.979,86.668 280.2854,86.2217 281.4554,86.3504 282.5465,87.3673 284.0517,88.7702 284.0606,91.099 282.7634,92.4908 281.836,93.4858 280.9086,94.4808 279.9813,95.4758 278.6254,96.9306 276.4653,96.9098 275.0978,95.6353 273.7434,94.3729 273.5834,92.2313 274.9393,90.7765" stroke="black" stroke-width="1" /><polyline fill="none" points="298.6561,95.0425 295.2224,98.0955 291.7888,101.1486 288.3551,104.2016 286.8687,105.5232 284.6337,105.3316 283.3688,103.909 282.1155,102.4995 282.1864,100.2571 283.6728,98.9355 284.8002,97.9331 285.9276,96.9306 287.055,95.9282 288.5414,94.6066 290.7761,94.7989 292.0294,96.2085 293.2943,97.6311 293.2238,99.8726 291.7373,101.1943" stroke="black" stroke-width="1" /><polyline fill="none" points="294.1049,106.6004 295.6948,105.4339 297.9242,105.7761 299.0902,107.3653 300.2673,108.9695 299.9143,111.1847 298.3245,112.3512 297.5045,112.9529 296.6845,113.5546 295.8645,114.1562 294.2747,115.3227 292.0562,114.9943 290.8792,113.3901 289.7131,111.8008 290.0551,109.5719 291.6449,108.4054 294.3911,106.3905 297.1372,104.3756 299.8834,102.3606 301.4729,101.1943 303.702,101.5367 304.8681,103.1259 305.8727,104.4952 305.7643,106.3179 304.716,107.5553" stroke="black" stroke-width="1" /><polyline fill="none" points="311.136,119.3125 306.9923,119.021 302.8486,118.7296 298.7049,118.4381 301.6277,116.6891 304.5504,114.9402 307.4732,113.1913 309.1653,112.1788 311.3529,112.729 312.365,114.4204 313.3867,116.1278 312.8281,118.3 311.136,119.3125 308.2133,121.0615 305.2905,122.8104 302.3677,124.5593 300.6757,125.5718 298.498,125.0369 297.4854,123.3445 296.4642,121.6381 297.0128,119.4506 298.7049,118.4381" stroke="black" stroke-width="1" /><polyline fill="none" points="304.3823,136.1063 308.2657,134.2521 305.6354,128.743 319.6611,128.3174" stroke="black" stroke-width="1" /><polyline fill="none" points="320.0197,137.8593 324.1068,139.1917 308.0122,145.0971" stroke="black" stroke-width="1" /><polyline fill="none" points="312.1193,158.6325 316.2804,157.535 314.7234,151.632 328.5825,153.8291" stroke="black" stroke-width="1" /><polyline fill="none" points="317.9472,170.5722 315.9853,170.897 314.1994,169.559 313.8884,167.6813 313.5775,165.8036 314.834,163.9447 316.7958,163.6198 318.2842,163.3733 319.7726,163.1269 321.2609,162.8804 323.2232,162.5554 325.0111,163.9102 325.3221,165.7879 325.633,167.6656 324.3745,169.5078 322.4123,169.8327" stroke="black" stroke-width="1" /><polyline fill="none" points="332.6406,181.2671 332.4964,179.2201 332.3522,177.1731 332.2079,175.126 329.5114,175.316 326.8147,175.506 324.1181,175.696 325.3781,176.2603 326.1462,177.1521 326.251,178.6399 326.3956,180.6924 324.8143,182.4021 322.9164,182.5358 321.5596,182.6314 320.2028,182.727 318.846,182.8226 316.8623,182.9623 315.2963,181.4743 315.1649,179.6096 315.0348,177.7627 316.3779,176.087 318.3617,175.9472" stroke="black" stroke-width="1" /><polyline fill="none" points="324.1332,194.9099 324.1387,194.91 324.1442,194.9101 324.1497,194.9102 321.8188,194.8556 319.4879,194.8009 317.157,194.7463 316.0798,194.721 315.6486,195.4672 315.6354,196.0314 315.6523,195.3112 316.2812,194.7257 317.0203,194.7431 317.0659,194.7441 317.1115,194.7452 317.157,194.7463 316.2059,193.6258 315.5508,192.3072 315.5858,190.8164 315.6147,189.5821 316.2791,187.591 318.7985,187.6501 320.1186,187.681 320.9407,188.4373 321.3607,189.5107 321.5718,190.0297 321.8596,191.667 322.0567,192.7687 322.2701,193.8884 322.8132,194.8789 324.1332,194.9099 325.47,194.9412 327.1121,193.6246 327.1603,191.568 327.2058,189.6306 326.2844,188.7173 325.4236,188.1309" stroke="black" stroke-width="1" /><polyline fill="none" points="317.8355,207.2167 315.8605,206.9841 314.5163,205.2029 314.7389,203.3126 314.9615,201.4224 316.6847,199.9854 318.6597,200.218 320.158,200.3945 321.6562,200.5709 323.1545,200.7474 325.1298,200.98 326.4713,202.7778 326.2487,204.6681 326.0261,206.5583 324.3056,207.9787 322.3303,207.746" stroke="black" stroke-width="1" /><polyline fill="none" points="328.9819,221.5707 329.4117,219.5641 329.8415,217.5575 330.2712,215.5509 327.6279,214.9847 324.9846,214.4185 322.3412,213.8524 323.395,214.7443 323.8853,215.8143 323.5729,217.2727 323.142,219.2847 321.1482,220.4881 319.2878,220.0896 317.9578,219.8048 316.6278,219.5199 315.2978,219.235 313.3532,218.8185 312.262,216.9543 312.6535,215.1264 313.0413,213.3159 314.7968,212.079 316.7413,212.4955" stroke="black" stroke-width="1" /><polyline fill="none" points="323.9817,227.5838 325.6828,228.1189 326.7401,230.015 326.1585,231.8637 325.5773,233.7113 323.7005,234.7035 321.7708,234.0964 321.4656,234.0004 321.1605,233.9044 320.8553,233.8084 317.9114,232.8823 318.2289,230.1603 318.332,229.8325 318.4315,229.5165 318.5309,229.2004 318.6303,228.8844 318.5309,229.2004 318.4315,229.5165 318.332,229.8325 318.0283,230.7981 316.2349,232.4987 313.9458,231.7786 313.2751,231.5676 312.6044,231.3566 311.9337,231.1456 310.037,230.549 309.016,228.5376 309.6128,226.6403 310.2148,224.7266 312.1981,223.6792 314.0948,224.2758" stroke="black" stroke-width="1" /><polyline fill="none" points="312.3536,244.1575 312.3586,244.1596 312.3636,244.1617 312.3687,244.1638 310.2199,243.259 308.0712,242.3542 305.9224,241.4493 304.9293,241.0311 304.2547,241.5675 304.0357,242.0875 304.3153,241.4236 305.115,241.1093 305.7963,241.3962 305.8383,241.4139 305.8804,241.4316 305.9224,241.4493 305.4479,240.0583 305.3215,238.5913 305.9002,237.2171 306.3794,236.0792 307.7271,234.4699 310.0497,235.448 311.2666,235.9604 311.7545,236.9653 311.752,238.118 311.7582,238.6782 311.4261,240.3071 311.2059,241.4044 310.9943,242.5244 311.1367,243.645 312.3536,244.1575 313.5859,244.6764 315.5962,244.053 316.3946,242.1571 317.1467,240.371 316.624,239.1837 316.0379,238.3226" stroke="black" stroke-width="1" /><polyline fill="none" points="307.9089,248.5121 309.6465,249.4442 310.2984,251.6035 309.3666,253.3405 308.4261,255.0939 306.275,255.7298 304.5373,254.7977 303.6411,254.317 302.7448,253.8362 301.8485,253.3555 300.1109,252.4234 299.4514,250.2799 300.3919,248.5265 301.3237,246.7895 303.4825,246.1378 305.2201,247.0699 308.2216,248.6799 311.2232,250.2899 314.2247,251.8999 315.962,252.8318 316.6136,254.9909 315.6818,256.728 314.8791,258.2245 313.1874,258.912 311.6191,258.4991" stroke="black" stroke-width="1" /><polyline fill="none" points="301.9847,263.8732 301.0043,265.1663 301.2797,267.4616 302.9153,268.5475 303.296,268.8003 303.6766,269.053 304.0573,269.3057 305.6003,270.3303 307.6924,269.9067 308.7264,268.3494 309.7508,266.8066 309.2999,264.6956 307.7857,263.6902 307.4051,263.4374 307.0244,263.1847 306.6437,262.932 305.1004,261.9073 303.009,262.3304 301.9847,263.8732 300.856,265.5731 298.5878,265.983 296.9457,264.8927 296.3838,264.5196 295.822,264.1466 295.2601,263.7735 293.6176,262.683 293.1431,260.4521 294.2717,258.7522 295.3909,257.0666 297.6306,256.639 299.273,257.7295 299.8442,258.1088 300.4154,258.488 300.9865,258.8672 302.3945,259.8021 303.1205,261.9792" stroke="black" stroke-width="1" /><polyline fill="none" points="295.7948,270.7732 297.3416,272.0237 297.5174,274.2598 296.3206,275.7401 295.1241,277.2199 292.9112,277.5035 291.3645,276.253 290.1913,275.3045 289.0182,274.356 287.845,273.4075 286.2986,272.1572 286.1118,269.9335 287.3082,268.4537 288.5051,266.9734 290.7184,266.6905 292.2648,267.9408 292.2683,267.9365 292.2718,267.9321 292.2754,267.9278 295.8484,270.8165 299.4214,273.7052 302.9944,276.594" stroke="black" stroke-width="1" /><polyline fill="none" points="277.6047,279.2422 280.6831,282.2493 284.949,277.8822 290.18,290.903" stroke="black" stroke-width="1" /><polyline fill="none" points="276.5964,292.4178 275.2956,293.3879 274.9229,295.6694 276.1927,297.1667 276.4883,297.5152 276.7838,297.8637 277.0793,298.2122 278.2772,299.6248 280.4047,299.7988 281.8304,298.5898 283.2428,297.392 283.3958,295.2388 282.2202,293.8526 281.9247,293.5041 281.6292,293.1556 281.3337,292.8071 280.1355,291.3942 278.0089,291.2201 276.5964,292.4178 275.0403,293.7375 272.7474,293.5015 271.4725,291.9982 271.0363,291.4838 270.6001,290.9694 270.1639,290.455 268.8888,288.9514 269.0523,286.6764 270.6086,285.3567 272.1517,284.0481 274.422,284.2592 275.6971,285.7628 276.1406,286.2857 276.584,286.8086 277.0274,287.3315 278.1205,288.6205 278.2134,290.9136" stroke="black" stroke-width="1" /><polyline fill="none" points="268.7342,297.328 269.873,298.9588 269.4211,301.1557 267.8603,302.2456 266.3001,303.335 264.0954,302.9931 262.9567,301.3623 262.093,300.1254 261.2293,298.8885 260.3656,297.6516 259.2271,296.0211 259.6651,293.8329 261.2253,292.7435 262.7861,291.6537 264.9908,291.9964 266.1294,293.6269 266.134,293.6237 266.1385,293.6205 266.1431,293.6172 268.7736,297.3844 271.4041,301.1516 274.0346,304.9188" stroke="black" stroke-width="1" /><polyline fill="none" points="257.4865,302.9588 258.459,304.6741 257.8585,306.8482 256.1438,307.8204 254.4129,308.8018 252.2542,308.1921 251.2816,306.4768 250.78,305.592 250.2784,304.7073 249.7767,303.8226 248.8042,302.1072 249.3898,299.9424 251.1207,298.961 252.8354,297.9888 255.009,298.5892 255.9816,300.3046 257.6615,303.2675 259.3414,306.2305 261.0214,309.1935 261.9937,310.9085 261.393,313.0822 259.6783,314.0544 258.201,314.8921 256.4034,314.5711 255.2971,313.3853" stroke="black" stroke-width="1" /><polyline fill="none" points="249.3484,315.4776 250.156,317.2765 249.3542,319.3841 247.5554,320.1918 245.7406,321.0066 243.5878,320.1879 242.7801,318.389 242.4637,317.6843 242.3939,317.153 242.4423,316.7167 242.9286,312.3016 243.415,307.8864 243.9014,303.4713 243.843,303.3412 243.7846,303.2111 243.7262,303.0809 241.5675,304.0502 239.4088,305.0193 237.2501,305.9886" stroke="black" stroke-width="1" /><polyline fill="none" points="229.3783,320.0539 228.7426,318.1873 229.7225,316.1697 231.5891,315.5341 233.4719,314.8929 235.4946,315.8879 236.1303,317.7545 236.4582,318.7175 236.7861,319.6805 237.1141,320.6435 237.7497,322.5101 236.7549,324.5335 234.888,325.1693 233.0055,325.8103 230.9978,324.8094 230.3621,322.9428 229.2641,319.7186 228.1661,316.4944 227.0681,313.2701 226.4326,311.4039 227.4123,309.386 229.2789,308.7503 230.8855,308.2032 232.5928,308.8537 233.4587,310.2253" stroke="black" stroke-width="1" /><polyline fill="none" points="223.4112,325.0398 221.61,328.943 217.6274,312.2682" stroke="black" stroke-width="1" /><polyline fill="none" points="205.8447,331.7759 207.8765,331.4882 209.9083,331.2005 211.9401,330.9128 211.5611,328.2361 211.1821,325.5596 210.8031,322.8829 210.3287,324.1794 209.4931,325.0084 208.0163,325.2175 205.9791,325.506 204.1625,324.0487 203.8957,322.1649 203.705,320.8182 203.5143,319.4715 203.3236,318.1248 203.0448,316.1558 204.4191,314.4891 206.2699,314.227 208.1031,313.9674 209.8691,315.1894 210.1479,317.1584" stroke="black" stroke-width="1" /><polyline fill="none" points="191.2466,326.2313 191.1541,324.2616 192.6556,322.5955 194.6253,322.503 196.6121,322.4098 198.279,323.9273 198.3715,325.897 198.4191,326.9132 198.4668,327.9294 198.5145,328.9456 198.6069,330.9152 197.0895,332.5829 195.1194,332.6754 193.1329,332.7686 191.482,331.2496 191.3896,329.2798 191.2299,325.8776 191.0703,322.4752 190.9107,319.0729 190.8183,317.1035 192.3197,315.437 194.2894,315.3446 195.9847,315.265 197.4443,316.3639 197.8954,317.9221" stroke="black" stroke-width="1" /><polyline fill="none" points="178.9855,317.118 179.6274,316.2386 180.4406,315.3668 182.5648,315.4664 184.4664,315.5557 186.0209,317.1732 185.9252,319.2117 185.8553,320.7015 185.7854,322.1912 185.7155,323.6809 185.6223,325.6677 183.9232,327.1319 182.0216,327.0427 180.0858,326.9518 178.4974,325.3334 178.5906,323.3466 178.6254,322.6046 178.6602,321.8627 178.695,321.1207 181.0643,321.2319 183.4336,321.3431 185.8028,321.4543" stroke="black" stroke-width="1" /><polyline fill="none" points="165.517,324.328 165.7935,322.3756 167.5793,321.0186 169.5317,321.295 171.501,321.5739 172.8558,323.3757 172.5793,325.328 172.4367,326.3353 172.294,327.3425 172.1514,328.3498 171.875,330.3022 170.0731,331.6576 168.1204,331.3811 166.1514,331.1023 164.8127,329.3021 165.0891,327.3497 165.5667,323.9773 166.0442,320.6049 166.5218,317.2325 166.7982,315.2804 168.584,313.9231 170.5364,314.1995 172.2169,314.4375 173.446,315.7893 173.5985,317.4042" stroke="black" stroke-width="1" /><polyline fill="none" points="152.8988,321.579 153.3569,319.6611 155.2619,318.4773 157.1799,318.9353 159.1144,319.3974 160.2945,321.3181 159.8365,323.236 159.6001,324.2254 159.3638,325.2149 159.1275,326.2044 158.6694,328.1223 156.7486,329.3031 154.8303,328.8449 152.8961,328.3829 151.7318,326.4653 152.1899,324.5474 152.9811,321.2345 153.7724,317.9216 154.5636,314.6087 155.0216,312.6912 156.9267,311.507 158.8446,311.9651 160.4954,312.3593 161.5925,313.8203 161.5932,315.4424" stroke="black" stroke-width="1" /><polyline fill="none" points="143.65,309.4198 144.5109,308.7531 145.5342,308.1414 147.5472,308.8269 149.3492,309.4406 150.3935,311.4261 149.7356,313.3579 149.2549,314.7697 148.7741,316.1815 148.2933,317.5932 147.6522,319.476 145.6133,320.4109 143.8113,319.7972 141.9768,319.1725 140.9002,317.1767 141.5414,315.2938 141.7808,314.5907 142.0202,313.8876 142.2597,313.1845 144.5049,313.9491 146.7502,314.7137 148.9954,315.4783" stroke="black" stroke-width="1" /><polyline fill="none" points="132.6804,312.7741 131.2444,312.0182 129.025,312.6649 128.2209,314.4559 128.0337,314.8728 127.8466,315.2896 127.6594,315.7065 126.9008,317.3962 127.6604,319.3909 129.3658,320.1566 131.0552,320.9151 133.0642,320.1255 133.8087,318.4673 133.9958,318.0505 134.183,317.6337 134.3701,317.2169 135.1289,315.5268 134.3698,313.5327 132.6804,312.7741 130.819,311.9384 130.044,309.7676 130.8513,307.9694 131.1276,307.3541 131.4038,306.7389 131.6801,306.1236 132.4876,304.3251 134.611,303.4924 136.4724,304.3282 138.3182,305.1569 139.106,307.2966 138.2985,309.0952 138.0177,309.7206 137.7368,310.3461 137.456,310.9716 136.7638,312.5134 134.7345,313.5852" stroke="black" stroke-width="1" /><polyline fill="none" points="120.9447,312.1859 116.9659,313.8131 125.4215,298.8996" stroke="black" stroke-width="1" /><polyline fill="none" points="113.9705,301.3114 112.8318,302.9422 110.6136,303.2747 109.0528,302.1849 107.4926,301.0954 107.0542,298.9079 108.1929,297.2771 109.0566,296.0402 109.9203,294.8033 110.784,293.5664 111.9225,291.9359 114.1276,291.5934 115.6878,292.6828 117.2486,293.7726 117.6863,295.9606 116.5478,297.591 116.5524,297.5942 116.557,297.5974 116.5616,297.6006 113.9311,301.3678 111.3006,305.135 108.6701,308.9022" stroke="black" stroke-width="1" /><polyline fill="none" points="99.9002,298.1947 98.7469,299.5547 96.589,299.7933 95.111,298.5399 93.6338,297.2872 93.4477,295.1724 94.7561,293.6295 94.963,293.3856 95.1699,293.1416 95.3768,292.8976 97.3728,290.5438 99.7583,291.8929 100.0203,292.1151 100.273,292.3294 100.5257,292.5437 100.7784,292.758 100.5257,292.5437 100.273,292.3294 100.0203,292.1151 99.2483,291.4604 98.377,289.1476 99.9291,287.3174 100.3838,286.7811 100.8386,286.2449 101.2933,285.7086 102.5793,284.1922 104.8292,284.0317 106.3462,285.3181 107.8763,286.6157 108.0719,288.85 106.786,290.3665" stroke="black" stroke-width="1" /><polyline fill="none" points="91.0302,283.6816 89.9711,282.4521 87.6691,282.2407 86.2646,283.6126 85.9378,283.9319 85.6109,284.2512 85.2841,284.5704 83.9591,285.8647 83.9351,287.9991 85.2413,289.3363 86.5353,290.661 88.694,290.6624 89.9942,289.3923 90.321,289.073 90.6479,288.7537 90.9747,288.4344 92.3,287.1399 92.3242,285.0063 91.0302,283.6816 89.6044,282.222 89.6786,279.9182 91.0887,278.5408 91.5712,278.0695 92.0536,277.5983 92.5361,277.127 93.9464,275.7494 96.2272,275.7526 97.653,277.2122 99.0668,278.6596 99.0159,280.9391 97.6056,282.3168 97.1151,282.7959 96.6246,283.275 96.1342,283.754 94.9252,284.935 92.6444,285.1889" stroke="black" stroke-width="1" /><polyline fill="none" points="81.2405,279.7208 79.7071,280.9606 77.4647,280.7228 76.225,279.1895 74.9742,277.6425 75.2168,275.3521 76.7502,274.1123 77.3509,273.6266 77.8468,273.4236 78.281,273.3591 82.6742,272.7034 87.0674,272.0476 91.4606,271.3918 91.5715,271.3022 91.6824,271.2125 91.7933,271.1229 90.3056,269.2827 88.8179,267.4426 87.3302,265.6025" stroke="black" stroke-width="1" /><polyline fill="none" points="73.1698,269.2761 71.527,270.3668 69.3167,269.9201 68.226,268.2774 67.1256,266.6201 67.5816,264.3624 69.2243,263.2717 69.8679,262.8444 70.3806,262.6888 70.819,262.6652 75.2543,262.4237 79.6896,262.1823 84.1249,261.9407 84.2437,261.8619 84.3625,261.783 84.4813,261.7041 83.1725,259.7328 81.8636,257.7614 80.5547,255.7901" stroke="black" stroke-width="1" /><polyline fill="none" points="59.6468,253.8109 63.6957,251.6391 67.7447,249.4672 71.7937,247.2954 73.5464,246.3552 75.6758,247.0608 76.5756,248.7383 77.4671,250.4004 76.8773,252.5649 75.1245,253.5051 73.7951,254.2182 72.4657,254.9313 71.1362,255.6444 69.3835,256.5846 67.2546,255.8784 66.363,254.2163 65.4632,252.5387 66.0526,250.3749 67.8053,249.4347" stroke="black" stroke-width="1" /><polyline fill="none" points="60.1308,246.3549 58.3135,247.1202 56.2253,246.2693 55.46,244.452 54.688,242.6185 55.5569,240.4855 57.3742,239.7202 58.0862,239.4204 58.6189,239.3631 59.054,239.4217 63.4565,240.0115 67.859,240.6012 72.2616,241.1909 72.393,241.1356 72.5244,241.0802 72.6559,241.0249 71.7376,238.8441 70.8192,236.6633 69.9009,234.4825" stroke="black" stroke-width="1" /><polyline fill="none" points="50.4089,229.9455 50.7071,230.8933 51.5268,231.4984 52.737,231.1177 53.909,230.749 55.081,230.3803 56.253,230.0117 56.0712,229.4339 55.8895,228.8562 55.7077,228.2785 56.0576,229.3907 56.4075,230.5028 56.7573,231.615 56.5892,231.0805 56.4211,230.5461 56.253,230.0117 59.8563,228.8781 63.4596,227.7446 67.0629,226.611" stroke="black" stroke-width="1" /><polyline fill="none" points="55.0883,213.7738 55.0829,213.7749 55.0775,213.7761 55.0722,213.7772 57.352,213.2889 59.6318,212.8006 61.9116,212.3123 62.9652,212.0866 63.2113,211.2607 63.0931,210.7089 63.244,211.4133 62.7683,212.1288 62.0453,212.2836 62.0008,212.2932 61.9562,212.3027 61.9116,212.3123 63.0971,213.1812 64.0405,214.3116 64.3528,215.7696 64.6114,216.9769 64.4277,219.0679 61.9635,219.5957 60.6724,219.8723 59.697,219.3277 59.0392,218.3812 58.7133,217.9254 58.053,216.3998 57.6054,215.374 57.1376,214.3345 56.3794,213.4973 55.0883,213.7738 53.7807,214.0539 52.4894,215.7159 52.9203,217.7274 53.3262,219.6224 54.4345,220.2967 55.408,220.6671" stroke="black" stroke-width="1" /><polyline fill="none" points="48.8142,207.2026 45.1485,204.9572 62.1746,202.9522" stroke="black" stroke-width="1" /><polyline fill="none" points="47.6937,188.2004 51.1546,190.4977 54.6155,192.7951 58.0764,195.0924 54.6712,195.1722 51.2661,195.2521 47.8609,195.3319 45.8896,195.3781 44.258,193.8206 44.2118,191.85 44.1651,189.8608 45.7224,188.2466 47.6937,188.2004 51.0989,188.1206 54.504,188.0407 57.9091,187.9609 59.8804,187.9147 61.511,189.4541 61.5572,191.4257 61.6038,193.4138 60.0477,195.0462 58.0764,195.0924" stroke="black" stroke-width="1" /><polyline fill="none" points="58.4294,175.8661 60.4131,176.0059 61.8393,177.7222 61.7055,179.6208 61.5718,181.5194 59.9178,183.0355 57.9341,182.8958 56.4292,182.7897 54.9243,182.6837 53.4194,182.5777 51.4354,182.4379 50.0111,180.7049 50.1448,178.8063 50.2786,176.9078 51.9306,175.4083 53.9147,175.5481" stroke="black" stroke-width="1" /><polyline fill="none" points="49.0586,168.9572 47.1132,168.635 45.8008,166.8013 46.123,164.8559 46.448,162.8933 48.3208,161.5526 50.2662,161.8748 51.0283,162.001 51.5095,162.2367 51.8463,162.5184 55.2555,165.3657 58.6647,168.2131 62.0739,171.0604 62.2146,171.0837 62.3553,171.107 62.496,171.1303 62.8826,168.7958 63.2692,166.4613 63.6558,164.1269" stroke="black" stroke-width="1" /><polyline fill="none" points="51.6749,154.724 49.0868,151.2917 65.6636,155.6641" stroke="black" stroke-width="1" /><polyline fill="none" points="67.0508,140.25 68.9177,140.9351 69.8113,142.9799 69.1557,144.7666 68.5,146.5535 66.4902,147.5508 64.6233,146.8658 63.207,146.3461 61.7907,145.8264 60.3744,145.3068 58.5071,144.6216 57.62,142.5613 58.2756,140.7745 58.9312,138.9877 60.9346,138.0059 62.8019,138.691" stroke="black" stroke-width="1" /><polyline fill="none" points="65.8288,125.8163 67.6083,126.6659 68.3668,128.7766 67.5172,130.5561 66.6603,132.351 64.535,133.1026 62.7556,132.253 61.8376,131.8147 60.9195,131.3764 60.0015,130.9381 58.2221,130.0885 57.4698,127.9629 58.3195,126.1832 59.1764,124.3886 61.2953,123.6518 63.0748,124.5014 66.1484,125.9689 69.2221,127.4365 72.2958,128.904 74.075,129.7535 74.8338,131.8643 73.9843,133.6438 73.253,135.1754 71.5947,135.9422 70.0084,135.6031" stroke="black" stroke-width="1" /><polyline fill="none" points="71.6071,118.529 72.5258,117.1913 72.1431,114.9115 70.4584,113.9034 70.0663,113.6688 69.6742,113.4342 69.2822,113.1995 67.6927,112.2485 65.6228,112.7696 64.663,114.3737 63.7121,115.9628 64.2614,118.0504 65.821,118.9837 66.2131,119.2183 66.6052,119.4529 66.9973,119.6875 68.587,120.6388 70.6562,120.118 71.6071,118.529 72.6548,116.7781 74.9014,116.2623 76.5928,117.2744 77.1715,117.6207 77.7503,117.967 78.329,118.3133 80.0207,119.3256 80.5993,121.5319 79.5516,123.2828 78.5127,125.019 76.2955,125.5511 74.6038,124.5388 74.0154,124.1867 73.4271,123.8347 72.8388,123.4826 71.3885,122.6148 70.5614,120.4742" stroke="black" stroke-width="1" /><polyline fill="none" points="78.673,107.8904 79.7128,106.6446 79.5453,104.339 77.9624,103.1775 77.594,102.9072 77.2256,102.6369 76.8573,102.3666 75.3639,101.2709 73.2543,101.5959 72.1484,103.1031 71.0529,104.5962 71.4043,106.726 72.8697,107.8013 73.2381,108.0716 73.6065,108.3419 73.9749,108.6122 75.4685,109.7081 77.5775,109.3834 78.673,107.8904 79.88,106.2453 82.165,105.9421 83.7542,107.1082 84.298,107.5072 84.8417,107.9061 85.3855,108.3051 86.975,109.4714 87.3444,111.7221 86.1374,113.3672 84.9405,114.9985 82.6832,115.3207 81.0937,114.1544 80.5409,113.7488 79.9881,113.3432 79.4353,112.9376 78.0727,111.9378 77.4496,109.7291" stroke="black" stroke-width="1" /><polyline fill="none" points="81.7061,96.5382 80.9483,92.3068 93.7601,103.6983" stroke="black" stroke-width="1" /><polyline fill="none" points="89.9204,87.6789 88.7045,86.3744 88.72,84.2035 90.1376,82.8822 91.5545,81.5616 93.6765,81.6241 95.0558,83.104 95.2739,83.338 95.492,83.572 95.7101,83.806 97.8143,86.0636 96.1955,88.2749 95.9442,88.5092 95.7018,88.7351 95.4594,88.961 95.217,89.1869 95.4594,88.961 95.7018,88.7351 95.9442,88.5092 96.6846,87.8191 99.0835,87.2242 100.7196,88.9797 101.199,89.4941 101.6784,90.0084 102.1578,90.5228 103.5134,91.9773 103.4096,94.2305 101.9546,95.5866 100.4871,96.9544 98.2452,96.8874 96.8895,95.4329" stroke="black" stroke-width="1" /><polyline fill="none" points="103.253,83.5524 102.039,81.9767 102.3875,79.761 103.8955,78.5992 105.4029,77.4379 107.6212,77.6761 108.8351,79.2517 109.7558,80.4468 110.6765,81.6418 111.5973,82.8369 112.8109,84.4123 112.476,86.6185 110.9686,87.7799 109.4606,88.9417 107.2421,88.7027 106.0284,87.1273 106.024,87.1308 106.0196,87.1342 106.0151,87.1376 103.211,83.4978 100.4068,79.8581 97.6026,76.2184" stroke="black" stroke-width="1" /><polyline fill="none" points="114.2952,64.5551 116.7462,68.4415 119.1973,72.3278 121.6483,76.2141 122.7093,77.8965 122.1552,80.0701 120.545,81.0856 118.9496,82.0918 116.749,81.6555 115.688,79.9732 114.8832,78.6971 114.0784,77.4211 113.2737,76.1451 112.2126,74.4627 112.7675,72.2895 114.3629,71.2833 115.973,70.2678 118.173,70.7037 119.234,72.386" stroke="black" stroke-width="1" /><polyline fill="none" points="130.0363,65.9461 130.0338,65.9412 130.0314,65.9363 130.0289,65.9314 131.0825,68.0113 132.1361,70.0912 133.1897,72.1711 133.6767,73.1323 134.5381,73.1595 135.0414,72.9045 134.3988,73.2301 133.5856,72.9526 133.2515,72.2931 133.2309,72.2524 133.2103,72.2117 133.1897,72.1711 132.6519,73.5389 131.7995,74.7394 130.4693,75.4132 129.3679,75.9712 127.2992,76.3269 126.1604,74.0788 125.5637,72.9009 125.8415,71.8189 126.5889,70.9414 126.9465,70.5101 128.2533,69.4825 129.131,68.7881 130.0168,68.0707 130.633,67.124 130.0363,65.9461 129.432,64.7532 127.4957,63.9285 125.6605,64.8582 123.9317,65.7339 123.5624,66.9776 123.4525,68.0133" stroke="black" stroke-width="1" /><polyline fill="none" points="133.6702,58.8099 132.9478,56.9751 133.8474,54.9074 135.6822,54.1849 137.5332,53.4561 139.6453,54.3748 140.3677,56.2095 140.6508,56.9283 140.6956,57.4622 140.6268,57.8958 139.934,62.2833 139.2412,66.6708 138.5484,71.0583 138.6007,71.191 138.6529,71.3237 138.7052,71.4564 140.9069,70.5895 143.1086,69.7225 145.3104,68.8556" stroke="black" stroke-width="1" /><polyline fill="none" points="147.9902,61.1465 147.4428,59.2522 148.5319,57.2771 150.4256,56.7299 152.3371,56.1774 154.2951,57.2719 154.8426,59.1662 155.1249,60.1433 155.4073,61.1204 155.6897,62.0974 156.2372,63.9918 155.1646,65.9613 153.2531,66.5137 151.3595,67.061 149.3848,65.9721 148.8374,64.0778 147.8917,60.8056 146.946,57.5334 146.0004,54.2613 145.453,52.3673 146.5423,50.3925 148.4359,49.8453 150.0674,49.3738 151.7412,50.1035 152.5418,51.5139" stroke="black" stroke-width="1" /><polyline fill="none" points="160.0938,57.9127 159.7262,55.9755 160.9955,54.111 162.932,53.7435 164.8869,53.3725 166.7338,54.6455 167.1015,56.5828 167.2911,57.582 167.4808,58.5812 167.6704,59.5804 168.0381,61.5177 166.7858,63.3782 164.831,63.7492 162.8944,64.1167 161.0304,62.8477 160.6628,60.9104 160.0276,57.5641 159.3926,54.2177 158.7575,50.8714 158.3899,48.9345 159.6592,47.0704 161.5958,46.7029 163.2643,46.3862 164.8624,47.2695 165.5274,48.7486" stroke="black" stroke-width="1" /><polyline fill="none" points="188.2408,269.0574 189.0084,152.2515 189.0084,152.2515 239.8942,231.6324 239.8942,231.6324 188.8697,188.4998 188.8365,96.1804 156.5688,130.1462 108.8569,140.3048 108.5745,236.1363" stroke="black" stroke-width="1" /><polyline fill="none" points="126.218,236.1883 90.931,236.0843" stroke="black" stroke-width="1" /><polyline fill="none" points="199.9259,280.8196 199.7811,278.9795 199.3502,277.1848 198.6439,275.4796 197.6795,273.9058 196.4808,272.5023 195.0773,271.3036 193.5035,270.3392 191.7983,269.6329 190.0036,269.202 188.1635,269.0572 186.3235,269.202 184.5287,269.6329 182.8235,270.3392 181.2497,271.3036 179.8462,272.5023 178.6475,273.9058 177.6831,275.4796 176.9768,277.1848 176.5459,278.9795 176.4011,280.8196 176.5459,282.6596 176.9768,284.4543 177.6831,286.1596 178.6475,287.7333 179.8462,289.1368 181.2497,290.3356 182.8235,291.3 184.5287,292.0063 186.3235,292.4372 188.1635,292.582 190.0036,292.4372 191.7983,292.0063 193.5035,291.3 195.0773,290.3356 196.4808,289.1368 197.6795,287.7333 198.6439,286.1596 199.3502,284.4543 199.7811,282.6596 199.9259,280.8196" stroke="black" stroke-width="1" /><polyline fill="none" points="188.5,69.0664 199.6839,69.5912 210.7696,71.161 221.6595,73.7619 232.2581,77.3712 242.4721,81.9571 252.2118,87.4792 261.3915,93.8892 269.9308,101.1306 277.7544,109.1398 284.7936,117.8464 290.9866,127.1739 296.2789,137.0404 300.6241,147.3591 303.9839,158.0393 306.3289,168.9873 307.6383,180.1067 307.9008,191.2998 307.114,202.4684 305.2847,213.5142 302.4292,224.3402 298.5725,234.8512 293.7484,244.9549 287.9994,254.5625 281.376,263.5894 273.9365,271.9565 265.7461,279.5902 256.8768,286.4234 247.4067,292.3961 237.4188,297.4556 227.0011,301.5577 216.2451,304.6663 205.2452,306.7539 194.0981,307.8023 182.9019,307.8023 171.7548,306.7539 160.7549,304.6663 149.9989,301.5577 139.5811,297.4556 129.5933,292.3961 120.1232,286.4234 111.2539,279.5902 103.0635,271.9565 95.6239,263.5894 89.0006,254.5625 83.2516,244.9549 78.4275,234.8512 74.5708,224.3402 71.7153,213.5142 69.8861,202.4684 69.0992,191.2998 69.3617,180.1067 70.6712,168.9872 73.0161,158.0393 76.3759,147.3591 80.7211,137.0404 86.0134,127.174 92.2064,117.8464 99.2457,109.1398 107.0692,101.1306 115.6085,93.8892 124.7882,87.4792 134.5279,81.957 144.7419,77.3712 155.3405,73.7619 166.2304,71.161 177.3161,69.5912 188.5,69.0664" stroke="black" stroke-width="1" />

    </g>
  </g>
  <WCB
     pausedposy="0"
     pausedposx="0"
     lastknownposy="0"
     lastknownposx="0"
     lastpathnc="0"
     lastpath="0"
     node="0"
     layer="0" />
</svg>
