<?xml version="1.0" encoding="UTF-8" standalone="no"?>
<!-- Created with Inkscape (http://www.inkscape.org/) -->

<svg
   xmlns:dc="http://purl.org/dc/elements/1.1/"
   xmlns:cc="http://creativecommons.org/ns#"
   xmlns:rdf="http://www.w3.org/1999/02/22-rdf-syntax-ns#"
   xmlns:svg="http://www.w3.org/2000/svg"
   xmlns="http://www.w3.org/2000/svg"
   xmlns:sodipodi="http://sodipodi.sourceforge.net/DTD/sodipodi-0.dtd"
   xmlns:inkscape="http://www.inkscape.org/namespaces/inkscape"
   width="100mm"
   height="100mm"
   viewBox="0 0 100 100"
   version="1.1"
   id="svg19124"
   inkscape:version="0.92.3 (2405546, 2018-03-11)"
   sodipodi:docname="inkscape_template_TMP.svg"
   shape-rendering="crispEdges">
  <sodipodi:namedview
     pagecolor="#ffffff"
     bordercolor="#666666"
     borderopacity="1"
     objecttolerance="10"
     gridtolerance="10"
     guidetolerance="10"
     inkscape:pageopacity="0"
     inkscape:pageshadow="2"
     inkscape:window-width="1568"
     inkscape:window-height="1550"
     id="namedview24021"
     showgrid="false"
     inkscape:zoom="0.62441667"
     inkscape:cx="712.66515"
     inkscape:cy="409.98265"
     inkscape:window-x="0"
     inkscape:window-y="0"
     inkscape:window-maximized="0"
     inkscape:current-layer="layer1" />
  <defs
     id="defs19118" />
  <metadata
     id="metadata19121">
    <rdf:RDF>
      <cc:Work
         rdf:about="">
        <dc:format>image/svg+xml</dc:format>
        <dc:type
           rdf:resource="http://purl.org/dc/dcmitype/StillImage" />
        <dc:title />
      </cc:Work>
    </rdf:RDF>
  </metadata>
  <g
     transform="translate(0,-197)"
     id="layer1"
     inkscape:groupmode="layer"
     inkscape:label="Layer 1">
    <g
       id="g24447"
       transform="matrix(0.26458333,0,0,0.26458333,0.10666333,197.9735)">

<polyline fill="none" points="192.1004,47.7394 189.7225,51.1455 187.3447,54.5516 184.9669,57.9577 184.9669,54.5516 184.9669,51.1455 184.9669,47.7394 184.9669,45.7676 186.5623,44.1729 188.5334,44.1729 190.5231,44.1729 192.1004,45.7676 192.1004,47.7394 192.1004,51.1455 192.1004,54.5516 192.1004,57.9577 192.1004,59.9295 190.5231,61.5235 188.5509,61.5235 186.5623,61.5235 184.9669,59.9295 184.9669,57.9577" stroke="black" stroke-width="1" /><polyline fill="none" points="197.8298,61.5877 200.7471,57.7851 198.696,53.7706 202.935,62.0679 200.7471,57.7851 203.4811,54.2207" stroke="black" stroke-width="1" /><polyline fill="none" points="214.8102,64.075 215.6126,59.8471 209.6148,58.7088 217.5689,47.1487" stroke="black" stroke-width="1" /><polyline fill="none" points="230.2997,57.236 229.7523,59.1303 227.7938,60.2235 225.8995,59.6761 223.9887,59.1238 222.8999,57.15 223.4474,55.2556 223.7299,54.2783 224.0123,53.301 224.2947,52.3237 224.8422,50.4294 226.8163,49.34 228.711,49.8875 230.6214,50.4396 231.6945,52.4097 231.1471,54.3041 230.2014,57.5762 229.2557,60.8484 228.3101,64.1206 227.7627,66.0145 225.8042,67.1081 223.9099,66.5607 222.2794,66.0894 221.252,64.5787 221.3273,62.9583" stroke="black" stroke-width="1" /><polyline fill="none" points="234.1348,62.8919 234.8572,61.0571 236.9254,60.1572 238.7595,60.8794 240.6109,61.6084 241.494,63.6704 240.7716,65.5051 240.3989,66.4515 240.0263,67.3978 239.6537,68.3442 238.9312,70.1789 236.8796,71.0845 235.0282,70.3555 233.1941,69.6334 232.2945,67.5656 233.0169,65.7309 234.2648,62.5616 235.5127,59.3924 236.7607,56.2232 237.483,54.3887 239.5511,53.4892 241.3851,54.2114 242.9653,54.8336 243.8459,56.4332 243.6193,58.039" stroke="black" stroke-width="1" /><polyline fill="none" points="249.1933,61.2241 249.9991,59.6333 252.0425,58.9 253.7713,59.7757 255.4991,60.651 256.1714,62.6647 255.2572,64.4693 255.1127,64.7546 254.9681,65.04 254.8235,65.3254 253.4289,68.0785 250.7953,67.3205 250.4888,67.1652 250.1932,67.0155 249.8977,66.8658 249.6021,66.716 249.8977,66.8658 250.1932,67.0155 250.4888,67.1652 251.3917,67.6226 252.7765,69.6698 251.6921,71.8105 251.3744,72.4377 251.0566,73.0649 250.7389,73.6922 249.8404,75.4659 247.6893,76.1446 245.9149,75.2458 244.1253,74.3392 243.416,72.2114 244.3145,70.4377" stroke="black" stroke-width="1" /><polyline fill="none" points="261.1025,66.494 262.3647,64.4926 268.3842,68.289 255.018,80.1278" stroke="black" stroke-width="1" /><polyline fill="none" points="269.9359,88.4934 268.9061,88.847 267.7402,89.0962 266.0557,87.7984 264.5477,86.6366 264.1992,84.4204 265.4447,82.8037 266.3549,81.6223 267.2651,80.4409 268.1753,79.2595 269.3892,77.6839 271.6205,77.4562 273.1285,78.618 274.6637,79.8008 275.0395,82.0371 273.8256,83.6127 273.3723,84.2011 272.9189,84.7895 272.4656,85.3779 270.5867,83.9303 268.7078,82.4827 266.8289,81.0352" stroke="black" stroke-width="1" /><polyline fill="none" points="281.4013,88.8544 282.5169,90.0328 284.8263,90.1361 286.1649,88.7 286.4764,88.3657 286.7879,88.0314 287.0995,87.6972 288.3623,86.3422 288.2863,84.2091 286.9188,82.9345 285.5641,81.6719 283.4077,81.7718 282.1685,83.1014 281.857,83.4357 281.5454,83.7699 281.2339,84.1042 279.9708,85.4594 280.0466,87.5918 281.4013,88.8544 282.8939,90.2456 282.9277,92.5503 281.5838,93.9923 281.124,94.4856 280.6641,94.979 280.2043,95.4724 278.8601,96.9146 276.5816,97.0182 275.089,95.6271 273.6089,94.2476 273.5529,91.9681 274.8971,90.5259 275.3646,90.0244 275.832,89.5228 276.2995,89.0212 277.4518,87.7849 279.7183,87.4244" stroke="black" stroke-width="1" /><polyline fill="none" points="291.3659,92.3519 292.8394,91.0417 295.0906,91.174 296.4008,92.6476 297.7227,94.1343 297.5878,96.4336 296.1142,97.7438 295.5368,98.2571 295.051,98.4831 294.6203,98.5679 290.2627,99.4289 285.905,100.2898 281.5474,101.1508 281.4409,101.2455 281.3343,101.3403 281.2277,101.4351 282.8,103.2034 284.3723,104.9718 285.9446,106.7401" stroke="black" stroke-width="1" /><polyline fill="none" points="301.724,110.0284 300.1342,111.1949 297.9156,110.8656 296.7491,109.2758 295.5724,107.6722 295.9146,105.4441 297.5044,104.2776 298.3246,103.6758 299.1448,103.074 299.965,102.4722 301.5548,101.3057 303.7835,101.6474 304.9502,103.2375 306.1266,104.8409 305.7744,107.0565 304.1846,108.223 301.4384,110.2379 298.6923,112.2528 295.9461,114.2678 294.3566,115.4341 292.1377,115.105 290.9712,113.5152 289.9672,112.1468 290.0753,110.323 291.1239,109.0854" stroke="black" stroke-width="1" /><polyline fill="none" points="302.6975,116.1122 304.4043,115.0909 306.564,115.696 307.5415,117.3295 308.5186,118.9624 308.0226,121.1376 306.3158,122.1589 305.0212,122.9336 303.7267,123.7082 302.4321,124.4829 300.7256,125.504 298.5737,124.9133 297.5966,123.2804 296.6191,121.6468 297.116,119.4716 298.8224,118.4505 298.8196,118.4457 298.8167,118.4409 298.8138,118.4361 302.7565,116.0768 306.6993,113.7176 310.642,111.3583" stroke="black" stroke-width="1" /><polyline fill="none" points="319.4162,128.1029 318.9881,127.2062 318.0916,126.722 316.9468,127.2686 315.8381,127.798 314.7294,128.3273 313.6207,128.8567 313.8816,129.4032 314.1425,129.9498 314.4035,130.4963 313.9011,129.4442 313.3988,128.3921 312.8965,127.34 313.1379,127.8455 313.3793,128.3511 313.6207,128.8567 310.2119,130.4843 306.8031,132.1118 303.3943,133.7393" stroke="black" stroke-width="1" /><polyline fill="none" points="324.9656,141.5323 324.2587,139.6058 323.5518,137.6793 322.845,135.7528 320.3071,136.684 317.7692,137.6152 315.2314,138.5464 316.5984,138.7387 317.584,139.3822 318.0978,140.7823 318.8066,142.714 317.7621,144.7955 315.976,145.4509 314.699,145.9194 313.4221,146.388 312.1452,146.8565 310.2783,147.5415 308.3607,146.5468 307.7168,144.7919 307.079,143.0537 307.9041,141.071 309.771,140.3859" stroke="black" stroke-width="1" /><polyline fill="none" points="316.7681,150.9868 318.6747,150.4839 320.6238,151.6191 321.1265,153.5251 321.634,155.449 320.4939,157.3808 318.5873,157.8837 317.6038,158.1431 316.6204,158.4025 315.637,158.6619 313.7303,159.1648 311.7865,158.0464 311.279,156.1225 310.7763,154.2165 311.9112,152.2679 313.8178,151.765 317.1113,150.8963 320.4047,150.0276 323.6981,149.159 325.6044,148.6561 327.5531,149.7914 328.0558,151.6973 328.489,153.3394 327.7202,154.9957 326.2914,155.763" stroke="black" stroke-width="1" /><polyline fill="none" points="331.33,167.8014 330.9947,165.7768 330.6594,163.7523 330.3242,161.7278 327.6572,162.1694 324.9902,162.6111 322.3232,163.0528 323.6304,163.4966 324.4788,164.3126 324.7224,165.784 325.0586,167.8139 323.6443,169.6642 321.7673,169.9751 320.4254,170.1973 319.0836,170.4195 317.7416,170.6417 315.7797,170.9666 314.0813,169.6318 313.7759,167.7876 313.4734,165.961 314.6537,164.1668 316.6156,163.8419" stroke="black" stroke-width="1" /><polyline fill="none" points="324.3994,178.9469 324.412,180.5696 326.0309,182.2198 327.9894,182.0818 328.4452,182.0497 328.9009,182.0176 329.3568,181.9855 331.2044,181.8553 332.6031,180.243 332.4718,178.3782 332.3416,176.531 330.6961,175.1338 328.8831,175.2615 328.4272,175.2937 327.9715,175.3258 327.5157,175.3579 325.6677,175.4881 324.2692,177.0997 324.3994,178.9469 324.5427,180.9823 322.9961,182.6914 321.0298,182.8299 320.3571,182.8773 319.6843,182.9247 319.0116,182.9721 317.0449,183.1106 315.3074,181.6329 315.1641,179.5976 315.0219,177.5793 316.5351,175.8737 318.5017,175.7351 319.1856,175.6869 319.8696,175.6387 320.5535,175.5906 322.2394,175.4718 324.1431,176.7534" stroke="black" stroke-width="1" /><polyline fill="none" points="332.8027,195.2382 328.2093,195.1305 323.6158,195.0228 319.0225,194.9151 317.034,194.8684 315.5297,193.2044 315.5743,191.3013 315.6185,189.4157 317.1992,187.8237 319.1876,187.8703 320.6959,187.9057 322.204,187.9411 323.7123,187.9764 325.7007,188.023 327.2043,189.6874 327.1601,191.573 327.1155,193.4761 325.5355,195.0678 323.5471,195.0211" stroke="black" stroke-width="1" /><polyline fill="none" points="321.5931,200.5902 323.5514,200.8208 324.949,202.5911 324.7185,204.5487 324.4858,206.5248 322.7172,207.9046 320.7589,207.674 319.7488,207.5551 318.7387,207.4361 317.7286,207.3171 315.7703,207.0865 314.3714,205.3337 314.6041,203.3576 314.8346,201.4 316.6045,200.0027 318.5629,200.2334 321.9456,200.6317 325.3282,201.0301 328.7109,201.4284 330.6689,201.659 332.0662,203.4293 331.8356,205.3869 331.637,207.0735 330.3149,208.3329 328.7043,208.5234" stroke="black" stroke-width="1" /><polyline fill="none" points="329.0679,220.5552 329.276,219.5836 328.8614,218.6529 327.6209,218.3872 326.4196,218.1299 325.2182,217.8726 324.0168,217.6152 323.89,218.2074 323.7631,218.7996 323.6363,219.3918 323.8805,218.2518 324.1246,217.1118 324.3688,215.9717 324.2515,216.5196 324.1342,217.0674 324.0168,217.6152 320.3232,216.8241 316.6296,216.033 312.9359,215.2418" stroke="black" stroke-width="1" /><polyline fill="none" points="325.4485,233.5773 325.7467,232.6295 325.4211,231.6641 324.2109,231.2834 323.0389,230.9147 321.8669,230.546 320.6949,230.1773 320.5132,230.755 320.3315,231.3327 320.1497,231.9104 320.4996,230.7983 320.8494,229.6861 321.1993,228.574 321.0312,229.1084 320.8631,229.6429 320.6949,230.1773 317.0916,229.0438 313.4883,227.9102 309.885,226.7767" stroke="black" stroke-width="1" /><polyline fill="none" points="319.238,241.1259 321.3194,244.8872 305.5193,238.2338" stroke="black" stroke-width="1" /><polyline fill="none" points="314.1975,251.9505 315.9352,252.8826 316.5864,255.0415 315.6543,256.7791 314.714,258.5322 312.5089,259.1976 310.7713,258.2655 310.0905,257.9003 309.711,257.5221 309.483,257.1469 307.1737,253.3526 304.8644,249.5582 302.5551,245.7639 302.4294,245.6965 302.3037,245.629 302.178,245.5616 301.0595,247.6469 299.941,249.7321 298.8225,251.8173" stroke="black" stroke-width="1" /><polyline fill="none" points="303.7753,269.3585 302.253,265.4935 300.7307,261.6286 299.2083,257.7636 302.0459,259.6476 304.8835,261.5316 307.7211,263.4156 309.3638,264.5063 309.8099,266.7175 308.7196,268.3597 307.619,270.0173 305.4181,270.4492 303.7753,269.3585 300.9377,267.4745 298.1002,265.5905 295.2626,263.7065 293.6199,262.6158 293.1643,260.4201 294.2552,258.7771 295.3552,257.1204 297.5656,256.6729 299.2083,257.7636" stroke="black" stroke-width="1" /><polyline fill="none" points="301.1775,274.8735 303.0175,276.3611 298.5432,281.8953 288.3488,267.2362" stroke="black" stroke-width="1" /><polyline fill="none" points="290.8661,285.3664 291.4247,289.6287 279.1609,277.6491" stroke="black" stroke-width="1" /><polyline fill="none" points="277.6186,288.0883 278.8939,289.5922 278.7093,291.8401 277.2059,293.115 275.6884,294.4019 273.4539,294.2054 272.1785,292.7015 271.5208,291.9258 270.8629,291.1501 270.2051,290.3744 268.9298,288.8705 269.1015,286.6345 270.619,285.3476 272.1224,284.0727 274.3698,284.2573 275.6452,285.7612 277.8481,288.3589 280.0511,290.9567 282.254,293.5544 283.5291,295.0581 283.3443,297.3058 281.8409,298.5806 280.5457,299.679 278.7198,299.6989 277.4118,298.7401" stroke="black" stroke-width="1" /><polyline fill="none" points="264.2958,303.5324 263.1669,301.9157 263.5481,299.7054 265.1648,298.5765 266.7956,297.4378 269.015,297.8322 270.1439,299.4489 270.7263,300.283 271.3087,301.117 271.8912,301.9511 273.0201,303.5678 272.6262,305.7879 271.0091,306.917 269.3787,308.0555 267.1719,307.6514 266.043,306.0347 264.093,303.242 262.143,300.4494 260.193,297.6568 259.0643,296.0403 259.4453,293.8298 261.062,292.7009 262.4535,291.7292 264.2743,291.8801 265.487,292.9574" stroke="black" stroke-width="1" /><polyline fill="none" points="260.9615,309.4635 261.841,311.0148 261.3217,313.1227 259.6359,314.0786 257.951,315.0338 255.9015,314.4801 254.9038,312.7203 254.746,312.442 254.5882,312.1638 254.4305,311.8855 252.9083,309.2008 254.9965,307.426 255.2954,307.2566 255.5836,307.0931 255.8718,306.9297 256.16,306.7663 255.8718,306.9297 255.5836,307.0931 255.2954,307.2566 254.4149,307.7558 251.9435,307.7771 250.7599,305.6896 250.4131,305.0779 250.0663,304.4663 249.7195,303.8546 248.7388,302.125 249.3632,299.9575 251.0935,298.9765 252.8386,297.9871 255.0036,298.573 255.9843,300.3026" stroke="black" stroke-width="1" /><polyline fill="none" points="244.9419,321.3275 246.8139,320.4869 248.686,319.6464 250.5581,318.8059 249.4508,316.3398 248.3436,313.8736 247.2363,311.4075 247.1406,312.7847 246.5679,313.8131 245.2073,314.424 243.3302,315.2668 241.1805,314.3711 240.4012,312.6355 239.8441,311.3947 239.287,310.1538 238.7299,308.913 237.9153,307.0988 238.7728,305.1161 240.4781,304.3504 242.1672,303.5921 244.203,304.2757 245.0176,306.0899" stroke="black" stroke-width="1" /><polyline fill="none" points="237.1358,320.8533 237.7107,322.5414 236.8074,324.5155 234.9729,325.1402 233.1395,325.7646 231.2292,324.8384 230.5771,322.9235 230.474,322.6206 230.3708,322.3178 230.2677,322.015 229.2728,319.0936 231.6553,317.7393 231.9806,317.6285 232.2942,317.5217 232.6078,317.4149 232.9215,317.3081 232.6078,317.4149 232.2942,317.5217 231.9806,317.6285 231.0224,317.9548 228.5904,317.515 227.8168,315.2433 227.5901,314.5778 227.3635,313.9122 227.1368,313.2466 226.4958,311.3644 227.5134,309.3514 229.3963,308.7102 231.2953,308.0635 233.3131,309.0429 233.954,310.925" stroke="black" stroke-width="1" /><polyline fill="none" points="220.1276,321.0126 218.5288,321.2902 217.1653,323.157 217.6214,325.0665 217.7275,325.511 217.8336,325.9554 217.9398,326.3998 218.3701,328.2014 220.1893,329.3179 222.0075,328.8837 223.8087,328.4534 224.9182,326.6017 224.496,324.8339 224.3898,324.3895 224.2837,323.9451 224.1776,323.5007 223.7472,321.6988 221.9288,320.5824 220.1276,321.0126 218.143,321.4866 216.2042,320.24 215.7463,318.3228 215.5896,317.6667 215.433,317.0108 215.2763,316.3548 214.8183,314.4373 215.9922,312.4817 217.9769,312.0077 219.9448,311.5377 221.8747,312.7519 222.3327,314.6695 222.492,315.3363 222.6512,316.0032 222.8105,316.67 223.2031,318.3139 222.2498,320.4014" stroke="black" stroke-width="1" /><polyline fill="none" points="205.4281,331.9647 204.7839,327.4154 204.1397,322.8661 203.4955,318.3168 203.2167,316.3474 204.6125,314.5915 206.4974,314.3246 208.3649,314.0601 210.1938,315.3594 210.4726,317.3288 210.6841,318.8225 210.8956,320.3162 211.1072,321.81 211.386,323.7793 209.9897,325.5346 208.1222,325.7991 206.2374,326.066 204.409,324.7673 204.1301,322.7979" stroke="black" stroke-width="1" /><polyline fill="none" points="191.2466,326.2313 191.1541,324.2616 192.6556,322.5955 194.6253,322.503 196.6121,322.4098 198.279,323.9273 198.3715,325.897 198.4191,326.9132 198.4668,327.9294 198.5145,328.9456 198.6069,330.9152 197.0895,332.5829 195.1194,332.6754 193.1329,332.7686 191.482,331.2496 191.3896,329.2798 191.2299,325.8776 191.0703,322.4752 190.9107,319.0729 190.8183,317.1035 192.3197,315.437 194.2894,315.3446 195.9847,315.265 197.4443,316.3639 197.8954,317.9221" stroke="black" stroke-width="1" /><polyline fill="none" points="178.9123,323.9457 178.912,323.9512 178.9118,323.9566 178.9115,323.9621 179.0208,321.6332 179.1301,319.3042 179.2394,316.9753 179.2899,315.8989 178.554,315.4503 177.9903,315.4239 178.7099,315.4576 179.2805,316.1001 179.2458,316.8386 179.2437,316.8842 179.2415,316.9297 179.2394,316.9753 180.3819,316.0506 181.7155,315.4267 183.205,315.4966 184.4383,315.5545 186.4133,316.2654 186.2952,318.7827 186.2333,320.1016 185.4579,320.9058 184.375,321.3005 183.8512,321.4994 182.2076,321.7487 181.1015,321.9199 179.9772,322.1071 178.9742,322.6267 178.9123,323.9457 178.8496,325.2814 180.1273,326.9539 182.1823,327.0504 184.1181,327.1412 185.0527,326.2415 185.6592,325.3947" stroke="black" stroke-width="1" /><polyline fill="none" points="172.9941,322.8154 172.7152,324.7848 170.8867,326.0838 169.0019,325.8169 167.1178,325.5501 165.7381,323.7968 166.017,321.8275 166.2285,320.3337 166.44,318.84 166.6516,317.3463 166.9304,315.3773 168.7427,314.0753 170.6268,314.342 172.5116,314.6089 173.8908,316.3629 173.612,318.3319 173.6176,318.3327 173.6231,318.3335 173.6286,318.3342 172.9844,322.8835 172.3402,327.4329 171.696,331.9821" stroke="black" stroke-width="1" /><polyline fill="none" points="154.7853,314.7589 155.2472,312.8246 157.1735,311.698 159.0247,312.1401 160.8759,312.5823 162.1015,314.4617 161.6395,316.3959 161.2891,317.8633 160.9386,319.3306 160.5881,320.798 160.1261,322.7326 158.1837,323.8546 156.3324,323.4124 154.4812,322.9703 153.2718,321.0955 153.7339,319.1609" stroke="black" stroke-width="1" /><polyline fill="none" points="146.2263,324.0342 145.4636,326.2741 138.7268,323.9799 148.9772,309.36" stroke="black" stroke-width="1" /><polyline fill="none" points="128.7093,312.6069 129.5169,310.808 131.6093,310.0002 133.4082,310.8079 135.2227,311.6225 136.0239,313.7296 135.2163,315.5284 134.7996,316.4565 134.3829,317.3845 133.9662,318.3126 133.1586,320.1115 131.0513,320.9134 129.2521,320.1056 127.4379,319.291 126.6516,317.1899 127.4593,315.3911 128.8544,312.2838 130.2495,309.1765 131.6445,306.0693 132.4521,304.2708 134.5446,303.4626 136.3434,304.2703 137.8917,304.9654 138.6972,306.6053 138.3954,308.1991" stroke="black" stroke-width="1" /><polyline fill="none" points="121.8899,298.9365 122.86,298.442 123.9794,298.0318 125.8292,299.0806 127.4852,300.0195 128.141,302.165 127.1344,303.9402 126.3989,305.2376 125.6633,306.5349 124.9277,307.8323 123.9467,309.5625 121.7693,310.1008 120.1134,309.1619 118.4276,308.2061 117.7419,306.0446 118.7229,304.3143 119.0893,303.6682 119.4556,303.022 119.822,302.3759 121.8853,303.5457 123.9486,304.7156 126.0119,305.8854" stroke="black" stroke-width="1" /><polyline fill="none" points="110.784,305.914 109.6551,307.5308 107.4348,307.925 105.8181,306.7961 104.187,305.6571 103.7841,303.3894 104.913,301.7727 105.3553,301.1393 105.7753,300.8066 106.1746,300.6241 110.213,298.7744 114.2514,296.9247 118.2898,295.075 118.3714,294.9581 118.4531,294.8411 118.5347,294.7242 116.5946,293.3695 114.6545,292.0148 112.7144,290.6601" stroke="black" stroke-width="1" /><polyline fill="none" points="92.5352,296.4788 95.5069,292.9745 98.4786,289.4702 101.4503,285.9659 102.7367,284.4489 104.9765,284.3253 106.4283,285.5565 107.8669,286.7764 108.1111,289.0065 106.8247,290.5235 105.8489,291.6741 104.8732,292.8247 103.8975,293.9753 102.611,295.4923 100.3715,295.6152 98.9329,294.3953 97.4811,293.1641 97.2366,290.9347 98.5231,289.4178" stroke="black" stroke-width="1" /><polyline fill="none" points="89.2605,288.5671 84.9863,289.0257 97.2501,277.0461" stroke="black" stroke-width="1" /><polyline fill="none" points="86.8499,275.2595 85.3165,276.4992 83.0736,276.2619 81.8343,274.7291 80.5833,273.1818 80.8321,270.9525 82.3655,269.7128 83.1564,269.0733 83.9473,268.4339 84.7382,267.7945 86.2716,266.5547 88.503,266.7788 89.754,268.3261 90.9932,269.8589 90.756,272.1014 89.2226,273.3412 86.574,275.4826 83.9253,277.624 81.2766,279.7655 79.7435,281.005 77.5008,280.7675 76.2615,279.2347 75.1937,277.914 75.2167,276.0882 76.2058,274.803" stroke="black" stroke-width="1" /><polyline fill="none" points="79.1729,256.9158 80.2618,256.9131 81.4457,257.053 82.622,258.8246 83.6749,260.4105 83.2904,262.6207 81.5902,263.7495 80.3478,264.5744 79.1053,265.3994 77.8629,266.2243 76.2059,267.3245 74.0202,266.8207 72.9673,265.2348 71.8953,263.6203 72.2605,261.3822 73.9175,260.282 74.5363,259.8712 75.1551,259.4603 75.7739,259.0495 77.0859,261.0255 78.3978,263.0015 79.7098,264.9774" stroke="black" stroke-width="1" /><polyline fill="none" points="65.3923,250.322 67.13,249.3899 69.2805,250.0269 70.2126,251.7646 71.1527,253.5174 70.5015,255.6755 68.7639,256.6076 67.8674,257.0884 66.9709,257.5693 66.0745,258.0502 64.3368,258.9822 62.178,258.3314 61.2458,256.5934 60.3058,254.8409 60.9652,252.6967 62.7029,251.7646 65.7044,250.1546 68.7059,248.5445 71.7075,246.9345 73.4448,246.0026 75.5957,246.6395 76.5277,248.3772 77.33,249.8728 76.9672,251.6634 75.7555,252.7418" stroke="black" stroke-width="1" /><polyline fill="none" points="66.7584,243.6264 64.9411,244.3917 62.8521,243.541 62.0872,241.7243 61.315,239.8906 62.1729,237.818 63.9902,237.0527 64.9276,236.658 65.8649,236.2633 66.8022,235.8686 68.6195,235.1033 70.701,235.9381 71.4732,237.7719 72.2382,239.5885 71.3877,241.677 69.5704,242.4423 66.4313,243.7641 63.2922,245.086 60.1531,246.4079 58.3361,247.173 56.2475,246.3222 55.4825,244.5055 54.8234,242.9404 55.3524,241.1927 56.6595,240.2327" stroke="black" stroke-width="1" /><polyline fill="none" points="58.5377,229.3619 58.1485,227.7865 56.1904,226.5576 54.3177,227.1468 53.8818,227.2839 53.4459,227.421 53.0101,227.5581 51.2432,228.1139 50.2573,230.0071 50.8182,231.7903 51.3739,233.5568 53.299,234.5335 55.0328,233.988 55.4687,233.8509 55.9046,233.7138 56.3404,233.5767 58.1076,233.0208 59.0934,231.1284 58.5377,229.3619 57.9254,227.4155 59.0327,225.3939 60.913,224.8024 61.5563,224.6 62.1997,224.3976 62.843,224.1952 64.7237,223.6036 66.7569,224.6372 67.3692,226.5836 67.9764,228.5137 66.9008,230.5242 65.0201,231.1158 64.3661,231.3215 63.7121,231.5273 63.0581,231.733 61.4459,232.2402 59.2965,231.4359" stroke="black" stroke-width="1" /><polyline fill="none" points="51.1793,220.2008 47.3194,218.3085 64.083,214.7179" stroke="black" stroke-width="1" /><polyline fill="none" points="60.0557,200.1266 61.0282,200.6162 62.0212,201.2761 62.2699,203.388 62.4925,205.2786 61.1507,207.0765 59.1239,207.3152 57.6428,207.4896 56.1617,207.664 54.6805,207.8384 52.7052,208.0711 50.9831,206.634 50.7604,204.7434 50.5338,202.8188 51.871,200.9873 53.8463,200.7546 54.584,200.6678 55.3216,200.5809 56.0593,200.494 56.3367,202.8496 56.6141,205.2052 56.8915,207.5608" stroke="black" stroke-width="1" /><polyline fill="none" points="47.8601,195.3002 45.8887,195.3464 44.2575,193.7895 44.2112,191.8182 44.1646,189.8294 45.7546,188.163 47.7259,188.1168 48.4982,188.0987 49.0149,188.2405 49.3983,188.4545 53.2786,190.6162 57.1589,192.7779 61.0393,194.9397 61.1818,194.9363 61.3244,194.933 61.467,194.9296 61.4116,192.564 61.3561,190.1984 61.3006,187.8328" stroke="black" stroke-width="1" /><polyline fill="none" points="52.6036,178.905 52.8186,177.2966 51.447,175.4357 49.4886,175.2977 49.0328,175.2656 48.577,175.2335 48.1212,175.2014 46.2736,175.0712 44.6626,176.4715 44.5312,178.3363 44.401,180.1835 45.8344,181.7976 47.6475,181.9253 48.1033,181.9575 48.5591,181.9896 49.0149,182.0217 50.8629,182.1519 52.4735,180.7523 52.6036,178.905 52.747,176.8696 54.518,175.3943 56.4842,175.5328 57.157,175.5802 57.8298,175.6276 58.5025,175.675 60.4691,175.8135 61.9823,177.5202 61.8389,179.5556 61.6967,181.5739 59.9593,183.0505 57.9927,182.912 57.3087,182.8638 56.6248,182.8156 55.9409,182.7674 54.255,182.6486 52.5497,181.1128" stroke="black" stroke-width="1" /><polyline fill="none" points="54.0992,166.2216 54.4639,164.6403 53.2726,162.6592 51.3357,162.3385 50.8849,162.2638 50.4341,162.1892 49.9834,162.1145 48.156,161.8119 46.421,163.0552 46.1156,164.8994 45.813,166.7264 47.0889,168.4676 48.8821,168.7646 49.3329,168.8392 49.7836,168.9139 50.2344,168.9885 52.0621,169.2912 53.7967,168.0485 54.0992,166.2216 54.4326,164.2086 56.334,162.9056 58.2786,163.2276 58.944,163.3378 59.6093,163.448 60.2747,163.5582 62.2197,163.8802 63.5664,165.7211 63.233,167.7341 62.9025,169.7303 61.0344,171.0377 59.0894,170.7156 58.413,170.6036 57.7366,170.4915 57.0602,170.3795 55.3928,170.1034 53.8389,168.4146" stroke="black" stroke-width="1" /><polyline fill="none" points="53.3127,149.1187 55.9996,152.2866 58.6866,155.4545 61.3736,158.6224 58.0802,157.7537 54.7868,156.885 51.4933,156.0163 49.5867,155.5134 48.4516,153.564 48.9543,151.6581 49.4618,149.7341 51.406,148.6158 53.3127,149.1187 56.6061,149.9874 59.8995,150.8561 63.193,151.7248 65.0996,152.2277 66.2386,154.1593 65.7356,156.0663 65.2284,157.9892 63.2803,159.1253 61.3736,158.6224" stroke="black" stroke-width="1" /><polyline fill="none" points="55.439,142.0599 53.1836,138.4004 69.2782,144.3058" stroke="black" stroke-width="1" /><polyline fill="none" points="65.5686,129.7824 66.3579,128.3646 65.7635,126.1306 63.9918,125.2847 63.5794,125.0878 63.1671,124.891 62.7548,124.6941 61.0833,123.896 59.0712,124.6087 58.2658,126.2957 57.4679,127.9668 58.2103,129.9938 59.8505,130.7769 60.2628,130.9738 60.6751,131.1707 61.0875,131.3675 62.7593,132.1657 64.7707,131.4535 65.5686,129.7824 66.4477,127.9411 68.6361,127.2172 70.4149,128.0665 71.0235,128.3571 71.6321,128.6477 72.2407,128.9383 74.0198,129.7877 74.8025,131.9301 73.9233,133.7714 73.0516,135.5973 70.894,136.3347 69.1148,135.4852 68.4961,135.1898 67.8774,134.8944 67.2587,134.599 65.7336,133.8708 64.7096,131.817" stroke="black" stroke-width="1" /><polyline fill="none" points="65.804,119.0123 64.2738,118.0967 63.6859,116.0068 64.681,114.3438 65.6755,112.6818 67.7315,112.1527 69.4674,113.1915 69.7419,113.3557 70.0164,113.52 70.2909,113.6842 72.9391,115.2689 71.9979,117.8427 71.8215,118.1375 71.6514,118.4218 71.4813,118.7062 71.3111,118.9905 71.4813,118.7062 71.6514,118.4218 71.8215,118.1375 72.3413,117.269 74.4806,116.0315 76.5399,117.2637 77.1432,117.6247 77.7466,117.9857 78.3499,118.3468 80.0561,119.3677 80.582,121.5612 79.5607,123.268 78.5306,124.9894 76.3582,125.5475 74.652,124.5266" stroke="black" stroke-width="1" /><polyline fill="none" points="77.1414,102.3272 78.4809,106.2592 79.8204,110.1913 81.1599,114.1233 78.4137,112.1084 75.6676,110.0935 72.9214,108.0785 71.3316,106.912 70.9897,104.6824 72.1557,103.0931 73.3328,101.4889 75.5516,101.1607 77.1414,102.3272 79.8875,104.3421 82.6337,106.357 85.3798,108.372 86.9697,109.5385 87.3218,111.753 86.1551,113.3431 84.9786,114.9465 82.7497,115.2898 81.1599,114.1233" stroke="black" stroke-width="1" /><polyline fill="none" points="94.4637,100.2373 94.744,101.2895 94.9107,102.47 93.4977,104.0591 92.2328,105.4818 89.9976,105.6736 88.4725,104.3176 87.358,103.3266 86.2434,102.3356 85.1289,101.3447 83.6425,100.023 83.5722,97.7812 84.8371,96.3586 86.1248,94.9103 88.382,94.6926 89.8684,96.0143 90.4235,96.5078 90.9786,97.0014 91.5337,97.4949 89.9576,99.2674 88.3816,101.04 86.8055,102.8125" stroke="black" stroke-width="1" /><polyline fill="none" points="91.6005,81.7416 90.8736,82.419 90.6807,83.4195 91.5457,84.3476 92.3834,85.2463 93.221,86.1451 94.0587,87.0439 94.5017,86.631 94.9448,86.218 95.3878,85.8051 94.5349,86.6 93.6821,87.3949 92.8292,88.1898 93.239,87.8079 93.6489,87.4259 94.0587,87.0439 96.6342,89.8072 99.2096,92.5704 101.7851,95.3337" stroke="black" stroke-width="1" /><polyline fill="none" points="112.5703,84.2512 112.6496,85.3372 112.5932,86.5281 110.9086,87.8259 109.4007,88.9877 107.1689,88.7594 105.9233,87.1428 105.0132,85.9614 104.103,84.78 103.1928,83.5986 101.9789,82.023 102.3278,79.8073 103.8358,78.6455 105.3709,77.4628 107.6292,77.6698 108.8431,79.2454 109.2964,79.8338 109.7497,80.4222 110.203,81.0106 108.3241,82.4581 106.4452,83.9057 104.5663,85.3533" stroke="black" stroke-width="1" /><polyline fill="none" points="122.666,77.5991 122.6431,78.6878 122.4755,79.8681 120.6768,81.0025 119.0667,82.018 116.8661,81.5817 115.7774,79.8556 114.9818,78.5941 114.1863,77.3327 113.3907,76.0713 112.3297,74.3889 112.8845,72.2157 114.4947,71.2002 116.1339,70.1664 118.3628,70.5839 119.4238,72.2663 119.82,72.8945 120.2163,73.5228 120.6125,74.1511 118.6063,75.4163 116.6001,76.6816 114.5939,77.9469" stroke="black" stroke-width="1" /><polyline fill="none" points="125.8942,58.4641 124.0636,59.3914 122.233,60.3188 120.4024,61.2461 121.624,63.6576 122.8457,66.0692 124.0673,68.4807 124.0984,67.1005 124.6222,66.0464 125.9527,65.3724 127.7882,64.4426 129.9776,65.2365 130.8373,66.9337 131.452,68.147 132.0667,69.3604 132.6813,70.5738 133.58,72.3478 132.8164,74.3685 131.1488,75.2132 129.4971,76.0499 127.4315,75.4624 126.5328,73.6884" stroke="black" stroke-width="1" /><polyline fill="none" points="138.7073,52.8926 140.3907,57.1678 142.0741,61.443 143.7575,65.7182 144.4863,67.5689 143.5365,69.6011 141.7652,70.2985 140.0103,70.9896 137.9296,70.1506 137.2008,68.2999 136.6481,66.8962 136.0954,65.4925 135.5427,64.0888 134.8139,62.2381 135.7643,60.2064 137.5193,59.5154 139.2905,58.8179 141.3706,59.6563 142.0993,61.507" stroke="black" stroke-width="1" /><polyline fill="none" points="146.0555,54.2454 145.5081,52.351 146.5974,50.3766 148.4917,49.8292 150.4029,49.2768 152.4196,50.3893 152.9671,52.2836 153.1816,53.0258 153.1762,53.5615 153.0671,53.9868 151.9665,58.2901 150.8659,62.5935 149.7654,66.8968 149.8049,67.0338 149.8445,67.1708 149.8841,67.3079 152.1574,66.6509 154.4306,65.9939 156.7039,65.3369" stroke="black" stroke-width="1" /><polyline fill="none" points="165.791,49.5367 164.09,53.3264 162.389,57.1161 160.6879,60.9058 160.0528,57.5595 159.4178,54.2131 158.7827,50.8668 158.415,48.9295 159.6851,47.0653 161.6216,46.6978 163.5765,46.3268 165.4233,47.5994 165.791,49.5367 166.4261,52.883 167.0612,56.2294 167.6963,59.5757 168.064,61.513 166.8116,63.3731 164.874,63.7408 162.9203,64.1116 161.0556,62.8431 160.6879,60.9058" stroke="black" stroke-width="1" /><polyline fill="none" points="140.4526,120.3297 136.578,231.1149 136.578,231.1149 156.5688,130.1462 188.8365,96.1804 188.8365,96.1804 280.8196,188.8365 188.8365,96.1804 96.1804,188.1635 156.5688,130.1462" stroke="black" stroke-width="1" /><polyline fill="none" points="144.3452,117.423 168.7924,142.8694" stroke="black" stroke-width="1" /><polyline fill="none" points="152.6261,108.5745 152.4813,106.7344 152.0504,104.9397 151.3441,103.2345 150.3797,101.6607 149.181,100.2572 147.7775,99.0585 146.2038,98.0941 144.4985,97.3878 142.7038,96.9569 140.8637,96.8121 139.0237,96.9569 137.2289,97.3878 135.5237,98.0941 133.95,99.0585 132.5465,100.2572 131.3477,101.6607 130.3834,103.2344 129.677,104.9397 129.2462,106.7344 129.1013,108.5745 129.2462,110.4145 129.677,112.2093 130.3834,113.9145 131.3477,115.4882 132.5465,116.8917 133.95,118.0904 135.5237,119.0548 137.2289,119.7612 139.0237,120.192 140.8637,120.3369 142.7038,120.192 144.4985,119.7612 146.2038,119.0548 147.7775,118.0904 149.181,116.8917 150.3797,115.4882 151.3441,113.9145 152.0504,112.2093 152.4813,110.4145 152.6261,108.5745" stroke="black" stroke-width="1" /><polyline fill="none" points="188.5,69.0664 199.6839,69.5912 210.7696,71.161 221.6595,73.7619 232.2581,77.3712 242.4721,81.9571 252.2118,87.4792 261.3915,93.8892 269.9308,101.1306 277.7544,109.1398 284.7936,117.8464 290.9866,127.1739 296.2789,137.0404 300.6241,147.3591 303.9839,158.0393 306.3289,168.9873 307.6383,180.1067 307.9008,191.2998 307.114,202.4684 305.2847,213.5142 302.4292,224.3402 298.5725,234.8512 293.7484,244.9549 287.9994,254.5625 281.376,263.5894 273.9365,271.9565 265.7461,279.5902 256.8768,286.4234 247.4067,292.3961 237.4188,297.4556 227.0011,301.5577 216.2451,304.6663 205.2452,306.7539 194.0981,307.8023 182.9019,307.8023 171.7548,306.7539 160.7549,304.6663 149.9989,301.5577 139.5811,297.4556 129.5933,292.3961 120.1232,286.4234 111.2539,279.5902 103.0635,271.9565 95.6239,263.5894 89.0006,254.5625 83.2516,244.9549 78.4275,234.8512 74.5708,224.3402 71.7153,213.5142 69.8861,202.4684 69.0992,191.2998 69.3617,180.1067 70.6712,168.9872 73.0161,158.0393 76.3759,147.3591 80.7211,137.0404 86.0134,127.174 92.2064,117.8464 99.2457,109.1398 107.0692,101.1306 115.6085,93.8892 124.7882,87.4792 134.5279,81.957 144.7419,77.3712 155.3405,73.7619 166.2304,71.161 177.3161,69.5912 188.5,69.0664" stroke="black" stroke-width="1" />

    </g>
  </g>
  <WCB
     pausedposy="0"
     pausedposx="0"
     lastknownposy="0"
     lastknownposx="0"
     lastpathnc="0"
     lastpath="0"
     node="0"
     layer="0" />
</svg>
