<?xml version="1.0" encoding="UTF-8" standalone="no"?>
<!-- Created with Inkscape (http://www.inkscape.org/) -->

<svg
   xmlns:dc="http://purl.org/dc/elements/1.1/"
   xmlns:cc="http://creativecommons.org/ns#"
   xmlns:rdf="http://www.w3.org/1999/02/22-rdf-syntax-ns#"
   xmlns:svg="http://www.w3.org/2000/svg"
   xmlns="http://www.w3.org/2000/svg"
   xmlns:sodipodi="http://sodipodi.sourceforge.net/DTD/sodipodi-0.dtd"
   xmlns:inkscape="http://www.inkscape.org/namespaces/inkscape"
   width="100mm"
   height="100mm"
   viewBox="0 0 100 100"
   version="1.1"
   id="svg19124"
   inkscape:version="0.92.3 (2405546, 2018-03-11)"
   sodipodi:docname="inkscape_template_TMP.svg"
   shape-rendering="crispEdges">
  <sodipodi:namedview
     pagecolor="#ffffff"
     bordercolor="#666666"
     borderopacity="1"
     objecttolerance="10"
     gridtolerance="10"
     guidetolerance="10"
     inkscape:pageopacity="0"
     inkscape:pageshadow="2"
     inkscape:window-width="1568"
     inkscape:window-height="1550"
     id="namedview24021"
     showgrid="false"
     inkscape:zoom="0.62441667"
     inkscape:cx="712.66515"
     inkscape:cy="409.98265"
     inkscape:window-x="0"
     inkscape:window-y="0"
     inkscape:window-maximized="0"
     inkscape:current-layer="layer1" />
  <defs
     id="defs19118" />
  <metadata
     id="metadata19121">
    <rdf:RDF>
      <cc:Work
         rdf:about="">
        <dc:format>image/svg+xml</dc:format>
        <dc:type
           rdf:resource="http://purl.org/dc/dcmitype/StillImage" />
        <dc:title />
      </cc:Work>
    </rdf:RDF>
  </metadata>
  <g
     transform="translate(0,-197)"
     id="layer1"
     inkscape:groupmode="layer"
     inkscape:label="Layer 1">
    <g
       id="g24447"
       transform="matrix(0.26458333,0,0,0.26458333,0.10666333,197.9735)">

<polyline fill="none" points="192.1004,47.7394 189.7225,51.1455 187.3447,54.5516 184.9669,57.9577 184.9669,54.5516 184.9669,51.1455 184.9669,47.7394 184.9669,45.7676 186.5623,44.1729 188.5334,44.1729 190.5231,44.1729 192.1004,45.7676 192.1004,47.7394 192.1004,51.1455 192.1004,54.5516 192.1004,57.9577 192.1004,59.9295 190.5231,61.5235 188.5509,61.5235 186.5623,61.5235 184.9669,59.9295 184.9669,57.9577" stroke="black" stroke-width="1" /><polyline fill="none" points="197.8298,61.5877 200.7471,57.7851 198.696,53.7706 202.935,62.0679 200.7471,57.7851 203.4811,54.2207" stroke="black" stroke-width="1" /><polyline fill="none" points="218.2683,47.2815 216.2522,46.8988 214.2361,46.5162 212.22,46.1336 211.7159,48.7895 211.2119,51.4454 210.7078,54.1013 211.5748,53.0269 212.6331,52.5116 214.0984,52.7897 216.1199,53.1733 217.3697,55.1384 217.015,57.0076 216.7614,58.3439 216.5077,59.6802 216.2541,61.0165 215.8833,62.9703 214.0452,64.105 212.2086,63.7565 210.3896,63.4112 209.1118,61.6852 209.4826,59.7314" stroke="black" stroke-width="1" /><polyline fill="none" points="226.3459,67.0854 227.5407,62.9513 221.6759,61.2563 230.6775,50.4919" stroke="black" stroke-width="1" /><polyline fill="none" points="243.4219,58.8463 239.9615,61.1443 236.5011,63.4424 233.0407,65.7404 234.2886,62.5712 235.5365,59.4019 236.7844,56.2327 237.5069,54.398 239.5756,53.4987 241.4097,54.2209 243.261,54.9499 244.1443,57.0115 243.4219,58.8463 242.174,62.0155 240.926,65.1848 239.6781,68.354 238.9557,70.1887 236.9041,71.094 235.069,70.3714 233.2187,69.6428 232.3182,67.5752 233.0407,65.7404" stroke="black" stroke-width="1" /><polyline fill="none" points="249.8605,75.0628 248.9147,75.6021 247.8157,76.0644 245.9187,75.1034 244.2205,74.2432 243.4649,72.1308 244.3872,70.3103 245.0611,68.9799 245.7351,67.6495 246.409,66.3191 247.3078,64.5448 249.4576,63.905 251.1558,64.7653 252.8845,65.641 253.6707,67.7681 252.7719,69.5424 252.4362,70.205 252.1006,70.8676 251.7649,71.5302 249.6491,70.4583 247.5332,69.3865 245.4173,68.3146" stroke="black" stroke-width="1" /><polyline fill="none" points="267.938,68.0076 266.2023,66.9129 264.4666,65.8182 262.7308,64.7235 261.2888,67.0101 259.8467,69.2966 258.4046,71.5832 259.6049,70.9011 260.7784,70.8094 262.0399,71.605 263.7803,72.7026 264.2233,74.989 263.2084,76.5982 262.4828,77.7487 261.7572,78.8992 261.0316,80.0496 259.9708,81.7317 257.8447,82.114 256.2635,81.1168 254.6975,80.1292 254.141,78.055 255.2018,76.3729" stroke="black" stroke-width="1" /><polyline fill="none" points="268.1982,89.394 270.8246,85.985 265.9885,82.2591 278.3081,75.5412" stroke="black" stroke-width="1" /><polyline fill="none" points="288.1847,84.3375 287.4579,83.66 286.4463,83.5379 285.5814,84.466 284.7437,85.3647 283.906,86.2635 283.0683,87.1623 283.5114,87.5752 283.9543,87.9881 284.3974,88.401 283.5445,87.6061 282.6917,86.8112 281.8388,86.0163 282.2486,86.3983 282.6584,86.7803 283.0683,87.1623 280.4929,89.9256 277.9174,92.6888 275.3419,95.4521" stroke="black" stroke-width="1" /><polyline fill="none" points="296.0846,97.6592 291.9592,98.1455 287.8338,98.6317 283.7084,99.118 286.2538,96.8547 288.7992,94.5915 291.3446,92.3283 292.8182,91.018 295.0701,91.1507 296.3799,92.6237 297.702,94.1107 297.5582,96.349 296.0846,97.6592 293.5392,99.9224 290.9938,102.1857 288.4484,104.4489 286.9748,105.7592 284.7356,105.6397 283.4251,104.1658 282.1037,102.6796 282.2348,100.4282 283.7084,99.118" stroke="black" stroke-width="1" /><polyline fill="none" points="305.8586,104.7514 305.2709,103.9503 304.2998,103.6418 303.277,104.3922 302.2864,105.1191 301.2958,105.8459 300.3053,106.5727 300.6635,107.061 301.0218,107.5492 301.3801,108.0375 300.6904,107.0975 300.0007,106.1575 299.311,105.2176 299.6424,105.6693 299.9738,106.121 300.3053,106.5727 297.2597,108.8073 294.2142,111.0419 291.1687,113.2765" stroke="black" stroke-width="1" /><polyline fill="none" points="311.136,119.3125 306.9923,119.021 302.8486,118.7296 298.7049,118.4381 301.6277,116.6891 304.5504,114.9402 307.4732,113.1913 309.1653,112.1788 311.3529,112.729 312.365,114.4204 313.3867,116.1278 312.8281,118.3 311.136,119.3125 308.2133,121.0615 305.2905,122.8104 302.3677,124.5593 300.6757,125.5718 298.498,125.0369 297.4854,123.3445 296.4642,121.6381 297.0128,119.4506 298.7049,118.4381" stroke="black" stroke-width="1" /><polyline fill="none" points="304.3823,136.1063 308.2657,134.2521 305.6354,128.743 319.6611,128.3174" stroke="black" stroke-width="1" /><polyline fill="none" points="320.0197,137.8593 324.1068,139.1917 308.0122,145.0971" stroke="black" stroke-width="1" /><polyline fill="none" points="324.7957,148.7497 327.0836,148.1462 328.8986,155.0276 311.049,154.5748" stroke="black" stroke-width="1" /><polyline fill="none" points="317.9472,170.5722 315.9853,170.897 314.1994,169.559 313.8884,167.6813 313.5775,165.8036 314.834,163.9447 316.7958,163.6198 318.2842,163.3733 319.7726,163.1269 321.2609,162.8804 323.2232,162.5554 325.0111,163.9102 325.3221,165.7879 325.633,167.6656 324.3745,169.5078 322.4123,169.8327" stroke="black" stroke-width="1" /><polyline fill="none" points="321.5133,175.5616 323.4803,175.423 325.1835,176.9017 325.322,178.868 325.4619,180.8528 323.9816,182.5382 322.0146,182.6767 321.0001,182.7482 319.9855,182.8197 318.9709,182.8912 317.004,183.0297 315.3027,181.5685 315.1629,179.5837 315.0244,177.6174 316.5027,175.9146 318.4697,175.776 321.8673,175.5367 325.265,175.2973 328.6627,175.058 330.6293,174.9194 332.3321,176.3981 332.4706,178.3643 332.59,180.0584 331.5258,181.5423 329.9791,182.0297" stroke="black" stroke-width="1" /><polyline fill="none" points="322.1404,188.074 324.1117,188.1203 325.6689,189.7519 325.6227,191.7225 325.5761,193.7117 323.9445,195.251 321.9732,195.2048 320.9564,195.181 319.9396,195.1571 318.9229,195.1333 316.9515,195.0871 315.3946,193.4729 315.4413,191.4838 315.4875,189.5132 317.1188,187.9563 319.0901,188.0025 322.4952,188.0824 325.9003,188.1622 329.3055,188.2421 331.2764,188.2883 332.8333,189.9199 332.7871,191.8905 332.7473,193.5883 331.5489,194.966 329.9633,195.3064" stroke="black" stroke-width="1" /><polyline fill="none" points="328.7042,201.4854 330.6625,201.716 332.0594,203.4863 331.8288,205.4446 331.5961,207.4203 329.7882,208.8473 327.8299,208.6166 327.0626,208.5263 326.5709,208.3134 326.2214,208.0478 322.6824,205.3634 319.1436,202.679 315.6046,199.9946 315.463,199.9779 315.3213,199.9612 315.1797,199.9445 314.9029,202.2945 314.6262,204.6446 314.3494,206.9946" stroke="black" stroke-width="1" /><polyline fill="none" points="320.5594,220.0876 320.5647,220.0888 320.5701,220.0899 320.5754,220.0911 318.2957,219.6028 316.0158,219.1144 313.736,218.6261 312.6824,218.4005 312.1196,219.0532 312.0014,219.6049 312.1523,218.9005 312.8794,218.4426 313.6023,218.5975 313.6469,218.607 313.6915,218.6166 313.736,218.6261 313.0105,217.3479 312.6129,215.9303 312.9251,214.4722 313.1837,213.265 314.2077,211.4326 316.6719,211.9604 317.963,212.237 318.6298,213.1333 318.8422,214.2662 318.9529,214.8155 318.9303,216.4777 318.9185,217.5969 318.9195,218.7367 319.2682,219.8111 320.5594,220.0876 321.8669,220.3677 323.7257,219.3804 324.1566,217.3688 324.5624,215.4739 323.8275,214.4048 323.0911,213.6681" stroke="black" stroke-width="1" /><polyline fill="none" points="317.0212,232.3151 317.0264,232.3167 317.0316,232.3184 317.0369,232.32 314.8128,231.6203 312.5887,230.9207 310.3647,230.221 309.3368,229.8977 308.7154,230.4948 308.5461,231.0331 308.7622,230.3459 309.529,229.9581 310.2342,230.18 310.2777,230.1937 310.3212,230.2074 310.3647,230.221 309.762,228.8805 309.4988,227.4319 309.9463,226.0095 310.3168,224.8317 311.5079,223.1033 313.9119,223.8596 315.1714,224.2558 315.7513,225.2106 315.8567,226.3584 315.9154,226.9156 315.7373,228.5684 315.6208,229.6816 315.515,230.8165 315.7617,231.9188 317.0212,232.3151 318.2968,232.7163 320.2398,231.9074 320.8571,229.945 321.4387,228.0964 320.8071,226.9632 320.1429,226.1609" stroke="black" stroke-width="1" /><polyline fill="none" points="320.7283,240.194 322.909,241.1122 320.1471,247.6711 306.2836,236.4187" stroke="black" stroke-width="1" /><polyline fill="none" points="310.8405,258.2086 308.963,254.5032 307.0854,250.7978 305.2079,247.0924 308.2094,248.7024 311.2109,250.3124 314.2124,251.9224 315.9501,252.8545 316.6013,255.0142 315.6695,256.7512 314.729,258.5046 312.5782,259.1407 310.8405,258.2086 307.839,256.5986 304.8375,254.9886 301.8359,253.3786 300.0983,252.4465 299.4391,250.3032 300.3714,248.5652 301.3114,246.8128 303.4702,246.1603 305.2079,247.0924" stroke="black" stroke-width="1" /><polyline fill="none" points="295.418,263.6433 293.7613,262.5433 293.3672,260.3469 294.4199,258.7613 295.4727,257.1757 297.6592,256.6725 299.3159,257.7725 300.5728,258.6069 301.8296,259.4414 303.0864,260.2759 304.7434,261.376 305.1277,263.5861 304.0749,265.1717 303.0222,266.7573 300.8455,267.2469 299.1885,266.1467" stroke="black" stroke-width="1" /><polyline fill="none" points="299.487,275.355 300.4423,279.5463 287.1106,268.7678" stroke="black" stroke-width="1" /><polyline fill="none" points="286.5526,279.3055 287.9631,280.6833 287.9898,282.9387 286.6125,284.3488 285.2221,285.7721 282.979,285.7857 281.5684,284.4079 280.8409,283.6972 280.1133,282.9865 279.3858,282.2758 277.9752,280.8979 277.9368,278.6556 279.3271,277.2323 280.7045,275.8222 282.9594,275.7955 284.3699,277.1734 286.8065,279.5535 289.243,281.9335 291.6795,284.3136 293.0898,285.6912 293.1162,287.9463 291.7389,289.3564 290.5522,290.5712 288.7362,290.762 287.3441,289.9299" stroke="black" stroke-width="1" /><polyline fill="none" points="280.289,299.683 281.0468,299.0403 281.2864,298.05 280.4659,297.0824 279.6713,296.1454 278.8766,295.2083 278.082,294.2713 277.6201,294.663 277.1582,295.0547 276.6963,295.4464 277.5855,294.6923 278.4747,293.9383 279.3639,293.1842 278.9366,293.5466 278.5093,293.9089 278.082,294.2713 275.6389,291.3903 273.1958,288.5094 270.7527,285.6284" stroke="black" stroke-width="1" /><polyline fill="none" points="263.5689,301.6465 263.572,301.6509 263.5751,301.6555 263.5783,301.6599 262.2435,299.7484 260.9087,297.8367 259.5739,295.9251 258.957,295.0417 258.1003,295.1354 257.6376,295.4585 258.2282,295.0461 259.0723,295.2068 259.4955,295.813 259.5217,295.8504 259.5478,295.8878 259.5739,295.9251 259.9146,294.4954 260.5902,293.1872 261.8128,292.3336 262.8251,291.6267 264.8235,290.9844 266.2663,293.0507 267.0222,294.1333 266.8988,295.2435 266.2818,296.2171 265.9883,296.6944 264.8384,297.895 264.0668,298.7056 263.2903,299.5401 262.8129,300.5639 263.5689,301.6465 264.3344,302.7428 266.3673,303.2879 268.054,302.1102 269.6429,301.0007 269.8342,299.7175 269.7978,298.6766" stroke="black" stroke-width="1" /><polyline fill="none" points="260.9714,309.2217 261.944,310.9371 261.3431,313.1105 259.6277,314.0831 257.8972,315.0643 255.6772,314.4508 254.7046,312.7354 254.3236,312.0634 254.2044,311.541 254.2117,311.1021 254.2825,306.6608 254.3533,302.2195 254.4241,297.7782 254.3537,297.6541 254.2834,297.5301 254.213,297.406 252.1546,298.5731 250.0962,299.7402 248.0377,300.9073" stroke="black" stroke-width="1" /><polyline fill="none" points="249.3484,315.4776 250.156,317.2765 249.3542,319.3841 247.5554,320.1918 245.7406,321.0066 243.5878,320.1879 242.7801,318.389 242.4637,317.6843 242.3939,317.153 242.4423,316.7167 242.9286,312.3016 243.415,307.8864 243.9014,303.4713 243.843,303.3412 243.7846,303.2111 243.7262,303.0809 241.5675,304.0502 239.4088,305.0193 237.2501,305.9886" stroke="black" stroke-width="1" /><polyline fill="none" points="226.9811,309.7147 228.3683,313.7884 234.1473,311.8204 232.9296,325.7996" stroke="black" stroke-width="1" /><polyline fill="none" points="217.6976,326.2462 219.2191,322.3809 220.7406,318.5156 222.2621,314.6503 223.0534,317.9632 223.8446,321.2761 224.6359,324.589 225.094,326.5069 223.9127,328.4286 221.9954,328.8865 220.0602,329.3488 218.1557,328.1641 217.6976,326.2462 216.9063,322.9333 216.1151,319.6204 215.3238,316.3075 214.8658,314.3896 216.0295,312.4728 217.9478,312.0146 219.882,311.5527 221.8041,312.7324 222.2621,314.6503" stroke="black" stroke-width="1" /><polyline fill="none" points="211.7021,327.3795 211.9785,329.3318 210.6231,331.134 208.6707,331.4105 206.701,331.6894 204.8602,330.3052 204.5837,328.3528 204.4754,327.5879 204.5558,327.0582 204.7235,326.6524 206.4165,322.5459 208.1096,318.4394 209.8027,314.3328 209.7827,314.1916 209.7627,314.0504 209.7427,313.9092 207.3998,314.241 205.0569,314.5727 202.714,314.9045" stroke="black" stroke-width="1" /><polyline fill="none" points="191.0713,317.4438 191.628,316.5081 192.356,315.564 194.4802,315.4643 196.3818,315.3751 198.0809,316.84 198.1766,318.8785 198.2465,320.3682 198.3164,321.8579 198.3863,323.3477 198.4795,325.3345 196.925,326.9513 195.0234,327.0405 193.0876,327.1314 191.3546,325.6688 191.2614,323.682 191.2265,322.94 191.1917,322.1981 191.1569,321.4561 193.5262,321.345 195.8954,321.2338 198.2647,321.1226" stroke="black" stroke-width="1" /><polyline fill="none" points="178.3371,325.8833 178.4296,323.9136 180.0804,322.3954 182.0501,322.4878 184.0369,322.581 185.5545,324.248 185.462,326.2177 185.4144,327.2338 185.3667,328.25 185.319,329.2662 185.2266,331.2359 183.5596,332.7541 181.5895,332.6617 179.6031,332.5685 178.1017,330.9016 178.1941,328.9319 178.3537,325.5295 178.5134,322.1272 178.673,318.7249 178.7654,316.7556 180.4164,315.2369 182.386,315.3293 184.0814,315.4089 185.4316,316.6396 185.7348,318.2332" stroke="black" stroke-width="1" /><polyline fill="none" points="164.9311,331.0243 165.5753,326.475 166.2195,321.9257 166.8637,317.3764 167.1425,315.407 168.9711,314.1077 170.8559,314.3746 172.7234,314.639 174.1196,316.3951 173.8408,318.3644 173.6292,319.8581 173.4177,321.3518 173.2062,322.8456 172.9273,324.8149 171.0986,326.1135 169.2311,325.8491 167.3462,325.5822 165.9503,323.8269 166.2291,321.8576" stroke="black" stroke-width="1" /><polyline fill="none" points="160.9268,319.2657 160.4688,321.1836 158.5471,322.3646 156.6299,321.9066 154.6946,321.4444 153.5311,319.5266 153.9892,317.6087 154.2255,316.6194 154.4617,315.6302 154.698,314.641 155.1561,312.7231 157.0605,311.5388 158.9958,312.001 160.913,312.4589 162.0937,314.3801 161.6356,316.298 160.8444,319.6109 160.0531,322.9238 159.2619,326.2367 158.8039,328.1542 156.8824,329.3348 154.9651,328.8769 153.3133,328.4824 152.2172,327.0221 152.2164,325.4003" stroke="black" stroke-width="1" /><polyline fill="none" points="138.7693,324.1301 140.2505,319.7808 141.7316,315.4313 143.2128,311.0819 143.854,309.1991 145.8927,308.2635 147.6947,308.8771 149.4802,309.4852 150.5245,311.4707 149.8833,313.3535 149.397,314.7816 148.9106,316.2097 148.4243,317.6378 147.7831,319.5206 145.7443,320.4555 143.9588,319.8474 142.1568,319.2338 141.1126,317.249 141.7538,315.3662" stroke="black" stroke-width="1" /><polyline fill="none" points="127.5613,315.4369 131.1256,313.3036 134.69,311.1703 138.2543,309.0369 136.8592,312.1442 135.4641,315.2514 134.069,318.3587 133.2613,320.1576 131.1527,320.9589 129.3545,320.1516 127.5393,319.3366 126.7537,317.2358 127.5613,315.4369 128.9564,312.3297 130.3515,309.2224 131.7466,306.1151 132.5543,304.3163 134.646,303.5081 136.4452,304.3159 138.2594,305.1305 139.0619,307.2381 138.2543,309.0369" stroke="black" stroke-width="1" /><polyline fill="none" points="121.8899,298.9365 122.86,298.442 123.9794,298.0318 125.8292,299.0806 127.4852,300.0195 128.141,302.165 127.1344,303.9402 126.3989,305.2376 125.6633,306.5349 124.9277,307.8323 123.9467,309.5625 121.7693,310.1008 120.1134,309.1619 118.4276,308.2061 117.7419,306.0446 118.7229,304.3143 119.0893,303.6682 119.4556,303.022 119.822,302.3759 121.8853,303.5457 123.9486,304.7156 126.0119,305.8854" stroke="black" stroke-width="1" /><polyline fill="none" points="110.4872,300.1866 109.2174,299.1762 106.9163,299.3977 105.7923,301.0074 105.5307,301.382 105.2691,301.7566 105.0075,302.1313 103.9471,303.6499 104.3215,305.7513 105.8542,306.8215 107.3725,307.8817 109.4935,307.4805 110.5341,305.9903 110.7957,305.6157 111.0573,305.2411 111.3189,304.8664 112.3795,303.3475 112.0055,301.2468 110.4872,300.1866 108.8142,299.0184 108.4576,296.7412 109.5861,295.1251 109.9722,294.5721 110.3583,294.0191 110.7444,293.4662 111.8731,291.8497 114.1146,291.4276 115.7876,292.5958 117.4464,293.7542 117.8214,296.0032 116.6927,297.6197 116.3002,298.1818 115.9077,298.7439 115.5152,299.3061 114.5476,300.6917 112.3541,301.3665" stroke="black" stroke-width="1" /><polyline fill="none" points="99.9002,298.1947 98.7469,299.5547 96.589,299.7933 95.111,298.5399 93.6338,297.2872 93.4477,295.1724 94.7561,293.6295 94.963,293.3856 95.1699,293.1416 95.3768,292.8976 97.3728,290.5438 99.7583,291.8929 100.0203,292.1151 100.273,292.3294 100.5257,292.5437 100.7784,292.758 100.5257,292.5437 100.273,292.3294 100.0203,292.1151 99.2483,291.4604 98.377,289.1476 99.9291,287.3174 100.3838,286.7811 100.8386,286.2449 101.2933,285.7086 102.5793,284.1922 104.8292,284.0317 106.3462,285.3181 107.8763,286.6157 108.0719,288.85 106.786,290.3665" stroke="black" stroke-width="1" /><polyline fill="none" points="91.0302,283.6816 89.9711,282.4521 87.6691,282.2407 86.2646,283.6126 85.9378,283.9319 85.6109,284.2512 85.2841,284.5704 83.9591,285.8647 83.9351,287.9991 85.2413,289.3363 86.5353,290.661 88.694,290.6624 89.9942,289.3923 90.321,289.073 90.6479,288.7537 90.9747,288.4344 92.3,287.1399 92.3242,285.0063 91.0302,283.6816 89.6044,282.222 89.6786,279.9182 91.0887,278.5408 91.5712,278.0695 92.0536,277.5983 92.5361,277.127 93.9464,275.7494 96.2272,275.7526 97.653,277.2122 99.0668,278.6596 99.0159,280.9391 97.6056,282.3168 97.1151,282.7959 96.6246,283.275 96.1342,283.754 94.9252,284.935 92.6444,285.1889" stroke="black" stroke-width="1" /><polyline fill="none" points="86.0599,266.8527 87.1437,266.748 88.3355,266.7764 89.6725,268.4301 90.8693,269.9104 90.6935,272.147 89.1065,273.43 87.9467,274.3677 86.787,275.3053 85.6272,276.243 84.0805,277.4935 81.8573,277.1966 80.6605,275.7162 79.4421,274.2092 79.5961,271.9468 81.1428,270.6963 81.7204,270.2292 82.298,269.7623 82.8756,269.2953 84.3668,271.1397 85.8581,272.9842 87.3493,274.8287" stroke="black" stroke-width="1" /><polyline fill="none" points="72.2945,270.0651 70.3232,271.3739 66.3868,265.4451 83.4294,260.1196" stroke="black" stroke-width="1" /><polyline fill="none" points="65.3794,257.0802 61.1459,256.334 76.2536,248.2303" stroke="black" stroke-width="1" /><polyline fill="none" points="57.3749,239.8098 61.4368,240.6794 65.4987,241.549 69.5606,242.4186 66.4215,243.7405 63.2824,245.0623 60.1433,246.3842 58.326,247.1495 56.2371,246.298 55.4721,244.4813 54.7,242.6476 55.5576,240.5751 57.3749,239.8098 60.514,238.488 63.6531,237.1661 66.7922,235.8442 68.6095,235.079 70.6906,235.914 71.456,237.7316 72.2278,239.5644 71.3779,241.6533 69.5606,242.4186" stroke="black" stroke-width="1" /><polyline fill="none" points="54.7512,232.9204 50.7311,231.3979 67.0848,226.2534" stroke="black" stroke-width="1" /><polyline fill="none" points="51.5945,221.4046 49.6664,221.8176 47.7734,220.5922 47.3604,218.6641 46.9437,216.7188 48.1951,214.7852 50.1233,214.3722 50.8787,214.2104 51.4128,214.2535 51.8293,214.3922 56.0446,215.7925 60.26,217.1928 64.4753,218.5931 64.6148,218.5632 64.7543,218.5333 64.8937,218.5034 64.3981,216.1897 63.9025,213.8759 63.4069,211.5621" stroke="black" stroke-width="1" /><polyline fill="none" points="61.9142,200.7404 57.6403,201.2437 58.3543,207.3067 44.9401,203.1881" stroke="black" stroke-width="1" /><polyline fill="none" points="44.1788,188.9687 44.2269,191.0203 44.275,193.0718 44.3231,195.1233 47.0257,195.06 49.7283,194.9966 52.4308,194.9332 51.1987,194.3105 50.4732,193.3836 50.4382,191.8925 50.39,189.8355 52.0497,188.2018 53.9518,188.1572 55.3115,188.1254 56.6713,188.0935 58.0311,188.0616 60.0192,188.015 61.5138,189.5747 61.5576,191.4435 61.601,193.2945 60.1808,194.9055 58.1927,194.9521" stroke="black" stroke-width="1" /><polyline fill="none" points="60.1404,175.973 61.0046,176.6354 61.8571,177.4688 61.7076,179.59 61.5738,181.489 59.9203,183.0051 57.8845,182.8617 56.3969,182.7569 54.9092,182.6521 53.4215,182.5473 51.4374,182.4075 50.0135,180.6745 50.1473,178.7756 50.2835,176.8425 51.9387,175.2924 53.9228,175.4322 54.6637,175.4844 55.4046,175.5366 56.1456,175.5888 55.9789,177.9548 55.8122,180.3208 55.6455,182.6868" stroke="black" stroke-width="1" /><polyline fill="none" points="53.2481,162.3392 55.1935,162.6613 56.5083,164.4784 56.1861,166.4238 55.8611,168.3861 54.0282,169.6982 52.0828,169.3761 51.0792,169.2099 50.0755,169.0437 49.0719,168.8775 47.1266,168.5553 45.8137,166.7222 46.1359,164.7765 46.4608,162.8146 48.2919,161.5184 50.2372,161.8405 53.5975,162.397 56.9579,162.9535 60.3182,163.51 62.2632,163.8321 63.5783,165.6493 63.2561,167.5946 62.9789,169.269 61.5986,170.4661 59.9806,170.5808" stroke="black" stroke-width="1" /><polyline fill="none" points="63.0662,151.8347 64.9891,152.3419 66.0702,154.294 65.5848,156.1344 65.0994,157.9747 63.1918,159.1559 61.2689,158.6487 59.8102,158.2639 58.3514,157.8792 56.8927,157.4944 54.9695,156.9871 53.8933,155.0189 54.3787,153.1786 54.8641,151.3382 56.7668,150.1731 58.69,150.6804" stroke="black" stroke-width="1" /><polyline fill="none" points="54.0424,136.0598 53.3355,137.9863 52.6286,139.9128 51.9218,141.8393 54.4596,142.7705 56.9975,143.7017 59.5354,144.6329 58.6171,143.602 58.2816,142.4738 58.7953,141.0736 59.5041,139.142 61.647,138.2299 63.4331,138.8853 64.71,139.3538 65.9869,139.8224 67.2639,140.2909 69.1308,140.9759 69.95,142.9748 69.306,144.7297 68.6682,146.4679 66.7566,147.4465 64.8897,146.7615" stroke="black" stroke-width="1" /><polyline fill="none" points="67.3914,127.0984 67.3864,127.096 67.3815,127.0937 67.3765,127.0913 69.4805,128.0959 71.5845,129.1004 73.6885,130.105 74.6609,130.5693 75.3599,130.0652 75.6031,129.5559 75.2927,130.206 74.4791,130.4825 73.812,130.1639 73.7708,130.1443 73.7297,130.1246 73.6885,130.105 74.0973,131.5168 74.1547,132.988 73.5123,134.3336 72.9803,135.4478 71.5587,136.9921 69.2845,135.9063 68.0929,135.3374 67.6527,134.3107 67.7092,133.1595 67.7292,132.5995 68.1373,130.988 68.4087,129.9022 68.6726,128.7934 68.5829,127.6673 67.3914,127.0984 66.1847,126.5222 64.1474,127.0507 63.261,128.9072 62.426,130.656 62.8925,131.8666 63.4376,132.7541" stroke="black" stroke-width="1" /><polyline fill="none" points="80.753,120.9398 77.0602,118.7301 73.9256,123.9687 65.8129,112.5193" stroke="black" stroke-width="1" /><polyline fill="none" points="77.4668,111.3464 75.8631,110.1697 75.5827,107.9444 76.7088,106.4096 77.8345,104.8753 80.0317,104.4883 81.6354,105.665 82.8517,106.5574 84.068,107.4499 85.2844,108.3423 86.8877,109.5188 87.1785,111.7313 86.0527,113.2655 84.9266,114.8003 82.729,115.1866 81.1257,114.0102 81.1224,114.0147 81.1191,114.0192 81.1158,114.0237 77.4113,111.3056 73.7068,108.5876 70.0023,105.8695" stroke="black" stroke-width="1" /><polyline fill="none" points="86.2989,102.3903 84.8254,101.08 84.693,98.8284 86.0027,97.3553 87.3249,95.8684 89.5649,95.7496 91.0385,97.0598 91.7985,97.7357 92.5586,98.4115 93.3186,99.0873 94.7922,100.3975 94.9357,102.6356 93.6136,104.1225 92.3038,105.5956 90.0527,105.7279 88.5791,104.4177 86.0337,102.1544 83.4883,99.8912 80.9429,97.628 79.4696,96.318 79.3375,94.0666 80.6473,92.5935 81.7757,91.3244 83.5807,91.0487 85.0103,91.8146" stroke="black" stroke-width="1" /><polyline fill="none" points="95.1621,83.0745 95.7449,87.1874 96.3278,91.3002 96.9106,95.4131 94.5883,92.9214 92.266,90.4298 89.9437,87.9381 88.5993,86.4957 88.6791,84.2413 90.1211,82.8974 91.5766,81.5408 93.8177,81.632 95.1621,83.0745 97.4844,85.5661 99.8067,88.0578 102.129,90.5494 103.4734,91.9919 103.4064,94.2333 101.9637,95.578 100.5089,96.9339 98.255,96.8556 96.9106,95.4131" stroke="black" stroke-width="1" /><polyline fill="none" points="108.2102,78.9965 108.2069,78.9922 108.2035,78.9879 108.2002,78.9835 109.6231,80.8305 111.0461,82.6774 112.469,84.5243 113.1266,85.3779 113.978,85.2441 114.425,84.8997 113.8544,85.3393 113.0037,85.2183 112.5525,84.6327 112.5247,84.5966 112.4968,84.5604 112.469,84.5243 112.1957,85.9685 111.5821,87.3069 110.4009,88.2169 109.4228,88.9705 107.4567,89.7056 105.9187,87.7093 105.1128,86.6633 105.1841,85.5485 105.7547,84.5471 106.0256,84.0566 107.1179,82.8034 107.8507,81.9575 108.5872,81.0875 109.0161,80.0425 108.2102,78.9965 107.3941,77.9373 105.3379,77.4881 103.7083,78.7436 102.1731,79.9263 102.0422,81.217 102.1273,82.2551" stroke="black" stroke-width="1" /><polyline fill="none" points="114.2952,64.5551 116.7462,68.4415 119.1973,72.3278 121.6483,76.2141 122.7093,77.8965 122.1552,80.0701 120.545,81.0856 118.9496,82.0918 116.749,81.6555 115.688,79.9732 114.8832,78.6971 114.0784,77.4211 113.2737,76.1451 112.2126,74.4627 112.7675,72.2895 114.3629,71.2833 115.973,70.2678 118.173,70.7037 119.234,72.386" stroke="black" stroke-width="1" /><polyline fill="none" points="129.581,63.9769 130.4721,65.7359 129.7848,67.8709 128.0258,68.762 126.2514,69.6608 124.1092,68.9592 123.2181,67.2001 122.7584,66.2926 122.2987,65.3851 121.8389,64.4776 120.9479,62.7186 121.6492,60.5757 123.4085,59.6845 125.1825,58.7858 127.3108,59.4953 128.2018,61.2544 129.7411,64.2928 131.2802,67.3313 132.8195,70.3697 133.7104,72.1284 133.0233,74.2637 131.2642,75.1548 129.7502,75.9218 127.9686,75.5171 126.9189,74.2804" stroke="black" stroke-width="1" /><polyline fill="none" points="138.3461,53.173 136.4367,53.9248 134.5273,54.6767 132.6178,55.4285 133.6083,57.9438 134.5987,60.4592 135.5892,62.9745 135.7494,61.6033 136.3696,60.6029 137.7573,60.0564 139.6718,59.3026 141.7773,60.298 142.4743,62.0682 142.9727,63.3338 143.471,64.5994 143.9693,65.865 144.6979,67.7154 143.7485,69.6557 142.0091,70.3406 140.2864,71.0189 138.2848,70.2406 137.5562,68.3902" stroke="black" stroke-width="1" /><polyline fill="none" points="150.696,57.6155 152.2801,57.2633 153.5546,55.3346 153.0095,53.4485 152.8826,53.0096 152.7557,52.5706 152.6289,52.1317 152.1146,50.3523 150.2451,49.3222 148.4492,49.8412 146.6702,50.3554 145.6487,52.257 146.1533,54.0031 146.2802,54.4421 146.407,54.881 146.5339,55.32 147.0482,57.0997 148.917,58.1297 150.696,57.6155 152.6562,57.049 154.6513,58.2034 155.1986,60.097 155.3858,60.7449 155.5731,61.3929 155.7603,62.0408 156.3077,63.9348 155.2267,65.9432 153.2665,66.5097 151.3227,67.0715 149.338,65.949 148.7906,64.055 148.6003,63.3964 148.4099,62.7377 148.2196,62.079 147.7503,60.4554 148.6048,58.3255" stroke="black" stroke-width="1" /><polyline fill="none" points="164.866,45.9865 165.7227,50.5006 166.5794,55.0147 167.4362,59.5288 167.807,61.4829 166.495,63.3024 164.6248,63.6573 162.7717,64.009 160.8839,62.7968 160.5131,60.8427 160.2318,59.3605 159.9505,57.8784 159.6692,56.3962 159.2983,54.4421 160.6108,52.6233 162.4639,52.2716 164.3341,51.9166 166.2214,53.1282 166.5923,55.0823" stroke="black" stroke-width="1" /><polyline fill="none" points="228.132,231.5735 136.578,231.1149 158.7145,203.9175 250.763,172.1919 188.1635,280.8196 136.578,231.1149 126.744,171.7336 136.578,231.1149 188.2428,253.3668 268.1431,236.6952" stroke="black" stroke-width="1" /><polyline fill="none" points="264.5392,219.4235 271.7469,253.9668" stroke="black" stroke-width="1" /><polyline fill="none" points="251.6566,231.6324 251.5118,229.7924 251.0809,227.9976 250.3746,226.2924 249.4102,224.7187 248.2115,223.3152 246.808,222.1164 245.2343,221.152 243.529,220.4457 241.7343,220.0148 239.8942,219.87 238.0542,220.0148 236.2594,220.4457 234.5542,221.152 232.9805,222.1164 231.577,223.3152 230.3783,224.7187 229.4139,226.2924 228.7075,227.9977 228.2766,229.7924 228.1318,231.6324 228.2766,233.4725 228.7075,235.2672 229.4139,236.9724 230.3783,238.5462 231.577,239.9497 232.9805,241.1484 234.5542,242.1128 236.2594,242.8191 238.0542,243.25 239.8942,243.3948 241.7343,243.25 243.529,242.8191 245.2343,242.1128 246.808,241.1484 248.2115,239.9497 249.4102,238.5462 250.3746,236.9724 251.0809,235.2672 251.5118,233.4725 251.6566,231.6324" stroke="black" stroke-width="1" /><polyline fill="none" points="188.5,69.0664 199.6839,69.5912 210.7696,71.161 221.6595,73.7619 232.2581,77.3712 242.4721,81.9571 252.2118,87.4792 261.3915,93.8892 269.9308,101.1306 277.7544,109.1398 284.7936,117.8464 290.9866,127.1739 296.2789,137.0404 300.6241,147.3591 303.9839,158.0393 306.3289,168.9873 307.6383,180.1067 307.9008,191.2998 307.114,202.4684 305.2847,213.5142 302.4292,224.3402 298.5725,234.8512 293.7484,244.9549 287.9994,254.5625 281.376,263.5894 273.9365,271.9565 265.7461,279.5902 256.8768,286.4234 247.4067,292.3961 237.4188,297.4556 227.0011,301.5577 216.2451,304.6663 205.2452,306.7539 194.0981,307.8023 182.9019,307.8023 171.7548,306.7539 160.7549,304.6663 149.9989,301.5577 139.5811,297.4556 129.5933,292.3961 120.1232,286.4234 111.2539,279.5902 103.0635,271.9565 95.6239,263.5894 89.0006,254.5625 83.2516,244.9549 78.4275,234.8512 74.5708,224.3402 71.7153,213.5142 69.8861,202.4684 69.0992,191.2998 69.3617,180.1067 70.6712,168.9872 73.0161,158.0393 76.3759,147.3591 80.7211,137.0404 86.0134,127.174 92.2064,117.8464 99.2457,109.1398 107.0692,101.1306 115.6085,93.8892 124.7882,87.4792 134.5279,81.957 144.7419,77.3712 155.3405,73.7619 166.2304,71.161 177.3161,69.5912 188.5,69.0664" stroke="black" stroke-width="1" />

    </g>
  </g>
  <WCB
     pausedposy="0"
     pausedposx="0"
     lastknownposy="0"
     lastknownposx="0"
     lastpathnc="0"
     lastpath="0"
     node="0"
     layer="0" />
</svg>
