<?xml version="1.0" encoding="UTF-8" standalone="no"?>
<!-- Created with Inkscape (http://www.inkscape.org/) -->

<svg
   xmlns:dc="http://purl.org/dc/elements/1.1/"
   xmlns:cc="http://creativecommons.org/ns#"
   xmlns:rdf="http://www.w3.org/1999/02/22-rdf-syntax-ns#"
   xmlns:svg="http://www.w3.org/2000/svg"
   xmlns="http://www.w3.org/2000/svg"
   xmlns:sodipodi="http://sodipodi.sourceforge.net/DTD/sodipodi-0.dtd"
   xmlns:inkscape="http://www.inkscape.org/namespaces/inkscape"
   width="100mm"
   height="100mm"
   viewBox="0 0 100 100"
   version="1.1"
   id="svg19124"
   inkscape:version="0.92.3 (2405546, 2018-03-11)"
   sodipodi:docname="inkscape_template_TMP.svg"
   shape-rendering="crispEdges">
  <sodipodi:namedview
     pagecolor="#ffffff"
     bordercolor="#666666"
     borderopacity="1"
     objecttolerance="10"
     gridtolerance="10"
     guidetolerance="10"
     inkscape:pageopacity="0"
     inkscape:pageshadow="2"
     inkscape:window-width="1568"
     inkscape:window-height="1550"
     id="namedview24021"
     showgrid="false"
     inkscape:zoom="0.62441667"
     inkscape:cx="712.66515"
     inkscape:cy="409.98265"
     inkscape:window-x="0"
     inkscape:window-y="0"
     inkscape:window-maximized="0"
     inkscape:current-layer="layer1" />
  <defs
     id="defs19118" />
  <metadata
     id="metadata19121">
    <rdf:RDF>
      <cc:Work
         rdf:about="">
        <dc:format>image/svg+xml</dc:format>
        <dc:type
           rdf:resource="http://purl.org/dc/dcmitype/StillImage" />
        <dc:title />
      </cc:Work>
    </rdf:RDF>
  </metadata>
  <g
     transform="translate(0,-197)"
     id="layer1"
     inkscape:groupmode="layer"
     inkscape:label="Layer 1">
    <g
       id="g24447"
       transform="matrix(0.26458333,0,0,0.26458333,0.10666333,197.9735)">

<polyline fill="none" points="192.1004,47.7394 189.7225,51.1455 187.3447,54.5516 184.9669,57.9577 184.9669,54.5516 184.9669,51.1455 184.9669,47.7394 184.9669,45.7676 186.5623,44.1729 188.5334,44.1729 190.5231,44.1729 192.1004,45.7676 192.1004,47.7394 192.1004,51.1455 192.1004,54.5516 192.1004,57.9577 192.1004,59.9295 190.5231,61.5235 188.5509,61.5235 186.5623,61.5235 184.9669,59.9295 184.9669,57.9577" stroke="black" stroke-width="1" /><polyline fill="none" points="197.8298,61.5877 200.7471,57.7851 198.696,53.7706 202.935,62.0679 200.7471,57.7851 203.4811,54.2207" stroke="black" stroke-width="1" /><polyline fill="none" points="218.2683,47.2815 216.2522,46.8988 214.2361,46.5162 212.22,46.1336 211.7159,48.7895 211.2119,51.4454 210.7078,54.1013 211.5748,53.0269 212.6331,52.5116 214.0984,52.7897 216.1199,53.1733 217.3697,55.1384 217.015,57.0076 216.7614,58.3439 216.5077,59.6802 216.2541,61.0165 215.8833,62.9703 214.0452,64.105 212.2086,63.7565 210.3896,63.4112 209.1118,61.6852 209.4826,59.7314" stroke="black" stroke-width="1" /><polyline fill="none" points="228.0957,63.9602 227.5436,65.8707 225.5666,66.9057 223.7382,66.3773 221.9097,65.8489 220.7736,63.9141 221.3257,62.0037 221.7446,60.5543 222.1634,59.105 222.5823,57.6557 223.1345,55.7449 225.1274,54.7152 226.9558,55.2436 228.7843,55.772 229.9045,57.7014 229.3523,59.6123" stroke="black" stroke-width="1" /><polyline fill="none" points="242.4078,61.727 241.6854,63.5617 239.6332,64.4667 237.7984,63.7443 235.9477,63.0156 235.0486,60.9484 235.771,59.1136 236.1438,58.1671 236.5165,57.2205 236.8892,56.274 237.6116,54.4392 239.6791,53.5394 241.5141,54.262 243.3645,54.9906 244.2484,57.0525 243.526,58.8873 242.2781,62.0565 241.0301,65.2257 239.7822,68.395 239.0599,70.2294 237.0076,71.1348 235.1728,70.4123 233.5936,69.7905 232.7122,68.1901 232.9389,66.584" stroke="black" stroke-width="1" /><polyline fill="none" points="256.7555,61.182 254.6791,65.2808 252.6028,69.3796 250.5265,73.4783 249.6276,75.2527 247.4778,75.8932 245.7797,75.033 244.0971,74.1806 243.3415,72.0683 244.2403,70.294 244.9221,68.9482 245.6038,67.6024 246.2856,66.2566 247.1844,64.4822 249.3342,63.8425 251.0167,64.6948 252.7149,65.5551 253.4705,67.6666 252.5717,69.441" stroke="black" stroke-width="1" /><polyline fill="none" points="260.6272,67.5723 261.679,65.9044 263.8784,65.4066 265.5463,66.4585 267.2289,67.5197 267.7377,69.766 266.6858,71.4339 266.2737,72.0873 265.8697,72.4393 265.4794,72.6403 261.5322,74.6773 257.5849,76.7143 253.6376,78.7512 253.5616,78.8718 253.4855,78.9925 253.4094,79.1131 255.4109,80.3754 257.4124,81.6377 259.4138,82.9" stroke="black" stroke-width="1" /><polyline fill="none" points="273.9048,82.9373 273.9081,82.933 273.9115,82.9287 273.9148,82.9243 272.4919,84.7713 271.0689,86.6182 269.646,88.4651 268.9884,89.3187 269.3349,90.1078 269.7819,90.4522 269.2113,90.0125 269.1113,89.1591 269.5625,88.5735 269.5903,88.5374 269.6182,88.5013 269.646,88.4651 268.1799,88.5692 266.7293,88.3172 265.5481,87.4072 264.57,86.6536 263.3577,84.9401 264.8957,82.9437 265.7016,81.8978 266.7977,81.6823 267.9116,81.9787 268.455,82.1155 269.9452,82.852 270.9501,83.3449 271.9791,83.8351 273.0989,83.9833 273.9048,82.9373 274.7209,81.8781 274.6308,79.7753 273.0012,78.5198 271.466,77.337 270.1846,77.5396 269.2026,77.8867" stroke="black" stroke-width="1" /><polyline fill="none" points="278.9428,96.5587 277.8844,96.8142 276.7003,96.9532 275.1447,95.5033 273.7522,94.2054 273.6127,91.9663 275.0042,90.4734 276.021,89.3824 277.0378,88.2914 278.0546,87.2005 279.4107,85.7454 281.6536,85.7277 283.0462,87.0256 284.4638,88.3469 284.6286,90.6086 283.2725,92.0636 282.7661,92.607 282.2596,93.1503 281.7532,93.6937 280.0181,92.0765 278.283,90.4594 276.5479,88.8422" stroke="black" stroke-width="1" /><polyline fill="none" points="287.1973,96.0884 288.6837,94.7668 290.9185,94.9586 292.1833,96.3812 293.4478,97.8033 293.366,100.0328 291.8796,101.3545 290.7522,102.3569 289.6248,103.3593 288.4974,104.3618 287.0112,105.6832 284.7869,105.5041 283.5225,104.082 282.2576,102.6594 282.3401,100.4296 283.8262,99.1082 283.8225,99.1041 283.8188,99.0999 283.8151,99.0957 287.2487,96.0427 290.6824,92.9896 294.1161,89.9366" stroke="black" stroke-width="1" /><polyline fill="none" points="295.8741,114.0099 294.2708,115.1863 292.073,114.7997 290.9471,113.2652 289.8212,111.7307 290.102,109.5046 291.7053,108.3282 292.9216,107.4358 294.138,106.5433 295.3543,105.6508 296.9579,104.4742 299.1651,104.8747 300.291,106.4093 301.4169,107.9438 301.1268,110.1559 299.5231,111.3325" stroke="black" stroke-width="1" /><polyline fill="none" points="313.8147,116.9106 312.761,115.1497 311.7073,113.3887 310.6536,111.6278 308.3339,113.0159 306.0142,114.404 303.6945,115.7921 305.0734,115.7261 306.1617,116.1745 306.9276,117.4544 307.9841,119.22 307.346,121.4598 305.7134,122.4367 304.5463,123.1351 303.3791,123.8335 302.2119,124.5319 300.5055,125.553 298.4361,124.9333 297.4762,123.3292 296.5255,121.7404 296.9664,119.6386 298.6729,118.6175" stroke="black" stroke-width="1" /><polyline fill="none" points="308.9742,127.1239 310.7691,126.2669 312.8627,127.0716 313.6829,128.7895 314.5028,130.5067 313.8053,132.6259 312.0104,133.4829 310.649,134.1329 309.2876,134.7829 307.9261,135.433 306.1316,136.2898 304.0444,135.5002 303.2245,133.7829 302.4043,132.0651 303.1026,129.9459 304.8972,129.0891 304.8948,129.084 304.8924,129.0789 304.89,129.0739 309.0363,127.0942 313.1826,125.1145 317.3289,123.1348" stroke="black" stroke-width="1" /><polyline fill="none" points="324.9656,141.5323 324.2587,139.6058 323.5518,137.6793 322.845,135.7528 320.3071,136.684 317.7692,137.6152 315.2314,138.5464 316.5984,138.7387 317.584,139.3822 318.0978,140.7823 318.8066,142.714 317.7621,144.7955 315.976,145.4509 314.699,145.9194 313.4221,146.388 312.1452,146.8565 310.2783,147.5415 308.3607,146.5468 307.7168,144.7919 307.079,143.0537 307.9041,141.071 309.771,140.3859" stroke="black" stroke-width="1" /><polyline fill="none" points="312.1193,158.6325 316.2804,157.535 314.7234,151.632 328.5825,153.8291" stroke="black" stroke-width="1" /><polyline fill="none" points="322.9498,169.5073 322.9551,169.5064 322.9606,169.5055 322.9659,169.5046 320.6658,169.8855 318.3656,170.2664 316.0654,170.6473 315.0023,170.8234 314.7178,171.6369 314.8101,172.1936 314.6924,171.4829 315.2011,170.7905 315.9305,170.6697 315.9754,170.6622 316.0204,170.6548 316.0654,170.6473 314.922,169.7238 314.0326,168.5505 313.789,167.0794 313.5873,165.8613 313.8687,163.7812 316.3549,163.3695 317.6576,163.1538 318.6064,163.7435 319.2191,164.7198 319.5233,165.1903 320.1113,166.7452 320.5104,167.7909 320.9289,168.8511 321.6471,169.723 322.9498,169.5073 324.269,169.2888 325.6368,167.6892 325.3007,165.6596 324.9841,163.7477 323.9085,163.0222 322.9535,162.6066" stroke="black" stroke-width="1" /><polyline fill="none" points="315.5205,182.2064 319.8132,181.904 319.3842,175.8142 332.5906,180.557" stroke="black" stroke-width="1" /><polyline fill="none" points="329.1375,195.3991 325.7881,192.9421 322.4387,190.4851 319.0893,188.0281 322.4944,188.1079 325.8996,188.1878 329.3047,188.2676 331.276,188.3139 332.8329,189.9462 332.7867,191.9168 332.74,193.906 331.1088,195.4454 329.1375,195.3991 325.7324,195.3193 322.3272,195.2395 318.9221,195.1596 316.9507,195.1134 315.3942,193.4992 315.4404,191.5276 315.487,189.5395 317.118,187.9819 319.0893,188.0281" stroke="black" stroke-width="1" /><polyline fill="none" points="331.452,207.2514 331.5682,206.2646 331.0682,205.3768 329.8083,205.2284 328.5881,205.0847 327.3679,204.941 326.1477,204.7973 326.0769,205.3988 326.0061,206.0002 325.9352,206.6017 326.0716,205.4438 326.2079,204.2859 326.3443,203.1281 326.2788,203.6845 326.2133,204.2409 326.1477,204.7973 322.3963,204.3555 318.6448,203.9137 314.8933,203.472" stroke="black" stroke-width="1" /><polyline fill="none" points="312.274,217.7198 316.482,218.6211 317.7606,212.6516 329.131,220.8746" stroke="black" stroke-width="1" /><polyline fill="none" points="318.748,233.3654 316.8671,232.7737 315.82,230.7902 316.4118,228.9092 317.0086,227.0119 319.0075,225.9697 320.8885,226.5614 321.8589,226.8667 322.8293,227.1719 323.7997,227.4772 325.6807,228.0689 326.7236,230.068 326.1317,231.9493 325.535,233.8463 323.5403,234.873 321.6593,234.2812 318.4102,233.2591 315.1611,232.237 311.912,231.2149 310.0314,230.6233 308.984,228.6397 309.5757,226.7587 310.085,225.1397 311.6195,224.148 313.2376,224.2613" stroke="black" stroke-width="1" /><polyline fill="none" points="312.3536,244.1575 312.3586,244.1596 312.3636,244.1617 312.3687,244.1638 310.2199,243.259 308.0712,242.3542 305.9224,241.4493 304.9293,241.0311 304.2547,241.5675 304.0357,242.0875 304.3153,241.4236 305.115,241.1093 305.7963,241.3962 305.8383,241.4139 305.8804,241.4316 305.9224,241.4493 305.4479,240.0583 305.3215,238.5913 305.9002,237.2171 306.3794,236.0792 307.7271,234.4699 310.0497,235.448 311.2666,235.9604 311.7545,236.9653 311.752,238.118 311.7582,238.6782 311.4261,240.3071 311.2059,241.4044 310.9943,242.5244 311.1367,243.645 312.3536,244.1575 313.5859,244.6764 315.5962,244.053 316.3946,242.1571 317.1467,240.371 316.624,239.1837 316.0379,238.3226" stroke="black" stroke-width="1" /><polyline fill="none" points="314.2771,259.2739 315.2471,257.4655 316.2171,255.6571 317.1871,253.8488 314.8049,252.571 312.4226,251.2931 310.0404,250.0153 310.8051,251.1647 310.9791,252.3288 310.2741,253.6432 309.3015,255.4564 307.0519,256.0589 305.3753,255.1596 304.1767,254.5167 302.9781,253.8737 301.7795,253.2308 300.027,252.2908 299.4962,250.1969 300.3798,248.5495 301.255,246.9179 303.285,246.217 305.0374,247.157" stroke="black" stroke-width="1" /><polyline fill="none" points="306.9614,271.1776 303.1335,268.6361 299.3058,266.0946 295.478,263.5532 293.8209,262.453 293.4362,260.243 294.4891,258.6572 295.5324,257.0858 297.7187,256.5825 299.3757,257.6826 300.6325,258.5171 301.8893,259.3516 303.1462,260.186 304.8032,261.2862 305.1871,263.496 304.1439,265.0674 303.0909,266.6533 300.9055,267.1567 299.2484,266.0566" stroke="black" stroke-width="1" /><polyline fill="none" points="294.6249,269.7247 296.1583,270.9644 296.3961,273.2073 295.1568,274.7402 293.9058,276.2875 291.6738,276.5111 290.1404,275.2714 289.3495,274.632 288.5586,273.9925 287.7677,273.3531 286.2343,272.1133 285.9861,269.8845 287.2371,268.3372 288.4764,266.8044 290.7188,266.5667 292.2522,267.8064 294.9009,269.9478 297.5496,272.0893 300.1982,274.2307 301.7314,275.4702 301.9689,277.7129 300.7296,279.2458 299.6618,280.5664 297.8717,280.9264 296.4079,280.2283" stroke="black" stroke-width="1" /><polyline fill="none" points="279.5317,282.2614 278.1092,280.8718 278.1315,278.6404 279.4614,277.2789 280.7914,275.9174 283.0334,275.8307 284.456,277.2204 285.5352,278.2745 286.6143,279.3287 287.6935,280.3829 289.1164,281.7728 289.0818,284.0157 287.7518,285.3772 286.4219,286.7387 284.1921,286.8138 282.7693,285.424" stroke="black" stroke-width="1" /><polyline fill="none" points="268.716,287.1874 271.4993,290.4695 276.1554,286.5211 280.144,299.9744" stroke="black" stroke-width="1" /><polyline fill="none" points="271.0092,302.7548 270.7632,307.0465 260.9482,292.9903" stroke="black" stroke-width="1" /><polyline fill="none" points="255.675,307.0218 254.2161,307.7324 253.4245,309.9043 254.3928,311.6122 254.6182,312.0097 254.8435,312.4072 255.0689,312.8046 255.9824,314.4159 258.0401,314.9835 259.6663,314.0615 261.2772,313.1481 261.829,311.0612 260.9326,309.48 260.7072,309.0826 260.4819,308.6851 260.2565,308.2876 259.3428,306.6761 257.2859,306.1085 255.675,307.0218 253.9,308.0282 251.6913,307.3688 250.7191,305.6541 250.3865,305.0674 250.0538,304.4807 249.7212,303.8941 248.7488,302.179 249.3337,299.9744 251.1087,298.968 252.8687,297.9702 255.0599,298.6008 256.0323,300.3158 256.3704,300.9123 256.7086,301.5087 257.0468,302.1051 257.8803,303.5753 257.5441,305.8455" stroke="black" stroke-width="1" /><polyline fill="none" points="241.5176,315.6479 240.7099,313.8491 241.4965,311.7486 243.2954,310.941 245.1099,310.1263 247.2169,310.9276 248.0246,312.7264 248.4412,313.6545 248.8579,314.5825 249.2746,315.5106 250.0822,317.3094 249.2813,319.4171 247.4821,320.2249 245.6679,321.0394 243.5752,320.231 242.7676,318.4321 241.3725,315.3248 239.9774,312.2176 238.5823,309.1103 237.7748,307.3118 238.5612,305.211 240.3601,304.4034 241.9084,303.7082 243.6691,304.1959 244.6597,305.4805" stroke="black" stroke-width="1" /><polyline fill="none" points="237.1358,320.8533 237.7107,322.5414 236.8074,324.5155 234.9729,325.1402 233.1395,325.7646 231.2292,324.8384 230.5771,322.9235 230.474,322.6206 230.3708,322.3178 230.2677,322.015 229.2728,319.0936 231.6553,317.7393 231.9806,317.6285 232.2942,317.5217 232.6078,317.4149 232.9215,317.3081 232.6078,317.4149 232.2942,317.5217 231.9806,317.6285 231.0224,317.9548 228.5904,317.515 227.8168,315.2433 227.5901,314.5778 227.3635,313.9122 227.1368,313.2466 226.4958,311.3644 227.5134,309.3514 229.3963,308.7102 231.2953,308.0635 233.3131,309.0429 233.954,310.925" stroke="black" stroke-width="1" /><polyline fill="none" points="215.069,314.703 215.4416,313.6799 215.9808,312.6166 218.0491,312.1226 219.9007,311.6804 221.8432,312.8027 222.3172,314.7877 222.6637,316.2383 223.0101,317.6888 223.3566,319.1394 223.8186,321.074 222.5928,322.9523 220.7413,323.3945 218.8564,323.8447 216.881,322.7309 216.419,320.7963 216.2464,320.0739 216.0739,319.3514 215.9013,318.629 218.2083,318.078 220.5153,317.527 222.8223,316.976" stroke="black" stroke-width="1" /><polyline fill="none" points="205.8447,331.7759 207.8765,331.4882 209.9083,331.2005 211.9401,330.9128 211.5611,328.2361 211.1821,325.5596 210.8031,322.8829 210.3287,324.1794 209.4931,325.0084 208.0163,325.2175 205.9791,325.506 204.1625,324.0487 203.8957,322.1649 203.705,320.8182 203.5143,319.4715 203.3236,318.1248 203.0448,316.1558 204.4191,314.4891 206.2699,314.227 208.1031,313.9674 209.8691,315.1894 210.1479,317.1584" stroke="black" stroke-width="1" /><polyline fill="none" points="197.3397,329.1548 194.8423,332.6537 194.0388,315.5287" stroke="black" stroke-width="1" /><polyline fill="none" points="185.793,322.1137 185.7006,324.0834 184.0329,325.6019 182.0639,325.5095 180.0763,325.4163 178.5757,323.7491 178.6681,321.7794 178.7157,320.7634 178.7634,319.7475 178.8111,318.7315 178.9035,316.7618 180.5537,315.2432 182.5412,315.3365 184.5102,315.4288 186.0284,317.0962 185.936,319.0659 185.7764,322.4682 185.6167,325.8705 185.457,329.2728 185.3646,331.2422 183.6969,332.7604 181.728,332.668 180.0316,332.5884 178.6823,331.358 178.3792,329.7649" stroke="black" stroke-width="1" /><polyline fill="none" points="172.9941,322.8154 172.7152,324.7848 170.8867,326.0838 169.0019,325.8169 167.1178,325.5501 165.7381,323.7968 166.017,321.8275 166.2285,320.3337 166.44,318.84 166.6516,317.3463 166.9304,315.3773 168.7427,314.0753 170.6268,314.342 172.5116,314.6089 173.8908,316.3629 173.612,318.3319 173.6176,318.3327 173.6231,318.3335 173.6286,318.3342 172.9844,322.8835 172.3402,327.4329 171.696,331.9821" stroke="black" stroke-width="1" /><polyline fill="none" points="152.2987,324.5734 155.4027,321.8129 158.5067,319.0524 161.6108,316.2919 160.8195,319.6047 160.0283,322.9177 159.237,326.2305 158.7789,328.1484 156.8567,329.3289 154.9395,328.871 153.0042,328.4088 151.8406,326.4913 152.2987,324.5734 153.09,321.2605 153.8812,317.9476 154.6725,314.6347 155.1305,312.7168 157.0349,311.5328 158.9531,311.991 160.8874,312.4529 162.0688,314.3739 161.6108,316.2919" stroke="black" stroke-width="1" /><polyline fill="none" points="143.65,309.4198 144.5109,308.7531 145.5342,308.1414 147.5472,308.8269 149.3492,309.4406 150.3935,311.4261 149.7356,313.3579 149.2549,314.7697 148.7741,316.1815 148.2933,317.5932 147.6522,319.476 145.6133,320.4109 143.8113,319.7972 141.9768,319.1725 140.9002,317.1767 141.5414,315.2938 141.7808,314.5907 142.0202,313.8876 142.2597,313.1845 144.5049,313.9491 146.7502,314.7137 148.9954,315.4783" stroke="black" stroke-width="1" /><polyline fill="none" points="136.3123,313.2297 135.4977,315.0443 133.3804,315.7845 131.6438,315.0049 129.9078,314.2254 129.0692,312.158 129.8839,310.3435 130.5018,308.9672 131.1197,307.5909 131.7376,306.2147 132.5522,304.4005 134.6547,303.6528 136.3907,304.4323 138.1273,305.212 138.9653,307.2799 138.1508,309.0941 138.1559,309.0963 138.161,309.0986 138.1661,309.101 136.2841,313.2925 134.4022,317.4841 132.5203,321.6757" stroke="black" stroke-width="1" /><polyline fill="none" points="114.797,312.5834 116.5822,313.5956 118.3673,314.6077 120.1524,315.6198 121.4857,313.2682 122.8191,310.9166 124.1524,308.5649 122.9853,309.3025 121.8175,309.4491 120.52,308.7135 118.7301,307.6987 118.1805,305.4356 119.1188,303.7805 119.7897,302.5973 120.4606,301.4141 121.1314,300.2309 122.1122,298.5009 124.2181,298.0194 125.8442,298.9414 127.4548,299.8546 128.108,301.9004 127.1271,303.6303" stroke="black" stroke-width="1" /><polyline fill="none" points="108.137,297.9498 108.1339,297.9542 108.1308,297.9587 108.1276,297.9632 109.4624,296.0516 110.7972,294.14 112.132,292.2284 112.749,291.3449 112.3658,290.573 111.9031,290.2499 112.4938,290.6623 112.6336,291.5101 112.2104,292.1163 112.1843,292.1537 112.1582,292.191 112.132,292.2284 113.5917,292.0558 115.0525,292.2395 116.2751,293.0931 117.2874,293.8 118.5787,295.4549 117.1359,297.5211 116.38,298.6037 115.2951,298.8703 114.1686,298.6264 113.6194,298.5152 112.0963,297.8494 111.0694,297.4041 110.0185,296.9626 108.893,296.8672 108.137,297.9498 107.3715,299.0461 107.56,301.1424 109.2467,302.3201 110.8356,303.4296 112.1061,303.1672 113.0708,302.7744" stroke="black" stroke-width="1" /><polyline fill="none" points="99.9002,298.1947 98.7469,299.5547 96.589,299.7933 95.111,298.5399 93.6338,297.2872 93.4477,295.1724 94.7561,293.6295 94.963,293.3856 95.1699,293.1416 95.3768,292.8976 97.3728,290.5438 99.7583,291.8929 100.0203,292.1151 100.273,292.3294 100.5257,292.5437 100.7784,292.758 100.5257,292.5437 100.273,292.3294 100.0203,292.1151 99.2483,291.4604 98.377,289.1476 99.9291,287.3174 100.3838,286.7811 100.8386,286.2449 101.2933,285.7086 102.5793,284.1922 104.8292,284.0317 106.3462,285.3181 107.8763,286.6157 108.0719,288.85 106.786,290.3665" stroke="black" stroke-width="1" /><polyline fill="none" points="91.0302,283.6816 89.9711,282.4521 87.6691,282.2407 86.2646,283.6126 85.9378,283.9319 85.6109,284.2512 85.2841,284.5704 83.9591,285.8647 83.9351,287.9991 85.2413,289.3363 86.5353,290.661 88.694,290.6624 89.9942,289.3923 90.321,289.073 90.6479,288.7537 90.9747,288.4344 92.3,287.1399 92.3242,285.0063 91.0302,283.6816 89.6044,282.222 89.6786,279.9182 91.0887,278.5408 91.5712,278.0695 92.0536,277.5983 92.5361,277.127 93.9464,275.7494 96.2272,275.7526 97.653,277.2122 99.0668,278.6596 99.0159,280.9391 97.6056,282.3168 97.1151,282.7959 96.6246,283.275 96.1342,283.754 94.9252,284.935 92.6444,285.1889" stroke="black" stroke-width="1" /><polyline fill="none" points="82.5456,274.1361 81.6062,272.8129 79.3341,272.3868 77.8074,273.6212 77.452,273.9084 77.0967,274.1957 76.7414,274.483 75.3011,275.6475 75.0773,277.7703 76.2526,279.2239 77.4169,280.664 79.5659,280.8675 80.9793,279.7247 81.3346,279.4375 81.6899,279.1502 82.0453,278.8629 83.4859,277.6982 83.7098,275.5762 82.5456,274.1361 81.2627,272.5494 81.5524,270.2627 83.0852,269.0234 83.6096,268.5994 84.1341,268.1754 84.6586,267.7514 86.1917,266.5118 88.4622,266.7287 89.7451,268.3154 91.0171,269.8888 90.7529,272.1535 89.2198,273.393 88.6866,273.8241 88.1535,274.2552 87.6203,274.6862 86.3061,275.7488 84.0115,275.7879" stroke="black" stroke-width="1" /><polyline fill="none" points="66.3288,265.59 70.1566,263.0485 73.9844,260.5071 77.8122,257.9656 79.4692,256.8654 81.6552,257.3685 82.7082,258.9544 83.7515,260.5257 83.3669,262.736 81.7099,263.8362 80.4531,264.6706 79.1963,265.5051 77.9394,266.3395 76.2824,267.4397 74.0968,266.936 73.0535,265.3646 72.0005,263.7787 72.3847,261.5692 74.0417,260.469" stroke="black" stroke-width="1" /><polyline fill="none" points="60.5586,254.9671 61.0283,255.8427 61.9465,256.2844 63.0644,255.6847 64.1471,255.1039 65.2298,254.5232 66.3125,253.9424 66.0262,253.4088 65.7399,252.8751 65.4537,252.3414 66.0048,253.3688 66.5559,254.3962 67.107,255.4236 66.8421,254.9299 66.5773,254.4362 66.3125,253.9424 69.6412,252.1569 72.97,250.3714 76.2987,248.5858" stroke="black" stroke-width="1" /><polyline fill="none" points="60.1441,238.5223 61.9614,237.757 64.0429,238.5927 64.8081,240.41 65.58,242.2431 64.7296,244.3307 62.9123,245.096 61.9747,245.4908 61.0372,245.8856 60.0996,246.2804 58.2823,247.0457 56.194,246.1955 55.4286,244.3779 54.6568,242.5451 55.5141,240.472 57.3314,239.7067 60.4706,238.3849 63.6097,237.063 66.7488,235.7411 68.5657,234.976 70.6475,235.8115 71.4128,237.6288 72.0714,239.193 71.5425,240.9418 70.2351,241.9019" stroke="black" stroke-width="1" /><polyline fill="none" points="49.9829,229.0197 50.5987,230.9772 51.2145,232.9347 51.8303,234.8922 54.4091,234.081 56.9878,233.2698 59.5665,232.4586 58.2099,232.2024 57.2556,231.5134 56.808,230.0907 56.1906,228.1279 57.3315,226.0976 59.1463,225.5267 60.4438,225.1185 61.7413,224.7104 63.0388,224.3022 64.9358,223.7055 66.8046,224.7889 67.3655,226.5721 67.9212,228.3383 67.0041,230.2802 65.1071,230.877" stroke="black" stroke-width="1" /><polyline fill="none" points="46.5797,215.4684 51.0724,214.5061 55.5652,213.5438 60.058,212.5815 62.0029,212.1649 63.8526,213.4339 64.2513,215.2953 64.6463,217.1396 63.4788,219.0553 61.5339,219.4719 60.0587,219.7878 58.5835,220.1038 57.1084,220.4198 55.1635,220.8363 53.3144,219.5668 52.9194,217.7225 52.5207,215.8611 53.6876,213.946 55.6325,213.5294" stroke="black" stroke-width="1" /><polyline fill="none" points="44.8569,202.4812 45.0969,204.5192 45.3369,206.5572 45.5769,208.5952 48.2616,208.279 50.9464,207.9629 53.6311,207.6467 52.3461,207.1421 51.537,206.2872 51.3625,204.806 51.1219,202.7625 52.6214,200.9806 54.5109,200.7581 55.8617,200.599 57.2125,200.4399 58.5634,200.2808 60.5384,200.0483 62.1724,201.4612 62.391,203.3177 62.6075,205.1565 61.3445,206.8933 59.3695,207.1259" stroke="black" stroke-width="1" /><polyline fill="none" points="47.6517,195.1771 45.8689,195.2189 44.2568,193.7649 44.2114,191.8275 44.166,189.8911 45.6227,188.3469 47.6451,188.2995 47.9649,188.2919 48.2847,188.2845 48.6045,188.2769 51.6898,188.2046 52.2668,190.8837 52.2748,191.2272 52.2826,191.5584 52.2903,191.8896 52.2981,192.2209 52.2903,191.8896 52.2826,191.5584 52.2748,191.2272 52.2511,190.2153 53.4005,188.0273 55.7996,187.9711 56.5025,187.9546 57.2054,187.9381 57.9084,187.9216 59.8961,187.875 61.511,189.4498 61.5576,191.4382 61.6047,193.4438 60.0649,195.0747 58.0772,195.1213" stroke="black" stroke-width="1" /><polyline fill="none" points="58.4294,175.8661 60.4131,176.0059 61.8393,177.7222 61.7055,179.6208 61.5718,181.5194 59.9178,183.0355 57.9341,182.8958 56.4292,182.7897 54.9243,182.6837 53.4194,182.5777 51.4354,182.4379 50.0111,180.7049 50.1448,178.8063 50.2786,176.9078 51.9306,175.4083 53.9147,175.5481" stroke="black" stroke-width="1" /><polyline fill="none" points="46.6224,162.0504 46.2872,164.0749 45.9519,166.0994 45.6167,168.1239 48.2836,168.5656 50.9506,169.0073 53.6176,169.4489 52.5232,168.6074 51.9832,167.5615 52.2269,166.0901 52.5631,164.0601 54.4983,162.7646 56.3753,163.0754 57.7172,163.2976 59.0591,163.5198 60.401,163.7421 62.3629,164.067 63.5404,165.878 63.235,167.7222 62.9325,169.5489 61.2368,170.8667 59.2749,170.5418" stroke="black" stroke-width="1" /><polyline fill="none" points="66.2316,153.5107 62.0706,152.4132 60.5136,158.3161 49.5411,149.5693" stroke="black" stroke-width="1" /><polyline fill="none" points="67.0508,140.25 68.9177,140.9351 69.8113,142.9799 69.1557,144.7666 68.5,146.5535 66.4902,147.5508 64.6233,146.8658 63.207,146.3461 61.7907,145.8264 60.3744,145.3068 58.5071,144.6216 57.62,142.5613 58.2756,140.7745 58.9312,138.9877 60.9346,138.0059 62.8019,138.691" stroke="black" stroke-width="1" /><polyline fill="none" points="59.9666,131.011 58.1871,130.1613 57.4355,128.0353 58.285,126.2559 59.1422,124.4607 61.3136,123.6927 63.093,124.5423 63.7902,124.8751 64.187,125.2352 64.4323,125.5993 66.9169,129.2812 69.4016,132.9631 71.8862,136.6451 72.0149,136.7065 72.1436,136.768 72.2723,136.8294 73.2919,134.6941 74.3114,132.5587 75.331,130.4233" stroke="black" stroke-width="1" /><polyline fill="none" points="66.4318,118.0638 64.8983,114.0479 79.6095,122.8508" stroke="black" stroke-width="1" /><polyline fill="none" points="73.3937,101.6817 72.8059,102.4828 72.8029,103.5018 73.8258,104.2522 74.8163,104.979 75.8069,105.7059 76.7975,106.4327 77.1557,105.9444 77.514,105.4561 77.8723,104.9678 77.1826,105.9078 76.4929,106.8478 75.8032,107.7878 76.1346,107.3361 76.466,106.8844 76.7975,106.4327 79.843,108.6673 82.8885,110.9019 85.9341,113.1365" stroke="black" stroke-width="1" /><polyline fill="none" points="86.2989,102.3903 84.8254,101.08 84.693,98.8284 86.0027,97.3553 87.3249,95.8684 89.5649,95.7496 91.0385,97.0598 91.7985,97.7357 92.5586,98.4115 93.3186,99.0873 94.7922,100.3975 94.9357,102.6356 93.6136,104.1225 92.3038,105.5956 90.0527,105.7279 88.5791,104.4177 86.0337,102.1544 83.4883,99.8912 80.9429,97.628 79.4696,96.318 79.3375,94.0666 80.6473,92.5935 81.7757,91.3244 83.5807,91.0487 85.0103,91.8146" stroke="black" stroke-width="1" /><polyline fill="none" points="93.8001,91.9962 92.4439,90.5412 92.5834,88.3026 93.9759,87.0047 95.368,85.7072 97.5988,85.7367 98.9549,87.1917 99.9835,88.2953 101.0121,89.3989 102.0407,90.5025 103.3966,91.9573 103.2697,94.1852 101.8776,95.4826 100.4851,96.7805 98.254,96.7503 96.8981,95.2955 96.894,95.2994 96.8899,95.3032 96.8858,95.307 93.7531,91.9458 90.6205,88.5847 87.4878,85.2235" stroke="black" stroke-width="1" /><polyline fill="none" points="98.9701,78.3138 97.526,76.4395 103.1636,72.0961 109.6736,88.7223" stroke="black" stroke-width="1" /><polyline fill="none" points="118.1793,70.0413 119.2312,71.7092 118.7469,73.8991 117.079,74.951 115.3967,76.0121 113.1981,75.5141 112.1462,73.8463 111.6035,72.9858 111.0609,72.1253 110.5182,71.2649 109.4663,69.597 109.9639,67.3979 111.632,66.3458 113.3141,65.2849 115.4994,65.792 116.5513,67.4599 118.3683,70.3409 120.1852,73.2218 122.0022,76.1028 123.0539,77.7704 122.5697,79.9606 120.9019,81.0125 119.4663,81.9179 117.6546,81.6818 116.4938,80.5489" stroke="black" stroke-width="1" /><polyline fill="none" points="121.7668,64.514 120.8757,62.755 121.5778,60.6121 123.3368,59.721 125.1115,58.8221 127.3003,59.5389 128.1914,61.2979 128.5405,61.9871 128.6351,62.5145 128.6072,62.9526 128.3283,67.3857 128.0494,71.8188 127.7705,76.2519 127.835,76.3791 127.8994,76.5063 127.9639,76.6336 130.0748,75.5642 132.1856,74.4949 134.2965,73.4256" stroke="black" stroke-width="1" /><polyline fill="none" points="141.7693,61.01 141.7673,61.0049 141.7653,60.9998 141.7633,60.9947 142.6175,63.1641 143.4717,65.3335 144.3259,67.5029 144.7207,68.5055 145.5758,68.6133 146.1008,68.4066 145.4305,68.6705 144.6469,68.3181 144.376,67.6301 144.3593,67.5877 144.3426,67.5453 144.3259,67.5029 143.6624,68.8144 142.7013,69.9298 141.3139,70.4761 140.1651,70.9284 138.0722,71.0889 137.1488,68.744 136.6651,67.5154 137.043,66.4642 137.8693,65.6606 138.2657,65.2646 139.663,64.3639 140.6019,63.7547 141.5509,63.1235 142.2531,62.2386 141.7693,61.01 141.2794,59.7658 139.4287,58.7634 137.5146,59.5171 135.7114,60.2271 135.2272,61.4307 135.0208,62.4516" stroke="black" stroke-width="1" /><polyline fill="none" points="156.0447,63.681 155.7206,64.7205 155.2318,65.8079 153.1889,66.3983 151.3601,66.9268 149.3671,65.8968 148.8005,63.9362 148.3865,62.5035 147.9724,61.0708 147.5583,59.638 147.0061,57.7272 148.1425,55.7935 149.9713,55.265 151.8331,54.7269 153.8585,55.7469 154.4107,57.6577 154.6169,58.3712 154.8231,59.0848 155.0293,59.7984 152.7507,60.4569 150.4721,61.1154 148.1935,61.7739" stroke="black" stroke-width="1" /><polyline fill="none" points="165.791,49.5367 164.09,53.3264 162.389,57.1161 160.6879,60.9058 160.0528,57.5595 159.4178,54.2131 158.7827,50.8668 158.415,48.9295 159.6851,47.0653 161.6216,46.6978 163.5765,46.3268 165.4233,47.5994 165.791,49.5367 166.4261,52.883 167.0612,56.2294 167.6963,59.5757 168.064,61.513 166.8116,63.3731 164.874,63.7408 162.9203,64.1116 161.0556,62.8431 160.6879,60.9058" stroke="black" stroke-width="1" /><polyline fill="none" points="256.7167,139.7419 156.5688,130.1462 239.8942,231.6324 136.578,231.1149 140.3048,268.1431 188.8365,96.1804 126.744,171.7336 220.8597,130.6987 108.8569,140.3048 188.2428,253.3668" stroke="black" stroke-width="1" /><polyline fill="none" points="202.6824,243.228 173.8032,263.5055" stroke="black" stroke-width="1" /><polyline fill="none" points="280.1879,140.8637 280.0431,139.0237 279.6122,137.2289 278.9059,135.5237 277.9415,133.95 276.7428,132.5465 275.3393,131.3477 273.7655,130.3834 272.0603,129.677 270.2656,129.2462 268.4255,129.1013 266.5855,129.2462 264.7907,129.677 263.0855,130.3834 261.5117,131.3477 260.1082,132.5465 258.9095,133.95 257.9451,135.5237 257.2388,137.229 256.8079,139.0237 256.6631,140.8637 256.808,142.7038 257.2388,144.4985 257.9451,146.2038 258.9095,147.7775 260.1082,149.181 261.5117,150.3797 263.0855,151.3441 264.7907,152.0504 266.5855,152.4813 268.4255,152.6261 270.2656,152.4813 272.0603,152.0504 273.7655,151.3441 275.3393,150.3797 276.7428,149.181 277.9415,147.7775 278.9059,146.2038 279.6122,144.4985 280.0431,142.7038 280.1879,140.8637" stroke="black" stroke-width="1" /><polyline fill="none" points="188.5,69.0664 199.6839,69.5912 210.7696,71.161 221.6595,73.7619 232.2581,77.3712 242.4721,81.9571 252.2118,87.4792 261.3915,93.8892 269.9308,101.1306 277.7544,109.1398 284.7936,117.8464 290.9866,127.1739 296.2789,137.0404 300.6241,147.3591 303.9839,158.0393 306.3289,168.9873 307.6383,180.1067 307.9008,191.2998 307.114,202.4684 305.2847,213.5142 302.4292,224.3402 298.5725,234.8512 293.7484,244.9549 287.9994,254.5625 281.376,263.5894 273.9365,271.9565 265.7461,279.5902 256.8768,286.4234 247.4067,292.3961 237.4188,297.4556 227.0011,301.5577 216.2451,304.6663 205.2452,306.7539 194.0981,307.8023 182.9019,307.8023 171.7548,306.7539 160.7549,304.6663 149.9989,301.5577 139.5811,297.4556 129.5933,292.3961 120.1232,286.4234 111.2539,279.5902 103.0635,271.9565 95.6239,263.5894 89.0006,254.5625 83.2516,244.9549 78.4275,234.8512 74.5708,224.3402 71.7153,213.5142 69.8861,202.4684 69.0992,191.2998 69.3617,180.1067 70.6712,168.9872 73.0161,158.0393 76.3759,147.3591 80.7211,137.0404 86.0134,127.174 92.2064,117.8464 99.2457,109.1398 107.0692,101.1306 115.6085,93.8892 124.7882,87.4792 134.5279,81.957 144.7419,77.3712 155.3405,73.7619 166.2304,71.161 177.3161,69.5912 188.5,69.0664" stroke="black" stroke-width="1" />

    </g>
  </g>
  <WCB
     pausedposy="0"
     pausedposx="0"
     lastknownposy="0"
     lastknownposx="0"
     lastpathnc="0"
     lastpath="0"
     node="0"
     layer="0" />
</svg>
