<?xml version="1.0" encoding="UTF-8" standalone="no"?>
<!-- Created with Inkscape (http://www.inkscape.org/) -->

<svg
   xmlns:dc="http://purl.org/dc/elements/1.1/"
   xmlns:cc="http://creativecommons.org/ns#"
   xmlns:rdf="http://www.w3.org/1999/02/22-rdf-syntax-ns#"
   xmlns:svg="http://www.w3.org/2000/svg"
   xmlns="http://www.w3.org/2000/svg"
   xmlns:sodipodi="http://sodipodi.sourceforge.net/DTD/sodipodi-0.dtd"
   xmlns:inkscape="http://www.inkscape.org/namespaces/inkscape"
   width="100mm"
   height="100mm"
   viewBox="0 0 100 100"
   version="1.1"
   id="svg19124"
   inkscape:version="0.92.3 (2405546, 2018-03-11)"
   sodipodi:docname="inkscape_template_TMP.svg"
   shape-rendering="crispEdges">
  <sodipodi:namedview
     pagecolor="#ffffff"
     bordercolor="#666666"
     borderopacity="1"
     objecttolerance="10"
     gridtolerance="10"
     guidetolerance="10"
     inkscape:pageopacity="0"
     inkscape:pageshadow="2"
     inkscape:window-width="1568"
     inkscape:window-height="1550"
     id="namedview24021"
     showgrid="false"
     inkscape:zoom="0.62441667"
     inkscape:cx="712.66515"
     inkscape:cy="409.98265"
     inkscape:window-x="0"
     inkscape:window-y="0"
     inkscape:window-maximized="0"
     inkscape:current-layer="layer1" />
  <defs
     id="defs19118" />
  <metadata
     id="metadata19121">
    <rdf:RDF>
      <cc:Work
         rdf:about="">
        <dc:format>image/svg+xml</dc:format>
        <dc:type
           rdf:resource="http://purl.org/dc/dcmitype/StillImage" />
        <dc:title />
      </cc:Work>
    </rdf:RDF>
  </metadata>
  <g
     transform="translate(0,-197)"
     id="layer1"
     inkscape:groupmode="layer"
     inkscape:label="Layer 1">
    <g
       id="g24447"
       transform="matrix(0.26458333,0,0,0.26458333,0.10666333,197.9735)">

<polyline fill="none" points="192.1004,47.7394 189.7225,51.1455 187.3447,54.5516 184.9669,57.9577 184.9669,54.5516 184.9669,51.1455 184.9669,47.7394 184.9669,45.7676 186.5623,44.1729 188.5334,44.1729 190.5231,44.1729 192.1004,45.7676 192.1004,47.7394 192.1004,51.1455 192.1004,54.5516 192.1004,57.9577 192.1004,59.9295 190.5231,61.5235 188.5509,61.5235 186.5623,61.5235 184.9669,59.9295 184.9669,57.9577" stroke="black" stroke-width="1" /><polyline fill="none" points="197.8298,61.5877 200.7471,57.7851 198.696,53.7706 202.935,62.0679 200.7471,57.7851 203.4811,54.2207" stroke="black" stroke-width="1" /><polyline fill="none" points="209.9136,56.5856 210.2812,54.6483 212.1454,53.3786 214.082,53.7461 216.0368,54.1172 217.2889,55.9783 216.9212,57.9156 216.7316,58.9148 216.542,59.914 216.3523,60.9133 215.9846,62.8505 214.1378,64.1228 212.183,63.7518 210.2464,63.3843 208.977,61.5206 209.3447,59.5833 209.9798,56.237 210.6149,52.8906 211.2499,49.5443 211.6176,47.6073 213.4816,46.338 215.4182,46.7055 217.0867,47.0222 218.2501,48.4295 218.3269,50.0495" stroke="black" stroke-width="1" /><polyline fill="none" points="230.2997,57.236 229.7523,59.1303 227.7938,60.2235 225.8995,59.6761 223.9887,59.1238 222.8999,57.15 223.4474,55.2556 223.7299,54.2783 224.0123,53.301 224.2947,52.3237 224.8422,50.4294 226.8163,49.34 228.711,49.8875 230.6214,50.4396 231.6945,52.4097 231.1471,54.3041 230.2014,57.5762 229.2557,60.8484 228.3101,64.1206 227.7627,66.0145 225.8042,67.1081 223.9099,66.5607 222.2794,66.0894 221.252,64.5787 221.3273,62.9583" stroke="black" stroke-width="1" /><polyline fill="none" points="238.0466,56.5642 241.758,54.3952 235.4769,70.347" stroke="black" stroke-width="1" /><polyline fill="none" points="250.1836,61.7836 254.0818,59.9716 246.3345,75.2651" stroke="black" stroke-width="1" /><polyline fill="none" points="260.6272,67.5723 261.679,65.9044 263.8784,65.4066 265.5463,66.4585 267.2289,67.5197 267.7377,69.766 266.6858,71.4339 266.2737,72.0873 265.8697,72.4393 265.4794,72.6403 261.5322,74.6773 257.5849,76.7143 253.6376,78.7512 253.5616,78.8718 253.4855,78.9925 253.4094,79.1131 255.4109,80.3754 257.4124,81.6377 259.4138,82.9" stroke="black" stroke-width="1" /><polyline fill="none" points="277.9928,75.4605 277.2057,74.8541 276.1871,74.8273 275.4129,75.8322 274.663,76.8055 273.9132,77.7788 273.1634,78.752 273.6431,79.1217 274.1228,79.4913 274.6026,79.8609 273.679,79.1493 272.7555,78.4378 271.8319,77.7262 272.2757,78.0682 272.7195,78.4101 273.1634,78.752 270.858,81.7443 268.5526,84.7367 266.2472,87.729" stroke="black" stroke-width="1" /><polyline fill="none" points="289.4206,85.138 286.2879,88.4991 283.1552,91.8603 280.0225,95.2214 278.6664,96.6764 276.4233,96.695 275.0307,95.397 273.6509,94.1111 273.5115,91.872 274.8676,90.4169 275.8962,89.3133 276.9248,88.2097 277.9534,87.1061 279.3095,85.6511 281.5524,85.6334 282.9322,86.9193 284.3247,88.2173 284.4644,90.4556 283.1083,91.9106" stroke="black" stroke-width="1" /><polyline fill="none" points="291.6044,92.311 292.937,91.126 295.107,91.1924 296.3947,92.6406 297.6817,94.0881 297.5694,96.2081 296.0576,97.5522 295.8186,97.7648 295.5795,97.9773 295.3405,98.1899 293.0341,100.2406 290.8614,98.5704 290.6331,98.3136 290.4129,98.066 290.1927,97.8184 289.9726,97.5708 290.1927,97.8184 290.4129,98.066 290.6331,98.3136 291.3056,99.0701 291.8441,101.4822 290.0508,103.0768 289.5253,103.544 288.9998,104.0112 288.4744,104.4784 286.9885,105.7995 284.7383,105.643 283.4167,104.1565 282.0837,102.6573 282.2032,100.4176 283.6891,99.0965" stroke="black" stroke-width="1" /><polyline fill="none" points="292.5807,115.4177 296.0503,112.872 292.4388,107.9499 306.1392,104.9165" stroke="black" stroke-width="1" /><polyline fill="none" points="313.8147,116.9106 312.761,115.1497 311.7073,113.3887 310.6536,111.6278 308.3339,113.0159 306.0142,114.404 303.6945,115.7921 305.0734,115.7261 306.1617,116.1745 306.9276,117.4544 307.9841,119.22 307.346,121.4598 305.7134,122.4367 304.5463,123.1351 303.3791,123.8335 302.2119,124.5319 300.5055,125.553 298.4361,124.9333 297.4762,123.3292 296.5255,121.7404 296.9664,119.6386 298.6729,118.6175" stroke="black" stroke-width="1" /><polyline fill="none" points="314.6997,125.7661 318.8936,126.7099 303.4227,134.0966" stroke="black" stroke-width="1" /><polyline fill="none" points="312.3342,146.7498 310.4673,147.4348 308.4632,146.4532 307.8076,144.6665 307.152,142.8797 308.0398,140.8191 309.9067,140.1341 311.323,139.6144 312.7393,139.0947 314.1556,138.5751 316.0229,137.8899 318.032,138.8875 318.6876,140.6743 319.3433,142.4611 318.4503,144.5057 316.5831,145.1908" stroke="black" stroke-width="1" /><polyline fill="none" points="323.944,149.2857 325.6683,148.8309 327.5741,149.8707 328.0683,151.7445 328.5623,153.6173 327.5042,155.4578 325.5481,155.9737 325.2388,156.0553 324.9295,156.1369 324.6202,156.2185 321.636,157.0056 320.4526,154.5338 320.3649,154.2016 320.2804,153.8812 320.1959,153.5608 320.1115,153.2405 320.1959,153.5608 320.2804,153.8812 320.3649,154.2016 320.6231,155.1803 320.0134,157.5754 317.693,158.1874 317.0131,158.3668 316.3333,158.5461 315.6534,158.7254 313.7309,159.2325 311.7943,158.076 311.287,156.1528 310.7754,154.213 311.8941,152.269 313.8167,151.7619" stroke="black" stroke-width="1" /><polyline fill="none" points="331.5284,168.2133 326.9955,168.964 322.4625,169.7147 317.9296,170.4653 315.9673,170.7903 314.1791,169.436 313.8681,167.5579 313.5599,165.6971 314.816,163.8383 316.7783,163.5134 318.2667,163.2669 319.755,163.0204 321.2433,162.7739 323.2056,162.449 324.9932,163.8038 325.3013,165.6646 325.6124,167.5426 324.3569,169.401 322.3947,169.7259" stroke="black" stroke-width="1" /><polyline fill="none" points="323.0841,175.531 325.0682,175.3912 326.7213,176.907 326.8551,178.806 326.9888,180.7042 325.5634,182.4205 323.5793,182.5602 322.0744,182.6663 320.5695,182.7723 319.0646,182.8783 317.0809,183.0181 315.4282,181.5186 315.2944,179.6204 315.1606,177.7215 316.5869,176.0055 318.5706,175.8658 318.5702,175.8602 318.5698,175.8546 318.5694,175.849 323.1527,175.5261 327.736,175.2032 332.3194,174.8804" stroke="black" stroke-width="1" /><polyline fill="none" points="329.5065,188.4321 331.2892,188.4739 332.8314,190.0019 332.786,191.9393 332.7406,193.8756 331.2131,195.3499 329.1907,195.3025 328.8709,195.295 328.5511,195.2875 328.2313,195.28 325.1459,195.2077 324.6953,192.5045 324.7033,192.161 324.7111,191.8298 324.7188,191.4985 324.7266,191.1673 324.7188,191.4985 324.7111,191.8298 324.7033,192.161 324.6796,193.1729 323.4288,195.3046 321.0298,195.2483 320.3268,195.2318 319.6239,195.2154 318.921,195.1989 316.9333,195.1523 315.394,193.5035 315.4406,191.5151 315.4876,189.5095 317.1021,187.9526 319.0898,187.9992" stroke="black" stroke-width="1" /><polyline fill="none" points="331.452,207.2514 331.5682,206.2646 331.0682,205.3768 329.8083,205.2284 328.5881,205.0847 327.3679,204.941 326.1477,204.7973 326.0769,205.3988 326.0061,206.0002 325.9352,206.6017 326.0716,205.4438 326.2079,204.2859 326.3443,203.1281 326.2788,203.6845 326.2133,204.2409 326.1477,204.7973 322.3963,204.3555 318.6448,203.9137 314.8933,203.472" stroke="black" stroke-width="1" /><polyline fill="none" points="315.5145,219.2456 313.57,218.8291 312.3985,216.9298 312.7971,215.0687 313.1958,213.2077 315.0459,211.9384 316.9904,212.3549 318.4656,212.6708 319.9408,212.9868 321.416,213.3028 323.3608,213.7194 324.5281,215.6349 324.1295,217.496 323.7308,219.3571 321.8849,220.6101 319.94,220.1935" stroke="black" stroke-width="1" /><polyline fill="none" points="308.994,229.1818 313.099,230.4732 314.931,224.6497 325.4814,233.9012" stroke="black" stroke-width="1" /><polyline fill="none" points="320.6257,246.2033 321.0113,245.2876 320.7775,244.2959 319.6083,243.8036 318.476,243.3267 317.3437,242.8499 316.2113,242.3731 315.9763,242.9313 315.7413,243.4894 315.5062,244.0476 315.9587,242.9731 316.4112,241.8986 316.8636,240.8241 316.6462,241.3404 316.4288,241.8568 316.2113,242.3731 312.73,240.9071 309.2487,239.4412 305.7674,237.9752" stroke="black" stroke-width="1" /><polyline fill="none" points="314.1829,259.7214 310.1339,257.5495 306.085,255.3777 302.036,253.2058 300.2832,252.2656 299.6932,250.1014 300.593,248.4239 301.4846,246.7618 303.6141,246.0559 305.3669,246.9961 306.6963,247.7092 308.0258,248.4223 309.3552,249.1354 311.108,250.0756 311.6972,252.2397 310.8056,253.9019 309.9058,255.5794 307.7771,256.2853 306.0243,255.3451" stroke="black" stroke-width="1" /><polyline fill="none" points="307.097,270.7408 308.2321,269.0313 309.3672,267.3217 310.5023,265.6121 308.2502,264.1168 305.9981,262.6215 303.746,261.1263 304.3997,262.3422 304.4639,263.5175 303.6389,264.7601 302.5008,266.4742 300.2047,266.8635 298.6197,265.8111 297.4865,265.0587 296.3534,264.3064 295.2202,263.554 293.5635,262.4541 293.2311,260.3196 294.2651,258.7623 295.2892,257.2198 297.3759,256.7121 299.0326,257.812" stroke="black" stroke-width="1" /><polyline fill="none" points="299.4105,280.6181 300.0351,279.8455 300.0858,278.8278 299.0993,278.0302 298.1439,277.2578 297.1885,276.4853 296.2331,275.7129 295.8523,276.1838 295.4716,276.6548 295.0908,277.1257 295.8238,276.2191 296.5568,275.3125 297.2898,274.4059 296.9376,274.8415 296.5853,275.2772 296.2331,275.7129 293.2956,273.338 290.3582,270.9631 287.4207,268.5882" stroke="black" stroke-width="1" /><polyline fill="none" points="287.6192,280.459 289.042,281.8488 289.0077,284.0915 287.6775,285.4532 286.3478,286.8145 284.118,286.8896 282.6952,285.4998 281.616,284.4456 280.5368,283.3914 279.4576,282.3372 278.0351,280.9476 278.0574,278.7162 279.3871,277.355 280.7173,275.9932 282.9473,275.9188 284.3699,277.3084 284.3738,277.3044 284.3777,277.3004 284.3816,277.2964 287.6684,280.507 290.9552,283.7177 294.242,286.9283" stroke="black" stroke-width="1" /><polyline fill="none" points="277.6186,288.0883 278.8939,289.5922 278.7093,291.8401 277.2059,293.115 275.6884,294.4019 273.4539,294.2054 272.1785,292.7015 271.5208,291.9258 270.8629,291.1501 270.2051,290.3744 268.9298,288.8705 269.1015,286.6345 270.619,285.3476 272.1224,284.0727 274.3698,284.2573 275.6452,285.7612 277.8481,288.3589 280.0511,290.9567 282.254,293.5544 283.5291,295.0581 283.3443,297.3058 281.8409,298.5806 280.5457,299.679 278.7198,299.6989 277.4118,298.7401" stroke="black" stroke-width="1" /><polyline fill="none" points="269.4744,307.7897 270.289,307.2209 270.6203,306.2573 269.894,305.2172 269.1906,304.2098 268.4872,303.2025 267.7838,302.1951 267.2873,302.5419 266.7907,302.8886 266.2942,303.2353 267.2501,302.5678 268.206,301.9003 269.1619,301.2329 268.7025,301.5536 268.2432,301.8744 267.7838,302.1951 265.6212,299.0981 263.4586,296.001 261.296,292.9039" stroke="black" stroke-width="1" /><polyline fill="none" points="259.9476,309.979 259.3009,314.2289 250.8453,299.3153" stroke="black" stroke-width="1" /><polyline fill="none" points="238.1349,307.5357 238.3101,306.4611 238.6416,305.3159 240.5815,304.4449 242.3182,303.6651 244.4359,304.4056 245.2718,306.2674 245.8826,307.6279 246.4935,308.9884 247.1043,310.3489 247.919,312.1635 247.0649,314.2374 245.3283,315.0171 243.5604,315.8109 241.412,315.085 240.5973,313.2704 240.2931,312.5928 239.9889,311.9153 239.6846,311.2376 241.8484,310.2661 244.0122,309.2946 246.176,308.3232" stroke="black" stroke-width="1" /><polyline fill="none" points="234.9346,313.8147 235.5702,315.6813 234.5749,317.7053 232.709,318.3407 230.8255,318.9821 228.8183,317.9806 228.1826,316.114 227.8547,315.1513 227.5269,314.1885 227.199,313.2257 226.5634,311.3592 227.5424,309.3415 229.4259,308.7001 231.2918,308.0646 233.3153,309.0598 233.951,310.9264 235.049,314.1506 236.147,317.3749 237.245,320.5991 237.8805,322.4654 236.885,324.489 235.0191,325.1245 233.4115,325.6719 231.7053,325.0214 230.8395,323.6501" stroke="black" stroke-width="1" /><polyline fill="none" points="216.8798,323.3037 216.4217,321.3858 217.5862,319.4689 219.5041,319.0108 221.4386,318.5488 223.3593,319.7289 223.8174,321.6468 224.0537,322.6362 224.29,323.6257 224.5264,324.6152 224.9844,326.5331 223.8045,328.4544 221.8863,328.9126 219.952,329.3746 218.0468,328.1901 217.5887,326.2722 216.7975,322.9593 216.0062,319.6464 215.215,316.3335 214.757,314.4159 215.9214,312.4986 217.8393,312.0405 219.4901,311.6463 221.129,312.4537 221.8626,313.9005" stroke="black" stroke-width="1" /><polyline fill="none" points="205.8447,331.7759 207.8765,331.4882 209.9083,331.2005 211.9401,330.9128 211.5611,328.2361 211.1821,325.5596 210.8031,322.8829 210.3287,324.1794 209.4931,325.0084 208.0163,325.2175 205.9791,325.506 204.1625,324.0487 203.8957,322.1649 203.705,320.8182 203.5143,319.4715 203.3236,318.1248 203.0448,316.1558 204.4191,314.4891 206.2699,314.227 208.1031,313.9674 209.8691,315.1894 210.1479,317.1584" stroke="black" stroke-width="1" /><polyline fill="none" points="191.9195,332.9195 191.7041,328.3298 191.4888,323.7402 191.2734,319.1506 191.1802,317.1638 192.7344,315.5462 194.6359,315.457 196.52,315.3686 198.2191,316.8335 198.3123,318.8203 198.3831,320.3272 198.4538,321.8342 198.5245,323.3412 198.6177,325.328 197.0632,326.9448 195.1791,327.0332 193.2776,327.1225 191.5788,325.6583 191.4856,323.6715" stroke="black" stroke-width="1" /><polyline fill="none" points="182.0934,324.584 180.4803,324.4067 178.6522,325.8216 178.5601,327.7827 178.5387,328.2391 178.5173,328.6956 178.4959,329.152 178.4091,331.0021 179.8468,332.5799 181.7141,332.6675 183.5639,332.7543 185.1439,331.2835 185.2291,329.4679 185.2505,329.0115 185.2719,328.5551 185.2933,328.0987 185.3802,326.2481 183.9432,324.6708 182.0934,324.584 180.0552,324.4883 178.5387,322.7524 178.6311,320.7834 178.6628,320.1098 178.6944,319.4361 178.726,318.7624 178.8184,316.7931 180.4891,315.2403 182.5273,315.336 184.5484,315.4308 186.0653,317.1331 185.9729,319.1025 185.9408,319.7873 185.9086,320.4722 185.8765,321.157 185.7973,322.8452 184.3018,324.5861" stroke="black" stroke-width="1" /><polyline fill="none" points="164.9311,331.0243 165.5753,326.475 166.2195,321.9257 166.8637,317.3764 167.1425,315.407 168.9711,314.1077 170.8559,314.3746 172.7234,314.639 174.1196,316.3951 173.8408,318.3644 173.6292,319.8581 173.4177,321.3518 173.2062,322.8456 172.9273,324.8149 171.0986,326.1135 169.2311,325.8491 167.3462,325.5822 165.9503,323.8269 166.2291,321.8576" stroke="black" stroke-width="1" /><polyline fill="none" points="159.2061,326.2233 158.748,328.1412 156.8265,329.3215 154.9086,328.8634 152.9737,328.4012 151.768,326.4388 152.226,324.5209 152.4055,323.7695 152.6744,323.3061 152.9791,322.99 156.059,319.7893 159.1389,316.5887 162.2188,313.388 162.2519,313.2493 162.285,313.1105 162.3182,312.9718 160.0166,312.4221 157.7151,311.8724 155.4135,311.3227" stroke="black" stroke-width="1" /><polyline fill="none" points="148.8029,316.1091 148.1672,317.9757 146.1435,318.9715 144.2776,318.3361 142.3941,317.6947 141.4153,315.6763 142.0509,313.8098 142.3788,312.847 142.7066,311.8842 143.0345,310.9214 143.6702,309.0549 145.6771,308.0541 147.5606,308.6955 149.4265,309.3309 150.4221,311.3542 149.7865,313.2208 148.6885,316.4451 147.5905,319.6693 146.4925,322.8935 145.8569,324.7598 143.8333,325.7553 141.9674,325.1199 140.3598,324.5724 139.4052,323.0158 139.5563,321.4011" stroke="black" stroke-width="1" /><polyline fill="none" points="133.7205,319.4801 132.7513,321.6387 126.259,318.7238 137.8333,305.1279" stroke="black" stroke-width="1" /><polyline fill="none" points="125.7051,306.4692 124.7325,308.1846 122.5586,308.7856 120.8439,307.8134 119.113,306.832 118.5277,304.6666 119.5003,302.9512 120.0019,302.0665 120.5035,301.1818 121.0052,300.297 121.9777,298.5817 124.1361,297.9727 125.8669,298.954 127.5816,299.9262 128.1825,302.0997 127.21,303.815 125.53,306.778 123.8501,309.7409 122.1702,312.7039 121.1978,314.4189 119.024,315.0196 117.3093,314.0474 115.832,313.2098 115.1844,311.5025 115.6339,309.9443" stroke="black" stroke-width="1" /><polyline fill="none" points="108.137,297.9498 108.1339,297.9542 108.1308,297.9587 108.1276,297.9632 109.4624,296.0516 110.7972,294.14 112.132,292.2284 112.749,291.3449 112.3658,290.573 111.9031,290.2499 112.4938,290.6623 112.6336,291.5101 112.2104,292.1163 112.1843,292.1537 112.1582,292.191 112.132,292.2284 113.5917,292.0558 115.0525,292.2395 116.2751,293.0931 117.2874,293.8 118.5787,295.4549 117.1359,297.5211 116.38,298.6037 115.2951,298.8703 114.1686,298.6264 113.6194,298.5152 112.0963,297.8494 111.0694,297.4041 110.0185,296.9626 108.893,296.8672 108.137,297.9498 107.3715,299.0461 107.56,301.1424 109.2467,302.3201 110.8356,303.4296 112.1061,303.1672 113.0708,302.7744" stroke="black" stroke-width="1" /><polyline fill="none" points="96.6029,291.1274 97.8782,289.6235 100.1126,289.4283 101.6165,290.7037 103.1335,291.9901 103.3183,294.2368 102.0429,295.7407 101.385,296.5165 100.727,297.2924 100.0691,298.0683 98.7937,299.5722 96.5466,299.7575 95.0424,298.4819 93.5257,297.1957 93.3537,294.959 94.629,293.455 96.832,290.8573 99.0349,288.2595 101.2379,285.6617 102.513,284.1581 104.7476,283.9627 106.2515,285.238 107.5459,286.3357 107.8644,288.1348 107.132,289.5821" stroke="black" stroke-width="1" /><polyline fill="none" points="89.2605,288.5671 84.9863,289.0257 97.2501,277.0461" stroke="black" stroke-width="1" /><polyline fill="none" points="85.5796,276.1839 84.0329,277.4344 81.8096,277.138 80.6128,275.6577 79.4164,274.1779 79.6026,271.9546 81.1493,270.7041 82.3224,269.7556 83.4956,268.8071 84.6688,267.8586 86.2152,266.6083 88.4287,266.8915 89.6251,268.3713 90.8219,269.8516 90.635,272.075 89.0885,273.3253 89.0921,273.3297 89.0956,273.334 89.0991,273.3384 85.5261,276.2271 81.9531,279.1158 78.3801,282.0046" stroke="black" stroke-width="1" /><polyline fill="none" points="66.3288,265.59 70.1566,263.0485 73.9844,260.5071 77.8122,257.9656 79.4692,256.8654 81.6552,257.3685 82.7082,258.9544 83.7515,260.5257 83.3669,262.736 81.7099,263.8362 80.4531,264.6706 79.1963,265.5051 77.9394,266.3395 76.2824,267.4397 74.0968,266.936 73.0535,265.3646 72.0005,263.7787 72.3847,261.5692 74.0417,260.469" stroke="black" stroke-width="1" /><polyline fill="none" points="68.436,252.878 67.7598,251.4029 65.607,250.5606 63.8769,251.4886 63.4743,251.7046 63.0716,251.9206 62.669,252.1366 61.0368,253.0121 60.4211,255.0559 61.3047,256.7032 62.1801,258.3351 64.2535,258.9357 65.8552,258.0766 66.2578,257.8606 66.6605,257.6446 67.0631,257.4286 68.6957,256.553 69.3114,254.5099 68.436,252.878 67.4715,251.08 68.1825,248.8874 69.9195,247.9556 70.5138,247.6368 71.1081,247.318 71.7025,246.9992 73.4398,246.0673 75.6301,246.7037 76.5946,248.5018 77.551,250.2848 76.8691,252.4606 75.1318,253.3925 74.5276,253.7166 73.9234,254.0406 73.3192,254.3647 71.8299,255.1636 69.5682,254.7742" stroke="black" stroke-width="1" /><polyline fill="none" points="59.8919,246.3168 58.2484,247.0089 56.2157,246.2466 55.4635,244.4605 54.7119,242.6755 55.5015,240.7049 57.3659,239.9198 57.6607,239.7957 57.9556,239.6715 58.2504,239.5474 61.0947,238.3496 62.613,240.6311 62.7464,240.9477 62.8749,241.2531 63.0035,241.5584 63.1321,241.8638 63.0035,241.5584 62.8749,241.2531 62.7464,240.9477 62.3535,240.0149 62.6214,237.5579 64.833,236.6266 65.481,236.3537 66.1291,236.0809 66.7771,235.808 68.6095,235.0363 70.6891,235.9099 71.461,237.743 72.2396,239.5919 71.4044,241.6736 69.572,242.4452" stroke="black" stroke-width="1" /><polyline fill="none" points="58.5377,229.3619 58.1485,227.7865 56.1904,226.5576 54.3177,227.1468 53.8818,227.2839 53.4459,227.421 53.0101,227.5581 51.2432,228.1139 50.2573,230.0071 50.8182,231.7903 51.3739,233.5568 53.299,234.5335 55.0328,233.988 55.4687,233.8509 55.9046,233.7138 56.3404,233.5767 58.1076,233.0208 59.0934,231.1284 58.5377,229.3619 57.9254,227.4155 59.0327,225.3939 60.913,224.8024 61.5563,224.6 62.1997,224.3976 62.843,224.1952 64.7237,223.6036 66.7569,224.6372 67.3692,226.5836 67.9764,228.5137 66.9008,230.5242 65.0201,231.1158 64.3661,231.3215 63.7121,231.5273 63.0581,231.733 61.4459,232.2402 59.2965,231.4359" stroke="black" stroke-width="1" /><polyline fill="none" points="57.0636,220.2102 55.1187,220.6268 53.2694,219.3577 52.8707,217.4963 52.4721,215.6356 53.6429,213.7364 55.5878,213.3199 57.0629,213.0039 58.5381,212.6879 60.0132,212.3719 61.9578,211.9554 63.8044,213.2083 64.2029,215.069 64.6016,216.9305 63.4301,218.8294 61.4856,219.2459 61.4868,219.2514 61.4879,219.2569 61.4891,219.2623 56.9963,220.2247 52.5035,221.187 48.0108,222.1493" stroke="black" stroke-width="1" /><polyline fill="none" points="48.2844,201.3871 51.9452,203.3502 55.606,205.3134 59.2668,207.2765 55.884,207.6749 52.5014,208.0732 49.1187,208.4716 47.1604,208.7022 45.39,207.3042 45.1595,205.3466 44.9268,203.3706 46.326,201.6177 48.2844,201.3871 51.6671,200.9887 55.0498,200.5904 58.4324,200.192 60.3908,199.9614 62.1583,201.3413 62.389,203.3 62.6215,205.275 61.2251,207.0459 59.2668,207.2765" stroke="black" stroke-width="1" /><polyline fill="none" points="55.0264,195.1895 53.0551,195.2357 51.4231,193.6789 51.3769,191.7083 51.3303,189.7191 52.8879,188.1049 54.8592,188.0587 55.876,188.0349 56.8928,188.011 57.9096,187.9872 59.8809,187.941 61.5118,189.4804 61.5584,191.4695 61.6046,193.4401 60.0481,195.0718 58.0768,195.118 54.6716,195.1978 51.2665,195.2777 47.8614,195.3575 45.8904,195.4037 44.2588,193.8469 44.2126,191.8763 44.1727,190.1785 45.3052,188.7461 46.8732,188.3317" stroke="black" stroke-width="1" /><polyline fill="none" points="44.6717,175.0054 49.2551,175.3283 53.8384,175.6512 58.4217,175.9741 60.4058,176.1139 61.8304,177.8466 61.6967,179.7455 61.5641,181.627 59.9106,183.1432 57.9265,183.0034 56.4216,182.8974 54.9167,182.7914 53.4118,182.6853 51.4277,182.5455 50.0038,180.8126 50.1363,178.9311 50.2701,177.0322 51.9229,175.5163 53.907,175.6561" stroke="black" stroke-width="1" /><polyline fill="none" points="60.184,163.7416 62.1459,164.0665 63.4051,165.9088 63.0941,167.7866 62.7832,169.6643 60.9946,171.0189 59.0327,170.694 57.5443,170.4475 56.0559,170.201 54.5676,169.9546 52.6053,169.6296 51.3496,167.7708 51.6605,165.8931 51.9715,164.0154 53.7566,162.6772 55.7189,163.0022" stroke="black" stroke-width="1" /><polyline fill="none" points="56.776,153.7339 57.2871,152.1938 56.2865,150.1099 54.3882,149.6091 53.9464,149.4926 53.5046,149.3761 53.0628,149.2596 51.2718,148.7872 49.4279,149.8625 48.9512,151.67 48.4789,153.4606 49.5862,155.3137 51.3436,155.7772 51.7854,155.8938 52.2272,156.0103 52.6691,156.1268 54.4604,156.5993 56.3037,155.5246 56.776,153.7339 57.2964,151.761 59.3114,150.6418 61.2173,151.1445 61.8695,151.3165 62.5216,151.4885 63.1737,151.6605 65.08,152.1633 66.2484,154.1222 65.728,156.0952 65.212,158.0516 63.2297,159.1783 61.3234,158.6755 60.6605,158.5006 59.9975,158.3258 59.3346,158.1509 57.7004,157.7199 56.3114,155.893" stroke="black" stroke-width="1" /><polyline fill="none" points="55.148,143.2997 53.2968,142.6204 52.3493,140.5741 53.0286,138.7229 53.7139,136.8553 55.8038,135.8874 57.655,136.5666 58.3802,136.8327 58.809,137.1541 59.0873,137.4936 61.9058,140.9267 64.7243,144.3597 67.5428,147.7928 67.6767,147.842 67.8106,147.8911 67.9445,147.9402 68.7596,145.7188 69.5747,143.4973 70.3898,141.2759" stroke="black" stroke-width="1" /><polyline fill="none" points="59.6169,123.2479 63.7633,125.2276 67.9096,127.2073 72.0559,129.187 73.8508,130.044 74.5416,132.1781 73.7214,133.896 72.9087,135.5981 70.8146,136.403 69.0197,135.546 67.6583,134.896 66.2969,134.246 64.9355,133.596 63.1406,132.739 62.4506,130.6048 63.2633,128.9027 64.0835,127.1849 66.1768,126.38 67.9717,127.2369" stroke="black" stroke-width="1" /><polyline fill="none" points="65.7696,112.842 65.2595,113.6946 65.3519,114.7093 66.4405,115.3607 67.4948,115.9916 68.5491,116.6224 69.6034,117.2533 69.9144,116.7336 70.2253,116.2139 70.5363,115.6943 69.9376,116.6947 69.339,117.6951 68.7403,118.6956 69.028,118.2148 69.3157,117.7341 69.6034,117.2533 72.8448,119.1929 76.0862,121.1325 79.3276,123.0721" stroke="black" stroke-width="1" /><polyline fill="none" points="78.6846,112.3389 77.0948,111.1724 76.7521,108.9431 77.9182,107.3539 79.0952,105.7496 81.3143,105.4216 82.9041,106.5881 83.7241,107.1898 84.5441,107.7914 85.3641,108.3931 86.9539,109.5596 87.3064,111.7744 86.1293,113.3786 84.9632,114.9678 82.7344,115.3104 81.1446,114.1439 78.3984,112.129 75.6523,110.114 72.9061,108.0991 71.3166,106.9328 70.9743,104.7037 72.1403,103.1144 73.145,101.7452 74.9163,101.3017 76.4112,101.9304" stroke="black" stroke-width="1" /><polyline fill="none" points="88.0551,94.2223 89.5287,95.5325 89.6715,97.7709 88.3612,99.2445 87.0396,100.7309 84.7892,100.8629 83.3156,99.5527 82.5554,98.8767 81.7951,98.2007 81.0349,97.5248 79.5613,96.2145 79.4287,93.9637 80.7392,92.4898 82.0606,91.0037 84.3008,90.8841 85.7744,92.1944 88.3198,94.4576 90.8652,96.7209 93.4106,98.9841 94.8839,100.2941 95.0269,102.5327 93.7167,104.0063 92.589,105.2746 90.7829,105.5509 89.3532,104.7847" stroke="black" stroke-width="1" /><polyline fill="none" points="89.0455,87.1817 87.4322,85.4508 92.6383,80.5986 100.6766,96.5422" stroke="black" stroke-width="1" /><polyline fill="none" points="98.9701,78.3138 97.526,76.4395 103.1636,72.0961 109.6736,88.7223" stroke="black" stroke-width="1" /><polyline fill="none" points="109.6814,70.4143 108.4192,68.4129 114.4387,64.6166 119.3633,81.7794" stroke="black" stroke-width="1" /><polyline fill="none" points="128.102,61.3049 127.5201,65.4179 126.9381,69.5309 126.3561,73.6439 124.8169,70.6054 123.2777,67.567 121.7385,64.5285 120.8474,62.7695 121.55,60.626 123.3084,59.7352 125.0833,58.8361 127.2109,59.5459 128.102,61.3049 129.6412,64.3434 131.1804,67.3818 132.7196,70.4203 133.6107,72.1793 132.9241,74.314 131.1647,75.2052 129.3907,76.1039 127.2472,75.4029 126.3561,73.6439" stroke="black" stroke-width="1" /><polyline fill="none" points="138.6059,61.7306 140.15,61.2316 141.2383,59.1921 140.519,57.3654 140.3516,56.9402 140.1841,56.5151 140.0167,56.0899 139.3381,54.3665 137.3803,53.516 135.641,54.2009 133.9179,54.8794 133.0789,56.8683 133.7449,58.5595 133.9123,58.9847 134.0797,59.4098 134.2471,59.835 134.9258,61.5587 136.8828,62.4091 138.6059,61.7306 140.5044,60.9831 142.5988,61.9455 143.321,63.7796 143.5681,64.4072 143.8152,65.0347 144.0623,65.6622 144.7846,67.4966 143.8964,69.5975 141.9979,70.345 140.1153,71.0863 138.0342,70.1547 137.3119,68.3203 137.0607,67.6823 136.8095,67.0444 136.5583,66.4064 135.9391,64.8339 136.5903,62.6333" stroke="black" stroke-width="1" /><polyline fill="none" points="146.0555,54.2454 145.5081,52.351 146.5974,50.3766 148.4917,49.8292 150.4029,49.2768 152.4196,50.3893 152.9671,52.2836 153.1816,53.0258 153.1762,53.5615 153.0671,53.9868 151.9665,58.2901 150.8659,62.5935 149.7654,66.8968 149.8049,67.0338 149.8445,67.1708 149.8841,67.3079 152.1574,66.6509 154.4306,65.9939 156.7039,65.3369" stroke="black" stroke-width="1" /><polyline fill="none" points="164.866,45.9865 165.7227,50.5006 166.5794,55.0147 167.4362,59.5288 167.807,61.4829 166.495,63.3024 164.6248,63.6573 162.7717,64.009 160.8839,62.7968 160.5131,60.8427 160.2318,59.3605 159.9505,57.8784 159.6692,56.3962 159.2983,54.4421 160.6108,52.6233 162.4639,52.2716 164.3341,51.9166 166.2214,53.1282 166.5923,55.0823" stroke="black" stroke-width="1" /><polyline fill="none" points="138.8625,219.5765 156.5688,130.1462 108.8569,140.3048 96.1804,188.1635 136.578,231.1149 236.1363,268.4255 156.5688,130.1462 268.1431,236.6952 268.4255,140.8637 140.8637,108.5745" stroke="black" stroke-width="1" /><polyline fill="none" points="136.5342,125.6786 145.1932,91.4703" stroke="black" stroke-width="1" /><polyline fill="none" points="148.3404,231.1149 148.1956,229.2749 147.7647,227.4801 147.0584,225.7749 146.094,224.2012 144.8953,222.7976 143.4918,221.5989 141.918,220.6345 140.2128,219.9282 138.4181,219.4973 136.578,219.3525 134.738,219.4973 132.9433,219.9282 131.238,220.6345 129.6643,221.5989 128.2608,222.7976 127.062,224.2012 126.0977,225.7749 125.3913,227.4801 124.9604,229.2749 124.8156,231.1149 124.9604,232.955 125.3913,234.7497 126.0977,236.4549 127.062,238.0287 128.2608,239.4322 129.6643,240.6309 131.238,241.5953 132.9433,242.3016 134.738,242.7325 136.578,242.8773 138.4181,242.7325 140.2128,242.3016 141.9181,241.5953 143.4918,240.6309 144.8953,239.4322 146.094,238.0287 147.0584,236.4549 147.7647,234.7497 148.1956,232.955 148.3404,231.1149" stroke="black" stroke-width="1" /><polyline fill="none" points="188.5,69.0664 199.6839,69.5912 210.7696,71.161 221.6595,73.7619 232.2581,77.3712 242.4721,81.9571 252.2118,87.4792 261.3915,93.8892 269.9308,101.1306 277.7544,109.1398 284.7936,117.8464 290.9866,127.1739 296.2789,137.0404 300.6241,147.3591 303.9839,158.0393 306.3289,168.9873 307.6383,180.1067 307.9008,191.2998 307.114,202.4684 305.2847,213.5142 302.4292,224.3402 298.5725,234.8512 293.7484,244.9549 287.9994,254.5625 281.376,263.5894 273.9365,271.9565 265.7461,279.5902 256.8768,286.4234 247.4067,292.3961 237.4188,297.4556 227.0011,301.5577 216.2451,304.6663 205.2452,306.7539 194.0981,307.8023 182.9019,307.8023 171.7548,306.7539 160.7549,304.6663 149.9989,301.5577 139.5811,297.4556 129.5933,292.3961 120.1232,286.4234 111.2539,279.5902 103.0635,271.9565 95.6239,263.5894 89.0006,254.5625 83.2516,244.9549 78.4275,234.8512 74.5708,224.3402 71.7153,213.5142 69.8861,202.4684 69.0992,191.2998 69.3617,180.1067 70.6712,168.9872 73.0161,158.0393 76.3759,147.3591 80.7211,137.0404 86.0134,127.174 92.2064,117.8464 99.2457,109.1398 107.0692,101.1306 115.6085,93.8892 124.7882,87.4792 134.5279,81.957 144.7419,77.3712 155.3405,73.7619 166.2304,71.161 177.3161,69.5912 188.5,69.0664" stroke="black" stroke-width="1" />

    </g>
  </g>
  <WCB
     pausedposy="0"
     pausedposx="0"
     lastknownposy="0"
     lastknownposx="0"
     lastpathnc="0"
     lastpath="0"
     node="0"
     layer="0" />
</svg>
