<?xml version="1.0" encoding="UTF-8" standalone="no"?>
<!-- Created with Inkscape (http://www.inkscape.org/) -->

<svg
   xmlns:dc="http://purl.org/dc/elements/1.1/"
   xmlns:cc="http://creativecommons.org/ns#"
   xmlns:rdf="http://www.w3.org/1999/02/22-rdf-syntax-ns#"
   xmlns:svg="http://www.w3.org/2000/svg"
   xmlns="http://www.w3.org/2000/svg"
   xmlns:sodipodi="http://sodipodi.sourceforge.net/DTD/sodipodi-0.dtd"
   xmlns:inkscape="http://www.inkscape.org/namespaces/inkscape"
   width="100mm"
   height="100mm"
   viewBox="0 0 100 100"
   version="1.1"
   id="svg19124"
   inkscape:version="0.92.3 (2405546, 2018-03-11)"
   sodipodi:docname="inkscape_template_TMP.svg"
   shape-rendering="crispEdges">
  <sodipodi:namedview
     pagecolor="#ffffff"
     bordercolor="#666666"
     borderopacity="1"
     objecttolerance="10"
     gridtolerance="10"
     guidetolerance="10"
     inkscape:pageopacity="0"
     inkscape:pageshadow="2"
     inkscape:window-width="1568"
     inkscape:window-height="1550"
     id="namedview24021"
     showgrid="false"
     inkscape:zoom="0.62441667"
     inkscape:cx="712.66515"
     inkscape:cy="409.98265"
     inkscape:window-x="0"
     inkscape:window-y="0"
     inkscape:window-maximized="0"
     inkscape:current-layer="layer1" />
  <defs
     id="defs19118" />
  <metadata
     id="metadata19121">
    <rdf:RDF>
      <cc:Work
         rdf:about="">
        <dc:format>image/svg+xml</dc:format>
        <dc:type
           rdf:resource="http://purl.org/dc/dcmitype/StillImage" />
        <dc:title />
      </cc:Work>
    </rdf:RDF>
  </metadata>
  <g
     transform="translate(0,-197)"
     id="layer1"
     inkscape:groupmode="layer"
     inkscape:label="Layer 1">
    <g
       id="g24447"
       transform="matrix(0.26458333,0,0,0.26458333,0.10666333,197.9735)">

<polyline fill="none" points="192.1004,47.7394 189.7225,51.1455 187.3447,54.5516 184.9669,57.9577 184.9669,54.5516 184.9669,51.1455 184.9669,47.7394 184.9669,45.7676 186.5623,44.1729 188.5334,44.1729 190.5231,44.1729 192.1004,45.7676 192.1004,47.7394 192.1004,51.1455 192.1004,54.5516 192.1004,57.9577 192.1004,59.9295 190.5231,61.5235 188.5509,61.5235 186.5623,61.5235 184.9669,59.9295 184.9669,57.9577" stroke="black" stroke-width="1" /><polyline fill="none" points="197.8298,61.5877 200.7471,57.7851 198.696,53.7706 202.935,62.0679 200.7471,57.7851 203.4811,54.2207" stroke="black" stroke-width="1" /><polyline fill="none" points="209.9136,56.5856 210.2812,54.6483 212.1454,53.3786 214.082,53.7461 216.0368,54.1172 217.2889,55.9783 216.9212,57.9156 216.7316,58.9148 216.542,59.914 216.3523,60.9133 215.9846,62.8505 214.1378,64.1228 212.183,63.7518 210.2464,63.3843 208.977,61.5206 209.3447,59.5833 209.9798,56.237 210.6149,52.8906 211.2499,49.5443 211.6176,47.6073 213.4816,46.338 215.4182,46.7055 217.0867,47.0222 218.2501,48.4295 218.3269,50.0495" stroke="black" stroke-width="1" /><polyline fill="none" points="227.6329,65.6109 226.8042,66.3172 225.8107,66.9762 223.7678,66.3858 221.939,65.8573 220.8028,63.9228 221.3694,61.9623 221.7834,60.5296 222.1975,59.0968 222.6116,57.6641 223.1638,55.7533 225.1566,54.7239 226.9854,55.2524 228.8471,55.7905 230.0161,57.7336 229.4639,59.6445 229.2577,60.358 229.0515,61.0716 228.8452,61.7851 226.5666,61.1266 224.288,60.4681 222.0094,59.8096" stroke="black" stroke-width="1" /><polyline fill="none" points="238.9685,69.8153 238.0773,70.4409 237.0264,71.004 235.0478,70.2249 233.2765,69.5275 232.3264,67.4951 233.0741,65.5963 233.6205,64.2086 234.1669,62.8209 234.7133,61.4333 235.4421,59.5826 237.5225,58.7443 239.2938,59.4418 241.0969,60.1518 242.0789,62.1959 241.3501,64.0466 241.078,64.7377 240.8058,65.4288 240.5337,66.1199 238.3268,65.2509 236.1198,64.3819 233.9129,63.5129" stroke="black" stroke-width="1" /><polyline fill="none" points="256.7555,61.182 254.6791,65.2808 252.6028,69.3796 250.5265,73.4783 249.6276,75.2527 247.4778,75.8932 245.7797,75.033 244.0971,74.1806 243.3415,72.0683 244.2403,70.294 244.9221,68.9482 245.6038,67.6024 246.2856,66.2566 247.1844,64.4822 249.3342,63.8425 251.0167,64.6948 252.7149,65.5551 253.4705,67.6666 252.5717,69.441" stroke="black" stroke-width="1" /><polyline fill="none" points="263.6445,75.4038 263.6474,75.3991 263.6503,75.3945 263.6533,75.3899 262.4095,77.3619 261.1658,79.334 259.922,81.3061 259.3472,82.2175 259.7661,82.9706 260.2434,83.2717 259.6341,82.8874 259.4547,82.0471 259.8491,81.4218 259.8734,81.3832 259.8977,81.3446 259.922,81.3061 258.4721,81.5469 257.0043,81.4319 255.743,80.6365 254.6987,79.9778 253.3313,78.3853 254.6756,76.2538 255.38,75.1369 256.4511,74.8197 257.5878,75.0105 258.1416,75.0959 259.6943,75.6896 260.7409,76.0862 261.8113,76.478 262.9401,76.5206 263.6445,75.4038 264.3578,74.2727 264.0712,72.1876 262.3312,71.0902 260.692,70.0564 259.4352,70.3781 258.49,70.8156" stroke="black" stroke-width="1" /><polyline fill="none" points="267.2145,80.5001 268.418,78.9381 270.6547,78.6478 272.2162,79.8508 273.7923,81.0652 274.0682,83.2913 272.8648,84.8533 272.2441,85.659 271.6234,86.4647 271.0027,87.2704 269.7992,88.8324 267.5768,89.1328 266.0006,87.9184 264.4391,86.7154 264.1489,84.4792 265.3524,82.9172 267.4311,80.219 269.5099,77.5209 271.5886,74.8227 272.7919,73.2609 275.0284,72.9709 276.5898,74.174 277.9352,75.2104 278.337,76.9916 277.6735,78.4714" stroke="black" stroke-width="1" /><polyline fill="none" points="288.1847,84.3375 287.4579,83.66 286.4463,83.5379 285.5814,84.466 284.7437,85.3647 283.906,86.2635 283.0683,87.1623 283.5114,87.5752 283.9543,87.9881 284.3974,88.401 283.5445,87.6061 282.6917,86.8112 281.8388,86.0163 282.2486,86.3983 282.6584,86.7803 283.0683,87.1623 280.4929,89.9256 277.9174,92.6888 275.3419,95.4521" stroke="black" stroke-width="1" /><polyline fill="none" points="291.6044,92.311 292.937,91.126 295.107,91.1924 296.3947,92.6406 297.6817,94.0881 297.5694,96.2081 296.0576,97.5522 295.8186,97.7648 295.5795,97.9773 295.3405,98.1899 293.0341,100.2406 290.8614,98.5704 290.6331,98.3136 290.4129,98.066 290.1927,97.8184 289.9726,97.5708 290.1927,97.8184 290.4129,98.066 290.6331,98.3136 291.3056,99.0701 291.8441,101.4822 290.0508,103.0768 289.5253,103.544 288.9998,104.0112 288.4744,104.4784 286.9885,105.7995 284.7383,105.643 283.4167,104.1565 282.0837,102.6573 282.2032,100.4176 283.6891,99.0965" stroke="black" stroke-width="1" /><polyline fill="none" points="294.5001,115.035 293.4126,115.0888 292.2234,115.0045 290.9654,113.29 289.8392,111.7552 290.1198,109.5294 291.7651,108.3221 292.9676,107.4398 294.17,106.5576 295.3724,105.6754 296.976,104.4987 299.1829,104.8995 300.309,106.4343 301.4554,107.9967 301.1956,110.2495 299.5919,111.4261 298.9931,111.8655 298.3942,112.3049 297.7953,112.7443 296.3922,110.832 294.9891,108.9197 293.586,107.0074" stroke="black" stroke-width="1" /><polyline fill="none" points="308.5746,120.9756 306.8826,121.9881 304.7046,121.4526 303.6921,119.7605 302.6708,118.0538 303.2201,115.8675 304.9122,114.855 305.7851,114.3326 306.6581,113.8103 307.531,113.2879 309.2231,112.2754 311.41,112.8244 312.4226,114.5167 313.4438,116.2232 312.8856,118.3961 311.1935,119.4086 308.2707,121.1575 305.348,122.9064 302.4252,124.6554 300.7335,125.6677 298.5551,125.1323 297.5426,123.4402 296.6711,121.9839 296.9496,120.1782 298.1095,119.0442" stroke="black" stroke-width="1" /><polyline fill="none" points="314.2567,124.7185 315.866,123.9502 317.9323,124.6164 318.7672,126.3652 319.6017,128.1131 318.9053,130.1185 317.0798,130.9901 316.7911,131.128 316.5024,131.2658 316.2137,131.4036 313.4287,132.7334 311.8051,130.5256 311.6571,130.2155 311.5143,129.9165 311.3716,129.6176 311.2288,129.3186 311.3716,129.6176 311.5143,129.9165 311.6571,130.2155 312.0932,131.129 311.9408,133.5958 309.7752,134.6297 309.1407,134.9327 308.5062,135.2356 307.8717,135.5386 306.0775,136.3952 303.9592,135.6201 303.1022,133.8252 302.2378,132.0148 302.9745,129.8963 304.7687,129.0396" stroke="black" stroke-width="1" /><polyline fill="none" points="324.9656,141.5323 324.2587,139.6058 323.5518,137.6793 322.845,135.7528 320.3071,136.684 317.7692,137.6152 315.2314,138.5464 316.5984,138.7387 317.584,139.3822 318.0978,140.7823 318.8066,142.714 317.7621,144.7955 315.976,145.4509 314.699,145.9194 313.4221,146.388 312.1452,146.8565 310.2783,147.5415 308.3607,146.5468 307.7168,144.7919 307.079,143.0537 307.9041,141.071 309.771,140.3859" stroke="black" stroke-width="1" /><polyline fill="none" points="328.382,153.5727 328.1285,152.612 327.3381,151.9691 326.1114,152.2926 324.9234,152.606 323.7354,152.9193 322.5474,153.2327 322.7019,153.8183 322.8564,154.4039 323.0108,154.9895 322.7135,153.8622 322.4161,152.7348 322.1188,151.6075 322.2617,152.1492 322.4045,152.691 322.5474,153.2327 318.895,154.1961 315.2425,155.1595 311.59,156.1229" stroke="black" stroke-width="1" /><polyline fill="none" points="327.9191,161.6873 330.2534,161.3007 331.4161,168.3218 313.6874,166.1996" stroke="black" stroke-width="1" /><polyline fill="none" points="319.0572,182.7726 317.0735,182.9123 315.4207,181.4129 315.287,179.5143 315.1532,177.6158 316.5782,175.8827 318.562,175.7429 320.0668,175.6369 321.5717,175.5309 323.0766,175.4249 325.0607,175.2851 326.7139,176.8013 326.8477,178.6999 326.9814,180.5984 325.556,182.3147 323.5719,182.4545" stroke="black" stroke-width="1" /><polyline fill="none" points="332.5797,193.7827 332.603,192.7894 332.0221,191.9523 330.7538,191.9226 329.5256,191.8938 328.2973,191.865 327.069,191.8362 327.0548,192.4416 327.0406,193.0471 327.0264,193.6525 327.0537,192.487 327.0811,191.3214 327.1084,190.1559 327.0953,190.716 327.0821,191.2761 327.069,191.8362 323.2927,191.7476 319.5163,191.6591 315.7399,191.5705" stroke="black" stroke-width="1" /><polyline fill="none" points="329.8821,201.4498 332.232,201.7265 331.3997,208.7943 314.9572,201.8333" stroke="black" stroke-width="1" /><polyline fill="none" points="315.5145,219.2456 313.57,218.8291 312.3985,216.9298 312.7971,215.0687 313.1958,213.2077 315.0459,211.9384 316.9904,212.3549 318.4656,212.6708 319.9408,212.9868 321.416,213.3028 323.3608,213.7194 324.5281,215.6349 324.1295,217.496 323.7308,219.3571 321.8849,220.6101 319.94,220.1935" stroke="black" stroke-width="1" /><polyline fill="none" points="323.5915,228.6522 326.016,232.202 309.6623,227.0574" stroke="black" stroke-width="1" /><polyline fill="none" points="320.6257,246.2033 321.0113,245.2876 320.7775,244.2959 319.6083,243.8036 318.476,243.3267 317.3437,242.8499 316.2113,242.3731 315.9763,242.9313 315.7413,243.4894 315.5062,244.0476 315.9587,242.9731 316.4112,241.8986 316.8636,240.8241 316.6462,241.3404 316.4288,241.8568 316.2113,242.3731 312.73,240.9071 309.2487,239.4412 305.7674,237.9752" stroke="black" stroke-width="1" /><polyline fill="none" points="307.9089,248.5121 309.6465,249.4442 310.2984,251.6035 309.3666,253.3405 308.4261,255.0939 306.275,255.7298 304.5373,254.7977 303.6411,254.317 302.7448,253.8362 301.8485,253.3555 300.1109,252.4234 299.4514,250.2799 300.3919,248.5265 301.3237,246.7895 303.4825,246.1378 305.2201,247.0699 308.2216,248.6799 311.2232,250.2899 314.2247,251.8999 315.962,252.8318 316.6136,254.9909 315.6818,256.728 314.8791,258.2245 313.1874,258.912 311.6191,258.4991" stroke="black" stroke-width="1" /><polyline fill="none" points="306.9614,271.1776 303.1335,268.6361 299.3058,266.0946 295.478,263.5532 293.8209,262.453 293.4362,260.243 294.4891,258.6572 295.5324,257.0858 297.7187,256.5825 299.3757,257.6826 300.6325,258.5171 301.8893,259.3516 303.1462,260.186 304.8032,261.2862 305.1871,263.496 304.1439,265.0674 303.0909,266.6533 300.9055,267.1567 299.2484,266.0566" stroke="black" stroke-width="1" /><polyline fill="none" points="300.1621,274.2753 301.6955,275.515 301.9327,277.7575 300.693,279.2909 299.4423,280.8379 297.1519,281.0804 295.6185,279.8407 295.0177,279.355 294.7154,278.9127 294.5614,278.5015 293.0001,274.3431 291.4387,270.1848 289.8774,266.0263 289.7665,265.9367 289.6556,265.847 289.5447,265.7573 288.057,267.5974 286.5693,269.4375 285.0815,271.2776" stroke="black" stroke-width="1" /><polyline fill="none" points="286.6768,289.4347 285.9019,285.3536 285.1269,281.2726 284.3519,277.1916 286.7885,279.5717 289.2249,281.9517 291.6615,284.3318 293.072,285.7097 293.098,287.9653 291.7206,289.3753 290.3303,290.7986 288.0874,290.8126 286.6768,289.4347 284.2403,287.0546 281.8038,284.6746 279.3672,282.2945 277.9567,280.9166 277.9185,278.6746 279.2967,277.2637 280.6863,275.8412 282.9413,275.8137 284.3519,277.1916" stroke="black" stroke-width="1" /><polyline fill="none" points="274.7346,295.9293 273.4592,294.4254 273.6317,292.1892 275.1356,290.9138 276.6526,289.6274 278.8993,289.8122 280.1746,291.3161 280.8326,292.092 281.4905,292.8678 282.1485,293.6437 283.4238,295.1476 283.2395,297.3948 281.7353,298.6704 280.2186,299.9566 277.9838,299.7609 276.7084,298.257 274.5055,295.6592 272.3026,293.0614 270.0996,290.4637 268.8245,288.9601 268.9968,286.7235 270.5007,285.4482 271.7951,284.3505 273.622,284.3302 274.9302,285.2892" stroke="black" stroke-width="1" /><polyline fill="none" points="259.1223,294.2653 261.586,297.7936 266.5914,294.2986 269.3027,308.0663" stroke="black" stroke-width="1" /><polyline fill="none" points="249.9209,303.8493 248.9401,302.1193 249.5811,299.9819 251.2367,299.0431 252.8924,298.1044 255.0703,298.6436 256.0512,300.3736 256.7953,301.6859 257.5393,302.9983 258.2834,304.3106 259.2644,306.0409 258.6085,308.186 256.9528,309.1248 255.2971,310.0635 253.1342,309.5166 252.1532,307.7863" stroke="black" stroke-width="1" /><polyline fill="none" points="238.1349,307.5357 238.3101,306.4611 238.6416,305.3159 240.5815,304.4449 242.3182,303.6651 244.4359,304.4056 245.2718,306.2674 245.8826,307.6279 246.4935,308.9884 247.1043,310.3489 247.919,312.1635 247.0649,314.2374 245.3283,315.0171 243.5604,315.8109 241.412,315.085 240.5973,313.2704 240.2931,312.5928 239.9889,311.9153 239.6846,311.2376 241.8484,310.2661 244.0122,309.2946 246.176,308.3232" stroke="black" stroke-width="1" /><polyline fill="none" points="232.2557,326.0291 234.1982,325.3676 236.1408,324.7061 238.0833,324.0446 237.2119,321.4856 236.3404,318.9266 235.469,316.3676 235.2447,317.7298 234.5783,318.7 233.1664,319.1808 231.2187,319.8441 229.1622,318.7511 228.5489,316.9501 228.1104,315.6626 227.672,314.375 227.2335,313.0875 226.5924,311.205 227.6318,309.3113 229.4014,308.7086 231.154,308.1118 233.1169,308.9831 233.7579,310.8656" stroke="black" stroke-width="1" /><polyline fill="none" points="223.4112,325.0398 221.61,328.943 217.6274,312.2682" stroke="black" stroke-width="1" /><polyline fill="none" points="204.1319,325.3689 203.8554,323.4166 205.1942,321.6171 207.1466,321.3406 209.116,321.0618 210.9177,322.4165 211.1942,324.3689 211.3368,325.3761 211.4794,326.3834 211.622,327.3906 211.8985,329.343 210.5438,331.1454 208.5911,331.4219 206.6221,331.7008 204.8362,330.3431 204.5597,328.3907 204.0822,325.0182 203.6046,321.6458 203.1271,318.2734 202.8507,316.3214 204.1895,314.5215 206.1418,314.2451 207.8223,314.0071 209.3784,314.9645 209.9733,316.4736" stroke="black" stroke-width="1" /><polyline fill="none" points="197.3397,329.1548 194.8423,332.6537 194.0388,315.5287" stroke="black" stroke-width="1" /><polyline fill="none" points="178.9123,323.9457 178.912,323.9512 178.9118,323.9566 178.9115,323.9621 179.0208,321.6332 179.1301,319.3042 179.2394,316.9753 179.2899,315.8989 178.554,315.4503 177.9903,315.4239 178.7099,315.4576 179.2805,316.1001 179.2458,316.8386 179.2437,316.8842 179.2415,316.9297 179.2394,316.9753 180.3819,316.0506 181.7155,315.4267 183.205,315.4966 184.4383,315.5545 186.4133,316.2654 186.2952,318.7827 186.2333,320.1016 185.4579,320.9058 184.375,321.3005 183.8512,321.4994 182.2076,321.7487 181.1015,321.9199 179.9772,322.1071 178.9742,322.6267 178.9123,323.9457 178.8496,325.2814 180.1273,326.9539 182.1823,327.0504 184.1181,327.1412 185.0527,326.2415 185.6592,325.3947" stroke="black" stroke-width="1" /><polyline fill="none" points="166.7565,317.3611 167.0353,315.3922 168.8476,314.0901 170.7321,314.357 172.6166,314.6238 174.0128,316.3802 173.7339,318.3492 173.5224,319.8429 173.3109,321.3366 173.0994,322.8304 172.8205,324.7997 170.9917,326.0987 169.1072,325.8318 167.2227,325.565 165.8431,323.8117 166.1219,321.8423" stroke="black" stroke-width="1" /><polyline fill="none" points="152.8988,321.579 153.3569,319.6611 155.2619,318.4773 157.1799,318.9353 159.1144,319.3974 160.2945,321.3181 159.8365,323.236 159.6001,324.2254 159.3638,325.2149 159.1275,326.2044 158.6694,328.1223 156.7486,329.3031 154.8303,328.8449 152.8961,328.3829 151.7318,326.4653 152.1899,324.5474 152.9811,321.2345 153.7724,317.9216 154.5636,314.6087 155.0216,312.6912 156.9267,311.507 158.8446,311.9651 160.4954,312.3593 161.5925,313.8203 161.5932,315.4424" stroke="black" stroke-width="1" /><polyline fill="none" points="139.7157,320.5855 143.0645,318.1278 146.4134,315.6701 149.7623,313.2124 148.6643,316.4366 147.5663,319.6609 146.4683,322.8851 145.8327,324.7517 143.8083,325.7469 141.9424,325.1115 140.0589,324.4701 139.08,322.4521 139.7157,320.5855 140.8137,317.3613 141.9117,314.137 143.0096,310.9128 143.6453,309.0462 145.6521,308.0458 147.5191,308.6815 149.4016,309.3226 150.3979,311.3458 149.7623,313.2124" stroke="black" stroke-width="1" /><polyline fill="none" points="126.2872,318.8773 128.1692,314.6857 130.0511,310.4941 131.933,306.3026 132.7477,304.488 134.8651,303.7474 136.6017,304.5271 138.3224,305.2997 139.1762,307.3743 138.3615,309.1888 137.7436,310.5651 137.1257,311.9413 136.5078,313.3176 135.6931,315.1321 133.5757,315.8719 131.855,315.0994 130.1184,314.3197 129.2646,312.2458 130.0793,310.4314" stroke="black" stroke-width="1" /><polyline fill="none" points="121.8899,298.9365 122.86,298.442 123.9794,298.0318 125.8292,299.0806 127.4852,300.0195 128.141,302.165 127.1344,303.9402 126.3989,305.2376 125.6633,306.5349 124.9277,307.8323 123.9467,309.5625 121.7693,310.1008 120.1134,309.1619 118.4276,308.2061 117.7419,306.0446 118.7229,304.3143 119.0893,303.6682 119.4556,303.022 119.822,302.3759 121.8853,303.5457 123.9486,304.7156 126.0119,305.8854" stroke="black" stroke-width="1" /><polyline fill="none" points="109.6595,305.3164 105.5457,306.5639 115.3607,292.5078" stroke="black" stroke-width="1" /><polyline fill="none" points="99.5088,299.1217 97.9784,300.9263 92.5507,296.3235 107.4447,286.4756" stroke="black" stroke-width="1" /><polyline fill="none" points="90.0176,289.416 88.7419,290.6621 86.5712,290.6975 85.217,289.3112 83.8636,287.9257 83.8764,285.8028 85.3235,284.3893 85.5523,284.1657 85.7812,283.9422 86.01,283.7187 88.2177,281.5621 90.4663,283.1287 90.7064,283.3745 90.9379,283.6115 91.1694,283.8484 91.401,284.0854 91.1694,283.8484 90.9379,283.6115 90.7064,283.3745 89.9991,282.6504 89.3482,280.2661 91.0648,278.5893 91.5678,278.0979 92.0708,277.6066 92.5738,277.1153 93.9961,275.726 96.2511,275.7769 97.641,277.1997 99.0428,278.6348 99.0284,280.8777 97.6061,282.267" stroke="black" stroke-width="1" /><polyline fill="none" points="82.5456,274.1361 81.6062,272.8129 79.3341,272.3868 77.8074,273.6212 77.452,273.9084 77.0967,274.1957 76.7414,274.483 75.3011,275.6475 75.0773,277.7703 76.2526,279.2239 77.4169,280.664 79.5659,280.8675 80.9793,279.7247 81.3346,279.4375 81.6899,279.1502 82.0453,278.8629 83.4859,277.6982 83.7098,275.5762 82.5456,274.1361 81.2627,272.5494 81.5524,270.2627 83.0852,269.0234 83.6096,268.5994 84.1341,268.1754 84.6586,267.7514 86.1917,266.5118 88.4622,266.7287 89.7451,268.3154 91.0171,269.8888 90.7529,272.1535 89.2198,273.393 88.6866,273.8241 88.1535,274.2552 87.6203,274.6862 86.3061,275.7488 84.0115,275.7879" stroke="black" stroke-width="1" /><polyline fill="none" points="66.6786,265.8845 67.8136,267.5941 68.9487,269.3037 70.0838,271.0133 72.3359,269.518 74.588,268.0227 76.8401,266.5274 75.4658,266.658 74.3577,266.261 73.5327,265.0185 72.3946,263.3044 72.9269,261.0371 74.5119,259.9848 75.6451,259.2324 76.7782,258.4801 77.9114,257.7277 79.5681,256.6277 81.6643,257.1498 82.6983,258.7071 83.7224,260.2496 83.3805,262.3698 81.7238,263.4697" stroke="black" stroke-width="1" /><polyline fill="none" points="59.9675,254.1369 60.9374,255.9453 61.9075,257.7537 62.8775,259.5621 65.2597,258.2842 67.6419,257.0064 70.0242,255.7286 68.6436,255.7299 67.5775,255.2309 66.8725,253.9166 65.8999,252.1034 66.6423,249.896 68.3189,248.9966 69.5175,248.3537 70.7161,247.7108 71.9147,247.0678 73.6672,246.1278 75.7052,246.8438 76.5889,248.4912 77.464,250.1228 76.9251,252.2016 75.1727,253.1416" stroke="black" stroke-width="1" /><polyline fill="none" points="54.8967,242.6944 55.2823,243.6101 56.1551,244.1358 57.3243,243.6435 58.4566,243.1667 59.5889,242.6898 60.7212,242.213 60.4862,241.6549 60.2512,241.0967 60.0161,240.5386 60.4686,241.6131 60.9211,242.6876 61.3735,243.7621 61.1561,243.2457 60.9387,242.7294 60.7212,242.213 64.2026,240.747 67.6839,239.2811 71.1652,237.8151" stroke="black" stroke-width="1" /><polyline fill="none" points="60.6105,232.3788 58.7132,232.9757 56.7531,231.8854 56.1819,230.0695 55.6108,228.2542 56.5986,226.2538 58.496,225.6569 59.935,225.2042 61.3741,224.7515 62.8132,224.2988 64.7102,223.702 66.6661,224.7765 67.2371,226.5917 67.8083,228.4076 66.8198,230.4079 64.9228,231.0047 64.9245,231.01 64.9261,231.0154 64.9278,231.0207 60.5449,232.3995 56.162,233.7783 51.7791,235.1571" stroke="black" stroke-width="1" /><polyline fill="none" points="46.5797,215.4684 51.0724,214.5061 55.5652,213.5438 60.058,212.5815 62.0029,212.1649 63.8526,213.4339 64.2513,215.2953 64.6463,217.1396 63.4788,219.0553 61.5339,219.4719 60.0587,219.7878 58.5835,220.1038 57.1084,220.4198 55.1635,220.8363 53.3144,219.5668 52.9194,217.7225 52.5207,215.8611 53.6876,213.946 55.6325,213.5294" stroke="black" stroke-width="1" /><polyline fill="none" points="44.8569,202.4812 45.0969,204.5192 45.3369,206.5572 45.5769,208.5952 48.2616,208.279 50.9464,207.9629 53.6311,207.6467 52.3461,207.1421 51.537,206.2872 51.3625,204.806 51.1219,202.7625 52.6214,200.9806 54.5109,200.7581 55.8617,200.599 57.2125,200.4399 58.5634,200.2808 60.5384,200.0483 62.1724,201.4612 62.391,203.3177 62.6075,205.1565 61.3445,206.8933 59.3695,207.1259" stroke="black" stroke-width="1" /><polyline fill="none" points="44.0401,188.533 48.6335,188.4253 53.2269,188.3176 57.8203,188.2099 59.8088,188.1632 61.3894,189.7549 61.4341,191.658 61.4783,193.5436 59.974,195.208 57.9855,195.2546 56.4773,195.29 54.9691,195.3253 53.4609,195.3607 51.4724,195.4073 49.8925,193.8153 49.8483,191.9297 49.8036,190.0266 51.3073,188.3626 53.2957,188.316" stroke="black" stroke-width="1" /><polyline fill="none" points="47.7766,180.8288 44.5938,177.9393 61.6953,179.1441" stroke="black" stroke-width="1" /><polyline fill="none" points="54.585,169.8496 52.6227,169.5247 51.3669,167.6663 51.6779,165.7882 51.9888,163.9108 53.774,162.5727 55.7363,162.8976 57.2246,163.1441 58.713,163.3906 60.2013,163.6371 62.1633,163.962 63.4224,165.8043 63.1115,167.6816 62.8005,169.5597 61.0147,170.8974 59.0528,170.5725 59.0519,170.578 59.051,170.5835 59.0501,170.5891 54.5171,169.8384 49.9842,169.0877 45.4512,168.3371" stroke="black" stroke-width="1" /><polyline fill="none" points="56.9199,157.3916 54.9966,156.8843 53.9204,154.9164 54.4059,153.0757 54.8912,151.2357 56.7939,150.0706 58.7171,150.5779 60.1758,150.9627 61.6345,151.3474 63.0933,151.7322 65.0162,152.2394 66.0973,154.1915 65.612,156.0315 65.1265,157.8722 63.2232,159.0368 61.3004,158.5296 61.2989,158.535 61.2975,158.5404 61.2961,158.5458 56.8533,157.374 52.4106,156.2021 47.9678,155.0303" stroke="black" stroke-width="1" /><polyline fill="none" points="70.0453,142.2151 66.0053,140.7327 63.9024,146.464 53.7972,136.7281" stroke="black" stroke-width="1" /><polyline fill="none" points="65.5686,129.7824 66.3579,128.3646 65.7635,126.1306 63.9918,125.2847 63.5794,125.0878 63.1671,124.891 62.7548,124.6941 61.0833,123.896 59.0712,124.6087 58.2658,126.2957 57.4679,127.9668 58.2103,129.9938 59.8505,130.7769 60.2628,130.9738 60.6751,131.1707 61.0875,131.3675 62.7593,132.1657 64.7707,131.4535 65.5686,129.7824 66.4477,127.9411 68.6361,127.2172 70.4149,128.0665 71.0235,128.3571 71.6321,128.6477 72.2407,128.9383 74.0198,129.7877 74.8025,131.9301 73.9233,133.7714 73.0516,135.5973 70.894,136.3347 69.1148,135.4852 68.4961,135.1898 67.8774,134.8944 67.2587,134.599 65.7336,133.8708 64.7096,131.817" stroke="black" stroke-width="1" /><polyline fill="none" points="79.6554,119.3193 80.127,120.3007 80.5108,121.4294 79.4189,123.2542 78.4415,124.8877 76.2812,125.493 74.53,124.4451 73.2503,123.6793 71.9705,122.9136 70.6908,122.1478 68.984,121.1265 68.4969,118.9371 69.4744,117.3036 70.4695,115.6406 72.6465,115.0058 74.3533,116.0271 74.9906,116.4085 75.628,116.7899 76.2654,117.1713 75.0475,119.2066 73.8296,121.2419 72.6117,123.2772" stroke="black" stroke-width="1" /><polyline fill="none" points="79.6682,104.0424 81.258,105.2089 81.6097,107.424 80.4432,109.0138 79.2666,110.6175 77.0384,110.9596 75.4486,109.7932 74.6284,109.1914 73.8082,108.5896 72.988,107.9877 71.3982,106.8213 71.0555,104.5927 72.2222,103.0026 73.3986,101.3993 75.6178,101.0705 77.2076,102.237 79.9537,104.2519 82.6999,106.2668 85.446,108.2818 87.0356,109.448 87.3875,111.6634 86.2211,113.2532 85.217,114.6216 83.4448,115.0657 81.9496,114.4369" stroke="black" stroke-width="1" /><polyline fill="none" points="82.0293,91.2845 81.369,92.027 81.2707,93.0412 82.2187,93.8841 83.1369,94.7005 84.0551,95.5169 84.9732,96.3333 85.3756,95.8807 85.7781,95.4281 86.1805,94.9755 85.4058,95.8468 84.6311,96.7181 83.8564,97.5893 84.2287,97.1706 84.6009,96.752 84.9732,96.3333 87.7961,98.8432 90.619,101.3532 93.4419,103.8632" stroke="black" stroke-width="1" /><polyline fill="none" points="92.2524,80.9583 90.7512,82.3574 89.25,83.7566 87.7489,85.1557 89.592,87.1332 91.4351,89.1108 93.2783,91.0884 92.9249,89.7538 93.1355,88.5957 94.2266,87.5788 95.7318,86.176 98.0555,86.3307 99.3527,87.7225 100.28,88.7175 101.2074,89.7125 102.1348,90.7075 103.4906,92.1623 103.3181,94.3156 101.9506,95.5901 100.5962,96.8525 98.4486,96.8616 97.0928,95.4068" stroke="black" stroke-width="1" /><polyline fill="none" points="103.0149,72.0484 105.8191,75.6881 108.6233,79.3279 111.4275,82.9676 112.6414,84.5432 112.2932,86.7592 110.7852,87.921 109.291,89.0721 107.0593,88.8439 105.8454,87.2683 104.9246,86.0732 104.0039,84.8781 103.0832,83.683 101.8693,82.1074 102.2182,79.8918 103.7123,78.7407 105.2203,77.5788 107.4514,77.8068 108.6653,79.3824" stroke="black" stroke-width="1" /><polyline fill="none" points="121.7399,76.1565 122.8008,77.8385 122.2607,80.0037 120.6508,81.019 119.0409,82.0343 116.8401,81.5977 115.7793,79.9157 114.9745,78.6396 114.1698,77.3636 113.365,76.0876 112.3039,74.4052 112.8586,72.2317 114.4685,71.2164 116.0783,70.2011 118.2646,70.646 119.3256,72.3283" stroke="black" stroke-width="1" /><polyline fill="none" points="121.7668,64.514 120.8757,62.755 121.5778,60.6121 123.3368,59.721 125.1115,58.8221 127.3003,59.5389 128.1914,61.2979 128.5405,61.9871 128.6351,62.5145 128.6072,62.9526 128.3283,67.3857 128.0494,71.8188 127.7705,76.2519 127.835,76.3791 127.8994,76.5063 127.9639,76.6336 130.0748,75.5642 132.1856,74.4949 134.2965,73.4256" stroke="black" stroke-width="1" /><polyline fill="none" points="144.3796,69.2222 142.8029,65.2181 137.1225,67.4548 137.6837,53.4338" stroke="black" stroke-width="1" /><polyline fill="none" points="147.6313,59.6171 147.0791,57.7063 148.2151,55.7723 150.0439,55.2437 151.872,54.7154 153.8487,55.7498 154.4009,57.6606 154.8198,59.1099 155.2386,60.5592 155.6575,62.0086 156.2096,63.919 155.0896,65.8491 153.2615,66.3774 151.4327,66.906 149.4561,65.8708 148.904,63.9603 148.8986,63.9619 148.8932,63.9634 148.8879,63.965 147.6122,59.5509 146.3365,55.1369 145.0609,50.7229" stroke="black" stroke-width="1" /><polyline fill="none" points="160.0938,57.9127 159.7262,55.9755 160.9955,54.111 162.932,53.7435 164.8869,53.3725 166.7338,54.6455 167.1015,56.5828 167.2911,57.582 167.4808,58.5812 167.6704,59.5804 168.0381,61.5177 166.7858,63.3782 164.831,63.7492 162.8944,64.1167 161.0304,62.8477 160.6628,60.9104 160.0276,57.5641 159.3926,54.2177 158.7575,50.8714 158.3899,48.9345 159.6592,47.0704 161.5958,46.7029 163.2643,46.3862 164.8624,47.2695 165.5274,48.7486" stroke="black" stroke-width="1" /><polyline fill="none" points="232.4302,222.5416 156.5688,130.1462 140.8637,108.5745 140.8637,108.5745 189.0084,152.2515 239.8942,231.6324 158.7145,203.9175 268.4255,140.8637 268.4255,140.8637 188.1635,280.8196" stroke="black" stroke-width="1" /><polyline fill="none" points="203.4689,289.5969 172.8581,272.0422" stroke="black" stroke-width="1" /><polyline fill="none" points="251.6566,231.6324 251.5118,229.7924 251.0809,227.9976 250.3746,226.2924 249.4102,224.7187 248.2115,223.3152 246.808,222.1164 245.2343,221.152 243.529,220.4457 241.7343,220.0148 239.8942,219.87 238.0542,220.0148 236.2594,220.4457 234.5542,221.152 232.9805,222.1164 231.577,223.3152 230.3783,224.7187 229.4139,226.2924 228.7075,227.9977 228.2766,229.7924 228.1318,231.6324 228.2766,233.4725 228.7075,235.2672 229.4139,236.9724 230.3783,238.5462 231.577,239.9497 232.9805,241.1484 234.5542,242.1128 236.2594,242.8191 238.0542,243.25 239.8942,243.3948 241.7343,243.25 243.529,242.8191 245.2343,242.1128 246.808,241.1484 248.2115,239.9497 249.4102,238.5462 250.3746,236.9724 251.0809,235.2672 251.5118,233.4725 251.6566,231.6324" stroke="black" stroke-width="1" /><polyline fill="none" points="188.5,69.0664 199.6839,69.5912 210.7696,71.161 221.6595,73.7619 232.2581,77.3712 242.4721,81.9571 252.2118,87.4792 261.3915,93.8892 269.9308,101.1306 277.7544,109.1398 284.7936,117.8464 290.9866,127.1739 296.2789,137.0404 300.6241,147.3591 303.9839,158.0393 306.3289,168.9873 307.6383,180.1067 307.9008,191.2998 307.114,202.4684 305.2847,213.5142 302.4292,224.3402 298.5725,234.8512 293.7484,244.9549 287.9994,254.5625 281.376,263.5894 273.9365,271.9565 265.7461,279.5902 256.8768,286.4234 247.4067,292.3961 237.4188,297.4556 227.0011,301.5577 216.2451,304.6663 205.2452,306.7539 194.0981,307.8023 182.9019,307.8023 171.7548,306.7539 160.7549,304.6663 149.9989,301.5577 139.5811,297.4556 129.5933,292.3961 120.1232,286.4234 111.2539,279.5902 103.0635,271.9565 95.6239,263.5894 89.0006,254.5625 83.2516,244.9549 78.4275,234.8512 74.5708,224.3402 71.7153,213.5142 69.8861,202.4684 69.0992,191.2998 69.3617,180.1067 70.6712,168.9872 73.0161,158.0393 76.3759,147.3591 80.7211,137.0404 86.0134,127.174 92.2064,117.8464 99.2457,109.1398 107.0692,101.1306 115.6085,93.8892 124.7882,87.4792 134.5279,81.957 144.7419,77.3712 155.3405,73.7619 166.2304,71.161 177.3161,69.5912 188.5,69.0664" stroke="black" stroke-width="1" />

    </g>
  </g>
  <WCB
     pausedposy="0"
     pausedposx="0"
     lastknownposy="0"
     lastknownposx="0"
     lastpathnc="0"
     lastpath="0"
     node="0"
     layer="0" />
</svg>
