<?xml version="1.0" encoding="UTF-8" standalone="no"?>
<!-- Created with Inkscape (http://www.inkscape.org/) -->

<svg
   xmlns:dc="http://purl.org/dc/elements/1.1/"
   xmlns:cc="http://creativecommons.org/ns#"
   xmlns:rdf="http://www.w3.org/1999/02/22-rdf-syntax-ns#"
   xmlns:svg="http://www.w3.org/2000/svg"
   xmlns="http://www.w3.org/2000/svg"
   xmlns:sodipodi="http://sodipodi.sourceforge.net/DTD/sodipodi-0.dtd"
   xmlns:inkscape="http://www.inkscape.org/namespaces/inkscape"
   width="100mm"
   height="100mm"
   viewBox="0 0 100 100"
   version="1.1"
   id="svg19124"
   inkscape:version="0.92.3 (2405546, 2018-03-11)"
   sodipodi:docname="inkscape_template_TMP.svg"
   shape-rendering="crispEdges">
  <sodipodi:namedview
     pagecolor="#ffffff"
     bordercolor="#666666"
     borderopacity="1"
     objecttolerance="10"
     gridtolerance="10"
     guidetolerance="10"
     inkscape:pageopacity="0"
     inkscape:pageshadow="2"
     inkscape:window-width="1568"
     inkscape:window-height="1550"
     id="namedview24021"
     showgrid="false"
     inkscape:zoom="0.62441667"
     inkscape:cx="712.66515"
     inkscape:cy="409.98265"
     inkscape:window-x="0"
     inkscape:window-y="0"
     inkscape:window-maximized="0"
     inkscape:current-layer="layer1" />
  <defs
     id="defs19118" />
  <metadata
     id="metadata19121">
    <rdf:RDF>
      <cc:Work
         rdf:about="">
        <dc:format>image/svg+xml</dc:format>
        <dc:type
           rdf:resource="http://purl.org/dc/dcmitype/StillImage" />
        <dc:title />
      </cc:Work>
    </rdf:RDF>
  </metadata>
  <g
     transform="translate(0,-197)"
     id="layer1"
     inkscape:groupmode="layer"
     inkscape:label="Layer 1">
    <g
       id="g24447"
       transform="matrix(0.26458333,0,0,0.26458333,0.10666333,197.9735)">

<polyline fill="none" points="192.1004,47.7394 189.7225,51.1455 187.3447,54.5516 184.9669,57.9577 184.9669,54.5516 184.9669,51.1455 184.9669,47.7394 184.9669,45.7676 186.5623,44.1729 188.5334,44.1729 190.5231,44.1729 192.1004,45.7676 192.1004,47.7394 192.1004,51.1455 192.1004,54.5516 192.1004,57.9577 192.1004,59.9295 190.5231,61.5235 188.5509,61.5235 186.5623,61.5235 184.9669,59.9295 184.9669,57.9577" stroke="black" stroke-width="1" /><polyline fill="none" points="197.8298,61.5877 200.7471,57.7851 198.696,53.7706 202.935,62.0679 200.7471,57.7851 203.4811,54.2207" stroke="black" stroke-width="1" /><polyline fill="none" points="209.9136,56.5856 210.2812,54.6483 212.1454,53.3786 214.082,53.7461 216.0368,54.1172 217.2889,55.9783 216.9212,57.9156 216.7316,58.9148 216.542,59.914 216.3523,60.9133 215.9846,62.8505 214.1378,64.1228 212.183,63.7518 210.2464,63.3843 208.977,61.5206 209.3447,59.5833 209.9798,56.237 210.6149,52.8906 211.2499,49.5443 211.6176,47.6073 213.4816,46.338 215.4182,46.7055 217.0867,47.0222 218.2501,48.4295 218.3269,50.0495" stroke="black" stroke-width="1" /><polyline fill="none" points="227.6329,65.6109 226.8042,66.3172 225.8107,66.9762 223.7678,66.3858 221.939,65.8573 220.8028,63.9228 221.3694,61.9623 221.7834,60.5296 222.1975,59.0968 222.6116,57.6641 223.1638,55.7533 225.1566,54.7239 226.9854,55.2524 228.8471,55.7905 230.0161,57.7336 229.4639,59.6445 229.2577,60.358 229.0515,61.0716 228.8452,61.7851 226.5666,61.1266 224.288,60.4681 222.0094,59.8096" stroke="black" stroke-width="1" /><polyline fill="none" points="244.0779,55.3087 242.1685,54.5568 240.2591,53.805 238.3497,53.0531 237.3592,55.5685 236.3688,58.0838 235.3783,60.5992 236.4305,59.7053 237.5662,59.3963 238.954,59.9428 240.8685,60.6966 241.73,62.8603 241.033,64.6306 240.5346,65.8962 240.0363,67.1618 239.5379,68.4273 238.8093,70.2777 236.7919,71.0498 235.0525,70.3649 233.3297,69.6865 232.3962,67.7525 233.1248,65.9021" stroke="black" stroke-width="1" /><polyline fill="none" points="249.3586,60.2315 250.4279,58.1207 256.7765,61.3367 244.5776,74.3751" stroke="black" stroke-width="1" /><polyline fill="none" points="263.6445,75.4038 263.6474,75.3991 263.6503,75.3945 263.6533,75.3899 262.4095,77.3619 261.1658,79.334 259.922,81.3061 259.3472,82.2175 259.7661,82.9706 260.2434,83.2717 259.6341,82.8874 259.4547,82.0471 259.8491,81.4218 259.8734,81.3832 259.8977,81.3446 259.922,81.3061 258.4721,81.5469 257.0043,81.4319 255.743,80.6365 254.6987,79.9778 253.3313,78.3853 254.6756,76.2538 255.38,75.1369 256.4511,74.8197 257.5878,75.0105 258.1416,75.0959 259.6943,75.6896 260.7409,76.0862 261.8113,76.478 262.9401,76.5206 263.6445,75.4038 264.3578,74.2727 264.0712,72.1876 262.3312,71.0902 260.692,70.0564 259.4352,70.3781 258.49,70.8156" stroke="black" stroke-width="1" /><polyline fill="none" points="279.2982,76.1418 276.494,79.7815 273.6898,83.4212 270.8856,87.061 269.6717,88.6366 267.4402,88.8651 265.9322,87.7033 264.438,86.5521 264.0896,84.3359 265.3035,82.7603 266.2242,81.5652 267.145,80.3702 268.0657,79.1751 269.2796,77.5995 271.5109,77.3718 273.0051,78.5229 274.5131,79.6847 274.8617,81.9001 273.6478,83.4758" stroke="black" stroke-width="1" /><polyline fill="none" points="285.1065,90.2928 283.7621,91.7353 281.521,91.8255 280.0785,90.4811 278.6235,89.125 278.5442,86.8721 279.8886,85.4297 280.5822,84.6855 281.2758,83.9413 281.9695,83.1971 283.3139,81.7546 285.5672,81.6749 287.0099,83.0195 288.4647,84.3754 288.5317,86.6178 287.1873,88.0603 284.865,90.5519 282.5427,93.0436 280.2204,95.5352 278.8762,96.9774 276.6349,97.0679 275.1924,95.7235 273.9509,94.5663 273.717,92.7543 274.5165,91.3429" stroke="black" stroke-width="1" /><polyline fill="none" points="290.324,97.9917 291.3244,99.2694 293.614,99.5885 295.0811,98.284 295.4226,97.9803 295.7641,97.6767 296.1055,97.3731 297.4897,96.1424 297.6137,94.0115 296.3716,92.6145 295.1411,91.2306 292.9849,91.1281 291.6266,92.3358 291.2851,92.6394 290.9437,92.943 290.6022,93.2466 289.2178,94.4776 289.0935,96.6077 290.324,97.9917 291.6798,99.5165 291.4977,101.8143 290.0246,103.124 289.5206,103.5722 289.0166,104.0203 288.5126,104.4684 287.0393,105.7785 284.7611,105.6683 283.4053,104.1435 282.0609,102.6314 282.2186,100.3568 283.6919,99.0468 284.2043,98.5912 284.7167,98.1356 285.2291,97.68 286.4921,96.557 288.7823,96.4104" stroke="black" stroke-width="1" /><polyline fill="none" points="300.7547,101.5777 302.6624,100.178 306.8724,105.9158 290.0981,112.0343" stroke="black" stroke-width="1" /><polyline fill="none" points="307.7316,113.2227 309.2618,112.3071 311.3813,112.7769 312.3764,114.4398 313.371,116.1018 312.8654,118.1637 311.1295,119.2024 310.855,119.3667 310.5805,119.5309 310.306,119.6952 307.6577,121.2799 305.8345,119.2338 305.6581,118.939 305.4879,118.6547 305.3178,118.3704 305.1477,118.0861 305.3178,118.3704 305.4879,118.6547 305.6581,118.939 306.1778,119.8076 306.257,122.2778 304.1978,123.51 303.5945,123.871 302.9911,124.2321 302.3878,124.5931 300.6816,125.6141 298.5001,125.0406 297.4788,123.3339 296.4487,121.6124 296.9838,119.4343 298.6899,118.4133" stroke="black" stroke-width="1" /><polyline fill="none" points="317.076,131.1004 312.9778,130.4222 308.8796,129.7439 304.7813,129.0657 307.855,127.5981 310.9287,126.1306 314.0024,124.663 315.7819,123.8134 317.9084,124.5661 318.7577,126.3449 319.6149,128.1404 318.8554,130.2508 317.076,131.1004 314.0023,132.5679 310.9286,134.0355 307.8549,135.5031 306.0755,136.3527 303.9575,135.6161 303.1077,133.8364 302.2509,132.0418 303.0019,129.9153 304.7813,129.0657" stroke="black" stroke-width="1" /><polyline fill="none" points="320.0197,137.8593 324.1068,139.1917 308.0122,145.0971" stroke="black" stroke-width="1" /><polyline fill="none" points="315.6996,158.5293 313.7767,159.0365 311.8734,157.8715 311.388,156.0312 310.9026,154.1909 311.9794,152.2225 313.9023,151.7153 315.361,151.3305 316.8198,150.9458 318.2785,150.561 320.2017,150.0537 322.1086,151.2351 322.5941,153.0754 323.0795,154.9158 321.999,156.8677 320.0758,157.375" stroke="black" stroke-width="1" /><polyline fill="none" points="331.33,167.8014 330.9947,165.7768 330.6594,163.7523 330.3242,161.7278 327.6572,162.1694 324.9902,162.6111 322.3232,163.0528 323.6304,163.4966 324.4788,164.3126 324.7224,165.784 325.0586,167.8139 323.6443,169.6642 321.7673,169.9751 320.4254,170.1973 319.0836,170.4195 317.7416,170.6417 315.7797,170.9666 314.0813,169.6318 313.7759,167.7876 313.4734,165.961 314.6537,164.1668 316.6156,163.8419" stroke="black" stroke-width="1" /><polyline fill="none" points="332.4413,180.2677 332.3715,179.2765 331.7148,178.4975 330.4493,178.5867 329.2237,178.673 327.9981,178.7594 326.7726,178.8457 326.8151,179.4498 326.8577,180.0539 326.9002,180.6581 326.8183,179.4951 326.7364,178.3321 326.6544,177.1691 326.6938,177.728 326.7332,178.2868 326.7726,178.8457 323.0045,179.1112 319.2365,179.3766 315.4684,179.6421" stroke="black" stroke-width="1" /><polyline fill="none" points="329.3041,188.2994 331.2754,188.3456 332.8319,189.9773 332.7857,191.9486 332.7391,193.9374 331.0727,195.5274 329.1014,195.4812 328.3291,195.4631 327.8196,195.2971 327.4467,195.0655 323.672,192.7242 319.8972,190.383 316.1225,188.0418 315.9799,188.0384 315.8373,188.0351 315.6947,188.0317 315.6393,190.3974 315.5838,192.763 315.5283,195.1286" stroke="black" stroke-width="1" /><polyline fill="none" points="323.7973,204.4543 323.5071,206.0509 324.79,207.9739 326.7398,208.2036 327.1936,208.257 327.6474,208.3104 328.1012,208.3639 329.9406,208.5805 331.6155,207.2573 331.8342,205.4007 332.0508,203.5616 330.6946,201.8821 328.8895,201.6695 328.4357,201.6161 327.9819,201.5627 327.5281,201.5092 325.6883,201.2926 324.0139,202.6151 323.7973,204.4543 323.5587,206.4807 321.7205,207.8714 319.7628,207.6409 319.093,207.562 318.4232,207.4831 317.7534,207.4042 315.7955,207.1736 314.364,205.3979 314.6026,203.3715 314.8393,201.3621 316.644,199.9685 318.6019,200.1991 319.2829,200.2793 319.9638,200.3595 320.6447,200.4397 322.3232,200.6373 323.9546,202.2514" stroke="black" stroke-width="1" /><polyline fill="none" points="320.5594,220.0876 320.5647,220.0888 320.5701,220.0899 320.5754,220.0911 318.2957,219.6028 316.0158,219.1144 313.736,218.6261 312.6824,218.4005 312.1196,219.0532 312.0014,219.6049 312.1523,218.9005 312.8794,218.4426 313.6023,218.5975 313.6469,218.607 313.6915,218.6166 313.736,218.6261 313.0105,217.3479 312.6129,215.9303 312.9251,214.4722 313.1837,213.265 314.2077,211.4326 316.6719,211.9604 317.963,212.237 318.6298,213.1333 318.8422,214.2662 318.9529,214.8155 318.9303,216.4777 318.9185,217.5969 318.9195,218.7367 319.2682,219.8111 320.5594,220.0876 321.8669,220.3677 323.7257,219.3804 324.1566,217.3688 324.5624,215.4739 323.8275,214.4048 323.0911,213.6681" stroke="black" stroke-width="1" /><polyline fill="none" points="323.8241,227.4002 325.7051,227.9919 326.7474,229.9915 326.1557,231.8725 325.5587,233.7702 323.5164,234.835 321.6354,234.2433 320.8985,234.0115 320.4551,233.7106 320.1612,233.3845 317.1849,230.0873 314.2086,226.7901 311.2322,223.4929 311.0962,223.4501 310.9601,223.4073 310.8241,223.3645 310.114,225.6217 309.4039,227.8789 308.6938,230.1362" stroke="black" stroke-width="1" /><polyline fill="none" points="313.0038,237.0668 314.8211,237.8321 315.6723,239.9208 314.9073,241.7375 314.1351,243.5712 312.053,244.4058 310.2357,243.6405 309.2983,243.2458 308.361,242.8511 307.4236,242.4564 305.6064,241.6911 304.7491,239.6188 305.5212,237.785 306.2862,235.9684 308.3745,235.1174 310.1918,235.8827 313.3309,237.2046 316.47,238.5264 319.6091,239.8483 321.4261,240.6134 322.2769,242.702 321.5119,244.5187 320.8528,246.0838 319.233,246.9267 317.6329,246.6625" stroke="black" stroke-width="1" /><polyline fill="none" points="310.8405,258.2086 308.963,254.5032 307.0854,250.7978 305.2079,247.0924 308.2094,248.7024 311.2109,250.3124 314.2124,251.9224 315.9501,252.8545 316.6013,255.0142 315.6695,256.7512 314.729,258.5046 312.5782,259.1407 310.8405,258.2086 307.839,256.5986 304.8375,254.9886 301.8359,253.3786 300.0983,252.4465 299.4391,250.3032 300.3714,248.5652 301.3114,246.8128 303.4702,246.1603 305.2079,247.0924" stroke="black" stroke-width="1" /><polyline fill="none" points="307.804,263.6624 309.2897,264.6487 309.7789,266.7639 308.707,268.3784 307.6357,269.9919 305.5572,270.4241 303.8719,269.3051 303.6054,269.1282 303.3389,268.9512 303.0724,268.7743 300.5013,267.0672 301.5621,264.5404 301.7522,264.2542 301.9354,263.9781 302.1187,263.7021 302.3019,263.4261 302.1187,263.7021 301.9354,263.9781 301.7522,264.2542 301.1923,265.0974 298.9973,266.2332 296.998,264.9059 296.4123,264.517 295.8265,264.1281 295.2408,263.7391 293.5843,262.6393 293.1618,260.4236 294.262,258.7666 295.3717,257.0953 297.5678,256.6396 299.2242,257.7394" stroke="black" stroke-width="1" /><polyline fill="none" points="285.7104,270.4996 289.0569,273.2052 292.8951,268.4578 299.3224,280.9315" stroke="black" stroke-width="1" /><polyline fill="none" points="284.4155,287.3821 283.0049,286.0043 282.9673,283.7617 284.3451,282.3511 285.735,280.9283 287.9891,280.9019 289.3996,282.2798 290.1273,282.9906 290.8551,283.7015 291.5828,284.4123 292.9933,285.7902 293.0203,288.0448 291.6422,289.4556 290.2526,290.8782 288.0092,290.8926 286.5986,289.5147 284.1621,287.1347 281.7256,284.7546 279.2891,282.3745 277.8788,280.9969 277.8409,278.7541 279.2187,277.3435 280.4047,276.1295 282.2217,275.9382 283.614,276.7704" stroke="black" stroke-width="1" /><polyline fill="none" points="268.716,287.1874 271.4993,290.4695 276.1554,286.5211 280.144,299.9744" stroke="black" stroke-width="1" /><polyline fill="none" points="264.2958,303.5324 263.1669,301.9157 263.5481,299.7054 265.1648,298.5765 266.7956,297.4378 269.015,297.8322 270.1439,299.4489 270.7263,300.283 271.3087,301.117 271.8912,301.9511 273.0201,303.5678 272.6262,305.7879 271.0091,306.917 269.3787,308.0555 267.1719,307.6514 266.043,306.0347 264.093,303.242 262.143,300.4494 260.193,297.6568 259.0643,296.0403 259.4453,293.8298 261.062,292.7009 262.4535,291.7292 264.2743,291.8801 265.487,292.9574" stroke="black" stroke-width="1" /><polyline fill="none" points="260.9615,309.4635 261.841,311.0148 261.3217,313.1227 259.6359,314.0786 257.951,315.0338 255.9015,314.4801 254.9038,312.7203 254.746,312.442 254.5882,312.1638 254.4305,311.8855 252.9083,309.2008 254.9965,307.426 255.2954,307.2566 255.5836,307.0931 255.8718,306.9297 256.16,306.7663 255.8718,306.9297 255.5836,307.0931 255.2954,307.2566 254.4149,307.7558 251.9435,307.7771 250.7599,305.6896 250.4131,305.0779 250.0663,304.4663 249.7195,303.8546 248.7388,302.125 249.3632,299.9575 251.0935,298.9765 252.8386,297.9871 255.0036,298.573 255.9843,300.3026" stroke="black" stroke-width="1" /><polyline fill="none" points="249.9838,316.4701 250.953,318.6286 244.4606,321.5435 241.9911,303.8598" stroke="black" stroke-width="1" /><polyline fill="none" points="237.7303,321.6652 238.4931,323.905 231.7563,326.1992 230.9536,308.3619" stroke="black" stroke-width="1" /><polyline fill="none" points="223.2827,319.1569 223.7448,321.0915 222.5194,322.9701 220.6679,323.4123 218.817,323.8544 216.8909,322.7285 216.4288,320.7939 216.0784,319.3265 215.7279,317.8592 215.3775,316.3918 214.9155,314.4576 216.1247,312.5821 217.9756,312.14 219.8272,311.6978 221.7531,312.8245 222.215,314.7587 222.2205,314.7574 222.2259,314.7561 222.2314,314.7549 223.2987,319.2238 224.3661,323.6928 225.4335,328.1618" stroke="black" stroke-width="1" /><polyline fill="none" points="204.1319,325.3689 203.8554,323.4166 205.1942,321.6171 207.1466,321.3406 209.116,321.0618 210.9177,322.4165 211.1942,324.3689 211.3368,325.3761 211.4794,326.3834 211.622,327.3906 211.8985,329.343 210.5438,331.1454 208.5911,331.4219 206.6221,331.7008 204.8362,330.3431 204.5597,328.3907 204.0822,325.0182 203.6046,321.6458 203.1271,318.2734 202.8507,316.3214 204.1895,314.5215 206.1418,314.2451 207.8223,314.0071 209.3784,314.9645 209.9733,316.4736" stroke="black" stroke-width="1" /><polyline fill="none" points="191.2466,326.2313 191.1541,324.2616 192.6556,322.5955 194.6253,322.503 196.6121,322.4098 198.279,323.9273 198.3715,325.897 198.4191,326.9132 198.4668,327.9294 198.5145,328.9456 198.6069,330.9152 197.0895,332.5829 195.1194,332.6754 193.1329,332.7686 191.482,331.2496 191.3896,329.2798 191.2299,325.8776 191.0703,322.4752 190.9107,319.0729 190.8183,317.1035 192.3197,315.437 194.2894,315.3446 195.9847,315.265 197.4443,316.3639 197.8954,317.9221" stroke="black" stroke-width="1" /><polyline fill="none" points="185.793,322.1137 185.7006,324.0834 184.0329,325.6019 182.0639,325.5095 180.0763,325.4163 178.5757,323.7491 178.6681,321.7794 178.7157,320.7634 178.7634,319.7475 178.8111,318.7315 178.9035,316.7618 180.5537,315.2432 182.5412,315.3365 184.5102,315.4288 186.0284,317.0962 185.936,319.0659 185.7764,322.4682 185.6167,325.8705 185.457,329.2728 185.3646,331.2422 183.6969,332.7604 181.728,332.668 180.0316,332.5884 178.6823,331.358 178.3792,329.7649" stroke="black" stroke-width="1" /><polyline fill="none" points="164.9311,331.0243 165.5753,326.475 166.2195,321.9257 166.8637,317.3764 167.1425,315.407 168.9711,314.1077 170.8559,314.3746 172.7234,314.639 174.1196,316.3951 173.8408,318.3644 173.6292,319.8581 173.4177,321.3518 173.2062,322.8456 172.9273,324.8149 171.0986,326.1135 169.2311,325.8491 167.3462,325.5822 165.9503,323.8269 166.2291,321.8576" stroke="black" stroke-width="1" /><polyline fill="none" points="153.1583,328.2778 154.1247,328.5087 155.0649,328.1159 155.3596,326.882 155.6451,325.687 155.9305,324.492 156.2159,323.297 155.6268,323.1563 155.0378,323.0156 154.4487,322.875 155.5827,323.1458 156.7167,323.4166 157.8507,323.6875 157.3057,323.5573 156.7608,323.4272 156.2159,323.297 157.0934,319.623 157.9709,315.9489 158.8484,312.2748" stroke="black" stroke-width="1" /><polyline fill="none" points="146.4382,322.875 145.8025,324.7416 143.779,325.7368 141.9124,325.1011 140.0293,324.4598 139.0126,322.3931 139.6482,320.5265 139.8973,319.7952 140.2084,319.359 140.5413,319.0728 143.9074,316.1746 147.2735,313.2764 150.6396,310.3782 150.6855,310.2432 150.7315,310.1082 150.7775,309.9732 148.5375,309.2104 146.2976,308.4476 144.0576,307.6848" stroke="black" stroke-width="1" /><polyline fill="none" points="132.524,304.6887 133.4435,304.1055 134.5196,303.5923 136.4595,304.4633 138.1962,305.243 139.05,307.3176 138.2141,309.1794 137.6032,310.5399 136.9924,311.9004 136.3815,313.2609 135.5669,315.0754 133.4494,315.8153 131.7128,315.0356 129.9449,314.2418 129.0599,312.1539 129.8745,310.3394 130.1788,309.6618 130.483,308.9842 130.7872,308.3066 132.951,309.2781 135.1148,310.2496 137.2786,311.2211" stroke="black" stroke-width="1" /><polyline fill="none" points="114.3519,312.4788 116.618,308.4818 118.8842,304.4849 121.1504,300.4879 122.1314,298.7577 124.3088,298.2186 125.9648,299.1575 127.6056,300.0878 128.2614,302.2332 127.2803,303.9634 126.5363,305.2758 125.7922,306.5882 125.0481,307.9005 124.0671,309.6308 121.8897,310.1691 120.2489,309.2388 118.593,308.2999 117.9372,306.1552 118.9182,304.425" stroke="black" stroke-width="1" /><polyline fill="none" points="103.0681,304.9907 105.6986,301.2235 108.3291,297.4563 110.9596,293.6891 112.0984,292.0583 114.3167,291.7255 115.8775,292.8154 117.4239,293.8952 117.8759,296.0926 116.7372,297.7234 115.8735,298.9603 115.0098,300.1972 114.1461,301.4342 113.0074,303.0649 110.7891,303.397 109.2427,302.3171 107.6819,301.2273 107.2298,299.0306 108.3685,297.3999" stroke="black" stroke-width="1" /><polyline fill="none" points="100.1306,298.1207 98.8553,299.6246 96.6079,299.8091 95.104,298.5338 93.5867,297.2472 93.3979,294.9517 94.6733,293.4478 95.1729,292.8586 95.6223,292.5667 96.0369,292.4224 100.2307,290.959 104.4246,289.4955 108.6184,288.0322 108.7107,287.9234 108.8029,287.8146 108.8952,287.7058 107.0905,286.1754 105.2857,284.645 103.481,283.1145" stroke="black" stroke-width="1" /><polyline fill="none" points="89.1384,281.0458 89.1344,281.0496 89.1305,281.0534 89.1266,281.0573 90.7944,279.4281 92.4623,277.7989 94.1301,276.1697 94.9009,275.4167 94.6685,274.5869 94.2741,274.1832 94.7775,274.6985 94.7568,275.5575 94.228,276.0741 94.1954,276.106 94.1627,276.1378 94.1301,276.1697 95.5963,276.2723 96.9973,276.7251 98.0392,277.7918 98.902,278.675 99.8621,280.5416 98.0594,282.3026 97.1148,283.2252 95.9993,283.2849 94.938,282.8353 94.4192,282.6236 93.0469,281.6854 92.121,281.0565 91.1709,280.4268 90.0829,280.1231 89.1384,281.0458 88.1818,281.9802 87.9762,284.0748 89.4137,285.5464 90.7678,286.9327 92.065,286.9118 93.086,286.7058" stroke="black" stroke-width="1" /><polyline fill="none" points="86.0599,266.8527 87.1437,266.748 88.3355,266.7764 89.6725,268.4301 90.8693,269.9104 90.6935,272.147 89.1065,273.43 87.9467,274.3677 86.787,275.3053 85.6272,276.243 84.0805,277.4935 81.8573,277.1966 80.6605,275.7162 79.4421,274.2092 79.5961,271.9468 81.1428,270.6963 81.7204,270.2292 82.298,269.7623 82.8756,269.2953 84.3668,271.1397 85.8581,272.9842 87.3493,274.8287" stroke="black" stroke-width="1" /><polyline fill="none" points="69.2417,263.3596 73.3946,263.4566 77.5474,263.5535 81.7002,263.6505 78.8626,265.5345 76.0251,267.4185 73.1875,269.3025 71.5447,270.3932 69.3337,269.9461 68.2434,268.304 67.1429,266.6464 67.599,264.4503 69.2417,263.3596 72.0793,261.4756 74.9169,259.5916 77.7545,257.7076 79.3972,256.6169 81.5975,257.0492 82.6884,258.6923 83.7884,260.349 83.3429,262.5598 81.7002,263.6505" stroke="black" stroke-width="1" /><polyline fill="none" points="59.9675,254.1369 60.9374,255.9453 61.9075,257.7537 62.8775,259.5621 65.2597,258.2842 67.6419,257.0064 70.0242,255.7286 68.6436,255.7299 67.5775,255.2309 66.8725,253.9166 65.8999,252.1034 66.6423,249.896 68.3189,248.9966 69.5175,248.3537 70.7161,247.7108 71.9147,247.0678 73.6672,246.1278 75.7052,246.8438 76.5889,248.4912 77.464,250.1228 76.9251,252.2016 75.1727,253.1416" stroke="black" stroke-width="1" /><polyline fill="none" points="60.1308,246.3549 58.3135,247.1202 56.2253,246.2693 55.46,244.452 54.688,242.6185 55.5569,240.4855 57.3742,239.7202 58.0862,239.4204 58.6189,239.3631 59.054,239.4217 63.4565,240.0115 67.859,240.6012 72.2616,241.1909 72.393,241.1356 72.5244,241.0802 72.6559,241.0249 71.7376,238.8441 70.8192,236.6633 69.9009,234.4825" stroke="black" stroke-width="1" /><polyline fill="none" points="49.9829,229.0197 50.5987,230.9772 51.2145,232.9347 51.8303,234.8922 54.4091,234.081 56.9878,233.2698 59.5665,232.4586 58.2099,232.2024 57.2556,231.5134 56.808,230.0907 56.1906,228.1279 57.3315,226.0976 59.1463,225.5267 60.4438,225.1185 61.7413,224.7104 63.0388,224.3022 64.9358,223.7055 66.8046,224.7889 67.3655,226.5721 67.9212,228.3383 67.0041,230.2802 65.1071,230.877" stroke="black" stroke-width="1" /><polyline fill="none" points="55.2824,217.0124 55.0424,215.4075 53.2081,214.0007 51.2883,214.4119 50.8415,214.5076 50.3947,214.6033 49.9479,214.699 48.1368,215.0869 46.9779,216.8794 47.3694,218.7073 47.7573,220.5181 49.5824,221.6707 51.3597,221.2901 51.8065,221.1944 52.2533,221.0987 52.7001,221.003 54.5115,220.615 55.6702,218.8232 55.2824,217.0124 54.855,215.0173 56.1468,213.1082 58.0742,212.6954 58.7337,212.5542 59.3931,212.4129 60.0526,212.2717 61.9804,211.8587 63.9079,213.0782 64.3352,215.0734 64.759,217.0518 63.4999,218.9527 61.5721,219.3656 60.9017,219.5092 60.2312,219.6528 59.5608,219.7964 57.9083,220.1504 55.8436,219.1484" stroke="black" stroke-width="1" /><polyline fill="none" points="53.1978,204.4125 53.1091,202.7922 51.4146,201.2197 49.4648,201.4493 49.011,201.5028 48.5572,201.5562 48.1034,201.6097 46.2639,201.8263 44.9423,203.5024 45.1609,205.3589 45.3775,207.1981 47.0867,208.5166 48.8918,208.304 49.3456,208.2506 49.7993,208.1971 50.2531,208.1437 52.093,207.927 53.4144,206.2516 53.1978,204.4125 52.9592,202.3861 54.424,200.6064 56.3816,200.3759 57.0514,200.297 57.7212,200.2181 58.391,200.1392 60.349,199.9087 62.1538,201.3033 62.3924,203.3297 62.6291,205.3391 61.1975,207.1138 59.2395,207.3443 58.5586,207.4245 57.8777,207.5047 57.1968,207.5849 55.5183,207.7826 53.5565,206.5916" stroke="black" stroke-width="1" /><polyline fill="none" points="55.0264,195.1895 53.0551,195.2357 51.4231,193.6789 51.3769,191.7083 51.3303,189.7191 52.8879,188.1049 54.8592,188.0587 55.876,188.0349 56.8928,188.011 57.9096,187.9872 59.8809,187.941 61.5118,189.4804 61.5584,191.4695 61.6046,193.4401 60.0481,195.0718 58.0768,195.118 54.6716,195.1978 51.2665,195.2777 47.8614,195.3575 45.8904,195.4037 44.2588,193.8469 44.2126,191.8763 44.1727,190.1785 45.3052,188.7461 46.8732,188.3317" stroke="black" stroke-width="1" /><polyline fill="none" points="47.7766,180.8288 44.5938,177.9393 61.6953,179.1441" stroke="black" stroke-width="1" /><polyline fill="none" points="46.6224,162.0504 46.2872,164.0749 45.9519,166.0994 45.6167,168.1239 48.2836,168.5656 50.9506,169.0073 53.6176,169.4489 52.5232,168.6074 51.9832,167.5615 52.2269,166.0901 52.5631,164.0601 54.4983,162.7646 56.3753,163.0754 57.7172,163.2976 59.0591,163.5198 60.401,163.7421 62.3629,164.067 63.5404,165.878 63.235,167.7222 62.9325,169.5489 61.2368,170.8667 59.2749,170.5418" stroke="black" stroke-width="1" /><polyline fill="none" points="63.0662,151.8347 64.9891,152.3419 66.0702,154.294 65.5848,156.1344 65.0994,157.9747 63.1918,159.1559 61.2689,158.6487 59.8102,158.2639 58.3514,157.8792 56.8927,157.4944 54.9695,156.9871 53.8933,155.0189 54.3787,153.1786 54.8641,151.3382 56.7668,150.1731 58.69,150.6804" stroke="black" stroke-width="1" /><polyline fill="none" points="67.0508,140.25 68.9177,140.9351 69.8113,142.9799 69.1557,144.7666 68.5,146.5535 66.4902,147.5508 64.6233,146.8658 63.207,146.3461 61.7907,145.8264 60.3744,145.3068 58.5071,144.6216 57.62,142.5613 58.2756,140.7745 58.9312,138.9877 60.9346,138.0059 62.8019,138.691" stroke="black" stroke-width="1" /><polyline fill="none" points="59.2242,124.667 58.7961,125.5637 58.9832,126.5653 60.128,127.1119 61.2367,127.6412 62.3455,128.1706 63.4542,128.7 63.7151,128.1535 63.9761,127.6069 64.237,127.0604 63.7347,128.1125 63.2323,129.1646 62.73,130.2167 62.9714,129.7112 63.2128,129.2056 63.4542,128.7 66.863,130.3275 70.2718,131.9551 73.6805,133.5826" stroke="black" stroke-width="1" /><polyline fill="none" points="66.4318,118.0638 64.8983,114.0479 79.6095,122.8508" stroke="black" stroke-width="1" /><polyline fill="none" points="73.3937,101.6817 72.8059,102.4828 72.8029,103.5018 73.8258,104.2522 74.8163,104.979 75.8069,105.7059 76.7975,106.4327 77.1557,105.9444 77.514,105.4561 77.8723,104.9678 77.1826,105.9078 76.4929,106.8478 75.8032,107.7878 76.1346,107.3361 76.466,106.8844 76.7975,106.4327 79.843,108.6673 82.8885,110.9019 85.9341,113.1365" stroke="black" stroke-width="1" /><polyline fill="none" points="82.8005,90.0302 86.2342,93.0832 89.6679,96.1363 93.1016,99.1893 94.588,100.5109 94.6591,102.753 93.3941,104.1756 92.1409,105.5851 89.9056,105.777 88.4192,104.4554 87.2918,103.4529 86.1644,102.4505 85.037,101.4481 83.5506,100.1264 83.4803,97.8846 84.7335,96.4751 85.9985,95.0524 88.2329,94.8604 89.7193,96.182" stroke="black" stroke-width="1" /><polyline fill="none" points="95.1621,83.0745 95.7449,87.1874 96.3278,91.3002 96.9106,95.4131 94.5883,92.9214 92.266,90.4298 89.9437,87.9381 88.5993,86.4957 88.6791,84.2413 90.1211,82.8974 91.5766,81.5408 93.8177,81.632 95.1621,83.0745 97.4844,85.5661 99.8067,88.0578 102.129,90.5494 103.4734,91.9919 103.4064,94.2333 101.9637,95.578 100.5089,96.9339 98.255,96.8556 96.9106,95.4131" stroke="black" stroke-width="1" /><polyline fill="none" points="103.253,83.5524 102.039,81.9767 102.3875,79.761 103.8955,78.5992 105.4029,77.4379 107.6212,77.6761 108.8351,79.2517 109.7558,80.4468 110.6765,81.6418 111.5973,82.8369 112.8109,84.4123 112.476,86.6185 110.9686,87.7799 109.4606,88.9417 107.2421,88.7027 106.0284,87.1273 106.024,87.1308 106.0196,87.1342 106.0151,87.1376 103.211,83.4978 100.4068,79.8581 97.6026,76.2184" stroke="black" stroke-width="1" /><polyline fill="none" points="110.4498,71.3079 109.3979,69.64 109.8962,67.4408 111.5641,66.3889 113.2467,65.3277 115.4931,65.8364 116.545,67.5043 116.9571,68.1577 117.1006,68.6739 117.1139,69.1127 117.2514,73.5525 117.3888,77.9922 117.5263,82.4319 117.6023,82.5525 117.6784,82.6732 117.7545,82.7938 119.756,81.5315 121.7575,80.2692 123.7589,79.007" stroke="black" stroke-width="1" /><polyline fill="none" points="128.102,61.3049 127.5201,65.4179 126.9381,69.5309 126.3561,73.6439 124.8169,70.6054 123.2777,67.567 121.7385,64.5285 120.8474,62.7695 121.55,60.626 123.3084,59.7352 125.0833,58.8361 127.2109,59.5459 128.102,61.3049 129.6412,64.3434 131.1804,67.3818 132.7196,70.4203 133.6107,72.1793 132.9241,74.314 131.1647,75.2052 129.3907,76.1039 127.2472,75.4029 126.3561,73.6439" stroke="black" stroke-width="1" /><polyline fill="none" points="144.3796,69.2222 142.8029,65.2181 137.1225,67.4548 137.6837,53.4338" stroke="black" stroke-width="1" /><polyline fill="none" points="151.2387,49.0711 149.2673,49.6408 147.2959,50.2106 145.3244,50.7803 146.075,53.3774 146.8255,55.9744 147.5761,58.5714 147.864,57.2212 148.5751,56.2833 150.008,55.8692 151.9846,55.2979 153.9876,56.4861 154.5159,58.3139 154.8935,59.6206 155.2711,60.9273 155.6488,62.2339 156.2009,64.1444 155.0739,65.9873 153.278,66.5063 151.4993,67.0204 149.5795,66.058 149.0274,64.1476" stroke="black" stroke-width="1" /><polyline fill="none" points="164.4588,46.1945 162.4427,46.5772 160.4266,46.9598 158.4104,47.3425 158.9145,49.9984 159.4186,52.6543 159.9226,55.3102 160.3357,53.9928 161.1316,53.1256 162.5969,52.8475 164.6184,52.4639 166.5013,53.8344 166.856,55.7036 167.1096,57.0399 167.3633,58.3762 167.6169,59.7125 167.9877,61.6663 166.6931,63.3956 164.8565,63.7441 163.0375,64.0894 161.2162,62.9514 160.8454,60.9977" stroke="black" stroke-width="1" /><polyline fill="none" points="251.6566,231.6324 239.8942,231.6324 268.1431,236.6952 188.2428,253.3668 96.1804,188.1635 96.1804,188.1635 140.8637,108.5745 268.4255,140.8637 188.2428,253.3668 189.0084,152.2515" stroke="black" stroke-width="1" /><polyline fill="none" points="171.3654,152.1179 206.6515,152.3851" stroke="black" stroke-width="1" /><polyline fill="none" points="251.6566,231.6324 251.5118,229.7924 251.0809,227.9976 250.3746,226.2924 249.4102,224.7187 248.2115,223.3152 246.808,222.1164 245.2343,221.152 243.529,220.4457 241.7343,220.0148 239.8942,219.87 238.0542,220.0148 236.2594,220.4457 234.5542,221.152 232.9805,222.1164 231.577,223.3152 230.3783,224.7187 229.4139,226.2924 228.7075,227.9977 228.2766,229.7924 228.1318,231.6324 228.2766,233.4725 228.7075,235.2672 229.4139,236.9724 230.3783,238.5462 231.577,239.9497 232.9805,241.1484 234.5542,242.1128 236.2594,242.8191 238.0542,243.25 239.8942,243.3948 241.7343,243.25 243.529,242.8191 245.2343,242.1128 246.808,241.1484 248.2115,239.9497 249.4102,238.5462 250.3746,236.9724 251.0809,235.2672 251.5118,233.4725 251.6566,231.6324" stroke="black" stroke-width="1" /><polyline fill="none" points="188.5,69.0664 199.6839,69.5912 210.7696,71.161 221.6595,73.7619 232.2581,77.3712 242.4721,81.9571 252.2118,87.4792 261.3915,93.8892 269.9308,101.1306 277.7544,109.1398 284.7936,117.8464 290.9866,127.1739 296.2789,137.0404 300.6241,147.3591 303.9839,158.0393 306.3289,168.9873 307.6383,180.1067 307.9008,191.2998 307.114,202.4684 305.2847,213.5142 302.4292,224.3402 298.5725,234.8512 293.7484,244.9549 287.9994,254.5625 281.376,263.5894 273.9365,271.9565 265.7461,279.5902 256.8768,286.4234 247.4067,292.3961 237.4188,297.4556 227.0011,301.5577 216.2451,304.6663 205.2452,306.7539 194.0981,307.8023 182.9019,307.8023 171.7548,306.7539 160.7549,304.6663 149.9989,301.5577 139.5811,297.4556 129.5933,292.3961 120.1232,286.4234 111.2539,279.5902 103.0635,271.9565 95.6239,263.5894 89.0006,254.5625 83.2516,244.9549 78.4275,234.8512 74.5708,224.3402 71.7153,213.5142 69.8861,202.4684 69.0992,191.2998 69.3617,180.1067 70.6712,168.9872 73.0161,158.0393 76.3759,147.3591 80.7211,137.0404 86.0134,127.174 92.2064,117.8464 99.2457,109.1398 107.0692,101.1306 115.6085,93.8892 124.7882,87.4792 134.5279,81.957 144.7419,77.3712 155.3405,73.7619 166.2304,71.161 177.3161,69.5912 188.5,69.0664" stroke="black" stroke-width="1" />

    </g>
  </g>
  <WCB
     pausedposy="0"
     pausedposx="0"
     lastknownposy="0"
     lastknownposx="0"
     lastpathnc="0"
     lastpath="0"
     node="0"
     layer="0" />
</svg>
