<?xml version="1.0" encoding="UTF-8" standalone="no"?>
<!-- Created with Inkscape (http://www.inkscape.org/) -->

<svg
   xmlns:dc="http://purl.org/dc/elements/1.1/"
   xmlns:cc="http://creativecommons.org/ns#"
   xmlns:rdf="http://www.w3.org/1999/02/22-rdf-syntax-ns#"
   xmlns:svg="http://www.w3.org/2000/svg"
   xmlns="http://www.w3.org/2000/svg"
   xmlns:sodipodi="http://sodipodi.sourceforge.net/DTD/sodipodi-0.dtd"
   xmlns:inkscape="http://www.inkscape.org/namespaces/inkscape"
   width="100mm"
   height="100mm"
   viewBox="0 0 100 100"
   version="1.1"
   id="svg19124"
   inkscape:version="0.92.3 (2405546, 2018-03-11)"
   sodipodi:docname="inkscape_template_TMP.svg"
   shape-rendering="crispEdges">
  <sodipodi:namedview
     pagecolor="#ffffff"
     bordercolor="#666666"
     borderopacity="1"
     objecttolerance="10"
     gridtolerance="10"
     guidetolerance="10"
     inkscape:pageopacity="0"
     inkscape:pageshadow="2"
     inkscape:window-width="1568"
     inkscape:window-height="1550"
     id="namedview24021"
     showgrid="false"
     inkscape:zoom="0.62441667"
     inkscape:cx="712.66515"
     inkscape:cy="409.98265"
     inkscape:window-x="0"
     inkscape:window-y="0"
     inkscape:window-maximized="0"
     inkscape:current-layer="layer1" />
  <defs
     id="defs19118" />
  <metadata
     id="metadata19121">
    <rdf:RDF>
      <cc:Work
         rdf:about="">
        <dc:format>image/svg+xml</dc:format>
        <dc:type
           rdf:resource="http://purl.org/dc/dcmitype/StillImage" />
        <dc:title />
      </cc:Work>
    </rdf:RDF>
  </metadata>
  <g
     transform="translate(0,-197)"
     id="layer1"
     inkscape:groupmode="layer"
     inkscape:label="Layer 1">
    <g
       id="g24447"
       transform="matrix(0.26458333,0,0,0.26458333,0.10666333,197.9735)">

<polyline fill="none" points="192.1004,47.7394 189.7225,51.1455 187.3447,54.5516 184.9669,57.9577 184.9669,54.5516 184.9669,51.1455 184.9669,47.7394 184.9669,45.7676 186.5623,44.1729 188.5334,44.1729 190.5231,44.1729 192.1004,45.7676 192.1004,47.7394 192.1004,51.1455 192.1004,54.5516 192.1004,57.9577 192.1004,59.9295 190.5231,61.5235 188.5509,61.5235 186.5623,61.5235 184.9669,59.9295 184.9669,57.9577" stroke="black" stroke-width="1" /><polyline fill="none" points="197.8298,61.5877 200.7471,57.7851 198.696,53.7706 202.935,62.0679 200.7471,57.7851 203.4811,54.2207" stroke="black" stroke-width="1" /><polyline fill="none" points="211.3535,48.3775 211.7947,46.0529 218.7866,47.3798 210.6873,63.2925" stroke="black" stroke-width="1" /><polyline fill="none" points="224.397,52.1393 224.8921,50.4261 226.7629,49.3247 228.6247,49.8627 230.4854,50.4005 231.5213,52.2535 230.9597,54.1969 230.8709,54.5042 230.7821,54.8115 230.6933,55.1189 229.8364,58.0837 227.1077,57.8301 226.7776,57.7347 226.4593,57.6427 226.141,57.5507 225.8227,57.4587 226.141,57.5507 226.4593,57.6427 226.7776,57.7347 227.75,58.0157 229.4922,59.7687 228.8259,62.0741 228.6307,62.7496 228.4355,63.4251 228.2403,64.1005 227.6883,66.0107 225.7014,67.0786 223.7906,66.5264 221.8634,65.9694 220.7697,64.0112 221.3217,62.1011" stroke="black" stroke-width="1" /><polyline fill="none" points="243.4219,58.8463 239.9615,61.1443 236.5011,63.4424 233.0407,65.7404 234.2886,62.5712 235.5365,59.4019 236.7844,56.2327 237.5069,54.398 239.5756,53.4987 241.4097,54.2209 243.261,54.9499 244.1443,57.0115 243.4219,58.8463 242.174,62.0155 240.926,65.1848 239.6781,68.354 238.9557,70.1887 236.9041,71.094 235.069,70.3714 233.2187,69.6428 232.3182,67.5752 233.0407,65.7404" stroke="black" stroke-width="1" /><polyline fill="none" points="256.7555,61.182 254.6791,65.2808 252.6028,69.3796 250.5265,73.4783 249.6276,75.2527 247.4778,75.8932 245.7797,75.033 244.0971,74.1806 243.3415,72.0683 244.2403,70.294 244.9221,68.9482 245.6038,67.6024 246.2856,66.2566 247.1844,64.4822 249.3342,63.8425 251.0167,64.6948 252.7149,65.5551 253.4705,67.6666 252.5717,69.441" stroke="black" stroke-width="1" /><polyline fill="none" points="258.5676,82.3664 260.8632,78.7265 255.6995,75.4698 267.3359,67.6278" stroke="black" stroke-width="1" /><polyline fill="none" points="271.6341,74.8577 272.8375,73.2957 275.0738,73.006 276.6359,74.2094 278.2117,75.4236 278.5079,77.7077 277.3045,79.2697 276.833,79.8817 276.3978,80.1943 275.9904,80.3579 271.8698,82.0163 267.7491,83.6746 263.6285,85.333 263.5414,85.446 263.4544,85.559 263.3673,85.672 265.2418,87.1161 267.1163,88.5603 268.9908,90.0045" stroke="black" stroke-width="1" /><polyline fill="none" points="276.9819,88.3456 278.3264,86.9032 280.5804,86.8236 282.0224,88.1676 283.4779,89.5242 283.5442,91.7663 282.1997,93.2088 281.5063,93.9528 280.8129,94.6968 280.1194,95.4408 278.775,96.8833 276.5342,96.9743 275.0787,95.6177 273.6367,94.2737 273.5572,92.0202 274.9016,90.5777 277.2239,88.086 279.5462,85.5944 281.8685,83.1027 283.2126,81.6605 285.4665,81.5812 286.9084,82.9252 288.1508,84.0831 288.3841,85.8941 287.5849,87.3052" stroke="black" stroke-width="1" /><polyline fill="none" points="285.9717,97.0713 287.4453,95.7611 289.697,95.8929 291.0067,97.366 292.3288,98.8529 292.1848,101.0915 290.7112,102.4017 289.9512,103.0775 289.1911,103.7533 288.4311,104.4291 286.9575,105.7394 284.718,105.6201 283.3959,104.1332 282.0861,102.6601 282.218,100.409 283.6915,99.0987 286.2369,96.8355 288.7823,94.5722 291.3278,92.309 292.8011,90.999 295.0525,91.1311 296.3622,92.6042 297.4907,93.8733 297.5533,95.6982 296.6255,97.0283" stroke="black" stroke-width="1" /><polyline fill="none" points="306.5604,105.4905 305.3464,103.836 304.1324,102.1815 302.9185,100.527 300.7389,102.1262 298.5594,103.7254 296.3798,105.3246 297.7466,105.1298 298.872,105.4743 299.7544,106.6768 300.9716,108.3357 300.5461,110.6254 299.0121,111.7509 297.9155,112.5556 296.8188,113.3602 295.7222,114.1648 294.1189,115.3413 292.0005,114.9181 290.8947,113.4109 289.7994,111.9181 290.0415,109.7843 291.6449,108.6078" stroke="black" stroke-width="1" /><polyline fill="none" points="306.6423,121.5682 306.647,121.5654 306.6517,121.5626 306.6564,121.5598 304.6557,122.7569 302.655,123.9541 300.6543,125.1513 299.7297,125.7046 299.763,126.5658 300.0528,127.05 299.6829,126.4318 299.9025,125.6011 300.537,125.2215 300.5761,125.1981 300.6152,125.1747 300.6543,125.1513 299.2521,124.7109 297.9946,123.945 297.229,122.6655 296.595,121.606 296.0948,119.5674 298.2573,118.2734 299.3903,117.5954 300.4892,117.7965 301.417,118.4804 301.8725,118.8068 302.9893,120.0381 303.7437,120.8649 304.5215,121.6981 305.5092,122.2462 306.6423,121.5682 307.7897,120.8816 308.4763,118.892 307.42,117.1267 306.4249,115.4638 305.1584,115.1828 304.1175,115.146" stroke="black" stroke-width="1" /><polyline fill="none" points="317.076,131.1004 312.9778,130.4222 308.8796,129.7439 304.7813,129.0657 307.855,127.5981 310.9287,126.1306 314.0024,124.663 315.7819,123.8134 317.9084,124.5661 318.7577,126.3449 319.6149,128.1404 318.8554,130.2508 317.076,131.1004 314.0023,132.5679 310.9286,134.0355 307.8549,135.5031 306.0755,136.3527 303.9575,135.6161 303.1077,133.8364 302.2509,132.0418 303.0019,129.9153 304.7813,129.0657" stroke="black" stroke-width="1" /><polyline fill="none" points="308.7793,147.1879 312.8193,145.7055 310.7164,139.9743 324.7204,140.864" stroke="black" stroke-width="1" /><polyline fill="none" points="328.7641,154.5175 328.2407,152.5333 327.7173,150.549 327.194,148.5648 324.58,149.2542 321.9661,149.9437 319.3522,150.6332 320.6953,150.9526 321.6163,151.6856 321.9967,153.1277 322.5215,155.1173 321.2867,157.0918 319.447,157.5771 318.1318,157.924 316.8167,158.2709 315.5015,158.6178 313.5786,159.125 311.7626,157.9551 311.2859,156.1476 310.8136,154.3573 311.8207,152.4605 313.7436,151.9533" stroke="black" stroke-width="1" /><polyline fill="none" points="327.1556,163.2706 330.9226,165.3417 314.0092,168.1426" stroke="black" stroke-width="1" /><polyline fill="none" points="328.9089,176.3654 332.4654,178.7801 315.364,179.9849" stroke="black" stroke-width="1" /><polyline fill="none" points="332.8027,195.2382 328.2093,195.1305 323.6158,195.0228 319.0225,194.9151 317.034,194.8684 315.5297,193.2044 315.5743,191.3013 315.6185,189.4157 317.1992,187.8237 319.1876,187.8703 320.6959,187.9057 322.204,187.9411 323.7123,187.9764 325.7007,188.023 327.2043,189.6874 327.1601,191.573 327.1155,193.4761 325.5355,195.0678 323.5471,195.0211" stroke="black" stroke-width="1" /><polyline fill="none" points="328.7042,201.4854 330.6625,201.716 332.0594,203.4863 331.8288,205.4446 331.5961,207.4203 329.7882,208.8473 327.8299,208.6166 327.0626,208.5263 326.5709,208.3134 326.2214,208.0478 322.6824,205.3634 319.1436,202.679 315.6046,199.9946 315.463,199.9779 315.3213,199.9612 315.1797,199.9445 314.9029,202.2945 314.6262,204.6446 314.3494,206.9946" stroke="black" stroke-width="1" /><polyline fill="none" points="326.8722,214.5573 328.8003,214.9703 330.0253,216.8635 329.6123,218.7916 329.1956,220.7369 327.262,221.9883 325.3339,221.5753 324.5785,221.4135 324.1089,221.1555 323.7857,220.8584 320.5137,217.8543 317.2418,214.8503 313.9698,211.8463 313.8303,211.8164 313.6909,211.7866 313.5514,211.7567 313.0558,214.0705 312.5602,216.3843 312.0646,218.6981" stroke="black" stroke-width="1" /><polyline fill="none" points="317.0212,232.3151 317.0264,232.3167 317.0316,232.3184 317.0369,232.32 314.8128,231.6203 312.5887,230.9207 310.3647,230.221 309.3368,229.8977 308.7154,230.4948 308.5461,231.0331 308.7622,230.3459 309.529,229.9581 310.2342,230.18 310.2777,230.1937 310.3212,230.2074 310.3647,230.221 309.762,228.8805 309.4988,227.4319 309.9463,226.0095 310.3168,224.8317 311.5079,223.1033 313.9119,223.8596 315.1714,224.2558 315.7513,225.2106 315.8567,226.3584 315.9154,226.9156 315.7373,228.5684 315.6208,229.6816 315.515,230.8165 315.7617,231.9188 317.0212,232.3151 318.2968,232.7163 320.2398,231.9074 320.8571,229.945 321.4387,228.0964 320.8071,226.9632 320.1429,226.1609" stroke="black" stroke-width="1" /><polyline fill="none" points="316.8306,246.4462 314.6143,242.9329 312.398,239.4196 310.1817,235.9062 313.3208,237.2281 316.4599,238.55 319.599,239.8718 321.4163,240.6371 322.2669,242.7264 321.5019,244.543 320.7297,246.3768 318.6479,247.2115 316.8306,246.4462 313.6915,245.1243 310.5524,243.8025 307.4133,242.4806 305.5959,241.7153 304.739,239.6431 305.5044,237.8255 306.2762,235.9927 308.3644,235.141 310.1817,235.9062" stroke="black" stroke-width="1" /><polyline fill="none" points="308.5441,252.9151 307.6891,254.2944 308.1783,256.5537 309.9084,257.4818 310.311,257.6978 310.7137,257.9137 311.1163,258.1297 312.7485,259.0052 314.7918,258.3876 315.6754,256.7403 316.5507,255.1084 315.9042,253.0488 314.3025,252.1897 313.8999,251.9737 313.4972,251.7577 313.0946,251.5417 311.462,250.6661 309.4194,251.2832 308.5441,252.9151 307.5796,254.7132 305.3597,255.3337 303.6227,254.402 303.0284,254.0832 302.4341,253.7644 301.8397,253.4456 300.1024,252.5137 299.421,250.337 300.3855,248.5389 301.3419,246.7559 303.5317,246.1205 305.269,247.0524 305.8732,247.3764 306.4774,247.7005 307.0816,248.0246 308.5709,248.8235 309.4975,250.923" stroke="black" stroke-width="1" /><polyline fill="none" points="299.8036,266.2751 299.8081,266.2781 299.8127,266.2812 299.8173,266.2842 297.8749,264.9946 295.9325,263.705 293.9902,262.4153 293.0925,261.8193 292.3297,262.2204 292.0175,262.6906 292.416,262.0904 293.2603,261.9307 293.8762,262.3397 293.9142,262.3649 293.9522,262.3901 293.9902,262.4153 293.7834,260.9601 293.9327,259.4954 294.7575,258.2532 295.4405,257.2245 297.0646,255.8948 299.1641,257.2888 300.2641,258.0191 300.5561,259.0974 300.3387,260.2293 300.2404,260.781 299.6104,262.3193 299.1894,263.3564 298.7726,264.4173 298.7036,265.5448 299.8036,266.2751 300.9176,267.0148 303.0088,266.7772 304.1467,265.0633 305.2187,263.4488 304.9265,262.1848 304.5113,261.2296" stroke="black" stroke-width="1" /><polyline fill="none" points="292.0316,276.356 292.0358,276.3595 292.0401,276.3629 292.0443,276.3663 290.2313,274.9005 288.4182,273.4346 286.6051,271.9688 285.7672,271.2913 284.9702,271.6193 284.6154,272.0581 285.0683,271.4979 285.9238,271.418 286.4987,271.8828 286.5342,271.9115 286.5696,271.9401 286.6051,271.9688 286.5355,270.5007 286.8214,269.0563 287.7589,267.8968 288.5351,266.9366 290.2766,265.7648 292.2363,267.3492 293.2631,268.1794 293.4529,269.2803 293.1304,270.3869 292.9809,270.9269 292.2096,272.3995 291.6934,273.3926 291.1791,274.4098 291.0048,275.5258 292.0316,276.356 293.0714,277.1967 295.1757,277.156 296.4691,275.5562 297.6875,274.0492 297.515,272.7634 297.191,271.7735" stroke="black" stroke-width="1" /><polyline fill="none" points="278.2959,281.0733 278.0652,280.0092 277.954,278.8222 279.4399,277.301 280.7702,275.9392 283.0119,275.8524 284.4718,277.2784 285.5386,278.3205 286.6055,279.3626 287.6723,280.4048 289.0951,281.7946 289.0603,284.0373 287.7301,285.399 286.3759,286.7853 284.111,286.897 282.6882,285.5071 282.1568,284.9881 281.6255,284.4691 281.0942,283.9501 282.7516,282.2534 284.4089,280.5566 286.0663,278.86" stroke="black" stroke-width="1" /><polyline fill="none" points="279.6011,300.4349 281.1662,299.1076 282.7313,297.7804 284.2964,296.4532 282.548,294.3914 280.7996,292.3296 279.0511,290.2679 279.3416,291.6175 279.0769,292.7644 277.9394,293.7291 276.3701,295.0598 274.0562,294.7963 272.8257,293.3453 271.946,292.3079 271.0663,291.2705 270.1866,290.2331 268.9004,288.7164 269.1736,286.5736 270.5994,285.3646 272.0115,284.1671 274.1571,284.2586 275.4433,285.7753" stroke="black" stroke-width="1" /><polyline fill="none" points="266.4783,300.2107 265.0924,301.0547 264.5077,303.2913 265.6317,304.9009 265.8933,305.2756 266.1549,305.6502 266.4164,306.0248 267.4769,307.5435 269.5786,307.9159 271.1113,306.8456 272.6297,305.7854 272.9836,303.656 271.9431,302.1658 271.6815,301.7912 271.4199,301.4165 271.1583,301.0419 270.0977,299.523 267.9967,299.1505 266.4783,300.2107 264.8054,301.3788 262.5447,300.9292 261.4162,299.313 261.0301,298.7601 260.644,298.2072 260.2579,297.6542 259.1292,296.0378 259.505,293.7881 261.1779,292.6199 262.8369,291.4615 265.0775,291.8842 266.2061,293.5007 266.5987,294.0628 266.9912,294.625 267.3837,295.1871 268.3513,296.5728 268.2291,298.8645" stroke="black" stroke-width="1" /><polyline fill="none" points="257.132,315.4585 258.9172,314.4464 260.7023,313.4343 262.4874,312.4221 261.1541,310.0705 259.8208,307.7189 258.4875,305.3673 258.5211,306.7474 258.0473,307.8249 256.7498,308.5605 254.96,309.5753 252.7358,308.885 251.7974,307.2299 251.1265,306.0467 250.4557,304.8635 249.7848,303.6803 248.804,301.9503 249.472,299.8961 251.0982,298.9741 252.7088,298.0609 254.7997,298.5509 255.7805,300.2808" stroke="black" stroke-width="1" /><polyline fill="none" points="238.1627,305.5787 239.9254,309.5045 245.4946,307.004 245.5913,321.0359" stroke="black" stroke-width="1" /><polyline fill="none" points="234.9346,313.8147 235.5702,315.6813 234.5749,317.7053 232.709,318.3407 230.8255,318.9821 228.8183,317.9806 228.1826,316.114 227.8547,315.1513 227.5269,314.1885 227.199,313.2257 226.5634,311.3592 227.5424,309.3415 229.4259,308.7001 231.2918,308.0646 233.3153,309.0598 233.951,310.9264 235.049,314.1506 236.147,317.3749 237.245,320.5991 237.8805,322.4654 236.885,324.489 235.0191,325.1245 233.4115,325.6719 231.7053,325.0214 230.8395,323.6501" stroke="black" stroke-width="1" /><polyline fill="none" points="216.8798,323.3037 216.4217,321.3858 217.5862,319.4689 219.5041,319.0108 221.4386,318.5488 223.3593,319.7289 223.8174,321.6468 224.0537,322.6362 224.29,323.6257 224.5264,324.6152 224.9844,326.5331 223.8045,328.4544 221.8863,328.9126 219.952,329.3746 218.0468,328.1901 217.5887,326.2722 216.7975,322.9593 216.0062,319.6464 215.215,316.3335 214.757,314.4159 215.9214,312.4986 217.8393,312.0405 219.4901,311.6463 221.129,312.4537 221.8626,313.9005" stroke="black" stroke-width="1" /><polyline fill="none" points="205.4281,331.9647 204.7839,327.4154 204.1397,322.8661 203.4955,318.3168 203.2167,316.3474 204.6125,314.5915 206.4974,314.3246 208.3649,314.0601 210.1938,315.3594 210.4726,317.3288 210.6841,318.8225 210.8956,320.3162 211.1072,321.81 211.386,323.7793 209.9897,325.5346 208.1222,325.7991 206.2374,326.066 204.409,324.7673 204.1301,322.7979" stroke="black" stroke-width="1" /><polyline fill="none" points="197.3397,329.1548 194.8423,332.6537 194.0388,315.5287" stroke="black" stroke-width="1" /><polyline fill="none" points="178.3808,332.6051 178.5962,328.0155 178.8116,323.4258 179.0269,318.8362 179.1202,316.8494 180.819,315.3845 182.7205,315.4737 184.6046,315.5621 186.1591,317.1797 186.0659,319.1665 185.9951,320.6735 185.9244,322.1804 185.8537,323.6874 185.7605,325.6742 184.0614,327.1384 182.1773,327.05 180.2758,326.9608 178.7216,325.3439 178.8148,323.3571" stroke="black" stroke-width="1" /><polyline fill="none" points="168.0508,314.0215 167.4475,318.2823 173.492,319.1382 166.0885,331.0584" stroke="black" stroke-width="1" /><polyline fill="none" points="160.9268,319.2657 160.4688,321.1836 158.5471,322.3646 156.6299,321.9066 154.6946,321.4444 153.5311,319.5266 153.9892,317.6087 154.2255,316.6194 154.4617,315.6302 154.698,314.641 155.1561,312.7231 157.0605,311.5388 158.9958,312.001 160.913,312.4589 162.0937,314.3801 161.6356,316.298 160.8444,319.6109 160.0531,322.9238 159.2619,326.2367 158.8039,328.1542 156.8824,329.3348 154.9651,328.8769 153.3133,328.4824 152.2172,327.0221 152.2164,325.4003" stroke="black" stroke-width="1" /><polyline fill="none" points="140.5936,317.6605 141.2292,315.7939 143.2367,314.7937 145.1033,315.4293 146.9861,316.0705 147.9812,318.0933 147.3455,319.9598 147.0176,320.9229 146.6897,321.8858 146.3617,322.8488 145.7261,324.7154 143.7031,325.7111 141.8362,325.0753 139.9537,324.4343 138.9741,322.416 139.6097,320.5494 140.7077,317.3252 141.8057,314.101 142.9037,310.8767 143.5393,309.0105 145.5469,308.0099 147.4135,308.6456 149.0201,309.1927 149.9756,310.7499 149.8244,312.365" stroke="black" stroke-width="1" /><polyline fill="none" points="134.0399,318.3458 133.2323,320.1447 131.1245,320.946 129.3256,320.1383 127.5108,319.3235 126.6921,317.1707 127.4997,315.3718 127.8161,314.6671 128.1668,314.2619 128.525,314.0081 132.1477,311.4379 135.7704,308.8676 139.3931,306.2974 139.4515,306.1672 139.5099,306.0371 139.5683,305.907 137.4096,304.9378 135.2509,303.9686 133.0923,302.9994" stroke="black" stroke-width="1" /><polyline fill="none" points="121.2885,307.001 119.9296,306.114 117.6594,306.55 116.6911,308.2579 116.4657,308.6553 116.2403,309.0528 116.015,309.4503 115.1014,311.0616 115.671,313.1187 117.2971,314.0407 118.9081,314.9541 120.9822,314.356 121.8787,312.7749 122.104,312.3774 122.3294,311.9799 122.5547,311.5825 123.4685,309.9709 122.8994,307.9144 121.2885,307.001 119.5135,305.9947 118.9452,303.7609 119.9174,302.0461 120.25,301.4595 120.5826,300.8728 120.9153,300.2861 121.8877,298.571 124.0798,297.9409 125.8547,298.9473 127.6148,299.9452 128.1987,302.1493 127.2264,303.8643 126.8882,304.4608 126.55,305.0572 126.2119,305.6536 125.3783,307.1238 123.2576,308.0009" stroke="black" stroke-width="1" /><polyline fill="none" points="114.9342,300.0707 113.8053,301.6874 111.5846,302.0822 109.9685,300.9537 108.3371,299.8146 107.9572,297.6038 109.0861,295.9871 109.6683,295.1532 110.2506,294.3193 110.8329,293.4855 111.9618,291.8687 114.1677,291.4645 115.7991,292.6036 117.4152,293.7321 117.8099,295.9523 116.681,297.569 114.731,300.3616 112.781,303.1543 110.831,305.9469 109.7023,307.5634 107.4818,307.9579 105.8657,306.8293 104.4733,305.8571 103.9884,304.0967 104.5818,302.5874" stroke="black" stroke-width="1" /><polyline fill="none" points="99.5088,299.1217 97.9784,300.9263 92.5507,296.3235 107.4447,286.4756" stroke="black" stroke-width="1" /><polyline fill="none" points="83.2441,287.2422 84.678,288.7102 86.112,290.1781 87.5459,291.6461 89.4797,289.7571 91.4136,287.8681 93.3474,285.9791 92.0214,286.3636 90.8587,286.1803 89.8166,285.1133 88.3788,283.6415 88.479,281.3148 89.84,279.9853 90.813,279.0349 91.786,278.0844 92.759,277.134 94.1816,275.7444 96.3383,275.8664 97.6446,277.2036 98.9383,278.5281 98.9978,280.6748 97.5752,282.0645" stroke="black" stroke-width="1" /><polyline fill="none" points="84.7354,267.9411 86.2818,266.6908 88.4953,266.9739 89.6919,268.454 90.8886,269.9341 90.7124,272.1708 89.1659,273.4211 87.9928,274.3696 86.8196,275.3181 85.6465,276.2666 84.0997,277.5171 81.8763,277.2205 80.6796,275.7404 79.483,274.2603 79.6692,272.037 81.2159,270.7866" stroke="black" stroke-width="1" /><polyline fill="none" points="79.1723,265.3596 77.5296,266.4503 75.3186,266.0041 74.2284,264.3619 73.1278,262.7043 73.5842,260.5081 75.227,259.4174 76.0743,258.8548 76.9216,258.2922 77.7689,257.7297 79.4116,256.639 81.6123,257.071 82.7128,258.7287 83.8031,260.3708 83.357,262.5812 81.7142,263.6719 78.8766,265.5559 76.0391,267.4399 73.2015,269.3239 71.559,270.4144 69.3484,269.968 68.2581,268.3258 67.3188,266.911 67.5126,265.0953 68.6177,263.9084" stroke="black" stroke-width="1" /><polyline fill="none" points="75.2009,246.2678 71.4086,248.302 74.2943,253.6817 60.304,254.7643" stroke="black" stroke-width="1" /><polyline fill="none" points="54.8967,242.6944 55.2823,243.6101 56.1551,244.1358 57.3243,243.6435 58.4566,243.1667 59.5889,242.6898 60.7212,242.213 60.4862,241.6549 60.2512,241.0967 60.0161,240.5386 60.4686,241.6131 60.9211,242.6876 61.3735,243.7621 61.1561,243.2457 60.9387,242.7294 60.7212,242.213 64.2026,240.747 67.6839,239.2811 71.1652,237.8151" stroke="black" stroke-width="1" /><polyline fill="none" points="54.2173,234.5951 51.9602,235.3051 49.8246,228.5164 67.6758,228.132" stroke="black" stroke-width="1" /><polyline fill="none" points="55.2824,217.0124 55.0424,215.4075 53.2081,214.0007 51.2883,214.4119 50.8415,214.5076 50.3947,214.6033 49.9479,214.699 48.1368,215.0869 46.9779,216.8794 47.3694,218.7073 47.7573,220.5181 49.5824,221.6707 51.3597,221.2901 51.8065,221.1944 52.2533,221.0987 52.7001,221.003 54.5115,220.615 55.6702,218.8232 55.2824,217.0124 54.855,215.0173 56.1468,213.1082 58.0742,212.6954 58.7337,212.5542 59.3931,212.4129 60.0526,212.2717 61.9804,211.8587 63.9079,213.0782 64.3352,215.0734 64.759,217.0518 63.4999,218.9527 61.5721,219.3656 60.9017,219.5092 60.2312,219.6528 59.5608,219.7964 57.9083,220.1504 55.8436,219.1484" stroke="black" stroke-width="1" /><polyline fill="none" points="48.8142,207.2026 45.1485,204.9572 62.1746,202.9522" stroke="black" stroke-width="1" /><polyline fill="none" points="55.0264,195.1895 53.0551,195.2357 51.4231,193.6789 51.3769,191.7083 51.3303,189.7191 52.8879,188.1049 54.8592,188.0587 55.876,188.0349 56.8928,188.011 57.9096,187.9872 59.8809,187.941 61.5118,189.4804 61.5584,191.4695 61.6046,193.4401 60.0481,195.0718 58.0768,195.118 54.6716,195.1978 51.2665,195.2777 47.8614,195.3575 45.8904,195.4037 44.2588,193.8469 44.2126,191.8763 44.1727,190.1785 45.3052,188.7461 46.8732,188.3317" stroke="black" stroke-width="1" /><polyline fill="none" points="47.6453,181.9586 45.8664,181.8333 44.3976,180.2346 44.5338,178.3015 44.6699,176.3694 46.2648,174.9683 48.2828,175.1105 48.6019,175.133 48.921,175.1555 49.2401,175.1779 52.3186,175.3948 52.6421,178.1162 52.618,178.4589 52.5947,178.7894 52.5714,179.1199 52.5481,179.4504 52.5714,179.1199 52.5947,178.7894 52.618,178.4589 52.6891,177.4492 54.0384,175.3785 56.4322,175.5471 57.1336,175.5966 57.8349,175.646 58.5363,175.6954 60.5197,175.8351 61.98,177.5542 61.8403,179.5383 61.6993,181.5395 60.0136,183.019 58.0302,182.8793" stroke="black" stroke-width="1" /><polyline fill="none" points="61.8774,164.0082 62.6758,164.7486 63.4465,165.6582 63.0991,167.7561 62.7881,169.6342 60.9998,170.9889 58.9865,170.6555 57.5151,170.4118 56.0438,170.1681 54.5725,169.9245 52.6102,169.5995 51.3548,167.7408 51.6658,165.8628 51.9825,163.9509 53.7756,162.5626 55.7378,162.8876 56.4706,163.0089 57.2034,163.1303 57.9362,163.2516 57.5487,165.5916 57.1611,167.9316 56.7737,170.2716" stroke="black" stroke-width="1" /><polyline fill="none" points="53.3127,149.1187 55.9996,152.2866 58.6866,155.4545 61.3736,158.6224 58.0802,157.7537 54.7868,156.885 51.4933,156.0163 49.5867,155.5134 48.4516,153.564 48.9543,151.6581 49.4618,149.7341 51.406,148.6158 53.3127,149.1187 56.6061,149.9874 59.8995,150.8561 63.193,151.7248 65.0996,152.2277 66.2386,154.1593 65.7356,156.0663 65.2284,157.9892 63.2803,159.1253 61.3736,158.6224" stroke="black" stroke-width="1" /><polyline fill="none" points="55.148,143.2997 53.2968,142.6204 52.3493,140.5741 53.0286,138.7229 53.7139,136.8553 55.8038,135.8874 57.655,136.5666 58.3802,136.8327 58.809,137.1541 59.0873,137.4936 61.9058,140.9267 64.7243,144.3597 67.5428,147.7928 67.6767,147.842 67.8106,147.8911 67.9445,147.9402 68.7596,145.7188 69.5747,143.4973 70.3898,141.2759" stroke="black" stroke-width="1" /><polyline fill="none" points="74.9,131.3262 71.0166,129.472 68.3862,134.9811 59.2371,124.3418" stroke="black" stroke-width="1" /><polyline fill="none" points="65.804,119.0123 64.2738,118.0967 63.6859,116.0068 64.681,114.3438 65.6755,112.6818 67.7315,112.1527 69.4674,113.1915 69.7419,113.3557 70.0164,113.52 70.2909,113.6842 72.9391,115.2689 71.9979,117.8427 71.8215,118.1375 71.6514,118.4218 71.4813,118.7062 71.3111,118.9905 71.4813,118.7062 71.6514,118.4218 71.8215,118.1375 72.3413,117.269 74.4806,116.0315 76.5399,117.2637 77.1432,117.6247 77.7466,117.9857 78.3499,118.3468 80.0561,119.3677 80.582,121.5612 79.5607,123.268 78.5306,124.9894 76.3582,125.5475 74.652,124.5266" stroke="black" stroke-width="1" /><polyline fill="none" points="85.2216,108.4278 86.825,109.6042 87.1157,111.8167 85.9898,113.3512 84.8639,114.8858 82.6562,115.2859 81.0528,114.1095 79.8365,113.217 78.6201,112.3245 77.4038,111.4321 75.8002,110.2554 75.5199,108.0298 76.6459,106.4953 77.7718,104.9608 79.969,104.5738 81.5726,105.7504" stroke="black" stroke-width="1" /><polyline fill="none" points="88.0551,94.2223 89.5287,95.5325 89.6715,97.7709 88.3612,99.2445 87.0396,100.7309 84.7892,100.8629 83.3156,99.5527 82.5554,98.8767 81.7951,98.2007 81.0349,97.5248 79.5613,96.2145 79.4287,93.9637 80.7392,92.4898 82.0606,91.0037 84.3008,90.8841 85.7744,92.1944 88.3198,94.4576 90.8652,96.7209 93.4106,98.9841 94.8839,100.2941 95.0269,102.5327 93.7167,104.0063 92.589,105.2746 90.7829,105.5509 89.3532,104.7847" stroke="black" stroke-width="1" /><polyline fill="none" points="97.3248,85.2308 98.6692,86.6732 98.6017,88.9151 97.1592,90.2595 95.7042,91.6157 93.4514,91.5364 92.1069,90.0939 91.4133,89.3497 90.7197,88.6056 90.0261,87.8614 88.6817,86.4189 88.7605,84.1655 90.2032,82.8209 91.658,81.465 93.8995,81.5557 95.244,82.9982 97.5662,85.4899 99.8885,87.9815 102.2108,90.4731 103.555,91.9154 103.4877,94.1575 102.0453,95.5019 100.8037,96.6591 98.9798,96.765 97.628,95.8684" stroke="black" stroke-width="1" /><polyline fill="none" points="104.1473,84.844 102.9439,83.282 103.2337,81.0452 104.7951,79.8421 106.3713,78.6278 108.5942,78.9288 109.7976,80.4908 110.4183,81.2965 111.0391,82.1021 111.6598,82.9078 112.8632,84.4699 112.5869,86.6954 111.0107,87.9098 109.4492,89.1128 107.2129,88.8231 106.0095,87.261 103.9307,84.5629 101.852,81.8647 99.7732,79.1665 98.57,77.6048 98.86,75.3683 100.4214,74.1653 101.7667,73.1288 103.5915,73.1945 104.8532,74.2135" stroke="black" stroke-width="1" /><polyline fill="none" points="121.7399,76.1565 122.8008,77.8385 122.2607,80.0037 120.6508,81.019 119.0409,82.0343 116.8401,81.5977 115.7793,79.9157 114.9745,78.6396 114.1698,77.3636 113.365,76.0876 112.3039,74.4052 112.8586,72.2317 114.4685,71.2164 116.0783,70.2011 118.2646,70.646 119.3256,72.3283" stroke="black" stroke-width="1" /><polyline fill="none" points="132.5533,70.3986 133.452,72.1726 132.7115,74.2777 131.0136,75.1377 129.3158,75.9978 127.1655,75.3571 126.2669,73.5831 125.5851,72.2373 124.9034,70.8915 124.2216,69.5457 123.3228,67.7714 124.0786,65.6594 125.7764,64.7993 127.4743,63.9392 129.6092,64.5868 130.5081,66.3612" stroke="black" stroke-width="1" /><polyline fill="none" points="133.082,57.7887 132.2151,55.5871 138.8369,52.9797 140.4749,70.7597" stroke="black" stroke-width="1" /><polyline fill="none" points="145.5655,53.1736 144.9086,50.9005 151.7455,48.9246 151.7113,66.7799" stroke="black" stroke-width="1" /><polyline fill="none" points="167.8756,61.1903 167.4555,62.1949 166.8671,63.2317 164.7779,63.6282 162.9076,63.9832 161.0199,62.771 160.6393,60.766 160.3613,59.3008 160.0832,57.8356 159.8051,56.3704 159.4342,54.4163 160.7467,52.5975 162.617,52.2425 164.5209,51.8812 166.4419,53.0863 166.8128,55.0404 166.9513,55.7702 167.0898,56.4999 167.2283,57.2296 164.898,57.6719 162.5677,58.1142 160.2374,58.5564" stroke="black" stroke-width="1" /><polyline fill="none" points="194.0151,270.616 268.4255,140.8637 268.4255,140.8637 126.744,171.7336 280.8196,188.8365 108.8569,140.3048 280.8196,188.8365 188.2428,253.3668 140.3048,268.1431 188.8697,188.4998" stroke="black" stroke-width="1" /><polyline fill="none" points="173.8058,179.3141 203.9336,197.6854" stroke="black" stroke-width="1" /><polyline fill="none" points="199.9259,280.8196 199.7811,278.9795 199.3502,277.1848 198.6439,275.4796 197.6795,273.9058 196.4808,272.5023 195.0773,271.3036 193.5035,270.3392 191.7983,269.6329 190.0036,269.202 188.1635,269.0572 186.3235,269.202 184.5287,269.6329 182.8235,270.3392 181.2497,271.3036 179.8462,272.5023 178.6475,273.9058 177.6831,275.4796 176.9768,277.1848 176.5459,278.9795 176.4011,280.8196 176.5459,282.6596 176.9768,284.4543 177.6831,286.1596 178.6475,287.7333 179.8462,289.1368 181.2497,290.3356 182.8235,291.3 184.5287,292.0063 186.3235,292.4372 188.1635,292.582 190.0036,292.4372 191.7983,292.0063 193.5035,291.3 195.0773,290.3356 196.4808,289.1368 197.6795,287.7333 198.6439,286.1596 199.3502,284.4543 199.7811,282.6596 199.9259,280.8196" stroke="black" stroke-width="1" /><polyline fill="none" points="188.5,69.0664 199.6839,69.5912 210.7696,71.161 221.6595,73.7619 232.2581,77.3712 242.4721,81.9571 252.2118,87.4792 261.3915,93.8892 269.9308,101.1306 277.7544,109.1398 284.7936,117.8464 290.9866,127.1739 296.2789,137.0404 300.6241,147.3591 303.9839,158.0393 306.3289,168.9873 307.6383,180.1067 307.9008,191.2998 307.114,202.4684 305.2847,213.5142 302.4292,224.3402 298.5725,234.8512 293.7484,244.9549 287.9994,254.5625 281.376,263.5894 273.9365,271.9565 265.7461,279.5902 256.8768,286.4234 247.4067,292.3961 237.4188,297.4556 227.0011,301.5577 216.2451,304.6663 205.2452,306.7539 194.0981,307.8023 182.9019,307.8023 171.7548,306.7539 160.7549,304.6663 149.9989,301.5577 139.5811,297.4556 129.5933,292.3961 120.1232,286.4234 111.2539,279.5902 103.0635,271.9565 95.6239,263.5894 89.0006,254.5625 83.2516,244.9549 78.4275,234.8512 74.5708,224.3402 71.7153,213.5142 69.8861,202.4684 69.0992,191.2998 69.3617,180.1067 70.6712,168.9872 73.0161,158.0393 76.3759,147.3591 80.7211,137.0404 86.0134,127.174 92.2064,117.8464 99.2457,109.1398 107.0692,101.1306 115.6085,93.8892 124.7882,87.4792 134.5279,81.957 144.7419,77.3712 155.3405,73.7619 166.2304,71.161 177.3161,69.5912 188.5,69.0664" stroke="black" stroke-width="1" />

    </g>
  </g>
  <WCB
     pausedposy="0"
     pausedposx="0"
     lastknownposy="0"
     lastknownposx="0"
     lastpathnc="0"
     lastpath="0"
     node="0"
     layer="0" />
</svg>
