<?xml version="1.0" encoding="UTF-8" standalone="no"?>
<!-- Created with Inkscape (http://www.inkscape.org/) -->

<svg
   xmlns:dc="http://purl.org/dc/elements/1.1/"
   xmlns:cc="http://creativecommons.org/ns#"
   xmlns:rdf="http://www.w3.org/1999/02/22-rdf-syntax-ns#"
   xmlns:svg="http://www.w3.org/2000/svg"
   xmlns="http://www.w3.org/2000/svg"
   xmlns:sodipodi="http://sodipodi.sourceforge.net/DTD/sodipodi-0.dtd"
   xmlns:inkscape="http://www.inkscape.org/namespaces/inkscape"
   width="100mm"
   height="100mm"
   viewBox="0 0 100 100"
   version="1.1"
   id="svg19124"
   inkscape:version="0.92.3 (2405546, 2018-03-11)"
   sodipodi:docname="inkscape_template_TMP.svg"
   shape-rendering="crispEdges">
  <sodipodi:namedview
     pagecolor="#ffffff"
     bordercolor="#666666"
     borderopacity="1"
     objecttolerance="10"
     gridtolerance="10"
     guidetolerance="10"
     inkscape:pageopacity="0"
     inkscape:pageshadow="2"
     inkscape:window-width="1568"
     inkscape:window-height="1550"
     id="namedview24021"
     showgrid="false"
     inkscape:zoom="0.62441667"
     inkscape:cx="712.66515"
     inkscape:cy="409.98265"
     inkscape:window-x="0"
     inkscape:window-y="0"
     inkscape:window-maximized="0"
     inkscape:current-layer="layer1" />
  <defs
     id="defs19118" />
  <metadata
     id="metadata19121">
    <rdf:RDF>
      <cc:Work
         rdf:about="">
        <dc:format>image/svg+xml</dc:format>
        <dc:type
           rdf:resource="http://purl.org/dc/dcmitype/StillImage" />
        <dc:title />
      </cc:Work>
    </rdf:RDF>
  </metadata>
  <g
     transform="translate(0,-197)"
     id="layer1"
     inkscape:groupmode="layer"
     inkscape:label="Layer 1">
    <g
       id="g24447"
       transform="matrix(0.26458333,0,0,0.26458333,0.10666333,197.9735)">

<polyline fill="none" points="192.1004,47.7394 189.7225,51.1455 187.3447,54.5516 184.9669,57.9577 184.9669,54.5516 184.9669,51.1455 184.9669,47.7394 184.9669,45.7676 186.5623,44.1729 188.5334,44.1729 190.5231,44.1729 192.1004,45.7676 192.1004,47.7394 192.1004,51.1455 192.1004,54.5516 192.1004,57.9577 192.1004,59.9295 190.5231,61.5235 188.5509,61.5235 186.5623,61.5235 184.9669,59.9295 184.9669,57.9577" stroke="black" stroke-width="1" /><polyline fill="none" points="197.8298,61.5877 200.7471,57.7851 198.696,53.7706 202.935,62.0679 200.7471,57.7851 203.4811,54.2207" stroke="black" stroke-width="1" /><polyline fill="none" points="211.3535,48.3775 211.7947,46.0529 218.7866,47.3798 210.6873,63.2925" stroke="black" stroke-width="1" /><polyline fill="none" points="229.2902,58.987 229.2917,58.9817 229.2932,58.9765 229.2947,58.9712 228.6474,61.211 228.0001,63.4509 227.3528,65.6907 227.0536,66.7259 227.6651,67.3332 228.2073,67.4898 227.5152,67.2898 227.1095,66.5324 227.3148,65.8222 227.3275,65.7784 227.3401,65.7345 227.3528,65.6907 226.0267,66.3247 224.5847,66.6217 223.1522,66.2077 221.966,65.8649 220.2102,64.7147 220.9099,62.2937 221.2765,61.0252 222.2174,60.4231 223.3624,60.2908 223.9182,60.219 225.5747,60.3583 226.6902,60.4488 227.8273,60.5279 228.9236,60.2555 229.2902,58.987 229.6614,57.7024 228.8072,55.7788 226.8309,55.2076 224.9691,54.6696 223.851,55.3276 223.0645,56.0103" stroke="black" stroke-width="1" /><polyline fill="none" points="234.7839,61.4612 235.5127,59.6105 237.5929,58.7718 239.3641,59.4692 241.1347,60.1664 242.0693,62.1923 241.3406,64.0429 240.7879,65.4467 240.2352,66.8504 239.6824,68.2541 238.9538,70.1045 236.8886,70.9499 235.118,70.2527 233.3468,69.5552 232.4128,67.5289 233.1414,65.6785 233.1362,65.6765 233.131,65.6744 233.1257,65.6723 234.8091,61.3971 236.4925,57.1219 238.1759,52.8468" stroke="black" stroke-width="1" /><polyline fill="none" points="255.3459,60.7562 254.4596,60.3071 253.4539,60.4707 252.8806,61.6024 252.3254,62.6984 251.7702,63.7944 251.215,64.8904 251.7552,65.1641 252.2955,65.4378 252.8357,65.7114 251.7957,65.1846 250.7556,64.6577 249.7156,64.1309 250.2154,64.384 250.7152,64.6372 251.215,64.8904 249.508,68.2601 247.801,71.6298 246.0939,74.9995" stroke="black" stroke-width="1" /><polyline fill="none" points="265.1005,74.0019 264.0486,75.6697 261.8637,76.1763 260.1958,75.1244 258.5135,74.0633 258.0155,71.8648 259.0674,70.1969 259.6101,69.3365 260.1528,68.476 260.6954,67.6155 261.7473,65.9477 263.9463,65.4491 265.6144,66.5012 267.2965,67.5621 267.7805,69.7526 266.7285,71.4205 264.9116,74.3015 263.0946,77.1824 261.2776,80.0634 260.226,81.7309 258.0408,82.2378 256.373,81.1859 254.9374,80.2805 254.3698,78.5439 254.8921,77.0081" stroke="black" stroke-width="1" /><polyline fill="none" points="279.2982,76.1418 276.494,79.7815 273.6898,83.4212 270.8856,87.061 269.6717,88.6366 267.4402,88.8651 265.9322,87.7033 264.438,86.5521 264.0896,84.3359 265.3035,82.7603 266.2242,81.5652 267.145,80.3702 268.0657,79.1751 269.2796,77.5995 271.5109,77.3718 273.0051,78.5229 274.5131,79.6847 274.8617,81.9001 273.6478,83.4758" stroke="black" stroke-width="1" /><polyline fill="none" points="282.94,83.8913 287.188,83.2328 275.4993,95.7741" stroke="black" stroke-width="1" /><polyline fill="none" points="285.2798,105.9926 288.4958,103.1331 284.4393,98.5709 297.7954,94.2679" stroke="black" stroke-width="1" /><polyline fill="none" points="292.5807,115.4177 296.0503,112.872 292.4388,107.9499 306.1392,104.9165" stroke="black" stroke-width="1" /><polyline fill="none" points="307.4896,113.2185 309.1817,112.206 311.3687,112.7558 312.3811,114.4478 313.4026,116.1549 312.8413,118.3887 311.1493,119.4012 310.4864,119.7978 309.9669,119.9293 309.5279,119.9323 305.0862,119.9656 300.6445,119.9989 296.2028,120.0323 296.0804,120.1055 295.958,120.1787 295.8356,120.252 297.0506,122.2825 298.2656,124.313 299.4807,126.3435" stroke="black" stroke-width="1" /><polyline fill="none" points="307.8805,135.3373 306.0859,136.1941 303.9988,135.4045 303.1787,133.6869 302.3586,131.9694 303.0496,129.8347 304.8442,128.9779 306.2056,128.3279 307.567,127.6779 308.9284,127.0279 310.7233,126.1709 312.8171,126.976 313.6371,128.6935 314.4572,130.4111 313.7596,132.5302 311.9647,133.3872" stroke="black" stroke-width="1" /><polyline fill="none" points="316.4042,141.5914 316.8668,143.1468 318.8803,144.2826 320.7234,143.6063 321.1524,143.4489 321.5813,143.2915 322.0103,143.1341 323.7491,142.4961 324.6453,140.5588 324.0013,138.8038 323.3634,137.0653 321.3947,136.18 319.6884,136.8061 319.2594,136.9635 318.8304,137.1208 318.4015,137.2782 316.6623,137.9164 315.7663,139.8529 316.4042,141.5914 317.107,143.507 316.0957,145.5782 314.2452,146.2572 313.6121,146.4895 312.9789,146.7219 312.3457,146.9542 310.4949,147.6333 308.4155,146.6961 307.7126,144.7805 307.0157,142.8811 307.9958,140.8224 309.8467,140.1433 310.4903,139.9071 311.134,139.6709 311.7776,139.4348 313.3643,138.8526 315.549,139.5552" stroke="black" stroke-width="1" /><polyline fill="none" points="314.0455,158.9797 313.0139,158.6313 311.9383,158.1172 311.3959,156.061 310.9104,154.2203 311.9869,152.252 313.9602,151.7315 315.4023,151.3512 316.8443,150.9708 318.2863,150.5905 320.2095,150.0832 322.1161,151.2646 322.6016,153.1053 323.0959,154.9791 322.0287,156.98 320.1055,157.4873 319.3873,157.6768 318.6691,157.8662 317.9509,158.0556 317.346,155.7622 316.741,153.4688 316.1361,151.1753" stroke="black" stroke-width="1" /><polyline fill="none" points="314.373,170.3397 318.6185,169.6366 317.6212,163.6138 331.2136,167.099" stroke="black" stroke-width="1" /><polyline fill="none" points="315.5205,182.2064 319.8132,181.904 319.3842,175.8142 332.5906,180.557" stroke="black" stroke-width="1" /><polyline fill="none" points="330.4735,188.1536 332.839,188.2091 332.6721,195.3238 315.65,189.9331" stroke="black" stroke-width="1" /><polyline fill="none" points="328.7091,202.7589 331.753,205.7943 314.7268,203.7893" stroke="black" stroke-width="1" /><polyline fill="none" points="321.3936,213.4068 323.3385,213.8233 324.5059,215.7386 324.1071,217.6 323.7086,219.4607 321.8627,220.7137 319.9178,220.2972 318.4426,219.9812 316.9675,219.6652 315.4923,219.3493 313.5478,218.9328 312.3763,217.0334 312.7748,215.1727 313.1735,213.3113 315.0201,212.0588 316.9646,212.4753 316.9658,212.4698 316.967,212.4643 316.9681,212.4589 321.4609,213.4212 325.9537,214.3835 330.4465,215.3458" stroke="black" stroke-width="1" /><polyline fill="none" points="312.0773,231.0043 310.1804,230.4076 309.1919,228.4069 309.7631,226.5914 310.3342,224.7758 312.2951,223.6853 314.192,224.2821 315.6312,224.7348 317.0703,225.1875 318.5093,225.6402 320.4067,226.2371 321.3894,228.2536 320.8183,230.0691 320.2471,231.8847 318.292,232.9594 316.3946,232.3625" stroke="black" stroke-width="1" /><polyline fill="none" points="312.3536,244.1575 312.3586,244.1596 312.3636,244.1617 312.3687,244.1638 310.2199,243.259 308.0712,242.3542 305.9224,241.4493 304.9293,241.0311 304.2547,241.5675 304.0357,242.0875 304.3153,241.4236 305.115,241.1093 305.7963,241.3962 305.8383,241.4139 305.8804,241.4316 305.9224,241.4493 305.4479,240.0583 305.3215,238.5913 305.9002,237.2171 306.3794,236.0792 307.7271,234.4699 310.0497,235.448 311.2666,235.9604 311.7545,236.9653 311.752,238.118 311.7582,238.6782 311.4261,240.3071 311.2059,241.4044 310.9943,242.5244 311.1367,243.645 312.3536,244.1575 313.5859,244.6764 315.5962,244.053 316.3946,242.1571 317.1467,240.371 316.624,239.1837 316.0379,238.3226" stroke="black" stroke-width="1" /><polyline fill="none" points="300.4676,252.5029 299.9506,251.5447 299.5142,250.4352 300.5194,248.5612 301.4192,246.8837 303.5487,246.1778 305.3471,247.1425 306.6613,247.8474 307.9756,248.5524 309.2898,249.2573 311.0426,250.1975 311.6318,252.3617 310.7319,254.0392 309.8159,255.747 307.671,256.4831 305.9182,255.5429 305.2637,255.1918 304.6091,254.8407 303.9546,254.4896 305.0757,252.3995 306.1969,250.3093 307.3181,248.2191" stroke="black" stroke-width="1" /><polyline fill="none" points="301.9847,263.8732 301.0043,265.1663 301.2797,267.4616 302.9153,268.5475 303.296,268.8003 303.6766,269.053 304.0573,269.3057 305.6003,270.3303 307.6924,269.9067 308.7264,268.3494 309.7508,266.8066 309.2999,264.6956 307.7857,263.6902 307.4051,263.4374 307.0244,263.1847 306.6437,262.932 305.1004,261.9073 303.009,262.3304 301.9847,263.8732 300.856,265.5731 298.5878,265.983 296.9457,264.8927 296.3838,264.5196 295.822,264.1466 295.2601,263.7735 293.6176,262.683 293.1431,260.4521 294.2717,258.7522 295.3909,257.0666 297.6306,256.639 299.273,257.7295 299.8442,258.1088 300.4154,258.488 300.9865,258.8672 302.3945,259.8021 303.1205,261.9792" stroke="black" stroke-width="1" /><polyline fill="none" points="298.6988,281.9072 295.1258,279.0184 291.5528,276.1297 287.9798,273.241 286.4331,271.9905 286.257,269.7542 287.4538,268.2739 288.6396,266.8071 290.8634,266.5107 292.4102,267.7612 293.5833,268.7097 294.7565,269.6582 295.9296,270.6067 297.4763,271.8572 297.6517,274.0933 296.4659,275.56 295.269,277.0403 293.046,277.3369 291.4993,276.0865" stroke="black" stroke-width="1" /><polyline fill="none" points="284.4155,287.3821 283.0049,286.0043 282.9673,283.7617 284.3451,282.3511 285.735,280.9283 287.9891,280.9019 289.3996,282.2798 290.1273,282.9906 290.8551,283.7015 291.5828,284.4123 292.9933,285.7902 293.0203,288.0448 291.6422,289.4556 290.2526,290.8782 288.0092,290.8926 286.5986,289.5147 284.1621,287.1347 281.7256,284.7546 279.2891,282.3745 277.8788,280.9969 277.8409,278.7541 279.2187,277.3435 280.4047,276.1295 282.2217,275.9382 283.614,276.7704" stroke="black" stroke-width="1" /><polyline fill="none" points="270.3518,290.3738 269.0656,288.8571 269.2968,286.6376 270.7484,285.4066 272.2,284.1756 274.4402,284.2993 275.7264,285.816 276.7022,286.9666 277.6779,288.1172 278.6536,289.2678 279.9401,290.7848 279.6956,293.0146 278.244,294.2456 276.7924,295.4766 274.5654,295.3426 273.279,293.8256" stroke="black" stroke-width="1" /><polyline fill="none" points="259.1223,294.2653 261.586,297.7936 266.5914,294.2986 269.3027,308.0663" stroke="black" stroke-width="1" /><polyline fill="none" points="252.6438,308.1789 252.6465,308.1836 252.6492,308.1884 252.6519,308.1931 251.502,306.1649 250.3521,304.1367 249.2021,302.1086 248.6707,301.1712 247.8089,301.1843 247.318,301.4627 247.9447,301.1074 248.77,301.3464 249.1346,301.9896 249.1571,302.0292 249.1796,302.0689 249.2021,302.1086 249.6752,300.717 250.4704,299.4779 251.7675,298.7424 252.8416,298.1335 254.8913,297.6812 256.1343,299.8734 256.7855,301.022 256.5587,302.1159 255.8533,303.0274 255.5163,303.4751 254.2591,304.5627 253.4149,305.2976 252.5638,306.0557 251.9926,307.0302 252.6438,308.1789 253.3034,309.3421 255.2763,310.0752 257.0659,309.0605 258.7517,308.1047 259.0623,306.8451 259.1235,305.8053" stroke="black" stroke-width="1" /><polyline fill="none" points="244.2812,312.7914 242.7622,313.3622 241.7707,315.4505 242.5748,317.2415 242.762,317.6584 242.9491,318.0752 243.1363,318.492 243.8949,320.1818 245.8904,320.9395 247.5958,320.1739 249.2852,319.4153 250.03,317.3893 249.2855,315.7312 249.0984,315.3143 248.9112,314.8975 248.7241,314.4807 247.9653,312.7906 245.9706,312.0329 244.2812,312.7914 242.4198,313.6271 240.2826,312.7639 239.4752,310.9656 239.199,310.3504 238.9227,309.7351 238.6465,309.1199 237.839,307.3214 238.6277,305.1812 240.4892,304.3454 242.3349,303.5167 244.4574,304.3498 245.2649,306.1483 245.5457,306.7738 245.8266,307.3993 246.1074,308.0247 246.7996,309.5665 246.2523,311.7953" stroke="black" stroke-width="1" /><polyline fill="none" points="227.3357,313.2789 226.6946,311.3964 227.7229,309.4159 229.5246,308.8024 231.3263,308.1888 233.3655,309.1247 234.0065,311.0072 234.4929,312.4353 234.9792,313.8633 235.4655,315.2914 236.1067,317.1743 235.0623,319.1595 233.2606,319.773 231.4589,320.3866 229.4359,319.446 228.7947,317.5631" stroke="black" stroke-width="1" /><polyline fill="none" points="224.605,324.5965 225.0631,326.5144 223.8824,328.4356 221.9645,328.8937 220.0295,329.3558 218.0671,328.1501 217.6091,326.2322 217.4296,325.4808 217.4601,324.9459 217.589,324.5262 218.8901,320.2792 220.1912,316.0321 221.4923,311.7851 221.4591,311.6464 221.426,311.5077 221.3929,311.369 219.0913,311.9186 216.7898,312.4684 214.4883,313.018" stroke="black" stroke-width="1" /><polyline fill="none" points="205.4281,331.9647 204.7839,327.4154 204.1397,322.8661 203.4955,318.3168 203.2167,316.3474 204.6125,314.5915 206.4974,314.3246 208.3649,314.0601 210.1938,315.3594 210.4726,317.3288 210.6841,318.8225 210.8956,320.3162 211.1072,321.81 211.386,323.7793 209.9897,325.5346 208.1222,325.7991 206.2374,326.066 204.409,324.7673 204.1301,322.7979" stroke="black" stroke-width="1" /><polyline fill="none" points="191.1653,319.1556 191.0721,317.1691 192.6098,315.552 194.511,315.4628 196.4122,315.3736 198.1114,316.8388 198.2046,318.8253 198.2753,320.3322 198.346,321.8392 198.4167,323.3462 198.5099,325.333 196.9554,326.9502 195.0542,327.0394 193.153,327.1286 191.4706,325.6633 191.3774,323.6765" stroke="black" stroke-width="1" /><polyline fill="none" points="178.3371,325.8833 178.4296,323.9136 180.0804,322.3954 182.0501,322.4878 184.0369,322.581 185.5545,324.248 185.462,326.2177 185.4144,327.2338 185.3667,328.25 185.319,329.2662 185.2266,331.2359 183.5596,332.7541 181.5895,332.6617 179.6031,332.5685 178.1017,330.9016 178.1941,328.9319 178.3537,325.5295 178.5134,322.1272 178.673,318.7249 178.7654,316.7556 180.4164,315.2369 182.386,315.3293 184.0814,315.4089 185.4316,316.6396 185.7348,318.2332" stroke="black" stroke-width="1" /><polyline fill="none" points="172.9941,322.8154 172.7152,324.7848 170.8867,326.0838 169.0019,325.8169 167.1178,325.5501 165.7381,323.7968 166.017,321.8275 166.2285,320.3337 166.44,318.84 166.6516,317.3463 166.9304,315.3773 168.7427,314.0753 170.6268,314.342 172.5116,314.6089 173.8908,316.3629 173.612,318.3319 173.6176,318.3327 173.6231,318.3335 173.6286,318.3342 172.9844,322.8835 172.3402,327.4329 171.696,331.9821" stroke="black" stroke-width="1" /><polyline fill="none" points="152.1452,328.168 154.1411,328.6447 156.1371,329.1214 158.133,329.5981 158.761,326.9688 159.389,324.3394 160.017,321.7101 159.1006,322.7426 158.0194,323.2078 156.5687,322.8613 154.5674,322.3833 153.411,320.3618 153.853,318.5113 154.169,317.1884 154.485,315.8654 154.8009,314.5424 155.2629,312.6082 157.1522,311.5609 158.9704,311.9951 160.7713,312.4253 161.9667,314.2093 161.5048,316.1436" stroke="black" stroke-width="1" /><polyline fill="none" points="141.6841,315.9587 141.6823,315.9639 141.6806,315.9691 141.6788,315.9743 142.4304,313.7672 143.182,311.5602 143.9336,309.3531 144.2809,308.3331 143.6985,307.6979 143.1644,307.516 143.8463,307.7482 144.216,308.5238 143.9777,309.2237 143.963,309.2668 143.9483,309.31 143.9336,309.3531 145.2879,308.7821 146.7423,308.5529 148.1538,309.0336 149.3226,309.4316 151.0226,310.6629 150.2102,313.0485 149.7845,314.2984 148.8164,314.8557 147.6664,314.9342 147.1079,314.9799 145.4598,314.7631 144.3497,314.6204 143.2176,314.4881 142.1097,314.7088 141.6841,315.9587 141.253,317.2245 142.0161,319.186 143.9635,319.8492 145.798,320.4739 146.9457,319.8691 147.7634,319.2239" stroke="black" stroke-width="1" /><polyline fill="none" points="133.8391,318.4808 133.1087,320.1077 131.1019,320.9359 129.334,320.1422 127.5671,319.3489 126.8012,317.3689 127.6297,315.5234 127.7608,315.2316 127.8918,314.9398 128.0228,314.6479 129.2869,311.8325 131.9531,312.4662 132.2666,312.607 132.5688,312.7427 132.8711,312.8784 133.1733,313.0141 132.8711,312.8784 132.5688,312.7427 132.2666,312.607 131.3432,312.1924 129.864,310.2124 130.8469,308.0232 131.1349,307.3818 131.4229,306.7404 131.7108,306.0989 132.5252,304.2851 134.6421,303.5063 136.4566,304.3209 138.2868,305.1426 139.0951,307.2348 138.2807,309.0486" stroke="black" stroke-width="1" /><polyline fill="none" points="115.9426,309.1728 119.691,307.3826 123.4394,305.5924 127.1878,303.8022 125.5079,306.7652 123.8279,309.7281 122.148,312.6911 121.1754,314.4064 119.0011,315.0068 117.2863,314.0346 115.5555,313.0532 114.97,310.8881 115.9426,309.1728 117.6225,306.2098 119.3024,303.2468 120.9823,300.2839 121.9549,298.5685 124.1131,297.9598 125.8287,298.9326 127.5587,299.9134 128.1603,302.0869 127.1878,303.8022" stroke="black" stroke-width="1" /><polyline fill="none" points="103.5015,305.1365 105.184,306.3114 106.8666,307.4862 108.5491,308.6611 110.0967,306.4446 111.6444,304.2282 113.1921,302.0117 111.9611,302.6368 110.7846,302.6734 109.5618,301.8195 107.8748,300.6415 107.5394,298.3369 108.6287,296.777 109.4074,295.6618 110.1861,294.5466 110.9648,293.4315 112.1033,291.801 114.245,291.5187 115.7776,292.5889 117.2957,293.6489 117.7544,295.7469 116.6158,297.3774" stroke="black" stroke-width="1" /><polyline fill="none" points="104.8098,292.6916 103.5345,294.1955 101.2866,294.3807 99.7832,293.1058 98.2657,291.8189 98.0944,289.5823 99.3698,288.0784 100.0276,287.3027 100.6854,286.527 101.3432,285.7513 102.6185,284.2474 104.8526,284.0515 106.3701,285.3384 107.8735,286.6133 108.0585,288.8607 106.7832,290.3646 104.5803,292.9623 102.3773,295.5601 100.1744,298.1578 98.8993,299.6614 96.6516,299.8463 95.1483,298.5714 93.853,297.473 93.5351,295.675 94.2673,294.2279" stroke="black" stroke-width="1" /><polyline fill="none" points="95.6939,275.453 92.6155,278.4601 96.8814,282.8272 83.7416,287.7515" stroke="black" stroke-width="1" /><polyline fill="none" points="79.0786,272.1924 80.612,270.9527 82.8436,271.1776 84.0833,272.711 85.3338,274.2577 85.0965,276.4994 83.5631,277.7391 82.772,278.3787 81.9809,279.0183 81.1898,279.6579 79.6564,280.8976 77.4142,280.6607 76.1742,279.127 74.9239,277.5806 75.172,275.3509 76.7054,274.1112 79.354,271.9697 82.0027,269.8283 84.6514,267.6869 86.1845,266.4474 88.4164,266.672 89.6561,268.2054 90.7232,269.5252 90.7007,271.3521 89.7112,272.6375" stroke="black" stroke-width="1" /><polyline fill="none" points="66.3288,265.59 70.1566,263.0485 73.9844,260.5071 77.8122,257.9656 79.4692,256.8654 81.6552,257.3685 82.7082,258.9544 83.7515,260.5257 83.3669,262.736 81.7099,263.8362 80.4531,264.6706 79.1963,265.5051 77.9394,266.3395 76.2824,267.4397 74.0968,266.936 73.0535,265.3646 72.0005,263.7787 72.3847,261.5692 74.0417,260.469" stroke="black" stroke-width="1" /><polyline fill="none" points="66.1125,258.1215 64.3749,259.0535 62.2161,258.4019 61.284,256.6642 60.3437,254.9111 61.009,252.7061 62.7467,251.774 63.4275,251.4088 63.9525,251.3019 64.3912,251.3195 68.8296,251.4944 73.268,251.6693 77.7064,251.8442 77.8321,251.7768 77.9578,251.7094 78.0834,251.6419 76.9649,249.5567 75.8464,247.4715 74.7279,245.3862" stroke="black" stroke-width="1" /><polyline fill="none" points="54.0971,241.4579 58.3317,239.6748 62.5662,237.8916 66.8008,236.1084 68.6339,235.3365 70.6878,236.2384 71.4266,237.9928 72.1586,239.7311 71.3686,241.8309 69.5355,242.6028 68.1452,243.1883 66.7548,243.7738 65.3644,244.3593 63.5313,245.1312 61.4779,244.2287 60.7459,242.4904 60.0071,240.736 60.7965,238.6368 62.6296,237.8649" stroke="black" stroke-width="1" /><polyline fill="none" points="50.4089,229.9455 50.7071,230.8933 51.5268,231.4984 52.737,231.1177 53.909,230.749 55.081,230.3803 56.253,230.0117 56.0712,229.4339 55.8895,228.8562 55.7077,228.2785 56.0576,229.3907 56.4075,230.5028 56.7573,231.615 56.5892,231.0805 56.4211,230.5461 56.253,230.0117 59.8563,228.8781 63.4596,227.7446 67.0629,226.611" stroke="black" stroke-width="1" /><polyline fill="none" points="50.491,221.8181 48.1773,222.3137 46.6868,215.3548 64.4955,216.6437" stroke="black" stroke-width="1" /><polyline fill="none" points="60.0557,200.1266 61.0282,200.6162 62.0212,201.2761 62.2699,203.388 62.4925,205.2786 61.1507,207.0765 59.1239,207.3152 57.6428,207.4896 56.1617,207.664 54.6805,207.8384 52.7052,208.0711 50.9831,206.634 50.7604,204.7434 50.5338,202.8188 51.871,200.9873 53.8463,200.7546 54.584,200.6678 55.3216,200.5809 56.0593,200.494 56.3367,202.8496 56.6141,205.2052 56.8915,207.5608" stroke="black" stroke-width="1" /><polyline fill="none" points="44.331,189.9764 44.3543,190.9697 44.9738,191.7787 46.2421,191.7489 47.4704,191.7201 48.6986,191.6913 49.9269,191.6625 49.9127,191.0571 49.8985,190.4516 49.8843,189.8462 49.9117,191.0117 49.939,192.1773 49.9663,193.3428 49.9532,192.7827 49.9401,192.2226 49.9269,191.6625 53.7033,191.574 57.4796,191.4854 61.256,191.3969" stroke="black" stroke-width="1" /><polyline fill="none" points="52.6036,178.905 52.8186,177.2966 51.447,175.4357 49.4886,175.2977 49.0328,175.2656 48.577,175.2335 48.1212,175.2014 46.2736,175.0712 44.6626,176.4715 44.5312,178.3363 44.401,180.1835 45.8344,181.7976 47.6475,181.9253 48.1033,181.9575 48.5591,181.9896 49.0149,182.0217 50.8629,182.1519 52.4735,180.7523 52.6036,178.905 52.747,176.8696 54.518,175.3943 56.4842,175.5328 57.157,175.5802 57.8298,175.6276 58.5025,175.675 60.4691,175.8135 61.9823,177.5202 61.8389,179.5556 61.6967,181.5739 59.9593,183.0505 57.9927,182.912 57.3087,182.8638 56.6248,182.8156 55.9409,182.7674 54.255,182.6486 52.5497,181.1128" stroke="black" stroke-width="1" /><polyline fill="none" points="50.219,161.9509 53.1908,164.8533 56.1626,167.7556 59.1344,170.658 55.7741,170.1015 52.4138,169.545 49.0535,168.9886 47.1082,168.6664 45.7955,166.8319 46.1176,164.8872 46.4426,162.9242 48.2736,161.6288 50.219,161.9509 53.5793,162.5074 56.9396,163.0639 60.2999,163.6204 62.2452,163.9425 63.5601,165.7589 63.2379,167.7047 62.913,169.6666 61.0798,170.9801 59.1344,170.658" stroke="black" stroke-width="1" /><polyline fill="none" points="58.0663,150.7571 58.0611,150.7557 58.0558,150.7543 58.0505,150.7529 60.3049,151.3476 62.5593,151.9422 64.8137,152.5368 65.8556,152.8117 66.4483,152.1861 66.5923,151.6404 66.4085,152.337 65.6608,152.7603 64.946,152.5717 64.9019,152.5601 64.8578,152.5485 64.8137,152.5368 65.4785,153.8477 65.8093,155.2824 65.429,156.7242 65.1141,157.918 64.0053,159.7003 61.5686,159.0576 60.2919,158.7209 59.6679,157.7943 59.5088,156.6527 59.424,156.0988 59.5244,154.4395 59.5887,153.3221 59.6412,152.1835 59.3431,151.0939 58.0663,150.7571 56.7734,150.4161 54.8704,151.3152 54.3457,153.3044 53.8514,155.1782 54.5354,156.2805 55.2365,157.0509" stroke="black" stroke-width="1" /><polyline fill="none" points="68.6648,140.8277 69.3111,141.704 69.8987,142.7413 69.1662,144.7377 68.5105,146.5248 66.501,147.5223 64.5851,146.8193 63.185,146.3056 61.7849,145.7919 60.3848,145.2781 58.5175,144.593 57.6308,142.5328 58.2865,140.7457 58.954,138.9263 60.9746,137.8968 62.8418,138.5819 63.5391,138.8378 64.2364,139.0936 64.9338,139.3495 64.1167,141.5762 63.2997,143.8029 62.4827,146.0296" stroke="black" stroke-width="1" /><polyline fill="none" points="59.8363,130.8071 58.227,130.0387 57.446,128.0131 58.281,126.2642 59.1155,124.5164 61.1129,123.7971 62.9384,124.6687 63.2271,124.8065 63.5158,124.9444 63.8044,125.0822 66.5895,126.4119 65.8934,129.0626 65.7454,129.3726 65.6026,129.6716 65.4599,129.9706 65.3171,130.2696 65.4599,129.9706 65.6026,129.6716 65.7454,129.3726 66.1815,128.4592 68.1956,127.0268 70.3612,128.0608 70.9957,128.3637 71.6302,128.6667 72.2647,128.9696 74.059,129.8263 74.7879,131.9609 73.9309,133.7558 73.0666,135.5662 70.956,136.3252 69.1617,135.4685" stroke="black" stroke-width="1" /><polyline fill="none" points="69.5613,113.1336 71.2631,116.923 72.965,120.7123 74.6668,124.5017 71.744,122.7528 68.8212,121.0038 65.8985,119.2549 64.2064,118.2424 63.6572,116.0545 64.6693,114.3631 65.691,112.6557 67.8693,112.1211 69.5613,113.1336 72.4841,114.8826 75.4069,116.6315 78.3296,118.3804 80.0217,119.3929 80.5796,121.5648 79.567,123.2571 78.5458,124.9636 76.3588,125.5142 74.6668,124.5017" stroke="black" stroke-width="1" /><polyline fill="none" points="77.1414,102.3272 78.4809,106.2592 79.8204,110.1913 81.1599,114.1233 78.4137,112.1084 75.6676,110.0935 72.9214,108.0785 71.3316,106.912 70.9897,104.6824 72.1557,103.0931 73.3328,101.4889 75.5516,101.1607 77.1414,102.3272 79.8875,104.3421 82.6337,106.357 85.3798,108.372 86.9697,109.5385 87.3218,111.753 86.1551,113.3431 84.9786,114.9465 82.7497,115.2898 81.1599,114.1233" stroke="black" stroke-width="1" /><polyline fill="none" points="80.9811,97.5851 79.5075,96.2748 79.3757,94.0237 80.6859,92.5501 82.0078,91.0634 84.307,90.9285 85.7806,92.2388 86.3579,92.7521 86.6392,93.2082 86.7738,93.626 88.1385,97.853 89.5032,102.0801 90.8679,106.3071 90.9745,106.4018 91.081,106.4966 91.1876,106.5914 92.7599,104.823 94.3323,103.0547 95.9046,101.2863" stroke="black" stroke-width="1" /><polyline fill="none" points="97.3248,85.2308 98.6692,86.6732 98.6017,88.9151 97.1592,90.2595 95.7042,91.6157 93.4514,91.5364 92.1069,90.0939 91.4133,89.3497 90.7197,88.6056 90.0261,87.8614 88.6817,86.4189 88.7605,84.1655 90.2032,82.8209 91.658,81.465 93.8995,81.5557 95.244,82.9982 97.5662,85.4899 99.8885,87.9815 102.2108,90.4731 103.555,91.9154 103.4877,94.1575 102.0453,95.5019 100.8037,96.6591 98.9798,96.765 97.628,95.8684" stroke="black" stroke-width="1" /><polyline fill="none" points="104.1473,84.844 102.9439,83.282 103.2337,81.0452 104.7951,79.8421 106.3713,78.6278 108.5942,78.9288 109.7976,80.4908 110.4183,81.2965 111.0391,82.1021 111.6598,82.9078 112.8632,84.4699 112.5869,86.6954 111.0107,87.9098 109.4492,89.1128 107.2129,88.8231 106.0095,87.261 103.9307,84.5629 101.852,81.8647 99.7732,79.1665 98.57,77.6048 98.86,75.3683 100.4214,74.1653 101.7667,73.1288 103.5915,73.1945 104.8532,74.2135" stroke="black" stroke-width="1" /><polyline fill="none" points="122.666,77.5991 122.6431,78.6878 122.4755,79.8681 120.6768,81.0025 119.0667,82.018 116.8661,81.5817 115.7774,79.8556 114.9818,78.5941 114.1863,77.3327 113.3907,76.0713 112.3297,74.3889 112.8845,72.2157 114.4947,71.2002 116.1339,70.1664 118.3628,70.5839 119.4238,72.2663 119.82,72.8945 120.2163,73.5228 120.6125,74.1511 118.6063,75.4163 116.6001,76.6816 114.5939,77.9469" stroke="black" stroke-width="1" /><polyline fill="none" points="121.7668,64.514 120.8757,62.755 121.5778,60.6121 123.3368,59.721 125.1115,58.8221 127.3003,59.5389 128.1914,61.2979 128.5405,61.9871 128.6351,62.5145 128.6072,62.9526 128.3283,67.3857 128.0494,71.8188 127.7705,76.2519 127.835,76.3791 127.8994,76.5063 127.9639,76.6336 130.0748,75.5642 132.1856,74.4949 134.2965,73.4256" stroke="black" stroke-width="1" /><polyline fill="none" points="140.2781,56.2081 139.3136,60.2485 138.349,64.2889 137.3844,68.3293 136.1365,65.1601 134.8886,61.9909 133.6407,58.8216 132.9182,56.9869 133.8184,54.9186 135.6525,54.1964 137.5039,53.4674 139.5557,54.3734 140.2781,56.2081 141.526,59.3773 142.774,62.5465 144.0219,65.7158 144.7443,67.5505 143.8608,69.6115 142.0257,70.3341 140.1754,71.0627 138.1069,70.1641 137.3844,68.3293" stroke="black" stroke-width="1" /><polyline fill="none" points="151.6246,48.8258 152.9003,53.2399 154.176,57.6539 155.4516,62.0679 156.0039,63.9787 154.868,65.9131 153.0392,66.4416 151.2272,66.9652 149.2342,65.9352 148.682,64.0244 148.2631,62.5751 147.8443,61.1257 147.4254,59.6764 146.8732,57.7656 148.0096,55.8319 149.8216,55.3082 151.6504,54.7797 153.6429,55.8092 154.1951,57.72" stroke="black" stroke-width="1" /><polyline fill="none" points="159.8797,56.3564 159.5088,54.4022 160.8209,52.5831 162.6912,52.2282 164.5607,51.8734 166.4319,53.0883 166.8028,55.0424 167.0841,56.5246 167.3654,58.0068 167.6467,59.4889 168.0175,61.4427 166.7217,63.2594 164.8521,63.6143 162.9819,63.9692 161.1109,62.7535 160.7401,60.7997 160.7346,60.8008 160.7291,60.8018 160.7236,60.8029 159.8669,56.2887 159.0101,51.7746 158.1534,47.2605" stroke="black" stroke-width="1" /><polyline fill="none" points="256.7212,239.5049 140.3048,268.1431 140.8637,108.5745 136.578,231.1149 268.4255,140.8637 268.4255,140.8637 239.8942,231.6324 108.8569,140.3048 96.1804,188.1635 189.0084,152.2515" stroke="black" stroke-width="1" /><polyline fill="none" points="182.6425,135.7963 195.3744,168.7066" stroke="black" stroke-width="1" /><polyline fill="none" points="279.9055,236.6952 279.7607,234.8551 279.3298,233.0604 278.6234,231.3551 277.6591,229.7814 276.4604,228.3779 275.0569,227.1792 273.4831,226.2148 271.7779,225.5085 269.9831,225.0776 268.1431,224.9328 266.303,225.0776 264.5083,225.5085 262.803,226.2148 261.2293,227.1792 259.8258,228.3779 258.6271,229.7814 257.6627,231.3551 256.9564,233.0604 256.5255,234.8551 256.3807,236.6952 256.5255,238.5352 256.9564,240.3299 257.6627,242.0352 258.6271,243.6089 259.8258,245.0124 261.2293,246.2111 262.803,247.1755 264.5083,247.8819 266.303,248.3127 268.1431,248.4576 269.9831,248.3127 271.7779,247.8819 273.4831,247.1755 275.0568,246.2111 276.4604,245.0124 277.6591,243.6089 278.6234,242.0352 279.3298,240.3299 279.7607,238.5352 279.9055,236.6952" stroke="black" stroke-width="1" /><polyline fill="none" points="188.5,69.0664 199.6839,69.5912 210.7696,71.161 221.6595,73.7619 232.2581,77.3712 242.4721,81.9571 252.2118,87.4792 261.3915,93.8892 269.9308,101.1306 277.7544,109.1398 284.7936,117.8464 290.9866,127.1739 296.2789,137.0404 300.6241,147.3591 303.9839,158.0393 306.3289,168.9873 307.6383,180.1067 307.9008,191.2998 307.114,202.4684 305.2847,213.5142 302.4292,224.3402 298.5725,234.8512 293.7484,244.9549 287.9994,254.5625 281.376,263.5894 273.9365,271.9565 265.7461,279.5902 256.8768,286.4234 247.4067,292.3961 237.4188,297.4556 227.0011,301.5577 216.2451,304.6663 205.2452,306.7539 194.0981,307.8023 182.9019,307.8023 171.7548,306.7539 160.7549,304.6663 149.9989,301.5577 139.5811,297.4556 129.5933,292.3961 120.1232,286.4234 111.2539,279.5902 103.0635,271.9565 95.6239,263.5894 89.0006,254.5625 83.2516,244.9549 78.4275,234.8512 74.5708,224.3402 71.7153,213.5142 69.8861,202.4684 69.0992,191.2998 69.3617,180.1067 70.6712,168.9872 73.0161,158.0393 76.3759,147.3591 80.7211,137.0404 86.0134,127.174 92.2064,117.8464 99.2457,109.1398 107.0692,101.1306 115.6085,93.8892 124.7882,87.4792 134.5279,81.957 144.7419,77.3712 155.3405,73.7619 166.2304,71.161 177.3161,69.5912 188.5,69.0664" stroke="black" stroke-width="1" />

    </g>
  </g>
  <WCB
     pausedposy="0"
     pausedposx="0"
     lastknownposy="0"
     lastknownposx="0"
     lastpathnc="0"
     lastpath="0"
     node="0"
     layer="0" />
</svg>
