<?xml version="1.0" encoding="UTF-8" standalone="no"?>
<!-- Created with Inkscape (http://www.inkscape.org/) -->

<svg
   xmlns:dc="http://purl.org/dc/elements/1.1/"
   xmlns:cc="http://creativecommons.org/ns#"
   xmlns:rdf="http://www.w3.org/1999/02/22-rdf-syntax-ns#"
   xmlns:svg="http://www.w3.org/2000/svg"
   xmlns="http://www.w3.org/2000/svg"
   xmlns:sodipodi="http://sodipodi.sourceforge.net/DTD/sodipodi-0.dtd"
   xmlns:inkscape="http://www.inkscape.org/namespaces/inkscape"
   width="100mm"
   height="100mm"
   viewBox="0 0 100 100"
   version="1.1"
   id="svg19124"
   inkscape:version="0.92.3 (2405546, 2018-03-11)"
   sodipodi:docname="inkscape_template_TMP.svg"
   shape-rendering="crispEdges">
  <sodipodi:namedview
     pagecolor="#ffffff"
     bordercolor="#666666"
     borderopacity="1"
     objecttolerance="10"
     gridtolerance="10"
     guidetolerance="10"
     inkscape:pageopacity="0"
     inkscape:pageshadow="2"
     inkscape:window-width="1568"
     inkscape:window-height="1550"
     id="namedview24021"
     showgrid="false"
     inkscape:zoom="0.62441667"
     inkscape:cx="712.66515"
     inkscape:cy="409.98265"
     inkscape:window-x="0"
     inkscape:window-y="0"
     inkscape:window-maximized="0"
     inkscape:current-layer="layer1" />
  <defs
     id="defs19118" />
  <metadata
     id="metadata19121">
    <rdf:RDF>
      <cc:Work
         rdf:about="">
        <dc:format>image/svg+xml</dc:format>
        <dc:type
           rdf:resource="http://purl.org/dc/dcmitype/StillImage" />
        <dc:title />
      </cc:Work>
    </rdf:RDF>
  </metadata>
  <g
     transform="translate(0,-197)"
     id="layer1"
     inkscape:groupmode="layer"
     inkscape:label="Layer 1">
    <g
       id="g24447"
       transform="matrix(0.26458333,0,0,0.26458333,0.10666333,197.9735)">

<polyline fill="none" points="192.1004,47.7394 189.7225,51.1455 187.3447,54.5516 184.9669,57.9577 184.9669,54.5516 184.9669,51.1455 184.9669,47.7394 184.9669,45.7676 186.5623,44.1729 188.5334,44.1729 190.5231,44.1729 192.1004,45.7676 192.1004,47.7394 192.1004,51.1455 192.1004,54.5516 192.1004,57.9577 192.1004,59.9295 190.5231,61.5235 188.5509,61.5235 186.5623,61.5235 184.9669,59.9295 184.9669,57.9577" stroke="black" stroke-width="1" /><polyline fill="none" points="197.8298,61.5877 200.7471,57.7851 198.696,53.7706 202.935,62.0679 200.7471,57.7851 203.4811,54.2207" stroke="black" stroke-width="1" /><polyline fill="none" points="211.3535,48.3775 211.7947,46.0529 218.7866,47.3798 210.6873,63.2925" stroke="black" stroke-width="1" /><polyline fill="none" points="228.0957,63.9602 227.5436,65.8707 225.5666,66.9057 223.7382,66.3773 221.9097,65.8489 220.7736,63.9141 221.3257,62.0037 221.7446,60.5543 222.1634,59.105 222.5823,57.6557 223.1345,55.7449 225.1274,54.7152 226.9558,55.2436 228.7843,55.772 229.9045,57.7014 229.3523,59.6123" stroke="black" stroke-width="1" /><polyline fill="none" points="244.0779,55.3087 242.1685,54.5568 240.2591,53.805 238.3497,53.0531 237.3592,55.5685 236.3688,58.0838 235.3783,60.5992 236.4305,59.7053 237.5662,59.3963 238.954,59.9428 240.8685,60.6966 241.73,62.8603 241.033,64.6306 240.5346,65.8962 240.0363,67.1618 239.5379,68.4273 238.8093,70.2777 236.7919,71.0498 235.0525,70.3649 233.3297,69.6865 232.3962,67.7525 233.1248,65.9021" stroke="black" stroke-width="1" /><polyline fill="none" points="255.3215,64.5589 251.6611,66.5229 248.0007,68.4868 244.3403,70.4507 245.8795,67.4122 247.4188,64.3738 248.958,61.3353 249.849,59.5763 251.9929,58.8747 253.7513,59.7654 255.5263,60.6646 256.2126,62.7999 255.3215,64.5589 253.7823,67.5974 252.2431,70.6358 250.7039,73.6743 249.8128,75.4333 247.6855,76.1425 245.9262,75.2513 244.1522,74.3526 243.4493,72.2097 244.3403,70.4507" stroke="black" stroke-width="1" /><polyline fill="none" points="261.1025,66.494 262.3647,64.4926 268.3842,68.289 255.018,80.1278" stroke="black" stroke-width="1" /><polyline fill="none" points="271.6341,74.8577 272.8375,73.2957 275.0738,73.006 276.6359,74.2094 278.2117,75.4236 278.5079,77.7077 277.3045,79.2697 276.833,79.8817 276.3978,80.1943 275.9904,80.3579 271.8698,82.0163 267.7491,83.6746 263.6285,85.333 263.5414,85.446 263.4544,85.559 263.3673,85.672 265.2418,87.1161 267.1163,88.5603 268.9908,90.0045" stroke="black" stroke-width="1" /><polyline fill="none" points="282.5785,82.1711 284.1917,80.4402 289.3978,85.2924 274.0586,94.4313" stroke="black" stroke-width="1" /><polyline fill="none" points="298.6561,95.0425 295.2224,98.0955 291.7888,101.1486 288.3551,104.2016 286.8687,105.5232 284.6337,105.3316 283.3688,103.909 282.1155,102.4995 282.1864,100.2571 283.6728,98.9355 284.8002,97.9331 285.9276,96.9306 287.055,95.9282 288.5414,94.6066 290.7761,94.7989 292.0294,96.2085 293.2943,97.6311 293.2238,99.8726 291.7373,101.1943" stroke="black" stroke-width="1" /><polyline fill="none" points="300.7892,103.3351 305.0854,103.4803 291.2632,113.6222" stroke="black" stroke-width="1" /><polyline fill="none" points="302.6975,116.1122 304.4043,115.0909 306.564,115.696 307.5415,117.3295 308.5186,118.9624 308.0226,121.1376 306.3158,122.1589 305.0212,122.9336 303.7267,123.7082 302.4321,124.4829 300.7256,125.504 298.5737,124.9133 297.5966,123.2804 296.6191,121.6468 297.116,119.4716 298.8224,118.4505 298.8196,118.4457 298.8167,118.4409 298.8138,118.4361 302.7565,116.0768 306.6993,113.7176 310.642,111.3583" stroke="black" stroke-width="1" /><polyline fill="none" points="320.2729,129.3005 316.1266,131.2802 311.9803,133.2599 307.8339,135.2395 306.039,136.0965 303.9451,135.2919 303.1249,133.5741 302.3122,131.872 303.0029,129.7375 304.7978,128.8805 306.1592,128.2305 307.5206,127.5805 308.882,126.9305 310.6769,126.0735 312.7703,126.8787 313.583,128.5808 314.4032,130.2987 313.7131,132.4325 311.9182,133.2895" stroke="black" stroke-width="1" /><polyline fill="none" points="319.6768,136.7748 321.3509,136.1606 323.3457,137.0173 324.0132,138.8367 324.6804,140.655 323.7992,142.5864 321.9001,143.2832 321.5998,143.3934 321.2995,143.5036 320.9991,143.6138 318.1019,144.6769 316.6921,142.3268 316.5738,142.0042 316.4597,141.6932 316.3455,141.3822 316.2314,141.0711 316.3455,141.3822 316.4597,141.6932 316.5738,142.0042 316.9224,142.9545 316.5397,145.3962 314.2868,146.2228 313.6267,146.465 312.9666,146.7072 312.3065,146.9494 310.44,147.6343 308.4036,146.6642 307.7185,144.7969 307.0274,142.9136 307.9592,140.8734 309.8258,140.1885" stroke="black" stroke-width="1" /><polyline fill="none" points="314.0455,158.9797 313.0139,158.6313 311.9383,158.1172 311.3959,156.061 310.9104,154.2203 311.9869,152.252 313.9602,151.7315 315.4023,151.3512 316.8443,150.9708 318.2863,150.5905 320.2095,150.0832 322.1161,151.2646 322.6016,153.1053 323.0959,154.9791 322.0287,156.98 320.1055,157.4873 319.3873,157.6768 318.6691,157.8662 317.9509,158.0556 317.346,155.7622 316.741,153.4688 316.1361,151.1753" stroke="black" stroke-width="1" /><polyline fill="none" points="322.9498,169.5073 322.9551,169.5064 322.9606,169.5055 322.9659,169.5046 320.6658,169.8855 318.3656,170.2664 316.0654,170.6473 315.0023,170.8234 314.7178,171.6369 314.8101,172.1936 314.6924,171.4829 315.2011,170.7905 315.9305,170.6697 315.9754,170.6622 316.0204,170.6548 316.0654,170.6473 314.922,169.7238 314.0326,168.5505 313.789,167.0794 313.5873,165.8613 313.8687,163.7812 316.3549,163.3695 317.6576,163.1538 318.6064,163.7435 319.2191,164.7198 319.5233,165.1903 320.1113,166.7452 320.5104,167.7909 320.9289,168.8511 321.6471,169.723 322.9498,169.5073 324.269,169.2888 325.6368,167.6892 325.3007,165.6596 324.9841,163.7477 323.9085,163.0222 322.9535,162.6066" stroke="black" stroke-width="1" /><polyline fill="none" points="324.3994,178.9469 324.412,180.5696 326.0309,182.2198 327.9894,182.0818 328.4452,182.0497 328.9009,182.0176 329.3568,181.9855 331.2044,181.8553 332.6031,180.243 332.4718,178.3782 332.3416,176.531 330.6961,175.1338 328.8831,175.2615 328.4272,175.2937 327.9715,175.3258 327.5157,175.3579 325.6677,175.4881 324.2692,177.0997 324.3994,178.9469 324.5427,180.9823 322.9961,182.6914 321.0298,182.8299 320.3571,182.8773 319.6843,182.9247 319.0116,182.9721 317.0449,183.1106 315.3074,181.6329 315.1641,179.5976 315.0219,177.5793 316.5351,175.8737 318.5017,175.7351 319.1856,175.6869 319.8696,175.6387 320.5535,175.5906 322.2394,175.4718 324.1431,176.7534" stroke="black" stroke-width="1" /><polyline fill="none" points="329.3041,188.2994 331.2754,188.3456 332.8319,189.9773 332.7857,191.9486 332.7391,193.9374 331.0727,195.5274 329.1014,195.4812 328.3291,195.4631 327.8196,195.2971 327.4467,195.0655 323.672,192.7242 319.8972,190.383 316.1225,188.0418 315.9799,188.0384 315.8373,188.0351 315.6947,188.0317 315.6393,190.3974 315.5838,192.763 315.5283,195.1286" stroke="black" stroke-width="1" /><polyline fill="none" points="329.8821,201.4498 332.232,201.7265 331.3997,208.7943 314.9572,201.8333" stroke="black" stroke-width="1" /><polyline fill="none" points="313.8354,218.9 313.0726,218.1229 312.3454,217.1782 312.7908,215.0989 313.1895,213.2375 315.0392,211.9681 317.0348,212.3955 318.493,212.7079 319.9514,213.0202 321.4096,213.3326 323.3545,213.7492 324.5214,215.6647 324.1227,217.5261 323.7169,219.421 321.8607,220.7237 319.9158,220.3071 319.1895,220.1516 318.4632,219.996 317.7369,219.8404 318.2336,217.5212 318.7304,215.2019 319.2272,212.8827" stroke="black" stroke-width="1" /><polyline fill="none" points="308.994,229.1818 313.099,230.4732 314.931,224.6497 325.4814,233.9012" stroke="black" stroke-width="1" /><polyline fill="none" points="312.3536,244.1575 312.3586,244.1596 312.3636,244.1617 312.3687,244.1638 310.2199,243.259 308.0712,242.3542 305.9224,241.4493 304.9293,241.0311 304.2547,241.5675 304.0357,242.0875 304.3153,241.4236 305.115,241.1093 305.7963,241.3962 305.8383,241.4139 305.8804,241.4316 305.9224,241.4493 305.4479,240.0583 305.3215,238.5913 305.9002,237.2171 306.3794,236.0792 307.7271,234.4699 310.0497,235.448 311.2666,235.9604 311.7545,236.9653 311.752,238.118 311.7582,238.6782 311.4261,240.3071 311.2059,241.4044 310.9943,242.5244 311.1367,243.645 312.3536,244.1575 313.5859,244.6764 315.5962,244.053 316.3946,242.1571 317.1467,240.371 316.624,239.1837 316.0379,238.3226" stroke="black" stroke-width="1" /><polyline fill="none" points="307.9089,248.5121 309.6465,249.4442 310.2984,251.6035 309.3666,253.3405 308.4261,255.0939 306.275,255.7298 304.5373,254.7977 303.6411,254.317 302.7448,253.8362 301.8485,253.3555 300.1109,252.4234 299.4514,250.2799 300.3919,248.5265 301.3237,246.7895 303.4825,246.1378 305.2201,247.0699 308.2216,248.6799 311.2232,250.2899 314.2247,251.8999 315.962,252.8318 316.6136,254.9909 315.6818,256.728 314.8791,258.2245 313.1874,258.912 311.6191,258.4991" stroke="black" stroke-width="1" /><polyline fill="none" points="299.8036,266.2751 299.8081,266.2781 299.8127,266.2812 299.8173,266.2842 297.8749,264.9946 295.9325,263.705 293.9902,262.4153 293.0925,261.8193 292.3297,262.2204 292.0175,262.6906 292.416,262.0904 293.2603,261.9307 293.8762,262.3397 293.9142,262.3649 293.9522,262.3901 293.9902,262.4153 293.7834,260.9601 293.9327,259.4954 294.7575,258.2532 295.4405,257.2245 297.0646,255.8948 299.1641,257.2888 300.2641,258.0191 300.5561,259.0974 300.3387,260.2293 300.2404,260.781 299.6104,262.3193 299.1894,263.3564 298.7726,264.4173 298.7036,265.5448 299.8036,266.2751 300.9176,267.0148 303.0088,266.7772 304.1467,265.0633 305.2187,263.4488 304.9265,262.1848 304.5113,261.2296" stroke="black" stroke-width="1" /><polyline fill="none" points="287.9117,273.3251 286.3652,272.0748 286.1785,269.8511 287.3752,268.3711 288.5718,266.891 290.7958,266.5948 292.3423,267.8451 293.5154,268.7936 294.6886,269.7421 295.8618,270.6906 297.4084,271.941 297.584,274.1774 296.3875,275.6574 295.1908,277.1375 292.9779,277.4211 291.4312,276.1706" stroke="black" stroke-width="1" /><polyline fill="none" points="290.8661,285.3664 291.4247,289.6287 279.1609,277.6491" stroke="black" stroke-width="1" /><polyline fill="none" points="283.0962,294.3686 284.6266,296.1732 279.1988,300.7761 271.9166,284.4732" stroke="black" stroke-width="1" /><polyline fill="none" points="269.4744,307.7897 270.289,307.2209 270.6203,306.2573 269.894,305.2172 269.1906,304.2098 268.4872,303.2025 267.7838,302.1951 267.2873,302.5419 266.7907,302.8886 266.2942,303.2353 267.2501,302.5678 268.206,301.9003 269.1619,301.2329 268.7025,301.5536 268.2432,301.8744 267.7838,302.1951 265.6212,299.0981 263.4586,296.001 261.296,292.9039" stroke="black" stroke-width="1" /><polyline fill="none" points="255.675,307.0218 254.2161,307.7324 253.4245,309.9043 254.3928,311.6122 254.6182,312.0097 254.8435,312.4072 255.0689,312.8046 255.9824,314.4159 258.0401,314.9835 259.6663,314.0615 261.2772,313.1481 261.829,311.0612 260.9326,309.48 260.7072,309.0826 260.4819,308.6851 260.2565,308.2876 259.3428,306.6761 257.2859,306.1085 255.675,307.0218 253.9,308.0282 251.6913,307.3688 250.7191,305.6541 250.3865,305.0674 250.0538,304.4807 249.7212,303.8941 248.7488,302.179 249.3337,299.9744 251.1087,298.968 252.8687,297.9702 255.0599,298.6008 256.0323,300.3158 256.3704,300.9123 256.7086,301.5087 257.0468,302.1051 257.8803,303.5753 257.5441,305.8455" stroke="black" stroke-width="1" /><polyline fill="none" points="238.1627,305.5787 239.9254,309.5045 245.4946,307.004 245.5913,321.0359" stroke="black" stroke-width="1" /><polyline fill="none" points="232.2557,326.0291 234.1982,325.3676 236.1408,324.7061 238.0833,324.0446 237.2119,321.4856 236.3404,318.9266 235.469,316.3676 235.2447,317.7298 234.5783,318.7 233.1664,319.1808 231.2187,319.8441 229.1622,318.7511 228.5489,316.9501 228.1104,315.6626 227.672,314.375 227.2335,313.0875 226.5924,311.205 227.6318,309.3113 229.4014,308.7086 231.154,308.1118 233.1169,308.9831 233.7579,310.8656" stroke="black" stroke-width="1" /><polyline fill="none" points="216.8798,323.3037 216.4217,321.3858 217.5862,319.4689 219.5041,319.0108 221.4386,318.5488 223.3593,319.7289 223.8174,321.6468 224.0537,322.6362 224.29,323.6257 224.5264,324.6152 224.9844,326.5331 223.8045,328.4544 221.8863,328.9126 219.952,329.3746 218.0468,328.1901 217.5887,326.2722 216.7975,322.9593 216.0062,319.6464 215.215,316.3335 214.757,314.4159 215.9214,312.4986 217.8393,312.0405 219.4901,311.6463 221.129,312.4537 221.8626,313.9005" stroke="black" stroke-width="1" /><polyline fill="none" points="205.4281,331.9647 204.7839,327.4154 204.1397,322.8661 203.4955,318.3168 203.2167,316.3474 204.6125,314.5915 206.4974,314.3246 208.3649,314.0601 210.1938,315.3594 210.4726,317.3288 210.6841,318.8225 210.8956,320.3162 211.1072,321.81 211.386,323.7793 209.9897,325.5346 208.1222,325.7991 206.2374,326.066 204.409,324.7673 204.1301,322.7979" stroke="black" stroke-width="1" /><polyline fill="none" points="198.3167,321.7801 198.4091,323.7498 196.8909,325.4178 194.9219,325.5102 192.9344,325.6035 191.2842,324.0841 191.1917,322.1144 191.1441,321.0984 191.0964,320.0825 191.0487,319.0666 190.9563,317.0969 192.457,315.4304 194.4446,315.3371 196.4135,315.2447 198.0812,316.7626 198.1736,318.7322 198.3333,322.1346 198.4929,325.5369 198.6526,328.9392 198.745,330.9086 197.2268,332.5763 195.2578,332.6686 193.5614,332.7483 192.1029,331.6497 191.6519,330.0919" stroke="black" stroke-width="1" /><polyline fill="none" points="178.3808,332.6051 178.5962,328.0155 178.8116,323.4258 179.0269,318.8362 179.1202,316.8494 180.819,315.3845 182.7205,315.4737 184.6046,315.5621 186.1591,317.1797 186.0659,319.1665 185.9951,320.6735 185.9244,322.1804 185.8537,323.6874 185.7605,325.6742 184.0614,327.1384 182.1773,327.05 180.2758,326.9608 178.7216,325.3439 178.8148,323.3571" stroke="black" stroke-width="1" /><polyline fill="none" points="165.517,324.328 165.7935,322.3756 167.5793,321.0186 169.5317,321.295 171.501,321.5739 172.8558,323.3757 172.5793,325.328 172.4367,326.3353 172.294,327.3425 172.1514,328.3498 171.875,330.3022 170.0731,331.6576 168.1204,331.3811 166.1514,331.1023 164.8127,329.3021 165.0891,327.3497 165.5667,323.9773 166.0442,320.6049 166.5218,317.2325 166.7982,315.2804 168.584,313.9231 170.5364,314.1995 172.2169,314.4375 173.446,315.7893 173.5985,317.4042" stroke="black" stroke-width="1" /><polyline fill="none" points="156.3866,311.555 155.3869,315.7407 161.3248,317.1588 152.8376,328.3334" stroke="black" stroke-width="1" /><polyline fill="none" points="139.7157,320.5855 143.0645,318.1278 146.4134,315.6701 149.7623,313.2124 148.6643,316.4366 147.5663,319.6609 146.4683,322.8851 145.8327,324.7517 143.8083,325.7469 141.9424,325.1115 140.0589,324.4701 139.08,322.4521 139.7157,320.5855 140.8137,317.3613 141.9117,314.137 143.0096,310.9128 143.6453,309.0462 145.6521,308.0458 147.5191,308.6815 149.4016,309.3226 150.3979,311.3458 149.7623,313.2124" stroke="black" stroke-width="1" /><polyline fill="none" points="126.7402,318.9398 128.6123,319.7804 130.4844,320.6209 132.3564,321.4614 133.4637,318.9953 134.5709,316.5291 135.6782,314.063 134.5853,314.9065 133.4363,315.1619 132.0757,314.551 130.1986,313.7083 129.4395,311.5066 130.2187,309.7709 130.7758,308.5301 131.333,307.2892 131.8901,306.0484 132.7046,304.2343 134.7561,303.5576 136.4614,304.3233 138.1505,305.0816 138.9923,307.0573 138.1778,308.8715" stroke="black" stroke-width="1" /><polyline fill="none" points="120.9447,312.1859 116.9659,313.8131 125.4215,298.8996" stroke="black" stroke-width="1" /><polyline fill="none" points="110.4872,300.1866 109.2174,299.1762 106.9163,299.3977 105.7923,301.0074 105.5307,301.382 105.2691,301.7566 105.0075,302.1313 103.9471,303.6499 104.3215,305.7513 105.8542,306.8215 107.3725,307.8817 109.4935,307.4805 110.5341,305.9903 110.7957,305.6157 111.0573,305.2411 111.3189,304.8664 112.3795,303.3475 112.0055,301.2468 110.4872,300.1866 108.8142,299.0184 108.4576,296.7412 109.5861,295.1251 109.9722,294.5721 110.3583,294.0191 110.7444,293.4662 111.8731,291.8497 114.1146,291.4276 115.7876,292.5958 117.4464,293.7542 117.8214,296.0032 116.6927,297.6197 116.3002,298.1818 115.9077,298.7439 115.5152,299.3061 114.5476,300.6917 112.3541,301.3665" stroke="black" stroke-width="1" /><polyline fill="none" points="92.5352,296.4788 95.5069,292.9745 98.4786,289.4702 101.4503,285.9659 102.7367,284.4489 104.9765,284.3253 106.4283,285.5565 107.8669,286.7764 108.1111,289.0065 106.8247,290.5235 105.8489,291.6741 104.8732,292.8247 103.8975,293.9753 102.611,295.4923 100.3715,295.6152 98.9329,294.3953 97.4811,293.1641 97.2366,290.9347 98.5231,289.4178" stroke="black" stroke-width="1" /><polyline fill="none" points="89.2605,288.5671 84.9863,289.0257 97.2501,277.0461" stroke="black" stroke-width="1" /><polyline fill="none" points="82.5456,274.1361 81.6062,272.8129 79.3341,272.3868 77.8074,273.6212 77.452,273.9084 77.0967,274.1957 76.7414,274.483 75.3011,275.6475 75.0773,277.7703 76.2526,279.2239 77.4169,280.664 79.5659,280.8675 80.9793,279.7247 81.3346,279.4375 81.6899,279.1502 82.0453,278.8629 83.4859,277.6982 83.7098,275.5762 82.5456,274.1361 81.2627,272.5494 81.5524,270.2627 83.0852,269.0234 83.6096,268.5994 84.1341,268.1754 84.6586,267.7514 86.1917,266.5118 88.4622,266.7287 89.7451,268.3154 91.0171,269.8888 90.7529,272.1535 89.2198,273.393 88.6866,273.8241 88.1535,274.2552 87.6203,274.6862 86.3061,275.7488 84.0115,275.7879" stroke="black" stroke-width="1" /><polyline fill="none" points="79.1723,265.3596 77.5296,266.4503 75.3186,266.0041 74.2284,264.3619 73.1278,262.7043 73.5842,260.5081 75.227,259.4174 76.0743,258.8548 76.9216,258.2922 77.7689,257.7297 79.4116,256.639 81.6123,257.071 82.7128,258.7287 83.8031,260.3708 83.357,262.5812 81.7142,263.6719 78.8766,265.5559 76.0391,267.4399 73.2015,269.3239 71.559,270.4144 69.3484,269.968 68.2581,268.3258 67.3188,266.911 67.5126,265.0953 68.6177,263.9084" stroke="black" stroke-width="1" /><polyline fill="none" points="59.9675,254.1369 60.9374,255.9453 61.9075,257.7537 62.8775,259.5621 65.2597,258.2842 67.6419,257.0064 70.0242,255.7286 68.6436,255.7299 67.5775,255.2309 66.8725,253.9166 65.8999,252.1034 66.6423,249.896 68.3189,248.9966 69.5175,248.3537 70.7161,247.7108 71.9147,247.0678 73.6672,246.1278 75.7052,246.8438 76.5889,248.4912 77.464,250.1228 76.9251,252.2016 75.1727,253.1416" stroke="black" stroke-width="1" /><polyline fill="none" points="70.2893,235.4044 66.3232,237.0745 68.6924,242.7009 54.6622,242.4686" stroke="black" stroke-width="1" /><polyline fill="none" points="58.0412,226.1556 58.0359,226.1573 58.0307,226.1589 58.0255,226.1606 60.2495,225.4609 62.4736,224.7613 64.6977,224.0616 65.7255,223.7383 65.8932,222.8929 65.7238,222.3546 65.94,223.0418 65.5334,223.7987 64.8281,224.0206 64.7847,224.0343 64.7412,224.0479 64.6977,224.0616 65.9593,224.8157 67.0044,225.8528 67.4518,227.2752 67.8223,228.4529 67.8353,230.5519 65.4314,231.3082 64.1718,231.7044 63.1497,231.2535 62.4062,230.3728 62.039,229.9496 61.2388,228.4925 60.6971,227.5131 60.134,226.522 59.3007,225.7594 58.0412,226.1556 56.7656,226.5569 55.6356,228.3325 56.2529,230.2949 56.8345,232.1436 58.0011,232.7111 59.005,232.9887" stroke="black" stroke-width="1" /><polyline fill="none" points="51.3668,221.3226 49.6231,221.6961 47.7682,220.5681 47.3623,218.6732 46.9566,216.7793 48.0999,214.9904 50.0779,214.5668 50.3907,214.4998 50.7035,214.4328 51.0163,214.3658 54.0341,213.7194 55.1004,216.2439 55.1724,216.5799 55.2418,216.9039 55.3111,217.2278 55.3805,217.5518 55.3111,217.2278 55.2418,216.9039 55.1724,216.5799 54.9604,215.5902 55.6817,213.2262 58.0282,212.7236 58.7157,212.5764 59.4032,212.4291 60.0907,212.2819 62.0349,211.8654 63.9152,213.1115 64.3317,215.0564 64.7519,217.018 63.5433,218.9074 61.5991,219.3238" stroke="black" stroke-width="1" /><polyline fill="none" points="44.6779,202.0603 49.2411,201.5229 53.8042,200.9856 58.3674,200.4482 60.3427,200.2156 62.0655,201.6522 62.2881,203.5428 62.5087,205.416 61.1669,207.2139 59.1915,207.4465 57.6933,207.623 56.195,207.7994 54.6967,207.9758 52.7214,208.2085 50.9993,206.7714 50.7787,204.8982 50.556,203.0076 51.8972,201.2101 53.8726,200.9775" stroke="black" stroke-width="1" /><polyline fill="none" points="52.7154,188.4546 52.7099,188.4547 52.7045,188.4549 52.699,188.455 55.0299,188.4003 57.3607,188.3457 59.6916,188.291 60.7688,188.2658 61.1646,187.5002 61.1514,186.936 61.1682,187.6562 60.5675,188.2705 59.8284,188.2878 59.7828,188.2889 59.7372,188.2899 59.6916,188.291 60.6942,189.3657 61.4103,190.6522 61.4453,192.1429 61.4742,193.3772 60.9039,195.3973 58.3845,195.4564 57.0645,195.4873 56.2078,194.7704 55.7379,193.7179 55.5027,193.2093 55.1385,191.5873 54.89,190.496 54.6243,189.3876 54.0355,188.4236 52.7154,188.4546 51.3786,188.4859 49.8,189.878 49.8483,191.9347 49.8937,193.8721 50.8568,194.7412 51.7442,195.2866" stroke="black" stroke-width="1" /><polyline fill="none" points="46.6663,182.1914 44.306,182.0251 44.8061,174.926 61.5569,181.1087" stroke="black" stroke-width="1" /><polyline fill="none" points="46.5674,161.5964 51.1003,162.3471 55.6333,163.0977 60.1662,163.8484 62.1285,164.1734 63.3847,166.0318 63.0736,167.9099 62.7655,169.7707 60.9772,171.1254 59.0149,170.8004 57.5266,170.5539 56.0382,170.3075 54.5499,170.061 52.5876,169.736 51.3322,167.8773 51.6404,166.0165 51.9514,164.1385 53.7389,162.784 55.7012,163.109" stroke="black" stroke-width="1" /><polyline fill="none" points="53.3127,149.1187 55.9996,152.2866 58.6866,155.4545 61.3736,158.6224 58.0802,157.7537 54.7868,156.885 51.4933,156.0163 49.5867,155.5134 48.4516,153.564 48.9543,151.6581 49.4618,149.7341 51.406,148.6158 53.3127,149.1187 56.6061,149.9874 59.8995,150.8561 63.193,151.7248 65.0996,152.2277 66.2386,154.1593 65.7356,156.0663 65.2284,157.9892 63.2803,159.1253 61.3736,158.6224" stroke="black" stroke-width="1" /><polyline fill="none" points="53.994,143.0607 51.7727,142.2457 54.2241,135.5645 68.5998,146.1548" stroke="black" stroke-width="1" /><polyline fill="none" points="60.3724,129.8039 58.4696,125.9492 73.9405,133.3359" stroke="black" stroke-width="1" /><polyline fill="none" points="73.6732,116.0274 73.6685,116.0246 73.6638,116.0218 73.6591,116.019 75.6598,117.2162 77.6605,118.4133 79.6612,119.6105 80.5858,120.1638 81.329,119.7274 81.6187,119.2431 81.2488,119.8613 80.413,120.0604 79.7786,119.6808 79.7394,119.6573 79.7003,119.6339 79.6612,119.6105 79.936,121.0544 79.8554,122.5245 79.0897,123.8041 78.4558,124.8635 76.8958,126.268 74.7333,124.974 73.6002,124.296 73.258,123.2325 73.4221,122.0917 73.4945,121.536 74.0516,119.9698 74.4236,118.9142 74.7901,117.8349 74.8063,116.7054 73.6732,116.0274 72.5258,115.3408 70.448,115.6762 69.3917,117.4415 68.3966,119.1045 68.7476,120.3534 69.2072,121.2881" stroke="black" stroke-width="1" /><polyline fill="none" points="77.1414,102.3272 78.4809,106.2592 79.8204,110.1913 81.1599,114.1233 78.4137,112.1084 75.6676,110.0935 72.9214,108.0785 71.3316,106.912 70.9897,104.6824 72.1557,103.0931 73.3328,101.4889 75.5516,101.1607 77.1414,102.3272 79.8875,104.3421 82.6337,106.357 85.3798,108.372 86.9697,109.5385 87.3218,111.753 86.1551,113.3431 84.9786,114.9465 82.7497,115.2898 81.1599,114.1233" stroke="black" stroke-width="1" /><polyline fill="none" points="79.9949,96.94 78.2266,95.3677 82.9555,90.0493 92.4515,105.1702" stroke="black" stroke-width="1" /><polyline fill="none" points="103.7465,93.681 100.8124,90.5329 96.3465,94.6953 91.7316,81.4436" stroke="black" stroke-width="1" /><polyline fill="none" points="108.2102,78.9965 108.2069,78.9922 108.2035,78.9879 108.2002,78.9835 109.6231,80.8305 111.0461,82.6774 112.469,84.5243 113.1266,85.3779 113.978,85.2441 114.425,84.8997 113.8544,85.3393 113.0037,85.2183 112.5525,84.6327 112.5247,84.5966 112.4968,84.5604 112.469,84.5243 112.1957,85.9685 111.5821,87.3069 110.4009,88.2169 109.4228,88.9705 107.4567,89.7056 105.9187,87.7093 105.1128,86.6633 105.1841,85.5485 105.7547,84.5471 106.0256,84.0566 107.1179,82.8034 107.8507,81.9575 108.5872,81.0875 109.0161,80.0425 108.2102,78.9965 107.3941,77.9373 105.3379,77.4881 103.7083,78.7436 102.1731,79.9263 102.0422,81.217 102.1273,82.2551" stroke="black" stroke-width="1" /><polyline fill="none" points="110.4498,71.3079 109.3979,69.64 109.8962,67.4408 111.5641,66.3889 113.2467,65.3277 115.4931,65.8364 116.545,67.5043 116.9571,68.1577 117.1006,68.6739 117.1139,69.1127 117.2514,73.5525 117.3888,77.9922 117.5263,82.4319 117.6023,82.5525 117.6784,82.6732 117.7545,82.7938 119.756,81.5315 121.7575,80.2692 123.7589,79.007" stroke="black" stroke-width="1" /><polyline fill="none" points="132.5533,70.3986 133.452,72.1726 132.7115,74.2777 131.0136,75.1377 129.3158,75.9978 127.1655,75.3571 126.2669,73.5831 125.5851,72.2373 124.9034,70.8915 124.2216,69.5457 123.3228,67.7714 124.0786,65.6594 125.7764,64.7993 127.4743,63.9392 129.6092,64.5868 130.5081,66.3612" stroke="black" stroke-width="1" /><polyline fill="none" points="133.6702,58.8099 132.9478,56.9751 133.8474,54.9074 135.6822,54.1849 137.5332,53.4561 139.6453,54.3748 140.3677,56.2095 140.6508,56.9283 140.6956,57.4622 140.6268,57.8958 139.934,62.2833 139.2412,66.6708 138.5484,71.0583 138.6007,71.191 138.6529,71.3237 138.7052,71.4564 140.9069,70.5895 143.1086,69.7225 145.3104,68.8556" stroke="black" stroke-width="1" /><polyline fill="none" points="150.696,57.6155 152.2801,57.2633 153.5546,55.3346 153.0095,53.4485 152.8826,53.0096 152.7557,52.5706 152.6289,52.1317 152.1146,50.3523 150.2451,49.3222 148.4492,49.8412 146.6702,50.3554 145.6487,52.257 146.1533,54.0031 146.2802,54.4421 146.407,54.881 146.5339,55.32 147.0482,57.0997 148.917,58.1297 150.696,57.6155 152.6562,57.049 154.6513,58.2034 155.1986,60.097 155.3858,60.7449 155.5731,61.3929 155.7603,62.0408 156.3077,63.9348 155.2267,65.9432 153.2665,66.5097 151.3227,67.0715 149.338,65.949 148.7906,64.055 148.6003,63.3964 148.4099,62.7377 148.2196,62.079 147.7503,60.4554 148.6048,58.3255" stroke="black" stroke-width="1" /><polyline fill="none" points="163.1184,54.6506 164.7285,54.4483 166.1779,52.6474 165.8119,50.7186 165.7267,50.2697 165.6415,49.8208 165.5563,49.3719 165.2109,47.5521 163.446,46.3515 161.6095,46.7001 159.7901,47.0454 158.595,48.843 158.9339,50.6287 159.0191,51.0776 159.1043,51.5265 159.1895,51.9754 159.5349,53.7955 161.299,54.9959 163.1184,54.6506 165.123,54.2701 167.0012,55.6063 167.3688,57.5428 167.4945,58.2054 167.6203,58.868 167.746,59.5307 168.1136,61.4676 166.8493,63.366 164.8447,63.7464 162.8569,64.1237 160.986,62.8203 160.6184,60.8834 160.4905,60.2098 160.3627,59.5362 160.2348,58.8626 159.9197,57.2022 160.9698,55.1616" stroke="black" stroke-width="1" /><polyline fill="none" points="257.083,143.9785 96.1804,188.1635 188.2428,253.3668 158.7145,203.9175 140.8637,108.5745 188.1635,280.8196 239.8942,231.6324 140.8637,108.5745 188.2428,253.3668 158.7145,203.9175" stroke="black" stroke-width="1" /><polyline fill="none" points="143.5662,212.9632 173.8628,194.8718" stroke="black" stroke-width="1" /><polyline fill="none" points="280.1879,140.8637 280.0431,139.0237 279.6122,137.2289 278.9059,135.5237 277.9415,133.95 276.7428,132.5465 275.3393,131.3477 273.7655,130.3834 272.0603,129.677 270.2656,129.2462 268.4255,129.1013 266.5855,129.2462 264.7907,129.677 263.0855,130.3834 261.5117,131.3477 260.1082,132.5465 258.9095,133.95 257.9451,135.5237 257.2388,137.229 256.8079,139.0237 256.6631,140.8637 256.808,142.7038 257.2388,144.4985 257.9451,146.2038 258.9095,147.7775 260.1082,149.181 261.5117,150.3797 263.0855,151.3441 264.7907,152.0504 266.5855,152.4813 268.4255,152.6261 270.2656,152.4813 272.0603,152.0504 273.7655,151.3441 275.3393,150.3797 276.7428,149.181 277.9415,147.7775 278.9059,146.2038 279.6122,144.4985 280.0431,142.7038 280.1879,140.8637" stroke="black" stroke-width="1" /><polyline fill="none" points="188.5,69.0664 199.6839,69.5912 210.7696,71.161 221.6595,73.7619 232.2581,77.3712 242.4721,81.9571 252.2118,87.4792 261.3915,93.8892 269.9308,101.1306 277.7544,109.1398 284.7936,117.8464 290.9866,127.1739 296.2789,137.0404 300.6241,147.3591 303.9839,158.0393 306.3289,168.9873 307.6383,180.1067 307.9008,191.2998 307.114,202.4684 305.2847,213.5142 302.4292,224.3402 298.5725,234.8512 293.7484,244.9549 287.9994,254.5625 281.376,263.5894 273.9365,271.9565 265.7461,279.5902 256.8768,286.4234 247.4067,292.3961 237.4188,297.4556 227.0011,301.5577 216.2451,304.6663 205.2452,306.7539 194.0981,307.8023 182.9019,307.8023 171.7548,306.7539 160.7549,304.6663 149.9989,301.5577 139.5811,297.4556 129.5933,292.3961 120.1232,286.4234 111.2539,279.5902 103.0635,271.9565 95.6239,263.5894 89.0006,254.5625 83.2516,244.9549 78.4275,234.8512 74.5708,224.3402 71.7153,213.5142 69.8861,202.4684 69.0992,191.2998 69.3617,180.1067 70.6712,168.9872 73.0161,158.0393 76.3759,147.3591 80.7211,137.0404 86.0134,127.174 92.2064,117.8464 99.2457,109.1398 107.0692,101.1306 115.6085,93.8892 124.7882,87.4792 134.5279,81.957 144.7419,77.3712 155.3405,73.7619 166.2304,71.161 177.3161,69.5912 188.5,69.0664" stroke="black" stroke-width="1" />

    </g>
  </g>
  <WCB
     pausedposy="0"
     pausedposx="0"
     lastknownposy="0"
     lastknownposx="0"
     lastpathnc="0"
     lastpath="0"
     node="0"
     layer="0" />
</svg>
