<?xml version="1.0" encoding="UTF-8" standalone="no"?>
<!-- Created with Inkscape (http://www.inkscape.org/) -->

<svg
   xmlns:dc="http://purl.org/dc/elements/1.1/"
   xmlns:cc="http://creativecommons.org/ns#"
   xmlns:rdf="http://www.w3.org/1999/02/22-rdf-syntax-ns#"
   xmlns:svg="http://www.w3.org/2000/svg"
   xmlns="http://www.w3.org/2000/svg"
   xmlns:sodipodi="http://sodipodi.sourceforge.net/DTD/sodipodi-0.dtd"
   xmlns:inkscape="http://www.inkscape.org/namespaces/inkscape"
   width="100mm"
   height="100mm"
   viewBox="0 0 100 100"
   version="1.1"
   id="svg19124"
   inkscape:version="0.92.3 (2405546, 2018-03-11)"
   sodipodi:docname="inkscape_template_TMP.svg"
   shape-rendering="crispEdges">
  <sodipodi:namedview
     pagecolor="#ffffff"
     bordercolor="#666666"
     borderopacity="1"
     objecttolerance="10"
     gridtolerance="10"
     guidetolerance="10"
     inkscape:pageopacity="0"
     inkscape:pageshadow="2"
     inkscape:window-width="1568"
     inkscape:window-height="1550"
     id="namedview24021"
     showgrid="false"
     inkscape:zoom="0.62441667"
     inkscape:cx="712.66515"
     inkscape:cy="409.98265"
     inkscape:window-x="0"
     inkscape:window-y="0"
     inkscape:window-maximized="0"
     inkscape:current-layer="layer1" />
  <defs
     id="defs19118" />
  <metadata
     id="metadata19121">
    <rdf:RDF>
      <cc:Work
         rdf:about="">
        <dc:format>image/svg+xml</dc:format>
        <dc:type
           rdf:resource="http://purl.org/dc/dcmitype/StillImage" />
        <dc:title />
      </cc:Work>
    </rdf:RDF>
  </metadata>
  <g
     transform="translate(0,-197)"
     id="layer1"
     inkscape:groupmode="layer"
     inkscape:label="Layer 1">
    <g
       id="g24447"
       transform="matrix(0.26458333,0,0,0.26458333,0.10666333,197.9735)">

<polyline fill="none" points="192.1004,47.7394 189.7225,51.1455 187.3447,54.5516 184.9669,57.9577 184.9669,54.5516 184.9669,51.1455 184.9669,47.7394 184.9669,45.7676 186.5623,44.1729 188.5334,44.1729 190.5231,44.1729 192.1004,45.7676 192.1004,47.7394 192.1004,51.1455 192.1004,54.5516 192.1004,57.9577 192.1004,59.9295 190.5231,61.5235 188.5509,61.5235 186.5623,61.5235 184.9669,59.9295 184.9669,57.9577" stroke="black" stroke-width="1" /><polyline fill="none" points="197.8298,61.5877 200.7471,57.7851 198.696,53.7706 202.935,62.0679 200.7471,57.7851 203.4811,54.2207" stroke="black" stroke-width="1" /><polyline fill="none" points="213.923,54.6584 215.4953,55.0601 217.5037,53.9155 217.8698,51.9867 217.955,51.5378 218.0402,51.0889 218.1254,50.64 218.4708,48.8202 217.2685,47.0565 215.4319,46.7079 213.6125,46.3626 211.8419,47.5974 211.503,49.3831 211.4178,49.832 211.3326,50.2809 211.2474,50.7298 210.902,52.5499 212.1036,54.3131 213.923,54.6584 215.9276,55.0389 217.1857,56.9703 216.8182,58.9068 216.6924,59.5694 216.5667,60.232 216.4409,60.8946 216.0733,62.8316 214.2014,64.1347 212.1967,63.7542 210.2089,63.377 208.9456,61.4788 209.3132,59.5419 209.4411,58.8683 209.5689,58.1947 209.6968,57.5211 210.0119,55.8607 211.7366,54.3467" stroke="black" stroke-width="1" /><polyline fill="none" points="226.3459,67.0854 227.5407,62.9513 221.6759,61.2563 230.6775,50.4919" stroke="black" stroke-width="1" /><polyline fill="none" points="243.0901,55.0579 242.1656,54.6939 241.1796,54.9509 240.7148,56.1313 240.2647,57.2744 239.8145,58.4176 239.3644,59.5608 239.9279,59.7827 240.4914,60.0046 241.0549,60.2265 239.9701,59.7993 238.8853,59.3722 237.8005,58.945 238.3218,59.1503 238.8431,59.3556 239.3644,59.5608 237.9805,63.0756 236.5965,66.5903 235.2125,70.105" stroke="black" stroke-width="1" /><polyline fill="none" points="256.7555,61.182 254.6791,65.2808 252.6028,69.3796 250.5265,73.4783 249.6276,75.2527 247.4778,75.8932 245.7797,75.033 244.0971,74.1806 243.3415,72.0683 244.2403,70.294 244.9221,68.9482 245.6038,67.6024 246.2856,66.2566 247.1844,64.4822 249.3342,63.8425 251.0167,64.6948 252.7149,65.5551 253.4705,67.6666 252.5717,69.441" stroke="black" stroke-width="1" /><polyline fill="none" points="256.7554,73.6038 257.8073,71.9359 260.007,71.4374 261.6743,72.489 263.3572,73.5504 263.8404,75.7409 262.7885,77.4087 262.2459,78.269 261.7034,79.1292 261.1608,79.9895 260.1089,81.6574 257.9244,82.1646 256.2415,81.1031 254.5742,80.0516 254.0758,77.8524 255.1277,76.1845 256.9447,73.3036 258.7617,70.4226 260.5786,67.5417 261.6303,65.8741 263.8299,65.3759 265.4971,66.4274 266.9336,67.3334 267.5004,69.0691 266.9784,70.6046" stroke="black" stroke-width="1" /><polyline fill="none" points="279.2982,76.1418 276.494,79.7815 273.6898,83.4212 270.8856,87.061 269.6717,88.6366 267.4402,88.8651 265.9322,87.7033 264.438,86.5521 264.0896,84.3359 265.3035,82.7603 266.2242,81.5652 267.145,80.3702 268.0657,79.1751 269.2796,77.5995 271.5109,77.3718 273.0051,78.5229 274.5131,79.6847 274.8617,81.9001 273.6478,83.4758" stroke="black" stroke-width="1" /><polyline fill="none" points="282.94,83.8913 287.188,83.2328 275.4993,95.7741" stroke="black" stroke-width="1" /><polyline fill="none" points="292.1219,91.448 293.8901,89.8757 298.619,95.1941 282.4913,102.8565" stroke="black" stroke-width="1" /><polyline fill="none" points="294.1049,106.6004 295.6948,105.4339 297.9242,105.7761 299.0902,107.3653 300.2673,108.9695 299.9143,111.1847 298.3245,112.3512 297.5045,112.9529 296.6845,113.5546 295.8645,114.1562 294.2747,115.3227 292.0562,114.9943 290.8792,113.3901 289.7131,111.8008 290.0551,109.5719 291.6449,108.4054 294.3911,106.3905 297.1372,104.3756 299.8834,102.3606 301.4729,101.1943 303.702,101.5367 304.8681,103.1259 305.8727,104.4952 305.7643,106.3179 304.716,107.5553" stroke="black" stroke-width="1" /><polyline fill="none" points="305.4145,118.565 306.1591,120.0069 308.349,120.7473 310.0337,119.7392 310.4258,119.5046 310.8178,119.27 311.2099,119.0354 312.7993,118.0843 313.3185,116.0139 312.3586,114.4098 311.4078,112.8207 309.3085,112.318 307.7488,113.2512 307.3567,113.4859 306.9646,113.7205 306.5725,113.9551 304.9828,114.9063 304.4636,116.976 305.4145,118.565 306.4622,120.3159 305.8548,122.5395 304.1634,123.5516 303.5846,123.8979 303.0059,124.2442 302.4272,124.5905 300.7354,125.6028 298.5177,125.0698 297.47,123.3189 296.4311,121.5827 297.0102,119.3773 298.702,118.365 299.2903,118.013 299.8786,117.6609 300.467,117.3089 301.9172,116.4411 304.1946,116.724" stroke="black" stroke-width="1" /><polyline fill="none" points="317.076,131.1004 312.9778,130.4222 308.8796,129.7439 304.7813,129.0657 307.855,127.5981 310.9287,126.1306 314.0024,124.663 315.7819,123.8134 317.9084,124.5661 318.7577,126.3449 319.6149,128.1404 318.8554,130.2508 317.076,131.1004 314.0023,132.5679 310.9286,134.0355 307.8549,135.5031 306.0755,136.3527 303.9575,135.6161 303.1077,133.8364 302.2509,132.0418 303.0019,129.9153 304.7813,129.0657" stroke="black" stroke-width="1" /><polyline fill="none" points="312.3342,146.7498 310.4673,147.4348 308.4632,146.4532 307.8076,144.6665 307.152,142.8797 308.0398,140.8191 309.9067,140.1341 311.323,139.6144 312.7393,139.0947 314.1556,138.5751 316.0229,137.8899 318.032,138.8875 318.6876,140.6743 319.3433,142.4611 318.4503,144.5057 316.5831,145.1908" stroke="black" stroke-width="1" /><polyline fill="none" points="324.1839,150.3975 328.1282,152.1068 311.5513,156.4792" stroke="black" stroke-width="1" /><polyline fill="none" points="331.5284,168.2133 326.9955,168.964 322.4625,169.7147 317.9296,170.4653 315.9673,170.7903 314.1791,169.436 313.8681,167.5579 313.5599,165.6971 314.816,163.8383 316.7783,163.5134 318.2667,163.2669 319.755,163.0204 321.2433,162.7739 323.2056,162.449 324.9932,163.8038 325.3013,165.6646 325.6124,167.5426 324.3569,169.401 322.3947,169.7259" stroke="black" stroke-width="1" /><polyline fill="none" points="324.3994,178.9469 324.412,180.5696 326.0309,182.2198 327.9894,182.0818 328.4452,182.0497 328.9009,182.0176 329.3568,181.9855 331.2044,181.8553 332.6031,180.243 332.4718,178.3782 332.3416,176.531 330.6961,175.1338 328.8831,175.2615 328.4272,175.2937 327.9715,175.3258 327.5157,175.3579 325.6677,175.4881 324.2692,177.0997 324.3994,178.9469 324.5427,180.9823 322.9961,182.6914 321.0298,182.8299 320.3571,182.8773 319.6843,182.9247 319.0116,182.9721 317.0449,183.1106 315.3074,181.6329 315.1641,179.5976 315.0219,177.5793 316.5351,175.8737 318.5017,175.7351 319.1856,175.6869 319.8696,175.6387 320.5535,175.5906 322.2394,175.4718 324.1431,176.7534" stroke="black" stroke-width="1" /><polyline fill="none" points="332.5797,193.7827 332.603,192.7894 332.0221,191.9523 330.7538,191.9226 329.5256,191.8938 328.2973,191.865 327.069,191.8362 327.0548,192.4416 327.0406,193.0471 327.0264,193.6525 327.0537,192.487 327.0811,191.3214 327.1084,190.1559 327.0953,190.716 327.0821,191.2761 327.069,191.8362 323.2927,191.7476 319.5163,191.6591 315.7399,191.5705" stroke="black" stroke-width="1" /><polyline fill="none" points="317.8355,207.2167 315.8605,206.9841 314.5163,205.2029 314.7389,203.3126 314.9615,201.4224 316.6847,199.9854 318.6597,200.218 320.158,200.3945 321.6562,200.5709 323.1545,200.7474 325.1298,200.98 326.4713,202.7778 326.2487,204.6681 326.0261,206.5583 324.3056,207.9787 322.3303,207.746" stroke="black" stroke-width="1" /><polyline fill="none" points="328.9819,221.5707 329.4117,219.5641 329.8415,217.5575 330.2712,215.5509 327.6279,214.9847 324.9846,214.4185 322.3412,213.8524 323.395,214.7443 323.8853,215.8143 323.5729,217.2727 323.142,219.2847 321.1482,220.4881 319.2878,220.0896 317.9578,219.8048 316.6278,219.5199 315.2978,219.235 313.3532,218.8185 312.262,216.9543 312.6535,215.1264 313.0413,213.3159 314.7968,212.079 316.7413,212.4955" stroke="black" stroke-width="1" /><polyline fill="none" points="310.438,230.503 309.7513,229.6579 309.1157,228.6493 309.7539,226.6208 310.3251,224.8049 312.2856,223.7143 314.2324,224.3267 315.655,224.7742 317.0776,225.2218 318.5003,225.6693 320.3976,226.2662 321.38,228.2825 320.8087,230.0984 320.2272,231.9471 318.2572,233.0702 316.3598,232.4733 315.6513,232.2505 314.9428,232.0276 314.2343,231.8047 314.946,229.5421 315.6578,227.2796 316.3695,225.017" stroke="black" stroke-width="1" /><polyline fill="none" points="319.238,241.1259 321.3194,244.8872 305.5193,238.2338" stroke="black" stroke-width="1" /><polyline fill="none" points="314.2771,259.2739 315.2471,257.4655 316.2171,255.6571 317.1871,253.8488 314.8049,252.571 312.4226,251.2931 310.0404,250.0153 310.8051,251.1647 310.9791,252.3288 310.2741,253.6432 309.3015,255.4564 307.0519,256.0589 305.3753,255.1596 304.1767,254.5167 302.9781,253.8737 301.7795,253.2308 300.027,252.2908 299.4962,250.1969 300.3798,248.5495 301.255,246.9179 303.285,246.217 305.0374,247.157" stroke="black" stroke-width="1" /><polyline fill="none" points="299.8036,266.2751 299.8081,266.2781 299.8127,266.2812 299.8173,266.2842 297.8749,264.9946 295.9325,263.705 293.9902,262.4153 293.0925,261.8193 292.3297,262.2204 292.0175,262.6906 292.416,262.0904 293.2603,261.9307 293.8762,262.3397 293.9142,262.3649 293.9522,262.3901 293.9902,262.4153 293.7834,260.9601 293.9327,259.4954 294.7575,258.2532 295.4405,257.2245 297.0646,255.8948 299.1641,257.2888 300.2641,258.0191 300.5561,259.0974 300.3387,260.2293 300.2404,260.781 299.6104,262.3193 299.1894,263.3564 298.7726,264.4173 298.7036,265.5448 299.8036,266.2751 300.9176,267.0148 303.0088,266.7772 304.1467,265.0633 305.2187,263.4488 304.9265,262.1848 304.5113,261.2296" stroke="black" stroke-width="1" /><polyline fill="none" points="301.1775,274.8735 303.0175,276.3611 298.5432,281.8953 288.3488,267.2362" stroke="black" stroke-width="1" /><polyline fill="none" points="289.4678,291.8159 286.181,288.6053 282.8942,285.3947 279.6074,282.1841 278.1846,280.7942 278.2187,278.5513 279.5489,277.1895 280.8668,275.8403 283.1086,275.7534 284.5314,277.1432 285.6106,278.1974 286.6898,279.2516 287.769,280.3058 289.1918,281.6956 289.157,283.9383 287.839,285.2875 286.5088,286.6493 284.2678,286.7365 282.845,285.3466" stroke="black" stroke-width="1" /><polyline fill="none" points="276.7938,298.1846 276.4044,294.049 276.015,289.9133 275.6255,285.7776 277.8285,288.3754 280.0314,290.9731 282.2344,293.5709 283.5097,295.0748 283.3243,297.3229 281.8209,298.5978 280.3034,299.8847 278.0691,299.6885 276.7938,298.1846 274.5908,295.5868 272.3879,292.9891 270.1849,290.3913 268.9096,288.8874 269.0816,286.6516 270.5858,285.376 272.1024,284.0898 274.3502,284.2737 275.6255,285.7776" stroke="black" stroke-width="1" /><polyline fill="none" points="264.2958,303.5324 263.1669,301.9157 263.5481,299.7054 265.1648,298.5765 266.7956,297.4378 269.015,297.8322 270.1439,299.4489 270.7263,300.283 271.3087,301.117 271.8912,301.9511 273.0201,303.5678 272.6262,305.7879 271.0091,306.917 269.3787,308.0555 267.1719,307.6514 266.043,306.0347 264.093,303.242 262.143,300.4494 260.193,297.6568 259.0643,296.0403 259.4453,293.8298 261.062,292.7009 262.4535,291.7292 264.2743,291.8801 265.487,292.9574" stroke="black" stroke-width="1" /><polyline fill="none" points="257.9481,314.8481 258.8124,314.358 259.2325,313.4297 258.6068,312.3261 258.0008,311.2574 257.3948,310.1886 256.7888,309.1198 256.262,309.4185 255.7352,309.7172 255.2084,310.0159 256.2226,309.4409 257.2368,308.8658 258.251,308.2908 257.7636,308.5671 257.2762,308.8435 256.7888,309.1198 254.9258,305.8338 253.0627,302.5479 251.1996,299.2619" stroke="black" stroke-width="1" /><polyline fill="none" points="241.1551,313.6595 241.1573,313.6645 241.1595,313.6695 241.1618,313.6745 240.2068,311.5475 239.2519,309.4206 238.2969,307.2936 237.8555,306.3106 236.9964,306.243 236.4816,306.4741 237.1388,306.1791 237.938,306.4944 238.2409,307.1688 238.2595,307.2104 238.2782,307.252 238.2969,307.2936 238.8982,305.9525 239.806,304.7932 241.1663,304.1825 242.2926,303.6768 244.3757,303.4184 245.4079,305.7174 245.9487,306.922 245.6205,307.9898 244.8328,308.8312 244.4554,309.2454 243.1019,310.2105 242.1925,310.8631 241.2741,311.5381 240.6142,312.455 241.1551,313.6595 241.7028,314.8794 243.5984,315.794 245.4751,314.9514 247.243,314.1576 247.6702,312.9326 247.8285,311.9031" stroke="black" stroke-width="1" /><polyline fill="none" points="234.9346,313.8147 235.5702,315.6813 234.5749,317.7053 232.709,318.3407 230.8255,318.9821 228.8183,317.9806 228.1826,316.114 227.8547,315.1513 227.5269,314.1885 227.199,313.2257 226.5634,311.3592 227.5424,309.3415 229.4259,308.7001 231.2918,308.0646 233.3153,309.0598 233.951,310.9264 235.049,314.1506 236.147,317.3749 237.245,320.5991 237.8805,322.4654 236.885,324.489 235.0191,325.1245 233.4115,325.6719 231.7053,325.0214 230.8395,323.6501" stroke="black" stroke-width="1" /><polyline fill="none" points="219.185,329.5222 221.181,329.0455 223.1769,328.5688 225.1729,328.092 224.5449,325.4627 223.9169,322.8333 223.2889,320.204 222.938,321.5392 222.1837,322.4427 220.733,322.7892 218.7317,323.2672 216.7867,321.9865 216.3447,320.136 216.0287,318.813 215.7127,317.4901 215.3968,316.1671 214.9348,314.2328 216.1469,312.4448 217.9651,312.0105 219.766,311.5804 221.6386,312.6317 222.1006,314.5659" stroke="black" stroke-width="1" /><polyline fill="none" points="210.895,321.8399 211.1739,323.8093 209.778,325.5649 207.8931,325.8318 206.009,326.0986 204.1968,324.7972 203.9179,322.8279 203.7064,321.3342 203.4949,319.8404 203.2834,318.3467 203.0046,316.3777 204.3841,314.6237 206.2682,314.3569 208.1531,314.09 209.965,315.3921 210.2438,317.3611 210.2494,317.3603 210.2549,317.3595 210.2605,317.3587 210.9047,321.908 211.5489,326.4573 212.1931,331.0066" stroke="black" stroke-width="1" /><polyline fill="none" points="194.8646,324.5859 193.2421,324.5605 191.5544,326.1404 191.6465,328.1015 191.6679,328.5579 191.6893,329.0143 191.7107,329.4708 191.7975,331.3209 193.3766,332.7571 195.2439,332.6695 197.0937,332.5827 198.5291,330.9704 198.4439,329.1548 198.4225,328.6984 198.401,328.2419 198.3796,327.7855 198.2928,325.935 196.7144,324.4991 194.8646,324.5859 192.8264,324.6816 191.1541,323.0953 191.0617,321.1263 191.0301,320.4527 190.9985,319.779 190.9669,319.1053 190.8745,317.1359 192.3925,315.4336 194.4307,315.338 196.4517,315.2431 198.1214,316.7959 198.2138,318.7652 198.2459,319.4501 198.2781,320.1349 198.3102,320.8198 198.3894,322.508 197.0636,324.3812" stroke="black" stroke-width="1" /><polyline fill="none" points="179.8411,332.4163 180.8336,332.4629 181.6841,331.9017 181.7436,330.6345 181.8012,329.4073 181.8588,328.18 181.9164,326.9527 181.3114,326.9243 180.7065,326.8959 180.1015,326.8676 181.2661,326.9222 182.4307,326.9769 183.5953,327.0315 183.0356,327.0052 182.476,326.979 181.9164,326.9527 182.0934,323.1795 182.2705,319.4062 182.4475,315.633" stroke="black" stroke-width="1" /><polyline fill="none" points="166.7565,317.3611 167.0353,315.3922 168.8476,314.0901 170.7321,314.357 172.6166,314.6238 174.0128,316.3802 173.7339,318.3492 173.5224,319.8429 173.3109,321.3366 173.0994,322.8304 172.8205,324.7997 170.9917,326.0987 169.1072,325.8318 167.2227,325.565 165.8431,323.8117 166.1219,321.8423" stroke="black" stroke-width="1" /><polyline fill="none" points="155.1702,313.0883 155.9649,312.3439 156.9264,311.6391 158.9947,312.1331 160.8463,312.5753 162.0719,314.4543 161.5978,316.4393 161.2514,317.8898 160.9049,319.3404 160.5585,320.791 160.0964,322.7256 158.1541,323.8472 156.3025,323.405 154.4176,322.9548 153.1588,321.0686 153.6209,319.134 153.7934,318.4116 153.966,317.6891 154.1385,316.9667 156.4455,317.5176 158.7525,318.0687 161.0594,318.6197" stroke="black" stroke-width="1" /><polyline fill="none" points="139.7157,320.5855 143.0645,318.1278 146.4134,315.6701 149.7623,313.2124 148.6643,316.4366 147.5663,319.6609 146.4683,322.8851 145.8327,324.7517 143.8083,325.7469 141.9424,325.1115 140.0589,324.4701 139.08,322.4521 139.7157,320.5855 140.8137,317.3613 141.9117,314.137 143.0096,310.9128 143.6453,309.0462 145.6521,308.0458 147.5191,308.6815 149.4016,309.3226 150.3979,311.3458 149.7623,313.2124" stroke="black" stroke-width="1" /><polyline fill="none" points="136.3123,313.2297 135.4977,315.0443 133.3804,315.7845 131.6438,315.0049 129.9078,314.2254 129.0692,312.158 129.8839,310.3435 130.5018,308.9672 131.1197,307.5909 131.7376,306.2147 132.5522,304.4005 134.6547,303.6528 136.3907,304.4323 138.1273,305.212 138.9653,307.2799 138.1508,309.0941 138.1559,309.0963 138.161,309.0986 138.1661,309.101 136.2841,313.2925 134.4022,317.4841 132.5203,321.6757" stroke="black" stroke-width="1" /><polyline fill="none" points="118.7392,304.9941 118.7365,304.9989 118.7338,305.0037 118.7311,305.0084 119.881,302.9802 121.031,300.952 122.1809,298.9238 122.7124,297.9865 122.2586,297.2538 121.7677,296.9755 122.3944,297.3307 122.613,298.1617 122.2484,298.8048 122.2259,298.8445 122.2034,298.8842 122.1809,298.9238 123.6179,298.6153 125.0895,298.6614 126.3867,299.3968 127.4607,300.0058 128.9013,301.5324 127.6584,303.7247 127.0071,304.8733 125.952,305.2403 124.8076,305.103 124.2504,305.0437 122.6716,304.5234 121.6076,304.1763 120.52,303.8352 119.3904,303.8455 118.7392,304.9941 118.0797,306.1573 118.4636,308.2267 120.2532,309.2414 121.939,310.1972 123.1794,309.817 124.1031,309.3356" stroke="black" stroke-width="1" /><polyline fill="none" points="110.2586,306.9689 108.904,308.9089 103.069,304.8345 116.9754,293.6353" stroke="black" stroke-width="1" /><polyline fill="none" points="92.5352,296.4788 95.5069,292.9745 98.4786,289.4702 101.4503,285.9659 102.7367,284.4489 104.9765,284.3253 106.4283,285.5565 107.8669,286.7764 108.1111,289.0065 106.8247,290.5235 105.8489,291.6741 104.8732,292.8247 103.8975,293.9753 102.611,295.4923 100.3715,295.6152 98.9329,294.3953 97.4811,293.1641 97.2366,290.9347 98.5231,289.4178" stroke="black" stroke-width="1" /><polyline fill="none" points="91.0302,283.6816 89.9711,282.4521 87.6691,282.2407 86.2646,283.6126 85.9378,283.9319 85.6109,284.2512 85.2841,284.5704 83.9591,285.8647 83.9351,287.9991 85.2413,289.3363 86.5353,290.661 88.694,290.6624 89.9942,289.3923 90.321,289.073 90.6479,288.7537 90.9747,288.4344 92.3,287.1399 92.3242,285.0063 91.0302,283.6816 89.6044,282.222 89.6786,279.9182 91.0887,278.5408 91.5712,278.0695 92.0536,277.5983 92.5361,277.127 93.9464,275.7494 96.2272,275.7526 97.653,277.2122 99.0668,278.6596 99.0159,280.9391 97.6056,282.3168 97.1151,282.7959 96.6246,283.275 96.1342,283.754 94.9252,284.935 92.6444,285.1889" stroke="black" stroke-width="1" /><polyline fill="none" points="84.7354,267.9411 86.2818,266.6908 88.4953,266.9739 89.6919,268.454 90.8886,269.9341 90.7124,272.1708 89.1659,273.4211 87.9928,274.3696 86.8196,275.3181 85.6465,276.2666 84.0997,277.5171 81.8763,277.2205 80.6796,275.7404 79.483,274.2603 79.6692,272.037 81.2159,270.7866" stroke="black" stroke-width="1" /><polyline fill="none" points="69.2417,263.3596 73.3946,263.4566 77.5474,263.5535 81.7002,263.6505 78.8626,265.5345 76.0251,267.4185 73.1875,269.3025 71.5447,270.3932 69.3337,269.9461 68.2434,268.304 67.1429,266.6464 67.599,264.4503 69.2417,263.3596 72.0793,261.4756 74.9169,259.5916 77.7545,257.7076 79.3972,256.6169 81.5975,257.0492 82.6884,258.6923 83.7884,260.349 83.3429,262.5598 81.7002,263.6505" stroke="black" stroke-width="1" /><polyline fill="none" points="65.3923,250.322 67.13,249.3899 69.2805,250.0269 70.2126,251.7646 71.1527,253.5174 70.5015,255.6755 68.7639,256.6076 67.8674,257.0884 66.9709,257.5693 66.0745,258.0502 64.3368,258.9822 62.178,258.3314 61.2458,256.5934 60.3058,254.8409 60.9652,252.6967 62.7029,251.7646 65.7044,250.1546 68.7059,248.5445 71.7075,246.9345 73.4448,246.0026 75.5957,246.6395 76.5277,248.3772 77.33,249.8728 76.9672,251.6634 75.7555,252.7418" stroke="black" stroke-width="1" /><polyline fill="none" points="57.3749,239.8098 61.4368,240.6794 65.4987,241.549 69.5606,242.4186 66.4215,243.7405 63.2824,245.0623 60.1433,246.3842 58.326,247.1495 56.2371,246.298 55.4721,244.4813 54.7,242.6476 55.5576,240.5751 57.3749,239.8098 60.514,238.488 63.6531,237.1661 66.7922,235.8442 68.6095,235.079 70.6906,235.914 71.456,237.7316 72.2278,239.5644 71.3779,241.6533 69.5606,242.4186" stroke="black" stroke-width="1" /><polyline fill="none" points="50.4089,229.9455 50.7071,230.8933 51.5268,231.4984 52.737,231.1177 53.909,230.749 55.081,230.3803 56.253,230.0117 56.0712,229.4339 55.8895,228.8562 55.7077,228.2785 56.0576,229.3907 56.4075,230.5028 56.7573,231.615 56.5892,231.0805 56.4211,230.5461 56.253,230.0117 59.8563,228.8781 63.4596,227.7446 67.0629,226.611" stroke="black" stroke-width="1" /><polyline fill="none" points="61.7088,212.1032 62.7229,212.4996 63.7733,213.0636 64.2187,215.1429 64.6174,217.0043 63.4498,218.92 61.4542,219.3474 59.996,219.6598 58.5377,219.9721 57.0794,220.2845 55.1345,220.701 53.2854,219.4315 52.8867,217.5701 52.4808,215.6752 53.6406,213.7265 55.5855,213.3099 56.3118,213.1544 57.0381,212.9988 57.7644,212.8432 58.2611,215.1625 58.7579,217.4818 59.2547,219.801" stroke="black" stroke-width="1" /><polyline fill="none" points="58.3548,200.3407 60.3298,200.1081 62.051,201.5284 62.2736,203.4186 62.4962,205.3088 61.154,207.1068 59.179,207.3394 57.6807,207.5158 56.1824,207.6922 54.6842,207.8687 52.7088,208.1013 50.9864,206.6643 50.7638,204.774 50.5412,202.8838 51.8846,201.1026 53.86,200.87" stroke="black" stroke-width="1" /><polyline fill="none" points="47.6766,194.04 44.2373,191.4612 61.3764,191.0594" stroke="black" stroke-width="1" /><polyline fill="none" points="47.7766,180.8288 44.5938,177.9393 61.6953,179.1441" stroke="black" stroke-width="1" /><polyline fill="none" points="49.1133,167.6849 46.2151,164.5101 63.1286,167.311" stroke="black" stroke-width="1" /><polyline fill="none" points="56.9199,157.3916 54.9966,156.8843 53.9204,154.9164 54.4059,153.0757 54.8912,151.2357 56.7939,150.0706 58.7171,150.5779 60.1758,150.9627 61.6345,151.3474 63.0933,151.7322 65.0162,152.2394 66.0973,154.1915 65.612,156.0315 65.1265,157.8722 63.2232,159.0368 61.3004,158.5296 61.2989,158.535 61.2975,158.5404 61.2961,158.5458 56.8533,157.374 52.4106,156.2021 47.9678,155.0303" stroke="black" stroke-width="1" /><polyline fill="none" points="53.994,143.0607 51.7727,142.2457 54.2241,135.5645 68.5998,146.1548" stroke="black" stroke-width="1" /><polyline fill="none" points="59.6169,123.2479 63.7633,125.2276 67.9096,127.2073 72.0559,129.187 73.8508,130.044 74.5416,132.1781 73.7214,133.896 72.9087,135.5981 70.8146,136.403 69.0197,135.546 67.6583,134.896 66.2969,134.246 64.9355,133.596 63.1406,132.739 62.4506,130.6048 63.2633,128.9027 64.0835,127.1849 66.1768,126.38 67.9717,127.2369" stroke="black" stroke-width="1" /><polyline fill="none" points="78.1773,118.4508 79.8838,119.4719 80.3805,121.6475 79.4032,123.2807 78.4259,124.9139 76.2653,125.519 74.5589,124.4979 73.2643,123.7232 71.9698,122.9486 70.6752,122.174 68.9684,121.1527 68.481,118.9631 69.4583,117.3298 70.4356,115.6966 72.5869,115.1056 74.2937,116.1269" stroke="black" stroke-width="1" /><polyline fill="none" points="72.8501,107.8282 71.4123,106.7733 71.0228,104.6375 72.1692,103.0751 73.315,101.5135 75.4114,101.1792 77.0424,102.3759 77.3003,102.5652 77.5583,102.7544 77.8162,102.9437 80.3044,104.7694 79.1263,107.2437 78.9231,107.5207 78.7271,107.7879 78.5311,108.055 78.3351,108.3221 78.5311,108.055 78.7271,107.7879 78.9231,107.5207 79.5219,106.7047 81.7677,105.6729 83.7025,107.0925 84.2694,107.5085 84.8363,107.9244 85.4032,108.3404 87.0062,109.5166 87.3244,111.7497 86.1478,113.3533 84.961,114.9708 82.7459,115.323 81.1429,114.1468" stroke="black" stroke-width="1" /><polyline fill="none" points="81.7061,96.5382 80.9483,92.3068 93.7601,103.6983" stroke="black" stroke-width="1" /><polyline fill="none" points="89.0455,87.1817 87.4322,85.4508 92.6383,80.5986 100.6766,96.5422" stroke="black" stroke-width="1" /><polyline fill="none" points="102.0233,73.1369 101.2362,73.7433 100.9505,74.7213 101.7247,75.7262 102.4745,76.6995 103.2244,77.6728 103.9742,78.646 104.454,78.2764 104.9337,77.9068 105.4135,77.5372 104.4899,78.2487 103.5663,78.9603 102.6428,79.6718 103.0866,79.3299 103.5304,78.988 103.9742,78.646 106.2796,81.6383 108.585,84.6307 110.8904,87.623" stroke="black" stroke-width="1" /><polyline fill="none" points="115.8435,73.2571 117.2675,72.479 117.9564,70.2723 116.9091,68.6117 116.6653,68.2252 116.4216,67.8387 116.1778,67.4522 115.1898,65.8856 113.1077,65.4151 111.5266,66.4123 109.9602,67.4001 109.5068,69.5106 110.4764,71.048 110.7202,71.4345 110.9639,71.8209 111.2076,72.2074 112.1959,73.7744 114.2771,74.245 115.8435,73.2571 117.5693,72.1686 119.8065,72.7237 120.858,74.391 121.2178,74.9614 121.5775,75.5319 121.9373,76.1024 122.989,77.7699 122.5081,79.9995 120.7823,81.088 119.0709,82.1673 116.8526,81.64 115.8009,79.9725 115.4351,79.3926 115.0694,78.8126 114.7037,78.2327 113.8021,76.8032 114.0316,74.5198" stroke="black" stroke-width="1" /><polyline fill="none" points="126.2277,58.1511 128.304,62.2499 130.3804,66.3486 132.4567,70.4474 133.3555,72.2217 132.6002,74.3339 130.9021,75.1942 129.2195,76.0465 127.0694,75.4061 126.1706,73.6318 125.4888,72.286 124.8071,70.9402 124.1253,69.5944 123.2265,67.8201 123.9824,65.7084 125.665,64.856 127.3632,63.9958 129.5126,64.6357 130.4115,66.41" stroke="black" stroke-width="1" /><polyline fill="none" points="141.7693,61.01 141.7673,61.0049 141.7653,60.9998 141.7633,60.9947 142.6175,63.1641 143.4717,65.3335 144.3259,67.5029 144.7207,68.5055 145.5758,68.6133 146.1008,68.4066 145.4305,68.6705 144.6469,68.3181 144.376,67.6301 144.3593,67.5877 144.3426,67.5453 144.3259,67.5029 143.6624,68.8144 142.7013,69.9298 141.3139,70.4761 140.1651,70.9284 138.0722,71.0889 137.1488,68.744 136.6651,67.5154 137.043,66.4642 137.8693,65.6606 138.2657,65.2646 139.663,64.3639 140.6019,63.7547 141.5509,63.1235 142.2531,62.2386 141.7693,61.01 141.2794,59.7658 139.4287,58.7634 137.5146,59.5171 135.7114,60.2271 135.2272,61.4307 135.0208,62.4516" stroke="black" stroke-width="1" /><polyline fill="none" points="146.1213,54.0125 145.6262,52.2993 146.6211,50.3697 148.4828,49.8317 150.3435,49.2939 152.2083,50.3087 152.7699,52.252 152.8587,52.5594 152.9475,52.8667 153.0363,53.174 153.8932,56.1388 151.4498,57.38 151.1198,57.4753 150.8015,57.5673 150.4832,57.6593 150.1649,57.7513 150.4832,57.6593 150.8015,57.5673 151.1198,57.4753 152.0921,57.1943 154.5009,57.7477 155.1672,60.0531 155.3624,60.7286 155.5576,61.404 155.7528,62.0795 156.3048,63.9896 155.194,65.9528 153.2832,66.505 151.3559,67.062 149.3863,65.9891 148.8343,64.079" stroke="black" stroke-width="1" /><polyline fill="none" points="166.3607,54.5324 166.3597,54.5271 166.3586,54.5217 166.3576,54.5163 166.7924,56.8069 167.2271,59.0975 167.6618,61.3882 167.8627,62.4468 168.6827,62.7122 169.2371,62.6069 168.5293,62.7413 167.8252,62.2489 167.6873,61.5226 167.6788,61.4778 167.6703,61.433 167.6618,61.3882 166.7654,62.5529 165.6132,63.4696 164.1482,63.7476 162.9352,63.9778 160.8491,63.7452 160.3792,61.2693 160.133,59.9721 160.7003,59.0097 161.6619,58.3743 162.1252,58.0591 163.6659,57.4348 164.702,57.0113 165.752,56.5681 166.6069,55.8297 166.3607,54.5324 166.1113,53.2187 164.4801,51.8888 162.4589,52.2724 160.555,52.6337 159.8549,53.7259 159.4618,54.6905" stroke="black" stroke-width="1" /><polyline fill="none" points="107.5864,191.037 158.7145,203.9175 220.8597,130.6987 220.8597,130.6987 126.744,171.7336 140.8637,108.5745 268.4255,140.8637 156.5688,130.1462 280.8196,188.8365 239.8942,231.6324" stroke="black" stroke-width="1" /><polyline fill="none" points="252.6457,243.8265 227.1428,219.4383" stroke="black" stroke-width="1" /><polyline fill="none" points="107.9428,188.1635 107.798,186.3235 107.3671,184.5287 106.6608,182.8235 105.6964,181.2497 104.4977,179.8462 103.0942,178.6475 101.5204,177.6831 99.8152,176.9768 98.0205,176.5459 96.1804,176.4011 94.3404,176.5459 92.5456,176.9768 90.8404,177.6831 89.2667,178.6475 87.8632,179.8462 86.6644,181.2497 85.7001,182.8235 84.9937,184.5287 84.5628,186.3235 84.418,188.1635 84.5628,190.0035 84.9937,191.7983 85.7001,193.5035 86.6644,195.0773 87.8632,196.4808 89.2667,197.6795 90.8404,198.6439 92.5456,199.3502 94.3404,199.7811 96.1804,199.9259 98.0205,199.7811 99.8152,199.3502 101.5204,198.6439 103.0942,197.6795 104.4977,196.4808 105.6964,195.0773 106.6608,193.5035 107.3671,191.7983 107.798,190.0035 107.9428,188.1635" stroke="black" stroke-width="1" /><polyline fill="none" points="188.5,69.0664 199.6839,69.5912 210.7696,71.161 221.6595,73.7619 232.2581,77.3712 242.4721,81.9571 252.2118,87.4792 261.3915,93.8892 269.9308,101.1306 277.7544,109.1398 284.7936,117.8464 290.9866,127.1739 296.2789,137.0404 300.6241,147.3591 303.9839,158.0393 306.3289,168.9873 307.6383,180.1067 307.9008,191.2998 307.114,202.4684 305.2847,213.5142 302.4292,224.3402 298.5725,234.8512 293.7484,244.9549 287.9994,254.5625 281.376,263.5894 273.9365,271.9565 265.7461,279.5902 256.8768,286.4234 247.4067,292.3961 237.4188,297.4556 227.0011,301.5577 216.2451,304.6663 205.2452,306.7539 194.0981,307.8023 182.9019,307.8023 171.7548,306.7539 160.7549,304.6663 149.9989,301.5577 139.5811,297.4556 129.5933,292.3961 120.1232,286.4234 111.2539,279.5902 103.0635,271.9565 95.6239,263.5894 89.0006,254.5625 83.2516,244.9549 78.4275,234.8512 74.5708,224.3402 71.7153,213.5142 69.8861,202.4684 69.0992,191.2998 69.3617,180.1067 70.6712,168.9872 73.0161,158.0393 76.3759,147.3591 80.7211,137.0404 86.0134,127.174 92.2064,117.8464 99.2457,109.1398 107.0692,101.1306 115.6085,93.8892 124.7882,87.4792 134.5279,81.957 144.7419,77.3712 155.3405,73.7619 166.2304,71.161 177.3161,69.5912 188.5,69.0664" stroke="black" stroke-width="1" />

    </g>
  </g>
  <WCB
     pausedposy="0"
     pausedposx="0"
     lastknownposy="0"
     lastknownposx="0"
     lastpathnc="0"
     lastpath="0"
     node="0"
     layer="0" />
</svg>
