<?xml version="1.0" encoding="UTF-8" standalone="no"?>
<!-- Created with Inkscape (http://www.inkscape.org/) -->

<svg
   xmlns:dc="http://purl.org/dc/elements/1.1/"
   xmlns:cc="http://creativecommons.org/ns#"
   xmlns:rdf="http://www.w3.org/1999/02/22-rdf-syntax-ns#"
   xmlns:svg="http://www.w3.org/2000/svg"
   xmlns="http://www.w3.org/2000/svg"
   xmlns:sodipodi="http://sodipodi.sourceforge.net/DTD/sodipodi-0.dtd"
   xmlns:inkscape="http://www.inkscape.org/namespaces/inkscape"
   width="100mm"
   height="100mm"
   viewBox="0 0 100 100"
   version="1.1"
   id="svg19124"
   inkscape:version="0.92.3 (2405546, 2018-03-11)"
   sodipodi:docname="inkscape_template_TMP.svg"
   shape-rendering="crispEdges">
  <sodipodi:namedview
     pagecolor="#ffffff"
     bordercolor="#666666"
     borderopacity="1"
     objecttolerance="10"
     gridtolerance="10"
     guidetolerance="10"
     inkscape:pageopacity="0"
     inkscape:pageshadow="2"
     inkscape:window-width="1568"
     inkscape:window-height="1550"
     id="namedview24021"
     showgrid="false"
     inkscape:zoom="0.62441667"
     inkscape:cx="712.66515"
     inkscape:cy="409.98265"
     inkscape:window-x="0"
     inkscape:window-y="0"
     inkscape:window-maximized="0"
     inkscape:current-layer="layer1" />
  <defs
     id="defs19118" />
  <metadata
     id="metadata19121">
    <rdf:RDF>
      <cc:Work
         rdf:about="">
        <dc:format>image/svg+xml</dc:format>
        <dc:type
           rdf:resource="http://purl.org/dc/dcmitype/StillImage" />
        <dc:title />
      </cc:Work>
    </rdf:RDF>
  </metadata>
  <g
     transform="translate(0,-197)"
     id="layer1"
     inkscape:groupmode="layer"
     inkscape:label="Layer 1">
    <g
       id="g24447"
       transform="matrix(0.26458333,0,0,0.26458333,0.10666333,197.9735)">

<polyline fill="none" points="192.1004,47.7394 189.7225,51.1455 187.3447,54.5516 184.9669,57.9577 184.9669,54.5516 184.9669,51.1455 184.9669,47.7394 184.9669,45.7676 186.5623,44.1729 188.5334,44.1729 190.5231,44.1729 192.1004,45.7676 192.1004,47.7394 192.1004,51.1455 192.1004,54.5516 192.1004,57.9577 192.1004,59.9295 190.5231,61.5235 188.5509,61.5235 186.5623,61.5235 184.9669,59.9295 184.9669,57.9577" stroke="black" stroke-width="1" /><polyline fill="none" points="197.8298,61.5877 200.7471,57.7851 198.696,53.7706 202.935,62.0679 200.7471,57.7851 203.4811,54.2207" stroke="black" stroke-width="1" /><polyline fill="none" points="213.923,54.6584 215.4953,55.0601 217.5037,53.9155 217.8698,51.9867 217.955,51.5378 218.0402,51.0889 218.1254,50.64 218.4708,48.8202 217.2685,47.0565 215.4319,46.7079 213.6125,46.3626 211.8419,47.5974 211.503,49.3831 211.4178,49.832 211.3326,50.2809 211.2474,50.7298 210.902,52.5499 212.1036,54.3131 213.923,54.6584 215.9276,55.0389 217.1857,56.9703 216.8182,58.9068 216.6924,59.5694 216.5667,60.232 216.4409,60.8946 216.0733,62.8316 214.2014,64.1347 212.1967,63.7542 210.2089,63.377 208.9456,61.4788 209.3132,59.5419 209.4411,58.8683 209.5689,58.1947 209.6968,57.5211 210.0119,55.8607 211.7366,54.3467" stroke="black" stroke-width="1" /><polyline fill="none" points="230.2997,57.236 229.7523,59.1303 227.7938,60.2235 225.8995,59.6761 223.9887,59.1238 222.8999,57.15 223.4474,55.2556 223.7299,54.2783 224.0123,53.301 224.2947,52.3237 224.8422,50.4294 226.8163,49.34 228.711,49.8875 230.6214,50.4396 231.6945,52.4097 231.1471,54.3041 230.2014,57.5762 229.2557,60.8484 228.3101,64.1206 227.7627,66.0145 225.8042,67.1081 223.9099,66.5607 222.2794,66.0894 221.252,64.5787 221.3273,62.9583" stroke="black" stroke-width="1" /><polyline fill="none" points="241.2387,63.3757 241.2407,63.3706 241.2427,63.3655 241.2447,63.3604 240.3905,65.5298 239.5363,67.6992 238.6821,69.8686 238.2873,70.8712 238.8393,71.5331 239.3643,71.7398 238.6941,71.4759 238.3611,70.6838 238.632,69.9959 238.6487,69.9535 238.6654,69.911 238.6821,69.8686 237.3025,70.3756 235.839,70.5363 234.4515,69.99 233.3027,69.5376 231.6623,68.228 232.5856,65.8832 233.0694,64.6546 234.0626,64.1432 235.215,64.1187 235.7749,64.0993 237.4111,64.3931 238.5133,64.5876 239.638,64.7729 240.7549,64.6043 241.2387,63.3757 241.7286,62.1315 241.0583,60.1364 239.1441,59.3827 237.341,58.6727 236.1662,59.2231 235.3191,59.8292" stroke="black" stroke-width="1" /><polyline fill="none" points="252.7238,68.8641 252.7263,68.8592 252.7288,68.8543 252.7312,68.8494 251.6776,70.9293 250.624,73.0091 249.5704,75.089 249.0835,76.0502 249.5711,76.7609 250.0745,77.0159 249.4318,76.6903 249.1745,75.8705 249.5086,75.211 249.5292,75.1703 249.5498,75.1297 249.5704,75.089 248.1494,75.4646 246.6773,75.4875 245.3471,74.8137 244.2456,74.2557 242.7351,72.7983 243.8739,70.5502 244.4706,69.3723 245.5073,68.9562 246.6569,69.0397 247.2163,69.0728 248.8178,69.5186 249.8969,69.8154 250.9993,70.1052 252.1271,70.0419 252.7238,68.8641 253.3281,67.6712 252.8475,65.6221 251.0123,64.6924 249.2836,63.8167 248.0624,64.2546 247.1623,64.7788" stroke="black" stroke-width="1" /><polyline fill="none" points="261.7784,68.1165 265.8292,66.6776 256.6838,81.1784" stroke="black" stroke-width="1" /><polyline fill="none" points="272.7293,75.5074 276.8971,74.4541 266.434,88.0348" stroke="black" stroke-width="1" /><polyline fill="none" points="282.5785,82.1711 284.1917,80.4402 289.3978,85.2924 274.0586,94.4313" stroke="black" stroke-width="1" /><polyline fill="none" points="285.2798,105.9926 288.4958,103.1331 284.4393,98.5709 297.7954,94.2679" stroke="black" stroke-width="1" /><polyline fill="none" points="295.8741,114.0099 294.2708,115.1863 292.073,114.7997 290.9471,113.2652 289.8212,111.7307 290.102,109.5046 291.7053,108.3282 292.9216,107.4358 294.138,106.5433 295.3543,105.6508 296.9579,104.4742 299.1651,104.8747 300.291,106.4093 301.4169,107.9438 301.1268,110.1559 299.5231,111.3325" stroke="black" stroke-width="1" /><polyline fill="none" points="302.6975,116.1122 304.4043,115.0909 306.564,115.696 307.5415,117.3295 308.5186,118.9624 308.0226,121.1376 306.3158,122.1589 305.0212,122.9336 303.7267,123.7082 302.4321,124.4829 300.7256,125.504 298.5737,124.9133 297.5966,123.2804 296.6191,121.6468 297.116,119.4716 298.8224,118.4505 298.8196,118.4457 298.8167,118.4409 298.8138,118.4361 302.7565,116.0768 306.6993,113.7176 310.642,111.3583" stroke="black" stroke-width="1" /><polyline fill="none" points="314.6997,125.7661 318.8936,126.7099 303.4227,134.0966" stroke="black" stroke-width="1" /><polyline fill="none" points="321.886,143.3926 317.8693,142.3336 313.8526,141.2746 309.8359,140.2156 313.0335,139.0423 316.2312,137.869 319.4288,136.6958 321.2799,136.0165 323.3266,136.965 324.0056,138.8155 324.691,140.6834 323.7372,142.7134 321.886,143.3926 318.6884,144.5659 315.4908,145.7392 312.2932,146.9125 310.442,147.5917 308.4023,146.6601 307.7229,144.8086 307.0379,142.9417 307.9847,140.8948 309.8359,140.2156" stroke="black" stroke-width="1" /><polyline fill="none" points="328.382,153.5727 328.1285,152.612 327.3381,151.9691 326.1114,152.2926 324.9234,152.606 323.7354,152.9193 322.5474,153.2327 322.7019,153.8183 322.8564,154.4039 323.0108,154.9895 322.7135,153.8622 322.4161,152.7348 322.1188,151.6075 322.2617,152.1492 322.4045,152.691 322.5474,153.2327 318.895,154.1961 315.2425,155.1595 311.59,156.1229" stroke="black" stroke-width="1" /><polyline fill="none" points="327.9575,169.0549 324.2087,167.2655 320.4599,165.4761 316.7111,163.6867 320.0714,163.1302 323.4317,162.5737 326.792,162.0173 328.7374,161.6951 330.5713,163.0086 330.8934,164.9532 331.2184,166.9162 329.9028,168.7327 327.9575,169.0549 324.5972,169.6114 321.2369,170.1678 317.8766,170.7243 315.9312,171.0465 314.101,169.7509 313.7787,167.8052 313.4538,165.8432 314.7657,164.0089 316.7111,163.6867" stroke="black" stroke-width="1" /><polyline fill="none" points="328.6666,175.1152 330.6336,174.9766 332.3361,176.4553 332.4747,178.4223 332.6145,180.4068 331.1043,182.1458 329.1373,182.2844 328.3667,182.3387 327.8439,182.2212 327.451,182.0255 323.4736,180.048 319.4962,178.0705 315.5188,176.093 315.3765,176.103 315.2343,176.1131 315.092,176.1231 315.2583,178.4835 315.4246,180.8439 315.5909,183.2044" stroke="black" stroke-width="1" /><polyline fill="none" points="332.5797,193.7827 332.603,192.7894 332.0221,191.9523 330.7538,191.9226 329.5256,191.8938 328.2973,191.865 327.069,191.8362 327.0548,192.4416 327.0406,193.0471 327.0264,193.6525 327.0537,192.487 327.0811,191.3214 327.1084,190.1559 327.0953,190.716 327.0821,191.2761 327.069,191.8362 323.2927,191.7476 319.5163,191.6591 315.7399,191.5705" stroke="black" stroke-width="1" /><polyline fill="none" points="328.7042,201.4854 330.6625,201.716 332.0594,203.4863 331.8288,205.4446 331.5961,207.4203 329.7882,208.8473 327.8299,208.6166 327.0626,208.5263 326.5709,208.3134 326.2214,208.0478 322.6824,205.3634 319.1436,202.679 315.6046,199.9946 315.463,199.9779 315.3213,199.9612 315.1797,199.9445 314.9029,202.2945 314.6262,204.6446 314.3494,206.9946" stroke="black" stroke-width="1" /><polyline fill="none" points="326.7578,215.8256 329.504,219.1328 312.7404,215.5422" stroke="black" stroke-width="1" /><polyline fill="none" points="317.0046,225.1947 318.8856,225.7864 319.9286,227.7863 319.3371,229.6666 318.74,231.5646 316.7452,232.5905 314.8642,231.9987 313.894,231.6935 312.9238,231.3883 311.9536,231.0831 310.0727,230.4914 309.0251,228.5084 309.6222,226.6104 310.2137,224.7301 312.2131,223.6874 314.0941,224.2791 317.3432,225.3012 320.5923,226.3233 323.8414,227.3454 325.722,227.937 326.7646,229.9368 326.1732,231.8171 325.6635,233.4371 324.1298,234.4279 322.512,234.3147" stroke="black" stroke-width="1" /><polyline fill="none" points="319.7266,240.0988 321.3701,240.7908 322.2451,242.7776 321.493,244.5637 320.7413,246.3487 318.7799,247.1609 316.9155,246.3758 316.6207,246.2516 316.3259,246.1275 316.031,246.0033 313.1867,244.8056 313.7578,242.1252 313.8911,241.8086 314.0197,241.5033 314.1483,241.1979 314.2769,240.8925 314.1483,241.1979 314.0197,241.5033 313.8911,241.8086 313.4983,242.7415 311.5536,244.2667 309.3419,243.3354 308.6939,243.0625 308.0459,242.7896 307.3979,242.5167 305.5654,241.7451 304.7372,239.647 305.5091,237.8139 306.2877,235.965 308.3604,235.1079 310.1928,235.8795" stroke="black" stroke-width="1" /><polyline fill="none" points="314.2771,259.2739 315.2471,257.4655 316.2171,255.6571 317.1871,253.8488 314.8049,252.571 312.4226,251.2931 310.0404,250.0153 310.8051,251.1647 310.9791,252.3288 310.2741,253.6432 309.3015,255.4564 307.0519,256.0589 305.3753,255.1596 304.1767,254.5167 302.9781,253.8737 301.7795,253.2308 300.027,252.2908 299.4962,250.1969 300.3798,248.5495 301.255,246.9179 303.285,246.217 305.0374,247.157" stroke="black" stroke-width="1" /><polyline fill="none" points="307.5492,269.8275 308.0988,268.9998 308.054,267.9818 306.9971,267.2801 305.9735,266.6005 304.95,265.921 303.9264,265.2414 303.5914,265.7459 303.2564,266.2505 302.9215,266.755 303.5663,265.7837 304.2112,264.8124 304.8561,263.8411 304.5462,264.3079 304.2363,264.7746 303.9264,265.2414 300.7795,263.152 297.6326,261.0626 294.4857,258.9732" stroke="black" stroke-width="1" /><polyline fill="none" points="300.1621,274.2753 301.6955,275.515 301.9327,277.7575 300.693,279.2909 299.4423,280.8379 297.1519,281.0804 295.6185,279.8407 295.0177,279.355 294.7154,278.9127 294.5614,278.5015 293.0001,274.3431 291.4387,270.1848 289.8774,266.0263 289.7665,265.9367 289.6556,265.847 289.5447,265.7573 288.057,267.5974 286.5693,269.4375 285.0815,271.2776" stroke="black" stroke-width="1" /><polyline fill="none" points="289.4678,291.8159 286.181,288.6053 282.8942,285.3947 279.6074,282.1841 278.1846,280.7942 278.2187,278.5513 279.5489,277.1895 280.8668,275.8403 283.1086,275.7534 284.5314,277.1432 285.6106,278.1974 286.6898,279.2516 287.769,280.3058 289.1918,281.6956 289.157,283.9383 287.839,285.2875 286.5088,286.6493 284.2678,286.7365 282.845,285.3466" stroke="black" stroke-width="1" /><polyline fill="none" points="283.0962,294.3686 284.6266,296.1732 279.1988,300.7761 271.9166,284.4732" stroke="black" stroke-width="1" /><polyline fill="none" points="266.1348,305.9706 266.1343,301.8167 266.1339,297.6627 266.1335,293.5087 268.0835,296.3014 270.0335,299.094 271.9835,301.8866 273.1124,303.5034 272.7173,305.7242 271.1012,306.8527 269.4698,307.9919 267.2637,307.5873 266.1348,305.9706 264.1848,303.178 262.2348,300.3853 260.2848,297.5927 259.1559,295.976 259.5364,293.7661 261.1534,292.637 262.7839,291.4985 265.0046,291.892 266.1335,293.5087" stroke="black" stroke-width="1" /><polyline fill="none" points="257.9481,314.8481 258.8124,314.358 259.2325,313.4297 258.6068,312.3261 258.0008,311.2574 257.3948,310.1886 256.7888,309.1198 256.262,309.4185 255.7352,309.7172 255.2084,310.0159 256.2226,309.4409 257.2368,308.8658 258.251,308.2908 257.7636,308.5671 257.2762,308.8435 256.7888,309.1198 254.9258,305.8338 253.0627,302.5479 251.1996,299.2619" stroke="black" stroke-width="1" /><polyline fill="none" points="244.5941,321.6245 242.7122,317.4329 240.8303,313.2413 238.9483,309.0497 238.1336,307.2352 238.9871,305.1607 240.7237,304.381 242.4444,303.6085 244.5621,304.3489 245.3768,306.1635 245.9947,307.5397 246.6126,308.916 247.2305,310.2923 248.0452,312.1068 247.1911,314.1808 245.4705,314.9533 243.7338,315.733 241.6167,314.993 240.8021,313.1785" stroke="black" stroke-width="1" /><polyline fill="none" points="235.3648,315.3257 236.006,317.2085 234.9619,319.1936 233.1599,319.8073 231.3586,320.4207 229.3355,319.4801 228.6943,317.5973 228.208,316.1692 227.7217,314.7411 227.2353,313.313 226.5943,311.4305 227.6226,309.45 229.4239,308.8366 231.2259,308.223 233.2489,309.1644 233.89,311.0468 233.8952,311.045 233.9005,311.0432 233.9058,311.0414 235.387,315.3908 236.8682,319.7402 238.3493,324.0896" stroke="black" stroke-width="1" /><polyline fill="none" points="225.0442,325.6901 225.5939,327.9915 218.6719,329.6447 219.543,311.8107" stroke="black" stroke-width="1" /><polyline fill="none" points="211.6043,327.6008 211.8543,329.3665 210.5987,331.1375 208.68,331.4092 206.7622,331.6808 205.0582,330.4146 204.7746,328.4117 204.7297,328.095 204.6849,327.7782 204.64,327.4615 204.2073,324.4058 206.8006,323.5195 207.1407,323.4713 207.4688,323.4249 207.7968,323.3784 208.1249,323.332 207.7968,323.3784 207.4688,323.4249 207.1407,323.4713 206.1386,323.6133 203.8312,322.7276 203.4947,320.3516 203.3961,319.6554 203.2975,318.9592 203.199,318.2631 202.9202,316.2944 204.2953,314.5064 206.2646,314.2275 208.251,313.9463 210.0508,315.2847 210.3295,317.2534" stroke="black" stroke-width="1" /><polyline fill="none" points="197.3397,329.1548 194.8423,332.6537 194.0388,315.5287" stroke="black" stroke-width="1" /><polyline fill="none" points="178.8252,332.4973 180.8751,332.5935 182.9249,332.6897 184.9748,332.7859 185.1015,330.0855 185.2282,327.3852 185.3549,324.6849 184.6471,325.8702 183.6716,326.5287 182.1817,326.4589 180.1264,326.3624 178.6134,324.592 178.7026,322.6915 178.7663,321.3328 178.8301,319.9742 178.8938,318.6155 178.987,316.629 180.6479,315.2478 182.5153,315.3354 184.3647,315.4222 185.8719,316.9521 185.7786,318.9385" stroke="black" stroke-width="1" /><polyline fill="none" points="168.0508,314.0215 167.4475,318.2823 173.492,319.1382 166.0885,331.0584" stroke="black" stroke-width="1" /><polyline fill="none" points="153.8252,319.7826 153.8239,319.7879 153.8227,319.7932 153.8214,319.7986 154.363,317.5309 154.9046,315.2631 155.4463,312.9954 155.6966,311.9473 155.0573,311.3694 154.5084,311.2383 155.2091,311.4057 155.6498,312.1432 155.4781,312.8623 155.4675,312.9067 155.4569,312.951 155.4463,312.9954 156.7411,312.3 158.1677,311.9357 159.618,312.2821 160.8189,312.5689 162.6267,313.6356 162.0413,316.0867 161.7346,317.371 160.8229,318.0165 159.6853,318.2024 159.1336,318.3001 157.4724,318.2386 156.3538,318.2006 155.2143,318.1748 154.132,318.4983 153.8252,319.7826 153.5146,321.0832 154.458,322.9646 156.459,323.4425 158.3439,323.8927 159.4299,323.183 160.1836,322.4641" stroke="black" stroke-width="1" /><polyline fill="none" points="141.6841,315.9587 141.6823,315.9639 141.6806,315.9691 141.6788,315.9743 142.4304,313.7672 143.182,311.5602 143.9336,309.3531 144.2809,308.3331 143.6985,307.6979 143.1644,307.516 143.8463,307.7482 144.216,308.5238 143.9777,309.2237 143.963,309.2668 143.9483,309.31 143.9336,309.3531 145.2879,308.7821 146.7423,308.5529 148.1538,309.0336 149.3226,309.4316 151.0226,310.6629 150.2102,313.0485 149.7845,314.2984 148.8164,314.8557 147.6664,314.9342 147.1079,314.9799 145.4598,314.7631 144.3497,314.6204 143.2176,314.4881 142.1097,314.7088 141.6841,315.9587 141.253,317.2245 142.0161,319.186 143.9635,319.8492 145.798,320.4739 146.9457,319.8691 147.7634,319.2239" stroke="black" stroke-width="1" /><polyline fill="none" points="126.7402,318.9398 128.6123,319.7804 130.4844,320.6209 132.3564,321.4614 133.4637,318.9953 134.5709,316.5291 135.6782,314.063 134.5853,314.9065 133.4363,315.1619 132.0757,314.551 130.1986,313.7083 129.4395,311.5066 130.2187,309.7709 130.7758,308.5301 131.333,307.2892 131.8901,306.0484 132.7046,304.2343 134.7561,303.5576 136.4614,304.3233 138.1505,305.0816 138.9923,307.0573 138.1778,308.8715" stroke="black" stroke-width="1" /><polyline fill="none" points="123.4842,297.8012 121.3617,301.5447 126.6723,304.5557 115.4163,312.9345" stroke="black" stroke-width="1" /><polyline fill="none" points="110.8709,293.6271 112.0094,291.9966 114.2145,291.6541 115.775,292.7437 117.3355,293.8334 117.7873,296.0311 116.6488,297.6616 115.7851,298.8985 114.9214,300.1354 114.0577,301.3723 112.9189,303.0031 110.7005,303.3354 109.14,302.2458 107.5795,301.1562 107.1411,298.9686 108.2798,297.3378" stroke="black" stroke-width="1" /><polyline fill="none" points="103.7341,293.8367 102.4477,295.3536 100.2082,295.477 98.7563,294.2458 97.305,293.015 97.0733,290.7961 98.3597,289.2791 99.3355,288.1285 100.3112,286.9779 101.2869,285.8273 102.5731,284.3106 104.8006,284.176 106.2519,285.4068 107.7038,286.638 107.9347,288.8573 106.6485,290.374 106.6528,290.3776 106.6571,290.3812 106.6613,290.3849 103.6896,293.8892 100.7179,297.3934 97.7462,300.8978" stroke="black" stroke-width="1" /><polyline fill="none" points="90.2539,289.364 88.8433,290.7418 86.5885,290.7151 85.2106,289.3046 83.8205,287.8815 83.8475,285.5784 85.2581,284.2006 85.8107,283.6607 86.2854,283.4122 86.7117,283.3073 91.0241,282.2431 95.3366,281.1788 99.6491,280.1146 99.7511,280.0149 99.8531,279.9152 99.9552,279.8156 98.3017,278.1229 96.6482,276.4301 94.9947,274.7375" stroke="black" stroke-width="1" /><polyline fill="none" points="80.9088,271.3348 80.9046,271.3382 80.9003,271.3416 80.8961,271.3451 82.7091,269.8792 84.5222,268.4134 86.3353,266.9475 87.1732,266.2701 87.0195,265.4221 86.6647,264.9833 87.1176,265.5435 87.0166,266.3967 86.4416,266.8615 86.4062,266.8902 86.3707,266.9189 86.3353,266.9475 87.7854,267.187 89.1378,267.769 90.0753,268.9286 90.8516,269.8887 91.6327,271.837 89.6729,273.4214 88.6461,274.2516 87.5299,274.2065 86.5154,273.6595 86.0187,273.4001 84.7403,272.3376 83.8774,271.6248 82.9904,270.9089 81.9356,270.5046 80.9088,271.3348 79.869,272.1755 79.4681,274.2416 80.7615,275.8414 81.9799,277.3484 83.2733,277.4491 84.3091,277.3396" stroke="black" stroke-width="1" /><polyline fill="none" points="73.6248,260.8958 73.6203,260.8989 73.6157,260.9019 73.6111,260.9049 75.5535,259.6153 77.4959,258.3257 79.4382,257.036 80.3359,256.44 80.2623,255.5813 79.9501,255.1112 80.3486,255.7114 80.1681,256.5514 79.5522,256.9604 79.5142,256.9856 79.4762,257.0108 79.4382,257.036 80.8596,257.4102 82.1516,258.1163 82.9764,259.3586 83.6593,260.3871 84.2545,262.4 82.155,263.794 81.055,264.5243 79.9479,264.3749 78.9891,263.7353 78.5188,263.4306 77.3455,262.253 76.5532,261.4625 75.7372,260.6667 74.7249,260.1655 73.6248,260.8958 72.5108,261.6355 71.9182,263.655 73.0561,265.3689 74.1281,266.9833 75.4064,267.2047 76.4479,267.1927" stroke="black" stroke-width="1" /><polyline fill="none" points="59.6468,253.8109 63.6957,251.6391 67.7447,249.4672 71.7937,247.2954 73.5464,246.3552 75.6758,247.0608 76.5756,248.7383 77.4671,250.4004 76.8773,252.5649 75.1245,253.5051 73.7951,254.2182 72.4657,254.9313 71.1362,255.6444 69.3835,256.5846 67.2546,255.8784 66.363,254.2163 65.4632,252.5387 66.0526,250.3749 67.8053,249.4347" stroke="black" stroke-width="1" /><polyline fill="none" points="66.7584,243.6264 64.9411,244.3917 62.8521,243.541 62.0872,241.7243 61.315,239.8906 62.1729,237.818 63.9902,237.0527 64.9276,236.658 65.8649,236.2633 66.8022,235.8686 68.6195,235.1033 70.701,235.9381 71.4732,237.7719 72.2382,239.5885 71.3877,241.677 69.5704,242.4423 66.4313,243.7641 63.2922,245.086 60.1531,246.4079 58.3361,247.173 56.2475,246.3222 55.4825,244.5055 54.8234,242.9404 55.3524,241.1927 56.6595,240.2327" stroke="black" stroke-width="1" /><polyline fill="none" points="66.4165,224.129 62.3115,225.4203 64.1434,231.2438 50.1965,229.6987" stroke="black" stroke-width="1" /><polyline fill="none" points="60.0354,212.4756 61.9799,212.0591 63.8266,213.312 64.2252,215.173 64.6238,217.0341 63.4559,218.9499 61.5113,219.3663 60.0362,219.6823 58.561,219.9983 57.0858,220.3143 55.141,220.7308 53.2915,219.4614 52.8929,217.6003 52.4943,215.7393 53.665,213.8401 55.6099,213.4235" stroke="black" stroke-width="1" /><polyline fill="none" points="48.2844,201.3871 51.9452,203.3502 55.606,205.3134 59.2668,207.2765 55.884,207.6749 52.5014,208.0732 49.1187,208.4716 47.1604,208.7022 45.39,207.3042 45.1595,205.3466 44.9268,203.3706 46.326,201.6177 48.2844,201.3871 51.6671,200.9887 55.0498,200.5904 58.4324,200.192 60.3908,199.9614 62.1583,201.3413 62.389,203.3 62.6215,205.275 61.2251,207.0459 59.2668,207.2765" stroke="black" stroke-width="1" /><polyline fill="none" points="57.8179,188.1016 59.806,188.055 61.3866,189.6302 61.4312,191.533 61.4758,193.4358 59.9712,195.1001 57.9831,195.1467 56.4749,195.1821 54.9666,195.2175 53.4584,195.2528 51.47,195.2995 49.8897,193.7074 49.8451,191.8047 49.8004,189.9019 51.3048,188.2544 53.2932,188.2077" stroke="black" stroke-width="1" /><polyline fill="none" points="53.3163,175.7398 53.3108,175.7394 53.3054,175.739 53.2999,175.7386 55.6257,175.9025 57.9514,176.0663 60.2771,176.2302 61.352,176.3059 61.8177,175.5807 61.8574,175.0178 61.8067,175.7364 61.1511,176.2917 60.4136,176.2398 60.3681,176.2366 60.3226,176.2334 60.2771,176.2302 61.1747,177.394 61.7672,178.7419 61.6624,180.2293 61.5757,181.461 60.8187,183.4187 58.3048,183.2417 56.9877,183.1488 56.2019,182.3549 55.8327,181.263 55.6461,180.7346 55.4354,179.0856 55.2902,177.9759 55.1294,176.8475 54.6334,175.8326 53.3163,175.7398 51.9824,175.6458 50.2804,176.8839 50.1358,178.9361 49.9996,180.8692 50.8772,181.8247 51.7096,182.4508" stroke="black" stroke-width="1" /><polyline fill="none" points="46.5674,161.5964 51.1003,162.3471 55.6333,163.0977 60.1662,163.8484 62.1285,164.1734 63.3847,166.0318 63.0736,167.9099 62.7655,169.7707 60.9772,171.1254 59.0149,170.8004 57.5266,170.5539 56.0382,170.3075 54.5499,170.061 52.5876,169.736 51.3322,167.8773 51.6404,166.0165 51.9514,164.1385 53.7389,162.784 55.7012,163.109" stroke="black" stroke-width="1" /><polyline fill="none" points="58.4166,157.8689 56.51,157.366 55.3744,155.4172 55.8771,153.5113 56.3846,151.5874 58.3291,150.4691 60.2358,150.972 61.2192,151.2314 62.2026,151.4908 63.1861,151.7502 65.0927,152.2531 66.2321,154.1848 65.7246,156.1087 65.2219,158.0146 63.2736,159.15 61.3669,158.6471 58.0735,157.7784 54.78,156.9097 51.4866,156.041 49.5803,155.5382 48.4451,153.5895 48.9478,151.6835 49.3809,150.0414 50.8666,148.9798 52.4879,149.0171" stroke="black" stroke-width="1" /><polyline fill="none" points="61.8566,145.8223 60.0054,145.1431 59.0573,143.0966 59.7363,141.246 60.4217,139.3781 62.4624,138.4469 64.3136,139.1261 65.2684,139.4765 66.2232,139.8268 67.178,140.1772 69.0292,140.8564 69.9827,142.8863 69.2973,144.7542 68.6183,146.6047 66.5722,147.5526 64.721,146.8734 61.5234,145.7001 58.3258,144.5268 55.1282,143.3535 53.2773,142.6744 52.3295,140.628 53.0085,138.7775 53.5935,137.1832 55.1721,136.2653 56.7828,136.4542" stroke="black" stroke-width="1" /><polyline fill="none" points="59.5438,123.6993 58.6596,125.5512 57.7755,127.403 56.8913,129.2549 59.3308,130.4196 61.7703,131.5844 64.2098,132.7492 63.3921,131.6368 63.1637,130.4822 63.8064,129.1362 64.6929,127.2794 66.9117,126.5721 68.6286,127.3918 69.8561,127.9779 71.0835,128.5639 72.311,129.15 74.1055,130.0068 74.7339,132.0736 73.9285,133.7605 73.1307,135.4313 71.1359,136.2266 69.3413,135.3698" stroke="black" stroke-width="1" /><polyline fill="none" points="66.4318,118.0638 64.8983,114.0479 79.6095,122.8508" stroke="black" stroke-width="1" /><polyline fill="none" points="71.8979,107.5029 69.9901,106.1031 74.2002,100.3653 85.0704,114.5304" stroke="black" stroke-width="1" /><polyline fill="none" points="81.7061,96.5382 80.9483,92.3068 93.7601,103.6983" stroke="black" stroke-width="1" /><polyline fill="none" points="101.9631,90.5748 103.319,92.0295 103.1921,94.2574 101.7998,95.5551 100.4075,96.8528 98.1639,96.8342 96.808,95.3795 95.7794,94.2759 94.7508,93.1723 93.7222,92.0687 92.3661,90.6137 92.5058,88.3748 93.8981,87.0771 95.2904,85.7795 97.5212,85.8089 98.8774,87.264" stroke="black" stroke-width="1" /><polyline fill="none" points="111.5133,82.9016 112.727,84.4769 112.392,86.6832 110.8843,87.8448 109.3766,89.0063 107.1446,88.7778 105.9309,87.2025 105.0101,86.0074 104.0894,84.8123 103.1687,83.6172 101.9548,82.0416 102.3035,79.8257 103.8112,78.6641 105.3189,77.5025 107.5372,77.7408 108.7511,79.3164" stroke="black" stroke-width="1" /><polyline fill="none" points="113.9926,64.898 112.2568,65.9926 110.5211,67.0873 108.7854,68.182 110.2274,70.4686 111.6695,72.7551 113.1116,75.0417 113.0133,73.6646 113.4361,72.5661 114.6977,71.7705 116.438,70.6729 118.6921,71.2582 119.707,72.8675 120.4326,74.018 121.1582,75.1684 121.8838,76.3189 122.9446,78.001 122.3736,80.0843 120.7924,81.0815 119.2264,82.0692 117.1148,81.6777 116.054,79.9956" stroke="black" stroke-width="1" /><polyline fill="none" points="124.9543,70.9334 124.0633,69.1744 124.765,67.0309 126.5234,66.1401 128.2984,65.241 130.4262,65.9511 131.3172,67.7101 131.7769,68.6174 132.2365,69.5247 132.6961,70.432 133.5872,72.191 132.9007,74.326 131.1257,75.2252 129.3673,76.1159 127.2243,75.4143 126.3332,73.6553 124.794,70.6169 123.2548,67.5784 121.7156,64.5399 120.8246,62.7812 121.5266,60.638 123.285,59.7473 124.7999,58.9798 126.5805,59.3846 127.63,60.621" stroke="black" stroke-width="1" /><polyline fill="none" points="138.6059,61.7306 140.15,61.2316 141.2383,59.1921 140.519,57.3654 140.3516,56.9402 140.1841,56.5151 140.0167,56.0899 139.3381,54.3665 137.3803,53.516 135.641,54.2009 133.9179,54.8794 133.0789,56.8683 133.7449,58.5595 133.9123,58.9847 134.0797,59.4098 134.2471,59.835 134.9258,61.5587 136.8828,62.4091 138.6059,61.7306 140.5044,60.9831 142.5988,61.9455 143.321,63.7796 143.5681,64.4072 143.8152,65.0347 144.0623,65.6622 144.7846,67.4966 143.8964,69.5975 141.9979,70.345 140.1153,71.0863 138.0342,70.1547 137.3119,68.3203 137.0607,67.6823 136.8095,67.0444 136.5583,66.4064 135.9391,64.8339 136.5903,62.6333" stroke="black" stroke-width="1" /><polyline fill="none" points="153.913,57.1943 153.9115,57.189 153.91,57.1837 153.9084,57.1785 154.5558,59.4183 155.2031,61.6582 155.8504,63.898 156.1496,64.9332 156.9908,65.1206 157.5329,64.9639 156.8408,65.1639 156.0937,64.7397 155.8884,64.0294 155.8757,63.9856 155.8631,63.9418 155.8504,63.898 155.067,65.1416 154.0057,66.1621 152.5732,66.5761 151.3871,66.9189 149.2883,66.8827 148.5887,64.4616 148.222,63.1931 148.6968,62.1819 149.5947,61.4592 150.0264,61.1021 151.5019,60.3362 152.4937,59.8176 153.4977,59.278 154.2796,58.4628 153.913,57.1943 153.5417,55.9096 151.7931,54.7383 149.8168,55.3095 147.955,55.8475 147.3603,57.0005 147.0592,57.9976" stroke="black" stroke-width="1" /><polyline fill="none" points="163.4895,46.5093 162.5133,46.6946 161.8165,47.438 162.053,48.6843 162.2821,49.8914 162.5112,51.0984 162.7403,52.3055 163.3353,52.1926 163.9303,52.0797 164.5253,51.9668 163.3798,52.1841 162.2344,52.4015 161.089,52.6189 161.6394,52.5145 162.1898,52.41 162.7403,52.3055 163.4446,56.0167 164.1489,59.7278 164.8533,63.439" stroke="black" stroke-width="1" /><polyline fill="none" points="181.3682,105.2677 126.744,171.7336 136.578,231.1149 189.0084,152.2515 140.8637,108.5745 140.8637,108.5745 156.5688,130.1462 239.8942,231.6324 239.8942,231.6324 96.1804,188.1635" stroke="black" stroke-width="1" /><polyline fill="none" points="91.0723,205.0515 101.2885,171.2755" stroke="black" stroke-width="1" /><polyline fill="none" points="200.5989,96.1804 200.4541,94.3404 200.0232,92.5456 199.3169,90.8404 198.3525,89.2667 197.1538,87.8632 195.7503,86.6644 194.1765,85.7001 192.4713,84.9937 190.6765,84.5628 188.8365,84.418 186.9964,84.5628 185.2017,84.9937 183.4965,85.7001 181.9227,86.6644 180.5192,87.8632 179.3205,89.2667 178.3561,90.8404 177.6498,92.5456 177.2189,94.3404 177.0741,96.1804 177.2189,98.0205 177.6498,99.8152 178.3561,101.5204 179.3205,103.0942 180.5192,104.4977 181.9227,105.6964 183.4965,106.6608 185.2017,107.3671 186.9964,107.798 188.8365,107.9428 190.6765,107.798 192.4713,107.3671 194.1765,106.6608 195.7503,105.6964 197.1538,104.4977 198.3525,103.0942 199.3169,101.5204 200.0232,99.8152 200.4541,98.0205 200.5989,96.1804" stroke="black" stroke-width="1" /><polyline fill="none" points="188.5,69.0664 199.6839,69.5912 210.7696,71.161 221.6595,73.7619 232.2581,77.3712 242.4721,81.9571 252.2118,87.4792 261.3915,93.8892 269.9308,101.1306 277.7544,109.1398 284.7936,117.8464 290.9866,127.1739 296.2789,137.0404 300.6241,147.3591 303.9839,158.0393 306.3289,168.9873 307.6383,180.1067 307.9008,191.2998 307.114,202.4684 305.2847,213.5142 302.4292,224.3402 298.5725,234.8512 293.7484,244.9549 287.9994,254.5625 281.376,263.5894 273.9365,271.9565 265.7461,279.5902 256.8768,286.4234 247.4067,292.3961 237.4188,297.4556 227.0011,301.5577 216.2451,304.6663 205.2452,306.7539 194.0981,307.8023 182.9019,307.8023 171.7548,306.7539 160.7549,304.6663 149.9989,301.5577 139.5811,297.4556 129.5933,292.3961 120.1232,286.4234 111.2539,279.5902 103.0635,271.9565 95.6239,263.5894 89.0006,254.5625 83.2516,244.9549 78.4275,234.8512 74.5708,224.3402 71.7153,213.5142 69.8861,202.4684 69.0992,191.2998 69.3617,180.1067 70.6712,168.9872 73.0161,158.0393 76.3759,147.3591 80.7211,137.0404 86.0134,127.174 92.2064,117.8464 99.2457,109.1398 107.0692,101.1306 115.6085,93.8892 124.7882,87.4792 134.5279,81.957 144.7419,77.3712 155.3405,73.7619 166.2304,71.161 177.3161,69.5912 188.5,69.0664" stroke="black" stroke-width="1" />

    </g>
  </g>
  <WCB
     pausedposy="0"
     pausedposx="0"
     lastknownposy="0"
     lastknownposx="0"
     lastpathnc="0"
     lastpath="0"
     node="0"
     layer="0" />
</svg>
