<?xml version="1.0" encoding="UTF-8" standalone="no"?>
<!-- Created with Inkscape (http://www.inkscape.org/) -->

<svg
   xmlns:dc="http://purl.org/dc/elements/1.1/"
   xmlns:cc="http://creativecommons.org/ns#"
   xmlns:rdf="http://www.w3.org/1999/02/22-rdf-syntax-ns#"
   xmlns:svg="http://www.w3.org/2000/svg"
   xmlns="http://www.w3.org/2000/svg"
   xmlns:sodipodi="http://sodipodi.sourceforge.net/DTD/sodipodi-0.dtd"
   xmlns:inkscape="http://www.inkscape.org/namespaces/inkscape"
   width="100mm"
   height="100mm"
   viewBox="0 0 100 100"
   version="1.1"
   id="svg19124"
   inkscape:version="0.92.3 (2405546, 2018-03-11)"
   sodipodi:docname="inkscape_template_TMP.svg"
   shape-rendering="crispEdges">
  <sodipodi:namedview
     pagecolor="#ffffff"
     bordercolor="#666666"
     borderopacity="1"
     objecttolerance="10"
     gridtolerance="10"
     guidetolerance="10"
     inkscape:pageopacity="0"
     inkscape:pageshadow="2"
     inkscape:window-width="1568"
     inkscape:window-height="1550"
     id="namedview24021"
     showgrid="false"
     inkscape:zoom="0.62441667"
     inkscape:cx="712.66515"
     inkscape:cy="409.98265"
     inkscape:window-x="0"
     inkscape:window-y="0"
     inkscape:window-maximized="0"
     inkscape:current-layer="layer1" />
  <defs
     id="defs19118" />
  <metadata
     id="metadata19121">
    <rdf:RDF>
      <cc:Work
         rdf:about="">
        <dc:format>image/svg+xml</dc:format>
        <dc:type
           rdf:resource="http://purl.org/dc/dcmitype/StillImage" />
        <dc:title />
      </cc:Work>
    </rdf:RDF>
  </metadata>
  <g
     transform="translate(0,-197)"
     id="layer1"
     inkscape:groupmode="layer"
     inkscape:label="Layer 1">
    <g
       id="g24447"
       transform="matrix(0.26458333,0,0,0.26458333,0.10666333,197.9735)">

<polyline fill="none" points="192.1004,47.7394 189.7225,51.1455 187.3447,54.5516 184.9669,57.9577 184.9669,54.5516 184.9669,51.1455 184.9669,47.7394 184.9669,45.7676 186.5623,44.1729 188.5334,44.1729 190.5231,44.1729 192.1004,45.7676 192.1004,47.7394 192.1004,51.1455 192.1004,54.5516 192.1004,57.9577 192.1004,59.9295 190.5231,61.5235 188.5509,61.5235 186.5623,61.5235 184.9669,59.9295 184.9669,57.9577" stroke="black" stroke-width="1" /><polyline fill="none" points="197.8298,61.5877 200.7471,57.7851 198.696,53.7706 202.935,62.0679 200.7471,57.7851 203.4811,54.2207" stroke="black" stroke-width="1" /><polyline fill="none" points="216.9831,55.7364 216.9842,55.731 216.9852,55.7257 216.9862,55.7203 216.5515,58.0109 216.1167,60.3015 215.682,62.5921 215.4811,63.6508 216.1468,64.1981 216.7012,64.3033 215.9935,64.169 215.5186,63.4529 215.6565,62.7265 215.665,62.6817 215.6735,62.6369 215.682,62.5921 214.4212,63.3475 213.0132,63.7782 211.5483,63.5002 210.3352,63.27 208.4794,62.2892 208.9493,59.8133 209.1955,58.5161 210.076,57.8285 211.2036,57.5896 211.7501,57.4661 213.4124,57.4497 214.5315,57.4352 215.671,57.4075 216.7369,57.0337 216.9831,55.7364 217.2325,54.4227 216.2019,52.5876 214.1808,52.204 212.2768,51.8426 211.2252,52.6024 210.506,53.3558" stroke="black" stroke-width="1" /><polyline fill="none" points="231.0396,54.273 227.8096,56.885 224.5796,59.497 221.3496,62.109 222.2952,58.8368 223.2409,55.5646 224.1866,52.2925 224.734,50.3981 226.7095,49.3091 228.6031,49.8564 230.5146,50.4088 231.587,52.3787 231.0396,54.273 230.0939,57.5452 229.1482,60.8173 228.2026,64.0895 227.6551,65.9838 225.6974,67.0772 223.8027,66.5297 221.8922,65.9776 220.8021,64.0033 221.3496,62.109" stroke="black" stroke-width="1" /><polyline fill="none" points="237.5491,71.1629 239.1257,67.1588 233.4454,64.9221 243.4155,55.0479" stroke="black" stroke-width="1" /><polyline fill="none" points="248.9864,61.3496 249.8775,59.5905 252.0205,58.8889 253.7796,59.78 255.5542,60.679 256.2711,62.8678 255.38,64.6268 255.0309,65.316 254.6616,65.7043 254.2919,65.941 250.5527,68.3386 246.8136,70.7362 243.0744,73.1339 243.0099,73.2611 242.9455,73.3883 242.881,73.5156 244.9919,74.5849 247.1028,75.6542 249.2137,76.7235" stroke="black" stroke-width="1" /><polyline fill="none" points="256.7554,73.6038 257.8073,71.9359 260.007,71.4374 261.6743,72.489 263.3572,73.5504 263.8404,75.7409 262.7885,77.4087 262.2459,78.269 261.7034,79.1292 261.1608,79.9895 260.1089,81.6574 257.9244,82.1646 256.2415,81.1031 254.5742,80.0516 254.0758,77.8524 255.1277,76.1845 256.9447,73.3036 258.7617,70.4226 260.5786,67.5417 261.6303,65.8741 263.8299,65.3759 265.4971,66.4274 266.9336,67.3334 267.5004,69.0691 266.9784,70.6046" stroke="black" stroke-width="1" /><polyline fill="none" points="272.7293,75.5074 276.8971,74.4541 266.434,88.0348" stroke="black" stroke-width="1" /><polyline fill="none" points="289.4206,85.138 286.2879,88.4991 283.1552,91.8603 280.0225,95.2214 278.6664,96.6764 276.4233,96.695 275.0307,95.397 273.6509,94.1111 273.5115,91.872 274.8676,90.4169 275.8962,89.3133 276.9248,88.2097 277.9534,87.1061 279.3095,85.6511 281.5524,85.6334 282.9322,86.9193 284.3247,88.2173 284.4644,90.4556 283.1083,91.9106" stroke="black" stroke-width="1" /><polyline fill="none" points="298.6561,95.0425 295.2224,98.0955 291.7888,101.1486 288.3551,104.2016 286.8687,105.5232 284.6337,105.3316 283.3688,103.909 282.1155,102.4995 282.1864,100.2571 283.6728,98.9355 284.8002,97.9331 285.9276,96.9306 287.055,95.9282 288.5414,94.6066 290.7761,94.7989 292.0294,96.2085 293.2943,97.6311 293.2238,99.8726 291.7373,101.1943" stroke="black" stroke-width="1" /><polyline fill="none" points="305.8586,104.7514 305.2709,103.9503 304.2998,103.6418 303.277,104.3922 302.2864,105.1191 301.2958,105.8459 300.3053,106.5727 300.6635,107.061 301.0218,107.5492 301.3801,108.0375 300.6904,107.0975 300.0007,106.1575 299.311,105.2176 299.6424,105.6693 299.9738,106.121 300.3053,106.5727 297.2597,108.8073 294.2142,111.0419 291.1687,113.2765" stroke="black" stroke-width="1" /><polyline fill="none" points="308.401,112.4713 310.4314,111.2564 314.0856,117.3632 296.8121,121.8841" stroke="black" stroke-width="1" /><polyline fill="none" points="320.2729,129.3005 316.1266,131.2802 311.9803,133.2599 307.8339,135.2395 306.039,136.0965 303.9451,135.2919 303.1249,133.5741 302.3122,131.872 303.0029,129.7375 304.7978,128.8805 306.1592,128.2305 307.5206,127.5805 308.882,126.9305 310.6769,126.0735 312.7703,126.8787 313.583,128.5808 314.4032,130.2987 313.7131,132.4325 311.9182,133.2895" stroke="black" stroke-width="1" /><polyline fill="none" points="319.6768,136.7748 321.3509,136.1606 323.3457,137.0173 324.0132,138.8367 324.6804,140.655 323.7992,142.5864 321.9001,143.2832 321.5998,143.3934 321.2995,143.5036 320.9991,143.6138 318.1019,144.6769 316.6921,142.3268 316.5738,142.0042 316.4597,141.6932 316.3455,141.3822 316.2314,141.0711 316.3455,141.3822 316.4597,141.6932 316.5738,142.0042 316.9224,142.9545 316.5397,145.3962 314.2868,146.2228 313.6267,146.465 312.9666,146.7072 312.3065,146.9494 310.44,147.6343 308.4036,146.6642 307.7185,144.7969 307.0274,142.9136 307.9592,140.8734 309.8258,140.1885" stroke="black" stroke-width="1" /><polyline fill="none" points="325.5238,156.0813 321.6239,154.6508 317.7241,153.2203 313.8242,151.7898 317.1176,150.9211 320.4111,150.0524 323.7045,149.1837 325.6111,148.6808 327.56,149.8168 328.0627,151.7227 328.5702,153.6467 327.4305,155.5784 325.5238,156.0813 322.2304,156.95 318.937,157.8187 315.6435,158.6874 313.7369,159.1903 311.7934,158.0718 311.2903,156.1648 310.7832,154.2419 311.9175,152.2927 313.8242,151.7898" stroke="black" stroke-width="1" /><polyline fill="none" points="321.2783,162.9853 323.2405,162.6604 325.0284,164.0147 325.3394,165.8928 325.6503,167.7702 324.3918,169.6124 322.4295,169.9373 320.9412,170.1838 319.4528,170.4303 317.9645,170.6767 316.0026,171.0016 314.2167,169.6636 313.9058,167.7862 313.5948,165.9082 314.854,164.0662 316.8159,163.7413 316.815,163.7358 316.8141,163.7303 316.8132,163.7247 321.3461,162.9741 325.8791,162.2234 330.412,161.4727" stroke="black" stroke-width="1" /><polyline fill="none" points="317.3481,182.9067 316.3996,182.372 315.4387,181.6663 315.2892,179.5451 315.1555,177.6461 316.5801,175.9131 318.6158,175.7697 320.1035,175.6649 321.5912,175.5601 323.0789,175.4553 325.0629,175.3155 326.7158,176.8317 326.8495,178.7306 326.9857,180.6638 325.5642,182.4306 323.5801,182.5704 322.8392,182.6226 322.0983,182.6748 321.3573,182.727 321.1906,180.361 321.024,177.995 320.8573,175.629" stroke="black" stroke-width="1" /><polyline fill="none" points="322.1404,188.074 324.1117,188.1203 325.6689,189.7519 325.6227,191.7225 325.5761,193.7117 323.9445,195.251 321.9732,195.2048 320.9564,195.181 319.9396,195.1571 318.9229,195.1333 316.9515,195.0871 315.3946,193.4729 315.4413,191.4838 315.4875,189.5132 317.1188,187.9563 319.0901,188.0025 322.4952,188.0824 325.9003,188.1622 329.3055,188.2421 331.2764,188.2883 332.8333,189.9199 332.7871,191.8905 332.7473,193.5883 331.5489,194.966 329.9633,195.3064" stroke="black" stroke-width="1" /><polyline fill="none" points="322.937,207.5826 322.9424,207.5833 322.9479,207.5839 322.9533,207.5845 320.6378,207.3118 318.3223,207.0392 316.0068,206.7665 314.9366,206.6405 314.4375,207.343 314.3715,207.9034 314.4557,207.188 315.1367,206.664 315.871,206.7505 315.9162,206.7558 315.9615,206.7611 316.0068,206.7665 315.1647,205.5618 314.6361,204.1877 314.8105,202.7068 314.9549,201.4806 315.8028,199.5604 318.3056,199.8551 319.6169,200.0096 320.3647,200.8395 320.6823,201.9475 320.8439,202.4841 320.9771,204.1411 321.0701,205.2564 321.1778,206.3911 321.6257,207.4282 322.937,207.5826 324.265,207.739 326.0232,206.582 326.2638,204.5389 326.4904,202.6143 325.6586,201.6187 324.8565,200.9542" stroke="black" stroke-width="1" /><polyline fill="none" points="312.274,217.7198 316.482,218.6211 317.7606,212.6516 329.131,220.8746" stroke="black" stroke-width="1" /><polyline fill="none" points="323.8241,227.4002 325.7051,227.9919 326.7474,229.9915 326.1557,231.8725 325.5587,233.7702 323.5164,234.835 321.6354,234.2433 320.8985,234.0115 320.4551,233.7106 320.1612,233.3845 317.1849,230.0873 314.2086,226.7901 311.2322,223.4929 311.0962,223.4501 310.9601,223.4073 310.8241,223.3645 310.114,225.6217 309.4039,227.8789 308.6938,230.1362" stroke="black" stroke-width="1" /><polyline fill="none" points="307.5542,242.3896 305.7214,241.6178 304.9246,239.5334 305.6633,237.7793 306.4019,236.0251 308.4563,235.1231 310.2891,235.8949 311.6794,236.4804 313.0698,237.0658 314.4602,237.6513 316.2933,238.4232 317.0829,240.5229 316.3443,242.277 315.6056,244.0311 313.5584,244.9179 311.7253,244.146" stroke="black" stroke-width="1" /><polyline fill="none" points="299.2953,250.9357 303.0875,252.9698 305.9732,247.59 314.6136,258.6465" stroke="black" stroke-width="1" /><polyline fill="none" points="307.7036,263.4422 309.3463,264.5329 309.7925,266.7433 308.7018,268.386 307.6014,270.0434 305.3438,270.4993 303.701,269.4086 303.0575,268.9813 302.715,268.5692 302.5232,268.1743 300.5793,264.1804 298.6355,260.1865 296.6916,256.1925 296.5728,256.1136 296.454,256.0348 296.3352,255.9559 295.0263,257.9272 293.7174,259.8985 292.4086,261.8699" stroke="black" stroke-width="1" /><polyline fill="none" points="287.9117,273.3251 286.3652,272.0748 286.1785,269.8511 287.3752,268.3711 288.5718,266.891 290.7958,266.5948 292.3423,267.8451 293.5154,268.7936 294.6886,269.7421 295.8618,270.6906 297.4084,271.941 297.584,274.1774 296.3875,275.6574 295.1908,277.1375 292.9779,277.4211 291.4312,276.1706" stroke="black" stroke-width="1" /><polyline fill="none" points="279.5317,282.2614 278.1092,280.8718 278.1315,278.6404 279.4614,277.2789 280.7914,275.9174 283.0334,275.8307 284.456,277.2204 285.5352,278.2745 286.6143,279.3287 287.6935,280.3829 289.1164,281.7728 289.0818,284.0157 287.7518,285.3772 286.4219,286.7387 284.1921,286.8138 282.7693,285.424" stroke="black" stroke-width="1" /><polyline fill="none" points="276.7938,298.1846 276.4044,294.049 276.015,289.9133 275.6255,285.7776 277.8285,288.3754 280.0314,290.9731 282.2344,293.5709 283.5097,295.0748 283.3243,297.3229 281.8209,298.5978 280.3034,299.8847 278.0691,299.6885 276.7938,298.1846 274.5908,295.5868 272.3879,292.9891 270.1849,290.3913 268.9096,288.8874 269.0816,286.6516 270.5858,285.376 272.1024,284.0898 274.3502,284.2737 275.6255,285.7776" stroke="black" stroke-width="1" /><polyline fill="none" points="267.9014,295.9959 269.0303,297.6126 268.636,299.8334 267.0199,300.9619 265.3885,302.101 263.1822,301.6962 262.0533,300.0794 261.471,299.2455 260.8887,298.4117 260.3065,297.5778 259.1776,295.9611 259.5579,293.7509 261.1893,292.6118 262.8054,291.4833 265.0257,291.8775 266.1546,293.4942 268.1046,296.2869 270.0546,299.0795 272.0046,301.8721 273.1333,303.4886 272.7388,305.709 271.1227,306.8375 269.7302,307.8098 267.9106,307.6586 266.6981,306.5816" stroke="black" stroke-width="1" /><polyline fill="none" points="260.9615,309.4635 261.841,311.0148 261.3217,313.1227 259.6359,314.0786 257.951,315.0338 255.9015,314.4801 254.9038,312.7203 254.746,312.442 254.5882,312.1638 254.4305,311.8855 252.9083,309.2008 254.9965,307.426 255.2954,307.2566 255.5836,307.0931 255.8718,306.9297 256.16,306.7663 255.8718,306.9297 255.5836,307.0931 255.2954,307.2566 254.4149,307.7558 251.9435,307.7771 250.7599,305.6896 250.4131,305.0779 250.0663,304.4663 249.7195,303.8546 248.7388,302.125 249.3632,299.9575 251.0935,298.9765 252.8386,297.9871 255.0036,298.573 255.9843,300.3026" stroke="black" stroke-width="1" /><polyline fill="none" points="238.1627,305.5787 239.9254,309.5045 245.4946,307.004 245.5913,321.0359" stroke="black" stroke-width="1" /><polyline fill="none" points="226.7701,311.6605 227.0452,310.607 227.4825,309.4979 229.4955,308.8124 231.2975,308.1987 233.3365,309.1342 233.9944,311.0661 234.4752,312.4778 234.9559,313.8896 235.4367,315.3013 236.0779,317.1841 235.0333,319.169 233.2313,319.7827 231.3969,320.4074 229.3259,319.4835 228.6847,317.6006 228.4453,316.8976 228.2058,316.1945 227.9664,315.4913 230.2116,314.7267 232.4569,313.9621 234.7021,313.1975" stroke="black" stroke-width="1" /><polyline fill="none" points="222.9959,317.6122 223.454,319.5302 222.2734,321.4521 220.3562,321.91 218.4209,322.3722 216.5164,321.1871 216.0583,319.2692 215.822,318.28 215.5857,317.2908 215.3495,316.3015 214.8914,314.3836 216.0551,312.4665 217.9904,312.0043 219.9076,311.5464 221.829,312.7266 222.2871,314.6446 223.0783,317.9575 223.8696,321.2703 224.6608,324.5833 225.1188,326.5008 223.9382,328.4223 222.021,328.8802 220.3692,329.2747 218.7314,328.4673 217.9978,327.021" stroke="black" stroke-width="1" /><polyline fill="none" points="204.1319,325.3689 203.8554,323.4166 205.1942,321.6171 207.1466,321.3406 209.116,321.0618 210.9177,322.4165 211.1942,324.3689 211.3368,325.3761 211.4794,326.3834 211.622,327.3906 211.8985,329.343 210.5438,331.1454 208.5911,331.4219 206.6221,331.7008 204.8362,330.3431 204.5597,328.3907 204.0822,325.0182 203.6046,321.6458 203.1271,318.2734 202.8507,316.3214 204.1895,314.5215 206.1418,314.2451 207.8223,314.0071 209.3784,314.9645 209.9733,316.4736" stroke="black" stroke-width="1" /><polyline fill="none" points="198.4772,329.1531 198.5607,330.9344 197.1449,332.5801 195.2091,332.671 193.2743,332.7618 191.6963,331.3416 191.6015,329.3209 191.5865,329.0014 191.5715,328.6818 191.5565,328.3623 191.4119,325.2795 194.0767,324.64 194.4199,324.6238 194.7509,324.6083 195.0818,324.5928 195.4128,324.5773 195.0818,324.5928 194.7509,324.6083 194.4199,324.6238 193.4089,324.6713 191.1945,323.5735 191.082,321.1764 191.0491,320.474 191.0161,319.7717 190.9832,319.0693 190.89,317.0833 192.4265,315.4319 194.4133,315.3386 196.4172,315.2446 198.0838,316.7457 198.1769,318.7318" stroke="black" stroke-width="1" /><polyline fill="none" points="185.2624,329.4694 185.1788,331.2507 183.615,332.7566 181.6792,332.6657 179.7445,332.575 178.3064,331.0133 178.4012,328.9926 178.4162,328.673 178.4312,328.3535 178.4462,328.0339 178.5909,324.9512 181.3039,324.564 181.6471,324.58 181.978,324.5956 182.309,324.6111 182.6399,324.6266 182.309,324.6111 181.978,324.5956 181.6471,324.58 180.636,324.5326 178.5342,323.2323 178.6467,320.8352 178.6797,320.1328 178.7126,319.4305 178.7456,318.7281 178.8388,316.742 180.5231,315.2418 182.5099,315.335 184.5139,315.429 186.0325,317.0796 185.9393,319.0657" stroke="black" stroke-width="1" /><polyline fill="none" points="165.1999,327.3654 168.0318,324.3264 170.8637,321.2873 173.6956,318.2483 173.218,321.6207 172.7405,324.9932 172.2629,328.3656 171.9865,330.3179 170.1832,331.6732 168.2315,331.3969 166.2615,331.1179 164.9234,329.3178 165.1999,327.3654 165.6775,323.993 166.155,320.6205 166.6326,317.2481 166.909,315.2958 168.6941,313.9387 170.6469,314.2151 172.6158,314.494 173.972,316.2959 173.6956,318.2483" stroke="black" stroke-width="1" /><polyline fill="none" points="152.2987,324.5734 155.4027,321.8129 158.5067,319.0524 161.6108,316.2919 160.8195,319.6047 160.0283,322.9177 159.237,326.2305 158.7789,328.1484 156.8567,329.3289 154.9395,328.871 153.0042,328.4088 151.8406,326.4913 152.2987,324.5734 153.09,321.2605 153.8812,317.9476 154.6725,314.6347 155.1305,312.7168 157.0349,311.5328 158.9531,311.991 160.8874,312.4529 162.0688,314.3739 161.6108,316.2919" stroke="black" stroke-width="1" /><polyline fill="none" points="145.192,322.6131 141.5863,324.9537 147.1128,308.7251" stroke="black" stroke-width="1" /><polyline fill="none" points="133.8391,318.4808 133.1087,320.1077 131.1019,320.9359 129.334,320.1422 127.5671,319.3489 126.8012,317.3689 127.6297,315.5234 127.7608,315.2316 127.8918,314.9398 128.0228,314.6479 129.2869,311.8325 131.9531,312.4662 132.2666,312.607 132.5688,312.7427 132.8711,312.8784 133.1733,313.0141 132.8711,312.8784 132.5688,312.7427 132.2666,312.607 131.3432,312.1924 129.864,310.2124 130.8469,308.0232 131.1349,307.3818 131.4229,306.7404 131.7108,306.0989 132.5252,304.2851 134.6421,303.5063 136.4566,304.3209 138.2868,305.1426 139.0951,307.2348 138.2807,309.0486" stroke="black" stroke-width="1" /><polyline fill="none" points="120.9447,312.1859 116.9659,313.8131 125.4215,298.8996" stroke="black" stroke-width="1" /><polyline fill="none" points="103.5015,305.1365 105.184,306.3114 106.8666,307.4862 108.5491,308.6611 110.0967,306.4446 111.6444,304.2282 113.1921,302.0117 111.9611,302.6368 110.7846,302.6734 109.5618,301.8195 107.8748,300.6415 107.5394,298.3369 108.6287,296.777 109.4074,295.6618 110.1861,294.5466 110.9648,293.4315 112.1033,291.801 114.245,291.5187 115.7776,292.5889 117.2957,293.6489 117.7544,295.7469 116.6158,297.3774" stroke="black" stroke-width="1" /><polyline fill="none" points="102.4661,284.5796 103.5113,284.2747 104.6876,284.0804 106.3095,285.4557 107.7613,286.687 108.0056,288.9171 106.6856,290.4735 105.7211,291.611 104.7565,292.7484 103.7919,293.8858 102.5055,295.4028 100.2659,295.5257 98.8141,294.2945 97.336,293.0411 97.0655,290.7896 98.3519,289.2726 98.8323,288.7061 99.3127,288.1396 99.7931,287.5731 101.6021,289.1071 103.4111,290.6412 105.2201,292.1753" stroke="black" stroke-width="1" /><polyline fill="none" points="82.8455,287.0181 86.1323,283.8074 89.4191,280.5968 92.7059,277.3862 94.1287,275.9963 96.3702,276.083 97.7004,277.4447 99.0184,278.794 99.0527,281.0372 97.6299,282.427 96.5507,283.4812 95.4715,284.5354 94.3923,285.5895 92.9695,286.9794 90.7283,286.892 89.4103,285.5428 88.0801,284.181 88.0455,281.9386 89.4683,280.5487" stroke="black" stroke-width="1" /><polyline fill="none" points="80.4429,280.5883 78.6029,282.076 74.1286,276.5418 90.5977,269.6438" stroke="black" stroke-width="1" /><polyline fill="none" points="66.6786,265.8845 67.8136,267.5941 68.9487,269.3037 70.0838,271.0133 72.3359,269.518 74.588,268.0227 76.8401,266.5274 75.4658,266.658 74.3577,266.261 73.5327,265.0185 72.3946,263.3044 72.9269,261.0371 74.5119,259.9848 75.6451,259.2324 76.7782,258.4801 77.9114,257.7277 79.5681,256.6277 81.6643,257.1498 82.6983,258.7071 83.7224,260.2496 83.3805,262.3698 81.7238,263.4697" stroke="black" stroke-width="1" /><polyline fill="none" points="71.035,255.4556 69.2823,256.3958 67.1533,255.69 66.2534,254.0125 65.3539,252.3356 65.9514,250.186 67.7042,249.2458 69.0336,248.5327 70.363,247.8196 71.6925,247.1065 73.4449,246.1665 75.5668,246.8574 76.4663,248.5343 77.3661,250.2119 76.7679,252.3615 75.0154,253.3015 75.0181,253.3064 75.0207,253.3113 75.0234,253.3163 70.9744,255.4881 66.9254,257.66 62.8765,259.8318" stroke="black" stroke-width="1" /><polyline fill="none" points="66.7588,236.0087 68.5916,235.2369 70.6395,236.1234 71.3781,237.8775 72.1168,239.6317 71.3265,241.7316 69.4937,242.5033 68.1033,243.0888 66.713,243.6743 65.3226,244.2598 63.4895,245.0317 61.4358,244.1294 60.6971,242.3753 59.9585,240.6212 60.7546,238.537 62.5877,237.7651" stroke="black" stroke-width="1" /><polyline fill="none" points="49.7286,228.6396 54.1116,227.2608 58.4945,225.882 62.8774,224.5032 64.7748,223.9063 66.7352,224.9966 67.3064,226.8125 67.8724,228.6117 66.8894,230.6282 64.992,231.2251 63.5529,231.6778 62.1138,232.1305 60.6747,232.5833 58.7774,233.1801 56.8176,232.0893 56.2516,230.2901 55.6803,228.4742 56.6628,226.4582 58.5601,225.8613" stroke="black" stroke-width="1" /><polyline fill="none" points="53.068,213.7118 54.9961,213.2988 56.8852,214.5079 57.2982,216.436 57.7148,218.3809 56.49,220.2734 54.5619,220.6864 53.5672,220.8994 52.5724,221.1125 51.5777,221.3256 49.6496,221.7385 47.7564,220.5139 47.3433,218.5854 46.9268,216.6409 48.1557,214.764 50.0838,214.351 53.4143,213.6376 56.7449,212.9243 60.0754,212.2109 62.0032,211.798 63.8926,213.007 64.3056,214.9351 64.6611,216.5947 63.8154,218.2142 62.3519,218.9137" stroke="black" stroke-width="1" /><polyline fill="none" points="47.9774,208.7484 45.6275,209.0251 44.7952,201.9573 62.405,204.9081" stroke="black" stroke-width="1" /><polyline fill="none" points="52.7154,188.4546 52.7099,188.4547 52.7045,188.4549 52.699,188.455 55.0299,188.4003 57.3607,188.3457 59.6916,188.291 60.7688,188.2658 61.1646,187.5002 61.1514,186.936 61.1682,187.6562 60.5675,188.2705 59.8284,188.2878 59.7828,188.2889 59.7372,188.2899 59.6916,188.291 60.6942,189.3657 61.4103,190.6522 61.4453,192.1429 61.4742,193.3772 60.9039,195.3973 58.3845,195.4564 57.0645,195.4873 56.2078,194.7704 55.7379,193.7179 55.5027,193.2093 55.1385,191.5873 54.89,190.496 54.6243,189.3876 54.0355,188.4236 52.7154,188.4546 51.3786,188.4859 49.8,189.878 49.8483,191.9347 49.8937,193.8721 50.8568,194.7412 51.7442,195.2866" stroke="black" stroke-width="1" /><polyline fill="none" points="44.6717,175.0054 49.2551,175.3283 53.8384,175.6512 58.4217,175.9741 60.4058,176.1139 61.8304,177.8466 61.6967,179.7455 61.5641,181.627 59.9106,183.1432 57.9265,183.0034 56.4216,182.8974 54.9167,182.7914 53.4118,182.6853 51.4277,182.5455 50.0038,180.8126 50.1363,178.9311 50.2701,177.0322 51.9229,175.5163 53.907,175.6561" stroke="black" stroke-width="1" /><polyline fill="none" points="54.585,169.8496 52.6227,169.5247 51.3669,167.6663 51.6779,165.7882 51.9888,163.9108 53.774,162.5727 55.7363,162.8976 57.2246,163.1441 58.713,163.3906 60.2013,163.6371 62.1633,163.962 63.4224,165.8043 63.1115,167.6816 62.8005,169.5597 61.0147,170.8974 59.0528,170.5725 59.0519,170.578 59.051,170.5835 59.0501,170.5891 54.5171,169.8384 49.9842,169.0877 45.4512,168.3371" stroke="black" stroke-width="1" /><polyline fill="none" points="49.7226,148.881 49.1993,150.8652 48.6759,152.8494 48.1525,154.8336 50.7664,155.5231 53.3803,156.2126 55.9942,156.902 54.9835,155.9617 54.5438,154.8698 54.9242,153.4277 55.4489,151.4382 57.497,150.3295 59.3366,150.8147 60.6518,151.1616 61.967,151.5085 63.2822,151.8554 65.2051,152.3626 66.2078,154.276 65.731,156.0835 65.2588,157.8738 63.4472,159.0271 61.5244,158.5199" stroke="black" stroke-width="1" /><polyline fill="none" points="55.148,143.2997 53.2968,142.6204 52.3493,140.5741 53.0286,138.7229 53.7139,136.8553 55.8038,135.8874 57.655,136.5666 58.3802,136.8327 58.809,137.1541 59.0873,137.4936 61.9058,140.9267 64.7243,144.3597 67.5428,147.7928 67.6767,147.842 67.8106,147.8911 67.9445,147.9402 68.7596,145.7188 69.5747,143.4973 70.3898,141.2759" stroke="black" stroke-width="1" /><polyline fill="none" points="72.1026,129.0893 73.8972,129.9462 74.5954,132.0656 73.7753,133.7832 72.9553,135.5008 70.8609,136.3055 69.0663,135.4487 67.7049,134.7987 66.3435,134.1487 64.9821,133.4987 63.1872,132.6417 62.4968,130.5073 63.3169,128.7898 64.137,127.0722 66.2235,126.2823 68.0184,127.1393" stroke="black" stroke-width="1" /><polyline fill="none" points="72.0352,122.9569 70.3432,121.9444 69.7933,119.7569 70.8054,118.0655 71.8271,116.3581 74.0057,115.8237 75.6977,116.8362 76.5705,117.3585 77.4432,117.8807 78.316,118.4029 80.008,119.4154 80.5663,121.5875 79.5446,123.2949 78.5325,124.9863 76.3455,125.5361 74.6535,124.5236 71.7307,122.7746 68.8079,121.0257 65.8852,119.2768 64.1934,118.2645 63.6438,116.0772 64.656,114.3858 65.528,112.9285 67.25,112.3211 68.7972,112.807" stroke="black" stroke-width="1" /><polyline fill="none" points="86.6119,109.4309 86.9895,110.4521 87.266,111.6118 86.008,113.3263 84.8818,114.8612 82.6744,115.2615 81.029,114.0542 79.8266,113.172 78.6242,112.2897 77.4218,111.4075 75.8181,110.2308 75.5382,108.0054 76.6643,106.4706 77.8108,104.9082 80.0377,104.48 81.6413,105.6567 82.2402,106.0961 82.839,106.5355 83.4379,106.9749 82.0348,108.8872 80.6316,110.7995 79.2285,112.7119" stroke="black" stroke-width="1" /><polyline fill="none" points="82.0293,91.2845 81.369,92.027 81.2707,93.0412 82.2187,93.8841 83.1369,94.7005 84.0551,95.5169 84.9732,96.3333 85.3756,95.8807 85.7781,95.4281 86.1805,94.9755 85.4058,95.8468 84.6311,96.7181 83.8564,97.5893 84.2287,97.1706 84.6009,96.752 84.9732,96.3333 87.7961,98.8432 90.619,101.3532 93.4419,103.8632" stroke="black" stroke-width="1" /><polyline fill="none" points="103.7465,93.681 100.8124,90.5329 96.3465,94.6953 91.7316,81.4436" stroke="black" stroke-width="1" /><polyline fill="none" points="108.2102,78.9965 108.2069,78.9922 108.2035,78.9879 108.2002,78.9835 109.6231,80.8305 111.0461,82.6774 112.469,84.5243 113.1266,85.3779 113.978,85.2441 114.425,84.8997 113.8544,85.3393 113.0037,85.2183 112.5525,84.6327 112.5247,84.5966 112.4968,84.5604 112.469,84.5243 112.1957,85.9685 111.5821,87.3069 110.4009,88.2169 109.4228,88.9705 107.4567,89.7056 105.9187,87.7093 105.1128,86.6633 105.1841,85.5485 105.7547,84.5471 106.0256,84.0566 107.1179,82.8034 107.8507,81.9575 108.5872,81.0875 109.0161,80.0425 108.2102,78.9965 107.3941,77.9373 105.3379,77.4881 103.7083,78.7436 102.1731,79.9263 102.0422,81.217 102.1273,82.2551" stroke="black" stroke-width="1" /><polyline fill="none" points="122.666,77.5991 122.6431,78.6878 122.4755,79.8681 120.6768,81.0025 119.0667,82.018 116.8661,81.5817 115.7774,79.8556 114.9818,78.5941 114.1863,77.3327 113.3907,76.0713 112.3297,74.3889 112.8845,72.2157 114.4947,71.2002 116.1339,70.1664 118.3628,70.5839 119.4238,72.2663 119.82,72.8945 120.2163,73.5228 120.6125,74.1511 118.6063,75.4163 116.6001,76.6816 114.5939,77.9469" stroke="black" stroke-width="1" /><polyline fill="none" points="126.9543,66.9598 128.4449,66.3184 129.3374,64.1859 128.4502,62.4345 128.2437,62.027 128.0372,61.6193 127.8307,61.2117 126.9937,59.5594 124.9649,58.896 123.2973,59.7408 121.6453,60.5777 120.9963,62.6364 121.8177,64.2578 122.0241,64.6654 122.2306,65.073 122.4371,65.4806 123.2743,67.1332 125.3023,67.7967 126.9543,66.9598 128.7745,66.0377 130.9498,66.7999 131.8406,68.5583 132.1453,69.1599 132.4501,69.7615 132.7549,70.3632 133.6458,72.1219 132.9583,74.2967 131.1381,75.2187 129.3331,76.1331 127.174,75.4004 126.283,73.6417 125.9732,73.03 125.6634,72.4184 125.3535,71.8068 124.5898,70.2992 125.0321,68.0472" stroke="black" stroke-width="1" /><polyline fill="none" points="144.4991,67.2686 144.2737,68.3339 143.8889,69.4623 141.9103,70.2414 140.139,70.9389 138.0583,70.0999 137.3106,68.2011 136.7642,66.8134 136.2178,65.4257 135.6714,64.0381 134.9427,62.1874 135.893,60.1557 137.6643,59.4583 139.4675,58.7483 141.5795,59.5741 142.3082,61.4248 142.5803,62.1159 142.8524,62.807 143.1246,63.4981 140.9176,64.3671 138.7107,65.2361 136.5038,66.1051" stroke="black" stroke-width="1" /><polyline fill="none" points="151.6246,48.8258 152.9003,53.2399 154.176,57.6539 155.4516,62.0679 156.0039,63.9787 154.868,65.9131 153.0392,66.4416 151.2272,66.9652 149.2342,65.9352 148.682,64.0244 148.2631,62.5751 147.8443,61.1257 147.4254,59.6764 146.8732,57.7656 148.0096,55.8319 149.8216,55.3082 151.6504,54.7797 153.6429,55.8092 154.1951,57.72" stroke="black" stroke-width="1" /><polyline fill="none" points="167.5425,59.5087 167.9133,61.4624 166.6175,63.2792 164.7476,63.6341 162.8777,63.9889 160.9899,62.7764 160.6191,60.8227 160.3378,59.3405 160.0565,57.8583 159.7752,56.3762 159.4043,54.422 160.7168,52.6029 162.5867,52.248 164.4566,51.8931 166.3278,53.108 166.6986,55.0622" stroke="black" stroke-width="1" /><polyline fill="none" points="277.8773,177.448 268.4255,140.8637 188.8365,96.1804 158.7145,203.9175 188.2428,253.3668 236.6952,108.8569 268.1431,236.6952 268.4255,140.8637 108.5745,236.1363 220.8597,130.6987" stroke="black" stroke-width="1" /><polyline fill="none" points="208.7822,117.8367 232.9373,143.5606" stroke="black" stroke-width="1" /><polyline fill="none" points="292.582,188.8365 292.4372,186.9964 292.0063,185.2017 291.3,183.4965 290.3356,181.9227 289.1368,180.5192 287.7333,179.3205 286.1596,178.3561 284.4543,177.6498 282.6596,177.2189 280.8196,177.0741 278.9795,177.2189 277.1848,177.6498 275.4796,178.3561 273.9058,179.3205 272.5023,180.5192 271.3036,181.9227 270.3392,183.4965 269.6329,185.2017 269.202,186.9964 269.0572,188.8365 269.202,190.6765 269.6329,192.4713 270.3392,194.1765 271.3036,195.7503 272.5023,197.1538 273.9058,198.3525 275.4796,199.3169 277.1848,200.0232 278.9795,200.4541 280.8196,200.5989 282.6596,200.4541 284.4543,200.0232 286.1596,199.3169 287.7333,198.3525 289.1368,197.1538 290.3356,195.7503 291.3,194.1765 292.0063,192.4713 292.4372,190.6765 292.582,188.8365" stroke="black" stroke-width="1" /><polyline fill="none" points="188.5,69.0664 199.6839,69.5912 210.7696,71.161 221.6595,73.7619 232.2581,77.3712 242.4721,81.9571 252.2118,87.4792 261.3915,93.8892 269.9308,101.1306 277.7544,109.1398 284.7936,117.8464 290.9866,127.1739 296.2789,137.0404 300.6241,147.3591 303.9839,158.0393 306.3289,168.9873 307.6383,180.1067 307.9008,191.2998 307.114,202.4684 305.2847,213.5142 302.4292,224.3402 298.5725,234.8512 293.7484,244.9549 287.9994,254.5625 281.376,263.5894 273.9365,271.9565 265.7461,279.5902 256.8768,286.4234 247.4067,292.3961 237.4188,297.4556 227.0011,301.5577 216.2451,304.6663 205.2452,306.7539 194.0981,307.8023 182.9019,307.8023 171.7548,306.7539 160.7549,304.6663 149.9989,301.5577 139.5811,297.4556 129.5933,292.3961 120.1232,286.4234 111.2539,279.5902 103.0635,271.9565 95.6239,263.5894 89.0006,254.5625 83.2516,244.9549 78.4275,234.8512 74.5708,224.3402 71.7153,213.5142 69.8861,202.4684 69.0992,191.2998 69.3617,180.1067 70.6712,168.9872 73.0161,158.0393 76.3759,147.3591 80.7211,137.0404 86.0134,127.174 92.2064,117.8464 99.2457,109.1398 107.0692,101.1306 115.6085,93.8892 124.7882,87.4792 134.5279,81.957 144.7419,77.3712 155.3405,73.7619 166.2304,71.161 177.3161,69.5912 188.5,69.0664" stroke="black" stroke-width="1" />

    </g>
  </g>
  <WCB
     pausedposy="0"
     pausedposx="0"
     lastknownposy="0"
     lastknownposx="0"
     lastpathnc="0"
     lastpath="0"
     node="0"
     layer="0" />
</svg>
