<?xml version="1.0" encoding="UTF-8" standalone="no"?>
<!-- Created with Inkscape (http://www.inkscape.org/) -->

<svg
   xmlns:dc="http://purl.org/dc/elements/1.1/"
   xmlns:cc="http://creativecommons.org/ns#"
   xmlns:rdf="http://www.w3.org/1999/02/22-rdf-syntax-ns#"
   xmlns:svg="http://www.w3.org/2000/svg"
   xmlns="http://www.w3.org/2000/svg"
   xmlns:sodipodi="http://sodipodi.sourceforge.net/DTD/sodipodi-0.dtd"
   xmlns:inkscape="http://www.inkscape.org/namespaces/inkscape"
   width="100mm"
   height="100mm"
   viewBox="0 0 100 100"
   version="1.1"
   id="svg19124"
   inkscape:version="0.92.3 (2405546, 2018-03-11)"
   sodipodi:docname="inkscape_template_TMP.svg"
   shape-rendering="crispEdges">
  <sodipodi:namedview
     pagecolor="#ffffff"
     bordercolor="#666666"
     borderopacity="1"
     objecttolerance="10"
     gridtolerance="10"
     guidetolerance="10"
     inkscape:pageopacity="0"
     inkscape:pageshadow="2"
     inkscape:window-width="1568"
     inkscape:window-height="1550"
     id="namedview24021"
     showgrid="false"
     inkscape:zoom="0.62441667"
     inkscape:cx="712.66515"
     inkscape:cy="409.98265"
     inkscape:window-x="0"
     inkscape:window-y="0"
     inkscape:window-maximized="0"
     inkscape:current-layer="layer1" />
  <defs
     id="defs19118" />
  <metadata
     id="metadata19121">
    <rdf:RDF>
      <cc:Work
         rdf:about="">
        <dc:format>image/svg+xml</dc:format>
        <dc:type
           rdf:resource="http://purl.org/dc/dcmitype/StillImage" />
        <dc:title />
      </cc:Work>
    </rdf:RDF>
  </metadata>
  <g
     transform="translate(0,-197)"
     id="layer1"
     inkscape:groupmode="layer"
     inkscape:label="Layer 1">
    <g
       id="g24447"
       transform="matrix(0.26458333,0,0,0.26458333,0.10666333,197.9735)">

<polyline fill="none" points="192.1004,47.7394 189.7225,51.1455 187.3447,54.5516 184.9669,57.9577 184.9669,54.5516 184.9669,51.1455 184.9669,47.7394 184.9669,45.7676 186.5623,44.1729 188.5334,44.1729 190.5231,44.1729 192.1004,45.7676 192.1004,47.7394 192.1004,51.1455 192.1004,54.5516 192.1004,57.9577 192.1004,59.9295 190.5231,61.5235 188.5509,61.5235 186.5623,61.5235 184.9669,59.9295 184.9669,57.9577" stroke="black" stroke-width="1" /><polyline fill="none" points="197.8298,61.5877 200.7471,57.7851 198.696,53.7706 202.935,62.0679 200.7471,57.7851 203.4811,54.2207" stroke="black" stroke-width="1" /><polyline fill="none" points="216.9831,55.7364 216.9842,55.731 216.9852,55.7257 216.9862,55.7203 216.5515,58.0109 216.1167,60.3015 215.682,62.5921 215.4811,63.6508 216.1468,64.1981 216.7012,64.3033 215.9935,64.169 215.5186,63.4529 215.6565,62.7265 215.665,62.6817 215.6735,62.6369 215.682,62.5921 214.4212,63.3475 213.0132,63.7782 211.5483,63.5002 210.3352,63.27 208.4794,62.2892 208.9493,59.8133 209.1955,58.5161 210.076,57.8285 211.2036,57.5896 211.7501,57.4661 213.4124,57.4497 214.5315,57.4352 215.671,57.4075 216.7369,57.0337 216.9831,55.7364 217.2325,54.4227 216.2019,52.5876 214.1808,52.204 212.2768,51.8426 211.2252,52.6024 210.506,53.3558" stroke="black" stroke-width="1" /><polyline fill="none" points="230.2997,57.236 229.7523,59.1303 227.7938,60.2235 225.8995,59.6761 223.9887,59.1238 222.8999,57.15 223.4474,55.2556 223.7299,54.2783 224.0123,53.301 224.2947,52.3237 224.8422,50.4294 226.8163,49.34 228.711,49.8875 230.6214,50.4396 231.6945,52.4097 231.1471,54.3041 230.2014,57.5762 229.2557,60.8484 228.3101,64.1206 227.7627,66.0145 225.8042,67.1081 223.9099,66.5607 222.2794,66.0894 221.252,64.5787 221.3273,62.9583" stroke="black" stroke-width="1" /><polyline fill="none" points="237.5491,71.1629 239.1257,67.1588 233.4454,64.9221 243.4155,55.0479" stroke="black" stroke-width="1" /><polyline fill="none" points="252.7238,68.8641 252.7263,68.8592 252.7288,68.8543 252.7312,68.8494 251.6776,70.9293 250.624,73.0091 249.5704,75.089 249.0835,76.0502 249.5711,76.7609 250.0745,77.0159 249.4318,76.6903 249.1745,75.8705 249.5086,75.211 249.5292,75.1703 249.5498,75.1297 249.5704,75.089 248.1494,75.4646 246.6773,75.4875 245.3471,74.8137 244.2456,74.2557 242.7351,72.7983 243.8739,70.5502 244.4706,69.3723 245.5073,68.9562 246.6569,69.0397 247.2163,69.0728 248.8178,69.5186 249.8969,69.8154 250.9993,70.1052 252.1271,70.0419 252.7238,68.8641 253.3281,67.6712 252.8475,65.6221 251.0123,64.6924 249.2836,63.8167 248.0624,64.2546 247.1623,64.7788" stroke="black" stroke-width="1" /><polyline fill="none" points="260.6272,67.5723 261.679,65.9044 263.8784,65.4066 265.5463,66.4585 267.2289,67.5197 267.7377,69.766 266.6858,71.4339 266.2737,72.0873 265.8697,72.4393 265.4794,72.6403 261.5322,74.6773 257.5849,76.7143 253.6376,78.7512 253.5616,78.8718 253.4855,78.9925 253.4094,79.1131 255.4109,80.3754 257.4124,81.6377 259.4138,82.9" stroke="black" stroke-width="1" /><polyline fill="none" points="272.2083,73.8287 273.6524,71.9543 279.2899,76.2977 264.8739,86.8328" stroke="black" stroke-width="1" /><polyline fill="none" points="280.1017,95.2953 278.7458,96.75 276.5145,96.78 275.1221,95.4824 273.7298,94.1847 273.5906,91.9453 274.9465,90.4906 275.9751,89.387 277.0037,88.2833 278.0323,87.1797 279.3884,85.7247 281.6315,85.7067 283.0238,87.0044 284.4161,88.3021 284.5435,90.5294 283.1874,91.9845" stroke="black" stroke-width="1" /><polyline fill="none" points="298.6561,95.0425 295.2224,98.0955 291.7888,101.1486 288.3551,104.2016 286.8687,105.5232 284.6337,105.3316 283.3688,103.909 282.1155,102.4995 282.1864,100.2571 283.6728,98.9355 284.8002,97.9331 285.9276,96.9306 287.055,95.9282 288.5414,94.6066 290.7761,94.7989 292.0294,96.2085 293.2943,97.6311 293.2238,99.8726 291.7373,101.1943" stroke="black" stroke-width="1" /><polyline fill="none" points="300.7892,103.3351 305.0854,103.4803 291.2632,113.6222" stroke="black" stroke-width="1" /><polyline fill="none" points="314.1503,117.2212 310.2076,119.5804 306.2649,121.9397 302.3222,124.299 300.6154,125.3203 298.4554,124.7153 297.4779,123.0817 296.5094,121.4632 296.9971,119.2735 298.7039,118.2522 299.9985,117.4775 301.293,116.7029 302.5876,115.9282 304.2943,114.9069 306.454,115.5126 307.4225,117.1311 308.3999,118.7646 307.9126,120.9537 306.2059,121.975" stroke="black" stroke-width="1" /><polyline fill="none" points="314.3701,132.5163 312.5907,133.3659 310.4724,132.6288 309.6228,130.8493 308.7658,129.0544 309.5175,126.9292 311.2969,126.0796 312.2149,125.6413 313.1329,125.203 314.051,124.7647 315.8304,123.9151 317.9563,124.6664 318.806,126.4462 319.6628,128.2407 318.9036,130.3518 317.1242,131.2014 314.0505,132.6689 310.9768,134.1365 307.9031,135.604 306.124,136.4535 304.0054,135.7165 303.1558,133.9371 302.4245,132.4055 302.8708,130.6338 304.1318,129.6134" stroke="black" stroke-width="1" /><polyline fill="none" points="312.3342,146.7498 310.4673,147.4348 308.4632,146.4532 307.8076,144.6665 307.152,142.8797 308.0398,140.8191 309.9067,140.1341 311.323,139.6144 312.7393,139.0947 314.1556,138.5751 316.0229,137.8899 318.032,138.8875 318.6876,140.6743 319.3433,142.4611 318.4503,144.5057 316.5831,145.1908" stroke="black" stroke-width="1" /><polyline fill="none" points="323.7127,149.2144 325.6194,148.7115 327.5677,149.8469 328.0706,151.7535 328.578,153.6771 327.4186,155.6672 325.5119,156.1701 324.765,156.3672 324.2294,156.3492 323.8069,156.2302 319.5305,155.029 315.2542,153.8279 310.9778,152.6267 310.8399,152.6631 310.702,152.6994 310.5641,152.7358 311.1676,155.0238 311.7711,157.3118 312.3746,159.5999" stroke="black" stroke-width="1" /><polyline fill="none" points="322.9498,169.5073 322.9551,169.5064 322.9606,169.5055 322.9659,169.5046 320.6658,169.8855 318.3656,170.2664 316.0654,170.6473 315.0023,170.8234 314.7178,171.6369 314.8101,172.1936 314.6924,171.4829 315.2011,170.7905 315.9305,170.6697 315.9754,170.6622 316.0204,170.6548 316.0654,170.6473 314.922,169.7238 314.0326,168.5505 313.789,167.0794 313.5873,165.8613 313.8687,163.7812 316.3549,163.3695 317.6576,163.1538 318.6064,163.7435 319.2191,164.7198 319.5233,165.1903 320.1113,166.7452 320.5104,167.7909 320.9289,168.8511 321.6471,169.723 322.9498,169.5073 324.269,169.2888 325.6368,167.6892 325.3007,165.6596 324.9841,163.7477 323.9085,163.0222 322.9535,162.6066" stroke="black" stroke-width="1" /><polyline fill="none" points="328.8806,175.2283 330.6594,175.103 332.3379,176.4799 332.4741,178.4131 332.6102,180.3451 331.2274,181.956 329.2095,182.0981 328.8904,182.1206 328.5713,182.1431 328.2522,182.1656 325.1736,182.3825 324.4718,179.7334 324.4477,179.3906 324.4244,179.0601 324.4011,178.7296 324.3778,178.3991 324.4011,178.7296 324.4244,179.0601 324.4477,179.3906 324.5188,180.4003 323.4732,182.6397 321.0794,182.8084 320.378,182.8578 319.6766,182.9072 318.9753,182.9566 316.9919,183.0964 315.3049,181.599 315.1652,179.6149 315.0242,177.6137 316.4858,175.9125 318.4691,175.7728" stroke="black" stroke-width="1" /><polyline fill="none" points="329.3041,188.2994 331.2754,188.3456 332.8319,189.9773 332.7857,191.9486 332.7391,193.9374 331.0727,195.5274 329.1014,195.4812 328.3291,195.4631 327.8196,195.2971 327.4467,195.0655 323.672,192.7242 319.8972,190.383 316.1225,188.0418 315.9799,188.0384 315.8373,188.0351 315.6947,188.0317 315.6393,190.3974 315.5838,192.763 315.5283,195.1286" stroke="black" stroke-width="1" /><polyline fill="none" points="327.8735,208.5383 324.7689,205.7785 321.6643,203.0186 318.5597,200.2588 321.9424,200.6571 325.3251,201.0555 328.7078,201.4538 330.6661,201.6844 332.0633,203.4554 331.8327,205.413 331.6,207.3891 329.8318,208.769 327.8735,208.5383 324.4908,208.14 321.1081,207.7416 317.7254,207.3433 315.7671,207.1126 314.3685,205.3598 314.5991,203.4012 314.8317,201.4262 316.6014,200.0281 318.5597,200.2588" stroke="black" stroke-width="1" /><polyline fill="none" points="326.7578,215.8256 329.504,219.1328 312.7404,215.5422" stroke="black" stroke-width="1" /><polyline fill="none" points="317.0046,225.1947 318.8856,225.7864 319.9286,227.7863 319.3371,229.6666 318.74,231.5646 316.7452,232.5905 314.8642,231.9987 313.894,231.6935 312.9238,231.3883 311.9536,231.0831 310.0727,230.4914 309.0251,228.5084 309.6222,226.6104 310.2137,224.7301 312.2131,223.6874 314.0941,224.2791 317.3432,225.3012 320.5923,226.3233 323.8414,227.3454 325.722,227.937 326.7646,229.9368 326.1732,231.8171 325.6635,233.4371 324.1298,234.4279 322.512,234.3147" stroke="black" stroke-width="1" /><polyline fill="none" points="320.7283,240.194 322.909,241.1122 320.1471,247.6711 306.2836,236.4187" stroke="black" stroke-width="1" /><polyline fill="none" points="301.9847,253.3012 300.2323,252.3612 299.6342,250.2113 300.5339,248.534 301.4335,246.8568 303.5634,246.1511 305.3158,247.0911 306.6453,247.8042 307.9747,248.5173 309.3041,249.2304 311.0569,250.1706 311.6464,252.335 310.7468,254.0122 309.8471,255.6894 307.7259,256.3807 305.9731,255.4405" stroke="black" stroke-width="1" /><polyline fill="none" points="295.418,263.6433 293.7613,262.5433 293.3672,260.3469 294.4199,258.7613 295.4727,257.1757 297.6592,256.6725 299.3159,257.7725 300.5728,258.6069 301.8296,259.4414 303.0864,260.2759 304.7434,261.376 305.1277,263.5861 304.0749,265.1717 303.0222,266.7573 300.8455,267.2469 299.1885,266.1467" stroke="black" stroke-width="1" /><polyline fill="none" points="295.7948,270.7732 297.3416,272.0237 297.5174,274.2598 296.3206,275.7401 295.1241,277.2199 292.9112,277.5035 291.3645,276.253 290.1913,275.3045 289.0182,274.356 287.845,273.4075 286.2986,272.1572 286.1118,269.9335 287.3082,268.4537 288.5051,266.9734 290.7184,266.6905 292.2648,267.9408 292.2683,267.9365 292.2718,267.9321 292.2754,267.9278 295.8484,270.8165 299.4214,273.7052 302.9944,276.594" stroke="black" stroke-width="1" /><polyline fill="none" points="289.4678,291.8159 286.181,288.6053 282.8942,285.3947 279.6074,282.1841 278.1846,280.7942 278.2187,278.5513 279.5489,277.1895 280.8668,275.8403 283.1086,275.7534 284.5314,277.1432 285.6106,278.1974 286.6898,279.2516 287.769,280.3058 289.1918,281.6956 289.157,283.9383 287.839,285.2875 286.5088,286.6493 284.2678,286.7365 282.845,285.3466" stroke="black" stroke-width="1" /><polyline fill="none" points="280.289,299.683 281.0468,299.0403 281.2864,298.05 280.4659,297.0824 279.6713,296.1454 278.8766,295.2083 278.082,294.2713 277.6201,294.663 277.1582,295.0547 276.6963,295.4464 277.5855,294.6923 278.4747,293.9383 279.3639,293.1842 278.9366,293.5466 278.5093,293.9089 278.082,294.2713 275.6389,291.3903 273.1958,288.5094 270.7527,285.6284" stroke="black" stroke-width="1" /><polyline fill="none" points="264.2958,303.5324 263.1669,301.9157 263.5481,299.7054 265.1648,298.5765 266.7956,297.4378 269.015,297.8322 270.1439,299.4489 270.7263,300.283 271.3087,301.117 271.8912,301.9511 273.0201,303.5678 272.6262,305.7879 271.0091,306.917 269.3787,308.0555 267.1719,307.6514 266.043,306.0347 264.093,303.242 262.143,300.4494 260.193,297.6568 259.0643,296.0403 259.4453,293.8298 261.062,292.7009 262.4535,291.7292 264.2743,291.8801 265.487,292.9574" stroke="black" stroke-width="1" /><polyline fill="none" points="254.7935,312.7243 255.1821,308.5885 255.5706,304.4528 255.9592,300.317 257.6391,303.28 259.3191,306.243 260.999,309.2059 261.9716,310.9213 261.3702,313.0954 259.6555,314.0676 257.9246,315.049 255.7661,314.4396 254.7935,312.7243 253.1136,309.7613 251.4337,306.7983 249.7537,303.8354 248.7812,302.1201 249.367,299.9555 251.0827,298.9828 252.8126,298.002 254.9866,298.6017 255.9592,300.317" stroke="black" stroke-width="1" /><polyline fill="none" points="238.8495,309.094 238.035,307.2798 238.8733,305.2117 240.6096,304.4322 242.3459,303.6526 244.4638,304.3934 245.2783,306.2076 245.8962,307.5839 246.5142,308.9601 247.1321,310.3364 247.9467,312.1509 247.0928,314.2252 245.3565,315.0048 243.6202,315.7843 241.518,315.0373 240.7033,313.2228" stroke="black" stroke-width="1" /><polyline fill="none" points="229.2036,318.0403 229.2053,318.0454 229.2071,318.0506 229.2089,318.0558 228.4573,315.8488 227.7057,313.6417 226.9541,311.4347 226.6067,310.4146 225.7577,310.2669 225.2235,310.4488 225.9054,310.2166 226.6716,310.6053 226.91,311.3052 226.9247,311.3483 226.9394,311.3915 226.9541,311.4347 227.6783,310.1557 228.6906,309.0866 230.1022,308.6059 231.2709,308.2079 233.369,308.1458 234.1814,310.5313 234.6071,311.7812 234.1803,312.8136 233.3173,313.5776 232.9027,313.9546 231.4648,314.7887 230.4984,315.3533 229.5208,315.9393 228.7779,316.7903 229.2036,318.0403 229.6346,319.306 231.4362,320.3941 233.3837,319.731 235.2181,319.1063 235.7581,317.9266 236.0122,316.9165" stroke="black" stroke-width="1" /><polyline fill="none" points="215.4806,316.3672 215.0186,314.433 216.2278,312.5575 218.0791,312.1154 219.9303,311.6732 221.8729,312.7959 222.3348,314.7302 222.6853,316.1975 223.0358,317.6649 223.3862,319.1322 223.8483,321.0668 222.6225,322.9455 220.7713,323.3876 218.9201,323.8298 216.994,322.7039 216.532,320.7693" stroke="black" stroke-width="1" /><polyline fill="none" points="207.5799,323.392 205.9621,323.5186 204.4298,325.2495 204.7051,327.1934 204.7692,327.6458 204.8332,328.0983 204.8973,328.5507 205.157,330.3846 206.8636,331.6666 208.7145,331.4045 210.5481,331.1448 211.8261,329.4052 211.5713,327.6056 211.5072,327.1532 211.4432,326.7008 211.3791,326.2484 211.1194,324.4141 209.4135,323.1324 207.5799,323.392 205.5597,323.6781 203.7461,322.2554 203.4698,320.3037 203.3752,319.6359 203.2807,318.9681 203.1861,318.3004 202.9097,316.3484 204.2616,314.5113 206.2819,314.2253 208.2852,313.9416 210.0929,315.3312 210.3693,317.2832 210.4655,317.962 210.5616,318.6409 210.6577,319.3198 210.8947,320.9931 209.7501,322.9822" stroke="black" stroke-width="1" /><polyline fill="none" points="191.0713,317.4438 191.628,316.5081 192.356,315.564 194.4802,315.4643 196.3818,315.3751 198.0809,316.84 198.1766,318.8785 198.2465,320.3682 198.3164,321.8579 198.3863,323.3477 198.4795,325.3345 196.925,326.9513 195.0234,327.0405 193.0876,327.1314 191.3546,325.6688 191.2614,323.682 191.2265,322.94 191.1917,322.1981 191.1569,321.4561 193.5262,321.345 195.8954,321.2338 198.2647,321.1226" stroke="black" stroke-width="1" /><polyline fill="none" points="178.3371,325.8833 178.4296,323.9136 180.0804,322.3954 182.0501,322.4878 184.0369,322.581 185.5545,324.248 185.462,326.2177 185.4144,327.2338 185.3667,328.25 185.319,329.2662 185.2266,331.2359 183.5596,332.7541 181.5895,332.6617 179.6031,332.5685 178.1017,330.9016 178.1941,328.9319 178.3537,325.5295 178.5134,322.1272 178.673,318.7249 178.7654,316.7556 180.4164,315.2369 182.386,315.3293 184.0814,315.4089 185.4316,316.6396 185.7348,318.2332" stroke="black" stroke-width="1" /><polyline fill="none" points="170.9582,328.3363 167.8522,331.3082 170.2559,314.3337" stroke="black" stroke-width="1" /><polyline fill="none" points="151.6884,328.191 152.7558,323.722 153.8232,319.2531 154.8905,314.7841 155.3526,312.8495 157.2948,311.7271 159.1463,312.1693 160.9809,312.6074 162.2065,314.4865 161.7444,316.4211 161.394,317.8884 161.0435,319.3558 160.6931,320.8231 160.231,322.7577 158.2887,323.8794 156.4541,323.4412 154.6026,322.999 153.3771,321.1207 153.8392,319.1861" stroke="black" stroke-width="1" /><polyline fill="none" points="140.2246,324.3542 141.1652,324.6745 142.138,324.3716 142.547,323.1707 142.943,322.0076 143.3391,320.8446 143.7352,319.6816 143.1619,319.4864 142.5886,319.2911 142.0153,319.0959 143.1189,319.4717 144.2226,319.8476 145.3262,320.2234 144.7959,320.0428 144.2655,319.8622 143.7352,319.6816 144.9529,316.1058 146.1705,312.5301 147.3882,308.9543" stroke="black" stroke-width="1" /><polyline fill="none" points="132.8237,317.9684 129.0147,319.961 136.0367,304.3213" stroke="black" stroke-width="1" /><polyline fill="none" points="122.1203,312.6755 121.1477,314.3909 118.9741,314.9913 117.2588,314.0187 115.5282,313.0375 114.9148,310.8175 115.8873,309.1022 116.2683,308.4302 116.6554,308.0596 117.0358,307.8405 120.8832,305.6208 124.7307,303.4011 128.5781,301.1813 128.6485,301.0573 128.7188,300.9332 128.7892,300.8091 126.7307,299.642 124.6723,298.4749 122.6138,297.3079" stroke="black" stroke-width="1" /><polyline fill="none" points="108.137,297.9498 108.1339,297.9542 108.1308,297.9587 108.1276,297.9632 109.4624,296.0516 110.7972,294.14 112.132,292.2284 112.749,291.3449 112.3658,290.573 111.9031,290.2499 112.4938,290.6623 112.6336,291.5101 112.2104,292.1163 112.1843,292.1537 112.1582,292.191 112.132,292.2284 113.5917,292.0558 115.0525,292.2395 116.2751,293.0931 117.2874,293.8 118.5787,295.4549 117.1359,297.5211 116.38,298.6037 115.2951,298.8703 114.1686,298.6264 113.6194,298.5152 112.0963,297.8494 111.0694,297.4041 110.0185,296.9626 108.893,296.8672 108.137,297.9498 107.3715,299.0461 107.56,301.1424 109.2467,302.3201 110.8356,303.4296 112.1061,303.1672 113.0708,302.7744" stroke="black" stroke-width="1" /><polyline fill="none" points="98.2411,289.9435 98.2376,289.9477 98.234,289.9519 98.2305,289.9561 99.7384,288.1779 101.2464,286.3997 102.7543,284.6214 103.4512,283.7996 103.1421,282.9951 102.7117,282.6302 103.2611,283.0961 103.321,283.9532 102.8428,284.5171 102.8133,284.5519 102.7838,284.5867 102.7543,284.6214 104.2237,284.5862 105.6609,284.9059 106.7982,285.8703 107.7398,286.6689 108.8705,288.4374 107.2406,290.3594 106.3866,291.3665 105.2816,291.5303 104.1828,291.1821 103.6465,291.0199 102.1923,290.2143 101.2117,289.6749 100.2068,289.137 99.0951,288.9365 98.2411,289.9435 97.3762,290.9634 97.3677,293.0681 98.9367,294.3986 100.4147,295.652 101.7042,295.5097 102.7014,295.209" stroke="black" stroke-width="1" /><polyline fill="none" points="89.2605,288.5671 84.9863,289.0257 97.2501,277.0461" stroke="black" stroke-width="1" /><polyline fill="none" points="80.9088,271.3348 80.9046,271.3382 80.9003,271.3416 80.8961,271.3451 82.7091,269.8792 84.5222,268.4134 86.3353,266.9475 87.1732,266.2701 87.0195,265.4221 86.6647,264.9833 87.1176,265.5435 87.0166,266.3967 86.4416,266.8615 86.4062,266.8902 86.3707,266.9189 86.3353,266.9475 87.7854,267.187 89.1378,267.769 90.0753,268.9286 90.8516,269.8887 91.6327,271.837 89.6729,273.4214 88.6461,274.2516 87.5299,274.2065 86.5154,273.6595 86.0187,273.4001 84.7403,272.3376 83.8774,271.6248 82.9904,270.9089 81.9356,270.5046 80.9088,271.3348 79.869,272.1755 79.4681,274.2416 80.7615,275.8414 81.9799,277.3484 83.2733,277.4491 84.3091,277.3396" stroke="black" stroke-width="1" /><polyline fill="none" points="72.3424,268.308 68.0576,267.9616 82.34,258.4788" stroke="black" stroke-width="1" /><polyline fill="none" points="59.6468,253.8109 63.6957,251.6391 67.7447,249.4672 71.7937,247.2954 73.5464,246.3552 75.6758,247.0608 76.5756,248.7383 77.4671,250.4004 76.8773,252.5649 75.1245,253.5051 73.7951,254.2182 72.4657,254.9313 71.1362,255.6444 69.3835,256.5846 67.2546,255.8784 66.363,254.2163 65.4632,252.5387 66.0526,250.3749 67.8053,249.4347" stroke="black" stroke-width="1" /><polyline fill="none" points="70.2893,235.4044 66.3232,237.0745 68.6924,242.7009 54.6622,242.4686" stroke="black" stroke-width="1" /><polyline fill="none" points="55.2773,234.0801 53.3963,234.6718 51.3969,233.6291 50.8052,231.7481 50.2082,229.8504 51.273,227.8081 53.154,227.2164 53.8909,226.9846 54.4267,226.9774 54.8544,227.0765 59.1824,228.0759 63.5103,229.0753 67.8383,230.0747 67.9743,230.0319 68.1104,229.9891 68.2464,229.9463 67.5363,227.6891 66.8263,225.4319 66.1162,223.1747" stroke="black" stroke-width="1" /><polyline fill="none" points="46.5797,215.4684 51.0724,214.5061 55.5652,213.5438 60.058,212.5815 62.0029,212.1649 63.8526,213.4339 64.2513,215.2953 64.6463,217.1396 63.4788,219.0553 61.5339,219.4719 60.0587,219.7878 58.5835,220.1038 57.1084,220.4198 55.1635,220.8363 53.3144,219.5668 52.9194,217.7225 52.5207,215.8611 53.6876,213.946 55.6325,213.5294" stroke="black" stroke-width="1" /><polyline fill="none" points="48.2844,201.3871 51.9452,203.3502 55.606,205.3134 59.2668,207.2765 55.884,207.6749 52.5014,208.0732 49.1187,208.4716 47.1604,208.7022 45.39,207.3042 45.1595,205.3466 44.9268,203.3706 46.326,201.6177 48.2844,201.3871 51.6671,200.9887 55.0498,200.5904 58.4324,200.192 60.3908,199.9614 62.1583,201.3413 62.389,203.3 62.6215,205.275 61.2251,207.0459 59.2668,207.2765" stroke="black" stroke-width="1" /><polyline fill="none" points="46.6988,195.5006 44.3333,195.5561 44.1665,188.4414 61.4225,193.0283" stroke="black" stroke-width="1" /><polyline fill="none" points="53.4269,182.4716 51.4429,182.3318 50.0186,180.5992 50.1523,178.7002 50.2861,176.802 51.9381,175.3026 53.9222,175.4424 55.4271,175.5484 56.932,175.6544 58.4369,175.7604 60.4206,175.9002 61.8468,177.6165 61.713,179.5147 61.5792,181.4136 59.9265,182.9127 57.9428,182.7729 57.9424,182.7785 57.942,182.7841 57.9416,182.7897 53.3583,182.4668 48.775,182.1439 44.1917,181.821" stroke="black" stroke-width="1" /><polyline fill="none" points="54.0992,166.2216 54.4639,164.6403 53.2726,162.6592 51.3357,162.3385 50.8849,162.2638 50.4341,162.1892 49.9834,162.1145 48.156,161.8119 46.421,163.0552 46.1156,164.8994 45.813,166.7264 47.0889,168.4676 48.8821,168.7646 49.3329,168.8392 49.7836,168.9139 50.2344,168.9885 52.0621,169.2912 53.7967,168.0485 54.0992,166.2216 54.4326,164.2086 56.334,162.9056 58.2786,163.2276 58.944,163.3378 59.6093,163.448 60.2747,163.5582 62.2197,163.8802 63.5664,165.7211 63.233,167.7341 62.9025,169.7303 61.0344,171.0377 59.0894,170.7156 58.413,170.6036 57.7366,170.4915 57.0602,170.3795 55.3928,170.1034 53.8389,168.4146" stroke="black" stroke-width="1" /><polyline fill="none" points="49.5891,149.8913 49.3357,150.852 49.7062,151.8011 50.9329,152.1247 52.1209,152.438 53.3089,152.7514 54.4968,153.0648 54.6513,152.4792 54.8058,151.8936 54.9602,151.308 54.6629,152.4353 54.3655,153.5626 54.0682,154.6899 54.2111,154.1482 54.354,153.6065 54.4968,153.0648 58.1493,154.0282 61.8018,154.9915 65.4543,155.955" stroke="black" stroke-width="1" /><polyline fill="none" points="54.0424,136.0598 53.3355,137.9863 52.6286,139.9128 51.9218,141.8393 54.4596,142.7705 56.9975,143.7017 59.5354,144.6329 58.6171,143.602 58.2816,142.4738 58.7953,141.0736 59.5041,139.142 61.647,138.2299 63.4331,138.8853 64.71,139.3538 65.9869,139.8224 67.2639,140.2909 69.1308,140.9759 69.95,142.9748 69.306,144.7297 68.6682,146.4679 66.7566,147.4465 64.8897,146.7615" stroke="black" stroke-width="1" /><polyline fill="none" points="59.8363,130.8071 58.227,130.0387 57.446,128.0131 58.281,126.2642 59.1155,124.5164 61.1129,123.7971 62.9384,124.6687 63.2271,124.8065 63.5158,124.9444 63.8044,125.0822 66.5895,126.4119 65.8934,129.0626 65.7454,129.3726 65.6026,129.6716 65.4599,129.9706 65.3171,130.2696 65.4599,129.9706 65.6026,129.6716 65.7454,129.3726 66.1815,128.4592 68.1956,127.0268 70.3612,128.0608 70.9957,128.3637 71.6302,128.6667 72.2647,128.9696 74.059,129.8263 74.7879,131.9609 73.9309,133.7558 73.0666,135.5662 70.956,136.3252 69.1617,135.4685" stroke="black" stroke-width="1" /><polyline fill="none" points="66.1784,111.9085 65.1247,113.6694 64.0711,115.4303 63.0174,117.1912 65.3371,118.5793 67.6568,119.9674 69.9765,121.3555 69.2666,120.1714 69.1473,119.0005 69.9132,117.7206 70.9697,115.955 73.245,115.4585 74.8776,116.4354 76.0448,117.1339 77.2119,117.8323 78.3791,118.5307 80.0856,119.5518 80.5176,121.6683 79.5578,123.2724 78.6071,124.8612 76.5465,125.4662 74.84,124.4451" stroke="black" stroke-width="1" /><polyline fill="none" points="77.4668,111.3464 75.8631,110.1697 75.5827,107.9444 76.7088,106.4096 77.8345,104.8753 80.0317,104.4883 81.6354,105.665 82.8517,106.5574 84.068,107.4499 85.2844,108.3423 86.8877,109.5188 87.1785,111.7313 86.0527,113.2655 84.9266,114.8003 82.729,115.1866 81.1257,114.0102 81.1224,114.0147 81.1191,114.0192 81.1158,114.0237 77.4113,111.3056 73.7068,108.5876 70.0023,105.8695" stroke="black" stroke-width="1" /><polyline fill="none" points="85.7001,92.278 86.6655,96.3182 87.6309,100.3584 88.5963,104.3987 86.0509,102.1354 83.5055,99.8722 80.9601,97.6089 79.4865,96.2987 79.3548,94.0468 80.6646,92.5737 81.9867,91.0868 84.2265,90.9678 85.7001,92.278 88.2455,94.5412 90.7909,96.8045 93.3363,99.0677 94.8099,100.378 94.9531,102.6158 93.6426,104.0896 92.3212,105.5758 90.0699,105.7089 88.5963,104.3987" stroke="black" stroke-width="1" /><polyline fill="none" points="95.6295,88.8257 96.8834,87.7957 97.1488,85.4993 95.8102,84.063 95.4987,83.7288 95.1871,83.3945 94.8756,83.0603 93.6128,81.7054 91.4795,81.6313 90.112,82.9059 88.7573,84.1684 88.7054,86.3265 89.9447,87.6561 90.2562,87.9903 90.5677,88.3246 90.8792,88.6588 92.1423,90.0141 94.2748,90.0883 95.6295,88.8257 97.1221,87.4345 99.4235,87.5628 100.7675,89.0047 101.2273,89.4981 101.6871,89.9914 102.147,90.4848 103.4912,91.927 103.4344,94.2072 101.9418,95.5984 100.4617,96.9779 98.184,96.8735 96.8398,95.4312 96.3723,94.9297 95.9049,94.4281 95.4374,93.9266 94.2851,92.6903 94.0848,90.4041" stroke="black" stroke-width="1" /><polyline fill="none" points="105.3713,80.5671 106.7161,79.659 107.1953,77.3976 105.9971,75.8423 105.7183,75.4804 105.4394,75.1184 105.1606,74.7565 104.0301,73.2892 101.9132,73.0157 100.4324,74.1566 98.9654,75.2868 98.7116,77.4305 99.8209,78.8703 100.0998,79.2323 100.3786,79.5942 100.6575,79.9562 101.7881,81.4237 103.9043,81.6973 105.3713,80.5671 106.9876,79.3218 109.2669,79.665 110.4699,81.2265 110.8815,81.7607 111.2931,82.295 111.7047,82.8292 112.908,84.391 112.638,86.6558 111.0216,87.9011 109.4188,89.1359 107.1609,88.8187 105.9577,87.257 105.5392,86.7139 105.1208,86.1707 104.7023,85.6276 103.6709,84.2888 103.6855,81.9939" stroke="black" stroke-width="1" /><polyline fill="none" points="122.666,77.5991 122.6431,78.6878 122.4755,79.8681 120.6768,81.0025 119.0667,82.018 116.8661,81.5817 115.7774,79.8556 114.9818,78.5941 114.1863,77.3327 113.3907,76.0713 112.3297,74.3889 112.8845,72.2157 114.4947,71.2002 116.1339,70.1664 118.3628,70.5839 119.4238,72.2663 119.82,72.8945 120.2163,73.5228 120.6125,74.1511 118.6063,75.4163 116.6001,76.6816 114.5939,77.9469" stroke="black" stroke-width="1" /><polyline fill="none" points="133.3402,71.9216 133.2155,73.0033 132.9381,74.1628 131.0411,75.1238 129.3429,75.984 127.1928,75.3436 126.2706,73.5231 125.5966,72.1927 124.9227,70.8623 124.2488,69.5319 123.3499,67.7576 124.1059,65.6458 125.804,64.7856 127.5328,63.9098 129.7128,64.5343 130.6117,66.3086 130.9473,66.9712 131.283,67.6338 131.6186,68.2964 129.5028,69.3682 127.3869,70.4401 125.271,71.5119" stroke="black" stroke-width="1" /><polyline fill="none" points="144.4991,67.2686 144.2737,68.3339 143.8889,69.4623 141.9103,70.2414 140.139,70.9389 138.0583,70.0999 137.3106,68.2011 136.7642,66.8134 136.2178,65.4257 135.6714,64.0381 134.9427,62.1874 135.893,60.1557 137.6643,59.4583 139.4675,58.7483 141.5795,59.5741 142.3082,61.4248 142.5803,62.1159 142.8524,62.807 143.1246,63.4981 140.9176,64.3671 138.7107,65.2361 136.5038,66.1051" stroke="black" stroke-width="1" /><polyline fill="none" points="147.2272,53.7466 148.8435,49.7633 153.6033,66.2331" stroke="black" stroke-width="1" /><polyline fill="none" points="160.0271,50.4739 162.0093,46.6594 165.2059,63.5026" stroke="black" stroke-width="1" /><polyline fill="none" points="230.1142,258.3216 140.8637,108.5745 140.8637,108.5745 280.8196,188.8365 108.8569,140.3048 268.4255,140.8637 158.7145,203.9175 189.0084,152.2515 96.1804,188.1635 96.1804,188.1635" stroke="black" stroke-width="1" /><polyline fill="none" points="96.1804,205.8071 96.1804,170.5199" stroke="black" stroke-width="1" /><polyline fill="none" points="247.8987,268.4255 247.7538,266.5855 247.323,264.7907 246.6166,263.0855 245.6523,261.5117 244.4535,260.1082 243.05,258.9095 241.4763,257.9451 239.7711,257.2388 237.9763,256.8079 236.1363,256.6631 234.2962,256.8079 232.5015,257.2388 230.7962,257.9451 229.2225,258.9095 227.819,260.1082 226.6203,261.5117 225.6559,263.0855 224.9496,264.7907 224.5187,266.5855 224.3739,268.4255 224.5187,270.2656 224.9496,272.0603 225.6559,273.7655 226.6203,275.3393 227.819,276.7428 229.2225,277.9415 230.7962,278.9059 232.5015,279.6122 234.2962,280.0431 236.1363,280.1879 237.9763,280.0431 239.7711,279.6122 241.4763,278.9059 243.05,277.9415 244.4535,276.7428 245.6523,275.3393 246.6166,273.7655 247.323,272.0603 247.7538,270.2656 247.8987,268.4255" stroke="black" stroke-width="1" /><polyline fill="none" points="188.5,69.0664 199.6839,69.5912 210.7696,71.161 221.6595,73.7619 232.2581,77.3712 242.4721,81.9571 252.2118,87.4792 261.3915,93.8892 269.9308,101.1306 277.7544,109.1398 284.7936,117.8464 290.9866,127.1739 296.2789,137.0404 300.6241,147.3591 303.9839,158.0393 306.3289,168.9873 307.6383,180.1067 307.9008,191.2998 307.114,202.4684 305.2847,213.5142 302.4292,224.3402 298.5725,234.8512 293.7484,244.9549 287.9994,254.5625 281.376,263.5894 273.9365,271.9565 265.7461,279.5902 256.8768,286.4234 247.4067,292.3961 237.4188,297.4556 227.0011,301.5577 216.2451,304.6663 205.2452,306.7539 194.0981,307.8023 182.9019,307.8023 171.7548,306.7539 160.7549,304.6663 149.9989,301.5577 139.5811,297.4556 129.5933,292.3961 120.1232,286.4234 111.2539,279.5902 103.0635,271.9565 95.6239,263.5894 89.0006,254.5625 83.2516,244.9549 78.4275,234.8512 74.5708,224.3402 71.7153,213.5142 69.8861,202.4684 69.0992,191.2998 69.3617,180.1067 70.6712,168.9872 73.0161,158.0393 76.3759,147.3591 80.7211,137.0404 86.0134,127.174 92.2064,117.8464 99.2457,109.1398 107.0692,101.1306 115.6085,93.8892 124.7882,87.4792 134.5279,81.957 144.7419,77.3712 155.3405,73.7619 166.2304,71.161 177.3161,69.5912 188.5,69.0664" stroke="black" stroke-width="1" />

    </g>
  </g>
  <WCB
     pausedposy="0"
     pausedposx="0"
     lastknownposy="0"
     lastknownposx="0"
     lastpathnc="0"
     lastpath="0"
     node="0"
     layer="0" />
</svg>
