<?xml version="1.0" encoding="UTF-8" standalone="no"?>
<!-- Created with Inkscape (http://www.inkscape.org/) -->

<svg
   xmlns:dc="http://purl.org/dc/elements/1.1/"
   xmlns:cc="http://creativecommons.org/ns#"
   xmlns:rdf="http://www.w3.org/1999/02/22-rdf-syntax-ns#"
   xmlns:svg="http://www.w3.org/2000/svg"
   xmlns="http://www.w3.org/2000/svg"
   xmlns:sodipodi="http://sodipodi.sourceforge.net/DTD/sodipodi-0.dtd"
   xmlns:inkscape="http://www.inkscape.org/namespaces/inkscape"
   width="100mm"
   height="100mm"
   viewBox="0 0 100 100"
   version="1.1"
   id="svg19124"
   inkscape:version="0.92.3 (2405546, 2018-03-11)"
   sodipodi:docname="inkscape_template_TMP.svg"
   shape-rendering="crispEdges">
  <sodipodi:namedview
     pagecolor="#ffffff"
     bordercolor="#666666"
     borderopacity="1"
     objecttolerance="10"
     gridtolerance="10"
     guidetolerance="10"
     inkscape:pageopacity="0"
     inkscape:pageshadow="2"
     inkscape:window-width="1568"
     inkscape:window-height="1550"
     id="namedview24021"
     showgrid="false"
     inkscape:zoom="0.62441667"
     inkscape:cx="712.66515"
     inkscape:cy="409.98265"
     inkscape:window-x="0"
     inkscape:window-y="0"
     inkscape:window-maximized="0"
     inkscape:current-layer="layer1" />
  <defs
     id="defs19118" />
  <metadata
     id="metadata19121">
    <rdf:RDF>
      <cc:Work
         rdf:about="">
        <dc:format>image/svg+xml</dc:format>
        <dc:type
           rdf:resource="http://purl.org/dc/dcmitype/StillImage" />
        <dc:title />
      </cc:Work>
    </rdf:RDF>
  </metadata>
  <g
     transform="translate(0,-197)"
     id="layer1"
     inkscape:groupmode="layer"
     inkscape:label="Layer 1">
    <g
       id="g24447"
       transform="matrix(0.26458333,0,0,0.26458333,0.10666333,197.9735)">

<polyline fill="none" points="192.1004,47.7394 189.7225,51.1455 187.3447,54.5516 184.9669,57.9577 184.9669,54.5516 184.9669,51.1455 184.9669,47.7394 184.9669,45.7676 186.5623,44.1729 188.5334,44.1729 190.5231,44.1729 192.1004,45.7676 192.1004,47.7394 192.1004,51.1455 192.1004,54.5516 192.1004,57.9577 192.1004,59.9295 190.5231,61.5235 188.5509,61.5235 186.5623,61.5235 184.9669,59.9295 184.9669,57.9577" stroke="black" stroke-width="1" /><polyline fill="none" points="197.8298,61.5877 200.7471,57.7851 198.696,53.7706 202.935,62.0679 200.7471,57.7851 203.4811,54.2207" stroke="black" stroke-width="1" /><polyline fill="none" points="210.2846,55.059 210.6554,53.1049 212.5428,51.893 214.413,52.2479 216.2826,52.6028 217.5785,54.4188 217.2077,56.3729 216.9264,57.8551 216.6451,59.3373 216.3638,60.8194 215.993,62.7732 214.1216,63.9889 212.2521,63.634 210.3818,63.2791 209.0863,61.4624 209.4572,59.5086 209.4517,59.5076 209.4462,59.5065 209.4407,59.5055 210.2974,54.9914 211.1541,50.4773 212.0108,45.9632" stroke="black" stroke-width="1" /><polyline fill="none" points="226.3444,57.6272 227.8721,58.1743 229.979,57.2228 230.5241,55.3367 230.6509,54.8978 230.7778,54.4588 230.9046,54.0199 231.4189,52.2405 230.3871,50.3719 228.5912,49.8529 226.8122,49.3388 224.9337,50.4023 224.429,52.1484 224.3022,52.5874 224.1753,53.0263 224.0485,53.4653 223.5341,55.245 224.5654,57.113 226.3444,57.6272 228.3046,58.1937 229.3763,60.2344 228.829,62.128 228.6418,62.7759 228.4545,63.4239 228.2673,64.0718 227.7199,65.9658 225.7342,67.0879 223.774,66.5214 221.8302,65.9596 220.7503,63.9515 221.2976,62.0575 221.488,61.3988 221.6783,60.7402 221.8687,60.0815 222.3379,58.4579 224.1968,57.1121" stroke="black" stroke-width="1" /><polyline fill="none" points="234.1348,62.8919 234.8572,61.0571 236.9254,60.1572 238.7595,60.8794 240.6109,61.6084 241.494,63.6704 240.7716,65.5051 240.3989,66.4515 240.0263,67.3978 239.6537,68.3442 238.9312,70.1789 236.8796,71.0845 235.0282,70.3555 233.1941,69.6334 232.2945,67.5656 233.0169,65.7309 234.2648,62.5616 235.5127,59.3924 236.7607,56.2232 237.483,54.3887 239.5511,53.4892 241.3851,54.2114 242.9653,54.8336 243.8459,56.4332 243.6193,58.039" stroke="black" stroke-width="1" /><polyline fill="none" points="248.3212,76.2715 250.2659,72.4326 244.8199,69.6738 255.6708,60.7766" stroke="black" stroke-width="1" /><polyline fill="none" points="260.8449,67.4668 261.7962,65.9584 263.8993,65.4197 265.5384,66.4535 267.1767,67.4867 267.6574,69.5545 266.5783,71.2655 266.4077,71.5361 266.237,71.8067 266.0664,72.0772 264.42,74.6876 261.869,73.6864 261.5784,73.5031 261.2982,73.3263 261.0179,73.1496 260.7377,72.9729 261.0179,73.1496 261.2982,73.3263 261.5784,73.5031 262.4345,74.043 263.6215,76.2109 262.3414,78.2406 261.9663,78.8353 261.5912,79.4301 261.2162,80.0248 260.1555,81.7065 257.9503,82.1809 256.2679,81.1198 254.5711,80.0497 254.0641,77.8648 255.1248,76.183" stroke="black" stroke-width="1" /><polyline fill="none" points="277.9928,75.4605 277.2057,74.8541 276.1871,74.8273 275.4129,75.8322 274.663,76.8055 273.9132,77.7788 273.1634,78.752 273.6431,79.1217 274.1228,79.4913 274.6026,79.8609 273.679,79.1493 272.7555,78.4378 271.8319,77.7262 272.2757,78.0682 272.7195,78.4101 273.1634,78.752 270.858,81.7443 268.5526,84.7367 266.2472,87.729" stroke="black" stroke-width="1" /><polyline fill="none" points="281.9104,83.1419 283.2549,81.6994 285.5085,81.6204 286.9509,82.9648 288.4062,84.3212 288.4872,86.623 287.1428,88.0654 286.616,88.6306 286.1535,88.9011 285.7326,89.0258 281.4747,90.291 277.2169,91.5563 272.9591,92.8215 272.8618,92.9258 272.7646,93.0302 272.6673,93.1345 274.3983,94.7478 276.1293,96.3612 277.8604,97.9745" stroke="black" stroke-width="1" /><polyline fill="none" points="287.155,105.4318 286.0773,105.5872 284.8854,105.6146 283.4724,104.0255 282.2075,102.6029 282.2783,100.3605 283.8034,99.0045 284.9179,98.0135 286.0325,97.0226 287.147,96.0316 288.6334,94.71 290.868,94.9023 292.133,96.3249 293.4207,97.7732 293.3729,100.0404 291.8865,101.362 291.3314,101.8555 290.7763,102.3491 290.2213,102.8426 288.6452,101.0701 287.0692,99.2976 285.4931,97.525" stroke="black" stroke-width="1" /><polyline fill="none" points="305.8586,104.7514 305.2709,103.9503 304.2998,103.6418 303.277,104.3922 302.2864,105.1191 301.2958,105.8459 300.3053,106.5727 300.6635,107.061 301.0218,107.5492 301.3801,108.0375 300.6904,107.0975 300.0007,106.1575 299.311,105.2176 299.6424,105.6693 299.9738,106.121 300.3053,106.5727 297.2597,108.8073 294.2142,111.0419 291.1687,113.2765" stroke="black" stroke-width="1" /><polyline fill="none" points="308.2707,114.2242 312.5345,114.7711 297.8233,123.5741" stroke="black" stroke-width="1" /><polyline fill="none" points="314.0163,124.6917 315.7957,123.8421 317.9215,124.5942 318.7712,126.3736 319.6283,128.1689 318.8603,130.3403 317.0809,131.1899 316.3837,131.5227 315.8543,131.6049 315.4169,131.5668 310.9916,131.1841 306.5663,130.8013 302.1409,130.4186 302.0122,130.48 301.8835,130.5415 301.7548,130.603 302.7744,132.7383 303.7939,134.8737 304.8134,137.009" stroke="black" stroke-width="1" /><polyline fill="none" points="319.0594,144.549 317.2083,145.2282 315.1683,144.2959 314.4891,142.4448 313.8039,140.5775 314.7513,138.532 316.6024,137.8528 317.5575,137.5023 318.5125,137.1519 319.4676,136.8015 321.3187,136.1223 323.3649,137.0694 324.0443,138.9209 324.7293,140.7878 323.7757,142.8185 321.9246,143.4977 318.7269,144.671 315.5293,145.8443 312.3317,147.0175 310.4809,147.6967 308.4406,146.7645 307.7613,144.9133 307.1767,143.32 307.787,141.5979 309.1379,140.7001" stroke="black" stroke-width="1" /><polyline fill="none" points="320.2347,153.7747 320.5497,155.3665 322.448,156.6859 324.3463,156.1852 324.7881,156.0686 325.2299,155.9521 325.6718,155.8356 327.4627,155.3632 328.5363,153.5183 328.0596,151.7108 327.5873,149.9201 325.7101,148.8543 323.9526,149.3179 323.5108,149.4344 323.069,149.5509 322.6272,149.6675 320.8359,150.14 319.7625,151.9841 320.2347,153.7747 320.7551,155.7476 319.5543,157.7151 317.6483,158.2178 316.9962,158.3898 316.3441,158.5618 315.692,158.7338 313.7857,159.2366 311.8031,158.1089 311.2827,156.1359 310.7667,154.1795 311.9354,152.2217 313.8417,151.7188 314.5046,151.544 315.1675,151.3691 315.8305,151.1943 317.4647,150.7632 319.574,151.6673" stroke="black" stroke-width="1" /><polyline fill="none" points="324.9649,169.6639 323.0195,169.9861 321.1891,168.6898 320.867,166.7444 320.5421,164.7821 321.8542,162.9491 323.7996,162.627 324.8032,162.4608 325.8068,162.2946 326.8104,162.1284 328.7558,161.8062 330.5895,163.1182 330.9117,165.064 331.2366,167.0259 329.9211,168.8431 327.9758,169.1653 324.6155,169.7218 321.2551,170.2782 317.8948,170.8347 315.9498,171.1568 314.1191,169.8606 313.797,167.9152 313.5197,166.2408 314.4403,164.6627 315.935,164.0325" stroke="black" stroke-width="1" /><polyline fill="none" points="326.1291,182.5254 324.1621,182.664 322.4612,181.202 322.3226,179.235 322.1828,177.2509 323.6608,175.5489 325.6278,175.4103 326.6426,175.3388 327.6574,175.2673 328.6722,175.1958 330.6392,175.0573 332.3419,176.5352 332.4805,178.5026 332.6203,180.4863 331.1404,182.1724 329.1735,182.3109 325.7758,182.5503 322.3781,182.7897 318.9805,183.0291 317.0139,183.1676 315.3126,181.7056 315.174,179.7386 315.0547,178.0456 316.1191,176.5607 317.6663,176.0732" stroke="black" stroke-width="1" /><polyline fill="none" points="329.1375,195.3991 325.7881,192.9421 322.4387,190.4851 319.0893,188.0281 322.4944,188.1079 325.8996,188.1878 329.3047,188.2676 331.276,188.3139 332.8329,189.9462 332.7867,191.9168 332.74,193.906 331.1088,195.4454 329.1375,195.3991 325.7324,195.3193 322.3272,195.2395 318.9221,195.1596 316.9507,195.1134 315.3942,193.4992 315.4404,191.5276 315.487,189.5395 317.118,187.9819 319.0893,188.0281" stroke="black" stroke-width="1" /><polyline fill="none" points="328.7042,201.4854 330.6625,201.716 332.0594,203.4863 331.8288,205.4446 331.5961,207.4203 329.7882,208.8473 327.8299,208.6166 327.0626,208.5263 326.5709,208.3134 326.2214,208.0478 322.6824,205.3634 319.1436,202.679 315.6046,199.9946 315.463,199.9779 315.3213,199.9612 315.1797,199.9445 314.9029,202.2945 314.6262,204.6446 314.3494,206.9946" stroke="black" stroke-width="1" /><polyline fill="none" points="321.3936,213.4068 323.3385,213.8233 324.5059,215.7386 324.1071,217.6 323.7086,219.4607 321.8627,220.7137 319.9178,220.2972 318.4426,219.9812 316.9675,219.6652 315.4923,219.3493 313.5478,218.9328 312.3763,217.0334 312.7748,215.1727 313.1735,213.3113 315.0201,212.0588 316.9646,212.4753 316.9658,212.4698 316.967,212.4643 316.9681,212.4589 321.4609,213.4212 325.9537,214.3835 330.4465,215.3458" stroke="black" stroke-width="1" /><polyline fill="none" points="324.988,227.5847 327.2451,228.2948 325.1095,235.0835 310.2533,225.1787" stroke="black" stroke-width="1" /><polyline fill="none" points="313.0038,237.0668 314.8211,237.8321 315.6723,239.9208 314.9073,241.7375 314.1351,243.5712 312.053,244.4058 310.2357,243.6405 309.2983,243.2458 308.361,242.8511 307.4236,242.4564 305.6064,241.6911 304.7491,239.6188 305.5212,237.785 306.2862,235.9684 308.3745,235.1174 310.1918,235.8827 313.3309,237.2046 316.47,238.5264 319.6091,239.8483 321.4261,240.6134 322.2769,242.702 321.5119,244.5187 320.8528,246.0838 319.233,246.9267 317.6329,246.6625" stroke="black" stroke-width="1" /><polyline fill="none" points="314.3181,252.1603 315.8896,253.0032 316.5748,255.0632 315.6588,256.771 314.7432,258.4778 312.7143,259.1027 310.9317,258.1465 310.6498,257.9952 310.3679,257.8441 310.086,257.6928 307.3663,256.234 308.1859,253.6189 308.3483,253.3162 308.5049,253.0242 308.6615,252.7322 308.8181,252.4402 308.6615,252.7322 308.5049,253.0242 308.3483,253.3162 307.8698,254.2081 305.7908,255.5445 303.6761,254.4102 303.0565,254.0779 302.4369,253.7455 301.8173,253.4131 300.0651,252.4733 299.437,250.3069 300.3772,248.5541 301.3254,246.7863 303.4693,246.127 305.2214,247.0668" stroke="black" stroke-width="1" /><polyline fill="none" points="301.7646,259.4301 303.4073,260.5208 303.8541,262.7316 302.7638,264.3737 301.6632,266.0314 299.462,266.463 297.8192,265.3723 296.9719,264.8098 296.1246,264.2472 295.2773,263.6846 293.6346,262.5939 293.1787,260.3981 294.2793,258.7405 295.3696,257.0984 297.5799,256.6517 299.2227,257.7424 302.0602,259.6264 304.8978,261.5104 307.7354,263.3944 309.3778,264.4849 309.8243,266.6955 308.734,268.3376 307.7946,269.7525 306.0461,270.2785 304.5233,269.7206" stroke="black" stroke-width="1" /><polyline fill="none" points="294.6249,269.7247 296.1583,270.9644 296.3961,273.2073 295.1568,274.7402 293.9058,276.2875 291.6738,276.5111 290.1404,275.2714 289.3495,274.632 288.5586,273.9925 287.7677,273.3531 286.2343,272.1133 285.9861,269.8845 287.2371,268.3372 288.4764,266.8044 290.7188,266.5667 292.2522,267.8064 294.9009,269.9478 297.5496,272.0893 300.1982,274.2307 301.7314,275.4702 301.9689,277.7129 300.7296,279.2458 299.6618,280.5664 297.8717,280.9264 296.4079,280.2283" stroke="black" stroke-width="1" /><polyline fill="none" points="279.5317,282.2614 278.1092,280.8718 278.1315,278.6404 279.4614,277.2789 280.7914,275.9174 283.0334,275.8307 284.456,277.2204 285.5352,278.2745 286.6143,279.3287 287.6935,280.3829 289.1164,281.7728 289.0818,284.0157 287.7518,285.3772 286.4219,286.7387 284.1921,286.8138 282.7693,285.424" stroke="black" stroke-width="1" /><polyline fill="none" points="270.3518,290.3738 269.0656,288.8571 269.2968,286.6376 270.7484,285.4066 272.2,284.1756 274.4402,284.2993 275.7264,285.816 276.7022,286.9666 277.6779,288.1172 278.6536,289.2678 279.9401,290.7848 279.6956,293.0146 278.244,294.2456 276.7924,295.4766 274.5654,295.3426 273.279,293.8256" stroke="black" stroke-width="1" /><polyline fill="none" points="268.4328,308.8305 265.8023,305.0633 263.1718,301.2961 260.5413,297.529 259.4026,295.8982 259.8543,293.701 261.415,292.6111 262.9615,291.5313 265.1801,291.8639 266.3188,293.4947 267.1826,294.7316 268.0463,295.9685 268.91,297.2054 270.0487,298.8362 269.5963,301.0331 268.0499,302.1129 266.4891,303.2028 264.2711,302.8705 263.1324,301.2397" stroke="black" stroke-width="1" /><polyline fill="none" points="253.1909,310.1246 252.2184,308.4093 252.8049,306.2444 254.5202,305.2719 256.2504,304.2908 258.4232,304.8913 259.3958,306.6066 259.8975,307.4916 260.3993,308.3765 260.901,309.2615 261.8736,310.9768 261.2735,313.1502 259.5579,314.123 257.8279,315.1038 255.6687,314.4948 254.6962,312.7795 253.0163,309.8165 251.3363,306.8535 249.6564,303.8906 248.684,302.1755 249.2703,300.0104 250.9856,299.0378 252.462,298.2007 254.2607,298.5214 255.3672,299.7076" stroke="black" stroke-width="1" /><polyline fill="none" points="244.5941,321.6245 242.7122,317.4329 240.8303,313.2413 238.9483,309.0497 238.1336,307.2352 238.9871,305.1607 240.7237,304.381 242.4444,303.6085 244.5621,304.3489 245.3768,306.1635 245.9947,307.5397 246.6126,308.916 247.2305,310.2923 248.0452,312.1068 247.1911,314.1808 245.4705,314.9533 243.7338,315.733 241.6167,314.993 240.8021,313.1785" stroke="black" stroke-width="1" /><polyline fill="none" points="237.1906,320.6176 237.8263,322.4842 236.8307,324.5075 234.9641,325.1431 233.0809,325.7844 231.0143,324.7678 230.3786,322.9012 230.1295,322.1699 230.1098,321.6344 230.1989,321.2045 231.0965,316.8543 231.9942,312.5042 232.8919,308.154 232.8459,308.019 232.7999,307.8839 232.754,307.7489 230.514,308.5117 228.274,309.2745 226.0341,310.0373" stroke="black" stroke-width="1" /><polyline fill="none" points="218.788,329.7491 217.7206,325.2801 216.6533,320.8112 215.5859,316.3422 215.1238,314.4076 216.3491,312.5286 218.2007,312.0864 220.0352,311.6482 221.9777,312.7706 222.4398,314.7052 222.7903,316.1725 223.1407,317.6399 223.4912,319.1072 223.9532,321.0418 222.7274,322.9202 220.8929,323.3583 219.0413,323.8005 217.0993,322.6788 216.6373,320.7442" stroke="black" stroke-width="1" /><polyline fill="none" points="205.4281,331.9647 204.7839,327.4154 204.1397,322.8661 203.4955,318.3168 203.2167,316.3474 204.6125,314.5915 206.4974,314.3246 208.3649,314.0601 210.1938,315.3594 210.4726,317.3288 210.6841,318.8225 210.8956,320.3162 211.1072,321.81 211.386,323.7793 209.9897,325.5346 208.1222,325.7991 206.2374,326.066 204.409,324.7673 204.1301,322.7979" stroke="black" stroke-width="1" /><polyline fill="none" points="191.8142,315.6331 192.0159,319.9317 198.114,319.6456 193.063,332.7372" stroke="black" stroke-width="1" /><polyline fill="none" points="185.793,322.1137 185.7006,324.0834 184.0329,325.6019 182.0639,325.5095 180.0763,325.4163 178.5757,323.7491 178.6681,321.7794 178.7157,320.7634 178.7634,319.7475 178.8111,318.7315 178.9035,316.7618 180.5537,315.2432 182.5412,315.3365 184.5102,315.4288 186.0284,317.0962 185.936,319.0659 185.7764,322.4682 185.6167,325.8705 185.457,329.2728 185.3646,331.2422 183.6969,332.7604 181.728,332.668 180.0316,332.5884 178.6823,331.358 178.3792,329.7649" stroke="black" stroke-width="1" /><polyline fill="none" points="166.7565,317.3611 167.0353,315.3922 168.8476,314.0901 170.7321,314.357 172.6166,314.6238 174.0128,316.3802 173.7339,318.3492 173.5224,319.8429 173.3109,321.3366 173.0994,322.8304 172.8205,324.7997 170.9917,326.0987 169.1072,325.8318 167.2227,325.565 165.8431,323.8117 166.1219,321.8423" stroke="black" stroke-width="1" /><polyline fill="none" points="155.1702,313.0883 155.9649,312.3439 156.9264,311.6391 158.9947,312.1331 160.8463,312.5753 162.0719,314.4543 161.5978,316.4393 161.2514,317.8898 160.9049,319.3404 160.5585,320.791 160.0964,322.7256 158.1541,323.8472 156.3025,323.405 154.4176,322.9548 153.1588,321.0686 153.6209,319.134 153.7934,318.4116 153.966,317.6891 154.1385,316.9667 156.4455,317.5176 158.7525,318.0687 161.0594,318.6197" stroke="black" stroke-width="1" /><polyline fill="none" points="148.2215,317.5686 147.5804,319.4514 145.5417,320.3867 143.7397,319.7731 141.9384,319.1597 140.9099,317.1799 141.551,315.297 142.0374,313.869 142.5237,312.4409 143.01,311.0128 143.6511,309.1303 145.6744,308.189 147.4757,308.8024 149.2777,309.4161 150.3057,311.3965 149.6646,313.279 149.6699,313.2808 149.6752,313.2826 149.6805,313.2844 148.1993,317.6338 146.7182,321.9832 145.237,326.3326" stroke="black" stroke-width="1" /><polyline fill="none" points="126.7402,318.9398 128.6123,319.7804 130.4844,320.6209 132.3564,321.4614 133.4637,318.9953 134.5709,316.5291 135.6782,314.063 134.5853,314.9065 133.4363,315.1619 132.0757,314.551 130.1986,313.7083 129.4395,311.5066 130.2187,309.7709 130.7758,308.5301 131.333,307.2892 131.8901,306.0484 132.7046,304.2343 134.7561,303.5576 136.4614,304.3233 138.1505,305.0816 138.9923,307.0573 138.1778,308.8715" stroke="black" stroke-width="1" /><polyline fill="none" points="120.9447,312.1859 116.9659,313.8131 125.4215,298.8996" stroke="black" stroke-width="1" /><polyline fill="none" points="110.8709,293.6271 112.0094,291.9966 114.2145,291.6541 115.775,292.7437 117.3355,293.8334 117.7873,296.0311 116.6488,297.6616 115.7851,298.8985 114.9214,300.1354 114.0577,301.3723 112.9189,303.0031 110.7005,303.3354 109.14,302.2458 107.5795,301.1562 107.1411,298.9686 108.2798,297.3378" stroke="black" stroke-width="1" /><polyline fill="none" points="104.2441,283.7615 101.4608,287.0436 106.1169,290.992 93.4959,297.1251" stroke="black" stroke-width="1" /><polyline fill="none" points="95.4209,284.3969 94.0103,285.7748 91.755,285.7486 90.3776,284.3386 88.9872,282.9152 89.0262,280.6724 90.4367,279.2945 91.1643,278.5838 91.8918,277.8731 92.6194,277.1624 94.0299,275.7846 96.2725,275.7988 97.6629,277.2221 99.0403,278.6321 99.0141,280.887 97.6035,282.2648 95.167,284.6449 92.7305,287.025 90.2939,289.405 88.8836,290.7827 86.6285,290.7562 85.2512,289.3462 84.0645,288.1313 83.9163,286.3114 84.7808,284.9392" stroke="black" stroke-width="1" /><polyline fill="none" points="74.0844,276.6915 77.6574,273.8028 81.2304,270.9141 84.8034,268.0253 86.3501,266.7748 88.5737,267.071 89.7705,268.5513 90.9563,270.018 90.7804,272.2546 89.2337,273.5051 88.0606,274.4536 86.8874,275.402 85.7142,276.3506 84.1675,277.601 81.9443,277.3042 80.7585,275.8374 79.5616,274.3571 79.7372,272.1213 81.2839,270.8708" stroke="black" stroke-width="1" /><polyline fill="none" points="74.992,263.8381 74.1807,262.4328 71.9585,261.7958 70.3229,262.8818 69.9422,263.1345 69.5616,263.3872 69.1809,263.64 67.6378,264.6645 67.2163,266.757 68.2503,268.3143 69.2746,269.8571 71.3951,270.2609 72.9093,269.2555 73.29,269.0028 73.6707,268.7501 74.0513,268.4973 75.5947,267.4726 76.0163,265.3809 74.992,263.8381 73.8634,262.1383 74.3659,259.8887 76.0081,258.7984 76.5699,258.4254 77.1318,258.0523 77.6936,257.6793 79.3361,256.5888 81.5763,257.0173 82.705,258.7172 83.8241,260.4027 83.349,262.6328 81.7066,263.7233 81.1354,264.1025 80.5642,264.4818 79.993,264.861 78.585,265.7958 76.2968,265.62" stroke="black" stroke-width="1" /><polyline fill="none" points="75.2009,246.2678 71.4086,248.302 74.2943,253.6817 60.304,254.7643" stroke="black" stroke-width="1" /><polyline fill="none" points="59.8919,246.3168 58.2484,247.0089 56.2157,246.2466 55.4635,244.4605 54.7119,242.6755 55.5015,240.7049 57.3659,239.9198 57.6607,239.7957 57.9556,239.6715 58.2504,239.5474 61.0947,238.3496 62.613,240.6311 62.7464,240.9477 62.8749,241.2531 63.0035,241.5584 63.1321,241.8638 63.0035,241.5584 62.8749,241.2531 62.7464,240.9477 62.3535,240.0149 62.6214,237.5579 64.833,236.6266 65.481,236.3537 66.1291,236.0809 66.7771,235.808 68.6095,235.0363 70.6891,235.9099 71.461,237.743 72.2396,239.5919 71.4044,241.6736 69.572,242.4452" stroke="black" stroke-width="1" /><polyline fill="none" points="60.6105,232.3788 58.7132,232.9757 56.7531,231.8854 56.1819,230.0695 55.6108,228.2542 56.5986,226.2538 58.496,225.6569 59.935,225.2042 61.3741,224.7515 62.8132,224.2988 64.7102,223.702 66.6661,224.7765 67.2371,226.5917 67.8083,228.4076 66.8198,230.4079 64.9228,231.0047 64.9245,231.01 64.9261,231.0154 64.9278,231.0207 60.5449,232.3995 56.162,233.7783 51.7791,235.1571" stroke="black" stroke-width="1" /><polyline fill="none" points="51.3668,221.3226 49.6231,221.6961 47.7682,220.5681 47.3623,218.6732 46.9566,216.7793 48.0999,214.9904 50.0779,214.5668 50.3907,214.4998 50.7035,214.4328 51.0163,214.3658 54.0341,213.7194 55.1004,216.2439 55.1724,216.5799 55.2418,216.9039 55.3111,217.2278 55.3805,217.5518 55.3111,217.2278 55.2418,216.9039 55.1724,216.5799 54.9604,215.5902 55.6817,213.2262 58.0282,212.7236 58.7157,212.5764 59.4032,212.4291 60.0907,212.2819 62.0349,211.8654 63.9152,213.1115 64.3317,215.0564 64.7519,217.018 63.5433,218.9074 61.5991,219.3238" stroke="black" stroke-width="1" /><polyline fill="none" points="48.2844,201.3871 51.9452,203.3502 55.606,205.3134 59.2668,207.2765 55.884,207.6749 52.5014,208.0732 49.1187,208.4716 47.1604,208.7022 45.39,207.3042 45.1595,205.3466 44.9268,203.3706 46.326,201.6177 48.2844,201.3871 51.6671,200.9887 55.0498,200.5904 58.4324,200.192 60.3908,199.9614 62.1583,201.3413 62.389,203.3 62.6215,205.275 61.2251,207.0459 59.2668,207.2765" stroke="black" stroke-width="1" /><polyline fill="none" points="53.456,195.1465 51.4675,195.1931 49.8872,193.6015 49.8426,191.6983 49.798,189.7959 51.3023,188.1484 53.2908,188.1018 54.799,188.0664 56.3072,188.031 57.8154,187.9957 59.8035,187.949 61.3841,189.5243 61.4287,191.4267 61.4734,193.3298 59.9683,194.977 57.9802,195.0236 57.9803,195.0292 57.9805,195.0348 57.9806,195.0404 53.3872,195.1481 48.7938,195.2558 44.2003,195.3635" stroke="black" stroke-width="1" /><polyline fill="none" points="44.7691,175.4523 44.6248,177.4993 44.4806,179.5463 44.3364,181.5933 47.0331,181.7833 49.7297,181.9733 52.4263,182.1633 51.2579,181.4279 50.6224,180.4372 50.7272,178.9494 50.8718,176.8969 52.6772,175.4258 54.575,175.5595 55.9318,175.6551 57.2887,175.7507 58.6455,175.8463 60.6292,175.986 61.9711,177.6788 61.8397,179.5436 61.7096,181.3905 60.1448,182.8614 58.1611,182.7216" stroke="black" stroke-width="1" /><polyline fill="none" points="54.585,169.8496 52.6227,169.5247 51.3669,167.6663 51.6779,165.7882 51.9888,163.9108 53.774,162.5727 55.7363,162.8976 57.2246,163.1441 58.713,163.3906 60.2013,163.6371 62.1633,163.962 63.4224,165.8043 63.1115,167.6816 62.8005,169.5597 61.0147,170.8974 59.0528,170.5725 59.0519,170.578 59.051,170.5835 59.0501,170.5891 54.5171,169.8384 49.9842,169.0877 45.4512,168.3371" stroke="black" stroke-width="1" /><polyline fill="none" points="63.0662,151.8347 64.9891,152.3419 66.0702,154.294 65.5848,156.1344 65.0994,157.9747 63.1918,159.1559 61.2689,158.6487 59.8102,158.2639 58.3514,157.8792 56.8927,157.4944 54.9695,156.9871 53.8933,155.0189 54.3787,153.1786 54.8641,151.3382 56.7668,150.1731 58.69,150.6804" stroke="black" stroke-width="1" /><polyline fill="none" points="70.0453,142.2151 66.0053,140.7327 63.9024,146.464 53.7972,136.7281" stroke="black" stroke-width="1" /><polyline fill="none" points="59.8363,130.8071 58.227,130.0387 57.446,128.0131 58.281,126.2642 59.1155,124.5164 61.1129,123.7971 62.9384,124.6687 63.2271,124.8065 63.5158,124.9444 63.8044,125.0822 66.5895,126.4119 65.8934,129.0626 65.7454,129.3726 65.6026,129.6716 65.4599,129.9706 65.3171,130.2696 65.4599,129.9706 65.6026,129.6716 65.7454,129.3726 66.1815,128.4592 68.1956,127.0268 70.3612,128.0608 70.9957,128.3637 71.6302,128.6667 72.2647,128.9696 74.059,129.8263 74.7879,131.9609 73.9309,133.7558 73.0666,135.5662 70.956,136.3252 69.1617,135.4685" stroke="black" stroke-width="1" /><polyline fill="none" points="66.2935,111.4659 70.2363,113.8251 74.179,116.1844 78.1217,118.5436 79.8285,119.5649 80.3164,121.7544 79.3389,123.3879 78.3704,125.0064 76.2102,125.6117 74.5034,124.5904 73.2089,123.8158 71.9143,123.0412 70.6197,122.2665 68.913,121.2452 68.4259,119.0558 69.3943,117.4373 70.3718,115.8038 72.5313,115.1984 74.238,116.2197" stroke="black" stroke-width="1" /><polyline fill="none" points="72.9401,108.0528 71.3503,106.8863 71.0082,104.6574 72.1747,103.0676 73.3516,101.4637 75.6281,101.1141 77.2179,102.2806 77.8408,102.7376 78.1635,103.1653 78.3366,103.5687 80.0911,107.6494 81.8457,111.73 83.6002,115.8107 83.7152,115.895 83.8302,115.9794 83.9452,116.0638 85.345,114.156 86.7448,112.2482 88.1446,110.3403" stroke="black" stroke-width="1" /><polyline fill="none" points="82.605,90.4436 81.2414,91.9771 79.8778,93.5107 78.5143,95.0442 80.5345,96.8405 82.5547,98.6368 84.5749,100.4331 84.0982,99.1374 84.1994,97.9647 85.1904,96.8501 86.5576,95.3125 88.8856,95.249 90.3074,96.5132 91.3239,97.417 92.3404,98.3208 93.3569,99.2246 94.843,100.546 94.8728,102.7059 93.6307,104.1029 92.4005,105.4866 90.2632,105.6967 88.7771,104.3753" stroke="black" stroke-width="1" /><polyline fill="none" points="101.9631,90.5748 103.319,92.0295 103.1921,94.2574 101.7998,95.5551 100.4075,96.8528 98.1639,96.8342 96.808,95.3795 95.7794,94.2759 94.7508,93.1723 93.7222,92.0687 92.3661,90.6137 92.5058,88.3748 93.8981,87.0771 95.2904,85.7795 97.5212,85.8089 98.8774,87.264" stroke="black" stroke-width="1" /><polyline fill="none" points="112.5703,84.2512 112.6496,85.3372 112.5932,86.5281 110.9086,87.8259 109.4007,88.9877 107.1689,88.7594 105.9233,87.1428 105.0132,85.9614 104.103,84.78 103.1928,83.5986 101.9789,82.023 102.3278,79.8073 103.8358,78.6455 105.3709,77.4628 107.6292,77.6698 108.8431,79.2454 109.2964,79.8338 109.7497,80.4222 110.203,81.0106 108.3241,82.4581 106.4452,83.9057 104.5663,85.3533" stroke="black" stroke-width="1" /><polyline fill="none" points="122.666,77.5991 122.6431,78.6878 122.4755,79.8681 120.6768,81.0025 119.0667,82.018 116.8661,81.5817 115.7774,79.8556 114.9818,78.5941 114.1863,77.3327 113.3907,76.0713 112.3297,74.3889 112.8845,72.2157 114.4947,71.2002 116.1339,70.1664 118.3628,70.5839 119.4238,72.2663 119.82,72.8945 120.2163,73.5228 120.6125,74.1511 118.6063,75.4163 116.6001,76.6816 114.5939,77.9469" stroke="black" stroke-width="1" /><polyline fill="none" points="133.4041,73.8778 131.4594,70.0389 126.0135,72.7977 125.2592,58.7858" stroke="black" stroke-width="1" /><polyline fill="none" points="144.4991,67.2686 144.2737,68.3339 143.8889,69.4623 141.9103,70.2414 140.139,70.9389 138.0583,70.0999 137.3106,68.2011 136.7642,66.8134 136.2178,65.4257 135.6714,64.0381 134.9427,62.1874 135.893,60.1557 137.6643,59.4583 139.4675,58.7483 141.5795,59.5741 142.3082,61.4248 142.5803,62.1159 142.8524,62.807 143.1246,63.4981 140.9176,64.3671 138.7107,65.2361 136.5038,66.1051" stroke="black" stroke-width="1" /><polyline fill="none" points="151.6246,48.8258 152.9003,53.2399 154.176,57.6539 155.4516,62.0679 156.0039,63.9787 154.868,65.9131 153.0392,66.4416 151.2272,66.9652 149.2342,65.9352 148.682,64.0244 148.2631,62.5751 147.8443,61.1257 147.4254,59.6764 146.8732,57.7656 148.0096,55.8319 149.8216,55.3082 151.6504,54.7797 153.6429,55.8092 154.1951,57.72" stroke="black" stroke-width="1" /><polyline fill="none" points="164.866,45.9865 165.7227,50.5006 166.5794,55.0147 167.4362,59.5288 167.807,61.4829 166.495,63.3024 164.6248,63.6573 162.7717,64.009 160.8839,62.7968 160.5131,60.8427 160.2318,59.3605 159.9505,57.8784 159.6692,56.3962 159.2983,54.4421 160.6108,52.6233 162.4639,52.2716 164.3341,51.9166 166.2214,53.1282 166.5923,55.0823" stroke="black" stroke-width="1" /><polyline fill="none" points="105.7792,194.9618 188.2428,253.3668 156.5688,130.1462 189.0084,152.2515 268.4255,140.8637 268.4255,140.8637 280.8196,188.8365 239.8942,231.6324 188.2428,253.3668 268.4255,140.8637" stroke="black" stroke-width="1" /><polyline fill="none" points="254.0577,130.6235 282.7934,151.1039" stroke="black" stroke-width="1" /><polyline fill="none" points="107.9428,188.1635 107.798,186.3235 107.3671,184.5287 106.6608,182.8235 105.6964,181.2497 104.4977,179.8462 103.0942,178.6475 101.5204,177.6831 99.8152,176.9768 98.0205,176.5459 96.1804,176.4011 94.3404,176.5459 92.5456,176.9768 90.8404,177.6831 89.2667,178.6475 87.8632,179.8462 86.6644,181.2497 85.7001,182.8235 84.9937,184.5287 84.5628,186.3235 84.418,188.1635 84.5628,190.0035 84.9937,191.7983 85.7001,193.5035 86.6644,195.0773 87.8632,196.4808 89.2667,197.6795 90.8404,198.6439 92.5456,199.3502 94.3404,199.7811 96.1804,199.9259 98.0205,199.7811 99.8152,199.3502 101.5204,198.6439 103.0942,197.6795 104.4977,196.4808 105.6964,195.0773 106.6608,193.5035 107.3671,191.7983 107.798,190.0035 107.9428,188.1635" stroke="black" stroke-width="1" /><polyline fill="none" points="188.5,69.0664 199.6839,69.5912 210.7696,71.161 221.6595,73.7619 232.2581,77.3712 242.4721,81.9571 252.2118,87.4792 261.3915,93.8892 269.9308,101.1306 277.7544,109.1398 284.7936,117.8464 290.9866,127.1739 296.2789,137.0404 300.6241,147.3591 303.9839,158.0393 306.3289,168.9873 307.6383,180.1067 307.9008,191.2998 307.114,202.4684 305.2847,213.5142 302.4292,224.3402 298.5725,234.8512 293.7484,244.9549 287.9994,254.5625 281.376,263.5894 273.9365,271.9565 265.7461,279.5902 256.8768,286.4234 247.4067,292.3961 237.4188,297.4556 227.0011,301.5577 216.2451,304.6663 205.2452,306.7539 194.0981,307.8023 182.9019,307.8023 171.7548,306.7539 160.7549,304.6663 149.9989,301.5577 139.5811,297.4556 129.5933,292.3961 120.1232,286.4234 111.2539,279.5902 103.0635,271.9565 95.6239,263.5894 89.0006,254.5625 83.2516,244.9549 78.4275,234.8512 74.5708,224.3402 71.7153,213.5142 69.8861,202.4684 69.0992,191.2998 69.3617,180.1067 70.6712,168.9872 73.0161,158.0393 76.3759,147.3591 80.7211,137.0404 86.0134,127.174 92.2064,117.8464 99.2457,109.1398 107.0692,101.1306 115.6085,93.8892 124.7882,87.4792 134.5279,81.957 144.7419,77.3712 155.3405,73.7619 166.2304,71.161 177.3161,69.5912 188.5,69.0664" stroke="black" stroke-width="1" />

    </g>
  </g>
  <WCB
     pausedposy="0"
     pausedposx="0"
     lastknownposy="0"
     lastknownposx="0"
     lastpathnc="0"
     lastpath="0"
     node="0"
     layer="0" />
</svg>
