<?xml version="1.0" encoding="UTF-8" standalone="no"?>
<!-- Created with Inkscape (http://www.inkscape.org/) -->

<svg
   xmlns:dc="http://purl.org/dc/elements/1.1/"
   xmlns:cc="http://creativecommons.org/ns#"
   xmlns:rdf="http://www.w3.org/1999/02/22-rdf-syntax-ns#"
   xmlns:svg="http://www.w3.org/2000/svg"
   xmlns="http://www.w3.org/2000/svg"
   xmlns:sodipodi="http://sodipodi.sourceforge.net/DTD/sodipodi-0.dtd"
   xmlns:inkscape="http://www.inkscape.org/namespaces/inkscape"
   width="100mm"
   height="100mm"
   viewBox="0 0 100 100"
   version="1.1"
   id="svg19124"
   inkscape:version="0.92.3 (2405546, 2018-03-11)"
   sodipodi:docname="inkscape_template_TMP.svg"
   shape-rendering="crispEdges">
  <sodipodi:namedview
     pagecolor="#ffffff"
     bordercolor="#666666"
     borderopacity="1"
     objecttolerance="10"
     gridtolerance="10"
     guidetolerance="10"
     inkscape:pageopacity="0"
     inkscape:pageshadow="2"
     inkscape:window-width="1568"
     inkscape:window-height="1550"
     id="namedview24021"
     showgrid="false"
     inkscape:zoom="0.62441667"
     inkscape:cx="712.66515"
     inkscape:cy="409.98265"
     inkscape:window-x="0"
     inkscape:window-y="0"
     inkscape:window-maximized="0"
     inkscape:current-layer="layer1" />
  <defs
     id="defs19118" />
  <metadata
     id="metadata19121">
    <rdf:RDF>
      <cc:Work
         rdf:about="">
        <dc:format>image/svg+xml</dc:format>
        <dc:type
           rdf:resource="http://purl.org/dc/dcmitype/StillImage" />
        <dc:title />
      </cc:Work>
    </rdf:RDF>
  </metadata>
  <g
     transform="translate(0,-197)"
     id="layer1"
     inkscape:groupmode="layer"
     inkscape:label="Layer 1">
    <g
       id="g24447"
       transform="matrix(0.26458333,0,0,0.26458333,0.10666333,197.9735)">

<polyline fill="none" points="192.1004,47.7394 189.7225,51.1455 187.3447,54.5516 184.9669,57.9577 184.9669,54.5516 184.9669,51.1455 184.9669,47.7394 184.9669,45.7676 186.5623,44.1729 188.5334,44.1729 190.5231,44.1729 192.1004,45.7676 192.1004,47.7394 192.1004,51.1455 192.1004,54.5516 192.1004,57.9577 192.1004,59.9295 190.5231,61.5235 188.5509,61.5235 186.5623,61.5235 184.9669,59.9295 184.9669,57.9577" stroke="black" stroke-width="1" /><polyline fill="none" points="197.8298,61.5877 200.7471,57.7851 198.696,53.7706 202.935,62.0679 200.7471,57.7851 203.4811,54.2207" stroke="black" stroke-width="1" /><polyline fill="none" points="210.2846,55.059 210.6554,53.1049 212.5428,51.893 214.413,52.2479 216.2826,52.6028 217.5785,54.4188 217.2077,56.3729 216.9264,57.8551 216.6451,59.3373 216.3638,60.8194 215.993,62.7732 214.1216,63.9889 212.2521,63.634 210.3818,63.2791 209.0863,61.4624 209.4572,59.5086 209.4517,59.5076 209.4462,59.5065 209.4407,59.5055 210.2974,54.9914 211.1541,50.4773 212.0108,45.9632" stroke="black" stroke-width="1" /><polyline fill="none" points="231.8187,50.6879 230.5431,55.102 229.2674,59.516 227.9917,63.9301 227.4395,65.8409 225.4469,66.871 223.6181,66.3425 221.8061,65.8189 220.6699,63.8844 221.2221,61.9736 221.6409,60.5243 222.0598,59.075 222.4787,57.6257 223.0309,55.7149 225.0237,54.6855 226.8356,55.2092 228.6644,55.7377 229.8005,57.6713 229.2483,59.5821" stroke="black" stroke-width="1" /><polyline fill="none" points="242.4078,61.727 241.6854,63.5617 239.6332,64.4667 237.7984,63.7443 235.9477,63.0156 235.0486,60.9484 235.771,59.1136 236.1438,58.1671 236.5165,57.2205 236.8892,56.274 237.6116,54.4392 239.6791,53.5394 241.5141,54.262 243.3645,54.9906 244.2484,57.0525 243.526,58.8873 242.2781,62.0565 241.0301,65.2257 239.7822,68.395 239.0599,70.2294 237.0076,71.1348 235.1728,70.4123 233.5936,69.7905 232.7122,68.1901 232.9389,66.584" stroke="black" stroke-width="1" /><polyline fill="none" points="246.4767,66.3535 247.3755,64.5792 249.5251,63.9389 251.2233,64.7992 252.9208,65.6591 253.6616,67.7635 252.7628,69.5379 252.081,70.8837 251.3993,72.2295 250.7175,73.5753 249.8189,75.3493 247.6836,75.9976 245.9861,75.1376 244.2879,74.2774 243.5477,72.1725 244.4464,70.3985 244.4414,70.3959 244.4364,70.3934 244.4314,70.3909 246.5078,66.2921 248.5841,62.1933 250.6604,58.0945" stroke="black" stroke-width="1" /><polyline fill="none" points="265.1005,74.0019 264.0486,75.6697 261.8637,76.1763 260.1958,75.1244 258.5135,74.0633 258.0155,71.8648 259.0674,70.1969 259.6101,69.3365 260.1528,68.476 260.6954,67.6155 261.7473,65.9477 263.9463,65.4491 265.6144,66.5012 267.2965,67.5621 267.7805,69.7526 266.7285,71.4205 264.9116,74.3015 263.0946,77.1824 261.2776,80.0634 260.226,81.7309 258.0408,82.2378 256.373,81.1859 254.9374,80.2805 254.3698,78.5439 254.8921,77.0081" stroke="black" stroke-width="1" /><polyline fill="none" points="273.9048,82.9373 273.9081,82.933 273.9115,82.9287 273.9148,82.9243 272.4919,84.7713 271.0689,86.6182 269.646,88.4651 268.9884,89.3187 269.3349,90.1078 269.7819,90.4522 269.2113,90.0125 269.1113,89.1591 269.5625,88.5735 269.5903,88.5374 269.6182,88.5013 269.646,88.4651 268.1799,88.5692 266.7293,88.3172 265.5481,87.4072 264.57,86.6536 263.3577,84.9401 264.8957,82.9437 265.7016,81.8978 266.7977,81.6823 267.9116,81.9787 268.455,82.1155 269.9452,82.852 270.9501,83.3449 271.9791,83.8351 273.0989,83.9833 273.9048,82.9373 274.7209,81.8781 274.6308,79.7753 273.0012,78.5198 271.466,77.337 270.1846,77.5396 269.2026,77.8867" stroke="black" stroke-width="1" /><polyline fill="none" points="281.9104,83.1419 283.2549,81.6994 285.5085,81.6204 286.9509,82.9648 288.4062,84.3212 288.4872,86.623 287.1428,88.0654 286.616,88.6306 286.1535,88.9011 285.7326,89.0258 281.4747,90.291 277.2169,91.5563 272.9591,92.8215 272.8618,92.9258 272.7646,93.0302 272.6673,93.1345 274.3983,94.7478 276.1293,96.3612 277.8604,97.9745" stroke="black" stroke-width="1" /><polyline fill="none" points="292.3208,93.1944 296.6118,92.9367 283.8,104.3283" stroke="black" stroke-width="1" /><polyline fill="none" points="306.5604,105.4905 305.3464,103.836 304.1324,102.1815 302.9185,100.527 300.7389,102.1262 298.5594,103.7254 296.3798,105.3246 297.7466,105.1298 298.872,105.4743 299.7544,106.6768 300.9716,108.3357 300.5461,110.6254 299.0121,111.7509 297.9155,112.5556 296.8188,113.3602 295.7222,114.1648 294.1189,115.3413 292.0005,114.9181 290.8947,113.4109 289.7994,111.9181 290.0415,109.7843 291.6449,108.6078" stroke="black" stroke-width="1" /><polyline fill="none" points="308.2707,114.2242 312.5345,114.7711 297.8233,123.5741" stroke="black" stroke-width="1" /><polyline fill="none" points="314.9935,124.0331 317.1288,123.0136 320.1951,129.4359 302.5742,132.3193" stroke="black" stroke-width="1" /><polyline fill="none" points="320.4745,136.1614 322.6959,135.3464 325.1473,142.0275 307.3338,143.2482" stroke="black" stroke-width="1" /><polyline fill="none" points="312.1193,158.6325 316.2804,157.535 314.7234,151.632 328.5825,153.8291" stroke="black" stroke-width="1" /><polyline fill="none" points="326.7974,162.0486 328.7427,161.7265 330.5762,163.0392 330.8983,164.9846 331.2234,166.9472 329.8827,168.8201 327.9373,169.1422 327.1752,169.2684 326.6437,169.2004 326.2341,169.0423 322.0891,167.446 317.944,165.8497 313.7989,164.2533 313.6582,164.2766 313.5175,164.2999 313.3768,164.3232 313.7634,166.6577 314.15,168.9922 314.5365,171.3267" stroke="black" stroke-width="1" /><polyline fill="none" points="332.7996,181.6959 328.2163,182.0188 323.633,182.3417 319.0497,182.6646 317.0656,182.8043 315.412,181.2885 315.2783,179.3896 315.1457,177.5081 316.5704,175.7751 318.5544,175.6353 320.0593,175.5293 321.5642,175.4233 323.0691,175.3172 325.0532,175.1775 326.7061,176.6937 326.8386,178.5752 326.9724,180.4741 325.5484,182.2067 323.5643,182.3465" stroke="black" stroke-width="1" /><polyline fill="none" points="329.1375,195.3991 325.7881,192.9421 322.4387,190.4851 319.0893,188.0281 322.4944,188.1079 325.8996,188.1878 329.3047,188.2676 331.276,188.3139 332.8329,189.9462 332.7867,191.9168 332.74,193.906 331.1088,195.4454 329.1375,195.3991 325.7324,195.3193 322.3272,195.2395 318.9221,195.1596 316.9507,195.1134 315.3942,193.4992 315.4404,191.5276 315.487,189.5395 317.118,187.9819 319.0893,188.0281" stroke="black" stroke-width="1" /><polyline fill="none" points="329.8821,201.4498 332.232,201.7265 331.3997,208.7943 314.9572,201.8333" stroke="black" stroke-width="1" /><polyline fill="none" points="312.274,217.7198 316.482,218.6211 317.7606,212.6516 329.131,220.8746" stroke="black" stroke-width="1" /><polyline fill="none" points="325.2678,234.5803 325.8836,232.6228 326.4994,230.6652 327.1152,228.7077 324.5365,227.8965 321.9578,227.0853 319.379,226.274 320.3446,227.2607 320.7327,228.372 320.2851,229.7947 319.6676,231.7575 317.5699,232.7689 315.755,232.198 314.4575,231.7898 313.16,231.3817 311.8625,230.9735 309.9656,230.3767 309.0536,228.4185 309.6146,226.6353 310.1702,224.8691 312.0338,223.802 313.9308,224.3988" stroke="black" stroke-width="1" /><polyline fill="none" points="307.5542,242.3896 305.7214,241.6178 304.9246,239.5334 305.6633,237.7793 306.4019,236.0251 308.4563,235.1231 310.2891,235.8949 311.6794,236.4804 313.0698,237.0658 314.4602,237.6513 316.2933,238.4232 317.0829,240.5229 316.3443,242.277 315.6056,244.0311 313.5584,244.9179 311.7253,244.146" stroke="black" stroke-width="1" /><polyline fill="none" points="314.1829,259.7214 310.1339,257.5495 306.085,255.3777 302.036,253.2058 300.2832,252.2656 299.6932,250.1014 300.593,248.4239 301.4846,246.7618 303.6141,246.0559 305.3669,246.9961 306.6963,247.7092 308.0258,248.4223 309.3552,249.1354 311.108,250.0756 311.6972,252.2397 310.8056,253.9019 309.9058,255.5794 307.7771,256.2853 306.0243,255.3451" stroke="black" stroke-width="1" /><polyline fill="none" points="293.9823,262.7065 293.5573,261.704 293.2267,260.5586 294.4029,258.787 295.4559,257.2011 297.6421,256.6977 299.3423,257.8265 300.5847,258.6515 301.8272,259.4764 303.0696,260.3013 304.7267,261.4015 305.1106,263.6113 304.0576,265.1972 302.9857,266.8117 300.7813,267.3437 299.1243,266.2436 298.5055,265.8327 297.8867,265.4218 297.2679,265.011 298.5799,263.035 299.8918,261.059 301.2038,259.083" stroke="black" stroke-width="1" /><polyline fill="none" points="298.8748,281.4851 300.165,279.8893 301.4551,278.2935 302.7453,276.6978 300.6431,274.9981 298.541,273.2985 296.4388,271.5989 296.9757,272.8708 296.9296,274.0469 295.9919,275.2068 294.6982,276.8068 292.3758,276.9793 290.8963,275.7832 289.8386,274.928 288.7809,274.0729 287.7231,273.2177 286.1767,271.9674 286.0456,269.8112 287.2209,268.3575 288.3849,266.9178 290.51,266.6077 292.0565,267.8579" stroke="black" stroke-width="1" /><polyline fill="none" points="285.9404,283.7117 284.7361,284.7994 284.5787,287.1057 285.9831,288.4776 286.31,288.7969 286.6368,289.1161 286.9637,289.4354 288.2886,290.7297 290.423,290.7037 291.7292,289.3664 293.0233,288.0417 292.974,285.8836 291.6738,284.6136 291.3469,284.2943 291.0201,283.975 290.6932,283.6557 289.368,282.3612 287.2344,282.387 285.9404,283.7117 284.5146,285.1713 282.2097,285.1511 280.7997,283.7737 280.3172,283.3025 279.8347,282.8312 279.3523,282.3599 277.942,280.9823 277.8918,278.702 279.3176,277.2424 280.7314,275.795 283.0115,275.7925 284.4218,277.1702 284.9123,277.6492 285.4027,278.1283 285.8932,278.6074 287.1021,279.7884 287.4094,282.0627" stroke="black" stroke-width="1" /><polyline fill="none" points="277.6186,288.0883 278.8939,289.5922 278.7093,291.8401 277.2059,293.115 275.6884,294.4019 273.4539,294.2054 272.1785,292.7015 271.5208,291.9258 270.8629,291.1501 270.2051,290.3744 268.9298,288.8705 269.1015,286.6345 270.619,285.3476 272.1224,284.0727 274.3698,284.2573 275.6452,285.7612 277.8481,288.3589 280.0511,290.9567 282.254,293.5544 283.5291,295.0581 283.3443,297.3058 281.8409,298.5806 280.5457,299.679 278.7198,299.6989 277.4118,298.7401" stroke="black" stroke-width="1" /><polyline fill="none" points="271.9575,301.905 273.0864,303.5217 272.6917,305.7419 271.075,306.8708 269.4439,308.0097 267.1762,307.6068 266.0473,305.9901 265.605,305.3567 265.4374,304.8477 265.4036,304.41 265.0582,299.9816 264.7128,295.5532 264.3674,291.1248 264.2857,291.0079 264.2041,290.8909 264.1224,290.774 262.1823,292.1287 260.2422,293.4834 258.3021,294.8381" stroke="black" stroke-width="1" /><polyline fill="none" points="257.132,315.4585 258.9172,314.4464 260.7023,313.4343 262.4874,312.4221 261.1541,310.0705 259.8208,307.7189 258.4875,305.3673 258.5211,306.7474 258.0473,307.8249 256.7498,308.5605 254.96,309.5753 252.7358,308.885 251.7974,307.2299 251.1265,306.0467 250.4557,304.8635 249.7848,303.6803 248.804,301.9503 249.472,299.8961 251.0982,298.9741 252.7088,298.0609 254.7997,298.5509 255.7805,300.2808" stroke="black" stroke-width="1" /><polyline fill="none" points="238.1627,305.5787 239.9254,309.5045 245.4946,307.004 245.5913,321.0359" stroke="black" stroke-width="1" /><polyline fill="none" points="237.7303,321.6652 238.4931,323.905 231.7563,326.1992 230.9536,308.3619" stroke="black" stroke-width="1" /><polyline fill="none" points="224.5284,324.826 224.9426,326.5605 223.8584,328.4414 221.9735,328.8916 220.0896,329.3416 218.2745,328.2405 217.8046,326.2729 217.7303,325.9618 217.656,325.6507 217.5816,325.3395 216.8647,322.3378 219.3636,321.2125 219.6978,321.1328 220.02,321.0558 220.3423,320.9788 220.6645,320.9019 220.3423,320.9788 220.02,321.0558 219.6978,321.1328 218.7133,321.3679 216.3331,320.7022 215.7756,318.3681 215.6123,317.6842 215.4489,317.0004 215.2856,316.3165 214.8237,314.3826 216.0253,312.4737 217.9599,312.0116 219.9112,311.5455 221.8284,312.7096 222.2903,314.6435" stroke="black" stroke-width="1" /><polyline fill="none" points="207.5799,323.392 205.9621,323.5186 204.4298,325.2495 204.7051,327.1934 204.7692,327.6458 204.8332,328.0983 204.8973,328.5507 205.157,330.3846 206.8636,331.6666 208.7145,331.4045 210.5481,331.1448 211.8261,329.4052 211.5713,327.6056 211.5072,327.1532 211.4432,326.7008 211.3791,326.2484 211.1194,324.4141 209.4135,323.1324 207.5799,323.392 205.5597,323.6781 203.7461,322.2554 203.4698,320.3037 203.3752,319.6359 203.2807,318.9681 203.1861,318.3004 202.9097,316.3484 204.2616,314.5113 206.2819,314.2253 208.2852,313.9416 210.0929,315.3312 210.3693,317.2832 210.4655,317.962 210.5616,318.6409 210.6577,319.3198 210.8947,320.9931 209.7501,322.9822" stroke="black" stroke-width="1" /><polyline fill="none" points="198.3105,323.3511 198.4037,325.3379 196.8495,326.9551 194.948,327.0443 193.0471,327.1335 191.3648,325.6682 191.2715,323.6814 191.2008,322.1744 191.1301,320.6675 191.0594,319.1605 190.9662,317.1741 192.5039,315.5569 194.4048,315.4677 196.3063,315.3785 197.9883,316.8445 198.0816,318.831 198.0871,318.8307 198.0927,318.8305 198.0983,318.8302 198.3137,323.4199 198.5291,328.0095 198.7444,332.5991" stroke="black" stroke-width="1" /><polyline fill="none" points="178.3808,332.6051 178.5962,328.0155 178.8116,323.4258 179.0269,318.8362 179.1202,316.8494 180.819,315.3845 182.7205,315.4737 184.6046,315.5621 186.1591,317.1797 186.0659,319.1665 185.9951,320.6735 185.9244,322.1804 185.8537,323.6874 185.7605,325.6742 184.0614,327.1384 182.1773,327.05 180.2758,326.9608 178.7216,325.3439 178.8148,323.3571" stroke="black" stroke-width="1" /><polyline fill="none" points="172.2395,329.5397 171.9077,331.8824 164.8613,330.8846 172.2059,314.6098" stroke="black" stroke-width="1" /><polyline fill="none" points="156.8315,321.0028 155.2798,320.528 153.2199,321.5771 152.7638,323.4867 152.6576,323.9311 152.5515,324.3755 152.4453,324.8199 152.0151,326.6215 153.1333,328.4396 154.9516,328.8739 156.7527,329.3041 158.5793,328.1536 159.0015,326.3858 159.1077,325.9414 159.2138,325.4969 159.32,325.0526 159.7503,323.2507 158.6327,321.433 156.8315,321.0028 154.8469,320.5288 153.6807,318.5406 154.1386,316.6234 154.2953,315.9674 154.452,315.3114 154.6086,314.6555 155.0666,312.7379 156.9976,311.5239 158.9822,311.9979 160.9501,312.468 162.123,314.4232 161.6651,316.3408 161.5058,317.0077 161.3465,317.6745 161.1872,318.3414 160.7946,319.9852 159.0008,321.4167" stroke="black" stroke-width="1" /><polyline fill="none" points="143.65,309.4198 144.5109,308.7531 145.5342,308.1414 147.5472,308.8269 149.3492,309.4406 150.3935,311.4261 149.7356,313.3579 149.2549,314.7697 148.7741,316.1815 148.2933,317.5932 147.6522,319.476 145.6133,320.4109 143.8113,319.7972 141.9768,319.1725 140.9002,317.1767 141.5414,315.2938 141.7808,314.5907 142.0202,313.8876 142.2597,313.1845 144.5049,313.9491 146.7502,314.7137 148.9954,315.4783" stroke="black" stroke-width="1" /><polyline fill="none" points="126.7402,318.9398 128.6123,319.7804 130.4844,320.6209 132.3564,321.4614 133.4637,318.9953 134.5709,316.5291 135.6782,314.063 134.5853,314.9065 133.4363,315.1619 132.0757,314.551 130.1986,313.7083 129.4395,311.5066 130.2187,309.7709 130.7758,308.5301 131.333,307.2892 131.8901,306.0484 132.7046,304.2343 134.7561,303.5576 136.4614,304.3233 138.1505,305.0816 138.9923,307.0573 138.1778,308.8715" stroke="black" stroke-width="1" /><polyline fill="none" points="114.3519,312.4788 116.618,308.4818 118.8842,304.4849 121.1504,300.4879 122.1314,298.7577 124.3088,298.2186 125.9648,299.1575 127.6056,300.0878 128.2614,302.2332 127.2803,303.9634 126.5363,305.2758 125.7922,306.5882 125.0481,307.9005 124.0671,309.6308 121.8897,310.1691 120.2489,309.2388 118.593,308.2999 117.9372,306.1552 118.9182,304.425" stroke="black" stroke-width="1" /><polyline fill="none" points="110.4872,300.1866 109.2174,299.1762 106.9163,299.3977 105.7923,301.0074 105.5307,301.382 105.2691,301.7566 105.0075,302.1313 103.9471,303.6499 104.3215,305.7513 105.8542,306.8215 107.3725,307.8817 109.4935,307.4805 110.5341,305.9903 110.7957,305.6157 111.0573,305.2411 111.3189,304.8664 112.3795,303.3475 112.0055,301.2468 110.4872,300.1866 108.8142,299.0184 108.4576,296.7412 109.5861,295.1251 109.9722,294.5721 110.3583,294.0191 110.7444,293.4662 111.8731,291.8497 114.1146,291.4276 115.7876,292.5958 117.4464,293.7542 117.8214,296.0032 116.6927,297.6197 116.3002,298.1818 115.9077,298.7439 115.5152,299.3061 114.5476,300.6917 112.3541,301.3665" stroke="black" stroke-width="1" /><polyline fill="none" points="93.8072,297.2205 94.565,297.8631 95.5812,297.9377 96.4017,296.9701 97.1963,296.0331 97.9909,295.096 98.7856,294.159 98.3237,293.7673 97.8618,293.3756 97.3999,292.9839 98.2891,293.7379 99.1783,294.492 100.0675,295.2461 99.6402,294.8837 99.2129,294.5214 98.7856,294.159 101.2287,291.278 103.6718,288.3971 106.1149,285.5161" stroke="black" stroke-width="1" /><polyline fill="none" points="94.2427,285.4362 92.8199,286.826 90.5786,286.7392 89.2484,285.3774 87.9187,284.0161 87.8959,281.7852 89.3187,280.3954 90.3979,279.3412 91.4771,278.287 92.5563,277.2328 93.9788,275.8432 96.2091,275.9179 97.5388,277.2791 98.869,278.6409 98.8911,280.872 97.4685,282.2617 97.4724,282.2657 97.4763,282.2697 97.4803,282.2737 94.1935,285.4843 90.9067,288.6949 87.6199,291.9055" stroke="black" stroke-width="1" /><polyline fill="none" points="74.4602,276.952 75.7504,278.5478 77.0406,280.1436 78.3308,281.7394 80.433,280.0398 82.5352,278.3401 84.6374,276.6406 83.2813,276.8992 82.1409,276.6078 81.2031,275.448 79.9095,273.8479 80.2272,271.5408 81.7067,270.3447 82.7645,269.4895 83.8222,268.6343 84.8799,267.7792 86.4263,266.5289 88.5622,266.8524 89.7374,268.306 90.9015,269.7458 90.7597,271.8887 89.2132,273.139" stroke="black" stroke-width="1" /><polyline fill="none" points="69.2417,263.3596 73.3946,263.4566 77.5474,263.5535 81.7002,263.6505 78.8626,265.5345 76.0251,267.4185 73.1875,269.3025 71.5447,270.3932 69.3337,269.9461 68.2434,268.304 67.1429,266.6464 67.599,264.4503 69.2417,263.3596 72.0793,261.4756 74.9169,259.5916 77.7545,257.7076 79.3972,256.6169 81.5975,257.0492 82.6884,258.6923 83.7884,260.349 83.3429,262.5598 81.7002,263.6505" stroke="black" stroke-width="1" /><polyline fill="none" points="62.7558,251.8632 66.8813,252.3486 71.0068,252.834 75.1323,253.3194 72.1307,254.9294 69.1292,256.5394 66.1277,258.1494 64.39,259.0815 62.2306,258.4293 61.2989,256.6923 60.3584,254.9389 61.0181,252.7953 62.7558,251.8632 65.7573,250.2532 68.7588,248.6432 71.7604,247.0331 73.498,246.1011 75.6482,246.7375 76.5805,248.4754 77.5205,250.2279 76.8699,252.3873 75.1323,253.3194" stroke="black" stroke-width="1" /><polyline fill="none" points="57.3749,239.8098 61.4368,240.6794 65.4987,241.549 69.5606,242.4186 66.4215,243.7405 63.2824,245.0623 60.1433,246.3842 58.326,247.1495 56.2371,246.298 55.4721,244.4813 54.7,242.6476 55.5576,240.5751 57.3749,239.8098 60.514,238.488 63.6531,237.1661 66.7922,235.8442 68.6095,235.079 70.6906,235.914 71.456,237.7316 72.2278,239.5644 71.3779,241.6533 69.5606,242.4186" stroke="black" stroke-width="1" /><polyline fill="none" points="64.4762,223.8724 65.523,224.1721 66.6215,224.6353 67.2597,226.6638 67.8309,228.4797 66.8478,230.4962 64.9011,231.1087 63.4785,231.5562 62.0559,232.0037 60.6332,232.4513 58.7359,233.0481 56.776,231.9574 56.2048,230.1414 55.6232,228.2928 56.5955,226.2441 58.4928,225.6472 59.2013,225.4243 59.9099,225.2015 60.6184,224.9786 61.3302,227.2411 62.0419,229.5037 62.7537,231.7662" stroke="black" stroke-width="1" /><polyline fill="none" points="46.7972,215.8706 47.227,217.8772 47.6568,219.8838 48.0866,221.8904 50.73,221.3242 53.3733,220.758 56.0167,220.1918 54.69,219.8098 53.8044,219.0345 53.4921,217.576 53.0611,215.5641 54.3871,213.6496 56.2475,213.2511 57.5775,212.9662 58.9075,212.6814 60.2375,212.3965 62.182,211.98 63.9412,213.2337 64.3327,215.0616 64.7205,216.872 63.6255,218.7195 61.681,219.136" stroke="black" stroke-width="1" /><polyline fill="none" points="60.0557,200.1266 61.0282,200.6162 62.0212,201.2761 62.2699,203.388 62.4925,205.2786 61.1507,207.0765 59.1239,207.3152 57.6428,207.4896 56.1617,207.664 54.6805,207.8384 52.7052,208.0711 50.9831,206.634 50.7604,204.7434 50.5338,202.8188 51.871,200.9873 53.8463,200.7546 54.584,200.6678 55.3216,200.5809 56.0593,200.494 56.3367,202.8496 56.6141,205.2052 56.8915,207.5608" stroke="black" stroke-width="1" /><polyline fill="none" points="59.5314,188.0478 60.4538,188.6263 61.3806,189.3763 61.4304,191.5022 61.475,193.4053 59.9707,195.0697 57.9305,195.1175 56.4395,195.1525 54.9486,195.1874 53.4577,195.2224 51.4692,195.269 49.8893,193.677 49.8446,191.7739 49.7992,189.8365 51.302,188.1382 53.2904,188.0916 54.033,188.0742 54.7756,188.0568 55.5181,188.0394 55.5737,190.4106 55.6293,192.7818 55.6849,195.153" stroke="black" stroke-width="1" /><polyline fill="none" points="53.3163,175.7398 53.3108,175.7394 53.3054,175.739 53.2999,175.7386 55.6257,175.9025 57.9514,176.0663 60.2771,176.2302 61.352,176.3059 61.8177,175.5807 61.8574,175.0178 61.8067,175.7364 61.1511,176.2917 60.4136,176.2398 60.3681,176.2366 60.3226,176.2334 60.2771,176.2302 61.1747,177.394 61.7672,178.7419 61.6624,180.2293 61.5757,181.461 60.8187,183.4187 58.3048,183.2417 56.9877,183.1488 56.2019,182.3549 55.8327,181.263 55.6461,180.7346 55.4354,179.0856 55.2902,177.9759 55.1294,176.8475 54.6334,175.8326 53.3163,175.7398 51.9824,175.6458 50.2804,176.8839 50.1358,178.9361 49.9996,180.8692 50.8772,181.8247 51.7096,182.4508" stroke="black" stroke-width="1" /><polyline fill="none" points="54.0992,166.2216 54.4639,164.6403 53.2726,162.6592 51.3357,162.3385 50.8849,162.2638 50.4341,162.1892 49.9834,162.1145 48.156,161.8119 46.421,163.0552 46.1156,164.8994 45.813,166.7264 47.0889,168.4676 48.8821,168.7646 49.3329,168.8392 49.7836,168.9139 50.2344,168.9885 52.0621,169.2912 53.7967,168.0485 54.0992,166.2216 54.4326,164.2086 56.334,162.9056 58.2786,163.2276 58.944,163.3378 59.6093,163.448 60.2747,163.5582 62.2197,163.8802 63.5664,165.7211 63.233,167.7341 62.9025,169.7303 61.0344,171.0377 59.0894,170.7156 58.413,170.6036 57.7366,170.4915 57.0602,170.3795 55.3928,170.1034 53.8389,168.4146" stroke="black" stroke-width="1" /><polyline fill="none" points="49.5891,149.8913 49.3357,150.852 49.7062,151.8011 50.9329,152.1247 52.1209,152.438 53.3089,152.7514 54.4968,153.0648 54.6513,152.4792 54.8058,151.8936 54.9602,151.308 54.6629,152.4353 54.3655,153.5626 54.0682,154.6899 54.2111,154.1482 54.354,153.6065 54.4968,153.0648 58.1493,154.0282 61.8018,154.9915 65.4543,155.955" stroke="black" stroke-width="1" /><polyline fill="none" points="67.0508,140.25 68.9177,140.9351 69.8113,142.9799 69.1557,144.7666 68.5,146.5535 66.4902,147.5508 64.6233,146.8658 63.207,146.3461 61.7907,145.8264 60.3744,145.3068 58.5071,144.6216 57.62,142.5613 58.2756,140.7745 58.9312,138.9877 60.9346,138.0059 62.8019,138.691" stroke="black" stroke-width="1" /><polyline fill="none" points="65.0279,133.4027 63.233,132.5457 62.5426,130.4117 63.3628,128.6938 64.1827,126.9766 66.2692,126.1867 68.0641,127.0436 69.4255,127.6936 70.7869,128.3437 72.1483,128.9937 73.9429,129.8505 74.6411,131.97 73.8212,133.6872 73.001,135.4051 70.914,136.1944 69.1194,135.3376 69.117,135.3426 69.1146,135.3477 69.1122,135.3527 64.9658,133.373 60.8195,131.3933 56.6732,129.4137" stroke="black" stroke-width="1" /><polyline fill="none" points="79.6554,119.3193 80.127,120.3007 80.5108,121.4294 79.4189,123.2542 78.4415,124.8877 76.2812,125.493 74.53,124.4451 73.2503,123.6793 71.9705,122.9136 70.6908,122.1478 68.984,121.1265 68.4969,118.9371 69.4744,117.3036 70.4695,115.6406 72.6465,115.0058 74.3533,116.0271 74.9906,116.4085 75.628,116.7899 76.2654,117.1713 75.0475,119.2066 73.8296,121.2419 72.6117,123.2772" stroke="black" stroke-width="1" /><polyline fill="none" points="72.8501,107.8282 71.4123,106.7733 71.0228,104.6375 72.1692,103.0751 73.315,101.5135 75.4114,101.1792 77.0424,102.3759 77.3003,102.5652 77.5583,102.7544 77.8162,102.9437 80.3044,104.7694 79.1263,107.2437 78.9231,107.5207 78.7271,107.7879 78.5311,108.055 78.3351,108.3221 78.5311,108.055 78.7271,107.7879 78.9231,107.5207 79.5219,106.7047 81.7677,105.6729 83.7025,107.0925 84.2694,107.5085 84.8363,107.9244 85.4032,108.3404 87.0062,109.5166 87.3244,111.7497 86.1478,113.3533 84.961,114.9708 82.7459,115.323 81.1429,114.1468" stroke="black" stroke-width="1" /><polyline fill="none" points="88.0551,94.2223 89.5287,95.5325 89.6715,97.7709 88.3612,99.2445 87.0396,100.7309 84.7892,100.8629 83.3156,99.5527 82.5554,98.8767 81.7951,98.2007 81.0349,97.5248 79.5613,96.2145 79.4287,93.9637 80.7392,92.4898 82.0606,91.0037 84.3008,90.8841 85.7744,92.1944 88.3198,94.4576 90.8652,96.7209 93.4106,98.9841 94.8839,100.2941 95.0269,102.5327 93.7167,104.0063 92.589,105.2746 90.7829,105.5509 89.3532,104.7847" stroke="black" stroke-width="1" /><polyline fill="none" points="92.2524,80.9583 90.7512,82.3574 89.25,83.7566 87.7489,85.1557 89.592,87.1332 91.4351,89.1108 93.2783,91.0884 92.9249,89.7538 93.1355,88.5957 94.2266,87.5788 95.7318,86.176 98.0555,86.3307 99.3527,87.7225 100.28,88.7175 101.2074,89.7125 102.1348,90.7075 103.4906,92.1623 103.3181,94.3156 101.9506,95.5901 100.5962,96.8525 98.4486,96.8616 97.0928,95.4068" stroke="black" stroke-width="1" /><polyline fill="none" points="108.2102,78.9965 108.2069,78.9922 108.2035,78.9879 108.2002,78.9835 109.6231,80.8305 111.0461,82.6774 112.469,84.5243 113.1266,85.3779 113.978,85.2441 114.425,84.8997 113.8544,85.3393 113.0037,85.2183 112.5525,84.6327 112.5247,84.5966 112.4968,84.5604 112.469,84.5243 112.1957,85.9685 111.5821,87.3069 110.4009,88.2169 109.4228,88.9705 107.4567,89.7056 105.9187,87.7093 105.1128,86.6633 105.1841,85.5485 105.7547,84.5471 106.0256,84.0566 107.1179,82.8034 107.8507,81.9575 108.5872,81.0875 109.0161,80.0425 108.2102,78.9965 107.3941,77.9373 105.3379,77.4881 103.7083,78.7436 102.1731,79.9263 102.0422,81.217 102.1273,82.2551" stroke="black" stroke-width="1" /><polyline fill="none" points="110.4483,71.0659 109.497,69.5575 109.917,67.4276 111.5562,66.3938 113.1944,65.3606 115.2676,65.8177 116.3467,67.5287 116.5174,67.7993 116.688,68.0699 116.8587,68.3405 118.505,70.9508 116.5023,72.8215 116.2116,73.0048 115.9314,73.1816 115.6512,73.3583 115.3709,73.535 115.6512,73.3583 115.9314,73.1816 116.2116,73.0048 117.0678,72.4649 119.5355,72.3277 120.8156,74.3575 121.1907,74.9522 121.5658,75.5469 121.9409,76.1417 123.0015,77.8234 122.4794,80.0178 120.797,81.0788 119.1002,82.149 116.9101,81.6651 115.8494,79.9834" stroke="black" stroke-width="1" /><polyline fill="none" points="121.7668,64.514 120.8757,62.755 121.5778,60.6121 123.3368,59.721 125.1115,58.8221 127.3003,59.5389 128.1914,61.2979 128.5405,61.9871 128.6351,62.5145 128.6072,62.9526 128.3283,67.3857 128.0494,71.8188 127.7705,76.2519 127.835,76.3791 127.8994,76.5063 127.9639,76.6336 130.0748,75.5642 132.1856,74.4949 134.2965,73.4256" stroke="black" stroke-width="1" /><polyline fill="none" points="134.7901,58.2036 136.0262,54.0864 142.3074,70.0381" stroke="black" stroke-width="1" /><polyline fill="none" points="155.5556,62.0379 156.1078,63.9484 154.9878,65.8785 153.1593,66.4069 151.3309,66.9354 149.3378,65.9049 148.7857,63.9945 148.3668,62.5452 147.948,61.0959 147.5291,59.6465 146.9769,57.7357 148.1132,55.8017 149.9417,55.2732 151.7701,54.7448 153.7469,55.7792 154.2991,57.69" stroke="black" stroke-width="1" /><polyline fill="none" points="164.866,45.9865 165.7227,50.5006 166.5794,55.0147 167.4362,59.5288 167.807,61.4829 166.495,63.3024 164.6248,63.6573 162.7717,64.009 160.8839,62.7968 160.5131,60.8427 160.2318,59.3605 159.9505,57.8784 159.6692,56.3962 159.2983,54.4421 160.6108,52.6233 162.4639,52.2716 164.3341,51.9166 166.2214,53.1282 166.5923,55.0823" stroke="black" stroke-width="1" /><polyline fill="none" points="199.093,101.9387 268.4255,140.8637 108.8569,140.3048 239.8942,231.6324 268.4255,140.8637 236.1363,268.4255 188.8365,96.1804 158.7145,203.9175 156.5688,130.1462 250.763,172.1919" stroke="black" stroke-width="1" /><polyline fill="none" points="257.9547,156.0805 243.5714,188.3033" stroke="black" stroke-width="1" /><polyline fill="none" points="200.5989,96.1804 200.4541,94.3404 200.0232,92.5456 199.3169,90.8404 198.3525,89.2667 197.1538,87.8632 195.7503,86.6644 194.1765,85.7001 192.4713,84.9937 190.6765,84.5628 188.8365,84.418 186.9964,84.5628 185.2017,84.9937 183.4965,85.7001 181.9227,86.6644 180.5192,87.8632 179.3205,89.2667 178.3561,90.8404 177.6498,92.5456 177.2189,94.3404 177.0741,96.1804 177.2189,98.0205 177.6498,99.8152 178.3561,101.5204 179.3205,103.0942 180.5192,104.4977 181.9227,105.6964 183.4965,106.6608 185.2017,107.3671 186.9964,107.798 188.8365,107.9428 190.6765,107.798 192.4713,107.3671 194.1765,106.6608 195.7503,105.6964 197.1538,104.4977 198.3525,103.0942 199.3169,101.5204 200.0232,99.8152 200.4541,98.0205 200.5989,96.1804" stroke="black" stroke-width="1" /><polyline fill="none" points="188.5,69.0664 199.6839,69.5912 210.7696,71.161 221.6595,73.7619 232.2581,77.3712 242.4721,81.9571 252.2118,87.4792 261.3915,93.8892 269.9308,101.1306 277.7544,109.1398 284.7936,117.8464 290.9866,127.1739 296.2789,137.0404 300.6241,147.3591 303.9839,158.0393 306.3289,168.9873 307.6383,180.1067 307.9008,191.2998 307.114,202.4684 305.2847,213.5142 302.4292,224.3402 298.5725,234.8512 293.7484,244.9549 287.9994,254.5625 281.376,263.5894 273.9365,271.9565 265.7461,279.5902 256.8768,286.4234 247.4067,292.3961 237.4188,297.4556 227.0011,301.5577 216.2451,304.6663 205.2452,306.7539 194.0981,307.8023 182.9019,307.8023 171.7548,306.7539 160.7549,304.6663 149.9989,301.5577 139.5811,297.4556 129.5933,292.3961 120.1232,286.4234 111.2539,279.5902 103.0635,271.9565 95.6239,263.5894 89.0006,254.5625 83.2516,244.9549 78.4275,234.8512 74.5708,224.3402 71.7153,213.5142 69.8861,202.4684 69.0992,191.2998 69.3617,180.1067 70.6712,168.9872 73.0161,158.0393 76.3759,147.3591 80.7211,137.0404 86.0134,127.174 92.2064,117.8464 99.2457,109.1398 107.0692,101.1306 115.6085,93.8892 124.7882,87.4792 134.5279,81.957 144.7419,77.3712 155.3405,73.7619 166.2304,71.161 177.3161,69.5912 188.5,69.0664" stroke="black" stroke-width="1" />

    </g>
  </g>
  <WCB
     pausedposy="0"
     pausedposx="0"
     lastknownposy="0"
     lastknownposx="0"
     lastpathnc="0"
     lastpath="0"
     node="0"
     layer="0" />
</svg>
