<?xml version="1.0" encoding="UTF-8" standalone="no"?>
<!-- Created with Inkscape (http://www.inkscape.org/) -->

<svg
   xmlns:dc="http://purl.org/dc/elements/1.1/"
   xmlns:cc="http://creativecommons.org/ns#"
   xmlns:rdf="http://www.w3.org/1999/02/22-rdf-syntax-ns#"
   xmlns:svg="http://www.w3.org/2000/svg"
   xmlns="http://www.w3.org/2000/svg"
   xmlns:sodipodi="http://sodipodi.sourceforge.net/DTD/sodipodi-0.dtd"
   xmlns:inkscape="http://www.inkscape.org/namespaces/inkscape"
   width="100mm"
   height="100mm"
   viewBox="0 0 100 100"
   version="1.1"
   id="svg19124"
   inkscape:version="0.92.3 (2405546, 2018-03-11)"
   sodipodi:docname="inkscape_template_TMP.svg"
   shape-rendering="crispEdges">
  <sodipodi:namedview
     pagecolor="#ffffff"
     bordercolor="#666666"
     borderopacity="1"
     objecttolerance="10"
     gridtolerance="10"
     guidetolerance="10"
     inkscape:pageopacity="0"
     inkscape:pageshadow="2"
     inkscape:window-width="1568"
     inkscape:window-height="1550"
     id="namedview24021"
     showgrid="false"
     inkscape:zoom="0.62441667"
     inkscape:cx="712.66515"
     inkscape:cy="409.98265"
     inkscape:window-x="0"
     inkscape:window-y="0"
     inkscape:window-maximized="0"
     inkscape:current-layer="layer1" />
  <defs
     id="defs19118" />
  <metadata
     id="metadata19121">
    <rdf:RDF>
      <cc:Work
         rdf:about="">
        <dc:format>image/svg+xml</dc:format>
        <dc:type
           rdf:resource="http://purl.org/dc/dcmitype/StillImage" />
        <dc:title />
      </cc:Work>
    </rdf:RDF>
  </metadata>
  <g
     transform="translate(0,-197)"
     id="layer1"
     inkscape:groupmode="layer"
     inkscape:label="Layer 1">
    <g
       id="g24447"
       transform="matrix(0.26458333,0,0,0.26458333,0.10666333,197.9735)">

<polyline fill="none" points="192.1004,47.7394 189.7225,51.1455 187.3447,54.5516 184.9669,57.9577 184.9669,54.5516 184.9669,51.1455 184.9669,47.7394 184.9669,45.7676 186.5623,44.1729 188.5334,44.1729 190.5231,44.1729 192.1004,45.7676 192.1004,47.7394 192.1004,51.1455 192.1004,54.5516 192.1004,57.9577 192.1004,59.9295 190.5231,61.5235 188.5509,61.5235 186.5623,61.5235 184.9669,59.9295 184.9669,57.9577" stroke="black" stroke-width="1" /><polyline fill="none" points="197.8298,61.5877 200.7471,57.7851 198.696,53.7706 202.935,62.0679 200.7471,57.7851 203.4811,54.2207" stroke="black" stroke-width="1" /><polyline fill="none" points="216.2596,60.7996 215.8888,62.7534 214.0175,63.9691 212.1476,63.6142 210.2777,63.2593 208.9654,61.4394 209.3362,59.4856 209.6175,58.0035 209.8988,56.5213 210.1801,55.0391 210.5509,53.085 212.4386,51.8732 214.3085,52.2281 216.1784,52.583 217.4744,54.399 217.1035,56.3531" stroke="black" stroke-width="1" /><polyline fill="none" points="231.0396,54.273 227.8096,56.885 224.5796,59.497 221.3496,62.109 222.2952,58.8368 223.2409,55.5646 224.1866,52.2925 224.734,50.3981 226.7095,49.3091 228.6031,49.8564 230.5146,50.4088 231.587,52.3787 231.0396,54.273 230.0939,57.5452 229.1482,60.8173 228.2026,64.0895 227.6551,65.9838 225.6974,67.0772 223.8027,66.5297 221.8922,65.9776 220.8021,64.0033 221.3496,62.109" stroke="black" stroke-width="1" /><polyline fill="none" points="242.4078,61.727 241.6854,63.5617 239.6332,64.4667 237.7984,63.7443 235.9477,63.0156 235.0486,60.9484 235.771,59.1136 236.1438,58.1671 236.5165,57.2205 236.8892,56.274 237.6116,54.4392 239.6791,53.5394 241.5141,54.262 243.3645,54.9906 244.2484,57.0525 243.526,58.8873 242.2781,62.0565 241.0301,65.2257 239.7822,68.395 239.0599,70.2294 237.0076,71.1348 235.1728,70.4123 233.5936,69.7905 232.7122,68.1901 232.9389,66.584" stroke="black" stroke-width="1" /><polyline fill="none" points="248.3212,76.2715 250.2659,72.4326 244.8199,69.6738 255.6708,60.7766" stroke="black" stroke-width="1" /><polyline fill="none" points="261.1921,73.2796 262.5079,74.2293 264.796,73.9002 265.8433,72.2396 266.0871,71.8531 266.3308,71.4666 266.5746,71.0802 267.5626,69.5135 267.0901,67.4319 265.509,66.4347 263.9426,65.4469 261.8427,65.9471 260.8732,67.4844 260.6294,67.8709 260.3857,68.2574 260.1419,68.6438 259.1537,70.2108 259.6257,72.2917 261.1921,73.2796 262.918,74.368 263.3809,76.626 262.3294,78.2933 261.9697,78.8637 261.6099,79.4342 261.2501,80.0046 260.1984,81.6722 257.9792,82.1989 256.2533,81.1104 254.542,80.0311 254.062,77.8021 255.1137,76.1345 255.4794,75.5546 255.8452,74.9747 256.2109,74.3948 257.1125,72.9653 259.272,72.1885" stroke="black" stroke-width="1" /><polyline fill="none" points="268.1982,89.394 270.8246,85.985 265.9885,82.2591 278.3081,75.5412" stroke="black" stroke-width="1" /><polyline fill="none" points="285.1065,90.2928 283.7621,91.7353 281.521,91.8255 280.0785,90.4811 278.6235,89.125 278.5442,86.8721 279.8886,85.4297 280.5822,84.6855 281.2758,83.9413 281.9695,83.1971 283.3139,81.7546 285.5672,81.6749 287.0099,83.0195 288.4647,84.3754 288.5317,86.6178 287.1873,88.0603 284.865,90.5519 282.5427,93.0436 280.2204,95.5352 278.8762,96.9774 276.6349,97.0679 275.1924,95.7235 273.9509,94.5663 273.717,92.7543 274.5165,91.3429" stroke="black" stroke-width="1" /><polyline fill="none" points="298.2685,94.7999 296.9049,93.2663 295.5414,91.7328 294.1778,90.1992 292.1576,91.9955 290.1373,93.7918 288.1171,95.588 289.4596,95.2661 290.6124,95.5037 291.6035,96.6183 292.9707,98.156 292.7614,100.4754 291.3396,101.7396 290.3232,102.6434 289.3067,103.5472 288.2902,104.451 286.8041,105.7724 284.6555,105.5494 283.4133,104.1525 282.183,102.7688 282.2243,100.6216 283.7104,99.3002" stroke="black" stroke-width="1" /><polyline fill="none" points="306.5604,105.4905 305.3464,103.836 304.1324,102.1815 302.9185,100.527 300.7389,102.1262 298.5594,103.7254 296.3798,105.3246 297.7466,105.1298 298.872,105.4743 299.7544,106.6768 300.9716,108.3357 300.5461,110.6254 299.0121,111.7509 297.9155,112.5556 296.8188,113.3602 295.7222,114.1648 294.1189,115.3413 292.0005,114.9181 290.8947,113.4109 289.7994,111.9181 290.0415,109.7843 291.6449,108.6078" stroke="black" stroke-width="1" /><polyline fill="none" points="308.401,112.4713 310.4314,111.2564 314.0856,117.3632 296.8121,121.8841" stroke="black" stroke-width="1" /><polyline fill="none" points="306.3394,136.0882 305.2609,135.9382 304.1083,135.6337 303.192,133.7147 302.3718,131.9968 303.0625,129.8624 304.9041,128.9831 306.2499,128.3405 307.5958,127.6979 308.9416,127.0553 310.7365,126.1983 312.8299,127.0036 313.6501,128.7215 314.4851,130.4703 313.8098,132.6351 312.0148,133.4921 311.3446,133.8121 310.6743,134.1321 310.004,134.4521 308.9821,132.3117 307.9601,130.1713 306.9381,128.0309" stroke="black" stroke-width="1" /><polyline fill="none" points="312.6917,139.1405 314.5429,138.4612 316.5897,139.4089 317.2686,141.2594 317.954,143.1273 316.9999,145.1574 315.1487,145.8367 314.1939,146.187 313.2391,146.5374 312.2843,146.8877 310.4331,147.567 308.393,146.6355 307.7076,144.7675 307.0287,142.917 307.9761,140.8707 309.8273,140.1915 313.0249,139.0182 316.2225,137.8449 319.4201,136.6717 321.2709,135.9926 323.3174,136.9403 323.9964,138.7908 324.5814,140.3852 323.9711,142.1061 322.6204,143.0038" stroke="black" stroke-width="1" /><polyline fill="none" points="322.6014,156.9679 320.6948,157.4708 318.751,156.3516 318.2481,154.4449 317.7408,152.5217 318.8756,150.5739 320.7822,150.071 321.7659,149.8116 322.7495,149.5521 323.7332,149.2926 325.6398,148.7897 327.5883,149.9243 328.0913,151.8313 328.5985,153.7542 327.459,155.6866 325.5524,156.1895 322.2589,157.0582 318.9655,157.9269 315.6721,158.7956 313.7657,159.2984 311.8217,158.1793 311.3188,156.2727 310.886,154.6316 311.6548,152.9742 313.0839,152.2068" stroke="black" stroke-width="1" /><polyline fill="none" points="331.038,166.825 330.8756,165.8447 330.1488,165.1306 328.8972,165.3379 327.6851,165.5386 326.473,165.7393 325.2609,165.9401 325.3599,166.5376 325.4588,167.135 325.5577,167.7325 325.3673,166.5823 325.1768,165.4321 324.9863,164.2819 325.0779,164.8346 325.1694,165.3873 325.2609,165.9401 321.5343,166.5572 317.8076,167.1744 314.081,167.7915" stroke="black" stroke-width="1" /><polyline fill="none" points="321.5133,175.5616 323.4803,175.423 325.1835,176.9017 325.322,178.868 325.4619,180.8528 323.9816,182.5382 322.0146,182.6767 321.0001,182.7482 319.9855,182.8197 318.9709,182.8912 317.004,183.0297 315.3027,181.5685 315.1629,179.5837 315.0244,177.6174 316.5027,175.9146 318.4697,175.776 321.8673,175.5367 325.265,175.2973 328.6627,175.058 330.6293,174.9194 332.3321,176.3981 332.4706,178.3643 332.59,180.0584 331.5258,181.5423 329.9791,182.0297" stroke="black" stroke-width="1" /><polyline fill="none" points="322.1404,188.074 324.1117,188.1203 325.6689,189.7519 325.6227,191.7225 325.5761,193.7117 323.9445,195.251 321.9732,195.2048 320.9564,195.181 319.9396,195.1571 318.9229,195.1333 316.9515,195.0871 315.3946,193.4729 315.4413,191.4838 315.4875,189.5132 317.1188,187.9563 319.0901,188.0025 322.4952,188.0824 325.9003,188.1622 329.3055,188.2421 331.2764,188.2883 332.8333,189.9199 332.7871,191.8905 332.7473,193.5883 331.5489,194.966 329.9633,195.3064" stroke="black" stroke-width="1" /><polyline fill="none" points="317.8355,207.2167 315.8605,206.9841 314.5163,205.2029 314.7389,203.3126 314.9615,201.4224 316.6847,199.9854 318.6597,200.218 320.158,200.3945 321.6562,200.5709 323.1545,200.7474 325.1298,200.98 326.4713,202.7778 326.2487,204.6681 326.0261,206.5583 324.3056,207.9787 322.3303,207.746" stroke="black" stroke-width="1" /><polyline fill="none" points="313.8354,218.9 313.0726,218.1229 312.3454,217.1782 312.7908,215.0989 313.1895,213.2375 315.0392,211.9681 317.0348,212.3955 318.493,212.7079 319.9514,213.0202 321.4096,213.3326 323.3545,213.7492 324.5214,215.6647 324.1227,217.5261 323.7169,219.421 321.8607,220.7237 319.9158,220.3071 319.1895,220.1516 318.4632,219.996 317.7369,219.8404 318.2336,217.5212 318.7304,215.2019 319.2272,212.8827" stroke="black" stroke-width="1" /><polyline fill="none" points="323.9817,227.5838 325.6828,228.1189 326.7401,230.015 326.1585,231.8637 325.5773,233.7113 323.7005,234.7035 321.7708,234.0964 321.4656,234.0004 321.1605,233.9044 320.8553,233.8084 317.9114,232.8823 318.2289,230.1603 318.332,229.8325 318.4315,229.5165 318.5309,229.2004 318.6303,228.8844 318.5309,229.2004 318.4315,229.5165 318.332,229.8325 318.0283,230.7981 316.2349,232.4987 313.9458,231.7786 313.2751,231.5676 312.6044,231.3566 311.9337,231.1456 310.037,230.549 309.016,228.5376 309.6128,226.6403 310.2148,224.7266 312.1981,223.6792 314.0948,224.2758" stroke="black" stroke-width="1" /><polyline fill="none" points="314.0485,241.391 313.3265,242.8442 314.025,245.0479 315.8344,245.8098 316.2556,245.9872 316.6767,246.1645 317.0978,246.3418 318.8048,247.0606 320.7812,246.2544 321.5067,244.5316 322.2254,242.8249 321.3889,240.8349 319.7137,240.1295 319.2926,239.9522 318.8715,239.7749 318.4504,239.5975 316.743,238.8786 314.7672,239.6843 314.0485,241.391 313.2567,243.2715 311.1046,244.0971 309.288,243.3322 308.6664,243.0704 308.0449,242.8087 307.4233,242.5469 305.6063,241.7818 304.7241,239.6785 305.516,237.7979 306.3012,235.9333 308.4219,235.0956 310.2389,235.8607 310.8708,236.1268 311.5026,236.3928 312.1345,236.6589 313.6921,237.3148 314.8112,239.3184" stroke="black" stroke-width="1" /><polyline fill="none" points="310.8405,258.2086 308.963,254.5032 307.0854,250.7978 305.2079,247.0924 308.2094,248.7024 311.2109,250.3124 314.2124,251.9224 315.9501,252.8545 316.6013,255.0142 315.6695,256.7512 314.729,258.5046 312.5782,259.1407 310.8405,258.2086 307.839,256.5986 304.8375,254.9886 301.8359,253.3786 300.0983,252.4465 299.4391,250.3032 300.3714,248.5652 301.3114,246.8128 303.4702,246.1603 305.2079,247.0924" stroke="black" stroke-width="1" /><polyline fill="none" points="307.7036,263.4422 309.3463,264.5329 309.7925,266.7433 308.7018,268.386 307.6014,270.0434 305.3438,270.4993 303.701,269.4086 303.0575,268.9813 302.715,268.5692 302.5232,268.1743 300.5793,264.1804 298.6355,260.1865 296.6916,256.1925 296.5728,256.1136 296.454,256.0348 296.3352,255.9559 295.0263,257.9272 293.7174,259.8985 292.4086,261.8699" stroke="black" stroke-width="1" /><polyline fill="none" points="299.4105,280.6181 300.0351,279.8455 300.0858,278.8278 299.0993,278.0302 298.1439,277.2578 297.1885,276.4853 296.2331,275.7129 295.8523,276.1838 295.4716,276.6548 295.0908,277.1257 295.8238,276.2191 296.5568,275.3125 297.2898,274.4059 296.9376,274.8415 296.5853,275.2772 296.2331,275.7129 293.2956,273.338 290.3582,270.9631 287.4207,268.5882" stroke="black" stroke-width="1" /><polyline fill="none" points="290.297,290.5992 290.9913,289.8884 291.1371,288.88 290.2296,287.9935 289.3507,287.135 288.4718,286.2765 287.593,285.4179 287.1698,285.8512 286.7466,286.2844 286.3234,286.7176 287.1381,285.8836 287.9528,285.0496 288.7674,284.2156 288.3759,284.6164 287.9844,285.0172 287.593,285.4179 284.8908,282.7784 282.1887,280.1389 279.4865,277.4994" stroke="black" stroke-width="1" /><polyline fill="none" points="279.3495,300.8167 276.3778,297.3124 273.4061,293.8081 270.4344,290.3038 269.1479,288.7869 269.3919,286.557 270.8438,285.3257 272.2823,284.1059 274.5223,284.2293 275.8088,285.7462 276.7845,286.8969 277.7603,288.0475 278.736,289.1981 280.0224,290.7151 279.7777,292.9446 278.3392,294.1645 276.8873,295.3957 274.648,295.2726 273.3616,293.7556" stroke="black" stroke-width="1" /><polyline fill="none" points="266.1348,305.9706 266.1343,301.8167 266.1339,297.6627 266.1335,293.5087 268.0835,296.3014 270.0335,299.094 271.9835,301.8866 273.1124,303.5034 272.7173,305.7242 271.1012,306.8527 269.4698,307.9919 267.2637,307.5873 266.1348,305.9706 264.1848,303.178 262.2348,300.3853 260.2848,297.5927 259.1559,295.976 259.5364,293.7661 261.1534,292.637 262.7839,291.4985 265.0046,291.892 266.1335,293.5087" stroke="black" stroke-width="1" /><polyline fill="none" points="259.9476,309.979 259.3009,314.2289 250.8453,299.3153" stroke="black" stroke-width="1" /><polyline fill="none" points="238.1349,307.5357 238.3101,306.4611 238.6416,305.3159 240.5815,304.4449 242.3182,303.6651 244.4359,304.4056 245.2718,306.2674 245.8826,307.6279 246.4935,308.9884 247.1043,310.3489 247.919,312.1635 247.0649,314.2374 245.3283,315.0171 243.5604,315.8109 241.412,315.085 240.5973,313.2704 240.2931,312.5928 239.9889,311.9153 239.6846,311.2376 241.8484,310.2661 244.0122,309.2946 246.176,308.3232" stroke="black" stroke-width="1" /><polyline fill="none" points="229.2036,318.0403 229.2053,318.0454 229.2071,318.0506 229.2089,318.0558 228.4573,315.8488 227.7057,313.6417 226.9541,311.4347 226.6067,310.4146 225.7577,310.2669 225.2235,310.4488 225.9054,310.2166 226.6716,310.6053 226.91,311.3052 226.9247,311.3483 226.9394,311.3915 226.9541,311.4347 227.6783,310.1557 228.6906,309.0866 230.1022,308.6059 231.2709,308.2079 233.369,308.1458 234.1814,310.5313 234.6071,311.7812 234.1803,312.8136 233.3173,313.5776 232.9027,313.9546 231.4648,314.7887 230.4984,315.3533 229.5208,315.9393 228.7779,316.7903 229.2036,318.0403 229.6346,319.306 231.4362,320.3941 233.3837,319.731 235.2181,319.1063 235.7581,317.9266 236.0122,316.9165" stroke="black" stroke-width="1" /><polyline fill="none" points="222.9959,317.6122 223.454,319.5302 222.2734,321.4521 220.3562,321.91 218.4209,322.3722 216.5164,321.1871 216.0583,319.2692 215.822,318.28 215.5857,317.2908 215.3495,316.3015 214.8914,314.3836 216.0551,312.4665 217.9904,312.0043 219.9076,311.5464 221.829,312.7266 222.2871,314.6446 223.0783,317.9575 223.8696,321.2703 224.6608,324.5833 225.1188,326.5008 223.9382,328.4223 222.021,328.8802 220.3692,329.2747 218.7314,328.4673 217.9978,327.021" stroke="black" stroke-width="1" /><polyline fill="none" points="211.6043,327.6008 211.8543,329.3665 210.5987,331.1375 208.68,331.4092 206.7622,331.6808 205.0582,330.4146 204.7746,328.4117 204.7297,328.095 204.6849,327.7782 204.64,327.4615 204.2073,324.4058 206.8006,323.5195 207.1407,323.4713 207.4688,323.4249 207.7968,323.3784 208.1249,323.332 207.7968,323.3784 207.4688,323.4249 207.1407,323.4713 206.1386,323.6133 203.8312,322.7276 203.4947,320.3516 203.3961,319.6554 203.2975,318.9592 203.199,318.2631 202.9202,316.2944 204.2953,314.5064 206.2646,314.2275 208.251,313.9463 210.0508,315.2847 210.3295,317.2534" stroke="black" stroke-width="1" /><polyline fill="none" points="193.3557,332.5948 194.3482,332.5482 195.1424,331.9099 195.0829,330.6427 195.0254,329.4154 194.9678,328.1881 194.9102,326.9609 194.3052,326.9893 193.7003,327.0176 193.0953,327.046 194.2599,326.9914 195.4245,326.9367 196.5891,326.8821 196.0295,326.9083 195.4698,326.9346 194.9102,326.9609 194.7331,323.1876 194.5561,319.4144 194.379,315.6411" stroke="black" stroke-width="1" /><polyline fill="none" points="178.3058,328.9371 180.8407,325.6462 183.3756,322.3553 185.9104,319.0645 185.7508,322.4668 185.5911,325.8691 185.4315,329.2715 185.3391,331.2411 183.6706,332.7593 181.7017,332.6669 179.7141,332.5737 178.2134,330.9068 178.3058,328.9371 178.4655,325.5348 178.6252,322.1324 178.7848,318.7301 178.8772,316.7604 180.5274,315.2421 182.4975,315.3346 184.4839,315.4278 186.0029,317.0948 185.9104,319.0645" stroke="black" stroke-width="1" /><polyline fill="none" points="166.7565,317.3611 167.0353,315.3922 168.8476,314.0901 170.7321,314.357 172.6166,314.6238 174.0128,316.3802 173.7339,318.3492 173.5224,319.8429 173.3109,321.3366 173.0994,322.8304 172.8205,324.7997 170.9917,326.0987 169.1072,325.8318 167.2227,325.565 165.8431,323.8117 166.1219,321.8423" stroke="black" stroke-width="1" /><polyline fill="none" points="159.034,326.3934 158.6197,328.1279 156.8026,329.3158 154.9176,328.8656 153.0338,328.4157 151.9121,326.6133 152.382,324.6457 152.4564,324.3345 152.5307,324.0234 152.605,323.7122 153.3219,320.7105 156.0596,320.8359 156.3937,320.9158 156.716,320.9927 157.0383,321.0697 157.3605,321.1467 157.0383,321.0697 156.716,320.9927 156.3937,320.9158 155.4093,320.6806 153.5868,319.0112 154.1443,316.6771 154.3076,315.9932 154.4709,315.3093 154.6343,314.6254 155.0962,312.6916 157.0307,311.5317 158.9653,311.9937 160.9166,312.4598 162.1008,314.3646 161.6389,316.2984" stroke="black" stroke-width="1" /><polyline fill="none" points="145.192,322.6131 141.5863,324.9537 147.1128,308.7251" stroke="black" stroke-width="1" /><polyline fill="none" points="132.6804,312.7741 131.2444,312.0182 129.025,312.6649 128.2209,314.4559 128.0337,314.8728 127.8466,315.2896 127.6594,315.7065 126.9008,317.3962 127.6604,319.3909 129.3658,320.1566 131.0552,320.9151 133.0642,320.1255 133.8087,318.4673 133.9958,318.0505 134.183,317.6337 134.3701,317.2169 135.1289,315.5268 134.3698,313.5327 132.6804,312.7741 130.819,311.9384 130.044,309.7676 130.8513,307.9694 131.1276,307.3541 131.4038,306.7389 131.6801,306.1236 132.4876,304.3251 134.611,303.4924 136.4724,304.3282 138.3182,305.1569 139.106,307.2966 138.2985,309.0952 138.0177,309.7206 137.7368,310.3461 137.456,310.9716 136.7638,312.5134 134.7345,313.5852" stroke="black" stroke-width="1" /><polyline fill="none" points="117.3505,306.4627 118.323,304.7474 120.4818,304.139 122.1972,305.1116 123.9274,306.0926 124.5278,308.2654 123.5553,309.9807 123.0535,310.8657 122.5518,311.7506 122.05,312.6356 121.0775,314.3509 118.9043,314.952 117.1887,313.9792 115.4588,312.9984 114.8727,310.8329 115.8452,309.1176 117.5251,306.1546 119.2051,303.1917 120.885,300.2287 121.8574,298.5137 124.0164,297.905 125.7317,298.8775 127.2081,299.7146 127.8565,301.4227 127.4068,302.9813" stroke="black" stroke-width="1" /><polyline fill="none" points="110.5615,306.0093 109.5406,307.4714 107.4146,307.9109 105.8256,306.8015 104.2376,305.6926 103.8543,303.6045 105.0125,301.9459 105.1956,301.6837 105.3788,301.4214 105.5619,301.1591 107.3288,298.6287 109.8301,299.7485 110.1118,299.9452 110.3834,300.1349 110.6551,300.3246 110.9267,300.5142 110.6551,300.3246 110.3834,300.1349 110.1118,299.9452 109.2819,299.3657 108.1978,297.1446 109.5717,295.1771 109.9742,294.6006 110.3767,294.0241 110.7793,293.4476 111.9176,291.8174 114.1426,291.447 115.7734,292.5857 117.4182,293.7343 117.8223,295.9405 116.6839,297.5706" stroke="black" stroke-width="1" /><polyline fill="none" points="100.1306,298.1207 98.8553,299.6246 96.6079,299.8091 95.104,298.5338 93.5867,297.2472 93.3979,294.9517 94.6733,293.4478 95.1729,292.8586 95.6223,292.5667 96.0369,292.4224 100.2307,290.959 104.4246,289.4955 108.6184,288.0322 108.7107,287.9234 108.8029,287.8146 108.8952,287.7058 107.0905,286.1754 105.2857,284.645 103.481,283.1145" stroke="black" stroke-width="1" /><polyline fill="none" points="90.0176,289.416 88.7419,290.6621 86.5712,290.6975 85.217,289.3112 83.8636,287.9257 83.8764,285.8028 85.3235,284.3893 85.5523,284.1657 85.7812,283.9422 86.01,283.7187 88.2177,281.5621 90.4663,283.1287 90.7064,283.3745 90.9379,283.6115 91.1694,283.8484 91.401,284.0854 91.1694,283.8484 90.9379,283.6115 90.7064,283.3745 89.9991,282.6504 89.3482,280.2661 91.0648,278.5893 91.5678,278.0979 92.0708,277.6066 92.5738,277.1153 93.9961,275.726 96.2511,275.7769 97.641,277.1997 99.0428,278.6348 99.0284,280.8777 97.6061,282.267" stroke="black" stroke-width="1" /><polyline fill="none" points="79.0786,272.1924 80.612,270.9527 82.8436,271.1776 84.0833,272.711 85.3338,274.2577 85.0965,276.4994 83.5631,277.7391 82.772,278.3787 81.9809,279.0183 81.1898,279.6579 79.6564,280.8976 77.4142,280.6607 76.1742,279.127 74.9239,277.5806 75.172,275.3509 76.7054,274.1112 79.354,271.9697 82.0027,269.8283 84.6514,267.6869 86.1845,266.4474 88.4164,266.672 89.6561,268.2054 90.7232,269.5252 90.7007,271.3521 89.7112,272.6375" stroke="black" stroke-width="1" /><polyline fill="none" points="77.821,266.161 76.164,267.2612 73.9782,266.7579 72.9253,265.172 71.8727,263.5867 72.2663,261.3906 73.9233,260.2904 75.1801,259.456 76.4369,258.6215 77.6937,257.787 79.3505,256.6871 81.5277,257.1763 82.5803,258.7616 83.6333,260.3475 83.2389,262.5436 81.5822,263.6436 81.5853,263.6483 81.5884,263.6529 81.5915,263.6576 77.7637,266.199 73.9359,268.7405 70.1081,271.282" stroke="black" stroke-width="1" /><polyline fill="none" points="65.8711,258.1059 64.2996,258.9488 62.2044,258.3802 61.2884,256.6724 60.3728,254.9656 60.9745,252.9297 62.7572,251.9735 63.0391,251.8223 63.3209,251.6711 63.6029,251.5199 66.3225,250.0611 68.0478,252.1903 68.2102,252.4931 68.3668,252.785 68.5234,253.077 68.68,253.369 68.5234,253.077 68.3668,252.785 68.2102,252.4931 67.7318,251.6011 67.7684,249.1299 69.8831,247.9955 70.5027,247.6632 71.1223,247.3308 71.7419,246.9985 73.4941,246.0586 75.6463,246.7336 76.5865,248.4864 77.5348,250.2543 76.8982,252.405 75.1461,253.3448" stroke="black" stroke-width="1" /><polyline fill="none" points="68.3334,235.3307 69.4037,235.5311 70.5408,235.8893 71.3661,237.8492 72.1049,239.6036 71.3149,241.7034 69.4341,242.4954 68.0596,243.0742 66.6852,243.653 65.3107,244.2318 63.4776,245.0037 61.4242,244.1012 60.6854,242.3468 59.9333,240.5607 60.7094,238.43 62.5425,237.6581 63.2271,237.3698 63.9116,237.0815 64.5962,236.7933 65.5167,238.9792 66.4372,241.1652 67.3577,243.3512" stroke="black" stroke-width="1" /><polyline fill="none" points="54.7512,232.9204 50.7311,231.3979 67.0848,226.2534" stroke="black" stroke-width="1" /><polyline fill="none" points="61.7088,212.1032 62.7229,212.4996 63.7733,213.0636 64.2187,215.1429 64.6174,217.0043 63.4498,218.92 61.4542,219.3474 59.996,219.6598 58.5377,219.9721 57.0794,220.2845 55.1345,220.701 53.2854,219.4315 52.8867,217.5701 52.4808,215.6752 53.6406,213.7265 55.5855,213.3099 56.3118,213.1544 57.0381,212.9988 57.7644,212.8432 58.2611,215.1625 58.7579,217.4818 59.2547,219.801" stroke="black" stroke-width="1" /><polyline fill="none" points="60.0557,200.1266 61.0282,200.6162 62.0212,201.2761 62.2699,203.388 62.4925,205.2786 61.1507,207.0765 59.1239,207.3152 57.6428,207.4896 56.1617,207.664 54.6805,207.8384 52.7052,208.0711 50.9831,206.634 50.7604,204.7434 50.5338,202.8188 51.871,200.9873 53.8463,200.7546 54.584,200.6678 55.3216,200.5809 56.0593,200.494 56.3367,202.8496 56.6141,205.2052 56.8915,207.5608" stroke="black" stroke-width="1" /><polyline fill="none" points="52.3023,191.6726 52.3657,190.0511 50.8259,188.3269 48.8631,188.373 48.4063,188.3837 47.9495,188.3944 47.4928,188.4051 45.641,188.4485 44.1682,189.9935 44.2121,191.8624 44.2555,193.7137 45.8337,195.1864 47.6508,195.1438 48.1076,195.1331 48.5643,195.1224 49.0211,195.1117 50.8732,195.0683 52.3457,193.524 52.3023,191.6726 52.2544,189.6328 53.8795,187.9981 55.8501,187.9519 56.5243,187.9361 57.1985,187.9203 57.8728,187.9045 59.8438,187.8582 61.5101,189.4157 61.5579,191.4556 61.6053,193.4783 60.0138,195.1111 58.0429,195.1574 57.3574,195.1734 56.672,195.1895 55.9866,195.2056 54.297,195.2452 52.4554,193.8758" stroke="black" stroke-width="1" /><polyline fill="none" points="47.7766,180.8288 44.5938,177.9393 61.6953,179.1441" stroke="black" stroke-width="1" /><polyline fill="none" points="60.184,163.7416 62.1459,164.0665 63.4051,165.9088 63.0941,167.7866 62.7832,169.6643 60.9946,171.0189 59.0327,170.694 57.5443,170.4475 56.0559,170.201 54.5676,169.9546 52.6053,169.6296 51.3496,167.7708 51.6605,165.8931 51.9715,164.0154 53.7566,162.6772 55.7189,163.0022" stroke="black" stroke-width="1" /><polyline fill="none" points="56.9199,157.3916 54.9966,156.8843 53.9204,154.9164 54.4059,153.0757 54.8912,151.2357 56.7939,150.0706 58.7171,150.5779 60.1758,150.9627 61.6345,151.3474 63.0933,151.7322 65.0162,152.2394 66.0973,154.1915 65.612,156.0315 65.1265,157.8722 63.2232,159.0368 61.3004,158.5296 61.2989,158.535 61.2975,158.5404 61.2961,158.5458 56.8533,157.374 52.4106,156.2021 47.9678,155.0303" stroke="black" stroke-width="1" /><polyline fill="none" points="53.8148,137.0531 53.4726,137.9859 53.7526,138.9656 54.9436,139.4026 56.097,139.8258 57.2504,140.249 58.4039,140.6722 58.6125,140.1037 58.8211,139.5351 59.0297,138.9666 58.6281,140.0611 58.2265,141.1556 57.8249,142.2502 58.0179,141.7242 58.2109,141.1982 58.4039,140.6722 61.9501,141.9734 65.4963,143.2746 69.0425,144.5758" stroke="black" stroke-width="1" /><polyline fill="none" points="72.1026,129.0893 73.8972,129.9462 74.5954,132.0656 73.7753,133.7832 72.9553,135.5008 70.8609,136.3055 69.0663,135.4487 67.7049,134.7987 66.3435,134.1487 64.9821,133.4987 63.1872,132.6417 62.4968,130.5073 63.3169,128.7898 64.137,127.0722 66.2235,126.2823 68.0184,127.1393" stroke="black" stroke-width="1" /><polyline fill="none" points="80.753,120.9398 77.0602,118.7301 73.9256,123.9687 65.8129,112.5193" stroke="black" stroke-width="1" /><polyline fill="none" points="73.3937,101.6817 72.8059,102.4828 72.8029,103.5018 73.8258,104.2522 74.8163,104.979 75.8069,105.7059 76.7975,106.4327 77.1557,105.9444 77.514,105.4561 77.8723,104.9678 77.1826,105.9078 76.4929,106.8478 75.8032,107.7878 76.1346,107.3361 76.466,106.8844 76.7975,106.4327 79.843,108.6673 82.8885,110.9019 85.9341,113.1365" stroke="black" stroke-width="1" /><polyline fill="none" points="81.7061,96.5382 80.9483,92.3068 93.7601,103.6983" stroke="black" stroke-width="1" /><polyline fill="none" points="97.3248,85.2308 98.6692,86.6732 98.6017,88.9151 97.1592,90.2595 95.7042,91.6157 93.4514,91.5364 92.1069,90.0939 91.4133,89.3497 90.7197,88.6056 90.0261,87.8614 88.6817,86.4189 88.7605,84.1655 90.2032,82.8209 91.658,81.465 93.8995,81.5557 95.244,82.9982 97.5662,85.4899 99.8885,87.9815 102.2108,90.4731 103.555,91.9154 103.4877,94.1575 102.0453,95.5019 100.8037,96.6591 98.9798,96.765 97.628,95.8684" stroke="black" stroke-width="1" /><polyline fill="none" points="105.4445,74.7974 105.6396,78.9468 105.8347,83.0962 106.0299,87.2455 103.9511,84.5474 101.8724,81.8492 99.7936,79.151 98.5901,77.589 98.8807,75.3521 100.4422,74.149 102.0184,72.9347 104.241,73.2354 105.4445,74.7974 107.5232,77.4956 109.602,80.1937 111.6807,82.8919 112.8842,84.4539 112.6076,86.6792 111.0453,87.8829 109.47,89.0966 107.2333,88.8076 106.0299,87.2455" stroke="black" stroke-width="1" /><polyline fill="none" points="110.4498,71.3079 109.3979,69.64 109.8962,67.4408 111.5641,66.3889 113.2467,65.3277 115.4931,65.8364 116.545,67.5043 116.9571,68.1577 117.1006,68.6739 117.1139,69.1127 117.2514,73.5525 117.3888,77.9922 117.5263,82.4319 117.6023,82.5525 117.6784,82.6732 117.7545,82.7938 119.756,81.5315 121.7575,80.2692 123.7589,79.007" stroke="black" stroke-width="1" /><polyline fill="none" points="126.2277,58.1511 128.304,62.2499 130.3804,66.3486 132.4567,70.4474 133.3555,72.2217 132.6002,74.3339 130.9021,75.1942 129.2195,76.0465 127.0694,75.4061 126.1706,73.6318 125.4888,72.286 124.8071,70.9402 124.1253,69.5944 123.2265,67.8201 123.9824,65.7084 125.665,64.856 127.3632,63.9958 129.5126,64.6357 130.4115,66.41" stroke="black" stroke-width="1" /><polyline fill="none" points="138.7073,52.8926 140.3907,57.1678 142.0741,61.443 143.7575,65.7182 144.4863,67.5689 143.5365,69.6011 141.7652,70.2985 140.0103,70.9896 137.9296,70.1506 137.2008,68.2999 136.6481,66.8962 136.0954,65.4925 135.5427,64.0888 134.8139,62.2381 135.7643,60.2064 137.5193,59.5154 139.2905,58.8179 141.3706,59.6563 142.0993,61.507" stroke="black" stroke-width="1" /><polyline fill="none" points="146.1213,54.0125 145.6262,52.2993 146.6211,50.3697 148.4828,49.8317 150.3435,49.2939 152.2083,50.3087 152.7699,52.252 152.8587,52.5594 152.9475,52.8667 153.0363,53.174 153.8932,56.1388 151.4498,57.38 151.1198,57.4753 150.8015,57.5673 150.4832,57.6593 150.1649,57.7513 150.4832,57.6593 150.8015,57.5673 151.1198,57.4753 152.0921,57.1943 154.5009,57.7477 155.1672,60.0531 155.3624,60.7286 155.5576,61.404 155.7528,62.0795 156.3048,63.9896 155.194,65.9528 153.2832,66.505 151.3559,67.062 149.3863,65.9891 148.8343,64.079" stroke="black" stroke-width="1" /><polyline fill="none" points="163.4895,46.5093 162.5133,46.6946 161.8165,47.438 162.053,48.6843 162.2821,49.8914 162.5112,51.0984 162.7403,52.3055 163.3353,52.1926 163.9303,52.0797 164.5253,51.9668 163.3798,52.1841 162.2344,52.4015 161.089,52.6189 161.6394,52.5145 162.1898,52.41 162.7403,52.3055 163.4446,56.0167 164.1489,59.7278 164.8533,63.439" stroke="black" stroke-width="1" /><polyline fill="none" points="213.2978,139.7082 136.578,231.1149 108.8569,140.3048 236.1363,268.4255 140.8637,108.5745 140.3048,268.1431 136.578,231.1149 140.3048,268.1431 188.8365,96.1804 188.8365,96.1804" stroke="black" stroke-width="1" /><polyline fill="none" points="188.8365,113.824 188.8365,78.5368" stroke="black" stroke-width="1" /><polyline fill="none" points="232.6221,130.6987 232.4773,128.8586 232.0464,127.0639 231.3401,125.3586 230.3757,123.7849 229.177,122.3814 227.7735,121.1827 226.1998,120.2183 224.4945,119.5119 222.6998,119.0811 220.8597,118.9362 219.0197,119.0811 217.225,119.5119 215.5197,120.2183 213.946,121.1827 212.5425,122.3814 211.3438,123.7849 210.3794,125.3586 209.673,127.0639 209.2422,128.8586 209.0973,130.6987 209.2422,132.5387 209.673,134.3334 210.3794,136.0387 211.3438,137.6124 212.5425,139.0159 213.946,140.2146 215.5197,141.179 217.2249,141.8854 219.0197,142.3162 220.8597,142.4611 222.6998,142.3162 224.4945,141.8854 226.1998,141.179 227.7735,140.2146 229.177,139.0159 230.3757,137.6124 231.3401,136.0387 232.0464,134.3334 232.4773,132.5387 232.6221,130.6987" stroke="black" stroke-width="1" /><polyline fill="none" points="188.5,69.0664 199.6839,69.5912 210.7696,71.161 221.6595,73.7619 232.2581,77.3712 242.4721,81.9571 252.2118,87.4792 261.3915,93.8892 269.9308,101.1306 277.7544,109.1398 284.7936,117.8464 290.9866,127.1739 296.2789,137.0404 300.6241,147.3591 303.9839,158.0393 306.3289,168.9873 307.6383,180.1067 307.9008,191.2998 307.114,202.4684 305.2847,213.5142 302.4292,224.3402 298.5725,234.8512 293.7484,244.9549 287.9994,254.5625 281.376,263.5894 273.9365,271.9565 265.7461,279.5902 256.8768,286.4234 247.4067,292.3961 237.4188,297.4556 227.0011,301.5577 216.2451,304.6663 205.2452,306.7539 194.0981,307.8023 182.9019,307.8023 171.7548,306.7539 160.7549,304.6663 149.9989,301.5577 139.5811,297.4556 129.5933,292.3961 120.1232,286.4234 111.2539,279.5902 103.0635,271.9565 95.6239,263.5894 89.0006,254.5625 83.2516,244.9549 78.4275,234.8512 74.5708,224.3402 71.7153,213.5142 69.8861,202.4684 69.0992,191.2998 69.3617,180.1067 70.6712,168.9872 73.0161,158.0393 76.3759,147.3591 80.7211,137.0404 86.0134,127.174 92.2064,117.8464 99.2457,109.1398 107.0692,101.1306 115.6085,93.8892 124.7882,87.4792 134.5279,81.957 144.7419,77.3712 155.3405,73.7619 166.2304,71.161 177.3161,69.5912 188.5,69.0664" stroke="black" stroke-width="1" />

    </g>
  </g>
  <WCB
     pausedposy="0"
     pausedposx="0"
     lastknownposy="0"
     lastknownposx="0"
     lastpathnc="0"
     lastpath="0"
     node="0"
     layer="0" />
</svg>
