<?xml version="1.0" encoding="UTF-8" standalone="no"?>
<!-- Created with Inkscape (http://www.inkscape.org/) -->

<svg
   xmlns:dc="http://purl.org/dc/elements/1.1/"
   xmlns:cc="http://creativecommons.org/ns#"
   xmlns:rdf="http://www.w3.org/1999/02/22-rdf-syntax-ns#"
   xmlns:svg="http://www.w3.org/2000/svg"
   xmlns="http://www.w3.org/2000/svg"
   xmlns:sodipodi="http://sodipodi.sourceforge.net/DTD/sodipodi-0.dtd"
   xmlns:inkscape="http://www.inkscape.org/namespaces/inkscape"
   width="100mm"
   height="100mm"
   viewBox="0 0 100 100"
   version="1.1"
   id="svg19124"
   inkscape:version="0.92.3 (2405546, 2018-03-11)"
   sodipodi:docname="inkscape_template_TMP.svg"
   shape-rendering="crispEdges">
  <sodipodi:namedview
     pagecolor="#ffffff"
     bordercolor="#666666"
     borderopacity="1"
     objecttolerance="10"
     gridtolerance="10"
     guidetolerance="10"
     inkscape:pageopacity="0"
     inkscape:pageshadow="2"
     inkscape:window-width="1568"
     inkscape:window-height="1550"
     id="namedview24021"
     showgrid="false"
     inkscape:zoom="0.62441667"
     inkscape:cx="712.66515"
     inkscape:cy="409.98265"
     inkscape:window-x="0"
     inkscape:window-y="0"
     inkscape:window-maximized="0"
     inkscape:current-layer="layer1" />
  <defs
     id="defs19118" />
  <metadata
     id="metadata19121">
    <rdf:RDF>
      <cc:Work
         rdf:about="">
        <dc:format>image/svg+xml</dc:format>
        <dc:type
           rdf:resource="http://purl.org/dc/dcmitype/StillImage" />
        <dc:title />
      </cc:Work>
    </rdf:RDF>
  </metadata>
  <g
     transform="translate(0,-197)"
     id="layer1"
     inkscape:groupmode="layer"
     inkscape:label="Layer 1">
    <g
       id="g24447"
       transform="matrix(0.26458333,0,0,0.26458333,0.10666333,197.9735)">

<polyline fill="none" points="192.1004,47.7394 189.7225,51.1455 187.3447,54.5516 184.9669,57.9577 184.9669,54.5516 184.9669,51.1455 184.9669,47.7394 184.9669,45.7676 186.5623,44.1729 188.5334,44.1729 190.5231,44.1729 192.1004,45.7676 192.1004,47.7394 192.1004,51.1455 192.1004,54.5516 192.1004,57.9577 192.1004,59.9295 190.5231,61.5235 188.5509,61.5235 186.5623,61.5235 184.9669,59.9295 184.9669,57.9577" stroke="black" stroke-width="1" /><polyline fill="none" points="197.8298,61.5877 200.7471,57.7851 198.696,53.7706 202.935,62.0679 200.7471,57.7851 203.4811,54.2207" stroke="black" stroke-width="1" /><polyline fill="none" points="216.2596,60.7996 215.8888,62.7534 214.0175,63.9691 212.1476,63.6142 210.2777,63.2593 208.9654,61.4394 209.3362,59.4856 209.6175,58.0035 209.8988,56.5213 210.1801,55.0391 210.5509,53.085 212.4386,51.8732 214.3085,52.2281 216.1784,52.583 217.4744,54.399 217.1035,56.3531" stroke="black" stroke-width="1" /><polyline fill="none" points="231.3614,50.6895 229.39,50.1198 227.4186,49.55 225.4472,48.9803 224.6966,51.5773 223.9461,54.1744 223.1955,56.7714 224.1593,55.7829 225.2612,55.369 226.694,55.7831 228.6707,56.3543 229.731,58.4278 229.2028,60.2556 228.8252,61.5623 228.4475,62.869 228.0699,64.1757 227.5178,66.0861 225.5814,67.0437 223.7856,66.5247 222.0069,66.0107 220.8964,64.1725 221.4485,62.2621" stroke="black" stroke-width="1" /><polyline fill="none" points="241.2387,63.3757 241.2407,63.3706 241.2427,63.3655 241.2447,63.3604 240.3905,65.5298 239.5363,67.6992 238.6821,69.8686 238.2873,70.8712 238.8393,71.5331 239.3643,71.7398 238.6941,71.4759 238.3611,70.6838 238.632,69.9959 238.6487,69.9535 238.6654,69.911 238.6821,69.8686 237.3025,70.3756 235.839,70.5363 234.4515,69.99 233.3027,69.5376 231.6623,68.228 232.5856,65.8832 233.0694,64.6546 234.0626,64.1432 235.215,64.1187 235.7749,64.0993 237.4111,64.3931 238.5133,64.5876 239.638,64.7729 240.7549,64.6043 241.2387,63.3757 241.7286,62.1315 241.0583,60.1364 239.1441,59.3827 237.341,58.6727 236.1662,59.2231 235.3191,59.8292" stroke="black" stroke-width="1" /><polyline fill="none" points="249.1933,61.2241 249.9991,59.6333 252.0425,58.9 253.7713,59.7757 255.4991,60.651 256.1714,62.6647 255.2572,64.4693 255.1127,64.7546 254.9681,65.04 254.8235,65.3254 253.4289,68.0785 250.7953,67.3205 250.4888,67.1652 250.1932,67.0155 249.8977,66.8658 249.6021,66.716 249.8977,66.8658 250.1932,67.0155 250.4888,67.1652 251.3917,67.6226 252.7765,69.6698 251.6921,71.8105 251.3744,72.4377 251.0566,73.0649 250.7389,73.6922 249.8404,75.4659 247.6893,76.1446 245.9149,75.2458 244.1253,74.3392 243.416,72.2114 244.3145,70.4377" stroke="black" stroke-width="1" /><polyline fill="none" points="256.7554,73.6038 257.8073,71.9359 260.007,71.4374 261.6743,72.489 263.3572,73.5504 263.8404,75.7409 262.7885,77.4087 262.2459,78.269 261.7034,79.1292 261.1608,79.9895 260.1089,81.6574 257.9244,82.1646 256.2415,81.1031 254.5742,80.0516 254.0758,77.8524 255.1277,76.1845 256.9447,73.3036 258.7617,70.4226 260.5786,67.5417 261.6303,65.8741 263.8299,65.3759 265.4971,66.4274 266.9336,67.3334 267.5004,69.0691 266.9784,70.6046" stroke="black" stroke-width="1" /><polyline fill="none" points="268.2354,79.3059 269.4492,77.7303 271.6805,77.5021 273.1885,78.6639 274.696,79.8253 275.0314,82.031 273.8174,83.6066 272.8967,84.8017 271.976,85.9968 271.0553,87.1918 269.8416,88.7672 267.6229,89.006 266.1154,87.8446 264.6075,86.6828 264.2728,84.4767 265.4865,82.9014 265.482,82.898 265.4776,82.8946 265.4731,82.8912 268.2773,79.2514 271.0815,75.6117 273.8857,71.972" stroke="black" stroke-width="1" /><polyline fill="none" points="282.5785,82.1711 284.1917,80.4402 289.3978,85.2924 274.0586,94.4313" stroke="black" stroke-width="1" /><polyline fill="none" points="292.3208,93.1944 296.6118,92.9367 283.8,104.3283" stroke="black" stroke-width="1" /><polyline fill="none" points="305.8586,104.7514 305.2709,103.9503 304.2998,103.6418 303.277,104.3922 302.2864,105.1191 301.2958,105.8459 300.3053,106.5727 300.6635,107.061 301.0218,107.5492 301.3801,108.0375 300.6904,107.0975 300.0007,106.1575 299.311,105.2176 299.6424,105.6693 299.9738,106.121 300.3053,106.5727 297.2597,108.8073 294.2142,111.0419 291.1687,113.2765" stroke="black" stroke-width="1" /><polyline fill="none" points="308.401,112.4713 310.4314,111.2564 314.0856,117.3632 296.8121,121.8841" stroke="black" stroke-width="1" /><polyline fill="none" points="319.4162,128.1029 318.9881,127.2062 318.0916,126.722 316.9468,127.2686 315.8381,127.798 314.7294,128.3273 313.6207,128.8567 313.8816,129.4032 314.1425,129.9498 314.4035,130.4963 313.9011,129.4442 313.3988,128.3921 312.8965,127.34 313.1379,127.8455 313.3793,128.3511 313.6207,128.8567 310.2119,130.4843 306.8031,132.1118 303.3943,133.7393" stroke="black" stroke-width="1" /><polyline fill="none" points="319.4398,136.7256 321.291,136.0463 323.3371,136.9942 324.0164,138.8454 324.7016,140.713 323.7336,142.803 321.8825,143.4822 321.1572,143.7483 320.6224,143.7806 320.1906,143.7016 315.8205,142.9062 311.4505,142.1107 307.0804,141.3153 306.9465,141.3644 306.8126,141.4136 306.6787,141.4627 307.4938,143.6841 308.3089,145.9056 309.124,148.127" stroke="black" stroke-width="1" /><polyline fill="none" points="324.7957,148.7497 327.0836,148.1462 328.8986,155.0276 311.049,154.5748" stroke="black" stroke-width="1" /><polyline fill="none" points="327.9575,169.0549 324.2087,167.2655 320.4599,165.4761 316.7111,163.6867 320.0714,163.1302 323.4317,162.5737 326.792,162.0173 328.7374,161.6951 330.5713,163.0086 330.8934,164.9532 331.2184,166.9162 329.9028,168.7327 327.9575,169.0549 324.5972,169.6114 321.2369,170.1678 317.8766,170.7243 315.9312,171.0465 314.101,169.7509 313.7787,167.8052 313.4538,165.8432 314.7657,164.0089 316.7111,163.6867" stroke="black" stroke-width="1" /><polyline fill="none" points="329.1656,182.1993 325.6008,180.0668 322.0361,177.9342 318.4713,175.8016 321.869,175.5622 325.2666,175.3229 328.6643,175.0835 330.6312,174.9449 332.3341,176.4243 332.4727,178.3906 332.6125,180.3754 331.1326,182.0608 329.1656,182.1993 325.7679,182.4387 322.3703,182.6781 318.9726,182.9174 317.0056,183.056 315.3047,181.5947 315.1662,179.6274 315.0264,177.6437 316.5043,175.9402 318.4713,175.8016" stroke="black" stroke-width="1" /><polyline fill="none" points="329.3041,188.2994 331.2754,188.3456 332.8319,189.9773 332.7857,191.9486 332.7391,193.9374 331.0727,195.5274 329.1014,195.4812 328.3291,195.4631 327.8196,195.2971 327.4467,195.0655 323.672,192.7242 319.8972,190.383 316.1225,188.0418 315.9799,188.0384 315.8373,188.0351 315.6947,188.0317 315.6393,190.3974 315.5838,192.763 315.5283,195.1286" stroke="black" stroke-width="1" /><polyline fill="none" points="328.8932,201.6364 330.6643,201.845 332.0566,203.5107 331.83,205.4354 331.6034,207.3589 329.9445,208.6837 327.9355,208.4471 327.6178,208.4097 327.3001,208.3723 326.9824,208.3349 323.9174,207.9739 323.7218,205.2404 323.762,204.8992 323.8008,204.5701 323.8395,204.2411 323.8782,203.912 323.8395,204.2411 323.8008,204.5701 323.762,204.8992 323.6436,205.9044 322.1988,207.9096 319.8156,207.629 319.1172,207.5467 318.4189,207.4645 317.7206,207.3823 315.746,207.1497 314.3678,205.3641 314.6005,203.3887 314.8351,201.3964 316.5883,199.9975 318.5629,200.23" stroke="black" stroke-width="1" /><polyline fill="none" points="322.377,220.9716 320.4489,220.5587 319.2207,218.6819 319.6337,216.7538 320.0503,214.8089 321.9428,213.5841 323.8709,213.9971 324.8656,214.2102 325.8604,214.4232 326.8551,214.6363 328.7832,215.0493 330.0087,216.9419 329.5956,218.8704 329.1791,220.8149 327.2893,222.0238 325.3612,221.6108 322.0307,220.8975 318.7001,220.1841 315.3696,219.4707 313.4419,219.0578 312.2133,217.181 312.6263,215.2529 312.9818,213.5933 314.4166,212.4622 316.0383,212.4235" stroke="black" stroke-width="1" /><polyline fill="none" points="318.748,233.3654 316.8671,232.7737 315.82,230.7902 316.4118,228.9092 317.0086,227.0119 319.0075,225.9697 320.8885,226.5614 321.8589,226.8667 322.8293,227.1719 323.7997,227.4772 325.6807,228.0689 326.7236,230.068 326.1317,231.9493 325.535,233.8463 323.5403,234.873 321.6593,234.2812 318.4102,233.2591 315.1611,232.237 311.912,231.2149 310.0314,230.6233 308.984,228.6397 309.5757,226.7587 310.085,225.1397 311.6195,224.148 313.2376,224.2613" stroke="black" stroke-width="1" /><polyline fill="none" points="319.5868,239.9012 321.4041,240.6665 322.2546,242.7549 321.4894,244.5722 320.7173,246.4057 318.5843,247.2746 316.767,246.5093 316.055,246.2095 315.6417,245.8684 315.3796,245.5163 312.7252,241.9548 310.0706,238.3934 307.4162,234.832 307.2847,234.7766 307.1533,234.7213 307.0219,234.6659 306.1035,236.8467 305.1852,239.0275 304.2668,241.2083" stroke="black" stroke-width="1" /><polyline fill="none" points="307.9089,248.5121 309.6465,249.4442 310.2984,251.6035 309.3666,253.3405 308.4261,255.0939 306.275,255.7298 304.5373,254.7977 303.6411,254.317 302.7448,253.8362 301.8485,253.3555 300.1109,252.4234 299.4514,250.2799 300.3919,248.5265 301.3237,246.7895 303.4825,246.1378 305.2201,247.0699 308.2216,248.6799 311.2232,250.2899 314.2247,251.8999 315.962,252.8318 316.6136,254.9909 315.6818,256.728 314.8791,258.2245 313.1874,258.912 311.6191,258.4991" stroke="black" stroke-width="1" /><polyline fill="none" points="292.9619,261.0363 296.547,263.4167 299.9238,258.3307 307.4908,270.1478" stroke="black" stroke-width="1" /><polyline fill="none" points="298.8748,281.4851 300.165,279.8893 301.4551,278.2935 302.7453,276.6978 300.6431,274.9981 298.541,273.2985 296.4388,271.5989 296.9757,272.8708 296.9296,274.0469 295.9919,275.2068 294.6982,276.8068 292.3758,276.9793 290.8963,275.7832 289.8386,274.928 288.7809,274.0729 287.7231,273.2177 286.1767,271.9674 286.0456,269.8112 287.2209,268.3575 288.3849,266.9178 290.51,266.6077 292.0565,267.8579" stroke="black" stroke-width="1" /><polyline fill="none" points="289.4678,291.8159 286.181,288.6053 282.8942,285.3947 279.6074,282.1841 278.1846,280.7942 278.2187,278.5513 279.5489,277.1895 280.8668,275.8403 283.1086,275.7534 284.5314,277.1432 285.6106,278.1974 286.6898,279.2516 287.769,280.3058 289.1918,281.6956 289.157,283.9383 287.839,285.2875 286.5088,286.6493 284.2678,286.7365 282.845,285.3466" stroke="black" stroke-width="1" /><polyline fill="none" points="283.0962,294.3686 284.6266,296.1732 279.1988,300.7761 271.9166,284.4732" stroke="black" stroke-width="1" /><polyline fill="none" points="271.9575,301.905 273.0864,303.5217 272.6917,305.7419 271.075,306.8708 269.4439,308.0097 267.1762,307.6068 266.0473,305.9901 265.605,305.3567 265.4374,304.8477 265.4036,304.41 265.0582,299.9816 264.7128,295.5532 264.3674,291.1248 264.2857,291.0079 264.2041,290.8909 264.1224,290.774 262.1823,292.1287 260.2422,293.4834 258.3021,294.8381" stroke="black" stroke-width="1" /><polyline fill="none" points="258.1909,304.3631 259.1719,306.0933 258.5162,308.2383 256.8603,309.1772 255.2049,310.1158 253.0419,309.5688 252.0609,307.8386 251.3168,306.5262 250.5728,305.2139 249.8287,303.9015 248.8479,302.1716 249.4888,300.0341 251.1442,299.0956 252.8002,298.1566 254.9632,298.7043 255.944,300.4343 255.9489,300.4315 255.9538,300.4287 255.9586,300.426 258.2248,304.4229 260.491,308.4199 262.7572,312.4168" stroke="black" stroke-width="1" /><polyline fill="none" points="249.9838,316.4701 250.953,318.6286 244.4606,321.5435 241.9911,303.8598" stroke="black" stroke-width="1" /><polyline fill="none" points="235.3648,315.3257 236.006,317.2085 234.9619,319.1936 233.1599,319.8073 231.3586,320.4207 229.3355,319.4801 228.6943,317.5973 228.208,316.1692 227.7217,314.7411 227.2353,313.313 226.5943,311.4305 227.6226,309.45 229.4239,308.8366 231.2259,308.223 233.2489,309.1644 233.89,311.0468 233.8952,311.045 233.9005,311.0432 233.9058,311.0414 235.387,315.3908 236.8682,319.7402 238.3493,324.0896" stroke="black" stroke-width="1" /><polyline fill="none" points="220.1276,321.0126 218.5288,321.2902 217.1653,323.157 217.6214,325.0665 217.7275,325.511 217.8336,325.9554 217.9398,326.3998 218.3701,328.2014 220.1893,329.3179 222.0075,328.8837 223.8087,328.4534 224.9182,326.6017 224.496,324.8339 224.3898,324.3895 224.2837,323.9451 224.1776,323.5007 223.7472,321.6988 221.9288,320.5824 220.1276,321.0126 218.143,321.4866 216.2042,320.24 215.7463,318.3228 215.5896,317.6667 215.433,317.0108 215.2763,316.3548 214.8183,314.4373 215.9922,312.4817 217.9769,312.0077 219.9448,311.5377 221.8747,312.7519 222.3327,314.6695 222.492,315.3363 222.6512,316.0032 222.8105,316.67 223.2031,318.3139 222.2498,320.4014" stroke="black" stroke-width="1" /><polyline fill="none" points="210.472,327.709 208.3132,331.4263 205.9096,314.4519" stroke="black" stroke-width="1" /><polyline fill="none" points="191.0713,317.4438 191.628,316.5081 192.356,315.564 194.4802,315.4643 196.3818,315.3751 198.0809,316.84 198.1766,318.8785 198.2465,320.3682 198.3164,321.8579 198.3863,323.3477 198.4795,325.3345 196.925,326.9513 195.0234,327.0405 193.0876,327.1314 191.3546,325.6688 191.2614,323.682 191.2265,322.94 191.1917,322.1981 191.1569,321.4561 193.5262,321.345 195.8954,321.2338 198.2647,321.1226" stroke="black" stroke-width="1" /><polyline fill="none" points="182.0934,324.584 180.4803,324.4067 178.6522,325.8216 178.5601,327.7827 178.5387,328.2391 178.5173,328.6956 178.4959,329.152 178.4091,331.0021 179.8468,332.5799 181.7141,332.6675 183.5639,332.7543 185.1439,331.2835 185.2291,329.4679 185.2505,329.0115 185.2719,328.5551 185.2933,328.0987 185.3802,326.2481 183.9432,324.6708 182.0934,324.584 180.0552,324.4883 178.5387,322.7524 178.6311,320.7834 178.6628,320.1098 178.6944,319.4361 178.726,318.7624 178.8184,316.7931 180.4891,315.2403 182.5273,315.336 184.5484,315.4308 186.0653,317.1331 185.9729,319.1025 185.9408,319.7873 185.9086,320.4722 185.8765,321.157 185.7973,322.8452 184.3018,324.5861" stroke="black" stroke-width="1" /><polyline fill="none" points="164.9311,331.0243 165.5753,326.475 166.2195,321.9257 166.8637,317.3764 167.1425,315.407 168.9711,314.1077 170.8559,314.3746 172.7234,314.639 174.1196,316.3951 173.8408,318.3644 173.6292,319.8581 173.4177,321.3518 173.2062,322.8456 172.9273,324.8149 171.0986,326.1135 169.2311,325.8491 167.3462,325.5822 165.9503,323.8269 166.2291,321.8576" stroke="black" stroke-width="1" /><polyline fill="none" points="157.9408,326.0792 154.5701,328.7472 158.5527,312.0724" stroke="black" stroke-width="1" /><polyline fill="none" points="139.2262,324.15 141.1687,324.8115 143.1113,325.473 145.0538,326.1345 145.9253,323.5756 146.7967,321.0165 147.6682,318.4576 146.6591,319.3998 145.5391,319.7616 144.1272,319.2808 142.1795,318.6175 141.2175,316.4966 141.8308,314.6956 142.2693,313.4081 142.7077,312.1205 143.1462,310.8329 143.7873,308.9505 145.7664,308.0847 147.5359,308.6873 149.2886,309.2842 150.3117,311.1723 149.6707,313.0548" stroke="black" stroke-width="1" /><polyline fill="none" points="128.7093,312.6069 129.5169,310.808 131.6093,310.0002 133.4082,310.8079 135.2227,311.6225 136.0239,313.7296 135.2163,315.5284 134.7996,316.4565 134.3829,317.3845 133.9662,318.3126 133.1586,320.1115 131.0513,320.9134 129.2521,320.1056 127.4379,319.291 126.6516,317.1899 127.4593,315.3911 128.8544,312.2838 130.2495,309.1765 131.6445,306.0693 132.4521,304.2708 134.5446,303.4626 136.3434,304.2703 137.8917,304.9654 138.6972,306.6053 138.3954,308.1991" stroke="black" stroke-width="1" /><polyline fill="none" points="115.9426,309.1728 119.691,307.3826 123.4394,305.5924 127.1878,303.8022 125.5079,306.7652 123.8279,309.7281 122.148,312.6911 121.1754,314.4064 119.0011,315.0068 117.2863,314.0346 115.5555,313.0532 114.97,310.8881 115.9426,309.1728 117.6225,306.2098 119.3024,303.2468 120.9823,300.2839 121.9549,298.5685 124.1131,297.9598 125.8287,298.9326 127.5587,299.9134 128.1603,302.0869 127.1878,303.8022" stroke="black" stroke-width="1" /><polyline fill="none" points="103.0681,304.9907 105.6986,301.2235 108.3291,297.4563 110.9596,293.6891 112.0984,292.0583 114.3167,291.7255 115.8775,292.8154 117.4239,293.8952 117.8759,296.0926 116.7372,297.7234 115.8735,298.9603 115.0098,300.1972 114.1461,301.4342 113.0074,303.0649 110.7891,303.397 109.2427,302.3171 107.6819,301.2273 107.2298,299.0306 108.3685,297.3999" stroke="black" stroke-width="1" /><polyline fill="none" points="92.953,296.6647 94.5181,297.9919 96.0832,299.3192 97.6483,300.6464 99.3967,298.5846 101.1451,296.5228 102.8936,294.4611 101.6095,294.968 100.4347,294.8943 99.2972,293.9297 97.7279,292.5989 97.6099,290.2731 98.8404,288.822 99.7201,287.7846 100.5998,286.7473 101.4795,285.7099 102.7657,284.1932 104.9244,284.1127 106.3501,285.3217 107.7622,286.5192 108.0224,288.6509 106.7363,290.1677" stroke="black" stroke-width="1" /><polyline fill="none" points="82.8455,287.0181 86.1323,283.8074 89.4191,280.5968 92.7059,277.3862 94.1287,275.9963 96.3702,276.083 97.7004,277.4447 99.0184,278.794 99.0527,281.0372 97.6299,282.427 96.5507,283.4812 95.4715,284.5354 94.3923,285.5895 92.9695,286.9794 90.7283,286.892 89.4103,285.5428 88.0801,284.181 88.0455,281.9386 89.4683,280.5487" stroke="black" stroke-width="1" /><polyline fill="none" points="81.0004,279.7505 79.6136,280.8717 77.4492,280.7037 76.2308,279.1967 75.013,277.6906 75.2245,275.5782 76.7976,274.3063 77.0464,274.1052 77.2952,273.9041 77.5439,273.703 79.9438,271.7626 82.0359,273.5328 82.2519,273.8 82.4602,274.0577 82.6685,274.3153 82.8769,274.5729 82.6685,274.3153 82.4602,274.0577 82.2519,273.8 81.6156,273.0129 81.1908,270.5782 83.0569,269.0694 83.6036,268.6274 84.1504,268.1853 84.6972,267.7432 86.2434,266.4932 88.4837,266.7551 89.7342,268.3018 90.9955,269.8618 90.7711,272.0935 89.225,273.3435" stroke="black" stroke-width="1" /><polyline fill="none" points="67.3448,266.6557 67.8944,267.4834 68.85,267.8372 69.9069,267.1355 70.9304,266.4559 71.954,265.7763 72.9775,265.0967 72.6425,264.5922 72.3075,264.0876 71.9725,263.5831 72.6174,264.5544 73.2623,265.5257 73.9072,266.4969 73.5973,266.0302 73.2874,265.5635 72.9775,265.0967 76.1244,263.0073 79.2714,260.9179 82.4183,258.8285" stroke="black" stroke-width="1" /><polyline fill="none" points="65.3794,257.0802 61.1459,256.334 76.2536,248.2303" stroke="black" stroke-width="1" /><polyline fill="none" points="66.7588,236.0087 68.5916,235.2369 70.6395,236.1234 71.3781,237.8775 72.1168,239.6317 71.3265,241.7316 69.4937,242.5033 68.1033,243.0888 66.713,243.6743 65.3226,244.2598 63.4895,245.0317 61.4358,244.1294 60.6971,242.3753 59.9585,240.6212 60.7546,238.537 62.5877,237.7651" stroke="black" stroke-width="1" /><polyline fill="none" points="56.024,226.2831 57.905,225.6914 59.899,226.7182 60.4907,228.5992 61.0876,230.4966 60.0454,232.4954 58.1644,233.0871 57.194,233.3924 56.2236,233.6977 55.2532,234.003 53.3722,234.5947 51.3727,233.5527 50.7808,231.6714 50.1841,229.7744 51.2318,227.7906 53.1127,227.1989 56.3618,226.1768 59.6109,225.1547 62.86,224.1326 64.7407,223.541 66.735,224.5677 67.3268,226.4487 67.8361,228.0677 67.1458,229.7593 65.7542,230.5928" stroke="black" stroke-width="1" /><polyline fill="none" points="51.1793,220.2008 47.3194,218.3085 64.083,214.7179" stroke="black" stroke-width="1" /><polyline fill="none" points="47.9774,208.7484 45.6275,209.0251 44.7952,201.9573 62.405,204.9081" stroke="black" stroke-width="1" /><polyline fill="none" points="52.7154,188.4546 52.7099,188.4547 52.7045,188.4549 52.699,188.455 55.0299,188.4003 57.3607,188.3457 59.6916,188.291 60.7688,188.2658 61.1646,187.5002 61.1514,186.936 61.1682,187.6562 60.5675,188.2705 59.8284,188.2878 59.7828,188.2889 59.7372,188.2899 59.6916,188.291 60.6942,189.3657 61.4103,190.6522 61.4453,192.1429 61.4742,193.3772 60.9039,195.3973 58.3845,195.4564 57.0645,195.4873 56.2078,194.7704 55.7379,193.7179 55.5027,193.2093 55.1385,191.5873 54.89,190.496 54.6243,189.3876 54.0355,188.4236 52.7154,188.4546 51.3786,188.4859 49.8,189.878 49.8483,191.9347 49.8937,193.8721 50.8568,194.7412 51.7442,195.2866" stroke="black" stroke-width="1" /><polyline fill="none" points="44.8262,176.4698 44.7564,177.4609 45.2974,178.3243 46.5629,178.4135 47.7885,178.4998 49.0141,178.5862 50.2397,178.6725 50.2822,178.0684 50.3248,177.4642 50.3673,176.8601 50.2854,178.0231 50.2035,179.1861 50.1215,180.3491 50.1609,179.7902 50.2003,179.2314 50.2397,178.6725 54.0077,178.938 57.7758,179.2034 61.5438,179.4689" stroke="black" stroke-width="1" /><polyline fill="none" points="47.8803,168.9376 45.5459,168.551 46.7086,161.53 62.8068,169.254" stroke="black" stroke-width="1" /><polyline fill="none" points="49.7226,148.881 49.1993,150.8652 48.6759,152.8494 48.1525,154.8336 50.7664,155.5231 53.3803,156.2126 55.9942,156.902 54.9835,155.9617 54.5438,154.8698 54.9242,153.4277 55.4489,151.4382 57.497,150.3295 59.3366,150.8147 60.6518,151.1616 61.967,151.5085 63.2822,151.8554 65.2051,152.3626 66.2078,154.276 65.731,156.0835 65.2588,157.8738 63.4472,159.0271 61.5244,158.5199" stroke="black" stroke-width="1" /><polyline fill="none" points="53.994,143.0607 51.7727,142.2457 54.2241,135.5645 68.5998,146.1548" stroke="black" stroke-width="1" /><polyline fill="none" points="63.0265,124.6023 65.0757,128.2157 67.1249,131.829 69.1741,135.4424 66.1004,133.9748 63.0267,132.5073 59.953,131.0397 58.1736,130.1901 57.4219,128.0633 58.2711,126.2845 59.1285,124.4889 61.2471,123.7527 63.0265,124.6023 66.1002,126.0699 69.1739,127.5374 72.2476,129.005 74.0271,129.8546 74.7859,131.9647 73.9362,133.7444 73.0794,135.539 70.9535,136.292 69.1741,135.4424" stroke="black" stroke-width="1" /><polyline fill="none" points="70.7299,122.0827 69.0231,121.0614 68.5355,118.8721 69.5129,117.2386 70.4901,115.6057 72.6414,115.0146 74.3481,116.0359 75.6427,116.8106 76.9372,117.5852 78.2318,118.3598 79.9383,119.381 80.4349,121.5565 79.4578,123.1894 78.4803,124.8229 76.3286,125.4133 74.6221,124.3922 74.6193,124.397 74.6164,124.4018 74.6135,124.4066 70.6708,122.0474 66.7281,119.6881 62.7854,117.3289" stroke="black" stroke-width="1" /><polyline fill="none" points="78.6846,112.3389 77.0948,111.1724 76.7521,108.9431 77.9182,107.3539 79.0952,105.7496 81.3143,105.4216 82.9041,106.5881 83.7241,107.1898 84.5441,107.7914 85.3641,108.3931 86.9539,109.5596 87.3064,111.7744 86.1293,113.3786 84.9632,114.9678 82.7344,115.3104 81.1446,114.1439 78.3984,112.129 75.6523,110.114 72.9061,108.0991 71.3166,106.9328 70.9743,104.7037 72.1403,103.1144 73.145,101.7452 74.9163,101.3017 76.4112,101.9304" stroke="black" stroke-width="1" /><polyline fill="none" points="85.7001,92.278 86.6655,96.3182 87.6309,100.3584 88.5963,104.3987 86.0509,102.1354 83.5055,99.8722 80.9601,97.6089 79.4865,96.2987 79.3548,94.0468 80.6646,92.5737 81.9867,91.0868 84.2265,90.9678 85.7001,92.278 88.2455,94.5412 90.7909,96.8045 93.3363,99.0677 94.8099,100.378 94.9531,102.6158 93.6426,104.0896 92.3212,105.5758 90.0699,105.7089 88.5963,104.3987" stroke="black" stroke-width="1" /><polyline fill="none" points="89.0455,87.1817 87.4322,85.4508 92.6383,80.5986 100.6766,96.5422" stroke="black" stroke-width="1" /><polyline fill="none" points="112.5703,84.2512 112.6496,85.3372 112.5932,86.5281 110.9086,87.8259 109.4007,88.9877 107.1689,88.7594 105.9233,87.1428 105.0132,85.9614 104.103,84.78 103.1928,83.5986 101.9789,82.023 102.3278,79.8073 103.8358,78.6455 105.3709,77.4628 107.6292,77.6698 108.8431,79.2454 109.2964,79.8338 109.7497,80.4222 110.203,81.0106 108.3241,82.4581 106.4452,83.9057 104.5663,85.3533" stroke="black" stroke-width="1" /><polyline fill="none" points="118.1793,70.0413 119.2312,71.7092 118.7469,73.8991 117.079,74.951 115.3967,76.0121 113.1981,75.5141 112.1462,73.8463 111.6035,72.9858 111.0609,72.1253 110.5182,71.2649 109.4663,69.597 109.9639,67.3979 111.632,66.3458 113.3141,65.2849 115.4994,65.792 116.5513,67.4599 118.3683,70.3409 120.1852,73.2218 122.0022,76.1028 123.0539,77.7704 122.5697,79.9606 120.9019,81.0125 119.4663,81.9179 117.6546,81.6818 116.4938,80.5489" stroke="black" stroke-width="1" /><polyline fill="none" points="126.2277,58.1511 128.304,62.2499 130.3804,66.3486 132.4567,70.4474 133.3555,72.2217 132.6002,74.3339 130.9021,75.1942 129.2195,76.0465 127.0694,75.4061 126.1706,73.6318 125.4888,72.286 124.8071,70.9402 124.1253,69.5944 123.2265,67.8201 123.9824,65.7084 125.665,64.856 127.3632,63.9958 129.5126,64.6357 130.4115,66.41" stroke="black" stroke-width="1" /><polyline fill="none" points="138.3461,53.173 136.4367,53.9248 134.5273,54.6767 132.6178,55.4285 133.6083,57.9438 134.5987,60.4592 135.5892,62.9745 135.7494,61.6033 136.3696,60.6029 137.7573,60.0564 139.6718,59.3026 141.7773,60.298 142.4743,62.0682 142.9727,63.3338 143.471,64.5994 143.9693,65.865 144.6979,67.7154 143.7485,69.6557 142.0091,70.3406 140.2864,71.0189 138.2848,70.2406 137.5562,68.3902" stroke="black" stroke-width="1" /><polyline fill="none" points="150.3032,49.4753 149.3486,49.7511 148.7244,50.5565 149.0766,51.7752 149.4178,52.9555 149.7589,54.1358 150.1,55.3161 150.6818,55.148 151.2636,54.9799 151.8454,54.8117 150.7254,55.1354 149.6053,55.4591 148.4853,55.7828 149.0235,55.6272 149.5618,55.4717 150.1,55.3161 151.1487,58.945 152.1975,62.5739 153.2462,66.2028" stroke="black" stroke-width="1" /><polyline fill="none" points="164.4588,46.1945 162.4427,46.5772 160.4266,46.9598 158.4104,47.3425 158.9145,49.9984 159.4186,52.6543 159.9226,55.3102 160.3357,53.9928 161.1316,53.1256 162.5969,52.8475 164.6184,52.4639 166.5013,53.8344 166.856,55.7036 167.1096,57.0399 167.3633,58.3762 167.6169,59.7125 167.9877,61.6663 166.6931,63.3956 164.8565,63.7441 163.0375,64.0894 161.2162,62.9514 160.8454,60.9977" stroke="black" stroke-width="1" /><polyline fill="none" points="149.6458,120.637 140.8637,108.5745 188.2428,253.3668 156.5688,130.1462 236.6952,108.8569 156.5688,130.1462 108.8569,140.3048 108.8569,140.3048 268.4255,140.8637 108.8569,140.3048" stroke="black" stroke-width="1" /><polyline fill="none" points="108.7951,157.9483 108.9187,122.6613" stroke="black" stroke-width="1" /><polyline fill="none" points="168.3312,130.1462 168.1864,128.3062 167.7555,126.5115 167.0492,124.8062 166.0848,123.2325 164.8861,121.829 163.4826,120.6303 161.9088,119.6659 160.2036,118.9595 158.4089,118.5287 156.5688,118.3839 154.7288,118.5287 152.9341,118.9595 151.2288,119.6659 149.6551,120.6303 148.2516,121.829 147.0528,123.2325 146.0885,124.8062 145.3821,126.5115 144.9512,128.3062 144.8064,130.1462 144.9512,131.9863 145.3821,133.781 146.0885,135.4863 147.0528,137.06 148.2516,138.4635 149.6551,139.6622 151.2288,140.6266 152.9341,141.3329 154.7288,141.7638 156.5688,141.9086 158.4089,141.7638 160.2036,141.3329 161.9088,140.6266 163.4826,139.6622 164.8861,138.4635 166.0848,137.06 167.0492,135.4863 167.7555,133.781 168.1864,131.9863 168.3312,130.1462" stroke="black" stroke-width="1" /><polyline fill="none" points="188.5,69.0664 199.6839,69.5912 210.7696,71.161 221.6595,73.7619 232.2581,77.3712 242.4721,81.9571 252.2118,87.4792 261.3915,93.8892 269.9308,101.1306 277.7544,109.1398 284.7936,117.8464 290.9866,127.1739 296.2789,137.0404 300.6241,147.3591 303.9839,158.0393 306.3289,168.9873 307.6383,180.1067 307.9008,191.2998 307.114,202.4684 305.2847,213.5142 302.4292,224.3402 298.5725,234.8512 293.7484,244.9549 287.9994,254.5625 281.376,263.5894 273.9365,271.9565 265.7461,279.5902 256.8768,286.4234 247.4067,292.3961 237.4188,297.4556 227.0011,301.5577 216.2451,304.6663 205.2452,306.7539 194.0981,307.8023 182.9019,307.8023 171.7548,306.7539 160.7549,304.6663 149.9989,301.5577 139.5811,297.4556 129.5933,292.3961 120.1232,286.4234 111.2539,279.5902 103.0635,271.9565 95.6239,263.5894 89.0006,254.5625 83.2516,244.9549 78.4275,234.8512 74.5708,224.3402 71.7153,213.5142 69.8861,202.4684 69.0992,191.2998 69.3617,180.1067 70.6712,168.9872 73.0161,158.0393 76.3759,147.3591 80.7211,137.0404 86.0134,127.174 92.2064,117.8464 99.2457,109.1398 107.0692,101.1306 115.6085,93.8892 124.7882,87.4792 134.5279,81.957 144.7419,77.3712 155.3405,73.7619 166.2304,71.161 177.3161,69.5912 188.5,69.0664" stroke="black" stroke-width="1" />

    </g>
  </g>
  <WCB
     pausedposy="0"
     pausedposx="0"
     lastknownposy="0"
     lastknownposx="0"
     lastpathnc="0"
     lastpath="0"
     node="0"
     layer="0" />
</svg>
