<?xml version="1.0" encoding="UTF-8" standalone="no"?>
<!-- Created with Inkscape (http://www.inkscape.org/) -->

<svg
   xmlns:dc="http://purl.org/dc/elements/1.1/"
   xmlns:cc="http://creativecommons.org/ns#"
   xmlns:rdf="http://www.w3.org/1999/02/22-rdf-syntax-ns#"
   xmlns:svg="http://www.w3.org/2000/svg"
   xmlns="http://www.w3.org/2000/svg"
   xmlns:sodipodi="http://sodipodi.sourceforge.net/DTD/sodipodi-0.dtd"
   xmlns:inkscape="http://www.inkscape.org/namespaces/inkscape"
   width="100mm"
   height="100mm"
   viewBox="0 0 100 100"
   version="1.1"
   id="svg19124"
   inkscape:version="0.92.3 (2405546, 2018-03-11)"
   sodipodi:docname="inkscape_template_TMP.svg"
   shape-rendering="crispEdges">
  <sodipodi:namedview
     pagecolor="#ffffff"
     bordercolor="#666666"
     borderopacity="1"
     objecttolerance="10"
     gridtolerance="10"
     guidetolerance="10"
     inkscape:pageopacity="0"
     inkscape:pageshadow="2"
     inkscape:window-width="1568"
     inkscape:window-height="1550"
     id="namedview24021"
     showgrid="false"
     inkscape:zoom="0.62441667"
     inkscape:cx="712.66515"
     inkscape:cy="409.98265"
     inkscape:window-x="0"
     inkscape:window-y="0"
     inkscape:window-maximized="0"
     inkscape:current-layer="layer1" />
  <defs
     id="defs19118" />
  <metadata
     id="metadata19121">
    <rdf:RDF>
      <cc:Work
         rdf:about="">
        <dc:format>image/svg+xml</dc:format>
        <dc:type
           rdf:resource="http://purl.org/dc/dcmitype/StillImage" />
        <dc:title />
      </cc:Work>
    </rdf:RDF>
  </metadata>
  <g
     transform="translate(0,-197)"
     id="layer1"
     inkscape:groupmode="layer"
     inkscape:label="Layer 1">
    <g
       id="g24447"
       transform="matrix(0.26458333,0,0,0.26458333,0.10666333,197.9735)">

<polyline fill="none" points="192.1004,47.7394 189.7225,51.1455 187.3447,54.5516 184.9669,57.9577 184.9669,54.5516 184.9669,51.1455 184.9669,47.7394 184.9669,45.7676 186.5623,44.1729 188.5334,44.1729 190.5231,44.1729 192.1004,45.7676 192.1004,47.7394 192.1004,51.1455 192.1004,54.5516 192.1004,57.9577 192.1004,59.9295 190.5231,61.5235 188.5509,61.5235 186.5623,61.5235 184.9669,59.9295 184.9669,57.9577" stroke="black" stroke-width="1" /><polyline fill="none" points="197.8298,61.5877 200.7471,57.7851 198.696,53.7706 202.935,62.0679 200.7471,57.7851 203.4811,54.2207" stroke="black" stroke-width="1" /><polyline fill="none" points="216.2596,60.7996 215.8888,62.7534 214.0175,63.9691 212.1476,63.6142 210.2777,63.2593 208.9654,61.4394 209.3362,59.4856 209.6175,58.0035 209.8988,56.5213 210.1801,55.0391 210.5509,53.085 212.4386,51.8732 214.3085,52.2281 216.1784,52.583 217.4744,54.399 217.1035,56.3531" stroke="black" stroke-width="1" /><polyline fill="none" points="222.6844,57.6853 223.2367,55.7745 225.2292,54.7446 227.058,55.2732 228.8861,55.8015 230.0063,57.7309 229.4541,59.6417 229.0352,61.091 228.6164,62.5403 228.1975,63.9897 227.6454,65.9001 225.6685,66.9352 223.8403,66.4069 222.0115,65.8783 220.8919,63.9483 221.444,62.0379 221.4386,62.0363 221.4333,62.0348 221.4279,62.0332 222.7036,57.6192 223.9792,53.2051 225.2549,48.7911" stroke="black" stroke-width="1" /><polyline fill="none" points="237.0083,56.0999 237.6616,54.4406 239.6274,53.5192 241.4306,54.2292 243.2327,54.9389 244.0906,56.8808 243.3495,58.763 243.2323,59.0607 243.1151,59.3583 242.9979,59.656 241.8671,62.5276 239.1741,62.0195 238.8544,61.8936 238.5462,61.7723 238.2379,61.6509 237.9296,61.5295 238.2379,61.6509 238.5462,61.7723 238.8544,61.8936 239.7962,62.2645 241.3667,64.1729 240.4874,66.4058 240.2298,67.06 239.9722,67.7143 239.7146,68.3685 238.9861,70.2185 236.9081,71.0957 235.0574,70.367 233.1907,69.632 232.2852,67.58 233.0137,65.7299" stroke="black" stroke-width="1" /><polyline fill="none" points="249.3586,60.2315 250.4279,58.1207 256.7765,61.3367 244.5776,74.3751" stroke="black" stroke-width="1" /><polyline fill="none" points="257.6599,72.3192 258.7209,70.6369 260.921,70.2007 262.5312,71.2162 264.1407,72.2313 264.6812,74.3959 263.6202,76.0783 262.8154,77.3543 262.0107,78.6304 261.2059,79.9064 260.145,81.5884 257.9584,82.034 256.3489,81.0188 254.7387,80.0034 254.1989,77.8384 255.2598,76.1563 255.255,76.1533 255.2503,76.1503 255.2456,76.1474 257.6966,72.261 260.1476,68.3747 262.5987,64.4884" stroke="black" stroke-width="1" /><polyline fill="none" points="268.1982,89.394 270.8246,85.985 265.9885,82.2591 278.3081,75.5412" stroke="black" stroke-width="1" /><polyline fill="none" points="287.1054,87.984 283.0437,88.8544 278.9819,89.7248 274.9202,90.5953 277.2425,88.1036 279.5648,85.612 281.8871,83.1203 283.2315,81.6778 285.4859,81.599 286.9278,82.943 288.3834,84.2996 288.4499,86.5415 287.1054,87.984 284.7831,90.4756 282.4608,92.9673 280.1385,95.4589 278.7941,96.9014 276.5536,96.9921 275.1108,95.6474 273.6561,94.2916 273.5758,92.0377 274.9202,90.5953" stroke="black" stroke-width="1" /><polyline fill="none" points="296.0846,97.6592 291.9592,98.1455 287.8338,98.6317 283.7084,99.118 286.2538,96.8547 288.7992,94.5915 291.3446,92.3283 292.8182,91.018 295.0701,91.1507 296.3799,92.6237 297.702,94.1107 297.5582,96.349 296.0846,97.6592 293.5392,99.9224 290.9938,102.1857 288.4484,104.4489 286.9748,105.7592 284.7356,105.6397 283.4251,104.1658 282.1037,102.6796 282.2348,100.4282 283.7084,99.118" stroke="black" stroke-width="1" /><polyline fill="none" points="295.8741,114.0099 294.2708,115.1863 292.073,114.7997 290.9471,113.2652 289.8212,111.7307 290.102,109.5046 291.7053,108.3282 292.9216,107.4358 294.138,106.5433 295.3543,105.6508 296.9579,104.4742 299.1651,104.8747 300.291,106.4093 301.4169,107.9438 301.1268,110.1559 299.5231,111.3325" stroke="black" stroke-width="1" /><polyline fill="none" points="306.6423,121.5682 306.647,121.5654 306.6517,121.5626 306.6564,121.5598 304.6557,122.7569 302.655,123.9541 300.6543,125.1513 299.7297,125.7046 299.763,126.5658 300.0528,127.05 299.6829,126.4318 299.9025,125.6011 300.537,125.2215 300.5761,125.1981 300.6152,125.1747 300.6543,125.1513 299.2521,124.7109 297.9946,123.945 297.229,122.6655 296.595,121.606 296.0948,119.5674 298.2573,118.2734 299.3903,117.5954 300.4892,117.7965 301.417,118.4804 301.8725,118.8068 302.9893,120.0381 303.7437,120.8649 304.5215,121.6981 305.5092,122.2462 306.6423,121.5682 307.7897,120.8816 308.4763,118.892 307.42,117.1267 306.4249,115.4638 305.1584,115.1828 304.1175,115.146" stroke="black" stroke-width="1" /><polyline fill="none" points="307.8805,135.3373 306.0859,136.1941 303.9988,135.4045 303.1787,133.6869 302.3586,131.9694 303.0496,129.8347 304.8442,128.9779 306.2056,128.3279 307.567,127.6779 308.9284,127.0279 310.7233,126.1709 312.8171,126.976 313.6371,128.6935 314.4572,130.4111 313.7596,132.5302 311.9647,133.3872" stroke="black" stroke-width="1" /><polyline fill="none" points="324.9656,141.5323 324.2587,139.6058 323.5518,137.6793 322.845,135.7528 320.3071,136.684 317.7692,137.6152 315.2314,138.5464 316.5984,138.7387 317.584,139.3822 318.0978,140.7823 318.8066,142.714 317.7621,144.7955 315.976,145.4509 314.699,145.9194 313.4221,146.388 312.1452,146.8565 310.2783,147.5415 308.3607,146.5468 307.7168,144.7919 307.079,143.0537 307.9041,141.071 309.771,140.3859" stroke="black" stroke-width="1" /><polyline fill="none" points="328.382,153.5727 328.1285,152.612 327.3381,151.9691 326.1114,152.2926 324.9234,152.606 323.7354,152.9193 322.5474,153.2327 322.7019,153.8183 322.8564,154.4039 323.0108,154.9895 322.7135,153.8622 322.4161,152.7348 322.1188,151.6075 322.2617,152.1492 322.4045,152.691 322.5474,153.2327 318.895,154.1961 315.2425,155.1595 311.59,156.1229" stroke="black" stroke-width="1" /><polyline fill="none" points="317.9472,170.5722 315.9853,170.897 314.1994,169.559 313.8884,167.6813 313.5775,165.8036 314.834,163.9447 316.7958,163.6198 318.2842,163.3733 319.7726,163.1269 321.2609,162.8804 323.2232,162.5554 325.0111,163.9102 325.3221,165.7879 325.633,167.6656 324.3745,169.5078 322.4123,169.8327" stroke="black" stroke-width="1" /><polyline fill="none" points="315.5205,182.2064 319.8132,181.904 319.3842,175.8142 332.5906,180.557" stroke="black" stroke-width="1" /><polyline fill="none" points="329.5065,188.4321 331.2892,188.4739 332.8314,190.0019 332.786,191.9393 332.7406,193.8756 331.2131,195.3499 329.1907,195.3025 328.8709,195.295 328.5511,195.2875 328.2313,195.28 325.1459,195.2077 324.6953,192.5045 324.7033,192.161 324.7111,191.8298 324.7188,191.4985 324.7266,191.1673 324.7188,191.4985 324.7111,191.8298 324.7033,192.161 324.6796,193.1729 323.4288,195.3046 321.0298,195.2483 320.3268,195.2318 319.6239,195.2154 318.921,195.1989 316.9333,195.1523 315.394,193.5035 315.4406,191.5151 315.4876,189.5095 317.1021,187.9526 319.0898,187.9992" stroke="black" stroke-width="1" /><polyline fill="none" points="328.7091,202.7589 331.753,205.7943 314.7268,203.7893" stroke="black" stroke-width="1" /><polyline fill="none" points="321.3936,213.4068 323.3385,213.8233 324.5059,215.7386 324.1071,217.6 323.7086,219.4607 321.8627,220.7137 319.9178,220.2972 318.4426,219.9812 316.9675,219.6652 315.4923,219.3493 313.5478,218.9328 312.3763,217.0334 312.7748,215.1727 313.1735,213.3113 315.0201,212.0588 316.9646,212.4753 316.9658,212.4698 316.967,212.4643 316.9681,212.4589 321.4609,213.4212 325.9537,214.3835 330.4465,215.3458" stroke="black" stroke-width="1" /><polyline fill="none" points="318.4774,225.7417 320.3747,226.3386 321.3576,228.3547 320.7863,230.1706 320.2153,231.9858 318.2601,233.0605 316.3628,232.4636 314.9237,232.0109 313.4846,231.5582 312.0455,231.1055 310.1485,230.5087 309.1601,228.508 309.7311,226.6928 310.3023,224.8769 312.2581,223.8028 314.1551,224.3996 314.1567,224.3942 314.1584,224.3889 314.1601,224.3835 318.543,225.7623 322.926,227.1411 327.3089,228.5199" stroke="black" stroke-width="1" /><polyline fill="none" points="312.3536,244.1575 312.3586,244.1596 312.3636,244.1617 312.3687,244.1638 310.2199,243.259 308.0712,242.3542 305.9224,241.4493 304.9293,241.0311 304.2547,241.5675 304.0357,242.0875 304.3153,241.4236 305.115,241.1093 305.7963,241.3962 305.8383,241.4139 305.8804,241.4316 305.9224,241.4493 305.4479,240.0583 305.3215,238.5913 305.9002,237.2171 306.3794,236.0792 307.7271,234.4699 310.0497,235.448 311.2666,235.9604 311.7545,236.9653 311.752,238.118 311.7582,238.6782 311.4261,240.3071 311.2059,241.4044 310.9943,242.5244 311.1367,243.645 312.3536,244.1575 313.5859,244.6764 315.5962,244.053 316.3946,242.1571 317.1467,240.371 316.624,239.1837 316.0379,238.3226" stroke="black" stroke-width="1" /><polyline fill="none" points="314.1829,259.7214 310.1339,257.5495 306.085,255.3777 302.036,253.2058 300.2832,252.2656 299.6932,250.1014 300.593,248.4239 301.4846,246.7618 303.6141,246.0559 305.3669,246.9961 306.6963,247.7092 308.0258,248.4223 309.3552,249.1354 311.108,250.0756 311.6972,252.2397 310.8056,253.9019 309.9058,255.5794 307.7771,256.2853 306.0243,255.3451" stroke="black" stroke-width="1" /><polyline fill="none" points="293.9823,262.7065 293.5573,261.704 293.2267,260.5586 294.4029,258.787 295.4559,257.2011 297.6421,256.6977 299.3423,257.8265 300.5847,258.6515 301.8272,259.4764 303.0696,260.3013 304.7267,261.4015 305.1106,263.6113 304.0576,265.1972 302.9857,266.8117 300.7813,267.3437 299.1243,266.2436 298.5055,265.8327 297.8867,265.4218 297.2679,265.011 298.5799,263.035 299.8918,261.059 301.2038,259.083" stroke="black" stroke-width="1" /><polyline fill="none" points="301.1775,274.8735 303.0175,276.3611 298.5432,281.8953 288.3488,267.2362" stroke="black" stroke-width="1" /><polyline fill="none" points="286.5526,279.3055 287.9631,280.6833 287.9898,282.9387 286.6125,284.3488 285.2221,285.7721 282.979,285.7857 281.5684,284.4079 280.8409,283.6972 280.1133,282.9865 279.3858,282.2758 277.9752,280.8979 277.9368,278.6556 279.3271,277.2323 280.7045,275.8222 282.9594,275.7955 284.3699,277.1734 286.8065,279.5535 289.243,281.9335 291.6795,284.3136 293.0898,285.6912 293.1162,287.9463 291.7389,289.3564 290.5522,290.5712 288.7362,290.762 287.3441,289.9299" stroke="black" stroke-width="1" /><polyline fill="none" points="268.716,287.1874 271.4993,290.4695 276.1554,286.5211 280.144,299.9744" stroke="black" stroke-width="1" /><polyline fill="none" points="268.4328,308.8305 265.8023,305.0633 263.1718,301.2961 260.5413,297.529 259.4026,295.8982 259.8543,293.701 261.415,292.6111 262.9615,291.5313 265.1801,291.8639 266.3188,293.4947 267.1826,294.7316 268.0463,295.9685 268.91,297.2054 270.0487,298.8362 269.5963,301.0331 268.0499,302.1129 266.4891,303.2028 264.2711,302.8705 263.1324,301.2397" stroke="black" stroke-width="1" /><polyline fill="none" points="259.9476,309.979 259.3009,314.2289 250.8453,299.3153" stroke="black" stroke-width="1" /><polyline fill="none" points="245.8115,320.7961 246.7179,320.3892 247.223,319.5043 246.7034,318.347 246.2002,317.2261 245.697,316.1053 245.1937,314.9845 244.6413,315.2325 244.0888,315.4806 243.5363,315.7286 244.5999,315.2511 245.6635,314.7736 246.7271,314.2961 246.2159,314.5255 245.7048,314.755 245.1937,314.9845 243.6465,311.5385 242.0994,308.0925 240.5522,304.6465" stroke="black" stroke-width="1" /><polyline fill="none" points="231.8817,326.2922 230.4005,321.9428 228.9194,317.5934 227.4382,313.244 226.797,311.3612 227.841,309.3758 229.643,308.7621 231.4284,308.1541 233.4675,309.0896 234.1087,310.9725 234.595,312.4005 235.0813,313.8286 235.5677,315.2567 236.2088,317.1395 235.1643,319.1244 233.3789,319.7324 231.5769,320.3461 229.5384,319.4111 228.8972,317.5283" stroke="black" stroke-width="1" /><polyline fill="none" points="223.2827,319.1569 223.7448,321.0915 222.5194,322.9701 220.6679,323.4123 218.817,323.8544 216.8909,322.7285 216.4288,320.7939 216.0784,319.3265 215.7279,317.8592 215.3775,316.3918 214.9155,314.4576 216.1247,312.5821 217.9756,312.14 219.8272,311.6978 221.7531,312.8245 222.215,314.7587 222.2205,314.7574 222.2259,314.7561 222.2314,314.7549 223.2987,319.2238 224.3661,323.6928 225.4335,328.1618" stroke="black" stroke-width="1" /><polyline fill="none" points="204.1319,325.3689 203.8554,323.4166 205.1942,321.6171 207.1466,321.3406 209.116,321.0618 210.9177,322.4165 211.1942,324.3689 211.3368,325.3761 211.4794,326.3834 211.622,327.3906 211.8985,329.343 210.5438,331.1454 208.5911,331.4219 206.6221,331.7008 204.8362,330.3431 204.5597,328.3907 204.0822,325.0182 203.6046,321.6458 203.1271,318.2734 202.8507,316.3214 204.1895,314.5215 206.1418,314.2451 207.8223,314.0071 209.3784,314.9645 209.9733,316.4736" stroke="black" stroke-width="1" /><polyline fill="none" points="191.1653,319.1556 191.0721,317.1691 192.6098,315.552 194.511,315.4628 196.4122,315.3736 198.1114,316.8388 198.2046,318.8253 198.2753,320.3322 198.346,321.8392 198.4167,323.3462 198.5099,325.333 196.9554,326.9502 195.0542,327.0394 193.153,327.1286 191.4706,325.6633 191.3774,323.6765" stroke="black" stroke-width="1" /><polyline fill="none" points="185.6397,323.6772 185.5465,325.6641 183.8477,327.1286 181.9461,327.0394 180.0453,326.9502 178.5075,325.3338 178.6008,323.347 178.6715,321.84 178.7422,320.333 178.8129,318.826 178.9061,316.8396 180.5885,315.3736 182.4894,315.4628 184.3909,315.552 185.9283,317.1691 185.8351,319.1556 185.8407,319.1558 185.8463,319.1561 185.8518,319.1563 185.6365,323.746 185.4211,328.3356 185.2057,332.9252" stroke="black" stroke-width="1" /><polyline fill="none" points="165.3836,330.9586 167.4155,331.2463 169.4473,331.5341 171.4791,331.8217 171.8581,329.1451 172.2372,326.4686 172.6162,323.7919 171.8005,324.9058 170.7676,325.4701 169.2908,325.261 167.2536,324.9725 165.913,323.0682 166.1797,321.1844 166.3704,319.8377 166.5611,318.491 166.7518,317.1442 167.0307,315.1752 168.8136,313.9556 170.6645,314.2177 172.4977,314.4773 173.855,316.1416 173.5761,318.1106" stroke="black" stroke-width="1" /><polyline fill="none" points="153.1583,328.2778 154.1247,328.5087 155.0649,328.1159 155.3596,326.882 155.6451,325.687 155.9305,324.492 156.2159,323.297 155.6268,323.1563 155.0378,323.0156 154.4487,322.875 155.5827,323.1458 156.7167,323.4166 157.8507,323.6875 157.3057,323.5573 156.7608,323.4272 156.2159,323.297 157.0934,319.623 157.9709,315.9489 158.8484,312.2748" stroke="black" stroke-width="1" /><polyline fill="none" points="145.0047,308.0072 143.6174,312.0808 149.3964,314.0488 139.9001,324.3795" stroke="black" stroke-width="1" /><polyline fill="none" points="133.7205,319.4801 132.7513,321.6387 126.259,318.7238 137.8333,305.1279" stroke="black" stroke-width="1" /><polyline fill="none" points="121.0563,300.4344 122.0371,298.7045 124.2004,298.157 125.8561,299.0957 127.5118,300.0345 128.1674,302.1802 127.1865,303.9102 126.4424,305.2225 125.6984,306.5349 124.9543,307.8473 123.9733,309.5775 121.7957,310.1161 120.14,309.1774 118.4844,308.2386 117.843,306.1018 118.824,304.3716" stroke="black" stroke-width="1" /><polyline fill="none" points="103.5015,305.1365 105.184,306.3114 106.8666,307.4862 108.5491,308.6611 110.0967,306.4446 111.6444,304.2282 113.1921,302.0117 111.9611,302.6368 110.7846,302.6734 109.5618,301.8195 107.8748,300.6415 107.5394,298.3369 108.6287,296.777 109.4074,295.6618 110.1861,294.5466 110.9648,293.4315 112.1033,291.801 114.245,291.5187 115.7776,292.5889 117.2957,293.6489 117.7544,295.7469 116.6158,297.3774" stroke="black" stroke-width="1" /><polyline fill="none" points="93.8072,297.2205 94.565,297.8631 95.5812,297.9377 96.4017,296.9701 97.1963,296.0331 97.9909,295.096 98.7856,294.159 98.3237,293.7673 97.8618,293.3756 97.3999,292.9839 98.2891,293.7379 99.1783,294.492 100.0675,295.2461 99.6402,294.8837 99.2129,294.5214 98.7856,294.159 101.2287,291.278 103.6718,288.3971 106.1149,285.5161" stroke="black" stroke-width="1" /><polyline fill="none" points="89.1384,281.0458 89.1344,281.0496 89.1305,281.0534 89.1266,281.0573 90.7944,279.4281 92.4623,277.7989 94.1301,276.1697 94.9009,275.4167 94.6685,274.5869 94.2741,274.1832 94.7775,274.6985 94.7568,275.5575 94.228,276.0741 94.1954,276.106 94.1627,276.1378 94.1301,276.1697 95.5963,276.2723 96.9973,276.7251 98.0392,277.7918 98.902,278.675 99.8621,280.5416 98.0594,282.3026 97.1148,283.2252 95.9993,283.2849 94.938,282.8353 94.4192,282.6236 93.0469,281.6854 92.121,281.0565 91.1709,280.4268 90.0829,280.1231 89.1384,281.0458 88.1818,281.9802 87.9762,284.0748 89.4137,285.5464 90.7678,286.9327 92.065,286.9118 93.086,286.7058" stroke="black" stroke-width="1" /><polyline fill="none" points="86.8499,275.2595 85.3165,276.4992 83.0736,276.2619 81.8343,274.7291 80.5833,273.1818 80.8321,270.9525 82.3655,269.7128 83.1564,269.0733 83.9473,268.4339 84.7382,267.7945 86.2716,266.5547 88.503,266.7788 89.754,268.3261 90.9932,269.8589 90.756,272.1014 89.2226,273.3412 86.574,275.4826 83.9253,277.624 81.2766,279.7655 79.7435,281.005 77.5008,280.7675 76.2615,279.2347 75.1937,277.914 75.2167,276.0882 76.2058,274.803" stroke="black" stroke-width="1" /><polyline fill="none" points="72.3424,268.308 68.0576,267.9616 82.34,258.4788" stroke="black" stroke-width="1" /><polyline fill="none" points="65.3923,250.322 67.13,249.3899 69.2805,250.0269 70.2126,251.7646 71.1527,253.5174 70.5015,255.6755 68.7639,256.6076 67.8674,257.0884 66.9709,257.5693 66.0745,258.0502 64.3368,258.9822 62.178,258.3314 61.2458,256.5934 60.3058,254.8409 60.9652,252.6967 62.7029,251.7646 65.7044,250.1546 68.7059,248.5445 71.7075,246.9345 73.4448,246.0026 75.5957,246.6395 76.5277,248.3772 77.33,249.8728 76.9672,251.6634 75.7555,252.7418" stroke="black" stroke-width="1" /><polyline fill="none" points="66.7584,243.6264 64.9411,244.3917 62.8521,243.541 62.0872,241.7243 61.315,239.8906 62.1729,237.818 63.9902,237.0527 64.9276,236.658 65.8649,236.2633 66.8022,235.8686 68.6195,235.1033 70.701,235.9381 71.4732,237.7719 72.2382,239.5885 71.3877,241.677 69.5704,242.4423 66.4313,243.7641 63.2922,245.086 60.1531,246.4079 58.3361,247.173 56.2475,246.3222 55.4825,244.5055 54.8234,242.9404 55.3524,241.1927 56.6595,240.2327" stroke="black" stroke-width="1" /><polyline fill="none" points="49.7286,228.6396 54.1116,227.2608 58.4945,225.882 62.8774,224.5032 64.7748,223.9063 66.7352,224.9966 67.3064,226.8125 67.8724,228.6117 66.8894,230.6282 64.992,231.2251 63.5529,231.6778 62.1138,232.1305 60.6747,232.5833 58.7774,233.1801 56.8176,232.0893 56.2516,230.2901 55.6803,228.4742 56.6628,226.4582 58.5601,225.8613" stroke="black" stroke-width="1" /><polyline fill="none" points="55.2824,217.0124 55.0424,215.4075 53.2081,214.0007 51.2883,214.4119 50.8415,214.5076 50.3947,214.6033 49.9479,214.699 48.1368,215.0869 46.9779,216.8794 47.3694,218.7073 47.7573,220.5181 49.5824,221.6707 51.3597,221.2901 51.8065,221.1944 52.2533,221.0987 52.7001,221.003 54.5115,220.615 55.6702,218.8232 55.2824,217.0124 54.855,215.0173 56.1468,213.1082 58.0742,212.6954 58.7337,212.5542 59.3931,212.4129 60.0526,212.2717 61.9804,211.8587 63.9079,213.0782 64.3352,215.0734 64.759,217.0518 63.4999,218.9527 61.5721,219.3656 60.9017,219.5092 60.2312,219.6528 59.5608,219.7964 57.9083,220.1504 55.8436,219.1484" stroke="black" stroke-width="1" /><polyline fill="none" points="51.3022,200.919 53.2606,200.6884 55.0282,202.069 55.2588,204.0274 55.4914,206.0027 54.0948,207.7722 52.1364,208.0028 51.1261,208.1218 50.1158,208.2408 49.1055,208.3597 47.1472,208.5904 45.377,207.1938 45.1463,205.2352 44.9137,203.2602 46.313,201.5066 48.2713,201.2759 51.654,200.8776 55.0367,200.4792 58.4194,200.0809 60.3773,199.8503 62.1453,201.2309 62.3759,203.1892 62.5744,204.8748 61.5808,206.408 60.0582,206.9674" stroke="black" stroke-width="1" /><polyline fill="none" points="55.0264,195.1895 53.0551,195.2357 51.4231,193.6789 51.3769,191.7083 51.3303,189.7191 52.8879,188.1049 54.8592,188.0587 55.876,188.0349 56.8928,188.011 57.9096,187.9872 59.8809,187.941 61.5118,189.4804 61.5584,191.4695 61.6046,193.4401 60.0481,195.0718 58.0768,195.118 54.6716,195.1978 51.2665,195.2777 47.8614,195.3575 45.8904,195.4037 44.2588,193.8469 44.2126,191.8763 44.1727,190.1785 45.3052,188.7461 46.8732,188.3317" stroke="black" stroke-width="1" /><polyline fill="none" points="47.7766,180.8288 44.5938,177.9393 61.6953,179.1441" stroke="black" stroke-width="1" /><polyline fill="none" points="61.8774,164.0082 62.6758,164.7486 63.4465,165.6582 63.0991,167.7561 62.7881,169.6342 60.9998,170.9889 58.9865,170.6555 57.5151,170.4118 56.0438,170.1681 54.5725,169.9245 52.6102,169.5995 51.3548,167.7408 51.6658,165.8628 51.9825,163.9509 53.7756,162.5626 55.7378,162.8876 56.4706,163.0089 57.2034,163.1303 57.9362,163.2516 57.5487,165.5916 57.1611,167.9316 56.7737,170.2716" stroke="black" stroke-width="1" /><polyline fill="none" points="58.0663,150.7571 58.0611,150.7557 58.0558,150.7543 58.0505,150.7529 60.3049,151.3476 62.5593,151.9422 64.8137,152.5368 65.8556,152.8117 66.4483,152.1861 66.5923,151.6404 66.4085,152.337 65.6608,152.7603 64.946,152.5717 64.9019,152.5601 64.8578,152.5485 64.8137,152.5368 65.4785,153.8477 65.8093,155.2824 65.429,156.7242 65.1141,157.918 64.0053,159.7003 61.5686,159.0576 60.2919,158.7209 59.6679,157.7943 59.5088,156.6527 59.424,156.0988 59.5244,154.4395 59.5887,153.3221 59.6412,152.1835 59.3431,151.0939 58.0663,150.7571 56.7734,150.4161 54.8704,151.3152 54.3457,153.3044 53.8514,155.1782 54.5354,156.2805 55.2365,157.0509" stroke="black" stroke-width="1" /><polyline fill="none" points="60.498,137.5789 62.3492,138.2581 63.3021,140.2885 62.6229,142.1397 61.9377,144.007 59.8922,144.9543 58.041,144.2751 57.086,143.9247 56.131,143.5742 55.1759,143.2238 53.3248,142.5446 52.3767,140.4988 53.0561,138.6473 53.7411,136.7804 55.7818,135.8484 57.6329,136.5276 60.8306,137.7009 64.0282,138.8742 67.2258,140.0475 69.0766,140.7266 70.0299,142.7571 69.3506,144.6083 68.766,146.2016 67.1868,147.1203 65.5757,146.9313" stroke="black" stroke-width="1" /><polyline fill="none" points="60.3724,129.8039 58.4696,125.9492 73.9405,133.3359" stroke="black" stroke-width="1" /><polyline fill="none" points="70.7299,122.0827 69.0231,121.0614 68.5355,118.8721 69.5129,117.2386 70.4901,115.6057 72.6414,115.0146 74.3481,116.0359 75.6427,116.8106 76.9372,117.5852 78.2318,118.3598 79.9383,119.381 80.4349,121.5565 79.4578,123.1894 78.4803,124.8229 76.3286,125.4133 74.6221,124.3922 74.6193,124.397 74.6164,124.4018 74.6135,124.4066 70.6708,122.0474 66.7281,119.6881 62.7854,117.3289" stroke="black" stroke-width="1" /><polyline fill="none" points="71.8979,107.5029 69.9901,106.1031 74.2002,100.3653 85.0704,114.5304" stroke="black" stroke-width="1" /><polyline fill="none" points="94.4637,100.2373 94.744,101.2895 94.9107,102.47 93.4977,104.0591 92.2328,105.4818 89.9976,105.6736 88.4725,104.3176 87.358,103.3266 86.2434,102.3356 85.1289,101.3447 83.6425,100.023 83.5722,97.7812 84.8371,96.3586 86.1248,94.9103 88.382,94.6926 89.8684,96.0143 90.4235,96.5078 90.9786,97.0014 91.5337,97.4949 89.9576,99.2674 88.3816,101.04 86.8055,102.8125" stroke="black" stroke-width="1" /><polyline fill="none" points="89.9204,87.6789 88.7045,86.3744 88.72,84.2035 90.1376,82.8822 91.5545,81.5616 93.6765,81.6241 95.0558,83.104 95.2739,83.338 95.492,83.572 95.7101,83.806 97.8143,86.0636 96.1955,88.2749 95.9442,88.5092 95.7018,88.7351 95.4594,88.961 95.217,89.1869 95.4594,88.961 95.7018,88.7351 95.9442,88.5092 96.6846,87.8191 99.0835,87.2242 100.7196,88.9797 101.199,89.4941 101.6784,90.0084 102.1578,90.5228 103.5134,91.9773 103.4096,94.2305 101.9546,95.5866 100.4871,96.9544 98.2452,96.8874 96.8895,95.4329" stroke="black" stroke-width="1" /><polyline fill="none" points="105.4445,74.7974 105.6396,78.9468 105.8347,83.0962 106.0299,87.2455 103.9511,84.5474 101.8724,81.8492 99.7936,79.151 98.5901,77.589 98.8807,75.3521 100.4422,74.149 102.0184,72.9347 104.241,73.2354 105.4445,74.7974 107.5232,77.4956 109.602,80.1937 111.6807,82.8919 112.8842,84.4539 112.6076,86.6792 111.0453,87.8829 109.47,89.0966 107.2333,88.8076 106.0299,87.2455" stroke="black" stroke-width="1" /><polyline fill="none" points="118.1793,70.0413 119.2312,71.7092 118.7469,73.8991 117.079,74.951 115.3967,76.0121 113.1981,75.5141 112.1462,73.8463 111.6035,72.9858 111.0609,72.1253 110.5182,71.2649 109.4663,69.597 109.9639,67.3979 111.632,66.3458 113.3141,65.2849 115.4994,65.792 116.5513,67.4599 118.3683,70.3409 120.1852,73.2218 122.0022,76.1028 123.0539,77.7704 122.5697,79.9606 120.9019,81.0125 119.4663,81.9179 117.6546,81.6818 116.4938,80.5489" stroke="black" stroke-width="1" /><polyline fill="none" points="132.5533,70.3986 133.452,72.1726 132.7115,74.2777 131.0136,75.1377 129.3158,75.9978 127.1655,75.3571 126.2669,73.5831 125.5851,72.2373 124.9034,70.8915 124.2216,69.5457 123.3228,67.7714 124.0786,65.6594 125.7764,64.7993 127.4743,63.9392 129.6092,64.5868 130.5081,66.3612" stroke="black" stroke-width="1" /><polyline fill="none" points="138.7073,52.8926 140.3907,57.1678 142.0741,61.443 143.7575,65.7182 144.4863,67.5689 143.5365,69.6011 141.7652,70.2985 140.0103,70.9896 137.9296,70.1506 137.2008,68.2999 136.6481,66.8962 136.0954,65.4925 135.5427,64.0888 134.8139,62.2381 135.7643,60.2064 137.5193,59.5154 139.2905,58.8179 141.3706,59.6563 142.0993,61.507" stroke="black" stroke-width="1" /><polyline fill="none" points="147.6313,59.6171 147.0791,57.7063 148.2151,55.7723 150.0439,55.2437 151.872,54.7154 153.8487,55.7498 154.4009,57.6606 154.8198,59.1099 155.2386,60.5592 155.6575,62.0086 156.2096,63.919 155.0896,65.8491 153.2615,66.3774 151.4327,66.906 149.4561,65.8708 148.904,63.9603 148.8986,63.9619 148.8932,63.9634 148.8879,63.965 147.6122,59.5509 146.3365,55.1369 145.0609,50.7229" stroke="black" stroke-width="1" /><polyline fill="none" points="160.0271,50.4739 162.0093,46.6594 165.2059,63.5026" stroke="black" stroke-width="1" /><polyline fill="none" points="152.2665,111.4608 268.4255,140.8637 220.8597,130.6987 188.8697,188.4998 280.8196,188.8365 126.744,171.7336 108.5745,236.1363 108.8569,140.3048 268.4255,140.8637 250.763,172.1919" stroke="black" stroke-width="1" /><polyline fill="none" points="266.1323,180.8569 235.3938,163.5269" stroke="black" stroke-width="1" /><polyline fill="none" points="152.6261,108.5745 152.4813,106.7344 152.0504,104.9397 151.3441,103.2345 150.3797,101.6607 149.181,100.2572 147.7775,99.0585 146.2038,98.0941 144.4985,97.3878 142.7038,96.9569 140.8637,96.8121 139.0237,96.9569 137.2289,97.3878 135.5237,98.0941 133.95,99.0585 132.5465,100.2572 131.3477,101.6607 130.3834,103.2344 129.677,104.9397 129.2462,106.7344 129.1013,108.5745 129.2462,110.4145 129.677,112.2093 130.3834,113.9145 131.3477,115.4882 132.5465,116.8917 133.95,118.0904 135.5237,119.0548 137.2289,119.7612 139.0237,120.192 140.8637,120.3369 142.7038,120.192 144.4985,119.7612 146.2038,119.0548 147.7775,118.0904 149.181,116.8917 150.3797,115.4882 151.3441,113.9145 152.0504,112.2093 152.4813,110.4145 152.6261,108.5745" stroke="black" stroke-width="1" /><polyline fill="none" points="188.5,69.0664 199.6839,69.5912 210.7696,71.161 221.6595,73.7619 232.2581,77.3712 242.4721,81.9571 252.2118,87.4792 261.3915,93.8892 269.9308,101.1306 277.7544,109.1398 284.7936,117.8464 290.9866,127.1739 296.2789,137.0404 300.6241,147.3591 303.9839,158.0393 306.3289,168.9873 307.6383,180.1067 307.9008,191.2998 307.114,202.4684 305.2847,213.5142 302.4292,224.3402 298.5725,234.8512 293.7484,244.9549 287.9994,254.5625 281.376,263.5894 273.9365,271.9565 265.7461,279.5902 256.8768,286.4234 247.4067,292.3961 237.4188,297.4556 227.0011,301.5577 216.2451,304.6663 205.2452,306.7539 194.0981,307.8023 182.9019,307.8023 171.7548,306.7539 160.7549,304.6663 149.9989,301.5577 139.5811,297.4556 129.5933,292.3961 120.1232,286.4234 111.2539,279.5902 103.0635,271.9565 95.6239,263.5894 89.0006,254.5625 83.2516,244.9549 78.4275,234.8512 74.5708,224.3402 71.7153,213.5142 69.8861,202.4684 69.0992,191.2998 69.3617,180.1067 70.6712,168.9872 73.0161,158.0393 76.3759,147.3591 80.7211,137.0404 86.0134,127.174 92.2064,117.8464 99.2457,109.1398 107.0692,101.1306 115.6085,93.8892 124.7882,87.4792 134.5279,81.957 144.7419,77.3712 155.3405,73.7619 166.2304,71.161 177.3161,69.5912 188.5,69.0664" stroke="black" stroke-width="1" />

    </g>
  </g>
  <WCB
     pausedposy="0"
     pausedposx="0"
     lastknownposy="0"
     lastknownposx="0"
     lastpathnc="0"
     lastpath="0"
     node="0"
     layer="0" />
</svg>
