<?xml version="1.0" encoding="UTF-8" standalone="no"?>
<!-- Created with Inkscape (http://www.inkscape.org/) -->

<svg
   xmlns:dc="http://purl.org/dc/elements/1.1/"
   xmlns:cc="http://creativecommons.org/ns#"
   xmlns:rdf="http://www.w3.org/1999/02/22-rdf-syntax-ns#"
   xmlns:svg="http://www.w3.org/2000/svg"
   xmlns="http://www.w3.org/2000/svg"
   xmlns:sodipodi="http://sodipodi.sourceforge.net/DTD/sodipodi-0.dtd"
   xmlns:inkscape="http://www.inkscape.org/namespaces/inkscape"
   width="100mm"
   height="100mm"
   viewBox="0 0 100 100"
   version="1.1"
   id="svg19124"
   inkscape:version="0.92.3 (2405546, 2018-03-11)"
   sodipodi:docname="inkscape_template_TMP.svg"
   shape-rendering="crispEdges">
  <sodipodi:namedview
     pagecolor="#ffffff"
     bordercolor="#666666"
     borderopacity="1"
     objecttolerance="10"
     gridtolerance="10"
     guidetolerance="10"
     inkscape:pageopacity="0"
     inkscape:pageshadow="2"
     inkscape:window-width="1568"
     inkscape:window-height="1550"
     id="namedview24021"
     showgrid="false"
     inkscape:zoom="0.62441667"
     inkscape:cx="712.66515"
     inkscape:cy="409.98265"
     inkscape:window-x="0"
     inkscape:window-y="0"
     inkscape:window-maximized="0"
     inkscape:current-layer="layer1" />
  <defs
     id="defs19118" />
  <metadata
     id="metadata19121">
    <rdf:RDF>
      <cc:Work
         rdf:about="">
        <dc:format>image/svg+xml</dc:format>
        <dc:type
           rdf:resource="http://purl.org/dc/dcmitype/StillImage" />
        <dc:title />
      </cc:Work>
    </rdf:RDF>
  </metadata>
  <g
     transform="translate(0,-197)"
     id="layer1"
     inkscape:groupmode="layer"
     inkscape:label="Layer 1">
    <g
       id="g24447"
       transform="matrix(0.26458333,0,0,0.26458333,0.10666333,197.9735)">

<polyline fill="none" points="192.1004,47.7394 189.7225,51.1455 187.3447,54.5516 184.9669,57.9577 184.9669,54.5516 184.9669,51.1455 184.9669,47.7394 184.9669,45.7676 186.5623,44.1729 188.5334,44.1729 190.5231,44.1729 192.1004,45.7676 192.1004,47.7394 192.1004,51.1455 192.1004,54.5516 192.1004,57.9577 192.1004,59.9295 190.5231,61.5235 188.5509,61.5235 186.5623,61.5235 184.9669,59.9295 184.9669,57.9577" stroke="black" stroke-width="1" /><polyline fill="none" points="197.8298,61.5877 200.7471,57.7851 198.696,53.7706 202.935,62.0679 200.7471,57.7851 203.4811,54.2207" stroke="black" stroke-width="1" /><polyline fill="none" points="218.7234,47.237 217.8667,51.7512 217.01,56.2653 216.1533,60.7794 215.7824,62.7335 213.895,63.9457 212.0247,63.5908 210.1717,63.2391 208.8593,61.4196 209.2302,59.4654 209.5115,57.9833 209.7928,56.5011 210.0741,55.0189 210.4449,53.0648 212.3326,51.8533 214.1856,52.205 216.0559,52.56 217.368,54.3788 216.9972,56.3329" stroke="black" stroke-width="1" /><polyline fill="none" points="224.397,52.1393 224.8921,50.4261 226.7629,49.3247 228.6247,49.8627 230.4854,50.4005 231.5213,52.2535 230.9597,54.1969 230.8709,54.5042 230.7821,54.8115 230.6933,55.1189 229.8364,58.0837 227.1077,57.8301 226.7776,57.7347 226.4593,57.6427 226.141,57.5507 225.8227,57.4587 226.141,57.5507 226.4593,57.6427 226.7776,57.7347 227.75,58.0157 229.4922,59.7687 228.8259,62.0741 228.6307,62.7496 228.4355,63.4251 228.2403,64.1005 227.6883,66.0107 225.7014,67.0786 223.7906,66.5264 221.8634,65.9694 220.7697,64.0112 221.3217,62.1011" stroke="black" stroke-width="1" /><polyline fill="none" points="236.814,56.2442 237.5365,54.4095 239.6044,53.5103 241.4392,54.2327 243.2902,54.9616 244.2089,57.0737 243.4865,58.9084 243.2034,59.6272 242.8721,60.0484 242.5262,60.3186 239.028,63.0559 235.5298,65.7931 232.0315,68.5304 231.9793,68.6631 231.927,68.7958 231.8748,68.9285 234.0765,69.7954 236.2782,70.6624 238.48,71.5294" stroke="black" stroke-width="1" /><polyline fill="none" points="252.7238,68.8641 252.7263,68.8592 252.7288,68.8543 252.7312,68.8494 251.6776,70.9293 250.624,73.0091 249.5704,75.089 249.0835,76.0502 249.5711,76.7609 250.0745,77.0159 249.4318,76.6903 249.1745,75.8705 249.5086,75.211 249.5292,75.1703 249.5498,75.1297 249.5704,75.089 248.1494,75.4646 246.6773,75.4875 245.3471,74.8137 244.2456,74.2557 242.7351,72.7983 243.8739,70.5502 244.4706,69.3723 245.5073,68.9562 246.6569,69.0397 247.2163,69.0728 248.8178,69.5186 249.8969,69.8154 250.9993,70.1052 252.1271,70.0419 252.7238,68.8641 253.3281,67.6712 252.8475,65.6221 251.0123,64.6924 249.2836,63.8167 248.0624,64.2546 247.1623,64.7788" stroke="black" stroke-width="1" /><polyline fill="none" points="260.8449,67.4668 261.7962,65.9584 263.8993,65.4197 265.5384,66.4535 267.1767,67.4867 267.6574,69.5545 266.5783,71.2655 266.4077,71.5361 266.237,71.8067 266.0664,72.0772 264.42,74.6876 261.869,73.6864 261.5784,73.5031 261.2982,73.3263 261.0179,73.1496 260.7377,72.9729 261.0179,73.1496 261.2982,73.3263 261.5784,73.5031 262.4345,74.043 263.6215,76.2109 262.3414,78.2406 261.9663,78.8353 261.5912,79.4301 261.2162,80.0248 260.1555,81.7065 257.9503,82.1809 256.2679,81.1198 254.5711,80.0497 254.0641,77.8648 255.1248,76.183" stroke="black" stroke-width="1" /><polyline fill="none" points="269.9359,88.4934 268.9061,88.847 267.7402,89.0962 266.0557,87.7984 264.5477,86.6366 264.1992,84.4204 265.4447,82.8037 266.3549,81.6223 267.2651,80.4409 268.1753,79.2595 269.3892,77.6839 271.6205,77.4562 273.1285,78.618 274.6637,79.8008 275.0395,82.0371 273.8256,83.6127 273.3723,84.2011 272.9189,84.7895 272.4656,85.3779 270.5867,83.9303 268.7078,82.4827 266.8289,81.0352" stroke="black" stroke-width="1" /><polyline fill="none" points="289.4206,85.138 286.2879,88.4991 283.1552,91.8603 280.0225,95.2214 278.6664,96.6764 276.4233,96.695 275.0307,95.397 273.6509,94.1111 273.5115,91.872 274.8676,90.4169 275.8962,89.3133 276.9248,88.2097 277.9534,87.1061 279.3095,85.6511 281.5524,85.6334 282.9322,86.9193 284.3247,88.2173 284.4644,90.4556 283.1083,91.9106" stroke="black" stroke-width="1" /><polyline fill="none" points="285.2798,105.9926 288.4958,103.1331 284.4393,98.5709 297.7954,94.2679" stroke="black" stroke-width="1" /><polyline fill="none" points="304.1183,108.1327 299.9655,108.2306 295.8127,108.3284 291.6599,108.4262 294.4061,106.4112 297.1523,104.3963 299.8984,102.3814 301.4882,101.2149 303.7177,101.5578 304.8838,103.147 306.0609,104.7513 305.7082,106.9662 304.1183,108.1327 301.3722,110.1477 298.626,112.1626 295.8799,114.1776 294.2901,115.344 292.0719,115.0154 290.9052,113.4253 289.7288,111.8219 290.0701,109.5927 291.6599,108.4262" stroke="black" stroke-width="1" /><polyline fill="none" points="308.401,112.4713 310.4314,111.2564 314.0856,117.3632 296.8121,121.8841" stroke="black" stroke-width="1" /><polyline fill="none" points="307.5239,127.7279 309.3033,126.8783 311.4298,127.6301 312.2791,129.4089 313.1364,131.2044 312.3766,133.315 310.5972,134.1646 309.6793,134.6028 308.7615,135.041 307.8437,135.4792 306.0643,136.3288 303.946,135.5925 303.0887,133.7969 302.2394,132.0181 302.991,129.8921 304.7705,129.0425 307.8442,127.575 310.9178,126.1074 313.9916,124.6398 315.7707,123.7904 317.8969,124.5424 318.7462,126.3212 319.4779,127.8537 319.0314,129.6243 317.7708,130.6445" stroke="black" stroke-width="1" /><polyline fill="none" points="319.4398,136.7256 321.291,136.0463 323.3371,136.9942 324.0164,138.8454 324.7016,140.713 323.7336,142.803 321.8825,143.4822 321.1572,143.7483 320.6224,143.7806 320.1906,143.7016 315.8205,142.9062 311.4505,142.1107 307.0804,141.3153 306.9465,141.3644 306.8126,141.4136 306.6787,141.4627 307.4938,143.6841 308.3089,145.9056 309.124,148.127" stroke="black" stroke-width="1" /><polyline fill="none" points="329.0002,154.9091 324.5575,156.0809 320.1148,157.2528 315.6721,158.4246 313.7488,158.9319 311.8417,157.751 311.3562,155.9103 310.8751,154.0865 311.9516,152.1182 313.8748,151.611 315.3336,151.2262 316.7923,150.8414 318.251,150.4567 320.1743,149.9494 322.0808,151.1308 322.5619,152.9546 323.0474,154.7953 321.9715,156.763 320.0482,157.2703" stroke="black" stroke-width="1" /><polyline fill="none" points="322.9498,169.5073 322.9551,169.5064 322.9606,169.5055 322.9659,169.5046 320.6658,169.8855 318.3656,170.2664 316.0654,170.6473 315.0023,170.8234 314.7178,171.6369 314.8101,172.1936 314.6924,171.4829 315.2011,170.7905 315.9305,170.6697 315.9754,170.6622 316.0204,170.6548 316.0654,170.6473 314.922,169.7238 314.0326,168.5505 313.789,167.0794 313.5873,165.8613 313.8687,163.7812 316.3549,163.3695 317.6576,163.1538 318.6064,163.7435 319.2191,164.7198 319.5233,165.1903 320.1113,166.7452 320.5104,167.7909 320.9289,168.8511 321.6471,169.723 322.9498,169.5073 324.269,169.2888 325.6368,167.6892 325.3007,165.6596 324.9841,163.7477 323.9085,163.0222 322.9535,162.6066" stroke="black" stroke-width="1" /><polyline fill="none" points="324.3994,178.9469 324.412,180.5696 326.0309,182.2198 327.9894,182.0818 328.4452,182.0497 328.9009,182.0176 329.3568,181.9855 331.2044,181.8553 332.6031,180.243 332.4718,178.3782 332.3416,176.531 330.6961,175.1338 328.8831,175.2615 328.4272,175.2937 327.9715,175.3258 327.5157,175.3579 325.6677,175.4881 324.2692,177.0997 324.3994,178.9469 324.5427,180.9823 322.9961,182.6914 321.0298,182.8299 320.3571,182.8773 319.6843,182.9247 319.0116,182.9721 317.0449,183.1106 315.3074,181.6329 315.1641,179.5976 315.0219,177.5793 316.5351,175.8737 318.5017,175.7351 319.1856,175.6869 319.8696,175.6387 320.5535,175.5906 322.2394,175.4718 324.1431,176.7534" stroke="black" stroke-width="1" /><polyline fill="none" points="332.5797,193.7827 332.603,192.7894 332.0221,191.9523 330.7538,191.9226 329.5256,191.8938 328.2973,191.865 327.069,191.8362 327.0548,192.4416 327.0406,193.0471 327.0264,193.6525 327.0537,192.487 327.0811,191.3214 327.1084,190.1559 327.0953,190.716 327.0821,191.2761 327.069,191.8362 323.2927,191.7476 319.5163,191.6591 315.7399,191.5705" stroke="black" stroke-width="1" /><polyline fill="none" points="328.7042,201.4854 330.6625,201.716 332.0594,203.4863 331.8288,205.4446 331.5961,207.4203 329.7882,208.8473 327.8299,208.6166 327.0626,208.5263 326.5709,208.3134 326.2214,208.0478 322.6824,205.3634 319.1436,202.679 315.6046,199.9946 315.463,199.9779 315.3213,199.9612 315.1797,199.9445 314.9029,202.2945 314.6262,204.6446 314.3494,206.9946" stroke="black" stroke-width="1" /><polyline fill="none" points="315.5145,219.2456 313.57,218.8291 312.3985,216.9298 312.7971,215.0687 313.1958,213.2077 315.0459,211.9384 316.9904,212.3549 318.4656,212.6708 319.9408,212.9868 321.416,213.3028 323.3608,213.7194 324.5281,215.6349 324.1295,217.496 323.7308,219.3571 321.8849,220.6101 319.94,220.1935" stroke="black" stroke-width="1" /><polyline fill="none" points="323.8241,227.4002 325.7051,227.9919 326.7474,229.9915 326.1557,231.8725 325.5587,233.7702 323.5164,234.835 321.6354,234.2433 320.8985,234.0115 320.4551,233.7106 320.1612,233.3845 317.1849,230.0873 314.2086,226.7901 311.2322,223.4929 311.0962,223.4501 310.9601,223.4073 310.8241,223.3645 310.114,225.6217 309.4039,227.8789 308.6938,230.1362" stroke="black" stroke-width="1" /><polyline fill="none" points="305.9689,241.7369 305.3644,240.8313 304.8261,239.7675 305.6514,237.8077 306.3902,236.0533 308.4442,235.1511 310.325,235.9431 311.6995,236.5219 313.074,237.1006 314.4484,237.6794 316.2816,238.4514 317.0708,240.5508 316.332,242.3053 315.5799,244.0913 313.5134,245.025 311.6803,244.2531 310.9957,243.9649 310.3112,243.6766 309.6266,243.3883 310.5471,241.2024 311.4677,239.0164 312.3882,236.8304" stroke="black" stroke-width="1" /><polyline fill="none" points="308.5441,252.9151 307.6891,254.2944 308.1783,256.5537 309.9084,257.4818 310.311,257.6978 310.7137,257.9137 311.1163,258.1297 312.7485,259.0052 314.7918,258.3876 315.6754,256.7403 316.5507,255.1084 315.9042,253.0488 314.3025,252.1897 313.8999,251.9737 313.4972,251.7577 313.0946,251.5417 311.462,250.6661 309.4194,251.2832 308.5441,252.9151 307.5796,254.7132 305.3597,255.3337 303.6227,254.402 303.0284,254.0832 302.4341,253.7644 301.8397,253.4456 300.1024,252.5137 299.421,250.337 300.3855,248.5389 301.3419,246.7559 303.5317,246.1205 305.269,247.0524 305.8732,247.3764 306.4774,247.7005 307.0816,248.0246 308.5709,248.8235 309.4975,250.923" stroke="black" stroke-width="1" /><polyline fill="none" points="292.9619,261.0363 296.547,263.4167 299.9238,258.3307 307.4908,270.1478" stroke="black" stroke-width="1" /><polyline fill="none" points="295.7948,270.7732 297.3416,272.0237 297.5174,274.2598 296.3206,275.7401 295.1241,277.2199 292.9112,277.5035 291.3645,276.253 290.1913,275.3045 289.0182,274.356 287.845,273.4075 286.2986,272.1572 286.1118,269.9335 287.3082,268.4537 288.5051,266.9734 290.7184,266.6905 292.2648,267.9408 292.2683,267.9365 292.2718,267.9321 292.2754,267.9278 295.8484,270.8165 299.4214,273.7052 302.9944,276.594" stroke="black" stroke-width="1" /><polyline fill="none" points="289.4678,291.8159 286.181,288.6053 282.8942,285.3947 279.6074,282.1841 278.1846,280.7942 278.2187,278.5513 279.5489,277.1895 280.8668,275.8403 283.1086,275.7534 284.5314,277.1432 285.6106,278.1974 286.6898,279.2516 287.769,280.3058 289.1918,281.6956 289.157,283.9383 287.839,285.2875 286.5088,286.6493 284.2678,286.7365 282.845,285.3466" stroke="black" stroke-width="1" /><polyline fill="none" points="280.289,299.683 281.0468,299.0403 281.2864,298.05 280.4659,297.0824 279.6713,296.1454 278.8766,295.2083 278.082,294.2713 277.6201,294.663 277.1582,295.0547 276.6963,295.4464 277.5855,294.6923 278.4747,293.9383 279.3639,293.1842 278.9366,293.5466 278.5093,293.9089 278.082,294.2713 275.6389,291.3903 273.1958,288.5094 270.7527,285.6284" stroke="black" stroke-width="1" /><polyline fill="none" points="272.7668,302.7615 274.1215,304.7015 268.2866,308.7759 262.563,291.8628" stroke="black" stroke-width="1" /><polyline fill="none" points="254.7935,312.7243 255.1821,308.5885 255.5706,304.4528 255.9592,300.317 257.6391,303.28 259.3191,306.243 260.999,309.2059 261.9716,310.9213 261.3702,313.0954 259.6555,314.0676 257.9246,315.049 255.7661,314.4396 254.7935,312.7243 253.1136,309.7613 251.4337,306.7983 249.7537,303.8354 248.7812,302.1201 249.367,299.9555 251.0827,298.9828 252.8126,298.002 254.9866,298.6017 255.9592,300.317" stroke="black" stroke-width="1" /><polyline fill="none" points="246.4652,308.9159 247.2729,310.7147 246.4714,312.823 244.6732,313.6304 242.858,314.4453 240.7659,313.6362 239.9582,311.8374 239.5416,310.9095 239.1251,309.9817 238.7085,309.0539 237.9008,307.255 238.6866,305.1545 240.5018,304.3396 242.3,303.5322 244.4078,304.3335 245.2155,306.1324 246.6106,309.2396 248.0057,312.3469 249.4007,315.4541 250.2083,317.2527 249.4066,319.3607 247.6084,320.168 246.0591,320.8636 244.2995,320.3757 243.3091,319.0916" stroke="black" stroke-width="1" /><polyline fill="none" points="230.468,322.9068 231.6209,318.916 232.7738,314.9253 233.9267,310.9345 235.0247,314.1587 236.1227,317.383 237.2207,320.6072 237.8563,322.4738 236.8602,324.4977 234.9943,325.1331 233.1108,325.7745 231.1037,324.7734 230.468,322.9068 229.37,319.6826 228.272,316.4583 227.174,313.2341 226.5384,311.3675 227.5175,309.3502 229.3845,308.7144 231.267,308.0733 233.291,309.0679 233.9267,310.9345" stroke="black" stroke-width="1" /><polyline fill="none" points="223.2827,319.1569 223.7448,321.0915 222.5194,322.9701 220.6679,323.4123 218.817,323.8544 216.8909,322.7285 216.4288,320.7939 216.0784,319.3265 215.7279,317.8592 215.3775,316.3918 214.9155,314.4576 216.1247,312.5821 217.9756,312.14 219.8272,311.6978 221.7531,312.8245 222.215,314.7587 222.2205,314.7574 222.2259,314.7561 222.2314,314.7549 223.2987,319.2238 224.3661,323.6928 225.4335,328.1618" stroke="black" stroke-width="1" /><polyline fill="none" points="204.1319,325.3689 203.8554,323.4166 205.1942,321.6171 207.1466,321.3406 209.116,321.0618 210.9177,322.4165 211.1942,324.3689 211.3368,325.3761 211.4794,326.3834 211.622,327.3906 211.8985,329.343 210.5438,331.1454 208.5911,331.4219 206.6221,331.7008 204.8362,330.3431 204.5597,328.3907 204.0822,325.0182 203.6046,321.6458 203.1271,318.2734 202.8507,316.3214 204.1895,314.5215 206.1418,314.2451 207.8223,314.0071 209.3784,314.9645 209.9733,316.4736" stroke="black" stroke-width="1" /><polyline fill="none" points="198.4772,329.1531 198.5607,330.9344 197.1449,332.5801 195.2091,332.671 193.2743,332.7618 191.6963,331.3416 191.6015,329.3209 191.5865,329.0014 191.5715,328.6818 191.5565,328.3623 191.4119,325.2795 194.0767,324.64 194.4199,324.6238 194.7509,324.6083 195.0818,324.5928 195.4128,324.5773 195.0818,324.5928 194.7509,324.6083 194.4199,324.6238 193.4089,324.6713 191.1945,323.5735 191.082,321.1764 191.0491,320.474 191.0161,319.7717 190.9832,319.0693 190.89,317.0833 192.4265,315.4319 194.4133,315.3386 196.4172,315.2446 198.0838,316.7457 198.1769,318.7318" stroke="black" stroke-width="1" /><polyline fill="none" points="178.3371,325.8833 178.4296,323.9136 180.0804,322.3954 182.0501,322.4878 184.0369,322.581 185.5545,324.248 185.462,326.2177 185.4144,327.2338 185.3667,328.25 185.319,329.2662 185.2266,331.2359 183.5596,332.7541 181.5895,332.6617 179.6031,332.5685 178.1017,330.9016 178.1941,328.9319 178.3537,325.5295 178.5134,322.1272 178.673,318.7249 178.7654,316.7556 180.4164,315.2369 182.386,315.3293 184.0814,315.4089 185.4316,316.6396 185.7348,318.2332" stroke="black" stroke-width="1" /><polyline fill="none" points="166.4026,330.9731 167.3864,331.1124 168.2857,330.6334 168.4636,329.3773 168.6358,328.1608 168.8081,326.9443 168.9804,325.7278 168.3807,325.6429 167.7811,325.558 167.1815,325.4731 168.3358,325.6366 169.4902,325.8 170.6445,325.9635 170.0898,325.8849 169.5351,325.8064 168.9804,325.7278 169.51,321.9878 170.0396,318.2477 170.5692,314.5076" stroke="black" stroke-width="1" /><polyline fill="none" points="154.7853,314.7589 155.2472,312.8246 157.1735,311.698 159.0247,312.1401 160.8759,312.5823 162.1015,314.4617 161.6395,316.3959 161.2891,317.8633 160.9386,319.3306 160.5881,320.798 160.1261,322.7326 158.1837,323.8546 156.3324,323.4124 154.4812,322.9703 153.2718,321.0955 153.7339,319.1609" stroke="black" stroke-width="1" /><polyline fill="none" points="138.7693,324.1301 140.2505,319.7808 141.7316,315.4313 143.2128,311.0819 143.854,309.1991 145.8927,308.2635 147.6947,308.8771 149.4802,309.4852 150.5245,311.4707 149.8833,313.3535 149.397,314.7816 148.9106,316.2097 148.4243,317.6378 147.7831,319.5206 145.7443,320.4555 143.9588,319.8474 142.1568,319.2338 141.1126,317.249 141.7538,315.3662" stroke="black" stroke-width="1" /><polyline fill="none" points="132.6804,312.7741 131.2444,312.0182 129.025,312.6649 128.2209,314.4559 128.0337,314.8728 127.8466,315.2896 127.6594,315.7065 126.9008,317.3962 127.6604,319.3909 129.3658,320.1566 131.0552,320.9151 133.0642,320.1255 133.8087,318.4673 133.9958,318.0505 134.183,317.6337 134.3701,317.2169 135.1289,315.5268 134.3698,313.5327 132.6804,312.7741 130.819,311.9384 130.044,309.7676 130.8513,307.9694 131.1276,307.3541 131.4038,306.7389 131.6801,306.1236 132.4876,304.3251 134.611,303.4924 136.4724,304.3282 138.3182,305.1569 139.106,307.2966 138.2985,309.0952 138.0177,309.7206 137.7368,310.3461 137.456,310.9716 136.7638,312.5134 134.7345,313.5852" stroke="black" stroke-width="1" /><polyline fill="none" points="115.9426,309.1728 119.691,307.3826 123.4394,305.5924 127.1878,303.8022 125.5079,306.7652 123.8279,309.7281 122.148,312.6911 121.1754,314.4064 119.0011,315.0068 117.2863,314.0346 115.5555,313.0532 114.97,310.8881 115.9426,309.1728 117.6225,306.2098 119.3024,303.2468 120.9823,300.2839 121.9549,298.5685 124.1131,297.9598 125.8287,298.9326 127.5587,299.9134 128.1603,302.0869 127.1878,303.8022" stroke="black" stroke-width="1" /><polyline fill="none" points="104.404,305.6099 105.2187,306.1788 106.2374,306.1578 106.9637,305.1177 107.667,304.1104 108.3704,303.103 109.0738,302.0957 108.5773,301.749 108.0807,301.4023 107.5842,301.0555 108.5401,301.723 109.496,302.3905 110.4519,303.058 109.9925,302.7372 109.5332,302.4164 109.0738,302.0957 111.2364,298.9986 113.399,295.9016 115.5616,292.8044" stroke="black" stroke-width="1" /><polyline fill="none" points="99.067,297.4204 94.8545,298.2772 105.9426,285.2018" stroke="black" stroke-width="1" /><polyline fill="none" points="90.0176,289.416 88.7419,290.6621 86.5712,290.6975 85.217,289.3112 83.8636,287.9257 83.8764,285.8028 85.3235,284.3893 85.5523,284.1657 85.7812,283.9422 86.01,283.7187 88.2177,281.5621 90.4663,283.1287 90.7064,283.3745 90.9379,283.6115 91.1694,283.8484 91.401,284.0854 91.1694,283.8484 90.9379,283.6115 90.7064,283.3745 89.9991,282.6504 89.3482,280.2661 91.0648,278.5893 91.5678,278.0979 92.0708,277.6066 92.5738,277.1153 93.9961,275.726 96.2511,275.7769 97.641,277.1997 99.0428,278.6348 99.0284,280.8777 97.6061,282.267" stroke="black" stroke-width="1" /><polyline fill="none" points="82.5456,274.1361 81.6062,272.8129 79.3341,272.3868 77.8074,273.6212 77.452,273.9084 77.0967,274.1957 76.7414,274.483 75.3011,275.6475 75.0773,277.7703 76.2526,279.2239 77.4169,280.664 79.5659,280.8675 80.9793,279.7247 81.3346,279.4375 81.6899,279.1502 82.0453,278.8629 83.4859,277.6982 83.7098,275.5762 82.5456,274.1361 81.2627,272.5494 81.5524,270.2627 83.0852,269.0234 83.6096,268.5994 84.1341,268.1754 84.6586,267.7514 86.1917,266.5118 88.4622,266.7287 89.7451,268.3154 91.0171,269.8888 90.7529,272.1535 89.2198,273.393 88.6866,273.8241 88.1535,274.2552 87.6203,274.6862 86.3061,275.7488 84.0115,275.7879" stroke="black" stroke-width="1" /><polyline fill="none" points="72.3424,268.308 68.0576,267.9616 82.34,258.4788" stroke="black" stroke-width="1" /><polyline fill="none" points="65.3923,250.322 67.13,249.3899 69.2805,250.0269 70.2126,251.7646 71.1527,253.5174 70.5015,255.6755 68.7639,256.6076 67.8674,257.0884 66.9709,257.5693 66.0745,258.0502 64.3368,258.9822 62.178,258.3314 61.2458,256.5934 60.3058,254.8409 60.9652,252.6967 62.7029,251.7646 65.7044,250.1546 68.7059,248.5445 71.7075,246.9345 73.4448,246.0026 75.5957,246.6395 76.5277,248.3772 77.33,249.8728 76.9672,251.6634 75.7555,252.7418" stroke="black" stroke-width="1" /><polyline fill="none" points="59.1238,246.9669 56.9431,247.8852 54.1812,241.3264 71.9179,239.272" stroke="black" stroke-width="1" /><polyline fill="none" points="54.2173,234.5951 51.9602,235.3051 49.8246,228.5164 67.6758,228.132" stroke="black" stroke-width="1" /><polyline fill="none" points="50.491,221.8181 48.1773,222.3137 46.6868,215.3548 64.4955,216.6437" stroke="black" stroke-width="1" /><polyline fill="none" points="61.9142,200.7404 57.6403,201.2437 58.3543,207.3067 44.9401,203.1881" stroke="black" stroke-width="1" /><polyline fill="none" points="57.8179,188.1016 59.806,188.055 61.3866,189.6302 61.4312,191.533 61.4758,193.4358 59.9712,195.1001 57.9831,195.1467 56.4749,195.1821 54.9666,195.2175 53.4584,195.2528 51.47,195.2995 49.8897,193.7074 49.8451,191.8047 49.8004,189.9019 51.3048,188.2544 53.2932,188.2077" stroke="black" stroke-width="1" /><polyline fill="none" points="47.8412,182.1006 45.8743,181.962 44.3959,180.2592 44.5345,178.2922 44.6743,176.3078 46.4134,174.7976 48.3803,174.9362 49.151,174.9905 49.6521,175.1801 50.0137,175.429 53.6746,177.9446 57.3354,180.4602 60.9963,182.9758 61.1386,182.9858 61.2808,182.9958 61.4231,183.0059 61.5894,180.6454 61.7557,178.285 61.922,175.9246" stroke="black" stroke-width="1" /><polyline fill="none" points="60.184,163.7416 62.1459,164.0665 63.4051,165.9088 63.0941,167.7866 62.7832,169.6643 60.9946,171.0189 59.0327,170.694 57.5443,170.4475 56.0559,170.201 54.5676,169.9546 52.6053,169.6296 51.3496,167.7708 51.6605,165.8931 51.9715,164.0154 53.7566,162.6772 55.7189,163.0022" stroke="black" stroke-width="1" /><polyline fill="none" points="63.0662,151.8347 64.9891,152.3419 66.0702,154.294 65.5848,156.1344 65.0994,157.9747 63.1918,159.1559 61.2689,158.6487 59.8102,158.2639 58.3514,157.8792 56.8927,157.4944 54.9695,156.9871 53.8933,155.0189 54.3787,153.1786 54.8641,151.3382 56.7668,150.1731 58.69,150.6804" stroke="black" stroke-width="1" /><polyline fill="none" points="62.1738,138.709 62.1686,138.7071 62.1635,138.7052 62.1584,138.7034 64.3472,139.5065 66.536,140.3096 68.7248,141.1127 69.7364,141.4839 70.3851,140.9166 70.5795,140.3868 70.3314,141.0631 69.5473,141.4145 68.8532,141.1599 68.8104,141.1442 68.7676,141.1284 68.7248,141.1127 69.264,142.4801 69.459,143.9394 68.9453,145.3393 68.52,146.4984 67.2492,148.1691 64.8834,147.301 63.6438,146.8461 63.1093,145.8652 63.0578,144.7137 63.0253,144.1543 63.2806,142.5117 63.4492,141.4052 63.6081,140.2766 63.4134,139.1638 62.1738,138.709 60.9184,138.2484 58.9396,138.9653 58.2309,140.8966 57.5634,142.716 58.1412,143.8775 58.767,144.7101" stroke="black" stroke-width="1" /><polyline fill="none" points="59.6169,123.2479 63.7633,125.2276 67.9096,127.2073 72.0559,129.187 73.8508,130.044 74.5416,132.1781 73.7214,133.896 72.9087,135.5981 70.8146,136.403 69.0197,135.546 67.6583,134.896 66.2969,134.246 64.9355,133.596 63.1406,132.739 62.4506,130.6048 63.2633,128.9027 64.0835,127.1849 66.1768,126.38 67.9717,127.2369" stroke="black" stroke-width="1" /><polyline fill="none" points="64.8255,118.7776 62.7951,117.5627 66.4493,111.4558 78.5982,124.5408" stroke="black" stroke-width="1" /><polyline fill="none" points="78.6846,112.3389 77.0948,111.1724 76.7521,108.9431 77.9182,107.3539 79.0952,105.7496 81.3143,105.4216 82.9041,106.5881 83.7241,107.1898 84.5441,107.7914 85.3641,108.3931 86.9539,109.5596 87.3064,111.7744 86.1293,113.3786 84.9632,114.9678 82.7344,115.3104 81.1446,114.1439 78.3984,112.129 75.6523,110.114 72.9061,108.0991 71.3166,106.9328 70.9743,104.7037 72.1403,103.1144 73.145,101.7452 74.9163,101.3017 76.4112,101.9304" stroke="black" stroke-width="1" /><polyline fill="none" points="85.7001,92.278 86.6655,96.3182 87.6309,100.3584 88.5963,104.3987 86.0509,102.1354 83.5055,99.8722 80.9601,97.6089 79.4865,96.2987 79.3548,94.0468 80.6646,92.5737 81.9867,91.0868 84.2265,90.9678 85.7001,92.278 88.2455,94.5412 90.7909,96.8045 93.3363,99.0677 94.8099,100.378 94.9531,102.6158 93.6426,104.0896 92.3212,105.5758 90.0699,105.7089 88.5963,104.3987" stroke="black" stroke-width="1" /><polyline fill="none" points="91.6005,81.7416 90.8736,82.419 90.6807,83.4195 91.5457,84.3476 92.3834,85.2463 93.221,86.1451 94.0587,87.0439 94.5017,86.631 94.9448,86.218 95.3878,85.8051 94.5349,86.6 93.6821,87.3949 92.8292,88.1898 93.239,87.8079 93.6489,87.4259 94.0587,87.0439 96.6342,89.8072 99.2096,92.5704 101.7851,95.3337" stroke="black" stroke-width="1" /><polyline fill="none" points="99.7946,78.8908 98.7062,77.4781 98.9249,75.3182 100.4601,74.1354 101.9944,72.9533 104.1012,73.2143 105.3359,74.8168 105.5311,75.0702 105.7263,75.3236 105.9215,75.577 107.8051,78.0218 105.9863,80.0718 105.7142,80.2815 105.4517,80.4837 105.1892,80.6859 104.9268,80.8881 105.1892,80.6859 105.4517,80.4837 105.7142,80.2815 106.516,79.6637 108.96,79.2961 110.4246,81.1971 110.8537,81.7541 111.2828,82.3111 111.7119,82.868 112.9254,84.4431 112.6111,86.6767 111.0355,87.8906 109.4463,89.115 107.2205,88.8383 106.007,87.2633" stroke="black" stroke-width="1" /><polyline fill="none" points="109.6814,70.4143 108.4192,68.4129 114.4387,64.6166 119.3633,81.7794" stroke="black" stroke-width="1" /><polyline fill="none" points="121.0855,63.5525 120.0163,61.4417 126.3648,58.2257 129.6605,75.7742" stroke="black" stroke-width="1" /><polyline fill="none" points="133.082,57.7887 132.2151,55.5871 138.8369,52.9797 140.4749,70.7597" stroke="black" stroke-width="1" /><polyline fill="none" points="153.913,57.1943 153.9115,57.189 153.91,57.1837 153.9084,57.1785 154.5558,59.4183 155.2031,61.6582 155.8504,63.898 156.1496,64.9332 156.9908,65.1206 157.5329,64.9639 156.8408,65.1639 156.0937,64.7397 155.8884,64.0294 155.8757,63.9856 155.8631,63.9418 155.8504,63.898 155.067,65.1416 154.0057,66.1621 152.5732,66.5761 151.3871,66.9189 149.2883,66.8827 148.5887,64.4616 148.222,63.1931 148.6968,62.1819 149.5947,61.4592 150.0264,61.1021 151.5019,60.3362 152.4937,59.8176 153.4977,59.278 154.2796,58.4628 153.913,57.1943 153.5417,55.9096 151.7931,54.7383 149.8168,55.3095 147.955,55.8475 147.3603,57.0005 147.0592,57.9976" stroke="black" stroke-width="1" /><polyline fill="none" points="158.8139,50.8607 158.4462,48.9234 159.7156,47.0597 161.6529,46.692 163.6074,46.3211 165.5111,47.6175 165.8788,49.5548 166.0228,50.3138 165.9673,50.8467 165.8189,51.2598 164.3201,55.4412 162.8214,59.6226 161.3227,63.804 161.3493,63.9441 161.3759,64.0842 161.4025,64.2243 163.7272,63.7831 166.052,63.3419 168.3768,62.9007" stroke="black" stroke-width="1" /><polyline fill="none" points="178.644,246.5684 96.1804,188.1635 140.8637,108.5745 156.5688,130.1462 140.8637,108.5745 188.8365,96.1804 188.8365,96.1804 188.2428,253.3668 140.3048,268.1431 188.8365,96.1804" stroke="black" stroke-width="1" /><polyline fill="none" points="171.8562,91.3882 205.8168,100.9726" stroke="black" stroke-width="1" /><polyline fill="none" points="200.0052,253.3668 199.8604,251.5267 199.4295,249.732 198.7232,248.0267 197.7588,246.453 196.5601,245.0495 195.1566,243.8508 193.5828,242.8864 191.8776,242.1801 190.0829,241.7492 188.2428,241.6044 186.4028,241.7492 184.608,242.1801 182.9028,242.8864 181.3291,243.8508 179.9256,245.0495 178.7268,246.453 177.7625,248.0267 177.0561,249.732 176.6252,251.5267 176.4804,253.3668 176.6252,255.2068 177.0561,257.0016 177.7625,258.7068 178.7268,260.2805 179.9256,261.6841 181.3291,262.8828 182.9028,263.8471 184.608,264.5535 186.4028,264.9844 188.2428,265.1292 190.0829,264.9844 191.8776,264.5535 193.5828,263.8471 195.1566,262.8828 196.5601,261.6841 197.7588,260.2805 198.7232,258.7068 199.4295,257.0016 199.8604,255.2068 200.0052,253.3668" stroke="black" stroke-width="1" /><polyline fill="none" points="188.5,69.0664 199.6839,69.5912 210.7696,71.161 221.6595,73.7619 232.2581,77.3712 242.4721,81.9571 252.2118,87.4792 261.3915,93.8892 269.9308,101.1306 277.7544,109.1398 284.7936,117.8464 290.9866,127.1739 296.2789,137.0404 300.6241,147.3591 303.9839,158.0393 306.3289,168.9873 307.6383,180.1067 307.9008,191.2998 307.114,202.4684 305.2847,213.5142 302.4292,224.3402 298.5725,234.8512 293.7484,244.9549 287.9994,254.5625 281.376,263.5894 273.9365,271.9565 265.7461,279.5902 256.8768,286.4234 247.4067,292.3961 237.4188,297.4556 227.0011,301.5577 216.2451,304.6663 205.2452,306.7539 194.0981,307.8023 182.9019,307.8023 171.7548,306.7539 160.7549,304.6663 149.9989,301.5577 139.5811,297.4556 129.5933,292.3961 120.1232,286.4234 111.2539,279.5902 103.0635,271.9565 95.6239,263.5894 89.0006,254.5625 83.2516,244.9549 78.4275,234.8512 74.5708,224.3402 71.7153,213.5142 69.8861,202.4684 69.0992,191.2998 69.3617,180.1067 70.6712,168.9872 73.0161,158.0393 76.3759,147.3591 80.7211,137.0404 86.0134,127.174 92.2064,117.8464 99.2457,109.1398 107.0692,101.1306 115.6085,93.8892 124.7882,87.4792 134.5279,81.957 144.7419,77.3712 155.3405,73.7619 166.2304,71.161 177.3161,69.5912 188.5,69.0664" stroke="black" stroke-width="1" />

    </g>
  </g>
  <WCB
     pausedposy="0"
     pausedposx="0"
     lastknownposy="0"
     lastknownposx="0"
     lastpathnc="0"
     lastpath="0"
     node="0"
     layer="0" />
</svg>
