<?xml version="1.0" encoding="UTF-8" standalone="no"?>
<!-- Created with Inkscape (http://www.inkscape.org/) -->

<svg
   xmlns:dc="http://purl.org/dc/elements/1.1/"
   xmlns:cc="http://creativecommons.org/ns#"
   xmlns:rdf="http://www.w3.org/1999/02/22-rdf-syntax-ns#"
   xmlns:svg="http://www.w3.org/2000/svg"
   xmlns="http://www.w3.org/2000/svg"
   xmlns:sodipodi="http://sodipodi.sourceforge.net/DTD/sodipodi-0.dtd"
   xmlns:inkscape="http://www.inkscape.org/namespaces/inkscape"
   width="100mm"
   height="100mm"
   viewBox="0 0 100 100"
   version="1.1"
   id="svg19124"
   inkscape:version="0.92.3 (2405546, 2018-03-11)"
   sodipodi:docname="inkscape_template_TMP.svg"
   shape-rendering="crispEdges">
  <sodipodi:namedview
     pagecolor="#ffffff"
     bordercolor="#666666"
     borderopacity="1"
     objecttolerance="10"
     gridtolerance="10"
     guidetolerance="10"
     inkscape:pageopacity="0"
     inkscape:pageshadow="2"
     inkscape:window-width="1568"
     inkscape:window-height="1550"
     id="namedview24021"
     showgrid="false"
     inkscape:zoom="0.62441667"
     inkscape:cx="712.66515"
     inkscape:cy="409.98265"
     inkscape:window-x="0"
     inkscape:window-y="0"
     inkscape:window-maximized="0"
     inkscape:current-layer="layer1" />
  <defs
     id="defs19118" />
  <metadata
     id="metadata19121">
    <rdf:RDF>
      <cc:Work
         rdf:about="">
        <dc:format>image/svg+xml</dc:format>
        <dc:type
           rdf:resource="http://purl.org/dc/dcmitype/StillImage" />
        <dc:title />
      </cc:Work>
    </rdf:RDF>
  </metadata>
  <g
     transform="translate(0,-197)"
     id="layer1"
     inkscape:groupmode="layer"
     inkscape:label="Layer 1">
    <g
       id="g24447"
       transform="matrix(0.26458333,0,0,0.26458333,0.10666333,197.9735)">

<polyline fill="none" points="192.1004,47.7394 189.7225,51.1455 187.3447,54.5516 184.9669,57.9577 184.9669,54.5516 184.9669,51.1455 184.9669,47.7394 184.9669,45.7676 186.5623,44.1729 188.5334,44.1729 190.5231,44.1729 192.1004,45.7676 192.1004,47.7394 192.1004,51.1455 192.1004,54.5516 192.1004,57.9577 192.1004,59.9295 190.5231,61.5235 188.5509,61.5235 186.5623,61.5235 184.9669,59.9295 184.9669,57.9577" stroke="black" stroke-width="1" /><polyline fill="none" points="197.8298,61.5877 200.7471,57.7851 198.696,53.7706 202.935,62.0679 200.7471,57.7851 203.4811,54.2207" stroke="black" stroke-width="1" /><polyline fill="none" points="218.7234,47.237 217.8667,51.7512 217.01,56.2653 216.1533,60.7794 215.7824,62.7335 213.895,63.9457 212.0247,63.5908 210.1717,63.2391 208.8593,61.4196 209.2302,59.4654 209.5115,57.9833 209.7928,56.5011 210.0741,55.0189 210.4449,53.0648 212.3326,51.8533 214.1856,52.205 216.0559,52.56 217.368,54.3788 216.9972,56.3329" stroke="black" stroke-width="1" /><polyline fill="none" points="222.1721,59.1705 222.7196,57.2761 224.6945,56.1865 226.5881,56.7338 228.4996,57.2862 229.5719,59.2565 229.0245,61.1508 228.7421,62.1279 228.4597,63.1049 228.1773,64.082 227.6299,65.9763 225.672,67.0701 223.7605,66.5177 221.8669,65.9704 220.7776,63.996 221.325,62.1017 222.2707,58.8295 223.2163,55.5574 224.162,52.2852 224.7094,50.3912 226.6841,49.3019 228.5778,49.8492 230.2093,50.3207 231.2358,51.8308 231.1606,53.4509" stroke="black" stroke-width="1" /><polyline fill="none" points="237.0083,56.0999 237.6616,54.4406 239.6274,53.5192 241.4306,54.2292 243.2327,54.9389 244.0906,56.8808 243.3495,58.763 243.2323,59.0607 243.1151,59.3583 242.9979,59.656 241.8671,62.5276 239.1741,62.0195 238.8544,61.8936 238.5462,61.7723 238.2379,61.6509 237.9296,61.5295 238.2379,61.6509 238.5462,61.7723 238.8544,61.8936 239.7962,62.2645 241.3667,64.1729 240.4874,66.4058 240.2298,67.06 239.9722,67.7143 239.7146,68.3685 238.9861,70.2185 236.9081,71.0957 235.0574,70.367 233.1907,69.632 232.2852,67.58 233.0137,65.7299" stroke="black" stroke-width="1" /><polyline fill="none" points="245.6964,67.7171 246.5875,65.9581 248.7309,65.2558 250.4893,66.1466 252.2642,67.0457 252.9504,69.1813 252.0593,70.9404 251.5997,71.8477 251.1401,72.755 250.6805,73.6622 249.7894,75.4213 247.662,76.1308 245.887,75.2316 244.1286,74.3409 243.4265,72.198 244.3176,70.4389 245.8568,67.4005 247.396,64.362 248.9352,61.3236 249.8261,59.5649 251.9693,58.8629 253.7277,59.7537 255.2427,60.5212 255.9696,62.1962 255.5937,63.7738" stroke="black" stroke-width="1" /><polyline fill="none" points="265.1005,74.0019 264.0486,75.6697 261.8637,76.1763 260.1958,75.1244 258.5135,74.0633 258.0155,71.8648 259.0674,70.1969 259.6101,69.3365 260.1528,68.476 260.6954,67.6155 261.7473,65.9477 263.9463,65.4491 265.6144,66.5012 267.2965,67.5621 267.7805,69.7526 266.7285,71.4205 264.9116,74.3015 263.0946,77.1824 261.2776,80.0634 260.226,81.7309 258.0408,82.2378 256.373,81.1859 254.9374,80.2805 254.3698,78.5439 254.8921,77.0081" stroke="black" stroke-width="1" /><polyline fill="none" points="275.4857,81.678 274.2823,83.24 272.0595,83.5397 270.4974,82.3362 268.9218,81.1223 268.632,78.8868 269.8354,77.3248 270.4563,76.5189 271.0771,75.7131 271.698,74.9072 272.9015,73.3452 275.1374,73.0547 276.6997,74.2584 278.2751,75.4721 278.5518,77.6983 277.3483,79.2604 275.2696,81.9585 273.1908,84.6567 271.112,87.3549 269.9088,88.9166 267.6858,89.2166 266.1238,88.0131 264.7793,86.9773 264.3768,85.1952 265.0406,83.7151" stroke="black" stroke-width="1" /><polyline fill="none" points="278.9428,96.5587 277.8844,96.8142 276.7003,96.9532 275.1447,95.5033 273.7522,94.2054 273.6127,91.9663 275.0042,90.4734 276.021,89.3824 277.0378,88.2914 278.0546,87.2005 279.4107,85.7454 281.6536,85.7277 283.0462,87.0256 284.4638,88.3469 284.6286,90.6086 283.2725,92.0636 282.7661,92.607 282.2596,93.1503 281.7532,93.6937 280.0181,92.0765 278.283,90.4594 276.5479,88.8422" stroke="black" stroke-width="1" /><polyline fill="none" points="298.2685,94.7999 296.9049,93.2663 295.5414,91.7328 294.1778,90.1992 292.1576,91.9955 290.1373,93.7918 288.1171,95.588 289.4596,95.2661 290.6124,95.5037 291.6035,96.6183 292.9707,98.156 292.7614,100.4754 291.3396,101.7396 290.3232,102.6434 289.3067,103.5472 288.2902,104.451 286.8041,105.7724 284.6555,105.5494 283.4133,104.1525 282.183,102.7688 282.2243,100.6216 283.7104,99.3002" stroke="black" stroke-width="1" /><polyline fill="none" points="294.1049,106.6004 295.6948,105.4339 297.9242,105.7761 299.0902,107.3653 300.2673,108.9695 299.9143,111.1847 298.3245,112.3512 297.5045,112.9529 296.6845,113.5546 295.8645,114.1562 294.2747,115.3227 292.0562,114.9943 290.8792,113.3901 289.7131,111.8008 290.0551,109.5719 291.6449,108.4054 294.3911,106.3905 297.1372,104.3756 299.8834,102.3606 301.4729,101.1943 303.702,101.5367 304.8681,103.1259 305.8727,104.4952 305.7643,106.3179 304.716,107.5553" stroke="black" stroke-width="1" /><polyline fill="none" points="307.7316,113.2227 309.2618,112.3071 311.3813,112.7769 312.3764,114.4398 313.371,116.1018 312.8654,118.1637 311.1295,119.2024 310.855,119.3667 310.5805,119.5309 310.306,119.6952 307.6577,121.2799 305.8345,119.2338 305.6581,118.939 305.4879,118.6547 305.3178,118.3704 305.1477,118.0861 305.3178,118.3704 305.4879,118.6547 305.6581,118.939 306.1778,119.8076 306.257,122.2778 304.1978,123.51 303.5945,123.871 302.9911,124.2321 302.3878,124.5931 300.6816,125.6141 298.5001,125.0406 297.4788,123.3339 296.4487,121.6124 296.9838,119.4343 298.6899,118.4133" stroke="black" stroke-width="1" /><polyline fill="none" points="319.4162,128.1029 318.9881,127.2062 318.0916,126.722 316.9468,127.2686 315.8381,127.798 314.7294,128.3273 313.6207,128.8567 313.8816,129.4032 314.1425,129.9498 314.4035,130.4963 313.9011,129.4442 313.3988,128.3921 312.8965,127.34 313.1379,127.8455 313.3793,128.3511 313.6207,128.8567 310.2119,130.4843 306.8031,132.1118 303.3943,133.7393" stroke="black" stroke-width="1" /><polyline fill="none" points="314.1922,138.6749 316.0595,137.9898 318.0685,138.987 318.7242,140.7742 319.3797,142.5606 318.4868,144.6052 316.6195,145.2903 315.2032,145.81 313.787,146.3297 312.3707,146.8493 310.5037,147.5344 308.4997,146.5528 307.8442,144.7663 307.1884,142.9792 308.0822,140.9347 309.9491,140.2497 309.9472,140.2444 309.9453,140.2392 309.9433,140.2339 314.2568,138.6512 318.5703,137.0685 322.8838,135.4858" stroke="black" stroke-width="1" /><polyline fill="none" points="323.944,149.2857 325.6683,148.8309 327.5741,149.8707 328.0683,151.7445 328.5623,153.6173 327.5042,155.4578 325.5481,155.9737 325.2388,156.0553 324.9295,156.1369 324.6202,156.2185 321.636,157.0056 320.4526,154.5338 320.3649,154.2016 320.2804,153.8812 320.1959,153.5608 320.1115,153.2405 320.1959,153.5608 320.2804,153.8812 320.3649,154.2016 320.6231,155.1803 320.0134,157.5754 317.693,158.1874 317.0131,158.3668 316.3333,158.5461 315.6534,158.7254 313.7309,159.2325 311.7943,158.076 311.287,156.1528 310.7754,154.213 311.8941,152.269 313.8167,151.7619" stroke="black" stroke-width="1" /><polyline fill="none" points="317.9472,170.5722 315.9853,170.897 314.1994,169.559 313.8884,167.6813 313.5775,165.8036 314.834,163.9447 316.7958,163.6198 318.2842,163.3733 319.7726,163.1269 321.2609,162.8804 323.2232,162.5554 325.0111,163.9102 325.3221,165.7879 325.633,167.6656 324.3745,169.5078 322.4123,169.8327" stroke="black" stroke-width="1" /><polyline fill="none" points="329.8173,174.8605 332.1776,174.6942 332.6777,181.7933 315.2256,178.0203" stroke="black" stroke-width="1" /><polyline fill="none" points="332.6845,194.7964 332.7326,192.7449 332.7807,190.6934 332.8289,188.6418 330.1263,188.5785 327.4237,188.5151 324.7211,188.4517 325.9227,189.1315 326.604,190.0914 326.569,191.5824 326.5208,193.6394 324.7863,195.1935 322.8843,195.1489 321.5245,195.1171 320.1647,195.0852 318.8049,195.0533 316.8168,195.0067 315.397,193.3786 315.4409,191.5098 315.4843,189.6588 316.9784,188.1162 318.9665,188.1628" stroke="black" stroke-width="1" /><polyline fill="none" points="323.142,200.853 325.1174,201.0856 326.4589,202.8831 326.2362,204.7737 326.0137,206.6635 324.2932,208.0839 322.3179,207.8513 320.8196,207.6749 319.3213,207.4984 317.8231,207.322 315.8481,207.0894 314.5039,205.3081 314.7264,203.4182 314.9491,201.5277 316.6702,200.1077 318.6452,200.3403 318.6459,200.3348 318.6465,200.3292 318.6472,200.3237 323.2103,200.861 327.7735,201.3984 332.3367,201.9358" stroke="black" stroke-width="1" /><polyline fill="none" points="321.3936,213.4068 323.3385,213.8233 324.5059,215.7386 324.1071,217.6 323.7086,219.4607 321.8627,220.7137 319.9178,220.2972 318.4426,219.9812 316.9675,219.6652 315.4923,219.3493 313.5478,218.9328 312.3763,217.0334 312.7748,215.1727 313.1735,213.3113 315.0201,212.0588 316.9646,212.4753 316.9658,212.4698 316.967,212.4643 316.9681,212.4589 321.4609,213.4212 325.9537,214.3835 330.4465,215.3458" stroke="black" stroke-width="1" /><polyline fill="none" points="318.4497,229.402 317.8669,230.9165 318.7687,233.045 320.6415,233.6342 321.0774,233.7713 321.5132,233.9084 321.9491,234.0455 323.7159,234.6014 325.6082,233.6136 326.1691,231.8304 326.7249,230.0639 325.7056,228.161 323.9718,227.6156 323.536,227.4785 323.1001,227.3414 322.6642,227.2043 320.8971,226.6483 319.0054,227.6355 318.4497,229.402 317.8374,231.3484 315.7721,232.3719 313.8918,231.7804 313.2485,231.578 312.6051,231.3757 311.9618,231.1733 310.0811,230.5817 309.0059,228.5702 309.6182,226.6238 310.2253,224.6937 312.2582,223.6611 314.1389,224.2527 314.7929,224.4585 315.4469,224.6642 316.1009,224.87 317.7131,225.3771 319.015,227.2671" stroke="black" stroke-width="1" /><polyline fill="none" points="307.5542,242.3896 305.7214,241.6178 304.9246,239.5334 305.6633,237.7793 306.4019,236.0251 308.4563,235.1231 310.2891,235.8949 311.6794,236.4804 313.0698,237.0658 314.4602,237.6513 316.2933,238.4232 317.0829,240.5229 316.3443,242.277 315.6056,244.0311 313.5584,244.9179 311.7253,244.146" stroke="black" stroke-width="1" /><polyline fill="none" points="314.2771,259.2739 315.2471,257.4655 316.2171,255.6571 317.1871,253.8488 314.8049,252.571 312.4226,251.2931 310.0404,250.0153 310.8051,251.1647 310.9791,252.3288 310.2741,253.6432 309.3015,255.4564 307.0519,256.0589 305.3753,255.1596 304.1767,254.5167 302.9781,253.8737 301.7795,253.2308 300.027,252.2908 299.4962,250.1969 300.3798,248.5495 301.255,246.9179 303.285,246.217 305.0374,247.157" stroke="black" stroke-width="1" /><polyline fill="none" points="301.7646,259.4301 303.4073,260.5208 303.8541,262.7316 302.7638,264.3737 301.6632,266.0314 299.462,266.463 297.8192,265.3723 296.9719,264.8098 296.1246,264.2472 295.2773,263.6846 293.6346,262.5939 293.1787,260.3981 294.2793,258.7405 295.3696,257.0984 297.5799,256.6517 299.2227,257.7424 302.0602,259.6264 304.8978,261.5104 307.7354,263.3944 309.3778,264.4849 309.8243,266.6955 308.734,268.3376 307.7946,269.7525 306.0461,270.2785 304.5233,269.7206" stroke="black" stroke-width="1" /><polyline fill="none" points="298.6988,281.9072 295.1258,279.0184 291.5528,276.1297 287.9798,273.241 286.4331,271.9905 286.257,269.7542 287.4538,268.2739 288.6396,266.8071 290.8634,266.5107 292.4102,267.7612 293.5833,268.7097 294.7565,269.6582 295.9296,270.6067 297.4763,271.8572 297.6517,274.0933 296.4659,275.56 295.269,277.0403 293.046,277.3369 291.4993,276.0865" stroke="black" stroke-width="1" /><polyline fill="none" points="285.9404,283.7117 284.7361,284.7994 284.5787,287.1057 285.9831,288.4776 286.31,288.7969 286.6368,289.1161 286.9637,289.4354 288.2886,290.7297 290.423,290.7037 291.7292,289.3664 293.0233,288.0417 292.974,285.8836 291.6738,284.6136 291.3469,284.2943 291.0201,283.975 290.6932,283.6557 289.368,282.3612 287.2344,282.387 285.9404,283.7117 284.5146,285.1713 282.2097,285.1511 280.7997,283.7737 280.3172,283.3025 279.8347,282.8312 279.3523,282.3599 277.942,280.9823 277.8918,278.702 279.3176,277.2424 280.7314,275.795 283.0115,275.7925 284.4218,277.1702 284.9123,277.6492 285.4027,278.1283 285.8932,278.6074 287.1021,279.7884 287.4094,282.0627" stroke="black" stroke-width="1" /><polyline fill="none" points="283.0962,294.3686 284.6266,296.1732 279.1988,300.7761 271.9166,284.4732" stroke="black" stroke-width="1" /><polyline fill="none" points="264.2958,303.5324 263.1669,301.9157 263.5481,299.7054 265.1648,298.5765 266.7956,297.4378 269.015,297.8322 270.1439,299.4489 270.7263,300.283 271.3087,301.117 271.8912,301.9511 273.0201,303.5678 272.6262,305.7879 271.0091,306.917 269.3787,308.0555 267.1719,307.6514 266.043,306.0347 264.093,303.242 262.143,300.4494 260.193,297.6568 259.0643,296.0403 259.4453,293.8298 261.062,292.7009 262.4535,291.7292 264.2743,291.8801 265.487,292.9574" stroke="black" stroke-width="1" /><polyline fill="none" points="248.908,300.4138 251.0304,304.1573 256.3411,301.1462 257.7513,315.1074" stroke="black" stroke-width="1" /><polyline fill="none" points="249.9838,316.4701 250.953,318.6286 244.4606,321.5435 241.9911,303.8598" stroke="black" stroke-width="1" /><polyline fill="none" points="237.1358,320.8533 237.7107,322.5414 236.8074,324.5155 234.9729,325.1402 233.1395,325.7646 231.2292,324.8384 230.5771,322.9235 230.474,322.6206 230.3708,322.3178 230.2677,322.015 229.2728,319.0936 231.6553,317.7393 231.9806,317.6285 232.2942,317.5217 232.6078,317.4149 232.9215,317.3081 232.6078,317.4149 232.2942,317.5217 231.9806,317.6285 231.0224,317.9548 228.5904,317.515 227.8168,315.2433 227.5901,314.5778 227.3635,313.9122 227.1368,313.2466 226.4958,311.3644 227.5134,309.3514 229.3963,308.7102 231.2953,308.0635 233.3131,309.0429 233.954,310.925" stroke="black" stroke-width="1" /><polyline fill="none" points="215.4806,316.3672 215.0186,314.433 216.2278,312.5575 218.0791,312.1154 219.9303,311.6732 221.8729,312.7959 222.3348,314.7302 222.6853,316.1975 223.0358,317.6649 223.3862,319.1322 223.8483,321.0668 222.6225,322.9455 220.7713,323.3876 218.9201,323.8298 216.994,322.7039 216.532,320.7693" stroke="black" stroke-width="1" /><polyline fill="none" points="203.1345,316.6365 203.6012,315.6527 204.2375,314.6446 206.343,314.3464 208.2279,314.0795 210.0568,315.3788 210.3429,317.3995 210.552,318.8761 210.7611,320.3527 210.9702,321.8293 211.249,323.7987 209.8527,325.554 207.9679,325.8209 206.0491,326.0927 204.1867,324.7988 203.9079,322.8294 203.8037,322.094 203.6996,321.3586 203.5955,320.6231 205.9439,320.2906 208.2923,319.958 210.6408,319.6255" stroke="black" stroke-width="1" /><polyline fill="none" points="197.3397,329.1548 194.8423,332.6537 194.0388,315.5287" stroke="black" stroke-width="1" /><polyline fill="none" points="178.9855,317.118 179.6274,316.2386 180.4406,315.3668 182.5648,315.4664 184.4664,315.5557 186.0209,317.1732 185.9252,319.2117 185.8553,320.7015 185.7854,322.1912 185.7155,323.6809 185.6223,325.6677 183.9232,327.1319 182.0216,327.0427 180.0858,326.9518 178.4974,325.3334 178.5906,323.3466 178.6254,322.6046 178.6602,321.8627 178.695,321.1207 181.0643,321.2319 183.4336,321.3431 185.8028,321.4543" stroke="black" stroke-width="1" /><polyline fill="none" points="173.2931,321.2731 173.0166,323.2255 171.2141,324.5812 169.2624,324.3048 167.2923,324.0258 165.9543,322.2254 166.2308,320.273 166.3734,319.266 166.516,318.259 166.6586,317.252 166.9351,315.2996 168.7202,313.9421 170.6903,314.2211 172.6419,314.4975 173.9973,316.2997 173.7209,318.252 173.2433,321.6245 172.7658,324.9969 172.2882,328.3693 172.0118,330.3214 170.2093,331.6767 168.2576,331.4003 166.5761,331.1622 165.3481,329.811 165.1954,328.1964" stroke="black" stroke-width="1" /><polyline fill="none" points="160.4847,320.7733 160.0226,322.7078 158.0806,323.8299 156.229,323.3877 154.3781,322.9456 153.1687,321.0709 153.6308,319.1363 153.9812,317.6689 154.3317,316.2016 154.6822,314.7342 155.1441,312.8 157.0704,311.6733 158.9213,312.1154 160.7728,312.5576 161.9817,314.433 161.5197,316.3673 161.5252,316.3686 161.5306,316.3699 161.5361,316.3712 160.4687,320.8401 159.4013,325.3091 158.334,329.7781" stroke="black" stroke-width="1" /><polyline fill="none" points="138.7693,324.1301 140.2505,319.7808 141.7316,315.4313 143.2128,311.0819 143.854,309.1991 145.8927,308.2635 147.6947,308.8771 149.4802,309.4852 150.5245,311.4707 149.8833,313.3535 149.397,314.7816 148.9106,316.2097 148.4243,317.6378 147.7831,319.5206 145.7443,320.4555 143.9588,319.8474 142.1568,319.2338 141.1126,317.249 141.7538,315.3662" stroke="black" stroke-width="1" /><polyline fill="none" points="134.0399,318.3458 133.2323,320.1447 131.1245,320.946 129.3256,320.1383 127.5108,319.3235 126.6921,317.1707 127.4997,315.3718 127.8161,314.6671 128.1668,314.2619 128.525,314.0081 132.1477,311.4379 135.7704,308.8676 139.3931,306.2974 139.4515,306.1672 139.5099,306.0371 139.5683,305.907 137.4096,304.9378 135.2509,303.9686 133.0923,302.9994" stroke="black" stroke-width="1" /><polyline fill="none" points="121.2885,307.001 119.9296,306.114 117.6594,306.55 116.6911,308.2579 116.4657,308.6553 116.2403,309.0528 116.015,309.4503 115.1014,311.0616 115.671,313.1187 117.2971,314.0407 118.9081,314.9541 120.9822,314.356 121.8787,312.7749 122.104,312.3774 122.3294,311.9799 122.5547,311.5825 123.4685,309.9709 122.8994,307.9144 121.2885,307.001 119.5135,305.9947 118.9452,303.7609 119.9174,302.0461 120.25,301.4595 120.5826,300.8728 120.9153,300.2861 121.8877,298.571 124.0798,297.9409 125.8547,298.9473 127.6148,299.9452 128.1987,302.1493 127.2264,303.8643 126.8882,304.4608 126.55,305.0572 126.2119,305.6536 125.3783,307.1238 123.2576,308.0009" stroke="black" stroke-width="1" /><polyline fill="none" points="109.6595,305.3164 105.5457,306.5639 115.3607,292.5078" stroke="black" stroke-width="1" /><polyline fill="none" points="96.6029,291.1274 97.8782,289.6235 100.1126,289.4283 101.6165,290.7037 103.1335,291.9901 103.3183,294.2368 102.0429,295.7407 101.385,296.5165 100.727,297.2924 100.0691,298.0683 98.7937,299.5722 96.5466,299.7575 95.0424,298.4819 93.5257,297.1957 93.3537,294.959 94.629,293.455 96.832,290.8573 99.0349,288.2595 101.2379,285.6617 102.513,284.1581 104.7476,283.9627 106.2515,285.238 107.5459,286.3357 107.8644,288.1348 107.132,289.5821" stroke="black" stroke-width="1" /><polyline fill="none" points="85.2915,284.2837 89.3896,283.6046 93.4877,282.9255 97.5857,282.2464 95.1492,284.6265 92.7127,287.0065 90.2762,289.3866 88.8656,290.7645 86.61,290.7375 85.2327,289.3275 83.8423,287.9041 83.881,285.6616 85.2915,284.2837 87.7281,281.9036 90.1646,279.5236 92.6011,277.1435 94.0117,275.7656 96.254,275.7801 97.6321,277.1909 99.0217,278.6134 98.9963,280.8685 97.5857,282.2464" stroke="black" stroke-width="1" /><polyline fill="none" points="84.7354,267.9411 86.2818,266.6908 88.4953,266.9739 89.6919,268.454 90.8886,269.9341 90.7124,272.1708 89.1659,273.4211 87.9928,274.3696 86.8196,275.3181 85.6465,276.2666 84.0997,277.5171 81.8763,277.2205 80.6796,275.7404 79.483,274.2603 79.6692,272.037 81.2159,270.7866" stroke="black" stroke-width="1" /><polyline fill="none" points="73.6248,260.8958 73.6203,260.8989 73.6157,260.9019 73.6111,260.9049 75.5535,259.6153 77.4959,258.3257 79.4382,257.036 80.3359,256.44 80.2623,255.5813 79.9501,255.1112 80.3486,255.7114 80.1681,256.5514 79.5522,256.9604 79.5142,256.9856 79.4762,257.0108 79.4382,257.036 80.8596,257.4102 82.1516,258.1163 82.9764,259.3586 83.6593,260.3871 84.2545,262.4 82.155,263.794 81.055,264.5243 79.9479,264.3749 78.9891,263.7353 78.5188,263.4306 77.3455,262.253 76.5532,261.4625 75.7372,260.6667 74.7249,260.1655 73.6248,260.8958 72.5108,261.6355 71.9182,263.655 73.0561,265.3689 74.1281,266.9833 75.4064,267.2047 76.4479,267.1927" stroke="black" stroke-width="1" /><polyline fill="none" points="65.3923,250.322 67.13,249.3899 69.2805,250.0269 70.2126,251.7646 71.1527,253.5174 70.5015,255.6755 68.7639,256.6076 67.8674,257.0884 66.9709,257.5693 66.0745,258.0502 64.3368,258.9822 62.178,258.3314 61.2458,256.5934 60.3058,254.8409 60.9652,252.6967 62.7029,251.7646 65.7044,250.1546 68.7059,248.5445 71.7075,246.9345 73.4448,246.0026 75.5957,246.6395 76.5277,248.3772 77.33,249.8728 76.9672,251.6634 75.7555,252.7418" stroke="black" stroke-width="1" /><polyline fill="none" points="60.1441,238.5223 61.9614,237.757 64.0429,238.5927 64.8081,240.41 65.58,242.2431 64.7296,244.3307 62.9123,245.096 61.9747,245.4908 61.0372,245.8856 60.0996,246.2804 58.2823,247.0457 56.194,246.1955 55.4286,244.3779 54.6568,242.5451 55.5141,240.472 57.3314,239.7067 60.4706,238.3849 63.6097,237.063 66.7488,235.7411 68.5657,234.976 70.6475,235.8115 71.4128,237.6288 72.0714,239.193 71.5425,240.9418 70.2351,241.9019" stroke="black" stroke-width="1" /><polyline fill="none" points="55.043,234.0198 53.3419,234.5549 51.3895,233.6056 50.8079,231.757 50.2267,229.9094 51.1974,228.0214 53.1271,227.4143 53.4323,227.3183 53.7374,227.2223 54.0426,227.1263 56.9865,226.2002 58.2846,228.6138 58.3876,228.9415 58.4871,229.2576 58.5865,229.5737 58.6859,229.8897 58.5865,229.5737 58.4871,229.2576 58.3876,228.9415 58.0839,227.976 58.5807,225.5549 60.8698,224.8348 61.5405,224.6238 62.2112,224.4128 62.882,224.2018 64.7786,223.6052 66.7672,224.6697 67.3641,226.567 67.9661,228.4807 66.9397,230.4749 65.0431,231.0716" stroke="black" stroke-width="1" /><polyline fill="none" points="47.1347,216.8323 47.3428,217.8038 48.1022,218.4831 49.3427,218.2174 50.5441,217.9601 51.7455,217.7027 52.9468,217.4454 52.82,216.8532 52.6931,216.261 52.5663,215.6689 52.8105,216.8089 53.0547,217.9489 53.2989,219.0889 53.1815,218.5411 53.0642,217.9932 52.9468,217.4454 56.6404,216.6543 60.3341,215.8631 64.0277,215.072" stroke="black" stroke-width="1" /><polyline fill="none" points="48.8958,208.3371 47.1248,208.5456 45.3836,207.2489 45.157,205.3243 44.9304,203.4007 46.2362,201.7268 48.2452,201.4902 48.5629,201.4528 48.8806,201.4154 49.1983,201.378 52.2633,201.017 53.0886,203.6303 53.1288,203.9716 53.1675,204.3006 53.2063,204.6297 53.245,204.9587 53.2063,204.6297 53.1675,204.3006 53.1288,203.9716 53.0104,202.9663 53.9499,200.6803 56.3331,200.3997 57.0314,200.3174 57.7297,200.2352 58.428,200.153 60.4026,199.9204 62.1579,201.3371 62.3905,203.3124 62.6252,205.3048 61.2449,207.0727 59.2703,207.3052" stroke="black" stroke-width="1" /><polyline fill="none" points="47.8601,195.3002 45.8887,195.3464 44.2575,193.7895 44.2112,191.8182 44.1646,189.8294 45.7546,188.163 47.7259,188.1168 48.4982,188.0987 49.0149,188.2405 49.3983,188.4545 53.2786,190.6162 57.1589,192.7779 61.0393,194.9397 61.1818,194.9363 61.3244,194.933 61.467,194.9296 61.4116,192.564 61.3561,190.1984 61.3006,187.8328" stroke="black" stroke-width="1" /><polyline fill="none" points="46.6663,182.1914 44.306,182.0251 44.8061,174.926 61.5569,181.1087" stroke="black" stroke-width="1" /><polyline fill="none" points="63.4924,165.1139 59.2469,164.4108 58.2495,170.4336 46.5061,162.7527" stroke="black" stroke-width="1" /><polyline fill="none" points="64.7273,152.2587 65.4528,153.0706 66.1349,154.0484 65.5926,156.1045 65.1071,157.9452 63.1998,159.1265 61.2265,158.606 59.7845,158.2256 58.3424,157.8453 56.9004,157.4649 54.9772,156.9576 53.9014,154.9895 54.3869,153.1488 54.8811,151.275 56.7963,150.0608 58.7196,150.568 59.4378,150.7575 60.156,150.9469 60.8742,151.1364 60.2692,153.4298 59.6643,155.7232 59.0594,158.0166" stroke="black" stroke-width="1" /><polyline fill="none" points="57.5944,136.6327 59.9729,140.0382 62.3515,143.4438 64.73,146.8494 61.5324,145.6761 58.3348,144.5028 55.1371,143.3295 53.286,142.6503 52.3384,140.6032 53.0174,138.7527 53.7028,136.8848 55.7432,135.9534 57.5944,136.6327 60.792,137.8059 63.9896,138.9792 67.1872,140.1525 69.0384,140.8317 69.9916,142.8615 69.3122,144.713 68.6272,146.5799 66.5812,147.5286 64.73,146.8494" stroke="black" stroke-width="1" /><polyline fill="none" points="60.3724,129.8039 58.4696,125.9492 73.9405,133.3359" stroke="black" stroke-width="1" /><polyline fill="none" points="66.4318,118.0638 64.8983,114.0479 79.6095,122.8508" stroke="black" stroke-width="1" /><polyline fill="none" points="78.673,107.8904 79.7128,106.6446 79.5453,104.339 77.9624,103.1775 77.594,102.9072 77.2256,102.6369 76.8573,102.3666 75.3639,101.2709 73.2543,101.5959 72.1484,103.1031 71.0529,104.5962 71.4043,106.726 72.8697,107.8013 73.2381,108.0716 73.6065,108.3419 73.9749,108.6122 75.4685,109.7081 77.5775,109.3834 78.673,107.8904 79.88,106.2453 82.165,105.9421 83.7542,107.1082 84.298,107.5072 84.8417,107.9061 85.3855,108.3051 86.975,109.4714 87.3444,111.7221 86.1374,113.3672 84.9405,114.9985 82.6832,115.3207 81.0937,114.1544 80.5409,113.7488 79.9881,113.3432 79.4353,112.9376 78.0727,111.9378 77.4496,109.7291" stroke="black" stroke-width="1" /><polyline fill="none" points="86.704,97.9602 87.8559,96.8173 87.9051,94.5061 86.4379,93.2015 86.0964,92.8979 85.755,92.5943 85.4135,92.2907 84.0293,91.06 81.8985,91.186 80.6564,92.583 79.4259,93.9669 79.5763,96.1203 80.9346,97.328 81.276,97.6316 81.6175,97.9353 81.959,98.2389 83.3434,99.4698 85.4735,99.3441 86.704,97.9602 88.0598,96.4353 90.3631,96.3475 91.8361,97.6573 92.3401,98.1054 92.8441,98.5535 93.3482,99.0017 94.8215,100.3117 94.9785,102.5871 93.6227,104.112 92.2783,105.624 90.0008,105.7334 88.5275,104.4234 88.0151,103.9678 87.5027,103.5122 86.9904,103.0566 85.7274,101.9336 85.3138,99.6763" stroke="black" stroke-width="1" /><polyline fill="none" points="92.2524,80.9583 90.7512,82.3574 89.25,83.7566 87.7489,85.1557 89.592,87.1332 91.4351,89.1108 93.2783,91.0884 92.9249,89.7538 93.1355,88.5957 94.2266,87.5788 95.7318,86.176 98.0555,86.3307 99.3527,87.7225 100.28,88.7175 101.2074,89.7125 102.1348,90.7075 103.4906,92.1623 103.3181,94.3156 101.9506,95.5901 100.5962,96.8525 98.4486,96.8616 97.0928,95.4068" stroke="black" stroke-width="1" /><polyline fill="none" points="112.5703,84.2512 112.6496,85.3372 112.5932,86.5281 110.9086,87.8259 109.4007,88.9877 107.1689,88.7594 105.9233,87.1428 105.0132,85.9614 104.103,84.78 103.1928,83.5986 101.9789,82.023 102.3278,79.8073 103.8358,78.6455 105.3709,77.4628 107.6292,77.6698 108.8431,79.2454 109.2964,79.8338 109.7497,80.4222 110.203,81.0106 108.3241,82.4581 106.4452,83.9057 104.5663,85.3533" stroke="black" stroke-width="1" /><polyline fill="none" points="113.9926,64.898 112.2568,65.9926 110.5211,67.0873 108.7854,68.182 110.2274,70.4686 111.6695,72.7551 113.1116,75.0417 113.0133,73.6646 113.4361,72.5661 114.6977,71.7705 116.438,70.6729 118.6921,71.2582 119.707,72.8675 120.4326,74.018 121.1582,75.1684 121.8838,76.3189 122.9446,78.001 122.3736,80.0843 120.7924,81.0815 119.2264,82.0692 117.1148,81.6777 116.054,79.9956" stroke="black" stroke-width="1" /><polyline fill="none" points="130.0363,65.9461 130.0338,65.9412 130.0314,65.9363 130.0289,65.9314 131.0825,68.0113 132.1361,70.0912 133.1897,72.1711 133.6767,73.1323 134.5381,73.1595 135.0414,72.9045 134.3988,73.2301 133.5856,72.9526 133.2515,72.2931 133.2309,72.2524 133.2103,72.2117 133.1897,72.1711 132.6519,73.5389 131.7995,74.7394 130.4693,75.4132 129.3679,75.9712 127.2992,76.3269 126.1604,74.0788 125.5637,72.9009 125.8415,71.8189 126.5889,70.9414 126.9465,70.5101 128.2533,69.4825 129.131,68.7881 130.0168,68.0707 130.633,67.124 130.0363,65.9461 129.432,64.7532 127.4957,63.9285 125.6605,64.8582 123.9317,65.7339 123.5624,66.9776 123.4525,68.0133" stroke="black" stroke-width="1" /><polyline fill="none" points="133.6702,58.8099 132.9478,56.9751 133.8474,54.9074 135.6822,54.1849 137.5332,53.4561 139.6453,54.3748 140.3677,56.2095 140.6508,56.9283 140.6956,57.4622 140.6268,57.8958 139.934,62.2833 139.2412,66.6708 138.5484,71.0583 138.6007,71.191 138.6529,71.3237 138.7052,71.4564 140.9069,70.5895 143.1086,69.7225 145.3104,68.8556" stroke="black" stroke-width="1" /><polyline fill="none" points="152.8781,52.2738 151.5394,56.2061 150.2007,60.1385 148.862,64.0708 147.9164,60.7987 146.9707,57.5265 146.025,54.2543 145.4776,52.36 146.5675,50.3851 148.4612,49.8378 150.3726,49.2854 152.3306,50.3795 152.8781,52.2738 153.8237,55.546 154.7694,58.8181 155.715,62.0903 156.2625,63.9846 155.1898,65.9538 153.2952,66.5014 151.3847,67.0535 149.4095,65.9652 148.862,64.0708" stroke="black" stroke-width="1" /><polyline fill="none" points="164.866,45.9865 165.7227,50.5006 166.5794,55.0147 167.4362,59.5288 167.807,61.4829 166.495,63.3024 164.6248,63.6573 162.7717,64.009 160.8839,62.7968 160.5131,60.8427 160.2318,59.3605 159.9505,57.8784 159.6692,56.3962 159.2983,54.4421 160.6108,52.6233 162.4639,52.2716 164.3341,51.9166 166.2214,53.1282 166.5923,55.0823" stroke="black" stroke-width="1" /><polyline fill="none" points="243.4214,220.4113 268.4255,140.8637 136.578,231.1149 239.8942,231.6324 220.8597,130.6987 188.8365,96.1804 140.8637,108.5745 156.5688,130.1462 140.3048,268.1431 188.2428,253.3668" stroke="black" stroke-width="1" /><polyline fill="none" points="183.0457,236.506 193.44,270.2276" stroke="black" stroke-width="1" /><polyline fill="none" points="251.6566,231.6324 251.5118,229.7924 251.0809,227.9976 250.3746,226.2924 249.4102,224.7187 248.2115,223.3152 246.808,222.1164 245.2343,221.152 243.529,220.4457 241.7343,220.0148 239.8942,219.87 238.0542,220.0148 236.2594,220.4457 234.5542,221.152 232.9805,222.1164 231.577,223.3152 230.3783,224.7187 229.4139,226.2924 228.7075,227.9977 228.2766,229.7924 228.1318,231.6324 228.2766,233.4725 228.7075,235.2672 229.4139,236.9724 230.3783,238.5462 231.577,239.9497 232.9805,241.1484 234.5542,242.1128 236.2594,242.8191 238.0542,243.25 239.8942,243.3948 241.7343,243.25 243.529,242.8191 245.2343,242.1128 246.808,241.1484 248.2115,239.9497 249.4102,238.5462 250.3746,236.9724 251.0809,235.2672 251.5118,233.4725 251.6566,231.6324" stroke="black" stroke-width="1" /><polyline fill="none" points="188.5,69.0664 199.6839,69.5912 210.7696,71.161 221.6595,73.7619 232.2581,77.3712 242.4721,81.9571 252.2118,87.4792 261.3915,93.8892 269.9308,101.1306 277.7544,109.1398 284.7936,117.8464 290.9866,127.1739 296.2789,137.0404 300.6241,147.3591 303.9839,158.0393 306.3289,168.9873 307.6383,180.1067 307.9008,191.2998 307.114,202.4684 305.2847,213.5142 302.4292,224.3402 298.5725,234.8512 293.7484,244.9549 287.9994,254.5625 281.376,263.5894 273.9365,271.9565 265.7461,279.5902 256.8768,286.4234 247.4067,292.3961 237.4188,297.4556 227.0011,301.5577 216.2451,304.6663 205.2452,306.7539 194.0981,307.8023 182.9019,307.8023 171.7548,306.7539 160.7549,304.6663 149.9989,301.5577 139.5811,297.4556 129.5933,292.3961 120.1232,286.4234 111.2539,279.5902 103.0635,271.9565 95.6239,263.5894 89.0006,254.5625 83.2516,244.9549 78.4275,234.8512 74.5708,224.3402 71.7153,213.5142 69.8861,202.4684 69.0992,191.2998 69.3617,180.1067 70.6712,168.9872 73.0161,158.0393 76.3759,147.3591 80.7211,137.0404 86.0134,127.174 92.2064,117.8464 99.2457,109.1398 107.0692,101.1306 115.6085,93.8892 124.7882,87.4792 134.5279,81.957 144.7419,77.3712 155.3405,73.7619 166.2304,71.161 177.3161,69.5912 188.5,69.0664" stroke="black" stroke-width="1" />

    </g>
  </g>
  <WCB
     pausedposy="0"
     pausedposx="0"
     lastknownposy="0"
     lastknownposx="0"
     lastpathnc="0"
     lastpath="0"
     node="0"
     layer="0" />
</svg>
