<?xml version="1.0" encoding="UTF-8" standalone="no"?>
<!-- Created with Inkscape (http://www.inkscape.org/) -->

<svg
   xmlns:dc="http://purl.org/dc/elements/1.1/"
   xmlns:cc="http://creativecommons.org/ns#"
   xmlns:rdf="http://www.w3.org/1999/02/22-rdf-syntax-ns#"
   xmlns:svg="http://www.w3.org/2000/svg"
   xmlns="http://www.w3.org/2000/svg"
   xmlns:sodipodi="http://sodipodi.sourceforge.net/DTD/sodipodi-0.dtd"
   xmlns:inkscape="http://www.inkscape.org/namespaces/inkscape"
   width="100mm"
   height="100mm"
   viewBox="0 0 100 100"
   version="1.1"
   id="svg19124"
   inkscape:version="0.92.3 (2405546, 2018-03-11)"
   sodipodi:docname="inkscape_template_TMP.svg"
   shape-rendering="crispEdges">
  <sodipodi:namedview
     pagecolor="#ffffff"
     bordercolor="#666666"
     borderopacity="1"
     objecttolerance="10"
     gridtolerance="10"
     guidetolerance="10"
     inkscape:pageopacity="0"
     inkscape:pageshadow="2"
     inkscape:window-width="1568"
     inkscape:window-height="1550"
     id="namedview24021"
     showgrid="false"
     inkscape:zoom="0.62441667"
     inkscape:cx="712.66515"
     inkscape:cy="409.98265"
     inkscape:window-x="0"
     inkscape:window-y="0"
     inkscape:window-maximized="0"
     inkscape:current-layer="layer1" />
  <defs
     id="defs19118" />
  <metadata
     id="metadata19121">
    <rdf:RDF>
      <cc:Work
         rdf:about="">
        <dc:format>image/svg+xml</dc:format>
        <dc:type
           rdf:resource="http://purl.org/dc/dcmitype/StillImage" />
        <dc:title />
      </cc:Work>
    </rdf:RDF>
  </metadata>
  <g
     transform="translate(0,-197)"
     id="layer1"
     inkscape:groupmode="layer"
     inkscape:label="Layer 1">
    <g
       id="g24447"
       transform="matrix(0.26458333,0,0,0.26458333,0.10666333,197.9735)">

<polyline fill="none" points="192.1004,47.7394 189.7225,51.1455 187.3447,54.5516 184.9669,57.9577 184.9669,54.5516 184.9669,51.1455 184.9669,47.7394 184.9669,45.7676 186.5623,44.1729 188.5334,44.1729 190.5231,44.1729 192.1004,45.7676 192.1004,47.7394 192.1004,51.1455 192.1004,54.5516 192.1004,57.9577 192.1004,59.9295 190.5231,61.5235 188.5509,61.5235 186.5623,61.5235 184.9669,59.9295 184.9669,57.9577" stroke="black" stroke-width="1" /><polyline fill="none" points="197.8298,61.5877 200.7471,57.7851 198.696,53.7706 202.935,62.0679 200.7471,57.7851 203.4811,54.2207" stroke="black" stroke-width="1" /><polyline fill="none" points="218.7234,47.237 217.8667,51.7512 217.01,56.2653 216.1533,60.7794 215.7824,62.7335 213.895,63.9457 212.0247,63.5908 210.1717,63.2391 208.8593,61.4196 209.2302,59.4654 209.5115,57.9833 209.7928,56.5011 210.0741,55.0189 210.4449,53.0648 212.3326,51.8533 214.1856,52.205 216.0559,52.56 217.368,54.3788 216.9972,56.3329" stroke="black" stroke-width="1" /><polyline fill="none" points="229.2902,58.987 229.2917,58.9817 229.2932,58.9765 229.2947,58.9712 228.6474,61.211 228.0001,63.4509 227.3528,65.6907 227.0536,66.7259 227.6651,67.3332 228.2073,67.4898 227.5152,67.2898 227.1095,66.5324 227.3148,65.8222 227.3275,65.7784 227.3401,65.7345 227.3528,65.6907 226.0267,66.3247 224.5847,66.6217 223.1522,66.2077 221.966,65.8649 220.2102,64.7147 220.9099,62.2937 221.2765,61.0252 222.2174,60.4231 223.3624,60.2908 223.9182,60.219 225.5747,60.3583 226.6902,60.4488 227.8273,60.5279 228.9236,60.2555 229.2902,58.987 229.6614,57.7024 228.8072,55.7788 226.8309,55.2076 224.9691,54.6696 223.851,55.3276 223.0645,56.0103" stroke="black" stroke-width="1" /><polyline fill="none" points="238.9685,69.8153 238.0773,70.4409 237.0264,71.004 235.0478,70.2249 233.2765,69.5275 232.3264,67.4951 233.0741,65.5963 233.6205,64.2086 234.1669,62.8209 234.7133,61.4333 235.4421,59.5826 237.5225,58.7443 239.2938,59.4418 241.0969,60.1518 242.0789,62.1959 241.3501,64.0466 241.078,64.7377 240.8058,65.4288 240.5337,66.1199 238.3268,65.2509 236.1198,64.3819 233.9129,63.5129" stroke="black" stroke-width="1" /><polyline fill="none" points="248.9864,61.3496 249.8775,59.5905 252.0205,58.8889 253.7796,59.78 255.5542,60.679 256.2711,62.8678 255.38,64.6268 255.0309,65.316 254.6616,65.7043 254.2919,65.941 250.5527,68.3386 246.8136,70.7362 243.0744,73.1339 243.0099,73.2611 242.9455,73.3883 242.881,73.5156 244.9919,74.5849 247.1028,75.6542 249.2137,76.7235" stroke="black" stroke-width="1" /><polyline fill="none" points="267.0143,67.577 266.1739,67.047 265.1573,67.1156 264.4806,68.1887 263.8252,69.2279 263.1698,70.2671 262.5144,71.3063 263.0266,71.6293 263.5389,71.9524 264.0511,72.2755 263.065,71.6535 262.0789,71.0316 261.0927,70.4097 261.5666,70.7085 262.0405,71.0074 262.5144,71.3063 260.4993,74.5013 258.4843,77.6964 256.4692,80.8914" stroke="black" stroke-width="1" /><polyline fill="none" points="273.9048,82.9373 273.9081,82.933 273.9115,82.9287 273.9148,82.9243 272.4919,84.7713 271.0689,86.6182 269.646,88.4651 268.9884,89.3187 269.3349,90.1078 269.7819,90.4522 269.2113,90.0125 269.1113,89.1591 269.5625,88.5735 269.5903,88.5374 269.6182,88.5013 269.646,88.4651 268.1799,88.5692 266.7293,88.3172 265.5481,87.4072 264.57,86.6536 263.3577,84.9401 264.8957,82.9437 265.7016,81.8978 266.7977,81.6823 267.9116,81.9787 268.455,82.1155 269.9452,82.852 270.9501,83.3449 271.9791,83.8351 273.0989,83.9833 273.9048,82.9373 274.7209,81.8781 274.6308,79.7753 273.0012,78.5198 271.466,77.337 270.1846,77.5396 269.2026,77.8867" stroke="black" stroke-width="1" /><polyline fill="none" points="285.1065,90.2928 283.7621,91.7353 281.521,91.8255 280.0785,90.4811 278.6235,89.125 278.5442,86.8721 279.8886,85.4297 280.5822,84.6855 281.2758,83.9413 281.9695,83.1971 283.3139,81.7546 285.5672,81.6749 287.0099,83.0195 288.4647,84.3754 288.5317,86.6178 287.1873,88.0603 284.865,90.5519 282.5427,93.0436 280.2204,95.5352 278.8762,96.9774 276.6349,97.0679 275.1924,95.7235 273.9509,94.5663 273.717,92.7543 274.5165,91.3429" stroke="black" stroke-width="1" /><polyline fill="none" points="297.5006,94.1298 296.8404,93.3873 295.8447,93.171 294.8967,94.0139 293.9785,94.8303 293.0604,95.6467 292.1422,96.4631 292.5446,96.9156 292.947,97.3682 293.3494,97.8208 292.5747,96.9495 291.8,96.0783 291.0254,95.207 291.3976,95.6257 291.7699,96.0444 292.1422,96.4631 289.3193,98.973 286.4964,101.483 283.6735,103.993" stroke="black" stroke-width="1" /><polyline fill="none" points="301.724,110.0284 300.1342,111.1949 297.9156,110.8656 296.7491,109.2758 295.5724,107.6722 295.9146,105.4441 297.5044,104.2776 298.3246,103.6758 299.1448,103.074 299.965,102.4722 301.5548,101.3057 303.7835,101.6474 304.9502,103.2375 306.1266,104.8409 305.7744,107.0565 304.1846,108.223 301.4384,110.2379 298.6923,112.2528 295.9461,114.2678 294.3566,115.4341 292.1377,115.105 290.9712,113.5152 289.9672,112.1468 290.0753,110.323 291.1239,109.0854" stroke="black" stroke-width="1" /><polyline fill="none" points="302.3777,124.3919 300.6712,125.413 298.5193,124.8223 297.542,123.1891 296.5648,121.5559 297.0528,119.3659 298.7592,118.3448 300.0538,117.5701 301.3484,116.7955 302.6429,116.0209 304.3497,114.9996 306.5096,115.605 307.4869,117.2383 308.4642,118.8715 307.9681,121.0467 306.2614,122.068" stroke="black" stroke-width="1" /><polyline fill="none" points="319.9678,128.9598 319.0836,127.108 318.1995,125.2561 317.3153,123.4043 314.8758,124.569 312.4363,125.7338 309.9968,126.8986 311.3759,126.962 312.4174,127.5104 313.06,128.8563 313.9465,130.7131 313.1016,132.8833 311.3846,133.703 310.1572,134.2891 308.9298,134.8751 307.7023,135.4612 305.9078,136.318 303.9055,135.5072 303.1001,133.8203 302.3023,132.1495 302.9381,130.0982 304.7327,129.2413" stroke="black" stroke-width="1" /><polyline fill="none" points="319.4398,136.7256 321.291,136.0463 323.3371,136.9942 324.0164,138.8454 324.7016,140.713 323.7336,142.803 321.8825,143.4822 321.1572,143.7483 320.6224,143.7806 320.1906,143.7016 315.8205,142.9062 311.4505,142.1107 307.0804,141.3153 306.9465,141.3644 306.8126,141.4136 306.6787,141.4627 307.4938,143.6841 308.3089,145.9056 309.124,148.127" stroke="black" stroke-width="1" /><polyline fill="none" points="324.7957,148.7497 327.0836,148.1462 328.8986,155.0276 311.049,154.5748" stroke="black" stroke-width="1" /><polyline fill="none" points="327.9191,161.6873 330.2534,161.3007 331.4161,168.3218 313.6874,166.1996" stroke="black" stroke-width="1" /><polyline fill="none" points="319.0572,182.7726 317.0735,182.9123 315.4207,181.4129 315.287,179.5143 315.1532,177.6158 316.5782,175.8827 318.562,175.7429 320.0668,175.6369 321.5717,175.5309 323.0766,175.4249 325.0607,175.2851 326.7139,176.8013 326.8477,178.6999 326.9814,180.5984 325.556,182.3147 323.5719,182.4545" stroke="black" stroke-width="1" /><polyline fill="none" points="332.8027,195.2382 328.2093,195.1305 323.6158,195.0228 319.0225,194.9151 317.034,194.8684 315.5297,193.2044 315.5743,191.3013 315.6185,189.4157 317.1992,187.8237 319.1876,187.8703 320.6959,187.9057 322.204,187.9411 323.7123,187.9764 325.7007,188.023 327.2043,189.6874 327.1601,191.573 327.1155,193.4761 325.5355,195.0678 323.5471,195.0211" stroke="black" stroke-width="1" /><polyline fill="none" points="328.7091,202.7589 331.753,205.7943 314.7268,203.7893" stroke="black" stroke-width="1" /><polyline fill="none" points="322.377,220.9716 320.4489,220.5587 319.2207,218.6819 319.6337,216.7538 320.0503,214.8089 321.9428,213.5841 323.8709,213.9971 324.8656,214.2102 325.8604,214.4232 326.8551,214.6363 328.7832,215.0493 330.0087,216.9419 329.5956,218.8704 329.1791,220.8149 327.2893,222.0238 325.3612,221.6108 322.0307,220.8975 318.7001,220.1841 315.3696,219.4707 313.4419,219.0578 312.2133,217.181 312.6263,215.2529 312.9818,213.5933 314.4166,212.4622 316.0383,212.4235" stroke="black" stroke-width="1" /><polyline fill="none" points="318.748,233.3654 316.8671,232.7737 315.82,230.7902 316.4118,228.9092 317.0086,227.0119 319.0075,225.9697 320.8885,226.5614 321.8589,226.8667 322.8293,227.1719 323.7997,227.4772 325.6807,228.0689 326.7236,230.068 326.1317,231.9493 325.535,233.8463 323.5403,234.873 321.6593,234.2812 318.4102,233.2591 315.1611,232.237 311.912,231.2149 310.0314,230.6233 308.984,228.6397 309.5757,226.7587 310.085,225.1397 311.6195,224.148 313.2376,224.2613" stroke="black" stroke-width="1" /><polyline fill="none" points="304.655,240.2863 308.6211,241.9564 310.9903,236.33 320.6281,246.5289" stroke="black" stroke-width="1" /><polyline fill="none" points="306.5975,255.5107 306.6023,255.5133 306.6071,255.5159 306.612,255.5185 304.5574,254.4164 302.5028,253.3143 300.4482,252.2123 299.4986,251.7029 298.7768,252.1737 298.51,252.671 298.8505,252.0362 299.6761,251.7981 300.3276,252.1476 300.3678,252.1692 300.408,252.1907 300.4482,252.2123 300.106,250.7829 300.1176,249.3106 300.8224,247.9966 301.4061,246.9085 302.8985,245.4325 305.1193,246.6237 306.2829,247.2479 306.6746,248.2941 306.5641,249.4414 306.5179,249.9998 306.0347,251.5904 305.7127,252.6623 305.3971,253.7576 305.4339,254.8866 306.5975,255.5107 307.7759,256.1428 309.8357,255.7104 310.8081,253.8975 311.7241,252.1898 311.3149,250.9587 310.812,250.0465" stroke="black" stroke-width="1" /><polyline fill="none" points="301.1709,267.7636 299.5282,266.6729 299.0731,264.4767 300.1637,262.8339 301.2639,261.1769 303.4735,260.7307 305.1163,261.8214 305.9638,262.3841 306.8113,262.9467 307.6588,263.5095 309.3015,264.6002 309.7484,266.8102 308.6575,268.4532 307.5575,270.1099 305.3562,270.5424 303.7134,269.4517 300.8759,267.5677 298.0383,265.6837 295.2007,263.7997 293.5583,262.7092 293.1028,260.5128 294.1935,258.87 295.1323,257.4561 296.8817,256.9294 298.4048,257.4875" stroke="black" stroke-width="1" /><polyline fill="none" points="293.2535,277.966 291.7201,276.7263 291.4726,274.4971 292.7123,272.9637 293.9629,271.417 296.2046,271.1796 297.7379,272.4193 298.5291,273.0589 299.3201,273.6985 300.1112,274.3381 301.6446,275.5778 301.8825,277.8199 300.6426,279.3536 299.3923,280.9001 297.1602,281.1245 295.6268,279.8848 292.9781,277.7433 290.3294,275.6019 287.6807,273.4604 286.1476,272.2209 285.8998,269.9915 287.1396,268.4581 288.2066,267.1383 289.9977,266.7777 291.4618,267.476" stroke="black" stroke-width="1" /><polyline fill="none" points="277.6047,279.2422 280.6831,282.2493 284.949,277.8822 290.18,290.903" stroke="black" stroke-width="1" /><polyline fill="none" points="278.5725,289.3365 279.8589,290.8535 279.6147,293.0831 278.1629,294.3144 276.7115,295.5451 274.4845,295.4111 273.1981,293.8941 272.2224,292.7435 271.2466,291.5929 270.2709,290.4423 268.9847,288.9256 269.2159,286.7061 270.6672,285.4753 272.1191,284.2441 274.3463,284.3789 275.6325,285.8956 275.6367,285.892 275.641,285.8884 275.6453,285.8847 278.617,289.389 281.5887,292.8933 284.5604,296.3976" stroke="black" stroke-width="1" /><polyline fill="none" points="268.7191,308.4739 270.4016,307.299 272.0841,306.1242 273.7666,304.9493 272.2189,302.7329 270.6713,300.5165 269.1236,298.3 269.2863,299.671 268.9155,300.7881 267.6926,301.6419 266.0056,302.8199 263.7265,302.3409 262.6373,300.7809 261.8586,299.6658 261.0799,298.5506 260.3012,297.4354 259.1627,295.8049 259.6354,293.6971 261.1681,292.6268 262.6861,291.5668 264.8137,291.8589 265.9522,293.4894" stroke="black" stroke-width="1" /><polyline fill="none" points="248.908,300.4138 251.0304,304.1573 256.3411,301.1462 257.7513,315.1074" stroke="black" stroke-width="1" /><polyline fill="none" points="244.5941,321.6245 242.7122,317.4329 240.8303,313.2413 238.9483,309.0497 238.1336,307.2352 238.9871,305.1607 240.7237,304.381 242.4444,303.6085 244.5621,304.3489 245.3768,306.1635 245.9947,307.5397 246.6126,308.916 247.2305,310.2923 248.0452,312.1068 247.1911,314.1808 245.4705,314.9533 243.7338,315.733 241.6167,314.993 240.8021,313.1785" stroke="black" stroke-width="1" /><polyline fill="none" points="237.1358,320.8533 237.7107,322.5414 236.8074,324.5155 234.9729,325.1402 233.1395,325.7646 231.2292,324.8384 230.5771,322.9235 230.474,322.6206 230.3708,322.3178 230.2677,322.015 229.2728,319.0936 231.6553,317.7393 231.9806,317.6285 232.2942,317.5217 232.6078,317.4149 232.9215,317.3081 232.6078,317.4149 232.2942,317.5217 231.9806,317.6285 231.0224,317.9548 228.5904,317.515 227.8168,315.2433 227.5901,314.5778 227.3635,313.9122 227.1368,313.2466 226.4958,311.3644 227.5134,309.3514 229.3963,308.7102 231.2953,308.0635 233.3131,309.0429 233.954,310.925" stroke="black" stroke-width="1" /><polyline fill="none" points="220.1385,329.1623 221.1049,328.9315 221.7661,328.1563 221.4714,326.9224 221.186,325.7274 220.9006,324.5323 220.6152,323.3374 220.0261,323.478 219.4371,323.6187 218.848,323.7594 219.982,323.4886 221.116,323.2177 222.25,322.9469 221.705,323.0771 221.1601,323.2072 220.6152,323.3374 219.7377,319.6633 218.8602,315.9893 217.9827,312.3152" stroke="black" stroke-width="1" /><polyline fill="none" points="203.7045,314.7641 204.3079,319.025 210.3524,318.169 206.5495,331.6761" stroke="black" stroke-width="1" /><polyline fill="none" points="198.8229,330.0981 198.9338,332.4617 191.8249,332.7953 196.0061,315.4364" stroke="black" stroke-width="1" /><polyline fill="none" points="179.8947,315.3848 179.693,319.6835 185.7911,319.9696 179.5363,332.5307" stroke="black" stroke-width="1" /><polyline fill="none" points="166.4026,330.9731 167.3864,331.1124 168.2857,330.6334 168.4636,329.3773 168.6358,328.1608 168.8081,326.9443 168.9804,325.7278 168.3807,325.6429 167.7811,325.558 167.1815,325.4731 168.3358,325.6366 169.4902,325.8 170.6445,325.9635 170.0898,325.8849 169.5351,325.8064 168.9804,325.7278 169.51,321.9878 170.0396,318.2477 170.5692,314.5076" stroke="black" stroke-width="1" /><polyline fill="none" points="159.2061,326.2233 158.748,328.1412 156.8265,329.3215 154.9086,328.8634 152.9737,328.4012 151.768,326.4388 152.226,324.5209 152.4055,323.7695 152.6744,323.3061 152.9791,322.99 156.059,319.7893 159.1389,316.5887 162.2188,313.388 162.2519,313.2493 162.285,313.1105 162.3182,312.9718 160.0166,312.4221 157.7151,311.8724 155.4135,311.3227" stroke="black" stroke-width="1" /><polyline fill="none" points="143.65,309.4198 144.5109,308.7531 145.5342,308.1414 147.5472,308.8269 149.3492,309.4406 150.3935,311.4261 149.7356,313.3579 149.2549,314.7697 148.7741,316.1815 148.2933,317.5932 147.6522,319.476 145.6133,320.4109 143.8113,319.7972 141.9768,319.1725 140.9002,317.1767 141.5414,315.2938 141.7808,314.5907 142.0202,313.8876 142.2597,313.1845 144.5049,313.9491 146.7502,314.7137 148.9954,315.4783" stroke="black" stroke-width="1" /><polyline fill="none" points="132.524,304.6887 133.4435,304.1055 134.5196,303.5923 136.4595,304.4633 138.1962,305.243 139.05,307.3176 138.2141,309.1794 137.6032,310.5399 136.9924,311.9004 136.3815,313.2609 135.5669,315.0754 133.4494,315.8153 131.7128,315.0356 129.9449,314.2418 129.0599,312.1539 129.8745,310.3394 130.1788,309.6618 130.483,308.9842 130.7872,308.3066 132.951,309.2781 135.1148,310.2496 137.2786,311.2211" stroke="black" stroke-width="1" /><polyline fill="none" points="121.9077,312.7912 121.0282,314.3425 118.9527,314.9792 117.2668,314.0234 115.582,313.0681 115.0048,311.0251 116.0026,309.2653 116.1603,308.9871 116.3181,308.7088 116.4759,308.4305 117.998,305.7458 120.5932,306.6264 120.8921,306.7959 121.1803,306.9593 121.4685,307.1227 121.7568,307.2861 121.4685,307.1227 121.1803,306.9593 120.8921,306.7959 120.0116,306.2967 118.7243,304.1868 119.9079,302.0993 120.2547,301.4877 120.6014,300.876 120.9482,300.2644 121.9289,298.5347 124.1094,297.9576 125.8397,298.9386 127.5848,299.9281 128.1937,302.0867 127.213,303.8163" stroke="black" stroke-width="1" /><polyline fill="none" points="110.8709,293.6271 112.0094,291.9966 114.2145,291.6541 115.775,292.7437 117.3355,293.8334 117.7873,296.0311 116.6488,297.6616 115.7851,298.8985 114.9214,300.1354 114.0577,301.3723 112.9189,303.0031 110.7005,303.3354 109.14,302.2458 107.5795,301.1562 107.1411,298.9686 108.2798,297.3378" stroke="black" stroke-width="1" /><polyline fill="none" points="92.5352,296.4788 95.5069,292.9745 98.4786,289.4702 101.4503,285.9659 102.7367,284.4489 104.9765,284.3253 106.4283,285.5565 107.8669,286.7764 108.1111,289.0065 106.8247,290.5235 105.8489,291.6741 104.8732,292.8247 103.8975,293.9753 102.611,295.4923 100.3715,295.6152 98.9329,294.3953 97.4811,293.1641 97.2366,290.9347 98.5231,289.4178" stroke="black" stroke-width="1" /><polyline fill="none" points="84.0425,287.8756 84.7368,288.5864 85.7415,288.7557 86.649,287.8693 87.5279,287.0107 88.4068,286.1522 89.2857,285.2937 88.8625,284.8605 88.4393,284.4272 88.0161,283.994 88.8308,284.828 89.6455,285.662 90.4602,286.496 90.0687,286.0953 89.6772,285.6945 89.2857,285.2937 91.9878,282.6542 94.69,280.0146 97.3921,277.3751" stroke="black" stroke-width="1" /><polyline fill="none" points="80.9088,271.3348 80.9046,271.3382 80.9003,271.3416 80.8961,271.3451 82.7091,269.8792 84.5222,268.4134 86.3353,266.9475 87.1732,266.2701 87.0195,265.4221 86.6647,264.9833 87.1176,265.5435 87.0166,266.3967 86.4416,266.8615 86.4062,266.8902 86.3707,266.9189 86.3353,266.9475 87.7854,267.187 89.1378,267.769 90.0753,268.9286 90.8516,269.8887 91.6327,271.837 89.6729,273.4214 88.6461,274.2516 87.5299,274.2065 86.5154,273.6595 86.0187,273.4001 84.7403,272.3376 83.8774,271.6248 82.9904,270.9089 81.9356,270.5046 80.9088,271.3348 79.869,272.1755 79.4681,274.2416 80.7615,275.8414 81.9799,277.3484 83.2733,277.4491 84.3091,277.3396" stroke="black" stroke-width="1" /><polyline fill="none" points="73.6248,260.8958 73.6203,260.8989 73.6157,260.9019 73.6111,260.9049 75.5535,259.6153 77.4959,258.3257 79.4382,257.036 80.3359,256.44 80.2623,255.5813 79.9501,255.1112 80.3486,255.7114 80.1681,256.5514 79.5522,256.9604 79.5142,256.9856 79.4762,257.0108 79.4382,257.036 80.8596,257.4102 82.1516,258.1163 82.9764,259.3586 83.6593,260.3871 84.2545,262.4 82.155,263.794 81.055,264.5243 79.9479,264.3749 78.9891,263.7353 78.5188,263.4306 77.3455,262.253 76.5532,261.4625 75.7372,260.6667 74.7249,260.1655 73.6248,260.8958 72.5108,261.6355 71.9182,263.655 73.0561,265.3689 74.1281,266.9833 75.4064,267.2047 76.4479,267.1927" stroke="black" stroke-width="1" /><polyline fill="none" points="59.6468,253.8109 63.6957,251.6391 67.7447,249.4672 71.7937,247.2954 73.5464,246.3552 75.6758,247.0608 76.5756,248.7383 77.4671,250.4004 76.8773,252.5649 75.1245,253.5051 73.7951,254.2182 72.4657,254.9313 71.1362,255.6444 69.3835,256.5846 67.2546,255.8784 66.363,254.2163 65.4632,252.5387 66.0526,250.3749 67.8053,249.4347" stroke="black" stroke-width="1" /><polyline fill="none" points="66.7588,236.0087 68.5916,235.2369 70.6395,236.1234 71.3781,237.8775 72.1168,239.6317 71.3265,241.7316 69.4937,242.5033 68.1033,243.0888 66.713,243.6743 65.3226,244.2598 63.4895,245.0317 61.4358,244.1294 60.6971,242.3753 59.9585,240.6212 60.7546,238.537 62.5877,237.7651" stroke="black" stroke-width="1" /><polyline fill="none" points="50.4089,229.9455 50.7071,230.8933 51.5268,231.4984 52.737,231.1177 53.909,230.749 55.081,230.3803 56.253,230.0117 56.0712,229.4339 55.8895,228.8562 55.7077,228.2785 56.0576,229.3907 56.4075,230.5028 56.7573,231.615 56.5892,231.0805 56.4211,230.5461 56.253,230.0117 59.8563,228.8781 63.4596,227.7446 67.0629,226.611" stroke="black" stroke-width="1" /><polyline fill="none" points="51.5945,221.4046 49.6664,221.8176 47.7734,220.5922 47.3604,218.6641 46.9437,216.7188 48.1951,214.7852 50.1233,214.3722 50.8787,214.2104 51.4128,214.2535 51.8293,214.3922 56.0446,215.7925 60.26,217.1928 64.4753,218.5931 64.6148,218.5632 64.7543,218.5333 64.8937,218.5034 64.3981,216.1897 63.9025,213.8759 63.4069,211.5621" stroke="black" stroke-width="1" /><polyline fill="none" points="51.3022,200.919 53.2606,200.6884 55.0282,202.069 55.2588,204.0274 55.4914,206.0027 54.0948,207.7722 52.1364,208.0028 51.1261,208.1218 50.1158,208.2408 49.1055,208.3597 47.1472,208.5904 45.377,207.1938 45.1463,205.2352 44.9137,203.2602 46.313,201.5066 48.2713,201.2759 51.654,200.8776 55.0367,200.4792 58.4194,200.0809 60.3773,199.8503 62.1453,201.2309 62.3759,203.1892 62.5744,204.8748 61.5808,206.408 60.0582,206.9674" stroke="black" stroke-width="1" /><polyline fill="none" points="44.1788,188.9687 44.2269,191.0203 44.275,193.0718 44.3231,195.1233 47.0257,195.06 49.7283,194.9966 52.4308,194.9332 51.1987,194.3105 50.4732,193.3836 50.4382,191.8925 50.39,189.8355 52.0497,188.2018 53.9518,188.1572 55.3115,188.1254 56.6713,188.0935 58.0311,188.0616 60.0192,188.015 61.5138,189.5747 61.5576,191.4435 61.601,193.2945 60.1808,194.9055 58.1927,194.9521" stroke="black" stroke-width="1" /><polyline fill="none" points="52.6036,178.905 52.8186,177.2966 51.447,175.4357 49.4886,175.2977 49.0328,175.2656 48.577,175.2335 48.1212,175.2014 46.2736,175.0712 44.6626,176.4715 44.5312,178.3363 44.401,180.1835 45.8344,181.7976 47.6475,181.9253 48.1033,181.9575 48.5591,181.9896 49.0149,182.0217 50.8629,182.1519 52.4735,180.7523 52.6036,178.905 52.747,176.8696 54.518,175.3943 56.4842,175.5328 57.157,175.5802 57.8298,175.6276 58.5025,175.675 60.4691,175.8135 61.9823,177.5202 61.8389,179.5556 61.6967,181.5739 59.9593,183.0505 57.9927,182.912 57.3087,182.8638 56.6248,182.8156 55.9409,182.7674 54.255,182.6486 52.5497,181.1128" stroke="black" stroke-width="1" /><polyline fill="none" points="63.4924,165.1139 59.2469,164.4108 58.2495,170.4336 46.5061,162.7527" stroke="black" stroke-width="1" /><polyline fill="none" points="51.6749,154.724 49.0868,151.2917 65.6636,155.6641" stroke="black" stroke-width="1" /><polyline fill="none" points="53.8148,137.0531 53.4726,137.9859 53.7526,138.9656 54.9436,139.4026 56.097,139.8258 57.2504,140.249 58.4039,140.6722 58.6125,140.1037 58.8211,139.5351 59.0297,138.9666 58.6281,140.0611 58.2265,141.1556 57.8249,142.2502 58.0179,141.7242 58.2109,141.1982 58.4039,140.6722 61.9501,141.9734 65.4963,143.2746 69.0425,144.5758" stroke="black" stroke-width="1" /><polyline fill="none" points="73.6555,129.8156 74.2169,130.7486 74.7048,131.8364 73.7885,133.7554 72.9683,135.4732 70.8743,136.2782 69.0326,135.3988 67.6868,134.7563 66.341,134.1137 64.9951,133.4711 63.2002,132.6141 62.5102,130.48 63.3305,128.7621 64.1654,127.0133 66.2735,126.1774 68.0684,127.0344 68.7387,127.3544 69.4089,127.6745 70.0792,127.9945 69.0573,130.1349 68.0353,132.2753 67.0134,134.4157" stroke="black" stroke-width="1" /><polyline fill="none" points="72.2376,114.6047 73.9297,115.6172 74.4873,117.7897 73.4748,119.4817 72.4535,121.1885 70.2672,121.7378 68.5751,120.7253 67.7022,120.203 66.8292,119.6806 65.9563,119.1583 64.2642,118.1458 63.7143,115.9591 64.727,114.2668 65.7481,112.5603 67.9267,112.0251 69.6188,113.0376 72.5415,114.7865 75.4643,116.5355 78.3871,118.2844 80.0788,119.2967 80.6367,121.4694 79.6242,123.1614 78.7528,124.6178 77.0299,125.226 75.4824,124.7399" stroke="black" stroke-width="1" /><polyline fill="none" points="72.8501,107.8282 71.4123,106.7733 71.0228,104.6375 72.1692,103.0751 73.315,101.5135 75.4114,101.1792 77.0424,102.3759 77.3003,102.5652 77.5583,102.7544 77.8162,102.9437 80.3044,104.7694 79.1263,107.2437 78.9231,107.5207 78.7271,107.7879 78.5311,108.055 78.3351,108.3221 78.5311,108.055 78.7271,107.7879 78.9231,107.5207 79.5219,106.7047 81.7677,105.6729 83.7025,107.0925 84.2694,107.5085 84.8363,107.9244 85.4032,108.3404 87.0062,109.5166 87.3244,111.7497 86.1478,113.3533 84.961,114.9708 82.7459,115.323 81.1429,114.1468" stroke="black" stroke-width="1" /><polyline fill="none" points="89.2003,95.8878 89.1962,95.8841 89.1921,95.8805 89.188,95.8769 90.9304,97.4261 92.6727,98.9753 94.4151,100.5245 95.2204,101.2405 96.0319,100.9503 96.4068,100.5286 95.9281,101.0669 95.0698,101.1067 94.5173,100.6154 94.4833,100.5851 94.4492,100.5548 94.4151,100.5245 94.4158,101.9943 94.0626,103.4236 93.0718,104.538 92.2513,105.4607 90.4568,106.5496 88.5735,104.875 87.5868,103.9977 87.4489,102.8891 87.8228,101.7988 87.9975,101.2664 88.8369,99.8316 89.3992,98.8638 89.9605,97.8718 90.187,96.7652 89.2003,95.8878 88.201,94.9993 86.0971,94.9413 84.7301,96.4787 83.4424,97.9269 83.5544,99.2194 83.8317,100.2234" stroke="black" stroke-width="1" /><polyline fill="none" points="91.6005,81.7416 90.8736,82.419 90.6807,83.4195 91.5457,84.3476 92.3834,85.2463 93.221,86.1451 94.0587,87.0439 94.5017,86.631 94.9448,86.218 95.3878,85.8051 94.5349,86.6 93.6821,87.3949 92.8292,88.1898 93.239,87.8079 93.6489,87.4259 94.0587,87.0439 96.6342,89.8072 99.2096,92.5704 101.7851,95.3337" stroke="black" stroke-width="1" /><polyline fill="none" points="102.0233,73.1369 101.2362,73.7433 100.9505,74.7213 101.7247,75.7262 102.4745,76.6995 103.2244,77.6728 103.9742,78.646 104.454,78.2764 104.9337,77.9068 105.4135,77.5372 104.4899,78.2487 103.5663,78.9603 102.6428,79.6718 103.0866,79.3299 103.5304,78.988 103.9742,78.646 106.2796,81.6383 108.585,84.6307 110.8904,87.623" stroke="black" stroke-width="1" /><polyline fill="none" points="113.9926,64.898 112.2568,65.9926 110.5211,67.0873 108.7854,68.182 110.2274,70.4686 111.6695,72.7551 113.1116,75.0417 113.0133,73.6646 113.4361,72.5661 114.6977,71.7705 116.438,70.6729 118.6921,71.2582 119.707,72.8675 120.4326,74.018 121.1582,75.1684 121.8838,76.3189 122.9446,78.001 122.3736,80.0843 120.7924,81.0815 119.2264,82.0692 117.1148,81.6777 116.054,79.9956" stroke="black" stroke-width="1" /><polyline fill="none" points="128.102,61.3049 127.5201,65.4179 126.9381,69.5309 126.3561,73.6439 124.8169,70.6054 123.2777,67.567 121.7385,64.5285 120.8474,62.7695 121.55,60.626 123.3084,59.7352 125.0833,58.8361 127.2109,59.5459 128.102,61.3049 129.6412,64.3434 131.1804,67.3818 132.7196,70.4203 133.6107,72.1793 132.9241,74.314 131.1647,75.2052 129.3907,76.1039 127.2472,75.4029 126.3561,73.6439" stroke="black" stroke-width="1" /><polyline fill="none" points="133.6702,58.8099 132.9478,56.9751 133.8474,54.9074 135.6822,54.1849 137.5332,53.4561 139.6453,54.3748 140.3677,56.2095 140.6508,56.9283 140.6956,57.4622 140.6268,57.8958 139.934,62.2833 139.2412,66.6708 138.5484,71.0583 138.6007,71.191 138.6529,71.3237 138.7052,71.4564 140.9069,70.5895 143.1086,69.7225 145.3104,68.8556" stroke="black" stroke-width="1" /><polyline fill="none" points="153.8329,55.1747 154.3803,57.069 153.307,59.0384 151.4127,59.5859 149.5019,60.1381 147.528,59.0493 146.9805,57.155 146.6981,56.1777 146.4156,55.2004 146.1332,54.2231 145.5857,52.3287 146.6743,50.3542 148.569,49.8066 150.4794,49.2545 152.4381,50.3484 152.9855,52.2427 153.9312,55.5149 154.8769,58.7871 155.8225,62.0592 156.3699,63.9532 155.2967,65.923 153.4023,66.4704 151.7719,66.9417 150.0969,66.2119 149.2962,64.8011" stroke="black" stroke-width="1" /><polyline fill="none" points="158.4264,49.7478 157.9852,47.4232 164.9771,46.0962 163.271,63.8698" stroke="black" stroke-width="1" /><polyline fill="none" points="222.1565,142.3894 236.1363,268.4255 236.6952,108.8569 136.578,231.1149 268.1431,236.6952 188.8697,188.4998 188.1635,280.8196 188.8365,96.1804 250.763,172.1919 250.763,172.1919" stroke="black" stroke-width="1" /><polyline fill="none" points="250.763,189.8355 250.763,154.5483" stroke="black" stroke-width="1" /><polyline fill="none" points="232.6221,130.6987 232.4773,128.8586 232.0464,127.0639 231.3401,125.3586 230.3757,123.7849 229.177,122.3814 227.7735,121.1827 226.1998,120.2183 224.4945,119.5119 222.6998,119.0811 220.8597,118.9362 219.0197,119.0811 217.225,119.5119 215.5197,120.2183 213.946,121.1827 212.5425,122.3814 211.3438,123.7849 210.3794,125.3586 209.673,127.0639 209.2422,128.8586 209.0973,130.6987 209.2422,132.5387 209.673,134.3334 210.3794,136.0387 211.3438,137.6124 212.5425,139.0159 213.946,140.2146 215.5197,141.179 217.2249,141.8854 219.0197,142.3162 220.8597,142.4611 222.6998,142.3162 224.4945,141.8854 226.1998,141.179 227.7735,140.2146 229.177,139.0159 230.3757,137.6124 231.3401,136.0387 232.0464,134.3334 232.4773,132.5387 232.6221,130.6987" stroke="black" stroke-width="1" /><polyline fill="none" points="188.5,69.0664 199.6839,69.5912 210.7696,71.161 221.6595,73.7619 232.2581,77.3712 242.4721,81.9571 252.2118,87.4792 261.3915,93.8892 269.9308,101.1306 277.7544,109.1398 284.7936,117.8464 290.9866,127.1739 296.2789,137.0404 300.6241,147.3591 303.9839,158.0393 306.3289,168.9873 307.6383,180.1067 307.9008,191.2998 307.114,202.4684 305.2847,213.5142 302.4292,224.3402 298.5725,234.8512 293.7484,244.9549 287.9994,254.5625 281.376,263.5894 273.9365,271.9565 265.7461,279.5902 256.8768,286.4234 247.4067,292.3961 237.4188,297.4556 227.0011,301.5577 216.2451,304.6663 205.2452,306.7539 194.0981,307.8023 182.9019,307.8023 171.7548,306.7539 160.7549,304.6663 149.9989,301.5577 139.5811,297.4556 129.5933,292.3961 120.1232,286.4234 111.2539,279.5902 103.0635,271.9565 95.6239,263.5894 89.0006,254.5625 83.2516,244.9549 78.4275,234.8512 74.5708,224.3402 71.7153,213.5142 69.8861,202.4684 69.0992,191.2998 69.3617,180.1067 70.6712,168.9872 73.0161,158.0393 76.3759,147.3591 80.7211,137.0404 86.0134,127.174 92.2064,117.8464 99.2457,109.1398 107.0692,101.1306 115.6085,93.8892 124.7882,87.4792 134.5279,81.957 144.7419,77.3712 155.3405,73.7619 166.2304,71.161 177.3161,69.5912 188.5,69.0664" stroke="black" stroke-width="1" />

    </g>
  </g>
  <WCB
     pausedposy="0"
     pausedposx="0"
     lastknownposy="0"
     lastknownposx="0"
     lastpathnc="0"
     lastpath="0"
     node="0"
     layer="0" />
</svg>
