<?xml version="1.0" encoding="UTF-8" standalone="no"?>
<!-- Created with Inkscape (http://www.inkscape.org/) -->

<svg
   xmlns:dc="http://purl.org/dc/elements/1.1/"
   xmlns:cc="http://creativecommons.org/ns#"
   xmlns:rdf="http://www.w3.org/1999/02/22-rdf-syntax-ns#"
   xmlns:svg="http://www.w3.org/2000/svg"
   xmlns="http://www.w3.org/2000/svg"
   xmlns:sodipodi="http://sodipodi.sourceforge.net/DTD/sodipodi-0.dtd"
   xmlns:inkscape="http://www.inkscape.org/namespaces/inkscape"
   width="100mm"
   height="100mm"
   viewBox="0 0 100 100"
   version="1.1"
   id="svg19124"
   inkscape:version="0.92.3 (2405546, 2018-03-11)"
   sodipodi:docname="inkscape_template_TMP.svg"
   shape-rendering="crispEdges">
  <sodipodi:namedview
     pagecolor="#ffffff"
     bordercolor="#666666"
     borderopacity="1"
     objecttolerance="10"
     gridtolerance="10"
     guidetolerance="10"
     inkscape:pageopacity="0"
     inkscape:pageshadow="2"
     inkscape:window-width="1568"
     inkscape:window-height="1550"
     id="namedview24021"
     showgrid="false"
     inkscape:zoom="0.62441667"
     inkscape:cx="712.66515"
     inkscape:cy="409.98265"
     inkscape:window-x="0"
     inkscape:window-y="0"
     inkscape:window-maximized="0"
     inkscape:current-layer="layer1" />
  <defs
     id="defs19118" />
  <metadata
     id="metadata19121">
    <rdf:RDF>
      <cc:Work
         rdf:about="">
        <dc:format>image/svg+xml</dc:format>
        <dc:type
           rdf:resource="http://purl.org/dc/dcmitype/StillImage" />
        <dc:title />
      </cc:Work>
    </rdf:RDF>
  </metadata>
  <g
     transform="translate(0,-197)"
     id="layer1"
     inkscape:groupmode="layer"
     inkscape:label="Layer 1">
    <g
       id="g24447"
       transform="matrix(0.26458333,0,0,0.26458333,0.10666333,197.9735)">

<polyline fill="none" points="192.1004,47.7394 189.7225,51.1455 187.3447,54.5516 184.9669,57.9577 184.9669,54.5516 184.9669,51.1455 184.9669,47.7394 184.9669,45.7676 186.5623,44.1729 188.5334,44.1729 190.5231,44.1729 192.1004,45.7676 192.1004,47.7394 192.1004,51.1455 192.1004,54.5516 192.1004,57.9577 192.1004,59.9295 190.5231,61.5235 188.5509,61.5235 186.5623,61.5235 184.9669,59.9295 184.9669,57.9577" stroke="black" stroke-width="1" /><polyline fill="none" points="197.8298,61.5877 200.7471,57.7851 198.696,53.7706 202.935,62.0679 200.7471,57.7851 203.4811,54.2207" stroke="black" stroke-width="1" /><polyline fill="none" points="215.9534,62.4864 215.1945,63.2672 214.2671,64.0163 212.1779,63.6198 210.3076,63.2649 208.9953,61.4454 209.3758,59.4404 209.6539,57.9752 209.9319,56.5099 210.21,55.0447 210.5809,53.0906 212.4685,51.8792 214.3388,52.2341 216.2427,52.5954 217.5885,54.4206 217.2177,56.3747 217.0792,57.1045 216.9407,57.8342 216.8022,58.5639 214.4719,58.1217 212.1416,57.6794 209.8114,57.2372" stroke="black" stroke-width="1" /><polyline fill="none" points="231.8187,50.6879 230.5431,55.102 229.2674,59.516 227.9917,63.9301 227.4395,65.8409 225.4469,66.871 223.6181,66.3425 221.8061,65.8189 220.6699,63.8844 221.2221,61.9736 221.6409,60.5243 222.0598,59.075 222.4787,57.6257 223.0309,55.7149 225.0237,54.6855 226.8356,55.2092 228.6644,55.7377 229.8005,57.6713 229.2483,59.5821" stroke="black" stroke-width="1" /><polyline fill="none" points="243.4219,58.8463 239.9615,61.1443 236.5011,63.4424 233.0407,65.7404 234.2886,62.5712 235.5365,59.4019 236.7844,56.2327 237.5069,54.398 239.5756,53.4987 241.4097,54.2209 243.261,54.9499 244.1443,57.0115 243.4219,58.8463 242.174,62.0155 240.926,65.1848 239.6781,68.354 238.9557,70.1887 236.9041,71.094 235.069,70.3714 233.2187,69.6428 232.3182,67.5752 233.0407,65.7404" stroke="black" stroke-width="1" /><polyline fill="none" points="246.4767,66.3535 247.3755,64.5792 249.5251,63.9389 251.2233,64.7992 252.9208,65.6591 253.6616,67.7635 252.7628,69.5379 252.081,70.8837 251.3993,72.2295 250.7175,73.5753 249.8189,75.3493 247.6836,75.9976 245.9861,75.1376 244.2879,74.2774 243.5477,72.1725 244.4464,70.3985 244.4414,70.3959 244.4364,70.3934 244.4314,70.3909 246.5078,66.2921 248.5841,62.1933 250.6604,58.0945" stroke="black" stroke-width="1" /><polyline fill="none" points="268.3778,68.133 265.9268,72.0193 263.4757,75.9057 261.0247,79.792 259.9637,81.4744 257.7634,81.9108 256.1532,80.8953 254.5578,79.8892 254.0034,77.7153 255.0644,76.033 255.8692,74.7569 256.674,73.4809 257.4787,72.2048 258.5397,70.5225 260.74,70.0868 262.3353,71.093 263.9455,72.1085 264.5001,74.2815 263.439,75.9639" stroke="black" stroke-width="1" /><polyline fill="none" points="277.2597,79.1921 273.2973,80.439 269.3349,81.686 265.3725,82.9329 267.4513,80.2348 269.53,77.5366 271.6088,74.8385 272.8123,73.2764 275.0493,72.9869 276.6108,74.1899 278.187,75.4042 278.4631,77.6301 277.2597,79.1921 275.1809,81.8902 273.1021,84.5884 271.0234,87.2866 269.8199,88.8486 267.5977,89.1487 266.0354,87.9451 264.4601,86.7314 264.1691,84.495 265.3725,82.9329" stroke="black" stroke-width="1" /><polyline fill="none" points="281.9104,83.1419 283.2549,81.6994 285.5085,81.6204 286.9509,82.9648 288.4062,84.3212 288.4872,86.623 287.1428,88.0654 286.616,88.6306 286.1535,88.9011 285.7326,89.0258 281.4747,90.291 277.2169,91.5563 272.9591,92.8215 272.8618,92.9258 272.7646,93.0302 272.6673,93.1345 274.3983,94.7478 276.1293,96.3612 277.8604,97.9745" stroke="black" stroke-width="1" /><polyline fill="none" points="285.2798,105.9926 288.4958,103.1331 284.4393,98.5709 297.7954,94.2679" stroke="black" stroke-width="1" /><polyline fill="none" points="300.7892,103.3351 305.0854,103.4803 291.2632,113.6222" stroke="black" stroke-width="1" /><polyline fill="none" points="308.401,112.4713 310.4314,111.2564 314.0856,117.3632 296.8121,121.8841" stroke="black" stroke-width="1" /><polyline fill="none" points="319.9678,128.9598 319.0836,127.108 318.1995,125.2561 317.3153,123.4043 314.8758,124.569 312.4363,125.7338 309.9968,126.8986 311.3759,126.962 312.4174,127.5104 313.06,128.8563 313.9465,130.7131 313.1016,132.8833 311.3846,133.703 310.1572,134.2891 308.9298,134.8751 307.7023,135.4612 305.9078,136.318 303.9055,135.5072 303.1001,133.8203 302.3023,132.1495 302.9381,130.0982 304.7327,129.2413" stroke="black" stroke-width="1" /><polyline fill="none" points="319.6768,136.7748 321.3509,136.1606 323.3457,137.0173 324.0132,138.8367 324.6804,140.655 323.7992,142.5864 321.9001,143.2832 321.5998,143.3934 321.2995,143.5036 320.9991,143.6138 318.1019,144.6769 316.6921,142.3268 316.5738,142.0042 316.4597,141.6932 316.3455,141.3822 316.2314,141.0711 316.3455,141.3822 316.4597,141.6932 316.5738,142.0042 316.9224,142.9545 316.5397,145.3962 314.2868,146.2228 313.6267,146.465 312.9666,146.7072 312.3065,146.9494 310.44,147.6343 308.4036,146.6642 307.7185,144.7969 307.0274,142.9136 307.9592,140.8734 309.8258,140.1885" stroke="black" stroke-width="1" /><polyline fill="none" points="324.7957,148.7497 327.0836,148.1462 328.8986,155.0276 311.049,154.5748" stroke="black" stroke-width="1" /><polyline fill="none" points="326.7974,162.0486 328.7427,161.7265 330.5762,163.0392 330.8983,164.9846 331.2234,166.9472 329.8827,168.8201 327.9373,169.1422 327.1752,169.2684 326.6437,169.2004 326.2341,169.0423 322.0891,167.446 317.944,165.8497 313.7989,164.2533 313.6582,164.2766 313.5175,164.2999 313.3768,164.3232 313.7634,166.6577 314.15,168.9922 314.5365,171.3267" stroke="black" stroke-width="1" /><polyline fill="none" points="332.4413,180.2677 332.3715,179.2765 331.7148,178.4975 330.4493,178.5867 329.2237,178.673 327.9981,178.7594 326.7726,178.8457 326.8151,179.4498 326.8577,180.0539 326.9002,180.6581 326.8183,179.4951 326.7364,178.3321 326.6544,177.1691 326.6938,177.728 326.7332,178.2868 326.7726,178.8457 323.0045,179.1112 319.2365,179.3766 315.4684,179.6421" stroke="black" stroke-width="1" /><polyline fill="none" points="330.4735,188.1536 332.839,188.2091 332.6721,195.3238 315.65,189.9331" stroke="black" stroke-width="1" /><polyline fill="none" points="314.4663,206.001 318.7402,206.5043 319.4542,200.4414 331.5446,207.5634" stroke="black" stroke-width="1" /><polyline fill="none" points="322.377,220.9716 320.4489,220.5587 319.2207,218.6819 319.6337,216.7538 320.0503,214.8089 321.9428,213.5841 323.8709,213.9971 324.8656,214.2102 325.8604,214.4232 326.8551,214.6363 328.7832,215.0493 330.0087,216.9419 329.5956,218.8704 329.1791,220.8149 327.2893,222.0238 325.3612,221.6108 322.0307,220.8975 318.7001,220.1841 315.3696,219.4707 313.4419,219.0578 312.2133,217.181 312.6263,215.2529 312.9818,213.5933 314.4166,212.4622 316.0383,212.4235" stroke="black" stroke-width="1" /><polyline fill="none" points="318.4774,225.7417 320.3747,226.3386 321.3576,228.3547 320.7863,230.1706 320.2153,231.9858 318.2601,233.0605 316.3628,232.4636 314.9237,232.0109 313.4846,231.5582 312.0455,231.1055 310.1485,230.5087 309.1601,228.508 309.7311,226.6928 310.3023,224.8769 312.2581,223.8028 314.1551,224.3996 314.1567,224.3942 314.1584,224.3889 314.1601,224.3835 318.543,225.7623 322.926,227.1411 327.3089,228.5199" stroke="black" stroke-width="1" /><polyline fill="none" points="320.7283,240.194 322.909,241.1122 320.1471,247.6711 306.2836,236.4187" stroke="black" stroke-width="1" /><polyline fill="none" points="313.7356,253.1372 315.4556,257.0768 300.348,248.9731" stroke="black" stroke-width="1" /><polyline fill="none" points="308.7705,263.9427 310.7417,265.2515 306.8053,271.1803 295.2831,257.5403" stroke="black" stroke-width="1" /><polyline fill="none" points="301.1775,274.8735 303.0175,276.3611 298.5432,281.8953 288.3488,267.2362" stroke="black" stroke-width="1" /><polyline fill="none" points="286.6768,289.4347 285.9019,285.3536 285.1269,281.2726 284.3519,277.1916 286.7885,279.5717 289.2249,281.9517 291.6615,284.3318 293.072,285.7097 293.098,287.9653 291.7206,289.3753 290.3303,290.7986 288.0874,290.8126 286.6768,289.4347 284.2403,287.0546 281.8038,284.6746 279.3672,282.2945 277.9567,280.9166 277.9185,278.6746 279.2967,277.2637 280.6863,275.8412 282.9413,275.8137 284.3519,277.1916" stroke="black" stroke-width="1" /><polyline fill="none" points="279.3495,300.8167 276.3778,297.3124 273.4061,293.8081 270.4344,290.3038 269.1479,288.7869 269.3919,286.557 270.8438,285.3257 272.2823,284.1059 274.5223,284.2293 275.8088,285.7462 276.7845,286.8969 277.7603,288.0475 278.736,289.1981 280.0224,290.7151 279.7777,292.9446 278.3392,294.1645 276.8873,295.3957 274.648,295.2726 273.3616,293.7556" stroke="black" stroke-width="1" /><polyline fill="none" points="269.4744,307.7897 270.289,307.2209 270.6203,306.2573 269.894,305.2172 269.1906,304.2098 268.4872,303.2025 267.7838,302.1951 267.2873,302.5419 266.7907,302.8886 266.2942,303.2353 267.2501,302.5678 268.206,301.9003 269.1619,301.2329 268.7025,301.5536 268.2432,301.8744 267.7838,302.1951 265.6212,299.0981 263.4586,296.001 261.296,292.9039" stroke="black" stroke-width="1" /><polyline fill="none" points="258.1909,304.3631 259.1719,306.0933 258.5162,308.2383 256.8603,309.1772 255.2049,310.1158 253.0419,309.5688 252.0609,307.8386 251.3168,306.5262 250.5728,305.2139 249.8287,303.9015 248.8479,302.1716 249.4888,300.0341 251.1442,299.0956 252.8002,298.1566 254.9632,298.7043 255.944,300.4343 255.9489,300.4315 255.9538,300.4287 255.9586,300.426 258.2248,304.4229 260.491,308.4199 262.7572,312.4168" stroke="black" stroke-width="1" /><polyline fill="none" points="238.8495,309.094 238.035,307.2798 238.8733,305.2117 240.6096,304.4322 242.3459,303.6526 244.4638,304.3934 245.2783,306.2076 245.8962,307.5839 246.5142,308.9601 247.1321,310.3364 247.9467,312.1509 247.0928,314.2252 245.3565,315.0048 243.6202,315.7843 241.518,315.0373 240.7033,313.2228" stroke="black" stroke-width="1" /><polyline fill="none" points="227.3357,313.2789 226.6946,311.3964 227.7229,309.4159 229.5246,308.8024 231.3263,308.1888 233.3655,309.1247 234.0065,311.0072 234.4929,312.4353 234.9792,313.8633 235.4655,315.2914 236.1067,317.1743 235.0623,319.1595 233.2606,319.773 231.4589,320.3866 229.4359,319.446 228.7947,317.5631" stroke="black" stroke-width="1" /><polyline fill="none" points="215.4806,316.3672 215.0186,314.433 216.2278,312.5575 218.0791,312.1154 219.9303,311.6732 221.8729,312.7959 222.3348,314.7302 222.6853,316.1975 223.0358,317.6649 223.3862,319.1322 223.8483,321.0668 222.6225,322.9455 220.7713,323.3876 218.9201,323.8298 216.994,322.7039 216.532,320.7693" stroke="black" stroke-width="1" /><polyline fill="none" points="210.472,327.709 208.3132,331.4263 205.9096,314.4519" stroke="black" stroke-width="1" /><polyline fill="none" points="198.4772,329.1531 198.5607,330.9344 197.1449,332.5801 195.2091,332.671 193.2743,332.7618 191.6963,331.3416 191.6015,329.3209 191.5865,329.0014 191.5715,328.6818 191.5565,328.3623 191.4119,325.2795 194.0767,324.64 194.4199,324.6238 194.7509,324.6083 195.0818,324.5928 195.4128,324.5773 195.0818,324.5928 194.7509,324.6083 194.4199,324.6238 193.4089,324.6713 191.1945,323.5735 191.082,321.1764 191.0491,320.474 191.0161,319.7717 190.9832,319.0693 190.89,317.0833 192.4265,315.4319 194.4133,315.3386 196.4172,315.2446 198.0838,316.7457 198.1769,318.7318" stroke="black" stroke-width="1" /><polyline fill="none" points="179.8411,332.4163 180.8336,332.4629 181.6841,331.9017 181.7436,330.6345 181.8012,329.4073 181.8588,328.18 181.9164,326.9527 181.3114,326.9243 180.7065,326.8959 180.1015,326.8676 181.2661,326.9222 182.4307,326.9769 183.5953,327.0315 183.0356,327.0052 182.476,326.979 181.9164,326.9527 182.0934,323.1795 182.2705,319.4062 182.4475,315.633" stroke="black" stroke-width="1" /><polyline fill="none" points="166.7565,317.3611 167.0353,315.3922 168.8476,314.0901 170.7321,314.357 172.6166,314.6238 174.0128,316.3802 173.7339,318.3492 173.5224,319.8429 173.3109,321.3366 173.0994,322.8304 172.8205,324.7997 170.9917,326.0987 169.1072,325.8318 167.2227,325.565 165.8431,323.8117 166.1219,321.8423" stroke="black" stroke-width="1" /><polyline fill="none" points="153.1583,328.2778 154.1247,328.5087 155.0649,328.1159 155.3596,326.882 155.6451,325.687 155.9305,324.492 156.2159,323.297 155.6268,323.1563 155.0378,323.0156 154.4487,322.875 155.5827,323.1458 156.7167,323.4166 157.8507,323.6875 157.3057,323.5573 156.7608,323.4272 156.2159,323.297 157.0934,319.623 157.9709,315.9489 158.8484,312.2748" stroke="black" stroke-width="1" /><polyline fill="none" points="145.192,322.6131 141.5863,324.9537 147.1128,308.7251" stroke="black" stroke-width="1" /><polyline fill="none" points="134.0399,318.3458 133.2323,320.1447 131.1245,320.946 129.3256,320.1383 127.5108,319.3235 126.6921,317.1707 127.4997,315.3718 127.8161,314.6671 128.1668,314.2619 128.525,314.0081 132.1477,311.4379 135.7704,308.8676 139.3931,306.2974 139.4515,306.1672 139.5099,306.0371 139.5683,305.907 137.4096,304.9378 135.2509,303.9686 133.0923,302.9994" stroke="black" stroke-width="1" /><polyline fill="none" points="121.696,313.775 120.529,315.8333 114.3381,312.3232 127.1347,299.871" stroke="black" stroke-width="1" /><polyline fill="none" points="113.9705,301.3114 112.8318,302.9422 110.6136,303.2747 109.0528,302.1849 107.4926,301.0954 107.0542,298.9079 108.1929,297.2771 109.0566,296.0402 109.9203,294.8033 110.784,293.5664 111.9225,291.9359 114.1276,291.5934 115.6878,292.6828 117.2486,293.7726 117.6863,295.9606 116.5478,297.591 116.5524,297.5942 116.557,297.5974 116.5616,297.6006 113.9311,301.3678 111.3006,305.135 108.6701,308.9022" stroke="black" stroke-width="1" /><polyline fill="none" points="99.067,297.4204 94.8545,298.2772 105.9426,285.2018" stroke="black" stroke-width="1" /><polyline fill="none" points="85.2915,284.2837 89.3896,283.6046 93.4877,282.9255 97.5857,282.2464 95.1492,284.6265 92.7127,287.0065 90.2762,289.3866 88.8656,290.7645 86.61,290.7375 85.2327,289.3275 83.8423,287.9041 83.881,285.6616 85.2915,284.2837 87.7281,281.9036 90.1646,279.5236 92.6011,277.1435 94.0117,275.7656 96.254,275.7801 97.6321,277.1909 99.0217,278.6134 98.9963,280.8685 97.5857,282.2464" stroke="black" stroke-width="1" /><polyline fill="none" points="82.5456,274.1361 81.6062,272.8129 79.3341,272.3868 77.8074,273.6212 77.452,273.9084 77.0967,274.1957 76.7414,274.483 75.3011,275.6475 75.0773,277.7703 76.2526,279.2239 77.4169,280.664 79.5659,280.8675 80.9793,279.7247 81.3346,279.4375 81.6899,279.1502 82.0453,278.8629 83.4859,277.6982 83.7098,275.5762 82.5456,274.1361 81.2627,272.5494 81.5524,270.2627 83.0852,269.0234 83.6096,268.5994 84.1341,268.1754 84.6586,267.7514 86.1917,266.5118 88.4622,266.7287 89.7451,268.3154 91.0171,269.8888 90.7529,272.1535 89.2198,273.393 88.6866,273.8241 88.1535,274.2552 87.6203,274.6862 86.3061,275.7488 84.0115,275.7879" stroke="black" stroke-width="1" /><polyline fill="none" points="77.7523,257.8754 79.4091,256.7754 81.5863,257.2646 82.6391,258.8502 83.6919,260.4358 83.307,262.6462 81.6503,263.7462 80.3935,264.5807 79.1366,265.4152 77.8798,266.2496 76.2228,267.3498 74.0368,266.8462 72.9841,265.2606 71.9313,263.675 72.3249,261.4789 73.9819,260.3788" stroke="black" stroke-width="1" /><polyline fill="none" points="65.3794,257.0802 61.1459,256.334 76.2536,248.2303" stroke="black" stroke-width="1" /><polyline fill="none" points="70.2893,235.4044 66.3232,237.0745 68.6924,242.7009 54.6622,242.4686" stroke="black" stroke-width="1" /><polyline fill="none" points="56.024,226.2831 57.905,225.6914 59.899,226.7182 60.4907,228.5992 61.0876,230.4966 60.0454,232.4954 58.1644,233.0871 57.194,233.3924 56.2236,233.6977 55.2532,234.003 53.3722,234.5947 51.3727,233.5527 50.7808,231.6714 50.1841,229.7744 51.2318,227.7906 53.1127,227.1989 56.3618,226.1768 59.6109,225.1547 62.86,224.1326 64.7407,223.541 66.735,224.5677 67.3268,226.4487 67.8361,228.0677 67.1458,229.7593 65.7542,230.5928" stroke="black" stroke-width="1" /><polyline fill="none" points="50.1072,214.4604 53.9358,216.0721 57.7643,217.6839 61.5929,219.2956 58.2623,220.0089 54.9318,220.7223 51.6013,221.4357 49.6732,221.8486 47.7797,220.6226 47.3668,218.6952 46.9501,216.7496 48.1791,214.8734 50.1072,214.4604 53.4378,213.747 56.7683,213.0337 60.0988,212.3203 62.027,211.9073 63.9159,213.1157 64.329,215.0442 64.7455,216.9887 63.521,218.8826 61.5929,219.2956" stroke="black" stroke-width="1" /><polyline fill="none" points="44.6779,202.0603 49.2411,201.5229 53.8042,200.9856 58.3674,200.4482 60.3427,200.2156 62.0655,201.6522 62.2881,203.5428 62.5087,205.416 61.1669,207.2139 59.1915,207.4465 57.6933,207.623 56.195,207.7994 54.6967,207.9758 52.7214,208.2085 50.9993,206.7714 50.7787,204.8982 50.556,203.0076 51.8972,201.2101 53.8726,200.9775" stroke="black" stroke-width="1" /><polyline fill="none" points="59.5314,188.0478 60.4538,188.6263 61.3806,189.3763 61.4304,191.5022 61.475,193.4053 59.9707,195.0697 57.9305,195.1175 56.4395,195.1525 54.9486,195.1874 53.4577,195.2224 51.4692,195.269 49.8893,193.677 49.8446,191.7739 49.7992,189.8365 51.302,188.1382 53.2904,188.0916 54.033,188.0742 54.7756,188.0568 55.5181,188.0394 55.5737,190.4106 55.6293,192.7818 55.6849,195.153" stroke="black" stroke-width="1" /><polyline fill="none" points="44.7691,175.4523 44.6248,177.4993 44.4806,179.5463 44.3364,181.5933 47.0331,181.7833 49.7297,181.9733 52.4263,182.1633 51.2579,181.4279 50.6224,180.4372 50.7272,178.9494 50.8718,176.8969 52.6772,175.4258 54.575,175.5595 55.9318,175.6551 57.2887,175.7507 58.6455,175.8463 60.6292,175.986 61.9711,177.6788 61.8397,179.5436 61.7096,181.3905 60.1448,182.8614 58.1611,182.7216" stroke="black" stroke-width="1" /><polyline fill="none" points="60.184,163.7416 62.1459,164.0665 63.4051,165.9088 63.0941,167.7866 62.7832,169.6643 60.9946,171.0189 59.0327,170.694 57.5443,170.4475 56.0559,170.201 54.5676,169.9546 52.6053,169.6296 51.3496,167.7708 51.6605,165.8931 51.9715,164.0154 53.7566,162.6772 55.7189,163.0022" stroke="black" stroke-width="1" /><polyline fill="none" points="64.7273,152.2587 65.4528,153.0706 66.1349,154.0484 65.5926,156.1045 65.1071,157.9452 63.1998,159.1265 61.2265,158.606 59.7845,158.2256 58.3424,157.8453 56.9004,157.4649 54.9772,156.9576 53.9014,154.9895 54.3869,153.1488 54.8811,151.275 56.7963,150.0608 58.7196,150.568 59.4378,150.7575 60.156,150.9469 60.8742,151.1364 60.2692,153.4298 59.6643,155.7232 59.0594,158.0166" stroke="black" stroke-width="1" /><polyline fill="none" points="53.994,143.0607 51.7727,142.2457 54.2241,135.5645 68.5998,146.1548" stroke="black" stroke-width="1" /><polyline fill="none" points="59.6169,123.2479 63.7633,125.2276 67.9096,127.2073 72.0559,129.187 73.8508,130.044 74.5416,132.1781 73.7214,133.896 72.9087,135.5981 70.8146,136.403 69.0197,135.546 67.6583,134.896 66.2969,134.246 64.9355,133.596 63.1406,132.739 62.4506,130.6048 63.2633,128.9027 64.0835,127.1849 66.1768,126.38 67.9717,127.2369" stroke="black" stroke-width="1" /><polyline fill="none" points="79.6554,119.3193 80.127,120.3007 80.5108,121.4294 79.4189,123.2542 78.4415,124.8877 76.2812,125.493 74.53,124.4451 73.2503,123.6793 71.9705,122.9136 70.6908,122.1478 68.984,121.1265 68.4969,118.9371 69.4744,117.3036 70.4695,115.6406 72.6465,115.0058 74.3533,116.0271 74.9906,116.4085 75.628,116.7899 76.2654,117.1713 75.0475,119.2066 73.8296,121.2419 72.6117,123.2772" stroke="black" stroke-width="1" /><polyline fill="none" points="86.6119,109.4309 86.9895,110.4521 87.266,111.6118 86.008,113.3263 84.8818,114.8612 82.6744,115.2615 81.029,114.0542 79.8266,113.172 78.6242,112.2897 77.4218,111.4075 75.8181,110.2308 75.5382,108.0054 76.6643,106.4706 77.8108,104.9082 80.0377,104.48 81.6413,105.6567 82.2402,106.0961 82.839,106.5355 83.4379,106.9749 82.0348,108.8872 80.6316,110.7995 79.2285,112.7119" stroke="black" stroke-width="1" /><polyline fill="none" points="86.704,97.9602 87.8559,96.8173 87.9051,94.5061 86.4379,93.2015 86.0964,92.8979 85.755,92.5943 85.4135,92.2907 84.0293,91.06 81.8985,91.186 80.6564,92.583 79.4259,93.9669 79.5763,96.1203 80.9346,97.328 81.276,97.6316 81.6175,97.9353 81.959,98.2389 83.3434,99.4698 85.4735,99.3441 86.704,97.9602 88.0598,96.4353 90.3631,96.3475 91.8361,97.6573 92.3401,98.1054 92.8441,98.5535 93.3482,99.0017 94.8215,100.3117 94.9785,102.5871 93.6227,104.112 92.2783,105.624 90.0008,105.7334 88.5275,104.4234 88.0151,103.9678 87.5027,103.5122 86.9904,103.0566 85.7274,101.9336 85.3138,99.6763" stroke="black" stroke-width="1" /><polyline fill="none" points="98.3089,86.9962 98.3052,86.9922 98.3015,86.9882 98.2977,86.9842 99.8874,88.6897 101.477,90.3953 103.0666,92.1009 103.8013,92.8891 104.6364,92.6762 105.0492,92.2914 104.5222,92.7826 103.664,92.7418 103.1599,92.2009 103.1288,92.1676 103.0977,92.1342 103.0666,92.1009 102.9297,93.5643 102.4442,94.9542 101.3534,95.9709 100.4502,96.8127 98.5616,97.7288 96.8434,95.8853 95.9431,94.9193 95.9096,93.8027 96.384,92.7523 96.6078,92.2385 97.5779,90.8886 98.2283,89.9778 98.8801,89.0427 99.2092,87.9621 98.3089,86.9962 97.3972,86.018 95.308,85.7633 93.8031,87.1659 92.3854,88.4872 92.3759,89.7845 92.5579,90.8101" stroke="black" stroke-width="1" /><polyline fill="none" points="100.7262,78.2382 100.7707,73.9397 111.2337,87.5203" stroke="black" stroke-width="1" /><polyline fill="none" points="110.4483,71.0659 109.497,69.5575 109.917,67.4276 111.5562,66.3938 113.1944,65.3606 115.2676,65.8177 116.3467,67.5287 116.5174,67.7993 116.688,68.0699 116.8587,68.3405 118.505,70.9508 116.5023,72.8215 116.2116,73.0048 115.9314,73.1816 115.6512,73.3583 115.3709,73.535 115.6512,73.3583 115.9314,73.1816 116.2116,73.0048 117.0678,72.4649 119.5355,72.3277 120.8156,74.3575 121.1907,74.9522 121.5658,75.5469 121.9409,76.1417 123.0015,77.8234 122.4794,80.0178 120.797,81.0788 119.1002,82.149 116.9101,81.6651 115.8494,79.9834" stroke="black" stroke-width="1" /><polyline fill="none" points="130.0363,65.9461 130.0338,65.9412 130.0314,65.9363 130.0289,65.9314 131.0825,68.0113 132.1361,70.0912 133.1897,72.1711 133.6767,73.1323 134.5381,73.1595 135.0414,72.9045 134.3988,73.2301 133.5856,72.9526 133.2515,72.2931 133.2309,72.2524 133.2103,72.2117 133.1897,72.1711 132.6519,73.5389 131.7995,74.7394 130.4693,75.4132 129.3679,75.9712 127.2992,76.3269 126.1604,74.0788 125.5637,72.9009 125.8415,71.8189 126.5889,70.9414 126.9465,70.5101 128.2533,69.4825 129.131,68.7881 130.0168,68.0707 130.633,67.124 130.0363,65.9461 129.432,64.7532 127.4957,63.9285 125.6605,64.8582 123.9317,65.7339 123.5624,66.9776 123.4525,68.0133" stroke="black" stroke-width="1" /><polyline fill="none" points="144.4991,67.2686 144.2737,68.3339 143.8889,69.4623 141.9103,70.2414 140.139,70.9389 138.0583,70.0999 137.3106,68.2011 136.7642,66.8134 136.2178,65.4257 135.6714,64.0381 134.9427,62.1874 135.893,60.1557 137.6643,59.4583 139.4675,58.7483 141.5795,59.5741 142.3082,61.4248 142.5803,62.1159 142.8524,62.807 143.1246,63.4981 140.9176,64.3671 138.7107,65.2361 136.5038,66.1051" stroke="black" stroke-width="1" /><polyline fill="none" points="145.5655,53.1736 144.9086,50.9005 151.7455,48.9246 151.7113,66.7799" stroke="black" stroke-width="1" /><polyline fill="none" points="163.1184,54.6506 164.7285,54.4483 166.1779,52.6474 165.8119,50.7186 165.7267,50.2697 165.6415,49.8208 165.5563,49.3719 165.2109,47.5521 163.446,46.3515 161.6095,46.7001 159.7901,47.0454 158.595,48.843 158.9339,50.6287 159.0191,51.0776 159.1043,51.5265 159.1895,51.9754 159.5349,53.7955 161.299,54.9959 163.1184,54.6506 165.123,54.2701 167.0012,55.6063 167.3688,57.5428 167.4945,58.2054 167.6203,58.868 167.746,59.5307 168.1136,61.4676 166.8493,63.366 164.8447,63.7464 162.8569,64.1237 160.986,62.8203 160.6184,60.8834 160.4905,60.2098 160.3627,59.5362 160.2348,58.8626 159.9197,57.2022 160.9698,55.1616" stroke="black" stroke-width="1" /><polyline fill="none" points="199.0845,248.8047 239.8942,231.6324 96.1804,188.1635 268.1431,236.6952 136.578,231.1149 140.8637,108.5745 108.5745,236.1363 140.8637,108.5745 108.5745,236.1363 268.4255,140.8637" stroke="black" stroke-width="1" /><polyline fill="none" points="259.3925,125.7078 277.4586,156.0196" stroke="black" stroke-width="1" /><polyline fill="none" points="200.0052,253.3668 199.8604,251.5267 199.4295,249.732 198.7232,248.0267 197.7588,246.453 196.5601,245.0495 195.1566,243.8508 193.5828,242.8864 191.8776,242.1801 190.0829,241.7492 188.2428,241.6044 186.4028,241.7492 184.608,242.1801 182.9028,242.8864 181.3291,243.8508 179.9256,245.0495 178.7268,246.453 177.7625,248.0267 177.0561,249.732 176.6252,251.5267 176.4804,253.3668 176.6252,255.2068 177.0561,257.0016 177.7625,258.7068 178.7268,260.2805 179.9256,261.6841 181.3291,262.8828 182.9028,263.8471 184.608,264.5535 186.4028,264.9844 188.2428,265.1292 190.0829,264.9844 191.8776,264.5535 193.5828,263.8471 195.1566,262.8828 196.5601,261.6841 197.7588,260.2805 198.7232,258.7068 199.4295,257.0016 199.8604,255.2068 200.0052,253.3668" stroke="black" stroke-width="1" /><polyline fill="none" points="188.5,69.0664 199.6839,69.5912 210.7696,71.161 221.6595,73.7619 232.2581,77.3712 242.4721,81.9571 252.2118,87.4792 261.3915,93.8892 269.9308,101.1306 277.7544,109.1398 284.7936,117.8464 290.9866,127.1739 296.2789,137.0404 300.6241,147.3591 303.9839,158.0393 306.3289,168.9873 307.6383,180.1067 307.9008,191.2998 307.114,202.4684 305.2847,213.5142 302.4292,224.3402 298.5725,234.8512 293.7484,244.9549 287.9994,254.5625 281.376,263.5894 273.9365,271.9565 265.7461,279.5902 256.8768,286.4234 247.4067,292.3961 237.4188,297.4556 227.0011,301.5577 216.2451,304.6663 205.2452,306.7539 194.0981,307.8023 182.9019,307.8023 171.7548,306.7539 160.7549,304.6663 149.9989,301.5577 139.5811,297.4556 129.5933,292.3961 120.1232,286.4234 111.2539,279.5902 103.0635,271.9565 95.6239,263.5894 89.0006,254.5625 83.2516,244.9549 78.4275,234.8512 74.5708,224.3402 71.7153,213.5142 69.8861,202.4684 69.0992,191.2998 69.3617,180.1067 70.6712,168.9872 73.0161,158.0393 76.3759,147.3591 80.7211,137.0404 86.0134,127.174 92.2064,117.8464 99.2457,109.1398 107.0692,101.1306 115.6085,93.8892 124.7882,87.4792 134.5279,81.957 144.7419,77.3712 155.3405,73.7619 166.2304,71.161 177.3161,69.5912 188.5,69.0664" stroke="black" stroke-width="1" />

    </g>
  </g>
  <WCB
     pausedposy="0"
     pausedposx="0"
     lastknownposy="0"
     lastknownposx="0"
     lastpathnc="0"
     lastpath="0"
     node="0"
     layer="0" />
</svg>
