<?xml version="1.0" encoding="UTF-8" standalone="no"?>
<!-- Created with Inkscape (http://www.inkscape.org/) -->

<svg
   xmlns:dc="http://purl.org/dc/elements/1.1/"
   xmlns:cc="http://creativecommons.org/ns#"
   xmlns:rdf="http://www.w3.org/1999/02/22-rdf-syntax-ns#"
   xmlns:svg="http://www.w3.org/2000/svg"
   xmlns="http://www.w3.org/2000/svg"
   xmlns:sodipodi="http://sodipodi.sourceforge.net/DTD/sodipodi-0.dtd"
   xmlns:inkscape="http://www.inkscape.org/namespaces/inkscape"
   width="100mm"
   height="100mm"
   viewBox="0 0 100 100"
   version="1.1"
   id="svg19124"
   inkscape:version="0.92.3 (2405546, 2018-03-11)"
   sodipodi:docname="inkscape_template_TMP.svg"
   shape-rendering="crispEdges">
  <sodipodi:namedview
     pagecolor="#ffffff"
     bordercolor="#666666"
     borderopacity="1"
     objecttolerance="10"
     gridtolerance="10"
     guidetolerance="10"
     inkscape:pageopacity="0"
     inkscape:pageshadow="2"
     inkscape:window-width="1568"
     inkscape:window-height="1550"
     id="namedview24021"
     showgrid="false"
     inkscape:zoom="0.62441667"
     inkscape:cx="712.66515"
     inkscape:cy="409.98265"
     inkscape:window-x="0"
     inkscape:window-y="0"
     inkscape:window-maximized="0"
     inkscape:current-layer="layer1" />
  <defs
     id="defs19118" />
  <metadata
     id="metadata19121">
    <rdf:RDF>
      <cc:Work
         rdf:about="">
        <dc:format>image/svg+xml</dc:format>
        <dc:type
           rdf:resource="http://purl.org/dc/dcmitype/StillImage" />
        <dc:title />
      </cc:Work>
    </rdf:RDF>
  </metadata>
  <g
     transform="translate(0,-197)"
     id="layer1"
     inkscape:groupmode="layer"
     inkscape:label="Layer 1">
    <g
       id="g24447"
       transform="matrix(0.26458333,0,0,0.26458333,0.10666333,197.9735)">

<polyline fill="none" points="192.1004,47.7394 189.7225,51.1455 187.3447,54.5516 184.9669,57.9577 184.9669,54.5516 184.9669,51.1455 184.9669,47.7394 184.9669,45.7676 186.5623,44.1729 188.5334,44.1729 190.5231,44.1729 192.1004,45.7676 192.1004,47.7394 192.1004,51.1455 192.1004,54.5516 192.1004,57.9577 192.1004,59.9295 190.5231,61.5235 188.5509,61.5235 186.5623,61.5235 184.9669,59.9295 184.9669,57.9577" stroke="black" stroke-width="1" /><polyline fill="none" points="197.8298,61.5877 200.7471,57.7851 198.696,53.7706 202.935,62.0679 200.7471,57.7851 203.4811,54.2207" stroke="black" stroke-width="1" /><polyline fill="none" points="217.2511,47.2193 216.2749,47.034 215.3542,47.4703 215.1176,48.7167 214.8885,49.9238 214.6595,51.1308 214.4304,52.3379 215.0254,52.4508 215.6204,52.5638 216.2154,52.6767 215.0699,52.4593 213.9245,52.2419 212.7791,52.0245 213.3295,52.129 213.8799,52.2334 214.4304,52.3379 213.726,56.0491 213.0217,59.7602 212.3174,63.4713" stroke="black" stroke-width="1" /><polyline fill="none" points="224.2171,52.3012 224.7646,50.4068 226.7393,49.3179 228.6336,49.8654 230.5447,50.4177 231.6572,52.4345 231.1097,54.3288 230.8952,55.071 230.6048,55.5213 230.2857,55.8228 227.0592,58.8756 223.8327,61.9283 220.6061,64.9811 220.5665,65.1182 220.5269,65.2552 220.4873,65.3922 222.7606,66.0492 225.0338,66.7061 227.3071,67.3631" stroke="black" stroke-width="1" /><polyline fill="none" points="237.08,55.0962 237.9469,52.8945 244.5687,55.502 233.6444,69.6254" stroke="black" stroke-width="1" /><polyline fill="none" points="249.3586,60.2315 250.4279,58.1207 256.7765,61.3367 244.5776,74.3751" stroke="black" stroke-width="1" /><polyline fill="none" points="267.0143,67.577 266.1739,67.047 265.1573,67.1156 264.4806,68.1887 263.8252,69.2279 263.1698,70.2671 262.5144,71.3063 263.0266,71.6293 263.5389,71.9524 264.0511,72.2755 263.065,71.6535 262.0789,71.0316 261.0927,70.4097 261.5666,70.7085 262.0405,71.0074 262.5144,71.3063 260.4993,74.5013 258.4843,77.6964 256.4692,80.8914" stroke="black" stroke-width="1" /><polyline fill="none" points="269.9359,88.4934 268.9061,88.847 267.7402,89.0962 266.0557,87.7984 264.5477,86.6366 264.1992,84.4204 265.4447,82.8037 266.3549,81.6223 267.2651,80.4409 268.1753,79.2595 269.3892,77.6839 271.6205,77.4562 273.1285,78.618 274.6637,79.8008 275.0395,82.0371 273.8256,83.6127 273.3723,84.2011 272.9189,84.7895 272.4656,85.3779 270.5867,83.9303 268.7078,82.4827 266.8289,81.0352" stroke="black" stroke-width="1" /><polyline fill="none" points="288.1847,84.3375 287.4579,83.66 286.4463,83.5379 285.5814,84.466 284.7437,85.3647 283.906,86.2635 283.0683,87.1623 283.5114,87.5752 283.9543,87.9881 284.3974,88.401 283.5445,87.6061 282.6917,86.8112 281.8388,86.0163 282.2486,86.3983 282.6584,86.7803 283.0683,87.1623 280.4929,89.9256 277.9174,92.6888 275.3419,95.4521" stroke="black" stroke-width="1" /><polyline fill="none" points="288.427,104.2825 286.9408,105.6039 284.7165,105.4248 283.4518,104.0025 282.1872,102.5801 282.2583,100.3376 283.7444,99.0162 284.8718,98.0138 285.9993,97.0113 287.1267,96.0089 288.6131,94.6872 290.848,94.8794 292.1127,96.3017 293.3774,97.7241 293.2956,99.9536 291.8092,101.2752" stroke="black" stroke-width="1" /><polyline fill="none" points="295.4172,105.7366 297.0208,104.56 299.2278,104.9602 300.3539,106.495 301.4796,108.0293 301.1895,110.2414 299.5858,111.418 298.3695,112.3105 297.1532,113.2029 295.9368,114.0954 294.3335,115.2718 292.1357,114.8852 291.01,113.351 289.8839,111.8162 290.1748,109.6039 291.7781,108.4275 291.7748,108.423 291.7715,108.4185 291.7682,108.414 295.4727,105.6959 299.1772,102.9778 302.8817,100.2597" stroke="black" stroke-width="1" /><polyline fill="none" points="307.4896,113.2185 309.1817,112.206 311.3687,112.7558 312.3811,114.4478 313.4026,116.1549 312.8413,118.3887 311.1493,119.4012 310.4864,119.7978 309.9669,119.9293 309.5279,119.9323 305.0862,119.9656 300.6445,119.9989 296.2028,120.0323 296.0804,120.1055 295.958,120.1787 295.8356,120.252 297.0506,122.2825 298.2656,124.313 299.4807,126.3435" stroke="black" stroke-width="1" /><polyline fill="none" points="307.5239,127.7279 309.3033,126.8783 311.4298,127.6301 312.2791,129.4089 313.1364,131.2044 312.3766,133.315 310.5972,134.1646 309.6793,134.6028 308.7615,135.041 307.8437,135.4792 306.0643,136.3288 303.946,135.5925 303.0887,133.7969 302.2394,132.0181 302.991,129.8921 304.7705,129.0425 307.8442,127.575 310.9178,126.1074 313.9916,124.6398 315.7707,123.7904 317.8969,124.5424 318.7462,126.3212 319.4779,127.8537 319.0314,129.6243 317.7708,130.6445" stroke="black" stroke-width="1" /><polyline fill="none" points="324.9656,141.5323 324.2587,139.6058 323.5518,137.6793 322.845,135.7528 320.3071,136.684 317.7692,137.6152 315.2314,138.5464 316.5984,138.7387 317.584,139.3822 318.0978,140.7823 318.8066,142.714 317.7621,144.7955 315.976,145.4509 314.699,145.9194 313.4221,146.388 312.1452,146.8565 310.2783,147.5415 308.3607,146.5468 307.7168,144.7919 307.079,143.0537 307.9041,141.071 309.771,140.3859" stroke="black" stroke-width="1" /><polyline fill="none" points="320.5805,157.0006 320.5858,156.9993 320.5911,156.9979 320.5963,156.9965 318.3419,157.5911 316.0875,158.1857 313.8331,158.7804 312.7912,159.0552 312.5841,159.8918 312.7281,160.4374 312.5443,159.7408 312.986,159.0038 313.7009,158.8152 313.7449,158.8036 313.789,158.792 313.8331,158.7804 312.6082,157.968 311.6129,156.8831 311.2326,155.4413 310.9177,154.2474 311.0031,152.1501 313.4399,151.5074 314.7166,151.1706 315.7165,151.6689 316.4179,152.5835 316.7648,153.0235 317.4959,154.5165 317.9911,155.5202 318.507,156.5366 319.3037,157.3374 320.5805,157.0006 321.8734,156.6596 323.0854,154.9389 322.5607,152.9497 322.0665,151.0759 320.9278,150.4543 319.938,150.1299" stroke="black" stroke-width="1" /><polyline fill="none" points="327.9575,169.0549 324.2087,167.2655 320.4599,165.4761 316.7111,163.6867 320.0714,163.1302 323.4317,162.5737 326.792,162.0173 328.7374,161.6951 330.5713,163.0086 330.8934,164.9532 331.2184,166.9162 329.9028,168.7327 327.9575,169.0549 324.5972,169.6114 321.2369,170.1678 317.8766,170.7243 315.9312,171.0465 314.101,169.7509 313.7787,167.8052 313.4538,165.8432 314.7657,164.0089 316.7111,163.6867" stroke="black" stroke-width="1" /><polyline fill="none" points="332.6406,181.2671 332.4964,179.2201 332.3522,177.1731 332.2079,175.126 329.5114,175.316 326.8147,175.506 324.1181,175.696 325.3781,176.2603 326.1462,177.1521 326.251,178.6399 326.3956,180.6924 324.8143,182.4021 322.9164,182.5358 321.5596,182.6314 320.2028,182.727 318.846,182.8226 316.8623,182.9623 315.2963,181.4743 315.1649,179.6096 315.0348,177.7627 316.3779,176.087 318.3617,175.9472" stroke="black" stroke-width="1" /><polyline fill="none" points="332.6845,194.7964 332.7326,192.7449 332.7807,190.6934 332.8289,188.6418 330.1263,188.5785 327.4237,188.5151 324.7211,188.4517 325.9227,189.1315 326.604,190.0914 326.569,191.5824 326.5208,193.6394 324.7863,195.1935 322.8843,195.1489 321.5245,195.1171 320.1647,195.0852 318.8049,195.0533 316.8168,195.0067 315.397,193.3786 315.4409,191.5098 315.4843,189.6588 316.9784,188.1162 318.9665,188.1628" stroke="black" stroke-width="1" /><polyline fill="none" points="316.1313,207.0298 315.2992,206.3276 314.4867,205.4552 314.7354,203.3432 314.958,201.4527 316.6808,200.0157 318.7076,200.2543 320.1887,200.4288 321.6699,200.6032 323.151,200.7776 325.1263,201.0102 326.4675,202.8081 326.2448,204.6986 326.0182,206.6233 324.2921,208.094 322.3168,207.8614 321.5791,207.7746 320.8414,207.6877 320.1038,207.6008 320.3812,205.2452 320.6586,202.8896 320.936,200.534" stroke="black" stroke-width="1" /><polyline fill="none" points="320.5594,220.0876 320.5647,220.0888 320.5701,220.0899 320.5754,220.0911 318.2957,219.6028 316.0158,219.1144 313.736,218.6261 312.6824,218.4005 312.1196,219.0532 312.0014,219.6049 312.1523,218.9005 312.8794,218.4426 313.6023,218.5975 313.6469,218.607 313.6915,218.6166 313.736,218.6261 313.0105,217.3479 312.6129,215.9303 312.9251,214.4722 313.1837,213.265 314.2077,211.4326 316.6719,211.9604 317.963,212.237 318.6298,213.1333 318.8422,214.2662 318.9529,214.8155 318.9303,216.4777 318.9185,217.5969 318.9195,218.7367 319.2682,219.8111 320.5594,220.0876 321.8669,220.3677 323.7257,219.3804 324.1566,217.3688 324.5624,215.4739 323.8275,214.4048 323.0911,213.6681" stroke="black" stroke-width="1" /><polyline fill="none" points="323.8241,227.4002 325.7051,227.9919 326.7474,229.9915 326.1557,231.8725 325.5587,233.7702 323.5164,234.835 321.6354,234.2433 320.8985,234.0115 320.4551,233.7106 320.1612,233.3845 317.1849,230.0873 314.2086,226.7901 311.2322,223.4929 311.0962,223.4501 310.9601,223.4073 310.8241,223.3645 310.114,225.6217 309.4039,227.8789 308.6938,230.1362" stroke="black" stroke-width="1" /><polyline fill="none" points="320.7283,240.194 322.909,241.1122 320.1471,247.6711 306.2836,236.4187" stroke="black" stroke-width="1" /><polyline fill="none" points="306.5975,255.5107 306.6023,255.5133 306.6071,255.5159 306.612,255.5185 304.5574,254.4164 302.5028,253.3143 300.4482,252.2123 299.4986,251.7029 298.7768,252.1737 298.51,252.671 298.8505,252.0362 299.6761,251.7981 300.3276,252.1476 300.3678,252.1692 300.408,252.1907 300.4482,252.2123 300.106,250.7829 300.1176,249.3106 300.8224,247.9966 301.4061,246.9085 302.8985,245.4325 305.1193,246.6237 306.2829,247.2479 306.6746,248.2941 306.5641,249.4414 306.5179,249.9998 306.0347,251.5904 305.7127,252.6623 305.3971,253.7576 305.4339,254.8866 306.5975,255.5107 307.7759,256.1428 309.8357,255.7104 310.8081,253.8975 311.7241,252.1898 311.3149,250.9587 310.812,250.0465" stroke="black" stroke-width="1" /><polyline fill="none" points="307.1325,264.5804 308.4761,268.6638 294.1937,259.181" stroke="black" stroke-width="1" /><polyline fill="none" points="285.7104,270.4996 289.0569,273.2052 292.8951,268.4578 299.3224,280.9315" stroke="black" stroke-width="1" /><polyline fill="none" points="289.4678,291.8159 286.181,288.6053 282.8942,285.3947 279.6074,282.1841 278.1846,280.7942 278.2187,278.5513 279.5489,277.1895 280.8668,275.8403 283.1086,275.7534 284.5314,277.1432 285.6106,278.1974 286.6898,279.2516 287.769,280.3058 289.1918,281.6956 289.157,283.9383 287.839,285.2875 286.5088,286.6493 284.2678,286.7365 282.845,285.3466" stroke="black" stroke-width="1" /><polyline fill="none" points="283.0962,294.3686 284.6266,296.1732 279.1988,300.7761 271.9166,284.4732" stroke="black" stroke-width="1" /><polyline fill="none" points="264.2958,303.5324 263.1669,301.9157 263.5481,299.7054 265.1648,298.5765 266.7956,297.4378 269.015,297.8322 270.1439,299.4489 270.7263,300.283 271.3087,301.117 271.8912,301.9511 273.0201,303.5678 272.6262,305.7879 271.0091,306.917 269.3787,308.0555 267.1719,307.6514 266.043,306.0347 264.093,303.242 262.143,300.4494 260.193,297.6568 259.0643,296.0403 259.4453,293.8298 261.062,292.7009 262.4535,291.7292 264.2743,291.8801 265.487,292.9574" stroke="black" stroke-width="1" /><polyline fill="none" points="258.1909,304.3631 259.1719,306.0933 258.5162,308.2383 256.8603,309.1772 255.2049,310.1158 253.0419,309.5688 252.0609,307.8386 251.3168,306.5262 250.5728,305.2139 249.8287,303.9015 248.8479,302.1716 249.4888,300.0341 251.1442,299.0956 252.8002,298.1566 254.9632,298.7043 255.944,300.4343 255.9489,300.4315 255.9538,300.4287 255.9586,300.426 258.2248,304.4229 260.491,308.4199 262.7572,312.4168" stroke="black" stroke-width="1" /><polyline fill="none" points="244.2812,312.7914 242.7622,313.3622 241.7707,315.4505 242.5748,317.2415 242.762,317.6584 242.9491,318.0752 243.1363,318.492 243.8949,320.1818 245.8904,320.9395 247.5958,320.1739 249.2852,319.4153 250.03,317.3893 249.2855,315.7312 249.0984,315.3143 248.9112,314.8975 248.7241,314.4807 247.9653,312.7906 245.9706,312.0329 244.2812,312.7914 242.4198,313.6271 240.2826,312.7639 239.4752,310.9656 239.199,310.3504 238.9227,309.7351 238.6465,309.1199 237.839,307.3214 238.6277,305.1812 240.4892,304.3454 242.3349,303.5167 244.4574,304.3498 245.2649,306.1483 245.5457,306.7738 245.8266,307.3993 246.1074,308.0247 246.7996,309.5665 246.2523,311.7953" stroke="black" stroke-width="1" /><polyline fill="none" points="229.2036,318.0403 229.2053,318.0454 229.2071,318.0506 229.2089,318.0558 228.4573,315.8488 227.7057,313.6417 226.9541,311.4347 226.6067,310.4146 225.7577,310.2669 225.2235,310.4488 225.9054,310.2166 226.6716,310.6053 226.91,311.3052 226.9247,311.3483 226.9394,311.3915 226.9541,311.4347 227.6783,310.1557 228.6906,309.0866 230.1022,308.6059 231.2709,308.2079 233.369,308.1458 234.1814,310.5313 234.6071,311.7812 234.1803,312.8136 233.3173,313.5776 232.9027,313.9546 231.4648,314.7887 230.4984,315.3533 229.5208,315.9393 228.7779,316.7903 229.2036,318.0403 229.6346,319.306 231.4362,320.3941 233.3837,319.731 235.2181,319.1063 235.7581,317.9266 236.0122,316.9165" stroke="black" stroke-width="1" /><polyline fill="none" points="217.6976,326.2462 219.2191,322.3809 220.7406,318.5156 222.2621,314.6503 223.0534,317.9632 223.8446,321.2761 224.6359,324.589 225.094,326.5069 223.9127,328.4286 221.9954,328.8865 220.0602,329.3488 218.1557,328.1641 217.6976,326.2462 216.9063,322.9333 216.1151,319.6204 215.3238,316.3075 214.8658,314.3896 216.0295,312.4728 217.9478,312.0146 219.882,311.5527 221.8041,312.7324 222.2621,314.6503" stroke="black" stroke-width="1" /><polyline fill="none" points="210.895,321.8399 211.1739,323.8093 209.778,325.5649 207.8931,325.8318 206.009,326.0986 204.1968,324.7972 203.9179,322.8279 203.7064,321.3342 203.4949,319.8404 203.2834,318.3467 203.0046,316.3777 204.3841,314.6237 206.2682,314.3569 208.1531,314.09 209.965,315.3921 210.2438,317.3611 210.2494,317.3603 210.2549,317.3595 210.2605,317.3587 210.9047,321.908 211.5489,326.4573 212.1931,331.0066" stroke="black" stroke-width="1" /><polyline fill="none" points="198.5953,328.9419 198.6877,330.9116 197.1695,332.5789 195.1998,332.6714 193.2126,332.7646 191.5094,331.2141 191.417,329.2444 191.3808,328.4727 191.5105,327.9528 191.7154,327.5646 193.7856,323.6346 195.8557,319.7047 197.9259,315.7748 197.9192,315.6323 197.9126,315.4898 197.9059,315.3474 195.5422,315.4583 193.1785,315.5692 190.8148,315.6801" stroke="black" stroke-width="1" /><polyline fill="none" points="178.3371,325.8833 178.4296,323.9136 180.0804,322.3954 182.0501,322.4878 184.0369,322.581 185.5545,324.248 185.462,326.2177 185.4144,327.2338 185.3667,328.25 185.319,329.2662 185.2266,331.2359 183.5596,332.7541 181.5895,332.6617 179.6031,332.5685 178.1017,330.9016 178.1941,328.9319 178.3537,325.5295 178.5134,322.1272 178.673,318.7249 178.7654,316.7556 180.4164,315.2369 182.386,315.3293 184.0814,315.4089 185.4316,316.6396 185.7348,318.2332" stroke="black" stroke-width="1" /><polyline fill="none" points="166.2711,322.4527 166.2703,322.4581 166.2696,322.4636 166.2688,322.469 166.5957,320.1605 166.9226,317.852 167.2495,315.5435 167.4005,314.4767 166.7099,313.9612 166.1512,313.882 166.8644,313.983 167.3723,314.6761 167.2686,315.4081 167.2623,315.4532 167.2559,315.4984 167.2495,315.5435 168.4735,314.7299 169.8597,314.2337 171.3361,314.4427 172.5586,314.6158 174.4583,315.5085 174.105,318.0037 173.9199,319.3111 173.0726,320.0392 171.9575,320.3307 171.4173,320.4797 169.7576,320.574 168.6404,320.6409 167.5035,320.7219 166.4562,321.1454 166.2711,322.4527 166.0836,323.7767 167.1991,325.5615 169.236,325.8499 171.1548,326.1216 172.1696,325.3134 172.8527,324.5271" stroke="black" stroke-width="1" /><polyline fill="none" points="152.1452,328.168 154.1411,328.6447 156.1371,329.1214 158.133,329.5981 158.761,326.9688 159.389,324.3394 160.017,321.7101 159.1006,322.7426 158.0194,323.2078 156.5687,322.8613 154.5674,322.3833 153.411,320.3618 153.853,318.5113 154.169,317.1884 154.485,315.8654 154.8009,314.5424 155.2629,312.6082 157.1522,311.5609 158.9704,311.9951 160.7713,312.4253 161.9667,314.2093 161.5048,316.1436" stroke="black" stroke-width="1" /><polyline fill="none" points="138.7693,324.1301 140.2505,319.7808 141.7316,315.4313 143.2128,311.0819 143.854,309.1991 145.8927,308.2635 147.6947,308.8771 149.4802,309.4852 150.5245,311.4707 149.8833,313.3535 149.397,314.7816 148.9106,316.2097 148.4243,317.6378 147.7831,319.5206 145.7443,320.4555 143.9588,319.8474 142.1568,319.2338 141.1126,317.249 141.7538,315.3662" stroke="black" stroke-width="1" /><polyline fill="none" points="136.3123,313.2297 135.4977,315.0443 133.3804,315.7845 131.6438,315.0049 129.9078,314.2254 129.0692,312.158 129.8839,310.3435 130.5018,308.9672 131.1197,307.5909 131.7376,306.2147 132.5522,304.4005 134.6547,303.6528 136.3907,304.4323 138.1273,305.212 138.9653,307.2799 138.1508,309.0941 138.1559,309.0963 138.161,309.0986 138.1661,309.101 136.2841,313.2925 134.4022,317.4841 132.5203,321.6757" stroke="black" stroke-width="1" /><polyline fill="none" points="120.9447,312.1859 116.9659,313.8131 125.4215,298.8996" stroke="black" stroke-width="1" /><polyline fill="none" points="109.6595,305.3164 105.5457,306.5639 115.3607,292.5078" stroke="black" stroke-width="1" /><polyline fill="none" points="94.7144,293.5274 98.7309,292.4676 102.7473,291.4077 106.7638,290.3478 104.5609,292.9456 102.3579,295.5434 100.155,298.1411 98.8796,299.645 96.6314,299.8294 95.1281,298.5545 93.6105,297.2676 93.439,295.0313 94.7144,293.5274 96.9173,290.9297 99.1203,288.3319 101.3232,285.7341 102.5985,284.2302 104.8324,284.0346 106.3366,285.3102 107.8533,286.5964 108.0391,288.8439 106.7638,290.3478" stroke="black" stroke-width="1" /><polyline fill="none" points="89.1384,281.0458 89.1344,281.0496 89.1305,281.0534 89.1266,281.0573 90.7944,279.4281 92.4623,277.7989 94.1301,276.1697 94.9009,275.4167 94.6685,274.5869 94.2741,274.1832 94.7775,274.6985 94.7568,275.5575 94.228,276.0741 94.1954,276.106 94.1627,276.1378 94.1301,276.1697 95.5963,276.2723 96.9973,276.7251 98.0392,277.7918 98.902,278.675 99.8621,280.5416 98.0594,282.3026 97.1148,283.2252 95.9993,283.2849 94.938,282.8353 94.4192,282.6236 93.0469,281.6854 92.121,281.0565 91.1709,280.4268 90.0829,280.1231 89.1384,281.0458 88.1818,281.9802 87.9762,284.0748 89.4137,285.5464 90.7678,286.9327 92.065,286.9118 93.086,286.7058" stroke="black" stroke-width="1" /><polyline fill="none" points="84.7354,267.9411 86.2818,266.6908 88.4953,266.9739 89.6919,268.454 90.8886,269.9341 90.7124,272.1708 89.1659,273.4211 87.9928,274.3696 86.8196,275.3181 85.6465,276.2666 84.0997,277.5171 81.8763,277.2205 80.6796,275.7404 79.483,274.2603 79.6692,272.037 81.2159,270.7866" stroke="black" stroke-width="1" /><polyline fill="none" points="77.821,266.161 76.164,267.2612 73.9782,266.7579 72.9253,265.172 71.8727,263.5867 72.2663,261.3906 73.9233,260.2904 75.1801,259.456 76.4369,258.6215 77.6937,257.787 79.3505,256.6871 81.5277,257.1763 82.5803,258.7616 83.6333,260.3475 83.2389,262.5436 81.5822,263.6436 81.5853,263.6483 81.5884,263.6529 81.5915,263.6576 77.7637,266.199 73.9359,268.7405 70.1081,271.282" stroke="black" stroke-width="1" /><polyline fill="none" points="59.6468,253.8109 63.6957,251.6391 67.7447,249.4672 71.7937,247.2954 73.5464,246.3552 75.6758,247.0608 76.5756,248.7383 77.4671,250.4004 76.8773,252.5649 75.1245,253.5051 73.7951,254.2182 72.4657,254.9313 71.1362,255.6444 69.3835,256.5846 67.2546,255.8784 66.363,254.2163 65.4632,252.5387 66.0526,250.3749 67.8053,249.4347" stroke="black" stroke-width="1" /><polyline fill="none" points="57.3749,239.8098 61.4368,240.6794 65.4987,241.549 69.5606,242.4186 66.4215,243.7405 63.2824,245.0623 60.1433,246.3842 58.326,247.1495 56.2371,246.298 55.4721,244.4813 54.7,242.6476 55.5576,240.5751 57.3749,239.8098 60.514,238.488 63.6531,237.1661 66.7922,235.8442 68.6095,235.079 70.6906,235.914 71.456,237.7316 72.2278,239.5644 71.3779,241.6533 69.5606,242.4186" stroke="black" stroke-width="1" /><polyline fill="none" points="54.7512,232.9204 50.7311,231.3979 67.0848,226.2534" stroke="black" stroke-width="1" /><polyline fill="none" points="51.3668,221.3226 49.6231,221.6961 47.7682,220.5681 47.3623,218.6732 46.9566,216.7793 48.0999,214.9904 50.0779,214.5668 50.3907,214.4998 50.7035,214.4328 51.0163,214.3658 54.0341,213.7194 55.1004,216.2439 55.1724,216.5799 55.2418,216.9039 55.3111,217.2278 55.3805,217.5518 55.3111,217.2278 55.2418,216.9039 55.1724,216.5799 54.9604,215.5902 55.6817,213.2262 58.0282,212.7236 58.7157,212.5764 59.4032,212.4291 60.0907,212.2819 62.0349,211.8654 63.9152,213.1115 64.3317,215.0564 64.7519,217.018 63.5433,218.9074 61.5991,219.3238" stroke="black" stroke-width="1" /><polyline fill="none" points="53.1978,204.4125 53.1091,202.7922 51.4146,201.2197 49.4648,201.4493 49.011,201.5028 48.5572,201.5562 48.1034,201.6097 46.2639,201.8263 44.9423,203.5024 45.1609,205.3589 45.3775,207.1981 47.0867,208.5166 48.8918,208.304 49.3456,208.2506 49.7993,208.1971 50.2531,208.1437 52.093,207.927 53.4144,206.2516 53.1978,204.4125 52.9592,202.3861 54.424,200.6064 56.3816,200.3759 57.0514,200.297 57.7212,200.2181 58.391,200.1392 60.349,199.9087 62.1538,201.3033 62.3924,203.3297 62.6291,205.3391 61.1975,207.1138 59.2395,207.3443 58.5586,207.4245 57.8777,207.5047 57.1968,207.5849 55.5183,207.7826 53.5565,206.5916" stroke="black" stroke-width="1" /><polyline fill="none" points="44.0401,188.533 48.6335,188.4253 53.2269,188.3176 57.8203,188.2099 59.8088,188.1632 61.3894,189.7549 61.4341,191.658 61.4783,193.5436 59.974,195.208 57.9855,195.2546 56.4773,195.29 54.9691,195.3253 53.4609,195.3607 51.4724,195.4073 49.8925,193.8153 49.8483,191.9297 49.8036,190.0266 51.3073,188.3626 53.2957,188.316" stroke="black" stroke-width="1" /><polyline fill="none" points="54.9865,182.6615 53.0195,182.5229 51.5405,180.8201 51.679,178.8538 51.8188,176.869 53.5208,175.4078 55.4877,175.5464 56.5023,175.6179 57.5168,175.6893 58.5314,175.7608 60.4984,175.8994 61.9779,177.5847 61.8381,179.5695 61.6996,181.5358 59.9971,183.0145 58.0301,182.8759 54.6325,182.6366 51.2348,182.3972 47.8372,182.1578 45.8705,182.0193 44.3919,180.3165 44.5304,178.3502 44.6497,176.6561 45.9114,175.3361 47.5112,175.0704" stroke="black" stroke-width="1" /><polyline fill="none" points="63.4924,165.1139 59.2469,164.4108 58.2495,170.4336 46.5061,162.7527" stroke="black" stroke-width="1" /><polyline fill="none" points="51.3353,155.8095 49.611,155.3547 48.466,153.5102 48.9602,151.6363 49.4542,149.7635 51.2824,148.6844 53.2384,149.2004 53.5478,149.282 53.8571,149.3635 54.1664,149.4451 57.1505,150.2322 56.9609,152.9662 56.8733,153.2984 56.7888,153.6187 56.7043,153.9391 56.6198,154.2595 56.7043,153.9391 56.7888,153.6187 56.8733,153.2984 57.1314,152.3197 58.8431,150.5368 61.1635,151.1489 61.8434,151.3282 62.5232,151.5075 63.2031,151.6869 65.1256,152.194 66.2398,154.1552 65.7326,156.0784 65.2209,158.0182 63.2889,159.1575 61.3664,158.6504" stroke="black" stroke-width="1" /><polyline fill="none" points="60.6103,141.5519 61.2634,140.0664 60.4624,137.8979 58.6193,137.2216 58.1903,137.0643 57.7614,136.9069 57.3324,136.7495 55.5936,136.1114 53.6571,137.0094 53.0132,138.7643 52.3753,140.5029 53.3042,142.4514 55.0105,143.0775 55.4394,143.2349 55.8684,143.3923 56.2974,143.5497 58.0365,144.1879 59.9724,143.2904 60.6103,141.5519 61.3132,139.6364 63.4241,138.7108 65.2747,139.3897 65.9078,139.6221 66.541,139.8544 67.1741,140.0867 69.0249,140.7658 70.0048,142.8255 69.3019,144.7411 68.6049,146.6405 66.5259,147.5767 64.675,146.8976 64.0314,146.6614 63.3877,146.4252 62.744,146.1891 61.1574,145.6069 59.9456,143.658" stroke="black" stroke-width="1" /><polyline fill="none" points="59.9666,131.011 58.1871,130.1613 57.4355,128.0353 58.285,126.2559 59.1422,124.4607 61.3136,123.6927 63.093,124.5423 63.7902,124.8751 64.187,125.2352 64.4323,125.5993 66.9169,129.2812 69.4016,132.9631 71.8862,136.6451 72.0149,136.7065 72.1436,136.768 72.2723,136.8294 73.2919,134.6941 74.3114,132.5587 75.331,130.4233" stroke="black" stroke-width="1" /><polyline fill="none" points="65.9147,119.2275 64.2226,118.215 63.6733,116.028 64.6858,114.3359 65.7073,112.6288 67.9411,112.0676 69.6332,113.0801 70.2961,113.4767 70.6574,113.8724 70.8676,114.2578 72.9965,118.1562 75.1254,122.0546 77.2544,125.9531 77.3768,126.0263 77.4991,126.0995 77.6215,126.1728 78.8365,124.1423 80.0516,122.1117 81.2666,120.0812" stroke="black" stroke-width="1" /><polyline fill="none" points="72.9401,108.0528 71.3503,106.8863 71.0082,104.6574 72.1747,103.0676 73.3516,101.4637 75.6281,101.1141 77.2179,102.2806 77.8408,102.7376 78.1635,103.1653 78.3366,103.5687 80.0911,107.6494 81.8457,111.73 83.6002,115.8107 83.7152,115.895 83.8302,115.9794 83.9452,116.0638 85.345,114.156 86.7448,112.2482 88.1446,110.3403" stroke="black" stroke-width="1" /><polyline fill="none" points="93.1735,99.1085 94.6597,100.4299 94.742,102.6599 93.4773,104.0822 92.2126,105.5046 89.9771,105.6962 88.491,104.3748 87.3636,103.3724 86.2362,102.3699 85.1087,101.3675 83.6223,100.0459 83.5517,97.8038 84.8164,96.3814 86.0811,94.9591 88.3049,94.7795 89.7913,96.1011" stroke="black" stroke-width="1" /><polyline fill="none" points="90.7868,86.942 90.4285,82.6582 102.1173,95.1994" stroke="black" stroke-width="1" /><polyline fill="none" points="99.7946,78.8908 98.7062,77.4781 98.9249,75.3182 100.4601,74.1354 101.9944,72.9533 104.1012,73.2143 105.3359,74.8168 105.5311,75.0702 105.7263,75.3236 105.9215,75.577 107.8051,78.0218 105.9863,80.0718 105.7142,80.2815 105.4517,80.4837 105.1892,80.6859 104.9268,80.8881 105.1892,80.6859 105.4517,80.4837 105.7142,80.2815 106.516,79.6637 108.96,79.2961 110.4246,81.1971 110.8537,81.7541 111.2828,82.3111 111.7119,82.868 112.9254,84.4431 112.6111,86.6767 111.0355,87.8906 109.4463,89.115 107.2205,88.8383 106.007,87.2633" stroke="black" stroke-width="1" /><polyline fill="none" points="113.9926,64.898 112.2568,65.9926 110.5211,67.0873 108.7854,68.182 110.2274,70.4686 111.6695,72.7551 113.1116,75.0417 113.0133,73.6646 113.4361,72.5661 114.6977,71.7705 116.438,70.6729 118.6921,71.2582 119.707,72.8675 120.4326,74.018 121.1582,75.1684 121.8838,76.3189 122.9446,78.001 122.3736,80.0843 120.7924,81.0815 119.2264,82.0692 117.1148,81.6777 116.054,79.9956" stroke="black" stroke-width="1" /><polyline fill="none" points="130.0363,65.9461 130.0338,65.9412 130.0314,65.9363 130.0289,65.9314 131.0825,68.0113 132.1361,70.0912 133.1897,72.1711 133.6767,73.1323 134.5381,73.1595 135.0414,72.9045 134.3988,73.2301 133.5856,72.9526 133.2515,72.2931 133.2309,72.2524 133.2103,72.2117 133.1897,72.1711 132.6519,73.5389 131.7995,74.7394 130.4693,75.4132 129.3679,75.9712 127.2992,76.3269 126.1604,74.0788 125.5637,72.9009 125.8415,71.8189 126.5889,70.9414 126.9465,70.5101 128.2533,69.4825 129.131,68.7881 130.0168,68.0707 130.633,67.124 130.0363,65.9461 129.432,64.7532 127.4957,63.9285 125.6605,64.8582 123.9317,65.7339 123.5624,66.9776 123.4525,68.0133" stroke="black" stroke-width="1" /><polyline fill="none" points="144.3796,69.2222 142.8029,65.2181 137.1225,67.4548 137.6837,53.4338" stroke="black" stroke-width="1" /><polyline fill="none" points="151.6246,48.8258 152.9003,53.2399 154.176,57.6539 155.4516,62.0679 156.0039,63.9787 154.868,65.9131 153.0392,66.4416 151.2272,66.9652 149.2342,65.9352 148.682,64.0244 148.2631,62.5751 147.8443,61.1257 147.4254,59.6764 146.8732,57.7656 148.0096,55.8319 149.8216,55.3082 151.6504,54.7797 153.6429,55.8092 154.1951,57.72" stroke="black" stroke-width="1" /><polyline fill="none" points="164.866,45.9865 165.7227,50.5006 166.5794,55.0147 167.4362,59.5288 167.807,61.4829 166.495,63.3024 164.6248,63.6573 162.7717,64.009 160.8839,62.7968 160.5131,60.8427 160.2318,59.3605 159.9505,57.8784 159.6692,56.3962 159.2983,54.4421 160.6108,52.6233 162.4639,52.2716 164.3341,51.9166 166.2214,53.1282 166.5923,55.0823" stroke="black" stroke-width="1" /><polyline fill="none" points="256.7167,139.7419 156.5688,130.1462 236.6952,108.8569 268.4255,140.8637 108.5745,236.1363 140.8637,108.5745 239.8942,231.6324 189.0084,152.2515 140.8637,108.5745 188.1635,280.8196" stroke="black" stroke-width="1" /><polyline fill="none" points="205.1773,276.1475 171.1497,285.4917" stroke="black" stroke-width="1" /><polyline fill="none" points="280.1879,140.8637 280.0431,139.0237 279.6122,137.2289 278.9059,135.5237 277.9415,133.95 276.7428,132.5465 275.3393,131.3477 273.7655,130.3834 272.0603,129.677 270.2656,129.2462 268.4255,129.1013 266.5855,129.2462 264.7907,129.677 263.0855,130.3834 261.5117,131.3477 260.1082,132.5465 258.9095,133.95 257.9451,135.5237 257.2388,137.229 256.8079,139.0237 256.6631,140.8637 256.808,142.7038 257.2388,144.4985 257.9451,146.2038 258.9095,147.7775 260.1082,149.181 261.5117,150.3797 263.0855,151.3441 264.7907,152.0504 266.5855,152.4813 268.4255,152.6261 270.2656,152.4813 272.0603,152.0504 273.7655,151.3441 275.3393,150.3797 276.7428,149.181 277.9415,147.7775 278.9059,146.2038 279.6122,144.4985 280.0431,142.7038 280.1879,140.8637" stroke="black" stroke-width="1" /><polyline fill="none" points="188.5,69.0664 199.6839,69.5912 210.7696,71.161 221.6595,73.7619 232.2581,77.3712 242.4721,81.9571 252.2118,87.4792 261.3915,93.8892 269.9308,101.1306 277.7544,109.1398 284.7936,117.8464 290.9866,127.1739 296.2789,137.0404 300.6241,147.3591 303.9839,158.0393 306.3289,168.9873 307.6383,180.1067 307.9008,191.2998 307.114,202.4684 305.2847,213.5142 302.4292,224.3402 298.5725,234.8512 293.7484,244.9549 287.9994,254.5625 281.376,263.5894 273.9365,271.9565 265.7461,279.5902 256.8768,286.4234 247.4067,292.3961 237.4188,297.4556 227.0011,301.5577 216.2451,304.6663 205.2452,306.7539 194.0981,307.8023 182.9019,307.8023 171.7548,306.7539 160.7549,304.6663 149.9989,301.5577 139.5811,297.4556 129.5933,292.3961 120.1232,286.4234 111.2539,279.5902 103.0635,271.9565 95.6239,263.5894 89.0006,254.5625 83.2516,244.9549 78.4275,234.8512 74.5708,224.3402 71.7153,213.5142 69.8861,202.4684 69.0992,191.2998 69.3617,180.1067 70.6712,168.9872 73.0161,158.0393 76.3759,147.3591 80.7211,137.0404 86.0134,127.174 92.2064,117.8464 99.2457,109.1398 107.0692,101.1306 115.6085,93.8892 124.7882,87.4792 134.5279,81.957 144.7419,77.3712 155.3405,73.7619 166.2304,71.161 177.3161,69.5912 188.5,69.0664" stroke="black" stroke-width="1" />

    </g>
  </g>
  <WCB
     pausedposy="0"
     pausedposx="0"
     lastknownposy="0"
     lastknownposx="0"
     lastpathnc="0"
     lastpath="0"
     node="0"
     layer="0" />
</svg>
